<svg xmlns="http://www.w3.org/2000/svg" width="85" height="85" viewBox="0 0 85 85">
  <g id="Grupo_1000188" data-name="Grupo 1000188" transform="translate(-286 -1236)">
    <circle id="Elipse_4797" data-name="Elipse 4797" cx="42.5" cy="42.5" r="42.5" transform="translate(286 1236)" fill="#7bcaf4"/>
    <g id="definiendo" transform="translate(306.275 1237.743)">
      <path id="Trazado_695107" data-name="Trazado 695107" d="M23.413,16.395A17.226,17.226,0,0,0,8.129,31.519,16.69,16.69,0,0,0,14.37,46.275a6.469,6.469,0,0,1,2.348,5.068V58.77a7.2,7.2,0,0,0,7.3,7.08h2.739a7.2,7.2,0,0,0,7.3-7.08V51.344A6.63,6.63,0,0,1,36.508,46.2a16.71,16.71,0,0,0,6.23-12.979A17.2,17.2,0,0,0,23.413,16.395Z" transform="translate(0.532 0.506)" fill="#ffe38f"/>
      <path id="Trazado_695108" data-name="Trazado 695108" d="M16.044,53v2.677a7.2,7.2,0,0,0,7.3,7.08h2.739a7.2,7.2,0,0,0,7.3-7.08V53Z" transform="translate(1.205 3.598)" fill="#5b6d80"/>
      <circle id="Elipse_4803" data-name="Elipse 4803" cx="11.926" cy="11.926" r="11.926" transform="translate(13.949 21.904)" fill="#d9736b"/>
      <circle id="Elipse_4804" data-name="Elipse 4804" cx="7.589" cy="7.589" r="7.589" transform="translate(18.286 26.241)" fill="#e6e6e6"/>
      <circle id="Elipse_4805" data-name="Elipse 4805" cx="3.253" cy="3.253" r="3.253" transform="translate(22.623 30.578)" fill="#d9736b"/>
      <path id="Trazado_695109" data-name="Trazado 695109" d="M26.59,32.953,11.483,18.461V15.136L6.6,10.257v4.879H1.725L6.6,20.015H9.97l15.118,14.5Z" transform="translate(0)" fill="#526073"/>
      <path id="Trazado_695117" data-name="Trazado 695117" d="M16.234,56.986a7.258,7.258,0,0,0,7.1,5.436h2.739a7.258,7.258,0,0,0,7.1-5.436Z" transform="translate(1.221 3.934)" fill="#495766"/>
    </g>
  </g>
</svg>
