<?xml version="1.0" encoding="utf-8"?>
<!-- Generator: Adobe Illustrator 27.5.0, SVG Export Plug-In . SVG Version: 6.00 Build 0)  -->
<svg version="1.1" id="Layer_1" xmlns="http://www.w3.org/2000/svg" xmlns:xlink="http://www.w3.org/1999/xlink" x="0px" y="0px"
	 viewBox="0 0 2673 2000" style="enable-background:new 0 0 2673 2000;" xml:space="preserve">
<style type="text/css">
	.st0{fill:#CCEAFA;}
	.st1{fill:#3C8F7C;}
	.st2{fill:#50BFA5;}
	.st3{fill:#9BC1F9;}
	.st4{fill:#13375B;}
	.st5{fill:#E0F3FC;}
	.st6{opacity:0.6;fill:#FFFFFF;}
	.st7{opacity:0.2;fill:#3CB4C5;}
	.st8{opacity:0.5;fill:#CAE1F9;}
	.st9{fill:#CAE1F9;}
	.st10{opacity:0.2;fill:#9BC1F9;}
	.st11{fill:#86B1F2;}
	.st12{fill:#466EB6;}
	.st13{fill:#FAE0B2;}
	.st14{fill:#DAEEF7;}
	.st15{fill:#F47458;}
	.st16{fill:#B75742;}
	.st17{fill:#F7CC7F;}
	.st18{fill:#F7A491;}
	.st19{fill:#355389;}
	.st20{fill:#FFFFFF;}
	.st21{fill:#FDFFF0;}
	.st22{fill:#96D9C9;}
	.st23{fill:#0E2E35;}
	.st24{fill:#F48C7F;}
	.st25{opacity:0.6;fill:#C5DDF9;}
	.st26{fill:#184655;}
	.st27{opacity:0.5;fill:#50BFA5;}
	.st28{fill:#F8A492;}
</style>
<g>
	<rect class="st0" width="2673" height="2000"/>
	<g>
		<g>
			<g>
				<path class="st1" d="M1681,1888.5c0,0,176.6-98.1,205.4-146.1c28.8-48.1-17-48.4-17-48.4s76.9-82.5,63.9-115
					c-13-32.5-53.3-0.1-53.3-0.1s46.3-118.1,21.2-128.5c-46.7-19.4-104.5,108.1-104.5,108.1s11.1-54.7-20.2-51.4
					c-47.2,5-39.3,127.1-39.3,127.1s-7.6-46.6-35.4-30C1651.9,1633.9,1681,1888.5,1681,1888.5z"/>
			</g>
			<path class="st2" d="M1690.5,1585.7c21.7-13.5,45.6,21.6,45.6,21.6s-6.9-95.3,40.3-100.3c31.3-3.3,20.2,51.4,20.2,51.4
				s57.9-127.5,104.5-108.1l-220.5,436.2C1677.6,1857,1647.6,1612.3,1690.5,1585.7z"/>
		</g>
		<g>
			<g>
				<path class="st1" d="M1685.8,1889.4c0,0,148.9,11.1,186.4-7.1c37.5-18.3,9.1-37.1,9.1-37.1s81.5-20.2,86.6-45.7
					s-32.7-21.7-32.7-21.7s76.4-54.9,65-71.6c-21.2-31.1-109.1,24.9-109.1,24.9s29.1-29.6,8.3-40.3c-31.5-16.1-76.1,63.3-76.1,63.3
					s2.1-19.1-22-20.1C1757.9,1732.3,1685.8,1889.4,1685.8,1889.4z"/>
			</g>
			<path class="st2" d="M1799.4,1720.2c24.1,0.9,23.7,33.8,23.7,33.8s44.8-93.7,76.3-77.6c20.9,10.7-1.3,50.1-1.3,50.1
				s80.7-51.6,101.9-20.5l-314.8,182.5C1695.3,1868.9,1759.1,1718.7,1799.4,1720.2z"/>
		</g>
	</g>
	<g>
		<g>
			<g>
				<path class="st1" d="M1093.8,697.7c0,0-179.7-88.6-210.6-134.8c-30.9-46.2,14.5-48.8,14.5-48.8s-80.2-78-68.9-110.8
					c11.3-32.8,52.8-2.7,52.8-2.7s-51.6-114.8-27.2-126.3c45.3-21.5,108.8,102,108.8,102s-13.6-53.6,17.5-51.9
					c47,2.6,45.1,124,45.1,124s5.3-46.5,33.6-31.4C1110.3,444,1093.8,697.7,1093.8,697.7z"/>
			</g>
			<path class="st2" d="M1069.7,398.2c-22.1-12.3-44.2,23.6-44.2,23.6s2.2-94.8-44.8-97.4c-31.2-1.7-17.5,51.9-17.5,51.9
				s-63.5-123.5-108.8-102L1094,695.7C1095.7,666.3,1113.5,422.5,1069.7,398.2z"/>
		</g>
		<g>
			<g>
				<path class="st1" d="M1089.2,698.8c0,0-146.9,18.2-185,2c-38-16.3-10.8-36.4-10.8-36.4s-81.7-16.1-88-41.1
					c-6.3-25.1,31.4-23.1,31.4-23.1s-78.3-50.7-67.9-67.8c19.5-31.8,109.3,19.4,109.3,19.4s-30.3-27.9-10.2-39.5
					c30.4-17.5,78.5,59,78.5,59s-3-18.8,20.8-20.9C1010.1,546.7,1089.2,698.8,1089.2,698.8z"/>
			</g>
			<path class="st2" d="M968.3,536.8c-23.8,2.1-21.8,34.6-21.8,34.6s-49-90.6-79.4-73.2c-20.2,11.6,3.7,49.6,3.7,49.6
				s-82.5-47.2-102-15.4L1089.6,698C1078.7,678.9,1008.3,533.3,968.3,536.8z"/>
		</g>
	</g>
	<path class="st3" d="M1540.1,396l-26.6,60c0.2,3.4,3.1,5,10.2,8.9c12.7,7,25.3,13.9,37.7,21.4c2,1.2,3.6,4.6,3.6,7
		c-0.2,14.1-1.3,28.3-1.5,42.4c0,4.4-0.7,6.6-4.9,8.6c-16.7,7.8-33.3,16-49.7,24c1.7,16.7,16.2,55.7,25.1,67.2
		c16.9-4.7,34.3-9.3,51.5-14.6c5.3-1.6,7.9-0.9,11.6,3.7c8.6,10.6,18.2,20.4,27.9,30c3.9,3.9,5.9,6.8,3.8,12.6
		c-5.6,15.1-10.3,30.5-15.7,45.7c-1.4,4.1-1,6.8,3,8.6c18.7,8.5,37.5,17,56.2,25.5c4.6,2.1,5.8-1.8,7.4-4.4
		c7.9-13.5,15.8-27,23.2-40.8c2.8-5.2,5.8-6.6,11.7-6c15.7,1.5,31.5,2,48.4,2.9c8,16.3,16.9,34.4,26,53
		c23.6-4.6,45.4-13.3,66.6-25.7c-5.3-19.3-10.7-38.7-15.3-55.8c13.4-13.2,26.1-25.1,38.1-37.8c3.5-3.7,5.9-4,10.2-2.5
		c15,5.3,30.1,10.2,45.1,15.4c3.2,1.1,5.7,1.6,7.8-1.9c10.9-17.3,20.3-35.3,25.7-55.2c1.2-4.4-0.2-6.4-3.7-8.4
		c-14.2-8.1-28.3-16.4-42.5-24.5c-3.4-1.9-4.8-3.7-4.5-8.2c0.8-15.5,0.9-31.1,0.7-46.7c-0.1-4,1.4-5.3,4.3-6.8
		c16.6-8.1,33.1-16.4,50.1-24.8c-5.1-23.3-12.6-45.3-24.7-66.1c-19.7,5.4-39.3,10.8-58.1,16c-13.4-14.4-26.5-28.3-40.4-43.1
		c4.5-13.4,9.8-28.8,14.8-44.3c4.1-12.7,5.8-10.8-6.6-17.9c-1.2-0.7-2.1-1.8-3.2-2.7c-11.3-5-22.5-10-33.8-15
		c-2.7-0.7-5.6-0.9-8.1-2c-6.4-3-10.4-1.9-14,4.9c-7.5,14.3-15.8,28-24.1,41.8c-1.1,1.8-4.1,3.4-6.3,3.4c-13.9,0-27.9-1.2-41.7-0.5
		c-6.8,0.4-9.3-1.8-12-7.4c-7.4-15.8-15.5-31.4-24.1-48.6c-22.4,8.4-44.2,16.5-66.3,24.8c1.1,4.3,1.7,6.8,2.4,9.3
		c4.2,15.3,8.3,30.6,12.8,45.9c1.3,4.3,0.1,6.5-3.2,9.5c-11.1,10.2-21.5,21.2-32.5,31.5c-1.7,1.6-5.5,2.4-7.8,1.7
		c-12.4-3.8-24.7-8.3-37-12.4C1547.5,394.3,1543.8,393.1,1540.1,396z M1644.3,476.4c23.8-53.6,86.6-77.7,140.1-53.9l0,0
		c53.6,23.8,77.7,86.6,53.9,140.1l0,0c-23.8,53.6-86.6,77.7-140.1,53.9l0,0C1644.6,592.8,1620.5,530,1644.3,476.4L1644.3,476.4z"/>
	<g>
		<path class="st4" d="M1705.1,502.2L1705.1,502.2c-0.1,0-0.1,0-0.2-0.1c-1.6-0.6-3.3-1.1-5-1.6c-0.6-0.2-1.1-0.3-1.7-0.5
			c-0.6-0.2-1.2-0.3-1.8-0.4c-0.6-0.1-1.2-0.3-1.9-0.4c-0.6-0.1-1.2-0.2-1.8-0.4c-0.7-0.1-1.3-0.2-2-0.4c-0.6-0.1-1.1-0.2-1.7-0.3
			c-0.7-0.1-1.5-0.2-2.2-0.3c-0.5-0.1-1.1-0.1-1.6-0.2c-0.8-0.1-1.7-0.1-2.5-0.2c-0.4,0-0.9-0.1-1.3-0.1c-1.3-0.1-2.6-0.1-3.9-0.1
			h-602.1c-1.4,0-2.8,0-4.2,0.1c-2.8,0.1-5.5,0.4-8.2,0.8c-1.3,0.2-2.7,0.4-4,0.7c-34.4,7-60.8,35.8-64.4,71.2
			c-0.3,2.7-0.4,5.5-0.4,8.3v1001.9V1809c0,35.1,22.3,65.1,53.6,76.4v0c0.1,0,0.3,0.1,0.4,0.1c1.5,0.6,3.1,1,4.7,1.5
			c0.6,0.2,1.1,0.3,1.7,0.5c0.6,0.2,1.2,0.3,1.8,0.4c0.6,0.1,1.2,0.3,1.9,0.4c0.6,0.1,1.2,0.2,1.8,0.4c0.7,0.1,1.3,0.2,2,0.4
			c0.6,0.1,1.1,0.2,1.7,0.3c0.7,0.1,1.5,0.2,2.2,0.3c0.5,0.1,1.1,0.1,1.6,0.2c0.8,0.1,1.7,0.1,2.5,0.2c0.4,0,0.9,0.1,1.3,0.1
			c1.3,0.1,2.6,0.1,3.9,0.1h602.1c2.8,0,5.6-0.1,8.3-0.4c38.2-3.9,68.6-34.3,72.5-72.5c0.3-2.7,0.4-5.5,0.4-8.3V807.1V578.5
			C1758.6,543.4,1736.3,513.5,1705.1,502.2z"/>
		<rect x="1025.1" y="601.1" class="st5" width="685.7" height="1171.5"/>
		<path class="st6" d="M1466.2,564.3h-195.3c-2.7,0-4.9-2.2-4.9-4.9v-4.8c0-2.7,2.2-4.9,4.9-4.9h195.3c2.7,0,4.9,2.2,4.9,4.9v4.8
			C1471.1,562.1,1468.9,564.3,1466.2,564.3z"/>
		<rect x="1025.1" y="1723.5" class="st7" width="685.7" height="49.2"/>
		<rect x="1025.1" y="601.1" class="st7" width="685.7" height="62.2"/>
	</g>
	<rect x="1411.3" y="719.2" class="st8" width="251" height="401.9"/>
	<rect x="1411.3" y="1217.5" class="st8" width="251" height="461.7"/>
	<rect x="1074.8" y="719.2" class="st8" width="251" height="401.9"/>
	<rect x="1074.8" y="1217.5" class="st8" width="251" height="461.7"/>
	<path class="st9" d="M1274.3,346.2l17.2,32.4c1.6,1.1,3.3,0.3,7.4-1.4c7.4-3.2,14.9-6.3,22.4-9.2c1.2-0.5,3.3,0,4.3,0.9
		c6.1,5,12,10.4,18.2,15.3c1.9,1.5,2.7,2.6,2.1,5.1c-2.4,10.1-4.4,20.2-6.6,30.2c8,5,30.1,12.1,38.3,12.2
		c3.8-9.1,7.8-18.3,11.4-27.7c1.1-2.9,2.3-3.8,5.6-3.8c7.6-0.1,15.3-0.9,22.9-1.9c3.1-0.4,5-0.3,6.8,2.7c4.7,7.7,9.8,15.1,14.7,22.7
		c1.3,2,2.7,2.8,4.8,1.7c10.2-5.3,20.4-10.6,30.6-15.9c2.5-1.3,1.2-3.2,0.6-4.8c-3.2-8.1-6.4-16.3-9.9-24.3c-1.3-3-0.9-4.8,1.4-7.3
		c6.1-6.4,11.7-13.2,18-20.3c10,2.1,21,4.5,32.3,6.9c6.1-12,9.9-24.6,11.7-38.2c-10.4-4.3-20.7-8.7-29.8-12.5
		c-1.2-10.5-2-20.2-3.4-29.8c-0.4-2.8,0.3-4,2.4-5.3c7.5-4.7,14.9-9.7,22.4-14.5c1.6-1,2.6-2,1.9-4.1c-3.8-10.8-8.5-21.1-15.4-30.4
		c-1.5-2.1-2.9-2.1-5-1.3c-8.5,3.5-17,6.7-25.5,10.2c-2,0.8-3.3,0.8-5.2-0.8c-6.6-5.7-13.4-11.2-20.3-16.4c-1.8-1.3-1.9-2.4-1.5-4.3
		c2.1-10.1,4.2-20.2,6.4-30.6c-12-5.8-24.3-10.1-37.6-12c-4.4,10.6-8.8,21-13.1,31.1c-11,1-21.6,1.9-32.9,2.9
		c-4.3-6.6-9.3-14.3-14.4-21.8c-4.2-6.2-2.7-6.3-10.2-3.3c-0.7,0.3-1.5,0.3-2.3,0.5c-6.1,3.2-12.2,6.4-18.3,9.7
		c-1.2,1-2.3,2.1-3.7,2.8c-3.5,1.8-4.4,3.9-2.7,7.8c3.7,8.2,6.9,16.7,10.1,25.1c0.4,1.1,0.1,3-0.6,3.9c-4.8,6.1-10.2,11.8-14.6,18.2
		c-2.2,3.1-4,3.5-7.4,2.7c-9.5-2.2-19.2-4-29.7-6.2c-4.1,12.7-8,25.2-12,37.8c2.3,1,3.6,1.6,4.9,2.2c8.2,3.4,16.3,6.9,24.6,10.2
		c2.3,0.9,2.9,2.2,3.1,4.7c0.7,8.4,1.9,16.8,2.6,25.2c0.1,1.3-0.9,3.3-2,4c-6,4.2-12.2,8-18.3,12
		C1276,342.3,1274.2,343.5,1274.3,346.2z M1345.6,328.2c-15.3-29-4.3-64.9,24.7-80.3l0,0c29-15.3,64.9-4.3,80.3,24.7l0,0
		c15.3,29,4.3,64.9-24.7,80.3l0,0C1396.9,368.2,1361,357.1,1345.6,328.2L1345.6,328.2z"/>
	<path class="st10" d="M1533.8,194.3l9.3,17.5c0.9,0.6,1.8,0.2,4-0.8c4-1.7,8-3.4,12.1-5c0.6-0.2,1.8,0,2.3,0.5
		c3.3,2.7,6.5,5.6,9.8,8.3c1,0.8,1.4,1.4,1.1,2.8c-1.3,5.4-2.4,10.9-3.6,16.3c4.3,2.7,16.3,6.6,20.7,6.6c2-4.9,4.2-9.9,6.2-15
		c0.6-1.6,1.3-2,3-2.1c4.1-0.1,8.3-0.5,12.4-1c1.7-0.2,2.7-0.1,3.7,1.5c2.5,4.2,5.3,8.2,7.9,12.3c0.7,1.1,1.4,1.5,2.6,0.9
		c5.5-2.9,11-5.7,16.6-8.6c1.4-0.7,0.7-1.7,0.3-2.6c-1.7-4.4-3.5-8.8-5.4-13.1c-0.7-1.6-0.5-2.6,0.8-3.9c3.3-3.5,6.3-7.1,9.7-11
		c5.4,1.1,11.3,2.4,17.5,3.7c3.3-6.5,5.3-13.3,6.3-20.6c-5.6-2.3-11.2-4.7-16.1-6.8c-0.6-5.7-1.1-10.9-1.9-16.1
		c-0.2-1.5,0.1-2.1,1.3-2.9c4.1-2.6,8-5.2,12.1-7.8c0.9-0.6,1.4-1.1,1-2.2c-2.1-5.8-4.6-11.4-8.3-16.4c-0.8-1.1-1.6-1.2-2.7-0.7
		c-4.6,1.9-9.2,3.6-13.8,5.5c-1.1,0.5-1.8,0.4-2.8-0.4c-3.5-3.1-7.2-6-11-8.9c-1-0.7-1-1.3-0.8-2.3c1.2-5.5,2.3-10.9,3.4-16.5
		c-6.5-3.1-13.1-5.5-20.3-6.5c-2.4,5.7-4.8,11.4-7.1,16.8c-5.9,0.5-11.7,1-17.8,1.5c-2.3-3.6-5-7.7-7.8-11.8
		c-2.3-3.4-1.5-3.4-5.5-1.8c-0.4,0.2-0.8,0.2-1.2,0.2c-3.3,1.7-6.6,3.5-9.9,5.2c-0.7,0.5-1.3,1.2-2,1.5c-1.9,1-2.4,2.1-1.4,4.2
		c2,4.4,3.7,9,5.4,13.6c0.2,0.6,0,1.6-0.3,2.1c-2.6,3.3-5.5,6.4-7.9,9.8c-1.2,1.7-2.2,1.9-4,1.5c-5.2-1.2-10.4-2.2-16.1-3.3
		c-2.2,6.9-4.3,13.6-6.5,20.4c1.2,0.5,1.9,0.9,2.7,1.2c4.4,1.9,8.8,3.8,13.3,5.5c1.3,0.5,1.6,1.2,1.7,2.5c0.4,4.5,1,9.1,1.4,13.6
		c0.1,0.7-0.5,1.8-1.1,2.2c-3.2,2.2-6.6,4.3-9.9,6.5C1534.7,192.2,1533.8,192.8,1533.8,194.3z M1572.3,184.5
		c-8.3-15.7-2.3-35.1,13.4-43.4l0,0c15.7-8.3,35.1-2.3,43.4,13.4l0,0c8.3,15.7,2.3,35.1-13.4,43.4l0,0
		C1600.1,206.2,1580.6,200.2,1572.3,184.5L1572.3,184.5z"/>
	<g>
		<path class="st11" d="M1155.8,1499.2h22c-3.6-2.5-8.1-3.9-13-3.9H614.3c-28.8,0-52.1,20.7-52.1,46.2v29.4
			c0,25.5,23.3,46.2,52.1,46.2l544.3-0.2L1155.8,1499.2z"/>
		<path class="st12" d="M843.3,1495.4c-27.5,0-49.9,19.8-49.9,44.2v33.2c0,24.4,22.3,44.2,49.9,44.2H1186v-7.4h-1.4l-87.1-7.3
			l-17.6-61.2c0,0,34-33.8,36.2-34.7c2.2-0.9,68.5-3.5,68.5-3.5l1.4,0v-7.4H843.3z"/>
		<path class="st13" d="M1163.7,1555.9c0-35.8,20.9-53.2,20.9-53.2H850.3c-25.3,0-45.8,18.2-45.8,40.6v25.5
			c0,22.4,20.5,40.6,45.8,40.6h334.3C1184.6,1609.5,1163.7,1601,1163.7,1555.9z"/>
		<path class="st14" d="M804.5,1543.4v25.5c0,3.4,0.5,6.6,1.3,9.7c11.3-24.5,32.9-48,74-55.6c96-17.7,304.8-20.3,304.8-20.3H850.3
			C825,1502.8,804.5,1521,804.5,1543.4z"/>
		<path class="st2" d="M1146.7,1742.6h24.9c-4.1-3.1-9.2-4.9-14.7-4.9h-623c-32.6,0-59,25.9-59,57.9v36.8c0,32,26.4,57.9,59,57.9
			l616.1-0.2L1146.7,1742.6z"/>
		<path class="st1" d="M793,1737.9c-31.2,0-56.4,24.8-56.4,55.3v41.5c0,30.6,25.3,55.3,56.4,55.3h387.8v-9.3h-1.6l-98.6-9.2
			l-19.9-76.6c0,0,38.5-42.4,41-43.4c2.5-1.1,77.6-4.4,77.6-4.4l1.6,0v-9.2H793z"/>
		<path class="st13" d="M1155.7,1813.7c0-44.8,23.6-66.5,23.6-66.5H801c-28.6,0-51.8,22.8-51.8,50.8v32c0,28.1,23.2,50.8,51.8,50.8
			h378.4C1179.3,1880.8,1155.7,1870.1,1155.7,1813.7z"/>
		<path class="st14" d="M749.1,1798v32c0,4.2,0.5,8.3,1.5,12.2c12.8-30.6,37.2-60.1,83.8-69.6c108.7-22.1,344.9-25.4,344.9-25.4H801
			C772.3,1747.2,749.1,1769.9,749.1,1798z"/>
		<path class="st15" d="M454.3,1620.6h-24.9c4.1-2.4,9.2-3.9,14.7-3.9h623.3c32.6,0,59,20.6,59,45.9v29.2c0,25.4-26.4,45.9-59,45.9
			l-616.3-0.2L454.3,1620.6z"/>
		<path class="st16" d="M808.2,1616.9c31.2,0,56.5,19.7,56.5,43.9v33c0,24.2-25.3,43.9-56.5,43.9h-388v-7.4h1.6l98.6-7.3l19.9-60.8
			c0,0-38.5-33.6-41-34.5c-2.5-0.9-77.6-3.5-77.6-3.5l-1.6,0v-7.3H808.2z"/>
		<path class="st13" d="M445.3,1677c0-35.6-23.6-52.8-23.6-52.8h378.5c28.6,0,51.9,18.1,51.9,40.3v25.4c0,22.3-23.2,40.3-51.9,40.3
			H421.7C421.7,1730.2,445.3,1721.8,445.3,1677z"/>
		<path class="st14" d="M852.1,1664.6v25.4c0,3.3-0.5,6.6-1.5,9.7c-12.8-24.3-37.2-47.7-83.8-55.2
			c-108.7-17.6-345.1-20.2-345.1-20.2h378.5C828.9,1624.2,852.1,1642.3,852.1,1664.6z"/>
	</g>
	<path class="st17" d="M1180.3,622.2H643.7c-23.7,0-43,19.2-43,43v283.7c0,23.7,19.2,43,43,43h390.3c21.9,30.6,61.6,85.3,65.1,85.3
		c3.3,0-3-51.7-7.5-85.3h88.6c23.7,0,43-19.2,43-43V665.2C1223.3,641.4,1204,622.2,1180.3,622.2z"/>
	<path class="st15" d="M1441.7,1040.2h711.9c24.6,0,44.5,19.9,44.5,44.5v293.8c0,24.6-19.9,44.5-44.5,44.5h-560.5
		c-22.7,31.7-63.8,88.3-67.4,88.3c-3.4,0,3.1-53.5,7.8-88.3h-91.7c-24.6,0-44.5-19.9-44.5-44.5v-293.8
		C1397.2,1060.2,1417.1,1040.2,1441.7,1040.2z"/>
	<g>
		<path class="st17" d="M724.4,1221.1c5.9-14.1,11.9-28.3,27.1-35.5c12.3-5.8,25.2-3.6,36.2,4.6c31.1,23.4,4,49.1,39.4,93.4
			c11,13.8,24.3,24.9,30.9,41c9.2,22.6-1.8,33.4-19.3,44.2c-84.2,51.7-128.3-54.5-126.7-78.8C713,1272.1,720.6,1230.2,724.4,1221.1z
			"/>
		<path class="st18" d="M637.1,1496.4c3.5-0.6,12.2-6.7,15.2-7.3c2.4-0.4,7.5-1.2,9.6-1.5c2.7-9.9,16.2-64.1,17.7-80
			c1.6-17.2,13.8-91.6,13.8-91.6l31.5,5.7c0,0-13.1,57.3-16.7,85c-3.1,23.9-29.3,77.5-32.6,83.1c0,0.1,0,0.3,0,0.4
			c-0.5,8.4-4.6,5.6-4.6,5.6l-6.6,1.7c0,0-23.3,2.2-24.8,2.8C638.1,1500.9,633.5,1497,637.1,1496.4z"/>
		<path class="st16" d="M720.9,1272.4c-22.3,7.6-34.9,68.1-34.9,68.1s34.9,9.8,43.9,4.6c0,0,10.2-45,13.8-43.5L720.9,1272.4z"/>
		<path class="st18" d="M548.6,1601c-6.8,18-10.4,35.3-10.7,37.4c-0.2,1,1.3,5.9,1.1,6.9c-13.7,18.7-33.3,22.7-50.2,23.9
			c8.6-8.4,21.2-16.3,21.8-19c1-4.2,6.2-23.1,8.7-49.1C529.8,1606,537,1602.2,548.6,1601z"/>
		<path class="st4" d="M742.4,1400l30.1,84.8c0,0-48.4,9.1-66.5,12.4c-18.1,3.3-119.1,7.7-121.7,9.5c-1.9,1.3-22.8,68.8-32.1,106.1
			c-10.6,2.3-28.7-0.5-38.3-3.8c5.2-53.3,24-137.6,30-146.8C553.8,1447.2,742.4,1400,742.4,1400z"/>
		<path class="st18" d="M624.8,1638.2c-3.3,18.9-3.6,36.6-3.5,38.7c0,1,2.4,5.5,2.4,6.6c-9.9,20.9-28.5,28.6-44.8,32.9
			c6.9-9.8,17.8-20,17.9-22.7c0.2-4.3,1.7-23.8-0.7-49.9C607.4,1646.6,613.6,1641.5,624.8,1638.2z"/>
		<path class="st19" d="M777.6,1404.4l11.7,19.9c17.8,30.4,4.1,69.4-28.6,82.1c-0.2,0.1-0.4,0.1-0.5,0.2
			c-17.1,6.6-115.6,29.9-117.7,32.2c-1.6,1.7-9.5,71.9-11.7,110.2c-10,4.3-28.3,4.9-38.3,3.5c-4.9-53.3-2.2-139.7,2-149.9
			C601.1,1486.1,777.6,1404.4,777.6,1404.4z"/>
		<path class="st4" d="M619.8,1677.5c2.6-2.9,12.2,13,14.6,16.4c2.7,3.8,1.9,6.7,1.6,7.3c-0.9,1.6-51.6,31.4-64,33.5
			c-1.2,0.2-3.2-0.5-3.7-1c-4.8-4.3,17.4-35.9,27.4-40C602.3,1691.1,608.1,1690.5,619.8,1677.5z"/>
		<path class="st4" d="M536.3,1639c3.1-2.4,9.6,15.1,11.3,18.9c1.9,4.3,0.6,6.9,0.2,7.5c-1.1,1.4-56.6,21.2-69.1,21
			c-1.2,0-3-1.1-3.5-1.7c-3.9-5.1,23.8-32,34.4-34.2C516.5,1649,522.3,1649.6,536.3,1639z"/>
		<path class="st15" d="M742,1272.3L742,1272.3L742,1272.3c-0.6,0-1.4-0.2-2.2-0.5c-4.1-0.7-13.2-1.8-20.2,1.1
			c-8.6,3.6-21.8,37.4-21,72c0.3,5.3,0.6,10,0.9,13.3c2.2,26.2,9.7,75.2,10.1,75.5c10.2,6.6,71.8-18.9,76-24.5
			c4.2-5.6,6.7-73.6,8.8-77l4-59.1C791.2,1271,752.9,1272.2,742,1272.3z"/>
		<path class="st18" d="M767,1250.5c0,0-4,20.5-3.2,28.6c0.8,8.1-3,34.2-20.2,34.3s-3.3-33.2-1.6-41.1c1.6-7.9,2-32.5,2-32.5
			L767,1250.5z"/>
		<path class="st15" d="M743.6,1252.1c0.3-6.7,0.4-12.3,0.4-12.3l23,10.7c0,0-0.8,4.2-1.6,9.5C755.3,1262,748,1258.3,743.6,1252.1z"
			/>
		<path class="st18" d="M775.4,1193.9c0,0,8.9,4.9,12.1,15.6c3.2,10.6-0.4,38.1-23.3,44.7c-22.9,6.6-32.8-15.1-28.1-32.1
			C740.8,1205,751,1183.5,775.4,1193.9z"/>
		<path class="st18" d="M733.2,1215.4c0.4,4.6,3,8.1,5.6,7.8c2.7-0.3,4.5-4.2,4-8.7c-0.4-4.6-3-8.1-5.6-7.8
			C734.6,1207,732.8,1210.9,733.2,1215.4z"/>
		<path class="st17" d="M772.7,1192.5c0,0,4.1,30.6,14.1,36.2c9.9,5.5,5.8,19.1,5.8,19.1s9-31.6,1.2-41.7
			C785.8,1195.9,772.7,1192.5,772.7,1192.5z"/>
		<path class="st18" d="M780.9,1233c-2.7,4-2.7,8.7,0,10.5s7.1,0.1,9.7-3.9c2.7-4,2.7-8.7,0-10.5
			C787.9,1227.3,783.5,1229,780.9,1233z"/>
		<path class="st20" d="M747.5,1234.7l16.1,4.1c0,0-1.9,6.1-9.1,4.5C745.9,1241.4,747.5,1234.7,747.5,1234.7z"/>
		<path class="st18" d="M898.6,1490.3c-0.3-0.7-0.9-0.7-1.6-0.8c-6.4-0.2-12.7-0.5-19.1-1.4c-1.1-0.2-2.1-0.4-3.1-0.8
			c-1.8-0.7-3.5-0.7-5.3-0.2c-1,0.3-1.9,0.3-2.9,0.3c-3.2,0-12.4-3.1-17.1-3.9c-1.1-0.2-1.9-1-2.2-2.1
			c-4.6-18.3-14.5-59.3-15.8-72.8c-1.6-17.2-13.6-95-13.6-95l-31.9,8.9c0,0,13.1,57.4,16.7,85.2c2.8,21.5,24.3,67.1,31,80.2
			c3.3,9.8,10.7,10,12.4,10.2c1,0.1,1.9,0.6,2.5,1.4c1.2,1.4,2.5,2.5,4,3.5c1.1,0.7,2,1.6,2.7,2.7c1.4,2,2.6,4,3.8,6.1
			c0.8,1.4,1.6,1.8,2.8,1.5c1.3-0.3,1.9-1.3,1.8-2.8c0-2.3-0.8-4.3-1.9-6.3c-1.1-1.8-1-2.9,0.3-4.5c0.7-1,1.5-1.9,2.4-2.7
			c1-0.8,2-1.4,3.3-1.2c2.3,0.6,4.6,1,6.9,1.3l1.9,0.4c0.1,0,1.1,0.2,1.1,0.2c0.2,0,3.6,0.4,4.7,0.4c0.9,0,2.4,0.1,3.7,0.1
			c1.2,0.1,3.6-0.6,3.7-0.6c1.1,0,2.1-0.4,3-1.2c0.3-0.3,0.7-0.7,0.5-1.2c-0.2-0.5-0.5-0.7-1-0.8c-0.8-0.1-4.7-0.6-4.7-0.8
			c1.2,0,4.9-0.1,6-0.1c1.6,0,3-0.6,4-1.8C898.4,1491.5,898.9,1491,898.6,1490.3z"/>
		<path class="st15" d="M798.7,1273c15.7-2.9,28.7,67.5,28.7,67.5s-34.9,9.8-43.9,4.6c0,0-10.2-45-13.8-43.5L798.7,1273z"/>
	</g>
	<g>
		<g>
			<path class="st21" d="M700.5,876.2V722.5h15.8v65.9h44.6v-65.9h15.7v153.7h-15.7V803h-44.6v73.2H700.5z"/>
			<path class="st21" d="M804.2,876.2V722.5h69.1v14.3H820v52.8h39.1v14.1H820V862h55.2v14.2H804.2z"/>
			<path class="st21" d="M893.6,876.2V722.5h16v139h48.2v14.6H893.6z"/>
			<path class="st21" d="M974.8,876.2V722.5h16v139h48.3v14.6H974.8z"/>
			<path class="st21" d="M1088.6,879.2c-14,0-24.5-6.8-31.6-20.3c-7.1-13.5-10.7-33.4-10.7-59.6c0-26.3,3.6-46.1,10.7-59.6
				c7.1-13.4,17.7-20.1,31.6-20.1c13.9,0,24.5,6.7,31.6,20.2c7.2,13.5,10.8,33.3,10.8,59.5c0,26.2-3.6,46.1-10.8,59.6
				C1113.1,872.4,1102.5,879.2,1088.6,879.2z M1088.6,733.8c-8.9,0-15.4,5-19.5,14.9c-4.2,10-6.2,25.6-6.2,46.9
				c0,24.4,2,42,6.1,52.8c4,10.8,10.6,16.2,19.7,16.2c8.9,0,15.3-5.2,19.5-15.6c4.1-10.4,6.2-27,6.2-49.8c0-22.7-2.1-39.3-6.2-49.8
				C1103.9,739,1097.5,733.8,1088.6,733.8z"/>
		</g>
	</g>
	<g>
		<g>
			<path class="st21" d="M1471.6,1310.8v-162.5h29.6c11.9,0,20.6,0.9,26,2.7c5.4,1.8,10.2,4.9,14.5,9.3c3.1,3.1,5.4,7,7.1,11.9
				c1.7,4.8,2.5,10.2,2.5,16c0,9.2-1.9,16.9-5.8,23c-3.8,6.1-9.6,10.7-17.4,13.9c9.1,3.2,15.8,8.2,20.2,14.8
				c4.4,6.7,6.6,15.2,6.6,25.6c0,15.4-4.2,26.8-12.7,34.2c-8.5,7.5-21.4,11.2-38.7,11.2H1471.6z M1488.2,1218.8h15.5
				c10.5,0,18.4-2.5,23.7-7.5c5.3-5,8-12.4,8-22.2c0-9.6-2.5-16.4-7.6-20.5c-5.1-4.1-13.8-6.1-26.3-6.1h-13.3V1218.8z
				 M1488.2,1295.9h16.8c11.6,0,20.1-2.5,25.5-7.5c5.3-5,8-12.8,8-23.6c0-10.9-2.8-18.9-8.4-24.1c-5.6-5.2-14.4-7.8-26.3-7.8h-15.5
				V1295.9z"/>
			<path class="st21" d="M1617.7,1313.9c-14.8,0-25.9-7.2-33.5-21.5c-7.5-14.3-11.3-35.3-11.3-63c0-27.8,3.8-48.8,11.3-63
				c7.5-14.2,18.7-21.3,33.5-21.3c14.7,0,25.9,7.1,33.5,21.3c7.6,14.2,11.4,35.2,11.4,62.9s-3.8,48.7-11.4,63
				C1643.6,1306.8,1632.4,1313.9,1617.7,1313.9z M1617.7,1160.2c-9.4,0-16.2,5.3-20.6,15.8c-4.4,10.5-6.6,27.1-6.6,49.6
				c0,25.8,2.1,44.4,6.4,55.9s11.2,17.1,20.8,17.1c9.4,0,16.2-5.5,20.6-16.5c4.4-11,6.5-28.5,6.5-52.7c0-24-2.2-41.5-6.5-52.6
				S1627.1,1160.2,1617.7,1160.2z"/>
			<path class="st21" d="M1713.6,1198.4c-2.3-6.1-4.4-12.2-6.5-18.5c-2-6.3-4-12.6-5.9-19v149.9h-14.6v-162.5h24.3l33.6,92.2
				c2.6,7.3,4.9,14.3,7.1,21s4.2,13.2,6,19.5c-0.4-4.8-0.8-9.8-1-14.9c-0.2-5.1-0.3-12-0.3-20.6v-97.1h14.6v162.5h-16.4
				L1713.6,1198.4z"/>
			<path class="st21" d="M1832.1,1256.5v11.3c0,9.2-0.4,16-1.1,20.5c-0.7,4.4-1.9,8.2-3.6,11.2c-2.8,4.8-6.7,8.5-11.6,10.9
				s-11.1,3.7-18.3,3.7c-2,0-4.2-0.1-6.4-0.4c-2.2-0.3-4.4-0.6-6.6-1l0.7-15.5c2.4,0.8,4.8,1.4,7,1.8c2.3,0.4,4.6,0.5,6.9,0.5
				c6.2,0,10.5-2,12.9-5.9c2.4-3.9,3.6-13.4,3.6-28.6v-116.9h16.5V1256.5z"/>
			<path class="st21" d="M1900.2,1313.9c-14.8,0-25.9-7.2-33.5-21.5c-7.5-14.3-11.3-35.3-11.3-63c0-27.8,3.8-48.8,11.3-63
				c7.5-14.2,18.7-21.3,33.5-21.3c14.7,0,25.9,7.1,33.5,21.3c7.6,14.2,11.4,35.2,11.4,62.9s-3.8,48.7-11.4,63
				C1926.1,1306.8,1914.9,1313.9,1900.2,1313.9z M1900.2,1160.2c-9.4,0-16.2,5.3-20.6,15.8c-4.4,10.5-6.6,27.1-6.6,49.6
				c0,25.8,2.1,44.4,6.4,55.9s11.2,17.1,20.8,17.1c9.4,0,16.2-5.5,20.6-16.5c4.4-11,6.5-28.5,6.5-52.7c0-24-2.2-41.5-6.5-52.6
				S1909.6,1160.2,1900.2,1160.2z"/>
			<path class="st21" d="M1968.5,1253.9v-105.7h16.7v104.1c0,19.6,1.7,32.3,5.2,38.1c3.5,5.8,9.8,8.7,19,8.7c9,0,15.3-2.9,18.8-8.8
				c3.5-5.9,5.3-18.5,5.3-37.9v-104.1h16.6v105.7c0,14.3-0.6,24.5-1.9,30.8c-1.3,6.3-3.5,11.5-6.5,15.5c-3.5,4.4-8,7.8-13.6,10.2
				c-5.6,2.4-11.7,3.6-18.5,3.6c-7,0-13.2-1.2-18.8-3.6c-5.6-2.4-10.1-5.8-13.6-10.2c-3.1-3.9-5.4-8.9-6.6-15
				C1969.1,1279.1,1968.5,1268.7,1968.5,1253.9z"/>
			<path class="st21" d="M2079.1,1310.8v-162.5h29.6c17.6,0,30.8,3.5,39.5,10.6c8.7,7.1,13,17.8,13,32.1c0,10-2.2,18.3-6.6,24.9
				c-4.4,6.7-10.8,11.3-19.1,14l26.6,80.9h-18l-24.5-77.3c-4.5,0.1-7.9,0.3-10.4,0.3c-2.5,0.1-4.8,0.1-6.9,0.1h-6.5v76.8H2079.1z
				 M2095.8,1219.2h14.2c11.1,0,19.5-2.4,25.1-7.1c5.6-4.7,8.4-11.8,8.4-21.2c0-9.5-2.8-16.6-8.3-21.3c-5.5-4.7-13.9-7-25.2-7h-14.2
				V1219.2z"/>
		</g>
	</g>
	<g>
		<path class="st2" d="M1996.8,829.5c1.5,0.1,5.6,1.4,11.7,12.9c7.7,14.6,19,58.7,19,58.7l-33.7,12.5l-4.3-9.2l-7.1-70.8
			C1982.4,833.6,1996.4,829.5,1996.8,829.5z"/>
		<path class="st22" d="M1952.3,823.2c9.6,0,33.5,2.8,44.5,6.4c0,0,8.1,69.8-7.3,122.9c-3.5,11.9,2.9,49.2,2.9,49.2l-99.8-1.3
			c0,0,11.8-90.3,7.4-104.9c-4.5-14.6-4.6-65.4-4.6-65.4s0.7-0.1,22.4-3.9C1928,824.4,1942,823.2,1952.3,823.2z"/>
		<path class="st18" d="M1940.7,1131.3c0,0,2.2,25.5,6.3,32.5c4.1,7.1-0.2,19.1-0.4,20.7s-8.5,4-21.8,2.6c-13.2-1.4-13-4.5-12-9.4
			s8.1-11.3,8.5-16c0.4-4.7-4.1-21.6-4.1-21.6L1940.7,1131.3z"/>
		<path class="st4" d="M1981.1,980.6c0,0,68.9-3.8,84.3,5.5c15.4,9.3-10.9,55-10.9,55s-47.9-2.2-141.8,3.2
			c-22.2,1.3-24.2-58-20-62.9C1896.8,976.6,1981.1,980.6,1981.1,980.6z"/>
		<path class="st22" d="M1923.1,1189.1c-13.6-1.5-12-8.2-10.9-13.2c0.7-3.2,4.6-6.9,6.9-10.5c1.2,1,3.2,2.7,9.1,4.4
			c6.2,1.8,14.6-1.8,20-4c1.9,7.1,2,16.2,1.8,17.6C1949.8,1185,1936.7,1190.5,1923.1,1189.1z"/>
		<path class="st19" d="M1930.6,1029.9c2.8,20.8,16.4,124.5,16.4,124.5l-31.6,3.9c0,0-38.9-135.3-36.9-156
			c2-20.7,16.5-22.4,16.5-22.4S1923.3,974.8,1930.6,1029.9z"/>
		<path class="st18" d="M1894.3,837.8c9.3-3.5,13.9,80.6,15.2,115.2c16.5,1.6,45.3,0,52.5-0.5c3.4-0.3,11.1-3.1,14.5-3.5
			c3.4-0.5,6.6-0.7,8.2-0.4c0.6,0.1,17.8,7.2,19.3,8.7c1.8,1.9,6.8,6.7,5.9,8.8c-0.8,2.1-9.5-5.8-9.5-5.8l-4.2-2.4
			c5.3,5.2,15.3,11.9,13.9,14.4c-1.4,2.4-10.5-4.5-17-9.2c5.5,5,12.4,14,10.8,15.4c-1.4,1.3-9.3-9.1-17.6-12.1
			c-3.1-1.1-6.2,2-8.6,2.3c-1.8,0.3-4.6,0.9-6.3,0.4l-9.1-2.6c-3.1,0.3-3.2,2.1-6.3,2.8c-3.6,0.8-9.6,1.6-14.2,2.7
			c-26.6,6.5-35.4,9.5-43.5,9.5C1873.7,981.4,1872.2,846,1894.3,837.8z"/>
		<path class="st2" d="M1876.6,916.7c-1.7-35.4-1.5-79.1,18.4-86.6c7.8-2.9,21.7,14.7,19.2,87.3C1903.5,918.3,1888,919,1876.6,916.7
			z"/>
		<path class="st18" d="M2036.5,1156c0,0-4.6,8.1-1,14.8c3.6,6.8,22.4,16.7,24.4,20.4c2,3.7,1.2,6.3,1.2,6.3l-56-13.7l4.3-16.9
			l5.2-11.7L2036.5,1156z"/>
		<path class="st22" d="M2038.4,1174.4c0,0-15.7,2.7-22-2.3c-6.2-5-5.8-5.9-8.1-5c-1.5,0.5-3.7,7.3-5.2,12c-0.8,2.5,0.8,5.2,3.3,5.8
			l58.3,14.4c4.4,0.9,7.4-1.9,4.4-5.5c-2-2.4-4.6-4.3-6-5.6C2058.7,1184.4,2038.4,1174.4,2038.4,1174.4z"/>
		<path class="st19" d="M2031,997c4.5-9.4,14.6-21.6,32.4-14.2c17,7,21.6,24.2,16.2,41.9c-5.4,17.6-40.7,121.3-41.9,135.6l-28.2,0.2
			c0,0,5.1-82.1,6.4-102C2017.1,1039.3,2023.3,1013.2,2031,997z"/>
		<path class="st17" d="M2076.7,901.5h-94.2c-2.5,0-4.7,1.5-5.7,3.8l-29,71h-51.9c-1.5,0-2.6,1.2-2.6,2.6l0,0c0,1.5,1.2,2.6,2.6,2.6
			h147.8c4.1,0,7.8-2.4,9.4-6.1l29.2-65.3C2084.2,906.1,2081.2,901.5,2076.7,901.5z"/>
		<path class="st20" d="M2026,942.8c-0.6,3.2-3.4,5.3-6.2,4.8c-2.8-0.6-4.5-3.6-3.9-6.8c0.6-3.2,3.4-5.3,6.2-4.8
			C2024.9,936.6,2026.6,939.6,2026,942.8z"/>
		<g>
			<path class="st23" d="M1974.7,737.9c-2.8-1-5.6-2-8.3-3.3c-3.1-1.5-7-3.2-9.5-3.6c-5.3-0.8-14.3-0.3-19.3,5.1
				c-6.2,6.7-17.3,1.2-15,36.5c2.5,40,24.7,35.6,25.3,34.9c0.5-0.7,19.8-25.6,19.8-25.6s6.7,14.7,6.7,14.2
				C1974.4,795.6,2008.8,749.4,1974.7,737.9z"/>
			<path class="st18" d="M1957.8,810.5l1.9,14.3c0,0,4.3,20.6-1.2,24.5c-5.5,4-23.5-25.1-23.5-25.1l1.9-36.2L1957.8,810.5z"/>
			<path class="st15" d="M1936.3,799.7c4.6,12.3,15.4,19.9,23.2,22.9l-1.6-12.1l-20.9-22.5L1936.3,799.7z"/>
			<path class="st18" d="M1956.7,748.6c11.7-1.9,22.2,7.5,21.9,19.3c-0.1,5.1-0.5,11.5-1.6,18.3c-2.5,16.5-13.8,31-21.2,29.7
				c-7.4-1.3-26.2-15.5-22.9-39C1935,762.4,1944.4,750.6,1956.7,748.6z"/>
			<path class="st18" d="M1938.1,779.7c-0.6,3.6-3.5,6.1-6.5,5.6c-3-0.5-4.8-3.9-4.2-7.5c0.6-3.6,3.5-6.1,6.5-5.6
				C1936.8,772.7,1938.7,776.1,1938.1,779.7z"/>
			<path class="st23" d="M1933.9,772.2c0,0,9,2.2,12.3-3.5c3.3-5.8,15.3-18.3,30.4-13.1s-13.3-12.6-14.6-12.6
				c-1.2,0-15.8-0.1-15.8-0.1s-11.2,9.2-11.6,10.2c-0.4,1-3.6,12.1-3.6,12.1L1933.9,772.2z"/>
		</g>
		<path class="st20" d="M1950.3,796.3l16.4,3.1c0,0-1.6,6.2-8.8,5C1949.1,803,1950.3,796.3,1950.3,796.3z"/>
	</g>
	<g>
		<path class="st18" d="M1158.7,1292.8c5.2-4.2,45.2,13.4,44.7,19.5c-0.5,6.1,27.9,65.4,27.9,65.4l49.2-39.2l0,0
			c0.4-1.4,5.1-16.7,5.3-19.4c0.2-2.9,8.5-7.9,12.4-7.1s-3.3,5.6-3.8,6.5c-1.3,2.4,3.7,3.3,3.7,3.3s14-4.5,14.3-9.1
			c0.3-4.6,9.9,8,8.8,9.8c-1.1,1.7-24,20.2-27.4,24.2c0,0-63.6,72.7-68.1,74.6c-4,1.7-18.1-23.4-31.5-40
			C1180.9,1364.6,1142.5,1306,1158.7,1292.8z"/>
		<path class="st24" d="M1030.4,1827.4c0,0-8.7,8.5-8.9,11.7c-0.2,3.1-0.8,36.7,2.8,39.8c3.6,3.1,14,5.3,10.7,8.9
			c-2.5,2.7-22.1,2.1-35.1,1.4c-3.8-0.2-8.5-30.4-10-34.9c-2.2-6.5-7.5-21-5.5-25.5c1-2.2,5.6-6.7,12.1-10.9
			c6.8-4.4,13.4-14.3,13.4-14.3L1030.4,1827.4z"/>
		<path class="st18" d="M1120.9,1847.3c0,0-7.8,22.1-7.8,22.2c-0.6,3.5-2.9,12.1-2.9,15.3c0,12,53.9-10.1,41.8-15.4
			c-1.1-0.5-4.5-4.3-4.9-8.4c-0.6-6.3,4.5-14.1,4.5-14.1L1120.9,1847.3z"/>
		<g>
			<path class="st2" d="M1205.5,1435.9c0,0,3.9,39.6,3.9,40.2c0,64.1,12.7,189.2,10.3,201.3c-5.9,29.4-69.3,179.3-69.3,179.3
				l-34.3-4.1l44.7-179.4l-16.4-72.2l-23.3-142.8L1205.5,1435.9z"/>
			<path class="st22" d="M1090.4,1470.9l-6.5,37.5l-17.6,154.5l-67,151c0,0,9.4,22,23.3,25.1l106.7-155l66.3-198.4l-2.3-44.1
				L1090.4,1470.9z"/>
		</g>
		<path class="st16" d="M1219.1,1341.6l-47.5,4.9c0,0-2.2-39-2.2-57.6c0-22.5,1.9-51.6,4.6-51c7.6,1.8,17.9,6,24.1,14.4
			C1219.3,1281.4,1219.1,1341.6,1219.1,1341.6z"/>
		<path class="st15" d="M1195.8,1284.9c1,6.9,19.3,193.8,19.3,193.8c-86.5,41.8-134.3,7.4-134.3,7.4s2.8-131.2-0.6-149.1
			c-2.2-11.8-5-90.4,2.6-92.6c9.8-2.8,21.1-5.8,33.4-7.1c10.5-1.1,51.2-1.7,58.5,0.7C1174.7,1238.1,1191.6,1256,1195.8,1284.9z"/>
		<path class="st15" d="M996.7,1817.6c0,0,20.1,56.7,28,59.5c2.1,0.7,12.1,2.6,14,7c0.6,1.3,0,5.8,0,5.8h-42c0,0-5.3-25-7.4-36
			c0,0-11.1-26.8-9.9-29.3C980.8,1822.2,996.7,1817.6,996.7,1817.6z"/>
		<path class="st15" d="M1106.5,1889.9l6.2-19.5c0,0,13,5.5,19.4,4.6s20.8-5.1,20.8-5.1c25.9,8.5,45.4,13.2,41.5,20l0,0H1106.5z"/>
		<g>
			<path class="st18" d="M1225.8,1421.3c0.2-0.1,0.9-0.6,1.3-1c-1.5-18.3-1.3-36.1,4.5-42.1c-0.1-0.3-1.4-3-2.7-5.7
				c-6.7,5.2-9.8,18.8-8.6,41.1c0.1,1.5,0.5,2.7,0.9,4.6C1223.1,1420.3,1224.9,1421.7,1225.8,1421.3z"/>
		</g>
		<path class="st18" d="M1127.8,1201.2l-5.6,36.8c0,0,20.4,43.8,32.5,40c10.2-3.2,3.9-41.9,3.9-41.9s-5.6-20.8-3.9-31.2
			C1156.4,1194.4,1127.8,1201.2,1127.8,1201.2z"/>
		<path class="st15" d="M1154.7,1204.8c1.7-10.4-27-3.6-27-3.6l-0.5,3c0.8,2,1.9,3.8,3.1,5.1c6.4,6.9,16.4,11,25.1,11.3
			C1154.6,1215.1,1154.1,1209.1,1154.7,1204.8z"/>
		<g>
			<path class="st18" d="M1123.1,1149.2c-0.8-0.3-6.5,41.9,4.3,53.5s31.8,15.4,39.3,6.3c8.3-10.1,7.9-55.4-8.8-67.4
				S1123.1,1149.2,1123.1,1149.2z"/>
			<path class="st23" d="M1151.4,1119c-13,2.6-21.4,10.6-24.4,13.9c-5.9,0.7-13.9,3.9-22.1,17.6c-10.2,16.8-2.7,35.4,9.2,44.6
				c11.8,9.1,11.7,19.7,11.7,19.7l1.9-5.5c1.4-4.1,1.9-8.5,1.5-12.9c-0.3-2.6-0.8-5.4-1.9-7.7c-2.8-6.1,6.1-10.2,8.6-15.2
				c1.9-3.9,2-12.9,5.1-19.3l3.6-4.9c0,0,8.4-6.5,16.6-4.7C1169.2,1146.5,1168.1,1115.6,1151.4,1119z"/>
			<path class="st18" d="M1135.2,1181.1c0.1,5.1-2.3,9.4-5.2,9.4c-3,0.1-5.4-4.1-5.5-9.2c-0.1-5.1,2.3-9.4,5.2-9.4
				S1135.1,1175.9,1135.2,1181.1z"/>
		</g>
		<path class="st20" d="M1152.7,1192.9l16.3-0.8c0,0-0.1,6.2-7.2,6.8C1153.1,1199.6,1152.7,1192.9,1152.7,1192.9z"/>
		<g>
			<path class="st23" d="M1285.7,1289.1c-3.8-3.9-7.4-7.9-10.7-12.1l-70.9,69.3c-4.4,4.3-2.9,12.9,3.4,19.2s14.8,8.1,19.1,3.8
				l70.9-69.3C1293.5,1296.6,1289.5,1293,1285.7,1289.1z"/>
			
				<ellipse transform="matrix(0.7154 -0.6987 0.6987 0.7154 -408.9252 1319.9458)" class="st25" cx="1415.9" cy="1162" rx="180" ry="178.9"/>
			<path class="st20" d="M1286.9,1285.8c29.4,31.3,69.7,51.7,113.9,55.8l194.1-197.3c0-0.4-0.1-0.7-0.1-1.1
				c-4.8-45-25.8-84.4-56.4-112.9L1286.9,1285.8z"/>
			<path class="st20" d="M1417.4,982.3l-179.5,182.4c0.1,5.5,0.4,11.1,1,16.7c2.7,25.5,10.6,49.2,22.5,70.1l242.4-246.4
				C1478,990.6,1448.5,982.4,1417.4,982.3z"/>
			<path class="st26" d="M1561.5,1019.8c-78.1-79.9-206.5-81-286.9-2.5c-80.4,78.5-82.3,207-4.3,286.9c78.1,79.9,206.5,81,286.9,2.5
				C1637.6,1228.1,1639.5,1099.7,1561.5,1019.8z M1287.1,1287.7c-69-70.7-67.3-184.3,3.8-253.8c71.1-69.5,184.8-68.5,253.8,2.2
				c69,70.7,67.3,184.3-3.8,253.8C1469.7,1359.4,1356.1,1358.4,1287.1,1287.7z"/>
			<path class="st27" d="M1552.6,1028.4c-73.3-75.1-194-76.1-269.5-2.4s-77.3,194.4-4,269.5s194,76.1,269.5,2.4
				C1624.1,1224.1,1625.9,1103.5,1552.6,1028.4z M1287.1,1287.7c-69-70.7-67.3-184.3,3.8-253.8c71.1-69.5,184.8-68.5,253.8,2.2
				c69,70.7,67.3,184.3-3.8,253.8C1469.7,1359.4,1356.1,1358.4,1287.1,1287.7z"/>
			<path class="st26" d="M983.7,1593.1l-11-11.4c-11-11.4-10.7-29.6,0.7-40.6l204.8-198.6c11.4-11,29.6-10.7,40.6,0.7l11,11.4
				c11,11.4,10.7,29.6-0.7,40.6l-204.8,198.6C1013,1604.8,994.8,1604.5,983.7,1593.1z"/>
		</g>
		<path class="st28" d="M995,1480.7c-0.1-0.4-0.1-0.8,0-1.2c1.3-12.9,12-121.6,13.8-126.3c1.6-4.2,49.8-73.1,49.8-73.1l23.7,32.3
			l-46.4,61.8c-1,3.9-17.8,77.3-17.8,77.3s-3.4,13.4-5,21.4c0.7,1.9,1.4,3.8,2,5.2c1.5,3.2,3.3,5.8,5,8c2.1,2.8,5.5,8.8,5.9,10.5
			c0.5,1.9,1.4,5.8,1.9,8.2c0.5,2.4,1.2,5.1,1.3,6.4c0.1,0.8,0.9,2.3,1.5,3.4c0.9,1.6-0.7,3.6-2.4,3c-1.7-0.6-3-2.7-3.8-4.1
			c-2.3-3.8-3.5-10.8-4.1-10.5c-0.6,0.4-2.6,12.2-2.9,13.6c-0.3,1.3-2.7,15.1-4.1,17.7c-1.4,2.5-3.1,2.1-3.6,0.5
			c-0.4-1.4,1.5-20.7,1.5-20.7s0.2-2.5-0.8-1.7c-1.1,0.8-2.8,18.3-3.6,20.9c-0.8,2.6-2.5,3.9-3.9,1.9c-1.8-2.5,1.3-21.1,1.3-21.1
			s0.3-2.3-0.7-2.1c-1,0.2-2.2,15.1-3,16.4c-0.8,1.3-2.7,1.8-3.7-0.4c-1.1-2.5,1.8-19.1,1.8-19.1s-0.1-1.3-0.8-0.9
			c-0.6,0.4-2.6,13.1-3.9,14.3c-1.1,1-2,0-2,0c-2.4-1.6,1.3-13.6,1.2-19.6c0-6,2.7-12.7,1.9-19.8
			C995.3,1482.4,995.1,1481.3,995,1480.7z"/>
		<path class="st15" d="M1021,1323.7l41.2,27.6c0,0,23.2-34.5,35.7-46.8c15.6-15.4-5.7-62.6-15.7-59.9
			C1059.6,1250.6,1021,1323.7,1021,1323.7z"/>
	</g>
	<rect x="459" y="1889" class="st19" width="1458" height="5"/>
</g>
</svg>
