<svg xmlns="http://www.w3.org/2000/svg" xmlns:xlink="http://www.w3.org/1999/xlink" width="676.781" height="406.911" viewBox="0 0 676.781 406.911">
  <defs>
    <clipPath id="clip-path">
      <rect id="Rectángulo_343334" data-name="Rectángulo 343334" width="676.781" height="406.911" fill="none"/>
    </clipPath>
    <clipPath id="clip-path-3">
      <rect id="Rectángulo_343330" data-name="Rectángulo 343330" width="15.911" height="12.886" fill="none"/>
    </clipPath>
    <clipPath id="clip-path-4">
      <rect id="Rectángulo_343331" data-name="Rectángulo 343331" width="28.68" height="17.927" fill="none"/>
    </clipPath>
    <clipPath id="clip-path-5">
      <rect id="Rectángulo_343332" data-name="Rectángulo 343332" width="17.446" height="15.208" fill="none"/>
    </clipPath>
  </defs>
  <g id="Grupo_1000187" data-name="Grupo 1000187" transform="translate(0 -662)">
    <g id="Grupo_997058" data-name="Grupo 997058" transform="translate(0 662)" clip-path="url(#clip-path)">
      <g id="Grupo_997057" data-name="Grupo 997057">
        <g id="Grupo_997056" data-name="Grupo 997056" clip-path="url(#clip-path)">
          <path id="Trazado_658435" data-name="Trazado 658435" d="M676.179,43.424a37.914,37.914,0,0,0-4.215-17.4A38.228,38.228,0,0,0,636,.629c-.487,0-.97.019-1.453.037l-.007-.171a48.86,48.86,0,0,0-22.206,6.3,63.654,63.654,0,0,0-16.657,14.011c-7.03,8.13-12.478,17.659-16.789,26.061a48.255,48.255,0,0,0-.976-19.261,29.923,29.923,0,0,0-9.093-13.843,20.763,20.763,0,0,0-11.5-4.806,14.654,14.654,0,0,0-4.462.343q-.9-.462-1.835-.85a26.466,26.466,0,0,0-8.562-5.932A31.177,31.177,0,0,0,525.184.4c-7.7,1.244-13.841,5.109-17.474,10.687-3.3-.132-9.413,1.055-14.443,10.079-7.608,13.648-6.924,27.232,1.926,38.249q1.165,1.45,2.477,2.785a37.4,37.4,0,0,0,6.072,12.172l.019.023c3,3.3,8.792,6.537,15.659,8.03a31.677,31.677,0,0,0,14.747,3.444q.45,0,.9-.011a41.9,41.9,0,0,0,15.552-3.5,14.286,14.286,0,0,0,5.516-.341c5.826-1.395,11.186-6.037,15.5-13.423A59,59,0,0,0,578.585,48.9c8.454-16.751,21.3-38.5,43.2-45.516a38.322,38.322,0,0,0-14.376,10.169,38.11,38.11,0,0,0,2.913,61.84,38.059,38.059,0,0,0,37.29,4.971,38.235,38.235,0,0,0,28.568-36.943M552.775,9.991a23.727,23.727,0,0,1,7.17,5.83,26.963,26.963,0,0,1,5.979,15.018,12.649,12.649,0,0,0-2.1-1.728q-.158-.932-.38-1.854a24.85,24.85,0,0,0-8.621-13.646,25.28,25.28,0,0,0-2.375-3.529q.159-.047.322-.09m-57.6,30.894c-2.207-4.687.978-12.927,8.116-20.992q.66-.746,1.355-1.479-.209.94-.343,1.913a14.985,14.985,0,0,0-.141,2.647,45.978,45.978,0,0,0-2.533,4.244,49.687,49.687,0,0,0-5.091,15.547,6.234,6.234,0,0,1-1.363-1.88m1.251,2.651a48.041,48.041,0,0,0-.446,6.04q-.3-.724-.556-1.473a25.674,25.674,0,0,1-1.368-8.5,7.659,7.659,0,0,0,.533,1.555,6.921,6.921,0,0,0,1.837,2.374M512.448,13c.217.112.43.229.64.354A40.614,40.614,0,0,0,504.8,22.04a15.163,15.163,0,0,1,.139-1.625,23.405,23.405,0,0,1,.589-2.919q.721-.728,1.473-1.438,1.032-.834,2.168-1.662A10.558,10.558,0,0,1,512.448,13m-1.843-.085q.294-.236.591-.469c.114.042.228.087.34.133q-.478.15-.931.335m3.087.821a11.5,11.5,0,0,1,3.457,3.648,44.366,44.366,0,0,0-5.536,7.213,12.649,12.649,0,0,0-3.638,1.667l-.059.049a9.845,9.845,0,0,0-1.336,1.732,8.1,8.1,0,0,1-1.762-4.9,39.587,39.587,0,0,1,8.873-9.413m-.273-.938c.171-.029.344-.055.517-.078-.1.071-.2.142-.293.215-.075-.047-.149-.092-.225-.137m43.043,28.583a20.482,20.482,0,0,0-5.693-10.079,19.327,19.327,0,0,1,1.83-1.3,7.27,7.27,0,0,0,4.514,1.9,3.656,3.656,0,0,0,3.011-1.683l.026-.044a3.749,3.749,0,0,0,.364-1.852,9.747,9.747,0,0,1,2.721,1.163c1.256,7.946-1.116,16.37-6.324,23.568a31.056,31.056,0,0,0-.449-11.675m-6.574,28.821a37.429,37.429,0,0,1-2.425,3.428,23.489,23.489,0,0,1-1.966,2.172,9.976,9.976,0,0,1,.857-3.651,31.934,31.934,0,0,0,3.534-1.949M546.8,71.215c.228-.441.485-.887.772-1.333a31.191,31.191,0,0,1,6.2-7.443,46.252,46.252,0,0,1-3.088,6.446,30.864,30.864,0,0,1-3.889,2.33m1.174,2.824a39.194,39.194,0,0,0,3.2-4.695,32.14,32.14,0,0,0,9.944-11.6,7.083,7.083,0,0,1,3.859-.334,54.482,54.482,0,0,1-16.477,19.348,26.12,26.12,0,0,1-2.549,1.565,5.774,5.774,0,0,1-.413-1.656,24.229,24.229,0,0,0,2.44-2.632m3.981-6.1a47.261,47.261,0,0,0,2.824-6.347,31.2,31.2,0,0,1,3.861-2.66,11.248,11.248,0,0,1,1.539-.825,31.62,31.62,0,0,1-8.224,9.831m2.281-6.743a31.843,31.843,0,0,0-7.216,8.34,16.074,16.074,0,0,0-1.159,2.129,33.78,33.78,0,0,1-4.52,1.71q-1.667.5-3.389.837a17.336,17.336,0,0,1-.224-5.064c.059-.678.147-1.363.262-2.049a17.2,17.2,0,0,0,8.417-3.136,43.5,43.5,0,0,0,9.428-8.455,43.444,43.444,0,0,1-1.6,5.689M536.4,11.984a6.9,6.9,0,0,0-6.887,4.038l-.014.029a6.1,6.1,0,0,0,.3,4.94,6.663,6.663,0,0,0,4.051,3.489A7.07,7.07,0,0,0,542.1,20.6a8.7,8.7,0,0,0,.818-4.626,10.9,10.9,0,0,1,2.522,4.008l.011.027a21.262,21.262,0,0,1,.924,2.489,4.254,4.254,0,0,0-.158,3.285,4.359,4.359,0,0,0,1.073,1.662c.032.413.054.823.066,1.227a22.8,22.8,0,0,0-2.82-1.479l-.029-.011a21.308,21.308,0,0,0-17.691,2.147q.379-.873.672-1.775a13.235,13.235,0,0,0-.494-10.4l-.018-.03a10.872,10.872,0,0,0-3.1-2.949,15.262,15.262,0,0,1,5.447-4.515C532.573,8.2,536.018,8.655,539.57,11a7.423,7.423,0,0,1,2.263,3.133,10.643,10.643,0,0,0-5.436-2.15m5.758,3.267a8.023,8.023,0,0,1-.635,5.063,6.442,6.442,0,0,1-7.51,3.536,6,6,0,0,1-3.629-3.147,5.455,5.455,0,0,1-.288-4.4,6.277,6.277,0,0,1,6.256-3.676,10.356,10.356,0,0,1,5.807,2.621m15.677,12.175a12.538,12.538,0,0,0-5.157,1.785c-.175-.163-.341-.33-.5-.5a6.071,6.071,0,0,0,3.876-3.126,8.489,8.489,0,0,0,.729-1.905,9.524,9.524,0,0,1,2.726,3.3,4.639,4.639,0,0,1,.2.535,9.449,9.449,0,0,0-1.876-.086m2.016.763a3.123,3.123,0,0,1-.274,1.691A2.99,2.99,0,0,1,557.1,31.26a6.414,6.414,0,0,1-3.911-1.6,11.768,11.768,0,0,1,4.692-1.582,8.784,8.784,0,0,1,1.969.115m-4.365-2.91a5.443,5.443,0,0,1-3.772,2.873l0-.005-.015-.018A24.5,24.5,0,0,1,547.57,21.9a4.409,4.409,0,0,1,4.353-.961,15.344,15.344,0,0,1,4.3,2.3,8.051,8.051,0,0,1-.742,2.036M548.015,29.1c0-.36-.017-.727-.037-1.1a6.15,6.15,0,0,0,2.48.928l.029,0h.029a7.805,7.805,0,0,0,.927-.075,8.927,8.927,0,0,0,.66.7,20.452,20.452,0,0,0-1.81,1.306,20.512,20.512,0,0,0-2.278-1.769m1.792,2.173a25.687,25.687,0,0,0-2.024,1.929,30.079,30.079,0,0,0,.234-3.331,19.687,19.687,0,0,1,1.791,1.4m1.141-3.009c-.135.011-.274.018-.417.023a5.219,5.219,0,0,1-2.614-1.146,23.983,23.983,0,0,0-.842-4.569c.015-.027.03-.053.046-.079a24.926,24.926,0,0,0,3.827,5.771m-3.776-1.989a3.691,3.691,0,0,1-.342-.706,3.645,3.645,0,0,1-.147-1.95,23.308,23.308,0,0,1,.49,2.657m-23.155,4.936a31.087,31.087,0,0,0-2.936,2.541,9.568,9.568,0,0,0-2.755-7.635,9.35,9.35,0,0,0,.852-3.772,35.987,35.987,0,0,1,4.307-7.654,10.2,10.2,0,0,1,2.95,2.793,12.611,12.611,0,0,1,.438,9.875,19.2,19.2,0,0,1-1.053,2.587q-.913.588-1.8,1.265m1.143-.036a19,19,0,0,1-4.6,5.363c.024-.075.046-.149.067-.219a11.672,11.672,0,0,0,.341-1.541,31.041,31.041,0,0,1,3.438-3.051q.374-.284.751-.552m-7.727,7.882a10.007,10.007,0,0,0,.943-.378q.371-.179.738-.387a11.92,11.92,0,0,1-3.161,3.719c-.034-.168-.067-.337-.1-.508q.741-1.254,1.577-2.446M515.707,40.5q-.06-.5-.1-1.012.422-.056.848-.154c-.258.383-.508.773-.752,1.166m2.449-2.438c.625-.829,1.286-1.629,1.977-2.393q-.057.233-.125.465a10.67,10.67,0,0,1-.382,1.08,12.927,12.927,0,0,1-1.47.848m-1.125.444a8.844,8.844,0,0,1-1.454.333,24.227,24.227,0,0,1,.414-5.363,41.3,41.3,0,0,1,1.174-5.409,10.855,10.855,0,0,0,.86-1.345,9.162,9.162,0,0,1,2.335,7.756A35.623,35.623,0,0,0,517.03,38.5m-1.681-5.136a24.768,24.768,0,0,0-.42,5.536,8.748,8.748,0,0,1-7.555-3.442c-.037-.052-.073-.1-.108-.156q.841-2.436,1.926-4.805a7.911,7.911,0,0,0,7.024-1.419,40.9,40.9,0,0,0-.865,4.288m.033,9.061-.093.063.076-.137.017.074M523.3,13.822q-.349-.2-.715-.378,1.345-.99,2.755-1.834a20.607,20.607,0,0,0-2.04,2.212m-.4.515a34.484,34.484,0,0,0-3.813,6.545,10.112,10.112,0,0,0-.693-2.47q-.2-.471-.437-.92A37.745,37.745,0,0,1,522,13.884c.306.139.606.29.9.453m-4.369,7.818c-.445,1.063-.845,2.134-1.2,3.192a6.747,6.747,0,0,0-3.618-1.025,7.918,7.918,0,0,0-1.207.1,43.652,43.652,0,0,1,4.981-6.431q.169.332.314.677a9.172,9.172,0,0,1,.736,3.492m-1.414,3.828q-.3.91-.547,1.8-.212.278-.448.548a7.32,7.32,0,0,1-6.648,1.578q.334-.7.689-1.4.882-1.727,1.864-3.332a6.329,6.329,0,0,1,5.09.807m-7.532,2.23q-.375.734-.727,1.479a5.8,5.8,0,0,1-.609-.29,5.962,5.962,0,0,1-1.195-.864,9.131,9.131,0,0,1,1.311-1.744,12.7,12.7,0,0,1,2.747-1.355q-.8,1.346-1.528,2.775m-1.649,1.756a6.367,6.367,0,0,0,.648.312q-.969,2.118-1.745,4.3a6.037,6.037,0,0,1-.093-5.444,6.6,6.6,0,0,0,1.191.834m-.919,6.092a9.445,9.445,0,0,0,7.955,3.49q.067.937.213,1.829-.512.88-.974,1.784a19.1,19.1,0,0,1-8.01,2.173q-.692.024-1.346.014a53.467,53.467,0,0,1,2.163-9.289m7.675,7.579q.452-.259.862-.534a11.957,11.957,0,0,0,5.17,7.444,9.064,9.064,0,0,0,1.347.66,21.046,21.046,0,0,0,6.081,12.157,20.879,20.879,0,0,1-8.833,2.282,21.655,21.655,0,0,1-7.555-1.128,24.553,24.553,0,0,1-.7-5.384,31.86,31.86,0,0,1,3.627-15.5m7.963,2.734c.553-3.987,2.654-6.71,5.918-7.665,1.891-.553,3.675.367,4.773,2.463,1.17,2.232,1.261,5.446-.611,6.961-3.388,2.743-6.971,3.643-10.079,2.6a16.948,16.948,0,0,1,0-4.357m.1,5.071c3.245.964,6.923,0,10.386-2.808,2.131-1.725,2.068-5.3.777-7.766-1.253-2.391-3.32-3.431-5.53-2.784-3.523,1.032-5.789,3.944-6.379,8.2a17.31,17.31,0,0,0-.034,4.182,8.41,8.41,0,0,1-.922-.475,11.409,11.409,0,0,1-4.938-7.285,12.492,12.492,0,0,0,4.038-5.067,19.589,19.589,0,0,0,6.169-7.246,20.853,20.853,0,0,1,17.973-2.6,22.683,22.683,0,0,1,3.079,1.643,29.442,29.442,0,0,1-.364,4.617c-3.527,4.055-6.09,9.275-6.465,13.632a8.334,8.334,0,0,0,.232,2.706c-3.335,5.847-7.407,10.135-12.021,12.653a20.187,20.187,0,0,1-6-11.6m24.022-16.09c0,.017-.006.034-.01.051a65.619,65.619,0,0,1-5.507,14.12,7.443,7.443,0,0,1-.069-1.783c.321-3.729,2.46-8.468,5.586-12.388M535.2,58.981a37.839,37.839,0,0,0,5.846-7.687,10.685,10.685,0,0,0,1.5,2.819,32.527,32.527,0,0,0-5.1,12.358A11.9,11.9,0,0,1,530.8,64.6a14.538,14.538,0,0,1-1.527-1.1,26.938,26.938,0,0,0,5.925-4.514m10.847,4.446a16.657,16.657,0,0,1-7.938,3.01,31.449,31.449,0,0,1,4.882-11.771A8.832,8.832,0,0,0,545.64,56.8a5.762,5.762,0,0,0,6.736-.819l.02-.018a3.974,3.974,0,0,0,.849-4.4L553.2,51.5a4.831,4.831,0,0,0-5.383-1.819,10.739,10.739,0,0,0-4.872,3.894,9.849,9.849,0,0,1-1.468-3.037A65.832,65.832,0,0,0,547.4,35.555c.078-.384.153-.788.221-1.207a25.168,25.168,0,0,1,2.668-2.642,19.664,19.664,0,0,1,5.548,9.834,31.078,31.078,0,0,1,.257,12.616,42.625,42.625,0,0,1-10.044,9.27m-2.667-9.294a10.418,10.418,0,0,1,4.638-3.835,4.164,4.164,0,0,1,4.663,1.589,3.366,3.366,0,0,1-.738,3.614,5.146,5.146,0,0,1-6.006.723,8.29,8.29,0,0,1-2.558-2.091m17.036-26.489a5.163,5.163,0,0,0-.311-.927,10.5,10.5,0,0,0-3.168-3.734,12.129,12.129,0,0,0-1.215-7.732,24.134,24.134,0,0,1,7.1,12.159q.151.626.272,1.257a10.2,10.2,0,0,0-2.676-1.023m-4.059-5.1a15.74,15.74,0,0,0-4.252-2.229l-.023-.006a7.073,7.073,0,0,0-1.583-.188,4.649,4.649,0,0,0-3.19,1.131,8.751,8.751,0,0,1-.027-7.145A7.325,7.325,0,0,1,550,11.173a28.545,28.545,0,0,1,4.331,2.872q.274.5.531,1.021l.017.03a11.309,11.309,0,0,1,1.479,7.449M546.7,13.818a8.981,8.981,0,0,0-.314,6.734q-.158-.4-.334-.794a11.822,11.822,0,0,0-3.316-4.888,8.012,8.012,0,0,0-2.767-4.382l-.027-.019a12.449,12.449,0,0,0-6.6-2.295,30.845,30.845,0,0,1,4.826-.915,38.309,38.309,0,0,1,11.171,3.568,7.884,7.884,0,0,0-2.643,2.99m-24.793-.682a15.03,15.03,0,0,0-3.58-1.009,16.054,16.054,0,0,0-2.02-.182A33.187,33.187,0,0,1,535.59,6.9l.3.034a32.95,32.95,0,0,0-13.979,6.2m-.6.458a38.505,38.505,0,0,0-3.695,3.311,12.151,12.151,0,0,0-3.374-3.571q.514-.373,1.038-.725a15.175,15.175,0,0,1,6.031.985M506.249,28.657a6.874,6.874,0,0,0,.3,6.736,54.131,54.131,0,0,0-2.351,9.939,12.477,12.477,0,0,1-7.1-2.089,48.535,48.535,0,0,1,5.1-15.724q.96-1.822,2.045-3.5a8.228,8.228,0,0,0,2,4.639M497,43.974a13.476,13.476,0,0,0,7.114,2,48.787,48.787,0,0,0,.3,14.613,26.95,26.95,0,0,1-7.78-9.544A46.648,46.648,0,0,1,497,43.974M504.762,46c.474.009.964.005,1.467-.012a20.578,20.578,0,0,0,7.49-1.837,32.181,32.181,0,0,0-3.309,15.011,25.229,25.229,0,0,0,.617,5.106,25.054,25.054,0,0,1-5.85-3.113A47.83,47.83,0,0,1,504.762,46m6.452,19.022a22.286,22.286,0,0,0,2.837,6.434q.209.323.429.638a46.971,46.971,0,0,1-6.931-3.188,37.565,37.565,0,0,1-2.181-6.832,25.528,25.528,0,0,0,5.845,2.948m.741.246a22.216,22.216,0,0,0,7.379,1.033,21.727,21.727,0,0,0,9.324-2.472,15.125,15.125,0,0,0,1.8,1.325,12.51,12.51,0,0,0,6.874,1.978c-.11.667-.193,1.325-.25,1.967a18.02,18.02,0,0,0,.233,5.241,44.323,44.323,0,0,1-21.785-1.876,21.486,21.486,0,0,1-3.572-7.2m25.507,9.7a7.993,7.993,0,0,0,2.928,4.583,24.3,24.3,0,0,1-3.931,1.679,24.1,24.1,0,0,1-13.323-2.486,22.208,22.208,0,0,1-6.868-5.364,44.773,44.773,0,0,0,21.195,1.588m3.553,4.982q.088.05.177.1.137.085.276.163-1,.313-2.023.54.788-.367,1.57-.8m.008-.753a7.223,7.223,0,0,1-2.922-4.349q1.737-.342,3.423-.846a35.007,35.007,0,0,0,3.979-1.459,9.743,9.743,0,0,0-.644,3.862,22.6,22.6,0,0,1-3.836,2.792m3.925-2a6.209,6.209,0,0,0,.419,1.433,25.5,25.5,0,0,1-3.032,1.295,7.181,7.181,0,0,1-.671-.347,23.2,23.2,0,0,0,3.284-2.38m.708,2.013q.14.245.3.477a5.825,5.825,0,0,0,.679.8,8.361,8.361,0,0,1-3.365-.215q1.209-.466,2.381-1.058m.834.1q-.139-.2-.258-.4a26.776,26.776,0,0,0,2.634-1.615,54.535,54.535,0,0,0,15.253-16.881q.8-1.389,1.5-2.783a4.035,4.035,0,0,1,1.753,1.446c2.683,5.542-6.929,13.266-11.55,16.98-.379.3-.73.586-1.029.831a20.325,20.325,0,0,1-7.332,3.461,5.285,5.285,0,0,1-.971-1.038m18.771-22.484a7.16,7.16,0,0,0-3.737.1,46.853,46.853,0,0,0,4.292-16.157,31.838,31.838,0,0,0,.859-8.066,14.228,14.228,0,0,1,2.6,6.009,36.308,36.308,0,0,1-4.014,18.114m-.081-16.184-.007.044A45.747,45.747,0,0,1,560.655,57.2a11.9,11.9,0,0,0-2.359,1.183,31.807,31.807,0,0,0-3.132,2.086,43.114,43.114,0,0,0,1.53-6.037c5.685-7.37,8.4-16.14,7.268-24.451a12.487,12.487,0,0,1,2.032,1.875,31.148,31.148,0,0,1-.816,8.784M553.444,12.556a29.6,29.6,0,0,0-2.784-1.76,9.911,9.911,0,0,1,1.149-.5,24.478,24.478,0,0,1,1.635,2.262m-2.076-2.789a10.309,10.309,0,0,0-1.387.66,37.242,37.242,0,0,0-9.134-3.3A26.076,26.076,0,0,1,550.7,9.019q.342.365.672.748m-8.17-6,.062-.188a25.456,25.456,0,0,1,6.326,4.331,27.575,27.575,0,0,0-10.425-1.388q-.489.038-.974.088-1.247-.205-2.544-.352a33.4,33.4,0,0,0-20.319,5.512c-.1.064-.2.13-.3.2a14.67,14.67,0,0,0-2.51.353c-.238-.117-.481-.226-.727-.327C521.209,4.8,532.908.374,543.2,3.763m-17.91-2.724a31.047,31.047,0,0,1,15.086,1.332c-9.846-1.832-20.572,2.6-29.293,9.351a12.023,12.023,0,0,0-2.65-.585c4.046-5.959,10.744-9.11,16.857-10.1M508.028,11.753a11.34,11.34,0,0,1,2.437.451c-1.356,1.078-2.662,2.21-3.9,3.383q-.3.244-.593.49a20.865,20.865,0,0,1,2.061-4.324M495.7,59.007c-8.674-10.8-9.337-24.124-1.866-37.527,4.645-8.332,10.179-9.755,13.412-9.755h.063a22.085,22.085,0,0,0-2.265,5.144A34.58,34.58,0,0,0,494.907,31.2a25.784,25.784,0,0,0-.1,17.118A26.809,26.809,0,0,0,495.99,51.2c0,.011,0,.024,0,.035a43.564,43.564,0,0,0,1.318,9.645q-.837-.908-1.609-1.869m1-6.429A27.611,27.611,0,0,0,504.6,61.53a38.983,38.983,0,0,0,2.03,6.839,41.918,41.918,0,0,1-8.344-6.473,42.752,42.752,0,0,1-1.58-9.317m7.548,21.387a36.474,36.474,0,0,1-5.571-10.776,43.234,43.234,0,0,0,8.362,6.166,32.8,32.8,0,0,0,2.1,4.015,29,29,0,0,0,8.243,7.881c-5.753-1.611-10.522-4.426-13.132-7.287m5.43-.951a31.863,31.863,0,0,1-1.691-3.133,47.927,47.927,0,0,0,7.171,3.133,22.878,22.878,0,0,0,7.681,6.307,24.628,24.628,0,0,0,10.76,2.671,30.419,30.419,0,0,1-5.248.619,36.166,36.166,0,0,1-8.693-.8,28.142,28.142,0,0,1-9.978-8.8m25.374,12.193a32.016,32.016,0,0,1-13.112-2.324,36.211,36.211,0,0,0,6.431.377,29.807,29.807,0,0,0,8.226-1.393,25.716,25.716,0,0,0,5.709-1.25,8.906,8.906,0,0,0,4.981.418,7.041,7.041,0,0,0,2.2,1.07,41.082,41.082,0,0,1-14.44,3.1m36.024-16.94c-4.223,7.23-9.441,11.766-15.092,13.119a14.894,14.894,0,0,1-4.187.444q1.372-.641,2.713-1.378a41.031,41.031,0,0,0,14.921-13.723c1.74-2.737,3.684-6.714,5.935-11.319.69-1.41,1.412-2.889,2.172-4.419a57.619,57.619,0,0,1-6.462,17.275m6.891-19.582c-1.142,2.263-2.2,4.428-3.184,6.441-2.242,4.587-4.179,8.549-5.9,11.255a41.555,41.555,0,0,1-18.382,15.3,7.174,7.174,0,0,1-2.322-.834,21.7,21.7,0,0,0,7.006-3.445c.313-.255.663-.537,1.041-.84,5.125-4.118,14.663-11.783,11.716-17.793l-.025-.042a4.665,4.665,0,0,0-2.016-1.674,36.844,36.844,0,0,0,4.016-18.4l0-.031a14.9,14.9,0,0,0-3.286-7.006,27.751,27.751,0,0,0-6.186-16.209,24.4,24.4,0,0,0-6.7-5.628,14.529,14.529,0,0,1,3.535-.172c6.9.479,15.788,5.514,20.021,18.195,1.743,6.1,1.9,13.5.672,20.885M636,1.257a37.571,37.571,0,0,1,33.5,20.629A38.152,38.152,0,0,0,638.012,5.257c-1.161,0-2.308.061-3.442.162-1.135-.1-2.281-.162-3.442-.162a37.932,37.932,0,0,0-20.8,6.188A37.392,37.392,0,0,1,636,1.257M595.8,44.978a37.325,37.325,0,0,1,3-14.707,37.978,37.978,0,0,0,3.242,25.923,38.286,38.286,0,0,0,29.1,24.766h-.026a37.308,37.308,0,0,1-20.442-6.079A37.5,37.5,0,0,1,595.8,44.978M631.128,5.886h.026a37.833,37.833,0,0,0-7.412,2.149,38.3,38.3,0,0,0-22.16,15.8,37.608,37.608,0,0,1,6.262-9.828,37.345,37.345,0,0,1,23.283-8.126m37.538,37.538a37.372,37.372,0,0,1-9.379,24.783A37.476,37.476,0,0,1,602.631,55.95,37.509,37.509,0,0,1,623.945,8.631a37.48,37.48,0,0,1,29.839,4.887,37.5,37.5,0,0,1,14.882,29.905M633.342,6.811a38.4,38.4,0,0,0-4.962.333,37.321,37.321,0,0,1,6.19-1.094,37.239,37.239,0,0,1,11.545,2.966,37.99,37.99,0,0,0-12.773-2.206m-14.023,3.357a38.1,38.1,0,0,0-18.547,41.583A37.478,37.478,0,0,1,600.34,27.1a37.756,37.756,0,0,1,18.978-16.934m-14.8,50.165A38.1,38.1,0,0,0,656.8,70.774,37.4,37.4,0,0,1,634.57,80.8a37.6,37.6,0,0,1-30.056-20.465m55.209,8.33a38.5,38.5,0,0,0,8.04-8.73A37.749,37.749,0,0,1,647.41,79.77a37.475,37.475,0,0,1-9.4,1.191h-.026a38.148,38.148,0,0,0,21.737-12.3m2.26-2.811a38.068,38.068,0,0,0-1.339-46.6A37.431,37.431,0,0,1,669,56.672a37.779,37.779,0,0,1-7.022,9.181m9.526-20.874a38.158,38.158,0,0,0-17.359-31.971,37.987,37.987,0,0,0-16.163-7.12h.026A37.567,37.567,0,0,1,671.384,26.27a37.479,37.479,0,0,1-.847,27.232,38.1,38.1,0,0,0,.972-8.524m-66.36-28.612a38.1,38.1,0,0,0-5.39,10.491,38.091,38.091,0,0,0,4.068,42.289,37.442,37.442,0,0,1,1.322-52.78m28.193,66.149a37.306,37.306,0,0,1-14.988-3.131,37.975,37.975,0,0,0,12.773,2.206c1.161,0,2.308-.061,3.442-.162,1.135.1,2.281.162,3.442.162a38.392,38.392,0,0,0,4.962-.333,37.462,37.462,0,0,1-9.632,1.258m18.693-4.281a38.352,38.352,0,0,0,17.551-21.319,38.044,38.044,0,0,0,3.657-26.448,37.527,37.527,0,0,1-21.209,47.767" transform="translate(-233.062 0)" fill="#c8cbe3"/>
          <path id="Trazado_658436" data-name="Trazado 658436" d="M372.088,674.318h0a2.246,2.246,0,0,0,2.68-1.748l19.616-104.506-10.32-2.552-13.722,106.3a2.247,2.247,0,0,0,1.747,2.5" transform="translate(-176.852 -270.07)" fill="#c8cbe3"/>
          <path id="Trazado_658437" data-name="Trazado 658437" d="M515.477,674.318h0a2.246,2.246,0,0,1-2.68-1.748L493.182,568.064l10.32-2.552,13.722,106.3a2.247,2.247,0,0,1-1.746,2.5" transform="translate(-235.527 -270.07)" fill="#c8cbe3"/>
          <path id="Trazado_658438" data-name="Trazado 658438" d="M447.774,481.908s-86.837,11.129-89.511-14.233c-4.35-41.3-10.791-60.651-14.7-72.471-2.546-7.695-4.015-12.2-3.135-17.491,2.239-13.415,15.6-16.462,28.117-10.2,11.782,5.891,79.225,114.4,79.225,114.4" transform="translate(-162.456 -174.021)" fill="#12263f"/>
          <path id="Trazado_658439" data-name="Trazado 658439" d="M444.045,480.762c-17.326-.572-71.454,5.849-80.7-33.862-5.541-23.807-13.818-44.089-19.78-51.7-2.547-7.694-4.015-12.2-3.135-17.491,2.239-13.415,15.6-16.462,28.117-10.2,11.781,5.891,69.088,102.009,75.5,113.252" transform="translate(-162.457 -174.022)" fill="#b0c0d2"/>
          <path id="Trazado_658440" data-name="Trazado 658440" d="M527.109,552.665c-.316,2.288-.651,4.551-1,6.769-2.793,17.869-6.353,32.99-7.07,35.944v0c-.08.341-.125.521-.125.521H508.679c-1.537-7.786-2.814-15.046-3.785-21.87a176.986,176.986,0,0,1-2.058-31.563c.411-11.12,1.507-21.329,2.4-31.6l-5.032-2.879-59.467-34.046-20.493-11.737h39.273s56.017,18.165,65.52,34c6.389,10.655,5.067,34.673,2.068,56.453" transform="translate(-200.696 -220.736)" fill="#f0b7aa"/>
          <path id="Trazado_658441" data-name="Trazado 658441" d="M586.188,717.022l-3.306,10.813,2.07,16.808,3.328.162,3.035-14.714,5.373,9.769c1.447,2.63,3.619,4.783,6.6,5.168,7.852,1.018,23.2,1.283,23.832-3.87.653-5.295-14.22-5.522-18.564-11.344-4.207-5.638-9.264-13.013-9.264-13.013Z" transform="translate(-278.365 -342.321)" fill="#141a1f"/>
          <path id="Trazado_658442" data-name="Trazado 658442" d="M521.611,595.8l-13.1.22c-.4-.341-.806-.726-1.227-1.147v-.005c-4.136-4.186-9.2-12.217-14.144-21.344-9.312-17.169-18.23-38.212-19.852-44.826-9.722-12.619-55.114-3.5-68.275-23.057-10.564-15.694-9.336-43.94-9.336-43.94,8.907.281,20.232-1.387,28.6,0a23.534,23.534,0,0,1,3.465.821c27.838,9,57.463,20.493,69.82,37.957a33.47,33.47,0,0,1,4.231,7.986c4.7,13.023,7.936,27.423,11.18,43.39.466,2.293.927,4.656,1.382,7.07,2.178,11.455,4.331,24.133,7.26,36.875" transform="translate(-188.94 -220.226)" fill="#ffd3c9"/>
          <path id="Trazado_658443" data-name="Trazado 658443" d="M608.672,719.111l-3.307,10.813,2.07,16.808,3.328.162L613.8,732.18l5.373,9.769c1.447,2.63,3.618,4.783,6.6,5.169,7.852,1.018,23.2,1.283,23.832-3.87.653-5.3-14.221-5.522-18.565-11.344-4.207-5.638-9.264-13.013-9.264-13.013Z" transform="translate(-289.102 -343.318)" fill="#30334d"/>
          <path id="Trazado_658444" data-name="Trazado 658444" d="M512.032,496.21c-13.894-2.074-15.384,19.2-29.289,28.8a25.2,25.2,0,0,1-10.709,4.2c-15.1-9.6-56.818-2.519-72.175-23.976-11.011-15.384-5.434-43.023-5.434-43.023,1.59.049,4.274.082,7.607.1,15.34.083,44.481-.1,44.481-.1s56.021,18.167,65.52,34" transform="translate(-187.69 -220.735)" fill="#30334d"/>
          <path id="Trazado_658445" data-name="Trazado 658445" d="M482.744,525.008a25.187,25.187,0,0,1-10.709,4.2c-15.1-9.6-56.818-2.519-72.175-23.976-11.012-15.385-5.434-43.023-5.434-43.023,1.589.05,4.273.083,7.607.1.039,9.741.032,33.395,15.312,42.332,11.971,7,54.118,9.179,65.4,20.366" transform="translate(-187.69 -220.734)" fill="#23273d"/>
          <path id="Trazado_658446" data-name="Trazado 658446" d="M465.122,286.448a23.343,23.343,0,0,0-2.136-4.359.119.119,0,0,0-.206.12,24.486,24.486,0,0,1,2.785,16.329,32.579,32.579,0,0,1-1.273,4.509c-.11.33.422.564.569.24a18.22,18.22,0,0,0,1.219-4.11,24.582,24.582,0,0,0,.433-4.267,23.934,23.934,0,0,0-1.392-8.462" transform="translate(-221 -134.689)" fill="#30334d"/>
          <path id="Trazado_658447" data-name="Trazado 658447" d="M470.712,238.912c-1.13-2.039-4.261-3.588-6.465-4.373-.055-.019-.095.071-.041.1,1.871.88,4.787,2.111,5.852,3.9a9.939,9.939,0,0,1,1.333,6.371,10.365,10.365,0,0,1-3.145,6.05,30.589,30.589,0,0,1-5.688,4.113q-1.818,1.1-3.7,2.1c-1.272.674-2.578,1.285-3.837,1.983-.228.126-.074.526.182.431a43.363,43.363,0,0,0,7.137-3.662,33.581,33.581,0,0,0,6.044-4.313,11.04,11.04,0,0,0,3.391-6.037,10.146,10.146,0,0,0-1.066-6.66" transform="translate(-217.251 -112.007)" fill="#30334d"/>
          <path id="Trazado_658448" data-name="Trazado 658448" d="M460.924,360.8l-11.061,21.287s2.222,11.557,5.044,15.966c1.646,2.556,7.72,4.2,15.154,4.8a82.678,82.678,0,0,0,25.015-1.737c8.66,6.3,16.4,3.886,20.315.243,5.051-4.679-10.539-3.337-11.312-5.41-.588-1.6,3.175-3.088,1.771-4.837-2.167-2.691-10.238,2.651-10.238,2.651-7.925-1.266-14.241-2.929-20.419-4.257-2.957-.641-8.207-2.416-11.273-2.819Z" transform="translate(-214.839 -172.306)" fill="#ffd3c9"/>
          <path id="Trazado_658449" data-name="Trazado 658449" d="M451.126,324.342l-19.417,28.9s9.8,25.71,14.054,28.755c4.509,3.224,14.154,3.7,21.588,4.3l.062-14.009c-1.943-.421-4.644-1.148-7.043-1.778a4.437,4.437,0,0,1-3.312-4.331c.147-16.056-.5-36.38-5.933-41.838" transform="translate(-206.17 -154.895)" fill="#ffc880"/>
          <path id="Trazado_658450" data-name="Trazado 658450" d="M402.793,234.419c-2.945-2.97-8.837-3.207-12.389-1-2.639,1.639-3.539,2.358-6.2,3.964-4.032,2.435-9.3.963-13.81,2.326a11.417,11.417,0,0,0-6.263,4.893,9.058,9.058,0,0,0-3.751,4.927,10.153,10.153,0,0,0-.345,3.908,10.1,10.1,0,0,1-.2,4.521c-.991,2.535-3.927,3.874-6.259,4.874a84.175,84.175,0,0,1-8.489,2.86,42.978,42.978,0,0,0-8.059,3.121,11.669,11.669,0,0,0-5.488,5.624,7.487,7.487,0,0,0-.517,3.806,7.984,7.984,0,0,0,1.425,3.34c1.242,1.858,3.09,4.037,1.671,6.323a7.772,7.772,0,0,1-2.547,2.267c-1.017.649-2.069,1.229-3.025,1.971a16.408,16.408,0,0,0-4.8,6,14.659,14.659,0,0,0-.681,1.764c-1.171,3.66-.263,9.045,4.7,12.807,3.922,2.976,13.38-5.081,15.7,2.364.528,1.692,6.165,6.79,7.9,7.17,16.332,3.584,32.184-21.2,35.851-31.662,10.206-11.975,11.895-22.087,8.655-33.8,3.075-2.837,8.926-8.224,9.768-12.321s.1-7.084-2.843-10.054M361.9,259.108c-1.137,2.412-3.68,3.8-6.136,4.841-6.015,2.539-12.79,4.114-17.267,8.866-1.335,1.417-2.457,3.251-2.263,5.189.2,1.959,1.693,3.6,1.923,5.552.257,2.176-1.139,4.253-2.886,5.576a42.453,42.453,0,0,1-5.769,3.131,9.93,9.93,0,0,0-1.407.931,18.956,18.956,0,0,1,2.722-1.952,17.793,17.793,0,0,0,2.844-1.945,4.464,4.464,0,0,0,1.53-2.69,5.035,5.035,0,0,0-.791-3.149c-.6-1.047-1.367-1.991-1.961-3.043a6.165,6.165,0,0,1-.812-3.642,9.17,9.17,0,0,1,4.294-6.529,30.24,30.24,0,0,1,7.833-3.464c2.809-.907,5.666-1.673,8.431-2.715a33.119,33.119,0,0,0,3.937-1.751,11.2,11.2,0,0,0,3.062-2.258,5.835,5.835,0,0,0,1.536-3.457c.136-1.533-.236-3.053-.235-4.583a8.838,8.838,0,0,1,3.039-6.54c.062-.054.13-.1.193-.152a10.929,10.929,0,0,0-1.266,4.225c-.262,3.211.825,6.645-.549,9.559" transform="translate(-154.068 -110.772)" fill="#30334d"/>
          <path id="Trazado_658451" data-name="Trazado 658451" d="M448.895,390.724c-15.8-2.1-28.765,4.453-44.862,3.2a52.952,52.952,0,0,1-5.962-.8,7.39,7.39,0,0,1-5.962-7.974l5.31-51.791,4.676-15.929,1.081-3.651,7.122-2.606,11.751-.646c13.73,5.962,21.908,21.175,13.581,39-8.086,17.325,13.265,41.191,13.265,41.191" transform="translate(-187.24 -148.298)" fill="#ffb657"/>
          <path id="Trazado_658452" data-name="Trazado 658452" d="M438.71,299.53c0,5.468-6.659,6.115-11.751.646l2.776-7.981,1.84-4.7,6.558,4.417.564,6.745Z" transform="translate(-203.901 -137.298)" fill="#ffd3c9"/>
          <path id="Trazado_658453" data-name="Trazado 658453" d="M408.783,352.77c-3.67,9.986-7.4,33.814-4.751,47.47a52.949,52.949,0,0,1-5.962-.8,7.389,7.389,0,0,1-5.962-7.974l5.31-51.792,4.675-15.929c4.117,3.241,7.9,6.52,7.9,6.52a37.527,37.527,0,0,1-1.211,22.506" transform="translate(-187.24 -154.609)" fill="#f5aa4a"/>
          <path id="Trazado_658454" data-name="Trazado 658454" d="M456.53,382.144c-2.807,4.318-18.9.172-18.9.172s-19.718.147-27.916-.188c-9.893-.354-21.8-1.3-26.268-3.6-4.565-2.366,1.043-34.466,4.49-43a88.009,88.009,0,0,1,10.3-18.779l-5.757,19.581,3.54,30.553c5.328.689,35.857,7.321,40.2,7.97,12.283-2.7,22.551,3.839,20.311,7.285" transform="translate(-182.301 -151.271)" fill="#ffd3c9"/>
          <path id="Trazado_658455" data-name="Trazado 658455" d="M415.167,370.428l-1.25,13.412c-9.893-.354-27.738-.68-32.209-2.972-4.564-2.366-4.762-37.987.932-49.7,6.113-12.575,13.97-14.413,13.97-14.413,16.837,11.793-2.782,22.505-2.217,50.134,5.328.689,15.277,1.936,20.773,3.538" transform="translate(-180.674 -151.272)" fill="#ffc880"/>
          <path id="Trazado_658456" data-name="Trazado 658456" d="M441.234,298.985c-.523.067-1.1.121-1.719.148-3.372.175-5.872-3.735-7.242-6.61l1.553-4.341,8.465,3.534Z" transform="translate(-206.439 -137.626)" fill="#f0bbaf"/>
          <path id="Trazado_658457" data-name="Trazado 658457" d="M447.273,256.1s-3.269,6.927-14.244,9.5c0,0-3.425-3.736-4.9-1.4s2.1,6.46,2.1,6.46c.411,6.785,5.293,12.168,10.352,10.9,11.5-2.891,6.694-25.451,6.694-25.451" transform="translate(-204.287 -122.303)" fill="#ffd3c9"/>
          <path id="Trazado_658458" data-name="Trazado 658458" d="M676.533,620.888,633.576,511.361a41.766,41.766,0,0,0,16.88-14.861l23.573-37.162a1.983,1.983,0,0,0-.953-2.878,2.627,2.627,0,0,0-3.3.829L646.2,494.452c-6.936,10.934-20.152,17.726-34.492,17.726H545.82c-14.937,0-28.832-7.553-35.4-19.242l-19.97-35.554a2.6,2.6,0,0,0-3.251-.971,2,2,0,0,0-1.114,2.832l19.97,35.553a40.256,40.256,0,0,0,13.319,13.922c-.026.056-.061.108-.081.168L475.769,621.069a2.084,2.084,0,0,0,1.613,2.644,2.763,2.763,0,0,0,.713.094,2.419,2.419,0,0,0,2.324-1.5l36.744-92.872H634.238a2.753,2.753,0,0,0,.578-.067l37.067,92.76a2.417,2.417,0,0,0,2.324,1.5,2.764,2.764,0,0,0,.712-.094,2.083,2.083,0,0,0,1.613-2.644M518.651,525.2l4.937-14.055a49.3,49.3,0,0,0,22.233,5.269h65.889a49.876,49.876,0,0,0,17.457-3.132l4.186,11.918Z" transform="translate(-227.16 -217.863)" fill="#c8cbe3"/>
          <path id="Trazado_658459" data-name="Trazado 658459" d="M659,449.377H335.459a3.344,3.344,0,0,1-3.345-3.344v-.77a3.344,3.344,0,0,1,3.345-3.345H659a3.344,3.344,0,0,1,3.344,3.345v.77A3.344,3.344,0,0,1,659,449.377" transform="translate(-158.607 -211.045)" fill="#2363a8"/>
          <path id="Trazado_658460" data-name="Trazado 658460" d="M510.346,359.449l-11.107,39.525H473.488v3.559h80.49l12.107-43.085Z" transform="translate(-226.122 -171.661)" fill="#c8cbe3"/>
          <path id="Trazado_658461" data-name="Trazado 658461" d="M786.038,341.282c-14.094,8.911-32.546,22.384-32.546,22.384s-39.064-2.251-50.691-6.455c-6,.6-19.636-3.6-21.675-9.422-3.692-10.532,11.923-.678,16.1-.458,4.613.243-6.25-6.63.026-5.968,2.444.258,7.638,3.068,8.972,6.16,1.455,1,45.185,3.688,45.185,3.688s21.935-21.272,38.408-31.31c2.469,7.99-1.222,13.553-3.782,21.381" transform="translate(-325.016 -152.774)" fill="#ffd3c9"/>
          <path id="Trazado_658462" data-name="Trazado 658462" d="M808.038,344.122c-7.041,5.672-17.438,17.135-28.289,20.652-5.97,1.935-39.314-6.357-46.636-8.13-.7-3.127-.043-8.57,1.661-12.318,8.883,2,40.276,2.892,40.276,2.892,9.264-10.166,19.792-37.321,37.564-33.817,11.951,2.357,6.6,21.716-4.575,30.722" transform="translate(-349.978 -149.522)" fill="#f27486"/>
          <path id="Trazado_658463" data-name="Trazado 658463" d="M806.254,517.575c13.976,23.557,19.582,60.169,21.317,87.183-3.407.633-6.292,2.219-9.914,2.774-6.889-19.4-36.027-72.147-34.076-88.4,2.73-22.747,21.962-34.307,36.2-47.9,8.493-.747,16.416-1.879,24.714-2.6,7.487,24.95-18.819,37.146-38.242,48.949" transform="translate(-374.167 -223.8)" fill="#ffd3c9"/>
          <path id="Trazado_658464" data-name="Trazado 658464" d="M804.861,517.758c9.745,22.266,13.965,47.142,15.669,71.31-4.991,1.363-11.45,4.174-16.874,3.3-6.7-18.154-28.784-58.565-32.079-75.175-3.078-15.514,26.654-35.6,41.237-49.662,8.8-.242,16.893-3.687,25.558-3.982,16.429,40.491-13.757,42.042-33.512,54.206" transform="translate(-368.374 -221.377)" fill="#141a1f"/>
          <path id="Trazado_658465" data-name="Trazado 658465" d="M827.376,728.364c4.05.748,7.306-1.049,10.608-2.534,4.288,5.523,6.28,10.6,6.065,15.779-13.687,3.243-24.933,5.166-38.654,8.262,1.963-15.226,13.2-11.356,21.981-21.506" transform="translate(-384.63 -346.632)" fill="#141a1f"/>
          <path id="Trazado_658466" data-name="Trazado 658466" d="M750.281,531.388c9.125,25.826,7.5,62.829,3.946,89.664-3.465-.042-6.6.952-10.265.792-2.983-20.369-14.736-80.492-9.66-96.058,7.1-21.781,21.654-26.664,38.266-37.23,8.476.92,16.468,1.352,24.747,2.26,2.489,25.929-25.688,32.773-47.035,40.573" transform="translate(-350.079 -233.318)" fill="#ffd3c9"/>
          <path id="Trazado_658467" data-name="Trazado 658467" d="M747.838,531.916c5.227,23.737,5.773,48.843,2.743,72.88-4.76,1.5-13.291,1.981-18.442.073-3.041-19.111-15.087-67.174-11.536-83.731,3.529-16.457,30.717-27.671,47.757-38.622,8.675,1.474,14.34,1.354,22.9,2.751,8.237,42.913-21.674,38.561-43.419,46.649" transform="translate(-343.826 -230.433)" fill="#30334d"/>
          <path id="Trazado_658468" data-name="Trazado 658468" d="M729.3,739.269c3.827,1.521,7.37.393,10.9-.422,3.131,6.251,4.084,12.2,2.865,17.24-14.057.518-25.448-.367-39.51,0-3.824-17.24,15.159-8.57,25.746-16.819" transform="translate(-335.754 -352.849)" fill="#30334d"/>
          <path id="Trazado_658469" data-name="Trazado 658469" d="M863.008,394.982c0,.04.11.125.055.19-14,1.642-29.175-2.343-43.124-.14,4.161-19.066,3.85-33.776,1.492-52.9-.045.02-.095.04-.14.06-.8-4.752,13.409-29.325,14.785-29.866,1.833-.726,2-5.367,3.92-6.184,3.966.976,4.542-1.567,9.137.1s8.667,5.876,11.986,12.285c11.341,21.9.376,51.262,1.888,76.451" transform="translate(-391.575 -145.974)" fill="#ffd3c9"/>
          <path id="Trazado_658470" data-name="Trazado 658470" d="M864.3,297.5c-6.117,4.026-23.238,11.134-12.844.257a33.573,33.573,0,0,0,1.928-12.178c3.094-.086,6.184-.161,9.279-.28-.016,1.973.309,9.233,1.636,12.2" transform="translate(-405.064 -136.247)" fill="#f0bbaf"/>
          <path id="Trazado_658471" data-name="Trazado 658471" d="M860.915,396.159a3.885,3.885,0,0,1-2.631,3.747,57.6,57.6,0,0,1-6.87,1.52,119.729,119.729,0,0,1-19.955.722c-6.5-.233-16.371-.42-21.715-2.879,2.153-10.288,2.869-54.736,8.806-70.487,3.788-10.049,12.733-18.026,14.553-20.09-7.1,7.382,7.223,3.181,12.844-.489,11.273,3.9,18.394,21.109,18.556,28.842.4,19.284-5.035,39.253-3.587,59.114" transform="translate(-386.707 -147.187)" fill="#ed9aa9"/>
          <path id="Trazado_658472" data-name="Trazado 658472" d="M777.338,359.115c-12.345,11.208-28.2,27.662-28.2,27.662s-38.867,4.521-51.045,2.385c-5.8,1.621-19.962-.161-22.976-5.542-5.453-9.737,11.628-2.724,15.783-3.228,4.585-.556-7.3-5.453-1-5.883,2.452-.168,8.053,1.7,9.9,4.52,1.606.732,45.144-4.161,45.144-4.161s17.937-24.737,32.432-37.466c3.81,7.444,1.133,13.561-.038,21.713" transform="translate(-321.907 -161.132)" fill="#ffd3c9"/>
          <path id="Trazado_658473" data-name="Trazado 658473" d="M801.909,363.041c-5.957,6.8-14.221,19.886-24.3,25.222-5.547,2.936-39.821.52-47.34.036-1.23-2.96-1.032-8.9,0-12.884,9.095.435,39.683-3.635,39.683-3.635,7.371-11.611,13.057-40.175,31.167-39.789,12.179.26,10.25,20.252.793,31.05" transform="translate(-348.345 -158.546)" fill="#d38392"/>
          <path id="Trazado_658474" data-name="Trazado 658474" d="M837.344,248.684c-1.592,7.029-4,19.058.225,24.247,2.675,3.284,14.591,2.148,18.955-6.777,2.237-2.575,1.1-7.638-1.056-9.993-1.535-1.677-1.825,1.884-4.454,1.36-1-.2.34-8.375-2.787-9.664s-7.72,2.728-10.883.825" transform="translate(-398.865 -118.244)" fill="#ffd3c9"/>
          <path id="Trazado_658475" data-name="Trazado 658475" d="M864.345,251.242a22.2,22.2,0,0,0,.853-2.145,10.778,10.778,0,0,0,.607-4.225,7.474,7.474,0,0,0-1.154-3.558,5.932,5.932,0,0,0-2.95-2.275,11.081,11.081,0,0,0-3.676-.544,5.644,5.644,0,0,1-1.811-.786c-.794-.6-3.827-3.854-6.646-3.043-2.157.621-2.469,1.95-3.585,2.179a10.575,10.575,0,0,1-1.156-.53,11.215,11.215,0,0,0-2.681-1.194,5.017,5.017,0,0,0-4.16,1.03,4.386,4.386,0,0,0-1.177,1.064c-1.738,2.227-2.934,5.7-1.554,7.8s6.288.947,6.626,2.7a20.352,20.352,0,0,0,.562,2.774,4.194,4.194,0,0,0,1.727,3.626,16.559,16.559,0,0,0,2.731,1.224,5,5,0,0,1,.973.58c.118,1.888-.4,4.667,2.236,5.74,3.989,1.623,3.167,4.091,6.325,4.529a5.932,5.932,0,0,0,6.813-4.613c.811-3.516,2.853-1.734,3.453-5.408.58-3.552-1.389-3.728-2.355-4.926m-25.595-15.45a4.046,4.046,0,0,1,1.284-.463,4.567,4.567,0,0,1,2.639.413c.513.229,1,.508,1.485.783-1.687-.586-3.665-1.319-5.408-.734m6.439,18.347a4.175,4.175,0,0,1-2.508-3.02,4.879,4.879,0,0,0,4,2.952,1.277,1.277,0,0,1,1.088,1.1,22.167,22.167,0,0,0-2.581-1.03m18.816-3.48a3.865,3.865,0,0,1,.052-2.4c1.064-4.024.673-5.79-1.288-7.683a8,8,0,0,0-3.567-1.754,6.656,6.656,0,0,1,4.908,2.464c1.5,2.133,1.414,4.92.679,7.315a18.958,18.958,0,0,1-.784,2.061" transform="translate(-398.602 -112.007)" fill="#30334d"/>
          <path id="Trazado_658476" data-name="Trazado 658476" d="M907.934,672.166h0a2.246,2.246,0,0,1-2.68-1.748L885.639,562.793l10.32-2.551,13.722,109.419a2.247,2.247,0,0,1-1.747,2.5" transform="translate(-422.952 -267.553)" fill="#c8cbe3"/>
          <path id="Trazado_658477" data-name="Trazado 658477" d="M764.545,672.166h0a2.246,2.246,0,0,0,2.68-1.748L786.84,562.793l-10.32-2.551L762.8,669.661a2.246,2.246,0,0,0,1.746,2.5" transform="translate(-364.276 -267.553)" fill="#c8cbe3"/>
          <path id="Trazado_658478" data-name="Trazado 658478" d="M770.214,467.248a8.05,8.05,0,0,0,6.331,11.713c20.973,2.151,73.126,5.436,75.258-14.8,7.183-68.179,20.068-76.547,17.832-89.962s-23.989-13.367-36.981-8.156c-18.131,7.27,1.654,44.025-16.432,71.66-11.711,17.895-38.094,14.342-46.008,29.549" transform="translate(-367.392 -173.256)" fill="#d2e1f1"/>
          <path id="Trazado_658479" data-name="Trazado 658479" d="M871.331,374.216c-1.314-7.884-9.369-11.114-18.424-11.383a11.44,11.44,0,0,1,5.071,7.781c2.236,13.415-10.649,21.782-17.832,89.961-1.9,18.008-43.392,17.393-67.292,15.524a7.976,7.976,0,0,0,5.387,2.883c20.973,2.151,73.126,5.435,75.258-14.8,7.182-68.179,20.068-76.546,17.832-89.961" transform="translate(-369.089 -173.277)" fill="#12263f"/>
          <path id="Trazado_658480" data-name="Trazado 658480" d="M210.441,663.481c-2.683-11.539-4.463-44.69,1.71-66.916,5.343-19.242.092-30.527.039-30.64l1.14-.55c.227.472,5.523,11.789.039,31.528-6.115,22.021-4.354,54.862-1.7,66.291Z" transform="translate(-99.322 -270.004)" fill="#0d3f75"/>
          <path id="Trazado_658481" data-name="Trazado 658481" d="M207.983,687.693c-.863-.3-5.081-3.417-3.383-35.15,1.71-32-14.926-37.173-15.094-37.222l.352-1.217c.726.211,17.771,5.514,16.006,38.505-1.658,31.013,2.555,33.889,2.6,33.914Z" transform="translate(-90.502 -293.275)" fill="#0d3f75"/>
          <path id="Trazado_658482" data-name="Trazado 658482" d="M220.377,678.4c-.939-4.03.791-12.836,2.622-22.159,1.232-6.274,2.507-12.764,2.763-17.167.261-4.489-.439-9.839-1.116-15.016-.95-7.257-1.846-14.111-.343-18.952a9.27,9.27,0,0,1,6.087-6.244,10.42,10.42,0,0,1,9.465,1.911l-.779,1a9.124,9.124,0,0,0-8.307-1.7,7.915,7.915,0,0,0-5.257,5.41c-1.422,4.577-.541,11.3.389,18.412.685,5.234,1.393,10.646,1.125,15.255-.261,4.488-1.543,11.02-2.783,17.338-1.725,8.781-3.508,17.861-2.63,21.627Z" transform="translate(-105.119 -285.793)" fill="#0d3f75"/>
          <path id="Trazado_658483" data-name="Trazado 658483" d="M130.518,600.506c3.663-1.51,7.923-8.674,11.926-8.505.913,4.558-5.839,4.754-8.375,7.459-2.1,2.79,7.86,4.319,12.162,1.462,3.607-2.188,2.068-7.366,5.939-15.115,3.213-6.67,5.623-6.889,5.882-10.877.472-7.3-7.106-13.915-7.91-13.439-.324.193.6,1.442,1.006,4.722.289.268.29,13.186-3.065,8.952-2.35-5.36,3.742-9.351-.358-15.427-3.076-4.555-10.964-4.383-11.132-3.816,4,.916,6.583,11.175,4.871,15.314-1.232,2.4-2.231.388-2.59-2.027-2.235-7.787-2.873-12.046-8.623-15.145-7.049-3.8-12.545,2.924-21.423,4.489,0,0-2.022,10.872,2.382,16.847,4.238,5.75,10.075.259,14.727,1.6a2.621,2.621,0,0,1,1.335,4.327c-1.781,2.632-5.966,2.9-8.985,3.065-5,.266-6.793-.786-7.352.148-1.562,2.422,6.291,9,10.51,7.444,5.352.366,11.223-8.722,16.63-6.446.176,4.248-10.412,9.084-14.976,9.436-2.423-.089-4.075-1.161-4.3-.785,1.166,2.346,8.342,7.453,11.722,6.317" transform="translate(-51.751 -264.054)" fill="#195494"/>
          <path id="Trazado_658484" data-name="Trazado 658484" d="M149.278,606.339a7.679,7.679,0,0,0,3.406-1.345,8.082,8.082,0,0,0,2.342-2.644,27.745,27.745,0,0,0,1.569-3.586,35.916,35.916,0,0,1,1.78-3.849,17.469,17.469,0,0,1,.971-1.66,1.87,1.87,0,0,1,1.26-.915c.006,0,.008-.006.015-.006.086.049.173.092.258.144.285.169.567.345.842.535a1.2,1.2,0,0,1,.058-.127,16,16,0,0,0-1.555-.925s0-.007-.006-.008a2.662,2.662,0,0,1-.479-.622,1.45,1.45,0,0,1-.251-.71,3.187,3.187,0,0,1,.292-1.093c.139-.343.288-.686.444-1.023,1.092-2.373,2.511-4.611,3.3-7.117a9.7,9.7,0,0,0,.07-6.382c-.032-.082-.159-.026-.125.061a8.193,8.193,0,0,1,.451,3.762,19.726,19.726,0,0,1-2.487,6.953c-.626,1.217-1.266,2.429-1.779,3.7a2.175,2.175,0,0,0-.226,1.514,2.778,2.778,0,0,0,.457.794,32.826,32.826,0,0,0-4.77-1.734l-.226-.071,0,0a6.973,6.973,0,0,1-1.655-3.253c-.565-2.45-.005-4.906.632-7.282.175-.65.353-1.3.517-1.956a13.45,13.45,0,0,0,.375-1.868,3.674,3.674,0,0,0-.872-3.045c-.063-.062-.172.026-.106.089a4.041,4.041,0,0,1,.7,3.791c-.524,2.563-1.531,5.045-1.626,7.687a8.317,8.317,0,0,0,1.781,5.761,26.609,26.609,0,0,1-4.442-1.7,14.7,14.7,0,0,1-2.176-1.408s0-.01-.012-.016-.015-.008-.025-.012c-.619-.48-1.209-1-1.78-1.534-.951-.894-1.859-1.831-2.8-2.737a12.941,12.941,0,0,1-.927-3.991c-.246-2.438-.066-4.966-.865-7.317-.713-2.093-2.461-4.106-4.812-4.186-.09,0-.1.135-.011.138a4.76,4.76,0,0,1,3.335,1.706c1.657,1.865,1.921,4.451,2.04,6.839a20.174,20.174,0,0,0,.993,6.576c-.121-.115-.241-.233-.365-.349a22.749,22.749,0,0,0-4.008-2.972,50.928,50.928,0,0,0-9.463-3.919.07.07,0,0,0-.048.131q.595.2,1.187.4a42,42,0,0,1,9.027,3.979,6.533,6.533,0,0,0-2.653.227,3.989,3.989,0,0,1-3.277-.23.069.069,0,0,0-.08.113,3.817,3.817,0,0,0,3.094.318,5.959,5.959,0,0,1,3.287-.18c.005,0,.007,0,.013,0h0a26.323,26.323,0,0,1,3.8,3.164c1.133,1.109,2.229,2.254,3.434,3.287.115.1.234.195.35.291a5.247,5.247,0,0,0-3.735.265,13.642,13.642,0,0,0-3.545,2.49,21.317,21.317,0,0,1-3.437,2.518,18.194,18.194,0,0,1-7.846,2.334c-.089,0-.064.143.025.136A18.264,18.264,0,0,0,137,591.8a22.589,22.589,0,0,0,3.319-2.472,12.921,12.921,0,0,1,3.578-2.466,4.7,4.7,0,0,1,4.006.026,15.7,15.7,0,0,0,3.249,1.932,48.911,48.911,0,0,0,4.955,1.686l.424.137a6.237,6.237,0,0,0-2.626,1.137,13.849,13.849,0,0,0-2.211,2.138,30.818,30.818,0,0,1-2.2,2.3,23.475,23.475,0,0,1-5.043,3.538c-.08.042-.02.17.057.127a23.861,23.861,0,0,0,2.885-1.774,23.589,23.589,0,0,0,2.345-1.927c.756-.711,1.445-1.479,2.132-2.253a12.775,12.775,0,0,1,2.262-2.137,5.856,5.856,0,0,1,2.69-1.046s0-.005,0,0a21.938,21.938,0,0,1,3.605,1.49,2.027,2.027,0,0,0-1.143.863,15.676,15.676,0,0,0-1.1,1.86,35.861,35.861,0,0,0-1.734,3.763,25.918,25.918,0,0,1-1.614,3.661,7.892,7.892,0,0,1-2.429,2.63,7.537,7.537,0,0,1-3.168,1.195c-.087.012-.063.149.025.136" transform="translate(-61.524 -270.784)" fill="#8db5e0"/>
          <path id="Trazado_658485" data-name="Trazado 658485" d="M273.18,582.8c-3.917.593-9.763,6.534-13.61,5.416.2-4.644,6.8-3.224,9.912-5.247,2.7-2.209-6.6-6.068-11.462-4.32-4.025,1.265-3.766,6.66-9.372,13.262-4.711,5.712-7.1,5.349-8.306,9.161-2.2,6.976,3.582,15.209,4.477,14.937.361-.11-.24-1.543.15-4.825-.217-.329,2.862-12.875,5.11-7.963,1,5.766-5.864,8.189-3.331,15.067,1.9,5.157,9.6,6.871,9.9,6.361-3.672-1.845-3.729-12.423-1.078-16.033,1.768-2.034,2.258.156,2.032,2.586.314,8.1-.083,12.384,4.764,16.765,5.939,5.37,12.879.152,21.875.749,0,0,4.557-10.076,1.7-16.929-2.745-6.6-9.722-2.655-13.92-5.067a2.621,2.621,0,0,1-.264-4.52c2.358-2.132,6.486-1.4,9.457-.833,4.922.935,6.41,2.383,7.176,1.61,2.094-1.979-3.963-10.243-8.432-9.735-5.11-1.632-12.979,5.794-17.687,2.294.843-4.167,12.279-6.339,16.794-5.592,2.332.664,3.681,2.1,3.99,1.788-.574-2.556-6.324-9.227-9.878-8.93" transform="translate(-114.542 -276.135)" fill="#195494"/>
          <path id="Trazado_658486" data-name="Trazado 658486" d="M266.945,584.527a7.664,7.664,0,0,0-3.628.494,8.088,8.088,0,0,0-2.906,2.009,27.9,27.9,0,0,0-2.379,3.108,35.853,35.853,0,0,1-2.647,3.314,17.353,17.353,0,0,1-1.339,1.38,1.866,1.866,0,0,1-1.442.588c-.006,0-.009,0-.016,0-.071-.068-.146-.132-.216-.2-.237-.232-.468-.471-.69-.719a1.147,1.147,0,0,1-.086.109,16.024,16.024,0,0,0,1.29,1.269.014.014,0,0,0,0,.009,2.667,2.667,0,0,1,.317.717,1.448,1.448,0,0,1,.074.749,3.182,3.182,0,0,1-.544.992c-.217.3-.444.6-.674.888-1.627,2.045-3.538,3.879-4.9,6.126a9.705,9.705,0,0,0-1.59,6.181c.011.088.149.063.136-.029a8.186,8.186,0,0,1,.459-3.76,19.718,19.718,0,0,1,4.073-6.159c.9-1.033,1.809-2.057,2.61-3.168a2.174,2.174,0,0,0,.58-1.416,2.78,2.78,0,0,0-.254-.88,32.854,32.854,0,0,0,4.218,2.821c.066.041.136.081.2.122v0a6.976,6.976,0,0,1,.832,3.554c-.036,2.514-1.165,4.764-2.35,6.921-.324.59-.653,1.18-.968,1.776a13.486,13.486,0,0,0-.809,1.725,3.676,3.676,0,0,0,.121,3.165c.047.075.173.016.124-.061a4.042,4.042,0,0,1,.221-3.85c1.12-2.364,2.69-4.534,3.412-7.077a8.312,8.312,0,0,0-.356-6.02,26.6,26.6,0,0,1,3.909,2.708,14.719,14.719,0,0,1,1.777,1.886c0,.006,0,.011.008.019s.013.012.021.018c.486.613.937,1.256,1.364,1.914.71,1.1,1.368,2.222,2.066,3.325a12.944,12.944,0,0,1-.051,4.1c-.342,2.426-1.12,4.839-.9,7.313.193,2.2,1.411,4.574,3.675,5.213.087.025.131-.106.044-.131a4.76,4.76,0,0,1-2.832-2.452c-1.164-2.206-.8-4.78-.35-7.128a20.162,20.162,0,0,0,.6-6.623c.09.141.178.284.271.426a22.8,22.8,0,0,0,3.183,3.842,50.943,50.943,0,0,0,8.255,6.063.069.069,0,0,0,.077-.115q-.529-.335-1.057-.671a41.933,41.933,0,0,1-7.817-6.017,6.514,6.514,0,0,0,2.63.412,3.987,3.987,0,0,1,3.127,1.006c.058.069.162-.022.1-.091A3.82,3.82,0,0,0,273,613.171a5.96,5.96,0,0,1-3.235-.609s-.008,0-.013,0l0,0a26.372,26.372,0,0,1-2.931-3.978c-.836-1.346-1.627-2.72-2.551-4.011-.089-.123-.181-.245-.271-.366a5.244,5.244,0,0,0,3.691.633,13.627,13.627,0,0,0,4.037-1.573,21.384,21.384,0,0,1,3.938-1.626,18.2,18.2,0,0,1,8.177-.395c.088.019.1-.123.009-.138a18.26,18.26,0,0,0-8.451.466,22.63,22.63,0,0,0-3.813,1.609,12.917,12.917,0,0,1-4.062,1.542,4.7,4.7,0,0,1-3.884-.98,15.709,15.709,0,0,0-2.695-2.651,49.293,49.293,0,0,0-4.411-2.819l-.379-.233a6.245,6.245,0,0,0,2.822-.479,13.871,13.871,0,0,0,2.657-1.549,31.009,31.009,0,0,1,2.683-1.706,23.471,23.471,0,0,1,5.741-2.233c.088-.022.061-.16-.025-.138a23.636,23.636,0,0,0-5.961,2.347c-.9.51-1.755,1.091-2.607,1.68a12.785,12.785,0,0,1-2.706,1.536,5.863,5.863,0,0,1-2.862.374s0,0-.006,0a21.948,21.948,0,0,1-3.146-2.308A2.025,2.025,0,0,0,254.06,595a15.616,15.616,0,0,0,1.507-1.546,35.935,35.935,0,0,0,2.581-3.24,25.857,25.857,0,0,1,2.441-3.171,7.892,7.892,0,0,1,2.986-1.975,7.546,7.546,0,0,1,3.361-.4c.088.009.1-.13.009-.138" transform="translate(-117.25 -279.13)" fill="#8db5e0"/>
          <path id="Trazado_658487" data-name="Trazado 658487" d="M167.589,514.3c3.494,1.869,11.732.608,14.145,3.806-2.94,3.6-7.381-1.489-11.081-1.728-3.487.154,1.659,8.813,6.6,10.321,3.981,1.4,7-3.083,15.446-5.017,7.192-1.757,8.892-.034,12.136-2.368,5.937-4.272,6.232-14.328,5.353-14.646-.355-.128-.732,1.379-3.008,3.776-.024.393-10,8.6-8.86,3.321,2.646-5.22,9.6-3.051,11.686-10.078,1.563-5.269-3.582-11.251-4.126-11.021,1.836,3.675-4.447,12.184-8.731,13.49-2.634.572-1.717-1.476-.08-3.288,4.593-6.674,7.477-9.872,6.217-16.281-1.545-7.857-10.228-7.83-17.078-13.691,0,0-9.681,5.345-11.5,12.543-1.748,6.926,6.2,7.945,8.12,12.39a2.621,2.621,0,0,1-2.493,3.78c-3.164.3-6.032-2.763-8.076-4.992-3.383-3.695-3.709-5.745-4.785-5.584-2.862.332-2.955,10.578.929,12.846,3.118,4.366,13.865,3.126,15.543,8.747-3.17,2.835-13.631-2.269-16.8-5.57-1.471-1.927-1.692-3.885-2.127-3.82-1.07,2.391-.456,11.177,2.569,13.066" transform="translate(-78.575 -224.881)" fill="#4e88c7"/>
          <path id="Trazado_658488" data-name="Trazado 658488" d="M179.31,533.849a7.673,7.673,0,0,0,3.2,1.776,8.079,8.079,0,0,0,3.53.128,27.765,27.765,0,0,0,3.766-1.066,35.67,35.67,0,0,1,4.1-1.07,17.344,17.344,0,0,1,1.9-.3,1.866,1.866,0,0,1,1.507.391s.009,0,.014.007c.017.1.039.193.053.291.051.327.094.657.122.989a1.167,1.167,0,0,1,.135-.035,16.067,16.067,0,0,0-.274-1.789.019.019,0,0,0,0-.01,2.666,2.666,0,0,1,.176-.764,1.451,1.451,0,0,1,.389-.645,3.188,3.188,0,0,1,1.029-.469c.354-.11.713-.213,1.071-.308,2.528-.665,5.156-.99,7.59-1.976a9.706,9.706,0,0,0,4.973-4c.043-.077-.082-.14-.127-.059a8.188,8.188,0,0,1-2.618,2.739,19.732,19.732,0,0,1-6.949,2.5c-1.337.289-2.68.565-3.987.976a2.173,2.173,0,0,0-1.312.787,2.767,2.767,0,0,0-.323.857,32.926,32.926,0,0,0-1.692-4.784c-.029-.073-.061-.147-.089-.22l0,0a6.973,6.973,0,0,1,1.46-3.344c1.533-1.993,3.785-3.121,6.025-4.138.612-.278,1.229-.555,1.838-.844a13.464,13.464,0,0,0,1.681-.9,3.677,3.677,0,0,0,1.8-2.608c.007-.088-.13-.116-.136-.026a4.042,4.042,0,0,1-2.481,2.952c-2.312,1.224-4.869,2.022-6.969,3.628a8.317,8.317,0,0,0-3.318,5.036,26.611,26.611,0,0,1-1.511-4.509,14.676,14.676,0,0,1-.3-2.575c0-.006.005-.01,0-.019s0-.017-.007-.027c-.022-.783,0-1.567.053-2.35.087-1.3.234-2.6.335-3.9a12.934,12.934,0,0,1,2.493-3.252c1.726-1.739,3.793-3.206,5.1-5.317,1.163-1.88,1.608-4.509.176-6.376-.055-.072-.169.007-.114.079a4.759,4.759,0,0,1,.8,3.659c-.387,2.465-2.217,4.311-3.986,5.92A20.171,20.171,0,0,0,194,513.823c.012-.167.027-.334.038-.5a22.791,22.791,0,0,0-.251-4.983,50.927,50.927,0,0,0-2.986-9.8.07.07,0,0,0-.131.047q.224.585.446,1.17a42,42,0,0,1,2.662,9.5,6.534,6.534,0,0,0-1.861-1.9,3.986,3.986,0,0,1-1.9-2.676.069.069,0,0,0-.138.01,3.819,3.819,0,0,0,1.72,2.591,5.96,5.96,0,0,1,2.227,2.424c0,.005.007,0,.009.009v0a26.373,26.373,0,0,1-.032,4.941c-.136,1.579-.324,3.153-.357,4.741,0,.151,0,.3,0,.455a5.244,5.244,0,0,0-2.578-2.716,13.628,13.628,0,0,0-4.175-1.156,21.334,21.334,0,0,1-4.128-1.054,18.208,18.208,0,0,1-6.787-4.577c-.059-.068-.15.041-.089.105a18.249,18.249,0,0,0,7.05,4.684,22.555,22.555,0,0,0,4.017.993,12.9,12.9,0,0,1,4.178,1.2,4.7,4.7,0,0,1,2.525,3.109,15.712,15.712,0,0,0,.572,3.737,49.113,49.113,0,0,0,1.847,4.9l.164.414a6.248,6.248,0,0,0-2.547-1.305,13.926,13.926,0,0,0-3.056-.35,30.506,30.506,0,0,1-3.17-.238,23.449,23.449,0,0,1-5.935-1.646c-.084-.036-.145.092-.063.125a23.837,23.837,0,0,0,3.2,1.1,23.53,23.53,0,0,0,2.977.587c1.029.132,2.059.176,3.094.215a12.76,12.76,0,0,1,3.088.388,5.861,5.861,0,0,1,2.517,1.413s.005,0,.006,0a21.994,21.994,0,0,1,1.14,3.732,2.023,2.023,0,0,0-1.393-.335,15.7,15.7,0,0,0-2.132.337,35.834,35.834,0,0,0-4.008,1.052,25.973,25.973,0,0,1-3.853,1.079,7.9,7.9,0,0,1-3.574-.205,7.539,7.539,0,0,1-2.935-1.688c-.065-.059-.155.046-.09.106" transform="translate(-83.893 -238.064)" fill="#daf2ee"/>
          <path id="Trazado_658489" data-name="Trazado 658489" d="M219.525,731.949c-.159,2.051-2.863,18.67-3.114,21.865H192.57c-.291-3.357-3.251-19.671-3.438-21.865Z" transform="translate(-90.323 -349.554)" fill="#d94559"/>
          <path id="Trazado_658490" data-name="Trazado 658490" d="M189.132,731.95c.027.317.112,1.3.238,2.76h9.179c8.345,0,14.3,7.085,14.268,15.43a4.356,4.356,0,0,1-1.687,3.675h5.282c.25-3.2,2.954-19.814,3.114-21.865Z" transform="translate(-90.323 -349.555)" fill="#c43348"/>
          <path id="Trazado_658491" data-name="Trazado 658491" d="M216.232,726.691h-29.2c-1.96,0-3.548-1.288-3.548-2.878s1.589-2.878,3.548-2.878h29.2c1.96,0,3.548,1.288,3.548,2.878s-1.589,2.878-3.548,2.878" transform="translate(-87.624 -344.294)" fill="#d94559"/>
          <path id="Trazado_658492" data-name="Trazado 658492" d="M736.133,775.366H129.605a1.721,1.721,0,0,1-1.721-1.721v-.4a1.721,1.721,0,0,1,1.721-1.721H736.133a1.721,1.721,0,0,1,1.721,1.721v.4a1.721,1.721,0,0,1-1.721,1.721" transform="translate(-61.073 -368.455)" fill="#c8cbe3"/>
          <path id="Trazado_658493" data-name="Trazado 658493" d="M55.1,775.366H1.721A1.721,1.721,0,0,1,0,773.645v-.4a1.721,1.721,0,0,1,1.721-1.721H55.1a1.721,1.721,0,0,1,1.721,1.721v.4a1.721,1.721,0,0,1-1.721,1.721" transform="translate(0 -368.455)" fill="#c8cbe3"/>
          <path id="Trazado_658494" data-name="Trazado 658494" d="M1073.011,552.466H984.084a19.869,19.869,0,1,0,0,39.738h88.926a19.869,19.869,0,1,0,0-39.738" transform="translate(-460.477 -263.839)" fill="#c8cbe3"/>
          <path id="Trazado_658495" data-name="Trazado 658495" d="M1078.654,564.4H991.061a13.633,13.633,0,1,0,0,27.267h87.592a13.633,13.633,0,0,0,0-27.267" transform="translate(-466.787 -269.54)" fill="#fff"/>
          <path id="Trazado_658496" data-name="Trazado 658496" d="M1093.69,588.655h-37.3a1.91,1.91,0,1,1,0-3.819h37.3a1.91,1.91,0,1,1,0,3.819" transform="translate(-503.574 -279.298)" fill="#c8cbe3"/>
          <path id="Trazado_658497" data-name="Trazado 658497" d="M1089.761,701.851h4.731L1079.616,622.6h-4.732l1.854,9.874H999.8l1.854-9.874h-4.732l-14.877,79.255h4.732l12.12-64.569h78.744Z" transform="translate(-468.992 -297.331)" fill="#c8cbe3"/>
          <path id="Trazado_658498" data-name="Trazado 658498" d="M158.845,285.882a25.667,25.667,0,1,1,25.667,25.667,25.667,25.667,0,0,1-25.667-25.667" transform="translate(-75.859 -124.27)" fill="#c8cbe3"/>
          <path id="Trazado_658499" data-name="Trazado 658499" d="M162.752,287.747a23.626,23.626,0,1,1,23.626,23.626,23.626,23.626,0,0,1-23.626-23.626" transform="translate(-77.725 -126.135)" fill="#fff"/>
          <path id="Trazado_658500" data-name="Trazado 658500" d="M209.926,288.571A22.726,22.726,0,1,1,187.2,265.845a22.726,22.726,0,0,1,22.725,22.726" transform="translate(-78.548 -126.959)" fill="#fff"/>
          <path id="Trazado_658501" data-name="Trazado 658501" d="M209.926,288.571A22.726,22.726,0,1,1,187.2,265.845a22.726,22.726,0,0,1,22.725,22.726" transform="translate(-78.548 -126.959)" fill="#fff"/>
          <path id="Trazado_658502" data-name="Trazado 658502" d="M207.811,325.969c-.1,0-.18-.125-.18-.278V313.025c0-.154.081-.278.18-.278s.18.124.18.278v12.665c0,.154-.08.278-.18.278" transform="translate(-99.158 -149.357)" fill="#c8cbe3"/>
          <path id="Trazado_658503" data-name="Trazado 658503" d="M207.9,334.878h-1.925a.142.142,0,0,0-.123.214l.962,1.667a.142.142,0,0,0,.247,0l.962-1.667a.142.142,0,0,0-.123-.214" transform="translate(-98.297 -159.926)" fill="#c8cbe3"/>
          <path id="Trazado_658504" data-name="Trazado 658504" d="M210.6,300.286a.332.332,0,0,1-.235-.567l6.9-6.9a.332.332,0,0,1,.47.47l-6.9,6.9a.331.331,0,0,1-.235.1" transform="translate(-100.415 -139.792)" fill="#c8cbe3"/>
          <path id="Trazado_658505" data-name="Trazado 658505" d="M223.51,290.872l-2.767.771a.129.129,0,0,0-.056.217l2.052,2.011a.129.129,0,0,0,.215-.06l.716-2.782a.129.129,0,0,0-.16-.157" transform="translate(-105.374 -138.908)" fill="#c8cbe3"/>
          <path id="Trazado_658506" data-name="Trazado 658506" d="M203.938,307.417a2.109,2.109,0,1,1,2.109,2.109,2.109,2.109,0,0,1-2.109-2.109" transform="translate(-97.394 -145.805)" fill="#c8cbe3"/>
          <path id="Trazado_658507" data-name="Trazado 658507" d="M205.889,268.849a1.074,1.074,0,1,1,1.074,1.074,1.074,1.074,0,0,1-1.074-1.074" transform="translate(-98.326 -127.88)" fill="#c8cbe3"/>
          <path id="Trazado_658508" data-name="Trazado 658508" d="M205.889,347.776a1.074,1.074,0,1,1,1.074,1.074,1.074,1.074,0,0,1-1.074-1.074" transform="translate(-98.326 -165.573)" fill="#c8cbe3"/>
          <path id="Trazado_658509" data-name="Trazado 658509" d="M245.721,308.382a1.074,1.074,0,1,1,1.074,1.074,1.074,1.074,0,0,1-1.074-1.074" transform="translate(-117.348 -146.76)" fill="#c8cbe3"/>
          <path id="Trazado_658510" data-name="Trazado 658510" d="M165.982,308.475a1.074,1.074,0,1,1,1.074,1.074,1.075,1.075,0,0,1-1.074-1.074" transform="translate(-79.267 -146.804)" fill="#c8cbe3"/>
          <path id="Trazado_658511" data-name="Trazado 658511" d="M884.787,194.207a8.066,8.066,0,1,1-3.152-10.962,8.066,8.066,0,0,1,3.152,10.962" transform="translate(-415.322 -87.029)" fill="#96a0de"/>
          <g id="Grupo_997049" data-name="Grupo 997049" transform="translate(454.564 98.454)" style="mix-blend-mode: multiply;isolation: isolate">
            <g id="Grupo_997048" data-name="Grupo 997048">
              <g id="Grupo_997047" data-name="Grupo 997047" clip-path="url(#clip-path-3)">
                <path id="Trazado_658512" data-name="Trazado 658512" d="M884.991,197.176a8.065,8.065,0,0,1-14.9-2.03,8.066,8.066,0,0,0,14.313-6.694,8.066,8.066,0,0,1,.588,8.724" transform="translate(-870.09 -188.452)" fill="#c8cae0"/>
              </g>
            </g>
          </g>
          <path id="Trazado_658513" data-name="Trazado 658513" d="M909.849,121.044c-4.821,2.554-9.711,6.092-12.128,10.1q-.233.389-.431.779l-21.34-11.809c2.449-3.974,3.255-7.31,2.543-16.416-.477-6.122-.056-15.03,4.537-22.17A24.188,24.188,0,0,1,903.7,69.967,22.494,22.494,0,0,1,915.9,72.5l0,0c.082.045.173.1.257.148s.175.091.258.137l0,0a22.5,22.5,0,0,1,8.623,8.995,24.171,24.171,0,0,1,1.187,23.648c-3.61,7.684-9.82,12.146-16.375,15.619" transform="translate(-418.325 -33.383)" fill="#ffb957"/>
          <path id="Trazado_658514" data-name="Trazado 658514" d="M928.269,104.17a24.2,24.2,0,0,0-1.286-4.244,25.387,25.387,0,0,1-1.7,8.876c-2.473,6.5-7.211,12.352-12.015,17.06a27.162,27.162,0,0,1-34.72,2.72l-.188-.134a16.6,16.6,0,0,1-2.4,6l21.339,11.809q.2-.389.431-.778c2.417-4,7.307-7.541,12.128-10.095,6.555-3.474,12.765-7.935,16.375-15.619a24.449,24.449,0,0,0,2.045-15.592" transform="translate(-418.325 -47.721)" fill="#f0a53e"/>
          <path id="Trazado_658515" data-name="Trazado 658515" d="M887.927,141c10.426-11.649,8.615-20.979,14.443-34.119.011,2.86-.21,5.724.075,8.578A103.164,103.164,0,0,1,911.6,108.1c-.529,3.765-.881,7.554-1.428,11.316,2.186-1.476,4.347-2.991,6.536-4.462-7.005,10.619-16.255,18.155-19.977,30.689q-.387-.111-.774-.22c3.9-13.173,10.857-16.982,17.832-27.5-1.544,1.064-3.124,2.078-4.66,3.154.654-3.688.9-7.443,1.4-11.154a69.014,69.014,0,0,0-8.659,7.244c-.17-2.115-.4-4.19-.383-6.319-5.024,12.54-2.834,19.359-12.975,30.7-.193-.185-.389-.369-.583-.553" transform="translate(-424.044 -51.043)" fill="#ffeb9b"/>
          <g id="Grupo_997052" data-name="Grupo 997052" transform="translate(469.097 40.099)" style="mix-blend-mode: overlay;isolation: isolate">
            <g id="Grupo_997051" data-name="Grupo 997051">
              <g id="Grupo_997050" data-name="Grupo 997050" clip-path="url(#clip-path-4)">
                <path id="Trazado_658516" data-name="Trazado 658516" d="M913.994,94.183c-7.86,1.623-15.014-.853-15.979-5.528s4.625-9.781,12.484-11.4,15.014.853,15.979,5.529-4.624,9.781-12.484,11.4" transform="translate(-897.907 -76.754)" fill="#9ea0a3"/>
              </g>
            </g>
          </g>
          <path id="Trazado_658517" data-name="Trazado 658517" d="M891.766,177.171l.555-1a2.6,2.6,0,0,0,2.468-4.461l.026-.046-.455-.252L873.416,159.82l-.455-.252-.026.047a2.6,2.6,0,0,0-2.469,4.461l-.555,1a2.595,2.595,0,0,0-2.341,4.549,9.8,9.8,0,0,0,1.068,7.77l13.365,7.4a9.8,9.8,0,0,0,7.151-3.222,2.595,2.595,0,0,0,2.611-4.4" transform="translate(-413.828 -76.17)" fill="#3f4883"/>
          <g id="Grupo_997055" data-name="Grupo 997055" transform="translate(464.426 93.415)" style="mix-blend-mode: multiply;isolation: isolate">
            <g id="Grupo_997054" data-name="Grupo 997054">
              <g id="Grupo_997053" data-name="Grupo 997053" clip-path="url(#clip-path-5)">
                <path id="Trazado_658518" data-name="Trazado 658518" d="M903.065,189.632a2.6,2.6,0,0,1-3.2,1.161,9.8,9.8,0,0,1-7.15,3.222l-3.751-2.076a9.8,9.8,0,0,0,7.15-3.222,2.6,2.6,0,0,0,2.612-4.4l.555-1a2.6,2.6,0,0,0,2.468-4.46l.026-.047,3.752,2.076-.026.047a2.6,2.6,0,0,1-2.468,4.46l-.555,1a2.614,2.614,0,0,1,.587,3.239" transform="translate(-888.966 -178.808)" fill="#afbae0"/>
              </g>
            </g>
          </g>
          <path id="Trazado_658519" data-name="Trazado 658519" d="M895.8,64.287l-4.156-6.023a.65.65,0,0,0-1.065.744l4.156,6.023a.65.65,0,0,0,1.065-.744" transform="translate(-425.251 -27.694)" fill="#ffb957"/>
          <path id="Trazado_658520" data-name="Trazado 658520" d="M916.056,50.344q-1.345-5.858-2.69-11.716a.654.654,0,0,0-.833-.388.667.667,0,0,0-.388.833q1.345,5.857,2.69,11.715a.653.653,0,0,0,.833.388.666.666,0,0,0,.388-.833" transform="translate(-435.598 -18.246)" fill="#ffb957"/>
          <path id="Trazado_658521" data-name="Trazado 658521" d="M941.728,50.744,939,56.87c-.341.764.83,1.327,1.171.563l2.731-6.126c.341-.764-.83-1.327-1.171-.563" transform="translate(-448.404 -24.06)" fill="#ffb957"/>
          <path id="Trazado_658522" data-name="Trazado 658522" d="M332.6,123.532l-17.594,11-1.1-1.76a25.636,25.636,0,0,1-3.541-7.928,19.063,19.063,0,0,1-.166-7.012,110.047,110.047,0,0,1,3.957-13.807q1.84-5.4.248-7.947a6.091,6.091,0,0,0-3.98-3.018q-2.388-.471-5.443,1.439a8.646,8.646,0,0,0-4.08,5.577q-.792,3.522,1.992,9.315L283.545,118.4q-5.268-10.487-2.772-20.451t15.46-18.069q10.093-6.31,18.931-5.976,11.987.427,17.921,9.918a17.274,17.274,0,0,1,2.571,8.953q.111,5.018-3.3,14.493-2.36,6.627-2.184,9.64a14.365,14.365,0,0,0,2.435,6.624m-15.272,16.052L336.175,127.8l10.392,16.622-18.844,11.78Z" transform="translate(-133.705 -35.286)" fill="#ed9aa9"/>
          <path id="Trazado_658523" data-name="Trazado 658523" d="M444.594,126.11l-13.174,1.122-.112-1.318a16.315,16.315,0,0,1,.3-5.525,12.136,12.136,0,0,1,1.945-4.024,70.214,70.214,0,0,1,6.258-6.678q2.613-2.526,2.451-4.433a3.882,3.882,0,0,0-1.379-2.868,4.854,4.854,0,0,0-3.505-.767,5.51,5.51,0,0,0-3.934,1.976q-1.473,1.766-1.579,5.861l-13.592-.519a18.383,18.383,0,0,1,4.374-12.4q4.312-4.924,14.019-5.75,7.558-.643,12.472,2.116,6.672,3.728,7.277,10.834a11.012,11.012,0,0,1-1.145,5.824q-1.4,2.878-6.087,7.258a17.915,17.915,0,0,0-4.041,4.831,9.147,9.147,0,0,0-.545,4.463m-13.326,4.661,14.109-1.2,1.059,12.445-14.109,1.2Z" transform="translate(-199.752 -43.298)" fill="#4e88c7"/>
          <path id="Trazado_658524" data-name="Trazado 658524" d="M1029.085,340.764h67.676V203.706h-67.676Zm62.425-6.1h-57.937v-60.5h57.937Zm0-65.522h-57.937V208.6h57.937Z" transform="translate(-491.456 -97.283)" fill="#c8cbe3"/>
        </g>
      </g>
    </g>
  </g>
</svg>
