<svg xmlns="http://www.w3.org/2000/svg" xmlns:xlink="http://www.w3.org/1999/xlink" width="418" height="319" viewBox="0 0 418 319">
  <defs>
    <clipPath id="clip-path">
      <rect id="Rectángulo_344536" data-name="Rectángulo 344536" width="312" height="291.69" fill="none"/>
    </clipPath>
  </defs>
  <g id="Grupo_1000194" data-name="Grupo 1000194" transform="translate(6031 8971)">
    <g id="Grupo_1000193" data-name="Grupo 1000193" transform="translate(-5978 -8957)">
      <g id="Grupo_998066" data-name="Grupo 998066" clip-path="url(#clip-path)">
        <path id="Trazado_696754" data-name="Trazado 696754" d="M438.656,194.494A23.088,23.088,0,1,0,425,226.158c2.251,2.358,8.75,8.019,18.4,6.885,0,0-7.677.6-12.512-9.829a23.089,23.089,0,0,0,7.764-28.719" transform="translate(-133.968 -61.497)" fill="#fff"/>
        <path id="Trazado_696755" data-name="Trazado 696755" d="M438.656,194.494A23.088,23.088,0,1,0,425,226.158c2.251,2.358,8.75,8.019,18.4,6.885,0,0-7.677.6-12.512-9.829A23.089,23.089,0,0,0,438.656,194.494Z" transform="translate(-133.968 -61.497)" fill="none" stroke="#1d1d1b" stroke-linecap="round" stroke-linejoin="round" stroke-width="0.5"/>
        <path id="Trazado_696756" data-name="Trazado 696756" d="M430.188,217.616a2.755,2.755,0,1,1-3.661-1.333,2.76,2.76,0,0,1,3.661,1.333m-6.666-24.682a10.372,10.372,0,0,0-7.242.832,9.635,9.635,0,0,0-5.066,4.966,8.615,8.615,0,0,0-.7,4.484,3.107,3.107,0,0,0,1.544,2.381,3.107,3.107,0,0,0,4.59-3.194,3.114,3.114,0,0,1,1.914-3.746,3.406,3.406,0,0,1,2.674-.254,3.05,3.05,0,0,1,1.789,1.709,2.608,2.608,0,0,1,.24,1.314,10,10,0,0,1-1.037,2.965,12.166,12.166,0,0,0-1.286,4.693,9.726,9.726,0,0,0,.779,3.669,2.876,2.876,0,0,0,1.64,1.655,2.936,2.936,0,0,0,2.391-.06,2.9,2.9,0,0,0,1.51-3.681,3.581,3.581,0,0,1-.383-1.62,8.794,8.794,0,0,1,1.04-3.091,12.49,12.49,0,0,0,1.388-4.741,8.258,8.258,0,0,0-.773-3.92,7.682,7.682,0,0,0-5.011-4.363" transform="translate(-139.341 -65.387)" fill="#1d1d1b"/>
        <path id="Trazado_696757" data-name="Trazado 696757" d="M176.27,164.6a24.008,24.008,0,1,0-26.781,23.843c1.086,3.211,4.723,11.4,14.32,14.574,0,0-7.5-2.806-7.474-14.76A24.009,24.009,0,0,0,176.27,164.6" transform="translate(-43.539 -47.727)" fill="#fff"/>
        <path id="Trazado_696758" data-name="Trazado 696758" d="M176.27,164.6a24.008,24.008,0,1,0-26.781,23.843c1.086,3.211,4.723,11.4,14.32,14.574,0,0-7.5-2.806-7.474-14.76A24.009,24.009,0,0,0,176.27,164.6Z" transform="translate(-43.539 -47.727)" fill="none" stroke="#1d1d1b" stroke-linecap="round" stroke-linejoin="round" stroke-width="0.5"/>
        <path id="Trazado_696759" data-name="Trazado 696759" d="M162.036,180.481a2.865,2.865,0,1,1-2.865-2.865,2.869,2.869,0,0,1,2.865,2.865m4.56-26.191a10.782,10.782,0,0,0-7.191-2.4,10.013,10.013,0,0,0-6.957,2.456,8.951,8.951,0,0,0-2.631,3.917,3.232,3.232,0,0,0,.409,2.923,3.232,3.232,0,0,0,5.729-.993,3.238,3.238,0,0,1,3.449-2.69,3.54,3.54,0,0,1,2.631.935,3.171,3.171,0,0,1,.935,2.4,2.717,2.717,0,0,1-.351,1.345,10.406,10.406,0,0,1-2.28,2.338,12.663,12.663,0,0,0-3.274,3.859,10.108,10.108,0,0,0-.877,3.8,2.989,2.989,0,0,0,.818,2.28,3.053,3.053,0,0,0,2.28.994,3.015,3.015,0,0,0,3.04-2.807,3.737,3.737,0,0,1,.351-1.7,9.161,9.161,0,0,1,2.338-2.455,12.966,12.966,0,0,0,3.391-3.859,8.585,8.585,0,0,0,.994-4.034,7.989,7.989,0,0,0-2.807-6.314" transform="translate(-50.798 -51.564)" fill="#1d1d1b"/>
        <path id="Trazado_696760" data-name="Trazado 696760" d="M157.185,41.665H106.847a6.436,6.436,0,0,0-6.436,6.436V86.239a6.436,6.436,0,0,0,6.436,6.436H124.64c-.385,3.443-2.024,8.84-7.759,14.555,0,0,13.765-6.294,19.385-14.555h20.918a6.436,6.436,0,0,0,6.436-6.436V48.1a6.436,6.436,0,0,0-6.436-6.436" transform="translate(-34.087 -14.144)" fill="#fff"/>
        <path id="Trazado_696761" data-name="Trazado 696761" d="M157.185,41.665H106.847a6.436,6.436,0,0,0-6.436,6.436V86.239a6.436,6.436,0,0,0,6.436,6.436H124.64c-.385,3.443-2.024,8.84-7.759,14.555,0,0,13.765-6.294,19.385-14.555h20.918a6.436,6.436,0,0,0,6.436-6.436V48.1A6.436,6.436,0,0,0,157.185,41.665Z" transform="translate(-34.087 -14.144)" fill="none" stroke="#1d1d1b" stroke-linecap="round" stroke-linejoin="round" stroke-width="0.5"/>
        <path id="Trazado_696762" data-name="Trazado 696762" d="M145.933,76.554a4.527,4.527,0,0,1-4.527-4.526V53.043a4.527,4.527,0,0,1,9.053,0V72.028a4.527,4.527,0,0,1-4.527,4.526" transform="translate(-48.004 -16.47)" fill="#1d1d1b"/>
        <path id="Trazado_696763" data-name="Trazado 696763" d="M150.459,99.432a4.526,4.526,0,1,1-4.527-4.526,4.526,4.526,0,0,1,4.527,4.526" transform="translate(-48.004 -32.218)" fill="#1d1d1b"/>
        <path id="Trazado_696764" data-name="Trazado 696764" d="M387.478.25h-49.94a4.7,4.7,0,0,0-4.7,4.7V19.564a4.7,4.7,0,0,0,4.7,4.7h19.589c-.281,2.512-1.477,6.451-5.661,10.62,0,0,10.045-4.593,14.145-10.62h21.868a4.7,4.7,0,0,0,4.7-4.7V4.946a4.7,4.7,0,0,0-4.7-4.7" transform="translate(-112.991 -0.085)" fill="#fff"/>
        <path id="Trazado_696765" data-name="Trazado 696765" d="M387.478.25h-49.94a4.7,4.7,0,0,0-4.7,4.7V19.564a4.7,4.7,0,0,0,4.7,4.7h19.589c-.281,2.512-1.477,6.451-5.661,10.62,0,0,10.045-4.593,14.145-10.62h21.868a4.7,4.7,0,0,0,4.7-4.7V4.946A4.7,4.7,0,0,0,387.478.25Z" transform="translate(-112.991 -0.085)" fill="none" stroke="#1d1d1b" stroke-linecap="round" stroke-linejoin="round" stroke-width="0.5"/>
        <path id="Trazado_696766" data-name="Trazado 696766" d="M364.156,17.077a3.3,3.3,0,1,1-3.3-3.3,3.3,3.3,0,0,1,3.3,3.3" transform="translate(-121.379 -4.676)" fill="#1d1d1b"/>
        <path id="Trazado_696767" data-name="Trazado 696767" d="M379.359,17.077a3.3,3.3,0,1,1-3.3-3.3,3.3,3.3,0,0,1,3.3,3.3" transform="translate(-126.54 -4.676)" fill="#1d1d1b"/>
        <path id="Trazado_696768" data-name="Trazado 696768" d="M394.563,17.077a3.3,3.3,0,1,1-3.3-3.3,3.3,3.3,0,0,1,3.3,3.3" transform="translate(-131.701 -4.676)" fill="#1d1d1b"/>
        <path id="Trazado_696769" data-name="Trazado 696769" d="M288.862,47.247c0-18.888-17.421-34.2-38.912-34.2s-38.913,15.312-38.913,34.2c0,17.833,15.532,32.471,35.355,34.051-1.665,4.328-4.7,10.954-8.637,14.071,0,0,11.084-7.086,17.127-14.2,19.161-2.132,33.98-16.5,33.98-33.917" transform="translate(-71.641 -4.429)" fill="#fff"/>
        <path id="Trazado_696770" data-name="Trazado 696770" d="M288.862,47.247c0-18.888-17.421-34.2-38.912-34.2s-38.913,15.312-38.913,34.2c0,17.833,15.532,32.471,35.355,34.051-1.665,4.328-4.7,10.954-8.637,14.071,0,0,11.084-7.086,17.127-14.2C274.043,79.032,288.862,64.666,288.862,47.247Z" transform="translate(-71.641 -4.429)" fill="none" stroke="#1d1d1b" stroke-linecap="round" stroke-linejoin="round" stroke-width="0.5"/>
        <line id="Línea_2285" data-name="Línea 2285" x2="51.863" transform="translate(148.195 29.804)" fill="none" stroke="#1d1d1b" stroke-linecap="round" stroke-miterlimit="10" stroke-width="2"/>
        <line id="Línea_2286" data-name="Línea 2286" x2="51.863" transform="translate(148.195 42.516)" fill="none" stroke="#1d1d1b" stroke-linecap="round" stroke-miterlimit="10" stroke-width="2"/>
        <line id="Línea_2287" data-name="Línea 2287" x2="51.863" transform="translate(148.195 55.227)" fill="none" stroke="#1d1d1b" stroke-linecap="round" stroke-miterlimit="10" stroke-width="2"/>
        <line id="Línea_2288" data-name="Línea 2288" x2="41.64" transform="translate(148.195 36.16)" fill="none" stroke="#1d1d1b" stroke-linecap="round" stroke-miterlimit="10" stroke-width="2"/>
        <line id="Línea_2289" data-name="Línea 2289" x2="41.64" transform="translate(148.195 48.871)" fill="none" stroke="#1d1d1b" stroke-linecap="round" stroke-miterlimit="10" stroke-width="2"/>
        <path id="Trazado_696771" data-name="Trazado 696771" d="M416.958,60.781H367.934a14.4,14.4,0,0,0,0,28.8h37.459c-1.394,3.208-3.454,7.033-5.982,9.035a82.463,82.463,0,0,0,11.5-9.035h6.051a14.4,14.4,0,0,0,0-28.8" transform="translate(-120.015 -20.633)" fill="#fff"/>
        <path id="Trazado_696772" data-name="Trazado 696772" d="M416.958,60.781H367.934a14.4,14.4,0,0,0,0,28.8h37.459c-1.394,3.208-3.454,7.033-5.982,9.035a82.463,82.463,0,0,0,11.5-9.035h6.051a14.4,14.4,0,0,0,0-28.8Z" transform="translate(-120.015 -20.633)" fill="none" stroke="#1d1d1b" stroke-linecap="round" stroke-linejoin="round" stroke-width="0.5"/>
        <line id="Línea_2290" data-name="Línea 2290" x2="60.534" transform="translate(242.164 49.344)" fill="none" stroke="#1d1d1b" stroke-linecap="round" stroke-miterlimit="10" stroke-width="2"/>
        <line id="Línea_2291" data-name="Línea 2291" x2="60.534" transform="translate(242.164 58.472)" fill="none" stroke="#1d1d1b" stroke-linecap="round" stroke-miterlimit="10" stroke-width="2"/>
        <line id="Línea_2292" data-name="Línea 2292" x2="51.647" transform="translate(251.052 53.908)" fill="none" stroke="#1d1d1b" stroke-linecap="round" stroke-miterlimit="10" stroke-width="2"/>
        <path id="Trazado_696773" data-name="Trazado 696773" d="M143.345,247.875H82.931a10.043,10.043,0,0,0,0,20.085h33.525c-1.017,2.623-2.838,6.551-5.19,8.414,0,0,6.514-4.167,10.209-8.414h21.87a10.043,10.043,0,0,0,0-20.085" transform="translate(-24.743 -84.147)" fill="#fff"/>
        <path id="Trazado_696774" data-name="Trazado 696774" d="M143.345,247.875H82.931a10.043,10.043,0,0,0,0,20.085h33.525c-1.017,2.623-2.838,6.551-5.19,8.414,0,0,6.514-4.167,10.209-8.414h21.87a10.043,10.043,0,0,0,0-20.085Z" transform="translate(-24.743 -84.147)" fill="none" stroke="#1d1d1b" stroke-linecap="round" stroke-linejoin="round" stroke-width="0.5"/>
        <line id="Línea_2293" data-name="Línea 2293" x2="61.299" transform="translate(57.418 169.269)" fill="none" stroke="#1d1d1b" stroke-linecap="round" stroke-miterlimit="10" stroke-width="2"/>
        <line id="Línea_2294" data-name="Línea 2294" x2="47.492" transform="translate(57.418 174.117)" fill="none" stroke="#1d1d1b" stroke-linecap="round" stroke-miterlimit="10" stroke-width="2"/>
        <path id="Trazado_696775" data-name="Trazado 696775" d="M84.587,16.059H24.5a5.65,5.65,0,0,0-5.65,5.651V48.836a5.651,5.651,0,0,0,5.65,5.651h23.57c-.338,3.023-1.777,7.761-6.812,12.778,0,0,12.086-5.526,17.02-12.778H84.587a5.651,5.651,0,0,0,5.651-5.651V21.71a5.651,5.651,0,0,0-5.651-5.651" transform="translate(-6.398 -5.452)" fill="#fff"/>
        <path id="Trazado_696776" data-name="Trazado 696776" d="M84.587,16.059H24.5a5.65,5.65,0,0,0-5.65,5.651V48.836a5.651,5.651,0,0,0,5.65,5.651h23.57c-.338,3.023-1.777,7.761-6.812,12.778,0,0,12.086-5.526,17.02-12.778H84.587a5.651,5.651,0,0,0,5.651-5.651V21.71A5.651,5.651,0,0,0,84.587,16.059Z" transform="translate(-6.398 -5.452)" fill="none" stroke="#1d1d1b" stroke-linecap="round" stroke-linejoin="round" stroke-width="0.5"/>
        <line id="Línea_2295" data-name="Línea 2295" x2="45.002" transform="translate(25.499 21.086)" fill="none" stroke="#1d1d1b" stroke-linecap="round" stroke-miterlimit="10" stroke-width="2"/>
        <line id="Línea_2296" data-name="Línea 2296" x2="45.002" transform="translate(25.499 36.21)" fill="none" stroke="#1d1d1b" stroke-linecap="round" stroke-miterlimit="10" stroke-width="2"/>
        <line id="Línea_2297" data-name="Línea 2297" x2="32.701" transform="translate(31.649 28.648)" fill="none" stroke="#1d1d1b" stroke-linecap="round" stroke-miterlimit="10" stroke-width="2"/>
        <path id="Trazado_696777" data-name="Trazado 696777" d="M205,382.76c18.528-.345,30.865-2.432,37.2-3.842-2.071-5.753-3.664-9.759-3.664-9.759l-79.228-3.815a74.573,74.573,0,0,0-2.431,9.453A142.041,142.041,0,0,0,205,382.76" transform="translate(-53.258 -124.025)" fill="#ffd08c"/>
        <path id="Trazado_696778" data-name="Trazado 696778" d="M247.573,417.906c-.588-8.7-5.66-24.081-9.276-34.129-6.338,1.409-18.676,3.5-37.2,3.842a142.041,142.041,0,0,1-48.119-7.963c-3.081,14.018-7.6,38.25-7.6,38.25Z" transform="translate(-49.349 -128.883)" fill="#5e5b5d"/>
        <path id="Trazado_696779" data-name="Trazado 696779" d="M208.867,386.516l-7.054-.192a8.585,8.585,0,0,1-8.34-8.8l.077-2.83a8.585,8.585,0,0,1,8.8-8.34l7.054.192a8.585,8.585,0,0,1,8.34,8.805l-.077,2.83a8.586,8.586,0,0,1-8.805,8.34m-6.635-15.635a4.046,4.046,0,0,0-4.15,3.931l-.077,2.83a4.046,4.046,0,0,0,3.931,4.15l7.055.192a4.046,4.046,0,0,0,4.15-3.931l.077-2.83a4.046,4.046,0,0,0-3.931-4.151Z" transform="translate(-65.678 -124.364)" fill="#fff"/>
        <path id="Trazado_696780" data-name="Trazado 696780" d="M160.564,365.345s26.013,9.148,50.837,9.453,29.847-1.86,29.847-1.86l-1.456-3.778Z" transform="translate(-54.507 -124.025)" fill="#1d1d1b"/>
        <path id="Trazado_696781" data-name="Trazado 696781" d="M232.655,214.9s19.071,8.252,23.56,14.194,2.112,32.087-2.113,43.047-12.808,28.39-15.053,31.691c0,0,1.32,7.263,1.057,9.375s-2.905,3.962-2.905,3.962a225.787,225.787,0,0,1-45.292,2.245c-24.692-1.32-34.86-6.471-34.86-6.471s-1.188-1.188,0-4.093S158.9,304.1,158.9,304.1l1.717-6.338s-7.13,1.32-7.658-3.7,8.979-47.932,11.224-56.78,5.414-19.673,12.016-22.381,18.883-2.708,18.883-2.708Z" transform="translate(-51.917 -72.034)" fill="#4db1f0"/>
        <path id="Trazado_696782" data-name="Trazado 696782" d="M243.329,289.624a4.4,4.4,0,0,1,2.295,1.672c1.163,1.453,18.46,22.316,19.517,25.617" transform="translate(-82.604 -98.319)" fill="none" stroke="#1d1d1b" stroke-linecap="round" stroke-linejoin="round" stroke-width="0.5"/>
        <line id="Línea_2298" data-name="Línea 2298" y1="35.087" x2="11.02" transform="translate(174.686 172.378)" fill="none" stroke="#1d1d1b" stroke-linecap="round" stroke-linejoin="round" stroke-width="0.5"/>
        <path id="Trazado_696783" data-name="Trazado 696783" d="M231.357,320.01s14.006,21.744,20.212,25.837,12.808-1.585,14.129-5.414" transform="translate(-78.539 -108.635)" fill="none" stroke="#1d1d1b" stroke-linecap="round" stroke-linejoin="round" stroke-width="0.5"/>
        <path id="Trazado_696784" data-name="Trazado 696784" d="M177.177,310.284s.343-1.01-3.381-.174-12.176,2.949-13.232,3.741" transform="translate(-54.507 -105.162)" fill="none" stroke="#1d1d1b" stroke-linecap="round" stroke-linejoin="round" stroke-width="0.5"/>
        <path id="Trazado_696785" data-name="Trazado 696785" d="M180.367,239.024l-.768,13.044-9.639,12.676,3.433,10.314-1.328,12.217" transform="translate(-57.697 -81.142)" fill="none" stroke="#1d1d1b" stroke-linecap="round" stroke-linejoin="round" stroke-width="0.5"/>
        <path id="Trazado_696786" data-name="Trazado 696786" d="M164.6,339.185s11.44-2.113,13.973-2.641,2.758-2.319,2.758-2.319" transform="translate(-55.878 -113.46)" fill="none" stroke="#1d1d1b" stroke-linecap="round" stroke-linejoin="round" stroke-width="0.5"/>
        <path id="Trazado_696787" data-name="Trazado 696787" d="M169.959,277.963l8.583,7.7-5.149,2.612Z" transform="translate(-57.697 -94.361)" fill="#1d1d1b"/>
        <path id="Trazado_696788" data-name="Trazado 696788" d="M220.534,204.512l-7.4,3.566,1.585,13.336,4.887-2.377a12,12,0,0,0,15.581,1.188l3.036,3.961,15.713-13.468-6.734-7.883-1.321-.822Z" transform="translate(-72.355 -68.578)" fill="#fff"/>
        <path id="Trazado_696789" data-name="Trazado 696789" d="M222.935,224.8l8.054-5.81-6.739,6.922Z" transform="translate(-75.68 -74.341)"/>
        <path id="Trazado_696790" data-name="Trazado 696790" d="M222.935,224.8l8.054-5.81-6.739,6.922Z" transform="translate(-75.68 -74.341)" fill="none" stroke="#1d1d1b" stroke-linecap="round" stroke-linejoin="round" stroke-width="0.5"/>
        <path id="Trazado_696791" data-name="Trazado 696791" d="M243.471,225.988l-5.942-7,4.291,7.973Z" transform="translate(-80.634 -74.341)"/>
        <path id="Trazado_696792" data-name="Trazado 696792" d="M243.471,225.988l-5.942-7,4.291,7.973Z" transform="translate(-80.634 -74.341)" fill="none" stroke="#1d1d1b" stroke-linecap="round" stroke-linejoin="round" stroke-width="0.5"/>
        <path id="Trazado_696793" data-name="Trazado 696793" d="M205.217,132.956s-2.758.132-3.55-4.49a8.623,8.623,0,0,1,1.775-7.262s-2.3-6.47,2.451-10.035c0,0,.66-3.829,6.338-6.206s12.148-4.622,23.636-2.112c0,0-1.585-3.169-.528-5.546s3.83-2.773,5.15-.925c0,0-.528-4.754,3.169-5.81s7.13-.66,7.922,1.981c0,0,2.509-1.188,5.414,1.188s3.962,5.81,3.037,8.319c0,0,2.641-2.112,5.018-.528a4.059,4.059,0,0,1,1.585,4.357s6.2,4.753.127,12.148c0,0,2.91,2.9.929,6.338s-6.866,3.829-6.866,3.829-.264,2.773-3.961,3.433a13.993,13.993,0,0,1-4.49,14.129s-8.055,9.64-12.281,10.564-34.875-23.372-34.875-23.372" transform="translate(-68.409 -30.562)" fill="#ffaa9a"/>
        <path id="Trazado_696794" data-name="Trazado 696794" d="M253.521,109.358s4.358-1.585,10.7,5.282c0,0,5.678,1.189,7.527,5.81" transform="translate(-86.063 -37.07)" fill="none" stroke="#1d1d1b" stroke-linecap="round" stroke-linejoin="round" stroke-width="0.5"/>
        <path id="Trazado_696795" data-name="Trazado 696795" d="M284.7,146.369s1.453-7.922-1.188-12.94" transform="translate(-96.243 -45.296)" fill="none" stroke="#1d1d1b" stroke-linecap="round" stroke-linejoin="round" stroke-width="0.5"/>
        <path id="Trazado_696796" data-name="Trazado 696796" d="M250.1,135.757c1.035-.078,2.084.046,3.108-.121a5.586,5.586,0,0,0,3.366-1.925,1.046,1.046,0,0,1,1.2-.491,6.162,6.162,0,0,0,5.439-2.765" transform="translate(-84.903 -44.286)" fill="none" stroke="#1d1d1b" stroke-linecap="round" stroke-linejoin="round" stroke-width="0.5"/>
        <path id="Trazado_696797" data-name="Trazado 696797" d="M256.926,146.3a7.75,7.75,0,0,0,5.506-1.494,2.148,2.148,0,0,1,.735-.432,2.213,2.213,0,0,1,.9.053c1.424.25,3.124-.129,3.8-1.406" transform="translate(-87.219 -48.55)" fill="none" stroke="#1d1d1b" stroke-linecap="round" stroke-linejoin="round" stroke-width="0.5"/>
        <path id="Trazado_696798" data-name="Trazado 696798" d="M261.127,157.644a6.992,6.992,0,0,0,6.745-2.2" transform="translate(-88.646 -52.768)" fill="none" stroke="#1d1d1b" stroke-linecap="round" stroke-linejoin="round" stroke-width="0.5"/>
        <path id="Trazado_696799" data-name="Trazado 696799" d="M284.069,139.613a3.053,3.053,0,0,1-.651,2.272,9.064,9.064,0,0,1-1.764,1.658" transform="translate(-95.614 -47.395)" fill="none" stroke="#1d1d1b" stroke-linecap="round" stroke-linejoin="round" stroke-width="0.5"/>
        <path id="Trazado_696800" data-name="Trazado 696800" d="M227.531,124.1a4.357,4.357,0,0,1,2.192-3.678,9.338,9.338,0,0,1,4.285-1.172,1.816,1.816,0,0,1,.843-2.262,4.23,4.23,0,0,1,2.723-.569" transform="translate(-77.24 -39.516)" fill="none" stroke="#1d1d1b" stroke-linecap="round" stroke-linejoin="round" stroke-width="0.5"/>
        <path id="Trazado_696801" data-name="Trazado 696801" d="M255.151,120.567a3.067,3.067,0,0,0,2.808.118,6.1,6.1,0,0,0,2.43-2.861" transform="translate(-86.617 -39.998)" fill="none" stroke="#1d1d1b" stroke-linecap="round" stroke-linejoin="round" stroke-width="0.5"/>
        <path id="Trazado_696802" data-name="Trazado 696802" d="M266.641,95.724a1.965,1.965,0,0,0-1.519,2.114,2.49,2.49,0,0,0,1.795,2.025,3.159,3.159,0,0,0-2.246,1.9,2.629,2.629,0,0,0,.514,2.618" transform="translate(-89.797 -32.496)" fill="none" stroke="#1d1d1b" stroke-linecap="round" stroke-linejoin="round" stroke-width="0.5"/>
        <path id="Trazado_696803" data-name="Trazado 696803" d="M290.487,133.707a3.94,3.94,0,0,0,4.718-4.662" transform="translate(-98.612 -43.807)" fill="none" stroke="#1d1d1b" stroke-linecap="round" stroke-linejoin="round" stroke-width="0.5"/>
        <path id="Trazado_696804" data-name="Trazado 696804" d="M292.1,115.06a3.161,3.161,0,0,1,1.563,5.112" transform="translate(-99.159 -39.06)" fill="none" stroke="#1d1d1b" stroke-linecap="round" stroke-linejoin="round" stroke-width="0.5"/>
        <path id="Trazado_696805" data-name="Trazado 696805" d="M271.724,165.78a4.206,4.206,0,0,0,3.519-2.982" transform="translate(-92.243 -55.266)" fill="none" stroke="#1d1d1b" stroke-linecap="round" stroke-linejoin="round" stroke-width="0.5"/>
        <path id="Trazado_696806" data-name="Trazado 696806" d="M217.5,123.465a3.827,3.827,0,0,1,3.379-5.147,2.84,2.84,0,0,1,1.081-2.406,5.354,5.354,0,0,1,2.355-.883" transform="translate(-73.757 -39.049)" fill="none" stroke="#1d1d1b" stroke-linecap="round" stroke-linejoin="round" stroke-width="0.5"/>
        <path id="Trazado_696807" data-name="Trazado 696807" d="M209.523,125.719a.83.83,0,0,1-.8-.678,1.863,1.863,0,0,1,.17-1.113,5.327,5.327,0,0,1,2.091-2.459" transform="translate(-70.845 -41.235)" fill="none" stroke="#1d1d1b" stroke-linecap="round" stroke-linejoin="round" stroke-width="0.5"/>
        <path id="Trazado_696808" data-name="Trazado 696808" d="M209.046,128.031s-3.961,33.4,4.181,44.871c.557.786,3.346,4.673,5.59,4.4v2.1s6.471,7.922,7.13,8.715L244.3,178.077l-1.585-14.129s2.254,1.63,3.961.264c1.981-1.585,4.357-8.451,3.037-10.827s-2.641-3.169-5.282-1.585c0,0-2.377-.132-1.32-3.433,0,0-3.83-1.849-2.641-7.13a5.616,5.616,0,0,1-4.49-6.338s-5.282-1.056-6.338-5.678c0,0-6.867,3.037-8.451-1.188,0,0-5.414,2.244-6.867,0,0,0-2.9,1.981-5.282,0" transform="translate(-70.638 -43.463)" fill="#e39090"/>
        <path id="Trazado_696809" data-name="Trazado 696809" d="M224.335,201.388a44.671,44.671,0,0,0,9.954-2.39l-9.025,5.626-.929-1.137Z" transform="translate(-76.156 -67.554)"/>
        <path id="Trazado_696810" data-name="Trazado 696810" d="M224.335,201.388a44.671,44.671,0,0,0,9.954-2.39l-9.025,5.626-.929-1.137Z" transform="translate(-76.156 -67.554)" fill="none" stroke="#1d1d1b" stroke-linecap="round" stroke-linejoin="round" stroke-width="0.5"/>
        <path id="Trazado_696811" data-name="Trazado 696811" d="M262.717,167.648s3.037-4.225,4.622,0" transform="translate(-89.185 -56.274)" fill="#1d1d1b"/>
        <path id="Trazado_696812" data-name="Trazado 696812" d="M262.717,167.648s3.037-4.225,4.622,0" transform="translate(-89.185 -56.274)" fill="none" stroke="#1d1d1b" stroke-linecap="round" stroke-linejoin="round" stroke-width="0.5"/>
        <path id="Trazado_696813" data-name="Trazado 696813" d="M234.467,269.193l-5.215-10.387,5.941-19.147-.726-1.981s2.443-3.7,1.651-5.942-3.961.793-3.961.793l-1.452-4.037-5.348-1.9s-5.611,2.641-5.479,3.7a2.206,2.206,0,0,0,2.772,1.585,32.155,32.155,0,0,0,3.367-.883l2.059,6.033s-3.841-2.773-4.9-2.113-1.849,3.962-1.849,3.962a2.815,2.815,0,0,0-2.377,1.584,12.638,12.638,0,0,0-1.057,3.169s-2.376,5.414-1.98,6.471,2.641,1.585,2.641,1.585-1.585,7.658-1.188,9.9,4.754,12.016,4.754,12.016,8.846,1.76,12.345-4.4" transform="translate(-73.282 -76.92)" fill="#e39090"/>
        <path id="Trazado_696814" data-name="Trazado 696814" d="M233.959,241.24l2.1,1.849-2.857-4.065Z" transform="translate(-79.166 -81.142)"/>
        <path id="Trazado_696815" data-name="Trazado 696815" d="M233.959,241.24l2.1,1.849-2.857-4.065Z" transform="translate(-79.166 -81.142)" fill="none" stroke="#1d1d1b" stroke-linecap="round" stroke-linejoin="round" stroke-width="0.5"/>
        <path id="Trazado_696816" data-name="Trazado 696816" d="M219.337,258.772l1.32,1.452,1.056-1.452" transform="translate(-74.459 -87.846)" fill="none" stroke="#1d1d1b" stroke-linecap="round" stroke-linejoin="round" stroke-width="0.5"/>
        <line id="Línea_2299" data-name="Línea 2299" x1="0.924" y2="2.377" transform="translate(145.274 172.378)" fill="none" stroke="#1d1d1b" stroke-linecap="round" stroke-linejoin="round" stroke-width="0.5"/>
        <line id="Línea_2300" data-name="Línea 2300" x2="6.668" y2="1.453" transform="translate(144.614 166.7)" fill="none" stroke="#1d1d1b" stroke-linecap="round" stroke-linejoin="round" stroke-width="0.5"/>
        <line id="Línea_2301" data-name="Línea 2301" x2="5.81" y2="2.509" transform="translate(148.047 161.947)" fill="none" stroke="#1d1d1b" stroke-linecap="round" stroke-linejoin="round" stroke-width="0.5"/>
        <line id="Línea_2302" data-name="Línea 2302" x2="2.311" y2="5.149" transform="translate(158.875 155.608)" fill="none" stroke="#1d1d1b" stroke-linecap="round" stroke-linejoin="round" stroke-width="0.5"/>
        <path id="Trazado_696817" data-name="Trazado 696817" d="M185.851,320.92s-8.715-3.565-3.7-15.845l11.752-1.717s10.3-9.023,14.129-9.529a52.161,52.161,0,0,1,13.139.682c2.443.528,2.839,2.641,1.32,3.037a36.3,36.3,0,0,1-4.291.661s5.017.528,5.942,1.98-.661,3.037-2.377,2.905c0,0,1.981,1.057,1.717,2.773s-4.754,1.417-4.754,1.417,2.113,1.225,1.453,2.677-5.149.924-8.319,1.188-8.319,4.357-11.356,5.149a15.426,15.426,0,0,1-6.206.132Z" transform="translate(-61.308 -99.686)" fill="#e39090"/>
        <path id="Trazado_696818" data-name="Trazado 696818" d="M233.51,314.224s-6.866-.3-9.375,0" transform="translate(-76.088 -106.625)" fill="none" stroke="#1d1d1b" stroke-linecap="round" stroke-linejoin="round" stroke-width="0.5"/>
        <path id="Trazado_696819" data-name="Trazado 696819" d="M236.14,307.678a43.372,43.372,0,0,0-13.2,0" transform="translate(-75.68 -104.269)" fill="none" stroke="#1d1d1b" stroke-linecap="round" stroke-linejoin="round" stroke-width="0.5"/>
        <path id="Trazado_696820" data-name="Trazado 696820" d="M232.575,300.282s-6.471-1.188-9.639,0" transform="translate(-75.681 -101.758)" fill="none" stroke="#1d1d1b" stroke-linecap="round" stroke-linejoin="round" stroke-width="0.5"/>
        <path id="Trazado_696821" data-name="Trazado 696821" d="M223.594,293.775a84.8,84.8,0,0,1,12.175.779" transform="translate(-75.904 -99.728)" fill="none" stroke="#1d1d1b" stroke-linecap="round" stroke-linejoin="round" stroke-width="0.5"/>
        <path id="Trazado_696822" data-name="Trazado 696822" d="M217.251,160.942a.97.97,0,1,1-.97-.97.969.969,0,0,1,.97.97" transform="translate(-73.092 -54.306)" fill="#1d1d1b"/>
        <path id="Trazado_696823" data-name="Trazado 696823" d="M218.651,153.969c-.38.475-2.021-.271-3.91-.271s-3.529.746-3.91.271,1.213-2.475,3.91-2.475,4.291,2,3.91,2.475" transform="translate(-71.553 -51.428)" fill="#1d1d1b"/>
        <path id="Trazado_696824" data-name="Trazado 696824" d="M238.75,160.942a.97.97,0,1,1-.97-.97.969.969,0,0,1,.97.97" transform="translate(-80.391 -54.306)" fill="#1d1d1b"/>
        <path id="Trazado_696825" data-name="Trazado 696825" d="M240.15,153.969c-.38.475-2.021-.271-3.91-.271s-3.53.746-3.91.271,1.213-2.475,3.91-2.475,4.29,2,3.91,2.475" transform="translate(-78.851 -51.428)" fill="#1d1d1b"/>
        <path id="Trazado_696826" data-name="Trazado 696826" d="M222.818,155.48l-1.69,14.483h5.351" transform="translate(-75.067 -52.781)" fill="none" stroke="#1d1d1b" stroke-linecap="round" stroke-linejoin="round" stroke-width="0.5"/>
        <path id="Trazado_696827" data-name="Trazado 696827" d="M235.951,178.591c-1.729,3.251-5.949,2.586-5.949,2.586Z" transform="translate(-78.079 -60.627)" fill="none" stroke="#1d1d1b" stroke-linecap="round" stroke-linejoin="round" stroke-width="0.5"/>
        <path id="Trazado_696828" data-name="Trazado 696828" d="M321.493,419.782l-1.744,7.473h55.591l-24.3-19.125Z" transform="translate(-108.546 -138.549)" fill="#1d1d1b"/>
        <path id="Trazado_696829" data-name="Trazado 696829" d="M321.493,419.782l-1.744,7.473h55.591l-24.3-19.125Z" transform="translate(-108.546 -138.549)" fill="none" stroke="#1d1d1b" stroke-linecap="round" stroke-linejoin="round" stroke-width="0.5"/>
        <path id="Trazado_696830" data-name="Trazado 696830" d="M315.5,88.044l-5.942,37.261h4.754l11.884-.552,13.864,26.409,26.013-9.045L359.2,124.225,340.453,81.97l-24.825,3.7Z" transform="translate(-105.085 -27.827)" fill="#ffaa9a"/>
        <path id="Trazado_696831" data-name="Trazado 696831" d="M360.386,132.162s-1.541,2.763-3.654,3.027l3.654-.651Z" transform="translate(-121.101 -44.865)" fill="#1d1d1b"/>
        <path id="Trazado_696832" data-name="Trazado 696832" d="M360.386,132.162s-1.541,2.763-3.654,3.027l3.654-.651Z" transform="translate(-121.101 -44.865)" fill="none" stroke="#1d1d1b" stroke-linecap="round" stroke-linejoin="round" stroke-width="0.5"/>
        <path id="Trazado_696833" data-name="Trazado 696833" d="M340.015,186.237s.264-8.472,3.961-11.234,24.957-11.14,28.918-9.79,6.867,6.762,6.867,7.687v2.752s10.827,17.848,11.884,29.2-5.546,70.777-5.546,70.777l5.661,69.109H372.5s-15.186-2.426-22.316-13.386c0,0-22.976,11.488-26.541,11.62s-1.717-53.214-1.32-64.042,3.433-41.462,6.338-55.459,5.678-30.238,7.395-32.483,3.961-4.754,3.961-4.754" transform="translate(-109.137 -56.036)" fill="#ed9aa9"/>
        <path id="Trazado_696834" data-name="Trazado 696834" d="M349.536,190.518s11.884-7.923,20.6-10.167a100.87,100.87,0,0,1,17.826-2.675" transform="translate(-118.658 -60.316)" fill="none" stroke="#1d1d1b" stroke-linecap="round" stroke-linejoin="round" stroke-width="0.5"/>
        <line id="Línea_2303" data-name="Línea 2303" x1="2.384" y1="2.191" transform="translate(268.24 117.426)" fill="none" stroke="#1d1d1b" stroke-linecap="round" stroke-linejoin="round" stroke-width="0.5"/>
        <path id="Trazado_696835" data-name="Trazado 696835" d="M382.921,200.655c-2.9-3.037-12.281-4.754-18.486-3.7s-14.789,8.583-15.713,16.11-1.585,34.2-1.585,34.2a45.146,45.146,0,0,0,35.784,1.056l4.935-29.71" transform="translate(-117.844 -66.756)" fill="none" stroke="#1d1d1b" stroke-linecap="round" stroke-linejoin="round" stroke-width="0.5"/>
        <path id="Trazado_696836" data-name="Trazado 696836" d="M342.576,271.643s5.149-2.377,13.6-1.981,13.2,3.433,13.2,3.433l-2.641,36.048s-13.072,38.161-15.845,43.575-9.033,18.9-9.033,18.9l.583,8.616H325.938a53.042,53.042,0,0,1,1.32-12.99c1.585-6.47,16.506-67.211,16.506-67.211Z" transform="translate(-110.641 -91.528)" fill="#ffaa9a"/>
        <path id="Trazado_696837" data-name="Trazado 696837" d="M351.234,274.022s7.689-5.154,26.639,0l.067-.92s-11.58-6.712-26.8-1.452Z" transform="translate(-119.201 -91.534)" fill="#1d1d1b"/>
        <path id="Trazado_696838" data-name="Trazado 696838" d="M351.234,274.022s7.689-5.154,26.639,0l.067-.92s-11.58-6.712-26.8-1.452Z" transform="translate(-119.201 -91.534)" fill="none" stroke="#1d1d1b" stroke-linecap="round" stroke-linejoin="round" stroke-width="0.5"/>
        <path id="Trazado_696839" data-name="Trazado 696839" d="M330.167,407.116l-3.643-1.5-2.377,8.59a128.551,128.551,0,0,0,18.75,5.678l2.774-7.6Z" transform="translate(-110.039 -137.695)" fill="#1d1d1b"/>
        <path id="Trazado_696840" data-name="Trazado 696840" d="M330.167,407.116l-3.643-1.5-2.377,8.59a128.551,128.551,0,0,0,18.75,5.678l2.774-7.6Z" transform="translate(-110.039 -137.695)" fill="none" stroke="#1d1d1b" stroke-linecap="round" stroke-linejoin="round" stroke-width="0.5"/>
        <path id="Trazado_696841" data-name="Trazado 696841" d="M342.882,412.283a6.668,6.668,0,1,1-6.668-6.668,6.668,6.668,0,0,1,6.668,6.668" transform="translate(-111.872 -137.695)" fill="#1d1d1b"/>
        <path id="Trazado_696842" data-name="Trazado 696842" d="M342.882,412.283a6.668,6.668,0,1,1-6.668-6.668A6.668,6.668,0,0,1,342.882,412.283Z" transform="translate(-111.872 -137.695)" fill="none" stroke="#1d1d1b" stroke-linecap="round" stroke-linejoin="round" stroke-width="0.5"/>
        <path id="Trazado_696843" data-name="Trazado 696843" d="M341.689,413.544a4.214,4.214,0,1,1-4.214-4.214,4.214,4.214,0,0,1,4.214,4.214" transform="translate(-113.133 -138.957)" fill="#fff"/>
        <path id="Trazado_696844" data-name="Trazado 696844" d="M317.385,80.87s-4.145-3.309.74-7.4,15.45-9.639,35.653-6.074c0,0-.4-6.735,4.49-9.508s5.017,1.32,5.017,1.32,7.791-3.169,10.564,5.942c0,0,5.018,3.7,2.773,7.791s-5.678,7.262-9.375,6.47c0,0,2.377,9.508.924,14.921s-3.7,14.863-3.961,16.146-2.113,5.113-4.886,5.774-3.829,0-3.829,0-4.754,2.029-5.678.552-3.345-10.182-3.345-10.182,3.477-6.521,1.628-10.726-9.9-3.678-10.167,3.85,4.49,17.959,5.149,20.336-7,12.545-9.639,14.657-8.319,3.037-11.488,0-2.377-10.685-2.377-10.685-3.3-1.678-3.169-7.249c0,0,1.585-2.054,6.866-3.614a68.054,68.054,0,0,1,7.922-1.964l2.906-4.085-.661-16s-4.886-5.256-4.886-7.764a34.085,34.085,0,0,1,.4-4.9s-3.565.513-4.754,0c0,0-3.3.645-4.358,0,0,0-.82,2.8-2.457,2.4" transform="translate(-107.187 -19.324)" fill="#ffd08c"/>
        <path id="Trazado_696845" data-name="Trazado 696845" d="M321.948,86.024s-.264-4.739,8.451-6.852" transform="translate(-109.292 -26.877)" fill="none" stroke="#1d1d1b" stroke-linecap="round" stroke-linejoin="round" stroke-width="0.5"/>
        <path id="Trazado_696846" data-name="Trazado 696846" d="M328.545,83.367s2.686-8.08,22.272-12.021" transform="translate(-111.532 -24.22)" fill="none" stroke="#1d1d1b" stroke-linecap="round" stroke-linejoin="round" stroke-width="0.5"/>
        <path id="Trazado_696847" data-name="Trazado 696847" d="M335.742,86.974s10.168,1.863,23.5-5" transform="translate(-113.975 -27.827)" fill="none" stroke="#1d1d1b" stroke-linecap="round" stroke-linejoin="round" stroke-width="0.5"/>
        <path id="Trazado_696848" data-name="Trazado 696848" d="M373.325,72.775s.924,10.035,13.469,12.016" transform="translate(-126.734 -24.705)" fill="none" stroke="#1d1d1b" stroke-linecap="round" stroke-linejoin="round" stroke-width="0.5"/>
        <path id="Trazado_696849" data-name="Trazado 696849" d="M389.063,82.929s11.129,6.386,9.676-13.553" transform="translate(-132.076 -23.551)" fill="none" stroke="#1d1d1b" stroke-linecap="round" stroke-linejoin="round" stroke-width="0.5"/>
        <path id="Trazado_696850" data-name="Trazado 696850" d="M383.709,60.38s-11.7,6.551-6.445,14.83" transform="translate(-127.61 -20.497)" fill="none" stroke="#1d1d1b" stroke-linecap="round" stroke-linejoin="round" stroke-width="0.5"/>
        <path id="Trazado_696851" data-name="Trazado 696851" d="M393.242,65.978s-.361,15.147-6.311,15.3" transform="translate(-131.353 -22.398)" fill="none" stroke="#1d1d1b" stroke-linecap="round" stroke-linejoin="round" stroke-width="0.5"/>
        <path id="Trazado_696852" data-name="Trazado 696852" d="M381.857,87.48s3.7,6.12-3.235,13.785" transform="translate(-128.532 -29.697)" fill="none" stroke="#1d1d1b" stroke-linecap="round" stroke-linejoin="round" stroke-width="0.5"/>
        <path id="Trazado_696853" data-name="Trazado 696853" d="M375.924,142.058s4.875.528,6-9.111" transform="translate(-127.616 -45.132)" fill="none" stroke="#1d1d1b" stroke-linecap="round" stroke-linejoin="round" stroke-width="0.5"/>
        <path id="Trazado_696854" data-name="Trazado 696854" d="M325.147,152.17l8.451-5.429S331.485,155.09,325.147,152.17Z" transform="translate(-110.379 -49.815)" fill="none" stroke="#1d1d1b" stroke-linecap="round" stroke-linejoin="round" stroke-width="0.5"/>
        <path id="Trazado_696855" data-name="Trazado 696855" d="M324.019,124.083c0,.536-.434,0-.97,0s-.97.536-.97,0a.97.97,0,0,1,1.94,0" transform="translate(-109.337 -41.794)" fill="#1d1d1b"/>
        <path id="Trazado_696856" data-name="Trazado 696856" d="M325.419,117.11c-.38.475-2.021-.271-3.91-.271s-3.53.746-3.91.271,1.213-2.475,3.91-2.475,4.29,2,3.91,2.475" transform="translate(-107.797 -38.915)" fill="#1d1d1b"/>
        <path id="Trazado_696857" data-name="Trazado 696857" d="M353.534,119.188s.485-3.77,3.939-3.57,2.154,4.048,2.154,4.048" transform="translate(-120.015 -39.247)" fill="#1d1d1b"/>
        <path id="Trazado_696858" data-name="Trazado 696858" d="M353.534,119.188s.485-3.77,3.939-3.57,2.154,4.048,2.154,4.048" transform="translate(-120.015 -39.247)" fill="none" stroke="#1d1d1b" stroke-linecap="round" stroke-linejoin="round" stroke-width="0.5"/>
        <path id="Trazado_696859" data-name="Trazado 696859" d="M91.5,97.908s9.507,18.927,10.876,31.515l-4.4,1.233S97.13,148,94.137,148.349s-11.708-3.7-11.708-3.7-2.641,12.236-2.465,14.965,11.884,24.3,11.884,24.3L63.15,171.5l9.243-38.029,1.056-15.933Z" transform="translate(-21.438 -33.237)" fill="#fdd5cd"/>
        <path id="Trazado_696860" data-name="Trazado 696860" d="M89.577,166.753a51.74,51.74,0,0,1-5.37-3.741l4.6,7.461Z" transform="translate(-28.586 -55.338)"/>
        <path id="Trazado_696861" data-name="Trazado 696861" d="M89.577,166.753a51.74,51.74,0,0,1-5.37-3.741l4.6,7.461Z" transform="translate(-28.586 -55.338)" fill="none" stroke="#1d1d1b" stroke-linecap="round" stroke-linejoin="round" stroke-width="0.5"/>
        <path id="Trazado_696862" data-name="Trazado 696862" d="M100.555,148.417l7.747,2.837S103.548,154.491,100.555,148.417Z" transform="translate(-34.136 -50.384)" fill="none" stroke="#1d1d1b" stroke-linecap="round" stroke-linejoin="round" stroke-width="0.5"/>
        <path id="Trazado_696863" data-name="Trazado 696863" d="M108.862,131.852a.836.836,0,1,1-.836-.836.836.836,0,0,1,.836.836" transform="translate(-36.388 -44.476)" fill="#1d1d1b"/>
        <path id="Trazado_696864" data-name="Trazado 696864" d="M110.07,125.84c-.328.41-1.743-.234-3.371-.234s-3.043.643-3.371.234,1.046-2.134,3.371-2.134,3.7,1.725,3.371,2.134" transform="translate(-35.06 -41.995)" fill="#1d1d1b"/>
        <path id="Trazado_696865" data-name="Trazado 696865" d="M112.2,125.639c0,4.716.906,8.539,2.025,8.539s2.025-3.822,2.025-8.539-.907-8.539-2.025-8.539S112.2,120.922,112.2,125.639Z" transform="translate(-38.087 -39.752)" fill="none" stroke="#1d1d1b" stroke-linecap="round" stroke-linejoin="round" stroke-width="0.5"/>
        <line id="Línea_2304" data-name="Línea 2304" x1="15.442" transform="translate(58.698 84.387)" fill="none" stroke="#1d1d1b" stroke-linecap="round" stroke-linejoin="round" stroke-width="0.5"/>
        <path id="Trazado_696866" data-name="Trazado 696866" d="M93.714,353.029s2.565,22.408,2.478,27.514S94.954,394.8,94.954,394.8L97.6,411.271H36.155A85.428,85.428,0,0,1,35.8,382.15c2.641-15.252,6.334-24.574,6.952-29.684Z" transform="translate(-11.785 -119.653)" fill="#ffd08c"/>
        <path id="Trazado_696867" data-name="Trazado 696867" d="M124.6,416.563l-1.667,3.785-.88,12.588" transform="translate(-41.435 -141.412)" fill="none" stroke="#1d1d1b" stroke-linecap="round" stroke-linejoin="round" stroke-width="0.5"/>
        <path id="Trazado_696868" data-name="Trazado 696868" d="M81.219,356.452s-1.383,52.293-2.136,56.079" transform="translate(-26.847 -121.006)" fill="none" stroke="#1d1d1b" stroke-linecap="round" stroke-linejoin="round" stroke-width="0.5"/>
        <path id="Trazado_696869" data-name="Trazado 696869" d="M84.21,356.457s-1.522,52.378-2.4,56.075" transform="translate(-27.772 -121.008)" fill="none" stroke="#1d1d1b" stroke-linecap="round" stroke-linejoin="round" stroke-width="0.5"/>
        <path id="Trazado_696870" data-name="Trazado 696870" d="M84.245,380.664s15.747-7.8,14.067-24.983" transform="translate(-28.599 -120.744)" fill="none" stroke="#1d1d1b" stroke-linecap="round" stroke-linejoin="round" stroke-width="0.5"/>
        <path id="Trazado_696871" data-name="Trazado 696871" d="M40.107,369.43l7.783.85S46.533,391.5,44,396.073s-7.875,2.2-8.946-1.055" transform="translate(-11.899 -125.411)" fill="none" stroke="#1d1d1b" stroke-linecap="round" stroke-linejoin="round" stroke-width="0.5"/>
        <path id="Trazado_696872" data-name="Trazado 696872" d="M45.2,334.873s-.439.348-.439,2.021v8.363c0,.88,3.961,3.873,23.328,3.873s28.008-1.672,29.454-2.2,1-3.257.388-6.515-1.233-4.137-1.848-4.489a1.2,1.2,0,0,0-.98-.2Z" transform="translate(-15.194 -113.68)" fill="#636363"/>
        <path id="Trazado_696873" data-name="Trazado 696873" d="M119.682,344.33v-9.458h-2.289v11.89a1.854,1.854,0,0,0,1.854,1.854h3.321a1.163,1.163,0,0,0,1.163-1.163v-.594a1.163,1.163,0,0,0-1.163-1.163h-1.521a1.366,1.366,0,0,1-1.366-1.366" transform="translate(-39.852 -113.68)" fill="#fff"/>
        <path id="Trazado_696874" data-name="Trazado 696874" d="M55.462,203.033a13.45,13.45,0,0,1,12.5,2.553c6.338,4.93,6.877,6.87,10.393,7.4,0,0,14.608,24.735,15.312,27.992s-6.954,14.261-6.954,14.261,6.869,27.2,7,29.578-2.071,5.81-2.071,5.81a63.161,63.161,0,0,1-31.955,3.169c-18.134-2.816-23.416-5.017-25.529-8.715s1.5-6.162,1.937-15.845S35.3,248.9,35.3,241.062s3.345-21.3,6.6-27.642,13.557-10.387,13.557-10.387" transform="translate(-11.372 -68.73)" fill="#5e5b5d"/>
        <path id="Trazado_696875" data-name="Trazado 696875" d="M118.979,260.767l-10.916,12.5,3.961,1.76s7.13-9.683,6.955-14.261" transform="translate(-36.684 -88.523)"/>
        <path id="Trazado_696876" data-name="Trazado 696876" d="M118.979,260.767l-10.916,12.5,3.961,1.76S119.155,265.344,118.979,260.767Z" transform="translate(-36.684 -88.523)" fill="none" stroke="#1d1d1b" stroke-linecap="round" stroke-linejoin="round" stroke-width="0.5"/>
        <path id="Trazado_696877" data-name="Trazado 696877" d="M65.283,206.7a18.692,18.692,0,0,1,11.18,1.937c5.017,2.756,9.309,9.206,13.732,7.747" transform="translate(-22.162 -70.11)" fill="none" stroke="#1d1d1b" stroke-linecap="round" stroke-linejoin="round" stroke-width="0.5"/>
        <path id="Trazado_696878" data-name="Trazado 696878" d="M82.761,248.815s2.333-1.5,1.981-5.37-4.666-14-4.666-14" transform="translate(-27.184 -77.891)" fill="none" stroke="#1d1d1b" stroke-linecap="round" stroke-linejoin="round" stroke-width="0.5"/>
        <path id="Trazado_696879" data-name="Trazado 696879" d="M73.357,90.8l4.76,10.549s3.339-6.676.7-12.662-6.25-4.842-6.25-4.842-4.05-4.665-19.719-6.6S28.374,83.936,24.5,97.932s-6.69,45.952-7.835,56.075-4.842,21.479-6.25,29.138S8.743,200.84,19.483,203.92c0,0,.088,5.81,8.539,6.955,0,0-1.409-23.24,6.338-34.508s19.719-13.732,22.712-24.648-2.2-29.578-1.144-36.884c0,0,15.493-9.508,17.43-24.033" transform="translate(-3.299 -26.131)" fill="#e39090"/>
        <path id="Trazado_696880" data-name="Trazado 696880" d="M22.707,245.456s-6.25-7.218-2.025-20.335,7.75-22.272,7.969-25.793" transform="translate(-6.523 -67.666)" fill="none" stroke="#1d1d1b" stroke-linecap="round" stroke-linejoin="round" stroke-width="0.5"/>
        <path id="Trazado_696881" data-name="Trazado 696881" d="M110.99,104.485a13.947,13.947,0,0,0-.528-9.243" transform="translate(-37.499 -32.332)" fill="none" stroke="#1d1d1b" stroke-linecap="round" stroke-linejoin="round" stroke-width="0.5"/>
        <path id="Trazado_696882" data-name="Trazado 696882" d="M106.064,95.691a8.8,8.8,0,0,0,.234-4.313" transform="translate(-36.006 -31.02)" fill="none" stroke="#1d1d1b" stroke-linecap="round" stroke-linejoin="round" stroke-width="0.5"/>
        <path id="Trazado_696883" data-name="Trazado 696883" d="M48.224,244.483s6.25,43.4,8.627,54.843,5.634,18.663,11.092,17.958,56.515-32.748,56.515-32.748,8.8-.616,11.884-2.553,5.458-3.785,5.81-4.665a2.729,2.729,0,0,0-1.056-2.9s2.377-.352,2.641-1.761S142.5,269.4,142.5,269.4s3.609-.528,3.433-2.112-.616-2.553-2.465-2.641-7.482.176-7.482.176l-.264-.792s4.4-1.585,5.986-1.585,8.451-.083,8.01-2.155-5.986-2.335-7.922-2.247a42.777,42.777,0,0,0-9.771,2.247,43.109,43.109,0,0,0-3.785,2.242,5.546,5.546,0,0,0-3.081,1.056c-1.76,1.145-8.274,10.3-8.274,10.3L74.545,293.076s-2.465-41.111-3.081-44.9-5.546-11.18-9.155-11-14.085,7.307-14.085,7.307" transform="translate(-16.371 -80.514)" fill="#fdd5cd"/>
        <path id="Trazado_696884" data-name="Trazado 696884" d="M86.119,319.773l-3.8,2.465,3.562-6.422Z" transform="translate(-27.945 -107.211)"/>
        <path id="Trazado_696885" data-name="Trazado 696885" d="M86.119,319.773l-3.8,2.465,3.562-6.422Z" transform="translate(-27.945 -107.211)" fill="none" stroke="#1d1d1b" stroke-linecap="round" stroke-linejoin="round" stroke-width="0.5"/>
        <line id="Línea_2305" data-name="Línea 2305" x1="6.866" y2="1.408" transform="translate(119.267 188.882)" fill="none" stroke="#1d1d1b" stroke-linecap="round" stroke-linejoin="round" stroke-width="0.5"/>
        <line id="Línea_2306" data-name="Línea 2306" x1="3.433" y2="0.968" transform="translate(121.292 193.899)" fill="none" stroke="#1d1d1b" stroke-linecap="round" stroke-linejoin="round" stroke-width="0.5"/>
        <line id="Línea_2307" data-name="Línea 2307" x1="3.521" y2="2.729" transform="translate(108.351 182.015)" fill="none" stroke="#1d1d1b" stroke-linecap="round" stroke-linejoin="round" stroke-width="0.5"/>
        <path id="Trazado_696886" data-name="Trazado 696886" d="M162.371,308.472l-2.465-.792v2.332Z" transform="translate(-54.284 -104.449)"/>
        <path id="Trazado_696887" data-name="Trazado 696887" d="M162.371,308.472l-2.465-.792v2.332Z" transform="translate(-54.284 -104.449)" fill="none" stroke="#1d1d1b" stroke-linecap="round" stroke-linejoin="round" stroke-width="0.5"/>
        <path id="Trazado_696888" data-name="Trazado 696888" d="M405.933,195.414h37.315a4.771,4.771,0,0,1,4.771,4.771v28.272a4.771,4.771,0,0,1-4.771,4.771h-13.19c.286,2.552,1.5,6.553,5.752,10.789,0,0-10.2-4.666-14.37-10.789H405.933a4.771,4.771,0,0,1-4.771-4.771V200.185a4.771,4.771,0,0,1,4.771-4.771" transform="translate(-136.184 -66.338)" fill="#fff"/>
        <path id="Trazado_696889" data-name="Trazado 696889" d="M405.933,195.414h37.315a4.771,4.771,0,0,1,4.771,4.771v28.272a4.771,4.771,0,0,1-4.771,4.771h-13.19c.286,2.552,1.5,6.553,5.752,10.789,0,0-10.2-4.666-14.37-10.789H405.933a4.771,4.771,0,0,1-4.771-4.771V200.185A4.771,4.771,0,0,1,405.933,195.414Z" transform="translate(-136.184 -66.338)" fill="none" stroke="#1d1d1b" stroke-linecap="round" stroke-linejoin="round" stroke-width="0.5"/>
        <path id="Trazado_696890" data-name="Trazado 696890" d="M434.906,221.276a3.356,3.356,0,0,0,3.355-3.355V203.848a3.355,3.355,0,0,0-6.711,0v14.073a3.356,3.356,0,0,0,3.355,3.355" transform="translate(-146.5 -68.062)" fill="#1d1d1b"/>
        <path id="Trazado_696891" data-name="Trazado 696891" d="M431.551,238.236a3.355,3.355,0,1,0,3.355-3.355,3.356,3.356,0,0,0-3.355,3.355" transform="translate(-146.5 -79.735)" fill="#1d1d1b"/>
        <path id="Trazado_696892" data-name="Trazado 696892" d="M236.134,247.417h49.94a4.7,4.7,0,0,0,4.7-4.7V228.1a4.7,4.7,0,0,0-4.7-4.7H266.485c.281-2.511,1.477-6.45,5.662-10.619,0,0-10.045,4.593-14.145,10.619H236.134a4.7,4.7,0,0,0-4.7,4.7v14.617a4.7,4.7,0,0,0,4.7,4.7" transform="translate(-78.567 -72.236)" fill="#fff"/>
        <path id="Trazado_696893" data-name="Trazado 696893" d="M236.134,247.417h49.94a4.7,4.7,0,0,0,4.7-4.7V228.1a4.7,4.7,0,0,0-4.7-4.7H266.485c.281-2.511,1.477-6.45,5.662-10.619,0,0-10.045,4.593-14.145,10.619H236.134a4.7,4.7,0,0,0-4.7,4.7v14.617A4.7,4.7,0,0,0,236.134,247.417Z" transform="translate(-78.567 -72.236)" fill="none" stroke="#1d1d1b" stroke-linecap="round" stroke-linejoin="round" stroke-width="0.5"/>
        <path id="Trazado_696894" data-name="Trazado 696894" d="M286.554,244.994a3.3,3.3,0,1,1,3.3,3.3,3.3,3.3,0,0,1-3.3-3.3" transform="translate(-97.277 -82.048)" fill="#1d1d1b"/>
        <path id="Trazado_696895" data-name="Trazado 696895" d="M271.35,244.994a3.3,3.3,0,1,1,3.3,3.3,3.3,3.3,0,0,1-3.3-3.3" transform="translate(-92.116 -82.048)" fill="#1d1d1b"/>
        <path id="Trazado_696896" data-name="Trazado 696896" d="M256.147,244.994a3.3,3.3,0,1,1,3.3,3.3,3.3,3.3,0,0,1-3.3-3.3" transform="translate(-86.955 -82.048)" fill="#1d1d1b"/>
        <path id="Trazado_696897" data-name="Trazado 696897" d="M52.326,282.4c0-12.639-11.658-22.885-26.039-22.885S.249,269.762.249,282.4c0,11.933,10.395,21.728,23.658,22.786-1.114,2.9-3.145,7.329-5.78,9.415,0,0,7.417-4.742,11.461-9.506,12.821-1.426,22.738-11.039,22.738-22.7" transform="translate(-0.085 -88.099)" fill="#fff"/>
        <path id="Trazado_696898" data-name="Trazado 696898" d="M52.326,282.4c0-12.639-11.658-22.885-26.039-22.885S.249,269.762.249,282.4c0,11.933,10.395,21.728,23.658,22.786-1.114,2.9-3.145,7.329-5.78,9.415,0,0,7.417-4.742,11.461-9.506C42.41,303.671,52.326,294.057,52.326,282.4Z" transform="translate(-0.085 -88.099)" fill="none" stroke="#1d1d1b" stroke-linecap="round" stroke-linejoin="round" stroke-width="0.5"/>
        <line id="Línea_2308" data-name="Línea 2308" x2="34.704" transform="translate(6.053 185.594)" fill="none" stroke="#1d1d1b" stroke-linecap="round" stroke-miterlimit="10" stroke-width="2"/>
        <line id="Línea_2309" data-name="Línea 2309" x2="34.704" transform="translate(6.053 194.1)" fill="none" stroke="#1d1d1b" stroke-linecap="round" stroke-miterlimit="10" stroke-width="2"/>
        <line id="Línea_2310" data-name="Línea 2310" x2="34.704" transform="translate(6.053 202.606)" fill="none" stroke="#1d1d1b" stroke-linecap="round" stroke-miterlimit="10" stroke-width="2"/>
        <line id="Línea_2311" data-name="Línea 2311" x2="27.863" transform="translate(6.053 189.847)" fill="none" stroke="#1d1d1b" stroke-linecap="round" stroke-miterlimit="10" stroke-width="2"/>
        <line id="Línea_2312" data-name="Línea 2312" x2="27.863" transform="translate(6.053 198.353)" fill="none" stroke="#1d1d1b" stroke-linecap="round" stroke-miterlimit="10" stroke-width="2"/>
      </g>
    </g>
    <rect id="Rectángulo_345544" data-name="Rectángulo 345544" width="418" height="319" transform="translate(-6031 -8971)" fill="none"/>
  </g>
</svg>
