<svg xmlns="http://www.w3.org/2000/svg" xmlns:xlink="http://www.w3.org/1999/xlink" width="388" height="360.642" viewBox="0 0 388 360.642">
  <defs>
    <clipPath id="clip-path">
      <path id="Trazado_697219" data-name="Trazado 697219" d="M101.5,119.579a115,115,0,1,0,115-115,115,115,0,0,0-115,115" transform="translate(-101.498 -4.579)" fill="none"/>
    </clipPath>
    <radialGradient id="radial-gradient" cx="0.371" cy="0.28" r="0.564" gradientTransform="matrix(1, 0, 0, -1, 0, 2.165)" gradientUnits="objectBoundingBox">
      <stop offset="0" stop-color="#f1f2f2"/>
      <stop offset="1" stop-color="#dadbdc"/>
    </radialGradient>
    <clipPath id="clip-path-2">
      <path id="Trazado_697222" data-name="Trazado 697222" d="M101.5,119.579a115,115,0,1,0,115-115,115,115,0,0,0-115,115" transform="translate(-101.5 -4.579)" fill="none"/>
    </clipPath>
    <clipPath id="clip-path-3">
      <rect id="Rectángulo_344586" data-name="Rectángulo 344586" width="72.981" height="152.939" fill="none"/>
    </clipPath>
    <clipPath id="clip-path-4">
      <rect id="Rectángulo_344579" data-name="Rectángulo 344579" width="43.76" height="17.91" fill="none"/>
    </clipPath>
    <clipPath id="clip-path-5">
      <rect id="Rectángulo_344580" data-name="Rectángulo 344580" width="11.464" height="17.572" fill="none"/>
    </clipPath>
    <clipPath id="clip-path-6">
      <rect id="Rectángulo_344581" data-name="Rectángulo 344581" width="1.501" height="14.053" fill="none"/>
    </clipPath>
    <clipPath id="clip-path-7">
      <rect id="Rectángulo_344582" data-name="Rectángulo 344582" width="1.501" height="14.167" fill="none"/>
    </clipPath>
    <clipPath id="clip-path-8">
      <rect id="Rectángulo_344593" data-name="Rectángulo 344593" width="49.687" height="89.066" fill="none"/>
    </clipPath>
    <clipPath id="clip-path-9">
      <rect id="Rectángulo_344589" data-name="Rectángulo 344589" width="42.418" height="17.361" fill="none"/>
    </clipPath>
    <clipPath id="clip-path-10">
      <rect id="Rectángulo_344590" data-name="Rectángulo 344590" width="11.112" height="17.032" fill="none"/>
    </clipPath>
    <clipPath id="clip-path-11">
      <rect id="Rectángulo_344591" data-name="Rectángulo 344591" width="1.455" height="13.622" fill="none"/>
    </clipPath>
    <clipPath id="clip-path-12">
      <rect id="Rectángulo_344592" data-name="Rectángulo 344592" width="1.455" height="13.733" fill="none"/>
    </clipPath>
    <clipPath id="clip-path-13">
      <rect id="Rectángulo_344600" data-name="Rectángulo 344600" width="50.325" height="82.821" fill="none"/>
    </clipPath>
    <clipPath id="clip-path-14">
      <rect id="Rectángulo_344596" data-name="Rectángulo 344596" width="37.448" height="15.327" fill="none"/>
    </clipPath>
    <clipPath id="clip-path-15">
      <rect id="Rectángulo_344597" data-name="Rectángulo 344597" width="9.81" height="15.037" fill="none"/>
    </clipPath>
    <clipPath id="clip-path-16">
      <rect id="Rectángulo_344598" data-name="Rectángulo 344598" width="1.285" height="12.026" fill="none"/>
    </clipPath>
    <clipPath id="clip-path-18">
      <rect id="Rectángulo_344607" data-name="Rectángulo 344607" width="46.245" height="80.379" fill="none"/>
    </clipPath>
    <clipPath id="clip-path-19">
      <rect id="Rectángulo_344603" data-name="Rectángulo 344603" width="35.89" height="14.689" fill="none"/>
    </clipPath>
    <clipPath id="clip-path-20">
      <rect id="Rectángulo_344604" data-name="Rectángulo 344604" width="9.402" height="14.411" fill="none"/>
    </clipPath>
    <clipPath id="clip-path-21">
      <rect id="Rectángulo_344605" data-name="Rectángulo 344605" width="1.231" height="11.526" fill="none"/>
    </clipPath>
    <clipPath id="clip-path-23">
      <rect id="Rectángulo_344615" data-name="Rectángulo 344615" width="43.341" height="77.94" fill="none"/>
    </clipPath>
    <clipPath id="clip-path-24">
      <rect id="Rectángulo_344611" data-name="Rectángulo 344611" width="37" height="15.143" fill="none"/>
    </clipPath>
    <clipPath id="clip-path-25">
      <rect id="Rectángulo_344612" data-name="Rectángulo 344612" width="9.693" height="14.857" fill="none"/>
    </clipPath>
    <clipPath id="clip-path-26">
      <rect id="Rectángulo_344613" data-name="Rectángulo 344613" width="1.269" height="11.882" fill="none"/>
    </clipPath>
  </defs>
  <g id="Grupo_1006161" data-name="Grupo 1006161" transform="translate(7327 7044.263)">
    <g id="Grupo_998175" data-name="Grupo 998175" transform="translate(-7242 -6972.647)" clip-path="url(#clip-path)">
      <rect id="Rectángulo_344576" data-name="Rectángulo 344576" width="229.999" height="230" transform="translate(0 0)" fill="url(#radial-gradient)"/>
    </g>
    <g id="Grupo_998177" data-name="Grupo 998177" transform="translate(-7241.999 -6972.647)" clip-path="url(#clip-path-2)">
      <path id="Trazado_697220" data-name="Trazado 697220" d="M0,168.446V226.1H378.778V168.446Z" transform="translate(-70.238 -55.051)" fill="#003893"/>
      <path id="Trazado_697221" data-name="Trazado 697221" d="M0,85.127v57.656H378.778V85.127Z" transform="translate(-70.238 -29.388)" fill="#ffce00"/>
      <rect id="Rectángulo_344577" data-name="Rectángulo 344577" width="378.778" height="61.298" transform="translate(-70.238 171.052)" fill="#ce1126"/>
      <rect id="Rectángulo_344578" data-name="Rectángulo 344578" width="378.778" height="58.907" transform="translate(-70.238 -3.168)" fill="#ffce00"/>
    </g>
    <path id="Trazado_741561" data-name="Trazado 741561" d="M.967,0V-12.8H5.089a6.064,6.064,0,0,1,3.05.769,5.406,5.406,0,0,1,2.114,2.171,6.554,6.554,0,0,1,.769,3.142v.589a6.592,6.592,0,0,1-.743,3.151A5.429,5.429,0,0,1,8.187-.8a5.93,5.93,0,0,1-3.01.8ZM4.052-10.415v8.042H5.124a2.4,2.4,0,0,0,2.039-.945,4.63,4.63,0,0,0,.712-2.808V-6.68a4.592,4.592,0,0,0-.712-2.795,2.442,2.442,0,0,0-2.074-.94ZM15.592,0H12.621V-9.51h2.971ZM12.445-11.971a1.334,1.334,0,0,1,.457-1.043,1.718,1.718,0,0,1,1.187-.407,1.718,1.718,0,0,1,1.187.407,1.334,1.334,0,0,1,.457,1.043,1.334,1.334,0,0,1-.457,1.043,1.718,1.718,0,0,1-1.187.407,1.718,1.718,0,0,1-1.187-.407A1.334,1.334,0,0,1,12.445-11.971ZM22.772,0a3.344,3.344,0,0,1-.281-.853A2.754,2.754,0,0,1,20.206.176a3.374,3.374,0,0,1-2.285-.813,2.588,2.588,0,0,1-.94-2.043,2.66,2.66,0,0,1,1.143-2.338,5.821,5.821,0,0,1,3.322-.791h.914v-.5q0-1.316-1.134-1.316a.927.927,0,0,0-1.055,1.042H17.209a2.655,2.655,0,0,1,1.173-2.239,4.931,4.931,0,0,1,2.993-.86,4.323,4.323,0,0,1,2.874.888A3.086,3.086,0,0,1,25.33-6.363v4.21a4.311,4.311,0,0,0,.4,2V0ZM20.918-1.934a1.652,1.652,0,0,0,.918-.237,1.487,1.487,0,0,0,.523-.536V-4.228H21.5q-1.547,0-1.547,1.389a.848.848,0,0,0,.272.655A.986.986,0,0,0,20.918-1.934ZM30.094,0H27.123V-13.5h2.971Zm6.425.176a4.889,4.889,0,0,1-3.542-1.305,4.507,4.507,0,0,1-1.354-3.4v-.246a5.84,5.84,0,0,1,.541-2.575,3.955,3.955,0,0,1,1.578-1.727A4.763,4.763,0,0,1,36.2-9.686a4.117,4.117,0,0,1,3.164,1.244,4.887,4.887,0,0,1,1.16,3.467v1.151H34.638a2.135,2.135,0,0,0,.694,1.257,2.066,2.066,0,0,0,1.389.457,2.662,2.662,0,0,0,2.2-.984l1.354,1.6A3.784,3.784,0,0,1,38.7-.277,5.3,5.3,0,0,1,36.519.176ZM36.185-7.4q-1.3,0-1.547,1.723h2.988v-.229a1.467,1.467,0,0,0-.36-1.1A1.434,1.434,0,0,0,36.185-7.4Zm9.554,5.291a1.317,1.317,0,0,0,.967-.338,1.241,1.241,0,0,0,.334-.945h2.777A3.288,3.288,0,0,1,48.7-.826a4.168,4.168,0,0,1-2.887,1,4.22,4.22,0,0,1-3.27-1.3,5.125,5.125,0,0,1-1.2-3.6v-.123A5.792,5.792,0,0,1,41.875-7.4a3.872,3.872,0,0,1,1.534-1.7,4.573,4.573,0,0,1,2.373-.593,4.116,4.116,0,0,1,2.944,1.028,3.647,3.647,0,0,1,1.09,2.786H47.039A1.626,1.626,0,0,0,46.679-7a1.244,1.244,0,0,0-.967-.4q-1.151,0-1.345,1.468a10.357,10.357,0,0,0-.062,1.283,4.068,4.068,0,0,0,.343,1.986A1.187,1.187,0,0,0,45.738-2.109Zm8.78-9.765V-9.51h1.564v2.057H54.519V-3.1a1.111,1.111,0,0,0,.193.747,1.037,1.037,0,0,0,.765.211,4.345,4.345,0,0,0,.738-.053V-.079a5.466,5.466,0,0,1-1.67.255,3.1,3.1,0,0,1-2.259-.721,2.954,2.954,0,0,1-.729-2.188v-4.72H50.344V-9.51h1.213v-2.364ZM56.61-4.843a5.613,5.613,0,0,1,.554-2.536,3.96,3.96,0,0,1,1.591-1.709,4.791,4.791,0,0,1,2.435-.6,4.373,4.373,0,0,1,3.366,1.323,5.076,5.076,0,0,1,1.23,3.6v.105a4.925,4.925,0,0,1-1.235,3.529A4.384,4.384,0,0,1,61.207.176a4.434,4.434,0,0,1-3.261-1.217,4.761,4.761,0,0,1-1.327-3.3Zm2.962.185a3.538,3.538,0,0,0,.413,1.934,1.376,1.376,0,0,0,1.222.615q1.582,0,1.617-2.435v-.3q0-2.558-1.635-2.558-1.485,0-1.608,2.206Zm12.5,1.986a.684.684,0,0,0-.4-.606,6.016,6.016,0,0,0-1.5-.475A6.853,6.853,0,0,1,68.344-4.4a3.062,3.062,0,0,1-1.1-.971,2.319,2.319,0,0,1-.378-1.31,2.628,2.628,0,0,1,1.081-2.158,4.453,4.453,0,0,1,2.83-.848,4.934,4.934,0,0,1,3.023.853,2.666,2.666,0,0,1,1.143,2.241H71.974q0-1.143-1.2-1.143a1.194,1.194,0,0,0-.782.259.8.8,0,0,0-.316.646.737.737,0,0,0,.387.642,3.654,3.654,0,0,0,1.235.4,10.671,10.671,0,0,1,1.49.378A2.706,2.706,0,0,1,74.927-2.76,2.491,2.491,0,0,1,73.771-.642a5.068,5.068,0,0,1-2.993.817A5.172,5.172,0,0,1,68.6-.264a3.645,3.645,0,0,1-1.494-1.2,2.707,2.707,0,0,1-.536-1.591h2.769a1.145,1.145,0,0,0,.439.962,1.808,1.808,0,0,0,1.081.3,1.422,1.422,0,0,0,.91-.246A.787.787,0,0,0,72.07-2.672ZM85.395.176a4.889,4.889,0,0,1-3.542-1.305,4.507,4.507,0,0,1-1.354-3.4v-.246a5.84,5.84,0,0,1,.541-2.575,3.955,3.955,0,0,1,1.578-1.727,4.763,4.763,0,0,1,2.461-.611,4.117,4.117,0,0,1,3.164,1.244A4.887,4.887,0,0,1,89.4-4.975v1.151H83.514a2.135,2.135,0,0,0,.694,1.257,2.066,2.066,0,0,0,1.389.457,2.662,2.662,0,0,0,2.2-.984l1.354,1.6A3.784,3.784,0,0,1,87.579-.277,5.3,5.3,0,0,1,85.395.176ZM85.061-7.4q-1.3,0-1.547,1.723H86.5v-.229a1.467,1.467,0,0,0-.36-1.1A1.434,1.434,0,0,0,85.061-7.4ZM93.313-9.51l.1,1.116a3.225,3.225,0,0,1,2.716-1.292,2.713,2.713,0,0,1,2.219.888,4.226,4.226,0,0,1,.76,2.672V0H96.135V-6a1.6,1.6,0,0,0-.29-1.059A1.342,1.342,0,0,0,94.79-7.4a1.413,1.413,0,0,0-1.292.686V0H90.536V-9.51Zm22.4,5.177A4.673,4.673,0,0,1,115-1.973a4.35,4.35,0,0,1-1.85,1.586,6.3,6.3,0,0,1-2.72.563,5.025,5.025,0,0,1-3.973-1.644A6.786,6.786,0,0,1,105-6.108v-.633a7.746,7.746,0,0,1,.655-3.292,4.961,4.961,0,0,1,1.885-2.18,5.26,5.26,0,0,1,2.848-.769,5.516,5.516,0,0,1,3.744,1.226,4.844,4.844,0,0,1,1.608,3.379h-3.076a2.292,2.292,0,0,0-.589-1.679,2.422,2.422,0,0,0-1.687-.51A1.843,1.843,0,0,0,108.7-9.7a5.536,5.536,0,0,0-.562,2.751v.905a6.126,6.126,0,0,0,.514,2.927,1.882,1.882,0,0,0,1.771.879,2.369,2.369,0,0,0,1.626-.5,2.126,2.126,0,0,0,.6-1.591Zm.949-.51a5.613,5.613,0,0,1,.554-2.536,3.96,3.96,0,0,1,1.591-1.709,4.791,4.791,0,0,1,2.435-.6,4.373,4.373,0,0,1,3.366,1.323,5.076,5.076,0,0,1,1.23,3.6v.105a4.925,4.925,0,0,1-1.235,3.529A4.384,4.384,0,0,1,121.263.176,4.434,4.434,0,0,1,118-1.042a4.761,4.761,0,0,1-1.327-3.3Zm2.962.185a3.538,3.538,0,0,0,.413,1.934,1.376,1.376,0,0,0,1.222.615q1.582,0,1.617-2.435v-.3q0-2.558-1.635-2.558-1.485,0-1.608,2.206ZM130.271,0H127.3V-13.5h2.971Zm1.45-4.843a5.613,5.613,0,0,1,.554-2.536,3.96,3.96,0,0,1,1.591-1.709,4.791,4.791,0,0,1,2.435-.6,4.373,4.373,0,0,1,3.366,1.323,5.076,5.076,0,0,1,1.23,3.6v.105a4.925,4.925,0,0,1-1.235,3.529A4.384,4.384,0,0,1,136.318.176a4.434,4.434,0,0,1-3.261-1.217,4.761,4.761,0,0,1-1.327-3.3Zm2.962.185a3.538,3.538,0,0,0,.413,1.934,1.376,1.376,0,0,0,1.222.615q1.582,0,1.617-2.435v-.3q0-2.558-1.635-2.558-1.485,0-1.608,2.206ZM145-9.51l.1,1.116a3.27,3.27,0,0,1,2.716-1.292,2.407,2.407,0,0,1,2.435,1.433,3.165,3.165,0,0,1,2.795-1.433q2.892,0,2.971,3.5V0h-2.971V-6a1.813,1.813,0,0,0-.246-1.063,1.048,1.048,0,0,0-.9-.334,1.4,1.4,0,0,0-1.31.782l.009.123V0H147.63V-5.985a1.906,1.906,0,0,0-.237-1.081,1.045,1.045,0,0,0-.905-.334,1.42,1.42,0,0,0-1.3.782V0h-2.962V-9.51Zm21.533,4.834a5.8,5.8,0,0,1-.967,3.595A3.238,3.238,0,0,1,162.844.176a2.81,2.81,0,0,1-2.338-1.151L160.383,0h-2.654V-13.5h2.962v4.755a2.711,2.711,0,0,1,2.136-.94,3.239,3.239,0,0,1,2.742,1.274,5.826,5.826,0,0,1,.967,3.586Zm-2.971-.189a3.866,3.866,0,0,0-.365-1.952,1.229,1.229,0,0,0-1.121-.584,1.418,1.418,0,0,0-1.389.763v3.773a1.426,1.426,0,0,0,1.406.755,1.258,1.258,0,0,0,1.327-1.018A7.309,7.309,0,0,0,163.564-4.865ZM170.965,0h-2.971V-9.51h2.971Zm-3.146-11.971a1.334,1.334,0,0,1,.457-1.043,1.718,1.718,0,0,1,1.187-.407,1.718,1.718,0,0,1,1.187.407,1.334,1.334,0,0,1,.457,1.043,1.334,1.334,0,0,1-.457,1.043,1.718,1.718,0,0,1-1.187.407,1.718,1.718,0,0,1-1.187-.407A1.334,1.334,0,0,1,167.818-11.971ZM178.146,0a3.344,3.344,0,0,1-.281-.853A2.754,2.754,0,0,1,175.579.176a3.374,3.374,0,0,1-2.285-.813,2.588,2.588,0,0,1-.94-2.043A2.66,2.66,0,0,1,173.5-5.019a5.821,5.821,0,0,1,3.322-.791h.914v-.5q0-1.316-1.134-1.316a.927.927,0,0,0-1.055,1.042h-2.962a2.655,2.655,0,0,1,1.173-2.239,4.931,4.931,0,0,1,2.993-.86,4.323,4.323,0,0,1,2.874.888A3.086,3.086,0,0,1,180.7-6.363v4.21a4.311,4.311,0,0,0,.4,2V0Zm-1.854-1.934a1.652,1.652,0,0,0,.918-.237,1.487,1.487,0,0,0,.523-.536V-4.228h-.861q-1.547,0-1.547,1.389a.848.848,0,0,0,.272.655A.986.986,0,0,0,176.291-1.934Z" transform="translate(-7216 -6826)" fill="#fff"/>
    <g id="Grupo_998300" data-name="Grupo 998300" transform="translate(-7274.211 -7044.263)" clip-path="url(#clip-path-3)">
      <path id="Trazado_697223" data-name="Trazado 697223" d="M28.26,127.46c-6.416-5.527-8.873-15.157-6.456-23.273a9.056,9.056,0,0,1-.889-7.65L22.682,98.3A8.846,8.846,0,0,1,23.8,92.172c3.766,4.1,9.494,5.793,15.027,6.387s11.153.267,16.643,1.17c2.549.419,5.361,1.341,6.474,3.672a4.362,4.362,0,0,1,3.821,1.47,8.1,8.1,0,0,1,1.637,3.767,21.25,21.25,0,0,1-1.816,12.551,59,59,0,0,1-6.811,10.9A42.843,42.843,0,0,1,37.577,130.2c-2.87-1.022-6.29-2.392-9.317-2.74" transform="translate(-7.472 -33.678)" fill="#593000"/>
      <path id="Trazado_697224" data-name="Trazado 697224" d="M69.042,213.138c0,7.123-51.26,7.123-51.26,0v-15.25a18.512,18.512,0,0,1,18.512-18.512H50.53a18.512,18.512,0,0,1,18.512,18.512Z" transform="translate(-6.497 -65.541)" fill="#ff9425"/>
      <g id="Grupo_998285" data-name="Grupo 998285" transform="translate(18.691 113.834)" opacity="0.1">
        <g id="Grupo_998284" data-name="Grupo 998284">
          <g id="Grupo_998283" data-name="Grupo 998283" clip-path="url(#clip-path-4)">
            <path id="Trazado_697225" data-name="Trazado 697225" d="M54.794,179.375H40.557a18.433,18.433,0,0,0-11.106,3.7,45.346,45.346,0,0,0,43.762,12.94,18.516,18.516,0,0,0-18.419-16.641" transform="translate(-29.452 -179.375)"/>
          </g>
        </g>
      </g>
      <path id="Trazado_697226" data-name="Trazado 697226" d="M60.6,173.5h0a10.155,10.155,0,0,1-11.464,0V153.3H60.6Z" transform="translate(-17.954 -56.014)" fill="#d9ab82"/>
      <g id="Grupo_998288" data-name="Grupo 998288" transform="translate(31.183 99.489)" opacity="0.1">
        <g id="Grupo_998287" data-name="Grupo 998287">
          <g id="Grupo_998286" data-name="Grupo 998286" clip-path="url(#clip-path-5)">
            <path id="Trazado_697227" data-name="Trazado 697227" d="M49.137,170.432a37.164,37.164,0,0,0,11.464,3.91V157.21c-.538-.1-1.079-.178-1.616-.235a42.912,42.912,0,0,0-9.848.18Z" transform="translate(-49.137 -156.771)"/>
          </g>
        </g>
      </g>
      <path id="Trazado_697228" data-name="Trazado 697228" d="M32.883,141.391a5.729,5.729,0,1,1-5.729-5.729,5.729,5.729,0,0,1,5.729,5.729" transform="translate(-7.828 -49.569)" fill="#d9ab82"/>
      <path id="Trazado_697229" data-name="Trazado 697229" d="M31.691,143.009a2.92,2.92,0,1,1-2.92-2.92,2.92,2.92,0,0,1,2.92,2.92" transform="translate(-9.446 -51.187)" fill="#cca17a"/>
      <path id="Trazado_697230" data-name="Trazado 697230" d="M88.316,141.391a5.729,5.729,0,1,1-5.729-5.729,5.729,5.729,0,0,1,5.729,5.729" transform="translate(-28.083 -49.569)" fill="#d9ab82"/>
      <path id="Trazado_697231" data-name="Trazado 697231" d="M87.125,143.009a2.92,2.92,0,1,1-2.92-2.92,2.92,2.92,0,0,1,2.92,2.92" transform="translate(-29.7 -51.187)" fill="#cca17a"/>
      <path id="Trazado_697232" data-name="Trazado 697232" d="M48.042,155.532h0a17.589,17.589,0,0,1-17.59-17.59V124.6a10.48,10.48,0,0,1,10.48-10.48H55.151a10.48,10.48,0,0,1,10.48,10.48v13.341a17.59,17.59,0,0,1-17.59,17.59" transform="translate(-11.127 -41.699)" fill="#ecba8e"/>
      <path id="Trazado_697233" data-name="Trazado 697233" d="M45.563,145.09c0,1.4-.664,2.538-1.482,2.538S42.6,146.492,42.6,145.09s.664-2.538,1.482-2.538,1.482,1.136,1.482,2.538" transform="translate(-15.565 -52.087)" fill="#57311a"/>
      <path id="Trazado_697234" data-name="Trazado 697234" d="M44.785,145.516a.766.766,0,1,1-.767-.767.767.767,0,0,1,.767.767" transform="translate(-15.804 -52.889)" fill="#fff"/>
      <path id="Trazado_697235" data-name="Trazado 697235" d="M45.7,148.428a.383.383,0,1,1-.383-.383.383.383,0,0,1,.383.383" transform="translate(-16.418 -54.094)" fill="#fff"/>
      <path id="Trazado_697236" data-name="Trazado 697236" d="M72.033,145.09c0,1.4-.664,2.538-1.482,2.538s-1.482-1.136-1.482-2.538.664-2.538,1.482-2.538,1.482,1.136,1.482,2.538" transform="translate(-25.237 -52.087)" fill="#57311a"/>
      <path id="Trazado_697237" data-name="Trazado 697237" d="M71.254,145.516a.766.766,0,1,1-.767-.767.767.767,0,0,1,.767.767" transform="translate(-25.475 -52.889)" fill="#fff"/>
      <path id="Trazado_697238" data-name="Trazado 697238" d="M72.17,148.428a.383.383,0,1,1-.383-.383.383.383,0,0,1,.383.383" transform="translate(-26.09 -54.094)" fill="#fff"/>
      <path id="Trazado_697239" data-name="Trazado 697239" d="M41.274,153.571c0,.993-1.893,1.8-4.228,1.8s-4.228-.805-4.228-1.8,1.893-1.8,4.228-1.8,4.228.8,4.228,1.8" transform="translate(-11.991 -55.456)" fill="#ffac7f"/>
      <path id="Trazado_697240" data-name="Trazado 697240" d="M78.652,153.571c0,.993-1.893,1.8-4.228,1.8s-4.228-.805-4.228-1.8,1.893-1.8,4.228-1.8,4.228.8,4.228,1.8" transform="translate(-25.649 -55.456)" fill="#ffac7f"/>
      <path id="Trazado_697241" data-name="Trazado 697241" d="M58.857,150.839a1.621,1.621,0,1,1-1.621-1.621,1.621,1.621,0,0,1,1.621,1.621" transform="translate(-20.321 -54.522)" fill="#ffac7f"/>
      <g id="Grupo_998291" data-name="Grupo 998291" transform="translate(19.701 137.775)" opacity="0.1">
        <g id="Grupo_998290" data-name="Grupo 998290">
          <g id="Grupo_998289" data-name="Grupo 998289" clip-path="url(#clip-path-6)">
            <path id="Trazado_697242" data-name="Trazado 697242" d="M31.795,217.1h0a.751.751,0,0,0-.751.751v13.3h1.5v-13.3a.751.751,0,0,0-.751-.751" transform="translate(-31.044 -217.1)"/>
          </g>
        </g>
      </g>
      <g id="Grupo_998294" data-name="Grupo 998294" transform="translate(52.627 137.775)" opacity="0.1">
        <g id="Grupo_998293" data-name="Grupo 998293">
          <g id="Grupo_998292" data-name="Grupo 998292" clip-path="url(#clip-path-7)">
            <path id="Trazado_697243" data-name="Trazado 697243" d="M83.679,217.1h0a.751.751,0,0,0-.751.751v13.417h1.5V217.851a.751.751,0,0,0-.751-.751" transform="translate(-82.928 -217.1)"/>
          </g>
        </g>
      </g>
      <path id="Trazado_697244" data-name="Trazado 697244" d="M45.133,158.578a8.389,8.389,0,0,0,16.546,0Z" transform="translate(-16.491 -57.942)" fill="#b8916e"/>
      <path id="Trazado_697245" data-name="Trazado 697245" d="M60.931,163.319a10.01,10.01,0,0,0-13.024,0,8.374,8.374,0,0,0,13.024,0" transform="translate(-17.505 -58.795)" fill="#ffac7f"/>
      <path id="Trazado_697246" data-name="Trazado 697246" d="M61.094,160.525a8.356,8.356,0,0,0,.584-1.948H45.133a8.357,8.357,0,0,0,.584,1.948Z" transform="translate(-16.491 -57.942)" fill="#fff"/>
      <path id="Trazado_697247" data-name="Trazado 697247" d="M85.19,108.136a13.934,13.934,0,0,1,1.973-6.312c.419.253.8.454,1.215.706-1,1.786-2.192,3.82-3.188,5.606" transform="translate(-31.127 -37.205)" fill="#593000"/>
      <path id="Trazado_697248" data-name="Trazado 697248" d="M84.779,109.413a10.77,10.77,0,0,1,3.817-3.394c.178.334.346.617.524.951-1.369.786-2.971,1.656-4.34,2.443" transform="translate(-30.977 -38.738)" fill="#593000"/>
      <path id="Trazado_697249" data-name="Trazado 697249" d="M25.851,124.527l2.92,9.557,8.122-22.718H28.771Z" transform="translate(-9.446 -40.692)" fill="#593000"/>
      <path id="Trazado_697250" data-name="Trazado 697250" d="M84.135,124.527l-2.92,9.557-8.122-22.718h8.122Z" transform="translate(-26.707 -40.692)" fill="#593000"/>
      <path id="Trazado_697251" data-name="Trazado 697251" d="M29.946,125.069c4.881,1.495,10.133.355,15.107-.791a49.02,49.02,0,0,0,11.124-3.514,11.655,11.655,0,0,0,8.937,4.637,15.386,15.386,0,0,1,.661-5,8.443,8.443,0,0,0-.084-5.014c-.847-2-2.931-3.166-4.933-4.014-6.719-2.843-14.084-3.823-21.374-4.128a11.272,11.272,0,0,0-5.187.636,7.945,7.945,0,0,0-4.037,5.241,23.546,23.546,0,0,0-.511,6.787c.031,1.409.155,3.763.3,5.165" transform="translate(-10.823 -39.172)" fill="#593000"/>
    </g>
    <path id="Trazado_741562" data-name="Trazado 741562" d="M0,0H72.981V105.351H0Z" transform="translate(-7274.211 -6996.676)" fill="none"/>
    <path id="Trazado_741563" data-name="Trazado 741563" d="M0,0H104V41H0Z" transform="translate(-7305 -7038)" fill="#fff"/>
    <path id="Trazado_741564" data-name="Trazado 741564" d="M0,0H104V41H0Z" transform="translate(-7327 -6832)" fill="#fff"/>
    <path id="Trazado_741565" data-name="Trazado 741565" d="M0,0H80V28H0Z" transform="translate(-7087 -7028)" fill="#fff"/>
    <path id="Trazado_741566" data-name="Trazado 741566" d="M0,0H80V28H0Z" transform="translate(-7019 -6870)" fill="#fff"/>
    <path id="Trazado_741567" data-name="Trazado 741567" d="M0,0H80V28H0Z" transform="translate(-7170 -6796)" fill="#fff"/>
    <path id="Trazado_741568" data-name="Trazado 741568" d="M1.252-4.563h2l.315,7.288H.938ZM3.64-6.833a1.137,1.137,0,0,1-.392.89,1.419,1.419,0,0,1-.978.348,1.419,1.419,0,0,1-.978-.348A1.137,1.137,0,0,1,.9-6.833a1.137,1.137,0,0,1,.392-.89,1.419,1.419,0,0,1,.978-.348,1.419,1.419,0,0,1,.978.348A1.137,1.137,0,0,1,3.64-6.833Zm8.284,2.307H7.881v2.549h4.775V0H5.31V-10.664h7.361v1.985H7.881v2.249h4.043ZM16-7.075a2.47,2.47,0,0,1,2.021-1A2.463,2.463,0,0,1,20-7.295,3.488,3.488,0,0,1,20.684-5V0H18.208V-4.944a1.4,1.4,0,0,0-.256-.927,1.1,1.1,0,0,0-.872-.3A1.186,1.186,0,0,0,16-5.684V0H13.535V-11.25H16ZM31.963-1.992H28.44L27.825,0H25.078l3.911-10.664h2.417L35.347,0H32.585ZM29.055-3.977h2.292l-1.15-3.7ZM38.8-2.937l1.252-4.988h2.6L40.071,0h-2.52L34.966-7.925h2.607ZM47.131.146A4.074,4.074,0,0,1,44.18-.941a3.756,3.756,0,0,1-1.128-2.831v-.205a4.867,4.867,0,0,1,.45-2.146,3.3,3.3,0,0,1,1.315-1.439,3.969,3.969,0,0,1,2.051-.509A3.43,3.43,0,0,1,49.5-7.035a4.073,4.073,0,0,1,.967,2.889v.959H45.564a1.779,1.779,0,0,0,.579,1.047,1.722,1.722,0,0,0,1.157.381,2.218,2.218,0,0,0,1.831-.82l1.128,1.333A3.153,3.153,0,0,1,48.951-.231,4.418,4.418,0,0,1,47.131.146Zm-.278-6.313q-1.084,0-1.289,1.436h2.49v-.19a1.223,1.223,0,0,0-.3-.919A1.2,1.2,0,0,0,46.853-6.167Zm11.836-4.5,2.38,7.419,2.373-7.419h3.384V0H64.248V-2.49l.249-5.1L61.919,0h-1.7L57.634-7.6l.249,5.1V0H55.313V-10.664ZM72.81,0a2.787,2.787,0,0,1-.234-.71,2.3,2.3,0,0,1-1.9.857,2.812,2.812,0,0,1-1.9-.677,2.156,2.156,0,0,1-.784-1.7,2.216,2.216,0,0,1,.952-1.948A4.851,4.851,0,0,1,71.7-4.841h.762v-.42q0-1.1-.945-1.1a.772.772,0,0,0-.879.868H68.174a2.213,2.213,0,0,1,.978-1.865,4.109,4.109,0,0,1,2.494-.717,3.6,3.6,0,0,1,2.4.74,2.572,2.572,0,0,1,.9,2.029v3.508a3.593,3.593,0,0,0,.337,1.67V0ZM71.265-1.611a1.377,1.377,0,0,0,.765-.2,1.239,1.239,0,0,0,.436-.447V-3.523h-.718q-1.289,0-1.289,1.157a.707.707,0,0,0,.227.546A.822.822,0,0,0,71.265-1.611ZM81.1-5.691l-.813-.059a1.46,1.46,0,0,0-1.494.732V0H76.326V-7.925H78.64l.081,1.018a1.911,1.911,0,0,1,1.736-1.165,2.407,2.407,0,0,1,.688.088ZM84.683,0H82.2V-7.925h2.483ZM83.76-11.1h2.607L84.331-8.8l-2.014,0ZM90.732,0A2.787,2.787,0,0,1,90.5-.71a2.3,2.3,0,0,1-1.9.857,2.812,2.812,0,0,1-1.9-.677,2.156,2.156,0,0,1-.784-1.7,2.216,2.216,0,0,1,.952-1.948,4.851,4.851,0,0,1,2.769-.659h.762v-.42q0-1.1-.945-1.1a.772.772,0,0,0-.879.868H86.1a2.213,2.213,0,0,1,.978-1.865,4.109,4.109,0,0,1,2.494-.717,3.6,3.6,0,0,1,2.4.74,2.572,2.572,0,0,1,.9,2.029v3.508A3.593,3.593,0,0,0,93.2-.125V0ZM89.187-1.611a1.377,1.377,0,0,0,.765-.2,1.239,1.239,0,0,0,.436-.447V-3.523H89.67q-1.289,0-1.289,1.157a.707.707,0,0,0,.227.546A.822.822,0,0,0,89.187-1.611ZM95.1,2.871l-1.245-.586.249-.5a4.062,4.062,0,0,0,.535-1.816V-1.86h1.978L96.606-.271a3.973,3.973,0,0,1-.432,1.714A4.355,4.355,0,0,1,95.1,2.871ZM8.049,12.1a4.779,4.779,0,0,1-.831,2.948,2.665,2.665,0,0,1-2.245,1.1,2.285,2.285,0,0,1-1.794-.8v3.7H.71V8.075H3.018l.073.732a2.285,2.285,0,0,1,1.868-.879,2.687,2.687,0,0,1,2.278,1.08,4.838,4.838,0,0,1,.813,2.97Zm-2.468-.154q0-2.109-1.23-2.109a1.162,1.162,0,0,0-1.172.63v3.12a1.2,1.2,0,0,0,1.187.659q1.179,0,1.216-2.036Zm8.276,3.2a2.545,2.545,0,0,1-2.117,1,2.5,2.5,0,0,1-1.974-.758,3.188,3.188,0,0,1-.67-2.179V8.075h2.468v5.149a.887.887,0,0,0,.989,1.018,1.29,1.29,0,0,0,1.208-.608V8.075h2.483V16H13.931Zm7.573,1a4.074,4.074,0,0,1-2.952-1.088,3.756,3.756,0,0,1-1.128-2.831v-.205a4.867,4.867,0,0,1,.45-2.146,3.3,3.3,0,0,1,1.315-1.439,3.969,3.969,0,0,1,2.051-.509A3.43,3.43,0,0,1,23.8,8.965a4.073,4.073,0,0,1,.967,2.889v.959H19.863a1.779,1.779,0,0,0,.579,1.047,1.722,1.722,0,0,0,1.157.381,2.218,2.218,0,0,0,1.831-.82l1.128,1.333a3.153,3.153,0,0,1-1.307,1.014A4.418,4.418,0,0,1,21.431,16.146Zm-.278-6.313q-1.084,0-1.289,1.436h2.49v-.19a1.223,1.223,0,0,0-.3-.919A1.2,1.2,0,0,0,21.152,9.833Zm8.76,3.94a.57.57,0,0,0-.33-.505,5.013,5.013,0,0,0-1.252-.4,5.711,5.711,0,0,1-1.523-.538,2.552,2.552,0,0,1-.916-.809,1.933,1.933,0,0,1-.315-1.091,2.19,2.19,0,0,1,.9-1.8,3.711,3.711,0,0,1,2.358-.707,4.112,4.112,0,0,1,2.52.71,2.222,2.222,0,0,1,.952,1.868H29.832q0-.952-1-.952a1,1,0,0,0-.652.216.669.669,0,0,0-.264.538.614.614,0,0,0,.322.535,3.045,3.045,0,0,0,1.029.337,8.893,8.893,0,0,1,1.241.315,2.255,2.255,0,0,1,1.787,2.2,2.075,2.075,0,0,1-.963,1.765,4.224,4.224,0,0,1-2.494.681,4.31,4.31,0,0,1-1.816-.366,3.037,3.037,0,0,1-1.245-1,2.256,2.256,0,0,1-.447-1.326h2.307a.954.954,0,0,0,.366.8,1.506,1.506,0,0,0,.9.253,1.185,1.185,0,0,0,.758-.205A.656.656,0,0,0,29.912,13.773Zm5.984-1.15h-2l-.315-7.288h2.629Zm-2.388,2.271A1.137,1.137,0,0,1,33.9,14a1.548,1.548,0,0,1,1.956,0,1.206,1.206,0,0,1,0,1.78,1.548,1.548,0,0,1-1.956,0A1.137,1.137,0,0,1,33.508,14.894Z" transform="translate(-7302 -7019)" fill="#12263f"/>
    <path id="Trazado_741569" data-name="Trazado 741569" d="M1.252-4.563h2l.315,7.288H.938ZM3.64-6.833a1.137,1.137,0,0,1-.392.89,1.419,1.419,0,0,1-.978.348,1.419,1.419,0,0,1-.978-.348A1.137,1.137,0,0,1,.9-6.833a1.137,1.137,0,0,1,.392-.89,1.419,1.419,0,0,1,.978-.348,1.419,1.419,0,0,1,.978.348A1.137,1.137,0,0,1,3.64-6.833Zm10.3,3.223a3.9,3.9,0,0,1-.6,1.967A3.625,3.625,0,0,1,11.8-.322,5.248,5.248,0,0,1,9.529.146a4.188,4.188,0,0,1-3.311-1.37A5.655,5.655,0,0,1,5.01-5.09v-.527a6.455,6.455,0,0,1,.546-2.743,4.134,4.134,0,0,1,1.571-1.816A4.383,4.383,0,0,1,9.5-10.818,4.6,4.6,0,0,1,12.62-9.8,4.037,4.037,0,0,1,13.96-6.98H11.4a1.91,1.91,0,0,0-.491-1.4A2.018,2.018,0,0,0,9.5-8.8a1.536,1.536,0,0,0-1.406.718,4.613,4.613,0,0,0-.469,2.292v.754A5.1,5.1,0,0,0,8.053-2.6a1.568,1.568,0,0,0,1.476.732,1.974,1.974,0,0,0,1.355-.417,1.772,1.772,0,0,0,.5-1.326Zm.791-.425a4.677,4.677,0,0,1,.461-2.113,3.3,3.3,0,0,1,1.326-1.425,3.993,3.993,0,0,1,2.029-.5,3.644,3.644,0,0,1,2.805,1.1,4.23,4.23,0,0,1,1.025,3v.088A4.1,4.1,0,0,1,21.346-.941,3.654,3.654,0,0,1,18.56.146,3.7,3.7,0,0,1,15.842-.868a3.968,3.968,0,0,1-1.106-2.75Zm2.468.154a2.949,2.949,0,0,0,.344,1.611,1.147,1.147,0,0,0,1.018.513q1.318,0,1.348-2.029v-.249q0-2.131-1.362-2.131-1.238,0-1.34,1.838ZM25.73-7.925l.081.93a2.687,2.687,0,0,1,2.263-1.077,2.261,2.261,0,0,1,1.849.74A3.522,3.522,0,0,1,30.557-5.1V0H28.081V-5a1.337,1.337,0,0,0-.242-.883,1.118,1.118,0,0,0-.879-.282,1.177,1.177,0,0,0-1.077.571V0H23.416V-7.925ZM43.015-3.9a4.779,4.779,0,0,1-.831,2.948,2.665,2.665,0,0,1-2.245,1.1,2.285,2.285,0,0,1-1.794-.8v3.7H35.676V-7.925h2.307l.073.732a2.285,2.285,0,0,1,1.868-.879A2.687,2.687,0,0,1,42.2-6.991a4.838,4.838,0,0,1,.813,2.97Zm-2.468-.154q0-2.109-1.23-2.109a1.162,1.162,0,0,0-1.172.63v3.12a1.2,1.2,0,0,0,1.187.659q1.179,0,1.216-2.036Zm7.39,4.2A4.074,4.074,0,0,1,44.985-.941a3.756,3.756,0,0,1-1.128-2.831v-.205a4.867,4.867,0,0,1,.45-2.146,3.3,3.3,0,0,1,1.315-1.439,3.969,3.969,0,0,1,2.051-.509A3.43,3.43,0,0,1,50.31-7.035a4.073,4.073,0,0,1,.967,2.889v.959H46.37a1.779,1.779,0,0,0,.579,1.047,1.722,1.722,0,0,0,1.157.381,2.218,2.218,0,0,0,1.831-.82l1.128,1.333A3.153,3.153,0,0,1,49.757-.231,4.418,4.418,0,0,1,47.937.146Zm-.278-6.313q-1.084,0-1.289,1.436h2.49v-.19a1.223,1.223,0,0,0-.3-.919A1.2,1.2,0,0,0,47.659-6.167Zm9.4.476L56.25-5.75a1.46,1.46,0,0,0-1.494.732V0H52.288V-7.925H54.6l.081,1.018a1.911,1.911,0,0,1,1.736-1.165,2.407,2.407,0,0,1,.688.088Zm3.223-2.234.081.93a2.725,2.725,0,0,1,2.263-1.077,2.006,2.006,0,0,1,2.029,1.194,2.637,2.637,0,0,1,2.329-1.194q2.41,0,2.476,2.915V0H66.987V-5a1.511,1.511,0,0,0-.205-.886.873.873,0,0,0-.747-.278,1.169,1.169,0,0,0-1.091.652l.007.1V0H62.476V-4.988a1.588,1.588,0,0,0-.2-.9.87.87,0,0,0-.754-.278,1.184,1.184,0,0,0-1.084.652V0H57.971V-7.925ZM73.477,0H71V-7.925h2.476ZM70.854-9.976a1.111,1.111,0,0,1,.381-.87,1.432,1.432,0,0,1,.989-.339,1.432,1.432,0,0,1,.989.339,1.111,1.111,0,0,1,.381.87,1.111,1.111,0,0,1-.381.87,1.432,1.432,0,0,1-.989.339,1.432,1.432,0,0,1-.989-.339A1.111,1.111,0,0,1,70.854-9.976Zm8.291,7.749a.57.57,0,0,0-.33-.505,5.013,5.013,0,0,0-1.252-.4,5.711,5.711,0,0,1-1.523-.538,2.552,2.552,0,0,1-.916-.809,1.933,1.933,0,0,1-.315-1.091,2.19,2.19,0,0,1,.9-1.8,3.711,3.711,0,0,1,2.358-.707,4.112,4.112,0,0,1,2.52.71,2.222,2.222,0,0,1,.952,1.868H79.065q0-.952-1-.952a1,1,0,0,0-.652.216.669.669,0,0,0-.264.538.614.614,0,0,0,.322.535,3.045,3.045,0,0,0,1.029.337,8.893,8.893,0,0,1,1.241.315,2.255,2.255,0,0,1,1.787,2.2,2.075,2.075,0,0,1-.963,1.765,4.224,4.224,0,0,1-2.494.681A4.31,4.31,0,0,1,76.252-.22a3.037,3.037,0,0,1-1.245-1,2.256,2.256,0,0,1-.447-1.326h2.307a.954.954,0,0,0,.366.8,1.506,1.506,0,0,0,.9.253,1.185,1.185,0,0,0,.758-.205A.656.656,0,0,0,79.146-2.227Zm3.223-1.809a4.677,4.677,0,0,1,.461-2.113,3.3,3.3,0,0,1,1.326-1.425,3.993,3.993,0,0,1,2.029-.5,3.644,3.644,0,0,1,2.805,1.1,4.23,4.23,0,0,1,1.025,3v.088A4.1,4.1,0,0,1,88.986-.941,3.654,3.654,0,0,1,86.2.146,3.7,3.7,0,0,1,83.481-.868a3.968,3.968,0,0,1-1.106-2.75Zm2.468.154a2.949,2.949,0,0,0,.344,1.611,1.147,1.147,0,0,0,1.018.513q1.318,0,1.348-2.029v-.249q0-2.131-1.362-2.131-1.238,0-1.34,1.838ZM91.97,2.871l-1.245-.586.249-.5a4.062,4.062,0,0,0,.535-1.816V-1.86h1.978L93.479-.271a3.973,3.973,0,0,1-.432,1.714A4.355,4.355,0,0,1,91.97,2.871ZM4.841,13.773a.57.57,0,0,0-.33-.505,5.013,5.013,0,0,0-1.252-.4,5.711,5.711,0,0,1-1.523-.538,2.552,2.552,0,0,1-.916-.809,1.933,1.933,0,0,1-.315-1.091,2.19,2.19,0,0,1,.9-1.8,3.711,3.711,0,0,1,2.358-.707,4.112,4.112,0,0,1,2.52.71,2.222,2.222,0,0,1,.952,1.868H4.761q0-.952-1-.952a1,1,0,0,0-.652.216.669.669,0,0,0-.264.538.614.614,0,0,0,.322.535,3.045,3.045,0,0,0,1.029.337,8.893,8.893,0,0,1,1.241.315,2.255,2.255,0,0,1,1.787,2.2,2.075,2.075,0,0,1-.963,1.765,4.224,4.224,0,0,1-2.494.681,4.31,4.31,0,0,1-1.816-.366,3.037,3.037,0,0,1-1.245-1,2.256,2.256,0,0,1-.447-1.326H2.563a.954.954,0,0,0,.366.8,1.506,1.506,0,0,0,.9.253,1.185,1.185,0,0,0,.758-.205A.656.656,0,0,0,4.841,13.773Zm8.254,1.37a2.545,2.545,0,0,1-2.117,1,2.5,2.5,0,0,1-1.974-.758,3.188,3.188,0,0,1-.67-2.179V8.075H10.8v5.149a.887.887,0,0,0,.989,1.018A1.29,1.29,0,0,0,13,13.634V8.075h2.483V16H13.169Zm6.072-7.068.081.93a2.725,2.725,0,0,1,2.263-1.077A2.006,2.006,0,0,1,23.54,9.123a2.637,2.637,0,0,1,2.329-1.194q2.41,0,2.476,2.915V16H25.869V11a1.511,1.511,0,0,0-.205-.886.873.873,0,0,0-.747-.278,1.169,1.169,0,0,0-1.091.652l.007.1V16H21.357V11.012a1.588,1.588,0,0,0-.2-.9.87.87,0,0,0-.754-.278,1.184,1.184,0,0,0-1.084.652V16H16.853V8.075Zm14.421,8.071a4.074,4.074,0,0,1-2.952-1.088,3.756,3.756,0,0,1-1.128-2.831v-.205a4.867,4.867,0,0,1,.45-2.146,3.3,3.3,0,0,1,1.315-1.439,3.969,3.969,0,0,1,2.051-.509,3.43,3.43,0,0,1,2.637,1.036,4.073,4.073,0,0,1,.967,2.889v.959H32.021a1.779,1.779,0,0,0,.579,1.047,1.722,1.722,0,0,0,1.157.381,2.218,2.218,0,0,0,1.831-.82l1.128,1.333a3.153,3.153,0,0,1-1.307,1.014A4.418,4.418,0,0,1,33.589,16.146Zm-.278-6.313q-1.084,0-1.289,1.436h2.49v-.19a1.223,1.223,0,0,0-.3-.919A1.2,1.2,0,0,0,33.311,9.833Zm9.4.476L41.9,10.25a1.46,1.46,0,0,0-1.494.732V16H37.939V8.075h2.314l.081,1.018A1.911,1.911,0,0,1,42.07,7.929a2.407,2.407,0,0,1,.688.088Zm4.1,3.933a1.1,1.1,0,0,0,.806-.282,1.034,1.034,0,0,0,.278-.787h2.314a2.74,2.74,0,0,1-.934,2.139,3.474,3.474,0,0,1-2.406.835,3.517,3.517,0,0,1-2.725-1.084,4.271,4.271,0,0,1-1-3v-.1a4.827,4.827,0,0,1,.443-2.12,3.226,3.226,0,0,1,1.278-1.414,3.811,3.811,0,0,1,1.978-.494,3.43,3.43,0,0,1,2.454.857,3.039,3.039,0,0,1,.908,2.322H47.9a1.355,1.355,0,0,0-.3-.945,1.037,1.037,0,0,0-.806-.33q-.959,0-1.121,1.223a8.631,8.631,0,0,0-.051,1.069,3.39,3.39,0,0,0,.286,1.655A.989.989,0,0,0,46.816,14.242Zm8.276,1.9a4.074,4.074,0,0,1-2.952-1.088,3.756,3.756,0,0,1-1.128-2.831v-.205a4.867,4.867,0,0,1,.45-2.146,3.3,3.3,0,0,1,1.315-1.439,3.969,3.969,0,0,1,2.051-.509,3.43,3.43,0,0,1,2.637,1.036,4.073,4.073,0,0,1,.967,2.889v.959H53.525a1.779,1.779,0,0,0,.579,1.047,1.722,1.722,0,0,0,1.157.381,2.218,2.218,0,0,0,1.831-.82l1.128,1.333a3.153,3.153,0,0,1-1.307,1.014A4.418,4.418,0,0,1,55.093,16.146Zm-.278-6.313q-1.084,0-1.289,1.436h2.49v-.19a1.223,1.223,0,0,0-.3-.919A1.2,1.2,0,0,0,54.814,9.833Zm-.029-5.09h2.607l-2.036,2.3-2.014,0Zm7.09,7.881h-2l-.315-7.288H62.19Zm-2.388,2.271a1.137,1.137,0,0,1,.392-.89,1.548,1.548,0,0,1,1.956,0,1.206,1.206,0,0,1,0,1.78,1.548,1.548,0,0,1-1.956,0A1.137,1.137,0,0,1,59.487,14.894Z" transform="translate(-7324 -6813)" fill="#12263f"/>
    <path id="Trazado_741570" data-name="Trazado 741570" d="M1.252-4.563h2l.315,7.288H.938ZM3.64-6.833a1.137,1.137,0,0,1-.392.89,1.419,1.419,0,0,1-.978.348,1.419,1.419,0,0,1-.978-.348A1.137,1.137,0,0,1,.9-6.833a1.137,1.137,0,0,1,.392-.89,1.419,1.419,0,0,1,.978-.348,1.419,1.419,0,0,1,.978.348A1.137,1.137,0,0,1,3.64-6.833Zm10.7,1.721a6.289,6.289,0,0,1-.579,2.761A4.276,4.276,0,0,1,12.118-.5,4.579,4.579,0,0,1,9.69.146,4.643,4.643,0,0,1,7.273-.48,4.269,4.269,0,0,1,5.629-2.271,6.108,6.108,0,0,1,5.01-4.944v-.6a6.316,6.316,0,0,1,.575-2.765,4.266,4.266,0,0,1,1.648-1.849,4.61,4.61,0,0,1,2.443-.652,4.566,4.566,0,0,1,2.417.645,4.343,4.343,0,0,1,1.652,1.835,6.135,6.135,0,0,1,.6,2.728Zm-2.615-.447A4.484,4.484,0,0,0,11.2-7.972,1.7,1.7,0,0,0,9.675-8.8q-1.934,0-2.043,2.9l-.007.784a4.612,4.612,0,0,0,.52,2.41A1.7,1.7,0,0,0,9.69-1.86a1.68,1.68,0,0,0,1.5-.828,4.486,4.486,0,0,0,.535-2.38ZM18.157,0H15.681V-11.25h2.476Zm5.354.146A4.074,4.074,0,0,1,20.559-.941a3.756,3.756,0,0,1-1.128-2.831v-.205a4.867,4.867,0,0,1,.45-2.146A3.3,3.3,0,0,1,21.2-7.562a3.969,3.969,0,0,1,2.051-.509,3.43,3.43,0,0,1,2.637,1.036,4.073,4.073,0,0,1,.967,2.889v.959H21.943a1.779,1.779,0,0,0,.579,1.047,1.722,1.722,0,0,0,1.157.381,2.218,2.218,0,0,0,1.831-.82l1.128,1.333A3.153,3.153,0,0,1,25.331-.231,4.418,4.418,0,0,1,23.511.146Zm-.278-6.313q-1.084,0-1.289,1.436h2.49v-.19a1.223,1.223,0,0,0-.3-.919A1.2,1.2,0,0,0,23.232-6.167ZM33.911-7.925l.081.93a2.725,2.725,0,0,1,2.263-1.077,2.006,2.006,0,0,1,2.029,1.194,2.637,2.637,0,0,1,2.329-1.194q2.41,0,2.476,2.915V0H40.613V-5a1.511,1.511,0,0,0-.205-.886.873.873,0,0,0-.747-.278,1.169,1.169,0,0,0-1.091.652l.007.1V0H36.1V-4.988a1.588,1.588,0,0,0-.2-.9.87.87,0,0,0-.754-.278,1.184,1.184,0,0,0-1.084.652V0H31.6V-7.925ZM48.962,0a2.787,2.787,0,0,1-.234-.71,2.3,2.3,0,0,1-1.9.857,2.812,2.812,0,0,1-1.9-.677,2.156,2.156,0,0,1-.784-1.7,2.216,2.216,0,0,1,.952-1.948,4.851,4.851,0,0,1,2.769-.659h.762v-.42q0-1.1-.945-1.1a.772.772,0,0,0-.879.868H44.326A2.213,2.213,0,0,1,45.3-7.354,4.109,4.109,0,0,1,47.8-8.071a3.6,3.6,0,0,1,2.4.74,2.572,2.572,0,0,1,.9,2.029v3.508a3.593,3.593,0,0,0,.337,1.67V0ZM47.417-1.611a1.377,1.377,0,0,0,.765-.2,1.239,1.239,0,0,0,.436-.447V-3.523H47.9q-1.289,0-1.289,1.157a.707.707,0,0,0,.227.546A.822.822,0,0,0,47.417-1.611Zm7.31-6.313.081.93A2.687,2.687,0,0,1,57.07-8.071a2.261,2.261,0,0,1,1.849.74A3.522,3.522,0,0,1,59.553-5.1V0H57.078V-5a1.337,1.337,0,0,0-.242-.883,1.118,1.118,0,0,0-.879-.282A1.177,1.177,0,0,0,54.88-5.6V0H52.412V-7.925Zm5.881,3.889a4.677,4.677,0,0,1,.461-2.113A3.3,3.3,0,0,1,62.4-7.573a3.993,3.993,0,0,1,2.029-.5,3.644,3.644,0,0,1,2.805,1.1,4.23,4.23,0,0,1,1.025,3v.088A4.1,4.1,0,0,1,67.225-.941,3.654,3.654,0,0,1,64.438.146,3.7,3.7,0,0,1,61.721-.868a3.968,3.968,0,0,1-1.106-2.75Zm2.468.154a2.949,2.949,0,0,0,.344,1.611,1.147,1.147,0,0,0,1.018.513q1.318,0,1.348-2.029v-.249q0-2.131-1.362-2.131-1.238,0-1.34,1.838Zm8.716.505h-2l-.315-7.288h2.629ZM69.4-1.106A1.137,1.137,0,0,1,69.8-2a1.419,1.419,0,0,1,.978-.348A1.419,1.419,0,0,1,71.752-2a1.137,1.137,0,0,1,.392.89,1.137,1.137,0,0,1-.392.89,1.419,1.419,0,0,1-.978.348A1.419,1.419,0,0,1,69.8-.216,1.137,1.137,0,0,1,69.4-1.106Z" transform="translate(-7084 -7009)" fill="#12263f"/>
    <path id="Trazado_741571" data-name="Trazado 741571" d="M1.252-4.563h2l.315,7.288H.938ZM3.64-6.833a1.137,1.137,0,0,1-.392.89,1.419,1.419,0,0,1-.978.348,1.419,1.419,0,0,1-.978-.348A1.137,1.137,0,0,1,.9-6.833a1.137,1.137,0,0,1,.392-.89,1.419,1.419,0,0,1,.978-.348,1.419,1.419,0,0,1,.978.348A1.137,1.137,0,0,1,3.64-6.833Zm5.046-3.831,2.38,7.419,2.373-7.419h3.384V0H14.246V-2.49l.249-5.1L11.917,0h-1.7L7.632-7.6l.249,5.1V0H5.31V-10.664ZM20.947,0H18.472V-7.925h2.476ZM18.325-9.976a1.111,1.111,0,0,1,.381-.87,1.432,1.432,0,0,1,.989-.339,1.432,1.432,0,0,1,.989.339,1.111,1.111,0,0,1,.381.87,1.111,1.111,0,0,1-.381.87,1.432,1.432,0,0,1-.989.339,1.432,1.432,0,0,1-.989-.339A1.111,1.111,0,0,1,18.325-9.976Zm8.936,4.285-.813-.059a1.46,1.46,0,0,0-1.494.732V0H22.485V-7.925H24.8l.081,1.018a1.911,1.911,0,0,1,1.736-1.165,2.407,2.407,0,0,1,.688.088ZM32.4,0a2.787,2.787,0,0,1-.234-.71,2.3,2.3,0,0,1-1.9.857,2.812,2.812,0,0,1-1.9-.677,2.156,2.156,0,0,1-.784-1.7,2.216,2.216,0,0,1,.952-1.948,4.851,4.851,0,0,1,2.769-.659h.762v-.42q0-1.1-.945-1.1a.772.772,0,0,0-.879.868H27.759a2.213,2.213,0,0,1,.978-1.865,4.109,4.109,0,0,1,2.494-.717,3.6,3.6,0,0,1,2.4.74,2.572,2.572,0,0,1,.9,2.029v3.508a3.593,3.593,0,0,0,.337,1.67V0ZM30.85-1.611a1.377,1.377,0,0,0,.765-.2,1.239,1.239,0,0,0,.436-.447V-3.523h-.718q-1.289,0-1.289,1.157a.707.707,0,0,0,.227.546A.822.822,0,0,0,30.85-1.611Zm.615-9.639h2.607l-2.036,2.3-2.014,0Zm5.3,14.121-1.245-.586.249-.5A4.062,4.062,0,0,0,36.3-.029V-1.86h1.978L38.269-.271a3.973,3.973,0,0,1-.432,1.714A4.355,4.355,0,0,1,36.76,2.871ZM46.831-2.937l1.252-4.988h2.6L48.1,0h-2.52L42.993-7.925H45.6ZM55.159.146A4.074,4.074,0,0,1,52.207-.941a3.756,3.756,0,0,1-1.128-2.831v-.205a4.867,4.867,0,0,1,.45-2.146,3.3,3.3,0,0,1,1.315-1.439A3.969,3.969,0,0,1,54.9-8.071a3.43,3.43,0,0,1,2.637,1.036A4.073,4.073,0,0,1,58.5-4.146v.959H53.591a1.779,1.779,0,0,0,.579,1.047,1.722,1.722,0,0,0,1.157.381,2.218,2.218,0,0,0,1.831-.82l1.128,1.333A3.153,3.153,0,0,1,56.979-.231,4.418,4.418,0,0,1,55.159.146ZM54.88-6.167q-1.084,0-1.289,1.436h2.49v-.19a1.223,1.223,0,0,0-.3-.919A1.2,1.2,0,0,0,54.88-6.167Zm7.061,2.791h-2l-.315-7.288h2.629ZM59.553-1.106A1.137,1.137,0,0,1,59.945-2a1.419,1.419,0,0,1,.978-.348A1.419,1.419,0,0,1,61.9-2a1.137,1.137,0,0,1,.392.89,1.137,1.137,0,0,1-.392.89,1.419,1.419,0,0,1-.978.348,1.419,1.419,0,0,1-.978-.348A1.137,1.137,0,0,1,59.553-1.106Z" transform="translate(-7016 -6851)" fill="#12263f"/>
    <path id="Trazado_741572" data-name="Trazado 741572" d="M1.252-4.563h2l.315,7.288H.938ZM3.64-6.833a1.137,1.137,0,0,1-.392.89,1.419,1.419,0,0,1-.978.348,1.419,1.419,0,0,1-.978-.348A1.137,1.137,0,0,1,.9-6.833a1.137,1.137,0,0,1,.392-.89,1.419,1.419,0,0,1,.978-.348,1.419,1.419,0,0,1,.978.348A1.137,1.137,0,0,1,3.64-6.833Zm10.3,3.223a3.9,3.9,0,0,1-.6,1.967A3.625,3.625,0,0,1,11.8-.322,5.248,5.248,0,0,1,9.529.146a4.188,4.188,0,0,1-3.311-1.37A5.655,5.655,0,0,1,5.01-5.09v-.527a6.455,6.455,0,0,1,.546-2.743,4.134,4.134,0,0,1,1.571-1.816A4.383,4.383,0,0,1,9.5-10.818,4.6,4.6,0,0,1,12.62-9.8,4.037,4.037,0,0,1,13.96-6.98H11.4a1.91,1.91,0,0,0-.491-1.4A2.018,2.018,0,0,0,9.5-8.8a1.536,1.536,0,0,0-1.406.718,4.613,4.613,0,0,0-.469,2.292v.754A5.1,5.1,0,0,0,8.053-2.6a1.568,1.568,0,0,0,1.476.732,1.974,1.974,0,0,0,1.355-.417,1.772,1.772,0,0,0,.5-1.326Zm3.516-3.464a2.47,2.47,0,0,1,2.021-1,2.463,2.463,0,0,1,1.978.776A3.488,3.488,0,0,1,22.134-5V0H19.658V-4.944A1.4,1.4,0,0,0,19.4-5.87a1.1,1.1,0,0,0-.872-.3,1.186,1.186,0,0,0-1.077.483V0H14.985V-11.25h2.468ZM27.341.146A4.074,4.074,0,0,1,24.39-.941a3.756,3.756,0,0,1-1.128-2.831v-.205a4.867,4.867,0,0,1,.45-2.146,3.3,3.3,0,0,1,1.315-1.439,3.969,3.969,0,0,1,2.051-.509,3.43,3.43,0,0,1,2.637,1.036,4.073,4.073,0,0,1,.967,2.889v.959H25.774a1.779,1.779,0,0,0,.579,1.047,1.722,1.722,0,0,0,1.157.381,2.218,2.218,0,0,0,1.831-.82l1.128,1.333A3.153,3.153,0,0,1,29.161-.231,4.418,4.418,0,0,1,27.341.146Zm-.278-6.313q-1.084,0-1.289,1.436h2.49v-.19a1.223,1.223,0,0,0-.3-.919A1.2,1.2,0,0,0,27.063-6.167Zm-.029-5.09h2.607L27.6-8.958l-2.014,0Zm7.705,8.32,1.252-4.988h2.6L36.006,0h-2.52L30.9-7.925h2.607ZM43.066.146A4.074,4.074,0,0,1,40.115-.941a3.756,3.756,0,0,1-1.128-2.831v-.205a4.867,4.867,0,0,1,.45-2.146,3.3,3.3,0,0,1,1.315-1.439A3.969,3.969,0,0,1,42.8-8.071a3.43,3.43,0,0,1,2.637,1.036,4.073,4.073,0,0,1,.967,2.889v.959H41.5a1.779,1.779,0,0,0,.579,1.047,1.722,1.722,0,0,0,1.157.381,2.218,2.218,0,0,0,1.831-.82l1.128,1.333A3.153,3.153,0,0,1,44.886-.231,4.418,4.418,0,0,1,43.066.146Zm-.278-6.313q-1.084,0-1.289,1.436h2.49v-.19a1.223,1.223,0,0,0-.3-.919A1.2,1.2,0,0,0,42.788-6.167Zm9.4.476-.813-.059a1.46,1.46,0,0,0-1.494.732V0H47.417V-7.925h2.314l.081,1.018a1.911,1.911,0,0,1,1.736-1.165,2.407,2.407,0,0,1,.688.088ZM56.777.146A4.074,4.074,0,0,1,53.826-.941,3.756,3.756,0,0,1,52.7-3.772v-.205a4.867,4.867,0,0,1,.45-2.146,3.3,3.3,0,0,1,1.315-1.439,3.969,3.969,0,0,1,2.051-.509A3.43,3.43,0,0,1,59.15-7.035a4.073,4.073,0,0,1,.967,2.889v.959H55.21a1.779,1.779,0,0,0,.579,1.047,1.722,1.722,0,0,0,1.157.381,2.218,2.218,0,0,0,1.831-.82L59.9-1.245A3.153,3.153,0,0,1,58.6-.231,4.418,4.418,0,0,1,56.777.146ZM56.5-6.167q-1.084,0-1.289,1.436H57.7v-.19a1.223,1.223,0,0,0-.3-.919A1.2,1.2,0,0,0,56.5-6.167ZM63.56-3.376h-2l-.315-7.288h2.629ZM61.172-1.106A1.137,1.137,0,0,1,61.564-2a1.419,1.419,0,0,1,.978-.348A1.419,1.419,0,0,1,63.519-2a1.137,1.137,0,0,1,.392.89,1.137,1.137,0,0,1-.392.89,1.419,1.419,0,0,1-.978.348,1.419,1.419,0,0,1-.978-.348A1.137,1.137,0,0,1,61.172-1.106Z" transform="translate(-7162 -6777)" fill="#12263f"/>
    <g id="Grupo_998316" data-name="Grupo 998316" transform="translate(-7058.43 -6985.84)" clip-path="url(#clip-path-8)">
      <path id="Trazado_697252" data-name="Trazado 697252" d="M49.117,73.512H2.478l0-50.194a23.319,23.319,0,0,1,46.639,0Z" transform="translate(-0.954)" fill="#ffb621"/>
      <path id="Trazado_697253" data-name="Trazado 697253" d="M49.687,115.9c0,6.9-49.687,6.9-49.687,0V101.113A17.944,17.944,0,0,1,17.944,83.169h13.8a17.944,17.944,0,0,1,17.944,17.944Z" transform="translate(0 -32.008)" fill="#a164a5"/>
      <g id="Grupo_998306" data-name="Grupo 998306" transform="translate(7.179 51.161)" opacity="0.1">
        <g id="Grupo_998305" data-name="Grupo 998305">
          <g id="Grupo_998304" data-name="Grupo 998304" clip-path="url(#clip-path-9)">
            <path id="Trazado_697254" data-name="Trazado 697254" d="M36.235,83.169h-13.8A17.866,17.866,0,0,0,11.67,86.757,43.952,43.952,0,0,0,54.088,99.3a17.946,17.946,0,0,0-17.853-16.13" transform="translate(-11.67 -83.169)"/>
          </g>
        </g>
      </g>
      <path id="Trazado_697255" data-name="Trazado 697255" d="M42.467,76.678h0a9.842,9.842,0,0,1-11.112,0h0V57.1H42.467Z" transform="translate(-12.067 -21.974)" fill="#ebc39f"/>
      <g id="Grupo_998309" data-name="Grupo 998309" transform="translate(19.288 37.256)" opacity="0.1">
        <g id="Grupo_998308" data-name="Grupo 998308">
          <g id="Grupo_998307" data-name="Grupo 998307" clip-path="url(#clip-path-10)">
            <path id="Trazado_697256" data-name="Trazado 697256" d="M31.355,73.807A36.022,36.022,0,0,0,42.468,77.6V60.991c-.522-.094-1.046-.172-1.567-.228a41.6,41.6,0,0,0-9.546.175Z" transform="translate(-31.355 -60.565)"/>
          </g>
        </g>
      </g>
      <path id="Trazado_697257" data-name="Trazado 697257" d="M14.749,45.009A5.553,5.553,0,1,1,9.2,39.456a5.554,5.554,0,0,1,5.553,5.553" transform="translate(-1.402 -15.185)" fill="#ebc39f"/>
      <path id="Trazado_697258" data-name="Trazado 697258" d="M13.73,46.713a2.83,2.83,0,1,1-2.83-2.83,2.83,2.83,0,0,1,2.83,2.83" transform="translate(-3.105 -16.889)" fill="#cca17a"/>
      <path id="Trazado_697259" data-name="Trazado 697259" d="M70.183,45.009a5.553,5.553,0,1,1-5.553-5.553,5.554,5.554,0,0,1,5.553,5.553" transform="translate(-22.736 -15.185)" fill="#ebc39f"/>
      <path id="Trazado_697260" data-name="Trazado 697260" d="M69.164,46.713a2.83,2.83,0,1,1-2.83-2.83,2.83,2.83,0,0,1,2.83,2.83" transform="translate(-24.44 -16.889)" fill="#cca17a"/>
      <path id="Trazado_697261" data-name="Trazado 697261" d="M29.72,58.056h0a17.05,17.05,0,0,1-17.05-17.05V28.074A10.159,10.159,0,0,1,22.828,17.916H36.611A10.159,10.159,0,0,1,46.77,28.074V41.006a17.05,17.05,0,0,1-17.05,17.05" transform="translate(-4.876 -6.895)" fill="#fcd1ab"/>
      <path id="Trazado_697262" data-name="Trazado 697262" d="M27.691,48.806c0,1.359-.643,2.46-1.437,2.46s-1.437-1.1-1.437-2.46.643-2.46,1.437-2.46,1.437,1.1,1.437,2.46" transform="translate(-9.551 -17.837)" fill="#365ea3"/>
      <path id="Trazado_697263" data-name="Trazado 697263" d="M26.956,49.286a.743.743,0,1,1-.743-.743.743.743,0,0,1,.743.743" transform="translate(-9.802 -18.682)" fill="#fff"/>
      <path id="Trazado_697264" data-name="Trazado 697264" d="M27.9,52.211a.372.372,0,1,1-.372-.372.372.372,0,0,1,.372.372" transform="translate(-10.45 -19.951)" fill="#fff"/>
      <path id="Trazado_697265" data-name="Trazado 697265" d="M54.16,48.806c0,1.359-.643,2.46-1.437,2.46s-1.437-1.1-1.437-2.46.643-2.46,1.437-2.46,1.437,1.1,1.437,2.46" transform="translate(-19.738 -17.837)" fill="#365ea3"/>
      <path id="Trazado_697266" data-name="Trazado 697266" d="M53.425,49.286a.743.743,0,1,1-.743-.743.743.743,0,0,1,.743.743" transform="translate(-19.989 -18.682)" fill="#fff"/>
      <path id="Trazado_697267" data-name="Trazado 697267" d="M54.365,52.211a.372.372,0,1,1-.372-.372.372.372,0,0,1,.372.372" transform="translate(-20.637 -19.951)" fill="#fff"/>
      <path id="Trazado_697268" data-name="Trazado 697268" d="M23.232,57.31c0,.963-1.835,1.743-4.1,1.743s-4.1-.781-4.1-1.743,1.835-1.743,4.1-1.743,4.1.78,4.1,1.743" transform="translate(-5.787 -21.385)" fill="#ffac7f"/>
      <path id="Trazado_697269" data-name="Trazado 697269" d="M60.61,57.31c0,.963-1.835,1.743-4.1,1.743s-4.1-.781-4.1-1.743,1.835-1.743,4.1-1.743,4.1.78,4.1,1.743" transform="translate(-20.172 -21.385)" fill="#ffac7f"/>
      <path id="Trazado_697270" data-name="Trazado 697270" d="M40.975,54.583A1.571,1.571,0,1,1,39.4,53.012a1.571,1.571,0,0,1,1.571,1.571" transform="translate(-14.56 -20.402)" fill="#ffac7f"/>
      <g id="Grupo_998312" data-name="Grupo 998312" transform="translate(8.158 74.367)" opacity="0.1">
        <g id="Grupo_998311" data-name="Grupo 998311">
          <g id="Grupo_998310" data-name="Grupo 998310" clip-path="url(#clip-path-11)">
            <path id="Trazado_697271" data-name="Trazado 697271" d="M13.99,120.894h0a.728.728,0,0,0-.728.728v12.895h1.455V121.622a.728.728,0,0,0-.728-.728" transform="translate(-13.262 -120.894)"/>
          </g>
        </g>
      </g>
      <g id="Grupo_998315" data-name="Grupo 998315" transform="translate(40.074 74.367)" opacity="0.1">
        <g id="Grupo_998314" data-name="Grupo 998314">
          <g id="Grupo_998313" data-name="Grupo 998313" clip-path="url(#clip-path-12)">
            <path id="Trazado_697272" data-name="Trazado 697272" d="M65.875,120.894h0a.728.728,0,0,0-.728.728v13.005l1.455-.311V121.622a.728.728,0,0,0-.728-.728" transform="translate(-65.147 -120.894)"/>
          </g>
        </g>
      </g>
      <path id="Trazado_697273" data-name="Trazado 697273" d="M27.351,62.372a8.132,8.132,0,0,0,16.038,0Z" transform="translate(-10.526 -24.004)" fill="#b8916e"/>
      <path id="Trazado_697274" data-name="Trazado 697274" d="M42.751,67.039a9.7,9.7,0,0,0-12.625,0,8.117,8.117,0,0,0,12.625,0" transform="translate(-11.594 -24.902)" fill="#ffac7f"/>
      <path id="Trazado_697275" data-name="Trazado 697275" d="M42.822,64.259a8.1,8.1,0,0,0,.567-1.888H27.351a8.1,8.1,0,0,0,.567,1.888Z" transform="translate(-10.526 -24.004)" fill="#fff"/>
      <path id="Trazado_697276" data-name="Trazado 697276" d="M9.527,41.028a58.81,58.81,0,0,0,5.9-16.516,32.561,32.561,0,0,0,16.863,5.721c-.515-.647-1.045-1.254-1.56-1.9A16.764,16.764,0,0,1,46.116,41.337a27.694,27.694,0,0,0,.629-17.227c-.943-3.153-1.692-6.77-3.779-9.314a14.025,14.025,0,0,0-7.125-4.325,41.829,41.829,0,0,0-8.368-1.182c-3.259-.237-6.742-.427-9.575,1.2-2.505,1.441-4.06,4.058-5.5,6.562a27.185,27.185,0,0,0-2.838,6.01A27.227,27.227,0,0,0,9,31.634c.135,3.3.391,6.092.527,9.394" transform="translate(-3.432 -3.515)" fill="#ffb621"/>
    </g>
    <path id="Trazado_741573" data-name="Trazado 741573" d="M0,0H49.688V89.066H0Z" transform="translate(-7058.43 -6985.84)" fill="none"/>
    <g id="Grupo_998332" data-name="Grupo 998332" transform="translate(-7032 -6832)" clip-path="url(#clip-path-13)">
      <path id="Trazado_697277" data-name="Trazado 697277" d="M50.325,28.022a9.137,9.137,0,0,0-3.977-7.544A9.134,9.134,0,0,0,38.133,7.318c-.185,0-.366.017-.549.028A9.143,9.143,0,0,0,25.162.68,9.143,9.143,0,0,0,12.741,7.346c-.182-.011-.363-.028-.549-.028A9.134,9.134,0,0,0,3.977,20.478a9.135,9.135,0,0,0-.311,14.856,9.12,9.12,0,0,0,8.892,11.26,9.126,9.126,0,0,0,12.6,5.763,9.127,9.127,0,0,0,12.605-5.763,9.12,9.12,0,0,0,8.892-11.26,9.127,9.127,0,0,0,3.666-7.312M21.345,34.9a9.146,9.146,0,0,0-3.3-4.769,9,9,0,0,0-.68-6.121,9.151,9.151,0,0,0,3.8-5.74c.182.011.364.028.549.028a9.108,9.108,0,0,0,3.452-.679,9.113,9.113,0,0,0,3.452.679c.185,0,.367-.017.549-.028a9.151,9.151,0,0,0,3.8,5.74,9.01,9.01,0,0,0-.68,6.121,9.145,9.145,0,0,0-3.3,4.769,9.1,9.1,0,0,0-3.818.844,9.1,9.1,0,0,0-3.817-.844" transform="translate(0 0)" fill="#38271d"/>
      <path id="Trazado_697278" data-name="Trazado 697278" d="M49.813,119.776c0,6.1-43.867,6.1-43.867,0V106.725A15.842,15.842,0,0,1,21.788,90.883H33.97a15.842,15.842,0,0,1,15.842,15.842Z" transform="translate(-2.717 -41.527)" fill="#a1d26e"/>
      <g id="Grupo_998322" data-name="Grupo 998322" transform="translate(9.567 49.357)" opacity="0.1">
        <g id="Grupo_998321" data-name="Grupo 998321">
          <g id="Grupo_998320" data-name="Grupo 998320" clip-path="url(#clip-path-14)">
            <path id="Trazado_697279" data-name="Trazado 697279" d="M39.3,90.883H27.12a15.773,15.773,0,0,0-9.5,3.167,38.8,38.8,0,0,0,37.449,11.073A15.844,15.844,0,0,0,39.3,90.883" transform="translate(-17.616 -90.883)"/>
          </g>
        </g>
      </g>
      <path id="Trazado_697280" data-name="Trazado 697280" d="M47.111,82.1h0a8.689,8.689,0,0,1-9.81,0h0V64.809h9.811Z" transform="translate(-17.043 -29.613)" fill="#78583d"/>
      <g id="Grupo_998325" data-name="Grupo 998325" transform="translate(20.257 37.081)" opacity="0.1">
        <g id="Grupo_998324" data-name="Grupo 998324">
          <g id="Grupo_998323" data-name="Grupo 998323" clip-path="url(#clip-path-15)">
            <path id="Trazado_697281" data-name="Trazado 697281" d="M37.3,79.97a31.8,31.8,0,0,0,9.811,3.346V68.655c-.461-.083-.923-.152-1.383-.2a36.722,36.722,0,0,0-8.427.154Z" transform="translate(-37.301 -68.279)"/>
          </g>
        </g>
      </g>
      <path id="Trazado_697282" data-name="Trazado 697282" d="M19.394,52.073a4.9,4.9,0,1,1-4.9-4.9,4.9,4.9,0,0,1,4.9,4.9" transform="translate(-4.381 -21.553)" fill="#6e5038"/>
      <path id="Trazado_697283" data-name="Trazado 697283" d="M19.012,54.1a2.5,2.5,0,1,1-2.5-2.5,2.5,2.5,0,0,1,2.5,2.5" transform="translate(-6.404 -23.576)" fill="#543e2b"/>
      <path id="Trazado_697284" data-name="Trazado 697284" d="M74.827,52.073a4.9,4.9,0,1,1-4.9-4.9,4.9,4.9,0,0,1,4.9,4.9" transform="translate(-29.71 -21.553)" fill="#6e5038"/>
      <path id="Trazado_697285" data-name="Trazado 697285" d="M74.446,54.1a2.5,2.5,0,1,1-2.5-2.5,2.5,2.5,0,0,1,2.5,2.5" transform="translate(-31.733 -23.576)" fill="#543e2b"/>
      <path id="Trazado_697286" data-name="Trazado 697286" d="M33.668,61.067h0A15.052,15.052,0,0,1,18.616,46.015V34.6a8.969,8.969,0,0,1,8.968-8.968H39.753A8.969,8.969,0,0,1,48.721,34.6V46.015A15.053,15.053,0,0,1,33.668,61.067" transform="translate(-8.506 -11.711)" fill="#876345"/>
      <path id="Trazado_697287" data-name="Trazado 697287" d="M33.3,56.232c0,1.2-.568,2.172-1.269,2.172s-1.269-.972-1.269-2.172.568-2.172,1.269-2.172,1.269.972,1.269,2.172" transform="translate(-14.056 -24.701)" fill="#38271d"/>
      <path id="Trazado_697288" data-name="Trazado 697288" d="M32.728,56.913a.656.656,0,1,1-.656-.656.656.656,0,0,1,.656.656" transform="translate(-14.355 -25.705)" fill="#fff"/>
      <path id="Trazado_697289" data-name="Trazado 697289" d="M33.754,59.881a.328.328,0,1,1-.328-.328.328.328,0,0,1,.328.328" transform="translate(-15.123 -27.211)" fill="#fff"/>
      <path id="Trazado_697290" data-name="Trazado 697290" d="M59.769,56.232c0,1.2-.568,2.172-1.269,2.172s-1.269-.972-1.269-2.172S57.8,54.06,58.5,54.06s1.269.972,1.269,2.172" transform="translate(-26.151 -24.701)" fill="#38271d"/>
      <path id="Trazado_697291" data-name="Trazado 697291" d="M59.2,56.913a.656.656,0,1,1-.656-.656.656.656,0,0,1,.656.656" transform="translate(-26.449 -25.705)" fill="#fff"/>
      <path id="Trazado_697292" data-name="Trazado 697292" d="M60.223,59.881a.328.328,0,1,1-.328-.328.328.328,0,0,1,.328.328" transform="translate(-27.218 -27.211)" fill="#fff"/>
      <path id="Trazado_697293" data-name="Trazado 697293" d="M28.218,64.82c0,.85-1.62,1.539-3.618,1.539s-3.618-.689-3.618-1.539,1.62-1.539,3.618-1.539,3.618.689,3.618,1.539" transform="translate(-9.587 -28.915)" fill="#996d48"/>
      <path id="Trazado_697294" data-name="Trazado 697294" d="M65.6,64.82c0,.85-1.62,1.539-3.618,1.539s-3.618-.689-3.618-1.539,1.62-1.539,3.618-1.539S65.6,63.97,65.6,64.82" transform="translate(-26.666 -28.915)" fill="#996d48"/>
      <path id="Trazado_697295" data-name="Trazado 697295" d="M46.553,62.113a1.387,1.387,0,1,1-1.387-1.387,1.387,1.387,0,0,1,1.387,1.387" transform="translate(-20.004 -27.747)" fill="#996d48"/>
      <g id="Grupo_998328" data-name="Grupo 998328" transform="translate(10.431 69.844)" opacity="0.1">
        <g id="Grupo_998327" data-name="Grupo 998327">
          <g id="Grupo_998326" data-name="Grupo 998326" clip-path="url(#clip-path-16)">
            <path id="Trazado_697296" data-name="Trazado 697296" d="M19.85,128.608h0a.643.643,0,0,0-.642.642v11.384h1.285V129.25a.643.643,0,0,0-.642-.642" transform="translate(-19.208 -128.608)"/>
          </g>
        </g>
      </g>
      <g id="Grupo_998331" data-name="Grupo 998331" transform="translate(38.609 69.844)" opacity="0.1">
        <g id="Grupo_998330" data-name="Grupo 998330">
          <g id="Grupo_998329" data-name="Grupo 998329" clip-path="url(#clip-path-16)">
            <path id="Trazado_697297" data-name="Trazado 697297" d="M71.734,128.608h0a.643.643,0,0,0-.642.642v11.384h1.285V129.25a.643.643,0,0,0-.642-.642" transform="translate(-71.092 -128.608)"/>
          </g>
        </g>
      </g>
      <path id="Trazado_697298" data-name="Trazado 697298" d="M33.3,70.086a7.179,7.179,0,0,0,14.159,0Z" transform="translate(-15.214 -32.024)" fill="#754226"/>
      <path id="Trazado_697299" data-name="Trazado 697299" d="M47.218,74.479a8.566,8.566,0,0,0-11.146,0,7.166,7.166,0,0,0,11.146,0" transform="translate(-16.482 -33.09)" fill="#965631"/>
      <path id="Trazado_697300" data-name="Trazado 697300" d="M46.956,71.752a7.151,7.151,0,0,0,.5-1.667H33.3a7.151,7.151,0,0,0,.5,1.667Z" transform="translate(-15.214 -32.023)" fill="#fff"/>
      <path id="Trazado_697301" data-name="Trazado 697301" d="M12.62,34.273l3.256,8.2,2.5-10.51H34.057V20.7l-18.181,2.68L12.62,28.842Z" transform="translate(-5.766 -9.456)" fill="#38271d"/>
      <path id="Trazado_697302" data-name="Trazado 697302" d="M62,34.278l-3.256,8.2-2.5-10.51H40.563V20.7l18.181,2.68L62,28.848Z" transform="translate(-18.534 -9.459)" fill="#38271d"/>
    </g>
    <path id="Trazado_741574" data-name="Trazado 741574" d="M0,0H50.325V82.821H0Z" transform="translate(-7032 -6832)" fill="none"/>
    <g id="Grupo_998348" data-name="Grupo 998348" transform="translate(-7150.123 -6764)" clip-path="url(#clip-path-18)">
      <path id="Trazado_697303" data-name="Trazado 697303" d="M50.117,120.5c0,5.842-42.042,5.842-42.042,0V107.995A15.183,15.183,0,0,1,23.258,92.812H34.934a15.183,15.183,0,0,1,15.183,15.183Z" transform="translate(-3.872 -44.505)" fill="#db5225"/>
      <g id="Grupo_998338" data-name="Grupo 998338" transform="translate(10.277 48.307)" opacity="0.1">
        <g id="Grupo_998337" data-name="Grupo 998337">
          <g id="Grupo_998336" data-name="Grupo 998336" clip-path="url(#clip-path-19)">
            <path id="Trazado_697304" data-name="Trazado 697304" d="M40.53,92.812H28.854a15.116,15.116,0,0,0-9.109,3.035,37.188,37.188,0,0,0,35.89,10.613A15.184,15.184,0,0,0,40.53,92.812" transform="translate(-19.745 -92.812)"/>
          </g>
        </g>
      </g>
      <path id="Trazado_697305" data-name="Trazado 697305" d="M48.832,83.308h0a8.328,8.328,0,0,1-9.4,0h0V66.738h9.4Z" transform="translate(-18.907 -32.002)" fill="#b38d6c"/>
      <g id="Grupo_998341" data-name="Grupo 998341" transform="translate(20.523 36.542)" opacity="0.1">
        <g id="Grupo_998340" data-name="Grupo 998340">
          <g id="Grupo_998339" data-name="Grupo 998339" clip-path="url(#clip-path-20)">
            <path id="Trazado_697306" data-name="Trazado 697306" d="M39.43,81.412a30.479,30.479,0,0,0,9.4,3.207V70.568c-.441-.08-.885-.146-1.326-.193a35.194,35.194,0,0,0-8.077.148Z" transform="translate(-39.43 -70.208)"/>
          </g>
        </g>
      </g>
      <path id="Trazado_697307" data-name="Trazado 697307" d="M21.116,53.8a4.7,4.7,0,1,1-4.7-4.7,4.7,4.7,0,0,1,4.7,4.7" transform="translate(-5.619 -23.544)" fill="#b38d6c"/>
      <path id="Trazado_697308" data-name="Trazado 697308" d="M20.934,55.921a2.395,2.395,0,1,1-2.395-2.395,2.395,2.395,0,0,1,2.395,2.395" transform="translate(-7.742 -25.667)" fill="#9c7b5e"/>
      <path id="Trazado_697309" data-name="Trazado 697309" d="M76.549,53.8a4.7,4.7,0,1,1-4.7-4.7,4.7,4.7,0,0,1,4.7,4.7" transform="translate(-32.2 -23.544)" fill="#b38d6c"/>
      <path id="Trazado_697310" data-name="Trazado 697310" d="M76.367,55.921a2.395,2.395,0,1,1-2.395-2.395,2.395,2.395,0,0,1,2.395,2.395" transform="translate(-34.323 -25.667)" fill="#9c7b5e"/>
      <path id="Trazado_697311" data-name="Trazado 697311" d="M35.172,61.522h0A14.426,14.426,0,0,1,20.746,47.1V36.154a8.6,8.6,0,0,1,8.6-8.6H41a8.6,8.6,0,0,1,8.6,8.6V47.1A14.426,14.426,0,0,1,35.172,61.522" transform="translate(-9.948 -13.215)" fill="#d1a57e"/>
      <path id="Trazado_697312" data-name="Trazado 697312" d="M30.046,66.685c0,.815-1.553,1.475-3.467,1.475s-3.468-.66-3.468-1.475,1.553-1.475,3.468-1.475,3.467.66,3.467,1.475" transform="translate(-11.082 -31.269)" fill="#c48d5c"/>
      <path id="Trazado_697313" data-name="Trazado 697313" d="M67.424,66.685c0,.815-1.553,1.475-3.467,1.475s-3.467-.66-3.467-1.475,1.553-1.475,3.467-1.475,3.467.66,3.467,1.475" transform="translate(-29.006 -31.269)" fill="#c48d5c"/>
      <path id="Trazado_697314" data-name="Trazado 697314" d="M49.415,56.117a12.432,12.432,0,0,1-2.433,6.342A3.576,3.576,0,0,1,44.913,64c-1.255.224-2.38-.707-3.5-1.311a7.488,7.488,0,0,0-6.145-.381,7.488,7.488,0,0,0-6.145.381c-1.123.6-2.247,1.535-3.5,1.311a3.576,3.576,0,0,1-2.068-1.544,12.432,12.432,0,0,1-2.433-6.342,2.409,2.409,0,0,0-.37.028V60.79a14.426,14.426,0,1,0,28.852,0V56.131c-.061,0-.123-.015-.184-.014" transform="translate(-9.948 -26.909)" fill="#3b2b2a"/>
      <path id="Trazado_697315" data-name="Trazado 697315" d="M12.725,39.583,16.9,50.306l4.261-10.723Z" transform="translate(-6.102 -18.981)" fill="#524242"/>
      <path id="Trazado_697316" data-name="Trazado 697316" d="M76.423,39.583,72.248,50.306,67.987,39.583Z" transform="translate(-32.601 -18.981)" fill="#524242"/>
      <path id="Trazado_697317" data-name="Trazado 697317" d="M38.03,22.714A3.447,3.447,0,0,1,33.791,21.3,8.605,8.605,0,0,1,29.425,22.9a25.7,25.7,0,0,1-4.7-.079,5.649,5.649,0,0,1-3.741-1.5A20.623,20.623,0,0,1,8.793,23.25a6.318,6.318,0,0,1-2.811-.971A2.985,2.985,0,0,1,4.627,19.6,4.23,4.23,0,0,1,.37,16.877a6.52,6.52,0,0,1,.449-5.265A14.849,14.849,0,0,1,4.274,7.444c1.9-1.714,4.025-3.416,6.58-3.508A1.223,1.223,0,0,1,10.1,2.487,1.946,1.946,0,0,1,11.3,1.226,5.1,5.1,0,0,1,13.068.934a30.351,30.351,0,0,1,11.81,1.551,3.24,3.24,0,0,1-.925-.934A1.1,1.1,0,0,1,24,.31c.386-.436,1.083-.334,1.642-.168A17.941,17.941,0,0,1,34.628,5.92c-.139-.782-.162-1.8.562-2.13s1.464.351,1.915.989a15.346,15.346,0,0,1,1.915,3.682c.605-.217,1.151-.354,1.773-.515a3.04,3.04,0,0,1,1.895.038,1.662,1.662,0,0,1,1.081,1.459,1.159,1.159,0,0,1-1.245,1.148,6.845,6.845,0,0,1,1.881,6.57,2.327,2.327,0,0,1,.538,2.293c-.2.779-1.812,5.495-6.912,3.26" transform="translate(0 0)" fill="#3b2b2a"/>
      <path id="Trazado_697318" data-name="Trazado 697318" d="M35.324,58.07c0,1.15-.544,2.081-1.216,2.081s-1.216-.932-1.216-2.081.544-2.081,1.216-2.081,1.216.932,1.216,2.081" transform="translate(-15.772 -26.848)" fill="#3b2b2a"/>
      <path id="Trazado_697319" data-name="Trazado 697319" d="M34.8,58.815a.628.628,0,1,1-.629-.629.629.629,0,0,1,.629.629" transform="translate(-16.085 -27.901)" fill="#fff"/>
      <path id="Trazado_697320" data-name="Trazado 697320" d="M35.857,61.8a.314.314,0,1,1-.314-.314.314.314,0,0,1,.314.314" transform="translate(-16.892 -29.482)" fill="#fff"/>
      <path id="Trazado_697321" data-name="Trazado 697321" d="M61.793,58.07c0,1.15-.544,2.081-1.216,2.081s-1.216-.932-1.216-2.081.544-2.081,1.216-2.081,1.216.932,1.216,2.081" transform="translate(-28.465 -26.848)" fill="#3b2b2a"/>
      <path id="Trazado_697322" data-name="Trazado 697322" d="M61.272,58.815a.628.628,0,1,1-.629-.629.629.629,0,0,1,.629.629" transform="translate(-28.778 -27.901)" fill="#fff"/>
      <path id="Trazado_697323" data-name="Trazado 697323" d="M62.326,61.8a.314.314,0,1,1-.314-.314.314.314,0,0,1,.314.314" transform="translate(-29.585 -29.482)" fill="#fff"/>
      <path id="Trazado_697324" data-name="Trazado 697324" d="M48.568,63.984a1.329,1.329,0,1,1-1.329-1.329,1.329,1.329,0,0,1,1.329,1.329" transform="translate(-22.014 -30.044)" fill="#c48d5c"/>
      <g id="Grupo_998344" data-name="Grupo 998344" transform="translate(11.106 67.942)" opacity="0.1">
        <g id="Grupo_998343" data-name="Grupo 998343">
          <g id="Grupo_998342" data-name="Grupo 998342" clip-path="url(#clip-path-21)">
            <path id="Trazado_697325" data-name="Trazado 697325" d="M21.953,130.537h0a.616.616,0,0,0-.616.616v10.91h1.231v-10.91a.616.616,0,0,0-.616-.616" transform="translate(-21.337 -130.537)"/>
          </g>
        </g>
      </g>
      <g id="Grupo_998347" data-name="Grupo 998347" transform="translate(38.111 67.942)" opacity="0.1">
        <g id="Grupo_998346" data-name="Grupo 998346">
          <g id="Grupo_998345" data-name="Grupo 998345" clip-path="url(#clip-path-21)">
            <path id="Trazado_697326" data-name="Trazado 697326" d="M73.838,130.537h0a.616.616,0,0,0-.616.616v10.91h1.231v-10.91a.616.616,0,0,0-.616-.616" transform="translate(-73.222 -130.537)"/>
          </g>
        </g>
      </g>
      <path id="Trazado_697327" data-name="Trazado 697327" d="M35.426,72.015a6.88,6.88,0,0,0,13.57,0Z" transform="translate(-16.987 -34.533)" fill="#7a6149"/>
      <path id="Trazado_697328" data-name="Trazado 697328" d="M48.883,76.323a8.21,8.21,0,0,0-10.682,0,6.868,6.868,0,0,0,10.682,0" transform="translate(-18.318 -35.651)" fill="#d17c56"/>
      <path id="Trazado_697329" data-name="Trazado 697329" d="M48.517,73.612a6.83,6.83,0,0,0,.48-1.6H35.426a6.854,6.854,0,0,0,.479,1.6Z" transform="translate(-16.987 -34.532)" fill="#fff"/>
    </g>
    <path id="Trazado_741575" data-name="Trazado 741575" d="M0,0H46.245V80.379H0Z" transform="translate(-7150.123 -6764)" fill="none"/>
    <g id="Grupo_998364" data-name="Grupo 998364" transform="translate(-7265.341 -6781.685)" clip-path="url(#clip-path-23)">
      <path id="Trazado_697330" data-name="Trazado 697330" d="M11.96,32.7q.018.772.036,1.544A24.347,24.347,0,0,1,5.79,10.476c.614-2.086,1.992-4.42,4.166-4.4A14.917,14.917,0,0,1,17.681.957,21.937,21.937,0,0,1,33.738,2.208,18.321,18.321,0,0,1,43.444,14.84a21.366,21.366,0,0,1-2.151,13.082,47.005,47.005,0,0,1-7.859,10.9c-5.345,5.864-16.182-.207-21.475-6.119" transform="translate(-2.257 0)" fill="#a164a5"/>
      <path id="Trazado_697331" data-name="Trazado 697331" d="M43.341,112.183c0,6.022-43.342,6.022-43.342,0V99.288A15.653,15.653,0,0,1,15.651,83.636H27.689A15.652,15.652,0,0,1,43.341,99.288Z" transform="translate(0 -38.759)" fill="#00c1cf"/>
      <g id="Grupo_998354" data-name="Grupo 998354" transform="translate(6.262 44.877)" opacity="0.1">
        <g id="Grupo_998353" data-name="Grupo 998353">
          <g id="Grupo_998352" data-name="Grupo 998352" clip-path="url(#clip-path-24)">
            <path id="Trazado_697332" data-name="Trazado 697332" d="M33.1,83.636H21.061a15.584,15.584,0,0,0-9.391,3.129,38.339,38.339,0,0,0,37,10.941A15.654,15.654,0,0,0,33.1,83.636" transform="translate(-11.67 -83.636)"/>
          </g>
        </g>
      </g>
      <path id="Trazado_697333" data-name="Trazado 697333" d="M41.048,74.644h0a8.585,8.585,0,0,1-9.693,0V57.562h9.693Z" transform="translate(-14.531 -26.676)" fill="#d9ab82"/>
      <g id="Grupo_998357" data-name="Grupo 998357" transform="translate(16.824 32.748)" opacity="0.1">
        <g id="Grupo_998356" data-name="Grupo 998356">
          <g id="Grupo_998355" data-name="Grupo 998355" clip-path="url(#clip-path-25)">
            <path id="Trazado_697334" data-name="Trazado 697334" d="M31.355,72.583a31.422,31.422,0,0,0,9.693,3.306V61.4c-.455-.082-.912-.15-1.367-.2a36.282,36.282,0,0,0-8.327.152Z" transform="translate(-31.355 -61.032)"/>
          </g>
        </g>
      </g>
      <path id="Trazado_697335" data-name="Trazado 697335" d="M13.331,44.767a4.844,4.844,0,1,1-4.844-4.844,4.844,4.844,0,0,1,4.844,4.844" transform="translate(-1.688 -18.501)" fill="#d9ab82"/>
      <path id="Trazado_697336" data-name="Trazado 697336" d="M13.007,46.819a2.469,2.469,0,1,1-2.469-2.469,2.468,2.468,0,0,1,2.469,2.469" transform="translate(-3.739 -20.553)" fill="#cca17a"/>
      <path id="Trazado_697337" data-name="Trazado 697337" d="M68.765,44.767a4.844,4.844,0,1,1-4.844-4.844,4.844,4.844,0,0,1,4.844,4.844" transform="translate(-27.378 -18.501)" fill="#d9ab82"/>
      <path id="Trazado_697338" data-name="Trazado 697338" d="M68.441,46.819a2.469,2.469,0,1,1-2.469-2.469,2.469,2.469,0,0,1,2.469,2.469" transform="translate(-29.429 -20.553)" fill="#cca17a"/>
      <path id="Trazado_697339" data-name="Trazado 697339" d="M27.542,53.4h0A14.872,14.872,0,0,1,12.67,38.524V27.244a8.861,8.861,0,0,1,8.861-8.861H33.553a8.861,8.861,0,0,1,8.861,8.861v11.28A14.872,14.872,0,0,1,27.542,53.4" transform="translate(-5.872 -8.519)" fill="#fcd1ab"/>
      <path id="Trazado_697340" data-name="Trazado 697340" d="M27.324,48.959c0,1.185-.561,2.146-1.253,2.146s-1.253-.96-1.253-2.146.561-2.146,1.253-2.146,1.253.96,1.253,2.146" transform="translate(-11.501 -21.694)" fill="#334992"/>
      <path id="Trazado_697341" data-name="Trazado 697341" d="M26.766,49.658a.648.648,0,1,1-.648-.648.648.648,0,0,1,.648.648" transform="translate(-11.804 -22.713)" fill="#fff"/>
      <path id="Trazado_697342" data-name="Trazado 697342" d="M27.8,52.63a.324.324,0,1,1-.324-.324.324.324,0,0,1,.324.324" transform="translate(-12.583 -24.24)" fill="#fff"/>
      <path id="Trazado_697343" data-name="Trazado 697343" d="M53.793,48.959c0,1.185-.561,2.146-1.253,2.146s-1.253-.96-1.253-2.146.561-2.146,1.253-2.146,1.253.96,1.253,2.146" transform="translate(-23.767 -21.694)" fill="#334992"/>
      <path id="Trazado_697344" data-name="Trazado 697344" d="M53.235,49.658a.648.648,0,1,1-.648-.648.648.648,0,0,1,.648.648" transform="translate(-24.07 -22.713)" fill="#fff"/>
      <path id="Trazado_697345" data-name="Trazado 697345" d="M54.27,52.63a.324.324,0,1,1-.324-.324.324.324,0,0,1,.324.324" transform="translate(-24.85 -24.24)" fill="#fff"/>
      <path id="Trazado_697346" data-name="Trazado 697346" d="M22.185,57.554c0,.84-1.6,1.521-3.575,1.521s-3.575-.681-3.575-1.521,1.6-1.52,3.575-1.52,3.575.68,3.575,1.52" transform="translate(-6.968 -25.968)" fill="#ffa473"/>
      <path id="Trazado_697347" data-name="Trazado 697347" d="M59.563,57.554c0,.84-1.6,1.521-3.575,1.521s-3.575-.681-3.575-1.521,1.6-1.52,3.575-1.52,3.575.68,3.575,1.52" transform="translate(-24.29 -25.968)" fill="#ffa473"/>
      <path id="Trazado_697348" data-name="Trazado 697348" d="M40.574,54.849a1.37,1.37,0,1,1-1.37-1.37,1.37,1.37,0,0,1,1.37,1.37" transform="translate(-17.533 -24.784)" fill="#ffa473"/>
      <g id="Grupo_998360" data-name="Grupo 998360" transform="translate(7.116 65.119)" opacity="0.1">
        <g id="Grupo_998359" data-name="Grupo 998359">
          <g id="Grupo_998358" data-name="Grupo 998358" clip-path="url(#clip-path-26)">
            <path id="Trazado_697349" data-name="Trazado 697349" d="M13.9,121.361h0a.635.635,0,0,0-.635.635v11.248h1.27V122a.635.635,0,0,0-.635-.635" transform="translate(-13.262 -121.361)"/>
          </g>
        </g>
      </g>
      <g id="Grupo_998363" data-name="Grupo 998363" transform="translate(34.956 65.119)" opacity="0.1">
        <g id="Grupo_998362" data-name="Grupo 998362">
          <g id="Grupo_998361" data-name="Grupo 998361" clip-path="url(#clip-path-26)">
            <path id="Trazado_697350" data-name="Trazado 697350" d="M65.782,121.361h0a.635.635,0,0,0-.635.635v11.248h1.27V122a.635.635,0,0,0-.635-.635" transform="translate(-65.147 -121.361)"/>
          </g>
        </g>
      </g>
      <path id="Trazado_697351" data-name="Trazado 697351" d="M27.351,62.839a7.093,7.093,0,0,0,13.989,0Z" transform="translate(-12.675 -29.121)" fill="#b8916e"/>
      <path id="Trazado_697352" data-name="Trazado 697352" d="M41.138,67.208a8.464,8.464,0,0,0-11.012,0,7.08,7.08,0,0,0,11.012,0" transform="translate(-13.961 -30.203)" fill="#ffac7f"/>
      <path id="Trazado_697353" data-name="Trazado 697353" d="M40.846,64.485a7.066,7.066,0,0,0,.494-1.647H27.351a7.066,7.066,0,0,0,.494,1.647Z" transform="translate(-12.675 -29.121)" fill="#fff"/>
      <path id="Trazado_697354" data-name="Trazado 697354" d="M41.364,38.8a5.475,5.475,0,0,0-1.681-5.808,13.671,13.671,0,0,0-5.951-2.91A61.825,61.825,0,0,1,27.22,28.3a15.476,15.476,0,0,1-8.945-8.979A15.342,15.342,0,0,1,13.4,26.951c-1.54,1.314-3.276,2.493-3.518,4.431a94.373,94.373,0,0,0-3.432-8.948A19.244,19.244,0,0,1,14.285,11.58,19.478,19.478,0,0,1,25.022,8.26a17.646,17.646,0,0,1,10.641,3.467,21.484,21.484,0,0,1,4.989,5.679,23.9,23.9,0,0,1,3.895,10.581A15.422,15.422,0,0,1,41.364,38.8" transform="translate(-2.991 -3.828)" fill="#a164a5"/>
    </g>
    <path id="Trazado_741576" data-name="Trazado 741576" d="M0,0H43.341V77.94H0Z" transform="translate(-7265.341 -6781.685)" fill="none"/>
  </g>
</svg>
