<svg xmlns="http://www.w3.org/2000/svg" xmlns:xlink="http://www.w3.org/1999/xlink" width="168" height="133" viewBox="0 0 168 133">
  <defs>
    <clipPath id="clip-path">
      <rect id="Rectángulo_345546" data-name="Rectángulo 345546" width="168" height="133" transform="translate(-3238 -6535)" fill="none" stroke="#707070" stroke-width="1"/>
    </clipPath>
    <clipPath id="clip-path-2">
      <rect id="Rectángulo_344645" data-name="Rectángulo 344645" width="82" height="70.297" fill="none"/>
    </clipPath>
    <clipPath id="clip-path-4">
      <path id="Trazado_697852" data-name="Trazado 697852" d="M112.1,242s-2.841,3.166-1.38,10.228,1.542,8.442,1.38,8.848-2.841,8.118.162,9.579a24.017,24.017,0,0,0,15.667,2.273c1.055.65.5-30.961.5-30.961Z" transform="translate(-110.3 -241.964)" fill="none"/>
    </clipPath>
    <clipPath id="clip-path-6">
      <path id="Trazado_697857" data-name="Trazado 697857" d="M406.3,272.925a24.017,24.017,0,0,0,15.667-2.273c3-1.461.325-9.173.162-9.579s-.081-1.786,1.38-8.848S422.128,242,422.128,242l-16.325-.033s-.56,31.611.495,30.961" transform="translate(-405.654 -241.964)" fill="none"/>
    </clipPath>
    <clipPath id="clip-path-8">
      <rect id="Rectángulo_344643" data-name="Rectángulo 344643" width="7.599" height="21.772" fill="none"/>
    </clipPath>
  </defs>
  <g id="Enmascarar_grupo_998559" data-name="Enmascarar grupo 998559" transform="translate(3238 6535)" clip-path="url(#clip-path)">
    <g id="Grupo_1000203" data-name="Grupo 1000203" transform="translate(-157 -1)">
      <circle id="Elipse_8293" data-name="Elipse 8293" cx="42.5" cy="42.5" r="42.5" transform="translate(-3039 -6510)" fill="#f7cad2"/>
      <g id="Grupo_1000199" data-name="Grupo 1000199" transform="translate(-3038 -6503.22)">
        <g id="Grupo_998416" data-name="Grupo 998416" clip-path="url(#clip-path-2)">
          <g id="Grupo_998404" data-name="Grupo 998404">
            <g id="Grupo_998403" data-name="Grupo 998403" clip-path="url(#clip-path-2)">
              <path id="Trazado_697845" data-name="Trazado 697845" d="M97.531,24.6c6.5,18.351-6.861,36.88-38.149,40.131C29.5,67.837-.345,26.038,50.257,3.919A46.371,46.371,0,0,1,67.433.022s20.8-1.672,30.1,24.58" transform="translate(-20.262 0)" fill="#f3fbff"/>
              <path id="Trazado_697846" data-name="Trazado 697846" d="M594.423,84.171s12.779,10.4,9.9,27.729c.094-.98,7.146-18.563-9.9-27.729" transform="translate(-523.845 -74.177)" fill="#f3fbff"/>
              <path id="Trazado_697847" data-name="Trazado 697847" d="M18.377,363.134S2.911,357.458,0,340.132c.23.958-.72,19.878,18.377,23" transform="translate(0 -299.747)" fill="#f3fbff"/>
              <path id="Trazado_697848" data-name="Trazado 697848" d="M112.114,242s-2.841,3.166-1.38,10.228,1.542,8.442,1.38,8.848-2.841,8.118.162,9.579a24.017,24.017,0,0,0,15.667,2.273c1.055.649.495-30.961.495-30.961Z" transform="translate(-97.218 -213.236)" fill="#d3d3d3"/>
            </g>
          </g>
          <g id="Grupo_998406" data-name="Grupo 998406" transform="translate(13.096 28.729)">
            <g id="Grupo_998405" data-name="Grupo 998405" clip-path="url(#clip-path-4)">
              <path id="Trazado_697849" data-name="Trazado 697849" d="M133.8,268.87l.354-.82c-2.043-.884-2.6-2.254-1.753-4.311a2.641,2.641,0,0,1,.432-.59,5.663,5.663,0,0,0,1.531-3.684c.171-2.377-.563-5.647-2.244-10-4.36-11.289.654-14.443.706-14.474l-.458-.767a6.3,6.3,0,0,0-2.344,3.332c-1.086,3.133-.661,7.247,1.264,12.23,1.609,4.167,2.345,7.4,2.186,9.613a4.755,4.755,0,0,1-1.318,3.166,3.179,3.179,0,0,0-.581.833c-1.3,3.163.491,4.721,2.225,5.471" transform="translate(-127.166 -235.145)" fill="#a8a8a8"/>
              <path id="Trazado_697850" data-name="Trazado 697850" d="M160.236,268.87l.354-.82c-2.043-.884-2.6-2.254-1.753-4.311a2.643,2.643,0,0,1,.432-.59,5.663,5.663,0,0,0,1.531-3.684c.171-2.377-.563-5.647-2.244-10-4.36-11.289.654-14.443.705-14.474l-.458-.767a6.3,6.3,0,0,0-2.344,3.332c-1.086,3.133-.661,7.247,1.263,12.23,1.61,4.167,2.345,7.4,2.186,9.613a4.755,4.755,0,0,1-1.318,3.166,3.173,3.173,0,0,0-.581.833c-1.3,3.163.491,4.721,2.224,5.471" transform="translate(-150.463 -235.145)" fill="#a8a8a8"/>
              <path id="Trazado_697851" data-name="Trazado 697851" d="M197.612,268.87l.354-.82c-2.043-.884-2.6-2.254-1.753-4.311a2.642,2.642,0,0,1,.432-.59,5.663,5.663,0,0,0,1.531-3.684c.171-2.377-.563-5.647-2.244-10-4.36-11.289.654-14.443.705-14.474l-.458-.767a6.3,6.3,0,0,0-2.344,3.332c-1.086,3.133-.661,7.247,1.264,12.23,1.609,4.167,2.345,7.4,2.186,9.613a4.755,4.755,0,0,1-1.318,3.166,3.176,3.176,0,0,0-.581.833c-1.3,3.163.491,4.721,2.224,5.471" transform="translate(-183.401 -235.145)" fill="#a8a8a8"/>
            </g>
          </g>
          <g id="Grupo_998408" data-name="Grupo 998408">
            <g id="Grupo_998407" data-name="Grupo 998407" clip-path="url(#clip-path-2)">
              <path id="Trazado_697853" data-name="Trazado 697853" d="M422.128,242s2.841,3.166,1.38,10.228-1.542,8.442-1.38,8.848,2.841,8.118-.162,9.579a24.017,24.017,0,0,1-15.667,2.273c-1.055.649-.495-30.961-.495-30.961Z" transform="translate(-357.49 -213.236)" fill="#d3d3d3"/>
            </g>
          </g>
          <g id="Grupo_998410" data-name="Grupo 998410" transform="translate(48.165 28.729)">
            <g id="Grupo_998409" data-name="Grupo 998409" clip-path="url(#clip-path-6)">
              <path id="Trazado_697854" data-name="Trazado 697854" d="M499.294,268.87l-.354-.82c2.043-.884,2.6-2.254,1.753-4.311a2.64,2.64,0,0,0-.432-.59,5.664,5.664,0,0,1-1.531-3.684c-.171-2.377.563-5.647,2.244-10,4.36-11.289-.654-14.443-.705-14.474l.458-.767a6.3,6.3,0,0,1,2.344,3.332c1.086,3.133.661,7.247-1.263,12.23-1.61,4.167-2.345,7.4-2.186,9.613a4.754,4.754,0,0,0,1.318,3.166,3.173,3.173,0,0,1,.581.833c1.3,3.163-.491,4.721-2.224,5.471" transform="translate(-487.657 -235.145)" fill="#a8a8a8"/>
              <path id="Trazado_697855" data-name="Trazado 697855" d="M472.857,268.87l-.354-.82c2.043-.884,2.6-2.254,1.753-4.311a2.641,2.641,0,0,0-.432-.59,5.665,5.665,0,0,1-1.531-3.684c-.171-2.377.563-5.647,2.244-10,4.36-11.289-.654-14.443-.705-14.474l.458-.767a6.3,6.3,0,0,1,2.344,3.332c1.086,3.133.661,7.247-1.264,12.23-1.61,4.167-2.345,7.4-2.186,9.613a4.754,4.754,0,0,0,1.318,3.166,3.171,3.171,0,0,1,.581.833c1.3,3.163-.491,4.721-2.224,5.471" transform="translate(-464.359 -235.145)" fill="#a8a8a8"/>
              <path id="Trazado_697856" data-name="Trazado 697856" d="M435.482,268.87l-.354-.82c2.043-.884,2.6-2.254,1.753-4.311a2.642,2.642,0,0,0-.432-.59,5.663,5.663,0,0,1-1.531-3.684c-.171-2.377.563-5.647,2.244-10,4.36-11.289-.654-14.443-.705-14.474l.458-.767a6.3,6.3,0,0,1,2.344,3.332c1.086,3.133.661,7.247-1.264,12.23-1.609,4.167-2.345,7.4-2.186,9.613a4.753,4.753,0,0,0,1.317,3.166,3.179,3.179,0,0,1,.581.833c1.3,3.163-.491,4.721-2.224,5.471" transform="translate(-431.422 -235.145)" fill="#a8a8a8"/>
            </g>
          </g>
          <g id="Grupo_998415" data-name="Grupo 998415">
            <g id="Grupo_998414" data-name="Grupo 998414" clip-path="url(#clip-path-2)">
              <path id="Trazado_697858" data-name="Trazado 697858" d="M264.681,491.278c.013-.076.026-.152.04-.227a10.7,10.7,0,0,1,.584-2.017c.119-.3.243-.566.369-.806s.244-.449.354-.621c.054-.086.1-.163.151-.23s.087-.124.121-.17.063-.082.082-.106l.029-.036H245.365l.029.036c.019.024.049.059.082.106s.076.1.122.17.1.144.151.23c.11.172.229.381.354.621s.249.51.368.806a10.683,10.683,0,0,1,.569,1.944c3.935.955,11.813,2.38,17.641.3" transform="translate(-216.232 -429.235)" fill="#dda678"/>
              <path id="Trazado_697859" data-name="Trazado 697859" d="M267.5,528.565a1.893,1.893,0,0,0-.118-.183c-.045-.067-.093-.144-.143-.23-.1-.172-.218-.381-.336-.621s-.238-.51-.352-.806a11.49,11.49,0,0,1-.566-2.017c-.069-.369-.119-.75-.157-1.138s-.055-.781-.056-1.174a12.18,12.18,0,0,1,.166-2.086c-5.829,2.08-13.706.655-17.641-.3,0,.025.01.049.015.073a12.129,12.129,0,0,1,.205,2.313c0,.393-.021.787-.056,1.174s-.088.769-.157,1.138a11.476,11.476,0,0,1-.566,2.017c-.114.3-.232.566-.352.806s-.232.449-.336.621c-.051.086-.1.163-.143.23s-.121.183-.116.183Z" transform="translate(-217.486 -458.268)" fill="#ffcc9b"/>
              <path id="Trazado_697860" data-name="Trazado 697860" d="M187.936,163.865l.21-17.654-19,.078-19-.078.211,17.654s-3.8-1.515-3.727,2.555,2.176,5.614,3.368,6.245c.351.281,1.4,17.034,19.129,18.1v0h.027v0c17.727-1.068,18.779-17.821,19.129-18.1,1.193-.632,3.3-2.175,3.368-6.245s-3.726-2.555-3.726-2.555" transform="translate(-129.228 -128.851)" fill="#ffcc9b"/>
              <path id="Trazado_697861" data-name="Trazado 697861" d="M222.286,201.784a1.664,1.664,0,0,1,.069,1.931c-.138,0-5.518-1.173-9.036,2-.483-.138.483-4.277,8.967-3.932" transform="translate(-187.901 -177.808)" fill="#a8a8a8"/>
              <path id="Trazado_697862" data-name="Trazado 697862" d="M401.81,201.784a1.665,1.665,0,0,0-.069,1.931c.138,0,5.518-1.173,9.036,2,.483-.138-.483-4.277-8.968-3.932" transform="translate(-353.786 -177.808)" fill="#a8a8a8"/>
              <path id="Trazado_697863" data-name="Trazado 697863" d="M253.69,260.82c0,1.368-.61,2.477-1.362,2.477s-1.362-1.109-1.362-2.477.61-2.477,1.362-2.477,1.362,1.109,1.362,2.477" transform="translate(-221.167 -227.669)" fill="#3a1a18"/>
              <path id="Trazado_697864" data-name="Trazado 697864" d="M309.977,222.559s-1.322,6.779.58,8.412c1.192,1.023,7.644,6.6,1.548,8.838s-7.257-.107-5.806-2.875" transform="translate(-269.437 -196.134)" fill="none" stroke="#dda678" stroke-linecap="round" stroke-linejoin="round" stroke-width="4"/>
              <path id="Trazado_697865" data-name="Trazado 697865" d="M404.159,260.82c0,1.368-.61,2.477-1.363,2.477s-1.362-1.109-1.362-2.477.61-2.477,1.362-2.477,1.363,1.109,1.363,2.477" transform="translate(-353.771 -227.669)" fill="#3a1a18"/>
              <path id="Trazado_697866" data-name="Trazado 697866" d="M263.165,405.829a15.217,15.217,0,0,0,14.986,3.151" transform="translate(-231.919 -357.644)" fill="none" stroke="#dda678" stroke-linecap="round" stroke-linejoin="round" stroke-width="4"/>
              <path id="Trazado_697867" data-name="Trazado 697867" d="M320.118,458.86a3.72,3.72,0,0,0,3.654.619" transform="translate(-282.109 -404.378)" fill="none" stroke="#dda678" stroke-linecap="round" stroke-linejoin="round" stroke-width="4"/>
              <path id="Trazado_697868" data-name="Trazado 697868" d="M82.084,102.248S77.9,95.4,77.951,92.209c0-.032,0-.063,0-.094-.123-3.107-8.9-3.51-8.609,4.045.269,6.891,3.193,12.285,12.88,14.125-.068-1.421-.135-8.036-.135-8.036" transform="translate(-61.1 -79.331)" fill="#190a09"/>
              <path id="Trazado_697869" data-name="Trazado 697869" d="M498.4,91.32a1.614,1.614,0,0,0-.249.89c.054,3.193-4.133,10.039-4.133,10.039s0,.25-.007.662c-.019,1.711-.074,6.23-.128,7.374,9.687-1.84,12.611-7.234,12.88-14.125.267-6.848-6.924-7.157-8.362-4.841" transform="translate(-435.244 -79.332)" fill="#190a09"/>
              <path id="Trazado_697870" data-name="Trazado 697870" d="M196.69,26.4c-7.568-6.547-13.935-8.327-21.442-8.641-12.268,0-19.278,5.716-22.154,8.955.468,2.6,1.762,8.069,5.019,10.922,5.268-2,19.163-6.049,33.09.341,3.707-2.846,5.054-9.031,5.488-11.577" transform="translate(-134.916 -15.654)" fill="#3a1a18"/>
              <path id="Trazado_697871" data-name="Trazado 697871" d="M143.23,93.184A13.731,13.731,0,0,0,141.9,94.9c0,.031,0,.062,0,.094-.054,3.193,4.133,10.039,4.133,10.039s.793-.392,2.212-.931c-3.257-2.853-4.55-8.321-5.019-10.922" transform="translate(-125.053 -82.12)" fill="#230b0b"/>
              <path id="Trazado_697872" data-name="Trazado 697872" d="M479.542,90.54c-.434,2.546-1.781,8.731-5.488,11.577q1.242.57,2.483,1.252c0-.412.007-.662.007-.662s4.187-6.846,4.133-10.039a1.612,1.612,0,0,1,.249-.89q-.7-.646-1.384-1.238" transform="translate(-417.768 -79.79)" fill="#230b0b"/>
              <path id="Trazado_697873" data-name="Trazado 697873" d="M81.6,113.726s-2.533,8.074,4.116,12.823A19.878,19.878,0,0,1,81.6,113.726" transform="translate(-71.496 -100.223)" fill="#351413"/>
              <path id="Trazado_697874" data-name="Trazado 697874" d="M553.915,113.726s2.533,8.074-4.116,12.823a19.878,19.878,0,0,0,4.116-12.823" transform="translate(-484.516 -100.223)" fill="#351413"/>
              <path id="Trazado_697875" data-name="Trazado 697875" d="M261.97,248.542l-1.31.2a6.2,6.2,0,0,0-4.105,10.194l-.009.023.1.082A12.961,12.961,0,0,0,258.4,260.7c-2.818-7.269,1.428-10.872,3.571-12.161" transform="translate(-224.783 -219.032)" fill="#b75a32"/>
              <path id="Trazado_697876" data-name="Trazado 697876" d="M279.733,259.482l3.853-15.85-3.837.583c-2.143,1.289-6.389,4.892-3.571,12.161.066.046.13.088.189.123Z" transform="translate(-242.562 -214.705)" fill="#a34c2e"/>
              <path id="Trazado_697877" data-name="Trazado 697877" d="M290.793,237.355l-2.726.414a8.722,8.722,0,0,0-5.778,14.347l.129.147a19.23,19.23,0,0,0,2.358,2.263c-3.859-10.385,3.029-15.507,6.017-17.172" transform="translate(-246.928 -209.173)" fill="#9b3a18"/>
              <path id="Trazado_697878" data-name="Trazado 697878" d="M315.379,253.882l5.423-22.309-4.519.687c-2.988,1.664-9.876,6.786-6.017,17.172a3.956,3.956,0,0,0,.374.251Z" transform="translate(-272.419 -204.078)" fill="#7f2d13"/>
              <path id="Trazado_697879" data-name="Trazado 697879" d="M330.178,226.05l-4.288.651a12.194,12.194,0,0,0-8.078,20.06l.18.206a12.253,12.253,0,0,0,2.789,2.311c-4.779-14.408,4.663-20.944,9.4-23.229" transform="translate(-277.499 -199.21)" fill="#84290d"/>
              <path id="Trazado_697880" data-name="Trazado 697880" d="M362.935,249.266l7.08-30.689-5.841.887c-4.734,2.285-14.177,8.821-9.4,23.229.076.046.151.093.229.138Z" transform="translate(-311.496 -192.625)" fill="#421005"/>
              <path id="Trazado_697881" data-name="Trazado 697881" d="M418.707,508.718s-1.9-4.273-.5-11.229c-.166.5-16.23,0-16.23,0s3.765,4.6.619,11.229h16.107Z" transform="translate(-354.253 -438.421)" fill="#efb88b"/>
              <path id="Trazado_697882" data-name="Trazado 697882" d="M418.574,363.65c-2.373.842-5.512,1.99-14.239.153a23.685,23.685,0,0,0-10.368-.147,14.736,14.736,0,0,0,29.425-.244,11.211,11.211,0,0,0-4.819.238" transform="translate(-347.191 -320.04)" fill="#4fc3ff"/>
              <path id="Trazado_697883" data-name="Trazado 697883" d="M394.334,321.19a14.736,14.736,0,0,0-.625,4.255c0,.316.011.629.031.94a23.685,23.685,0,0,1,10.368.147,39.79,39.79,0,0,0,7.813.982c-1.834-1.166-5.089-3.205-8.407-5.139a13.278,13.278,0,0,0-9.179-1.185" transform="translate(-346.963 -282.769)" fill="#50951a"/>
              <path id="Trazado_697884" data-name="Trazado 697884" d="M413.081,235.317A14.742,14.742,0,0,0,398.97,245.8a13.279,13.279,0,0,1,9.179,1.185c1.24.722,2.471,1.459,3.622,2.16,5.448-2.667,12.181-3.419,15.333-3.629a14.742,14.742,0,0,0-14.023-10.2" transform="translate(-351.599 -207.377)" fill="#a7dbfd"/>
              <path id="Trazado_697885" data-name="Trazado 697885" d="M506.783,324.825c1.93,1.175,3.637,2.248,4.785,2.978a16.543,16.543,0,0,0,6.426-1.135,11.211,11.211,0,0,1,4.819-.238c.011-.231.017-.462.017-.7a14.724,14.724,0,0,0-.714-4.54c-3.152.211-9.885.963-15.333,3.629" transform="translate(-446.611 -283.059)" fill="#35600f"/>
              <path id="Trazado_697886" data-name="Trazado 697886" d="M399.22,259.85a15.505,15.505,0,1,1,10.964-4.541,15.4,15.4,0,0,1-10.964,4.541m0-29.472a13.967,13.967,0,1,0,13.967,13.967,13.983,13.983,0,0,0-13.967-13.967" transform="translate(-338.155 -201.668)" fill="#3f1106"/>
              <path id="Trazado_697887" data-name="Trazado 697887" d="M388.8,250.833a16.909,16.909,0,1,1,11.957-4.953,16.8,16.8,0,0,1-11.957,4.953m0-32.141a15.232,15.232,0,1,0,15.232,15.232A15.249,15.249,0,0,0,388.8,218.692" transform="translate(-327.732 -191.247)" fill="#661c08"/>
              <g id="Grupo_998413" data-name="Grupo 998413" transform="translate(65.962 31.372)" opacity="0.7">
                <g id="Grupo_998412" data-name="Grupo 998412">
                  <g id="Grupo_998411" data-name="Grupo 998411" clip-path="url(#clip-path-8)">
                    <path id="Trazado_697888" data-name="Trazado 697888" d="M555.551,264.219s15.156,8.5,2.659,21.772c.089-.4,7.8-11.736-2.659-21.772" transform="translate(-555.551 -264.219)" fill="#cfeeff"/>
                  </g>
                </g>
              </g>
              <path id="Trazado_697889" data-name="Trazado 697889" d="M354.941,244.1s-1.615-1.822-3.064.911-3.726,10.185-1.49,15.94c.041-.041,4.554-16.851,4.554-16.851" transform="translate(-307.957 -214.59)" fill="#db9f77"/>
              <path id="Trazado_697890" data-name="Trazado 697890" d="M363.713,238.8a1.9,1.9,0,0,1,2.339-.445c.341.155,1.615,1.118-.952,4.72a57.66,57.66,0,0,0-1.946,5.74c-.461,2.143-.662,6.474,1.118,8.627-.083-.041,9.812,5.962,7.411,12.172.042.456-9.978-.994-9.978-.994l-4.513-9.274s-2.267-5.124.341-13.032c.223-.6,2.337-5.4,3.3-7.111.362-.641,1.159-2.049,2.515-1.1a1.121,1.121,0,0,1,.362.694" transform="translate(-313.977 -209.554)" fill="#efb88b"/>
              <path id="Trazado_697891" data-name="Trazado 697891" d="M372.432,249.582s-4.366,6.45-5.121,9.39c-.157.632-1.33,4.442-.719,7.348-.037.379-1.189-1.938.5-7.719a24.861,24.861,0,0,1,5.34-9.018" transform="translate(-322.697 -219.948)" fill="#db9f77"/>
            </g>
          </g>
        </g>
      </g>
    </g>
  </g>
</svg>
