<?xml version="1.0" encoding="utf-8"?>
<!-- Generator: Adobe Illustrator 27.5.0, SVG Export Plug-In . SVG Version: 6.00 Build 0)  -->
<svg version="1.1" xmlns="http://www.w3.org/2000/svg" xmlns:xlink="http://www.w3.org/1999/xlink" x="0px" y="0px"
	 viewBox="0 0 687.9 500" style="enable-background:new 0 0 687.9 500;" xml:space="preserve">
<style type="text/css">
	.st0{fill:#2D3988;}
	.st1{fill:#FFD85A;}
	.st2{fill:#9F1134;}
	.st3{opacity:0.3;}
	.st4{fill:#ACCAEF;}
	.st5{fill:#9B6A42;}
	.st6{fill:#8FAECC;}
	.st7{fill:#BC8858;}
	.st8{fill:#7297CC;}
	.st9{clip-path:url(#SVGID_00000081614654987745824110000017396216922132848536_);}
	.st10{fill:#577DAA;}
	.st11{fill:#DED5D1;}
	.st12{fill:#691C24;}
	.st13{fill:#D1C9C5;}
	.st14{fill:#FFF5F0;}
	.st15{fill:#8A252F;}
	.st16{fill:#F2E9E4;}
	.st17{fill:#FFFFFF;}
	.st18{fill:#D1B159;}
	.st19{fill:#2D2A2A;}
	.st20{fill:none;}
	.st21{fill:#3E474F;}
	.st22{fill:#272F35;}
	.st23{fill:#D3A875;}
	.st24{fill:#B78C62;}
	.st25{fill:#BA3B38;}
	.st26{fill:#590F0F;}
	.st27{fill:#FFF8F0;}
	.st28{fill:#71AF91;}
	.st29{fill:#518469;}
	.st30{fill:#B59064;}
	.st31{fill:#F2B6AD;}
	.st32{fill:#422B19;}
	.st33{fill:#FFCDC0;}
	.st34{fill:#A06D44;}
	.st35{fill:#3C547A;}
	.st36{fill:#2C4260;}
	.st37{fill:#E09A8C;}
	.st38{fill:#FFC6A9;}
	.st39{fill:#E09F82;}
	.st40{fill:#C95E39;}
	.st41{fill:#A04830;}
	.st42{fill:#EDAA8C;}
	.st43{fill:#704C2C;}
	.st44{fill:#8E653C;}
	.st45{fill:#986E47;}
	.st46{fill:#5E3F28;}
	.st47{fill:#825737;}
	.st48{fill:#B5B8BC;}
	.st49{fill:#92969B;}
	.st50{fill:#EF7443;}
	.st51{fill:#FFCFDD;}
	.st52{fill:#FFD892;}
	.st53{fill:#B1B0D1;}
</style>
<g id="BACKGROUND">
</g>
<g id="OBJECTS">
	<g>
		<g>
			<g>
				<polygon class="st0" points="614.2,287.4 77.4,283.9 82.6,322.7 610.8,331.6 				"/>
			</g>
			<polygon class="st1" points="622,185.8 66,197.7 77.4,283.9 614.2,287.4 			"/>
			<polygon class="st2" points="607,381.8 610.8,331.6 82.6,322.7 88,363.5 			"/>
		</g>
		<g>
			<g class="st3">
				<path class="st4" d="M612.3,449.5c0,12-120.1,21.7-268.4,21.7c-148.2,0-268.4-9.7-268.4-21.7s120.1-21.7,268.4-21.7
					C492.2,427.8,612.3,437.5,612.3,449.5z"/>
			</g>
			<g>
				<g>
					<g>
						<g>
							<path class="st5" d="M130.5,437.8c-2,2.7-8.3,2.3-11,0.7c0-12.7,0.7-26-1.3-38.3c-2.3-14.7-5.3-26.7-1.3-41.3
								c5-18-1-32.7-2-50.3c10-2,20.7-0.7,30.3-3.3c1,0-0.3,0-0.7-0.3L130.5,437.8z"/>
						</g>
						<g>
							<path class="st6" d="M116.8,318.7c-0.7,2-4.5,2.2-6.3,3c1.5,2.2,5.2,2.5,7.5,1.8c-0.3,1-1.3,2-2.2,2.7c2.3-0.2,5-0.8,6.7-2.7
								c-0.2,1-0.3,1.8-0.7,2.8c1.7,0.2,3.2-0.8,4-2.2c-0.2,1,0,2,0.3,2.8c1.5-0.8,3.2-2.2,4.2-3.7c-0.8,4.5,3.2,1,4.5-0.5
								c0.5,0.8,1,2,1.3,3c1.2-0.8,2-2.2,2.7-3.3c0.5,1.2,1.7,2.2,2.8,2.5c1.3-1.2,1.2-2.7,1.7-4.2c1.2,1,2.3,2.2,4,2.3
								c0-2.2-1-5.7-1.8-7.7L116.8,318.7z"/>
						</g>
						<g>
							<path class="st7" d="M177.7,441.6c-2,0.5-4,3.3-6.3,3.3c-4,0.2-4.8,0.3-5-3.4c0-2.8,0.1-10.5,0.1-13.2c0-11-2.5-21.8-3-32.8
								c-0.2-5.5-1.2-10.8-1-16.2c0.2-5.2,2.2-10.8,2-16c-0.5-11-11.8-23.2-19-30.8c-5.2-5.2-10.5-10-15.2-15.5
								c-3-3.5-3-4.5,1.8-5.5c3.5-1,7.2-1,10.8-1.5c7-1,13-2,19.8-2.8c3.5-0.5,3.8-3,6-0.5c2,2.5,4.2,8.8,5.2,11.8
								c4.2,11,8.2,22.5,11.5,34c3,10.2,1.8,18.5,0.2,28.5c0,0.8-0.2,1.8-0.5,2.5L177.7,441.6z"/>
						</g>
						<g>
							<path class="st4" d="M133.6,320.5c-0.6,3-0.6,4.5-2.4,6.8c1.9,0.9,6.6,0.3,8-1.3c0.1,1.4,2.2,3.8,3,4.9
								c1.6-1.5,3.5-3,5.2-4.4c0.8,1.2,1.9,2.6,3,3.6c0.9-1.1,1.5-2.5,1.9-3.8c0.6,0.8,3.1,3.6,4.2,3c1.9-1-0.8-3.4,2.2-2.5
								c1.8,0.5,2.8,2.5,4.5,1c1.2-1,1.2-3.2,2.2-4.5c1.1,0.5,2.4,3.2,3.2,2.9s1.1-3.6,1.1-4.5c0.9,1,1.9,1.8,3.1,1.5
								c-0.1-0.9-0.5-1.9-0.8-2.8c1.9-0.1,5.9,1,6.4-1.8c-2.8-0.6-5.8-1.1-8-3L133.6,320.5z"/>
						</g>
						<g>
							<path class="st8" d="M113.4,283c-12.5,8.5-0.8,35.8,1.2,37.5l0,0c3.6,0.8,7.2,1,10.9,1.1c2.5,0.1,6.1,0.4,8.1-1.1
								c3.9,4.1,14.5,3,19.6,2.4c6-0.6,12.6-2,18-5.1c1.6-1,1.9-1,1.8-3c-0.2-1.2-0.8-2.6-1.1-3.9c-0.8-2.8-1.6-5.5-2.6-8.2
								c-1.9-5.6-4.6-10.8-6.5-16.4c-0.5-1.2-0.5-2.9-1.1-4L113.4,283z"/>
						</g>
						<g>
							<defs>
								<path id="SVGID_1_" d="M113.4,283c-12.5,8.5-0.8,35.8,1.2,37.5l0,0c3.6,0.8,7.2,1,10.9,1.1c2.5,0.1,6.1,0.4,8.1-1.1
									c3.9,4.1,14.5,3,19.6,2.4c6-0.6,12.6-2,18-5.1c1.6-1,1.9-1,1.8-3c-0.2-1.2-0.8-2.6-1.1-3.9c-0.8-2.8-1.6-5.5-2.6-8.2
									c-1.9-5.6-4.6-10.8-6.5-16.4c-0.5-1.2-0.5-2.9-1.1-4L113.4,283z"/>
							</defs>
							<clipPath id="SVGID_00000089554992872958542930000009006774197755746955_">
								<use xlink:href="#SVGID_1_"  style="overflow:visible;"/>
							</clipPath>
							<g style="clip-path:url(#SVGID_00000089554992872958542930000009006774197755746955_);">
								<g>
									<path class="st10" d="M153.1,280.7c0.8,3.4,1.4,6.9,2.1,10.4c0.7,3.4,1.4,6.9,2.2,10.3c0.8,3.4,1.7,6.8,2.6,10.2
										c0.5,1.7,0.9,3.4,1.4,5.1c0.6,1.6,1.1,3.3,1.8,4.9l0,0l0,0c0.2,0.5,0.4,0.9,0.6,1.4l0.3,0.7l0.2,0.4l0.1,0.2
										c0,0,0,0.1,0,0.1c0,0.1-0.1,0-0.1,0c0.1,0.1,0.1,0,0-0.1l-0.1-0.2l-0.2-0.3l-0.4-0.7c-0.3-0.4-0.5-0.9-0.7-1.3l0,0
										c-1.7-3.2-2.8-6.5-3.8-9.9l-1.4-5.1c-0.5-1.7-0.9-3.4-1.3-5.1c-0.7-3.5-1.4-6.9-2-10.4C154,287.7,153.5,284.2,153.1,280.7z
										"/>
								</g>
								<g>
									<path class="st10" d="M156.6,299.8c0.7-0.1,1.1-0.6,1.5-1.1c0.3-0.5,0.6-1.1,0.8-1.7c0.4-1.2,0.6-2.5,0.6-3.8
										c0.1-2.6-0.7-5.2-1-7.8c1.1,2.4,2,5,2,7.9c0,1.4-0.3,2.8-0.9,4c-0.3,0.6-0.6,1.2-1.1,1.8
										C158,299.5,157.3,299.9,156.6,299.8z"/>
								</g>
								<g>
									<path class="st10" d="M145.6,285.7c-0.3,2.8,0.2,5.5,0.6,8.2l0.4,2c0.1,0.6,0.4,1.3,0.6,2c0.4,1.3,0.9,2.6,1.3,4
										c0.2,0.7,0.4,1.4,0.5,2.1c0.1,0.7,0.2,1.4,0,2.3c-0.2,0.8-0.8,1.4-1.4,1.8c-0.6,0.4-1.3,0.8-1.9,1
										c-1.3,0.5-2.7,0.8-4.1,1.1l-2,0.4c-0.7,0.2-1.4,0.3-2.1,0.4c-1.4,0.2-2.8,0.3-4.3,0.2c-0.7-0.1-1.4-0.2-2.1-0.4
										c-0.7-0.2-1.4-0.7-1.9-1.2c-1.1-1.1-1.8-2.3-2.3-3.7c-0.5-1.3-0.9-2.7-1.2-4.1c-0.5-2.8-0.8-5.6-0.7-8.3
										c0.1-2.8,0.4-5.6,1-8.3c-0.8,5.5-0.8,11.1,0.4,16.5c0.3,1.3,0.7,2.6,1.2,3.9c0.5,1.2,1.2,2.4,2.1,3.3
										c0.9,0.9,2.2,1.2,3.5,1.3c1.3,0.1,2.7,0,4-0.2c0.7-0.1,1.3-0.2,2-0.4l2.1-0.4c1.4-0.2,2.7-0.5,4-1c1.2-0.5,2.5-1.1,2.8-2.3
										c0.1-0.5,0.1-1.2,0-1.9c-0.1-0.7-0.2-1.3-0.4-2C146,296.9,144.9,291.2,145.6,285.7z"/>
								</g>
								<g>
									<path class="st10" d="M138.1,322.7c-2-0.6-3.9-1.6-5.7-2.6c-1.8-1.1-3.5-2.3-5.1-3.7c-0.8-0.7-1.6-1.4-2.3-2.2
										c-0.7-0.8-1.2-1.8-1.8-2.7c-1-1.9-1.9-3.8-2.5-5.8c-1.3-4.1-1.7-8.4-1.5-12.6c0.3-4.2,1.1-8.4,2.7-12.3
										c-0.6,2-1,4.1-1.3,6.1c-0.3,2.1-0.5,4.1-0.5,6.2c-0.1,4.2,0.4,8.3,1.6,12.3c0.6,2,1.4,3.9,2.4,5.7c0.5,0.9,1,1.8,1.6,2.6
										c0.6,0.8,1.4,1.5,2.1,2.3c1.5,1.4,3.2,2.7,4.9,3.9C134.3,320.9,136.1,321.9,138.1,322.7z"/>
								</g>
								<g>
									<g>
										<path class="st10" d="M117.7,285.2c-1.4,4.2-1.3,8.7-0.9,13c0.2,2.2,0.7,4.3,1.1,6.5c0.2,1.1,0.3,2.2,0.2,3.4
											c0,0.3-0.1,0.6-0.3,1c-0.1,0.2-0.2,0.3-0.4,0.5c-0.2,0.1-0.4,0.2-0.5,0.2c-0.5,0.1-1.2,0.2-1.8,0.2
											c-0.6-0.1-1.3-0.3-1.8-0.6c-0.5-0.4-0.9-0.9-1.2-1.4c-0.6-1.1-0.8-2.2-1-3.3c-0.4-2.2-0.6-4.4-0.6-6.6
											c0-2.2,0.1-4.4,0.5-6.6c0.4-2.2,1-4.4,2.3-6.2l0-0.1l0.1,0C114.9,285.1,116.3,285.1,117.7,285.2z M117.7,285.2
											c-1.4,0.1-2.8,0.1-4.2,0.2l0.1-0.1c-1.2,1.8-1.6,4-2,6.1c-0.3,2.2-0.3,4.3-0.3,6.5c0.1,2.2,0.3,4.3,0.7,6.5
											c0.2,1.1,0.5,2.1,1,3c0.5,0.9,1.3,1.5,2.2,1.5c0.5,0,1,0,1.5-0.1c0.2,0,0.2,0,0.2-0.1c0,0,0.1-0.1,0.1-0.1
											c0.1-0.2,0.1-0.4,0.2-0.6c0.1-1,0-2.1-0.1-3.2c-0.1-1.1-0.4-2.1-0.5-3.2c-0.2-1.1-0.3-2.2-0.4-3.3
											C115.8,293.8,116,289.3,117.7,285.2z"/>
									</g>
								</g>
							</g>
						</g>
						<g>
							<g>
								<g>
									<path class="st11" d="M147,447.1c0.2-0.5,0.5-0.9,0.7-1.4c1-1.7,2.1-3.2,3.5-4.5c0.4-0.4,0.2-0.8,0.6-1.1
										c0.2,0.1,1.1,0.3,1.3,0.3c1.3,0.2,2.8,0.2,4.1,0.5c1.2,0.3,2.9,0.5,3.8,1.4c0.5,0.5,0.6,1.5,0.5,2.4
										C158.2,446.4,152.4,447,147,447.1z"/>
								</g>
								<g>
									<path class="st12" d="M151,446.7c-0.3,0.4-2.4,0.3-3.9,0.4c-5.8,0.1-11.1-0.2-12.6-0.3c-4.4-0.4-11.1-1-16.5-1.4
										c0-0.8,0.9-9.2,0.5-9.4c1.8,1.1,3.9,1.6,5.9,1.5c1,0,3.8-0.3,4.5-1.1c0.4-0.4,0.4-1,0.5-1.5c0.2-1.3,0.4-2.5,0.5-3.8
										c0.1-0.5,0.2-1.1,0.5-1.5c0.6-0.7,2.6-0.7,3.2,0c0.7,0.8,0.2,1.6,0.7,2.5c0.8,1.4,2.5,2.3,3.9,2.7c3.5,1.2,12.6,5,13.9,5.3
										C153.1,442.5,152.3,444.9,151,446.7z"/>
								</g>
								<g>
									<path class="st13" d="M134.5,446.8c1.4,0.1,6.8,0.5,12.6,0.3c5.4-0.1,11.2-0.7,14.6-2.3c0,0.8-0.1,1.6-0.1,2.1
										c-3,1.8-5.9,1.7-8.1,1.8c-1.9,0.1-3.9,0.3-5.8,0.2c-0.4,0-0.8,0-1.3,0c-7.9-0.2-25.7-0.9-26.7-0.9
										c-1.5-0.1-1.4-0.2-1.6-1.5c-0.1-0.4-0.1-0.7-0.1-1.1C123.3,445.9,130.1,446.4,134.5,446.8z"/>
								</g>
							</g>
							<g>
								<g>
									<g>
										<path class="st11" d="M143.7,437c0.5,1.5,0.2,3.3,0.2,4.9c0,1,1.5,1,1.5,0c0-1.7,0.2-3.6-0.3-5.3
											C144.9,435.7,143.4,436.1,143.7,437L143.7,437z"/>
									</g>
								</g>
								<g>
									<g>
										<path class="st11" d="M140.1,436.1c-0.3,0.9-0.6,1.9-0.6,2.8c0,0.6,0,1.3,0,1.9c0,1,1.5,1,1.5,0c0-0.6,0-1.2,0-1.7
											c0-0.9,0.3-1.8,0.6-2.6C141.8,435.6,140.4,435.2,140.1,436.1L140.1,436.1z"/>
									</g>
								</g>
								<g>
									<g>
										<path class="st11" d="M136.6,434.2c-1.2,1.7-1.1,4-2,5.9c-0.4,0.9,0.9,1.6,1.3,0.8c0.9-1.8,0.8-4.2,2-5.9
											C138.5,434.1,137.2,433.4,136.6,434.2L136.6,434.2z"/>
									</g>
								</g>
							</g>
						</g>
						<g>
							<g>
								<g>
									<path class="st14" d="M195.1,451.8c0.2-0.4,0.5-0.9,0.8-1.3c1-1.6,2.2-3.1,3.7-4.3c0.5-0.4,0.9-0.6,1.3-0.8
										c0.2,0.1,0.4,0.1,0.6,0.2c1.4,0.3,2.9,0.3,4.3,0.7c1.2,0.3,3,0.7,3.9,1.6c0.5,0.5,0.6,1.5,0.6,2.5
										C206.7,451.7,200.7,452,195.1,451.8z"/>
								</g>
								<g>
									<path class="st15" d="M195.8,450.5c-0.3,0.5-0.5,0.9-0.8,1.3c-6-0.2-11.5-0.8-13-1c-4.6-0.6-11.5-1.5-17.1-2.3
										c-0.1-1.4,0.1-2.8,0.4-4.1c0.4-1.6,0.3-1.6,0.4-3.2c0.7,0.3,4.1,0.3,5.6,0.2c1-0.1,2.2-4.4,2.5-5.7
										c0.4-2.3,3.6-2.1,5.3-2.3c0.6,0,1.5-0.2,2,0.4c0.7,0.8,0.2,1.6,0.8,2.6c0.8,1.5,2.6,2.4,4,2.9c3.7,1.4,13.4,5.7,14.8,6.2
										c-0.4,0.2-0.8,0.5-1.3,0.8C198,447.4,196.9,448.8,195.8,450.5z"/>
								</g>
								<g>
									<path class="st16" d="M182,450.8c1.5,0.2,7,0.8,13,1c5.6,0.2,11.6-0.1,15.1-1.5c0,0.8-0.1,1.6-0.1,2.1
										c-3.1,1.6-6.1,1.4-8.4,1.4c-2,0-4,0.1-6-0.1c-0.4,0-0.9-0.1-1.4-0.1c-8.2-0.6-26.7-2.2-27.6-2.4c-1.5-0.2-1.4-0.3-1.6-1.6
										c-0.1-0.4-0.1-0.7-0.1-1.1C170.5,449.3,177.5,450.2,182,450.8z"/>
								</g>
							</g>
							<g>
								<g>
									<g>
										<path class="st14" d="M193.6,441.7c-2.4,1.1-4.1,2.9-5.6,5c-0.6,0.8,0.7,1.5,1.3,0.8c1.3-1.9,2.9-3.5,5.1-4.5
											C195.3,442.6,194.5,441.3,193.6,441.7L193.6,441.7z"/>
									</g>
								</g>
								<g>
									<g>
										<path class="st14" d="M189.9,440c-2.7,0.5-4.9,2.6-6.5,4.7c-0.6,0.8,0.7,1.5,1.3,0.8c1.4-1.8,3.3-3.6,5.6-4
											C191.2,441.3,190.8,439.8,189.9,440L189.9,440z"/>
									</g>
								</g>
								<g>
									<g>
										<path class="st14" d="M185.8,438.2c-2.2,1-4.1,2.5-5.5,4.4c-0.6,0.8,0.7,1.5,1.3,0.8c1.3-1.7,3-3,5-3.9
											C187.4,439.1,186.7,437.9,185.8,438.2L185.8,438.2z"/>
									</g>
								</g>
							</g>
						</g>
					</g>
					<g>
						<g>
							<path class="st5" d="M112.6,221.4c0,6.5-0.8,12.8-1.4,19.2c-0.4,3.9-0.8,7.6-1.4,11.5c-0.5,2.8-1.9,6.4,0.6,7.9
								c3.9,2.5,11.2,2.8,15.8,2.2L112.6,221.4z"/>
						</g>
						<g>
							<g>
								<path class="st7" d="M141.3,202.5c0-3.8-0.7-7.8-0.5-11.6c0-0.1,0-0.2,0.1-0.3c0.1-0.1,0.2-0.1,0.3-0.1
									c1-0.1,1.6,0.5,2.5,0.8c1.5,0.5,3.6,0.9,5.2,0.4c1.5-0.4,1.7-5.7,1.6-5.7c0.2,0,3,0.2,3,0.1c0,0-0.5-5.2-0.5-5.2
									c0.5-1.3,3.8-2.7,3-4.3c-0.8-1.9-4.1-0.3-4.7-3.1c-0.2-0.9-0.1-1.8,0.1-2.8c0.4-3.5,0.6-7,0.5-10.6
									c-0.1-1.6-0.1-3.5-1.2-4.6c-1.4-1.4-3.6-2.1-5.5-2.4c-4.2-0.8-9-0.8-13,0.2c-5.3,1.3-6.3,3.5-6.8,8.8
									c-0.3,4.5-0.7,10,1,14.3c1,2.2,2.8,3.3,4,5.2c1.5,2.3,0.7,3.7,0,6.3c-1,5-2,10.3-2.8,15.3c0.2-0.3,0.5-0.3,0.8-0.7
									L141.3,202.5z"/>
							</g>
							<g>
								<g>
									<path class="st17" d="M109.5,284.2c6.3,4,15.5,3.8,22.7,3.7c9.3-0.5,18.3,0,27.5-1.2c1.3-0.3,2.7-0.3,4-0.7
										c-1.5-8-3.3-16-5.8-23.7c-1.2-3.5-2.7-7.5-2.3-11.2c0.3-4.3,4.5-6.3,6-10.5c1.5-4-1.3-7.5-3.3-10.8
										c-2-3.5-3.5-7.2-4.8-10.8c-1.2-3.3-2.3-7.7-4.3-10.7c-1.8-3-6-5.8-8.8-8c-6-4.5-16-2.3-21.3,2.5c-5.3,5-7.7,14.3-6.3,21.3
										c1.8,9.7,3.5,19.3,5.5,29c0.8,3.8,2,7.8,2.7,11.7c0.5,3-0.3,2.5-2.5,4c-2.5,1.8-1.5,2.2-1.8,5c-0.2,1.3-0.7,3.7-1.5,3.8
										L109.5,284.2z"/>
								</g>
								<g>
									<g>
										<path class="st17" d="M123.5,211.9c-0.4,0.5-0.4,2.5-0.2,3.5c0.8,3.6,2.5,6,6.1,6.8"/>
										<path class="st18" d="M123.5,211.9c-0.1,0.3-0.1,0.6-0.1,0.9c0,0.3,0,0.6,0,0.9c0,0.6,0.1,1.2,0.2,1.7l0,0
											c0.4,1.5,1,3,1.9,4.2c0.9,1.2,2.3,2,3.8,2.6c-1.6,0-3.4-0.7-4.5-2c-1.2-1.3-1.7-3-2-4.6l0,0c0-0.6,0-1.2,0.1-1.8
											c0-0.3,0.1-0.6,0.2-0.9C123.2,212.5,123.3,212.1,123.5,211.9z"/>
									</g>
									<g>
										<path class="st17" d="M119.5,275.2c8.1,2.8,16.8,3.1,25.2,1.2"/>
										<path class="st18" d="M119.5,275.2c2.1,0.5,4.1,0.9,6.2,1.3c2.1,0.3,4.2,0.5,6.3,0.6c2.1,0.1,4.2,0.1,6.3-0.1
											c1.1-0.1,2.1-0.2,3.2-0.3l1.6-0.2c0.5-0.1,1.1-0.1,1.6-0.2c-1,0.3-2.1,0.6-3.1,0.9c-1,0.2-2.1,0.4-3.2,0.5
											c-2.1,0.3-4.3,0.4-6.4,0.3c-2.1-0.1-4.3-0.4-6.4-0.8C123.5,276.7,121.4,276.1,119.5,275.2z"/>
									</g>
								</g>
							</g>
							<g>
								<g>
									<path class="st19" d="M146.4,151.1c-0.9-0.8-3.1-1.7-0.7-3.2c0.5-0.3,1.2-0.5,1.4-1c0.2-0.5-0.2-1.1-0.8-1.3
										c-0.5-0.2-1.1-0.1-1.7,0c0.4-1-0.4-2.2-1.5-2.2c0.4-0.9-0.1-2.2-1.1-2.4s-2.1,0.6-2.1,1.6c-0.2,0-0.5,0-0.7,0
										c-0.1-1-0.1-2.1-0.7-2.9c-0.5-0.7-1.2-1.1-1.8-1.5c-0.5-0.3-1.1-0.6-1.6-1c0.1,1.1,0.2,2.2,0.3,3.3
										c-0.3,0.1-0.6,0.1-0.9,0.2c-0.3-0.9-0.7-1.8-1-2.7c-0.4-0.4-0.9-1.3-1.5-1.3c-0.4,0-0.8,0-1.2,0c-0.5,1.2,0.5,2.8-0.4,3.7
										c-0.3-1-0.6-1.9-1-2.9c-0.2-0.5-0.4-1-0.8-1.2c-0.4-0.3-1.1-0.1-1.2,0.4c-0.4,0-0.7-0.3-1-0.6c-0.4-0.5-0.7-1.1-1.2-1.6
										c-0.5-0.5-1.2-0.8-1.8-0.6c-1.6,0.7-0.5,2.5-0.1,3.4c-0.7,0.2-1.3-0.2-2.1-0.1c0,0,0,0-0.1-0.1c-0.4-0.6-0.6-1.3-1.3-1.5
										c-0.6-0.2-1.3,0.4-1.2,1c-0.6-0.4-5.3-1-5.3,0.6c0-0.6-0.6-1.1-1.2-1.1c-0.6-0.1-1.2,0.1-1.8,0.3c-0.9,0.3-2,0.5-2.8,0
										c-0.6-0.4-1.1-1.2-1.9-1.1c-0.6,0.1-0.9,0.8-0.9,1.4c0.1,0.6,0.4,1.1,0.6,1.7c0.2,0.6,0.4,1.2,0,1.8
										c-0.9,0.4-1.8-0.8-2.8-1c-0.6-0.1-1.3,0.2-1.6,0.7c-0.6,1.1,0.4,1.5-0.5,2.3c-0.6,0.6-1.8,0.4-2.4,1
										c-0.8,0.7-0.6,2.3,0.3,2.8c-0.9-0.1-1.8,0.7-2.1,1.6c-0.3,0.9-0.2,1.9,0,2.8c-1,0.2-2,0.6-2.9,1.1c0.3,0.8,0.9,1.4,1.7,1.7
										c-1.5,0.4-2.9,1-4.2,1.7c-0.4,0.2-0.9,0.5-1.1,1c-0.5,1.3,1.3,3.1,0.2,3.9c0.3,0.3,0.7,0.6,1,0.9c-1.4,0.8-2.7,1.6-4.1,2.4
										c-0.4,0.2-0.8,0.5-1,0.9c-0.2,0.6,0.3,1.3,0.9,1.5c0.4,0.1,0.8,0.2,1.1,0.2c-0.9,0.2-1.7,1-2.1,2c-0.4,1.2-0.3,2.4-0.2,3.7
										c1.4,0.1,2.7-0.3,3.9-1c-0.4,1,0.3,2.3,1.4,2.6c-2.4,0.8-3.9,4-2.5,6.1c1.5-0.3,3-0.6,4.6-0.9c0.6,0.3,0.5,1.2,0,1.6
										c-0.5,0.4-1.2,0.5-1.8,0.8c-0.6,0.3-1.2,0.8-1,1.5c0.1,0.5,0.8,0.8,1.3,0.9c-0.3,1.5,1.4,2.9,2.8,2.3
										c-0.1,1.5,0.4,3,1.2,4.2c-0.2,0.3-0.4,0.5-0.7,0.8c0.8,1.3,3.1,1.2,3.7-0.2c0.7,0.5,1.6,0.8,2.5,0.7
										c-1.6,1.1-2.7,2.8-3.2,4.6c1,0.4,2.1,0.5,3.2,0.4c-0.3,0.5,0,1.3,0.6,1.4c0.6,0.2,1.2-0.3,1.3-0.9c0.8,0.4,1.8,0.4,2.7,0
										c-0.1,1.1,0,2.3,0.8,3c0.8,0.8,2.3,0.7,2.7-0.4c0.7,0.6,1.9,0.6,2.6-0.1c-0.2,2.3,2.4,4.4,4.7,3.7c0.1-0.5,0.2-0.9,0.3-1.4
										c1.2,0.1,2.5,0,3.7-0.4c-0.1,1.4,1.3,2.6,2.7,2.4c0.3-0.6,0.5-1.3,0.5-2c1.2-0.2,2.2-1.2,2.5-2.3c1.1-0.3,1.6,1.5,2.7,1.7
										c1.2,0.3,1.9-1.3,1.9-2.6c0-1.2-0.1-2.8,1-3.4c0.8,0.3,1,1.4,1.3,2.3c0.3,0.9,1.1,1.8,1.9,1.4c1.1-0.5,0.2-2.4,0.9-3.4
										c0.7,0.7,1.6,1.4,2.5,1.9c-0.4-1.5,1.6-2.5,2-4c0.3-1.2-0.5-2.4-0.6-3.7c-0.1-1.6,1.1-3.1,2.7-3.3c0.1-1.5-1.5-2.6-2.9-3.2
										c-2.4-1-4.7-2.4-3.5-5c1.4-2.8,2.5-5.7,3.8-8.6c1.1-2.5,2.4-6.4,4.7-8.1c0.6-0.4,0.7-3.8,0.9-4.6
										C145.9,154.6,147.9,152.6,146.4,151.1z"/>
								</g>
								<g>
									<g>
										<path d="M107,150.5c-0.3,0.4-0.4,0.9-0.4,1.4c0,0.5,0.2,0.9,0.5,1.3c0.6,0.7,1.4,1.2,2.3,1.2c0.9,0.1,1.6-0.5,2.5-1
											c0.2-0.1,0.5-0.3,0.8-0.3c0.4-0.1,0.8,0.1,1.1,0.3c0.5,0.4,0.8,0.9,1,1.3l-0.6-0.2c0.5-0.1,0.7-0.5,1-1.1
											c0.1-0.3,0.2-0.6,0.4-0.9c0.2-0.3,0.4-0.7,0.7-0.9c0.3-0.2,0.5-0.5,1.1-0.6c0.3,0,0.6,0.1,0.7,0.2
											c0.2,0.1,0.3,0.2,0.4,0.2c0.2,0.1,0.4,0.1,0.7,0.1c0.2,0,0.4-0.1,0.6-0.3c0.2-0.2,0.4-0.4,0.6-0.7c0.2-0.3,0.5-0.6,1-0.7
											c0.4-0.1,0.8,0,1.1,0.1c0.3,0.1,0.7,0.3,0.9,0.6c1,1,1.1,2.4,2,3.3c-1.1-0.8-1.5-2.2-2.4-2.9c-0.4-0.4-1.1-0.6-1.5-0.4
											c-0.4,0.1-0.6,0.7-1.1,1.3c-0.3,0.3-0.7,0.5-1.1,0.6c-0.4,0.1-0.8,0-1.2-0.1c-0.4-0.2-0.6-0.3-0.7-0.3
											c-0.1,0-0.3,0.2-0.5,0.4c-0.4,0.4-0.6,0.9-0.8,1.5c-0.1,0.3-0.3,0.6-0.6,1c-0.3,0.3-0.6,0.5-1,0.7l0,0
											c-0.2,0.1-0.5,0-0.6-0.2c-0.2-0.4-0.5-0.8-0.8-1c-0.1-0.1-0.2-0.1-0.3-0.1c-0.1,0-0.3,0.1-0.5,0.2
											c-0.4,0.2-0.9,0.5-1.4,0.7c-0.5,0.2-1.1,0.3-1.6,0.2c-1.1-0.1-2.1-0.8-2.6-1.7c-0.3-0.5-0.4-1-0.3-1.5
											C106.4,151.3,106.7,150.8,107,150.5z"/>
									</g>
									<g>
										<path d="M128,144.9c0.5,0,1,0.1,1.5,0.3c0.5,0.2,0.9,0.5,1.3,0.9c0.3,0.4,0.5,1,0.6,1.5c0.1,0.5,0.1,1,0.2,1.5l-0.5-0.5
											c0.6-0.1,1.3,0.1,1.7,0.5c0.5,0.4,0.7,0.9,0.9,1.4c0.4,1,0.5,1.9,1,2.8c-0.8-0.7-1.2-1.7-1.7-2.5c-0.2-0.4-0.5-0.8-0.8-1
											c-0.3-0.2-0.7-0.3-1.1-0.3l0,0c-0.3,0-0.5-0.2-0.5-0.5l0,0c-0.1-0.9-0.1-1.9-0.5-2.6C129.7,145.8,128.9,145.3,128,144.9z"
											/>
									</g>
									<g>
										<path d="M113.2,166.7c1,0.1,1.9,0.3,2.9,0.3c0.5,0,1,0,1.3-0.2c0.3-0.2,0.5-0.6,0.6-1c0.1-0.4,0.2-0.9,0.4-1.5
											c0.1-0.3,0.3-0.5,0.6-0.7c0.2-0.2,0.5-0.3,0.8-0.4c0.3-0.1,0.7,0,1,0c0.3,0.1,0.5,0.2,0.7,0.2c0.3,0.1,1,0.1,1.3,0.1
											c0.2,0,0.6-0.3,1-0.6c0.4-0.3,0.8-0.6,1.4-0.8c0.3-0.1,0.6-0.2,1-0.1c0.4,0.1,0.6,0.4,0.8,0.6c0.3,0.4,0.5,0.8,0.9,1.1
											c0.6,0.5,1.6,1.1,2,0.3c0.4-0.8,0.4-1.8,0.5-2.8c0.1,1,0.3,1.9,0,3c-0.1,0.3-0.3,0.5-0.6,0.7c-0.3,0.2-0.6,0.2-0.9,0.1
											c-0.6-0.1-1-0.4-1.5-0.7c-0.4-0.3-0.8-0.8-1-1.1c-0.3-0.3-0.3-0.3-0.8-0.2c-0.4,0.2-0.8,0.4-1.1,0.7l-0.6,0.4
											c-0.2,0.2-0.6,0.3-0.9,0.4c-0.3,0-0.6,0-0.8,0c-0.2,0-0.5,0-0.8-0.1c-0.6-0.2-1-0.4-1.2-0.3c-0.1,0-0.3,0.1-0.5,0.2
											c-0.1,0.1-0.2,0.2-0.3,0.4c-0.2,0.4-0.3,0.8-0.5,1.3c-0.2,0.5-0.4,1.1-1,1.4c-0.6,0.3-1.1,0.2-1.6,0.1
											C115,167.3,114.1,167,113.2,166.7z"/>
									</g>
									<g>
										<path d="M131,171.1c0.2,0.4,0.3,0.8,0.3,1.2c0,0.4-0.1,0.9-0.4,1.3c-0.7,0.7-1.6,0.9-2.3,1.2c-0.4,0.1-0.8,0.3-1,0.5
											c-0.3,0.2-0.3,0.3-0.2,0.6c0.1,0.3,0.3,0.8,0.3,1.3c0,0.3,0,0.6-0.1,0.8c-0.1,0.2-0.3,0.5-0.5,0.7c-0.5,0.4-1,0.4-1.4,0.5
											c-0.4,0.1-0.8,0.1-1.2,0.2c-0.3,0.1-0.7,0.2-0.8,0.4c-0.2,0.2-0.4,0.7-0.6,1c-0.4,0.7-0.8,1.5-1.4,2.1
											c-0.2,0.2-0.3,0.3-0.5,0.4c-0.2,0.1-0.5,0.2-0.7,0.1c-0.4-0.3-0.5-0.8-0.5-1.2c0.2,0.4,0.4,0.8,0.7,0.9
											c0.3,0.1,0.6-0.2,0.8-0.6c0.4-0.7,0.8-1.4,1.1-2.2c0.2-0.4,0.3-0.7,0.6-1.2c0.4-0.5,0.8-0.7,1.3-0.8
											c0.5-0.1,0.9-0.2,1.3-0.2c0.4-0.1,0.8-0.2,0.9-0.3c0.1-0.1,0.1-0.2,0.2-0.3c0-0.1,0.1-0.3,0.1-0.4c0-0.3-0.1-0.6-0.2-1.1
											c0-0.2-0.1-0.6,0.1-0.9c0.1-0.3,0.4-0.5,0.6-0.7c0.4-0.3,0.8-0.4,1.3-0.5c0.8-0.2,1.7-0.3,2.2-0.8
											C131.2,172.8,131.1,171.9,131,171.1z"/>
									</g>
									<g>
										<path d="M131.5,182.1c0.7,0.8,1.5,1.6,2.1,2.6c0.1,0.3,0.3,0.6,0.3,1c0,0.4-0.2,0.7-0.4,1c-0.4,0.5-0.9,0.8-1.3,1.1
											c-0.4,0.3-0.7,0.6-0.8,0.9c-0.1,0.4,0.1,0.9,0.2,1.4c0.1,0.5,0.3,1.1,0.2,1.7c-0.1,0.7-0.7,1.1-1.2,1.2
											c0.5-0.3,0.8-0.8,0.7-1.2c0-0.5-0.2-0.9-0.4-1.4c-0.2-0.5-0.4-1.1-0.4-1.8c0-0.3,0.2-0.7,0.4-1c0.2-0.3,0.5-0.5,0.7-0.6
											c0.5-0.3,0.9-0.6,1.2-0.9c0.3-0.3,0.3-0.6,0.1-1.1C132.5,184.1,131.9,183.2,131.5,182.1z"/>
									</g>
									<g>
										<path d="M115.4,194.9c0.5-0.7,1-1.1,1.5-1.6c0.5-0.5,1-1,1.7-1.4c-0.1,0.8-0.4,1.5-1,2.1
											C117,194.5,116.3,194.9,115.4,194.9z"/>
									</g>
									<g>
										<path d="M100.4,175.8c0.4-0.4,0.7-0.7,1.1-1.1c0.2-0.2,0.5-0.3,0.9-0.2c0.3,0,0.6,0.2,0.8,0.3c0.9,0.5,1.8,1.1,2.5,1.9
											c0.4,0.4,0.7,0.8,1,1.2c0.3,0.4,0.7,0.7,1,0.9c0.2,0.1,0.3,0.1,0.3,0.1c0,0,0.2-0.1,0.3-0.3c0.2-0.4,0.3-0.8,0.4-1.3l0,0
											c0.1-0.3,0.3-0.4,0.6-0.4c0.2,0,0.3,0.2,0.4,0.4c0.1,0.5,0.2,0.7,0.6,0.7c0.5,0,1-0.2,1.5-0.4c0.5-0.2,1-0.5,1.6-0.8
											c0.5-0.3,1-0.6,1.6-0.7c-1,0.6-1.8,1.4-2.9,2.1c-0.5,0.3-1.1,0.6-1.8,0.7c-0.3,0.1-0.8,0-1.1-0.4
											c-0.1-0.2-0.3-0.3-0.3-0.5l-0.1-0.5l0.9,0c-0.1,0.5-0.2,1.1-0.4,1.6c-0.1,0.3-0.3,0.6-0.8,0.8c-0.4,0.2-0.9,0-1.2-0.1
											c-1-0.7-1.5-1.6-2.2-2.3c-0.6-0.7-1.4-1.4-2.2-2c-0.4-0.3-0.8-0.5-1.2-0.3C101.3,175.2,100.8,175.6,100.4,175.8z"/>
									</g>
									<g>
										<path d="M135.9,144c1,0.2,1.8,0.6,2.6,1.3c0.3,0.4,0.7,0.8,0.7,1.4c0.1,0.5,0,1.1-0.3,1.5c-0.2-1-0.5-1.6-1.1-2.2
											C137.2,145.4,136.4,144.9,135.9,144z"/>
									</g>
									<g>
										<path d="M134.7,182.6c0.6,0.9,1.5,1.5,2.2,2.4c0.3,0.5,0.7,0.9,0.8,1.6c0.1,0.8-0.3,1.3-0.4,1.8c-0.1,0.2-0.1,0.4-0.1,0.5
											c0,0.2,0.1,0.3,0.2,0.4c0.2,0.2,0.9,0.2,1.4,0.8c0.3,0.3,0.4,0.6,0.4,1c0,0.3-0.1,0.6-0.2,0.9c-0.2,0.5-0.5,1-0.4,1.5
											c-0.3-0.5-0.1-1.1-0.1-1.6c0-0.3,0.1-0.5,0-0.7c0-0.2-0.1-0.3-0.3-0.4c-0.3-0.2-0.8-0.2-1.5-0.6c-0.3-0.2-0.6-0.6-0.6-1
											c-0.1-0.4,0.1-0.8,0.2-1c0.2-0.5,0.4-1,0.4-1.3c0-0.4-0.3-0.9-0.5-1.3C135.7,184.6,134.9,183.7,134.7,182.6z"/>
									</g>
									<g>
										<path d="M130.5,154.7c-0.6-0.1-1.2,0.2-1.7,0.6c-0.2,0.2-0.5,0.4-0.6,0.6c-0.1,0.2-0.1,0.3,0,0.5c0.3,0.4,0.8,0.8,1.3,1.1
											c0.3,0.2,0.5,0.3,0.8,0.4c0.3,0.1,0.5,0.2,0.6,0.1c0.1,0,0.3-0.2,0.7-0.4c0.2-0.1,0.6-0.1,0.6-0.1l0.5,0
											c0.2,0,0.3,0,0.5,0l0.1,0c0,0,0.1,0,0.2,0c0.1,0,0.2,0.1,0.3,0.1c0.1,0.1,0.2,0.2,0.3,0.3c0.1,0.1,0.2,0.3,0.2,0.3
											c0,0,0,0,0.1,0c0.3,0,0.6-1,1.5-1.2c0.7-0.1,1.3,0.1,2-0.1c-0.5,0.5-1.3,0.4-1.8,0.6c-0.3,0.1-0.4,0.3-0.5,0.5
											c-0.2,0.2-0.3,0.6-0.7,0.9c-0.1,0.1-0.3,0.1-0.4,0.1c-0.2,0-0.3-0.1-0.4-0.1c-0.2-0.2-0.3-0.3-0.4-0.4
											c0,0-0.1-0.1-0.1-0.1s0,0,0,0c0,0,0,0,0,0l-0.1,0c-0.1,0-0.3,0-0.4,0.1c-0.3,0.1-0.8,0.1-0.8,0.1c-0.1,0.1-0.5,0.4-1,0.5
											c-0.5,0.1-0.9-0.1-1.2-0.2c-0.3-0.1-0.6-0.3-0.9-0.5c-0.6-0.4-1.1-0.8-1.5-1.6c-0.1-0.2-0.1-0.4-0.1-0.7
											c0-0.3,0.2-0.4,0.3-0.6c0.3-0.3,0.6-0.5,0.9-0.6c0.3-0.1,0.6-0.2,1-0.3C129.8,154.5,130.2,154.5,130.5,154.7z"/>
									</g>
									<g>
										<path d="M134.5,148.4c0.5,0,1.1,0.2,1.5,0.6c0.4,0.4,0.7,0.8,1,1.3c0.5,0.9,0.7,1.7,1.2,2.7c-0.5-0.2-0.9-0.5-1.3-0.9
											c-0.3-0.4-0.6-0.9-0.8-1.3C135.6,149.8,135.3,149.1,134.5,148.4z"/>
									</g>
									<g>
										<path d="M140.6,144c0,0.5,0,1.1,0.2,1.2c0.1,0.1,0.4,0.4,0.5,0.6c0.1,0.3,0.2,0.5,0.3,0.8c0.3,1,0.2,2,0.2,3
											c-0.4-0.4-0.6-0.9-0.8-1.3c-0.2-0.5-0.3-0.9-0.4-1.4c-0.1-0.2-0.1-0.5-0.2-0.6c-0.1-0.2-0.2-0.3-0.3-0.6
											c-0.2-0.3-0.1-0.7,0-1C140.3,144.4,140.4,144.2,140.6,144z"/>
									</g>
									<g>
										<path d="M143.7,146.5c0.3,0.5,0.3,1,0.3,1.4c-0.1,0.4-0.3,0.9-0.8,1.2c-0.2-0.5-0.2-1-0.2-1.4
											C143.1,147.3,143.3,146.8,143.7,146.5z"/>
									</g>
									<g>
										<path d="M107.6,138.8c-0.2,0.5-0.3,1-0.1,1.4c0.2,0.4,0.7,0.5,1.1,0.5c0.5,0,1-0.1,1.4-0.3c0.2,0,0.4-0.2,0.9-0.2
											c0.4,0.1,0.6,0.3,0.8,0.4c0.9,0.5,1.7,1.2,2.6,1.6c0.9,0.4,1.8,0.7,2.3,0.2c0.2-0.2,0.5-0.2,0.7,0c0,0,0,0,0,0.1
											c0.4,0.6,0.7,1.2,1.1,1.7c0.4,0.5,0.9,0.9,1.5,1.1c0.6,0.3,1.2,0.2,2,0.2c0.4,0,0.8,0.1,1.1,0.3c0.3,0.2,0.5,0.5,0.6,0.9
											c-0.2-0.3-0.4-0.5-0.7-0.7c-0.3-0.1-0.6-0.1-0.9-0.1c-0.6,0.1-1.4,0.3-2.2,0.1c-0.8-0.2-1.4-0.7-1.9-1.2
											c-0.5-0.6-0.9-1.2-1.3-1.7l0.7,0.1c-0.5,0.5-1.2,0.6-1.8,0.5c-0.6-0.1-1.1-0.3-1.6-0.6c-1-0.5-1.8-1.2-2.6-1.7
											c-0.2-0.1-0.4-0.3-0.5-0.3c0,0-0.3,0-0.6,0.1c-0.5,0.1-1.1,0.2-1.6,0.1c-0.3,0-0.6-0.1-0.8-0.2c-0.3-0.1-0.5-0.4-0.6-0.7
											C107,139.7,107.3,139.2,107.6,138.8z"/>
									</g>
									<g>
										<path d="M113.9,180.7c-1.2,0.9-2.6,1.7-3.6,2.7c-0.5,0.5-0.9,1.1-1,1.8c-0.1,0.7,0,1.5-0.3,2.3l-0.3-0.5
											c0.1,0.1,0.3,0.1,0.4,0.1c0.1,0,0.1,0,0.2-0.1c0.2-0.2,0.5-0.6,1-0.8c0.5-0.2,0.9-0.2,1.3-0.3c0.2,0,0.4,0,0.5-0.1
											c0.1,0,0.1,0,0.1,0c0.1,0,0.1-0.1,0.1-0.1c0.2-0.1,0.2-0.4,0.3-0.8c0.1-0.4,0.4-1.1,1-1.2c0.3-0.1,0.5-0.1,0.6-0.1
											c0.1,0,0.1,0,0.2-0.2c0.2-0.2,0.4-0.6,0.7-0.9c0.7-0.7,1.2-1,1.7-1.6c0.2-0.3,0.5-0.6,0.5-0.7c0,0,0,0,0-0.1
											c0,0,0-0.1,0-0.1c0-0.1,0-0.2,0.1-0.3c0,0,0.1-0.1,0.1-0.1c0,0,0,0,0.1,0c0.2-0.1,0.2-0.1,0.3-0.1l0.6-0.1
											c0.4-0.1,0.9-0.1,1.2,0c0.3,0,0.6-0.2,0.8-0.5c0.5-0.5,0.6-1.4,1.1-2c-0.4,0.7-0.3,1.5-0.8,2.2c-0.2,0.3-0.5,0.7-1.1,0.8
											c-0.5,0-0.8,0-1.1,0.1l-0.6,0.2c-0.1,0-0.2,0.1-0.2,0.1c0,0,0,0,0,0c0,0,0,0,0.1-0.1c0,0,0.1-0.1,0.1-0.2c0,0,0,0,0-0.1
											c0,0,0.1,0.1,0.1,0.2c0.1,0.4-0.1,0.6-0.1,0.8c-0.1,0.2-0.2,0.4-0.3,0.5c-0.4,0.7-1.1,1.3-1.6,1.7c-0.2,0.2-0.4,0.6-0.7,1
											c-0.1,0.1-0.1,0.2-0.3,0.3c-0.1,0.1-0.3,0.2-0.4,0.2c-0.3,0.1-0.5,0.1-0.6,0.1c-0.1,0-0.3,0.2-0.3,0.5
											c-0.1,0.3-0.1,0.9-0.5,1.3c-0.1,0.1-0.2,0.2-0.3,0.2c-0.1,0.1-0.3,0.2-0.4,0.2c-0.3,0.1-0.5,0.1-0.7,0.1
											c-0.4,0-0.8,0-1,0.1c-0.2,0.1-0.4,0.3-0.8,0.7c-0.2,0.2-0.5,0.3-0.8,0.3c-0.3,0-0.6-0.1-0.8-0.2c-0.2-0.1-0.3-0.3-0.3-0.5
											c0.2-0.6,0.2-1.4,0.4-2.2c0.2-0.8,0.8-1.5,1.4-2C111,181.9,112.5,181.4,113.9,180.7z"/>
									</g>
									<g>
										<path d="M122.8,187c-0.2,0.3-0.3,0.6-0.4,1c-0.1,0.3-0.1,0.7-0.1,1c0,0.7,0.3,1.4,0.8,1.5l-0.4,0.2c0.2-0.6,0.8-1,1.2-1.2
											c0.5-0.2,0.8-0.4,0.9-0.8c0.2-0.3,0.2-0.8,0.2-1.2c0-0.4-0.1-0.9-0.3-1.2c-0.1-0.2-0.1-0.5,0.1-0.6
											c0.7-0.7,1.4-1.3,1.9-2.1c0.5-0.8,0.8-1.6,0.8-2.6l0,0c0-0.2,0.1-0.3,0.3-0.3c0.7-0.1,1.2-0.8,1.7-1.6
											c0.5-0.7,0.9-1.6,1.7-2.1c-0.6,0.7-0.9,1.5-1.3,2.3c-0.2,0.4-0.4,0.8-0.7,1.2c-0.3,0.4-0.7,0.7-1.3,0.9l0.3-0.4
											c0.1,1.1-0.2,2.2-0.8,3.1c-0.6,0.9-1.3,1.7-2.1,2.3l0.1-0.6c0.3,0.6,0.4,1.1,0.5,1.7c0,0.6-0.1,1.1-0.4,1.7
											c-0.3,0.6-0.9,0.9-1.4,1.1c-0.5,0.2-0.8,0.4-1,0.8l0,0c-0.1,0.2-0.3,0.2-0.4,0.1c-0.4-0.2-0.7-0.6-0.8-1
											c-0.1-0.4-0.1-0.8-0.1-1.2C122,188.3,122.3,187.5,122.8,187z"/>
									</g>
									<g>
										<path d="M121.4,168.7c0.6,0,1.1,0.4,1.6,0.6c0.3,0.1,0.4,0.2,0.7,0.1c0.2,0,0.5-0.1,0.8-0.2c0.5-0.2,1.1-0.3,1.6-0.5
											c0.6-0.2,1-0.3,1.3-0.6c0.3-0.3,0.7-1,1.3-1.3c0.3-0.2,0.7-0.3,1-0.3c0.4,0,0.7,0.1,1,0.2c0.6,0.2,1.1,0.6,1.5,0.8
											c0.5,0.3,1,0.4,1.6,0.1c-0.2,0.2-0.5,0.4-0.8,0.4c-0.3,0-0.6,0-0.9-0.1c-0.6-0.2-1.1-0.4-1.6-0.5
											c-0.5-0.1-0.9-0.1-1.3,0.2c-0.4,0.2-0.6,0.7-1.1,1.2c-0.5,0.5-1.3,0.7-1.7,0.8c-0.6,0.1-1.1,0.3-1.7,0.4
											c-0.3,0-0.6,0.1-0.9,0c-0.3,0-0.7-0.2-0.9-0.4C122.3,169.3,121.9,168.8,121.4,168.7z"/>
									</g>
									<g>
										<path d="M104.2,160.3c-1-0.1-2-0.4-3-0.3c-0.5,0-0.9,0.2-1.1,0.6c-0.1,0.2-0.2,0.4-0.2,0.6c0,0.2,0,0.2,0.1,0.3
											c0.3,0.1,0.9,0.3,1.3,0.4c0.4,0,0.7-0.1,1.3-0.4c0.5-0.2,1.3-0.3,1.9,0c0.6,0.3,1,0.7,1.3,0.9c0.4,0.2,0.8,0.3,1.1,0.2
											c0.3-0.1,0.7-0.4,1.1-0.7c0.2-0.2,0.5-0.3,0.8-0.4c0.3-0.1,0.6-0.1,0.9-0.1c0.7,0.1,1.1,0.3,1.5,0.4
											c0.8,0.2,1.7-0.5,2.9-0.6c1.1,0,2.1,0.4,3.1,0.4c-1,0.1-2.1-0.1-3,0.1c-0.5,0.1-0.9,0.3-1.4,0.5c-0.5,0.2-1.1,0.4-1.6,0.4
											c-0.6,0-1.1-0.3-1.5-0.3c-0.2,0-0.4,0-0.6,0.1c-0.2,0.1-0.3,0.1-0.5,0.3c-0.4,0.3-0.8,0.7-1.4,0.9c-0.7,0.2-1.3,0-1.9-0.3
											c-0.5-0.3-0.9-0.7-1.2-0.8c-0.4-0.2-0.7-0.2-1.1,0c-0.4,0.1-1,0.5-1.7,0.4c-0.3,0-0.6-0.1-0.8-0.2
											c-0.2-0.1-0.5-0.2-0.8-0.4c-0.1-0.1-0.3-0.3-0.4-0.5c-0.1-0.2,0-0.4,0-0.6c0.1-0.3,0.2-0.6,0.4-0.8
											c0.4-0.5,1.1-0.7,1.6-0.7C102.3,159.6,103.3,159.9,104.2,160.3z"/>
									</g>
									<g>
										<path d="M105.1,143.8c0.5-0.4,1.2-0.7,1.9-0.6c0.8,0.2,1.2,0.8,1.6,1.3c0.4,0.5,0.7,1,1.2,1.3c0.1,0.1,0.3,0.1,0.7,0.1
											c0.3,0,0.7,0,1.2,0.2c0.5,0.2,0.6,0.6,0.8,0.8c0.2,0.2,0.3,0.3,0.5,0.3c0.1,0,0.3-0.1,0.7-0.3c0.1,0,0.2-0.1,0.4-0.1
											c0.1,0,0.2,0,0.2,0c0.1,0,0.1,0,0.2,0c0.2,0.1,0.4,0.1,0.5,0.2c1.1,0.6,2.2,1.3,3.3,2.1c-1.3-0.4-2.4-0.8-3.6-1.3
											c-0.1-0.1-0.3-0.1-0.4-0.1c0,0-0.1,0-0.1,0c0,0,0,0,0,0c0,0,0,0-0.1,0c-0.2,0.1-0.5,0.4-1.1,0.4c-0.5,0-0.9-0.4-1.2-0.6
											c-0.2-0.3-0.4-0.5-0.5-0.5c-0.1-0.1-0.4-0.1-0.7-0.1c-0.3,0-0.8,0-1.2-0.3c-0.6-0.5-1-1.1-1.3-1.6
											c-0.3-0.5-0.6-1.1-1.1-1.3C106.4,143.5,105.7,143.6,105.1,143.8z"/>
									</g>
									<g>
										<path d="M121,140c0.1-0.2,0.3-0.5,0.6-0.6c0.1-0.1,0.3-0.1,0.5-0.1c0.2,0,0.4,0.1,0.5,0.2c0.5,0.5,0.7,1,0.8,1.5
											c0.1,0.5,0.2,1,0.3,1.5c0.1,0.5,0.1,1,0.3,1.4c-0.5-0.2-0.8-0.8-1-1.2c-0.2-0.5-0.3-1-0.5-1.4c-0.1-0.5-0.2-0.9-0.4-1.2
											c-0.1-0.2-0.1-0.2-0.3-0.2C121.5,139.8,121.3,139.9,121,140z"/>
									</g>
									<g>
										<path d="M127.8,138.4c0.5,0.2,0.6,0.4,0.7,0.7c0.1,0.3,0.1,0.6-0.2,1c-0.5-0.2-0.6-0.4-0.7-0.7
											C127.6,139.1,127.6,138.8,127.8,138.4z"/>
									</g>
									<g>
										<path d="M107.2,192.9c-0.1,0.9,0,1.8,0.4,2.5l-0.3-0.2c0.4-0.2,0.7-0.6,1-1.1c0.3-0.5,0.6-1,1.2-1.5
											c0.3-0.2,0.5-0.3,0.8-0.4l0.4-0.2c0.1-0.1,0.2-0.1,0.2-0.2c0.2-0.1,0.3-0.4,0.6-0.6c0.2-0.1,0.3-0.2,0.5-0.3
											c0.3-0.1,0.4-0.1,0.6-0.1c0.3,0,0.6,0.1,0.8,0.1c0,0,0.1,0,0.1,0c0,0,0,0,0,0c0.1-0.1,0.1-0.1,0.2-0.2
											c0.1-0.1,0.1-0.4,0.2-0.8c0.2-0.4,0.4-0.6,0.6-0.8c0.9-0.9,1.8-1.5,2.7-2.2c-0.6,1-1.5,1.8-2.1,2.7
											c-0.2,0.2-0.4,0.5-0.4,0.6c-0.1,0.2,0,0.5-0.2,0.9c-0.1,0.2-0.2,0.4-0.4,0.5c-0.1,0-0.2,0.1-0.3,0.2c-0.1,0-0.2,0-0.3,0.1
											c-0.4,0-0.7,0-0.9-0.1c-0.4-0.1-0.5,0.2-1.1,0.7c-0.1,0.1-0.3,0.3-0.5,0.3l-0.4,0.2c-0.3,0.1-0.5,0.3-0.7,0.4
											c-0.3,0.2-0.7,0.7-1,1.2c-0.4,0.4-0.7,1-1.5,1.2l0,0c-0.1,0-0.3,0-0.3-0.2c-0.2-0.5-0.2-0.9-0.2-1.4
											C106.9,193.8,107,193.3,107.2,192.9z"/>
									</g>
									<g>
										<path d="M120.7,199.2c0.3-0.2,0.7-0.4,0.7-0.7c0-0.2-0.1-0.5-0.3-0.8c-0.4-0.6-0.9-1.1-1.3-2c0-0.1-0.1-0.3-0.1-0.4
											c0-0.1,0-0.2,0-0.4c0-0.3,0.2-0.6,0.4-0.7c0.4-0.3,0.4-0.3,0.6-0.7c0.1-0.3,0.2-0.7,0.2-1c0-0.4,0-0.7-0.1-1.1
											c0.2,0.3,0.4,0.7,0.5,1.1c0.1,0.4,0.1,0.9,0.1,1.3c0,0.2-0.1,0.5-0.2,0.7c-0.1,0.2-0.3,0.4-0.4,0.5
											c-0.1,0.1-0.1,0.2-0.1,0.3c0,0.1,0,0.1,0,0.2c0,0.1,0,0.1,0,0.1c0.2,0.5,0.7,1.2,1.1,1.9c0.1,0.4,0.3,0.9,0.1,1.4
											C121.5,199.2,121.1,199.2,120.7,199.2z"/>
									</g>
									<g>
										<path d="M126.1,196.8c-0.3-0.5-0.5-1-0.5-1.6c-0.1-0.6,0-1.2,0.2-1.7c0.2-0.5,0.5-1,0.8-1.4c0.3-0.4,0.7-0.8,1.1-1.2
											c-0.1,1.1-0.6,2.1-0.9,3c-0.2,0.4-0.3,0.9-0.4,1.4C126.3,195.7,126.2,196.2,126.1,196.8z"/>
									</g>
									<g>
										<path d="M99,180.5c-0.6-0.1-1.2,0-1.5,0.4c-0.3,0.4-0.2,0.9-0.1,1.4c0.2,0.5,0.5,0.9,0.8,1l0.3,0.1c0.1,0,0.2,0,0.3,0
											l0.3-0.1c0,0,0.1-0.1,0.1-0.1c0.1-0.1,0.2-0.4,0.3-0.7c0.2-0.3,0.5-0.7,0.9-0.8c0.4-0.1,0.8,0,1.1,0
											c0.3,0.1,0.6,0.1,0.8,0.2c0.2,0,0.5,0,0.8-0.1c0.3-0.1,0.6-0.1,0.8-0.2c0.6-0.1,1.1-0.3,1.7-0.4c-0.5,0.3-1,0.6-1.5,0.9
											c-0.6,0.2-1,0.5-1.8,0.6c-0.3,0-0.7,0-0.9-0.1c-0.3,0-0.5,0-0.6,0c-0.1,0.1-0.2,0.1-0.3,0.3c-0.1,0.2-0.2,0.5-0.4,0.8
											c-0.1,0.2-0.3,0.4-0.5,0.5c-0.2,0.1-0.4,0.1-0.5,0.2c-0.2,0-0.4,0-0.6,0c-0.2,0-0.4-0.1-0.6-0.2c-0.7-0.4-1.1-1-1.2-1.7
											c-0.1-0.6-0.1-1.4,0.5-1.9C97.8,180.1,98.5,180.3,99,180.5z"/>
									</g>
									<g>
										<path d="M92.4,167.1c0.1,0.4,0.3,0.8,0.5,1.2c0.2,0.3,0.6,0.6,0.9,0.5c0.2,0,0.4,0,0.5-0.1c0.2-0.1,0.4-0.2,0.5-0.3
											c0.2-0.2,0.4-0.6,0.7-1c0.1-0.2,0.3-0.4,0.6-0.6c0.2-0.1,0.4-0.1,0.6-0.1c0.2,0,0.3,0.1,0.4,0.2c0.4,0.3,0.8,0.6,1.1,0.7
											c0.1,0.1,0.3,0,0.5-0.3c0.2-0.3,0.4-0.8,0.9-1.2c0.5-0.4,1.1-0.5,1.6-0.5c0.5,0,0.9,0.1,1.3,0.1c0.1,0,0.3,0,0.4,0
											c0.2,0,0.3,0.1,0.4,0.1c0.2,0.1,0.3,0.1,0.4,0.1c0.1,0,0.4-0.4,0.9-0.7c0.1-0.1,0.3-0.2,0.4-0.2c0.1,0,0.3,0,0.4,0
											c0.3,0,0.5,0.1,0.8,0.2c0.5,0.2,0.8,0.5,1.2,0.7c0.4,0.3,0.7,0.5,1.1,0.6c0.4,0.1,0.8,0.1,1.3,0c-0.4,0.2-0.8,0.4-1.3,0.3
											c-0.5-0.1-0.9-0.3-1.3-0.5c-0.4-0.2-0.8-0.4-1.1-0.5c-0.2,0-0.4-0.1-0.5-0.1l-0.2,0c0,0-0.1,0-0.2,0.1
											c-0.1,0.1-0.2,0.3-0.4,0.4c-0.2,0.2-0.4,0.4-0.8,0.5c-0.3,0.1-0.7,0-0.9-0.1c-0.1,0-0.2-0.1-0.2-0.1c-0.1,0-0.1,0-0.2,0
											c-1,0-1.8-0.2-2.2,0.2c-0.2,0.2-0.4,0.5-0.7,0.9c-0.1,0.2-0.3,0.4-0.6,0.6c-0.2,0.1-0.3,0.1-0.5,0.2
											c-0.2,0-0.4-0.1-0.5-0.1c-0.5-0.3-0.8-0.6-1.1-0.8c-0.1,0-0.1-0.1-0.2-0.1c0,0,0,0-0.1,0c-0.1,0-0.2,0.1-0.3,0.3
											c-0.2,0.3-0.4,0.7-0.9,1.1c-0.2,0.2-0.5,0.2-0.7,0.3c-0.2,0.1-0.5,0.1-0.8,0c-0.5-0.1-0.9-0.5-1.1-0.9
											C92.4,168,92.4,167.5,92.4,167.1z"/>
									</g>
									<g>
										<path d="M98,170.4c-1.1,0.3-2.2,0.5-3.1,1c-0.5,0.2-0.9,0.5-1.1,0.9c-0.2,0.4,0,0.8,0.3,1.2c0.5,0.5,2,0.6,2.5,0.2
											c0.1-0.1,0.2-0.2,0.3-0.5c0.1-0.2,0.2-0.7,0.7-0.9c0.5-0.2,0.9-0.1,1.1-0.1c0.3,0.1,0.5,0.1,0.7,0.1
											c0.4,0,0.8-0.2,1.3-0.5c0.4-0.3,1-0.7,1.6-0.8c0.7-0.2,1.2-0.1,1.8,0c0.6,0.1,1.1,0.1,1.7,0.3c0.6,0.2,1.1,0.5,1.6,0.7
											c0.5,0.2,1,0.3,1.4,0.2c0.9-0.3,1.8-1.4,2.9-1.4c-0.6,0.1-1,0.5-1.4,0.8c-0.4,0.4-0.8,0.8-1.4,1.1
											c-0.6,0.3-1.3,0.1-1.8-0.1c-0.5-0.2-1.1-0.4-1.5-0.5c-1-0.1-2.2-0.3-3.1-0.1c-0.4,0.1-0.8,0.4-1.3,0.7
											c-0.5,0.3-1.1,0.6-1.8,0.7c-0.4,0-0.7-0.1-0.9-0.2c-0.2-0.1-0.4-0.1-0.5,0c-0.1,0-0.1,0.1-0.2,0.4
											c-0.1,0.3-0.3,0.6-0.6,0.9c-0.7,0.4-1.3,0.4-1.9,0.3c-0.6-0.1-1.3-0.2-1.8-0.8c-0.2-0.3-0.3-0.5-0.4-0.9
											c-0.1-0.3,0-0.7,0.1-1c0.4-0.6,1-0.9,1.5-1.1C95.7,170.6,96.8,170.4,98,170.4z"/>
									</g>
									<g>
										<path d="M117.7,172.7c0.6-0.7,1.4-1.1,2.4-1.1c0.5,0,1,0.2,1.4,0.5c0.4,0.3,0.7,0.7,0.7,1.2c-0.8-0.4-1.4-0.7-2.1-0.7
											C119.4,172.5,118.6,172.7,117.7,172.7z"/>
									</g>
									<g>
										<path d="M97.3,153.3c0.2-0.4,0.4-0.8,0.7-1.1c0.3-0.3,0.7-0.7,1.2-0.8c0.6-0.1,1.1,0.2,1.5,0.5c0.4,0.3,0.6,0.7,0.8,1.1
											c0.4,0.7,0.8,1.5,1.3,1.6c0.6,0.2,1.5,0,2.4,0.1c-0.4,0.2-0.8,0.3-1.2,0.5c-0.4,0.1-0.8,0.3-1.3,0.2c-0.6,0-1-0.5-1.3-0.8
											c-0.3-0.3-0.5-0.7-0.7-1.1c-0.4-0.7-0.9-1.3-1.4-1.3C98.6,152.2,97.9,152.8,97.3,153.3z"/>
									</g>
									<g>
										<path d="M94.1,157.8c0.6-0.2,1-0.2,1.5-0.1c0.5,0.1,0.9,0.3,1.3,0.8c-0.6,0.3-1,0.3-1.5,0.2
											C94.9,158.5,94.5,158.3,94.1,157.8z"/>
									</g>
									<g>
										<path d="M109.5,159.2c1.1-0.7,2.5-0.7,3.8-0.7c0.6,0,1.2,0,1.8-0.2c0.6-0.1,1.2-0.3,1.9-0.4c0.4,0,0.7-0.1,1.1,0
											c0.5,0.1,0.8,0.3,1,0.4c0.1,0,0.2,0.1,0.2,0.1c0,0,0.1,0,0.1,0c0,0,0,0,0,0c0.1-0.1,0.2-0.5,0.5-0.8
											c0.3-0.3,0.8-0.5,1.2-0.3c0.4,0.1,0.6,0.3,0.9,0.5c0.5,0.4,1,0.8,1.5,1.2c-0.6-0.1-1.2-0.5-1.7-0.8
											c-0.3-0.1-0.6-0.3-0.8-0.3c-0.2,0-0.4,0-0.5,0.2c-0.1,0.2-0.2,0.4-0.4,0.8c-0.1,0.1-0.2,0.2-0.4,0.3
											c-0.1,0-0.2,0.1-0.3,0.1c-0.2,0-0.5,0-0.7-0.1c-0.4-0.2-0.6-0.3-0.8-0.3c-0.2,0-0.5,0-0.8,0c-0.6,0.1-1.2,0.2-1.8,0.3
											c-0.7,0.1-1.3,0.1-2,0C111.9,159.2,110.7,158.9,109.5,159.2z"/>
									</g>
									<g>
										<path d="M103.4,145.9c0.6-0.3,1.1-0.2,1.5,0c0.5,0.2,0.9,0.5,1.1,1.1c-0.6,0.1-1,0-1.5-0.1
											C104.1,146.7,103.7,146.4,103.4,145.9z"/>
									</g>
									<g>
										<path d="M101.5,190.1c-0.1-0.2-0.1-0.5-0.1-0.8c0.1-0.3,0.3-0.5,0.5-0.7c0.2-0.2,0.5-0.3,0.7-0.4c0.2-0.1,0.4-0.2,0.7-0.3
											c0.3-0.1,0.6-0.2,0.8-0.2c0.1,0,0.2-0.1,0.1,0c-0.1,0.1,0,0,0-0.1c0-0.2,0.1-0.5,0.1-0.7c0-0.2,0-0.4,0-0.6
											c0-0.2-0.1-0.4-0.1-0.7c-0.1-0.3,0-0.7,0.1-1c0.2-0.3,0.4-0.5,0.6-0.7c0.2-0.2,0.5-0.4,0.7-0.5c1-0.4,2-0.5,2.9-0.8
											c-0.8,0.7-1.8,1-2.6,1.5c-0.2,0.1-0.4,0.3-0.5,0.4c-0.1,0.2-0.3,0.3-0.3,0.5c-0.1,0.2-0.1,0.2,0,0.4
											c0,0.2,0.1,0.5,0.1,0.7c0,0.3,0,0.6,0,0.9c0,0.3-0.1,0.5-0.1,0.8c-0.1,0.1-0.1,0.3-0.3,0.6c-0.3,0.2-0.5,0.1-0.6,0.2
											c-0.2,0-0.4,0-0.6,0.1C102.6,188.9,101.4,189,101.5,190.1z"/>
									</g>
									<g>
										<path class="st20" d="M96.9,186.8"/>
									</g>
									<g>
										<path d="M96.9,187.3c0.1,0.1,0.1,0.2,0.1,0.3c0,0,0,0,0,0c0,0,0-0.1-0.1-0.1c-0.1,0,0,0,0-0.1l-0.1,0.1
											c0.2-0.3,0.4-0.6,0.7-0.8c0.3-0.2,0.6-0.4,0.9-0.5c0.3-0.1,0.6-0.2,1-0.3c0.3,0,0.7-0.1,1,0c-0.2,0.3-0.5,0.5-0.8,0.7
											c-0.3,0.2-0.5,0.3-0.8,0.5c-0.3,0.2-0.5,0.3-0.8,0.4c-0.3,0.1-0.6,0.3-0.9,0.4l-0.1,0.1c-0.1,0-0.1,0-0.2-0.1
											c-0.1,0-0.1-0.2-0.1-0.2c0,0,0-0.1,0-0.1C96.8,187.5,96.9,187.4,96.9,187.3z"/>
									</g>
									<g>
										<path d="M112.8,172.5c0.4-0.7,0.8-1.1,1.4-1.5c0.5-0.4,1.2-0.7,1.9-0.7c-0.4,0.7-0.8,1.1-1.4,1.5
											C114.2,172.2,113.6,172.5,112.8,172.5z"/>
									</g>
									<g>
										<path d="M134,162.7c0.3-0.3,0.4-0.3,0.6-0.3c0.1,0.1,0.2,0.2,0.1,0.6c-0.3,0.3-0.4,0.3-0.6,0.3
											C134,163.3,133.9,163.1,134,162.7z"/>
									</g>
									<g>
										<path d="M126.8,147.3c0.8,0.4,1.3,0.9,1.8,1.6c0.2,0.3,0.4,0.7,0.6,1.1c0.1,0.4,0.2,0.8,0.1,1.2c-0.6-0.6-1.1-1.1-1.5-1.7
											C127.3,148.9,126.9,148.2,126.8,147.3z"/>
									</g>
								</g>
							</g>
							<g>
								<path class="st1" d="M141.4,174.8c0-3,0.7-5.9,1.8-8.7c1.2-2.9,4.7-9.4,8.3-9.5c-2-2.7-3.2-5.5-6.4-6.9
									c-3.8,2.8-5.8,8.1-6.9,12.4c-0.9,3.3-1.8,8.2-0.7,11.5c0.2,0.1,0.1-0.1,0.2-0.2L141.4,174.8z"/>
							</g>
							<g>
								<path class="st7" d="M141.8,175c0.1-2.5-3.5-4.2-5.6-3.4c-5.2,1.9-3.1,9.5,2.1,9.4c1,0,2.2-0.5,2.9-0.7"/>
							</g>
							<g>
								<g>
									<path class="st5" d="M153.5,186.2c-0.7,0.2-1.5,0.2-2.3,0.2c-0.8-0.1-1.5-0.3-2.3-0.6c-1.4-0.6-2.8-1.7-3.4-3.1
										c1.2,0.9,2.5,1.6,3.8,2.2c0.7,0.3,1.3,0.5,2,0.7C152,185.8,152.7,186,153.5,186.2z"/>
								</g>
								<g>
									<g>
										<path d="M145.4,167.2c0.2-1,0.6-2,1.3-2.7c0.7-0.7,1.7-1.3,2.7-1.4c-0.7,0.8-1.4,1.4-2,2
											C146.9,165.8,146.3,166.6,145.4,167.2z"/>
									</g>
									<g>
										<path d="M145.6,174.1c0.3-0.4,0.6-0.7,1.1-0.9c0.4-0.2,1-0.3,1.5-0.1c0.5,0.2,1,0.5,1.2,1c0.3,0.4,0.4,0.9,0.4,1.4
											c-0.7-0.6-1.2-1.2-1.9-1.4C147.3,173.8,146.6,173.9,145.6,174.1z"/>
									</g>
								</g>
							</g>
						</g>
						<g>
							<g>
								<path class="st7" d="M165.9,259.9c-1.5,3.3-1.7,5.2,2.5,6.6c2.9,1.1,5.1,1.5,7-1.3c1.5-2.5,2.9-5,4.2-7.5
									c0.4-0.7,0.8-1.5,1.1-2.2c0.7,2,1.1,4.2,2,6.1c1.4,2.9,2.7,1.5,2.6-1.1c0-2-0.5-4-0.8-6c-0.4-2.4-0.6-3.5-3.3-2.5
									c0.1-1.3,0.6-2.2-0.7-2.8c-0.8-0.4-2.8,0-3.5,0.2c1.4-2.5,6.5-8.8,8.3-11.1c0.9-1.1,1.8-2.2,0-3.4
									c-1.8-1.2-7.3,9.4-10.1,12.9c0-4.5,4-8.8,4.5-13.3c0.1-0.9,0.2-2.2-1.3-2.1c-1.2,0.1-1.3,1.9-1.7,2.8
									c-0.7,1.9-1.3,3.9-2.1,5.8L165.9,259.9z"/>
							</g>
							<g>
								<path class="st7" d="M139.2,255c0.1-2.1,5.1-17.6,8.3-27.9c-1.2-6.4-6-13.2-13.1-9c-3.3,1.9-1.7,0.2-6.8,5.1
									c-1.5,9.4-3.5,21.8-4.1,24.9c-0.6,3.6-3.9,15.8,0.9,17.6c2.6,1,41.9,0.6,45.6,0.8c0.1-2-1.9-5-1.6-6.9
									C163.6,258.8,144.6,256.7,139.2,255z"/>
							</g>
							<g>
								<g>
									<path class="st17" d="M133.6,219.2c8.2-3.7,12.8,1.6,13.9,8c1-3.2,1.8-5.8,2.2-7.2c1.2-4.1,4.4-12.2,1-15.6
										c-3.9-4.1-7.6-4.3-12.8-5.4c-2.4-0.5-6.5,2.6-7.5,4.7c0,0-1.2,7.9-3.1,20.6C129.9,221.2,130.2,220.7,133.6,219.2z"/>
								</g>
								<g>
									<g>
										<path class="st17" d="M139.5,199.6c-2.4,0.6-6,2-7.5,4c-4.4,5.9-3.9,16-4.7,19.6"/>
										<path class="st18" d="M139.5,199.6c-1.1,0.4-2.3,0.8-3.3,1.4c-1.1,0.5-2.1,1.1-2.9,1.9c-0.4,0.4-0.8,0.8-1.1,1.3l-0.5,0.7
											l-0.4,0.8c-0.5,1-0.9,2.2-1.3,3.3c-0.7,2.3-1.1,4.6-1.5,7c-0.4,2.4-0.5,4.8-1.2,7.1c0.2-1.2,0.2-2.4,0.2-3.6
											c0.1-1.2,0.1-2.4,0.2-3.6c0.2-2.4,0.6-4.8,1.3-7.2c0.4-1.2,0.8-2.3,1.4-3.4l0.5-0.8l0.5-0.8c0.3-0.5,0.8-1,1.3-1.4
											C134.7,200.8,137.1,200,139.5,199.6z"/>
									</g>
									<g>
										<path class="st17" d="M150.7,214.6c0,3.5-1.5,7.3-2.3,10.7"/>
										<path class="st18" d="M150.7,214.6c0.2,0.9,0.2,1.9,0.1,2.8c-0.1,0.9-0.3,1.8-0.5,2.7c-0.5,1.8-1.1,3.5-1.9,5.1
											c0-1.9,0.5-3.7,0.9-5.4C149.9,218.1,150.3,216.4,150.7,214.6z"/>
									</g>
								</g>
							</g>
						</g>
					</g>
				</g>
				<g>
					<g>
						<g>
							<g>
								<path class="st4" d="M387.6,449.5c-11,1.2-23.4,4.9-34.3,2c-0.1,0.5-0.2,1-0.2,1.4c0.2,2,1.7,2.3,3.7,2.7
									c6.7,1.3,13.3,0.5,19.8-1.5c6.3-2,13,0.3,19.7-0.7c0.1-1.2,0-2.4,0-3.5C393.4,449.2,390,449.2,387.6,449.5z"/>
							</g>
							<g>
								<path d="M387.6,449.5c2.4-0.2,5.8-0.3,8.6,0.3c-0.1-2.1-0.4-4.1-0.6-6.1c-0.2-2.3,0.2-5.8-0.8-7.7l-16.8-3
									c-0.7,4.7-7.7,9.3-11.7,10.8c-3.2,1.3-8.3,0.5-10.7,3c-0.8,0.8-1.9,3-2.3,4.6C364.3,454.4,376.7,450.7,387.6,449.5z"/>
							</g>
						</g>
						<g>
							<g>
								<path class="st4" d="M419.8,449.8c-1.8,0-3.8-0.2-5.5-0.9c0.1,0.3,0.1,0.6,0.2,0.9c0.8,2.5,2.7,2.3,5.3,2.5
									c0,0.5,0,0.9,0.1,1.3C419.8,452.4,419.7,451.1,419.8,449.8z"/>
							</g>
							<g>
								<g>
									<path d="M443.8,452.1c-0.6-4.3-2.2-5.6-6.3-6.8c-3.8-1.2-4.7-5.8-6.5-9.3c-0.7-1.5-1.7-3.8-3.2-4.7
										c-1.2-0.7-2.8-0.3-4.2-0.8l-9.5,6.2c-1.5,1.3-0.5,4.8-0.3,6.7c0.1,1.7,0.2,3.8,0.5,5.6c1.8,0.7,3.7,0.9,5.5,0.9
										c-0.1,1.3,0,2.5,0.1,3.8c0,0.2,0,0.3,0.1,0.4C427.8,456.5,436.4,455.2,443.8,452.1z"/>
								</g>
								<g>
									<path class="st4" d="M443.8,452.1c-7.4,3.1-16,4.4-23.8,2c0.6,3.3,3.1,3.5,6.7,3.8c3.5,0.3,7.8,0,11.3-0.5
										c4-0.7,6.2-0.3,5.8-4.8C443.8,452.4,443.8,452.2,443.8,452.1z"/>
								</g>
							</g>
						</g>
						<g>
							<path class="st21" d="M376.7,436.2c-2.4-4.2-1-6,0.5-8.5c-5-3.5-0.2-8.8-0.2-14c0-6.2-0.5-12.5-1-18.8
								c-1.2-13.2-0.8-26.8-1.5-40c-0.8-10.8-1.5-21.5-1.8-32.5c-0.5-10.8-2-23.8-0.2-34.5c5.5,0,11-1.2,16.5-1.8
								c5.8-0.5,11.8,0.5,17.5,0.5c11,0,22.2,0.8,33-0.5c0.5,6.8-1,14.5-1.5,21.2c-0.2,5.8-3.5,81.3-3.5,93.8c0,6,1,13.4,0.2,19.4
								c-0.2,2.2-1.8,5.2-1.8,7.5c0,2.8,1.5,4.2,1,7.5c-0.2,1.5-0.2,3-1.2,4.5c-3.2-6.5-15.4-6.2-19.4-0.4c0-2.5-0.2-5.3-0.2-7.6
								c0-3.5-1.9-4.2-2.7-7.8c-0.8-2.2,0.5-5.2,0.2-7.8c0-2.8-0.2-5.5-0.8-8.2c-1.8-11.8-3.8-95.8-6.4-94.5
								c-1.1,10-1.1,36.3-1.6,48.5c-0.8,11.8-1,23.5-1.5,35.2c-0.2,8.2-1,16-2.2,24c-0.2,2,0,3.5,0,5.2c0,0.8,0.5,1.8,0.5,2.8
								c0,0.8-1.5,1.5-1.5,2.5c0,1.8,1.5,3.2,1.2,5.5c-0.2,2-1.5,3.5-2.8,5c-0.3,0.1-2.3-1.2-2.6-1.3c-3.3-1.7-6.6-3.2-10.1-4.5
								c-0.6-0.2-1.2-0.4-1.9-0.6c-0.7-0.2-1.5-0.5-2.2-0.5C378.6,435.7,376.8,436.3,376.7,436.2z"/>
						</g>
						<g>
							<g>
								<path class="st22" d="M395,435.9c-1.9-1.8-4.5-2.6-7.1-2.9l-3.9-0.4c-0.7-0.1-1.3-0.2-2-0.3c-0.7-0.2-1.3-0.3-2-0.7
									c-0.2-0.1-0.3-0.2-0.5-0.4c-0.2-0.2-0.3-0.4-0.3-0.8c0-0.3,0.2-0.6,0.4-0.8c0.2-0.2,0.3-0.3,0.5-0.4
									c0.7-0.4,1.4-0.5,2.1-0.6c1.4-0.2,2.7-0.1,4,0c1.3,0.1,2.7,0.3,4,0.7c1.3,0.4,2.6,1,3.4,2.1c-1-0.9-2.2-1.4-3.5-1.6
									c-1.3-0.3-2.6-0.4-3.9-0.4c-1.3,0-2.6-0.1-3.9,0.1c-0.6,0.1-1.2,0.2-1.7,0.5c-0.2,0.1-0.4,0.3-0.4,0.3c0,0,0.1,0.2,0.3,0.3
									c1,0.6,2.3,0.8,3.6,1c1.3,0.2,2.6,0.3,3.9,0.6c1.3,0.3,2.6,0.6,3.9,1.2C393.1,434,394.2,434.9,395,435.9z"/>
							</g>
							<g>
								<path class="st22" d="M432,433.9c-0.1-0.7-0.3-1.4-0.8-1.9c-0.4-0.5-1-0.8-1.6-1c-1.3-0.4-2.7-0.3-4-0.2
									c-1.4,0.1-2.8,0.3-4.1,0.6c-1.4,0.3-2.8,0.6-4.1,0.9c1.2-0.7,2.6-1.3,3.9-1.7c1.4-0.4,2.8-0.7,4.2-0.8
									c1.4-0.1,3-0.1,4.4,0.5c0.7,0.3,1.4,0.8,1.8,1.4C432,432.4,432.1,433.2,432,433.9z"/>
							</g>
							<g>
								<g>
									<path class="st22" d="M387.7,425.4c-1-0.1-1.9-0.2-2.9-0.4c-0.5-0.1-1-0.3-1.4-0.6c-0.4-0.3-0.9-0.7-1-1.2
										c-0.3-1-0.2-2-0.2-3c0.1-1,0.2-2,0.3-2.9c0.3-1.9,0.7-3.9,0.9-5.7c0.1-1.9,0-3.9-0.1-5.8c-0.1-3.9-0.4-7.8-0.6-11.7
										c-0.1-1.9-0.2-3.9-0.2-5.9c0-2,0-3.9,0.1-5.9c0.2,3.9,0.5,7.8,0.8,11.7c0.3,3.9,0.6,7.8,0.8,11.7c0,2,0.1,3.9,0,5.9
										c-0.3,2-0.7,3.9-1.1,5.8c-0.2,1-0.4,1.9-0.5,2.9c-0.1,0.9-0.2,1.9,0,2.8c0.2,0.9,1.1,1.4,2,1.7
										C385.8,425.1,386.8,425.2,387.7,425.4z"/>
								</g>
								<g>
									<path class="st22" d="M383,369.7l-1.2-29.1c-0.1-4.9-0.3-9.7-0.4-14.6l0-7.3c0-2.4,0.1-4.9,0.2-7.3l1.2,29.1
										c0.1,4.9,0.3,9.7,0.4,14.6C383.2,359.9,383.2,364.8,383,369.7z"/>
								</g>
								<g>
									<path class="st22" d="M429.5,427.4c-1.6-0.4-3.3-0.3-5-0.1l-0.2,0l0-0.2l-0.4-11.5c-0.1-3.8-0.3-7.7-0.5-11.5
										c-0.1-3.8-0.4-7.7-0.6-11.5l-0.6-11.5c0.6,3.8,1,7.6,1.3,11.4c0.4,3.8,0.6,7.7,0.8,11.5c0.2,3.8,0.3,7.7,0.4,11.5
										c0.1,3.8,0,7.7-0.1,11.5l-0.2-0.2C426.1,426.8,427.9,426.8,429.5,427.4z"/>
								</g>
								<g>
									<path class="st22" d="M422.5,363.9c-0.2-4.4-0.3-8.8-0.5-13.2l-0.4-13.2c-0.1-4.4-0.2-8.8-0.1-13.2l0.1-6.6
										c0.1-2.2,0.1-4.4,0.2-6.6l0.3,6.6l0.2,6.6l0.4,13.2c0.1,4.4,0.2,8.8,0.1,13.2C422.7,355.1,422.7,359.5,422.5,363.9z"/>
								</g>
							</g>
							<g>
								<path class="st22" d="M398.8,268.2c0.5,2.7,0.5,5.5,0.7,8.3c0.1,2.8,0.2,5.5,0.2,8.3c0.1,2.8,0,5.5,0.2,8.2
									c0.1,1.4,0.4,2.7,0.9,3.9c0.3,0.6,0.6,1.2,1,1.7c0.5,0.5,1,0.9,1.7,1.1c-0.7-0.1-1.3-0.4-1.9-0.9c-0.5-0.5-0.9-1.1-1.3-1.7
									c-0.6-1.3-1-2.7-1.2-4.1c-0.4-2.8-0.4-5.6-0.5-8.3c0-2.8-0.1-5.5,0-8.3l0.1-4.1C398.8,271,398.8,269.6,398.8,268.2z"/>
							</g>
							<g>
								<path class="st22" d="M403.6,267.8c0.3,3.8,0.5,7.6,0.6,11.4c0.1,3.8,0.1,7.6,0.2,11.4l0,11.4l0,5.7c0,1.9,0,3.8-0.1,5.7
									c-0.2-1.9-0.3-3.8-0.4-5.7l-0.2-5.7c-0.1-3.8-0.1-7.6-0.2-11.4l0-11.4C403.5,275.4,403.5,271.6,403.6,267.8z"/>
							</g>
							<g>
								<path class="st22" d="M392.5,309.1c3,0.5,5.8,1.5,8.6,2.6c1.4,0.6,2.8,1.2,4.1,1.8c1.3,0.7,2.7,1.4,3.9,2.3l-4.2-1.6
									c-1.4-0.5-2.8-1.1-4.2-1.6c-1.4-0.6-2.8-1.1-4.1-1.7C395.3,310.3,393.9,309.7,392.5,309.1z"/>
							</g>
						</g>
					</g>
					<g>
						<g>
							<path class="st23" d="M387.1,186c1.3-0.3,3.2-1.4,4.7-1.7c0.2-3-3.2-16.6-4.3-19.9c5.7,0,13-1.2,18.3-2.7
								c0.3,4.7,1.3,9.3,2.2,14c1,5.3,2.8,7.3,8.5,8c-0.2,3.2-0.8,5.8-2,8.8c-1.5,3.2-2.2,6.8-4.8,9.7c-2.7,2.7-11,5.5-14.5,2.5
								L387.1,186z"/>
						</g>
						<g>
							<path class="st24" d="M393,170.3c0,0,4.2,13.1,15.7,8c0,0-1-3.4-1.4-7L393,170.3z"/>
						</g>
						<g>
							<path d="M412.7,140.5c0.4,0.9,0.8,1.9,0.6,2.8c-0.2,1.1-1,1.6-1.6,2.4c-0.5,0.6-0.4,1.2-0.3,1.9c0.1,1.3,0.4,4-0.6,5
								c-2.6,0.9-5.3,1.8-7.9,2.7c-1.2,0.4-2.4,0.8-3.6,1.2c-1,0.3-2.4,0.6-3.3,1.2c-1.6,1.1-1.8,3.3-1.7,5c0,1.8,0.1,3.8-1.2,5.1
								c-1.4,1.4-3.9,1.2-5.6,0.1c-1.1-0.7-1.9-1.6-2.8-2.5c-1.2-1.3-2.6-2.7-2.7-4.5c-0.1-0.8,0.1-1.6-0.1-2.4
								c-0.2-0.6-0.6-1.1-1-1.5c-2.2-2.5-4.6-5-5.4-8.3c-0.4-1.6-0.3-3.2-0.1-4.8c0.3-2,0.8-4,1.8-5.7c1.1-1.7,2.7-3.2,4.7-3.6
								c0.4-0.1,0.7-0.1,1-0.4c0.3-0.3,0.4-0.7,0.5-1c0.9-3.3,4.3-4.6,7.3-5.6c1.4-0.4,2.8-0.8,4.3-0.9c2.6-0.1,5.2,0.7,7.8-0.3
								c1.5-0.6,2.6-1.9,4.1-2.4c1.9-0.6,4-0.3,5.7,0.6c0.9,0.5,1.6,1.2,2.1,2c0.6,0.9,0.3,1.8-0.1,2.8c1,0.4,1.4,1.6,1.3,2.7
								c-0.1,1.3-0.9,2.3-1.1,3.5C414.2,137.3,411.9,138.8,412.7,140.5z"/>
						</g>
						<g>
							<path class="st23" d="M412.9,155c-0.5-2.4-0.9-4.7-1.2-7.1c-0.2-1.4-0.3-2.9-0.6-4.3c-0.2-1-0.5-2-0.7-3
								c-0.7-2.6-2.2-5.3-5.2-5.4c-1.9-0.1-3.1,0.7-4.2,2.1c-0.3,0.4-1.2,1.9-1.6,2.6c-1.4-1.5-4.3-2.5-6.3-2.4
								c-1.9,0.1-4.1,1-5.3,2.5c-1.1,1.3-1.3,3.2-1.2,5c0.2,1.8,0.7,3.5,0.8,5.2c0,0.3,0,0.7-0.1,0.9c-0.1,0.3-0.4,0.5-0.6,0.7
								c-0.9,1-1,2.4-0.7,3.7c0.2,1.3,0.7,2.5,0.8,3.9c0,0.5-0.2,1.2-0.7,1.1c-0.2-0.1,0.3,2.1,0.3,2.3c0.4,1.4,0.9,2.5,1.8,3.7
								c0.9,1.1,1.5,2.3,2.6,3.3c2.1,1.8,5.1,3.4,7.8,4c3.3,0.7,6.9,0.2,10.1-1.3c4.1-1.9,6-6.1,5.6-10.5c-0.1-0.9-0.3-1.7-0.4-2.6
								C413.5,158,413.2,156.5,412.9,155z"/>
						</g>
						<g>
							<path class="st23" d="M384.7,157.1c-2.8-1.6-6.3,0.6-7,3.5c-0.9,4.4,2.7,8.1,7,7.6c0.9-0.1,3.7-1,3.7-1.8L384.7,157.1z"/>
						</g>
						<g>
							<g>
								<g>
									<path class="st17" d="M408.1,162.5c0-0.1,0-0.6-0.1-1.1l-10.9,2.3c0.1,0.5,0.4,1,0.7,1.4c3.9-0.3,8.3-1.5,9.3-1.7
										C407.6,163.2,407.9,163,408.1,162.5z"/>
								</g>
								<g>
									<g>
										<path class="st25" d="M407,163.4c-0.9,0.3-5.3,1.5-9.3,1.7c1.2,1.7,3.7,2.5,5.7,2.5c2.1,0,4.2-1.4,5.3-3.2
											C408.2,164,407.7,163.7,407,163.4C407.1,163.4,407,163.4,407,163.4z"/>
									</g>
									<g>
										<path class="st26" d="M409.3,161L409.3,161l-1.3,0.3c0.1,0.6,0.2,1,0.1,1.1c-0.1,0.5-0.5,0.8-1,0.9
											c0.6,0.3,1.1,0.7,1.7,1.1C409.3,163.4,409.6,162.2,409.3,161z"/>
									</g>
								</g>
							</g>
							<g>
								<path class="st24" d="M400.8,146.3c0.7,1.4,1,3,1.5,4.3c0.5,1.4,1.4,2.6,2.6,3.3c0.6,0.4,1.4,0.6,2.1,1.2
									c0.7,0.6,1,1.7,0.7,2.6c-0.3,0.9-1,1.4-1.7,1.8c-0.7,0.4-1.5,0.6-2.3,0.6c0.7-0.2,1.4-0.6,2-1c0.6-0.4,1.1-1,1.2-1.6
									c0.1-0.6,0-1.3-0.5-1.6c-0.5-0.4-1.2-0.6-2-1c-1.5-0.9-2.4-2.4-2.8-3.9C401.1,149.3,401.1,147.8,400.8,146.3z"/>
							</g>
							<g>
								<g>
									<path d="M389.6,146.7c0.2-0.6,0.4-1.2,0.8-1.7c0.3-0.5,0.8-1,1.4-1.4c0.6-0.4,1.2-0.6,1.9-0.7c0.7-0.1,1.3,0,1.9,0.2
										c-1.2,0.4-2.3,0.6-3.2,1.3C391.4,145,390.6,145.9,389.6,146.7z"/>
								</g>
								<g>
									<path d="M403.9,141.5c0.8-0.8,2-1.1,3.1-0.9c1.1,0.2,2.1,1,2.6,2c-1-0.4-1.9-0.8-2.8-1C406,141.4,405,141.4,403.9,141.5z"
										/>
								</g>
							</g>
							<g>
								<g>
									<path class="st19" d="M393.9,151.8c-0.2,0.5-0.1,1.2,0,1.7c0.1,0.7,0.6,1.5,1.4,1.1c0.8-0.3,0.7-1.4,0.4-2.1
										c-0.2-0.5-0.4-1.1-0.9-1.2c-0.3-0.1-0.6-0.1-0.8,0.2C394,151.7,393.9,151.7,393.9,151.8z"/>
								</g>
								<g>
									<path class="st19" d="M407.1,149.2c-0.3,0.3-0.4,0.8-0.3,1.2c0.1,0.8,0.6,2.6,1.6,1.8c0.6-0.4,0.5-1.2,0.3-1.8
										c-0.1-0.5-0.3-1.3-0.8-1.4C407.5,149,407.3,149.1,407.1,149.2z"/>
								</g>
							</g>
						</g>
					</g>
					<g>
						<path class="st27" d="M381.1,289.5c-0.3-3.6,36.6,3.2,46.3-3.3c2.4-1.6-4.5-5.9-4.5-8.5c-0.3-11.5-1.3-22.8-2-34.3
							c-1.2-20.4,1.4-39.3-3.3-59.5c-3.8,1.5-5.7,2.5-9.7,3.7c-3.3,1-8,1.4-11.5,1.4c-2,0-9.7-0.9-9.8-1.3c-0.5-2.1-1.4,4.6-1.5,6.6
							c-0.8,16.2-1.5,32.3-2.2,48.5C382.3,258.1,380.1,274.2,381.1,289.5z"/>
					</g>
					<g>
						<path class="st28" d="M389.5,317.4c-4,4-14.2,0.2-18.5-1.8c-2.1-1-5.2-2.8-5.9-4.1c-1.6-2.8,2.4-71,0.7-81.8
							c-0.5-3.2-5.3-36.4-2.8-38.7c2.6-2.3,4.6-1.8,7.9-2.4c4.1-0.8,8-2.7,12.2-3.4c0.5-0.1,1-0.2,1.4-0.4c0.3-0.2,0.5-0.4,0.7-0.7
							c1.7-1.7,4.1-2.7,6.5-2.6c0.2,1.3,0.2,2.6,0.2,3.9c0.3,13.6-0.4,27.3-0.7,41c-0.4,20-0.8,40-1.1,60.1
							C389.9,296.8,389.7,307.1,389.5,317.4z"/>
					</g>
					<g>
						<path class="st28" d="M384.2,185.5c-2.8,6-4.3,11.7-6.5,17.9c4.2,0,6.4-0.3,10.6,0.2c-2.9,2.8-10,7.8-10.5,8.4
							c-0.5,0.7-0.5,1.6-0.2,3.8c0.8,6.5,9.5,51.1,11.1,55.1"/>
						<path class="st29" d="M384.2,185.5c-1.3,2.9-2.3,5.9-3.3,9c-1,3-1.9,6.1-2.9,9.1l-0.3-0.4l5.3-0.1c1.8,0,3.6,0.1,5.3,0.3
							l0.9,0.1l-0.7,0.6c-2.3,2.1-4.8,4-7.2,5.8l-1.8,1.4l-0.9,0.7c-0.1,0.1-0.3,0.2-0.4,0.4c-0.1,0.1-0.2,0.2-0.2,0.3
							c-0.2,0.5-0.2,1.3-0.1,2c0.1,0.8,0.1,1.5,0.3,2.3c1,6,2.1,12.1,3.2,18.1l3.4,18.1l1.8,9l0.9,4.5c0.3,1.5,0.6,3,1.1,4.5
							c-1-2.9-1.6-5.9-2.4-8.9c-0.7-3-1.4-6-2-9c-1.3-6-2.6-12-3.7-18c-1.2-6-2.4-12-3.3-18.1c-0.1-0.8-0.2-1.5-0.3-2.3
							c0-0.8-0.2-1.6,0.2-2.5c0.1-0.2,0.2-0.4,0.4-0.6c0.2-0.1,0.3-0.3,0.5-0.4l0.9-0.7l1.8-1.4c2.4-1.8,4.9-3.7,7.1-5.7l0.2,0.7
							c-1.7-0.2-3.5-0.3-5.2-0.4l-5.3,0l-0.5,0l0.2-0.4C379.5,197.4,381.3,191.2,384.2,185.5z"/>
					</g>
					<g>
						<g>
							<path class="st29" d="M385.9,247.3c-0.3,4-0.4,16-4.7,17.7c-5.7,2.5-5.7-14.6-5.5-17.7L385.9,247.3z"/>
							<g>
								<path class="st29" d="M385.4,247.3c-0.3,4.8-0.2,10.1-2.1,14.6c-0.9,2.2-3.3,4.4-5,1.6c-1.1-1.7-1.4-4-1.7-6
									c-0.3-2.1-0.4-4.3-0.5-6.5c0-0.9,0-1.7,0-2.6c0-0.3,0-0.6,0-0.9c0.1-0.5-0.8,0.1-0.2-0.1c0.5-0.2,1.7,0,2.2,0
									c1.1,0,2.2,0,3.3,0c1.5,0,2.9,0,4.4,0c0.6,0,0.6-0.4,0-0.4c-3.4,0-6.8,0-10.2,0c-0.1,0-0.5,0-0.5,0.2
									c-0.2,3.5,0,7.1,0.5,10.5c0.3,2.3,0.9,6.9,3.7,7.6c7.1,1.9,6.8-14.4,7-18.1C386.4,247,385.4,247,385.4,247.3z"/>
							</g>
						</g>
						<g>
							<path class="st23" d="M378.8,240.7c2.2,0.2,4.5,0.5,6.8,0.6c0.9-4.9,1.8-10.4,3.7-15c2-4.8,8.4-7.6,13.4-8.3
								c1.2-0.1,3.5,0.2,2.2,1.9c-0.6,0.9-3.5,1.3-4.4,1.8c-2.8,1.2-6.2,2.2-6.5,5.5c1.4-0.6,13.7-4.8,13.5-1.4
								c-0.1,1.6-5.9,2.4-7.3,2.8c-1.5,0.5-6,1.2-6.5,2.9c2.6-0.2,5.4-0.8,8-1c1.2-0.1,6-1.4,4.9,1.1c-0.9,1.5-5.3,1.9-6.9,2.2
								c-1.7,0.3-6.1,0.7-6.4,2.8c1.4,0.3,10.1-0.9,9.7,0.8c-0.4,2.1-8.5,2.2-10,2c-1.1,4.5-1.4,9.1-6.7,8.3
								c-3.7-0.6-7.7,2.6-11.1,3.6L378.8,240.7z"/>
						</g>
						<g>
							<path class="st28" d="M364.2,190.2c-4.1,1.6-6.6,11-6.4,15.8c0.1,4-1.7,7.6-1.1,11.6c0.7,4.6-0.2,7.7-0.7,12.1
								c-0.9,8.6-0.7,17.8-0.4,26.2c0.2,5.2,2.4,4.7,6.6,5.6c3.5,0.7,7.1,1.8,10.5,2.5c2.5,0.5,5.1,0.8,7.6,0.9
								c-2.8-8.4-2-16.5,1.9-24.5c-6-0.4-8.7-0.8-10.6-1.4c1.5-2.1,2.1-5.2,1.4-7.3c-0.4-1.2-0.8-0.9-0.9-2.1c0-0.5,0.6-1.6,0.7-2.3
								c0-0.9-0.5-7.3-1.1-14"/>
							<g>
								<g>
									<path class="st29" d="M382.3,240.4c-0.9,0.1-1.8,0.2-2.7,0.1c-0.9,0-1.8,0-2.7-0.1c-1.8-0.2-3.6-0.4-5.3-1.1l0,0
										c-0.2-0.1-0.3-0.3-0.2-0.5c0,0,0,0,0-0.1c0.9-1.3,1.5-2.9,1.6-4.4c0.1-0.8,0.1-1.6-0.2-2.3c-0.1-0.4-0.2-0.7-0.5-1
										c-0.1-0.2-0.3-0.4-0.3-0.6c-0.1-0.2-0.1-0.5-0.1-0.7l0,0l0,0c0-0.3,0.1-0.5,0.2-0.7l0.2-0.6c0.1-0.4,0.3-0.7,0.3-1.1l0,0
										c-0.1-2.3-0.2-4.7-0.4-7l-0.5-7c0.3,2.3,0.5,4.6,0.8,7c0.2,2.3,0.5,4.6,0.6,7l0,0c0,0.5-0.2,0.8-0.3,1.2
										c-0.1,0.4-0.3,0.8-0.3,1.1l0,0c0,0.2,0,0.4,0.1,0.5c0,0.2,0.1,0.3,0.3,0.5c0.3,0.4,0.5,0.8,0.6,1.2
										c0.3,0.9,0.3,1.7,0.2,2.6c-0.2,1.7-0.7,3.4-1.7,4.8l-0.2-0.5c1.7,0.4,3.5,0.6,5.2,0.9c0.9,0.1,1.8,0.2,2.7,0.4
										C380.5,240.1,381.4,240.2,382.3,240.4z"/>
								</g>
								<g>
									<path class="st29" d="M360.3,261.2c1.7,0.1,3.4,0.4,5.1,0.7c1.7,0.3,3.3,0.8,5,1.1c3.3,0.8,6.6,1.5,10,1.9
										c-1.7,0.2-3.4,0.2-5.1,0c-1.7-0.2-3.4-0.5-5.1-0.9c-1.7-0.4-3.3-0.9-4.9-1.4L360.3,261.2z"/>
								</g>
								<g>
									<g>
										<path class="st29" d="M372.9,239.3c-0.7-0.1-1.3-0.1-2,0c-0.7,0.1-1.4,0.2-2,0.3c-1.3,0.2-2.6,0.5-3.8,1.1
											c-1.2,0.5-2.3,1.2-3.4,2c-1.1,0.8-2.1,1.7-3.1,2.6c0.8-1.1,1.6-2.2,2.6-3.2c1-1,2.2-1.8,3.5-2.4c1.3-0.6,2.7-0.9,4.1-0.9
											c0.7,0,1.3,0,2.1,0C371.5,238.9,372.3,239,372.9,239.3z"/>
									</g>
									<g>
										<path class="st29" d="M357.8,243c0.4-1.1,1-2.2,1.7-3.1c0.7-0.9,1.7-1.8,2.7-2.4c1.1-0.6,2.2-1,3.4-1.3
											c1.2-0.3,2.3-0.5,3.5-0.6l-0.4,0.7c-0.4-0.8-0.9-1.4-1.6-1.7c-0.8-0.3-1.7-0.2-2.5-0.1c-1.8,0.4-3.4,1.2-5.1,2.1
											c0.7-0.6,1.5-1.1,2.3-1.6c0.8-0.5,1.7-0.9,2.6-1.2c0.9-0.3,2-0.4,3-0.1c1,0.3,1.8,1.2,2.2,2.1l0.3,0.6l-0.6,0.1
											c-2.3,0.4-4.6,0.7-6.6,1.7c-1,0.5-1.9,1.1-2.7,2C359,241,358.4,242,357.8,243z"/>
									</g>
								</g>
								<g>
									<path class="st29" d="M369,191c1.2,2.3,1.7,4.8,1.9,7.3c0.2,2.5,0.2,5-0.1,7.5c-0.4-2.5-0.6-5-0.9-7.4
										C369.7,195.9,369.4,193.5,369,191z"/>
								</g>
							</g>
						</g>
					</g>
					<g>
						<path class="st28" d="M411.8,184.5c-0.2-2-0.3-3.5-0.4-3.5c2.9-0.3,5.9,1,7.8,3.2c0.4-0.2,0.9-0.1,1.4,0
							c3.1,0.5,15.9,3.1,19.4,4.1c0.9,0.2,1.7,0.5,2.5,0.9c3.9,2.1,4.2,6.9,4.2,10.8c0,4.1-0.1,8.3-0.3,12.4
							c-0.4,11.1-0.9,22.1-1.4,33.2c-0.9,17.5,0.7,37.5,0.7,55.1c0,6-2.2,8.1-7.4,12.1c-3.2,2.5-12.8,6.8-17,5.5
							c-0.7-0.2-1.2-0.5-1.6-0.9c-1.2-1.4-4.8-78.7-5.8-98.2c-0.4-7.8-0.8-15.5-1.2-23.3C412.6,195.1,412.1,188.6,411.8,184.5z"/>
					</g>
					<g>
						<path class="st28" d="M419.8,184.8c2.3,3.5,6.6,11.9,8.9,18.2c-4.2,0-7.9-0.8-12.2-0.3c1,2.8,4.8,4.8,7.2,6.2
							c3.5,2.2,4,1.5,3.5,6c-0.8,6.5-1.5,13-2,19.5c-0.8,10.8-6.1,35.1-6.1,36.6"/>
						<path class="st29" d="M419.8,184.8c1.9,2.8,3.5,5.8,5,8.8c1.5,3,2.9,6.1,4.1,9.3l0.2,0.4l-0.5,0c-2.1,0-4.1-0.2-6.1-0.3
							c-2-0.1-4-0.1-6,0.1l0.4-0.6c0.5,1.3,1.6,2.4,2.8,3.3c1.2,0.9,2.5,1.7,3.9,2.5c0.7,0.4,1.3,0.8,2,1.2c0.3,0.2,0.7,0.4,1,0.6
							c0.3,0.2,0.7,0.5,1,1c0.4,0.9,0.3,1.8,0.3,2.5c-0.1,0.8-0.1,1.6-0.2,2.3c-0.7,6.2-1.4,12.3-1.9,18.5
							c-0.5,6.2-1.7,12.3-2.9,18.4c-0.6,3-1.2,6.1-1.9,9.1c-0.6,3-1.4,6-1.9,9.1c0.4-3.1,1-6.1,1.5-9.2l1.6-9.1c0.5-3,1-6.1,1.5-9.2
							c0.5-3.1,0.9-6.1,1.1-9.2c0.5-6.2,1.1-12.4,1.9-18.5c0.1-0.8,0.2-1.5,0.2-2.3c0.1-0.7,0.1-1.5-0.2-2c-0.2-0.5-1-0.9-1.6-1.2
							c-0.7-0.4-1.3-0.8-2-1.2c-1.3-0.8-2.7-1.6-3.9-2.5c-1.2-1-2.5-2.1-3.1-3.7l-0.2-0.5l0.5-0.1c2.1-0.2,4.1-0.2,6.2,0
							c2,0.2,4,0.4,6.1,0.4l-0.3,0.4c-1.1-3.2-2.5-6.3-3.9-9.3c-0.7-1.5-1.4-3-2.2-4.5C421.5,187.7,420.7,186.2,419.8,184.8z"/>
					</g>
					<g>
						<g>
							<g>
								<path class="st23" d="M441.3,288.6c0.4,1.3,0.6,3.1,0.4,4.6c-0.4,3.7-4.4,3.4-4.3,7.1c0.1,3.3,0.4,6.2,0.4,9.5
									c0,1-0.7,3.5-0.4,4.4c0.7,1.9,2.4,0.9,3.3-0.7c1.3-2.8-0.1-6.8,1-9.8c1-2.7,1.5-0.6,1.6,1.3c0.1,1.6,0.1,3.3,0.1,5
									c0,3.4,0.1,6.6-0.7,9.9c-0.4,1.5-3.1,9.2,1,5.6c1-0.9,2.1-3.8,2.1-5.2c3.3-0.7,3.5-1.5,4.1-4.7c2.8-0.7,2.8-2.1,2.5-4.9
									c3.5,0.3,1.5-3.8,1.2-5.9c-0.3-2.4-0.6-4.7-0.9-7.2c-0.3-2.2-0.9-12.3-2.4-13.1L441.3,288.6z"/>
							</g>
							<g>
								<g>
									<path class="st30" d="M444.9,323.8c0.7-3,1.4-5.9,2-8.9c0.6-3,1-6,1.4-9c0.4,3.1,0.2,6.2-0.4,9.2
										C447.2,318.1,446.3,321,444.9,323.8z"/>
								</g>
								<g>
									<path class="st30" d="M449.1,318.7c0.6-1.2,0.7-2.4,0.7-3.7c0-1.3,0-2.5,0.1-3.8c0.2-2.6,0.4-5,0.3-7.6
										c0.5,1.2,0.7,2.5,0.7,3.8c0.1,1.3,0,2.6,0,3.9c-0.1,1.3-0.1,2.5-0.3,3.8C450.4,316.4,450,317.8,449.1,318.7z"/>
								</g>
								<g>
									<path class="st30" d="M452.5,314c0-2.2-0.1-4.2-0.3-6.4c-0.2-2.1-0.5-4.2-0.7-6.3c1,1.9,1.5,4.1,1.7,6.3
										c0.1,1.1,0.1,2.2,0,3.3C453.1,311.9,452.9,313,452.5,314z"/>
								</g>
							</g>
						</g>
						<g>
							<path class="st28" d="M440,194.7c-9.7,15.2-2.7,35.6-3.6,52.2c-0.2,2.9-0.5,5.1,0,7.5c0.5,3.1,0,4.8-0.2,8.2
								c-0.2,4.8,0.7,10.4,1.2,15.2c0.5,5.1,1,15.7,1,15.7c0.7,2.9,13.4-0.1,15.6-1c0,0,0.1-4.3-0.3-10.1
								c-0.2-5.1-0.2-10.4-0.2-15.5c0-10.4-0.7-20.8-0.7-31.2c0-8-1.5-16-1.9-23.9c-0.2-6-0.5-21.3-8.2-23"/>
							<g>
								<g>
									<path class="st28" d="M431.5,216.9c2.4,4.1,2,4.1,3.9,7.3"/>
									<path class="st29" d="M431.5,216.9c1,1,1.8,2.2,2.4,3.4c0.3,0.6,0.6,1.3,0.8,1.9c0.2,0.6,0.5,1.3,0.6,2
										c-1-1-1.7-2.2-2.3-3.5C432.5,219.5,431.9,218.3,431.5,216.9z"/>
								</g>
								<g>
									<path class="st29" d="M440.1,192.6c-2.1,3.7-3.4,7.8-3.9,12c-0.7,4.2-0.9,8.4-0.8,12.6c0.2,8.5,1.4,16.9,1.5,25.5
										c0,2.1-0.1,4.3-0.3,6.4c-0.1,1.1-0.1,2.1-0.1,3.1c0,1,0.3,2,0.4,3.1c0.3,2.2-0.1,4.4-0.3,6.5c-0.2,2.1-0.1,4.2,0.1,6.3
										c0.3,4.2,1.1,8.4,1.3,12.7c0.1,2.1,0.3,4.3,0.4,6.4l0.1,6.4l0,0c0.1,0.4,0.4,0.6,0.8,0.8c0.4,0.2,0.9,0.3,1.3,0.3
										c0.9,0.1,1.9,0.1,2.8,0.1c-0.9,0.1-1.9,0.2-2.8,0.1c-0.5,0-1-0.1-1.4-0.2c-0.5-0.1-1-0.4-1.2-1l0,0l0,0l-0.6-6.4
										c-0.2-2.1-0.3-4.2-0.4-6.4c-0.3-4.2-1-8.4-1.3-12.7c-0.2-2.1-0.3-4.3-0.1-6.5c0.2-2.1,0.5-4.2,0.3-6.3
										c-0.1-1-0.4-2.1-0.4-3.2c0-1.1,0-2.2,0.1-3.2c0.2-2.1,0.3-4.2,0.3-6.3c-0.1-8.5-1.3-16.9-1.5-25.5c-0.1-4.3,0-8.6,0.8-12.8
										C436.1,200.2,437.6,196.1,440.1,192.6z"/>
								</g>
								<g>
									<path class="st29" d="M439,289.3c2.3-0.2,4.6-0.3,6.9-0.5c2.3-0.2,4.5-0.6,6.8-1c-2,1.2-4.4,1.8-6.7,2
										C443.6,290,441.3,289.9,439,289.3z"/>
								</g>
								<g>
									<path class="st29" d="M439.6,258.2c1.8,0.9,3.5,1.9,5.3,2.6c1.8,0.7,3.7,1.2,5.7,1.5c-2,0.5-4.1,0.2-6.1-0.6
										C442.7,260.9,441,259.7,439.6,258.2z"/>
								</g>
							</g>
						</g>
					</g>
				</g>
				<g>
					<g>
						<path class="st31" d="M582.8,245.4c1,7,2.2,16.3,1.8,23.5c-1,9.2-16.5,7-23.8,6.8c0-2.8-0.5-7.2,0.5-9.5l8.8-3.3l-0.9-16.3
							L582.8,245.4z"/>
					</g>
					<g>
						<g>
							<g>
								<path class="st32" d="M551.2,449.2c-0.8-0.2-1.6-0.6-1.9-1.5c-0.1-0.4-0.2-0.8-0.2-1.3c0-1.3,0.4-2.7,1-3.8
									c-2.5,0.8-5,1.7-7.4,2.6c-1.7,0.6-3.7,1.2-4.9,2.7c-0.7,0.9-2.4,3.4-0.8,4c1.7,0.6,4,1,5.7,1c1.7,0,3.5-0.1,5.2-0.1
									c3.8,0,7.5,0,11.3-0.2c0.1,0,0.1,0,0.2,0c2.5,0,7,0.1,9.5-0.1c4-0.5,3.3-0.2,3.2-3.7c0-0.1-0.2-0.5-0.2-0.7
									c-3.9,1.1-8.1,1.3-12.1,1.2c-2.1,0-4.2-0.1-6.2-0.1C552.9,449.3,552,449.4,551.2,449.2z"/>
							</g>
							<g>
								<path class="st31" d="M573.3,413.6c2.7-10.8,6.8-21,3.8-32.2c-2-7.2-1.5-13.5,0.8-20.5l-20.2-6.2c0,14.8,1.5,29,1.5,43.8
									c0,11.2,1.2,23.4,0,34.6c-0.8,6.5-3.2,7.7-9.7,10c-0.1,0-0.9,0.3-1,0.3c-0.1,1.5-0.6,5.2,2.8,6.1c6.9,0,14.2,0.7,20.9-1.1
									C571.5,434.8,568.9,430.9,573.3,413.6z"/>
							</g>
						</g>
						<g>
							<g>
								<path class="st32" d="M491,453.9c0-2.2-0.3-4.6-1.8-5.9c-4.8,1.7-12.7,2.8-12.9,9.2c2.4,0.5,17.8,1,23.1,0.8
									c2.5,0,5.6,0.2,8.1,0c4.1-0.5,5.5-0.3,4.5-4.7c0-0.1,0-0.2,0-0.3C505,454.6,497.8,453.9,491,453.9z"/>
							</g>
							<g>
								<path class="st33" d="M519.6,418.1c5-10.7,10.6-21,9.6-32.2c-0.7-7.2,1-13.5,4.5-20.5l-19.1-6.2c-2.7,14.8-3.8,29-6.4,43.8
									c-2,11.2-3,23.4-6.3,34.6c-1.9,6.5-5.5,8.1-12.4,10.4c-0.1,0-0.2,0.1-0.3,0.1c1.5,1.3,1.8,3.7,1.8,5.9
									c6.9,0,14.1,0.7,21.1-1.1C513.9,439.4,509.4,439.9,519.6,418.1z"/>
							</g>
						</g>
					</g>
					<g>
						<g>
							<path class="st7" d="M531.8,224.9c-4.5,7.2-13.8,14.2-9.2,23.2c5.2,10.5,13.4,13.8,6.5,23.1c-6.6,8.9-8.6,23.3-11.3,33.8
								c-2,7.6-15.9,53.2-16,53.2c-0.5-0.9,2,0.7,2.4,1.6c0.3,0.7-0.2,1.6,0.1,2.4c0.2,0.5,0.8,0.8,1.3,1.1
								c6.1,3.1,13.7,5.6,20.6,5.9c8,0.3,15.6-1.4,23.7,0.2c3.6,0.7,7.3,1.9,11,1.7c4-0.2,7.8-2.1,11.8-2.6c2-0.3,4-0.2,5.9-0.9
								c2.7-1,5.2-3.4,8-2.6c-0.8-0.2-8.3-53.7-9-60.6c-0.6-6.3-2-11.2-3.6-17.1c-1.1-4.1-4.2-6.1-5.9-9.9c-2-4.5-0.2-12.5,0.3-17
								c1.5-11,3.2-22,5.2-32.8c0.8-4.2,2.2-7-1.5-9.8c-3.8-2.5-8.2-3.8-12.8-4c-4-0.2-17.5-2.2-20,1.5L531.8,224.9z"/>
						</g>
						<g>
							<g>
								<path class="st34" d="M549.1,279.2c2.4,0.6,4.7,1.5,7,2.1c1.2,0.3,2.3,0.5,3.5,0.5c1.2,0,2.3-0.2,3.5-0.7
									c-0.9,0.9-2.2,1.4-3.4,1.5c-1.3,0.1-2.6,0-3.8-0.3C553.4,281.6,551.2,280.5,549.1,279.2z"/>
							</g>
							<g>
								<path class="st34" d="M556.1,276.4c0.9-0.5,1.6-1,2.3-1.5c0.7-0.5,1.4-1.2,2.3-1.7c-0.3,1-0.9,1.8-1.7,2.5
									c-0.4,0.3-0.9,0.6-1.4,0.7C557.2,276.5,556.6,276.5,556.1,276.4z"/>
							</g>
							<g>
								<path class="st34" d="M527.3,287.3c-0.9,5.6-2.2,11.2-3.5,16.8c-1.3,5.6-2.7,11.1-4.1,16.7c-1.5,5.5-2.9,11.1-4.5,16.6
									c-1.6,5.5-3.2,11-5.1,16.4c0.7-2.8,1.5-5.5,2.2-8.3l2.2-8.3l4.3-16.6l4.3-16.6l2.1-8.3C526,292.9,526.7,290.1,527.3,287.3z"
									/>
							</g>
							<g>
								<path class="st34" d="M554.6,320.2c0.1,4,0.1,7.9,0,11.9c0,4-0.2,7.9-0.2,11.9c-0.2,4-0.3,7.9-0.5,11.9
									c-0.3,3.9,0,8-1.1,11.8c0.4-2,0.4-3.9,0.4-5.9c0-2-0.1-4,0-6c0-4,0.2-7.9,0.2-11.9c0.2-4,0.3-7.9,0.5-11.9
									C554.1,328.1,554.3,324.1,554.6,320.2z"/>
							</g>
							<g>
								<path class="st34" d="M570.7,320.2c0.8,3.6,1.5,7.2,2.3,10.8c0.7,3.6,1.3,7.2,1.9,10.9c0.6,3.6,1.1,7.3,1.5,11
									c0.2,1.8,0.4,3.7,0.6,5.5c0.1,1.8,0.3,3.7,0.4,5.5l-1.7-10.9l-1.7-10.9c-0.6-3.6-1.2-7.3-1.7-10.9
									C571.6,327.5,571.1,323.8,570.7,320.2z"/>
							</g>
							<g>
								<path class="st34" d="M543.4,252.7c0.2,0,0.5,0.1,0.7,0.1c0.2,0,0.4,0,0.6-0.1l-0.2,0.3c0-1.1,0.1-2.2,0.3-3.3
									c0.2-1.1,0.5-2.2,1.1-3.2c0,1.2,0,2.3-0.2,3.4c-0.1,1.1-0.3,2.2-0.6,3.3l-0.1,0.2l-0.2,0c-0.3,0-0.6,0-0.8-0.1
									C543.8,253,543.6,252.9,543.4,252.7z"/>
							</g>
						</g>
					</g>
					<g>
						<g>
							<path class="st33" d="M544.4,207.1c-0.8-2.8-1.6-5.7-2.3-8.4c-1.8,0.1-3.7,0.6-5.5,0.8c-2.2,0.2-2.1-2.1-3.4-5.8
								c0,0-1.4-0.1-2.3-0.1c0,0,0.6-2.1,0.5-3.3c-0.1-1.4-1.2-2.5-1.7-4c-1.6-3.9,0.4-3.1,3.4-3.9c1.8-0.5,1.6-0.6,1.4-2.4
								c-0.1-1.3-0.2-2.7-0.4-4c-0.1-2.8,0.2-5.5,1.6-8c3.9-6.7,13.5-7.1,19.6-4.1c8,3.6,11.1,9.8,11.6,18.2
								c0.5,6.6-4.9,9.2-9.4,12.7c-1.3,1-1.2,0.7-0.6,2.7c0.5,1.3,1,2.5,1.3,3.7c0.6,1.7,1.2,4,2,5.2L544.4,207.1z"/>
						</g>
						<g>
							<path class="st7" d="M542.7,214.3c0-2.8-1.1-5.5-1.4-8.2l0,0c4.1-0.6,9.4-1.6,13.5-1.4c0.5,3.4,1.6,7.9,1.9,10.8L542.7,214.3
								z"/>
						</g>
						<g>
							<g>
								<path class="st35" d="M540.5,183c-2-2.3,0.2-5.5,1.5-7.5c-3.2-1-7.3-5.2-8.5-8.3c-1.8-5,2.2-7,6.5-8.2
									c4.2-1.2,8.5-1,12.8-1.2c3.8-0.2,7.8-0.7,11.5,0.5c8.2,2.8,12.8,7.3,13.2,16.5c0.2,6.8-0.3,13.4,2.4,19.8
									c2.6,5.9,7.1,11.7,6.4,18.5c-0.3,2.9-1.5,5.7-1.2,8.6c0.4,3,2.3,5.4,3.9,8c1.6,2.5,2.8,5.7,1.6,8.5
									c-0.5,1.2-1.5,2.2-1.9,3.4c-0.4,1.2-0.2,2.5-0.1,3.8c0.2,4.5-1.5,9-4.7,12.1c-0.1-0.3-0.2-0.8-0.4-1.2
									c-3,1.6-7.4,3.9-10.2,6c-0.6-1.1-1.5-1.8-2.8-2.1c-1.2-0.2-2.5,0-3.7-0.1c-2.5-0.1-5-1.2-6.5-3.2c-1.3-1.7-1.8-4.1-3.7-5.1
									c-1.8-1-4.3-0.4-5.9-1.7c-2.6-2.1-0.4-6.5-1.7-9.6c-0.7-1.5-2.2-2.5-3.3-3.8c-3.6-4.2-0.9-8.9-0.1-13.5
									c1.1-6.2,1.8-12.8,1.8-19.1c0-3.7,0.3-7.2,0.2-10.7c-0.2-3.2-0.8-6.7-0.7-9.7L540.5,183z"/>
							</g>
							<g>
								<g>
									<path class="st36" d="M539.8,164.5c0.1,0.8,0.2,1.5,0.6,2.1c0.3,0.6,0.8,1.1,1.3,1.6c0.5,0.5,1.1,1,1.7,1.5
										c0.6,0.5,1.1,1.1,1.6,1.7c-1.4-0.7-2.8-1.4-3.9-2.5c-0.6-0.6-1.1-1.2-1.3-2.1C539.4,166.1,539.5,165.2,539.8,164.5z"/>
								</g>
								<g>
									<path class="st36" d="M554.2,189.7c0,2.9,0.6,5.7,1,8.6c0.2,1.4,0.3,2.9,0.2,4.4c-0.1,1.5-0.4,2.9-0.8,4.3
										c-0.8,2.8-2,5.5-2.7,8.2c-0.4,1.4-0.6,2.8-0.5,4.1c0.1,1.4,0.6,2.7,1.3,3.9c0.6,1.3,1.4,2.6,1.8,4c0.2,0.7,0.4,1.4,0.5,2.2
										c0.1,0.7,0.2,1.5,0,2.3c-0.4,3-1.6,5.6-2.1,8.4c-0.2,1.4-0.3,2.9,0.8,3.7c1,0.9,2.4,1.4,3.6,2.3c0.6,0.4,1.1,1,1.5,1.6
										c0.4,0.6,0.6,1.4,0.7,2.1c0.1,0.7,0.1,1.4,0.3,2.1c0.2,0.7,0.5,1.4,0.9,1.9c-0.5-0.5-0.8-1.2-1-1.9
										c-0.2-0.7-0.3-1.4-0.4-2.1c-0.2-1.4-1-2.7-2.2-3.4c-1.2-0.8-2.6-1.2-3.8-2.2c-0.6-0.5-1-1.3-1.1-2c-0.1-0.8-0.1-1.5,0-2.3
										c0.4-2.9,1.6-5.6,2-8.4c0.2-1.3-0.1-2.8-0.5-4.1c-0.4-1.3-1.1-2.6-1.8-3.8c-0.7-1.3-1.2-2.8-1.3-4.3
										c-0.1-1.5,0.2-3,0.6-4.4c0.8-2.8,2-5.5,2.8-8.2c0.4-1.4,0.8-2.8,0.9-4.2c0.1-1.4,0.1-2.8,0-4.3
										C554.6,195.5,554,192.6,554.2,189.7z"/>
								</g>
								<g>
									<path class="st36" d="M563.1,165c1.7,3.1,3.3,6.3,4.3,9.7c1,3.4,1.3,7,1.2,10.6c0,0.9-0.1,1.8-0.1,2.7
										c-0.1,0.9-0.2,1.8-0.4,2.7c-0.3,1.7-0.7,3.5-0.9,5.2c-0.2,1.7-0.1,3.4,0.6,5c0.6,1.6,1.7,3,2.5,4.6
										c1.5,3.3,2.4,6.8,2.6,10.4c0,0.9,0.1,1.8,0,2.7c-0.1,0.9-0.3,1.8-0.5,2.7c-0.4,1.7-1,3.4-1.3,5.1c-0.3,1.7-0.3,3.5,0.5,4.9
										c0.4,0.7,1,1.4,1.4,2.2c0.5,0.8,0.8,1.6,1.1,2.5c0.4,1.8,0.3,3.6,0.2,5.3c-0.1,1.8-0.4,3.5-0.4,5.3c0-1.8,0.1-3.5,0.2-5.3
										c0.1-1.8,0.1-3.5-0.4-5.2c-0.2-0.8-0.6-1.6-1.1-2.3c-0.5-0.7-1-1.4-1.5-2.2c-1-1.6-1-3.6-0.7-5.4c0.3-1.8,0.9-3.5,1.3-5.2
										c0.2-0.8,0.4-1.7,0.4-2.5c0.1-0.8,0-1.7,0-2.6c-0.3-3.5-1.1-6.9-2.6-10c-0.8-1.5-1.8-3-2.5-4.7c-0.7-1.7-0.8-3.7-0.6-5.4
										c0.2-1.8,0.6-3.5,0.9-5.3c0.4-1.7,0.5-3.4,0.6-5.2c0.2-3.5,0-7-0.9-10.4C566.1,171.4,564.6,168.2,563.1,165z"/>
								</g>
								<g>
									<path class="st36" d="M577.1,199.5c0,2.5,0.9,4.8,1.9,7.1c0.5,1.1,1,2.3,1.3,3.6c0.3,1.2,0.5,2.6,0.4,3.9
										c-0.1,1.3-0.4,2.6-0.6,3.7c-0.2,1.2-0.1,2.3,0.3,3.4c0.4,1.1,1,2.2,1.5,3.4c0.4,1.2,0.5,2.5,0.2,3.8c0-0.6,0-1.2-0.1-1.9
										c-0.1-0.6-0.3-1.2-0.6-1.7c-0.5-1.1-1.2-2.1-1.7-3.3c-0.6-1.1-0.8-2.6-0.6-3.9c0.2-1.3,0.5-2.4,0.6-3.7
										c0.2-2.4-0.6-4.7-1.5-7.1c-0.4-1.2-0.9-2.4-1.1-3.6C577,202,576.9,200.7,577.1,199.5z"/>
								</g>
								<g>
									<path class="st36" d="M580.8,238.1c0.4,1.9,0.8,3.7,0.9,5.6c0.1,0.9,0.1,1.9-0.1,2.9c-0.1,1-0.4,1.9-0.9,2.7
										c0.2-1.9,0.1-3.7-0.1-5.5C580.6,242,580.4,240,580.8,238.1z"/>
								</g>
								<g>
									<path class="st36" d="M562.6,217.6c0.1,1.5,0,2.9-0.2,4.4c-0.2,1.5-0.4,2.9-0.5,4.3c-0.1,1.4-0.1,2.9,0.1,4.2
										c0.3,1.4,0.9,2.6,1.7,3.9c0.3,0.7,0.7,1.3,0.9,2.1c0.3,0.7,0.4,1.5,0.4,2.3c0,1.5-0.2,2.9-0.2,4.4c-0.1,1.4,0,2.9,0.4,4.2
										c0.3,1.4,1.1,2.6,2.1,3.7c-1.1-0.9-2-2.2-2.5-3.6c-0.5-1.4-0.6-2.9-0.7-4.4c-0.1-1.5,0.1-3,0.1-4.4c0-1.4-0.6-2.6-1.3-3.9
										c-0.7-1.2-1.5-2.7-1.7-4.2c-0.3-1.5-0.2-3,0-4.5C561.6,223.3,562.4,220.6,562.6,217.6z"/>
								</g>
								<g>
									<path class="st36" d="M557.5,217.2c0.2,1.4,0.1,2.8,0.2,4.1c0,0.7,0.1,1.3,0.3,1.9c0.2,0.6,0.5,1.2,0.8,1.9
										c-0.7-0.3-1.2-0.9-1.6-1.5c-0.4-0.7-0.5-1.4-0.6-2.2C556.6,219.9,556.9,218.5,557.5,217.2z"/>
								</g>
								<g>
									<path class="st36" d="M573.4,180.4c0.4,1.6,0.5,3.1,0.5,4.7c0,1.6-0.1,3.1-0.5,4.7c-0.4-1.6-0.5-3.1-0.5-4.7
										C572.9,183.5,573,181.9,573.4,180.4z"/>
								</g>
								<g>
									<path class="st36" d="M552.4,165.4c1.9,0.8,3.4,2.2,4.6,3.9c1.2,1.7,1.9,3.6,2.5,5.6c1.1,3.9,1.3,8,0.9,12
										c-0.2-2-0.4-4-0.7-5.9c-0.3-2-0.6-3.9-1.2-5.8c-0.5-1.9-1.2-3.7-2.2-5.4C555.3,168.1,554,166.6,552.4,165.4z"/>
								</g>
								<g>
									<path class="st36" d="M561.7,197.1c0.8,1.6,1,3.4,1.1,5.1c0.1,1.7,0,3.4-0.1,5.2c-0.6-1.7-0.8-3.4-0.9-5.1
										C561.7,200.6,561.7,198.9,561.7,197.1z"/>
								</g>
							</g>
						</g>
						<g>
							<path class="st33" d="M541.1,184.2c0-3.5,2.2-9.5,6.7-6.8c4.7,2.7,0.8,12.3-3.7,10.8"/>
						</g>
						<g>
							<g>
								<path class="st37" d="M531.1,193.6c0.6,0,1.2-0.1,1.7-0.3c0.5-0.1,1.1-0.3,1.6-0.5c0.5-0.2,1-0.5,1.4-0.8
									c0.4-0.3,0.8-0.7,1.2-1.2c0,0.6-0.2,1.3-0.7,1.8c-0.4,0.5-1,0.9-1.6,1.1c-0.6,0.2-1.2,0.4-1.9,0.4
									C532.2,194.1,531.6,193.9,531.1,193.6z"/>
							</g>
							<g>
								<path class="st19" d="M535.9,179.9c-0.2,0.4-0.2,1-0.2,1.4c0,0.6,0.2,1.3,0.7,1c0.5-0.2,0.5-1.1,0.4-1.7
									c-0.1-0.4-0.1-0.9-0.4-1.1c-0.2-0.1-0.3-0.1-0.5,0.1C536,179.8,535.9,179.9,535.9,179.9z"/>
							</g>
							<g>
								<path class="st36" d="M535.6,173.7c0.9,0,1.6,0.5,2.1,1.1c0.5,0.6,0.8,1.4,0.8,2.3c-0.7-0.5-1.1-1.1-1.6-1.6
									C536.5,174.9,536.1,174.4,535.6,173.7z"/>
							</g>
						</g>
					</g>
					<g>
						<g>
							<g>
								<g>
									<path class="st33" d="M509.8,240.5c-1.5-1.5-3.5-1.2-3.5,1.5c-1.3-2.3-3.3-0.7-3.3,1.3c-7.5-4.5-2,14.7,2.3,11.5
										c0.7,4.5,2,6.8,6.8,6.5c3.7-0.2,6.8-1.5,6.5-5.8c-0.5-7.2-4.2-14.8-6.2-21.8c-0.8-3.3-1.8-6.8-1.7-10.2
										c-4.8-1.3-2.2,12.5-1.5,14.8L509.8,240.5z"/>
								</g>
								<g>
									<path class="st37" d="M503.3,246.7c0.8,2,1.3,3.9,1.8,5.9c0.5,2,0.9,4,1.2,6.1c-1-1.8-1.7-3.8-2.2-5.8
										C503.6,250.8,503.3,248.8,503.3,246.7z"/>
								</g>
								<g>
									<path class="st37" d="M501.1,247.8c0.6,0.5,1,1,1.5,1.5c0.4,0.5,0.7,1,1.2,1.7c-0.4,0.1-0.8-0.1-1.1-0.3
										c-0.3-0.2-0.6-0.5-0.9-0.8c-0.2-0.3-0.4-0.6-0.5-1C501.1,248.6,501.1,248.2,501.1,247.8z"/>
								</g>
							</g>
							<g>
								<path class="st33" d="M529.2,246.9c0.4,4,0.8,8.1,0.9,12.1c-5.2,0-13.8-4-13.8-4l-4.2,4.2c0.2,2,24.4,18.8,27.2,17
									c1.1-0.7,2.1-13,3.3-24.6C538.5,248.8,532.4,245.9,529.2,246.9z"/>
							</g>
							<g>
								<path class="st7" d="M541.9,213.5c-3,0.2-7.2,0.5-10.2,1.3c-4.7,1.5-4.8,3.5-4.7,8c0.2,3.5,0.3,7.2,0.7,10.7
									c0.4,4.5,1,8.9,1.4,13.4c3.3-1,9.4,1.9,13.4,4.7c1.2-11.6,0.5-19.8,0.9-24.6C543.9,223.3,546.8,213.5,541.9,213.5z"/>
							</g>
						</g>
						<g>
							<g>
								<path class="st34" d="M527.2,233c0.3,2.4,0.8,4.8,1.2,7.1c0.4,2.4,0.7,4.9,0.2,7.3c-0.3-2.4-0.8-4.7-1.2-7.1
									C527,237.9,526.7,235.4,527.2,233z"/>
							</g>
							<g>
								<path class="st34" d="M529.1,243.7c1.4-0.2,2.8-0.2,4.3,0c1.4,0.2,2.8,0.6,4.2,1.1c2.7,1,5.1,2.5,7.4,4.1
									c-2.7-0.9-5.2-2.2-7.8-3.2C534.6,244.7,531.9,244.1,529.1,243.7z"/>
							</g>
							<g>
								<path class="st34" d="M541.7,213.9c0.9-0.2,1.8,0,2.5,0.4c0.8,0.4,1.4,1.1,1.7,1.9c-0.8-0.3-1.5-0.7-2.1-1.1
									C543.1,214.8,542.4,214.5,541.7,213.9z"/>
							</g>
						</g>
					</g>
				</g>
				<g>
					<g>
						<g>
							<g>
								<path class="st38" d="M245.8,251c0.3,3.5,0.5,6.2-0.3,9.7c-2.5-0.5-6.2-1.5-8.5-2.7c-3,3.5-5.2,3.3-9.7,3.7
									c-3.8,0.2-8.3,1.3-9.7-3c-1-2.8,2.6-8.4,1.1-9.9c-2.5-2.3-10.3-1.3-12.3-4.5c-2.8-4.2,4-2.2,5.8-1.7
									c3.2,0.8,6.3,1.5,9.7,2.3c5.7,1.3,10.7,4.5,16.2,5.3L245.8,251z"/>
							</g>
							<g>
								<path class="st38" d="M224.1,259.5c3.3,7.8-12.7,0.8-7.2-2.3L224.1,259.5z"/>
								<path class="st39" d="M224.1,259.5c0.3,0.6,0.6,1.2,0.6,1.9c0,0.3,0,0.7-0.2,1.1c-0.2,0.4-0.5,0.6-0.8,0.7
									c-0.7,0.3-1.4,0.3-2.1,0.2c-0.7-0.1-1.3-0.3-2-0.5c-1.3-0.5-2.5-1.1-3.4-2.2c-0.5-0.5-0.9-1.2-0.9-2.1
									c0-0.4,0.3-0.8,0.5-1.1c0.3-0.3,0.6-0.5,0.9-0.7l0.2-0.1l0.2,0.1C219.6,257.6,221.9,258.5,224.1,259.5z M224.1,259.5
									c-2.6-0.6-5-1.2-7.3-1.9l0.4,0c-0.5,0.3-0.9,0.7-0.9,1.1c0,0.4,0.2,0.9,0.6,1.4c0.8,0.9,1.9,1.5,3,2
									c1.1,0.5,2.4,0.8,3.5,0.6c0.5-0.2,0.9-0.6,0.9-1.2C224.5,260.8,224.3,260.1,224.1,259.5z"/>
							</g>
							<g>
								<path class="st38" d="M225.1,255.3c0.5,2.5-0.3,4.2-3.2,4.2c-2.2,0-5.8-1.2-6.8-3c-1-1.7-0.8-4.8,1.8-4.3L225.1,255.3z"/>
								<path class="st39" d="M225.1,255.3c0.2,0.8,0.4,1.7,0.1,2.5c-0.1,0.4-0.4,0.8-0.7,1.2c-0.4,0.3-0.8,0.5-1.2,0.6
									c-0.9,0.2-1.8,0.2-2.6,0.1c-0.9-0.1-1.7-0.3-2.5-0.6c-0.8-0.3-1.6-0.7-2.3-1.2c-0.7-0.5-1.3-1.4-1.6-2.3
									c-0.2-0.9-0.3-1.9,0.2-2.8c0.2-0.5,0.6-0.9,1.2-1.1c0.5-0.2,1-0.1,1.5-0.1l0,0l0,0c1.4,0.6,2.7,1.2,4.1,1.8
									C222.6,254.1,223.9,254.7,225.1,255.3z M225.1,255.3c-1.5-0.4-2.9-0.9-4.2-1.4c-1.4-0.5-2.7-0.9-4.1-1.4l0.1,0
									c-0.4,0-0.7,0-1,0.1c-0.3,0.1-0.5,0.3-0.6,0.6c-0.3,0.6-0.3,1.4-0.1,2.1c0.3,1.5,1.8,2.3,3.3,2.9c0.7,0.3,1.5,0.5,2.3,0.7
									c0.8,0.2,1.6,0.2,2.4,0.1c0.8-0.1,1.4-0.6,1.7-1.3C225.2,257,225.2,256.2,225.1,255.3z"/>
							</g>
							<g>
								<path class="st38" d="M226.1,251.5c2,4.3-1.7,4.3-4.8,3.2c-2.3-0.8-6.8-1.5-6.8-4.5c0-3.3,4-2,6.2-1.5L226.1,251.5z"/>
								<path class="st39" d="M226.1,251.5l0.4,0.7c0.1,0.2,0.2,0.5,0.3,0.8c0.1,0.5,0.2,1.1-0.1,1.6c-0.3,0.5-0.9,0.8-1.4,0.9
									c-0.6,0.1-1.1,0.1-1.6,0.1c-1.1-0.1-2.1-0.5-3.1-0.7c-1-0.3-2-0.5-3-0.9c-1-0.4-2-0.9-2.8-1.8c-0.4-0.5-0.6-1.1-0.7-1.7
									c0-0.6,0-1.2,0.4-1.8c0.3-0.6,1-0.9,1.6-1c0.6-0.1,1.2-0.1,1.7,0c1.1,0.1,2.1,0.5,3.1,0.7l0.1,0l0,0c0.9,0.5,1.8,1,2.7,1.5
									C224.4,250.5,225.3,251,226.1,251.5z M226.1,251.5c-1-0.4-1.9-0.8-2.9-1.3c-0.9-0.4-1.9-0.9-2.8-1.3l0.1,0
									c-1-0.2-2-0.4-3-0.5c-1-0.1-2,0-2.3,0.7c-0.2,0.3-0.3,0.8-0.2,1.2c0,0.4,0.2,0.8,0.5,1.2c0.5,0.7,1.5,1.2,2.4,1.5
									c0.9,0.4,1.9,0.7,2.9,1c0.5,0.2,1,0.4,1.5,0.5c0.5,0.2,1,0.3,1.5,0.4c0.9,0.2,2.1,0.2,2.6-0.6c0.3-0.4,0.3-0.9,0.2-1.4
									c0-0.2-0.1-0.5-0.2-0.8L226.1,251.5z"/>
							</g>
							<g>
								<path class="st38" d="M232.5,255c-2.7-1.2-4-2.8-4.2-5.8l0,0c0,1.8-0.2,8.2-2.8,8.3c-3,0.2-2-8-1.5-9.7
									c1.3-5.2,4.3-5,7.8-1.5c2.3,2.3,4.8,5.7,4.2,8.8"/>
								<path class="st39" d="M232.5,255c-1.2-0.4-2.3-1.1-3.2-2.1c-0.8-1-1.2-2.4-1.3-3.7l0.6,0c0,1.7,0,3.5-0.4,5.2
									c-0.2,0.9-0.4,1.7-1,2.5c-0.3,0.4-0.7,0.8-1.2,0.9c-0.5,0.2-1.1,0.2-1.6-0.2c-0.5-0.3-0.7-0.8-0.9-1.2
									c-0.2-0.4-0.3-0.9-0.4-1.3c-0.2-0.9-0.2-1.8-0.2-2.6c0-0.9,0.1-1.7,0.2-2.6c0.1-0.9,0.3-1.8,0.5-2.6
									c0.3-0.8,0.6-1.7,1.2-2.5c0.3-0.4,0.6-0.7,1.1-1c0.4-0.2,0.9-0.4,1.4-0.4c1,0,1.9,0.4,2.6,0.9c0.7,0.5,1.4,1.1,2,1.7
									c1.2,1.3,2.3,2.6,3.1,4.1c0.8,1.5,1.3,3.3,0.9,5c0.3-1.7-0.4-3.4-1.2-4.8c-0.9-1.4-2-2.7-3.3-3.9c-0.6-0.6-1.3-1.1-2-1.5
									c-0.7-0.4-1.5-0.7-2.2-0.7c-0.7,0-1.4,0.4-1.8,1.1c-0.5,0.6-0.8,1.4-1,2.2c-0.5,1.6-0.6,3.3-0.7,4.9c0,0.8,0,1.7,0.1,2.5
									c0.1,0.8,0.4,1.6,0.9,2c0.2,0.2,0.5,0.2,0.8,0.1c0.3-0.1,0.6-0.3,0.8-0.6c0.4-0.6,0.7-1.4,0.9-2.2c0.4-1.6,0.5-3.3,0.6-5
									l0.6,0c0,1.2,0.3,2.5,1,3.5C230.3,253.7,231.4,254.4,232.5,255z"/>
							</g>
						</g>
						<g>
							<path class="st40" d="M244.5,248.2c0,5.7,0.7,11.5,0.3,17c3.8-1.5,5.2,0.3,8.5,0.7c3,0.3,7.2,0.8,10.2,0.2
								c2.3-0.5,2.2-0.3,2.3-2.7c0.2-2,0-4,0-5.8c0-3.3,0.5-7.3-0.2-10.7c-2.8,2.2-7.7,2.2-11.2,2.5L244.5,248.2z"/>
							<g>
								<path class="st41" d="M248.5,263.2c-0.4-1.7-0.5-3.3-0.5-5c0-1.7,0.1-3.3,0.5-5c0.4,1.7,0.5,3.3,0.5,5
									C249,259.8,248.9,261.5,248.5,263.2z"/>
							</g>
							<g>
								<path class="st41" d="M250.5,252.7c0.3,1.9,0.6,3.7,1.1,5.5c0.5,1.8,1,3.6,1.9,5.1l-0.8-0.1c0.5-0.7,0.9-1.7,1.1-2.8
									c0.2-1,0.3-2.1,0.4-3.1l0.3-3.2c0.1-1.1,0.2-2.2,0.4-3.2c0,1.1,0.1,2.2,0.1,3.2c0,1.1,0.1,2.2,0,3.3c0,1.1-0.1,2.2-0.3,3.3
									c-0.2,1.1-0.5,2.2-1.3,3.2l-0.4,0.6l-0.4-0.6c-1-1.7-1.4-3.6-1.7-5.5c-0.2-0.9-0.2-1.9-0.3-2.8
									C250.5,254.5,250.4,253.6,250.5,252.7z"/>
							</g>
						</g>
					</g>
					<g>
						<path class="st38" d="M269.5,194.2c3.6-1.5,7-4.5,10.4-6.6c2.2-1.5,5-3.8,7.9-3.5c3.1,0.4,5.8,2.7,8.6,4
							c2.2,1,5.4,1.5,4.8,4.5c-0.8,3.6-5.1,7.4-7.2,10.2c-4.2,5.8-12.1,12-19.9,9.5L269.5,194.2z"/>
					</g>
					<g>
						<g>
							<path class="st38" d="M276.6,192.5c-1.4-3.9-8.1-13.9-8.2-15c0-1.1,1.5-2.4,2.5-3.2c2.4-2,3.3-4.9,5.6-6.7
								c3.9,3.1,12.1,14.6,21,22L276.6,192.5z"/>
						</g>
						<g>
							<path class="st42" d="M271.3,182.8l3.7-2.7c0,0,0.5,4.9-1.2,6.9L271.3,182.8z"/>
						</g>
						<g>
							<path class="st38" d="M276.2,169.3c0.1,1.2,0.2,2.5,0.4,3.8c0.2,1.8,0.8,4.4-0.2,5.9c-1.7,2.2-10.9,7.5-13,8
								c-1.2,0.3-4.1-2.1-5.4-3.5c0,0,2.1-2.8,2.7-3.5c0.6-0.9,1.5-2.1,1.8-3.1c-0.1,0.2-6.7,2.8-8,3.2c-0.4-1.8-0.1-3.3-1.9-4.3
								c-2.2-1.2-4.4-1.4-4.8-4.4c-0.1-0.4-0.1-0.8,0.2-1c0.2-0.3,0.7-0.4,1-0.5c3.4-0.9,3.2-4.3,2.4-6.9c-0.9-3.1-1.2-6.5-0.5-9.6
								c1.2-5.3,6.9-7.5,11.7-8.6c4.5-1,10.7-2.1,14.9,0c4.3,2.1,5.1,6.9,4.6,11.2c-0.2,1.5-0.4,2.9-0.9,4.4
								c-0.4,1.2-0.8,3.6-1.8,4.3L276.2,169.3z"/>
						</g>
						<g>
							<g>
								<path class="st43" d="M253.2,157.8c0.4-0.6,1.1-0.9,1.8-1c0.7-0.2,1.4-0.1,2.1,0c0.7,0.1,1.4,0.4,2,0.7
									c0.6,0.4,1.2,0.9,1.5,1.5c-0.6-0.3-1.2-0.6-1.8-0.8c-0.6-0.2-1.2-0.4-1.8-0.5c-0.6-0.1-1.2-0.2-1.9-0.2
									C254.5,157.5,253.9,157.5,253.2,157.8z"/>
							</g>
							<g>
								<path class="st19" d="M256.7,163.8c-0.9,0.3,0,2.6,0.4,3c0.3,0.3,0.8,0.2,0.9-0.1c0.1-0.3,0.1-0.9,0-1.3
									c-0.1-0.6-0.4-1.5-1.1-1.6C256.8,163.8,256.7,163.8,256.7,163.8z"/>
							</g>
						</g>
						<g>
							<g>
								<path class="st44" d="M278.9,165.8c0.1-0.4,0.2-0.7,0.4-1.1c0.7-1.4,1.9-1.6,1.4-3.5c-0.3-1.1-1-2.2-2.1-2.6
									c-1.1-0.4-2.5-0.1-3,0.9c-0.7,1.3,0.1,3.1-0.6,4.4c-0.9,0.5-2,0.1-2.7-0.5c-0.7-0.7-1.1-1.6-1.5-2.5c-1.1-2.7-2.2-5.3-3.3-8
									c-0.3,0.8-1.2,1.4-2,1.3c-0.9,0-1.7-0.7-1.9-1.5c-0.1-0.3-0.2-0.8-0.5-0.8c-0.2,0-0.3,0.1-0.4,0.3c-0.8,0.8-1.7,1.9-2.9,1.9
									c-1.4,0-2.1-1.5-1.8-2.7c-3.8,0.8-7.9,5.5-12,1.9c-0.8-0.7-1.2-2-0.8-3.1c-1.2,0.4-2.3-1-2.1-2.2c0.2-1.2,1.2-2.1,2.2-2.9
									c-1.3-0.5-3.1,0.5-3.9-0.6c-0.6-0.9,0.4-2.1,1.4-2.4c1-0.3,2.2-0.3,3.1-0.9c1.4-1,1.4-3.4,2.9-4.3c1.8-1.2,4.4,0.6,6.4-0.4
									c-0.7-0.5-0.4-1.7,0.3-2.1c0.7-0.4,1.7-0.2,2.4,0.2c0.7,0.4,1.4,1,2.1,1.4c1.2,0.6,2.6,0.7,3.9,0.8c5.2,0.3,15.3-1,17.6,5.5
									c1.6-0.4,3.3,0.4,4.4,1.6c1.1,1.2,2.6,3.1,3,4.7c0.9,3.5,0.6,7.3,0,10.9c-0.5,3.1-2,6-2.5,9.1c-0.6,3.4-0.3,6.8,0,10.1
									c-0.1-0.7-3.5-3.6-4.1-4.4c-1-1.4-1.7-2.2-3.2-3.3c-0.2-0.1-0.3-0.2-0.4-0.4c-0.2-0.3-0.2-0.7-0.1-1.1
									C278.5,168.1,278.6,167,278.9,165.8z"/>
							</g>
							<g>
								<g>
									<path class="st43" d="M248.5,143.5c0.5,0.2,0.9,0.4,1.4,0.4c0.5,0,0.9-0.2,1.3-0.5c0.7-0.6,1.2-1.5,2.2-2.2
										c0.4-0.3,1-0.6,1.7-0.5c0.6,0,1.2,0.3,1.6,0.5c0.5,0.2,0.9,0.5,1.3,0.6c0.4,0.1,0.8,0,1.1-0.2c0.3-0.2,0.4-0.6,0.7-1.1
										c0.1-0.3,0.5-0.6,0.8-0.7c0.3-0.1,0.5-0.2,0.9-0.2c0.7-0.1,1.3,0.3,1.7,0.5c0.4,0.2,0.8,0.4,1.3,0.6
										c0.9,0.3,1.9,0.4,2.8,0.1c0.9-0.3,1.9-0.7,2.8-1c-0.9,0.5-1.7,1.1-2.7,1.5c-1,0.4-2.2,0.4-3.2,0.2c-0.5-0.1-1-0.3-1.5-0.5
										c-0.5-0.2-0.8-0.4-1.2-0.3c-0.2,0-0.4,0.1-0.6,0.2c-0.2,0.1-0.2,0.1-0.3,0.3c-0.2,0.3-0.4,0.9-0.9,1.4
										c-0.6,0.4-1.3,0.4-1.9,0.3c-0.6-0.1-1.1-0.4-1.5-0.7c-0.4-0.2-0.8-0.5-1.2-0.5c-0.4,0-0.8,0.1-1.2,0.3
										c-0.8,0.5-1.4,1.3-2.3,1.9c-0.5,0.3-1,0.5-1.6,0.4C249.4,144.1,248.9,143.9,248.5,143.5z"/>
								</g>
								<g>
									<path class="st43" d="M259.3,148.9c0.4-0.3,0.7-0.6,0.9-1c0.2-0.4,0.3-0.8,0.4-1.2c0.1-0.4,0.4-0.9,0.8-1.3
										c0.4-0.4,0.9-0.6,1.4-0.7c1-0.3,1.9-0.2,2.7-0.3c0.8-0.1,1.4-0.7,1.9-1.5c-0.1,0.5-0.2,0.9-0.5,1.3
										c-0.3,0.4-0.7,0.7-1.2,0.9c-1,0.3-1.9,0.3-2.7,0.6c-0.8,0.2-1.4,0.6-1.7,1.4c-0.2,0.4-0.4,0.8-0.8,1.2
										C260.2,148.6,259.7,148.8,259.3,148.9z"/>
								</g>
								<g>
									<path class="st43" d="M282.3,144.2c0.8,0.4,1.5,0.9,2.1,1.5c0.6,0.6,1.2,1.2,1.7,2c0.5,0.8,0.8,1.6,0.9,2.5
										c0.1,0.9,0,1.8-0.3,2.6c-0.1-0.9-0.3-1.7-0.5-2.4c-0.2-0.8-0.5-1.5-1-2.2C284.5,146.9,283.3,145.7,282.3,144.2z"/>
								</g>
								<g>
									<path class="st43" d="M274.2,157.5c-0.1-0.7-0.4-1.1-0.8-1.6c-0.2-0.3-0.4-0.6-0.5-1c-0.1-0.4-0.1-0.8,0-1.1
										c0.1-0.7,0.5-1.3,0.5-1.7c0-0.4-0.4-1-0.8-1.5c0.3,0.1,0.6,0.2,0.9,0.5c0.3,0.2,0.6,0.5,0.7,1c0.1,0.9-0.3,1.5-0.3,2
										c-0.1,0.6-0.1,0.9,0.2,1.6C274.3,156.1,274.5,156.9,274.2,157.5z"/>
								</g>
								<g>
									<path class="st43" d="M266.2,149.8c0.4,0,0.8-0.2,1.1-0.4c0.3-0.2,0.6-0.5,0.7-0.8c0.3-0.7,0.2-1.5-0.1-2.1l-0.3-0.6l0.7,0
										c1,0,2.1,0,2.7-0.6c0.6-0.5,0.8-1.6,1-2.6c0.1-0.5,0.2-1.1,0.5-1.6c0.3-0.5,0.8-1.1,1.4-1.2c0.6-0.2,1.1-0.1,1.7-0.1
										c0.5,0.1,1.1,0.1,1.6,0.2c-1,0.2-2.2,0.1-3.1,0.5c-0.8,0.3-1,1.4-1.1,2.4c-0.1,0.5-0.1,1.1-0.3,1.6c-0.2,0.5-0.4,1.2-1,1.6
										c-0.5,0.4-1.1,0.6-1.7,0.7c-0.6,0.1-1.1,0-1.7,0l0.4-0.6c0.3,0.9,0.3,1.9-0.2,2.7c-0.2,0.4-0.6,0.7-1,0.9
										C267.1,149.9,266.7,149.9,266.2,149.8z"/>
								</g>
								<g>
									<path class="st43" d="M246.9,149.6c0.4,0.1,0.8,0.1,1.2,0c0.3-0.1,0.5-0.4,0.6-0.7c0.3-0.7,0.4-1.5,0.8-2.3l0.1-0.3l0.3,0
										c0.6,0.1,1.1,0.3,1.6,0.5c0.5,0.2,1,0.4,1.4,0.5c0.5,0.1,0.9,0.2,1.1-0.1c0.3-0.3,0.3-0.9,0.4-1.4c0.1,0.5,0.3,1.1,0,1.7
										c-0.1,0.3-0.5,0.5-0.8,0.6c-0.3,0.1-0.6,0-0.9,0c-0.6-0.1-1.1-0.2-1.6-0.4c-0.5-0.2-1-0.3-1.4-0.4l0.5-0.2
										c-0.4,0.6-0.6,1.4-1.1,2.2c-0.2,0.4-0.7,0.8-1.2,0.8C247.6,150.1,247.2,149.8,246.9,149.6z"/>
								</g>
								<g>
									<path class="st43" d="M253.9,137.7c0.5-0.1,1.1-0.1,1.6-0.1c0.5,0,1-0.1,1.3-0.3c0.3-0.3,0.6-0.7,1.1-1.1
										c0.6-0.4,1.3-0.4,1.9-0.2c0.6,0.2,1.1,0.5,1.5,1c0.4,0.5,0.5,1,0.8,1.2c0.2,0.2,0.7,0.2,1.2,0.2c0.3,0,0.5-0.1,0.8,0
										c0.3,0,0.6,0.2,0.7,0.4c-0.9-0.6-1.8,0.8-3.2,0.1c-0.6-0.4-0.8-0.9-1.1-1.2c-0.3-0.3-0.6-0.5-1-0.6
										c-0.4-0.1-0.8-0.1-1.1,0.1c-0.3,0.2-0.6,0.6-1.2,0.9c-0.6,0.4-1.2,0.3-1.7,0.2C254.9,138,254.4,137.8,253.9,137.7z"/>
								</g>
								<g>
									<path class="st43" d="M280.7,145.4c0.9,0.5,1.5,1.3,2,2.1c0.5,0.9,0.8,1.8,1.1,2.8c0.2,1,0.4,1.9,0.4,2.9
										c0,1-0.1,2-0.5,2.9c0-1-0.2-1.9-0.3-2.8c-0.2-0.9-0.3-1.8-0.6-2.7c-0.2-0.9-0.5-1.8-0.8-2.7
										C281.7,147,281.3,146.2,280.7,145.4z"/>
								</g>
								<g>
									<path class="st43" d="M278.4,143.8c-0.2,1.4-0.2,2.7-0.2,4c0,1.3,0,2.8-0.5,4.1c-0.3-1.4-0.5-2.7-0.5-4.1
										C277.2,146.4,277.5,144.9,278.4,143.8z"/>
								</g>
								<g>
									<path class="st43" d="M250.6,151c0.6-0.1,1.1,0,1.4-0.1c0.4,0,0.7,0,1.3-0.2c0,0.3-0.2,0.6-0.4,0.8
										c-0.2,0.2-0.6,0.3-0.9,0.3C251.5,151.9,250.9,151.6,250.6,151z"/>
								</g>
								<g>
									<path class="st43" d="M249.9,140.5c0.2-0.8,0.9-1.5,1.7-1.7c0.4-0.1,0.9-0.1,1.3,0c0.4,0.1,0.8,0.4,1,0.8
										c-0.8,0-1.4,0-2,0.2C251.3,139.9,250.7,140.2,249.9,140.5z"/>
								</g>
								<g>
									<path class="st43" d="M275.6,144c0,0.7,0.1,1.2,0,1.9c-0.1,0.6-0.1,1.2-0.5,1.9c-0.4-0.6-0.5-1.3-0.5-1.9
										c0-0.3,0.1-0.7,0.2-1C275,144.5,275.2,144.2,275.6,144z"/>
								</g>
								<g>
									<path class="st43" d="M270.9,137.7c0.6-0.3,1.2-0.4,1.7-0.3c0.6,0.1,1.2,0.4,1.5,1c-0.7,0.1-1.1,0.1-1.7,0
										C272,138.3,271.4,138.2,270.9,137.7z"/>
								</g>
								<g>
									<path class="st43" d="M282.3,170.8c0.3,0.3,0.4,0.5,0.5,0.8c0,0.2,0,0.4-0.2,0.9c-0.5-0.1-0.7-0.4-0.8-0.7
										C281.8,171.4,281.9,171,282.3,170.8z"/>
								</g>
								<g>
									<path class="st43" d="M280.7,152.2c0.4,0.6,0.5,1.2,0.5,1.7c0,0.6,0,1.1-0.3,1.8c-0.5-0.5-0.7-1.1-0.7-1.7
										C280.2,153.3,280.3,152.7,280.7,152.2z"/>
								</g>
							</g>
						</g>
						<g>
							<path class="st38" d="M274.6,159.2c2.9-2.7,8.3-1.6,8.8,2.8c0.5,4.8-2.8,7.6-7.2,7.6"/>
						</g>
					</g>
					<g>
						<g>
							<path class="st45" d="M272,441c4.2-0.2,7-1.4,11-1.6c2.9-0.3,5.4,0.5,7.8,0.3c0-1.2,0.1-2.5-0.1-3.8
								c-0.2-3.5-0.8-8.5-0.5-11.5l-15-2c-2,4.2-5.5,6.2-10,8c-3.5,1-7,0.5-9.5,3c-1.8,1.8-2.5,4.5-2.7,7.1
								C258.7,441.7,267.6,441.3,272,441z"/>
						</g>
						<g>
							<path class="st46" d="M283,439.4c-4,0.2-6.8,1.4-11,1.6c-4.4,0.2-13.3,0.7-19-0.5c-0.1,1.1-0.1,2.2,0,3.2
								c5,0.5,9.5,0.8,14.5,1c5.5,0.3,10-1,15.2-1.8c1.8-0.2,6.4,0.4,7.9-0.6c0,0,0.1-1.1,0.2-2.6
								C288.4,439.9,285.9,439.1,283,439.4z"/>
						</g>
						<g>
							<g>
								<path class="st7" d="M289.5,450.7c4.6-0.3,7.6-1.5,12-1.8c3.1-0.3,5.9,0.5,8.5,0.3c0.1-1.3,0.1-2.8-0.1-4.1
									c-0.3-3.8-0.8-9.3-0.5-12.5l-16.3-2.2c-2.2,4.6-6,6.8-10.9,8.7c-3.8,1.1-7.6,0.5-10.4,3.3c-1.9,1.9-2.7,4.9-3,7.7
									C275,451.5,284.7,450.9,289.5,450.7z"/>
							</g>
							<g>
								<path class="st47" d="M301.5,448.9c-4.4,0.3-7.4,1.5-12,1.8c-4.8,0.2-14.5,0.7-20.7-0.6c-0.1,1.2-0.1,2.4,0,3.4
									c5.4,0.5,10.4,0.8,15.8,1.1c6,0.3,10.9-1.1,16.6-1.9c1.9-0.3,6.9,0.4,8.6-0.7c0,0,0.1-1.2,0.2-2.9
									C307.4,449.5,304.6,448.6,301.5,448.9z"/>
							</g>
						</g>
						<g>
							<g>
								<path class="st48" d="M293.8,426.5c-1.1,0.5-2.4,0.6-3.7,0.7c-6,0.4-12.4,0.8-17.5-2.5c0.3-1,0.9-1.8,1.8-2.3
									c-1-0.4-0.9-1.9-0.2-2.8c0.7-0.9,1.7-1.6,1.9-2.6c0.3-1.3-0.8-2.5-1.4-3.8c-1.1-2.2-0.7-4.8-0.4-7.3
									c0.6-7.1-1.8-13.3-2.7-20.1c-0.6-4.9-1.2-9.7-1.8-14.6c-1.9-16-3.7-32.1-5.4-48.2c-1.1-10.4-3.5-30.7-3.5-41.1
									c8.2-0.5,17.7-6.3,25.2-6.3c0.5,0,3.4,58.3,3.6,60.9c1.2,16.8,2.3,33.5,3.5,50.3c0.5,7.3,1,14.7,1.5,22
									C294.7,412.6,297.3,424.8,293.8,426.5z"/>
							</g>
							<g>
								<path class="st48" d="M275.3,280.3c5.3-1.8,10.8-2.6,16.4-2.6c2.2,0,5.3,1,7.3,0.6c2.3-0.4-0.8-4.7,1.5-5.3
									c19.9-5.5,12.3,34.1,11.5,41.9c-2,20.1-0.3,110.5-1.9,109.9c-1.5,1.5,2.1,3.4,1.9,5.5c-0.1,1.5-2.1,2.3-2.4,3.8
									c-0.3,1.5,1.3,3.1,0.8,4.6c-0.4,1.2-1.9,1.6-3.2,1.7c-6,0.5-12.1-0.4-17.8-2.4c-0.9-0.3-1.9-0.7-2.5-1.5
									c-2.2-2.9,0.1-10.2,0.1-13.6c-0.2-2.2-0.5-1.8-1.5-3.5c-2.8-6.2-1-10.3-2-16.2c-3-17.6-15.8-110.6-14.8-117.6
									c0.6-3.9-0.3-0.3,2.9-3.4C272.7,281.2,274,280.7,275.3,280.3z"/>
							</g>
							<g>
								<g>
									<path class="st49" d="M291.4,277.2c0.1,2.5,0.1,5,0.3,7.5c0.2,2.5,0.6,4.9,1.4,7.2c0.8,2.3,1.9,4.5,3.5,6.4
										c1.6,1.9,3.5,3.4,5.6,4.8c-1.1-0.5-2.3-1.1-3.3-1.8l-0.8-0.5c-0.3-0.2-0.5-0.4-0.7-0.6c-0.5-0.4-1-0.8-1.4-1.3
										c-1.8-1.8-3.1-4.1-3.9-6.6c-0.8-2.4-1.2-5-1.2-7.5c0-1.3,0-2.5,0.1-3.8C291.1,279.7,291.3,278.4,291.4,277.2z"/>
								</g>
								<g>
									<path class="st49" d="M305.4,287c-0.6,5.9-1,11.9-1.3,17.8c-0.3,5.9-0.5,11.9-0.6,17.8c-0.2,11.9-0.2,23.8-0.1,35.7
										c0.1,11.9,0.2,23.8,0.8,35.6c0.3,5.9,0.6,11.9,1.2,17.8c0.5,5.9,0.9,11.9,0.4,17.8l0,0.1l-0.1,0c-0.8,0.2-1.1,1-1.1,1.8
										c0,0.8,0.1,1.6,0.3,2.4c0.2,0.8,0.4,1.6,0.5,2.4c0.2,0.8,0.4,1.6,0.3,2.4c0-0.8-0.2-1.6-0.4-2.4c-0.2-0.8-0.4-1.6-0.6-2.4
										c-0.2-0.8-0.3-1.6-0.3-2.4c0-0.4,0.1-0.8,0.3-1.2c0.2-0.4,0.6-0.7,1-0.8l-0.1,0.1c0.2-5.9-0.2-11.9-0.8-17.8
										c-0.6-5.9-1.1-11.9-1.4-17.8c-0.6-11.9-0.8-23.8-0.9-35.7c0-11.9,0-23.8,0.3-35.7c0.2-5.9,0.4-11.9,0.9-17.8
										C304.1,298.8,304.7,292.9,305.4,287z"/>
								</g>
								<g>
									<path class="st49" d="M290.7,429.2c3.4,0.5,6.7,1.1,10,1.4c1.7,0.1,3.3,0.2,5,0.1c1.7-0.1,3.3-0.4,4.9-1.1
										c-1.4,1.1-3.1,1.6-4.8,1.9c-1.7,0.3-3.5,0.3-5.2,0.1C297.2,431.3,293.9,430.5,290.7,429.2z"/>
								</g>
								<g>
									<path class="st49" d="M292.1,433.8c1.3-0.1,2.7-0.1,4-0.1c1.3,0,2.6-0.1,3.9-0.1c2.6-0.1,5.2-0.3,7.9-0.4
										c-1.3,0.4-2.5,0.8-3.9,1c-1.3,0.2-2.6,0.4-4,0.4c-1.3,0.1-2.7,0-4-0.1C294.7,434.3,293.4,434,292.1,433.8z"/>
								</g>
								<g>
									<path class="st49" d="M268,262.1c0.5,3.3,0.7,6.6,1,9.9c0.3,3.3,0.4,6.6,0.7,9.9c0.2,3.3,0.4,6.6,1,9.8
										c0.3,1.6,0.6,3.2,1.1,4.8c0.4,1.6,1.2,3.1,2.5,4.2c-1.4-0.9-2.4-2.4-3-4c-0.6-1.6-1-3.2-1.4-4.8c-0.7-3.3-0.9-6.6-1.2-9.9
										c-0.2-3.3-0.3-6.6-0.4-9.9L268,262.1z"/>
								</g>
								<g>
									<path class="st49" d="M273.6,262.8c0.3,7.1,0.5,14.3,0.8,21.4l0.3,10.7c0.1,3.6,0.2,7.1,0.5,10.7l3.4,42.7
										c1.1,14.2,2.3,28.5,3.7,42.7c0.4,3.5,0.7,7.1,1.2,10.6c0.2,1.8,0.5,3.5,0.7,5.3c0.2,1.8,0.5,3.5,1,5.2c0.5,1.7,1,3.5,1,5.3
										c0,0.9-0.2,1.8-0.5,2.7c-0.3,0.8-0.5,1.7,0,2.4c0.2,0.4,0.6,0.7,0.8,1.1c0.1,0.2,0.2,0.4,0.2,0.7c0,0.3-0.1,0.5-0.3,0.7
										c-0.6,0.6-0.7,1.6-0.5,2.5c0.2,0.9,0.5,1.7,0.7,2.6c0.2,0.8,0.3,1.9-0.4,2.5c0.7-0.7,0.6-1.7,0.4-2.5
										c-0.2-0.9-0.6-1.7-0.8-2.6c-0.1-0.4-0.2-0.9-0.1-1.4c0.1-0.5,0.3-0.9,0.6-1.2c0.3-0.3,0.3-0.8,0.1-1.1
										c-0.2-0.4-0.5-0.7-0.8-1c-0.3-0.4-0.4-0.9-0.4-1.3c0-0.5,0.1-0.9,0.3-1.3c0.3-0.9,0.4-1.7,0.4-2.6c0-1.8-0.6-3.5-1.1-5.2
										c-0.5-1.7-0.8-3.5-1.1-5.3c-0.2-1.8-0.5-3.5-0.8-5.3c-0.5-3.5-0.9-7.1-1.3-10.6c-1.5-14.2-2.7-28.4-3.9-42.7
										c-1.1-14.2-2.2-28.5-3.1-42.7C273.7,291.4,274,277.1,273.6,262.8z"/>
								</g>
								<g>
									<path class="st49" d="M267.3,300.9c0.6-0.4,1.3-0.5,2-0.5c0.7,0,1.4,0.1,2,0.4c0.6,0.3,1.2,0.6,1.8,1c0.5,0.4,1,1,1.2,1.6
										c-1.2-0.7-2.2-1.3-3.4-1.7C269.8,301.3,268.6,301,267.3,300.9z"/>
								</g>
							</g>
						</g>
					</g>
					<g>
						<g>
							<path class="st50" d="M271.9,191.2c-3.6,0.9-11.3,2.3-13.6,5.7c-0.4,0.6-0.6,1.4-0.8,2.2c-1.1,5.7-0.5,11.8,1.7,17.2
								c3.5,8.7,2.4,19.7,2.4,29c0,7.1,1.2,16.6-1.3,23.4c-0.9,2.5-2.2,5.2-1.3,7.7c0.3,0.9,0.8,2,0.1,2.7c-0.2,0.2-0.5,0.3-0.8,0.5
								c-1.3,0.9-0.5,2.7-0.5,4.2c0,1.3-0.6,2.5-0.5,3.7c0.3,4,39.2,5.2,49.5,5.2c0.7,0,8.9-0.4,9-0.1c-0.6-2.7-1.1-5.2-1.3-7.9
								c-0.2-2.4,1.5-6.1,0.1-8.2c-0.2-0.4-0.6-0.7-0.6-1.1c-0.1-0.8,0.8-1.4,0.9-2.1c0.1-0.6-0.3-1.1-0.5-1.7
								c-0.5-1.2-0.5-2.5-0.5-3.8c0-10.1,0-20.1,0.1-30.2c0-3.9-1-7.8-0.8-11.6c0.3-4.5,1.3-9.1,2.2-13.6c0.8-3.8,2.7-7.3,3.9-11.2
								c1.5-4-1-7.7-5-9.4c-5-2.1-10-2.2-15.3-3.7c-0.3-0.1-0.9-0.4-1.2-0.3c-0.3,0.1-0.6,0.8-0.9,1.2c-2.2,3.9-6.3,7.1-11.1,7.6
								s-10-2-11.5-6.2C273.4,190.5,272.7,191,271.9,191.2z"/>
						</g>
						<g>
							<g>
								<path class="st40" d="M263.2,282.6c1.4,1,3.1,1.6,4.8,2c1.7,0.4,3.4,0.6,5.1,0.8c1.7,0.2,3.4,0.3,5.2,0.6l5.2,0.7
									c3.4,0.4,6.9,0.7,10.3,0.7c3.4,0,6.9-0.6,10.1-1.8c-1.5,0.8-3.2,1.4-4.9,1.8c-1.7,0.4-3.5,0.6-5.2,0.7
									c-3.5,0.2-7-0.1-10.5-0.5c-1.7-0.2-3.5-0.5-5.2-0.7c-1.7-0.3-3.4-0.4-5.2-0.7c-1.7-0.3-3.4-0.6-5.1-1.1
									C266.1,284.5,264.4,283.8,263.2,282.6z"/>
							</g>
							<g>
								<path class="st40" d="M269.5,271.5c5.3,0.6,10.5,1.3,15.8,2.1l3.9,0.6l3.9,0.5c1.3,0.2,2.7,0.4,4,0.7c0.7,0.2,1.3,0.3,2,0.6
									c0.6,0.3,1.3,0.5,1.9,1.1c0.3,0.3,0.5,0.8,0.5,1.2c0,0.5-0.2,0.9-0.4,1.2c-0.5,0.6-1.2,1.1-1.9,1.2c-1.4,0.4-2.7,0.6-4,0.6
									c-2.7,0.1-5.4,0.1-8-0.1c-2.7-0.1-5.3-0.4-7.9-0.8c-2.6-0.4-5.2-0.9-7.8-1.4c5.3,0.7,10.5,1.4,15.8,1.5
									c2.7,0.1,5.3,0.2,7.9,0c1.3-0.1,2.6-0.2,3.8-0.6c0.6-0.2,1.1-0.5,1.4-0.9c0.3-0.5,0.3-0.8,0-1.2c-0.4-0.4-0.9-0.7-1.5-0.9
									c-0.6-0.2-1.2-0.4-1.8-0.6c-1.3-0.3-2.6-0.5-3.9-0.7l-4-0.5c-1.3-0.2-2.6-0.4-3.9-0.7C279.9,273.5,274.7,272.6,269.5,271.5z
									"/>
							</g>
							<g>
								<path class="st40" d="M272.6,191.9c0.7,2.8,2.8,5.2,5.4,6.2c1.3,0.5,2.7,0.6,4.1,0.6c1.4,0,2.9-0.1,4.3-0.3
									c2.8-0.4,5.6-1.2,7.9-2.9c2.3-1.6,4-4,5.4-6.6c-0.5,1.4-1.1,2.7-1.9,3.9c-0.8,1.2-1.8,2.3-3,3.3c-2.3,1.9-5.3,2.9-8.2,3.3
									c-1.5,0.2-2.9,0.3-4.4,0.2c-1.4,0-3-0.2-4.4-0.8c-1.4-0.6-2.6-1.6-3.5-2.8C273.4,194.8,272.8,193.4,272.6,191.9z"/>
							</g>
							<g>
								<path class="st40" d="M259.8,202.4c0.5,2.4,0.8,4.8,1,7.3c0.1,2.4,0.2,4.9,0,7.3c-0.6-2.4-0.8-4.8-1-7.3
									C259.7,207.3,259.6,204.9,259.8,202.4z"/>
							</g>
						</g>
					</g>
					<g>
						<g>
							<path class="st50" d="M309,191.4c-2-0.3-3.8,0.2-5.1,2.2c-2,3.1-2.3,7.7-2.4,11.2c-0.2,4.7,0.3,9.2,1.3,13.8
								c0.8,4.3,0.3,8.2,0.5,12.7c0.1,3.3,2.7,6.9,3.6,10.1c1.3,4.3,2.8,8.5,4.6,12.6c0.2,0.4,0.4,0.8,0.4,1.3c0,2-2.9,2.2-4.4,3.4
								c-2.1,1.6-1.6,4.8-0.3,7.1c3.9,6.9,13.5,9.9,20.6,6.4c1.3-0.6,2.6-1.5,3.3-2.8c0.9-1.6,0.6-3.6,0.4-5.4
								c-1.8-13.3-4.3-26.6-7.4-39.7c-0.7-2.7-3-14.1-3.4-16.8c-0.7-5-0.4-9.1-4.5-12.4C314.5,193.5,311.7,191.8,309,191.4z"/>
						</g>
						<g>
							<path class="st38" d="M302.4,262.7c-3.7-0.6-6.7-1.9-10.4-2c-4-0.1-5.7-2.3-8.4-4.6c-2.7-2.3-6.8-1.7-10.2-2.4
								c-1.1-0.2-2.3-0.3-2.1-1.8c0.2-0.8,2.9-0.4,4.3-0.6c1.9-0.2,3.8,0.9,5.5,0.5c-0.2-1.5-4.9-3.1-6.4-3.7
								c-1.8-0.8-6.5-2.1-6.2-3.1c0.1-3.5,10,3.4,13.2,3.4c-2.9-4.8-13.3-7.1-12.8-9.4c0.8-3.7,11.7,5.5,14,5.6
								c-0.4-1.3-4.2-4.7-6.4-5.8c-0.9-0.6-3.7-1.5-4-2.5c-0.6-2.2,2-1.1,3.1-0.5c6.6,3.1,10.3,7.7,14.9,13.2
								c1.6,1.9,3.4,4.9,5.6,5.6c2.2,0.7,6.8,0,6.8,0S302.4,262.7,302.4,262.7z"/>
						</g>
						<g>
							<g>
								<path class="st40" d="M323.8,253.1c-1.8,0.3-3.6,0.4-5.4,0.3c-0.9,0-1.8-0.1-2.7-0.2c-0.5,0-0.9-0.1-1.4-0.2
									c-0.5-0.1-1-0.2-1.5-0.6c-0.1-0.1-0.2-0.3-0.3-0.5c0-0.2,0-0.4,0-0.6c0.1-0.2,0.1-0.3,0.2-0.4c0.1-0.1,0.2-0.2,0.3-0.3
									c0.1-0.1,0.2-0.2,0.3-0.3c0.1-0.1,0.3-0.2,0.4-0.2c0.3-0.1,0.5-0.2,0.8-0.2c1-0.1,1.9,0,2.8,0c1.8,0,3.7,0.3,5.3,1.1
									c-1.8-0.4-3.6-0.4-5.3-0.3c-0.9,0.1-1.8,0-2.6,0.2c-0.2,0-0.4,0.1-0.5,0.1c-0.1,0-0.1,0.1-0.2,0.1l-0.2,0.2
									c-0.1,0.1-0.1,0.1-0.2,0.2c-0.1,0.1-0.1,0.1-0.1,0.2c0,0.1,0,0,0,0.1c0.1,0.1,0.6,0.3,1,0.4c0.4,0.1,0.8,0.1,1.3,0.2
									l2.7,0.3C320.2,252.8,322,253,323.8,253.1z"/>
							</g>
							<g>
								<path class="st40" d="M321.4,247.9c-1.6,0.4-3.2,0.5-4.7,0.7c-1.6,0.2-3.1,0.3-4.8,0.3c1.5-0.8,3-1.1,4.6-1.3
									C318.2,247.5,319.8,247.5,321.4,247.9z"/>
							</g>
							<g>
								<path class="st50" d="M319.6,255.2c-7.7-0.2-11.9-0.7-18-1.3c-1.1-0.1-2.2-0.2-3.2-0.7c-0.9,4.8-2.8,9.3-3.8,13.9
									c1.2,0,2.3,0,3.4,0.6c1.1,0.6,1.6,1.8,2.6,2.6c2.2,1.8,4.1-0.4,6.5-0.1c1.3,0.2,2.4,1.2,3.6,1.8c1.2,0.5,2.4,1.1,3.6,1.4
									c1.7,0.4,8.7,0.4,10.4,0.2c4.6-0.6,7.9-2.6,6.8-7.7"/>
							</g>
							<g>
								<path class="st40" d="M313.5,273.1c-0.8-0.3-1.7-0.6-2.5-0.8c-0.9-0.2-1.6-0.8-2.4-1.2c-0.7-0.4-1.5-0.6-2.3-0.5
									c-0.8,0.1-1.6,0.4-2.5,0.7c-0.8,0.3-2,0.4-2.9-0.2c-0.9-0.5-1.5-1.3-2-1.9c-0.5-0.7-1.1-1.1-1.8-1.4
									c-0.8-0.2-1.6-0.3-2.5-0.3l-0.5,0l0.1-0.5l1.1-3.6c0.4-1.2,0.8-2.4,1.2-3.6c-0.2,1.2-0.5,2.5-0.7,3.7l-0.8,3.7l-0.4-0.5
									c0.9,0,1.8,0,2.7,0.2c0.5,0.1,0.9,0.3,1.3,0.6c0.4,0.3,0.7,0.7,1,1c0.6,0.7,1.1,1.3,1.7,1.7c0.6,0.4,1.4,0.3,2.2,0.1
									c0.8-0.2,1.7-0.5,2.6-0.6c0.5,0,1,0,1.4,0.2c0.5,0.1,0.9,0.4,1.3,0.6c0.8,0.5,1.4,1,2.2,1.4
									C311.9,272.3,312.7,272.7,313.5,273.1z"/>
							</g>
							<g>
								<path class="st40" d="M319.8,255.4l-10.8-0.5c-1.8-0.1-3.6-0.2-5.4-0.3c-0.9-0.1-1.8-0.2-2.7-0.3c-0.9-0.1-1.8-0.4-2.7-0.8
									l0.4-0.2c-0.2,0.5-0.4,1-0.6,1.5c0-0.5,0-1.1,0.1-1.6l0-0.3l0.3,0.1c0.8,0.2,1.7,0.3,2.6,0.4l2.7,0.2l5.4,0.4
									c1.8,0.1,3.6,0.3,5.4,0.5C316.3,254.8,318.1,255,319.8,255.4z"/>
							</g>
							<g>
								<path class="st40" d="M302.6,219.6c1,2.9,2.1,5.7,3.1,8.6c1,2.9,1.8,5.9,2.3,8.8c1.1,5.9,2.5,11.8,4,17.7
									c-1.1-2.8-2-5.7-2.8-8.7c-0.8-2.9-1.5-5.9-2.2-8.9c-0.5-3-1.3-5.9-2.1-8.8C304,225.5,303.1,222.6,302.6,219.6z"/>
							</g>
							<g>
								<path class="st40" d="M301.4,207.6c-0.5-1.5-0.3-3.2,0.1-4.7c0.4-1.6,1.1-3,2-4.4c0.9-1.3,2-2.6,3.3-3.5
									c1.3-0.9,2.9-1.6,4.5-1.6c-1.5,0.4-2.8,1.2-4,2.2c-1.1,1-2.1,2.2-2.9,3.4c-0.8,1.3-1.5,2.6-2,4.1
									C301.8,204.6,301.4,206,301.4,207.6z"/>
							</g>
						</g>
					</g>
				</g>
				<g>
					<path class="st4" d="M226.1,91.8c0-22.5-18.1-40.7-40.4-40.7s-40.4,18.2-40.4,40.7c0,18.7,12.5,34.4,29.6,39.2v25.8l13-24.4
						C209.2,131.3,226.1,113.6,226.1,91.8z"/>
					<path class="st51" d="M334.2,37.5h-66.6c-6.4,0-11.5,5.2-11.5,11.5V108c0,6.4,5.2,11.5,11.5,11.5h40.8v15.3l12.6-15.3h13.3
						c6.4,0,11.5-5.2,11.5-11.5V49C345.7,42.7,340.5,37.5,334.2,37.5z"/>
					<path class="st52" d="M489,66.2c0-20.6-27.6-37.3-61.7-37.3c-34.1,0-61.7,16.7-61.7,37.3c0,19.9,25.7,36.2,58.2,37.3v19.4
						l13.7-19.9C466.7,100,489,84.7,489,66.2z"/>
					<path class="st53" d="M562.1,110.8H456.6c-1.3,0-2.3,1.3-2.3,3v31.3c0,1.7,1,3,2.3,3h36.7l12.5,18.2v-18.2h56.2
						c1.3,0,2.3-1.3,2.3-3v-31.3C564.3,112.2,563.3,110.8,562.1,110.8z"/>
				</g>
			</g>
		</g>
	</g>
</g>
</svg>
