<svg xmlns="http://www.w3.org/2000/svg" xmlns:xlink="http://www.w3.org/1999/xlink" width="168" height="133" viewBox="0 0 168 133">
  <defs>
    <clipPath id="clip-path">
      <rect id="Rectángulo_345548" data-name="Rectángulo 345548" width="168" height="133" transform="translate(-2839 -6535)" fill="none" stroke="#707070" stroke-width="1"/>
    </clipPath>
    <clipPath id="clip-path-2">
      <rect id="Rectángulo_344660" data-name="Rectángulo 344660" width="153.158" height="76.22" fill="none"/>
    </clipPath>
    <clipPath id="clip-path-3">
      <path id="Trazado_697946" data-name="Trazado 697946" d="M16.5,9.75a116.237,116.237,0,0,1,8.538,46.339c-.056,3.507-3.156,12.24-1.331,13.325,18.335,10.9,33.756,8.887,45.311,6.915,14.1-2.406,20.841-7.323,34.744-9.7,18.24-3.113,36.09,1.162,54.82,5.083,2.4-4.589,2.536-13.993,1.114-18.08S156.172,45.6,154.822,41.5a35.172,35.172,0,0,1,3-28.5c-8.406-2.591-16.7-.782-23.943,1.882s-13.882,6.188-21.31,8.551c-11.109,3.534-23.643,4.309-35.586,2.9a113.437,113.437,0,0,1-33.611-9.629,125.019,125.019,0,0,0-12.622-5.463A33.449,33.449,0,0,0,20.37,9.437,23.244,23.244,0,0,0,16.5,9.75" transform="translate(-16.505 -9.437)" fill="none"/>
    </clipPath>
    <clipPath id="clip-path-5">
      <rect id="Rectángulo_344651" data-name="Rectángulo 344651" width="4.034" height="2.832" fill="none"/>
    </clipPath>
    <clipPath id="clip-path-6">
      <rect id="Rectángulo_344652" data-name="Rectángulo 344652" width="4.034" height="2.833" fill="none"/>
    </clipPath>
    <clipPath id="clip-path-7">
      <rect id="Rectángulo_344653" data-name="Rectángulo 344653" width="3.978" height="2.695" fill="none"/>
    </clipPath>
    <clipPath id="clip-path-9">
      <path id="Trazado_698068" data-name="Trazado 698068" d="M597.692,141a44.082,44.082,0,0,0-.1,8.475q.273,5.184.545,10.368a1.639,1.639,0,0,0,.19.823c.3.466.964.5,1.52.463a31.761,31.761,0,0,0,5.519-.824,2.359,2.359,0,0,0,1.446-.759,2.458,2.458,0,0,0,.139-1.9l-4.924-24.713a11.984,11.984,0,0,0-4.336,8.07" transform="translate(-597.438 -132.928)" fill="none"/>
    </clipPath>
    <clipPath id="clip-path-11">
      <path id="Trazado_698112" data-name="Trazado 698112" d="M558.8,133.593a6.114,6.114,0,0,0-2.635.216c-1.127.529-1.559,1.883-1.852,3.093-2.1,8.662-3.123,17.543-4.143,26.4,4.764-1.492,10.1-1.015,15.222-.512-.337-10.617-.573-20.982-.91-31.6-2.785.4-3.6,2.411-5.681,2.405" transform="translate(-550.172 -131.188)" fill="none"/>
    </clipPath>
    <clipPath id="clip-path-13">
      <rect id="Rectángulo_344657" data-name="Rectángulo 344657" width="4.145" height="2.808" fill="none"/>
    </clipPath>
  </defs>
  <g id="Enmascarar_grupo_998561" data-name="Enmascarar grupo 998561" transform="translate(2839 6535)" clip-path="url(#clip-path)">
    <g id="Grupo_1000207" data-name="Grupo 1000207" transform="translate(363 -144)">
      <g id="Grupo_1000206" data-name="Grupo 1000206">
        <g id="Grupo_1000201" data-name="Grupo 1000201" transform="translate(340.079 -437)">
          <circle id="Elipse_8213" data-name="Elipse 8213" cx="42.5" cy="42.5" r="42.5" transform="translate(-3501 -5930)" fill="#f7cad2"/>
          <g id="Grupo_998456" data-name="Grupo 998456" transform="translate(-3535.079 -5921.22)">
            <g id="Grupo_998455" data-name="Grupo 998455" clip-path="url(#clip-path-2)">
              <g id="Grupo_998426" data-name="Grupo 998426" transform="translate(3.528 2.017)">
                <g id="Grupo_998425" data-name="Grupo 998425" clip-path="url(#clip-path-3)">
                  <path id="Trazado_697943" data-name="Trazado 697943" d="M149.53,15.761c-.258-.012-.52-.019-.78-.027a21.31,21.31,0,0,1,2.04-8.9,72.4,72.4,0,0,0-32.212,3.631c-10.152,3.67-18.279,7.72-29.3,9.584-9.345,1.581-19.824,1.9-28.615-.929S43.835,12.351,35.334,9.075,17.572,3.151,7.987,3.248a23.53,23.53,0,0,1,.9,5.916c-.461-.109-.922-.217-1.389-.322a64.081,64.081,0,0,1-.417,10.114c12.835,2.87,24.784,7.521,37.077,11.482s25.3,7.288,38.709,7.254c23.593-.059,45.012-10.393,68.414-12.608l-1.746-9.323" transform="translate(-9.092 -4.569)" fill="#ffd900"/>
                  <path id="Trazado_697944" data-name="Trazado 697944" d="M153.865,82.389c-.844-1.708-.4-3.6-.4-5.429a4.742,4.742,0,0,0-3.016-4.781,10.175,10.175,0,0,0-4.274-.221c-18.935,1.87-36.112,9.968-55.155,11.089a129.122,129.122,0,0,1-40.407-3.778C37.726,75.847,25.02,68.363,9.863,65.987,10.3,69.2,11.009,73.834,11.5,77.33q-1.012-.234-2.04-.46a83.053,83.053,0,0,0,2.058,9.5C32.73,88.959,51.379,99.54,72.835,100.512,87.24,101.165,101.24,97.4,115,94.184s28.535-5.921,42.478-3.166c-.428-3.005-1.188-6.382-3.616-8.63" transform="translate(-10.968 -53.899)" fill="#0074d0"/>
                  <path id="Trazado_697945" data-name="Trazado 697945" d="M163.777,169.874c-.156-.069-.318-.131-.476-.2l-.875-10.532c-10.292-2.769-17.645-2.983-28.178-.764-13.96,2.941-33,7.137-43.839,8.319-13.746,1.5-29.432-.41-42.53-3.839s-17.39-6.4-31.047-8.284c-.506,2.668.96,5,.182,9.324.2.039.4.083.606.124,4.787,6.868.1,21.451,4.782,24.931,1.587,1.181,13.591,2.422,15.679,3.045,8.286,2.473,18.428,3.058,27.356,3.323,8.225.244,18.476,1.426,26.479,0,22.183-3.952,29.281-8.763,52.09-8.28,4.912.1,14,.77,17.723,3.137a127.487,127.487,0,0,1,2.049-20.307" transform="translate(-16.676 -123.551)" fill="#b30e19"/>
                </g>
              </g>
              <g id="Grupo_998440" data-name="Grupo 998440">
                <g id="Grupo_998439" data-name="Grupo 998439" clip-path="url(#clip-path-2)">
                  <path id="Trazado_697947" data-name="Trazado 697947" d="M419.738,203.588c-3.789,3.09-8.014,3.976-11.637,5.313-.205.076-3.528,1.32-4.666,1.133-3.059-.5-4.6-2.669-4.17-3.549.425-.861,4.736-1.372,5.635-1.635,5.056-1.479,9.217-5.335,11-7.4,1.358,1.677,2.318,4.168,3.834,6.142" transform="translate(-313.86 -155.239)" fill="#deab8c"/>
                  <path id="Trazado_697948" data-name="Trazado 697948" d="M388.529,225.346a4.44,4.44,0,0,1-2.851-.824,6.649,6.649,0,0,0-2.8-1.4.432.432,0,0,0-.42.162c-.135.208.047.4.212.542l1.571,1.37a8.325,8.325,0,0,0-1.8.158,3.346,3.346,0,0,0-1.988.526.361.361,0,0,0,.23.618l2.044.324a4.425,4.425,0,0,0-1.942.743c-.176.122-.35.353-.2.505a.468.468,0,0,0,.344.084l1.722-.038a4.229,4.229,0,0,0-1.767.785c-.139.107-.282.261-.227.422.066.192.346.223.564.211a11.6,11.6,0,0,0,1.857-.256,3.572,3.572,0,0,0-1.785.826.632.632,0,0,0-.282.537.537.537,0,0,0,.422.373,1.734,1.734,0,0,0,.611,0c2.36-.275,7.6-.858,7.6-.858s-.041-.337-.077-.587a15.419,15.419,0,0,0-1.034-4.229" transform="translate(-299.035 -175.427)" fill="#deab8c"/>
                  <path id="Trazado_697949" data-name="Trazado 697949" d="M447.57,148.865c-2.189.541-4.434.876-6.083,2.413-1.447,1.349-3.515,5.822-4.615,7.467-2.784,4.163-6.825,6.03-10.98,7.664l1.425,5.428c5.463-1.544,10.274-2.742,13.413-5.881,1-1,1.438-1.241,1.509-1.518.746-2.919,3.684-9.522,4.431-12.444.237-.928.622-2,.9-3.13" transform="translate(-334.852 -117.043)" fill="#8dbce3"/>
                  <path id="Trazado_697950" data-name="Trazado 697950" d="M311.472,149.5c.4-1.064,1.269-2.969,1.671-4.033.186-.492.688-1.249.913-1.209.266.046.342.213.344.465s-.121,1.465-.093,1.778c.641-.928,1.522-2.539,2.494-3.174a1.082,1.082,0,0,1,.435-.195.366.366,0,0,1,.394.181c.056.144-.039.3-.129.434l-1.305,1.905a11.281,11.281,0,0,1,2.52-1.51c.394-.11.65.186.443.518a8.394,8.394,0,0,1-1.663,1.8c.9-.279,1.685-.883,2.476-1.128a.5.5,0,0,1,.583.253.446.446,0,0,1-.147.536c-.671.538-1.429,1.269-2.1,1.807a7.3,7.3,0,0,1,2.68-.622.46.46,0,0,1,.368.306c.064.235-.226.608-.436.717a43.912,43.912,0,0,0-7.043,4.274c-1.086-.8-1.135-1.743-2.4-3.1" transform="translate(-244.891 -112.533)" fill="#deab8c"/>
                  <path id="Trazado_697951" data-name="Trazado 697951" d="M230.095,147.768l2.984,3.682c-2.632,2.072-7.405,5.7-10.037,7.776a7.442,7.442,0,0,1-3.862,1.955c-1.963.138-3.686-1.282-4.941-2.8s-3.01-3.414-4.15-4.677c0,0-2.646-11.417-2.517-11.637,2.971,0,5.8,3.277,7.4,5.353a32.291,32.291,0,0,0,4.286,4.876.884.884,0,0,0,.932.156c2.432-1.035,6.781-3.169,9.9-4.685" transform="translate(-163.196 -111.699)" fill="#fff"/>
                  <path id="Trazado_697952" data-name="Trazado 697952" d="M302.331,173.47l3.133,4.107" transform="translate(-237.704 -136.389)" fill="none" stroke="#000" stroke-linecap="round" stroke-linejoin="round" stroke-width="1"/>
                  <path id="Trazado_697953" data-name="Trazado 697953" d="M296.189,25.582c-5.009-.192-10.086-.378-14.975.73a5.271,5.271,0,0,0-3.486,1.944,3.621,3.621,0,0,0-.281,2.941,7.193,7.193,0,0,0,1.564,2.587c3.561,4.056,9.13,5.8,14.512,6.211a25.473,25.473,0,0,0,10.186-1.064,15.338,15.338,0,0,0,8.075-6.092,4.986,4.986,0,0,0,.844-4.31c-.586-1.515-2.252-2.3-3.824-2.708-4.231-1.1-8.692-.5-12.614-.239" transform="translate(-217.995 -19.8)"/>
                  <path id="Trazado_697954" data-name="Trazado 697954" d="M342.138,87.018a16.261,16.261,0,0,1-.263,3.691,5.464,5.464,0,0,1-1.832,3.141,6.793,6.793,0,0,1-2.627,1.116,20.418,20.418,0,0,1-8.406.239,6.723,6.723,0,0,1-2.267-.748,5.376,5.376,0,0,1-2.091-2.576,15.635,15.635,0,0,1-.858-3.257,3.119,3.119,0,0,1,.36-2.75,3.03,3.03,0,0,1,2.082-.672,42.647,42.647,0,0,1,15.9,1.818" transform="translate(-254.468 -66.915)" fill="#fff"/>
                  <path id="Trazado_697955" data-name="Trazado 697955" d="M327.583,109.753c.786,2.173,1.249,5.091-.063,7.018.346,3.6-6.99,5.431-2.224,9.773.527.48,4.629,1.686,5.225,2.109a2.8,2.8,0,0,0,2.737.1c.863-.4,5.974-1.219,6.552-1.951,2.283-2.889-.578-5.728-.5-9.344-1.945-2.081-2.074-3.66-1.3-6.787-2.655,1.259-6.7-.034-10.431-.921" transform="translate(-254.49 -86.292)" fill="#b87e5a"/>
                  <path id="Trazado_697956" data-name="Trazado 697956" d="M312.288,75.939a2.849,2.849,0,0,0-3.137.91,2.412,2.412,0,0,0,.2,3,3.427,3.427,0,0,0,3.218.935,12.519,12.519,0,0,1-.277-4.844" transform="translate(-242.725 -59.585)" fill="#b87e5a"/>
                  <path id="Trazado_697957" data-name="Trazado 697957" d="M314.592,80.725a1.575,1.575,0,0,0-1.029,1.7" transform="translate(-246.516 -63.469)" fill="none" stroke="#000" stroke-linecap="round" stroke-linejoin="round" stroke-width="1"/>
                  <path id="Trazado_697958" data-name="Trazado 697958" d="M315.23,83.086a3.7,3.7,0,0,0,.22,1,1.412,1.412,0,0,0,.712.76" transform="translate(-247.845 -65.325)" fill="none" stroke="#000" stroke-linecap="round" stroke-linejoin="round" stroke-width="1"/>
                  <path id="Trazado_697959" data-name="Trazado 697959" d="M403.113,74.421a2.854,2.854,0,0,1,3.151.87,2.411,2.411,0,0,1-.149,3,3.419,3.419,0,0,1-3.2.976,12.512,12.512,0,0,0,.2-4.847" transform="translate(-316.784 -58.383)" fill="#b87e5a"/>
                  <path id="Trazado_697960" data-name="Trazado 697960" d="M412.495,78.582a1.58,1.58,0,0,1,1.055,1.686" transform="translate(-324.319 -61.784)" fill="none" stroke="#000" stroke-linecap="round" stroke-linejoin="round" stroke-width="1"/>
                  <path id="Trazado_697961" data-name="Trazado 697961" d="M412.438,80.9a3.687,3.687,0,0,1-.2,1,1.406,1.406,0,0,1-.7.769" transform="translate(-323.562 -63.607)" fill="none" stroke="#000" stroke-linecap="round" stroke-linejoin="round" stroke-width="1"/>
                  <path id="Trazado_697962" data-name="Trazado 697962" d="M329.44,24.078c-1.482.074-5.072.7-6.924,2.387a9.828,9.828,0,0,0-2.593,4.713,23.265,23.265,0,0,0,.593,9.574,10.487,10.487,0,0,0,5.7,6.339,9.471,9.471,0,0,0,8.839-.619c2.731-1.875,3.718-5.194,3.779-8.283s.685-4.695.134-7.729c-.557-3.062-2.566-6.728-9.522-6.382" transform="translate(-251.343 -18.913)" fill="#b87e5a"/>
                  <path id="Trazado_697963" data-name="Trazado 697963" d="M328.379,62.339c-.1.041-.155,0-.137-.1.125-.673.992-1.1,1.751-1.5a5.528,5.528,0,0,1,2.162-.358c.215.056.583.268.339.588a2.381,2.381,0,0,1-.589.253,12.486,12.486,0,0,0-3.526,1.122" transform="translate(-258.073 -47.452)" fill="#fff"/>
                  <path id="Trazado_697964" data-name="Trazado 697964" d="M378,60.813c.1.037.155-.012.132-.109-.155-.667-1.04-1.06-1.815-1.423a5.53,5.53,0,0,0-2.176-.263c-.213.065-.57.294-.313.6a2.384,2.384,0,0,0,.6.227,12.476,12.476,0,0,1,3.573.966" transform="translate(-293.844 -46.374)" fill="#fff"/>
                  <path id="Trazado_697965" data-name="Trazado 697965" d="M339.574,71.407a.559.559,0,1,1,.558.643.6.6,0,0,1-.558-.643" transform="translate(-266.986 -55.633)"/>
                  <path id="Trazado_697966" data-name="Trazado 697966" d="M379.569,72.049a.559.559,0,1,1,.558.642.6.6,0,0,1-.558-.642" transform="translate(-298.431 -56.137)"/>
                  <g id="Grupo_998429" data-name="Grupo 998429" transform="translate(80.937 17.027)" opacity="0.69">
                    <g id="Grupo_998428" data-name="Grupo 998428">
                      <g id="Grupo_998427" data-name="Grupo 998427" clip-path="url(#clip-path-5)">
                        <path id="Trazado_697967" data-name="Trazado 697967" d="M378.628,81.082c-.006-.782.892-1.422,2.006-1.429s2.022.621,2.028,1.4-.892,1.422-2.006,1.429-2.022-.621-2.028-1.4" transform="translate(-378.628 -79.653)" fill="#ab704b"/>
                      </g>
                    </g>
                  </g>
                  <g id="Grupo_998432" data-name="Grupo 998432" transform="translate(70.095 16.901)" opacity="0.69">
                    <g id="Grupo_998431" data-name="Grupo 998431">
                      <g id="Grupo_998430" data-name="Grupo 998430" clip-path="url(#clip-path-6)">
                        <path id="Trazado_697968" data-name="Trazado 697968" d="M327.911,80.492c-.006-.782.892-1.422,2.006-1.429s2.022.621,2.028,1.4-.892,1.422-2.006,1.429-2.022-.621-2.028-1.4" transform="translate(-327.911 -79.063)" fill="#ab704b"/>
                      </g>
                    </g>
                  </g>
                  <path id="Trazado_697969" data-name="Trazado 697969" d="M355.084,97.194a2.326,2.326,0,0,1-3.112,1.746,2.138,2.138,0,0,1-1.512-1.187" transform="translate(-275.545 -76.418)" fill="none" stroke="#000" stroke-linecap="round" stroke-linejoin="round" stroke-width="1"/>
                  <path id="Trazado_697970" data-name="Trazado 697970" d="M373.246,92.417a5.5,5.5,0,0,1,1.55,6.031" transform="translate(-293.46 -72.662)" fill="none" stroke="#000" stroke-linecap="round" stroke-linejoin="round" stroke-width="1"/>
                  <path id="Trazado_697971" data-name="Trazado 697971" d="M344.155,90.714a5.5,5.5,0,0,0-1.55,6.031" transform="translate(-269.087 -71.323)" fill="none" stroke="#000" stroke-linecap="round" stroke-linejoin="round" stroke-width="1"/>
                  <path id="Trazado_697972" data-name="Trazado 697972" d="M355.91,64.617a9.527,9.527,0,0,1,.1,2.342.46.46,0,0,1-.16.39.815.815,0,0,1-.463.041,1.145,1.145,0,0,0-1.107.808,1.378,1.378,0,0,0,.4,1.29,2.846,2.846,0,0,0,1.3.708" transform="translate(-278.518 -50.804)" fill="none" stroke="#000" stroke-linecap="round" stroke-linejoin="round" stroke-width="1"/>
                  <path id="Trazado_697973" data-name="Trazado 697973" d="M345.478,129.406a5.875,5.875,0,0,0,4.95.75" transform="translate(-271.628 -101.744)" fill="none" stroke="#000" stroke-linecap="round" stroke-linejoin="round" stroke-width="1"/>
                  <path id="Trazado_697974" data-name="Trazado 697974" d="M396.873,46.324a16.692,16.692,0,0,1-.614,8.337.533.533,0,0,1-.2.316.373.373,0,0,1-.475-.19,1.129,1.129,0,0,1-.08-.558,17.94,17.94,0,0,0-2.433-9.389,22.25,22.25,0,0,1,3.807,1.484" transform="translate(-309.043 -35.255)" fill="#fff"/>
                  <path id="Trazado_697975" data-name="Trazado 697975" d="M322.632,43.913A10.44,10.44,0,0,0,320,52.464a1.526,1.526,0,0,1,0,.723.478.478,0,0,1-.562.338c-.2-.073-.285-.307-.34-.513a18.889,18.889,0,0,1-.625-5.789,3.034,3.034,0,0,1,.376-1.543c.678-1.033,2.289-1.044,3.778-1.767" transform="translate(-250.383 -34.526)" fill="#fff"/>
                  <path id="Trazado_697976" data-name="Trazado 697976" d="M344.309,42.261a20.211,20.211,0,0,1-5.641-4.587,41.993,41.993,0,0,1-9.654,1.929.288.288,0,0,1-.259-.066c-.1-.132.074-.3.225-.371a18.934,18.934,0,0,1,10.744-1.917,5.689,5.689,0,0,1,2.532.877c1.193.855,1.719,2.342,2.052,4.135" transform="translate(-258.456 -29.164)" fill="#fff"/>
                  <path id="Trazado_697977" data-name="Trazado 697977" d="M344.07,5.934c.132-1.893-.2-3.6-1.684-4.572a10.833,10.833,0,0,0-5.16-1.293,8.515,8.515,0,0,0-4.58.546c-1.929,1.007-2.819,3.237-3.556,5.285a86.806,86.806,0,0,1,14.98.034" transform="translate(-258.743 0)"/>
                  <path id="Trazado_697978" data-name="Trazado 697978" d="M311.872,31.765a19.342,19.342,0,0,0-12.259-5.127,18.188,18.188,0,0,0-12.577,4.286,20.651,20.651,0,0,1-4.982-2.584,1.923,1.923,0,0,1-.922-1.145,1.837,1.837,0,0,1,.914-1.576,13.885,13.885,0,0,1,8.114-2.451c2.872-.089,5.739.289,8.612.267,4.541-.034,9.245-1.043,13.519.489,1.578.565,3.172,1.66,3.474,3.308a3.883,3.883,0,0,1-1.012,3.165,3.546,3.546,0,0,1-2.883,1.367" transform="translate(-221.027 -18.145)"/>
                  <path id="Trazado_697979" data-name="Trazado 697979" d="M215.165,153.53c-1.522.345-5.13,3.78-7.116,6.62-1.92,2.746-3.837,4.142-6.423,7.249a82.3,82.3,0,0,1-8.589-8.246c-.809-.93-2.368.571-3.453,2.717,1.286,2.817,3.091,4.7,5.455,8.486,1.3,2.086,6.676,6.15,8.625,4.976,1.9-1.141,4.586-2.4,5.572-3.934,3.594-5.593,7.415-11.1,7.3-15.808-.04-1.636-.04-2.363-1.372-2.061" transform="translate(-149.058 -120.658)" fill="#b87e5a"/>
                  <path id="Trazado_697980" data-name="Trazado 697980" d="M176.084,157.335c-.239-1.357-.234-2.8-.473-4.154-.111-.627-.5-1.617-.745-1.6-.284.026-.391.222-.435.533s-.119,1.818-.2,2.2c-.51-1.216-1.154-3.3-2.056-4.2a1.023,1.023,0,0,0-.419-.29.375.375,0,0,0-.44.177.7.7,0,0,0,.062.55l1.036,2.5a11.184,11.184,0,0,0-2.362-2.152c-.39-.181-.705.153-.547.586a9.644,9.644,0,0,0,1.425,2.41c-.887-.448-1.6-1.283-2.38-1.677a.511.511,0,0,0-.646.244.611.611,0,0,0,.063.677c.607.74,1.27,1.729,1.877,2.469a6.514,6.514,0,0,0-2.676-1.076c-.151-.029-.374.177-.434.334a1.055,1.055,0,0,0,.332.933c1.822,1.445,3.336,3,5.158,4.444a21.129,21.129,0,0,0,3.86-2.913" transform="translate(-131.071 -117.791)" fill="#b87e5a"/>
                  <path id="Trazado_697981" data-name="Trazado 697981" d="M245.917,218.657a12.483,12.483,0,0,1,1.252,3.887" transform="translate(-193.349 -171.916)" fill="none" stroke="#000" stroke-linecap="round" stroke-linejoin="round" stroke-width="1"/>
                  <path id="Trazado_697982" data-name="Trazado 697982" d="M418.249,156.068c1.5.45,5.269,4.7,7.055,7.668,1.726,2.872,3.449,6.044,5.813,9.322,2.792-2.185,5.305-5.349,8.247-8.162.872-.872,3.177.938,4.111,3.154-1.477,2.721-5.411,7.079-8.03,10.689-1.445,1.991-3.322,4.2-5.776,4.047a4.822,4.822,0,0,1-3.3-1.854,53.445,53.445,0,0,1-3.07-5.441c-3.2-5.828-7.026-11.761-6.586-16.45.153-1.629.228-3.368,1.536-2.975" transform="translate(-327.608 -122.662)" fill="#b87e5a"/>
                  <path id="Trazado_697983" data-name="Trazado 697983" d="M522.12,176.992c.5-1.248.8-2.606,1.3-3.854.232-.577.8-1.46,1.006-1.408.249.06.3.258.277.556s-.279,1.728-.286,2.1c.715-1.081,1.734-2.966,2.733-3.695a1.036,1.036,0,0,1,.437-.22.307.307,0,0,1,.356.222.732.732,0,0,1-.171.51l-1.458,2.222a11.723,11.723,0,0,1,2.573-1.73c.388-.121.6.233.366.621a10.494,10.494,0,0,1-1.788,2.091c.89-.31,1.706-1.007,2.488-1.279a.421.421,0,0,1,.528.311.637.637,0,0,1-.2.63c-.7.621-1.505,1.468-2.206,2.089a6.215,6.215,0,0,1,2.627-.676c.142-.009.3.214.318.37a1.136,1.136,0,0,1-.5.837c-1.939,1.131-3.626,2.4-5.566,3.536a17.1,17.1,0,0,1-2.843-3.231" transform="translate(-410.51 -134.026)" fill="#b87e5a"/>
                  <path id="Trazado_697984" data-name="Trazado 697984" d="M475.673,235.65a23.166,23.166,0,0,0-2.237,3.6" transform="translate(-372.233 -185.277)" fill="none" stroke="#000" stroke-linecap="round" stroke-linejoin="round" stroke-width="1"/>
                  <path id="Trazado_697985" data-name="Trazado 697985" d="M291.293,141.278c-4.273,4.734-11.159-.355-11.2-.444-5.438,1.077-7.013,2.258-7.348,2.449-2.069,1.179-2.126,2.146-2.683,7.8a142.113,142.113,0,0,1-6.771,31.962c.918.386,44.5,6.694,42.834-.929-1.538-7.044-5.911-27.331-5.96-28.249-.518-9.656-3.069-10.772-3.911-11.392,0,0-4.748-1.429-4.958-1.2" transform="translate(-207.006 -110.729)" fill="#5e332a"/>
                  <path id="Trazado_697986" data-name="Trazado 697986" d="M415.583,147.983c3.488.864,5.826,4.043,7.861,7,2.429,3.533,3.739,7.32,6.168,10.853a52.45,52.45,0,0,0-2.627,10.273c-.378,3.8-1.048,8.02-4.073,10.352a104.748,104.748,0,0,1-7.329-38.482" transform="translate(-326.743 -116.35)" fill="#5e332a"/>
                  <path id="Trazado_697987" data-name="Trazado 697987" d="M266.612,154.949a49.311,49.311,0,0,0-8.618,9.36,5.652,5.652,0,0,0-1.426,3.24,11.848,11.848,0,0,0,.9,3.113,23.319,23.319,0,0,1,.85,9.046c-.632,3.933.187,3.793,1.978,7.959,3.547-11.568,5.77-22.026,6.316-32.717" transform="translate(-201.724 -121.827)" fill="#5e332a"/>
                  <path id="Trazado_697988" data-name="Trazado 697988" d="M437.11,201.8c-.371,3.614,4.982,23.318,4.982,24.4" transform="translate(-343.658 -158.664)" fill="none" stroke="#000" stroke-linecap="round" stroke-linejoin="round" stroke-width="1"/>
                  <path id="Trazado_697989" data-name="Trazado 697989" d="M279.1,182.294s-3.41,20.373-5.416,25.906" transform="translate(-215.179 -143.326)" fill="none" stroke="#000" stroke-linecap="round" stroke-linejoin="round" stroke-width="1"/>
                  <path id="Trazado_697990" data-name="Trazado 697990" d="M115.771,315.221l1.188-2.077" transform="translate(-91.023 -246.205)" fill="none" stroke="#000" stroke-linecap="round" stroke-linejoin="round" stroke-width="1"/>
                  <path id="Trazado_697991" data-name="Trazado 697991" d="M306.641,256.96l4.691-24.345" transform="translate(-241.092 -182.89)" fill="none" stroke="#000" stroke-linecap="round" stroke-linejoin="round" stroke-width="1"/>
                  <path id="Trazado_697992" data-name="Trazado 697992" d="M408.259,267.64a119.855,119.855,0,0,1-1.895-24.041" transform="translate(-319.476 -191.527)" fill="none" stroke="#000" stroke-linecap="round" stroke-linejoin="round" stroke-width="1"/>
                  <path id="Trazado_697993" data-name="Trazado 697993" d="M90.45,114.132c0,.517,1.113,26.556,2.388,31.679-4.052.637-20.743,1.855-24.118,0,.731-6.708,2.579-24.4,2.118-31.852-2.11-2.269-11.782-11.13-14.279-14.7-1.926-3.1,1.832-7.563,5.214-4.523,6.286,7.063,10.182,10.107,11.981,9.427,1.334-.5,2.419-.209,3.112-1.582a4.543,4.543,0,0,0,.014-2.712,15.5,15.5,0,0,0,7.705.118,4.159,4.159,0,0,0-.022,2.214c.318,2.016,1.738,1.355,4.88,2.22" transform="translate(-44.056 -73.684)" fill="#deab8c"/>
                  <path id="Trazado_697994" data-name="Trazado 697994" d="M27.6,43.316a2.683,2.683,0,0,1-3.342-1.365l-8.8-17.8c1.471-1.214,2.6-1.346,4.067-2.56,2.837,4.941,4.9,8.165,8.1,12.88.727,1.072,3.465,5.085,3.138,6.056A4.457,4.457,0,0,1,27.6,43.316" transform="translate(-12.149 -16.973)" fill="#deab8c"/>
                  <path id="Trazado_697995" data-name="Trazado 697995" d="M19.464,10.916c-.189-.645-1.045-2.88-1.172-3.541s-.088-1.2-.753-1.3a3.446,3.446,0,0,0-1.657.19A2.131,2.131,0,0,0,14.644,7.69c-.048.41-.162,1.165-.21,1.575-.163,1.392-.468,2.692.172,3.065,1.543.9,4.582-.742,4.859-1.415" transform="translate(-11.177 -4.758)" fill="#deab8c"/>
                  <path id="Trazado_697996" data-name="Trazado 697996" d="M13.733,11.04a2.5,2.5,0,0,0-.338,2.3A7.91,7.91,0,0,1,13.86,15.7a4.911,4.911,0,0,1-1.185,2.487q-.931,1.244-1.922,2.442a7.568,7.568,0,0,0-.7-4.185c-.48-1.353-.886-2.882-.288-4.187a2.816,2.816,0,0,1,3.969-1.221" transform="translate(-7.442 -8.371)" fill="#ffd900"/>
                  <path id="Trazado_697997" data-name="Trazado 697997" d="M22.069,10.536c-.869-2.377-.236-3-.55-4A1.832,1.832,0,0,0,19.6,5.779a2.512,2.512,0,0,0-1.884,1.432.526.526,0,0,0,.62.755c.155-.056.373-.1.533-.135.329-.08,1.034-.354,1.115-.19a6.594,6.594,0,0,1,.208,1.126c.041.654.082.547.124,1.2a5.39,5.39,0,0,1,1.758.568" transform="translate(-13.873 -4.527)" fill="#deab8c"/>
                  <path id="Trazado_697998" data-name="Trazado 697998" d="M20,6.009c-1.875-.154-2.451.518-2.882,1.444-.085.182-.185.645-.051.795a.523.523,0,0,0,.667.121c.67-.265,1.411-.484,1.836-.682" transform="translate(-13.364 -4.707)" fill="none" stroke="#000" stroke-linecap="round" stroke-linejoin="round" stroke-width="1"/>
                  <path id="Trazado_697999" data-name="Trazado 697999" d="M.148,10.733a.759.759,0,0,1,.29-1.127A14.379,14.379,0,0,1,3.6,8.26a.75.75,0,0,1,.84.131.482.482,0,0,1-.016.585c-.1.161-.05.244-.213.359a11.908,11.908,0,0,1-1.776,1.04,4.985,4.985,0,0,1-1.554.617.774.774,0,0,1-.732-.26" transform="translate(0 -6.443)" fill="#deab8c"/>
                  <path id="Trazado_698000" data-name="Trazado 698000" d="M3.615,16.265a7.855,7.855,0,0,1,2.671-1.023c1.15-.162,1.14.552,1.04.614A17.054,17.054,0,0,1,5.06,17.112a2.432,2.432,0,0,1-.887.234.821.821,0,0,1-.754-.355.626.626,0,0,1,.2-.726" transform="translate(-2.652 -11.965)" fill="#deab8c"/>
                  <path id="Trazado_698001" data-name="Trazado 698001" d="M7.573,19.647a.706.706,0,0,0-.215.944.731.731,0,0,0,.633.213,2.221,2.221,0,0,0,.667-.213,5.889,5.889,0,0,0,1.885-.951c.884-1.245-.06-1.373-.572-1.12a10.507,10.507,0,0,0-2.4,1.127" transform="translate(-5.7 -14.477)" fill="#deab8c"/>
                  <path id="Trazado_698002" data-name="Trazado 698002" d="M10.227,24.617,12.491,23.6a1.142,1.142,0,0,1,.882-.133.68.68,0,0,1,.33.809c-.1.347-1.7,1.107-2.265,1.313-.422.155-1.048.569-1.354.008a1.048,1.048,0,0,1,.142-.979" transform="translate(-7.873 -18.413)" fill="#deab8c"/>
                  <path id="Trazado_698003" data-name="Trazado 698003" d="M7.99,8.387c.177-.05.426.175.478.352a.588.588,0,0,1-.128.514,1.616,1.616,0,0,1-.425.345A14.8,14.8,0,0,1,4.96,11.022" transform="translate(-3.9 -6.589)" fill="none" stroke="#000" stroke-linecap="round" stroke-linejoin="round" stroke-width="1"/>
                  <path id="Trazado_698004" data-name="Trazado 698004" d="M10.088,15.349a1.456,1.456,0,0,1,.673-.09.5.5,0,0,1,.432.458c-.01.262-.282.424-.519.534Q9.5,16.8,8.287,17.277" transform="translate(-6.516 -11.986)" fill="none" stroke="#000" stroke-linecap="round" stroke-linejoin="round" stroke-width="1"/>
                  <path id="Trazado_698005" data-name="Trazado 698005" d="M13.3,18.426c.22-.049.82.141.723.606a1.037,1.037,0,0,1-.566.709c-.2.1-.552.23-.759.32l-1.633.7" transform="translate(-8.702 -14.481)" fill="none" stroke="#000" stroke-linecap="round" stroke-linejoin="round" stroke-width="1"/>
                  <path id="Trazado_698006" data-name="Trazado 698006" d="M20.175,23.924c.14-.151.227-.335.551-.253.171.043.548.4.45.644-.229.56-1.506,1.112-1.867,1.239" transform="translate(-15.181 -18.595)" fill="none" stroke="#000" stroke-linecap="round" stroke-linejoin="round" stroke-width="1"/>
                  <path id="Trazado_698007" data-name="Trazado 698007" d="M46.089,55.238c-7.837-5.517-13-13.091-17.883-21.391l-3.133,3.121c-.275.274-1.208.987-1.208.987a9.3,9.3,0,0,1,.7,1.379,56.757,56.757,0,0,0,20.665,27.4Q44.187,72.9,43.721,79.148c-.089,1.194-.1,2.851.841,3.592a5.337,5.337,0,0,0,2.025.733,158.841,158.841,0,0,0,21,1.949c-.233-5.323-.465-10.646-.663-15.715q-.409-5.08-1.244-10.114a3.413,3.413,0,0,0-.805-2,3.3,3.3,0,0,0-2.321-.83A5.939,5.939,0,0,1,59.924,56l-3.762,5.47S51.382,56,51.375,55.838c-1.07.315-1.315.272-2.478.54-.694.16-2.116-.654-2.808-1.141" transform="translate(-18.764 -26.612)" fill="#fff"/>
                  <path id="Trazado_698008" data-name="Trazado 698008" d="M125.714,165.4q-.481,2.321-1.11,4.608" transform="translate(-97.968 -130.043)" fill="none" stroke="#000" stroke-linecap="round" stroke-linejoin="round" stroke-width="1"/>
                  <path id="Trazado_698009" data-name="Trazado 698009" d="M33.709,45.8a47.23,47.23,0,0,0-4.6,3.725" transform="translate(-22.885 -36.008)" fill="none" stroke="#000" stroke-linecap="round" stroke-linejoin="round" stroke-width="1"/>
                  <path id="Trazado_698010" data-name="Trazado 698010" d="M221.88,179.786c.277,1.646.453,3.018.73,4.664" transform="translate(-174.45 -141.354)" fill="none" stroke="#000" stroke-linecap="round" stroke-linejoin="round" stroke-width="1"/>
                  <path id="Trazado_698011" data-name="Trazado 698011" d="M168.4,152.884q.342,1.326.685,2.652l-1.857-1.981a3.014,3.014,0,0,1,1.172-.672" transform="translate(-131.48 -120.203)" fill="#fff"/>
                  <path id="Trazado_698012" data-name="Trazado 698012" d="M180.195,136.585c.976.35,1.524.433,2.5.783l-4.25,5.321-1.45-2.374c1.061-1.09,2.056-2.3,3.2-3.73" transform="translate(-139.159 -107.388)" fill="#fff"/>
                  <path id="Trazado_698013" data-name="Trazado 698013" d="M176.193,154.969a16.148,16.148,0,0,1-1.523.723l.531-2.171a9.789,9.789,0,0,0,.992,1.448" transform="translate(-137.332 -120.704)" fill="#fff"/>
                  <path id="Trazado_698014" data-name="Trazado 698014" d="M143.6,139.751c1.12,1.3,2.721,2.591,3.841,3.886l2.163-1.094" transform="translate(-112.904 -109.877)" fill="none" stroke="#000" stroke-linecap="round" stroke-linejoin="round" stroke-width="1"/>
                  <path id="Trazado_698015" data-name="Trazado 698015" d="M166.367,155.379l1.435,1.793" transform="translate(-130.804 -122.165)" fill="none" stroke="#000" stroke-linecap="round" stroke-linejoin="round" stroke-width="1"/>
                  <path id="Trazado_698016" data-name="Trazado 698016" d="M171.931,161.047a54.862,54.862,0,0,0-.747,10.383c-.021,2.469.106,13.139.106,13.139" transform="translate(-134.589 -126.621)" fill="none" stroke="#000" stroke-linecap="round" stroke-linejoin="round" stroke-width="1"/>
                  <path id="Trazado_698017" data-name="Trazado 698017" d="M177.361,143.807c.44.471,1.284,1.285,1.673,1.8l3.89-4.614" transform="translate(-139.448 -110.853)" fill="none" stroke="#000" stroke-linecap="round" stroke-linejoin="round" stroke-width="1"/>
                  <path id="Trazado_698018" data-name="Trazado 698018" d="M177.02,158.826c-2.019,7.785-.9,15.959-.9,24" transform="translate(-138.227 -124.875)" fill="none" stroke="#000" stroke-linecap="round" stroke-linejoin="round" stroke-width="1"/>
                  <path id="Trazado_698019" data-name="Trazado 698019" d="M148.985,137.972l-4.256-4.057s-2.063,1.186-2.185,1.3l4.862,5.15c.5-.71.991-1.42,1.578-2.4" transform="translate(-112.073 -105.289)" fill="#fff"/>
                  <path id="Trazado_698020" data-name="Trazado 698020" d="M125.787,264.863a38.021,38.021,0,0,1-10.206-1.932c-1.262,14.641-1.48,13.851-1.48,17.687,9.253,2.158,15.615,1.695,24.432-.154,0-6.638-.041-15.377-.041-15.377a42.242,42.242,0,0,1-10.345-.034,17.784,17.784,0,0,0-2.36-.19" transform="translate(-89.71 -206.726)" fill="#fff"/>
                  <path id="Trazado_698021" data-name="Trazado 698021" d="M167.768,278.156c.037,1.673.052,7.1-.009,7.772-.049.537.758.617,1.09.546" transform="translate(-131.897 -218.697)" fill="none" stroke="#000" stroke-linecap="round" stroke-linejoin="round" stroke-width="1"/>
                  <path id="Trazado_698022" data-name="Trazado 698022" d="M173.344,279.656c.061,4.188-.322,9.545-.261,13.733" transform="translate(-136.079 -219.876)" fill="none" stroke="#000" stroke-linecap="round" stroke-linejoin="round" stroke-width="1"/>
                  <path id="Trazado_698023" data-name="Trazado 698023" d="M228.33,279.656c.061,4.188-.061,9.77,0,13.958" transform="translate(-179.508 -219.876)" fill="none" stroke="#000" stroke-linecap="round" stroke-linejoin="round" stroke-width="1"/>
                  <path id="Trazado_698024" data-name="Trazado 698024" d="M115.586,270.125c-.471,4.766-1.344,10.388-1.485,14.574" transform="translate(-89.71 -212.382)" fill="none" stroke="#000" stroke-linecap="round" stroke-linejoin="round" stroke-width="1"/>
                  <path id="Trazado_698025" data-name="Trazado 698025" d="M119.26,264.245c6,1.911,12.389,2.11,18.682,2.294l3.712.109a1.162,1.162,0,0,0,.752-.151c.315-.242.248-1.711-.148-1.69-1.132.058-15.447.232-22.2-1.876-.3-.094-.745-.53-.94-.28-.359.461-.285,1.459.139,1.594" transform="translate(-93.477 -206.446)"/>
                  <path id="Trazado_698026" data-name="Trazado 698026" d="M131.311,265.989l-.3,1.823a.1.1,0,0,1-.165.086l-.737-.307a4.741,4.741,0,0,0,.346-1.771c.213.037.426.074.857.168" transform="translate(-102.296 -208.998)" fill="#fff"/>
                  <path id="Trazado_698027" data-name="Trazado 698027" d="M211.345,272c.066.682.132,1.523.2,2.205a.155.155,0,0,0,.04.109c.034.027.081.012.12,0l.753-.3a5.831,5.831,0,0,1-.246-1.991,4.2,4.2,0,0,0-.865-.014" transform="translate(-166.167 -213.835)" fill="#fff"/>
                  <path id="Trazado_698028" data-name="Trazado 698028" d="M173.617,138.858c1.442.418,4.045-1.655,5.367-3.187a3.478,3.478,0,0,0,.715-1.3c.035-.5-.488-.841-.939-1.064a1.662,1.662,0,0,0-1.549-.2,1.638,1.638,0,0,0-.561.795c-.718,1.643-2.467,2.721-3.032,4.948" transform="translate(-136.504 -104.558)" fill="#b30e19"/>
                  <path id="Trazado_698029" data-name="Trazado 698029" d="M150.931,137.91a10.337,10.337,0,0,0-3.708-4.43,3.172,3.172,0,0,0-1.818-.823,1.279,1.279,0,0,0-1.354,1.2c.039.566.557.963,1.027,1.281,1.949,1.32,3.2,2.052,5.153,3.373a1.234,1.234,0,0,0,.54.056c.117-.013.336-.242.16-.653" transform="translate(-113.256 -104.3)" fill="#b30e19"/>
                  <path id="Trazado_698030" data-name="Trazado 698030" d="M172.047,157.11a5.988,5.988,0,0,1,.362,8.586c-.245-1.449-.777-2.836-1.054-4.28a5.3,5.3,0,0,1,.692-4.306" transform="translate(-134.601 -123.526)" fill="#b30e19"/>
                  <path id="Trazado_698031" data-name="Trazado 698031" d="M161.308,154.992a5.988,5.988,0,0,0-3.393,7.9c.745-1.267,1.735-2.374,2.508-3.625a5.3,5.3,0,0,0,.885-4.271" transform="translate(-123.802 -121.86)" fill="#b30e19"/>
                  <path id="Trazado_698032" data-name="Trazado 698032" d="M106.189,25.582c-5.009-.192-10.086-.378-14.975.73a5.271,5.271,0,0,0-3.486,1.944,3.621,3.621,0,0,0-.281,2.941,7.193,7.193,0,0,0,1.564,2.587c3.561,4.056,9.13,5.8,14.512,6.211a25.473,25.473,0,0,0,10.186-1.064,15.338,15.338,0,0,0,8.075-6.092,4.986,4.986,0,0,0,.844-4.31c-.586-1.515-2.252-2.3-3.824-2.708-4.231-1.1-8.693-.5-12.614-.239" transform="translate(-68.61 -19.8)" fill="#b87e5a"/>
                  <path id="Trazado_698033" data-name="Trazado 698033" d="M212.629,73.171a2.871,2.871,0,0,1,3.093.866,2.233,2.233,0,0,1-.193,2.854,3.459,3.459,0,0,1-3.172.89,11.51,11.51,0,0,0,.273-4.609" transform="translate(-166.962 -57.414)" fill="#deab8c"/>
                  <path id="Trazado_698034" data-name="Trazado 698034" d="M221.626,77.337a1.494,1.494,0,0,1,1.015,1.617" transform="translate(-174.251 -60.805)" fill="none" stroke="#000" stroke-linecap="round" stroke-linejoin="round" stroke-width="1"/>
                  <path id="Trazado_698035" data-name="Trazado 698035" d="M221.435,79.584a3.4,3.4,0,0,1-.217.948,1.363,1.363,0,0,1-.7.724" transform="translate(-173.378 -62.572)" fill="none" stroke="#000" stroke-linecap="round" stroke-linejoin="round" stroke-width="1"/>
                  <path id="Trazado_698036" data-name="Trazado 698036" d="M123.223,71.726a2.879,2.879,0,0,0-3.107.828,2.232,2.232,0,0,0,.147,2.856,3.449,3.449,0,0,0,3.158.929,11.5,11.5,0,0,1-.2-4.613" transform="translate(-94.087 -56.27)" fill="#deab8c"/>
                  <path id="Trazado_698037" data-name="Trazado 698037" d="M125.013,75.3a1.5,1.5,0,0,0-1.041,1.6" transform="translate(-97.456 -59.202)" fill="none" stroke="#000" stroke-linecap="round" stroke-linejoin="round" stroke-width="1"/>
                  <path id="Trazado_698038" data-name="Trazado 698038" d="M125.689,77.5a3.4,3.4,0,0,0,.2.95,1.355,1.355,0,0,0,.69.732" transform="translate(-98.821 -60.937)" fill="none" stroke="#000" stroke-linecap="round" stroke-linejoin="round" stroke-width="1"/>
                  <path id="Trazado_698039" data-name="Trazado 698039" d="M138.915,23.821c1.461.07,5,.668,6.827,2.271a9.266,9.266,0,0,1,2.557,4.484,21.39,21.39,0,0,1-.584,9.11,10.562,10.562,0,0,1-5.684,6.233,9.518,9.518,0,0,1-8.647-.79c-2.692-1.784-3.666-4.942-3.726-7.881s-.676-4.467-.132-7.355c.549-2.913,2.529-6.4,9.389-6.073" transform="translate(-101.663 -18.712)" fill="#deab8c"/>
                  <path id="Trazado_698040" data-name="Trazado 698040" d="M146.054,61.379c-.089.049-.186-.048-.118-.118a3.938,3.938,0,0,1,2.037-1.1,5.107,5.107,0,0,1,2.053-.051c.2.086.516.138.232.4a1.644,1.644,0,0,1-.611.154c-1.328-.519-2.624.182-3.592.71" transform="translate(-114.722 -47.197)"/>
                  <path id="Trazado_698041" data-name="Trazado 698041" d="M196.014,60.395c.092.044.182-.057.111-.124a4.011,4.011,0,0,0-2.1-1,5.11,5.11,0,0,0-2.054.047c-.2.095-.506.162-.205.411a1.663,1.663,0,0,0,.62.125c1.293-.581,2.631.057,3.632.538" transform="translate(-150.672 -46.54)"/>
                  <path id="Trazado_698042" data-name="Trazado 698042" d="M196.8,68.472a.549.549,0,1,0-.55.611.581.581,0,0,0,.55-.611" transform="translate(-153.877 -53.349)"/>
                  <path id="Trazado_698043" data-name="Trazado 698043" d="M157.369,69.082a.549.549,0,1,0-.55.611.581.581,0,0,0,.55-.611" transform="translate(-122.872 -53.829)"/>
                  <g id="Grupo_998435" data-name="Grupo 998435" transform="translate(30.717 16.314)" opacity="0.69">
                    <g id="Grupo_998434" data-name="Grupo 998434">
                      <g id="Grupo_998433" data-name="Grupo 998433" clip-path="url(#clip-path-7)">
                        <path id="Trazado_698044" data-name="Trazado 698044" d="M147.674,77.678c.006-.744-.88-1.353-1.978-1.36s-1.994.591-2,1.335.88,1.353,1.978,1.36,1.994-.591,2-1.335" transform="translate(-143.696 -76.318)" fill="#cf8d76"/>
                      </g>
                    </g>
                  </g>
                  <g id="Grupo_998438" data-name="Grupo 998438" transform="translate(41.407 16.194)" opacity="0.69">
                    <g id="Grupo_998437" data-name="Grupo 998437">
                      <g id="Grupo_998436" data-name="Grupo 998436" clip-path="url(#clip-path-7)">
                        <path id="Trazado_698045" data-name="Trazado 698045" d="M197.68,77.116c.006-.744-.88-1.353-1.978-1.36s-1.994.591-2,1.335.88,1.353,1.978,1.36,1.994-.591,2-1.335" transform="translate(-193.702 -75.756)" fill="#cf8d76"/>
                      </g>
                    </g>
                  </g>
                  <path id="Trazado_698046" data-name="Trazado 698046" d="M165.908,94.042a2.023,2.023,0,0,0,.941,1.577,2.919,2.919,0,0,0,2.168.278,2.169,2.169,0,0,0,1.511-1.263" transform="translate(-130.443 -73.939)" fill="none" stroke="#000" stroke-linecap="round" stroke-linejoin="round" stroke-width="1"/>
                  <path id="Trazado_698047" data-name="Trazado 698047" d="M178.183,62.01a8.737,8.737,0,0,0-.1,2.228.431.431,0,0,0,.158.371.834.834,0,0,0,.457.039,1.125,1.125,0,0,1,1.091.769,1.281,1.281,0,0,1-.39,1.228,2.839,2.839,0,0,1-1.284.674" transform="translate(-139.993 -48.755)" fill="none" stroke="#000" stroke-linecap="round" stroke-linejoin="round" stroke-width="1"/>
                  <path id="Trazado_698048" data-name="Trazado 698048" d="M160.885,92.444a7.378,7.378,0,0,1-.195,1.793,2.479,2.479,0,0,1-1,1.46,1.512,1.512,0,0,1-1.7-.018c-.46-.362-.322-1.136-.926-1.1a.88.88,0,0,0-.753.65,1.877,1.877,0,0,1-.964,1.066,1.552,1.552,0,0,1-1.2-.114,2.484,2.484,0,0,1-.981-1.5c-.152-1.229-.025-1.869-.195-2.6a.227.227,0,0,0-.436-.015,16.717,16.717,0,0,0-.665,4.613,3.712,3.712,0,0,0,.638,2.234c.526.769.714.787,1.638.924a16.789,16.789,0,0,0,5.908-.491,1.863,1.863,0,0,0,.848-.442,3.219,3.219,0,0,0,.912-2.09,17.424,17.424,0,0,0-.13-4.341,1.146,1.146,0,0,0-.157-.49.408.408,0,0,0-.449-.178c-.162.059-.189.311-.2.636" transform="translate(-119.407 -72.168)"/>
                  <path id="Trazado_698049" data-name="Trazado 698049" d="M177.288,86.423a2.977,2.977,0,0,1,2.75.377,2.876,2.876,0,0,1,.837,2.617c-.5-.5-.843-1.382-1.495-1.687a1.649,1.649,0,0,0-.842-.1,2.871,2.871,0,0,1-1.674-.093c-.444-.137-.865-.4-.768-.649s.969-.426,1.19-.461" transform="translate(-138.443 -67.828)"/>
                  <path id="Trazado_698050" data-name="Trazado 698050" d="M158.257,86.941a3.389,3.389,0,0,0-2.883.377c-1.438,1.057-.558,1.808-.14,2.665.147-.948.146-1.429.829-1.734a1.808,1.808,0,0,1,.882-.105,2.783,2.783,0,0,0,1.755-.093c.243-.157.6-.5.493-.752s-.7-.324-.936-.358" transform="translate(-121.539 -68.243)"/>
                  <path id="Trazado_698051" data-name="Trazado 698051" d="M211.61,48.109a12.228,12.228,0,0,1-.062,4.745c-.059.205-.184.448-.4.438-.237-.011-.324-.312-.352-.548a17.644,17.644,0,0,0-1.44-5.2c-.075-.166-.113-.426.063-.473a.316.316,0,0,1,.206.041,13.293,13.293,0,0,1,1.982,1" transform="translate(-164.556 -37.006)"/>
                  <path id="Trazado_698052" data-name="Trazado 698052" d="M128.893,46.7a8.943,8.943,0,0,0-1.432,5.513c.013.177.015.39-.133.489-.223.15-.489-.121-.609-.362a6.716,6.716,0,0,1-.7-2.963,2.775,2.775,0,0,1,.25-1.295,3.392,3.392,0,0,1,2.626-1.382" transform="translate(-99.079 -36.715)"/>
                  <path id="Trazado_698053" data-name="Trazado 698053" d="M153.057,41.807a4.181,4.181,0,0,1-3.781-.387,13.292,13.292,0,0,0-3.573-1.654,9.36,9.36,0,0,0-4.654.857c-1.506.529-3.18.983-4.668.407a28.705,28.705,0,0,1,8.21-1.684c2.8-.081,6.653.194,8.467,2.461" transform="translate(-107.227 -30.926)"/>
                  <path id="Trazado_698054" data-name="Trazado 698054" d="M154.071,5.934c.132-1.893-.2-3.6-1.684-4.572a10.833,10.833,0,0,0-5.16-1.293,8.515,8.515,0,0,0-4.58.546c-1.929,1.007-2.819,3.237-3.556,5.285a86.806,86.806,0,0,1,14.981.034" transform="translate(-109.358 0)" fill="#b87e5a"/>
                  <path id="Trazado_698055" data-name="Trazado 698055" d="M121.872,31.765a19.342,19.342,0,0,0-12.259-5.127,18.188,18.188,0,0,0-12.577,4.286,20.647,20.647,0,0,1-4.982-2.584,1.923,1.923,0,0,1-.922-1.145,1.837,1.837,0,0,1,.914-1.576,13.885,13.885,0,0,1,8.114-2.451c2.871-.089,5.739.289,8.612.267,4.541-.034,9.245-1.043,13.519.489,1.578.565,3.172,1.66,3.475,3.308a3.883,3.883,0,0,1-1.012,3.165,3.545,3.545,0,0,1-2.883,1.367" transform="translate(-71.641 -18.145)" fill="#b87e5a"/>
                  <path id="Trazado_698056" data-name="Trazado 698056" d="M140.624,23.132c2.118-.334,4.423.344,6.549.615,2.7.344,4.724-.36,8.126-.7" transform="translate(-110.564 -18.116)" fill="none" stroke="#000" stroke-linecap="round" stroke-linejoin="round" stroke-width="1"/>
                  <path id="Trazado_698057" data-name="Trazado 698057" d="M119.662,43.81c2.868-2.868,9.479-4.465,13.053-4.091a22.087,22.087,0,0,1,9.689,3.367" transform="translate(-94.083 -31.186)" fill="none" stroke="#000" stroke-linecap="round" stroke-linejoin="round" stroke-width="1"/>
                  <path id="Trazado_698058" data-name="Trazado 698058" d="M519.565,129.313c-2.922-2.126-4.923-2.324-5.616-3.7a8.292,8.292,0,0,1-.054-3.682c-3.041.8-5.585,1.321-7.826.821a8.409,8.409,0,0,1,.663,2.588c-.034,1.005-.158,1.478-.668,1.925a3.27,3.27,0,0,1-1.734.617c-4.942.957-5.219,16.908-6.456,29.952,4.051.637,7.818,1.559,11.655,1.912s7.872.093,11.246-1.765c-.069-6.57-.218-14-.218-19.338.042-5.344.466-8.27-.993-9.332" transform="translate(-391.448 -95.868)" fill="#deab8c"/>
                  <path id="Trazado_698059" data-name="Trazado 698059" d="M602.028,132.928l4.924,24.713a2.46,2.46,0,0,1-.139,1.9,2.359,2.359,0,0,1-1.446.759,31.8,31.8,0,0,1-5.519.824c-.555.034-1.216,0-1.52-.464a1.64,1.64,0,0,1-.19-.823l-.545-10.368a44.08,44.08,0,0,1,.1-8.475,11.985,11.985,0,0,1,4.336-8.071" transform="translate(-469.728 -104.513)" fill="#ebebeb"/>
                </g>
              </g>
              <g id="Grupo_998442" data-name="Grupo 998442" transform="translate(127.71 28.415)">
                <g id="Grupo_998441" data-name="Grupo 998441" clip-path="url(#clip-path-9)">
                  <path id="Trazado_698060" data-name="Trazado 698060" d="M623.289,175.93a112.933,112.933,0,0,1,2.681,18.558" transform="translate(-617.763 -166.738)" fill="none" stroke="#000" stroke-miterlimit="10" stroke-width="0.5"/>
                  <path id="Trazado_698061" data-name="Trazado 698061" d="M619.028,183.249a125.973,125.973,0,0,1,2.173,17.406" transform="translate(-614.413 -172.492)" fill="none" stroke="#8c0811" stroke-miterlimit="10" stroke-width="1"/>
                  <path id="Trazado_698062" data-name="Trazado 698062" d="M612.587,184.7a171.371,171.371,0,0,1,2.191,18.251" transform="translate(-609.349 -173.631)" fill="none" stroke="#000" stroke-miterlimit="10" stroke-width="0.5"/>
                  <path id="Trazado_698063" data-name="Trazado 698063" d="M611.145,187.4a50.566,50.566,0,0,1-6.344,2.993" transform="translate(-603.227 -175.756)" fill="none" stroke="#8c0811" stroke-miterlimit="10" stroke-width="1"/>
                  <path id="Trazado_698064" data-name="Trazado 698064" d="M615.129,196.82l-5.954,2.6" transform="translate(-606.666 -183.162)" fill="none" stroke="#000" stroke-miterlimit="10" stroke-width="0.5"/>
                  <path id="Trazado_698065" data-name="Trazado 698065" d="M615.59,209.273l-6.453,2.609" transform="translate(-606.636 -192.953)" fill="none" stroke="#8c0811" stroke-miterlimit="10" stroke-width="1"/>
                  <path id="Trazado_698066" data-name="Trazado 698066" d="M616.05,220.553l-6.774,2.127" transform="translate(-606.746 -201.822)" fill="none" stroke="#000" stroke-miterlimit="10" stroke-width="0.5"/>
                  <path id="Trazado_698067" data-name="Trazado 698067" d="M617.064,232.221l-7.188,2.293" transform="translate(-607.217 -210.996)" fill="none" stroke="#8c0811" stroke-miterlimit="10" stroke-width="1"/>
                  <line id="Línea_2318" data-name="Línea 2318" x1="6.245" y2="2.314" transform="translate(3.842 23.723)" fill="none" stroke="#000" stroke-miterlimit="10" stroke-width="0.5"/>
                </g>
              </g>
              <g id="Grupo_998444" data-name="Grupo 998444">
                <g id="Grupo_998443" data-name="Grupo 998443" clip-path="url(#clip-path-2)">
                  <path id="Trazado_698069" data-name="Trazado 698069" d="M487.21,276.531a54.982,54.982,0,0,0,22.351-.039c.377,4.937.754,9.874.839,14.682-3,.265-8.735.366-11.744.4-.577-2.7-.537-5.7-.71-6.088-1,2.635-.768,3.382-1.649,6.2l-12.94-.591Z" transform="translate(-380.032 -217.388)"/>
                  <path id="Trazado_698070" data-name="Trazado 698070" d="M518.648,146.382c3.321,9.352,2.407,31.8,1.5,32.156-1.973.215-5.373.438-8.015.5a48.594,48.594,0,0,1-15.992-2.222c-1.412-1.412,1.425-17.49,2.273-28.8,2.16-.622,3.945-1.253,6.1-1.875a4.762,4.762,0,0,0,9.323.444,9.837,9.837,0,0,0,4.812-.207" transform="translate(-389.776 -114.905)" fill="#8dbce3"/>
                  <path id="Trazado_698071" data-name="Trazado 698071" d="M636.733,54.311c.8.442,3.013-4.115,4.58-8.733.822-2.423,1.606-5.476,2.242-7.954l-2.929-1.944c-.563-.373-1.9-1.072-1.85-.777.661,3.677-1.379,7.249-2.562,10.073a41.925,41.925,0,0,1-3.932,6.777c-.292.384.7.5,4.451,2.559" transform="translate(-497.086 -27.386)" fill="#deab8c"/>
                  <path id="Trazado_698072" data-name="Trazado 698072" d="M669.615,21.131l1.53-2.52a4.279,4.279,0,0,0,.878-2.591,2.817,2.817,0,0,0-1.463-2.013,7.3,7.3,0,0,0-2.453-.758,2.485,2.485,0,0,0-1.418.043,1.654,1.654,0,0,0-.825.923,3.823,3.823,0,0,0-.219,1.245,11.488,11.488,0,0,0,.227,2.844,2.964,2.964,0,0,0,.628,1.451,3.4,3.4,0,0,0,1.274.744,12.729,12.729,0,0,0,1.841.631" transform="translate(-523.345 -10.353)" fill="#deab8c"/>
                  <path id="Trazado_698073" data-name="Trazado 698073" d="M668.358,20.821c1.958-.17,3.713,1.19,5.02,2.658s2.458,3.17,4.195,4.091a5.647,5.647,0,0,1-4.779.5,11.009,11.009,0,0,1-4.152-2.653,5.325,5.325,0,0,1-1.5-2.045c-.276-.808-.333-2.42,1.212-2.554" transform="translate(-524.415 -16.359)" fill="#ffd900"/>
                  <path id="Trazado_698074" data-name="Trazado 698074" d="M672.542,11.517a6.54,6.54,0,0,0,.5-1.739,1.127,1.127,0,0,0-.067-.746.978.978,0,0,0-1.022-.335,2.8,2.8,0,0,0-.117-.624.948.948,0,0,0-.372-.5.574.574,0,0,0-.62,0c-.156-1.314-1.942-.788-1.942-.788s-1.786-1.821-2.282.595a5.663,5.663,0,0,0-.2,2.153c.6.919,1.3.692,1.641.444.052-.039-.109.877.314,1,.472.139,1.079-.558,1.068-.53-.336.839.1,1.1.265,1.1.589,0,1.217-1.317,1.164-1.147-.022.07-.237,1.221.4,1.4.28.079.909-.691.923-.664.04.077.02.06.345.385" transform="translate(-523.962 -4.814)" fill="#deab8c"/>
                  <path id="Trazado_698075" data-name="Trazado 698075" d="M681.651,15.21c-.275.369-.516,1.043-.9,1.293-.125.081-.462.34-.719.083a.5.5,0,0,1-.115-.462c.25-1.261,1.227-2.247,1.7-3.44" transform="translate(-534.563 -9.972)" fill="none" stroke="#000" stroke-linecap="round" stroke-linejoin="round" stroke-width="1"/>
                  <path id="Trazado_698076" data-name="Trazado 698076" d="M677.375,9.184l-.178.581" transform="translate(-532.437 -7.221)" fill="none" stroke="#000" stroke-linecap="round" stroke-linejoin="round" stroke-width="1"/>
                  <path id="Trazado_698077" data-name="Trazado 698077" d="M674.521,20.376a2.575,2.575,0,0,0-.188,1.065c-.055.554.293.85.567.749a2.443,2.443,0,0,0,.837-.9" transform="translate(-530.181 -16.02)" fill="none" stroke="#000" stroke-linecap="round" stroke-linejoin="round" stroke-width="1"/>
                  <path id="Trazado_698078" data-name="Trazado 698078" d="M671.8,23.324c-.046.212-.451.546-.731.374" transform="translate(-527.621 -18.338)" fill="none" stroke="#000" stroke-linecap="round" stroke-linejoin="round" stroke-width="1"/>
                  <path id="Trazado_698079" data-name="Trazado 698079" d="M688.578,20.175a4.23,4.23,0,0,1-.737,1.081.833.833,0,0,1-.618.316c-.23,0-.577-.373-.379-1.106a5.54,5.54,0,0,1,1.023-2" transform="translate(-539.976 -14.522)" fill="none" stroke="#000" stroke-linecap="round" stroke-linejoin="round" stroke-width="1"/>
                  <path id="Trazado_698080" data-name="Trazado 698080" d="M664.007,11.652c-.307-.609-1.749.312-2.549.99-.4.337-1.8,1.241-1.2,2.858a13.876,13.876,0,0,0,.984,2.057c.126.221.289.461.54.5-.715-5.323,4-5.078,2.227-6.407" transform="translate(-519.002 -9.005)" fill="#deab8c"/>
                  <path id="Trazado_698081" data-name="Trazado 698081" d="M666.679,12.692c.4-.3,1.08-1.091,1.692-1.053a1.73,1.73,0,0,1,1.173.4c.556.68-.933,1.347-1.05,1.414a5.772,5.772,0,0,0-1.629,2.8" transform="translate(-524.168 -9.149)" fill="none" stroke="#000" stroke-linecap="round" stroke-linejoin="round" stroke-width="1"/>
                  <path id="Trazado_698082" data-name="Trazado 698082" d="M590.778,102.44c3.28-1.756,8.345-8.83,12.308-14.8a28.357,28.357,0,0,0,5.285,1.745c-2.792,8.2-7.952,15.572-12.941,23.419-1.226-3.152-3.665-7.222-4.652-10.368" transform="translate(-464.491 -68.909)" fill="#8dbce3"/>
                  <path id="Trazado_698083" data-name="Trazado 698083" d="M565.166,143.183c.8-.254,2.587,1.191,2.587,1.191a16.591,16.591,0,0,1-2.579,3.905c-.781.242-1.984-.76-2.812-.5-.01-.167,2.365-3.628,2.8-4.6" transform="translate(-442.15 -112.552)" fill="#8dbce3"/>
                  <path id="Trazado_698084" data-name="Trazado 698084" d="M529.8,141.7c.992,1.844,2.072,4.032,3.026,4.8-.788-.256-2.656.577-3.2.633.026-.21-1.464-2.3-2.326-3.905a15.243,15.243,0,0,1,2.5-1.531" transform="translate(-414.585 -111.412)" fill="#8dbce3"/>
                  <path id="Trazado_698085" data-name="Trazado 698085" d="M527.328,149.5a31.093,31.093,0,0,0,3.493,5.564l2.15-2.218" transform="translate(-414.605 -117.542)" fill="none" stroke="#000" stroke-linecap="round" stroke-linejoin="round" stroke-width="1"/>
                  <path id="Trazado_698086" data-name="Trazado 698086" d="M557.6,148.142l-2.872,6.648a30.544,30.544,0,0,0-2.629-3.085,190.718,190.718,0,0,0-2.789,28.795" transform="translate(-431.891 -116.475)" fill="none" stroke="#000" stroke-linecap="round" stroke-linejoin="round" stroke-width="1"/>
                  <path id="Trazado_698087" data-name="Trazado 698087" d="M544.3,165.128a131.042,131.042,0,0,0-2.825,28.526" transform="translate(-425.722 -129.83)" fill="none" stroke="#000" stroke-linecap="round" stroke-linejoin="round" stroke-width="1"/>
                  <path id="Trazado_698088" data-name="Trazado 698088" d="M610.484,185.065a23.063,23.063,0,0,1,.435,4.284" transform="translate(-479.985 -145.505)" fill="none" stroke="#000" stroke-linecap="round" stroke-linejoin="round" stroke-width="1"/>
                  <path id="Trazado_698089" data-name="Trazado 698089" d="M503.071,188.086c-.763,2.469-1.327,5.081-1.9,6.922" transform="translate(-394.042 -147.88)" fill="none" stroke="#000" stroke-linecap="round" stroke-linejoin="round" stroke-width="1"/>
                  <path id="Trazado_698090" data-name="Trazado 698090" d="M564.484,131.188c.337,10.617.574,20.982.91,31.6-5.125-.5-10.458-.981-15.223.512,1.021-8.854,2.045-17.735,4.143-26.4.293-1.21.725-2.564,1.852-3.093a6.108,6.108,0,0,1,2.635-.215c2.078.006,2.9-2,5.681-2.405" transform="translate(-432.565 -103.145)" fill="#fff"/>
                </g>
              </g>
              <g id="Grupo_998446" data-name="Grupo 998446" transform="translate(117.606 28.043)">
                <g id="Grupo_998445" data-name="Grupo 998445" clip-path="url(#clip-path-11)">
                  <path id="Trazado_698091" data-name="Trazado 698091" d="M564.249,141.245a150.6,150.6,0,0,0-4.908,29.368" transform="translate(-557.381 -139.095)" fill="none" stroke="#000" stroke-miterlimit="10" stroke-width="0.5"/>
                  <path id="Trazado_698092" data-name="Trazado 698092" d="M572.316,141.3a148.5,148.5,0,0,0-4.694,29.012" transform="translate(-563.892 -139.14)" fill="none" stroke="#b30e19" stroke-miterlimit="10" stroke-width="1"/>
                  <path id="Trazado_698093" data-name="Trazado 698093" d="M582.062,139.847a171.46,171.46,0,0,0-4.176,29.245" transform="translate(-571.962 -137.996)" fill="none" stroke="#000" stroke-miterlimit="10" stroke-width="0.5"/>
                  <path id="Trazado_698094" data-name="Trazado 698094" d="M591.377,134.727a239.921,239.921,0,0,0-3.535,30.586" transform="translate(-579.79 -133.97)" fill="none" stroke="#b30e19" stroke-miterlimit="10" stroke-width="1"/>
                  <path id="Trazado_698095" data-name="Trazado 698095" d="M602.207,131.815a207.513,207.513,0,0,0-2.386,31.073" transform="translate(-589.208 -131.681)" fill="none" stroke="#000" stroke-miterlimit="10" stroke-width="0.5"/>
                  <path id="Trazado_698096" data-name="Trazado 698096" d="M612.109,131.409q-.82,15.531-.877,31.089" transform="translate(-598.18 -131.362)" fill="none" stroke="#b30e19" stroke-miterlimit="10" stroke-width="1"/>
                  <path id="Trazado_698097" data-name="Trazado 698097" d="M565.866,267.07a28.112,28.112,0,0,0-15.124.7" transform="translate(-550.62 -237.46)" fill="none" stroke="#000" stroke-miterlimit="10" stroke-width="0.5"/>
                  <path id="Trazado_698098" data-name="Trazado 698098" d="M567.071,256.931a26.288,26.288,0,0,0-14.862.82" transform="translate(-551.774 -229.498)" fill="none" stroke="#b30e19" stroke-miterlimit="10" stroke-width="1"/>
                  <path id="Trazado_698099" data-name="Trazado 698099" d="M565.51,248.981a30.346,30.346,0,0,0-15.215.759" transform="translate(-550.269 -223.307)" fill="none" stroke="#000" stroke-miterlimit="10" stroke-width="0.5"/>
                  <path id="Trazado_698100" data-name="Trazado 698100" d="M551.661,240.821A38.679,38.679,0,0,1,567,239.884" transform="translate(-551.343 -216.356)" fill="none" stroke="#b30e19" stroke-miterlimit="10" stroke-width="1"/>
                  <path id="Trazado_698101" data-name="Trazado 698101" d="M553.974,232.56a117.615,117.615,0,0,1,14.532-.448" transform="translate(-553.161 -210.494)" fill="none" stroke="#000" stroke-miterlimit="10" stroke-width="0.5"/>
                  <path id="Trazado_698102" data-name="Trazado 698102" d="M555.782,224.058a54.621,54.621,0,0,1,13.948-.243" transform="translate(-554.583 -203.753)" fill="none" stroke="#b30e19" stroke-miterlimit="10" stroke-width="1"/>
                  <path id="Trazado_698103" data-name="Trazado 698103" d="M557.371,214.6a51.194,51.194,0,0,1,13.725,0" transform="translate(-555.832 -196.409)" fill="none" stroke="#000" stroke-miterlimit="10" stroke-width="0.5"/>
                  <path id="Trazado_698104" data-name="Trazado 698104" d="M556.883,206.023q6.761-.447,13.543-.375" transform="translate(-555.448 -189.723)" fill="none" stroke="#b30e19" stroke-miterlimit="10" stroke-width="1"/>
                  <path id="Trazado_698105" data-name="Trazado 698105" d="M558.855,197.395a76.6,76.6,0,0,1,12.878-.3" transform="translate(-556.999 -182.894)" fill="none" stroke="#000" stroke-miterlimit="10" stroke-width="0.5"/>
                  <path id="Trazado_698106" data-name="Trazado 698106" d="M562,189.73a109.363,109.363,0,0,1,11.926-.456" transform="translate(-559.468 -176.846)" fill="none" stroke="#b30e19" stroke-miterlimit="10" stroke-width="1"/>
                  <path id="Trazado_698107" data-name="Trazado 698107" d="M563.239,180.335a91.332,91.332,0,0,1,12.054-.241" transform="translate(-560.446 -169.564)" fill="none" stroke="#000" stroke-miterlimit="10" stroke-width="0.5"/>
                  <path id="Trazado_698108" data-name="Trazado 698108" d="M564.785,169.8a60.96,60.96,0,0,1,11.727-.268" transform="translate(-561.661 -161.208)" fill="none" stroke="#b30e19" stroke-miterlimit="10" stroke-width="1"/>
                  <path id="Trazado_698109" data-name="Trazado 698109" d="M566.7,160.562a50.543,50.543,0,0,1,11.339-.295" transform="translate(-563.163 -153.903)" fill="none" stroke="#000" stroke-miterlimit="10" stroke-width="0.5"/>
                  <path id="Trazado_698110" data-name="Trazado 698110" d="M569.136,150.045a54.68,54.68,0,0,1,10.824-.719" transform="translate(-565.082 -145.425)" fill="none" stroke="#b30e19" stroke-miterlimit="10" stroke-width="1"/>
                  <path id="Trazado_698111" data-name="Trazado 698111" d="M575.1,138.454a23.482,23.482,0,0,0,9.1-1.809" transform="translate(-569.77 -135.479)" fill="none" stroke="#000" stroke-miterlimit="10" stroke-width="0.5"/>
                </g>
              </g>
              <g id="Grupo_998454" data-name="Grupo 998454">
                <g id="Grupo_998453" data-name="Grupo 998453" clip-path="url(#clip-path-2)">
                  <path id="Trazado_698113" data-name="Trazado 698113" d="M485.851,36.99c-5.009-.192-10.086-.378-14.975.73a5.271,5.271,0,0,0-3.486,1.944,3.621,3.621,0,0,0-.281,2.941,7.193,7.193,0,0,0,1.564,2.587c3.561,4.056,9.13,5.8,14.512,6.211a25.473,25.473,0,0,0,10.186-1.064,15.338,15.338,0,0,0,8.075-6.092,4.986,4.986,0,0,0,.844-4.31c-.586-1.515-2.252-2.3-3.824-2.708-4.231-1.1-8.692-.5-12.614-.239" transform="translate(-367.114 -28.769)" fill="#945848"/>
                  <path id="Trazado_698114" data-name="Trazado 698114" d="M499.405,80.459a2.992,2.992,0,0,0-3.223.9,2.327,2.327,0,0,0,.2,2.973,3.6,3.6,0,0,0,3.306.927,11.99,11.99,0,0,1-.284-4.8" transform="translate(-389.767 -63.14)" fill="#deab8c"/>
                  <path id="Trazado_698115" data-name="Trazado 698115" d="M501.771,85.2a1.556,1.556,0,0,0-1.057,1.684" transform="translate(-393.661 -66.991)" fill="none" stroke="#000" stroke-linecap="round" stroke-linejoin="round" stroke-width="1"/>
                  <path id="Trazado_698116" data-name="Trazado 698116" d="M502.427,87.544a3.553,3.553,0,0,0,.226.987,1.421,1.421,0,0,0,.732.754" transform="translate(-395.027 -68.83)" fill="none" stroke="#000" stroke-linecap="round" stroke-linejoin="round" stroke-width="1"/>
                  <path id="Trazado_698117" data-name="Trazado 698117" d="M592.711,78.954a3,3,0,0,1,3.237.863,2.326,2.326,0,0,1-.154,2.975,3.593,3.593,0,0,1-3.29.968,11.981,11.981,0,0,0,.206-4.806" transform="translate(-465.849 -61.948)" fill="#deab8c"/>
                  <path id="Trazado_698118" data-name="Trazado 698118" d="M602.35,83.079a1.563,1.563,0,0,1,1.084,1.671" transform="translate(-473.59 -65.32)" fill="none" stroke="#000" stroke-linecap="round" stroke-linejoin="round" stroke-width="1"/>
                  <path id="Trazado_698119" data-name="Trazado 698119" d="M602.291,85.378a3.548,3.548,0,0,1-.21.99,1.413,1.413,0,0,1-.719.763" transform="translate(-472.813 -67.127)" fill="none" stroke="#000" stroke-linecap="round" stroke-linejoin="round" stroke-width="1"/>
                  <path id="Trazado_698120" data-name="Trazado 698120" d="M517.026,29.041c-1.523.073-5.21.7-7.113,2.367a9.654,9.654,0,0,0-2.664,4.672,22.284,22.284,0,0,0,.609,9.492,10.535,10.535,0,0,0,5.851,6.285,10.037,10.037,0,0,0,9.081-.613c2.805-1.859,3.82-5.15,3.882-8.212s.7-4.654.137-7.663c-.572-3.036-2.636-6.671-9.782-6.327" transform="translate(-398.62 -22.815)" fill="#deab8c"/>
                  <path id="Trazado_698121" data-name="Trazado 698121" d="M514.1,67.818c-.1.046-.35-.273-.276-.343a5.093,5.093,0,0,1,2.459-1.093,5.322,5.322,0,0,1,2.14.049c.2.1.581.383.268.642a2.857,2.857,0,0,1-.7.023,7.859,7.859,0,0,0-3.891.721" transform="translate(-403.976 -52.126)"/>
                  <path id="Trazado_698122" data-name="Trazado 698122" d="M567.935,67.818c.1.046.35-.273.276-.343a5.092,5.092,0,0,0-2.459-1.093,5.322,5.322,0,0,0-2.14.049c-.2.1-.581.383-.268.642a2.857,2.857,0,0,0,.7.023,7.858,7.858,0,0,1,3.891.721" transform="translate(-442.828 -52.126)"/>
                  <path id="Trazado_698123" data-name="Trazado 698123" d="M527.436,75.966a.572.572,0,1,1,.573.637.606.606,0,0,1-.573-.637" transform="translate(-414.69 -59.221)"/>
                  <path id="Trazado_698124" data-name="Trazado 698124" d="M568.525,76.6a.572.572,0,1,1,.573.637.606.606,0,0,1-.573-.637" transform="translate(-446.995 -59.722)"/>
                  <g id="Grupo_998449" data-name="Grupo 998449" transform="translate(121.323 17.986)" opacity="0.69">
                    <g id="Grupo_998448" data-name="Grupo 998448">
                      <g id="Grupo_998447" data-name="Grupo 998447" clip-path="url(#clip-path-13)">
                        <path id="Trazado_698125" data-name="Trazado 698125" d="M567.558,85.558c-.006-.776.916-1.41,2.061-1.417s2.077.616,2.084,1.391-.916,1.41-2.061,1.417-2.078-.616-2.084-1.391" transform="translate(-567.558 -84.141)" fill="#c98d73"/>
                      </g>
                    </g>
                  </g>
                  <g id="Grupo_998452" data-name="Grupo 998452" transform="translate(110.185 17.861)" opacity="0.69">
                    <g id="Grupo_998451" data-name="Grupo 998451">
                      <g id="Grupo_998450" data-name="Grupo 998450" clip-path="url(#clip-path-13)">
                        <path id="Trazado_698126" data-name="Trazado 698126" d="M515.455,84.973c-.006-.776.916-1.41,2.061-1.417s2.077.616,2.084,1.391-.916,1.41-2.061,1.417-2.078-.616-2.084-1.391" transform="translate(-515.455 -83.556)" fill="#c98d73"/>
                      </g>
                    </g>
                  </g>
                  <path id="Trazado_698127" data-name="Trazado 698127" d="M546.021,100.716a2.263,2.263,0,0,1-.709,1.612,1.712,1.712,0,0,1-1.641.28,1.9,1.9,0,0,1-1.147-1.3" transform="translate(-426.552 -79.187)" fill="none" stroke="#000" stroke-linecap="round" stroke-linejoin="round" stroke-width="1"/>
                  <path id="Trazado_698128" data-name="Trazado 698128" d="M545.008,67.734a9.108,9.108,0,0,1,.1,2.321.449.449,0,0,1-.164.386.865.865,0,0,1-.476.04,1.173,1.173,0,0,0-1.137.8,1.336,1.336,0,0,0,.406,1.279,2.959,2.959,0,0,0,1.338.7" transform="translate(-427.159 -53.255)" fill="none" stroke="#000" stroke-linecap="round" stroke-linejoin="round" stroke-width="1"/>
                  <path id="Trazado_698129" data-name="Trazado 698129" d="M528.75,130.961a7.735,7.735,0,0,0,6.376,1.6" transform="translate(-415.723 -102.966)" fill="none" stroke="#000" stroke-linecap="round" stroke-linejoin="round" stroke-width="1"/>
                  <path id="Trazado_698130" data-name="Trazado 698130" d="M533.732,17.342c.132-1.893-.2-3.6-1.684-4.572a10.833,10.833,0,0,0-5.16-1.293,8.515,8.515,0,0,0-4.58.546c-1.929,1.007-2.819,3.237-3.556,5.285a86.806,86.806,0,0,1,14.981.034" transform="translate(-407.861 -8.969)" fill="#945848"/>
                  <path id="Trazado_698131" data-name="Trazado 698131" d="M518.723,29.545c3.174-.39,6.943,1.179,13.11-.041.6-.118,1.414-.293,1.587-.06s.556,1.442.173,1.538a25.874,25.874,0,0,1-7.49.323c-2.579-.136-5.149-.847-7.713-.532-.131-.212-.107-.509.333-1.229" transform="translate(-407.522 -23.06)"/>
                  <path id="Trazado_698132" data-name="Trazado 698132" d="M501.533,43.084a19.345,19.345,0,0,0-12.259-5.127A18.187,18.187,0,0,0,476.7,42.244a20.643,20.643,0,0,1-4.982-2.584,1.922,1.922,0,0,1-.922-1.145,1.837,1.837,0,0,1,.914-1.576c2.275-1.754,5.253-2.188,8.114-2.451,4.486-.412,6.735.41,8.647.57,6.548.548,9.21-1.345,13.484.186,1.578.566,3.172,1.66,3.474,3.309a3.883,3.883,0,0,1-1.012,3.164,3.545,3.545,0,0,1-2.883,1.367" transform="translate(-370.146 -27.026)" fill="#945848"/>
                  <path id="Trazado_698133" data-name="Trazado 698133" d="M499.324,55.218c2.868-2.868,9.479-4.465,13.053-4.091a22.087,22.087,0,0,1,9.689,3.367" transform="translate(-392.587 -40.156)" fill="none" stroke="#000" stroke-linecap="round" stroke-linejoin="round" stroke-width="1"/>
                  <path id="Trazado_698134" data-name="Trazado 698134" d="M526.707,62.994a52.35,52.35,0,0,1-.966,9.885,8.98,8.98,0,0,1-1.958,4.254,6.958,6.958,0,0,1-4.017,1.96,15.872,15.872,0,0,1-4.535-.09,11.1,11.1,0,0,1-5.457-1.871,8.168,8.168,0,0,1-2.594-3.9,19.487,19.487,0,0,1-.809-4.673c-.147-1.879.121-3.587.093-5.564.673.142.709,1.449.709,1.449s.152,2.442.2,3.665a12.2,12.2,0,0,0,.565,3.614,5.275,5.275,0,0,0,2.2,2.847,3.4,3.4,0,0,0,3.488.037c.5-.323.922-.815,1.507-.907a1.942,1.942,0,0,1,1.358.417,11.156,11.156,0,0,0,1.191.834,3.148,3.148,0,0,0,2.571.03,5.722,5.722,0,0,0,2.094-1.585,13.086,13.086,0,0,0,2.64-5.15A39.131,39.131,0,0,0,526,62.5a7.972,7.972,0,0,0,.708.5" transform="translate(-398.091 -49.138)"/>
                  <path id="Trazado_698135" data-name="Trazado 698135" d="M577.887,57.469a44.734,44.734,0,0,1-5.674-5.013,40.438,40.438,0,0,1,5.8,2.38,11.325,11.325,0,0,0-.125,2.633" transform="translate(-449.895 -41.243)"/>
                  <path id="Trazado_698136" data-name="Trazado 698136" d="M507.46,54.651a43.434,43.434,0,0,0,9.41-3.713,24.149,24.149,0,0,0-8.859,2.343,1.527,1.527,0,0,0-.661.491.742.742,0,0,0,.11.879" transform="translate(-398.821 -40.049)"/>
                  <path id="Trazado_698137" data-name="Trazado 698137" d="M534.166,91.1a5.994,5.994,0,0,1,2.021-.156,2.491,2.491,0,0,1,1.748,1.026,4.377,4.377,0,0,1,.533,2.236q.07,1.5.02,3.01a1.7,1.7,0,0,1-.118.678.488.488,0,0,1-.513.313c-.364-.092-.376-.652-.324-1.061a11.75,11.75,0,0,0,.057-2.4,2.126,2.126,0,0,0-.438-1.318,2.625,2.625,0,0,0-1.562-.672c-.546-.068-1.72-.349-1.733-.956a1.517,1.517,0,0,1-1.286.643c-1.126.045-1.893.366-2.05,1.064-.119.532-.086,1.349-.229,1.991-.119.532.068.7-.142,1.2-.094.224-.246.916-.458.993a.6.6,0,0,1-.645-.376,3.169,3.169,0,0,1,.115-.768l.637-2.9a5.953,5.953,0,0,1,.57-2.135c.385-.489,1.072-.395,1.653-.482s1.185.263,2.144.067" transform="translate(-415.951 -71.48)"/>
                </g>
              </g>
            </g>
          </g>
        </g>
      </g>
    </g>
  </g>
</svg>
