<svg xmlns="http://www.w3.org/2000/svg" xmlns:xlink="http://www.w3.org/1999/xlink" width="512" height="466.761" viewBox="0 0 512 466.761">
  <defs>
    <clipPath id="clip-path">
      <path id="Trazado_697219" data-name="Trazado 697219" d="M101.5,156.172A151.592,151.592,0,1,0,253.089,4.579,151.594,151.594,0,0,0,101.5,156.172" transform="translate(-101.498 -4.579)" fill="none"/>
    </clipPath>
    <radialGradient id="radial-gradient" cx="0.371" cy="0.28" r="0.564" gradientTransform="matrix(1, 0, 0, -1, 0, 2.165)" gradientUnits="objectBoundingBox">
      <stop offset="0" stop-color="#f1f2f2"/>
      <stop offset="1" stop-color="#dadbdc"/>
    </radialGradient>
    <clipPath id="clip-path-2">
      <path id="Trazado_697222" data-name="Trazado 697222" d="M101.5,156.172A151.592,151.592,0,1,0,253.091,4.579,151.594,151.594,0,0,0,101.5,156.172" transform="translate(-101.5 -4.579)" fill="none"/>
    </clipPath>
    <clipPath id="clip-path-3">
      <rect id="Rectángulo_344587" data-name="Rectángulo 344587" width="96.203" height="138.874" fill="none"/>
    </clipPath>
    <clipPath id="clip-path-4">
      <rect id="Rectángulo_344586" data-name="Rectángulo 344586" width="96.203" height="201.604" fill="none"/>
    </clipPath>
    <clipPath id="clip-path-5">
      <rect id="Rectángulo_344579" data-name="Rectángulo 344579" width="57.685" height="23.609" fill="none"/>
    </clipPath>
    <clipPath id="clip-path-6">
      <rect id="Rectángulo_344580" data-name="Rectángulo 344580" width="15.112" height="23.163" fill="none"/>
    </clipPath>
    <clipPath id="clip-path-7">
      <rect id="Rectángulo_344581" data-name="Rectángulo 344581" width="1.979" height="18.525" fill="none"/>
    </clipPath>
    <clipPath id="clip-path-8">
      <rect id="Rectángulo_344582" data-name="Rectángulo 344582" width="1.979" height="18.676" fill="none"/>
    </clipPath>
    <clipPath id="clip-path-9">
      <rect id="Rectángulo_344594" data-name="Rectángulo 344594" width="65.498" height="117.406" fill="none"/>
    </clipPath>
    <clipPath id="clip-path-11">
      <rect id="Rectángulo_344589" data-name="Rectángulo 344589" width="55.915" height="22.885" fill="none"/>
    </clipPath>
    <clipPath id="clip-path-12">
      <rect id="Rectángulo_344590" data-name="Rectángulo 344590" width="14.648" height="22.452" fill="none"/>
    </clipPath>
    <clipPath id="clip-path-13">
      <rect id="Rectángulo_344591" data-name="Rectángulo 344591" width="1.918" height="17.957" fill="none"/>
    </clipPath>
    <clipPath id="clip-path-14">
      <rect id="Rectángulo_344592" data-name="Rectángulo 344592" width="1.918" height="18.103" fill="none"/>
    </clipPath>
    <clipPath id="clip-path-15">
      <rect id="Rectángulo_344601" data-name="Rectángulo 344601" width="66.338" height="109.175" fill="none"/>
    </clipPath>
    <clipPath id="clip-path-17">
      <rect id="Rectángulo_344596" data-name="Rectángulo 344596" width="49.365" height="20.204" fill="none"/>
    </clipPath>
    <clipPath id="clip-path-18">
      <rect id="Rectángulo_344597" data-name="Rectángulo 344597" width="12.932" height="19.822" fill="none"/>
    </clipPath>
    <clipPath id="clip-path-19">
      <rect id="Rectángulo_344598" data-name="Rectángulo 344598" width="1.694" height="15.853" fill="none"/>
    </clipPath>
    <clipPath id="clip-path-21">
      <rect id="Rectángulo_344608" data-name="Rectángulo 344608" width="60.96" height="105.956" fill="none"/>
    </clipPath>
    <clipPath id="clip-path-23">
      <rect id="Rectángulo_344603" data-name="Rectángulo 344603" width="47.311" height="19.363" fill="none"/>
    </clipPath>
    <clipPath id="clip-path-24">
      <rect id="Rectángulo_344604" data-name="Rectángulo 344604" width="12.394" height="18.997" fill="none"/>
    </clipPath>
    <clipPath id="clip-path-25">
      <rect id="Rectángulo_344605" data-name="Rectángulo 344605" width="1.623" height="15.193" fill="none"/>
    </clipPath>
    <clipPath id="clip-path-27">
      <rect id="Rectángulo_344616" data-name="Rectángulo 344616" width="57.133" height="102.741" fill="none"/>
    </clipPath>
    <clipPath id="clip-path-28">
      <rect id="Rectángulo_344615" data-name="Rectángulo 344615" width="57.132" height="102.741" fill="none"/>
    </clipPath>
    <clipPath id="clip-path-29">
      <rect id="Rectángulo_344611" data-name="Rectángulo 344611" width="48.773" height="19.962" fill="none"/>
    </clipPath>
    <clipPath id="clip-path-30">
      <rect id="Rectángulo_344612" data-name="Rectángulo 344612" width="12.777" height="19.584" fill="none"/>
    </clipPath>
    <clipPath id="clip-path-31">
      <rect id="Rectángulo_344613" data-name="Rectángulo 344613" width="1.673" height="15.663" fill="none"/>
    </clipPath>
  </defs>
  <g id="Grupo_1000196" data-name="Grupo 1000196" transform="translate(5990 8296)">
    <g id="Grupo_1000195" data-name="Grupo 1000195">
      <g id="Grupo_998282" data-name="Grupo 998282" transform="translate(-5877.684 -8210.234)">
        <g id="Grupo_998176" data-name="Grupo 998176">
          <g id="Grupo_998175" data-name="Grupo 998175" clip-path="url(#clip-path)">
            <rect id="Rectángulo_344576" data-name="Rectángulo 344576" width="303.184" height="303.186" transform="translate(0 0)" fill="url(#radial-gradient)"/>
          </g>
        </g>
        <g id="Grupo_998178" data-name="Grupo 998178" transform="translate(0.002)">
          <g id="Grupo_998177" data-name="Grupo 998177" clip-path="url(#clip-path-2)">
            <path id="Trazado_697220" data-name="Trazado 697220" d="M0,168.446v76H499.305v-76Z" transform="translate(-92.587 -18.968)" fill="#003893"/>
            <path id="Trazado_697221" data-name="Trazado 697221" d="M0,85.127v76H499.305v-76Z" transform="translate(-92.587 -11.652)" fill="#ffce00"/>
            <rect id="Rectángulo_344577" data-name="Rectángulo 344577" width="499.305" height="80.803" transform="translate(-92.587 225.481)" fill="#ce1126"/>
            <rect id="Rectángulo_344578" data-name="Rectángulo 344578" width="499.305" height="77.651" transform="translate(-92.587 -4.176)" fill="#ffce00"/>
          </g>
        </g>
      </g>
      <path id="Trazado_705292" data-name="Trazado 705292" d="M1.4,0V-18.484H7.351a8.759,8.759,0,0,1,4.405,1.111,7.808,7.808,0,0,1,3.053,3.136A9.467,9.467,0,0,1,15.92-9.7v.851A9.522,9.522,0,0,1,14.847-4.3a7.842,7.842,0,0,1-3.021,3.148A8.566,8.566,0,0,1,7.478,0ZM5.853-15.044V-3.428H7.4a3.466,3.466,0,0,0,2.945-1.365,6.688,6.688,0,0,0,1.028-4.056v-.8a6.633,6.633,0,0,0-1.028-4.037,3.527,3.527,0,0,0-3-1.358ZM22.521,0H18.23V-13.736h4.291ZM17.977-17.291a1.926,1.926,0,0,1,.66-1.507,2.481,2.481,0,0,1,1.714-.588,2.481,2.481,0,0,1,1.714.588,1.926,1.926,0,0,1,.66,1.507,1.926,1.926,0,0,1-.66,1.507,2.481,2.481,0,0,1-1.714.588,2.481,2.481,0,0,1-1.714-.588A1.926,1.926,0,0,1,17.977-17.291ZM32.894,0a4.831,4.831,0,0,1-.406-1.231,3.978,3.978,0,0,1-3.3,1.485,4.874,4.874,0,0,1-3.3-1.174,3.738,3.738,0,0,1-1.358-2.952,3.842,3.842,0,0,1,1.65-3.377,8.408,8.408,0,0,1,4.8-1.143H32.3v-.727q0-1.9-1.638-1.9a1.339,1.339,0,0,0-1.523,1.505H24.857a3.835,3.835,0,0,1,1.695-3.233,7.122,7.122,0,0,1,4.323-1.243,6.245,6.245,0,0,1,4.151,1.282,4.458,4.458,0,0,1,1.562,3.517V-3.11a6.227,6.227,0,0,0,.584,2.895V0ZM30.215-2.793a2.386,2.386,0,0,0,1.327-.343A2.148,2.148,0,0,0,32.3-3.91v-2.2H31.053q-2.234,0-2.234,2.006a1.225,1.225,0,0,0,.394.946A1.424,1.424,0,0,0,30.215-2.793ZM43.469,0H39.178V-19.5h4.291Zm9.28.254a7.061,7.061,0,0,1-5.116-1.885,6.51,6.51,0,0,1-1.955-4.907v-.355a8.436,8.436,0,0,1,.781-3.72,5.713,5.713,0,0,1,2.279-2.495,6.879,6.879,0,0,1,3.555-.882,5.946,5.946,0,0,1,4.57,1.8,7.059,7.059,0,0,1,1.676,5.008v1.663H50.032a3.084,3.084,0,0,0,1,1.815,2.984,2.984,0,0,0,2.006.66,3.845,3.845,0,0,0,3.174-1.422L58.17-2.158A5.465,5.465,0,0,1,55.9-.4,7.658,7.658,0,0,1,52.749.254Zm-.482-10.943q-1.879,0-2.234,2.488h4.316v-.33a2.119,2.119,0,0,0-.521-1.593A2.071,2.071,0,0,0,52.267-10.689Zm13.8,7.643a1.9,1.9,0,0,0,1.4-.489A1.792,1.792,0,0,0,67.945-4.9h4.012a4.749,4.749,0,0,1-1.619,3.707A6.021,6.021,0,0,1,66.168.254a6.1,6.1,0,0,1-4.723-1.879A7.4,7.4,0,0,1,59.719-6.83v-.178a8.367,8.367,0,0,1,.768-3.675,5.592,5.592,0,0,1,2.215-2.45,6.605,6.605,0,0,1,3.428-.857A5.945,5.945,0,0,1,70.383-12.5,5.268,5.268,0,0,1,71.957-8.48H67.945a2.348,2.348,0,0,0-.521-1.638,1.8,1.8,0,0,0-1.4-.571q-1.663,0-1.942,2.12A14.961,14.961,0,0,0,64-6.716a5.876,5.876,0,0,0,.5,2.869A1.714,1.714,0,0,0,66.066-3.047Zm12.683-14.1v3.415h2.26v2.971h-2.26v6.284A1.6,1.6,0,0,0,79.028-3.4a1.5,1.5,0,0,0,1.1.3A6.276,6.276,0,0,0,81.2-3.174v3.06a7.9,7.9,0,0,1-2.412.368A4.482,4.482,0,0,1,75.524-.787a4.267,4.267,0,0,1-1.054-3.161v-6.817H72.719v-2.971h1.752v-3.415ZM81.771-7a8.107,8.107,0,0,1,.8-3.663,5.72,5.72,0,0,1,2.3-2.469,6.92,6.92,0,0,1,3.517-.863,6.316,6.316,0,0,1,4.862,1.911,7.332,7.332,0,0,1,1.777,5.2v.152a7.113,7.113,0,0,1-1.784,5.1A6.333,6.333,0,0,1,88.41.254,6.4,6.4,0,0,1,83.7-1.5a6.877,6.877,0,0,1-1.917-4.767Zm4.278.267a5.111,5.111,0,0,0,.6,2.793,1.988,1.988,0,0,0,1.765.889q2.285,0,2.336-3.517V-7q0-3.694-2.361-3.694-2.146,0-2.323,3.187ZM104.1-3.859a.988.988,0,0,0-.571-.876,8.69,8.69,0,0,0-2.171-.686,9.9,9.9,0,0,1-2.641-.933,4.423,4.423,0,0,1-1.587-1.4,3.35,3.35,0,0,1-.546-1.892,3.8,3.8,0,0,1,1.562-3.117,6.432,6.432,0,0,1,4.088-1.225,7.127,7.127,0,0,1,4.367,1.231,3.851,3.851,0,0,1,1.65,3.237h-4.291q0-1.65-1.739-1.65a1.724,1.724,0,0,0-1.13.375,1.16,1.16,0,0,0-.457.933,1.064,1.064,0,0,0,.559.927,5.278,5.278,0,0,0,1.784.584,15.414,15.414,0,0,1,2.152.546q3.1,1.066,3.1,3.821a3.6,3.6,0,0,1-1.669,3.06A7.321,7.321,0,0,1,102.235.254a7.471,7.471,0,0,1-3.148-.635,5.265,5.265,0,0,1-2.158-1.727,3.91,3.91,0,0,1-.774-2.3h4a1.653,1.653,0,0,0,.635,1.39,2.611,2.611,0,0,0,1.562.438,2.054,2.054,0,0,0,1.314-.355A1.137,1.137,0,0,0,104.1-3.859Zm27.752-2.4a6.751,6.751,0,0,1-1.041,3.409A6.283,6.283,0,0,1,128.14-.559a9.1,9.1,0,0,1-3.929.813,7.259,7.259,0,0,1-5.738-2.374,9.8,9.8,0,0,1-2.095-6.7v-.914a11.189,11.189,0,0,1,.946-4.754,7.166,7.166,0,0,1,2.723-3.148,7.6,7.6,0,0,1,4.113-1.111,7.967,7.967,0,0,1,5.408,1.771,7,7,0,0,1,2.323,4.881h-4.443a3.311,3.311,0,0,0-.851-2.425,3.5,3.5,0,0,0-2.437-.736,2.662,2.662,0,0,0-2.437,1.244,8,8,0,0,0-.812,3.974v1.308a8.848,8.848,0,0,0,.743,4.228,2.718,2.718,0,0,0,2.558,1.27,3.422,3.422,0,0,0,2.349-.724,3.071,3.071,0,0,0,.863-2.3ZM133.225-7a8.107,8.107,0,0,1,.8-3.663,5.72,5.72,0,0,1,2.3-2.469,6.921,6.921,0,0,1,3.517-.863A6.316,6.316,0,0,1,144.7-12.08a7.332,7.332,0,0,1,1.777,5.2v.152a7.113,7.113,0,0,1-1.784,5.1A6.333,6.333,0,0,1,139.864.254a6.4,6.4,0,0,1-4.71-1.758,6.877,6.877,0,0,1-1.917-4.767Zm4.278.267a5.111,5.111,0,0,0,.6,2.793,1.988,1.988,0,0,0,1.765.889q2.285,0,2.336-3.517V-7q0-3.694-2.361-3.694-2.146,0-2.323,3.187ZM152.877,0h-4.291V-19.5h4.291Zm2.095-7a8.107,8.107,0,0,1,.8-3.663,5.72,5.72,0,0,1,2.3-2.469,6.921,6.921,0,0,1,3.517-.863,6.316,6.316,0,0,1,4.862,1.911,7.332,7.332,0,0,1,1.777,5.2v.152a7.113,7.113,0,0,1-1.784,5.1A6.333,6.333,0,0,1,161.611.254,6.4,6.4,0,0,1,156.9-1.5a6.877,6.877,0,0,1-1.917-4.767Zm4.278.267a5.111,5.111,0,0,0,.6,2.793,1.988,1.988,0,0,0,1.765.889q2.285,0,2.336-3.517V-7q0-3.694-2.361-3.694-2.146,0-2.323,3.187Zm14.9-7.008.14,1.612a4.723,4.723,0,0,1,3.923-1.866,3.477,3.477,0,0,1,3.517,2.069,4.571,4.571,0,0,1,4.037-2.069q4.177,0,4.291,5.053V0h-4.291V-8.671a2.619,2.619,0,0,0-.355-1.536,1.513,1.513,0,0,0-1.295-.482,2.027,2.027,0,0,0-1.892,1.13l.013.178V0H177.95V-8.646a2.752,2.752,0,0,0-.343-1.562,1.509,1.509,0,0,0-1.308-.482,2.052,2.052,0,0,0-1.879,1.13V0h-4.278V-13.736Zm31.1,6.982a8.372,8.372,0,0,1-1.4,5.192A4.677,4.677,0,0,1,199.926.254a4.059,4.059,0,0,1-3.377-1.663L196.371,0h-3.834V-19.5h4.278v6.868A3.916,3.916,0,0,1,199.9-13.99a4.679,4.679,0,0,1,3.961,1.841,8.415,8.415,0,0,1,1.4,5.18Zm-4.291-.273a5.584,5.584,0,0,0-.527-2.82,1.776,1.776,0,0,0-1.619-.843,2.048,2.048,0,0,0-2.006,1.1v5.45a2.06,2.06,0,0,0,2.031,1.09,1.817,1.817,0,0,0,1.917-1.47A10.557,10.557,0,0,0,200.967-7.027ZM211.656,0h-4.291V-13.736h4.291Zm-4.545-17.291a1.926,1.926,0,0,1,.66-1.507,2.481,2.481,0,0,1,1.714-.588,2.481,2.481,0,0,1,1.714.588,1.926,1.926,0,0,1,.66,1.507,1.926,1.926,0,0,1-.66,1.507,2.481,2.481,0,0,1-1.714.588,2.481,2.481,0,0,1-1.714-.588A1.926,1.926,0,0,1,207.111-17.291ZM222.028,0a4.83,4.83,0,0,1-.406-1.231,3.978,3.978,0,0,1-3.3,1.485,4.874,4.874,0,0,1-3.3-1.174,3.738,3.738,0,0,1-1.358-2.952,3.842,3.842,0,0,1,1.65-3.377,8.408,8.408,0,0,1,4.8-1.143h1.32v-.727q0-1.9-1.638-1.9a1.339,1.339,0,0,0-1.523,1.505h-4.278a3.835,3.835,0,0,1,1.695-3.233,7.122,7.122,0,0,1,4.323-1.243,6.245,6.245,0,0,1,4.151,1.282,4.458,4.458,0,0,1,1.562,3.517V-3.11a6.227,6.227,0,0,0,.584,2.895V0ZM219.35-2.793a2.386,2.386,0,0,0,1.327-.343,2.148,2.148,0,0,0,.755-.774v-2.2h-1.244q-2.234,0-2.234,2.006a1.225,1.225,0,0,0,.394.946A1.424,1.424,0,0,0,219.35-2.793Z" transform="translate(-5836 -8018)" fill="#fff"/>
      <g id="Grupo_998302" data-name="Grupo 998302" transform="translate(-5920.145 -8241.908)" clip-path="url(#clip-path-3)">
        <g id="Grupo_998301" data-name="Grupo 998301" transform="translate(0 -62.729)">
          <g id="Grupo_998300" data-name="Grupo 998300" clip-path="url(#clip-path-4)">
            <path id="Trazado_697223" data-name="Trazado 697223" d="M30.745,138.688c-8.457-7.285-11.7-19.98-8.51-30.678a11.938,11.938,0,0,1-1.172-10.084c.745.743,1.585,1.585,2.33,2.328a11.661,11.661,0,0,1,1.469-8.083c4.964,5.4,12.516,7.637,19.809,8.419s14.7.352,21.939,1.542c3.36.552,7.066,1.768,8.534,4.84a5.75,5.75,0,0,1,5.037,1.938,10.677,10.677,0,0,1,2.157,4.966c1.1,5.553-.1,11.367-2.393,16.544s-5.621,9.815-8.979,14.372A56.475,56.475,0,0,1,43.027,142.3c-3.784-1.348-8.292-3.153-12.282-3.611" transform="translate(-3.343 -15.066)" fill="#593000"/>
            <path id="Trazado_697224" data-name="Trazado 697224" d="M85.353,223.881c0,9.389-67.571,9.389-67.571,0v-20.1a24.4,24.4,0,0,1,24.4-24.4H60.95a24.4,24.4,0,0,1,24.4,24.4Z" transform="translate(-2.907 -29.319)" fill="#ff9425"/>
            <g id="Grupo_998285" data-name="Grupo 998285" transform="translate(24.638 150.056)" opacity="0.1">
              <g id="Grupo_998284" data-name="Grupo 998284">
                <g id="Grupo_998283" data-name="Grupo 998283" clip-path="url(#clip-path-5)">
                  <path id="Trazado_697225" data-name="Trazado 697225" d="M62.858,179.375H44.091a24.3,24.3,0,0,0-14.64,4.879,59.775,59.775,0,0,0,57.687,17.057,24.407,24.407,0,0,0-24.28-21.936" transform="translate(-29.452 -179.375)"/>
                </g>
              </g>
            </g>
            <path id="Trazado_697226" data-name="Trazado 697226" d="M64.248,179.933h0a13.386,13.386,0,0,1-15.112,0V153.3H64.248Z" transform="translate(-8.031 -25.057)" fill="#d9ab82"/>
            <g id="Grupo_998288" data-name="Grupo 998288" transform="translate(41.105 131.147)" opacity="0.1">
              <g id="Grupo_998287" data-name="Grupo 998287">
                <g id="Grupo_998286" data-name="Grupo 998286" clip-path="url(#clip-path-6)">
                  <path id="Trazado_697227" data-name="Trazado 697227" d="M49.137,174.779a48.989,48.989,0,0,0,15.112,5.155V157.35c-.709-.128-1.422-.234-2.131-.31a56.567,56.567,0,0,0-12.982.238Z" transform="translate(-49.137 -156.771)"/>
                </g>
              </g>
            </g>
            <path id="Trazado_697228" data-name="Trazado 697228" d="M36.529,143.214a7.552,7.552,0,1,1-7.552-7.552,7.552,7.552,0,0,1,7.552,7.552" transform="translate(-3.502 -22.174)" fill="#d9ab82"/>
            <path id="Trazado_697229" data-name="Trazado 697229" d="M33.549,143.938a3.849,3.849,0,1,1-3.849-3.849,3.849,3.849,0,0,1,3.849,3.849" transform="translate(-4.225 -22.898)" fill="#cca17a"/>
            <path id="Trazado_697230" data-name="Trazado 697230" d="M91.962,143.214a7.552,7.552,0,1,1-7.552-7.552,7.552,7.552,0,0,1,7.552,7.552" transform="translate(-12.563 -22.174)" fill="#d9ab82"/>
            <path id="Trazado_697231" data-name="Trazado 697231" d="M88.983,143.938a3.849,3.849,0,1,1-3.849-3.849,3.849,3.849,0,0,1,3.849,3.849" transform="translate(-13.286 -22.898)" fill="#cca17a"/>
            <path id="Trazado_697232" data-name="Trazado 697232" d="M53.639,168.709h0a23.186,23.186,0,0,1-23.187-23.187V127.937a13.815,13.815,0,0,1,13.815-13.815H63.01a13.815,13.815,0,0,1,13.815,13.815v17.586a23.187,23.187,0,0,1-23.187,23.187" transform="translate(-4.977 -18.654)" fill="#ecba8e"/>
            <path id="Trazado_697233" data-name="Trazado 697233" d="M46.506,145.9c0,1.848-.875,3.345-1.954,3.345s-1.954-1.5-1.954-3.345.875-3.345,1.954-3.345,1.954,1.5,1.954,3.345" transform="translate(-6.963 -23.3)" fill="#57311a"/>
            <path id="Trazado_697234" data-name="Trazado 697234" d="M45.272,145.76a1.01,1.01,0,1,1-1.011-1.011,1.011,1.011,0,0,1,1.011,1.011" transform="translate(-7.07 -23.66)" fill="#fff"/>
            <path id="Trazado_697235" data-name="Trazado 697235" d="M45.945,148.55a.505.505,0,1,1-.505-.505.505.505,0,0,1,.505.505" transform="translate(-7.345 -24.198)" fill="#fff"/>
            <path id="Trazado_697236" data-name="Trazado 697236" d="M72.976,145.9c0,1.848-.875,3.345-1.954,3.345s-1.954-1.5-1.954-3.345.875-3.345,1.954-3.345,1.954,1.5,1.954,3.345" transform="translate(-11.289 -23.3)" fill="#57311a"/>
            <path id="Trazado_697237" data-name="Trazado 697237" d="M71.741,145.76a1.01,1.01,0,1,1-1.011-1.011,1.011,1.011,0,0,1,1.011,1.011" transform="translate(-11.396 -23.66)" fill="#fff"/>
            <path id="Trazado_697238" data-name="Trazado 697238" d="M72.414,148.55a.505.505,0,1,1-.505-.505.505.505,0,0,1,.505.505" transform="translate(-11.671 -24.198)" fill="#fff"/>
            <path id="Trazado_697239" data-name="Trazado 697239" d="M43.964,154.143c0,1.309-2.5,2.371-5.573,2.371s-5.573-1.062-5.573-2.371,2.5-2.37,5.573-2.37,5.573,1.061,5.573,2.37" transform="translate(-5.364 -24.808)" fill="#ffac7f"/>
            <path id="Trazado_697240" data-name="Trazado 697240" d="M81.342,154.143c0,1.309-2.5,2.371-5.573,2.371s-5.573-1.062-5.573-2.371,2.5-2.37,5.573-2.37,5.573,1.061,5.573,2.37" transform="translate(-11.474 -24.808)" fill="#ffac7f"/>
            <path id="Trazado_697241" data-name="Trazado 697241" d="M59.888,151.355a2.137,2.137,0,1,1-2.137-2.137,2.137,2.137,0,0,1,2.137,2.137" transform="translate(-9.09 -24.39)" fill="#ffac7f"/>
            <g id="Grupo_998291" data-name="Grupo 998291" transform="translate(25.97 181.615)" opacity="0.1">
              <g id="Grupo_998290" data-name="Grupo 998290">
                <g id="Grupo_998289" data-name="Grupo 998289" clip-path="url(#clip-path-7)">
                  <path id="Trazado_697242" data-name="Trazado 697242" d="M32.034,217.1h0a.99.99,0,0,0-.99.99v17.536h1.979V218.09a.99.99,0,0,0-.99-.99" transform="translate(-31.044 -217.1)"/>
                </g>
              </g>
            </g>
            <g id="Grupo_998294" data-name="Grupo 998294" transform="translate(69.373 181.615)" opacity="0.1">
              <g id="Grupo_998293" data-name="Grupo 998293">
                <g id="Grupo_998292" data-name="Grupo 998292" clip-path="url(#clip-path-8)">
                  <path id="Trazado_697243" data-name="Trazado 697243" d="M83.918,217.1h0a.99.99,0,0,0-.99.99v17.686h1.979V218.09a.99.99,0,0,0-.99-.99" transform="translate(-82.928 -217.1)"/>
                </g>
              </g>
            </g>
            <path id="Trazado_697244" data-name="Trazado 697244" d="M45.133,158.578a11.058,11.058,0,0,0,21.81,0Z" transform="translate(-7.377 -25.92)" fill="#b8916e"/>
            <path id="Trazado_697245" data-name="Trazado 697245" d="M65.075,164.085a13.2,13.2,0,0,0-17.168,0,11.038,11.038,0,0,0,17.168,0" transform="translate(-7.831 -26.301)" fill="#ffac7f"/>
            <path id="Trazado_697246" data-name="Trazado 697246" d="M66.173,161.145a11.016,11.016,0,0,0,.77-2.568H45.133a11.016,11.016,0,0,0,.77,2.568Z" transform="translate(-7.377 -25.92)" fill="#fff"/>
            <path id="Trazado_697247" data-name="Trazado 697247" d="M85.19,110.144a18.367,18.367,0,0,1,2.6-8.32c.553.333,1.048.6,1.6.931-1.312,2.354-2.889,5.035-4.2,7.389" transform="translate(-13.925 -16.643)" fill="#593000"/>
            <path id="Trazado_697248" data-name="Trazado 697248" d="M84.779,110.493a14.2,14.2,0,0,1,5.031-4.474c.234.44.456.813.69,1.254-1.805,1.036-3.916,2.183-5.721,3.22" transform="translate(-13.857 -17.329)" fill="#593000"/>
            <path id="Trazado_697249" data-name="Trazado 697249" d="M25.851,128.715l3.849,12.6,10.707-29.947H29.7Z" transform="translate(-4.225 -18.203)" fill="#593000"/>
            <path id="Trazado_697250" data-name="Trazado 697250" d="M87.649,128.715l-3.849,12.6L73.093,111.366H83.8Z" transform="translate(-11.947 -18.203)" fill="#593000"/>
            <path id="Trazado_697251" data-name="Trazado 697251" d="M30.049,130.753c6.435,1.97,13.357.468,19.914-1.043,5.008-1.154,10.072-2.327,14.663-4.633a15.363,15.363,0,0,0,11.781,6.113c-.271-2.223.408-4.4.872-6.6s.761-4.547-.111-6.61c-1.116-2.642-3.863-4.174-6.5-5.291-8.857-3.748-18.565-5.039-28.176-5.442a14.859,14.859,0,0,0-6.837.838A10.474,10.474,0,0,0,30.329,115a31.039,31.039,0,0,0-.674,8.946c.041,1.858.2,4.96.394,6.809" transform="translate(-4.842 -17.523)" fill="#593000"/>
          </g>
        </g>
      </g>
      <path id="Trazado_705293" data-name="Trazado 705293" d="M0,0H137V54H0Z" transform="translate(-5961 -8296)" fill="#fff"/>
      <path id="Trazado_705294" data-name="Trazado 705294" d="M0,0H137V54H0Z" transform="translate(-5990 -8025)" fill="#fff"/>
      <path id="Trazado_705295" data-name="Trazado 705295" d="M0,0H105V37H0Z" transform="translate(-5673 -8283)" fill="#fff"/>
      <path id="Trazado_705296" data-name="Trazado 705296" d="M0,0H106V37H0Z" transform="translate(-5584 -8075)" fill="#fff"/>
      <path id="Trazado_705297" data-name="Trazado 705297" d="M0,0H106V37H0Z" transform="translate(-5783 -7977)" fill="#fff"/>
      <path id="Trazado_705298" data-name="Trazado 705298" d="M1.586-5.78H4.119l.4,9.231H1.188ZM4.611-8.656a1.44,1.44,0,0,1-.5,1.127,1.8,1.8,0,0,1-1.239.441,1.8,1.8,0,0,1-1.239-.441,1.44,1.44,0,0,1-.5-1.127,1.44,1.44,0,0,1,.5-1.127,1.8,1.8,0,0,1,1.239-.441,1.8,1.8,0,0,1,1.239.441A1.44,1.44,0,0,1,4.611-8.656ZM15.1-5.733H9.982V-2.5h6.049V0H6.726V-13.508H16.05v2.514H9.982v2.848H15.1Zm5.167-3.229a3.129,3.129,0,0,1,2.561-1.262,3.12,3.12,0,0,1,2.5.983,4.419,4.419,0,0,1,.863,2.9V0H23.063V-6.262a1.767,1.767,0,0,0-.325-1.174,1.4,1.4,0,0,0-1.1-.376,1.5,1.5,0,0,0-1.364.612V0H17.145V-14.25h3.126ZM40.486-2.523H36.024L35.245,0H31.766L36.72-13.508h3.062L44.772,0h-3.5ZM36.8-5.038h2.9L38.25-9.723ZM49.151-3.72l1.586-6.318h3.293L50.756,0H47.565L44.29-10.038h3.3ZM59.7.186a5.16,5.16,0,0,1-3.739-1.378,4.757,4.757,0,0,1-1.429-3.586v-.26A6.165,6.165,0,0,1,55.1-7.756a4.175,4.175,0,0,1,1.665-1.823,5.027,5.027,0,0,1,2.6-.645,4.345,4.345,0,0,1,3.34,1.313,5.159,5.159,0,0,1,1.225,3.66v1.215H57.714a2.253,2.253,0,0,0,.733,1.327,2.181,2.181,0,0,0,1.466.482,2.81,2.81,0,0,0,2.319-1.039l1.429,1.688A3.994,3.994,0,0,1,62.005-.292,5.6,5.6,0,0,1,59.7.186Zm-.353-8q-1.373,0-1.633,1.818h3.154v-.241a1.549,1.549,0,0,0-.38-1.164A1.514,1.514,0,0,0,59.347-7.812Zm14.992-5.7,3.015,9.4,3.006-9.4h4.286V0H81.381V-3.154L81.7-9.611,78.431,0H76.278L73-9.621l.315,6.466V0H70.063V-13.508ZM92.226,0a3.53,3.53,0,0,1-.3-.9A2.907,2.907,0,0,1,89.517.186,3.562,3.562,0,0,1,87.1-.673a2.732,2.732,0,0,1-.993-2.157A2.807,2.807,0,0,1,87.318-5.3a6.144,6.144,0,0,1,3.507-.835h.965v-.531q0-1.389-1.2-1.389a.978.978,0,0,0-1.113,1.1H86.354a2.8,2.8,0,0,1,1.239-2.363,5.2,5.2,0,0,1,3.159-.908,4.563,4.563,0,0,1,3.034.937,3.258,3.258,0,0,1,1.141,2.57v4.444a4.551,4.551,0,0,0,.427,2.115V0ZM90.269-2.041a1.744,1.744,0,0,0,.969-.25,1.57,1.57,0,0,0,.552-.566v-1.6h-.909q-1.633,0-1.633,1.466a.9.9,0,0,0,.288.691A1.041,1.041,0,0,0,90.269-2.041Zm12.459-5.167-1.03-.074a1.85,1.85,0,0,0-1.893.928V0H96.679V-10.038h2.932l.1,1.29a2.421,2.421,0,0,1,2.2-1.475,3.049,3.049,0,0,1,.872.111ZM107.265,0H104.12V-10.038h3.145ZM106.1-14.064h3.3l-2.579,2.913-2.551,0ZM114.928,0a3.53,3.53,0,0,1-.3-.9A2.907,2.907,0,0,1,112.219.186a3.562,3.562,0,0,1-2.412-.858,2.732,2.732,0,0,1-.993-2.157A2.807,2.807,0,0,1,110.02-5.3a6.144,6.144,0,0,1,3.507-.835h.965v-.531q0-1.389-1.2-1.389a.978.978,0,0,0-1.113,1.1h-3.126a2.8,2.8,0,0,1,1.239-2.363,5.2,5.2,0,0,1,3.159-.908,4.563,4.563,0,0,1,3.034.937,3.258,3.258,0,0,1,1.141,2.57v4.444a4.551,4.551,0,0,0,.427,2.115V0ZM112.97-2.041a1.744,1.744,0,0,0,.969-.25,1.57,1.57,0,0,0,.552-.566v-1.6h-.909q-1.633,0-1.633,1.466a.9.9,0,0,0,.288.691A1.041,1.041,0,0,0,112.97-2.041Zm7.487,5.678-1.577-.742.315-.631a5.145,5.145,0,0,0,.677-2.3V-2.356h2.5l-.009,2.013a5.032,5.032,0,0,1-.547,2.171A5.516,5.516,0,0,1,120.457,3.637ZM10.2,15.055a6.053,6.053,0,0,1-1.053,3.734,3.376,3.376,0,0,1-2.844,1.4,2.894,2.894,0,0,1-2.273-1.011v4.685H.9V9.962H3.822l.093.928A2.894,2.894,0,0,1,6.281,9.776a3.4,3.4,0,0,1,2.885,1.368,6.128,6.128,0,0,1,1.03,3.762ZM7.069,14.86q0-2.672-1.559-2.672a1.471,1.471,0,0,0-1.484.8v3.952a1.519,1.519,0,0,0,1.5.835q1.494,0,1.54-2.579Zm10.483,4.054a3.223,3.223,0,0,1-2.681,1.271,3.161,3.161,0,0,1-2.5-.96,4.038,4.038,0,0,1-.849-2.76v-6.5h3.126v6.522a1.124,1.124,0,0,0,1.252,1.29A1.634,1.634,0,0,0,17.432,17V9.962h3.145V20H17.646Zm9.593,1.271a5.16,5.16,0,0,1-3.739-1.378,4.757,4.757,0,0,1-1.429-3.586v-.26a6.165,6.165,0,0,1,.571-2.718,4.175,4.175,0,0,1,1.665-1.823,5.027,5.027,0,0,1,2.6-.645,4.345,4.345,0,0,1,3.34,1.313,5.159,5.159,0,0,1,1.225,3.66v1.215H25.16a2.253,2.253,0,0,0,.733,1.327,2.181,2.181,0,0,0,1.466.482,2.81,2.81,0,0,0,2.319-1.039l1.429,1.688a3.994,3.994,0,0,1-1.656,1.285A5.6,5.6,0,0,1,27.146,20.186Zm-.353-8q-1.373,0-1.633,1.818h3.154v-.241a1.549,1.549,0,0,0-.38-1.164A1.514,1.514,0,0,0,26.793,12.188Zm11.1,4.991a.722.722,0,0,0-.417-.64,6.35,6.35,0,0,0-1.586-.5,7.234,7.234,0,0,1-1.93-.682,3.232,3.232,0,0,1-1.16-1.025,2.448,2.448,0,0,1-.4-1.382,2.774,2.774,0,0,1,1.141-2.278,4.7,4.7,0,0,1,2.987-.9,5.208,5.208,0,0,1,3.191.9,2.814,2.814,0,0,1,1.206,2.366H37.787q0-1.206-1.271-1.206a1.26,1.26,0,0,0-.826.274.847.847,0,0,0-.334.682.778.778,0,0,0,.408.677,3.857,3.857,0,0,0,1.3.427,11.264,11.264,0,0,1,1.573.4A2.857,2.857,0,0,1,40.9,17.087a2.629,2.629,0,0,1-1.22,2.236,5.35,5.35,0,0,1-3.159.863,5.46,5.46,0,0,1-2.3-.464,3.847,3.847,0,0,1-1.577-1.262,2.857,2.857,0,0,1-.566-1.679H35a1.208,1.208,0,0,0,.464,1.016,1.908,1.908,0,0,0,1.141.32,1.5,1.5,0,0,0,.96-.26A.831.831,0,0,0,37.889,17.18Zm7.58-1.457H42.936l-.4-9.231h3.331ZM42.444,18.6a1.44,1.44,0,0,1,.5-1.127,1.961,1.961,0,0,1,2.477,0,1.528,1.528,0,0,1,0,2.254,1.961,1.961,0,0,1-2.477,0A1.44,1.44,0,0,1,42.444,18.6Z" transform="translate(-5957 -8272)" fill="#12263f"/>
      <path id="Trazado_705299" data-name="Trazado 705299" d="M1.586-5.78H4.119l.4,9.231H1.188ZM4.611-8.656a1.44,1.44,0,0,1-.5,1.127,1.8,1.8,0,0,1-1.239.441,1.8,1.8,0,0,1-1.239-.441,1.44,1.44,0,0,1-.5-1.127,1.44,1.44,0,0,1,.5-1.127,1.8,1.8,0,0,1,1.239-.441,1.8,1.8,0,0,1,1.239.441A1.44,1.44,0,0,1,4.611-8.656ZM17.655-4.574a4.933,4.933,0,0,1-.761,2.491A4.591,4.591,0,0,1,14.941-.408,6.647,6.647,0,0,1,12.07.186,5.3,5.3,0,0,1,7.876-1.549a7.163,7.163,0,0,1-1.531-4.9v-.668a8.176,8.176,0,0,1,.691-3.474,5.237,5.237,0,0,1,1.99-2.3,5.552,5.552,0,0,1,3.006-.812,5.822,5.822,0,0,1,3.952,1.294,5.113,5.113,0,0,1,1.7,3.567H14.436a2.419,2.419,0,0,0-.622-1.772,2.556,2.556,0,0,0-1.781-.538,1.945,1.945,0,0,0-1.781.909,5.843,5.843,0,0,0-.594,2.9v.956A6.466,6.466,0,0,0,10.2-3.293a1.986,1.986,0,0,0,1.869.928,2.5,2.5,0,0,0,1.716-.529,2.244,2.244,0,0,0,.631-1.679Zm1-.538a5.925,5.925,0,0,1,.584-2.677,4.18,4.18,0,0,1,1.679-1.8,5.057,5.057,0,0,1,2.57-.631,4.616,4.616,0,0,1,3.553,1.4,5.358,5.358,0,0,1,1.3,3.8v.111a5.2,5.2,0,0,1-1.3,3.725A4.628,4.628,0,0,1,23.509.186,4.681,4.681,0,0,1,20.067-1.1a5.026,5.026,0,0,1-1.4-3.484Zm3.126.195a3.735,3.735,0,0,0,.436,2.041,1.453,1.453,0,0,0,1.29.649q1.67,0,1.707-2.57v-.315q0-2.7-1.726-2.7-1.568,0-1.7,2.329Zm10.808-5.121.1,1.178a3.4,3.4,0,0,1,2.867-1.364,2.864,2.864,0,0,1,2.343.937,4.461,4.461,0,0,1,.8,2.82V0H35.569V-6.336a1.694,1.694,0,0,0-.306-1.118,1.416,1.416,0,0,0-1.113-.357,1.491,1.491,0,0,0-1.364.724V0H29.66V-10.038ZM54.486-4.945a6.053,6.053,0,0,1-1.053,3.734,3.376,3.376,0,0,1-2.844,1.4A2.894,2.894,0,0,1,48.316-.826V3.859H45.19v-13.9h2.922l.093.928a2.894,2.894,0,0,1,2.366-1.113,3.4,3.4,0,0,1,2.885,1.368,6.128,6.128,0,0,1,1.03,3.762ZM51.359-5.14q0-2.672-1.559-2.672a1.471,1.471,0,0,0-1.484.8v3.952a1.519,1.519,0,0,0,1.5.835q1.494,0,1.54-2.579ZM60.72.186a5.16,5.16,0,0,1-3.739-1.378,4.757,4.757,0,0,1-1.429-3.586v-.26a6.165,6.165,0,0,1,.571-2.718,4.175,4.175,0,0,1,1.665-1.823,5.027,5.027,0,0,1,2.6-.645,4.345,4.345,0,0,1,3.34,1.313,5.159,5.159,0,0,1,1.225,3.66v1.215H58.735a2.253,2.253,0,0,0,.733,1.327,2.181,2.181,0,0,0,1.466.482,2.81,2.81,0,0,0,2.319-1.039l1.429,1.688A3.994,3.994,0,0,1,63.026-.292,5.6,5.6,0,0,1,60.72.186Zm-.353-8q-1.373,0-1.633,1.818h3.154v-.241a1.549,1.549,0,0,0-.38-1.164A1.514,1.514,0,0,0,60.368-7.812Zm11.912.6-1.03-.074a1.85,1.85,0,0,0-1.893.928V0H66.231V-10.038h2.932l.1,1.29a2.421,2.421,0,0,1,2.2-1.475,3.049,3.049,0,0,1,.872.111Zm4.082-2.83.1,1.178a3.451,3.451,0,0,1,2.867-1.364A2.541,2.541,0,0,1,81.9-8.711a3.341,3.341,0,0,1,2.95-1.512q3.052,0,3.136,3.692V0H84.851V-6.336a1.914,1.914,0,0,0-.26-1.123,1.106,1.106,0,0,0-.946-.353,1.481,1.481,0,0,0-1.382.826l.009.13V0H79.136V-6.318a2.011,2.011,0,0,0-.25-1.141,1.1,1.1,0,0,0-.956-.353,1.5,1.5,0,0,0-1.373.826V0H73.43V-10.038ZM93.07,0H89.935V-10.038H93.07ZM89.749-12.636a1.408,1.408,0,0,1,.482-1.1,1.813,1.813,0,0,1,1.252-.429,1.813,1.813,0,0,1,1.252.429,1.408,1.408,0,0,1,.482,1.1,1.408,1.408,0,0,1-.482,1.1,1.813,1.813,0,0,1-1.252.429,1.813,1.813,0,0,1-1.252-.429A1.408,1.408,0,0,1,89.749-12.636Zm10.5,9.815a.722.722,0,0,0-.417-.64,6.35,6.35,0,0,0-1.586-.5,7.234,7.234,0,0,1-1.93-.682,3.232,3.232,0,0,1-1.16-1.025,2.448,2.448,0,0,1-.4-1.382A2.774,2.774,0,0,1,95.9-9.328a4.7,4.7,0,0,1,2.987-.9,5.208,5.208,0,0,1,3.191.9,2.814,2.814,0,0,1,1.206,2.366h-3.136q0-1.206-1.271-1.206a1.26,1.26,0,0,0-.826.274.847.847,0,0,0-.334.682.778.778,0,0,0,.408.677,3.857,3.857,0,0,0,1.3.427,11.264,11.264,0,0,1,1.573.4,2.857,2.857,0,0,1,2.264,2.792,2.629,2.629,0,0,1-1.22,2.236,5.35,5.35,0,0,1-3.159.863,5.46,5.46,0,0,1-2.3-.464A3.847,3.847,0,0,1,95.009-1.54a2.857,2.857,0,0,1-.566-1.679h2.922A1.208,1.208,0,0,0,97.83-2.2a1.908,1.908,0,0,0,1.141.32,1.5,1.5,0,0,0,.96-.26A.831.831,0,0,0,100.251-2.82Zm4.082-2.292a5.925,5.925,0,0,1,.584-2.677,4.18,4.18,0,0,1,1.679-1.8,5.057,5.057,0,0,1,2.57-.631,4.616,4.616,0,0,1,3.553,1.4,5.358,5.358,0,0,1,1.3,3.8v.111a5.2,5.2,0,0,1-1.3,3.725,4.628,4.628,0,0,1-3.53,1.378A4.681,4.681,0,0,1,105.743-1.1a5.026,5.026,0,0,1-1.4-3.484Zm3.126.195a3.735,3.735,0,0,0,.436,2.041,1.453,1.453,0,0,0,1.29.649q1.67,0,1.707-2.57v-.315q0-2.7-1.726-2.7-1.568,0-1.7,2.329ZM116.5,3.637l-1.577-.742.315-.631a5.145,5.145,0,0,0,.677-2.3V-2.356h2.5l-.009,2.013a5.032,5.032,0,0,1-.547,2.171A5.516,5.516,0,0,1,116.5,3.637ZM6.132,17.18a.722.722,0,0,0-.417-.64,6.35,6.35,0,0,0-1.586-.5,7.234,7.234,0,0,1-1.93-.682,3.232,3.232,0,0,1-1.16-1.025,2.448,2.448,0,0,1-.4-1.382,2.774,2.774,0,0,1,1.141-2.278,4.7,4.7,0,0,1,2.987-.9,5.208,5.208,0,0,1,3.191.9,2.814,2.814,0,0,1,1.206,2.366H6.03q0-1.206-1.271-1.206a1.26,1.26,0,0,0-.826.274.847.847,0,0,0-.334.682.778.778,0,0,0,.408.677,3.857,3.857,0,0,0,1.3.427,11.264,11.264,0,0,1,1.573.4,2.857,2.857,0,0,1,2.264,2.792,2.629,2.629,0,0,1-1.22,2.236,5.35,5.35,0,0,1-3.159.863,5.46,5.46,0,0,1-2.3-.464A3.847,3.847,0,0,1,.891,18.46a2.857,2.857,0,0,1-.566-1.679H3.247A1.208,1.208,0,0,0,3.711,17.8a1.908,1.908,0,0,0,1.141.32,1.5,1.5,0,0,0,.96-.26A.831.831,0,0,0,6.132,17.18Zm10.456,1.735a3.223,3.223,0,0,1-2.681,1.271,3.161,3.161,0,0,1-2.5-.96,4.038,4.038,0,0,1-.849-2.76v-6.5h3.126v6.522a1.124,1.124,0,0,0,1.252,1.29A1.634,1.634,0,0,0,16.467,17V9.962h3.145V20H16.681Zm7.691-8.953.1,1.178a3.451,3.451,0,0,1,2.867-1.364,2.541,2.541,0,0,1,2.57,1.512,3.341,3.341,0,0,1,2.95-1.512q3.052,0,3.136,3.692V20H32.768V13.664a1.914,1.914,0,0,0-.26-1.123,1.106,1.106,0,0,0-.946-.353,1.481,1.481,0,0,0-1.382.826l.009.13V20H27.053V13.682a2.011,2.011,0,0,0-.25-1.141,1.1,1.1,0,0,0-.956-.353,1.5,1.5,0,0,0-1.373.826V20H21.347V9.962ZM42.546,20.186a5.16,5.16,0,0,1-3.739-1.378,4.757,4.757,0,0,1-1.429-3.586v-.26a6.165,6.165,0,0,1,.571-2.718,4.175,4.175,0,0,1,1.665-1.823,5.027,5.027,0,0,1,2.6-.645,4.345,4.345,0,0,1,3.34,1.313,5.159,5.159,0,0,1,1.225,3.66v1.215H40.561a2.253,2.253,0,0,0,.733,1.327,2.181,2.181,0,0,0,1.466.482,2.81,2.81,0,0,0,2.319-1.039l1.429,1.688a3.994,3.994,0,0,1-1.656,1.285A5.6,5.6,0,0,1,42.546,20.186Zm-.353-8q-1.373,0-1.633,1.818h3.154v-.241a1.549,1.549,0,0,0-.38-1.164A1.514,1.514,0,0,0,42.193,12.188Zm11.912.6-1.03-.074a1.85,1.85,0,0,0-1.893.928V20H48.057V9.962h2.932l.1,1.29a2.421,2.421,0,0,1,2.2-1.475,3.049,3.049,0,0,1,.872.111Zm5.2,4.982a1.391,1.391,0,0,0,1.021-.357,1.31,1.31,0,0,0,.353-1h2.932a3.47,3.47,0,0,1-1.183,2.709,4.4,4.4,0,0,1-3.048,1.058,4.455,4.455,0,0,1-3.451-1.373,5.41,5.41,0,0,1-1.262-3.8v-.13a6.114,6.114,0,0,1,.561-2.686A4.087,4.087,0,0,1,56.842,10.4a4.827,4.827,0,0,1,2.5-.626,4.344,4.344,0,0,1,3.108,1.085,3.85,3.85,0,0,1,1.15,2.941H60.674a1.716,1.716,0,0,0-.38-1.2,1.313,1.313,0,0,0-1.021-.417q-1.215,0-1.419,1.549a10.933,10.933,0,0,0-.065,1.354,4.294,4.294,0,0,0,.362,2.1A1.253,1.253,0,0,0,59.3,17.773Zm10.483,2.412a5.16,5.16,0,0,1-3.739-1.378,4.757,4.757,0,0,1-1.429-3.586v-.26a6.165,6.165,0,0,1,.571-2.718,4.175,4.175,0,0,1,1.665-1.823,5.027,5.027,0,0,1,2.6-.645,4.345,4.345,0,0,1,3.34,1.313,5.159,5.159,0,0,1,1.225,3.66v1.215H67.8a2.253,2.253,0,0,0,.733,1.327A2.181,2.181,0,0,0,70,17.773a2.81,2.81,0,0,0,2.319-1.039l1.429,1.688a3.994,3.994,0,0,1-1.656,1.285A5.6,5.6,0,0,1,69.784,20.186Zm-.353-8q-1.373,0-1.633,1.818h3.154v-.241a1.549,1.549,0,0,0-.38-1.164A1.514,1.514,0,0,0,69.432,12.188Zm-.037-6.448h3.3L70.118,8.654l-2.551,0Zm8.98,9.982H75.842l-.4-9.231h3.331ZM75.351,18.6a1.44,1.44,0,0,1,.5-1.127,1.961,1.961,0,0,1,2.477,0,1.528,1.528,0,0,1,0,2.254,1.961,1.961,0,0,1-2.477,0A1.44,1.44,0,0,1,75.351,18.6Z" transform="translate(-5986 -8001)" fill="#12263f"/>
      <path id="Trazado_705300" data-name="Trazado 705300" d="M1.67-6.084H4.336l.42,9.717H1.25ZM4.854-9.111a1.516,1.516,0,0,1-.522,1.187,1.892,1.892,0,0,1-1.3.464,1.892,1.892,0,0,1-1.3-.464A1.516,1.516,0,0,1,1.2-9.111,1.516,1.516,0,0,1,1.724-10.3a1.892,1.892,0,0,1,1.3-.464,1.892,1.892,0,0,1,1.3.464A1.516,1.516,0,0,1,4.854-9.111ZM19.121-6.816a8.385,8.385,0,0,1-.771,3.682A5.7,5.7,0,0,1,16.157-.669,6.1,6.1,0,0,1,12.92.2,6.191,6.191,0,0,1,9.7-.64,5.692,5.692,0,0,1,7.5-3.027,8.144,8.144,0,0,1,6.68-6.592v-.8a8.422,8.422,0,0,1,.767-3.687,5.688,5.688,0,0,1,2.2-2.466,6.147,6.147,0,0,1,3.257-.869,6.087,6.087,0,0,1,3.223.859,5.79,5.79,0,0,1,2.2,2.446,8.18,8.18,0,0,1,.8,3.638Zm-3.486-.6a5.979,5.979,0,0,0-.708-3.218,2.271,2.271,0,0,0-2.026-1.1q-2.578,0-2.725,3.867l-.01,1.045A6.149,6.149,0,0,0,10.859-3.6,2.268,2.268,0,0,0,12.92-2.48a2.24,2.24,0,0,0,2-1.1,5.982,5.982,0,0,0,.713-3.174ZM24.209,0h-3.3V-15h3.3Zm7.139.2a5.432,5.432,0,0,1-3.936-1.45,5.008,5.008,0,0,1-1.5-3.774V-5.3a6.489,6.489,0,0,1,.6-2.861,4.395,4.395,0,0,1,1.753-1.919A5.292,5.292,0,0,1,31-10.762,4.574,4.574,0,0,1,34.512-9.38,5.43,5.43,0,0,1,35.8-5.527v1.279H29.258a2.372,2.372,0,0,0,.771,1.4,2.3,2.3,0,0,0,1.543.508,2.958,2.958,0,0,0,2.441-1.094l1.5,1.777A4.2,4.2,0,0,1,33.774-.308,5.891,5.891,0,0,1,31.348.2Zm-.371-8.418q-1.445,0-1.719,1.914h3.32v-.254a1.63,1.63,0,0,0-.4-1.226A1.593,1.593,0,0,0,30.977-8.223Zm14.238-2.344.107,1.24a3.633,3.633,0,0,1,3.018-1.436A2.675,2.675,0,0,1,51.045-9.17a3.516,3.516,0,0,1,3.105-1.592q3.213,0,3.3,3.887V0h-3.3V-6.67a2.014,2.014,0,0,0-.273-1.182,1.164,1.164,0,0,0-1-.371,1.559,1.559,0,0,0-1.455.869l.01.137V0h-3.3V-6.65a2.117,2.117,0,0,0-.264-1.2,1.161,1.161,0,0,0-1.006-.371,1.578,1.578,0,0,0-1.445.869V0H42.129V-10.566ZM65.283,0a3.716,3.716,0,0,1-.312-.947A3.06,3.06,0,0,1,62.432.2a3.749,3.749,0,0,1-2.539-.9,2.875,2.875,0,0,1-1.045-2.271,2.955,2.955,0,0,1,1.27-2.6,6.468,6.468,0,0,1,3.691-.879h1.016v-.559q0-1.462-1.26-1.462a1.03,1.03,0,0,0-1.172,1.158H59.1a2.95,2.95,0,0,1,1.3-2.487,5.479,5.479,0,0,1,3.325-.956,4.8,4.8,0,0,1,3.193.986,3.429,3.429,0,0,1,1.2,2.705v4.678a4.79,4.79,0,0,0,.449,2.227V0ZM63.223-2.148a1.836,1.836,0,0,0,1.021-.264,1.653,1.653,0,0,0,.581-.6V-4.7h-.957q-1.719,0-1.719,1.543a.942.942,0,0,0,.3.728A1.1,1.1,0,0,0,63.223-2.148Zm9.746-8.418.107,1.24a3.583,3.583,0,0,1,3.018-1.436,3.015,3.015,0,0,1,2.466.986A4.7,4.7,0,0,1,79.4-6.807V0H76.1V-6.67a1.783,1.783,0,0,0-.322-1.177,1.491,1.491,0,0,0-1.172-.376,1.569,1.569,0,0,0-1.436.762V0H69.883V-10.566Zm7.842,5.186A6.236,6.236,0,0,1,81.426-8.2a4.4,4.4,0,0,1,1.768-1.9,5.323,5.323,0,0,1,2.705-.664,4.858,4.858,0,0,1,3.74,1.47,5.64,5.64,0,0,1,1.367,4v.117a5.472,5.472,0,0,1-1.372,3.921A4.871,4.871,0,0,1,85.918.2a4.927,4.927,0,0,1-3.623-1.353A5.29,5.29,0,0,1,80.82-4.824Zm3.291.205a3.932,3.932,0,0,0,.459,2.148,1.529,1.529,0,0,0,1.357.684q1.758,0,1.8-2.705v-.332q0-2.842-1.816-2.842-1.65,0-1.787,2.451ZM95.723-4.5H93.057l-.42-9.717h3.506ZM92.539-1.475a1.516,1.516,0,0,1,.522-1.187,1.892,1.892,0,0,1,1.3-.464,1.892,1.892,0,0,1,1.3.464,1.516,1.516,0,0,1,.522,1.187,1.516,1.516,0,0,1-.522,1.187,1.892,1.892,0,0,1-1.3.464,1.892,1.892,0,0,1-1.3-.464A1.516,1.516,0,0,1,92.539-1.475Z" transform="translate(-5669 -8258)" fill="#12263f"/>
      <path id="Trazado_705301" data-name="Trazado 705301" d="M1.586-5.78H4.119l.4,9.231H1.188ZM4.611-8.656a1.44,1.44,0,0,1-.5,1.127,1.8,1.8,0,0,1-1.239.441,1.8,1.8,0,0,1-1.239-.441,1.44,1.44,0,0,1-.5-1.127,1.44,1.44,0,0,1,.5-1.127,1.8,1.8,0,0,1,1.239-.441,1.8,1.8,0,0,1,1.239.441A1.44,1.44,0,0,1,4.611-8.656ZM11-13.508l3.015,9.4,3.006-9.4H21.31V0H18.044V-3.154l.315-6.457L15.094,0H12.942L9.667-9.621l.315,6.466V0H6.726V-13.508ZM26.533,0H23.4V-10.038h3.136ZM23.212-12.636a1.408,1.408,0,0,1,.482-1.1,1.813,1.813,0,0,1,1.252-.429,1.813,1.813,0,0,1,1.252.429,1.408,1.408,0,0,1,.482,1.1,1.408,1.408,0,0,1-.482,1.1,1.813,1.813,0,0,1-1.252.429,1.813,1.813,0,0,1-1.252-.429A1.408,1.408,0,0,1,23.212-12.636ZM34.53-7.208,33.5-7.283a1.85,1.85,0,0,0-1.893.928V0H28.481V-10.038h2.932l.1,1.29a2.421,2.421,0,0,1,2.2-1.475,3.049,3.049,0,0,1,.872.111ZM41.034,0a3.53,3.53,0,0,1-.3-.9A2.907,2.907,0,0,1,38.325.186a3.562,3.562,0,0,1-2.412-.858A2.731,2.731,0,0,1,34.92-2.83,2.807,2.807,0,0,1,36.126-5.3a6.144,6.144,0,0,1,3.507-.835H40.6v-.531q0-1.389-1.2-1.389a.978.978,0,0,0-1.113,1.1H35.161A2.8,2.8,0,0,1,36.4-9.316a5.2,5.2,0,0,1,3.159-.908,4.563,4.563,0,0,1,3.034.937,3.258,3.258,0,0,1,1.141,2.57v4.444A4.551,4.551,0,0,0,44.16-.158V0ZM39.076-2.041a1.744,1.744,0,0,0,.969-.25,1.57,1.57,0,0,0,.552-.566v-1.6h-.909q-1.633,0-1.633,1.466a.9.9,0,0,0,.288.691A1.041,1.041,0,0,0,39.076-2.041Zm.779-12.209h3.3l-2.579,2.913-2.551,0ZM46.563,3.637l-1.577-.742.315-.631a5.145,5.145,0,0,0,.677-2.3V-2.356h2.5L48.474-.343a5.032,5.032,0,0,1-.547,2.171A5.516,5.516,0,0,1,46.563,3.637ZM59.319-3.72l1.586-6.318H64.2L60.924,0H57.733L54.458-10.038h3.3ZM69.868.186a5.16,5.16,0,0,1-3.739-1.378A4.757,4.757,0,0,1,64.7-4.778v-.26a6.165,6.165,0,0,1,.571-2.718,4.175,4.175,0,0,1,1.665-1.823,5.027,5.027,0,0,1,2.6-.645,4.345,4.345,0,0,1,3.34,1.313A5.159,5.159,0,0,1,74.1-5.251v1.215H67.882a2.253,2.253,0,0,0,.733,1.327,2.181,2.181,0,0,0,1.466.482A2.81,2.81,0,0,0,72.4-3.266l1.429,1.688A3.994,3.994,0,0,1,72.173-.292,5.6,5.6,0,0,1,69.868.186Zm-.353-8q-1.373,0-1.633,1.818h3.154v-.241a1.549,1.549,0,0,0-.38-1.164A1.514,1.514,0,0,0,69.515-7.812Zm8.943,3.535H75.926l-.4-9.231h3.331ZM75.434-1.4a1.44,1.44,0,0,1,.5-1.127,1.8,1.8,0,0,1,1.239-.441,1.8,1.8,0,0,1,1.239.441A1.44,1.44,0,0,1,78.9-1.4a1.44,1.44,0,0,1-.5,1.127,1.8,1.8,0,0,1-1.239.441A1.8,1.8,0,0,1,75.93-.274,1.44,1.44,0,0,1,75.434-1.4Z" transform="translate(-5580 -8051)" fill="#12263f"/>
      <path id="Trazado_705302" data-name="Trazado 705302" d="M1.586-5.78H4.119l.4,9.231H1.188ZM4.611-8.656a1.44,1.44,0,0,1-.5,1.127,1.8,1.8,0,0,1-1.239.441,1.8,1.8,0,0,1-1.239-.441,1.44,1.44,0,0,1-.5-1.127,1.44,1.44,0,0,1,.5-1.127,1.8,1.8,0,0,1,1.239-.441,1.8,1.8,0,0,1,1.239.441A1.44,1.44,0,0,1,4.611-8.656ZM17.655-4.574a4.933,4.933,0,0,1-.761,2.491A4.591,4.591,0,0,1,14.941-.408,6.647,6.647,0,0,1,12.07.186,5.3,5.3,0,0,1,7.876-1.549a7.163,7.163,0,0,1-1.531-4.9v-.668a8.176,8.176,0,0,1,.691-3.474,5.237,5.237,0,0,1,1.99-2.3,5.552,5.552,0,0,1,3.006-.812,5.822,5.822,0,0,1,3.952,1.294,5.113,5.113,0,0,1,1.7,3.567H14.436a2.419,2.419,0,0,0-.622-1.772,2.556,2.556,0,0,0-1.781-.538,1.945,1.945,0,0,0-1.781.909,5.843,5.843,0,0,0-.594,2.9v.956A6.466,6.466,0,0,0,10.2-3.293a1.986,1.986,0,0,0,1.869.928,2.5,2.5,0,0,0,1.716-.529,2.244,2.244,0,0,0,.631-1.679Zm4.453-4.388a3.129,3.129,0,0,1,2.561-1.262,3.12,3.12,0,0,1,2.5.983,4.419,4.419,0,0,1,.863,2.9V0H24.9V-6.262a1.767,1.767,0,0,0-.325-1.174,1.4,1.4,0,0,0-1.1-.376,1.5,1.5,0,0,0-1.364.612V0H18.981V-14.25h3.126ZM34.632.186a5.16,5.16,0,0,1-3.739-1.378,4.757,4.757,0,0,1-1.429-3.586v-.26a6.165,6.165,0,0,1,.571-2.718A4.175,4.175,0,0,1,31.7-9.579a5.027,5.027,0,0,1,2.6-.645,4.345,4.345,0,0,1,3.34,1.313,5.159,5.159,0,0,1,1.225,3.66v1.215H32.647a2.253,2.253,0,0,0,.733,1.327,2.181,2.181,0,0,0,1.466.482,2.81,2.81,0,0,0,2.319-1.039l1.429,1.688A3.994,3.994,0,0,1,36.938-.292,5.6,5.6,0,0,1,34.632.186Zm-.353-8q-1.373,0-1.633,1.818H35.8v-.241a1.549,1.549,0,0,0-.38-1.164A1.514,1.514,0,0,0,34.28-7.812Zm-.037-6.448h3.3l-2.579,2.913-2.551,0ZM44-3.72l1.586-6.318h3.293L45.607,0H42.416L39.141-10.038h3.3ZM54.551.186a5.16,5.16,0,0,1-3.739-1.378,4.757,4.757,0,0,1-1.429-3.586v-.26a6.165,6.165,0,0,1,.571-2.718,4.175,4.175,0,0,1,1.665-1.823,5.027,5.027,0,0,1,2.6-.645,4.345,4.345,0,0,1,3.34,1.313,5.159,5.159,0,0,1,1.225,3.66v1.215H52.565A2.253,2.253,0,0,0,53.3-2.709a2.181,2.181,0,0,0,1.466.482,2.81,2.81,0,0,0,2.319-1.039l1.429,1.688A3.994,3.994,0,0,1,56.856-.292,5.6,5.6,0,0,1,54.551.186Zm-.353-8q-1.373,0-1.633,1.818H55.72v-.241a1.549,1.549,0,0,0-.38-1.164A1.514,1.514,0,0,0,54.2-7.812Zm11.912.6-1.03-.074a1.85,1.85,0,0,0-1.893.928V0H60.062V-10.038h2.932l.1,1.29a2.421,2.421,0,0,1,2.2-1.475,3.049,3.049,0,0,1,.872.111ZM71.918.186a5.16,5.16,0,0,1-3.739-1.378A4.757,4.757,0,0,1,66.75-4.778v-.26a6.165,6.165,0,0,1,.571-2.718,4.175,4.175,0,0,1,1.665-1.823,5.027,5.027,0,0,1,2.6-.645,4.345,4.345,0,0,1,3.34,1.313,5.159,5.159,0,0,1,1.225,3.66v1.215H69.933a2.253,2.253,0,0,0,.733,1.327,2.181,2.181,0,0,0,1.466.482,2.81,2.81,0,0,0,2.319-1.039l1.429,1.688A3.994,3.994,0,0,1,74.223-.292,5.6,5.6,0,0,1,71.918.186Zm-.353-8q-1.373,0-1.633,1.818h3.154v-.241a1.549,1.549,0,0,0-.38-1.164A1.514,1.514,0,0,0,71.565-7.812Zm8.943,3.535H77.976l-.4-9.231h3.331ZM77.484-1.4a1.44,1.44,0,0,1,.5-1.127,1.8,1.8,0,0,1,1.239-.441,1.8,1.8,0,0,1,1.239.441,1.44,1.44,0,0,1,.5,1.127,1.44,1.44,0,0,1-.5,1.127,1.8,1.8,0,0,1-1.239.441,1.8,1.8,0,0,1-1.239-.441A1.44,1.44,0,0,1,77.484-1.4Z" transform="translate(-5772 -7953)" fill="#12263f"/>
      <g id="Grupo_998318" data-name="Grupo 998318" transform="translate(-5635.701 -8227.625)" clip-path="url(#clip-path-9)">
        <g id="Grupo_998317" data-name="Grupo 998317">
          <g id="Grupo_998316" data-name="Grupo 998316" clip-path="url(#clip-path-9)">
            <path id="Trazado_697252" data-name="Trazado 697252" d="M63.957,96.9H2.478l0-66.166a30.74,30.74,0,1,1,61.479,0Z" transform="translate(-0.469)" fill="#ffb621"/>
            <path id="Trazado_697253" data-name="Trazado 697253" d="M65.5,126.309c0,9.1-65.5,9.1-65.5,0V106.823A23.654,23.654,0,0,1,23.653,83.169h18.19A23.654,23.654,0,0,1,65.5,106.823Z" transform="translate(0 -15.729)" fill="#a164a5"/>
            <g id="Grupo_998306" data-name="Grupo 998306" transform="translate(9.463 67.44)" opacity="0.1">
              <g id="Grupo_998305" data-name="Grupo 998305">
                <g id="Grupo_998304" data-name="Grupo 998304" clip-path="url(#clip-path-11)">
                  <path id="Trazado_697254" data-name="Trazado 697254" d="M44.052,83.169H25.861A23.55,23.55,0,0,0,11.67,87.9a57.938,57.938,0,0,0,55.916,16.534A23.657,23.657,0,0,0,44.052,83.169" transform="translate(-11.67 -83.169)"/>
                </g>
              </g>
            </g>
            <path id="Trazado_697255" data-name="Trazado 697255" d="M46,82.909h0a12.974,12.974,0,0,1-14.648,0h0V57.1H46Z" transform="translate(-5.93 -10.798)" fill="#ebc39f"/>
            <g id="Grupo_998309" data-name="Grupo 998309" transform="translate(25.425 49.111)" opacity="0.1">
              <g id="Grupo_998308" data-name="Grupo 998308">
                <g id="Grupo_998307" data-name="Grupo 998307" clip-path="url(#clip-path-12)">
                  <path id="Trazado_697256" data-name="Trazado 697256" d="M31.355,78.021a47.484,47.484,0,0,0,14.649,5V61.126c-.688-.124-1.378-.227-2.065-.3a54.83,54.83,0,0,0-12.583.23Z" transform="translate(-31.355 -60.565)"/>
                </g>
              </g>
            </g>
            <path id="Trazado_697257" data-name="Trazado 697257" d="M18.283,46.777a7.32,7.32,0,1,1-7.321-7.321,7.321,7.321,0,0,1,7.321,7.321" transform="translate(-0.689 -7.462)" fill="#ebc39f"/>
            <path id="Trazado_697258" data-name="Trazado 697258" d="M15.531,47.614A3.731,3.731,0,1,1,11.8,43.883a3.73,3.73,0,0,1,3.731,3.731" transform="translate(-1.526 -8.299)" fill="#cca17a"/>
            <path id="Trazado_697259" data-name="Trazado 697259" d="M73.717,46.777A7.32,7.32,0,1,1,66.4,39.456a7.321,7.321,0,0,1,7.321,7.321" transform="translate(-11.173 -7.462)" fill="#ebc39f"/>
            <path id="Trazado_697260" data-name="Trazado 697260" d="M70.965,47.614a3.731,3.731,0,1,1-3.731-3.731,3.731,3.731,0,0,1,3.731,3.731" transform="translate(-12.01 -8.299)" fill="#cca17a"/>
            <path id="Trazado_697261" data-name="Trazado 697261" d="M35.145,70.828h0A22.475,22.475,0,0,1,12.67,48.353V31.307A13.391,13.391,0,0,1,26.061,17.916H44.229A13.391,13.391,0,0,1,57.62,31.307V48.353A22.475,22.475,0,0,1,35.145,70.828" transform="translate(-2.396 -3.388)" fill="#fcd1ab"/>
            <path id="Trazado_697262" data-name="Trazado 697262" d="M28.605,49.589c0,1.791-.848,3.243-1.894,3.243s-1.894-1.451-1.894-3.243.848-3.243,1.894-3.243,1.894,1.451,1.894,3.243" transform="translate(-4.693 -8.765)" fill="#365ea3"/>
            <path id="Trazado_697263" data-name="Trazado 697263" d="M27.428,49.523a.979.979,0,1,1-.98-.98.98.98,0,0,1,.98.98" transform="translate(-4.817 -9.181)" fill="#fff"/>
            <path id="Trazado_697264" data-name="Trazado 697264" d="M28.132,52.329a.49.49,0,1,1-.49-.49.49.49,0,0,1,.49.49" transform="translate(-5.135 -9.804)" fill="#fff"/>
            <path id="Trazado_697265" data-name="Trazado 697265" d="M55.074,49.589c0,1.791-.848,3.243-1.894,3.243s-1.894-1.451-1.894-3.243.848-3.243,1.894-3.243,1.894,1.451,1.894,3.243" transform="translate(-9.699 -8.765)" fill="#365ea3"/>
            <path id="Trazado_697266" data-name="Trazado 697266" d="M53.9,49.523a.979.979,0,1,1-.98-.98.98.98,0,0,1,.98.98" transform="translate(-9.823 -9.181)" fill="#fff"/>
            <path id="Trazado_697267" data-name="Trazado 697267" d="M54.6,52.329a.49.49,0,1,1-.49-.49.49.49,0,0,1,.49.49" transform="translate(-10.141 -9.804)" fill="#fff"/>
            <path id="Trazado_697268" data-name="Trazado 697268" d="M25.84,57.864c0,1.269-2.419,2.3-5.4,2.3s-5.4-1.029-5.4-2.3,2.419-2.3,5.4-2.3,5.4,1.028,5.4,2.3" transform="translate(-2.844 -10.509)" fill="#ffac7f"/>
            <path id="Trazado_697269" data-name="Trazado 697269" d="M63.218,57.864c0,1.269-2.419,2.3-5.4,2.3s-5.4-1.029-5.4-2.3,2.419-2.3,5.4-2.3,5.4,1.028,5.4,2.3" transform="translate(-9.913 -10.509)" fill="#ffac7f"/>
            <path id="Trazado_697270" data-name="Trazado 697270" d="M41.975,55.083A2.071,2.071,0,1,1,39.9,53.012a2.071,2.071,0,0,1,2.071,2.071" transform="translate(-7.155 -10.026)" fill="#ffac7f"/>
            <g id="Grupo_998312" data-name="Grupo 998312" transform="translate(10.754 98.031)" opacity="0.1">
              <g id="Grupo_998311" data-name="Grupo 998311">
                <g id="Grupo_998310" data-name="Grupo 998310" clip-path="url(#clip-path-13)">
                  <path id="Trazado_697271" data-name="Trazado 697271" d="M14.221,120.894h0a.96.96,0,0,0-.959.959v17h1.919v-17a.96.96,0,0,0-.959-.959" transform="translate(-13.262 -120.894)"/>
                </g>
              </g>
            </g>
            <g id="Grupo_998315" data-name="Grupo 998315" transform="translate(52.826 98.031)" opacity="0.1">
              <g id="Grupo_998314" data-name="Grupo 998314">
                <g id="Grupo_998313" data-name="Grupo 998313" clip-path="url(#clip-path-14)">
                  <path id="Trazado_697272" data-name="Trazado 697272" d="M66.106,120.894h0a.96.96,0,0,0-.959.959V139l1.919-.41V121.853a.96.96,0,0,0-.959-.959" transform="translate(-65.147 -120.894)"/>
                </g>
              </g>
            </g>
            <path id="Trazado_697273" data-name="Trazado 697273" d="M27.351,62.372a10.719,10.719,0,0,0,21.141,0Z" transform="translate(-5.173 -11.796)" fill="#b8916e"/>
            <path id="Trazado_697274" data-name="Trazado 697274" d="M46.768,67.781a12.791,12.791,0,0,0-16.642,0,10.7,10.7,0,0,0,16.642,0" transform="translate(-5.697 -12.237)" fill="#ffac7f"/>
            <path id="Trazado_697275" data-name="Trazado 697275" d="M47.745,64.86a10.677,10.677,0,0,0,.747-2.489H27.351A10.678,10.678,0,0,0,28.1,64.86Z" transform="translate(-5.173 -11.796)" fill="#fff"/>
            <path id="Trazado_697276" data-name="Trazado 697276" d="M9.721,51.176A77.523,77.523,0,0,0,17.5,29.405a42.922,42.922,0,0,0,22.229,7.541c-.679-.853-1.378-1.653-2.056-2.507A22.1,22.1,0,0,1,57.952,51.584a36.506,36.506,0,0,0,.83-22.709C57.539,24.72,56.551,19.951,53.8,16.6a18.488,18.488,0,0,0-9.392-5.7,55.139,55.139,0,0,0-11.03-1.558c-4.3-.313-8.887-.563-12.622,1.585-3.3,1.9-5.352,5.349-7.253,8.65A35.835,35.835,0,0,0,9.761,27.5c-1.036,3.647-.89,7.51-.735,11.3.178,4.352.516,8.031.694,12.383" transform="translate(-1.686 -1.727)" fill="#ffb621"/>
          </g>
        </g>
      </g>
      <g id="Grupo_998334" data-name="Grupo 998334" transform="translate(-5600.862 -8024.833)" clip-path="url(#clip-path-15)">
        <g id="Grupo_998333" data-name="Grupo 998333">
          <g id="Grupo_998332" data-name="Grupo 998332" clip-path="url(#clip-path-15)">
            <path id="Trazado_697277" data-name="Trazado 697277" d="M66.339,36.938A12.045,12.045,0,0,0,61.1,26.993,12.041,12.041,0,0,0,50.267,9.647c-.244,0-.483.022-.724.037A12.052,12.052,0,0,0,33.169.9,12.052,12.052,0,0,0,16.795,9.683c-.241-.014-.479-.037-.724-.037A12.041,12.041,0,0,0,5.242,26.993a12.041,12.041,0,0,0-.41,19.583A12.022,12.022,0,0,0,16.553,61.42a12.03,12.03,0,0,0,16.616,7.6,12.031,12.031,0,0,0,16.616-7.6A12.022,12.022,0,0,0,61.507,46.576a12.031,12.031,0,0,0,4.832-9.639m-38.2,9.07a12.056,12.056,0,0,0-4.35-6.286,11.868,11.868,0,0,0-.9-8.069,12.062,12.062,0,0,0,5-7.566c.241.014.48.037.724.037a12.007,12.007,0,0,0,4.55-.895,12.013,12.013,0,0,0,4.551.895c.244,0,.483-.022.724-.037a12.062,12.062,0,0,0,5,7.566,11.877,11.877,0,0,0-.9,8.069,12.055,12.055,0,0,0-4.35,6.286,12,12,0,0,0-5.033,1.112,12,12,0,0,0-5.032-1.112" transform="translate(0 0)" fill="#38271d"/>
            <path id="Trazado_697278" data-name="Trazado 697278" d="M63.771,128.969c0,8.035-57.825,8.035-57.825,0v-17.2A20.883,20.883,0,0,1,26.828,90.883H42.888a20.883,20.883,0,0,1,20.883,20.883Z" transform="translate(-1.689 -25.821)" fill="#a1d26e"/>
            <g id="Grupo_998322" data-name="Grupo 998322" transform="translate(12.611 65.062)" opacity="0.1">
              <g id="Grupo_998321" data-name="Grupo 998321">
                <g id="Grupo_998320" data-name="Grupo 998320" clip-path="url(#clip-path-17)">
                  <path id="Trazado_697279" data-name="Trazado 697279" d="M46.2,90.883H30.145a20.792,20.792,0,0,0-12.529,4.175,51.151,51.151,0,0,0,49.365,14.6A20.886,20.886,0,0,0,46.2,90.883" transform="translate(-17.616 -90.883)"/>
                </g>
              </g>
            </g>
            <path id="Trazado_697280" data-name="Trazado 697280" d="M50.232,87.6h0a11.454,11.454,0,0,1-12.932,0h0V64.809H50.232Z" transform="translate(-10.597 -18.413)" fill="#78583d"/>
            <g id="Grupo_998325" data-name="Grupo 998325" transform="translate(26.703 48.88)" opacity="0.1">
              <g id="Grupo_998324" data-name="Grupo 998324">
                <g id="Grupo_998323" data-name="Grupo 998323" clip-path="url(#clip-path-18)">
                  <path id="Trazado_697281" data-name="Trazado 697281" d="M37.3,83.69A41.922,41.922,0,0,0,50.233,88.1V68.774c-.607-.11-1.217-.2-1.823-.265a48.406,48.406,0,0,0-11.109.2Z" transform="translate(-37.301 -68.279)"/>
                </g>
              </g>
            </g>
            <path id="Trazado_697282" data-name="Trazado 697282" d="M22.514,53.633a6.463,6.463,0,1,1-6.463-6.463,6.463,6.463,0,0,1,6.463,6.463" transform="translate(-2.724 -13.402)" fill="#6e5038"/>
            <path id="Trazado_697283" data-name="Trazado 697283" d="M20.6,54.891A3.294,3.294,0,1,1,17.309,51.6,3.294,3.294,0,0,1,20.6,54.891" transform="translate(-3.982 -14.66)" fill="#543e2b"/>
            <path id="Trazado_697284" data-name="Trazado 697284" d="M77.947,53.633a6.463,6.463,0,1,1-6.463-6.463,6.463,6.463,0,0,1,6.463,6.463" transform="translate(-18.474 -13.402)" fill="#6e5038"/>
            <path id="Trazado_697285" data-name="Trazado 697285" d="M76.037,54.891A3.294,3.294,0,1,1,72.743,51.6a3.294,3.294,0,0,1,3.294,3.294" transform="translate(-19.732 -14.66)" fill="#543e2b"/>
            <path id="Trazado_697286" data-name="Trazado 697286" d="M38.458,72.344h0A19.842,19.842,0,0,1,18.616,52.5V37.452A11.823,11.823,0,0,1,30.438,25.63h16.04A11.823,11.823,0,0,1,58.3,37.452V52.5A19.842,19.842,0,0,1,38.458,72.344" transform="translate(-5.289 -7.282)" fill="#876345"/>
            <path id="Trazado_697287" data-name="Trazado 697287" d="M34.107,56.923c0,1.581-.749,2.863-1.672,2.863s-1.672-1.281-1.672-2.863.749-2.863,1.672-2.863,1.672,1.281,1.672,2.863" transform="translate(-8.74 -15.359)" fill="#38271d"/>
            <path id="Trazado_697288" data-name="Trazado 697288" d="M33.145,57.122a.864.864,0,1,1-.865-.865.865.865,0,0,1,.865.865" transform="translate(-8.926 -15.983)" fill="#fff"/>
            <path id="Trazado_697289" data-name="Trazado 697289" d="M33.963,59.985a.432.432,0,1,1-.432-.432.432.432,0,0,1,.432.432" transform="translate(-9.404 -16.92)" fill="#fff"/>
            <path id="Trazado_697290" data-name="Trazado 697290" d="M60.577,56.923c0,1.581-.749,2.863-1.672,2.863s-1.672-1.281-1.672-2.863.749-2.863,1.672-2.863,1.672,1.281,1.672,2.863" transform="translate(-16.26 -15.359)" fill="#38271d"/>
            <path id="Trazado_697291" data-name="Trazado 697291" d="M59.614,57.122a.864.864,0,1,1-.865-.865.865.865,0,0,1,.865.865" transform="translate(-16.446 -15.983)" fill="#fff"/>
            <path id="Trazado_697292" data-name="Trazado 697292" d="M60.432,59.985A.432.432,0,1,1,60,59.553a.432.432,0,0,1,.432.432" transform="translate(-16.924 -16.92)" fill="#fff"/>
            <path id="Trazado_697293" data-name="Trazado 697293" d="M30.52,65.309c0,1.12-2.135,2.029-4.769,2.029s-4.769-.908-4.769-2.029,2.135-2.028,4.769-2.028,4.769.908,4.769,2.028" transform="translate(-5.961 -17.979)" fill="#996d48"/>
            <path id="Trazado_697294" data-name="Trazado 697294" d="M67.9,65.309c0,1.12-2.135,2.029-4.769,2.029s-4.769-.908-4.769-2.029,2.135-2.028,4.769-2.028,4.769.908,4.769,2.028" transform="translate(-16.581 -17.979)" fill="#996d48"/>
            <path id="Trazado_697295" data-name="Trazado 697295" d="M47.436,62.554a1.828,1.828,0,1,1-1.828-1.828,1.828,1.828,0,0,1,1.828,1.828" transform="translate(-12.438 -17.253)" fill="#996d48"/>
            <g id="Grupo_998328" data-name="Grupo 998328" transform="translate(13.751 92.069)" opacity="0.1">
              <g id="Grupo_998327" data-name="Grupo 998327">
                <g id="Grupo_998326" data-name="Grupo 998326" clip-path="url(#clip-path-19)">
                  <path id="Trazado_697296" data-name="Trazado 697296" d="M20.055,128.608h0a.847.847,0,0,0-.847.847v15.006H20.9V129.455a.847.847,0,0,0-.847-.847" transform="translate(-19.208 -128.608)"/>
                </g>
              </g>
            </g>
            <g id="Grupo_998331" data-name="Grupo 998331" transform="translate(50.894 92.069)" opacity="0.1">
              <g id="Grupo_998330" data-name="Grupo 998330">
                <g id="Grupo_998329" data-name="Grupo 998329" clip-path="url(#clip-path-19)">
                  <path id="Trazado_697297" data-name="Trazado 697297" d="M71.939,128.608h0a.847.847,0,0,0-.847.847v15.006h1.694V129.455a.847.847,0,0,0-.847-.847" transform="translate(-71.092 -128.608)"/>
                </g>
              </g>
            </g>
            <path id="Trazado_697298" data-name="Trazado 697298" d="M33.3,70.086a9.463,9.463,0,0,0,18.665,0Z" transform="translate(-9.46 -19.913)" fill="#754226"/>
            <path id="Trazado_697299" data-name="Trazado 697299" d="M50.764,75.135a11.292,11.292,0,0,0-14.692,0,9.446,9.446,0,0,0,14.692,0" transform="translate(-10.249 -20.575)" fill="#965631"/>
            <path id="Trazado_697300" data-name="Trazado 697300" d="M51.3,72.283a9.427,9.427,0,0,0,.659-2.2H33.3a9.427,9.427,0,0,0,.659,2.2Z" transform="translate(-9.46 -19.912)" fill="#fff"/>
            <path id="Trazado_697301" data-name="Trazado 697301" d="M12.62,38.593l4.292,10.812,3.294-13.855H40.879V20.7L16.912,24.228,12.62,31.434Z" transform="translate(-3.586 -5.88)" fill="#38271d"/>
            <path id="Trazado_697302" data-name="Trazado 697302" d="M68.822,38.6,64.53,49.411,61.236,35.556H40.563V20.7L64.53,24.234l4.292,7.206Z" transform="translate(-11.525 -5.882)" fill="#38271d"/>
          </g>
        </g>
      </g>
      <g id="Grupo_998350" data-name="Grupo 998350" transform="translate(-5756.571 -7935.195)" clip-path="url(#clip-path-21)">
        <g id="Grupo_998349" data-name="Grupo 998349">
          <g id="Grupo_998348" data-name="Grupo 998348" clip-path="url(#clip-path-21)">
            <path id="Trazado_697303" data-name="Trazado 697303" d="M63.495,129.314c0,7.7-55.42,7.7-55.42,0V112.826A20.014,20.014,0,0,1,28.089,92.812H43.48a20.014,20.014,0,0,1,20.014,20.014Z" transform="translate(-2.535 -29.134)" fill="#db5225"/>
            <g id="Grupo_998338" data-name="Grupo 998338" transform="translate(13.547 63.678)" opacity="0.1">
              <g id="Grupo_998337" data-name="Grupo 998337">
                <g id="Grupo_998336" data-name="Grupo 998336" clip-path="url(#clip-path-23)">
                  <path id="Trazado_697304" data-name="Trazado 697304" d="M47.144,92.812H31.752a19.926,19.926,0,0,0-12.007,4A49.022,49.022,0,0,0,67.056,110.8,20.016,20.016,0,0,0,47.144,92.812" transform="translate(-19.745 -92.812)"/>
                </g>
              </g>
            </g>
            <path id="Trazado_697305" data-name="Trazado 697305" d="M51.824,88.58h0a10.978,10.978,0,0,1-12.394,0h0V66.738H51.824Z" transform="translate(-12.377 -20.949)" fill="#b38d6c"/>
            <g id="Grupo_998341" data-name="Grupo 998341" transform="translate(27.053 48.17)" opacity="0.1">
              <g id="Grupo_998340" data-name="Grupo 998340">
                <g id="Grupo_998339" data-name="Grupo 998339" clip-path="url(#clip-path-24)">
                  <path id="Trazado_697306" data-name="Trazado 697306" d="M39.43,84.978a40.178,40.178,0,0,0,12.394,4.228V70.683c-.582-.1-1.166-.192-1.747-.254a46.393,46.393,0,0,0-10.647.195Z" transform="translate(-39.43 -70.208)"/>
                </g>
              </g>
            </g>
            <path id="Trazado_697307" data-name="Trazado 697307" d="M24.107,55.293A6.194,6.194,0,1,1,17.912,49.1a6.194,6.194,0,0,1,6.194,6.194" transform="translate(-3.679 -15.412)" fill="#b38d6c"/>
            <path id="Trazado_697308" data-name="Trazado 697308" d="M22.458,56.683A3.157,3.157,0,1,1,19.3,53.526a3.157,3.157,0,0,1,3.157,3.157" transform="translate(-5.068 -16.802)" fill="#9c7b5e"/>
            <path id="Trazado_697309" data-name="Trazado 697309" d="M79.539,55.293A6.194,6.194,0,1,1,73.345,49.1a6.194,6.194,0,0,1,6.194,6.194" transform="translate(-21.079 -15.412)" fill="#b38d6c"/>
            <path id="Trazado_697310" data-name="Trazado 697310" d="M77.891,56.683a3.157,3.157,0,1,1-3.157-3.157,3.157,3.157,0,0,1,3.157,3.157" transform="translate(-22.468 -16.802)" fill="#9c7b5e"/>
            <path id="Trazado_697311" data-name="Trazado 697311" d="M39.763,72.329h0A19.016,19.016,0,0,1,20.746,53.312V38.889a11.331,11.331,0,0,1,11.33-11.33H47.449a11.331,11.331,0,0,1,11.33,11.33V53.312A19.017,19.017,0,0,1,39.763,72.329" transform="translate(-6.512 -8.651)" fill="#d1a57e"/>
            <path id="Trazado_697312" data-name="Trazado 697312" d="M32.253,67.154c0,1.074-2.047,1.944-4.571,1.944s-4.571-.871-4.571-1.944,2.047-1.944,4.571-1.944,4.571.87,4.571,1.944" transform="translate(-7.255 -20.47)" fill="#c48d5c"/>
            <path id="Trazado_697313" data-name="Trazado 697313" d="M69.631,67.154c0,1.074-2.047,1.944-4.571,1.944s-4.571-.871-4.571-1.944,2.047-1.944,4.571-1.944,4.571.87,4.571,1.944" transform="translate(-18.988 -20.47)" fill="#c48d5c"/>
            <path id="Trazado_697314" data-name="Trazado 697314" d="M58.537,56.117a16.387,16.387,0,0,1-3.208,8.359A4.714,4.714,0,0,1,52.6,66.512c-1.655.3-3.137-.932-4.617-1.728a9.871,9.871,0,0,0-8.1-.5,9.871,9.871,0,0,0-8.1.5c-1.481.8-2.963,2.023-4.617,1.728a4.714,4.714,0,0,1-2.727-2.036,16.387,16.387,0,0,1-3.208-8.359,3.176,3.176,0,0,0-.488.036v6.124a19.017,19.017,0,1,0,38.033,0V56.135c-.081-.006-.162-.019-.242-.019" transform="translate(-6.512 -17.615)" fill="#3b2b2a"/>
            <path id="Trazado_697315" data-name="Trazado 697315" d="M12.725,39.583l5.5,14.135,5.617-14.135Z" transform="translate(-3.994 -12.425)" fill="#524242"/>
            <path id="Trazado_697316" data-name="Trazado 697316" d="M79.107,39.583,73.6,53.718,67.987,39.583Z" transform="translate(-21.341 -12.425)" fill="#524242"/>
            <path id="Trazado_697317" data-name="Trazado 697317" d="M50.131,29.942a4.544,4.544,0,0,1-5.588-1.861,11.343,11.343,0,0,1-5.756,2.1,33.883,33.883,0,0,1-6.2-.1A7.447,7.447,0,0,1,27.659,28.1a27.185,27.185,0,0,1-16.069,2.55,8.328,8.328,0,0,1-3.706-1.28A3.935,3.935,0,0,1,6.1,25.841,5.577,5.577,0,0,1,.487,22.248a8.6,8.6,0,0,1,.591-6.941A19.574,19.574,0,0,1,5.634,9.812c2.5-2.259,5.306-4.5,8.674-4.624a1.612,1.612,0,0,1-.988-1.91,2.565,2.565,0,0,1,1.574-1.662,6.727,6.727,0,0,1,2.332-.386c5.215-.187,10.692.184,15.568,2.045a4.271,4.271,0,0,1-1.219-1.232A1.456,1.456,0,0,1,31.639.409c.509-.574,1.428-.44,2.164-.222A23.65,23.65,0,0,1,45.647,7.8c-.184-1.031-.214-2.377.741-2.808.939-.424,1.929.463,2.524,1.3a20.229,20.229,0,0,1,2.525,4.854c.8-.285,1.517-.467,2.337-.679a4.007,4.007,0,0,1,2.5.05A2.191,2.191,0,0,1,57.7,12.449a1.527,1.527,0,0,1-1.641,1.514,9.023,9.023,0,0,1,2.48,8.66,3.068,3.068,0,0,1,.709,3.022c-.263,1.027-2.389,7.243-9.111,4.3" transform="translate(0 0)" fill="#3b2b2a"/>
            <path id="Trazado_697318" data-name="Trazado 697318" d="M36.1,58.733c0,1.516-.718,2.744-1.6,2.744s-1.6-1.228-1.6-2.744.718-2.744,1.6-2.744,1.6,1.228,1.6,2.744" transform="translate(-10.325 -17.575)" fill="#3b2b2a"/>
            <path id="Trazado_697319" data-name="Trazado 697319" d="M35.2,59.015a.828.828,0,1,1-.829-.829.829.829,0,0,1,.829.829" transform="translate(-10.53 -18.265)" fill="#fff"/>
            <path id="Trazado_697320" data-name="Trazado 697320" d="M36.057,61.9a.414.414,0,1,1-.414-.414.414.414,0,0,1,.414.414" transform="translate(-11.058 -19.299)" fill="#fff"/>
            <path id="Trazado_697321" data-name="Trazado 697321" d="M62.566,58.733c0,1.516-.718,2.744-1.6,2.744s-1.6-1.228-1.6-2.744.718-2.744,1.6-2.744,1.6,1.228,1.6,2.744" transform="translate(-18.634 -17.575)" fill="#3b2b2a"/>
            <path id="Trazado_697322" data-name="Trazado 697322" d="M61.672,59.015a.828.828,0,1,1-.829-.829.829.829,0,0,1,.829.829" transform="translate(-18.839 -18.265)" fill="#fff"/>
            <path id="Trazado_697323" data-name="Trazado 697323" d="M62.526,61.9a.414.414,0,1,1-.414-.414.414.414,0,0,1,.414.414" transform="translate(-19.367 -19.299)" fill="#fff"/>
            <path id="Trazado_697324" data-name="Trazado 697324" d="M49.414,64.407a1.752,1.752,0,1,1-1.752-1.752,1.752,1.752,0,0,1,1.752,1.752" transform="translate(-14.411 -19.668)" fill="#c48d5c"/>
            <g id="Grupo_998344" data-name="Grupo 998344" transform="translate(14.639 89.562)" opacity="0.1">
              <g id="Grupo_998343" data-name="Grupo 998343">
                <g id="Grupo_998342" data-name="Grupo 998342" clip-path="url(#clip-path-25)">
                  <path id="Trazado_697325" data-name="Trazado 697325" d="M22.149,130.537h0a.812.812,0,0,0-.812.812v14.382H22.96V131.349a.812.812,0,0,0-.812-.812" transform="translate(-21.337 -130.537)"/>
                </g>
              </g>
            </g>
            <g id="Grupo_998347" data-name="Grupo 998347" transform="translate(50.237 89.562)" opacity="0.1">
              <g id="Grupo_998346" data-name="Grupo 998346">
                <g id="Grupo_998345" data-name="Grupo 998345" clip-path="url(#clip-path-25)">
                  <path id="Trazado_697326" data-name="Trazado 697326" d="M74.034,130.537h0a.812.812,0,0,0-.812.812v14.382h1.623V131.349a.812.812,0,0,0-.812-.812" transform="translate(-73.222 -130.537)"/>
                </g>
              </g>
            </g>
            <path id="Trazado_697327" data-name="Trazado 697327" d="M35.426,72.015a9.07,9.07,0,0,0,17.888,0Z" transform="translate(-11.12 -22.606)" fill="#7a6149"/>
            <path id="Trazado_697328" data-name="Trazado 697328" d="M52.282,76.951a10.822,10.822,0,0,0-14.081,0,9.053,9.053,0,0,0,14.081,0" transform="translate(-11.991 -23.338)" fill="#d17c56"/>
            <path id="Trazado_697329" data-name="Trazado 697329" d="M52.682,74.12a9,9,0,0,0,.633-2.106H35.426a9.034,9.034,0,0,0,.632,2.106Z" transform="translate(-11.12 -22.605)" fill="#fff"/>
          </g>
        </g>
      </g>
      <g id="Grupo_998366" data-name="Grupo 998366" transform="translate(-5908.453 -7958.507)" clip-path="url(#clip-path-27)">
        <g id="Grupo_998365" data-name="Grupo 998365">
          <g id="Grupo_998364" data-name="Grupo 998364" clip-path="url(#clip-path-28)">
            <path id="Trazado_697330" data-name="Trazado 697330" d="M14.216,43.11q.023,1.017.047,2.035A32.094,32.094,0,0,1,6.083,13.81c.809-2.749,2.626-5.827,5.492-5.8A19.664,19.664,0,0,1,21.758,1.261a28.918,28.918,0,0,1,21.166,1.65,24.15,24.15,0,0,1,12.8,16.651c1.087,5.825-.248,11.915-2.835,17.245s-6.367,9.99-10.36,14.369c-7.046,7.729-21.332-.273-28.308-8.066" transform="translate(-1.425 0)" fill="#a164a5"/>
            <path id="Trazado_697331" data-name="Trazado 697331" d="M57.132,121.266c0,7.939-57.133,7.939-57.133,0v-17A20.634,20.634,0,0,1,20.632,83.636H36.5a20.632,20.632,0,0,1,20.632,20.633Z" transform="translate(0 -24.479)" fill="#00c1cf"/>
            <g id="Grupo_998354" data-name="Grupo 998354" transform="translate(8.255 59.157)" opacity="0.1">
              <g id="Grupo_998353" data-name="Grupo 998353">
                <g id="Grupo_998352" data-name="Grupo 998352" clip-path="url(#clip-path-29)">
                  <path id="Trazado_697332" data-name="Trazado 697332" d="M39.916,83.636H24.049A20.542,20.542,0,0,0,11.67,87.761a50.538,50.538,0,0,0,48.774,14.422A20.635,20.635,0,0,0,39.916,83.636" transform="translate(-11.67 -83.636)"/>
                </g>
              </g>
            </g>
            <path id="Trazado_697333" data-name="Trazado 697333" d="M44.132,80.079h0a11.317,11.317,0,0,1-12.777,0V57.562H44.132Z" transform="translate(-9.177 -16.848)" fill="#d9ab82"/>
            <g id="Grupo_998357" data-name="Grupo 998357" transform="translate(22.178 43.169)" opacity="0.1">
              <g id="Grupo_998356" data-name="Grupo 998356">
                <g id="Grupo_998355" data-name="Grupo 998355" clip-path="url(#clip-path-30)">
                  <path id="Trazado_697334" data-name="Trazado 697334" d="M31.355,76.258a41.42,41.42,0,0,0,12.778,4.358v-19.1c-.6-.108-1.2-.2-1.8-.262a47.827,47.827,0,0,0-10.976.2Z" transform="translate(-31.355 -61.032)"/>
                </g>
              </g>
            </g>
            <path id="Trazado_697335" data-name="Trazado 697335" d="M16.413,46.309a6.385,6.385,0,1,1-6.386-6.386,6.386,6.386,0,0,1,6.386,6.386" transform="translate(-1.066 -11.685)" fill="#d9ab82"/>
            <path id="Trazado_697336" data-name="Trazado 697336" d="M14.578,47.6a3.254,3.254,0,1,1-3.254-3.254A3.254,3.254,0,0,1,14.578,47.6" transform="translate(-2.362 -12.981)" fill="#cca17a"/>
            <path id="Trazado_697337" data-name="Trazado 697337" d="M71.847,46.309a6.385,6.385,0,1,1-6.386-6.386,6.386,6.386,0,0,1,6.386,6.386" transform="translate(-17.291 -11.685)" fill="#d9ab82"/>
            <path id="Trazado_697338" data-name="Trazado 697338" d="M70.012,47.6a3.254,3.254,0,1,1-3.254-3.254A3.254,3.254,0,0,1,70.012,47.6" transform="translate(-18.587 -12.981)" fill="#cca17a"/>
            <path id="Trazado_697339" data-name="Trazado 697339" d="M32.274,64.537h0a19.6,19.6,0,0,1-19.6-19.6V30.064A11.681,11.681,0,0,1,24.351,18.383H40.2A11.681,11.681,0,0,1,51.879,30.064V44.933a19.6,19.6,0,0,1-19.6,19.6" transform="translate(-3.708 -5.381)" fill="#fcd1ab"/>
            <path id="Trazado_697340" data-name="Trazado 697340" d="M28.122,49.642c0,1.562-.74,2.829-1.652,2.829s-1.652-1.266-1.652-2.829.74-2.829,1.652-2.829,1.652,1.266,1.652,2.829" transform="translate(-7.264 -13.702)" fill="#334992"/>
            <path id="Trazado_697341" data-name="Trazado 697341" d="M27.178,49.864a.854.854,0,1,1-.854-.854.855.855,0,0,1,.854.854" transform="translate(-7.455 -14.345)" fill="#fff"/>
            <path id="Trazado_697342" data-name="Trazado 697342" d="M28.006,52.733a.427.427,0,1,1-.427-.427.427.427,0,0,1,.427.427" transform="translate(-7.947 -15.309)" fill="#fff"/>
            <path id="Trazado_697343" data-name="Trazado 697343" d="M54.591,49.642c0,1.562-.74,2.829-1.652,2.829s-1.652-1.266-1.652-2.829.74-2.829,1.652-2.829,1.652,1.266,1.652,2.829" transform="translate(-15.011 -13.702)" fill="#334992"/>
            <path id="Trazado_697344" data-name="Trazado 697344" d="M53.647,49.864a.854.854,0,1,1-.854-.854.855.855,0,0,1,.854.854" transform="translate(-15.202 -14.345)" fill="#fff"/>
            <path id="Trazado_697345" data-name="Trazado 697345" d="M54.476,52.733a.427.427,0,1,1-.427-.427.427.427,0,0,1,.427.427" transform="translate(-15.695 -15.309)" fill="#fff"/>
            <path id="Trazado_697346" data-name="Trazado 697346" d="M24.46,58.038c0,1.107-2.11,2-4.712,2s-4.712-.9-4.712-2,2.11-2,4.712-2,4.712.9,4.712,2" transform="translate(-4.401 -16.401)" fill="#ffa473"/>
            <path id="Trazado_697347" data-name="Trazado 697347" d="M61.838,58.038c0,1.107-2.11,2-4.712,2s-4.712-.9-4.712-2,2.11-2,4.712-2,4.712.9,4.712,2" transform="translate(-15.341 -16.401)" fill="#ffa473"/>
            <path id="Trazado_697348" data-name="Trazado 697348" d="M41.446,55.285a1.806,1.806,0,1,1-1.806-1.806,1.806,1.806,0,0,1,1.806,1.806" transform="translate(-11.073 -15.653)" fill="#ffa473"/>
            <g id="Grupo_998360" data-name="Grupo 998360" transform="translate(9.38 85.84)" opacity="0.1">
              <g id="Grupo_998359" data-name="Grupo 998359">
                <g id="Grupo_998358" data-name="Grupo 998358" clip-path="url(#clip-path-31)">
                  <path id="Trazado_697349" data-name="Trazado 697349" d="M14.1,121.361h0a.837.837,0,0,0-.837.837v14.827h1.673V122.2a.837.837,0,0,0-.837-.837" transform="translate(-13.262 -121.361)"/>
                </g>
              </g>
            </g>
            <g id="Grupo_998363" data-name="Grupo 998363" transform="translate(46.079 85.84)" opacity="0.1">
              <g id="Grupo_998362" data-name="Grupo 998362">
                <g id="Grupo_998361" data-name="Grupo 998361" clip-path="url(#clip-path-31)">
                  <path id="Trazado_697350" data-name="Trazado 697350" d="M65.984,121.361h0a.837.837,0,0,0-.837.837v14.827H66.82V122.2a.837.837,0,0,0-.837-.837" transform="translate(-65.147 -121.361)"/>
                </g>
              </g>
            </g>
            <path id="Trazado_697351" data-name="Trazado 697351" d="M27.351,62.839a9.35,9.35,0,0,0,18.441,0Z" transform="translate(-8.005 -18.392)" fill="#b8916e"/>
            <path id="Trazado_697352" data-name="Trazado 697352" d="M44.642,67.856a11.157,11.157,0,0,0-14.516,0,9.333,9.333,0,0,0,14.516,0" transform="translate(-8.818 -19.075)" fill="#ffac7f"/>
            <path id="Trazado_697353" data-name="Trazado 697353" d="M45.141,65.009a9.314,9.314,0,0,0,.651-2.171H27.351A9.314,9.314,0,0,0,28,65.009Z" transform="translate(-8.005 -18.392)" fill="#fff"/>
            <path id="Trazado_697354" data-name="Trazado 697354" d="M52.473,48.514c1.047-2.616-.116-5.672-2.216-7.656a18.021,18.021,0,0,0-7.844-3.836,81.5,81.5,0,0,1-8.585-2.34A20.4,20.4,0,0,1,22.037,22.846,20.224,20.224,0,0,1,15.616,32.9c-2.031,1.732-4.318,3.286-4.637,5.841a124.4,124.4,0,0,0-4.525-11.8A25.367,25.367,0,0,1,16.777,12.636,25.675,25.675,0,0,1,30.93,8.26a23.262,23.262,0,0,1,14.027,4.571,28.32,28.32,0,0,1,6.577,7.486,31.5,31.5,0,0,1,5.134,13.947,20.33,20.33,0,0,1-4.194,14.25" transform="translate(-1.889 -2.418)" fill="#a164a5"/>
          </g>
        </g>
      </g>
    </g>
  </g>
</svg>
