<svg id="Grupo_998504" data-name="Grupo 998504" xmlns="http://www.w3.org/2000/svg" xmlns:xlink="http://www.w3.org/1999/xlink" width="505" height="416.17" viewBox="0 0 505 416.17">
  <defs>
    <clipPath id="clip-path">
      <rect id="Rectángulo_344691" data-name="Rectángulo 344691" width="505" height="416.17" fill="none"/>
    </clipPath>
    <clipPath id="clip-path-2">
      <rect id="Rectángulo_344690" data-name="Rectángulo 344690" width="505" height="416.169" fill="none"/>
    </clipPath>
    <clipPath id="clip-path-3">
      <rect id="Rectángulo_344685" data-name="Rectángulo 344685" width="90.277" height="81.094" fill="none"/>
    </clipPath>
    <clipPath id="clip-path-4">
      <rect id="Rectángulo_344687" data-name="Rectángulo 344687" width="4.617" height="6.564" fill="none"/>
    </clipPath>
    <clipPath id="clip-path-5">
      <rect id="Rectángulo_344688" data-name="Rectángulo 344688" width="4.256" height="6.585" fill="none"/>
    </clipPath>
    <clipPath id="clip-path-6">
      <rect id="Rectángulo_344689" data-name="Rectángulo 344689" width="3.34" height="3.793" fill="none"/>
    </clipPath>
  </defs>
  <g id="Grupo_998503" data-name="Grupo 998503" clip-path="url(#clip-path)">
    <g id="Grupo_998502" data-name="Grupo 998502" transform="translate(0 0.001)">
      <g id="Grupo_998501" data-name="Grupo 998501" clip-path="url(#clip-path-2)">
        <path id="Trazado_698150" data-name="Trazado 698150" d="M1039.475,107.629l-11.192-15.67a15.327,15.327,0,0,0-11.764-6.434c-4.08-.2-8.591-.45-12.465-.663-9.808-.54-26.115-.117-40.5.256-6.759.175-13.143.34-17.9.374h-.173a21.252,21.252,0,0,1-14.977-5.781,14.11,14.11,0,0,1-4.387-9.979V16.339A14.523,14.523,0,0,1,930.882,5.86,20.058,20.058,0,0,1,945.667.58c2.523.119,5.381.332,8.407.556,8.836.656,19.833,1.472,31.086.629,17.9-1.341,52.133-2.5,69.835-1.185,11.309.839,19.517,7.467,19.517,15.759V69.733c0,4.144-2,7.854-5.786,10.73A28.044,28.044,0,0,1,1055,85.491c-2.4.266-4.8.457-7.332.584a8.636,8.636,0,0,0-8.2,8.64ZM992.057,84.092c4.544,0,8.663.072,12.025.257,3.874.213,8.384.458,12.463.663a15.837,15.837,0,0,1,12.156,6.649l10.26,14.364V94.715a9.15,9.15,0,0,1,8.685-9.154c2.519-.127,4.906-.317,7.3-.582,9.482-1.048,19.05-6.168,19.05-15.247V16.339c0-8.015-8.008-14.427-19.041-15.246-17.675-1.312-51.87-.154-69.758,1.185-11.291.846-22.309.027-31.162-.629-3.023-.224-5.877-.437-8.394-.556a19.532,19.532,0,0,0-14.406,5.14,14.014,14.014,0,0,0-4.6,10.106V69.733a13.6,13.6,0,0,0,4.236,9.614,20.735,20.735,0,0,0,14.614,5.632h.17c4.747-.034,11.129-.2,17.886-.374,9.472-.245,19.778-.512,28.518-.512" transform="translate(-591.904 -0.002)" fill="#131f2d"/>
        <path id="Trazado_698151" data-name="Trazado 698151" d="M1067.093,20.594c-17.63-1.309-51.8-.163-69.8,1.185-15.135,1.134-29.654-.718-39.524-1.185-10.629-.5-19.279,6.941-19.279,15.5V89.49c0,8.562,8.632,15.579,19.279,15.5,14.6-.105,43.862-1.429,58.413-.63,4.537.249,8.669.472,12.464.663a15.664,15.664,0,0,1,11.96,6.542l10.726,15.017V114.473a8.9,8.9,0,0,1,8.441-8.9c2.516-.127,4.924-.318,7.317-.583,10.548-1.166,19.279-6.941,19.279-15.5V36.1c0-8.562-8.676-14.715-19.279-15.5" transform="translate(-599.813 -12.794)" fill="#016eb9"/>
        <path id="Trazado_698152" data-name="Trazado 698152" d="M557.359,44.591c-8-.594-23.518-.074-31.692.538-6.872.515-13.464-.326-17.946-.538-4.826-.229-8.754,3.152-8.754,7.039V75.873c0,3.888,3.919,7.074,8.754,7.039,6.631-.048,19.916-.649,26.523-.286,2.06.113,3.936.214,5.659.3a7.113,7.113,0,0,1,5.43,2.97l4.87,6.818v-5.5a4.042,4.042,0,0,1,3.833-4.04c1.143-.057,2.236-.144,3.322-.265,4.79-.529,8.754-3.151,8.754-7.039V51.629c0-3.887-3.94-6.682-8.754-7.039" transform="translate(-318.901 -28.332)" fill="#00a3fe"/>
        <path id="Trazado_698153" data-name="Trazado 698153" d="M1006.427,113.006a1.012,1.012,0,0,1,.9-1.007,33.745,33.745,0,0,1,3.54-.192,8.528,8.528,0,0,1,4.5.856,3.3,3.3,0,0,1,1.8,3,3.446,3.446,0,0,1-2.5,3.221v.045a3.775,3.775,0,0,1,3.018,3.717,4.056,4.056,0,0,1-1.577,3.244c-1.1.879-2.951,1.374-5.969,1.374-1.132,0-2.072-.051-2.8-.118a1.011,1.011,0,0,1-.917-1.009Zm3.4,3.914a1.013,1.013,0,0,0,1.013,1.013h.113c1.825,0,2.771-.743,2.771-1.869,0-1.149-.878-1.757-2.433-1.757-.177,0-.336,0-.478.006a1.014,1.014,0,0,0-.986,1.013Zm0,6.779a1.013,1.013,0,0,0,1.01,1.014h.319c1.554,0,2.929-.608,2.929-2.207,0-1.509-1.374-2.117-3.086-2.117h-.158a1.013,1.013,0,0,0-1.013,1.013Z" transform="translate(-643.231 -71.459)" fill="#eaeaea"/>
        <path id="Trazado_698154" data-name="Trazado 698154" d="M1056.785,119.073c0,5-3,8-7.456,8-4.483,0-7.14-3.4-7.14-7.749,0-4.55,2.928-7.951,7.388-7.951,4.663,0,7.208,3.491,7.208,7.7m-10.969.18c0,3,1.4,5.091,3.694,5.091,2.32,0,3.649-2.207,3.649-5.158,0-2.748-1.284-5.091-3.649-5.091-2.343,0-3.694,2.207-3.694,5.158" transform="translate(-666.087 -71.18)" fill="#eaeaea"/>
        <path id="Trazado_698155" data-name="Trazado 698155" d="M1088.874,126.288V113.133a1.014,1.014,0,0,1,1.014-1.013h2.405a1.014,1.014,0,0,1,.882.514l2.862,5.05a47.875,47.875,0,0,1,2.478,5.2h.045a62.594,62.594,0,0,1-.271-6.352v-3.4a1.013,1.013,0,0,1,1.013-1.013h1.127a1.013,1.013,0,0,1,1.013,1.013v13.155a1.013,1.013,0,0,1-1.013,1.013h-1.994a1.013,1.013,0,0,1-.886-.522l-2.954-5.334a51.4,51.4,0,0,1-2.636-5.361h-.09c.113,2.027.158,4.167.158,6.645v3.559a1.013,1.013,0,0,1-1.013,1.013h-1.126a1.014,1.014,0,0,1-1.014-1.013" transform="translate(-695.925 -71.659)" fill="#eaeaea"/>
        <path id="Trazado_698156" data-name="Trazado 698156" d="M1133.458,112.12h1.4a1.013,1.013,0,0,1,1.014,1.013v8.582c0,4.325-2.072,5.834-5.384,5.834a9.849,9.849,0,0,1-1.568-.135,1.01,1.01,0,0,1-.829-1.137l.107-.772a1.017,1.017,0,0,1,1.146-.864,6.028,6.028,0,0,0,.761.048c1.442,0,2.342-.653,2.342-3v-8.559a1.013,1.013,0,0,1,1.014-1.013" transform="translate(-720.981 -71.659)" fill="#eaeaea"/>
        <path id="Trazado_698157" data-name="Trazado 698157" d="M1170.251,119.073c0,5-3,8-7.456,8-4.483,0-7.14-3.4-7.14-7.749,0-4.55,2.928-7.951,7.388-7.951,4.663,0,7.208,3.491,7.208,7.7m-10.969.18c0,3,1.4,5.091,3.694,5.091,2.32,0,3.649-2.207,3.649-5.158,0-2.748-1.284-5.091-3.649-5.091-2.343,0-3.694,2.207-3.694,5.158" transform="translate(-738.606 -71.18)" fill="#eaeaea"/>
        <path id="Trazado_698158" data-name="Trazado 698158" d="M1204.75,112.12a1.013,1.013,0,0,1,1.014,1.013v7.7c0,2.635,1.013,3.964,2.748,3.964,1.8,0,2.793-1.261,2.793-3.964v-7.7a1.013,1.013,0,0,1,1.014-1.013h1.4a1.013,1.013,0,0,1,1.013,1.013v7.5c0,4.685-2.365,6.915-6.329,6.915-3.829,0-6.059-2.14-6.059-6.96v-7.456a1.013,1.013,0,0,1,1.014-1.013Z" transform="translate(-768.443 -71.659)" fill="#eaeaea"/>
        <path id="Trazado_698159" data-name="Trazado 698159" d="M1244.905,113.007a1.013,1.013,0,0,1,.9-1.007,33.164,33.164,0,0,1,3.674-.193c2.253,0,3.829.338,4.911,1.194a3.851,3.851,0,0,1,1.419,3.2,4.022,4.022,0,0,1-2.68,3.717v.067a3.788,3.788,0,0,1,2.027,2.816c.282,1.036.557,2.16.795,3.022a1.013,1.013,0,0,1-.978,1.28h-1.423a1.01,1.01,0,0,1-.958-.685c-.213-.632-.48-1.594-.768-2.852-.428-1.914-1.082-2.41-2.5-2.433a1.014,1.014,0,0,0-1.013,1.014v3.942a1.014,1.014,0,0,1-1.014,1.014h-1.374a1.014,1.014,0,0,1-1.014-1.014Zm3.4,4.634a1.013,1.013,0,0,0,1.013,1.013h.338c1.712,0,2.725-.856,2.725-2.185,0-1.374-.946-2.095-2.523-2.095-.217,0-.41,0-.58.009a1.011,1.011,0,0,0-.974,1.013Z" transform="translate(-795.648 -71.459)" fill="#eaeaea"/>
        <path id="Trazado_698160" data-name="Trazado 698160" d="M849.688,868.759c-6.952.42-17.176,2.085-27.834,1.066-12.677-1.212-36.739-2.242-49.154-1.066-7.467.708-13.577,6.24-13.577,13.937v48c0,7.7,6.148,12.889,13.577,13.937a79.291,79.291,0,0,0,11.963.693,5.9,5.9,0,0,1,5.958,5.895v12.823l11.855-16.6a8.114,8.114,0,0,1,6.035-3.378l.04,0c10.247-.719,30.852.472,41.137.567A13.718,13.718,0,0,0,863.266,930.7v-48c0-7.7-6.092-14.39-13.578-13.937" transform="translate(-485.173 -554.914)" fill="#016eb9"/>
        <path id="Trazado_698161" data-name="Trazado 698161" d="M817.915,950.96v3.617a1.384,1.384,0,0,0,1.384,1.384h3.42a1.384,1.384,0,0,0,1.384-1.384V950.96a1.384,1.384,0,0,1,1.384-1.384h.979a1.384,1.384,0,0,1,1.384,1.384v13.849a1.384,1.384,0,0,1-1.384,1.384h-.979a1.384,1.384,0,0,1-1.384-1.384v-4.185a1.384,1.384,0,0,0-1.384-1.384H819.3a1.384,1.384,0,0,0-1.384,1.384v4.185a1.384,1.384,0,0,1-1.384,1.384h-.979a1.384,1.384,0,0,1-1.384-1.384V950.96a1.384,1.384,0,0,1,1.384-1.384h.979a1.384,1.384,0,0,1,1.384,1.384" transform="translate(-520.354 -606.897)" fill="#eaeaea"/>
        <path id="Trazado_698162" data-name="Trazado 698162" d="M875.026,957.187c0,5.473-3.279,8.752-8.161,8.752-4.906,0-7.815-3.723-7.815-8.481,0-4.98,3.2-8.7,8.087-8.7,5.1,0,7.889,3.822,7.889,8.432m-12.007.2c0,3.279,1.529,5.572,4.044,5.572,2.539,0,3.994-2.416,3.994-5.646,0-3.008-1.405-5.572-3.994-5.572-2.564,0-4.044,2.416-4.044,5.646" transform="translate(-549.039 -606.372)" fill="#eaeaea"/>
        <path id="Trazado_698163" data-name="Trazado 698163" d="M911.6,949.575h.979a1.384,1.384,0,0,1,1.384,1.384v10.693a1.384,1.384,0,0,0,1.384,1.384h3.839a1.384,1.384,0,0,1,1.384,1.384v.388a1.384,1.384,0,0,1-1.384,1.384H911.6a1.384,1.384,0,0,1-1.384-1.384V950.959a1.384,1.384,0,0,1,1.384-1.384" transform="translate(-581.742 -606.896)" fill="#eaeaea"/>
        <path id="Trazado_698164" data-name="Trazado 698164" d="M947.817,962.942l-.621,2.237a1.385,1.385,0,0,1-1.334,1.014h-.951a1.384,1.384,0,0,1-1.324-1.787l4.212-13.849a1.385,1.385,0,0,1,1.324-.981h2.887a1.384,1.384,0,0,1,1.321.972l4.315,13.849a1.384,1.384,0,0,1-1.322,1.8h-1.158a1.384,1.384,0,0,1-1.325-.986l-.69-2.294a1.384,1.384,0,0,0-1.325-.986H949.15a1.384,1.384,0,0,0-1.333,1.014m2.648-3.825a1.384,1.384,0,0,0,1.328-1.774l-.515-1.751c-.3-.986-.591-2.219-.838-3.205h-.049c-.247.986-.493,2.244-.764,3.205l-.495,1.769A1.384,1.384,0,0,0,950.465,959.117Z" transform="translate(-603.03 -606.897)" fill="#eaeaea"/>
        <path id="Trazado_698165" data-name="Trazado 698165" d="M90.566,620.309c-12.416-1.084-36.477-.135-49.154.982-10.658.939-20.884-.594-27.835-.982A12.967,12.967,0,0,0,0,633.145v44.208c0,7.089,6.079,12.9,13.577,12.836,10.285-.087,30.89-1.184,41.138-.522l.04,0a8.481,8.481,0,0,1,6.155,3.266l11.735,15.13v-10.4a6.833,6.833,0,0,1,6.827-6.839,83.871,83.871,0,0,0,11.095-.642c7.429-.965,13.577-5.747,13.577-12.836V633.145c0-7.089-6.11-12.184-13.577-12.835" transform="translate(0 -396.15)" fill="#016eb9"/>
        <path id="Trazado_698166" data-name="Trazado 698166" d="M138.742,699.556a46.066,46.066,0,0,1,4.761-11.441.247.247,0,0,1,.3-.108l1.572.56a.245.245,0,0,1,.134.35,48.45,48.45,0,0,0-4.538,11.4.247.247,0,0,1-.328.179l-1.743-.654a.245.245,0,0,1-.156-.284m1.621-11.592a65.3,65.3,0,0,1-1.473-7.124.246.246,0,0,1,.239-.274l.949-.027h14.936a.245.245,0,0,0,.232-.327,53.558,53.558,0,0,1-1.5-5.153.243.243,0,0,0-.227-.187h-.012a.248.248,0,0,1-.048-.488l2.1-.557a.246.246,0,0,1,.3.185c1.157,5.226,3.11,10.42,5.488,13.608a.243.243,0,0,1-.061.352,11.089,11.089,0,0,0-1.34,1.087.246.246,0,0,1-.368-.031,30.071,30.071,0,0,1-3.331-6.158.247.247,0,0,0-.227-.152h-5.155a.247.247,0,0,0-.247.247v19.7a.835.835,0,0,0,.835.835H152.6c.551,0,1.223,0,1.936-.02a.246.246,0,0,1,.23.351,9.961,9.961,0,0,0-.638,1.832.249.249,0,0,1-.243.188c-4.664-.013-5.538-.484-5.538-2.939V682.965a.247.247,0,0,0-.247-.247h-6.342a.247.247,0,0,0-.244.288c.279,1.66.581,3.345.833,4.55a.247.247,0,0,1-.2.293l-1.5.29a.247.247,0,0,1-.285-.174m15.959.462c1.047,4.218,2.746,8.436,4.739,11.039a.245.245,0,0,1-.077.366,11.99,11.99,0,0,0-1.383.886.246.246,0,0,1-.346-.044,34.25,34.25,0,0,1-4.988-11.179.241.241,0,0,0-.208-.18c-.043,0-.084-.011-.122-.019a.248.248,0,0,1-.008-.481l2.09-.568a.246.246,0,0,1,.3.179m9.513,17.356h-1.822a.247.247,0,0,1-.247-.247V684a.249.249,0,0,0-.2-.241c-.032-.007-.062-.015-.091-.023a.248.248,0,0,1,.008-.476l.314-.087a.245.245,0,0,0,.157-.341,76.682,76.682,0,0,1-3.1-7.758.246.246,0,0,0-.233-.166,1.017,1.017,0,0,1-.266-.034.248.248,0,0,1,0-.474l2.243-.676a.245.245,0,0,1,.306.162c1.947,6.234,4.964,12.6,8.126,16.444a.243.243,0,0,1-.006.318c-.366.41-.843,1-1.159,1.44a.246.246,0,0,1-.394.009,40.935,40.935,0,0,1-2.929-4.339.247.247,0,0,0-.459.125v17.646a.247.247,0,0,1-.247.247" transform="translate(-88.669 -430.589)" fill="#eaeaea"/>
        <path id="Trazado_698167" data-name="Trazado 698167" d="M51.435,688.869v-3.924a.243.243,0,0,0-.089-.189A44.721,44.721,0,0,1,44.08,676.9a.247.247,0,0,0-.118-.089c-.054-.02-.109-.042-.162-.067a.248.248,0,0,1-.026-.435l1.445-.9a.246.246,0,0,1,.2-.026l.306.094a.248.248,0,0,0,.073.011H60.593a.247.247,0,0,1,.247.247v1.684a.247.247,0,0,1-.247.247H48.02a.247.247,0,0,0-.2.395,34.292,34.292,0,0,0,4.748,5.177.248.248,0,0,0,.176.058l.778-.047a.247.247,0,0,1,.262.247v5.368a.247.247,0,0,0,.248.247h7.977a.247.247,0,0,1,.247.248v1.753a.247.247,0,0,1-.247.247H54.034a.247.247,0,0,0-.248.247v11.233c0,.726.346.726,1.521.726.89,0,2.248-.029,3.75-.061a.246.246,0,0,1,.23.348,12.5,12.5,0,0,0-.652,1.781.247.247,0,0,1-.238.182c-5.948.058-6.963-.376-6.963-3.01v-11.2a.247.247,0,0,0-.247-.247H43.349a.247.247,0,0,1-.247-.247v-1.753a.247.247,0,0,1,.247-.248h7.839a.247.247,0,0,0,.247-.247m12.271-7.879h4.986a.247.247,0,0,0,.241-.3c-.478-2.142-.923-4.216-1.282-6.059a.242.242,0,0,0-.2-.194c-.337-.053-.5-.185-.528-.4l2.606-.318a.245.245,0,0,1,.272.2c.395,2.1.851,4.438,1.368,6.873a.248.248,0,0,0,.242.2h3.494a.247.247,0,0,1,.247.247v1.684a.247.247,0,0,1-.247.248h-2.9a.247.247,0,0,0-.241.3c.962,4.264,1.982,8.438,2.817,11.4a.244.244,0,0,1-.123.283l-1.521.8a.248.248,0,0,1-.354-.154l-.247-.906a.248.248,0,0,0-.368-.147c-1.165.716-2.35,1.51-3.486,2.359a.252.252,0,0,0-.067.324,16.389,16.389,0,0,0,6.113,6.4.245.245,0,0,1,.062.381,10.153,10.153,0,0,0-1.113,1.459.247.247,0,0,1-.341.082,18.647,18.647,0,0,1-6.484-6.835.248.248,0,0,0-.374-.07,25.276,25.276,0,0,0-3.272,3.159.247.247,0,0,1-.39-.008l-1.111-1.491a.246.246,0,0,1,.005-.3,25.094,25.094,0,0,1,3.808-3.5.245.245,0,0,0,.074-.292,45.415,45.415,0,0,1-3.239-14.654.245.245,0,0,0-.019-.077l-.079-.184a.247.247,0,0,1,.164-.337l.975-.257a.244.244,0,0,1,.123,0l.324.081a.256.256,0,0,0,.06.007m.793,2.454a41.128,41.128,0,0,0,2.725,11.483.247.247,0,0,0,.366.109c1.318-.876,2.66-1.743,3.977-2.474a.243.243,0,0,0,.118-.274c-.7-2.735-1.459-5.843-2.157-8.927a.246.246,0,0,0-.241-.192H64.747a.25.25,0,0,0-.247.275" transform="translate(-27.547 -430.591)" fill="#eaeaea"/>
        <path id="Trazado_698168" data-name="Trazado 698168" d="M994.011,505.055c37.872-22.741,89.25-47.874,103.274-26.917,16.9,25.253-42.935,35.827-89.665,50.459-16.763,5.249-37.745-9.05-13.609-23.542" transform="translate(-628.31 -297.562)" fill="#d5d6da"/>
        <path id="Trazado_698169" data-name="Trazado 698169" d="M350.838,725.025c-24.473,29.457-59.312,64.741-76.791,51.611-21.062-15.822,24.867-41.615,58.911-66.975,12.212-9.1,33.476-3.409,17.88,15.364" transform="translate(-163.722 -441.388)" fill="#d5d6da"/>
        <path id="Trazado_698170" data-name="Trazado 698170" d="M921.972,589.195s151.642-54.832,170.454-7.9-112.752,11.37-156.2,28.908Z" transform="translate(-589.254 -356.373)" fill="#eaeaea"/>
        <path id="Trazado_698171" data-name="Trazado 698171" d="M942.877,637.511c29.788-12.658,66.254-16.062,91.6-16.689a387.815,387.815,0,0,1,48.36,1.692l.148-1.285a389.269,389.269,0,0,0-48.54-1.7c-25.458.629-62.1,4.054-92.073,16.791Z" transform="translate(-602.292 -392.869)" fill="#fff"/>
        <path id="Trazado_698172" data-name="Trazado 698172" d="M405.328,629.931S393.944,772.334,349.2,770.3s32.175-95.1,33.964-136.577Z" transform="translate(-206.23 -393.147)" fill="#eaeaea"/>
        <path id="Trazado_698173" data-name="Trazado 698173" d="M425.589,635.5c-.715,28.666-11.341,59.323-20.129,79.993a343.627,343.627,0,0,1-19.1,38.382l.982.591a344.888,344.888,0,0,0,19.17-38.524c8.827-20.762,19.5-51.567,20.22-80.413Z" transform="translate(-238.909 -396.707)" fill="#fff"/>
        <path id="Trazado_698174" data-name="Trazado 698174" d="M1039.223,755.184c-11.488-10.387-28.637,5.018-35.242-11.474-5.58-13.953-5.2-15.736-11.563-17.387a23.839,23.839,0,0,0-6.684-.721c-2.7.078-7.076-.37-10.292-3.516-19.644-19.221-8.706-72.631,25.684-62.554,2.483.728,4.712,2.782,7.047,5.151,12.656,12.861,9.247,22.145,34.5,21.3s11.9,32.211,19.737,41.306,16.889,15.562,12.029,30.517-23.739,7.77-35.219-2.624" transform="translate(-631.49 -412.711)" fill="#d5d6da"/>
        <g id="Grupo_998491" data-name="Grupo 998491" transform="translate(365.276 261.845)" opacity="0.5">
          <g id="Grupo_998490" data-name="Grupo 998490" transform="translate(-14.271 8.01)">
            <g id="Grupo_998489" data-name="Grupo 998489" clip-path="url(#clip-path-3)">
              <path id="Trazado_698175" data-name="Trazado 698175" d="M1012.19,726.538l.355-.955c.421.156,42.659,16.375,89.922,79.083l-.813.614c-47.086-62.471-89.045-78.586-89.463-78.741" transform="translate(-1012.19 -725.583)" fill="#fff"/>
              <path id="Trazado_698176" data-name="Trazado 698176" d="M1159.351,754c1.534-13.846,6.481-19.64,6.691-19.879l.767.67c-.049.057-4.951,5.83-6.446,19.322Z" transform="translate(-1106.244 -731.039)" fill="#fff"/>
              <path id="Trazado_698177" data-name="Trazado 698177" d="M1137.507,786.553c2.47-5.353,8.633-9.437,17.823-11.811a68.076,68.076,0,0,1,13.191-1.991l.032,1.018c-.244.008-24.442.9-30.121,13.212Z" transform="translate(-1092.283 -755.729)" fill="#fff"/>
              <path id="Trazado_698178" data-name="Trazado 698178" d="M1174.635,850.084c.12-1.6.276-2.534.284-2.577l1,.177c-.034.2-3.3,19.826,9.288,36.3l-.809.618c-10.146-13.274-10.211-28.548-9.766-34.518" transform="translate(-1115.925 -803.507)" fill="#fff"/>
              <path id="Trazado_698179" data-name="Trazado 698179" d="M1138.293,886.021a24.031,24.031,0,0,1,7.691-13.37,17.8,17.8,0,0,1,5.524-3.345l.313.97c-.1.031-9.733,3.3-12.533,15.966Z" transform="translate(-1092.785 -817.439)" fill="#fff"/>
            </g>
          </g>
        </g>
        <path id="Trazado_698180" data-name="Trazado 698180" d="M1135.4,440.432c3.942-2.641,6.266-1.707,7.686.412s1.4,4.624-2.543,7.265c-7.181,4.81-13.223,3.3-13.223,3.3s.794-6.093,8.079-10.974" transform="translate(-720.494 -277.451)" fill="#d5d6da"/>
        <path id="Trazado_698181" data-name="Trazado 698181" d="M1238.642,702.227c5.7,1.259,6.845,4.118,6.168,7.184s-2.921,5.175-8.62,3.916c-10.382-2.293-14.173-8.952-14.173-8.952s6.093-4.475,16.626-2.148" transform="translate(-788.12 -440.19)" fill="#d5d6da"/>
        <path id="Trazado_698182" data-name="Trazado 698182" d="M369.179,287.7s-42.417-89.51-66.273-77.088,41.713,53.682,53.235,80.13Z" transform="matrix(0.978, 0.208, -0.208, 0.978, -93.105, -204.623)" fill="#d5d6da"/>
        <path id="Trazado_698183" data-name="Trazado 698183" d="M285.067,301.4s-77.059-97.588-108.467-74.49,69.251,53.3,90.589,82.458Z" transform="matrix(0.978, 0.208, -0.208, 0.978, -11.768, -196.447)" fill="#b8c1c9"/>
        <path id="Trazado_698184" data-name="Trazado 698184" d="M308.619,332.392c-14.37-20.406-36.878-37.464-53.229-48.181a299.042,299.042,0,0,0-32.373-18.556l.425-.9a300.151,300.151,0,0,1,32.495,18.624c16.424,10.765,39.037,27.907,53.5,48.441Z" transform="matrix(0.978, 0.208, -0.208, 0.978, -39.051, -229.283)" fill="#fff"/>
        <path id="Trazado_698185" data-name="Trazado 698185" d="M180.451,440.778c-6.6,10.021-28.345,9.177-36.827,2.4-2.421-1.935-12.831-16.081-35.89-16.048-16.539.014-15.932-14.442-20.939-25.867-.089-.209-.184-.416-.278-.623-1.96-4.248-4.773-8.024-9.64-10.4a66.518,66.518,0,0,1-14.645-9.718q-.542-.474-1.067-.966c-8.548-7.942-13.538-17.68-8.468-25.951.119-.2.244-.392.375-.584a19.136,19.136,0,0,1,3.615-3.924c15.66-13.082,27.828-5.3,42.566-.269,8.149,2.783,21.981-5.774,34.618-8.774.18-.044.363-.084.543-.126,10.009-2.253,19.2-.847,24.122,12.691,0,0,0,0,0,0,.1.275.2.547.3.815,11.067,29.853,69.224-8.79,21.613,87.344" transform="matrix(0.978, 0.208, -0.208, 0.978, 78.571, -252.828)" fill="#eaeaea"/>
        <path id="Trazado_698186" data-name="Trazado 698186" d="M193.9,448.534l.978-.889c-.391-.431-40.346-43.452-138.711-70.046l-.345,1.276c98,26.494,137.689,69.23,138.079,69.659" transform="matrix(0.978, 0.208, -0.208, 0.978, 80.467, -277.613)" fill="#fff"/>
        <path id="Trazado_698187" data-name="Trazado 698187" d="M137.864,310.983c-3.851-1.761-4.241-3.936-3.31-5.974s2.833-3.166,6.684-1.4c7.015,3.208,8.718,8.447,8.718,8.447s-4.975,2.186-12.093-1.068" transform="matrix(0.978, 0.208, -0.208, 0.978, 21.564, -241.215)" fill="#d5d6da"/>
        <path id="Trazado_698188" data-name="Trazado 698188" d="M388.946,593.045V571.008a11.344,11.344,0,0,0-10.773-11.587c-6.36-.217-12.281-.647-18.1-1.315-9.862-1.131-18.825-4.539-25.238-9.595-6.932-5.465-10.6-12.51-10.6-20.376V425.792c0-15.766,15.075-28.371,35.843-29.971,32.679-2.517,95.883-.3,128.945,2.272,20.8,1.616,41.117.051,57.444-1.207,5.587-.431,10.863-.837,15.52-1.066a36.188,36.188,0,0,1,26.692,9.617,28.126,28.126,0,0,1,9.183,20.354V528.136a27.356,27.356,0,0,1-8.459,19.385c-6.859,6.807-16.842,10.678-27.406,10.587-8.774-.065-20.561-.382-33.04-.717-26.578-.715-56.7-1.524-74.826-.49-9.49.541-19.5,1.1-28.371,1.544a17.239,17.239,0,0,0-13.394,7.585Zm8.564-197.816c-14.194,0-27.258.325-37.389,1.105-20.494,1.579-35.369,13.968-35.369,29.458V528.136c0,7.7,3.6,14.608,10.4,19.972,6.339,5,15.21,8.367,24.978,9.488,5.806.666,11.713,1.095,18.06,1.311a11.856,11.856,0,0,1,11.27,12.1v20.659l22.5-25.953a17.731,17.731,0,0,1,13.774-7.784c8.874-.442,18.878-1,28.367-1.544,18.146-1.035,48.281-.224,74.869.49,12.476.335,24.261.652,33.03.717h.313c10.307,0,20.032-3.8,26.726-10.44a26.844,26.844,0,0,0,8.307-19.019V425.792a27.619,27.619,0,0,0-9.024-19.982,35.66,35.66,0,0,0-26.313-9.476l-.012-.257.012.257c-4.649.229-9.923.635-15.505,1.065-16.346,1.259-36.687,2.826-57.523,1.207-22.793-1.772-59.92-3.377-91.477-3.377" transform="translate(-207.228 -252.272)" fill="#131f2d"/>
        <path id="Trazado_698189" data-name="Trazado 698189" d="M587.237,387.781c-18.575.88-45.9,4.364-74.376,2.231-33.873-2.537-98.166-4.694-131.341-2.231-19.951,1.481-36.279,13.061-36.279,29.172V517.429c0,16.111,16.429,26.979,36.279,29.172,5.957.658,11.961,1.076,18.422,1.289a11.627,11.627,0,0,1,11.23,11.627v27.714l23.389-32.745a18.085,18.085,0,0,1,13.85-7.555c8.6-.413,18.144-.925,28.905-1.516,27.383-1.5,82.44.988,109.922,1.186,20.035.144,36.279-13.061,36.279-29.172V416.953c0-16.111-16.277-30.12-36.279-29.172" transform="translate(-220.651 -247.147)" fill="#00a3fe"/>
        <path id="Trazado_698190" data-name="Trazado 698190" d="M490.236,572.788V581.1a3.818,3.818,0,0,0,3.818,3.818h7.82a3.817,3.817,0,0,0,3.817-3.818v-8.312a3.818,3.818,0,0,1,3.818-3.818h1.724a3.818,3.818,0,0,1,3.818,3.818v33.866a3.818,3.818,0,0,1-3.818,3.818h-1.724a3.818,3.818,0,0,1-3.818-3.818v-9.729a3.817,3.817,0,0,0-3.817-3.817h-7.82a3.817,3.817,0,0,0-3.818,3.817v9.729a3.818,3.818,0,0,1-3.818,3.818h-1.724a3.818,3.818,0,0,1-3.818-3.818V572.788a3.818,3.818,0,0,1,3.818-3.818h1.724a3.818,3.818,0,0,1,3.818,3.818" transform="translate(-307.34 -363.643)" fill="#eaeaea"/>
        <path id="Trazado_698191" data-name="Trazado 698191" d="M619.25,592.923h-7.635a3.818,3.818,0,0,0-3.817,3.818v2.217a3.817,3.817,0,0,0,3.817,3.818h9.421a3.818,3.818,0,0,1,3.818,3.818v.062a3.818,3.818,0,0,1-3.818,3.818h-18.78a3.818,3.818,0,0,1-3.818-3.818V572.788a3.818,3.818,0,0,1,3.818-3.818h17.919a3.817,3.817,0,0,1,3.817,3.818v.061a3.817,3.817,0,0,1-3.817,3.818h-8.559a3.818,3.818,0,0,0-3.817,3.818v.985a3.818,3.818,0,0,0,3.817,3.818h7.635a3.818,3.818,0,0,1,0,7.635" transform="translate(-382.475 -363.643)" fill="#eaeaea"/>
        <path id="Trazado_698192" data-name="Trazado 698192" d="M693.368,568.97h1.724a3.817,3.817,0,0,1,3.817,3.818v25.985a3.818,3.818,0,0,0,3.818,3.818h8.867a3.818,3.818,0,0,1,3.818,3.818v.246a3.818,3.818,0,0,1-3.818,3.818H693.368a3.818,3.818,0,0,1-3.818-3.818V572.788a3.818,3.818,0,0,1,3.818-3.818" transform="translate(-440.707 -363.643)" fill="#eaeaea"/>
        <path id="Trazado_698193" data-name="Trazado 698193" d="M780.556,568.97h1.724a3.818,3.818,0,0,1,3.818,3.818v25.985a3.818,3.818,0,0,0,3.818,3.818h8.867a3.818,3.818,0,0,1,3.818,3.818v.246a3.818,3.818,0,0,1-3.818,3.818H780.556a3.818,3.818,0,0,1-3.818-3.818V572.788a3.818,3.818,0,0,1,3.818-3.818" transform="translate(-496.431 -363.643)" fill="#eaeaea"/>
        <path id="Trazado_698194" data-name="Trazado 698194" d="M891.884,587.982c0,13.67-8.189,21.859-20.381,21.859-12.254,0-19.52-9.3-19.52-21.182,0-12.438,8-21.736,20.2-21.736,12.746,0,19.7,9.544,19.7,21.059m-29.987.493c0,8.189,3.818,13.916,10.1,13.916,6.342,0,9.975-6.034,9.975-14.1,0-7.512-3.51-13.916-9.975-13.916-6.4,0-10.1,6.034-10.1,14.1" transform="translate(-544.522 -362.334)" fill="#eaeaea"/>
        <path id="Trazado_698195" data-name="Trazado 698195" d="M1071.362,989.472s.771,5.031,2.823,7.595c1.353,1.69,5.084,5.038,2.431,6.154-2.119.891-6.2-3.075-7.525-4.062s-3.323-2.855-2.88-4.446a25.76,25.76,0,0,0,.615-7.441Z" transform="translate(-681.401 -630.988)" fill="#131f2d"/>
        <path id="Trazado_698196" data-name="Trazado 698196" d="M1027.042,976.11s-1.026,4.985.007,8.1c.681,2.055,3.015,6.491.139,6.615-2.3.1-4.744-5.039-5.643-6.425s-2.123-3.831-1.154-5.17a25.742,25.742,0,0,0,3.164-6.763Z" transform="translate(-651.928 -621.529)" fill="#131f2d"/>
        <path id="Trazado_698197" data-name="Trazado 698197" d="M1019.052,890.125c27.51-18.35,26.151-34.426,22.339-40.713-4.427-7.3-11.438-13.074-22.182-15.65a59.574,59.574,0,0,0-7.869-1.312,5.5,5.5,0,0,0-6.054,5.619l.247,9.363h-.021c4.59-.1,18.515,1.3,22.164,8.724.758,1.543-17.76,23.292-17.069,27.195.782,4.415,5.755,8.569,8.445,6.775" transform="translate(-642.501 -532.021)" fill="#364154"/>
        <path id="Trazado_698198" data-name="Trazado 698198" d="M995.542,895.194a5.48,5.48,0,0,0,5.5-5.8c-.415-7.021-1.719-18.971-5.808-28a38.623,38.623,0,0,0-10.958-13.838,61.309,61.309,0,0,0-13.283-8.135c-8.449-3.885-14.534-3.343-14.534-3.343l-4.617,6.809c.061.012-1.3,6.868,8.467,12.981,5.386,3.373,16.213,5.434,20.667,14.151,3.18,6.223,4.4,14.474,4.8,20.24a5.286,5.286,0,0,0,5.249,4.912Z" transform="translate(-608.323 -534.341)" fill="#364154"/>
        <path id="Trazado_698199" data-name="Trazado 698199" d="M1042.788,769.249a60.648,60.648,0,0,1,7.707,21.671c1.345,8.564-14.239-1.406-14.239-1.406l-.693-17.889Z" transform="translate(-661.852 -491.646)" fill="#ff7955"/>
        <path id="Trazado_698200" data-name="Trazado 698200" d="M958.67,745.742s4.322-7.387,14.285-5.12,14.022,12.443,14.736,36.879c0,0-5.983,10.587-33.2,8.523-3.016-.229-7.337-.628-5.863-5.517,2.74-9.089,5.393-27.219,10.044-34.765" transform="translate(-606.099 -473.073)" fill="#a0462d"/>
        <path id="Trazado_698201" data-name="Trazado 698201" d="M946.615,747.338l10.248,1.926s17.92,5.3,22.936,5.341a8.124,8.124,0,0,0,7.093-3.627,26.541,26.541,0,0,0-12.526-10.108,24.631,24.631,0,0,0-2.506-.81,18.422,18.422,0,0,0-4.456-.746c-16.916-.194-20.789,8.023-20.789,8.023" transform="translate(-605.004 -472.512)" fill="#a0462d"/>
        <path id="Trazado_698202" data-name="Trazado 698202" d="M946.587,760.524c-.222.808,1.926,2.156,4.8,3.011s5.379.893,5.6.085-1.926-2.156-4.8-3.011-5.379-.894-5.6-.086" transform="translate(-604.976 -485.697)" fill="#131f2d"/>
        <path id="Trazado_698203" data-name="Trazado 698203" d="M946.79,785c4.377,6.858,13.047,11.236,22.158,10.949l-.971-7.31c-7.064-1.288-12.48-5.885-13.489-9.761a31.46,31.46,0,0,1-.227-13.178.922.922,0,0,0-.348-.887,12.467,12.467,0,0,0-7.425-2.181.809.809,0,0,0-.8.6c-1.75,6.59-2.806,15.646,1.1,21.766" transform="translate(-603.409 -487.416)" fill="#ff7955"/>
        <path id="Trazado_698204" data-name="Trazado 698204" d="M961.024,823.951a1.324,1.324,0,0,1-.5-.1,2.244,2.244,0,0,1-1.149-1.219,1.762,1.762,0,0,1,.558-2.358,1.19,1.19,0,0,1,.927.015,2.242,2.242,0,0,1,1.149,1.219,1.761,1.761,0,0,1-.558,2.357,1.093,1.093,0,0,1-.431.087m-.656-3.59a.92.92,0,0,0-.362.073,1.593,1.593,0,0,0-.465,2.127,2.066,2.066,0,0,0,1.053,1.125,1.016,1.016,0,0,0,.792.015,1.592,1.592,0,0,0,.465-2.127,2.067,2.067,0,0,0-1.053-1.125,1.154,1.154,0,0,0-.431-.088" transform="translate(-613.032 -524.201)" fill="#e9845c"/>
        <path id="Trazado_698205" data-name="Trazado 698205" d="M1009.142,832.287s6.543-2.081,8.623-1.1,3.993,3.814,2.574,3.477a15.18,15.18,0,0,1-3.113-1.267s3.526,2.158,2.664,2.764-3.91-1.3-3.91-1.3,3.991,2.9,2.991,3.211-4.016-1.918-4.016-1.918,3.606,2.849,2.436,3.181-2.964-2.374-3.826-1.768-3.061,3.389-5.037,1.2Z" transform="translate(-644.574 -531.065)" fill="#ff7955"/>
        <path id="Trazado_698206" data-name="Trazado 698206" d="M1029.694,836.637c-.009-.007-.883-.731-1.526-.551l-.047-.163c.731-.208,1.643.552,1.682.584Z" transform="translate(-657.097 -534.236)" fill="#e9845c"/>
        <path id="Trazado_698207" data-name="Trazado 698207" d="M1025.72,840.545a2.876,2.876,0,0,0-1.852-.657l-.013-.17a3,3,0,0,1,1.977.7Z" transform="translate(-654.369 -536.68)" fill="#e9845c"/>
        <path id="Trazado_698208" data-name="Trazado 698208" d="M1023.047,844.125c-.011-.009-1.05-.874-1.714-.622l-.06-.159c.758-.285,1.838.612,1.883.651Z" transform="translate(-652.719 -538.966)" fill="#e9845c"/>
        <path id="Trazado_698209" data-name="Trazado 698209" d="M1030.692,836.229H1051.7a1.021,1.021,0,0,0,.969-.694l4.365-13.036a1.015,1.015,0,0,0-.969-1.334h-20.2a2.136,2.136,0,0,0-2.028,1.453l-4.111,12.277a1.015,1.015,0,0,0,.969,1.334" transform="translate(-658.086 -524.826)" fill="#131f2d"/>
        <path id="Trazado_698210" data-name="Trazado 698210" d="M1034.346,836.229h21.005a1.021,1.021,0,0,0,.969-.694l4.365-13.036a1.016,1.016,0,0,0-.969-1.334h-20.2a2.136,2.136,0,0,0-2.028,1.453l-4.111,12.277a1.015,1.015,0,0,0,.969,1.334" transform="translate(-660.422 -524.826)" fill="#131f2d"/>
        <path id="Trazado_698211" data-name="Trazado 698211" d="M1072.731,839.621c0-.495-.571-.7-1.069-.7a1.428,1.428,0,0,0-1.307,1.237c.006.748.591.846,1.089.846a1.648,1.648,0,0,0,1.288-1.386" transform="translate(-684.089 -536.177)" fill="#daebe8"/>
        <path id="Trazado_698212" data-name="Trazado 698212" d="M1012.594,857.8h28.739v1.842h-29.339a.621.621,0,0,1-.621-.621,1.222,1.222,0,0,1,1.222-1.222" transform="translate(-646.391 -548.243)" fill="#131f2d"/>
        <path id="Trazado_698213" data-name="Trazado 698213" d="M1040.062,827.638l-.132-.035a35.933,35.933,0,0,1,1.721-5.136,2.917,2.917,0,0,1,1.56-1.486l.036.132a2.846,2.846,0,0,0-1.476,1.42,36.749,36.749,0,0,0-1.708,5.1" transform="translate(-664.643 -524.709)" fill="#366f90"/>
        <path id="Trazado_698214" data-name="Trazado 698214" d="M1031.692,848.6v-.136c.688,0,.859-.286.861-.288l1.632-4.878.13.043-1.637,4.889c-.013.026-.206.37-.985.37" transform="translate(-659.378 -538.974)" fill="#366f90"/>
        <path id="Trazado_698215" data-name="Trazado 698215" d="M1060.581,899.487a77.024,77.024,0,0,0-2.38-13.422c-1.787-6.534-5.249-15.121-11.6-18.923l.087-.146c6.4,3.831,9.883,12.461,11.677,19.026a77.275,77.275,0,0,1,2.385,13.452Z" transform="translate(-668.907 -554.119)" fill="#020202"/>
        <path id="Trazado_698216" data-name="Trazado 698216" d="M1040.667,959.282a49.675,49.675,0,0,0-3.286-17.334l.156-.067a49.852,49.852,0,0,1,3.3,17.4Z" transform="translate(-663.014 -601.979)" fill="#020202"/>
        <path id="Trazado_698217" data-name="Trazado 698217" d="M1020.47,726.261s-2.328-1.2-2.581-2.581-1.191-1.055-1.676-1.449,1.313-3.922,1.313-3.922l5.186-1.358-1.127,6.381Z" transform="translate(-649.432 -458.221)" fill="#131f2d"/>
        <path id="Trazado_698218" data-name="Trazado 698218" d="M999.1,720.82a3,3,0,0,0,2.6-1.548l1.63-2.976.473-.864,2.781-5.08-.915,5.451-.549,3.271-.157.932a1.505,1.505,0,0,0,1.087,1.7l.013,0c.343.7.776,2.093-.948,2.467-2.027.44-5.062-1.41-6.03-3.353h.017" transform="translate(-638.535 -454.003)" fill="#ff7955"/>
        <path id="Trazado_698219" data-name="Trazado 698219" d="M1010.845,725.092c0,.03,0,.061,0,.091a3.5,3.5,0,0,0,1.777,2.787l.013-.009.549-3.271a2.823,2.823,0,0,0-1.866-.371.777.777,0,0,0-.47.773" transform="translate(-646.052 -462.891)" fill="#e1986c"/>
        <path id="Trazado_698220" data-name="Trazado 698220" d="M1016.282,702.039c.333-3.513-1.706-6.58-4.554-6.849s-5.426,2.36-5.758,5.873,1.706,6.579,4.554,6.849,5.426-2.36,5.759-5.873" transform="translate(-642.916 -444.3)" fill="#ff7955"/>
        <path id="Trazado_698221" data-name="Trazado 698221" d="M1020.76,723.37a11.249,11.249,0,0,1-3.468-.911,1.725,1.725,0,0,0,1.586,2.019c1.1.172,1.882-1.108,1.882-1.108" transform="translate(-650.162 -461.741)" fill="#fff"/>
        <path id="Trazado_698222" data-name="Trazado 698222" d="M1018.93,712.444a.118.118,0,0,0,.034-.221,1.276,1.276,0,0,0-1.55.195.119.119,0,0,0-.011.166.13.13,0,0,0,.166.012,2.017,2.017,0,0,1,1.288-.163.118.118,0,0,0,.074.011" transform="translate(-650.227 -455.085)" fill="#080435"/>
        <path id="Trazado_698223" data-name="Trazado 698223" d="M1018.1,715.432c-.035.279.1.526.3.552s.4-.18.431-.458-.1-.526-.3-.552-.4.18-.431.459" transform="translate(-650.685 -456.955)" fill="#080435"/>
        <path id="Trazado_698224" data-name="Trazado 698224" d="M1027.273,716.966a.456.456,0,0,0,.267.57c.2.038.406-.154.459-.43a.457.457,0,0,0-.267-.57c-.2-.038-.406.154-.459.43" transform="translate(-656.546 -457.952)" fill="#080435"/>
        <path id="Trazado_698225" data-name="Trazado 698225" d="M1009.412,691.193a9.077,9.077,0,0,1,6.061,9.179q-.022.354-.057.727a3.658,3.658,0,0,0-3.113,2.942c-.122.816,2.114,2.437,2.286,2.379,1.294-.435,4.821-3.151,4.654-9.22s-2.075-10.7-7.568-11.4-5.105,3.037-5.105,3.037a5.186,5.186,0,0,0,2.842,2.358" transform="translate(-643.319 -438.254)" fill="#131f2d"/>
        <path id="Trazado_698226" data-name="Trazado 698226" d="M1002.426,696.136s-.1.052-.261.154a5.93,5.93,0,0,0-2.629,3.463c-.552,2.4,1.646,4.14.825,5.962s-2.32-.451-3.728-.26-2.357-.547-2.188-3.311,1.42-9.131,4.68-8.822Z" transform="translate(-635.561 -443.112)" fill="#131f2d"/>
        <path id="Trazado_698227" data-name="Trazado 698227" d="M1005.281,710.314a1.273,1.273,0,0,0,1.812.3,1.424,1.424,0,0,0-.112-1.919,1.273,1.273,0,0,0-1.812-.3,1.424,1.424,0,0,0,.112,1.919" transform="translate(-642.221 -452.583)" fill="#ff7955"/>
        <path id="Trazado_698228" data-name="Trazado 698228" d="M1022.4,711.3h-.011a.063.063,0,0,1-.05-.073,14.835,14.835,0,0,0-1.686-10.056c-2.134-3.386-4.771-3.224-4.8-3.221a.066.066,0,0,1-.067-.057.063.063,0,0,1,.057-.067c.027,0,2.733-.177,4.912,3.279a14.973,14.973,0,0,1,1.7,10.146.063.063,0,0,1-.062.051" transform="translate(-649.215 -445.998)" fill="#fff"/>
        <path id="Trazado_698229" data-name="Trazado 698229" d="M1000.19,704.883a.062.062,0,0,1-.059-.041c-.991-2.717.069-7.163,1.236-8.41a2.4,2.4,0,0,1,2.828-.369.062.062,0,0,1-.061.109,2.229,2.229,0,0,0-2.676.346c-1.147,1.226-2.187,5.6-1.209,8.282a.063.063,0,0,1-.037.08.067.067,0,0,1-.022,0" transform="translate(-638.956 -444.671)" fill="#fff"/>
        <path id="Trazado_698230" data-name="Trazado 698230" d="M1022.37,704.081h0a.063.063,0,0,1-.06-.065c0-.074.244-7.488-2.567-9.022a5.41,5.41,0,0,0-5.176-.127.062.062,0,1,1-.065-.106,5.536,5.536,0,0,1,5.3.124c2.879,1.57,2.643,8.827,2.632,9.135a.063.063,0,0,1-.062.06" transform="translate(-648.372 -443.649)" fill="#fff"/>
        <path id="Trazado_698231" data-name="Trazado 698231" d="M173.327,511.422c.661,1.178,7.3,11.461,5.91,21.518l-7.225-2.612-3.3-13.557Z" transform="translate(-107.826 -326.862)" fill="#ff7955"/>
        <path id="Trazado_698232" data-name="Trazado 698232" d="M83.01,488.86s4.44-7.962,15.245-5.761,16.7,17.668,13.772,48.3c0,0-17.167-6.825-39.489-1.323,0,0,3.674-29.669,10.472-41.219" transform="translate(-46.361 -308.515)" fill="#00a3fe"/>
        <path id="Trazado_698233" data-name="Trazado 698233" d="M78.715,484.985l7.6,7.582s19.473,5.261,24.881,5.2a8.689,8.689,0,0,0,7.537-4.016,28.837,28.837,0,0,0-13.8-10.5,26.917,26.917,0,0,0-2.725-.809,27.8,27.8,0,0,0-4.825-.7c-9.561-.569-18.663,3.242-18.663,3.242" transform="translate(-50.309 -307.857)" fill="#00a3fe"/>
        <path id="Trazado_698234" data-name="Trazado 698234" d="M78.037,490.557c-1.214,1.32.658,2.761,2.756,4.855s4.264,3.315,4.839,2.727-.658-2.761-2.756-4.856-4.283-3.333-4.839-2.727" transform="translate(-49.63 -313.429)" fill="#131f2d"/>
        <path id="Trazado_698235" data-name="Trazado 698235" d="M83.776,501.5s.113-1.514-1.79-3.448a11.563,11.563,0,0,0-3.571-2.347,1.11,1.11,0,0,0-1.477.623l-.609,1.57,2.835,1.826Z" transform="translate(-48.784 -316.76)" fill="#ff7955"/>
        <path id="Trazado_698236" data-name="Trazado 698236" d="M74.608,580.338s-23.433-12.7-31.832,1.154c-6.218,10.254,3.128,19.8,37.795,18.834,0,0,3.426-1.6,2.592-9.928-.331-3.3-8.555-10.059-8.555-10.059" transform="translate(-26.194 -367.51)" fill="#a0462d"/>
        <path id="Trazado_698237" data-name="Trazado 698237" d="M134.156,576.612s31.209-12.784,37.384-4.792c7.1,9.185.291,24.78-32.606,19.205l-4.009-4.354Z" transform="translate(-85.742 -363.785)" fill="#a0462d"/>
        <path id="Trazado_698238" data-name="Trazado 698238" d="M113.312,612.231l-.076-.107c3.64-2.6,2.661-9.266,2.572-9.827l-23.655-8.609.045-.123,23.727,8.635.006.037c.013.072,1.231,7.247-2.618,9.994" transform="translate(-58.897 -379.362)" fill="#020202"/>
        <path id="Trazado_698239" data-name="Trazado 698239" d="M156.909,623.975s5.752.234,8.453,1.559,1.259,4.559-4.227,4.473-5.069-.9-5.069-.9a14.346,14.346,0,0,0,.843-5.129" transform="translate(-99.741 -398.798)" fill="#131f2d"/>
        <path id="Trazado_698240" data-name="Trazado 698240" d="M94.965,532.069A7.616,7.616,0,0,0,99.7,530.63a6.821,6.821,0,0,0,2.493-6.607L99.9,522.69c-.114-.629-4.538,1.708-4.53,1.706-.02.006-2.111.612-9.362-3.094-5.047-2.579-7.591-6.24-7.777-11.191a12.043,12.043,0,0,1,1.917-6.738c.052-.121-2.439-2.619-2.368-2.873l-1.868-.949c.06-.214-1.8-.946-1.769-1.007L72.7,499.772A24.043,24.043,0,0,0,70.675,510.4c.2,5.407,2.436,12.87,11.92,17.718,5.172,2.643,9.231,3.951,12.369,3.951" transform="translate(-45.159 -318.632)" fill="#ff7955"/>
        <path id="Trazado_698241" data-name="Trazado 698241" d="M140.534,566.6h20.223a.982.982,0,0,0,.933-.668l4.2-12.551a.978.978,0,0,0-.933-1.284H145.511a2.056,2.056,0,0,0-1.952,1.4l-3.958,11.82a.977.977,0,0,0,.933,1.284" transform="translate(-89.19 -352.857)" fill="#131f2d"/>
        <path id="Trazado_698242" data-name="Trazado 698242" d="M144.051,566.6h20.223a.982.982,0,0,0,.933-.668l4.2-12.551a.978.978,0,0,0-.933-1.284H149.028a2.056,2.056,0,0,0-1.952,1.4l-3.958,11.82a.977.977,0,0,0,.933,1.284" transform="translate(-91.437 -352.857)" fill="#131f2d"/>
        <path id="Trazado_698243" data-name="Trazado 698243" d="M181.006,569.863c0-.476-.55-.671-1.03-.671a1.375,1.375,0,0,0-1.258,1.191c.005.72.569.814,1.048.814a1.587,1.587,0,0,0,1.24-1.334" transform="translate(-114.223 -363.785)" fill="#daebe8"/>
        <path id="Trazado_698244" data-name="Trazado 698244" d="M123.109,587.369h27.668v1.774H122.531a.6.6,0,0,1-.6-.6,1.176,1.176,0,0,1,1.176-1.176" transform="translate(-77.93 -375.402)" fill="#131f2d"/>
        <path id="Trazado_698245" data-name="Trazado 698245" d="M149.553,558.327l-.127-.034a34.572,34.572,0,0,1,1.656-4.945,2.81,2.81,0,0,1,1.5-1.43l.035.127a2.735,2.735,0,0,0-1.422,1.367,35.445,35.445,0,0,0-1.645,4.914" transform="translate(-95.502 -352.745)" fill="#131f2d"/>
        <path id="Trazado_698246" data-name="Trazado 698246" d="M141.5,578.51v-.131c.662,0,.827-.275.829-.277l1.571-4.7.125.042-1.576,4.707c-.012.024-.2.356-.948.356" transform="translate(-90.433 -366.477)" fill="#131f2d"/>
        <path id="Trazado_698247" data-name="Trazado 698247" d="M84.327,555.329a.849.849,0,0,1-.225-.031,2.348,2.348,0,0,1-1.248-1.138c-.512-.9-.526-1.824-.031-2.113a.708.708,0,0,1,.551-.053,2.347,2.347,0,0,1,1.248,1.138c.512.9.526,1.824.032,2.113a.642.642,0,0,1-.326.084m-1.245-1.3a2.118,2.118,0,0,0,1.088,1.014.45.45,0,0,0,.351-.026c.356-.208.3-1.012-.127-1.755a2.123,2.123,0,0,0-1.088-1.015.451.451,0,0,0-.35.026c-.357.208-.3,1.012.127,1.755" transform="translate(-52.702 -352.773)" fill="#ec865c"/>
        <path id="Trazado_698248" data-name="Trazado 698248" d="M129.906,465.092c1.329-.039,2.336-.176,3.1-1.075l2.366-2.782.688-.81,4.049-4.762-2.126,5.569-1.276,3.342-.4,1.058c-.274.718.088,1.053.343,1.893.1.34.8,2.435-1.016,2.448-2.264.017-5.129-2.616-5.758-4.888a.165.165,0,0,0,.035.007" transform="translate(-83.004 -291.226)" fill="#ff7955"/>
        <path id="Trazado_698249" data-name="Trazado 698249" d="M138.536,450.7s-4.458-4.284-1.886-7.9,3.214,5.8,3.214,5.8l-.719,2.178Z" transform="translate(-86.825 -282.474)" fill="#131f2d"/>
        <path id="Trazado_698250" data-name="Trazado 698250" d="M145.023,469.555c-.008.032-.016.064-.022.1A3.818,3.818,0,0,0,146.32,473l.015-.006,1.277-3.342a3.137,3.137,0,0,0-1.922-.807.83.83,0,0,0-.666.714" transform="translate(-92.633 -299.64)" fill="#131f2d"/>
        <path id="Trazado_698251" data-name="Trazado 698251" d="M153.117,450.616c1.005-3.348-.409-6.744-3.159-7.586s-5.794,1.19-6.8,4.538.409,6.744,3.159,7.586,5.794-1.19,6.8-4.538" transform="translate(-91.289 -283.03)" fill="#ff7955"/>
        <path id="Trazado_698252" data-name="Trazado 698252" d="M141.052,441.664a2.374,2.374,0,0,0,2.609.16c1.19-.873,2.031-1.7,4.7-.359s5.581.739,6.119-.771-.73-2.666-2.4-2.591.354-.843-.81-2.429-4.117.048-5.581-.739-6.678-1.47-7.616,3Z" transform="translate(-88.241 -277.61)" fill="#131f2d"/>
        <path id="Trazado_698253" data-name="Trazado 698253" d="M142.9,454.128a1.071,1.071,0,0,0,1.466.4,1.094,1.094,0,0,0,.227-1.516,1.071,1.071,0,0,0-1.466-.4,1.094,1.094,0,0,0-.227,1.516" transform="translate(-91.199 -289.179)" fill="#ff7955"/>
        <path id="Trazado_698254" data-name="Trazado 698254" d="M170.591,447.678c-1.119,0-2.638-1.366-2.708-1.429l.131-.144c.018.016,1.79,1.611,2.815,1.35.394-.1.616-.286.581-.487s-.314-.371-.71-.331a2.206,2.206,0,0,1-1.357-.218l.105-.164a2.067,2.067,0,0,0,1.232.188c.532-.055.872.213.922.492.043.244-.125.558-.725.71a1.147,1.147,0,0,1-.286.034" transform="translate(-107.298 -285.117)" fill="#fff"/>
        <path id="Trazado_698255" data-name="Trazado 698255" d="M154.616,437.212a3.051,3.051,0,0,1-1.116-.2,11.958,11.958,0,0,1-1.256-.6,3.289,3.289,0,0,0-2.118-.606l-.037-.192a3.424,3.424,0,0,1,2.246.625,11.763,11.763,0,0,0,1.236.591,4,4,0,0,0,3.039-.319l.143.132a4.267,4.267,0,0,1-2.137.566" transform="translate(-95.925 -278.391)" fill="#fff"/>
        <path id="Trazado_698256" data-name="Trazado 698256" d="M141.453,441.652a.225.225,0,0,1-.079-.013c-.065-.025-.166-.1-.1-.34l.014-.031c.109-.156.675-.924,1.065-.678.05.031.155.127.051.335a1.593,1.593,0,0,1-.948.727m0-.287c-.018.074-.007.1-.007.1a1.2,1.2,0,0,0,.6-.393c.189-.2.2-.3.2-.312-.173-.109-.571.294-.794.608" transform="translate(-90.277 -281.561)" fill="#fff"/>
        <path id="Trazado_698257" data-name="Trazado 698257" d="M157.827,459.951a.1.1,0,0,0,.078-.054.107.107,0,0,0-.04-.145,1.134,1.134,0,0,0-1.393.131.108.108,0,0,0-.015.15.115.115,0,0,0,.148.016,1.789,1.789,0,0,1,1.157-.11.1.1,0,0,0,.066.012" transform="translate(-99.98 -293.724)" fill="#080435"/>
        <path id="Trazado_698258" data-name="Trazado 698258" d="M157.583,462.828c-.04.251.074.478.254.507s.359-.15.4-.4-.074-.478-.255-.507-.359.151-.4.4" transform="translate(-100.71 -295.546)" fill="#080435"/>
        <path id="Trazado_698259" data-name="Trazado 698259" d="M168.734,463.258a.077.077,0,0,0,.074-.025.129.129,0,0,0,.021-.148.737.737,0,0,0-1.03-.335.127.127,0,0,0-.063.135.078.078,0,0,0,.1.063,1.1,1.1,0,0,1,.856.278.072.072,0,0,0,.042.033" transform="translate(-107.203 -295.694)" fill="#080435"/>
        <path id="Trazado_698260" data-name="Trazado 698260" d="M166.689,465.52a.415.415,0,0,0,.044.567c.156.1.389,0,.52-.218a.415.415,0,0,0-.044-.567c-.156-.1-.389,0-.52.218" transform="translate(-106.479 -297.362)" fill="#080435"/>
        <path id="Trazado_698261" data-name="Trazado 698261" d="M154.639,471.059a2.365,2.365,0,0,1-2.16-1.191.074.074,0,0,1,.129-.073,2.388,2.388,0,0,0,2.633,1.055.074.074,0,1,1,.036.143,2.858,2.858,0,0,1-.638.066" transform="translate(-97.447 -300.234)" fill="#020202"/>
        <path id="Trazado_698262" data-name="Trazado 698262" d="M151.948,469.7a.086.086,0,0,1-.023,0,.075.075,0,0,1-.047-.094.992.992,0,0,1,.486-.5.083.083,0,0,1,.108.02.067.067,0,0,1-.013.1l-.021.013a.837.837,0,0,0-.419.423.075.075,0,0,1-.07.051" transform="translate(-97.066 -299.804)" fill="#020202"/>
        <rect id="Rectángulo_344686" data-name="Rectángulo 344686" width="0.324" height="3.82" transform="translate(62.934 185.699) rotate(-18.209)" fill="#131f2d"/>
        <path id="Trazado_698263" data-name="Trazado 698263" d="M165.577,463.955a1.39,1.39,0,0,1-1-.418c-.89-.882-.848-2.924.093-4.553a3.294,3.294,0,0,1,2.174-1.769,1.408,1.408,0,0,1,1.216.4c.889.881.847,2.923-.094,4.552a3.3,3.3,0,0,1-2.174,1.769,1.6,1.6,0,0,1-.214.015m1.477-6.534a1.37,1.37,0,0,0-.182.013,3.081,3.081,0,0,0-2.013,1.66c-.895,1.548-.952,3.471-.129,4.286a1.19,1.19,0,0,0,1.032.341,3.083,3.083,0,0,0,2.013-1.661c.894-1.548.952-3.471.129-4.286a1.18,1.18,0,0,0-.85-.354" transform="translate(-104.774 -292.209)" fill="#fff"/>
        <g id="Grupo_998494" data-name="Grupo 998494" transform="translate(54.138 162.569)" opacity="0.3">
          <g id="Grupo_998493" data-name="Grupo 998493">
            <g id="Grupo_998492" data-name="Grupo 998492" clip-path="url(#clip-path-4)">
              <path id="Trazado_698264" data-name="Trazado 698264" d="M150.475,452.3c-.762,1.62-.551,3.592.471,4.4s2.468.156,3.23-1.464.551-3.592-.471-4.4-2.468-.156-3.23,1.464" transform="translate(-150.017 -450.485)" fill="#fff"/>
            </g>
          </g>
        </g>
        <g id="Grupo_998497" data-name="Grupo 998497" transform="translate(59.306 165.078)" opacity="0.3">
          <g id="Grupo_998496" data-name="Grupo 998496">
            <g id="Grupo_998495" data-name="Grupo 998495" clip-path="url(#clip-path-5)">
              <path id="Trazado_698265" data-name="Trazado 698265" d="M164.852,459.265c-.765,1.628-.661,3.6.231,4.412s2.236.145,3-1.483.661-3.6-.231-4.412-2.236-.144-3,1.484" transform="translate(-164.339 -457.437)" fill="#fff"/>
            </g>
          </g>
        </g>
        <path id="Trazado_698266" data-name="Trazado 698266" d="M151.952,456.391a1.777,1.777,0,0,1-1.11-.393c-1.129-.881-1.378-3.005-.555-4.735a3.256,3.256,0,0,1,2.044-1.892,1.781,1.781,0,0,1,1.554.34c1.129.881,1.378,3.005.555,4.735a3.256,3.256,0,0,1-2.044,1.892,1.921,1.921,0,0,1-.445.053m.821-6.852a1.691,1.691,0,0,0-.391.047,3.083,3.083,0,0,0-1.9,1.772c-.781,1.642-.56,3.646.492,4.467a1.567,1.567,0,0,0,1.368.3,3.084,3.084,0,0,0,1.9-1.772c.781-1.642.56-3.646-.492-4.467a1.566,1.566,0,0,0-.977-.345" transform="translate(-95.742 -287.17)" fill="#fff"/>
        <path id="Trazado_698267" data-name="Trazado 698267" d="M163.047,462.535a.2.2,0,0,1-.162-.08,1.819,1.819,0,0,0-1.373-.576.206.206,0,0,1-.2-.211.2.2,0,0,1,.21-.2,2.219,2.219,0,0,1,1.688.736.205.205,0,0,1-.163.33" transform="translate(-103.098 -294.936)" fill="#fff"/>
        <path id="Trazado_698268" data-name="Trazado 698268" d="M680.07,512.422s-.87,5.632-3.185,8.5c-1.526,1.892-5.736,5.64-2.742,6.89,2.391,1,7-3.444,8.49-4.548s3.749-3.2,3.249-4.978a28.623,28.623,0,0,1-.694-8.331Z" transform="translate(-430.19 -325.927)" fill="#131f2d"/>
        <path id="Trazado_698269" data-name="Trazado 698269" d="M721.371,497.463s1.157,5.581-.008,9.072c-.768,2.3-3.4,7.268-.157,7.406,2.591.11,5.352-5.642,6.366-7.193s2.4-4.29,1.3-5.788a28.736,28.736,0,0,1-3.569-7.572Z" transform="translate(-459.93 -315.336)" fill="#131f2d"/>
        <path id="Trazado_698270" data-name="Trazado 698270" d="M671.223,401.192c-31.037-20.545-29.5-38.544-25.2-45.583,5-8.175,12.9-14.638,25.026-17.522a67.64,67.64,0,0,1,8.878-1.469,6.189,6.189,0,0,1,6.83,6.291l-.278,10.482h.024c-5.179-.108-20.889,1.459-25.006,9.767-.855,1.727,20.037,26.079,19.257,30.448-.882,4.943-6.493,9.594-9.528,7.585" transform="translate(-411.404 -215.121)" fill="#364154"/>
        <path id="Trazado_698271" data-name="Trazado 698271" d="M675.609,406.866a6.156,6.156,0,0,1-6.205-6.494c.468-7.861,1.939-21.24,6.553-31.349a43.294,43.294,0,0,1,12.362-15.493,69.248,69.248,0,0,1,14.986-9.109c9.532-4.35,16.4-3.743,16.4-3.743l4.487,2.693c-.069.014,6.493,15.071-5.616,21.773-12.4,6.863-21.505,3.775-26.53,13.535-3.588,6.968-4.958,16.206-5.415,22.662a5.943,5.943,0,0,1-5.922,5.5Z" transform="translate(-427.824 -217.718)" fill="#364154"/>
        <path id="Trazado_698272" data-name="Trazado 698272" d="M672.35,411.673l-.191-.013A85.848,85.848,0,0,1,674.85,396.6c2.025-7.351,5.954-17.014,13.175-21.3l.1.164c-7.165,4.255-11.072,13.87-13.087,21.186a85.609,85.609,0,0,0-2.685,15.027" transform="translate(-429.592 -239.861)" fill="#020202"/>
        <path id="Trazado_698273" data-name="Trazado 698273" d="M716.184,478.62h-.191a55.448,55.448,0,0,1,3.723-19.481l.175.076a55.273,55.273,0,0,0-3.707,19.407" transform="translate(-457.608 -293.446)" fill="#020202"/>
        <path id="Trazado_698274" data-name="Trazado 698274" d="M697.209,252.076c-.988,1.276-10.64,12.267-10.762,24.4l9-1.82,6.281-15.447Z" transform="translate(-438.724 -161.108)" fill="#ff7955"/>
        <path id="Trazado_698275" data-name="Trazado 698275" d="M739.637,235.439s-3.851-10.191-17.011-9.485-22.4,5.9-24.315,42.626c0,0,18.162-1.033,38.927,11.191,3.5,2.058,8.954,1.643,9.178-2.408.446-8.067-1.214-23.476-6.778-41.925" transform="translate(-446.307 -144.391)" fill="#a0462d"/>
        <path id="Trazado_698276" data-name="Trazado 698276" d="M756.148,236.69l-11.564,3.663s-23.942,2.8-30.324,1.779a10.386,10.386,0,0,1-8.206-6.07,34.465,34.465,0,0,1,18.157-9.989,32.287,32.287,0,0,1,3.363-.478,29.635,29.635,0,0,1,5.746-.15c18.723,1.963,22.828,11.245,22.828,11.245" transform="translate(-451.255 -144.031)" fill="#a0462d"/>
        <path id="Trazado_698277" data-name="Trazado 698277" d="M823.512,255.793c.619,1.379-2.09,2.673-5.411,3.9s-6.283,1.479-6.616.554,2.09-2.673,5.411-3.9,6.213-1.451,6.616-.554" transform="translate(-518.62 -163.134)" fill="#131f2d"/>
        <path id="Trazado_698278" data-name="Trazado 698278" d="M740.242,292.974a9.1,9.1,0,0,1-5.349-2.532,8.15,8.15,0,0,1-1.788-8.247l2.944-1.174c.245-.724,5.065,2.815,5.056,2.812.023.012,2.389,1.093,11.61-2.015,6.419-2.163,10.068-6.045,11.157-11.865a12.828,12.828,0,0,0-.911-7.783c-.041-.152.791-2.066,4.218-3.2,3.7-1.224,5.044-.27,5.044-.27a28.728,28.728,0,0,1,.534,12.92c-1.188,6.357-5.138,14.787-17.2,18.853-6.578,2.217-11.606,3.05-15.315,2.5" transform="translate(-468.27 -165.116)" fill="#ff7955"/>
        <path id="Trazado_698279" data-name="Trazado 698279" d="M695.062,325.063,670.9,324.4a1.174,1.174,0,0,1-1.093-.829l-4.611-15.13a1.168,1.168,0,0,1,1.157-1.5l23.233.635a2.458,2.458,0,0,1,2.287,1.734l4.342,14.25a1.168,1.168,0,0,1-1.156,1.5" transform="translate(-425.112 -196.173)" fill="#131f2d"/>
        <path id="Trazado_698280" data-name="Trazado 698280" d="M690.86,324.949l-24.159-.66a1.174,1.174,0,0,1-1.092-.829L661,308.33a1.168,1.168,0,0,1,1.157-1.5l23.232.635a2.457,2.457,0,0,1,2.287,1.734l4.342,14.25a1.168,1.168,0,0,1-1.156,1.5" transform="translate(-422.426 -196.1)" fill="#131f2d"/>
        <path id="Trazado_698281" data-name="Trazado 698281" d="M697.622,329.038c.016-.569.678-.783,1.252-.768a1.641,1.641,0,0,1,1.464,1.463c-.03.86-.705.954-1.279.939a1.9,1.9,0,0,1-1.437-1.634" transform="translate(-445.867 -209.806)" fill="#daebe8"/>
        <path id="Trazado_698282" data-name="Trazado 698282" d="M709.976,350.247l-33.059-.9-.058,2.119,33.747.922a.71.71,0,0,0,.73-.691v-.01a1.4,1.4,0,0,0-1.36-1.436" transform="translate(-432.596 -223.275)" fill="#131f2d"/>
        <path id="Trazado_698283" data-name="Trazado 698283" d="M733.692,316.176a42.293,42.293,0,0,0-1.8-5.925,3.274,3.274,0,0,0-1.653-1.68l.046-.15a3.352,3.352,0,0,1,1.747,1.757,41.318,41.318,0,0,1,1.818,5.961Z" transform="translate(-466.71 -197.12)" fill="#364154"/>
        <path id="Trazado_698284" data-name="Trazado 698284" d="M744.077,340.593c-.9-.025-1.108-.427-1.116-.444l-1.734-5.687.15-.046,1.729,5.675s.2.324.975.345Z" transform="translate(-473.735 -213.734)" fill="#364154"/>
        <g id="Grupo_998500" data-name="Grupo 998500" transform="translate(294.694 114.403)" opacity="0.3">
          <g id="Grupo_998499" data-name="Grupo 998499">
            <g id="Grupo_998498" data-name="Grupo 998498" clip-path="url(#clip-path-6)">
              <path id="Trazado_698285" data-name="Trazado 698285" d="M817.427,320.809a.807.807,0,0,1-.513-.167c-.534-.428-.355-1.523.408-2.492A2.807,2.807,0,0,1,819,317.023a.845.845,0,0,1,.642.16c.534.428.355,1.522-.408,2.492a2.809,2.809,0,0,1-1.676,1.126,1.117,1.117,0,0,1-.128.008m1.7-3.479a.792.792,0,0,0-.095.006,2.532,2.532,0,0,0-1.464,1.008c-.634.8-.843,1.744-.459,2.052a.537.537,0,0,0,.41.093,2.532,2.532,0,0,0,1.464-1.008c.633-.8.843-1.744.458-2.052a.489.489,0,0,0-.315-.1" transform="translate(-816.606 -317.016)" fill="#ec865c"/>
            </g>
          </g>
        </g>
        <path id="Trazado_698286" data-name="Trazado 698286" d="M761.722,202.514l-1.982-3.5L759.164,198l-3.392-5.983,1.135,6.442.682,3.866.215,1.224c.147.831-.318,1.114-.772,1.963-.184.344-1.383,2.448.588,2.849,2.455.5,6.313-1.914,7.476-4.224-.013,0-2.732-.494-3.373-1.623" transform="translate(-483.031 -122.724)" fill="#ff7955"/>
        <path id="Trazado_698287" data-name="Trazado 698287" d="M740.132,188.441a8.633,8.633,0,0,0,.766,3.5c.832,1.859,1.766-3.362,1.766-3.362Z" transform="translate(-473.035 -120.438)" fill="#131f2d"/>
        <path id="Trazado_698288" data-name="Trazado 698288" d="M741.888,186.513c-.329-3.874,2.008-7.236,5.222-7.509s6.084,2.646,6.414,6.52-2.008,7.236-5.222,7.509-6.085-2.646-6.414-6.521" transform="translate(-474.138 -114.395)" fill="#ff7955"/>
        <path id="Trazado_698289" data-name="Trazado 698289" d="M746.209,177.509l-2.823.317a2.056,2.056,0,0,1-1.688-.577c-.759-.762-1.54-1.068-4.094-.408-3.234.836-5.813-.637-6.538-2.267a1.994,1.994,0,0,1,2.49-2.737c1.819.472.671-1.41,2.2-1.971,2.855-1.048,3.9,1.1,6.3.5,3.139-.788,9.324.375,7.856,6.525Z" transform="translate(-467.112 -108.379)" fill="#131f2d"/>
        <path id="Trazado_698290" data-name="Trazado 698290" d="M756.92,197.317a.118.118,0,0,1,.005-.224,1.282,1.282,0,0,1,1.5.467.119.119,0,0,1-.018.166.13.13,0,0,1-.166-.018,2.03,2.03,0,0,0-1.244-.389.118.118,0,0,1-.075,0" transform="translate(-483.715 -125.916)" fill="#080435"/>
        <path id="Trazado_698291" data-name="Trazado 698291" d="M758.031,200.725c-.014.282-.192.5-.4.492s-.359-.248-.345-.53.192-.5.4-.492.359.248.345.529" transform="translate(-484.001 -127.95)" fill="#080435"/>
        <path id="Trazado_698292" data-name="Trazado 698292" d="M744.826,198.535a.087.087,0,0,1-.075-.044.142.142,0,0,1,.011-.166.83.83,0,0,1,1.208-.124.141.141,0,0,1,.038.161.088.088,0,0,1-.124.045,1.243,1.243,0,0,0-1,.1.077.077,0,0,1-.054.026" transform="translate(-475.974 -126.541)" fill="#080435"/>
        <path id="Trazado_698293" data-name="Trazado 698293" d="M747.328,201.479a.459.459,0,0,1-.179.606c-.193.068-.426-.092-.52-.359a.458.458,0,0,1,.179-.606c.193-.069.426.092.521.358" transform="translate(-477.162 -128.532)" fill="#080435"/>
        <path id="Trazado_698294" data-name="Trazado 698294" d="M770.932,189.549s-1.006,4.532-3.644,5.425c0,0,1.5-3.614-3.525-4.517,0,0,4.085-1.591,7.17-.908" transform="translate(-488.139 -121.037)" fill="#131f2d"/>
        <path id="Trazado_698295" data-name="Trazado 698295" d="M770.894,194.894a1.142,1.142,0,1,1,.1-1.7,1.209,1.209,0,0,1-.1,1.7" transform="translate(-491.415 -123.277)" fill="#ff7955"/>
        <path id="Trazado_698296" data-name="Trazado 698296" d="M751.5,192.342s1.124,3.372.564,4.179-5.139,2.1-7.487,1.739a4.617,4.617,0,0,0,4.708,3.73,6.71,6.71,0,0,0,2.214-.492,4.618,4.618,0,0,0,3.112-3.089,13.46,13.46,0,0,0-1.032-2.981,3.049,3.049,0,0,1,.177-2.5,4.506,4.506,0,0,0-2.255-.586" transform="translate(-475.877 -122.922)" fill="#131f2d"/>
        <path id="Trazado_698297" data-name="Trazado 698297" d="M748.5,210.6a11.976,11.976,0,0,0,3.785-.521,1.837,1.837,0,0,1-1.935,1.933c-1.189.042-1.85-1.412-1.85-1.412" transform="translate(-478.384 -134.267)" fill="#fff"/>
        <path id="Trazado_698298" data-name="Trazado 698298" d="M738.943,173.21l-.029-.157a.73.73,0,0,0,.689-.783l.158-.019a.894.894,0,0,1-.818.959" transform="translate(-472.257 -110.09)" fill="#131f2d"/>
        <path id="Trazado_698299" data-name="Trazado 698299" d="M738.551,181.32c-.154-.01-3.787-.276-4.337-2.084a1.269,1.269,0,0,1,.047-1.153c.3-.4.982-.394,1.582-.386l.259,0v.08l-.26,0c-.581-.008-1.239-.017-1.518.354a1.2,1.2,0,0,0-.034,1.082c.534,1.755,4.229,2.025,4.266,2.027Z" transform="translate(-469.184 -113.57)" fill="#fff"/>
        <path id="Trazado_698300" data-name="Trazado 698300" d="M753.917,172.412a5.159,5.159,0,0,1-2.961-.835l.049-.063a5.774,5.774,0,0,0,5.355.363l.027.075a7.181,7.181,0,0,1-2.47.46" transform="translate(-479.953 -109.619)" fill="#fff"/>
        <path id="Trazado_698301" data-name="Trazado 698301" d="M1286.965,306.47l-.4-.661c7.42-4.467,19.358-14.253,15.935-29.6l.753-.168a23.666,23.666,0,0,1-4.222,19.712,41.347,41.347,0,0,1-12.068,10.713" transform="translate(-822.275 -176.428)" fill="#131f2d"/>
        <path id="Trazado_698302" data-name="Trazado 698302" d="M1283.168,354.52l-2.433-1.928-.3-3.089-4.58,5.749Z" transform="translate(-815.428 -223.376)" fill="#131f2d"/>
        <path id="Trazado_698303" data-name="Trazado 698303" d="M1331.132,269.777l-3.083-.366-2.4,1.965.847-7.3Z" transform="translate(-847.251 -168.777)" fill="#131f2d"/>
        <path id="Trazado_698304" data-name="Trazado 698304" d="M629.858,979.517a24.05,24.05,0,0,1-13.968-4.62,41.339,41.339,0,0,1-10.9-11.9l.655-.409c4.582,7.35,14.552,19.135,29.84,15.472l.18.751a24.89,24.89,0,0,1-5.806.705" transform="translate(-386.663 -615.214)" fill="#131f2d"/>
        <path id="Trazado_698305" data-name="Trazado 698305" d="M600.573,959.287l1.89-2.462,3.085-.349-5.82-4.49Z" transform="translate(-383.3 -608.437)" fill="#131f2d"/>
        <path id="Trazado_698306" data-name="Trazado 698306" d="M683.3,1005.968l.318-3.088-2-2.372,7.314.734Z" transform="translate(-435.638 -639.449)" fill="#131f2d"/>
        <path id="Trazado_698307" data-name="Trazado 698307" d="M204.472,923.021a26.007,26.007,0,0,1-8.178-1.378,41.337,41.337,0,0,1-13.853-8.276l.51-.578c6.5,5.728,19.425,14.159,33.022,6.27l.387.667a23.389,23.389,0,0,1-11.889,3.3" transform="translate(-116.603 -583.385)" fill="#131f2d"/>
        <path id="Trazado_698308" data-name="Trazado 698308" d="M176.938,911.412l1.105-2.9,2.855-1.219-6.862-2.634Z" transform="translate(-111.23 -578.189)" fill="#131f2d"/>
        <path id="Trazado_698309" data-name="Trazado 698309" d="M269.577,929.953,269,926.9l-2.6-1.7,7.217-1.394Z" transform="translate(-170.261 -590.43)" fill="#131f2d"/>
        <path id="Trazado_698310" data-name="Trazado 698310" d="M534.056,82.58V90.6a.525.525,0,0,1-.525.525h-1a.525.525,0,0,1-.525-.525V84.262a.525.525,0,0,0-.525-.525H529.3a.525.525,0,0,0-.525.525V90.6a.525.525,0,0,1-.525.525h-1a.525.525,0,0,1-.525-.525V82.58a.525.525,0,0,1,.525-.525h6.272a.525.525,0,0,1,.525.525" transform="translate(-336.648 -52.444)" fill="#eaeaea"/>
        <path id="Trazado_698311" data-name="Trazado 698311" d="M551.7,90.9c0-.621-.014-1.172-.032-1.663a.525.525,0,0,1,.524-.545h.756a.525.525,0,0,1,.522.471l.046.444h.027a2.558,2.558,0,0,1,2.194-1.063c1.44,0,2.732,1.252,2.732,3.351,0,2.4-1.521,3.526-2.988,3.526a2.043,2.043,0,0,1-1.709-.754h-.027v2.746a.525.525,0,0,1-.525.525h-1a.525.525,0,0,1-.525-.525Zm2.046,1.548a2.121,2.121,0,0,0,.04.431,1.238,1.238,0,0,0,1.2.969c.888,0,1.414-.741,1.414-1.857,0-1.05-.471-1.844-1.387-1.844a1.285,1.285,0,0,0-1.225,1.036,1.574,1.574,0,0,0-.04.363Z" transform="translate(-352.585 -56.592)" fill="#eaeaea"/>
        <path id="Trazado_698312" data-name="Trazado 698312" d="M575.437,88.955a.525.525,0,0,1,.525.525v1.494c0,1.05-.054,1.79-.108,2.679l.054.013c.31-.754.484-1.265.753-1.885l1.14-2.518a.524.524,0,0,1,.478-.309h1.64a.525.525,0,0,1,.525.525v5.532a.525.525,0,0,1-.525.525h-.888a.525.525,0,0,1-.525-.525v-1.48c0-1.023.054-1.454.121-2.84h-.054c-.255.713-.417,1.144-.686,1.763-.375.824-.816,1.833-1.235,2.772a.523.523,0,0,1-.479.311h-1.624a.525.525,0,0,1-.525-.525V89.48a.525.525,0,0,1,.525-.525Z" transform="translate(-366.871 -56.854)" fill="#eaeaea"/>
        <path id="Trazado_698313" data-name="Trazado 698313" d="M596.288,89.325a.524.524,0,0,1,.474-.523c.576-.055,1.407-.109,2.178-.109,1.117,0,3.257.121,3.257,1.682a1.48,1.48,0,0,1-1.346,1.413v.04c.983.162,1.629.7,1.629,1.6,0,1.871-2.544,2.032-3.89,2.032-.651,0-1.329-.034-1.817-.073a.526.526,0,0,1-.485-.524Zm2.006,4.375a.524.524,0,0,0,.521.525h.166c.7,0,1.4-.2,1.4-.848,0-.578-.538-.834-1.507-.834h-.054a.525.525,0,0,0-.525.525Zm.013-2.866a.525.525,0,0,0,.525.525c.821,0,1.346-.215,1.346-.713,0-.431-.363-.686-1.184-.686-.068,0-.131,0-.191,0a.523.523,0,0,0-.5.524Z" transform="translate(-381.102 -56.687)" fill="#eaeaea"/>
        <path id="Trazado_698314" data-name="Trazado 698314" d="M618.739,92.636a.526.526,0,0,0-.252.988,2.535,2.535,0,0,0,1.19.264,5.746,5.746,0,0,0,1.3-.136.521.521,0,0,1,.623.413l.074.383a.523.523,0,0,1-.357.6,6.757,6.757,0,0,1-1.939.259,3.158,3.158,0,0,1-3.513-3.351,3.3,3.3,0,0,1,3.324-3.513c2.127,0,2.934,1.656,2.934,3.284,0,.113,0,.221-.01.321a.523.523,0,0,1-.524.487Zm.849-1.4a.52.52,0,0,0,.483-.731,1.033,1.033,0,0,0-1-.6,1.137,1.137,0,0,0-.971.514.525.525,0,0,0,.438.819Z" transform="translate(-393.616 -56.591)" fill="#eaeaea"/>
        <path id="Trazado_698315" data-name="Trazado 698315" d="M640.309,89.48V90a.525.525,0,0,1-.525.525h-.861a.525.525,0,0,0-.525.525v3.957a.525.525,0,0,1-.525.525h-1a.525.525,0,0,1-.525-.525V91.055a.525.525,0,0,0-.525-.525h-.861a.525.525,0,0,1-.525-.525V89.48a.525.525,0,0,1,.525-.525h4.818a.525.525,0,0,1,.525.525" transform="translate(-405.486 -56.854)" fill="#eaeaea"/>
        <path id="Trazado_698316" data-name="Trazado 698316" d="M501.573,1058.063c-7.687,0-16.726-.415-22.275-.873a84.7,84.7,0,0,0-13.938.312c-1.36.111-2.646.216-3.781.275a8.739,8.739,0,0,1-6.452-2.355,7.768,7.768,0,0,1-2.479-5.576v-26.434a7.477,7.477,0,0,1,2.286-5.317,9.329,9.329,0,0,1,6.555-2.615h.078c2.136.017,5,.1,8.04.185,6.46.184,13.782.393,18.181.127a5.155,5.155,0,0,0,3.692-1.769l8.017-9.69v7.775a2.74,2.74,0,0,0,.844,1.943,3.791,3.791,0,0,0,2.669,1.046h.028a58.23,58.23,0,0,1,7.663.384c5.315.647,8.886,3.834,8.886,7.93v26.434c0,4.174-3.741,7.51-8.9,7.931-2.471.2-5.658.286-9.119.286m-26.831-1.565c1.5,0,3.045.051,4.6.179,8.029.663,23.377,1.236,31.309.587,4.881-.4,8.424-3.519,8.424-7.419v-26.434c0-4.416-4.236-6.908-8.434-7.42a58.38,58.38,0,0,0-7.6-.38h-.032a4.307,4.307,0,0,1-3.032-1.2,3.25,3.25,0,0,1-1-2.308v-6.347l-7.106,8.589a5.651,5.651,0,0,1-4.032,1.953c-4.447.269-11.781.06-18.252-.125-3.034-.087-5.9-.168-8.029-.186h-.074a8.813,8.813,0,0,0-6.193,2.466,6.969,6.969,0,0,0-2.134,4.952v26.434a7.254,7.254,0,0,0,2.318,5.2,8.225,8.225,0,0,0,6.071,2.215l.013.257-.013-.257c1.128-.059,2.41-.164,3.766-.275,2.766-.226,6-.491,9.424-.491" transform="translate(-289.299 -641.893)" fill="#131f2d"/>
        <path id="Trazado_698317" data-name="Trazado 698317" d="M477.965,1081.4a.472.472,0,0,1,.25-.571,5.616,5.616,0,0,1,2.434-.525c1.963,0,3.125.988,3.125,2.31a2.151,2.151,0,0,1-1.8,2.123v.027a2.238,2.238,0,0,1,2.1,2.137c0,2.016-2.016,2.711-3.7,2.711a6.018,6.018,0,0,1-2.34-.449.467.467,0,0,1-.257-.551l.184-.679a.468.468,0,0,1,.612-.319,5.2,5.2,0,0,0,1.707.341c1.028,0,1.656-.44,1.656-1.188,0-.988-1.042-1.188-1.9-1.188h-.385a.47.47,0,0,1-.47-.47v-.569a.47.47,0,0,1,.47-.47h.385c.922,0,1.616-.413,1.616-1.135,0-.588-.494-.988-1.362-.988a4.336,4.336,0,0,0-1.515.33.469.469,0,0,1-.621-.292Z" transform="translate(-305.344 -690.446)" fill="#131f2d"/>
        <path id="Trazado_698318" data-name="Trazado 698318" d="M504.928,1081.215v6.485a.47.47,0,0,0,.442.469.47.47,0,0,1,.442.481l-.071,2.907a.47.47,0,0,1-.469.458h-.629a.47.47,0,0,1-.469-.448l-.065-1.375a.47.47,0,0,0-.469-.448h-4.378a.47.47,0,0,0-.469.448l-.065,1.375a.47.47,0,0,1-.469.448h-.641a.47.47,0,0,1-.469-.46l-.061-2.912a.47.47,0,0,1,.437-.479l.06,0a.47.47,0,0,0,.38-.242,8.757,8.757,0,0,0,.73-1.779,11.641,11.641,0,0,0,.347-2.991v-1.934a.47.47,0,0,1,.47-.47h4.949a.47.47,0,0,1,.47.47m-4.006,2.388a10.607,10.607,0,0,1-.4,2.964,8.566,8.566,0,0,1-.311.876.468.468,0,0,0,.435.646h1.783a.47.47,0,0,0,.47-.47v-4.749a.47.47,0,0,0-.47-.47h-1.036a.47.47,0,0,0-.47.47Z" transform="translate(-317.699 -690.73)" fill="#131f2d"/>
        <path id="Trazado_698319" data-name="Trazado 698319" d="M524.481,1081.152a.468.468,0,0,1,.405-.465,18.6,18.6,0,0,1,2.345-.127,4.318,4.318,0,0,1,2.751.721,2.592,2.592,0,0,1,.961,2.083,2.805,2.805,0,0,1-.828,2.136,4.238,4.238,0,0,1-2.925.948c-.072,0-.141,0-.208,0a.469.469,0,0,0-.486.469v2.242a.47.47,0,0,1-.47.47h-1.077a.47.47,0,0,1-.47-.47Zm2.016,3.261a.47.47,0,0,0,.455.47c.069,0,.144,0,.226,0,1.082,0,1.749-.547,1.749-1.455,0-.828-.574-1.322-1.6-1.322-.144,0-.273,0-.386.01a.469.469,0,0,0-.442.47Z" transform="translate(-335.208 -690.612)" fill="#131f2d"/>
        <path id="Trazado_698320" data-name="Trazado 698320" d="M544.88,1087.779l-.45,1.621a.47.47,0,0,1-.453.344h-1.105a.47.47,0,0,1-.449-.607l2.451-8.061a.47.47,0,0,1,.45-.333H547.3a.471.471,0,0,1,.449.33l2.511,8.061a.47.47,0,0,1-.449.61H548.6a.47.47,0,0,1-.45-.335l-.493-1.641a.47.47,0,0,0-.45-.334h-1.871a.469.469,0,0,0-.453.344m1.751-1.867a.47.47,0,0,0,.451-.6L546.7,1084c-.16-.534-.32-1.2-.454-1.736h-.026c-.134.534-.267,1.215-.414,1.736l-.367,1.313a.47.47,0,0,0,.453.6Z" transform="translate(-346.661 -690.73)" fill="#131f2d"/>
        <path id="Trazado_698321" data-name="Trazado 698321" d="M568,1081.154a.469.469,0,0,1,.41-.466,19.792,19.792,0,0,1,2.22-.128,5.057,5.057,0,0,1,2.671.507,1.954,1.954,0,0,1,1.068,1.776,2.042,2.042,0,0,1-1.482,1.91v.027a2.238,2.238,0,0,1,1.789,2.2,2.4,2.4,0,0,1-.935,1.923,5.683,5.683,0,0,1-3.539.814,17.744,17.744,0,0,1-1.784-.082.468.468,0,0,1-.419-.467Zm2.016,2.568a.47.47,0,0,0,.47.47h.2c1.082,0,1.642-.441,1.642-1.108s-.521-1.042-1.442-1.042c-.164,0-.3,0-.418.01a.471.471,0,0,0-.45.469Zm0,4.018a.469.469,0,0,0,.461.47h.327c.921,0,1.736-.361,1.736-1.309,0-.9-.815-1.255-1.83-1.255h-.224a.47.47,0,0,0-.47.47Z" transform="translate(-363.022 -690.612)" fill="#131f2d"/>
        <path id="Trazado_698322" data-name="Trazado 698322" d="M597.709,1084.868c0,2.965-1.776,4.74-4.42,4.74s-4.233-2.016-4.233-4.594c0-2.7,1.736-4.714,4.38-4.714,2.764,0,4.273,2.07,4.273,4.567m-6.5.107c0,1.776.828,3.018,2.19,3.018s2.163-1.309,2.163-3.058c0-1.629-.761-3.018-2.163-3.018s-2.19,1.308-2.19,3.058" transform="translate(-376.479 -690.446)" fill="#131f2d"/>
      </g>
    </g>
  </g>
</svg>
