<svg xmlns="http://www.w3.org/2000/svg" xmlns:xlink="http://www.w3.org/1999/xlink" width="400.698" height="230.943" viewBox="0 0 400.698 230.943">
  <defs>
    <clipPath id="clip-path">
      <rect id="Rectángulo_344766" data-name="Rectángulo 344766" width="400.698" height="204.182" transform="translate(0 0)" fill="none"/>
    </clipPath>
  </defs>
  <g id="Grupo_998552" data-name="Grupo 998552" transform="translate(0 26.762)">
    <path id="Trazado_698807" data-name="Trazado 698807" d="M43.624,229.468l-.032-.069a.355.355,0,0,1-.034-.1c-.13-.275-52.613-77.443,28.977-131.162,31.925-21.02-2-34.894,23.389-58.294,29.173-26.889,61.012,2.858,93.454-9.336a52.571,52.571,0,0,0,17.241-10.934A66.663,66.663,0,0,1,226.051,7.265,97.272,97.272,0,0,1,257.21.279c36.249-2.436,77.043,11.262,98.1,31.282,4.237,4.033,23.51,24.891,8.319,53.563-9.592,18.1,30.591,35.392,44.871,56.064,24.192,35.021,16.393,62.476,8.4,77.1-1.015,1.86-2.034,3.51-2.989,4.942a64.67,64.67,0,0,1-5.173,6.714s-365.008-.2-365.107-.474" transform="translate(-24.068 -26.761)" fill="#fff"/>
    <g id="Grupo_998551" data-name="Grupo 998551" transform="translate(0 -0.001)" clip-path="url(#clip-path)">
      <path id="Trazado_698707" data-name="Trazado 698707" d="M357.022,833.208V820.462h-6.877a18.575,18.575,0,0,0-.752-1.806l4.847-4.863-8.856-8.827-4.855,4.871q-.837-.4-1.719-.711V802.25h-12.5v6.866a18.538,18.538,0,0,0-2.115.9l-4.96-4.765-8.662,9.017,4.951,4.756q-.326.719-.591,1.469h-6.866V833h6.877a18.574,18.574,0,0,0,.963,2.234l-4.869,5.126,8.983,8.866,5.085-5.354q.576.25,1.172.463v7.473h12.5v-7.462q.86-.3,1.68-.689l5.225,5.2,8.733-9.122-5-4.976q.36-.756.653-1.547Z" transform="translate(-254.739 -663.385)" fill="#dce5f7"/>
      <path id="Trazado_698708" data-name="Trazado 698708" d="M409,894.186a10.72,10.72,0,1,1-10.72-10.72A10.72,10.72,0,0,1,409,894.186" transform="translate(-320.472 -730.543)" fill="#fff"/>
      <path id="Trazado_698709" data-name="Trazado 698709" d="M114.4,645.959V635.819h-5.471a14.786,14.786,0,0,0-.6-1.437l3.856-3.869-7.046-7.022-3.863,3.876a14.772,14.772,0,0,0-1.368-.566v-5.471H89.966v5.463a14.749,14.749,0,0,0-1.683.716l-3.946-3.791-6.892,7.174,3.939,3.784q-.259.572-.47,1.169H75.452v9.948h5.471a14.774,14.774,0,0,0,.766,1.778l-3.874,4.078,7.147,7.054,4.046-4.26q.459.2.933.368v5.946h9.948v-5.937q.684-.242,1.336-.548l4.157,4.136,6.948-7.257-3.979-3.959q.286-.6.52-1.231Z" transform="translate(-62.392 -513.78)" fill="#dce5f7"/>
      <path id="Trazado_698710" data-name="Trazado 698710" d="M155.753,694.474a8.529,8.529,0,1,1-8.529-8.529,8.529,8.529,0,0,1,8.529,8.529" transform="translate(-114.688 -567.212)" fill="#fff"/>
      <path id="Trazado_698711" data-name="Trazado 698711" d="M870.466,881.059h-13.3a.433.433,0,0,1-.433-.433v-7.645c-.237-.089-.473-.182-.707-.279l-5.2,5.476a.433.433,0,0,1-.307.135h-.007a.432.432,0,0,1-.3-.125l-9.554-9.429a.433.433,0,0,1-.01-.606l4.969-5.231a20.233,20.233,0,0,1-.8-1.866H837.8a.433.433,0,0,1-.433-.433v-13.3a.433.433,0,0,1,.433-.433h7c.13-.35.268-.694.413-1.028l-5.046-4.848a.432.432,0,0,1-.012-.612l9.212-9.59a.432.432,0,0,1,.3-.133.426.426,0,0,1,.308.12l5.057,4.858c.565-.272,1.147-.52,1.736-.738v-7a.433.433,0,0,1,.433-.433h13.3a.433.433,0,0,1,.433.433v7.011c.44.164.876.344,1.3.539l4.949-4.966a.433.433,0,1,1,.613.611l-5.163,5.181a.434.434,0,0,1-.492.086,19.312,19.312,0,0,0-1.788-.74.433.433,0,0,1-.288-.408v-6.881H857.634v6.869a.433.433,0,0,1-.288.408,19.427,19.427,0,0,0-2.2.936.433.433,0,0,1-.493-.075l-4.963-4.768-8.612,8.965,4.953,4.758a.433.433,0,0,1,.094.491c-.222.489-.428,1-.614,1.528a.433.433,0,0,1-.408.288h-6.869v12.432h6.881a.433.433,0,0,1,.408.288,19.335,19.335,0,0,0,1,2.324.433.433,0,0,1-.071.5l-4.886,5.144,8.937,8.821,5.1-5.374a.432.432,0,0,1,.486-.1c.4.174.81.336,1.219.482a.433.433,0,0,1,.288.408v7.515h12.432v-7.5a.433.433,0,0,1,.288-.408c.593-.21,1.181-.451,1.747-.717a.433.433,0,0,1,.489.085l5.244,5.218,8.689-9.076-5.018-4.992a.433.433,0,0,1-.085-.493c.25-.524.479-1.066.68-1.609a.433.433,0,0,1,.406-.283h6.962V847.293a.433.433,0,0,1,.865,0v13.555a.433.433,0,0,1-.433.433h-7.1c-.146.377-.3.752-.473,1.12l5.1,5.077a.433.433,0,0,1,.007.606l-9.288,9.7a.432.432,0,0,1-.307.133.442.442,0,0,1-.311-.126l-5.344-5.317c-.413.186-.835.359-1.261.517v7.633a.433.433,0,0,1-.433.433" transform="translate(-692.423 -684.258)" fill="#12263f"/>
      <path id="Trazado_698712" data-name="Trazado 698712" d="M933.742,937.531A11.833,11.833,0,1,1,945.575,925.7a11.846,11.846,0,0,1-11.833,11.833m0-22.8A10.968,10.968,0,1,0,944.71,925.7a10.98,10.98,0,0,0-10.968-10.968" transform="translate(-762.332 -755.68)" fill="#12263f"/>
      <path id="Trazado_698713" data-name="Trazado 698713" d="M123.84,279.6H.016a16.948,16.948,0,0,1,.137-2.958v0a26.735,26.735,0,0,1,3.21-9.459c2.618-4.613,6.542-8.024,10.948-6.97a9.74,9.74,0,0,1,4.16,2.316c2.122,1.879,3.83,4.187,5.932,6.089s4.789,3.431,7.615,3.224c3.541-.257,6.085-3.423,6.615-6.759,1.275-8.026,1.195-23.88,11.23-26.077.189-.041.378-.079.563-.109C59,237.428,64.914,245.805,67.2,253.31c.26.852.473,1.694.637,2.509a32.316,32.316,0,0,1,.722,6.269c.014.137.03.273.046.408.068.581.144,1.157.243,1.724a13.844,13.844,0,0,0,1.187,3.908,1.776,1.776,0,0,0,1.038,1.04c1.369.332,2.518-1.255,3.3-2.519.221-.355.414-.685.574-.94,2.487-3.948,9.35-6.58,12.449-1.846,2.165,3.309.364,9.757,4.871,11.4,5.169,1.89,6.471-4.907,6.931-8.393.565-4.283.471-8.671,1.733-12.84.535-1.248,1.426-2.674,2.853-2.853a3.7,3.7,0,0,1,3.211,2.32c1.582,3.841,2.017,7.984,2.594,12.062.471,3.307,1.113,10.605,5.511,11.016,2.336.216,4.449-3.953,6.613-2.106,1.373,1.171,1.3,3.621,2.127,5.126" transform="translate(0 -197.405)" fill="#dce5f7"/>
      <path id="Trazado_698714" data-name="Trazado 698714" d="M1124.516,408.657c-4.626-1.132-7.749-4.616-6.974-7.784s5.153-4.817,9.779-3.686,9.1,8.3,9.1,8.3-7.275,4.3-11.9,3.167" transform="translate(-924.004 -328.141)" fill="#dce5f7"/>
      <path id="Trazado_698715" data-name="Trazado 698715" d="M703.631,1105.986v11.689h19.645v-2.857a2.582,2.582,0,0,0-1.368-2.278l-2.366-1.26-2.7-1.439-1.548-4.317-.1-.264-4.206.264-.53.033Z" transform="translate(-581.836 -913.945)" fill="#fccc6c"/>
      <rect id="Rectángulo_344755" data-name="Rectángulo 344755" width="19.645" height="2.57" transform="translate(121.795 201.16)" fill="#12263f"/>
      <path id="Trazado_698716" data-name="Trazado 698716" d="M703.631,1116.679v6.428a3.072,3.072,0,0,0,.428.029,3.244,3.244,0,1,0,0-6.487,3.09,3.09,0,0,0-.428.029" transform="translate(-581.836 -923.364)" fill="#12263f"/>
      <path id="Trazado_698717" data-name="Trazado 698717" d="M481.5,1105.986v11.689H461.859v-2.857a2.582,2.582,0,0,1,1.368-2.278l2.365-1.26,2.7-1.439,1.548-4.317.1-.264,4.206.264.53.033Z" transform="translate(-381.914 -913.945)" fill="#fccc6c"/>
      <rect id="Rectángulo_344756" data-name="Rectángulo 344756" width="59.988" height="12.875" transform="translate(87.354 190.294) rotate(-80.877)" fill="#44d4f4"/>
      <rect id="Rectángulo_344757" data-name="Rectángulo 344757" width="12.875" height="60.099" transform="matrix(0.979, -0.203, 0.203, 0.979, 108.953, 133.365)" fill="#44d4f4"/>
      <path id="Trazado_698718" data-name="Trazado 698718" d="M409.535,610.424a4.664,4.664,0,0,1-3.875-2.068l-15.512-23.151a4.664,4.664,0,1,1,7.75-5.193L409.482,597.3l1.475-2.262a4.664,4.664,0,0,1,7.814,5.1l-5.329,8.172a4.664,4.664,0,0,1-3.877,2.116Z" transform="translate(-321.962 -477.906)" fill="#ffb27d"/>
      <path id="Trazado_698719" data-name="Trazado 698719" d="M492.668,1102.833l-.007.033-1.486,6.408h-7.748l2.7-1.439,1.7-5Z" transform="translate(-399.748 -911.939)" fill="#12263f"/>
      <rect id="Rectángulo_344758" data-name="Rectángulo 344758" width="5.435" height="9.328" transform="translate(88.995 117.134) rotate(-56.891)" fill="#240448"/>
      <path id="Trazado_698720" data-name="Trazado 698720" d="M742.169,1102.833l.007.033,1.486,6.408h7.748l-2.7-1.439-1.7-5Z" transform="translate(-613.704 -911.939)" fill="#12263f"/>
      <path id="Trazado_698721" data-name="Trazado 698721" d="M517.1,677.834a1.485,1.485,0,0,1-.8-.235l-8.14-5.2a1.493,1.493,0,1,1,1.608-2.515l8.14,5.2a1.493,1.493,0,0,1-.805,2.751" transform="translate(-419.631 -553.733)" fill="#240448"/>
      <path id="Trazado_698722" data-name="Trazado 698722" d="M531.575,630.633a4.665,4.665,0,0,1-3.9-7.212l2.3-3.531a4.664,4.664,0,1,1,7.813,5.1l-2.3,3.531a4.66,4.66,0,0,1-3.911,2.117" transform="translate(-435.709 -510.839)" fill="#12263f"/>
      <path id="Trazado_698723" data-name="Trazado 698723" d="M584.754,745.9H574.613a5.6,5.6,0,1,1,0-11.194h10.141a5.6,5.6,0,1,1,0,11.194" transform="translate(-470.522 -607.53)" fill="#44d4f4"/>
      <path id="Trazado_698724" data-name="Trazado 698724" d="M569.537,638.117h-24.12L542.1,619.478a5.693,5.693,0,0,1,5.605-6.692h19.552a5.694,5.694,0,0,1,5.605,6.692Z" transform="translate(-448.188 -506.716)" fill="#12263f"/>
      <path id="Trazado_698725" data-name="Trazado 698725" d="M615.89,560.68A2.867,2.867,0,0,0,619.1,558.2l.263-2.04.135-1.05.463-3.608.22-1.714a2.869,2.869,0,1,0-5.692-.731l-.329,2.568-.448,3.485-.3,2.36a2.869,2.869,0,0,0,2.48,3.212" transform="translate(-507.213 -451.946)" fill="#ffb27d"/>
      <path id="Trazado_698726" data-name="Trazado 698726" d="M620.344,551.678c.541,2.49,1.753,4.285,4.291,4.481l.135-1.05.463-3.608.22-1.714a2.869,2.869,0,1,0-5.692-.731Z" transform="translate(-512.483 -451.946)" fill="#240448"/>
      <path id="Trazado_698727" data-name="Trazado 698727" d="M622.358,542.509h0a3.54,3.54,0,0,0,2.649-4.248l-.663-2.86a4.665,4.665,0,0,0-9.089,2.107l.155.667a5.79,5.79,0,0,0,6.948,4.333" transform="translate(-508.658 -439.739)" fill="#ffb27d"/>
      <path id="Trazado_698728" data-name="Trazado 698728" d="M703.823,1096.714H690.815a1.645,1.645,0,1,1,0-3.291h13.008a1.645,1.645,0,0,1,0,3.291" transform="translate(-569.878 -904.158)" fill="#44d4f4"/>
      <path id="Trazado_698729" data-name="Trazado 698729" d="M508.423,1096.714h-12.73a1.645,1.645,0,0,1,0-3.291h12.73a1.645,1.645,0,0,1,0,3.291" transform="translate(-408.531 -904.158)" fill="#44d4f4"/>
      <path id="Trazado_698730" data-name="Trazado 698730" d="M666.39,553.238l2.359,2.726a.494.494,0,0,1-.342.816l-2.029.128Z" transform="translate(-551.032 -457.475)" fill="#ffb27d"/>
      <path id="Trazado_698731" data-name="Trazado 698731" d="M651.179,516.607a2.9,2.9,0,1,0,2.9-2.9,2.9,2.9,0,0,0-2.9,2.9" transform="translate(-538.464 -424.785)" fill="#240448"/>
      <path id="Trazado_698732" data-name="Trazado 698732" d="M633.588,520.421a2.052,2.052,0,1,0,2.052-2.052,2.052,2.052,0,0,0-2.052,2.052" transform="translate(-523.917 -428.642)" fill="#240448"/>
      <path id="Trazado_698733" data-name="Trazado 698733" d="M614.031,529.766h7.563a1.828,1.828,0,0,0,0-3.656h-7.562a1.828,1.828,0,1,0,0,3.656" transform="translate(-506.234 -435.043)" fill="#240448"/>
      <path id="Trazado_698734" data-name="Trazado 698734" d="M612.2,542.05h3.264l1.414-5.471H612.2Z" transform="translate(-506.235 -443.7)" fill="#240448"/>
      <path id="Trazado_698735" data-name="Trazado 698735" d="M608.835,554.372a2.2,2.2,0,1,0,2.2-2.2,2.2,2.2,0,0,0-2.2,2.2" transform="translate(-503.449 -456.593)" fill="#ffb27d"/>
      <path id="Trazado_698736" data-name="Trazado 698736" d="M704.328,700.358a4.666,4.666,0,0,1-4.391-3.093l-9.279-25.916a4.664,4.664,0,0,1,8.782-3.144l9.279,25.916a4.668,4.668,0,0,1-4.391,6.238" transform="translate(-570.882 -549.984)" fill="#ffb27d"/>
      <rect id="Rectángulo_344759" data-name="Rectángulo 344759" width="9.328" height="5.436" transform="translate(117.915 116.298) rotate(-20.165)" fill="#240448"/>
      <path id="Trazado_698737" data-name="Trazado 698737" d="M677.281,626.062A4.666,4.666,0,0,1,672.9,623l-1.453-3.957a4.664,4.664,0,1,1,8.757-3.216l1.453,3.957a4.667,4.667,0,0,1-4.378,6.273" transform="translate(-554.988 -506.707)" fill="#12263f"/>
      <path id="Trazado_698738" data-name="Trazado 698738" d="M685.1,680.738a1.493,1.493,0,0,1-.521-2.892l8.71-3.239a1.493,1.493,0,1,1,1.04,2.8l-8.71,3.239a1.491,1.491,0,0,1-.52.094" transform="translate(-565.278 -557.758)" fill="#240448"/>
      <rect id="Rectángulo_344760" data-name="Rectángulo 344760" width="19.645" height="2.57" transform="translate(79.945 201.16)" fill="#12263f"/>
      <path id="Trazado_698739" data-name="Trazado 698739" d="M557.811,1116.679v6.428a3.073,3.073,0,0,1-.428.029,3.244,3.244,0,1,1,0-6.487,3.091,3.091,0,0,1,.428.029" transform="translate(-458.221 -923.364)" fill="#12263f"/>
      <path id="Trazado_698740" data-name="Trazado 698740" d="M616.411,763.746h-1.693a.542.542,0,0,1-.539-.483l-.531-4.829a.542.542,0,1,1,1.078-.119l.477,4.346h1.207a.542.542,0,1,1,0,1.084" transform="translate(-507.427 -626.656)" fill="#240448"/>
      <path id="Trazado_698741" data-name="Trazado 698741" d="M561.533,769.993H555.8a.542.542,0,0,1,0-1.084h5.731a.542.542,0,1,1,0,1.084" transform="translate(-459.148 -635.815)" fill="#240448"/>
      <path id="Trazado_698742" data-name="Trazado 698742" d="M675.82,769.993h-5.731a.542.542,0,1,1,0-1.084h5.731a.542.542,0,1,1,0,1.084" transform="translate(-553.652 -635.815)" fill="#240448"/>
      <path id="Trazado_698743" data-name="Trazado 698743" d="M488.584,1137.993h-7.748a.542.542,0,0,1,0-1.084h7.748a.542.542,0,1,1,0,1.084" transform="translate(-397.158 -940.116)" fill="#240448"/>
      <path id="Trazado_698744" data-name="Trazado 698744" d="M755.954,1137.993h-7.748a.542.542,0,1,1,0-1.084h7.748a.542.542,0,1,1,0,1.084" transform="translate(-618.248 -940.116)" fill="#240448"/>
      <path id="Trazado_698745" data-name="Trazado 698745" d="M590.033,672.462a3.672,3.672,0,1,1-3.672-3.672,3.672,3.672,0,0,1,3.672,3.672" transform="translate(-481.829 -553.026)" fill="#fff"/>
      <path id="Trazado_698746" data-name="Trazado 698746" d="M633.146,672.462a3.672,3.672,0,1,1-3.672-3.672,3.672,3.672,0,0,1,3.672,3.672" transform="translate(-517.479 -553.026)" fill="#fff"/>
      <rect id="Rectángulo_344761" data-name="Rectángulo 344761" width="6.31" height="6.31" transform="translate(103.454 119.356) rotate(-45)" fill="#fccc6c"/>
      <path id="Trazado_698747" data-name="Trazado 698747" d="M373.814,577.279a1.651,1.651,0,0,1-1.371-.728l-3.826-5.664a1.652,1.652,0,1,1,2.739-1.85l3.826,5.664a1.652,1.652,0,0,1-1.368,2.577" transform="translate(-304.578 -469.938)" fill="#ffb27d"/>
      <path id="Trazado_698748" data-name="Trazado 698748" d="M381.995,555.621a1.651,1.651,0,0,1-1.4-.777l-4.219-6.747a1.652,1.652,0,1,1,2.8-1.752l4.219,6.747a1.653,1.653,0,0,1-1.4,2.529" transform="translate(-311.017 -451.134)" fill="#ffb27d"/>
      <path id="Trazado_698749" data-name="Trazado 698749" d="M401.492,551.686a1.652,1.652,0,0,1-1.463-.882l-3.036-5.758a1.652,1.652,0,0,1,2.923-1.541l3.036,5.758a1.653,1.653,0,0,1-1.46,2.423" transform="translate(-328.117 -448.697)" fill="#ffb27d"/>
      <rect id="Rectángulo_344762" data-name="Rectángulo 344762" width="11.551" height="5.137" transform="matrix(0.597, -0.802, 0.802, 0.597, 73.308, 88.176)" fill="#240448"/>
      <rect id="Rectángulo_344763" data-name="Rectángulo 344763" width="34.193" height="9.246" transform="matrix(0.597, -0.802, 0.802, 0.597, 53.225, 111.72)" fill="#240448"/>
      <path id="Trazado_698750" data-name="Trazado 698750" d="M439.261,275.659a22.7,22.7,0,0,1-4-45.23l.245-.022a22.7,22.7,0,0,1,4,45.23l-.245.022m-21.432-21a19.621,19.621,0,0,0,21.177,17.932l.212-.019a19.622,19.622,0,0,0-3.457-39.09l-.212.019a19.645,19.645,0,0,0-17.72,21.159" transform="translate(-342.9 -190.46)" fill="#240448"/>
      <path id="Trazado_698751" data-name="Trazado 698751" d="M418.214,570.512a1.653,1.653,0,0,1-1.34-2.617l.63-.878-.961-.555A1.652,1.652,0,0,1,418.2,563.6l2.54,1.469a1.652,1.652,0,0,1,.515,2.395l-1.695,2.359a1.65,1.65,0,0,1-1.344.688" transform="translate(-343.759 -465.861)" fill="#ffb27d"/>
      <path id="Trazado_698752" data-name="Trazado 698752" d="M781.847,837.066a1.653,1.653,0,0,1-1.575-1.155l-2.06-6.518a1.652,1.652,0,1,1,3.151-1l2.06,6.518a1.654,1.654,0,0,1-1.576,2.151" transform="translate(-643.444 -684.051)" fill="#ffb27d"/>
      <path id="Trazado_698753" data-name="Trazado 698753" d="M767.59,851.166A1.653,1.653,0,0,1,766,849.955l-2.129-7.668a1.652,1.652,0,1,1,3.184-.884l2.129,7.668a1.654,1.654,0,0,1-1.593,2.095" transform="translate(-631.598 -694.76)" fill="#ffb27d"/>
      <path id="Trazado_698754" data-name="Trazado 698754" d="M751,854.252a1.653,1.653,0,0,1-1.619-1.329l-1.275-6.383a1.652,1.652,0,0,1,3.241-.647l1.275,6.383A1.654,1.654,0,0,1,751,854.252" transform="translate(-618.588 -698.374)" fill="#ffb27d"/>
      <path id="Trazado_698755" data-name="Trazado 698755" d="M735.976,841.03a1.654,1.654,0,0,1-1.594-2.092l1.118-4.057a1.652,1.652,0,0,1,3.186.878l-1.118,4.057a1.653,1.653,0,0,1-1.592,1.214" transform="translate(-607.215 -689.364)" fill="#ffb27d"/>
      <path id="Trazado_698756" data-name="Trazado 698756" d="M1240.006,674.706l.694,3.256,4.433,20.769,2.011,9.427h102.935l-.911-42.708a55.265,55.265,0,0,0-16.235-39.2q-1.112-1.112-2.287-2.16a55.211,55.211,0,0,0-29.411-13.571q-2.134-.289-4.322-.414-1.576-.089-3.176-.09a55.568,55.568,0,0,0-12.767,1.478h0a54.936,54.936,0,0,0-10.438,3.6l0,0a54.988,54.988,0,0,0-7.781,4.386,53.465,53.465,0,0,0-19.474,23.975,55.607,55.607,0,0,0-3.264,31.246" transform="translate(-1024.606 -504.426)" fill="#ed9aa9"/>
      <path id="Trazado_698757" data-name="Trazado 698757" d="M1419.183,369.177l1.3-25.965,1.153-16.683.545-7.919a13.185,13.185,0,0,1,14.061-12.25,12.53,12.53,0,0,1,1.687.222,13.173,13.173,0,0,1,10.563,13.839l-1.926,27.985-.756,10.912c-.5,7.263-27.127,17.13-26.624,9.859" transform="translate(-1173.525 -253.305)" fill="#ffb27d"/>
      <path id="Trazado_698758" data-name="Trazado 698758" d="M1379.249,255.951a21.338,21.338,0,0,1-3.038,10.976l-1.615,2.705a26.472,26.472,0,0,1-11.139,10.252,26.752,26.752,0,0,1-11.691,2.714,26.5,26.5,0,0,1-13.666-3.77,16.251,16.251,0,0,1-7.895-12.958v0a16.178,16.178,0,0,1,2.273-9.351l6.919-11.583a21.444,21.444,0,0,1,39.851,11.017" transform="translate(-1099.928 -193.899)" fill="#ffb27d"/>
      <path id="Trazado_698759" data-name="Trazado 698759" d="M1310.9,313.618l-14.155,8.612a2.27,2.27,0,0,0,.351,4.053l8.7,3.413Z" transform="translate(-1071.381 -259.332)" fill="#ffb27d"/>
      <path id="Trazado_698760" data-name="Trazado 698760" d="M1369.231,187.451a23.458,23.458,0,0,0-.621,5.947,7.362,7.362,0,0,0,4.3,5.684c2.936,1.424,6.689,1.829,9.906,2.255,7.3.966,17.244-2.678,14.682-11.947a8.39,8.39,0,0,0-6.946-6.062,7.059,7.059,0,0,0,6.2-1.178,5.53,5.53,0,0,0,1.841-5.869c-.8-2.363-3.354-3.772-5.839-3.985a19.457,19.457,0,0,0-7.325,1.274,11.116,11.116,0,0,0-4.543-8.178,8.975,8.975,0,0,0-9.161-.66,4.262,4.262,0,0,0-2.092,2.178,2.241,2.241,0,0,0,.871,2.7,6.694,6.694,0,0,0-11.839-5.759,5.357,5.357,0,0,0-.977,2.283,11.75,11.75,0,0,1,.505,2.421c-3.417.174-9.676-4.507-5.315-7.971-3.848-1.008-8.64,1.274-10.7,4.436a8.752,8.752,0,0,0-.366,8.635c2.9,6.147,9.953,8.057,15.929,9.806,3.429,1,10.157,3.444,10.157,3.444l1.258.512Z" transform="translate(-1108.751 -132.585)" fill="#240448"/>
      <rect id="Rectángulo_344764" data-name="Rectángulo 344764" width="23.237" height="23.237" transform="translate(222.68 170.018) rotate(-45)" fill="#ffa031"/>
      <rect id="Rectángulo_344765" data-name="Rectángulo 344765" width="23.237" height="23.237" transform="translate(240.553 170.018) rotate(-45)" fill="#fff"/>
      <path id="Trazado_698761" data-name="Trazado 698761" d="M1511.943,357.023A10.115,10.115,0,1,1,1505.4,344.3a10.116,10.116,0,0,1,6.538,12.724" transform="translate(-1233.903 -284.3)" fill="#ffb27d"/>
      <path id="Trazado_698762" data-name="Trazado 698762" d="M1594.144,709.816l23.918,56.191h45.1a21.325,21.325,0,0,0-1.7-7.492l-27.876-65.491a21.437,21.437,0,1,0-39.448,16.792" transform="translate(-1316.786 -562.277)" fill="#ffa031"/>
      <path id="Trazado_698763" data-name="Trazado 698763" d="M1365.362,435.678l-11.54,5.423-1.562-17.923a4.706,4.706,0,0,0-4.986-4.288,26.518,26.518,0,0,1-9.018-3.367,16.251,16.251,0,0,1-7.895-12.958v0l6.128-1.776a25.1,25.1,0,0,1,16.176.752,17.31,17.31,0,0,1,10.9,14.53l.047.511Z" transform="translate(-1100.083 -330.592)" fill="#fccc6c"/>
      <path id="Trazado_698764" data-name="Trazado 698764" d="M1751.8,1159.852h17.509l-16.739-3.587Z" transform="translate(-1448.576 -956.121)" fill="#fccc6c"/>
      <path id="Trazado_698765" data-name="Trazado 698765" d="M1426.418,554.614,1391.084,574.4l4.863,5.945,31.526-4.591Z" transform="translate(-1150.295 -458.613)" fill="#fff"/>
      <path id="Trazado_698766" data-name="Trazado 698766" d="M15.147,613.919,16.3,616.1l2.114,1.194L16.3,618.49l-1.156,2.183-1.156-2.183L11.877,617.3l2.114-1.194Z" transform="translate(-9.821 -507.653)" fill="#fccc6c"/>
      <path id="Trazado_698767" data-name="Trazado 698767" d="M459.848,85.22,461,87.4l2.114,1.194L461,89.791l-1.156,2.183-1.156-2.183L456.578,88.6l2.114-1.194Z" transform="translate(-377.547 -70.468)" fill="#44d4f4"/>
      <path id="Trazado_698768" data-name="Trazado 698768" d="M1727.095,538.127c-2.214,0-4.367-.985-5.135-3.115a5.374,5.374,0,0,1-.286-1.283,6.6,6.6,0,0,1-2.56-1.879,5.944,5.944,0,0,1-1.468-3.186.519.519,0,1,1,1.034-.095,4.965,4.965,0,0,0,1.222,2.6,6.05,6.05,0,0,0,1.761,1.416,7.322,7.322,0,0,1,.119-.866,3.008,3.008,0,0,1,1.17-2.057,2.058,2.058,0,0,1,3.153,2.123,2.524,2.524,0,0,1-.8,1.339,3.173,3.173,0,0,1-2.408.879l-.138-.011a4.156,4.156,0,0,0,.177.664c.905,2.511,4.116,2.758,6.107,2.131q.1-.032.2-.068a5.159,5.159,0,0,0,1.493-.817.519.519,0,1,1,.649.811,6.194,6.194,0,0,1-1.792.984c-.079.029-.159.055-.24.081a7.574,7.574,0,0,1-2.261.345m-4.41-5.188a2.652,2.652,0,0,0,.275.031,2.166,2.166,0,0,0,1.644-.606,1.529,1.529,0,0,0,.485-.78,1.019,1.019,0,0,0-1.562-1.052,2.062,2.062,0,0,0-.725,1.393,6.184,6.184,0,0,0-.117,1.013" transform="translate(-1420.329 -436.686)" fill="#240448"/>
      <path id="Trazado_698769" data-name="Trazado 698769" d="M138.479,118.229a.519.519,0,0,1-.148-1.017,18.553,18.553,0,0,0,4.993-2.257,7.58,7.58,0,0,1-2.3-1.7,2.69,2.69,0,0,1-.885-2.354,2.488,2.488,0,0,1,1.433-1.642,3.558,3.558,0,0,1,3.121-.024,2.914,2.914,0,0,1,1.6,2.126,3.727,3.727,0,0,1-.955,3.18,5.783,5.783,0,0,0,2.049.024,4.886,4.886,0,0,0,3.747-3.02.519.519,0,1,1,.955.408,5.893,5.893,0,0,1-4.527,3.636,6.917,6.917,0,0,1-3.1-.194,17.729,17.729,0,0,1-5.834,2.816.517.517,0,0,1-.148.022m4.694-8.311a2.546,2.546,0,0,0-1.133.265,1.6,1.6,0,0,0-.881.925,1.859,1.859,0,0,0,.633,1.44,6.54,6.54,0,0,0,2.43,1.667,2.961,2.961,0,0,0,1.051-2.67,1.876,1.876,0,0,0-1.04-1.385,2.38,2.38,0,0,0-1.06-.242" transform="translate(-114.08 -90.035)" fill="#240448"/>
      <path id="Trazado_698770" data-name="Trazado 698770" d="M1752.328,25.37s-38.744-.019-38.786,0h-9.281a8.027,8.027,0,0,1-.1-1.807h0c0-.049.007-.1.01-.147s.007-.08.008-.094a16.477,16.477,0,0,1,.535-2.392,12.9,12.9,0,0,1,1.408-3.146,8.462,8.462,0,0,1,2.889-2.867,11.488,11.488,0,0,1,3.8-1.391,8.617,8.617,0,0,1,6.4,1.259c1.157.788,2.227,2,3.684,2.194,2.229.29,2.816-2.164,3-3.862.488-4.574.876-11.7,6.455-13.017a3.194,3.194,0,0,1,2.528.4,8.011,8.011,0,0,1,2.766,4.24c.809,2.451,1.254,5.107,2.264,7.481a3.855,3.855,0,0,0,4.184,2.561,4.669,4.669,0,0,1,1.89.137,7.09,7.09,0,0,1,3.525,2.537,9.658,9.658,0,0,1,.863,1.307,23.553,23.553,0,0,1,1.965,6.606" transform="translate(-1409.166 0.001)" fill="#dce5f7"/>
      <path id="Trazado_698771" data-name="Trazado 698771" d="M1933.932,660.019h53.29c-.358-4.463-3.277-12.075-3.821-12.952-.221-.355-.414-.685-.574-.94-2.487-3.948-9.35-6.579-12.449-1.846-2.165,3.309-.364,9.757-4.871,11.4-5.169,1.89-6.471-4.907-6.931-8.393-.565-4.283-.471-8.671-1.733-12.84-.535-1.248-1.426-2.674-2.853-2.853a3.7,3.7,0,0,0-3.211,2.32c-1.582,3.841-2.016,7.984-2.594,12.062-.471,3.308-1.113,10.606-5.511,11.016-2.336.216-4.449-3.953-6.614-2.106-1.373,1.171-1.3,3.621-2.127,5.126" transform="translate(-1599.179 -522.274)" fill="#dce5f7"/>
      <path id="Trazado_698772" data-name="Trazado 698772" d="M2154.672,1175.355h-17.438a.44.44,0,0,1,0-.865h17.438a.44.44,0,0,1,0,.865" transform="translate(-1766.991 -971.192)" fill="#240448"/>
      <path id="Trazado_698773" data-name="Trazado 698773" d="M1547.746,1175.355H1431.008a.44.44,0,0,1,0-.865h116.738a.44.44,0,0,1,0,.865" transform="translate(-1183.009 -971.192)" fill="#240448"/>
      <path id="Trazado_698774" data-name="Trazado 698774" d="M1095.163,1175.465h-57.685a.44.44,0,0,1,0-.865h57.685a.44.44,0,0,1,0,.865" transform="translate(-857.596 -971.283)" fill="#240448"/>
      <path id="Trazado_698775" data-name="Trazado 698775" d="M729.651,1175.465H678.074a.44.44,0,0,1,0-.865h51.577a.44.44,0,0,1,0,.865" transform="translate(-560.404 -971.283)" fill="#240448"/>
      <path id="Trazado_698776" data-name="Trazado 698776" d="M251.439,1175.355H154.956a.44.44,0,0,1,0-.865h96.483a.44.44,0,0,1,0,.865" transform="translate(-127.835 -971.192)" fill="#240448"/>
      <path id="Trazado_698777" data-name="Trazado 698777" d="M17,1175.355H.976a.44.44,0,0,1,0-.865H17a.44.44,0,0,1,0,.865" transform="translate(-0.508 -971.192)" fill="#240448"/>
      <path id="Trazado_698778" data-name="Trazado 698778" d="M887.816,439.709a1.9,1.9,0,0,1-1.542-.785,97.407,97.407,0,0,1-14.673-29.9,118.053,118.053,0,0,1-4.5-34,1.9,1.9,0,0,1,1.9-1.892h.013a1.9,1.9,0,0,1,1.892,1.916c-.154,23.848,6.051,44.587,18.443,61.641a1.9,1.9,0,0,1-1.539,3.023" transform="translate(-717.011 -308.541)" fill="#fccc6c"/>
      <path id="Trazado_698779" data-name="Trazado 698779" d="M975.244,442.556a1.9,1.9,0,0,1-1.615-.893,97.558,97.558,0,0,1-10.838-24.108,113.819,113.819,0,0,1-4.4-26.695,1.9,1.9,0,0,1,3.8-.186c.9,18.393,5.834,34.868,14.664,48.968a1.9,1.9,0,0,1-1.612,2.915" transform="translate(-792.494 -321.552)" fill="#fccc6c"/>
      <path id="Trazado_698780" data-name="Trazado 698780" d="M1064.935,439.561a1.9,1.9,0,0,1-1.672-.99,103.314,103.314,0,0,1-11.939-39.8,1.9,1.9,0,0,1,3.79-.372,99.534,99.534,0,0,0,11.489,38.348,1.9,1.9,0,0,1-1.668,2.819" transform="translate(-869.339 -328.014)" fill="#fccc6c"/>
      <path id="Trazado_698781" data-name="Trazado 698781" d="M1156.089,442.523a1.9,1.9,0,0,1-1.762-1.182,103.448,103.448,0,0,1-6.17-21.666,1.9,1.9,0,1,1,3.753-.647,99.642,99.642,0,0,0,5.941,20.868,1.905,1.905,0,0,1-1.761,2.627" transform="translate(-949.394 -345.189)" fill="#fccc6c"/>
      <path id="Trazado_698782" data-name="Trazado 698782" d="M1331.075,387.109l-.529.86-1.4-.542a2.389,2.389,0,0,1-.066.749,2.659,2.659,0,0,1-.33.789,2.588,2.588,0,0,1-1.889,1.308,3.863,3.863,0,0,1-2.567-.68,4.1,4.1,0,0,1-.607-.447,1.036,1.036,0,0,0-.958.421.478.478,0,0,0,0,.525,2.4,2.4,0,0,0,.792.662l1.286.792a3.356,3.356,0,0,1,1.532,1.66,2.146,2.146,0,0,1-.29,1.889,2.559,2.559,0,0,1-2.222,1.3,6.385,6.385,0,0,1-3.4-1.158,4.839,4.839,0,0,1-1.971-1.948,2.023,2.023,0,0,1,.142-2.007,1.9,1.9,0,0,1,1.133-.878,2.7,2.7,0,0,1,1.6.1,1.381,1.381,0,0,1-.252-.747,1.273,1.273,0,0,1,.18-.748,1.26,1.26,0,0,1,.664-.556,3.164,3.164,0,0,1,1.042-.14,2.409,2.409,0,0,1-.435-1.375,2.772,2.772,0,0,1,.445-1.522,2.741,2.741,0,0,1,1.9-1.393,3.733,3.733,0,0,1,2.562.667,6.206,6.206,0,0,1,.63.447,4.877,4.877,0,0,1,.461.408Zm-11.031,4.951a1.011,1.011,0,0,0-.023,1.06,2.942,2.942,0,0,0,1.114,1.063,4.55,4.55,0,0,0,2.131.806,1.29,1.29,0,0,0,1.225-.587.856.856,0,0,0,.077-.894,3.234,3.234,0,0,0-1.151-.989l-1.186-.73a1.956,1.956,0,0,0-1.264-.342,1.219,1.219,0,0,0-.923.612m4.446-5.715a1.741,1.741,0,0,0-.3,1.285,1.583,1.583,0,0,0,.793,1,1.461,1.461,0,0,0,2.253-.616,1.935,1.935,0,0,0,.346-1.316,1.5,1.5,0,0,0-.783-1.019,1.547,1.547,0,0,0-1.267-.247,1.907,1.907,0,0,0-1.043.911" transform="translate(-1090.07 -317.515)" fill="#636363"/>
      <path id="Trazado_698783" data-name="Trazado 698783" d="M1474.741,537.309a4.472,4.472,0,0,0,1.07-.843l.678,1.208a3.708,3.708,0,0,1-.577.579,5.419,5.419,0,0,1-.826.567q-2.279,1.279-3.626-1.123l-2.282-4.066-1.03.578-.4-.71.776-1.207-.35-1.9.99-.555.942,1.678,2.149-1.206.681,1.214-2.149,1.206,2.266,4.039a1.3,1.3,0,0,0,.771.694,1.212,1.212,0,0,0,.916-.151" transform="translate(-1213.691 -438.122)" fill="#636363"/>
      <path id="Trazado_698784" data-name="Trazado 698784" d="M1501.306,464.034a4.447,4.447,0,0,1,.743.54l-1.04,1.373a3.475,3.475,0,0,0-.648-.5,2.354,2.354,0,0,0-1.9-.308,2.6,2.6,0,0,0-1.553,1.246l-2.338,3.871-1.574-.951,4.474-7.407,1.232.744-.581,1.431.08.048a3.43,3.43,0,0,1,1.6-.471,2.67,2.67,0,0,1,1.51.382" transform="translate(-1234.565 -381.947)" fill="#636363"/>
      <path id="Trazado_698785" data-name="Trazado 698785" d="M1396.8,479.677l-1.467-1.121,3.23-4.228a2.33,2.33,0,0,0,.587-1.432,1.558,1.558,0,0,0-.717-1.168,2.03,2.03,0,0,0-1.772-.483,3.815,3.815,0,0,0-1.841,1.513l-2.608,3.413-1.461-1.116,7.39-9.674,1.461,1.116-1.876,2.456a14.469,14.469,0,0,1-1.039,1.205l.093.071a2.553,2.553,0,0,1,1.419-.137,3.367,3.367,0,0,1,1.449.674q2.5,1.909.576,4.427Z" transform="translate(-1150.016 -384.827)" fill="#636363"/>
      <path id="Trazado_698786" data-name="Trazado 698786" d="M1439.746,404.751l-2.276-3.517q-.386-.551-1.594-2.624l-.067.021q.2,2.151.211,3.075l.107,4.181-1.941.609-4.905-7.53,1.792-.562,2.329,3.738q.832,1.4,1.318,2.423l.045-.014q-.1-.568-.165-1.322t-.067-1.139l-.109-4.738,1.926-.6,2.58,3.963q.227.331.631,1.032a9.08,9.08,0,0,1,.566,1.11l.06-.019a24,24,0,0,1-.284-2.732l-.209-4.4,1.761-.553.262,8.987Z" transform="translate(-1181.88 -326.748)" fill="#636363"/>
      <path id="Trazado_698787" data-name="Trazado 698787" d="M1936.208,271.681l-59.478-12.891.451,38.325,10.331,2.268-8.593,15.159,24.286-11.814,33.455,7.278Z" transform="translate(-1551.878 -213.995)" fill="#dce5f7"/>
      <path id="Trazado_698788" data-name="Trazado 698788" d="M1888.884,349.669a7.609,7.609,0,0,1-1.728-.188,4.33,4.33,0,0,1-3.271-2.532c-1.467-3.549,1.861-9.179,2.543-10.271a27.89,27.89,0,0,1,12.007-10.516c1.452-.658,2.975-1.2,4.449-1.716a37.083,37.083,0,0,0,6.248-2.643c2.367-1.367,5.719-5.049,5.857-8.406a4.2,4.2,0,0,0-1.978-3.791c-1.8-1.244-3.777.271-5.3,1.731-.3.287-.6.579-.892.871a16.576,16.576,0,0,1-5.4,4.027,22.1,22.1,0,0,1-6.909,1.141c-3.053.176-5.937.341-8.46,2.063a.433.433,0,0,1-.488-.715c2.721-1.858,5.862-2.038,8.9-2.212a21.444,21.444,0,0,0,6.642-1.083,15.685,15.685,0,0,0,5.113-3.838c.3-.295.6-.589.9-.88,1.035-.991,3.784-3.624,6.393-1.817a5.08,5.08,0,0,1,2.35,4.538c-.143,3.472-3.375,7.438-6.289,9.121a37.746,37.746,0,0,1-6.393,2.709c-1.456.514-2.962,1.045-4.38,1.688a27.016,27.016,0,0,0-11.63,10.186c-1.776,2.844-3.49,7.034-2.478,9.483a3.47,3.47,0,0,0,2.667,2.02c4.02.936,9.616-2.263,13.319-4.379.339-.194.663-.379.971-.553,5.109-2.881,9.574-6.865,13.892-10.718l1.091-.972c2.082-1.852,7.175-6.029,9.485-4.811.9.474,1.236,1.642,1,3.47a15.7,15.7,0,0,1-1.1,3.7,19.907,19.907,0,0,0-.9,2.659c-.41,1.753-.062,3.427.866,4.165a2.584,2.584,0,0,0,2.844-.028c4.4-2.162,5.447-7.431,5.693-9.6.166-1.453.2-2.951.236-4.4s.07-2.942.234-4.413c.336-3.029,1.509-8.243,5.587-9.142a4.4,4.4,0,0,1,3.862.9,7.261,7.261,0,0,1,2.352,5.622,31.136,31.136,0,0,1-2.1,9.242c-.328.97-.666,1.974-.96,2.953a12.936,12.936,0,0,0,.032,8.327c1.058,2.7,3.84,5.191,6.666,4.679,2.574-.467,3.979-2.922,5.338-5.3a24.414,24.414,0,0,1,1.648-2.627.433.433,0,0,1,.689.524,23.863,23.863,0,0,0-1.586,2.534c-1.389,2.428-2.964,5.18-5.934,5.719-3.264.592-6.441-2.187-7.626-5.215a13.8,13.8,0,0,1-.055-8.891c.3-.994.639-2,.969-2.982a30.5,30.5,0,0,0,2.058-8.983,6.461,6.461,0,0,0-2.036-4.936,3.514,3.514,0,0,0-3.127-.72c-3.683.812-4.663,6.14-4.913,8.393-.159,1.433-.195,2.91-.229,4.338-.035,1.467-.072,2.985-.241,4.477-.262,2.307-1.389,7.925-6.172,10.276a3.418,3.418,0,0,1-3.764-.071c-1.2-.957-1.662-2.935-1.17-5.039a20.564,20.564,0,0,1,.933-2.777,14.856,14.856,0,0,0,1.049-3.5c.125-.986.133-2.236-.548-2.6-1.4-.739-5.282,1.824-8.506,4.692l-1.089.971c-4.353,3.883-8.853,7.9-14.044,10.826-.307.173-.63.358-.967.55-3.333,1.9-8.152,4.659-12.216,4.659" transform="translate(-1557.489 -254.916)" fill="#fff"/>
      <path id="Trazado_698789" data-name="Trazado 698789" d="M760.608,12.141l13.347,33.794L756.07,62.251l5.049-14.1-45.507,7.1-12.2-34.189Z" transform="translate(-581.655 -10.039)" fill="#dce5f7"/>
      <path id="Trazado_698790" data-name="Trazado 698790" d="M760.538,92.738a.433.433,0,0,1-.431-.4c-.479-6.712.75-13.67,1.938-20.4.412-2.33.837-4.74,1.174-7.059a3.955,3.955,0,0,0-.093-2.247c-.191-.4-.406-.6-.639-.611h-.016c-.463,0-1.545.586-3.675,4.408l-.113.2c-.133.235-.311.6-.518,1.028-1.038,2.138-2.606,5.368-4.632,5.64a2.451,2.451,0,0,1-2.189-1.007,3.892,3.892,0,0,1-.749-2.976,14.818,14.818,0,0,1,2.119-5.532,14.185,14.185,0,0,0,2.035-5.239,4.5,4.5,0,0,0-1.088-3.908,3.407,3.407,0,0,0-3.144-.529c-7.338,1.732-6.957,9.373-6.621,16.116.079,1.6.154,3.1.121,4.462-.153,6.165-5.5,11.581-11.914,12.073-1.681.129-6.687-.183-7.921-2.325a2.627,2.627,0,0,1,.4-2.92c1.674-2.435,4.371-3.751,6.978-5.024,2.325-1.135,4.729-2.309,6.351-4.266,1.88-2.269,2.651-4.826,2.115-7.016a3.539,3.539,0,0,0-1.486-2.238,2.247,2.247,0,0,0-1.936-.29c-1.658.582-2.742,3.369-3.325,4.866A19.693,19.693,0,0,1,718.92,79.239a7.461,7.461,0,0,1-6.236-1.494,4.729,4.729,0,0,1-1.484-4.109c.272-2.759,2.306-4.936,3.965-6.277.675-.546,1.365-1.089,2.032-1.614,1.831-1.442,3.723-2.932,5.442-4.579,1.638-1.569,3.677-3.521,4.652-5.919.505-1.243.624-3.052-.152-3.954a1.921,1.921,0,0,0-2.043-.434c-2.287.55-4.481,2.234-6.326,3.809a60.546,60.546,0,0,0-4.583,4.519c-1.311,1.389-2.668,2.824-4.105,4.1a22.283,22.283,0,0,1-9.753,5.246.433.433,0,0,1-.2-.843,21.433,21.433,0,0,0,9.374-5.049c1.409-1.254,2.753-2.676,4.051-4.051a61.209,61.209,0,0,1,4.65-4.583c1.923-1.641,4.221-3.4,6.685-3.992a2.706,2.706,0,0,1,2.9.711c1.011,1.175.915,3.327.3,4.844-1.045,2.569-3.157,4.592-4.855,6.218-1.75,1.676-3.659,3.179-5.505,4.634-.665.524-1.353,1.065-2.023,1.608-1.53,1.237-3.4,3.228-3.647,5.689a3.845,3.845,0,0,0,1.208,3.386,6.574,6.574,0,0,0,5.493,1.28,18.8,18.8,0,0,0,13.7-11.157c.678-1.741,1.811-4.655,3.845-5.369a3.1,3.1,0,0,1,2.657.357A4.292,4.292,0,0,1,740.861,65c.6,2.459-.233,5.293-2.29,7.774-1.741,2.1-4.23,3.316-6.638,4.491-2.622,1.28-5.1,2.489-6.645,4.737-.552.8-.67,1.457-.358,2,.9,1.555,5.038,2.053,7.1,1.894,5.986-.458,10.973-5.5,11.115-11.231.033-1.326-.041-2.818-.12-4.4-.335-6.729-.752-15.1,7.287-17a4.154,4.154,0,0,1,3.916.722,5.323,5.323,0,0,1,1.375,4.649,15.044,15.044,0,0,1-2.136,5.561,13.963,13.963,0,0,0-2.018,5.205,3.14,3.14,0,0,0,.54,2.317,1.631,1.631,0,0,0,1.422.72c1.566-.21,3.129-3.43,3.969-5.16.213-.438.4-.817.543-1.076l.11-.2c1.273-2.283,2.926-4.895,4.474-4.851a1.617,1.617,0,0,1,1.393,1.1A4.766,4.766,0,0,1,764.075,65c-.339,2.332-.765,4.748-1.178,7.085-1.179,6.677-2.4,13.581-1.927,20.186a.432.432,0,0,1-.4.463h-.031" transform="translate(-578.666 -41.258)" fill="#fff"/>
      <path id="Trazado_698791" data-name="Trazado 698791" d="M1251.925,589.334c-2.411,2.66-5.841,3.478-7.661,1.828s-1.343-5.144,1.068-7.8,8.767-3.048,8.767-3.048.237,6.364-2.173,9.024" transform="translate(-1027.974 -479.861)" fill="#dce5f7"/>
      <path id="Trazado_698792" data-name="Trazado 698792" d="M1242.662,526.726c-1.96.285-3.708-.572-3.9-1.914s1.236-2.661,3.2-2.947,4.8,1.783,4.8,1.783-2.135,2.792-4.1,3.077" transform="translate(-1024.322 -431.511)" fill="#dce5f7"/>
      <path id="Trazado_698793" data-name="Trazado 698793" d="M1175.879,312.643c-1.4-1.4-1.764-3.311-.806-4.271s2.871-.605,4.274.793,1.45,4.913,1.45,4.913-3.515-.036-4.917-1.435" transform="translate(-971.231 -254.547)" fill="#dce5f7"/>
      <path id="Trazado_698794" data-name="Trazado 698794" d="M1116.535,760.945a.672.672,0,0,1-.66-.551L1111.5,736.43a.672.672,0,1,1,1.323-.242l4.377,23.963a.672.672,0,0,1-.54.782.664.664,0,0,1-.122.011" transform="translate(-919.094 -608.302)" fill="#240448"/>
      <path id="Trazado_698795" data-name="Trazado 698795" d="M1078.781,865.914l-5.616,2.108a3.832,3.832,0,1,1-2.694-7.175l5.616-2.108a3.832,3.832,0,1,1,2.693,7.175" transform="translate(-883.122 -709.893)" fill="#240448"/>
      <path id="Trazado_698796" data-name="Trazado 698796" d="M957.126,201.358a.673.673,0,0,1-.632-.9l8.3-22.9a.672.672,0,1,1,1.264.458l-8.3,22.9a.672.672,0,0,1-.632.444" transform="translate(-790.897 -146.453)" fill="#240448"/>
      <path id="Trazado_698797" data-name="Trazado 698797" d="M896.167,287.155l-5.913-1.009a3.832,3.832,0,1,1,1.29-7.555l5.913,1.009a3.832,3.832,0,1,1-1.29,7.555" transform="translate(-733.52 -230.322)" fill="#240448"/>
      <path id="Trazado_698798" data-name="Trazado 698798" d="M2046.34,371.829h-26.482a.433.433,0,0,1,0-.865h26.482a.433.433,0,0,1,0,.865" transform="translate(-1669.874 -306.752)" fill="#240448"/>
      <path id="Trazado_698799" data-name="Trazado 698799" d="M2046.34,403.465h-26.482a.433.433,0,1,1,0-.865h26.482a.433.433,0,0,1,0,.865" transform="translate(-1669.874 -332.912)" fill="#240448"/>
      <path id="Trazado_698800" data-name="Trazado 698800" d="M1964.732,435.1h-43.565a.433.433,0,0,1,0-.865h43.565a.433.433,0,0,1,0,.865" transform="translate(-1588.266 -359.072)" fill="#240448"/>
      <path id="Trazado_698801" data-name="Trazado 698801" d="M868.992,32.327h0a1.423,1.423,0,0,1-1.676-.981l-5.149-17.215a2.671,2.671,0,1,1,5.2-1.17l2.72,17.762a1.423,1.423,0,0,1-1.094,1.6" transform="translate(-712.838 -8.842)" fill="#0098e8"/>
      <path id="Trazado_698802" data-name="Trazado 698802" d="M902.583,160.03a1.782,1.782,0,1,1-1.833-1.73,1.782,1.782,0,0,1,1.833,1.73" transform="translate(-743.404 -130.898)" fill="#0098e8"/>
      <path id="Trazado_698803" data-name="Trazado 698803" d="M2011.954,774.239l1.156,2.183,2.114,1.194-2.114,1.194-1.156,2.183-1.156-2.183-2.114-1.194,2.114-1.194Z" transform="translate(-1660.992 -640.222)" fill="#12263f"/>
      <path id="Trazado_698804" data-name="Trazado 698804" d="M1195.041,161.482l1.156,2.183,2.114,1.194-2.114,1.194-1.156,2.183-1.156-2.183-2.114-1.194,2.114-1.194Z" transform="translate(-985.482 -133.53)" fill="#fccc6c"/>
      <path id="Trazado_698805" data-name="Trazado 698805" d="M831.992,691.706l1.156,2.183,2.114,1.194-2.114,1.194-1.156,2.183-1.156-2.183-2.114-1.194,2.114-1.194Z" transform="translate(-685.274 -571.976)" fill="#44d4f4"/>
      <path id="Trazado_698806" data-name="Trazado 698806" d="M1760.656,378.555l1.156,2.183,2.114,1.194-2.114,1.194-1.156,2.183-1.156-2.183-2.114-1.194,2.114-1.194Z" transform="translate(-1453.192 -313.029)" fill="#fccc6c"/>
    </g>
  </g>
</svg>
