<svg id="Grupo_998550" data-name="Grupo 998550" xmlns="http://www.w3.org/2000/svg" xmlns:xlink="http://www.w3.org/1999/xlink" width="410.116" height="230.487" viewBox="0 0 410.116 230.487">
  <defs>
    <clipPath id="clip-path">
      <rect id="Rectángulo_344754" data-name="Rectángulo 344754" width="410.116" height="230.487" fill="none"/>
    </clipPath>
    <clipPath id="clip-path-2">
      <rect id="Rectángulo_344753" data-name="Rectángulo 344753" width="410.115" height="230.487" fill="none"/>
    </clipPath>
    <clipPath id="clip-path-3">
      <rect id="Rectángulo_344751" data-name="Rectángulo 344751" width="4.823" height="17.268" fill="none"/>
    </clipPath>
  </defs>
  <g id="Grupo_998549" data-name="Grupo 998549" clip-path="url(#clip-path)">
    <g id="Grupo_998548" data-name="Grupo 998548" transform="translate(0 0)">
      <g id="Grupo_998547" data-name="Grupo 998547" clip-path="url(#clip-path-2)">
        <path id="Trazado_698592" data-name="Trazado 698592" d="M43.624,229.468l-.032-.069a.355.355,0,0,1-.034-.1c-.13-.275-52.613-77.443,28.977-131.162,31.925-21.02-2-34.894,23.389-58.294,29.173-26.889,61.012,2.858,93.454-9.336a52.571,52.571,0,0,0,17.241-10.934A66.663,66.663,0,0,1,226.051,7.265,97.272,97.272,0,0,1,257.21.279c36.249-2.436,77.043,11.262,98.1,31.282,4.237,4.033,23.51,24.891,8.319,53.563-9.592,18.1,30.591,35.392,44.871,56.064,24.192,35.021,16.393,62.476,8.4,77.1-1.015,1.86-2.034,3.51-2.989,4.942a64.67,64.67,0,0,1-5.173,6.714s-365.008-.2-365.107-.474" transform="translate(-22.467 0.001)" fill="#fff"/>
        <path id="Trazado_698593" data-name="Trazado 698593" d="M1678.785,432.535s8.7-36.871,38.046-40.924c0,0,5.71-.7,7.611,5.586s-9.451,6.333-16.469,8.862-23.377,13.25-29.188,26.477" transform="translate(-1406.17 -327.998)" fill="#f3f9ff"/>
        <path id="Trazado_698594" data-name="Trazado 698594" d="M1673.906,385.325s-3.051-30.541,18.365-41.38a5.861,5.861,0,0,1,7.3,2.274c3.114,4.316-5.572,7.342-10.282,11.129s-14.419,16.312-15.386,27.977" transform="translate(-1401.958 -287.688)" fill="#f3f9ff"/>
        <path id="Trazado_698595" data-name="Trazado 698595" d="M1215.65,311.156s20.786-5.892,15.555-21.869c0,0-4.8-10.19-11.612-14.14,0,0-1.047,21.714-5.075,21.269s2.911-24.111,2.911-24.111-17.1-13.9-24.85-14.974c0,0,7.137,23.15,3.342,21.728s-12.34-25.167-12.34-25.167-18.927-8.393-24.906,2.584-2.245,18.069.514,19.5,21.641,5.681,20.569,8.009-14.718,3.206-21.283-.686c0,0,3.214,21.18,13.716,22.653s15.2-4.126,21.669-3.1,10.71,3.848,7.123,4.8-14.069-2.764-20.245.375-10.973,4.837-1.905,9.068,26.473,7.092,31.645.575Z" transform="translate(-967.841 -210.092)" fill="#f3f9ff"/>
        <path id="Trazado_698596" data-name="Trazado 698596" d="M1225.479,321.5s47.373,28.875,48.806,48.856a40.1,40.1,0,0,0,.63,19.013l-.875,3.667s-2.4-13.752-4.928-16.163c0,0,15.341-13.393-43.633-55.373" transform="translate(-1026.476 -269.295)" fill="#bbd0ff"/>
        <path id="Trazado_698597" data-name="Trazado 698597" d="M1504.823,724.795s5.048,13.912-2.958,27.47l-1.906-1.033s5.824-15.648,3.617-24.744,1.248-1.693,1.248-1.693" transform="translate(-1256.384 -604.718)" fill="#bbd0ff"/>
        <path id="Trazado_698598" data-name="Trazado 698598" d="M175.3,879.362s6.962-18.8-7.605-22.469c0,0-10.087-1.213-16.684,2.117,0,0,15.368,11.251,12.855,14.131S147.754,859.3,147.754,859.3s-19.485,6.446-24.484,11.884c0,0,20.867,5.655,17.762,7.885s-25.173-2.628-25.173-2.628-16.438,10.5-11.628,20.374,12.043,10.417,14.593,8.987,15.921-13.89,17.048-11.946-5.639,12.848-12.06,16.018c0,0,17.291,7.72,24.074.362s5.224-13.657,9.493-18.135,8.639-6.375,7.392-3.162-9.669,9.476-10.718,15.73-2.408,10.756,5.621,5.826,19.581-16.922,17.606-24.031Z" transform="translate(-86.567 -717.563)" fill="#f3f9ff"/>
        <path id="Trazado_698599" data-name="Trazado 698599" d="M162.431,1000.433s46.917-22.5,62.361-13.985c0,0,5.116,6.329,1.974,7.109,0,0-1.5-18.227-64.335,6.876" transform="translate(-136.054 -824.65)" fill="#8c9df4"/>
        <rect id="Rectángulo_344721" data-name="Rectángulo 344721" width="247.607" height="144.644" transform="translate(71.105 84.755)" fill="#1c468a"/>
        <path id="Trazado_698600" data-name="Trazado 698600" d="M599.073,648.962V508.224s-30.58-14.677-70.98-4.111-47.716,4.111-47.716,4.111V648.447Z" transform="translate(-402.37 -419.047)" fill="#ebf3fa"/>
        <path id="Trazado_698601" data-name="Trazado 698601" d="M1209.029,648.962V508.224s30.58-14.677,70.98-4.111,47.716,4.111,47.716,4.111V648.447Z" transform="translate(-1012.697 -419.047)" fill="#ebf3fa"/>
        <path id="Trazado_698602" data-name="Trazado 698602" d="M1447.656,692.352l2.488.324-1.771,1.777.461,2.466-2.238-1.135-2.2,1.2.388-2.479-1.822-1.725,2.477-.4,1.077-2.266Z" transform="translate(-1208.639 -578.051)" fill="#7c9af2"/>
        <path id="Trazado_698603" data-name="Trazado 698603" d="M1507.1,692.352l2.488.324-1.771,1.777.461,2.466-2.238-1.135-2.2,1.2.388-2.479-1.822-1.725,2.477-.4,1.077-2.266Z" transform="translate(-1258.427 -578.051)" fill="#7c9af2"/>
        <path id="Trazado_698604" data-name="Trazado 698604" d="M1566.534,692.352l2.488.324-1.77,1.777.46,2.466-2.238-1.135-2.2,1.2.388-2.479-1.822-1.725,2.477-.4,1.077-2.266Z" transform="translate(-1308.213 -578.051)" fill="#7c9af2"/>
        <path id="Trazado_698605" data-name="Trazado 698605" d="M1625.973,692.352l2.488.324-1.771,1.777.46,2.466-2.238-1.135-2.2,1.2.388-2.479-1.822-1.725,2.477-.4,1.077-2.266Z" transform="translate(-1357.999 -578.051)" fill="#7c9af2"/>
        <path id="Trazado_698606" data-name="Trazado 698606" d="M1685.412,692.352l2.488.324-1.771,1.777.46,2.466-2.238-1.135-2.2,1.2.388-2.479-1.822-1.725,2.477-.4,1.077-2.266Z" transform="translate(-1407.787 -578.051)" fill="#7c9af2"/>
        <path id="Trazado_698607" data-name="Trazado 698607" d="M1447.656,1028.513l2.488.324-1.771,1.777.461,2.466-2.238-1.135-2.2,1.2.388-2.479-1.822-1.724,2.477-.4,1.077-2.266Z" transform="translate(-1208.639 -859.624)" fill="#7c9af2"/>
        <path id="Trazado_698608" data-name="Trazado 698608" d="M1507.1,1028.513l2.488.324-1.771,1.777.461,2.466-2.238-1.135-2.2,1.2.388-2.479-1.822-1.724,2.477-.4,1.077-2.266Z" transform="translate(-1258.427 -859.624)" fill="#7c9af2"/>
        <path id="Trazado_698609" data-name="Trazado 698609" d="M1566.534,1028.513l2.488.324-1.77,1.777.46,2.466-2.238-1.135-2.2,1.2.388-2.479-1.822-1.724,2.477-.4,1.077-2.266Z" transform="translate(-1308.213 -859.624)" fill="#7c9af2"/>
        <path id="Trazado_698610" data-name="Trazado 698610" d="M1625.973,1028.513l2.488.324-1.771,1.777.46,2.466-2.238-1.135-2.2,1.2.388-2.479-1.822-1.724,2.477-.4,1.077-2.266Z" transform="translate(-1357.999 -859.624)" fill="#7c9af2"/>
        <path id="Trazado_698611" data-name="Trazado 698611" d="M1685.412,1028.513l2.488.324-1.771,1.777.46,2.466-2.238-1.135-2.2,1.2.388-2.479-1.822-1.724,2.477-.4,1.077-2.266Z" transform="translate(-1407.787 -859.624)" fill="#7c9af2"/>
        <rect id="Rectángulo_344722" data-name="Rectángulo 344722" width="47.515" height="1.632" transform="translate(233.459 127.616)" fill="#7c9af2"/>
        <rect id="Rectángulo_344723" data-name="Rectángulo 344723" width="19.474" height="1.632" transform="translate(226.794 140.668)" fill="#7c9af2"/>
        <rect id="Rectángulo_344724" data-name="Rectángulo 344724" width="15.468" height="1.632" transform="translate(250.552 140.668)" fill="#7c9af2"/>
        <rect id="Rectángulo_344725" data-name="Rectángulo 344725" width="18.891" height="1.632" transform="translate(268.747 140.668)" fill="#7c9af2"/>
        <rect id="Rectángulo_344726" data-name="Rectángulo 344726" width="30.512" height="1.632" transform="translate(223.722 134.142)" fill="#7c9af2"/>
        <rect id="Rectángulo_344727" data-name="Rectángulo 344727" width="30.511" height="1.632" transform="translate(260.2 134.142)" fill="#7c9af2"/>
        <rect id="Rectángulo_344728" data-name="Rectángulo 344728" width="47.515" height="1.632" transform="translate(233.459 146.728)" fill="#7c9af2"/>
        <rect id="Rectángulo_344729" data-name="Rectángulo 344729" width="19.474" height="1.632" transform="translate(226.794 181.563)" fill="#7c9af2"/>
        <rect id="Rectángulo_344730" data-name="Rectángulo 344730" width="15.468" height="1.632" transform="translate(250.552 181.563)" fill="#7c9af2"/>
        <rect id="Rectángulo_344731" data-name="Rectángulo 344731" width="18.891" height="1.632" transform="translate(268.747 181.563)" fill="#7c9af2"/>
        <rect id="Rectángulo_344732" data-name="Rectángulo 344732" width="47.515" height="1.632" transform="translate(233.459 187.623)" fill="#7c9af2"/>
        <rect id="Rectángulo_344733" data-name="Rectángulo 344733" width="19.474" height="1.632" transform="translate(226.794 200.209)" fill="#7c9af2"/>
        <rect id="Rectángulo_344734" data-name="Rectángulo 344734" width="15.468" height="1.632" transform="translate(250.552 200.209)" fill="#7c9af2"/>
        <rect id="Rectángulo_344735" data-name="Rectángulo 344735" width="18.891" height="1.632" transform="translate(268.747 200.209)" fill="#7c9af2"/>
        <rect id="Rectángulo_344736" data-name="Rectángulo 344736" width="30.512" height="1.632" transform="translate(223.722 193.682)" fill="#7c9af2"/>
        <rect id="Rectángulo_344737" data-name="Rectángulo 344737" width="30.511" height="1.632" transform="translate(260.2 193.682)" fill="#7c9af2"/>
        <path id="Trazado_698612" data-name="Trazado 698612" d="M709.543,976.338l2.488.324-1.771,1.777.461,2.466-2.238-1.135-2.2,1.2.388-2.479-1.822-1.724,2.477-.4,1.077-2.266Z" transform="translate(-590.387 -815.922)" fill="#7c9af2"/>
        <path id="Trazado_698613" data-name="Trazado 698613" d="M768.982,976.338l2.488.324L769.7,978.44l.46,2.466-2.238-1.135-2.2,1.2.388-2.479-1.822-1.724,2.477-.4,1.077-2.266Z" transform="translate(-640.173 -815.922)" fill="#7c9af2"/>
        <path id="Trazado_698614" data-name="Trazado 698614" d="M828.42,976.338l2.488.324-1.771,1.777.461,2.466-2.238-1.135-2.2,1.2.388-2.479-1.822-1.724,2.477-.4,1.077-2.266Z" transform="translate(-689.96 -815.922)" fill="#7c9af2"/>
        <path id="Trazado_698615" data-name="Trazado 698615" d="M887.859,976.338l2.488.324-1.771,1.777.461,2.466-2.238-1.135-2.2,1.2.388-2.479-1.822-1.724,2.477-.4,1.077-2.266Z" transform="translate(-739.747 -815.922)" fill="#7c9af2"/>
        <path id="Trazado_698616" data-name="Trazado 698616" d="M947.3,976.338l2.488.324-1.771,1.777.46,2.466-2.238-1.135-2.2,1.2.388-2.479-1.822-1.724,2.477-.4,1.077-2.266Z" transform="translate(-789.534 -815.922)" fill="#7c9af2"/>
        <path id="Trazado_698617" data-name="Trazado 698617" d="M638.472,470.836s6.508.372,6.974,8.3H630.684l1.865-6.682Z" transform="translate(-528.268 -394.378)" fill="#d66741"/>
        <rect id="Rectángulo_344738" data-name="Rectángulo 344738" width="14.388" height="1.632" transform="translate(114.878 175.462)" fill="#7c9af2"/>
        <rect id="Rectángulo_344739" data-name="Rectángulo 344739" width="11.428" height="1.632" transform="translate(132.431 175.462)" fill="#7c9af2"/>
        <rect id="Rectángulo_344740" data-name="Rectángulo 344740" width="13.958" height="1.632" transform="translate(145.875 175.462)" fill="#7c9af2"/>
        <rect id="Rectángulo_344741" data-name="Rectángulo 344741" width="35.107" height="1.632" transform="translate(119.802 181.522)" fill="#7c9af2"/>
        <rect id="Rectángulo_344742" data-name="Rectángulo 344742" width="14.388" height="1.632" transform="translate(114.878 194.108)" fill="#7c9af2"/>
        <rect id="Rectángulo_344743" data-name="Rectángulo 344743" width="11.428" height="1.632" transform="translate(132.431 194.108)" fill="#7c9af2"/>
        <rect id="Rectángulo_344744" data-name="Rectángulo 344744" width="13.958" height="1.632" transform="translate(145.875 194.108)" fill="#7c9af2"/>
        <rect id="Rectángulo_344745" data-name="Rectángulo 344745" width="22.544" height="1.631" transform="translate(112.608 187.582)" fill="#7c9af2"/>
        <rect id="Rectángulo_344746" data-name="Rectángulo 344746" width="22.544" height="1.631" transform="translate(139.56 187.582)" fill="#7c9af2"/>
        <rect id="Rectángulo_344747" data-name="Rectángulo 344747" width="17.048" height="1.632" transform="translate(110.724 201.653)" fill="#7c9af2"/>
        <rect id="Rectángulo_344748" data-name="Rectángulo 344748" width="13.541" height="1.632" transform="translate(131.521 201.653)" fill="#7c9af2"/>
        <rect id="Rectángulo_344749" data-name="Rectángulo 344749" width="16.538" height="1.632" transform="translate(147.45 201.653)" fill="#7c9af2"/>
        <rect id="Rectángulo_344750" data-name="Rectángulo 344750" width="41.596" height="1.632" transform="translate(116.558 207.712)" fill="#7c9af2"/>
        <path id="Trazado_698618" data-name="Trazado 698618" d="M582.468,469.606s-12.12-1.855-15.849,4.783,2.564,25.864-2.8,37.693c0,0,4.534-.1,6.038-1.237l.572,4.454a12.385,12.385,0,0,0,6.526-8.08c1.45-5.9-.621-29.834.725-33.252a7.768,7.768,0,0,1,4.784-4.361" transform="translate(-472.265 -393.148)" fill="#f77d48"/>
        <path id="Trazado_698619" data-name="Trazado 698619" d="M755.615,713.7s-10.5-19.479-28.6-23.886-22.035,10.211-39.041,3.814-29.2,5.359-22.667,19.3,18.826,20.4,37.026,12,15.282,6.4,29.521,1.42,12.4-19.1,23.757-12.644" transform="translate(-555.773 -577.092)" fill="#ffa031"/>
        <path id="Trazado_698620" data-name="Trazado 698620" d="M940.059,737.481a4.945,4.945,0,0,1,7.349-5.438l-.817,1.693a3.245,3.245,0,0,0-2.6-.376,2.956,2.956,0,0,0,1.545,5.687,3.385,3.385,0,0,0,2.09-1.706l1.635,1.013a4.993,4.993,0,0,1-9.2-.873" transform="translate(-787.254 -612.559)" fill="#e9f3ff"/>
        <path id="Trazado_698621" data-name="Trazado 698621" d="M699.943,789.461a5.23,5.23,0,0,1-2.953.3,4.966,4.966,0,1,1,5.922-3.968,4.854,4.854,0,0,1-1.33,2.559l.821,1-1.59,1.23Zm-1.29-1.643-1.3-1.589,1.592-1.243,1.3,1.685a3.221,3.221,0,0,0,.5-1.275,2.916,2.916,0,0,0-2.32-3.489,2.878,2.878,0,0,0-3.374,2.452,2.916,2.916,0,0,0,2.32,3.489,3.092,3.092,0,0,0,1.288-.03" transform="translate(-580.288 -653.257)" fill="#e9f3ff"/>
        <path id="Trazado_698622" data-name="Trazado 698622" d="M772.682,831.733l4.273-.325a3.735,3.735,0,0,1,2.8.741,2.964,2.964,0,0,1,.966,2.1,2.911,2.911,0,0,1-1.783,3.05l2.538,3.165-2.4.183-2.257-2.837-1.589.121.228,2.991-2.057.156Zm4.485,4.226c1-.076,1.535-.654,1.473-1.469-.067-.881-.716-1.288-1.717-1.212l-2.043.155.2,2.684Z" transform="translate(-647.208 -696.383)" fill="#e9f3ff"/>
        <path id="Trazado_698623" data-name="Trazado 698623" d="M773.286,753.859l1.584.47.04,4.964,2.864-4.122,1.267.376.15,5.017,2.743-4.137,1.545.459-4.3,6.086-1.286-.382-.211-4.847-2.823,3.946-1.286-.382Z" transform="translate(-647.714 -631.441)" fill="#1c468a"/>
        <path id="Trazado_698624" data-name="Trazado 698624" d="M1045.662,818.29l1.506-.68,3.277,3.728-.529-4.991,1.2-.544,3.4,3.7-.631-4.923,1.469-.664.725,7.419-1.223.552-3.33-3.528.446,4.831-1.223.552Z" transform="translate(-875.859 -681.742)" fill="#e9f3ff"/>
        <path id="Trazado_698625" data-name="Trazado 698625" d="M931.254,807.165a3.273,3.273,0,1,1,4.208,1.756,3.184,3.184,0,0,1-4.208-1.756m4.767-1.891a1.871,1.871,0,0,0-2.447-1.111,1.846,1.846,0,0,0-1,2.48,1.87,1.87,0,0,0,2.447,1.111,1.846,1.846,0,0,0,1-2.48" transform="translate(-779.838 -672.387)" fill="#1c468a"/>
        <path id="Trazado_698626" data-name="Trazado 698626" d="M980.7,801.213l2.008.534-.96,3.613,3.7.984.96-3.612,2.008.534L986,812.394l-2.008-.534.974-3.665-3.7-.985-.974,3.665-2.008-.534Z" transform="translate(-819.417 -671.105)" fill="#e9f3ff"/>
        <path id="Trazado_698627" data-name="Trazado 698627" d="M837.021,803.338l-2.851.087-.058-1.9,7.764-.238.058,1.9-2.852.087.229,7.47-2.062.063Z" transform="translate(-698.662 -671.167)" fill="#e9f3ff"/>
        <path id="Trazado_698628" data-name="Trazado 698628" d="M863.371,736.041l1.739-.8,4.179,4.188-.435-5.9,1.7-.777.4,8.537-1.391.636Z" transform="translate(-723.17 -613.766)" fill="#e9f3ff"/>
        <path id="Trazado_698629" data-name="Trazado 698629" d="M1009.521,754.7l3.012-1.772.46.782-2.139,1.258.476.81,1.882-1.107.46.782-1.883,1.107.493.839,2.168-1.275.46.781-3.041,1.788Z" transform="translate(-845.587 -630.659)" fill="#e9f3ff"/>
        <path id="Trazado_698630" data-name="Trazado 698630" d="M881.571,836.645l-.822-6.489,2.122,1,.411,4.238,3.561-2.37,2.063.97-5.5,3.472-1.546,3.289-1.815-.853Z" transform="translate(-737.134 -695.348)" fill="#1c468a"/>
        <path id="Trazado_698631" data-name="Trazado 698631" d="M1057.6,741.15l6.591,3.069-.806,1.731-4.687-2.182-.858,1.842,4.13,1.923-.806,1.731-4.13-1.923-1.56,3.351-1.9-.887Z" transform="translate(-882.487 -620.796)" fill="#1c468a"/>
        <path id="Trazado_698632" data-name="Trazado 698632" d="M1214.549,1382.986h11.44c.82-.556-.221-5.991-.221-5.991s-3.123-1.185-3.662,1.224-3.977,3.173-5.8,3.467a1.958,1.958,0,0,0-1.762,1.3" transform="translate(-1017.321 -1153.144)" fill="#243f66"/>
        <path id="Trazado_698633" data-name="Trazado 698633" d="M1226.208,1043.808l5.341,55.475s1.119,1.724,4.669.562a101.642,101.642,0,0,0,3.558-19.188c.012-.168.026-.337.038-.505.271-3.694.594-8.839.9-13.939.555-9.271,1.048-18.4,1.048-18.4Z" transform="translate(-1027.086 -874.306)" fill="#ffa561"/>
        <path id="Trazado_698634" data-name="Trazado 698634" d="M1268.6,1109.163s1.831,12.356,2.464,16.113c1.347,8,4.22,10.124,4.22,10.124.012-.168.026-.337.038-.505.271-3.694.594-8.839.9-13.939Z" transform="translate(-1062.595 -929.048)" fill="#e28140"/>
        <path id="Trazado_698635" data-name="Trazado 698635" d="M1076.519,941.287s-1.06-1.287-1.63-1.467-1.674-1.035-1.818-.683.742.894.695,1.3c-.021.177-.705.187-1.464.178-.963-.011-2.134-.529-2.177-.294-.159.858,1.1,2.419,2.415,2.558,1.057.112,2.526-.107,4.29.08.611.064-.312-1.668-.312-1.668" transform="translate(-896.338 -786.562)" fill="#ffb27d"/>
        <path id="Trazado_698636" data-name="Trazado 698636" d="M1105.019,879.513c.036.1,3.839.74,7.131,1.2,1.938.273,3.7.485,4.412.493a22.389,22.389,0,0,0,8.018-1.981,34.068,34.068,0,0,0,6.216-3.431c1.88-1.307,1.938-2.331,3.5-4.431,4.853-6.519-1.525-9.275-5.033-8.024a9.989,9.989,0,0,0-5.211,4.334c-1.556,2.362-2.826,4.992-6.7,7.263-2.919,1.712-11.62,2.181-11.62,2.181a1.8,1.8,0,0,0-.64,1,5.361,5.361,0,0,0-.075,1.394" transform="translate(-925.564 -722.897)" fill="#8c9df4"/>
        <path id="Trazado_698637" data-name="Trazado 698637" d="M1319.036,1382.986h11.441c.82-.556-.221-5.991-.221-5.991s-3.123-1.185-3.662,1.224-3.977,3.173-5.8,3.467a1.958,1.958,0,0,0-1.762,1.3" transform="translate(-1104.84 -1153.144)" fill="#243f66"/>
        <path id="Trazado_698638" data-name="Trazado 698638" d="M1252.642,1027.441l17.325,53.027s3.686.985,5.574-1.025c0,0-.438-18.7-2.8-25.08-1.913-5.165-.985-33.052-9.467-33.289s-10.63,6.367-10.63,6.367" transform="translate(-1049.228 -855.258)" fill="#ffa561"/>
        <path id="Trazado_698639" data-name="Trazado 698639" d="M1224.188,890.617c2.673,1.377,6.141,2.344,11.865,1.972,5.5-.358,8.862-1.867,8.691-3.182-.085-.655-.167-1.328-.238-2.031a50.872,50.872,0,0,1,.193-11.8c.162-1.342.369-2.769.544-4.009v0h0a28.764,28.764,0,0,0,.36-3.212s-1.741-7.821-3.046-9.078a5.611,5.611,0,0,0-1.98-1.127l-.007,0c-3.932-1.418-11.16-1.1-14.356,1.671a10.224,10.224,0,0,0-2.021,5.8c-.06,3.929-1.743,24.11-.007,25" transform="translate(-1024.738 -718.097)" fill="#8c9df4"/>
        <path id="Trazado_698640" data-name="Trazado 698640" d="M1278.781,834.416c.394-.5-.718-1.428-.221-5.068a2.585,2.585,0,0,0-.9.149c-1.621.384-4.88,1.308-5.024,1.349h-.005s-.04.766-.174,2.138q-.017.181-.036.378c-.017.161-.029.332-.053.507-.386,2.739,4.568,2.878,6.414.547" transform="translate(-1065.732 -694.659)" fill="#ffb27d"/>
        <path id="Trazado_698641" data-name="Trazado 698641" d="M1273.029,833.83c2.42.555,6.032-3.018,6.032-3.018a3.814,3.814,0,0,0-.828-.469c-1.621.384-4.88,1.308-5.025,1.349h-.005s-.04.766-.174,2.138" transform="translate(-1066.304 -695.504)" fill="#ed975d"/>
        <path id="Trazado_698642" data-name="Trazado 698642" d="M1264.507,786.207a12.312,12.312,0,0,0,2.264.528c1.855.251,4.3.1,5.062-2.142,1.291-3.778,2.94-6.044-.859-7.587-2.034-.826-3.335-.87-4.218-.554a3.054,3.054,0,0,0-1.563,1.353c-.738,1.156-2.222,7.741-.685,8.4" transform="translate(-1058.605 -650.214)" fill="#ffb27d"/>
        <path id="Trazado_698643" data-name="Trazado 698643" d="M1269.487,759.1a2.114,2.114,0,0,0,1.261,3.682,6.16,6.16,0,0,1,1.785.213c.945.42,1.114,2,1.132,2.507s.083.929,1.366.627a.623.623,0,0,1,.466.028c.532.316-.148,1.846-.353,2.178,0,0-.3,1.1.36,1.63.079.064,1.366.626,4.468-4.12a4.408,4.408,0,0,0,.2-4.039c-.752-1.616-3.839-3.387-6.56-4.006a4.566,4.566,0,0,0-4.124,1.3" transform="translate(-1062.747 -634.653)" fill="#163560"/>
        <path id="Trazado_698644" data-name="Trazado 698644" d="M1267.784,822.438s-.08.489,1.058.879c0,0,.955.328,1.129-.174a3.241,3.241,0,0,0-2.187-.706" transform="translate(-1061.91 -688.883)" fill="#fff"/>
        <path id="Trazado_698645" data-name="Trazado 698645" d="M1149.013,943.992c1.938.273,3.7.485,4.412.493a22.387,22.387,0,0,0,8.018-1.981c.143-.5.286-3.627-.019-3.837-.928-.639-2.774,2.968-5.873,3.9a52.618,52.618,0,0,1-6.538,1.422" transform="translate(-962.427 -786.175)" fill="#6980e2"/>
        <path id="Trazado_698646" data-name="Trazado 698646" d="M1336.425,955.336a.957.957,0,0,0,1.01-.259,50.87,50.87,0,0,1,.193-11.8c.162-1.343.369-2.769.544-4.009v0s-2.594-2.232-3.484-.389,1.652,6.737.254,9.661-.087,6.364,1.482,6.8" transform="translate(-1117.667 -785.799)" fill="#6980e2"/>
        <path id="Trazado_698647" data-name="Trazado 698647" d="M1334.019,1033.409s-1.4,1.017-1.762.957c-1.053-.176-1.6-1.034-2.577-.952s-3.046,1.176-2.807,1.426c.869.909,2.21.417,2.84.972a2.231,2.231,0,0,0,2.29,1.024,6.065,6.065,0,0,0,2.994-1.469Z" transform="translate(-1111.389 -865.594)" fill="#ffb27d"/>
        <path id="Trazado_698648" data-name="Trazado 698648" d="M1329.09,862.381a21.508,21.508,0,0,1,10.485,7.718c4.36,6.006,5.771,10.064,4.055,13.068s-5.053,8.313-8.294,10.55c0,0-1.621-.347-1.493-2.826,0,0,3.979-8.484,3.836-9.632-.267-2.137-5.933-7.553-7.172-8.671s-1.416-10.208-1.416-10.208" transform="translate(-1113.262 -722.34)" fill="#8c9df4"/>
        <path id="Trazado_698649" data-name="Trazado 698649" d="M1350.851,1030.786a11.549,11.549,0,0,1-.8-1.409c-.1-.318-.257.165-.191.493a1.278,1.278,0,0,1-.016.588Z" transform="translate(-1130.645 -862.131)" fill="#ffb27d"/>
        <path id="Trazado_698650" data-name="Trazado 698650" d="M1660.243,202.132l-.98-.426a2.072,2.072,0,0,1-1.072-2.723l3.578-8.225a2.072,2.072,0,0,1,2.723-1.072l1.4.611a.405.405,0,0,1-.323.743l-1.4-.611a1.261,1.261,0,0,0-1.657.653l-3.578,8.225a1.261,1.261,0,0,0,.652,1.658l.98.426a1.261,1.261,0,0,0,1.657-.653l2.375-5.46a.4.4,0,0,1,.743.323l-2.375,5.46a2.072,2.072,0,0,1-2.723,1.072" transform="translate(-1388.776 -158.739)" fill="#ffa561"/>
        <path id="Trazado_698651" data-name="Trazado 698651" d="M1633.023,214.583l-1.757-.764a3.352,3.352,0,0,1-1.58-4.457L1635.064,197a.405.405,0,0,1,.743.323l-5.379,12.366a2.543,2.543,0,0,0,1.16,3.391l1.757.764a2.543,2.543,0,0,0,3.272-1.463l6.126-14.085a2.543,2.543,0,0,0-1.16-3.391.4.4,0,1,1,.323-.743,3.352,3.352,0,0,1,1.58,4.457l-6.126,14.085a3.352,3.352,0,0,1-4.338,1.883" transform="translate(-1364.788 -162.6)" fill="#ffa561"/>
        <path id="Trazado_698652" data-name="Trazado 698652" d="M297.26,777.358l.523-.932a2.072,2.072,0,0,1,2.817-.792l7.822,4.389a2.072,2.072,0,0,1,.792,2.817l-.749,1.335a.4.4,0,1,1-.706-.4l.749-1.335a1.261,1.261,0,0,0-.482-1.715L300.2,776.34a1.261,1.261,0,0,0-1.715.482l-.523.932a1.261,1.261,0,0,0,.482,1.715l5.193,2.913a.405.405,0,1,1-.4.706l-5.192-2.913a2.072,2.072,0,0,1-.792-2.818" transform="translate(-248.767 -649.458)" fill="#8c9df4"/>
        <path id="Trazado_698653" data-name="Trazado 698653" d="M246.007,745.654l.937-1.671a3.352,3.352,0,0,1,4.594-1.122l11.76,6.6a.4.4,0,1,1-.4.706l-11.76-6.6a2.543,2.543,0,0,0-3.491.812l-.937,1.671a2.543,2.543,0,0,0,1.126,3.4l13.4,7.516a2.543,2.543,0,0,0,3.491-.812.4.4,0,1,1,.706.4,3.351,3.351,0,0,1-4.594,1.122l-13.4-7.516a3.351,3.351,0,0,1-1.436-4.505" transform="translate(-205.733 -621.836)" fill="#8c9df4"/>
        <path id="Trazado_698654" data-name="Trazado 698654" d="M381.643,1043.928s-4.138-.821-8.755,4.307c-3.2,3.553,1.768,5.522-3.172,10.426-5.805,5.762-4.327,13.393.528,14.162,4.23.67,11.369-5.172,14.062-5.32,5.54-.306,8.32-3.86,3.108-9.439-1.561-1.671.93-4.435.417-8.365a6.293,6.293,0,0,0-6.189-5.77" transform="translate(-306.522 -874.366)" fill="#4c62bf"/>
        <path id="Trazado_698655" data-name="Trazado 698655" d="M469.221,1161.462s10.549,4.6,12.655,4.51,15.082-3.952,15.082-3.952l-.33,2.232s-10.014,5.759-13.515,6.086c-3.447.322-15.233-3.093-16.37-3.814s-.828-4.332,2.479-5.062" transform="translate(-390.448 -972.854)" fill="#ed985f"/>
        <path id="Trazado_698656" data-name="Trazado 698656" d="M419.821,1129.9a11.156,11.156,0,0,1-3.9,1.66c-6.012,1.389-8.316-3.692-9.181-7.18a5.164,5.164,0,0,1,2.037-.626c.435-.051.892-.085,1.27-.1.675-.517,1.681-2.633,1.9-5.919l.283.076,4.738,1.3s-.217,1.506-.323,2.93a5.636,5.636,0,0,0,.116,2.439c.37.08.592.132.592.132a.011.011,0,0,0,0,0,30.486,30.486,0,0,1,2.464,5.29" transform="translate(-340.69 -936.229)" fill="#ffb27d"/>
        <path id="Trazado_698657" data-name="Trazado 698657" d="M445.3,1119.505s-.218,1.5-.323,2.93c-2.684-.269-3.93-2.824-4.415-4.226Z" transform="translate(-369.023 -936.625)" fill="#ed985f"/>
        <path id="Trazado_698658" data-name="Trazado 698658" d="M443.214,1078.471s-6.371-.351-6.091-4.316-.354-6.68,3.726-6.623,4.763,1.625,4.991,2.971-.961,7.957-2.626,7.967" transform="translate(-366.132 -894.177)" fill="#ffb27d"/>
        <path id="Trazado_698659" data-name="Trazado 698659" d="M435.539,1064.073c-.9-1.263-1.66-1.054-2.1-.726a4.46,4.46,0,0,0-5.785.5,7.592,7.592,0,0,1-2.8,4.3s1.108.8,3.832.3a4.556,4.556,0,0,0,2.273-1.339,14.886,14.886,0,0,1-2.779,2.938c3.3-1.247,4.9-5.6,5.063-6.058a5,5,0,0,1,1.255,1.949c.245,1.032,1.3,2.646,1.912,2.619a6.592,6.592,0,0,0-.87-4.486" transform="translate(-355.863 -889.964)" fill="#4c62bf"/>
        <path id="Trazado_698660" data-name="Trazado 698660" d="M377.393,1169.946c-.576-2.941-2.451-14.693-.576-18.474.674-1.359,3.318-1.481,6.218-1.362.9.583,4.342,2.785,5.755,2.51l.079-.018c.665-.167.916-.634.361-1.037a12.675,12.675,0,0,1,3.221.2,23.821,23.821,0,0,1,3.726,1.6,8.549,8.549,0,0,1-3.387,3.326c.343,3.07-.167,4.424-3.352,11.515a13.481,13.481,0,0,0,.363,11.39s-15.842,12.738-15.931,6.252c-.066-4.883,4.258-12.137,3.522-15.9" transform="translate(-313.158 -963.316)" fill="#8c9df4"/>
        <path id="Trazado_698661" data-name="Trazado 698661" d="M426.691,1237.381a2.945,2.945,0,0,0,2.119-1.29l.245-.369c1.8-2.73,2.5-11.09,6.561-20,.988-2.168,4.535-2.558,5.5-5.01,0,0,2.38-7.945-4.556-8.179s-18.576,22.106-18.759,24.449c-.178,2.27-4.586,11.916,8.888,10.4" transform="translate(-349.263 -1007.257)" fill="#e28140"/>
        <path id="Trazado_698662" data-name="Trazado 698662" d="M595.117,1389.579h-9.872a4.1,4.1,0,0,1,.279-2.646,1.9,1.9,0,0,0-.071-2.272,3.84,3.84,0,0,0,1.663.313,3.482,3.482,0,0,0,1.468-.516,35.512,35.512,0,0,0,2.813,2.955c.645.464,3.522.3,3.721,2.167" transform="translate(-490.12 -1159.638)" fill="#233862"/>
        <path id="Trazado_698663" data-name="Trazado 698663" d="M401.606,1177.646s-1.285,11.69,7.048,14.139,10.7-10.756,3.971-11.706a64.767,64.767,0,0,1-11.018-2.434" transform="translate(-336.33 -986.41)" fill="#6980e2"/>
        <path id="Trazado_698664" data-name="Trazado 698664" d="M522.924,1203.215c.594,4.456,2.916,18.522,7.011,25.385,1.32,2.213-3.326,3.453-3.351,3.446a7.911,7.911,0,0,1-2.14-1.588c-3.324-3-10.073-11.48-10.073-18.282,0-3.317-.058-9.651,2.353-11.26,1.485-.992,5.964.528,6.2,2.3" transform="translate(-430.843 -1005.639)" fill="#e28140"/>
        <path id="Trazado_698665" data-name="Trazado 698665" d="M381.973,1234.585s.366-.509,1-1.476a35,35,0,0,0,2.619-6.314c1.071-3.045,2.341-6.792,3.928-10.69.49-1.2,1.01-2.421,1.563-3.637.988-2.168,3.706-1.869,4.673-4.32,0,0,3.773-8.5-3.163-8.732s-20.116,22.731-20.873,24.956c-.829,2.435-4.875,12.546,10.248,10.213" transform="translate(-310.431 -1004.644)" fill="#ffa561"/>
        <path id="Trazado_698666" data-name="Trazado 698666" d="M550.491,1389.579h-9.872a4.1,4.1,0,0,1,.279-2.646,1.9,1.9,0,0,0-.071-2.272,3.84,3.84,0,0,0,1.663.313,3.482,3.482,0,0,0,1.468-.516,35.482,35.482,0,0,0,2.813,2.955c.645.464,3.522.3,3.72,2.167" transform="translate(-452.741 -1159.638)" fill="#2b478b"/>
        <g id="Grupo_998546" data-name="Grupo 998546" transform="translate(74.27 204.883)" opacity="0.5">
          <g id="Grupo_998545" data-name="Grupo 998545">
            <g id="Grupo_998544" data-name="Grupo 998544" clip-path="url(#clip-path-3)">
              <path id="Trazado_698667" data-name="Trazado 698667" d="M458.256,1278.956c1.071-3.045,2.341-6.792,3.928-10.69-.414-2.953-1.309-5.537-2.813-6.578,0,0-3.648,11.3-1.116,17.268" transform="translate(-457.362 -1261.688)" fill="#e28140"/>
            </g>
          </g>
        </g>
        <path id="Trazado_698668" data-name="Trazado 698668" d="M479.783,1203.81c.594,4.456,1.431,18.839,5.526,25.7,1.32,2.213-3.326,3.453-3.351,3.446a7.91,7.91,0,0,1-2.14-1.588c-3.324-3-10.073-11.48-10.073-18.282,0-3.317,3.892-9.385,6.3-10.994a2.426,2.426,0,0,1,3.734,1.717" transform="translate(-393.464 -1006.55)" fill="#ffa561"/>
        <path id="Trazado_698669" data-name="Trazado 698669" d="M470.175,1120.119a5.884,5.884,0,0,0-2.3-.1s.09.661,1.34.726a1,1,0,0,0,.957-.626" transform="translate(-391.9 -938.105)" fill="#fff"/>
        <path id="Trazado_698670" data-name="Trazado 698670" d="M630.125,1117.095l-2.047-3.693-4.428,12.355,2.612,2.8Z" transform="translate(-522.377 -932.599)" fill="#163560"/>
        <path id="Trazado_698671" data-name="Trazado 698671" d="M576.481,1138.305l-4.116,11.758,10.94-2.454,3.862-11.466Z" transform="translate(-479.42 -951.646)" fill="#1c468a"/>
        <path id="Trazado_698672" data-name="Trazado 698672" d="M603.823,1136.03l9.166-2.364.262.456Z" transform="translate(-505.77 -949.572)" fill="#fff"/>
        <path id="Trazado_698673" data-name="Trazado 698673" d="M643.143,1117.909l-1.842-3.4-1.665,4.136,3.369-.776Z" transform="translate(-535.766 -933.525)" fill="#fff"/>
        <path id="Trazado_698674" data-name="Trazado 698674" d="M428.581,1151.266c-.356-.068-1.119-.356-1.892-.569a1.584,1.584,0,0,0,.559-.625c.138-.435.23-.576-.23-.438s-2.068.875-2.068.875l0,0a4.26,4.26,0,0,0-1.755,1.558s-11.311,3.976-12.672,4.044c-2.105.106-16.117-5.054-16.117-5.054-3.307.73-2.565,4.793-1.427,5.514s11.22,4.389,17.2,4.458c3.026.035,14.035-7.041,14.035-7.041a4.683,4.683,0,0,1,2.3-.4c1.011.184,3.355,0,3.86-.827s-1.195-1.379-1.792-1.494" transform="translate(-328.361 -962.905)" fill="#ffb27d"/>
        <path id="Trazado_698675" data-name="Trazado 698675" d="M399.03,1159.544a7.7,7.7,0,0,1-5.557,4.87s-7.107-2.19-3.568-7.031c0,0,3.5-2.6,9.126,2.162" transform="translate(-325.761 -968.844)" fill="#8c9df4"/>
        <path id="Trazado_698676" data-name="Trazado 698676" d="M650.548,1151.411h0a1.088,1.088,0,0,0-.038-.323s-1.014-1.6-1.346-1.669c-1.011-.2-1.011,1.132-.8,1.991a3.488,3.488,0,0,0,.837,1.483h0l-.04,1.255a2.684,2.684,0,0,0,1.384-2.738" transform="translate(-542.984 -962.751)" fill="#ffb27d"/>
        <path id="Trazado_698677" data-name="Trazado 698677" d="M1846.489,630.658c3.589-9.145,5.749-15.816,6.15-24.427l-9.6,7.611s8.475-11.07,10.394-15.057c2.955-6.137,3.418-12.327,4.123-19.172l-8.459,9.032,6.925-10.245a12.161,12.161,0,0,0,2.08-6.288q.107-2.49.091-4.928a169.773,169.773,0,0,0-25.213,29.64l3.273,9.037-4.86-6.574a102.8,102.8,0,0,0-8.676,16.88c-.123.314-.227.615-.344.925,2.489,6.134,6.676,16.754,5.308,15.444-1.176-1.126-4.584-5.949-7.164-9.8-6.073,21.957,4.851,31.665,4.851,31.665a23.962,23.962,0,0,0,11.1-4.99c2.507-2.115,10.022-10.747,10.022-10.747h-5.9a23.536,23.536,0,0,0,5.9-8.009" transform="translate(-1523.345 -475.08)" fill="#ffa561"/>
        <path id="Trazado_698678" data-name="Trazado 698678" d="M1789.693,800.912l-6.522,10.342c.165-.645,19.481-68.5,30.468-95.338l3.8-6.34c-10.936,26.714-27.577,90.691-27.743,91.337" transform="translate(-1493.605 -594.348)" fill="#1c468a"/>
        <path id="Trazado_698679" data-name="Trazado 698679" d="M2083.182,913.784c-4.2-4.211-7.377-7.029-12.056-9.341l1.89,7.175s-4.083-7.388-5.828-9.421c-2.687-3.129-6.008-4.889-9.634-6.941l2.956,6.885-4-6.328a7.364,7.364,0,0,0-2.982-2.68q-1.355-.663-2.711-1.247a102.794,102.794,0,0,0,10.32,21.181l5.807.378-4.826,1.1a62.223,62.223,0,0,0,7.257,8.91c.145.145.286.275.429.416,4.007.109,10.914.364,9.855.8a60.727,60.727,0,0,1-7.173,1.6c10.705,8.7,18.741,5,18.741,5a14.512,14.512,0,0,0-.073-7.369c-.565-1.9-3.529-8.168-3.529-8.168L2086.192,919a14.251,14.251,0,0,0-3.01-5.22" transform="translate(-1717.787 -747.052)" fill="#f3f9ff"/>
        <path id="Trazado_698680" data-name="Trazado 698680" d="M2157.26,1001.633l4.153,6.128c-.318-.248-33.266-27.435-45.486-40.045l-2.6-3.646c12.163,12.551,43.611,37.313,43.928,37.562" transform="translate(-1770.152 -807.517)" fill="#8c9df4"/>
        <path id="Trazado_698681" data-name="Trazado 698681" d="M1725.868,1317.024h-20.743a6.16,6.16,0,0,1-6.142-6.142V1299.7a1.743,1.743,0,0,1,1.743-1.743h29.542a1.743,1.743,0,0,1,1.743,1.743v11.185a6.16,6.16,0,0,1-6.142,6.142" transform="translate(-1423.089 -1087.182)" fill="#6980e2"/>
        <path id="Trazado_698682" data-name="Trazado 698682" d="M1744.713,1363.168v1.319a5.02,5.02,0,0,1-5.005,5h-16.9a5.021,5.021,0,0,1-5.006-5v-1.468a59.835,59.835,0,0,1,13.242.1,69.721,69.721,0,0,0,13.674.053" transform="translate(-1438.847 -1141.414)" fill="#233862"/>
        <rect id="Rectángulo_344752" data-name="Rectángulo 344752" width="17.61" height="3.27" transform="translate(283.698 208.176)" fill="#6980e2"/>
        <path id="Trazado_698683" data-name="Trazado 698683" d="M1753.749,1273.718H1733.8a.8.8,0,1,1,0-1.6h19.948a.8.8,0,0,1,0,1.6" transform="translate(-1451.582 -1065.542)" fill="#6980e2"/>
        <path id="Trazado_698684" data-name="Trazado 698684" d="M1016.341,583.752c.25-.122-.258-.953-.82-1.888-.027-.045-.054-.091-.082-.136-.075-.124-.149-.251-.224-.375-.659-1.125-.49-1.653-.333-3.327.127-1.36,2.116-7.6,2.116-7.6l-2.888-.5s-.87,4.969-1.828,5.734c-.513.408-1.086.413-1.579.715l-.1.065a8.96,8.96,0,0,0,1.827,3.153,23.159,23.159,0,0,0,3.912,4.157" transform="translate(-846.481 -477.378)" fill="#ffb27d"/>
        <path id="Trazado_698685" data-name="Trazado 698685" d="M1004.75,610.343a.8.8,0,0,0-.142.852.006.006,0,0,0,0,0,6.128,6.128,0,0,0,1.676,1.83c.1.083.187.159.266.23l.06.054.046.042c.736.678.459.834,1.78,2.209,1.507,1.568,2.545,1.6,2.84,1.453.25-.122-.258-.953-.82-1.888a6.421,6.421,0,0,1-2.686-1.979c-.907-1.158-1.513-2.646-2.131-3.508-.035.021-.069.043-.1.065a3.8,3.8,0,0,0-.79.635" transform="translate(-841.419 -510.644)" fill="#233862"/>
        <path id="Trazado_698686" data-name="Trazado 698686" d="M1145.956,569.7c.055-.266-.943-.361-2.014-.484-.135-.015-.27-.032-.405-.049a8.745,8.745,0,0,1-3.193-1.572,12.829,12.829,0,0,1-2.593-3.08l-2.771.22s1.454,2.208,2.016,3.169a3.35,3.35,0,0,1,.272,1.888,8,8,0,0,0,3.379.519,19.462,19.462,0,0,0,5.307-.612" transform="translate(-950.674 -472.845)" fill="#ffb27d"/>
        <path id="Trazado_698687" data-name="Trazado 698687" d="M1151.854,595.382c1.42-.347,1.082.065,3.1-.158s2.633-.977,2.694-1.277c.055-.266-.943-.361-2.014-.484l-.01.021a5.7,5.7,0,0,1-2.893.9c-1.371.033-2.823-.359-3.769-.344a3.541,3.541,0,0,0,.021.948c.178.892,1.449.743,2.869.4" transform="translate(-962.369 -497.092)" fill="#233862"/>
        <path id="Trazado_698688" data-name="Trazado 698688" d="M1034.784,470.831l-2.59,6.97-3.381,9.1a5.475,5.475,0,0,1-1.8-.164,7.784,7.784,0,0,1-1.737-.846s.939-9.772,2.691-15.381a10,10,0,0,1,1.507-3.26c2.715-3.209,5.308,3.58,5.308,3.58" transform="translate(-858.785 -390.653)" fill="#233862"/>
        <path id="Trazado_698689" data-name="Trazado 698689" d="M938.369,418.4c-1.7-.547-6.537.156-11.4,1.107l-1.018-1.679-10.5-.82s-3.465,7.685-1.568,12.581a1.775,1.775,0,0,0,1.777,1.2h.154l8.28,0c5.222,0,11.052-3.59,11.807-3.741,1.234-.247,1.728,2.222,2.963,4.814s11.6,11.48,11.6,11.48a9.129,9.129,0,0,0,2.252-.231,2.216,2.216,0,0,0,.967-.61s-11.49-22.86-15.317-24.095" transform="translate(-765.003 -349.289)" fill="#2b478b"/>
        <path id="Trazado_698690" data-name="Trazado 698690" d="M896.776,229.206a11.073,11.073,0,0,0-3.725-.847c-3.979-.535-6.374,5.248-6.515,7-.26,3.229-1.968,3.722-4.373,5.744-4.822,4.055-3.408,8.768-.771,10.519,1.582,1.05,4.37,0,4.37,0,.039.028,7.626-4.241,11.365-6.3,5.606-.8,3.076-14.316-.351-16.116" transform="translate(-736.241 -191.247)" fill="#233862"/>
        <path id="Trazado_698691" data-name="Trazado 698691" d="M945.063,291.876a4.942,4.942,0,0,1-3.081.095,5.5,5.5,0,0,1-2.035-2.438c.531-.025,1.114-.489,1.563-3.536l.226.081,3.8,1.369s-.276,1.22-.454,2.382c-.15.975-.231,1.91-.023,2.048" transform="translate(-787.31 -239.553)" fill="#ffb27d"/>
        <path id="Trazado_698692" data-name="Trazado 698692" d="M954.773,287.864a7.48,7.48,0,0,1-.331,1.65,4.136,4.136,0,0,1-3.472-3.018Z" transform="translate(-796.544 -239.971)" fill="#ed975d"/>
        <path id="Trazado_698693" data-name="Trazado 698693" d="M953.374,255.169s-5.2-.7-4.719-3.932.14-5.5,3.483-5.193,3.8,1.64,3.9,2.758-1.3,6.465-2.666,6.366" transform="translate(-794.578 -206.066)" fill="#ffb27d"/>
        <path id="Trazado_698694" data-name="Trazado 698694" d="M948.15,245.556s-3.331,2.871-5.6,3.1-3.124-.5-3.124-.5a8.846,8.846,0,0,0,2.139-2.9,1.592,1.592,0,0,1,1.313-.939c1.618-.14,4.685-.2,5.268,1.231" transform="translate(-786.877 -204.591)" fill="#233862"/>
        <path id="Trazado_698695" data-name="Trazado 698695" d="M980.308,247.466a8.2,8.2,0,0,1,1.465,1.877,6.3,6.3,0,0,1,.171,3.348s1.736-3.376.753-5.016a1.387,1.387,0,0,0-2.389-.209" transform="translate(-821.118 -206.759)" fill="#233862"/>
        <path id="Trazado_698696" data-name="Trazado 698696" d="M926.411,317.15c-.157,10.533-.043,8.332-1.2,9.332a4.425,4.425,0,0,1-2.086.452c-3.23.214-8.908-.318-9.123-.915-.745-2.065-.219-2.707-.841-5.869-.065-.336-.145-.7-.239-1.1-.518-2.172-1.023-2.911.816-6.4,1.668-3.161,3.4-5.726,3.555-5.633,4.4,2.611,4.754.416,4.754.416s4.436,4.575,4.359,9.713" transform="translate(-764.276 -257.162)" fill="#8c9df4"/>
        <path id="Trazado_698697" data-name="Trazado 698697" d="M1032.193,499.06l-3.381,9.1a5.475,5.475,0,0,1-1.8-.164,7.784,7.784,0,0,1-1.737-.846s.939-9.772,2.691-15.381Z" transform="translate(-858.785 -411.912)" fill="#2b478b"/>
        <path id="Trazado_698698" data-name="Trazado 698698" d="M971.6,309.593s4.526.768,5.058,2.716,3.66,13.406,3.66,13.406-2.3.413-3.364-.65-3.7-9.862-3.7-9.862Z" transform="translate(-813.82 -259.319)" fill="#8c9df4"/>
        <path id="Trazado_698699" data-name="Trazado 698699" d="M996.647,370.669a42.678,42.678,0,0,0-.608-4.393,42.167,42.167,0,0,0-.466,4.393Z" transform="translate(-833.904 -306.797)" fill="#6980e2"/>
        <path id="Trazado_698700" data-name="Trazado 698700" d="M926.838,372.04c-3.23.214-8.908-.318-9.124-.915-.745-2.065-.219-2.707-.841-5.869l1.558-4.387s-.257,4.885,1.183,6.17,5.9,2.48,6.6,3.554a3.93,3.93,0,0,1,.625,1.447" transform="translate(-767.985 -302.269)" fill="#6980e2"/>
        <path id="Trazado_698701" data-name="Trazado 698701" d="M961.339,381.076l-.958,9.581,7.916,1.063,5.053-2.856,1.469-8.66-4.944,2.716Z" transform="translate(-804.427 -318.463)" fill="#ffa561"/>
        <path id="Trazado_698702" data-name="Trazado 698702" d="M1010.705,382.919l-1.578,8.8,5.053-2.856,1.469-8.66Z" transform="translate(-845.257 -318.463)" fill="#ed8d4c"/>
        <path id="Trazado_698703" data-name="Trazado 698703" d="M950.866,416.843a12.3,12.3,0,0,1,2.827.424c.449.289,1.575.9,1.249,1.066s-1.02-.421-1.032-.186,1.442,1.128,2.005,1.288-1.218.709-2.1.241c-.822-.435-1.056-.994-1.393-1.21a6.022,6.022,0,0,0-1.554-.351Z" transform="translate(-796.457 -349.152)" fill="#ffb27d"/>
        <path id="Trazado_698704" data-name="Trazado 698704" d="M889.061,307.019s-4.278.263-5.76,2.329c-2.085,2.908-6.221,15.3-3.851,16.954,2.67,1.861,12.149.487,12.149.487a3.85,3.85,0,0,0-.123-2.188c-.439-.713-7.572-1.866-7.9-2.195s4.115-6.42,4.115-7.407,1.37-7.981,1.37-7.981" transform="translate(-736.042 -257.163)" fill="#8c9df4"/>
        <path id="Trazado_698705" data-name="Trazado 698705" d="M969.528,380.855l.336-.813a10.181,10.181,0,0,0,3.324.6c1.487-.076,3.887.539,4.118,1.243a2.847,2.847,0,0,1,1.632-1.114,27.009,27.009,0,0,0,2.849-.963l.473.186-4.723,2.595Z" transform="translate(-812.088 -318.128)" fill="#fff"/>
        <path id="Trazado_698706" data-name="Trazado 698706" d="M409.651,1413.75H.465a.466.466,0,0,1-.465-.464v-.159a.466.466,0,0,1,.465-.465H409.651a.466.466,0,0,1,.465.465v.159a.466.466,0,0,1-.465.464" transform="translate(0 -1183.262)" fill="#233862"/>
      </g>
    </g>
  </g>
</svg>
