<?xml version="1.0" encoding="utf-8"?>
<!-- Generator: Adobe Illustrator 27.4.0, SVG Export Plug-In . SVG Version: 6.00 Build 0)  -->
<svg version="1.1" id="Capa_1" xmlns="http://www.w3.org/2000/svg" xmlns:xlink="http://www.w3.org/1999/xlink" x="0px" y="0px"
	 viewBox="0 0 61.53 61.53" style="enable-background:new 0 0 61.53 61.53;" xml:space="preserve">
<style type="text/css">
	.st0{fill:#4EAFEE;}
	.st1{fill:#F3D8BE;}
	.st2{fill:none;}
</style>
<g>
	<g>
		<circle class="st0" cx="33.56" cy="33.62" r="23.73"/>
		<g>
			<g>
				<path d="M46.77,46.34c0.09,0.28-0.16,0.46-0.39,0.44c0.01,0.16-0.04,0.32-0.23,0.39c-4.77,1.75-10.03,1.96-14.8,0.09
					c-0.06-0.03-0.1-0.07-0.12-0.12c-0.08-0.06-0.12-0.16-0.09-0.28c0.5-1.99,2.02-5.84,1.45-7.84c-0.51-1.77-2.89-2.61-4.2-3.75
					c-2.45-2.14-4.12-4.98-5.82-7.71c-2.5-4.01-5.25-7.52-9.31-10.05c-2.53-1.58-5.82-2.22-7.87-4.46
					c-0.14-0.14-0.08-0.32,0.04-0.41c-1.26-1.24,1.42-2.4,2.63-2.44c4.46-0.14,8.29,2.58,11.55,5.35c-0.65-3.37,0.46-7.45,4.69-6.28
					C24.1,7.9,25,6.71,26.32,6.35c0.63-0.17,1.27-0.14,1.87,0.01C28.36,4.93,29.58,4.2,31,4.18c1.99-0.02,3.68,1.27,5.17,2.44
					c0.53-0.14,1.09-0.15,1.69,0.08c0.13,0.05,0.17,0.17,0.15,0.28c2.63,1.62,5.44,4.29,7.1,6.73c1.37,1.99,1.22,4.55,1.38,6.89
					c0.29,4.16-0.83,7.69-1.23,11.8C44.81,37.12,45.4,41.81,46.77,46.34z M45.97,46.49c0.04-0.01,0.07-0.01,0.1-0.01
					c-1.81-6.13-2.04-12.3-0.74-18.57c0.69-3.33,1.04-7.84,0.14-11.23c-0.96-3.54-4.92-7.31-7.92-9.57
					c-1.35-0.23-2.52,0.68-3.76,1.15c0,0.01,0.01,0.03,0,0.05c-0.11,0.83,0.85,1.57,0.27,2.4c-0.35,0.51-1.04,0.65-1.61,0.69
					c-0.76,0.04-1.93,0.01-2.55-0.51c-0.63-0.52-0.47-1.4-0.22-2.07c0.01-0.02,0.02-0.03,0.04-0.04c-0.18,0.06-0.35,0.13-0.53,0.23
					c-0.81,1.17,0.74,2.84,1.62,3.37c0.57,0.35,1.22,0.49,1.86,0.64c1.41,0.34,2.76,0.54,4.1-0.1c0.14-0.07,0.25,0.06,0.22,0.17
					c0.04,0.02,0.08,0.06,0.1,0.12c0.73,2.12,2.51,3.15,4.51,3.92c0.37,0.14,0.21,0.72-0.16,0.58c-0.64-0.23-1.31-0.51-1.94-0.86
					c0.44,0.76,0.63,1.55,0.3,2.38c-0.73,1.83-2.72,1.3-4.12,0.5c0.26,0.54-0.07,1.28-0.5,1.65c-0.41,0.35-0.92,0.48-1.45,0.48
					c-0.03,0.05-0.07,0.09-0.14,0.09c-4.41-0.3-8.38-4.92-11.21-7.89c-0.14-0.15,0.07-0.36,0.22-0.23
					c2.94,2.56,6.23,6.41,10.13,7.53c-1.12-0.58-2.55-1.85-2.06-3.11c0.35-0.91,1.72-1.53,2.66-1.14c-1.3-1.51-2.87-2.86-4.3-4.1
					c-1.3-1.14-2.84-2.79-4.57-3.19c-5.56-1.3-4.69,3.93-4.35,6.46c0.02,0.15-0.15,0.19-0.26,0.13c-0.12,0.05-0.24,0.05-0.37-0.05
					c-1.73-1.45-3.48-2.92-5.48-3.98c-0.86-0.45-9.36-3.27-8.06,0.43c2.81,2.55,7.07,3.46,10.1,5.9c3.33,2.68,5.49,6.09,7.74,9.67
					c1.36,2.15,2.76,4.33,4.63,6.07c1.21,1.12,3.84,1.96,4.68,3.48c1.09,1.99-0.65,6.91-1.35,8.95
					C36.58,48.15,41.2,48.2,45.97,46.49z M37.52,20.02c1.53,0.04,2.16-1.37,1.6-2.62c-0.3-0.67-0.83-1.3-1.42-1.88
					c-0.65-0.64-1.37-1.23-1.94-1.78c-0.01-0.01-0.01-0.01-0.01-0.02c-1.68,0.47-3.86-0.04-5.21-0.88c-1.22-0.76-3.06-2.97-1.46-4.2
					c0.07-0.06,0.15-0.04,0.21,0c0.29-0.23,0.63-0.37,0.98-0.45c-0.81-0.67-1.61-1.26-2.71-1.36c-1.6-0.15-2.87,0.83-2.85,2.48
					c0,0.02-0.01,0.04-0.02,0.06c2.22,0.75,4.22,2.73,5.9,4.27c1.78,1.63,3.84,3.35,4.84,5.61c0.5,0.29,1.03,0.57,1.58,0.69
					c-1.21-0.48-2.51-1.95-2.27-3.25c0.24-1.38,1.77-1.92,2.9-1.19c0.02,0.01,0.04,0.02,0.04,0.04c0.15,0.16-0.04,0.45-0.25,0.32
					c-1.23-0.73-2.64,0.35-2.14,1.71c0.33,0.89,1.21,1.85,2.1,2.2c0.11,0.04,0.11,0.17,0.05,0.23
					C37.46,20.01,37.49,20.02,37.52,20.02z M36.86,14.02c-0.08-0.22-0.14-0.44-0.19-0.68c-0.12,0.07-0.24,0.12-0.37,0.17
					C36.47,13.67,36.66,13.85,36.86,14.02z M35.21,19.81c-0.03-0.02-0.06-0.04-0.07-0.08c-0.37-0.75-0.85-1.45-1.38-2.12
					c-0.04,0.02-0.09,0.04-0.13,0c-1-0.75-2.87,0.2-2.5,1.51c0.27,0.94,1.42,1.67,2.17,2.2c0.06,0.04,0.06,0.12,0.04,0.17
					c0.02,0.01,0.04,0.01,0.06,0.02c0.5-0.01,1.02-0.12,1.4-0.45C35.19,20.7,35.21,20.3,35.21,19.81z M32.99,10.91
					c1-0.3,0.72-1.05,0.45-1.78c-0.1-0.27-0.15-0.47-0.14-0.72c-0.06,0.01-0.12,0.04-0.19,0.05c-1.07,0.24-2.25-0.01-3.28,0.29
					c0.04,0.01,0.08,0.06,0.07,0.13c-0.09,0.57-0.31,1.35,0.3,1.79c0.23,0.16,0.59,0.21,0.86,0.25
					C31.68,11.03,32.38,11.09,32.99,10.91z M33.21,7.84c0.78-0.22,1.5-0.66,2.23-0.97c-0.78-0.61-1.57-1.2-2.47-1.61
					c-1.33-0.6-3.99-1.01-4.32,1.26c0.86,0.32,1.64,0.89,2.24,1.55c0.01,0.01,0.01,0.01,0.01,0.02C31.68,8.02,32.49,8.05,33.21,7.84
					z"/>
				<path class="st1" d="M46.07,46.48c-0.03,0.01-0.06,0.01-0.1,0.01c-4.76,1.71-9.38,1.66-14.22,0.37c0.7-2.04,2.44-6.96,1.35-8.95
					c-0.83-1.52-3.47-2.36-4.68-3.48c-1.88-1.75-3.27-3.92-4.63-6.07c-2.25-3.58-4.4-6.99-7.74-9.67c-3.04-2.44-7.29-3.35-10.1-5.9
					c-1.3-3.71,7.2-0.88,8.06-0.43c2.01,1.06,3.76,2.53,5.48,3.98c0.12,0.1,0.25,0.1,0.37,0.05c0.11,0.06,0.28,0.02,0.26-0.13
					c-0.33-2.53-1.2-7.77,4.35-6.46c1.73,0.4,3.27,2.04,4.57,3.19c1.43,1.25,3,2.59,4.3,4.1c-0.94-0.39-2.3,0.23-2.66,1.14
					c-0.49,1.26,0.94,2.53,2.06,3.11c-3.9-1.12-7.19-4.97-10.13-7.53c-0.15-0.13-0.37,0.08-0.22,0.23c2.83,2.97,6.8,7.59,11.21,7.89
					c0.06,0,0.11-0.04,0.14-0.09c0.53,0,1.04-0.12,1.45-0.48c0.42-0.37,0.76-1.11,0.5-1.65c1.4,0.8,3.38,1.32,4.12-0.5
					c0.33-0.82,0.14-1.62-0.3-2.38c0.63,0.35,1.3,0.63,1.94,0.86c0.37,0.14,0.53-0.45,0.16-0.58c-2-0.76-3.78-1.79-4.51-3.92
					c-0.02-0.06-0.06-0.1-0.1-0.12c0.04-0.12-0.07-0.24-0.22-0.17c-1.35,0.64-2.69,0.44-4.1,0.1c-0.64-0.15-1.29-0.3-1.86-0.64
					c-0.88-0.53-2.43-2.19-1.62-3.37c0.17-0.1,0.35-0.17,0.53-0.23c-0.01,0.01-0.03,0.02-0.04,0.04c-0.25,0.67-0.41,1.55,0.22,2.07
					c0.62,0.52,1.78,0.55,2.55,0.51c0.58-0.04,1.27-0.18,1.61-0.69c0.58-0.83-0.38-1.57-0.27-2.4c0.01-0.02,0-0.04,0-0.05
					c1.24-0.47,2.42-1.38,3.76-1.15c3,2.26,6.97,6.03,7.92,9.57c0.91,3.4,0.55,7.9-0.14,11.23C44.02,34.18,44.25,40.35,46.07,46.48z
					"/>
				<path class="st1" d="M39.12,17.4c0.56,1.25-0.06,2.66-1.6,2.62c-0.04,0-0.06-0.01-0.09-0.01c0.06-0.06,0.06-0.19-0.05-0.23
					c-0.89-0.35-1.77-1.31-2.1-2.2c-0.5-1.36,0.91-2.43,2.14-1.71c0.22,0.12,0.4-0.17,0.25-0.32l0.03-0.02
					C38.29,16.11,38.82,16.73,39.12,17.4z"/>
				<path class="st1" d="M37.7,15.52l-0.03,0.02c-0.01-0.01-0.02-0.03-0.04-0.04c-1.13-0.73-2.66-0.19-2.9,1.19
					c-0.24,1.3,1.07,2.78,2.27,3.25c-0.55-0.12-1.09-0.4-1.58-0.69c-0.99-2.25-3.05-3.98-4.84-5.61c-1.68-1.54-3.68-3.53-5.9-4.27
					c0.01-0.02,0.02-0.04,0.02-0.06c-0.02-1.65,1.25-2.63,2.85-2.48c1.09,0.1,1.9,0.69,2.71,1.36c-0.35,0.08-0.69,0.22-0.98,0.45
					c-0.06-0.04-0.14-0.06-0.21,0c-1.6,1.23,0.24,3.44,1.46,4.2c1.35,0.83,3.53,1.35,5.21,0.88c0.01,0.01,0.01,0.01,0.01,0.02
					C36.34,14.29,37.06,14.88,37.7,15.52z"/>
				<path class="st1" d="M36.68,13.34c0.04,0.24,0.11,0.46,0.19,0.68c-0.2-0.17-0.39-0.35-0.56-0.5
					C36.43,13.46,36.56,13.41,36.68,13.34z"/>
				<path class="st1" d="M35.14,19.73c0.01,0.04,0.04,0.06,0.07,0.08c0,0.49-0.02,0.89-0.42,1.25c-0.37,0.34-0.9,0.44-1.4,0.45
					c-0.02-0.01-0.04-0.01-0.06-0.02c0.02-0.05,0.01-0.13-0.04-0.17c-0.75-0.53-1.9-1.26-2.17-2.2c-0.37-1.31,1.5-2.26,2.5-1.51
					c0.04,0.04,0.09,0.02,0.13,0C34.29,18.28,34.77,18.99,35.14,19.73z"/>
				<path class="st1" d="M33.44,9.13c0.27,0.73,0.55,1.48-0.45,1.78c-0.61,0.18-1.31,0.12-1.94,0.01c-0.27-0.04-0.63-0.09-0.86-0.25
					c-0.61-0.44-0.39-1.22-0.3-1.79c0.01-0.06-0.03-0.12-0.07-0.13c1.04-0.3,2.21-0.05,3.28-0.29c0.06-0.01,0.12-0.04,0.19-0.05
					C33.29,8.66,33.34,8.87,33.44,9.13z"/>
				<path class="st1" d="M35.44,6.87c-0.73,0.31-1.45,0.75-2.23,0.97c-0.72,0.21-1.53,0.17-2.3,0.24C30.9,8.08,30.9,8.07,30.9,8.07
					c-0.6-0.66-1.38-1.23-2.24-1.55c0.32-2.27,2.99-1.86,4.32-1.26C33.88,5.67,34.67,6.26,35.44,6.87z"/>
			</g>
			<path d="M21.33,38c-0.01-0.46-0.47-0.68-0.87-0.5c-0.84,0.4-1.68,0.81-2.52,1.21c-0.64,0.31-0.15,1.14,0.44,1.05
				c0.35-0.05,0.58-0.08,0.76-0.11c-0.84,1.8-1.78,3.59-3.17,5c-2.79,2.84-8.25,4.08-10.02-0.99c-1.79-5.13,1.63-12.48,4.01-16.85
				c0.26-0.48-0.43-0.87-0.73-0.42c-3.04,4.55-8.09,16.21-2.45,20.7c5.72,4.55,10.96-2.32,13.43-7.11c0.02,0.71,0.03,1.41,0.05,2.12
				c0.02,0.74,1.17,0.74,1.15,0C21.39,40.72,21.36,39.36,21.33,38z"/>
		</g>
	</g>
	<rect class="st2" width="61.53" height="61.53"/>
</g>
</svg>
