<svg xmlns="http://www.w3.org/2000/svg" xmlns:xlink="http://www.w3.org/1999/xlink" width="270.827" height="170.207" viewBox="0 0 270.827 170.207">
  <defs>
    <clipPath id="clip-path">
      <rect id="Rectángulo_344899" data-name="Rectángulo 344899" width="161.42" height="170.207" fill="none"/>
    </clipPath>
    <clipPath id="clip-path-4">
      <rect id="Rectángulo_344884" data-name="Rectángulo 344884" width="5.558" height="11.877" fill="none"/>
    </clipPath>
    <clipPath id="clip-path-5">
      <rect id="Rectángulo_344885" data-name="Rectángulo 344885" width="36.263" height="41.221" fill="none"/>
    </clipPath>
    <clipPath id="clip-path-6">
      <rect id="Rectángulo_344886" data-name="Rectángulo 344886" width="39.117" height="18.97" fill="none"/>
    </clipPath>
    <clipPath id="clip-path-7">
      <rect id="Rectángulo_344887" data-name="Rectángulo 344887" width="10.957" height="11.289" fill="none"/>
    </clipPath>
    <clipPath id="clip-path-8">
      <rect id="Rectángulo_344888" data-name="Rectángulo 344888" width="9.952" height="2.383" fill="none"/>
    </clipPath>
    <clipPath id="clip-path-9">
      <rect id="Rectángulo_344889" data-name="Rectángulo 344889" width="28.481" height="7.761" fill="none"/>
    </clipPath>
    <clipPath id="clip-path-10">
      <rect id="Rectángulo_344890" data-name="Rectángulo 344890" width="4.112" height="8.77" fill="none"/>
    </clipPath>
    <clipPath id="clip-path-11">
      <rect id="Rectángulo_344891" data-name="Rectángulo 344891" width="9.333" height="30.996" fill="none"/>
    </clipPath>
    <clipPath id="clip-path-12">
      <rect id="Rectángulo_344892" data-name="Rectángulo 344892" width="10.507" height="57.575" fill="none"/>
    </clipPath>
    <clipPath id="clip-path-13">
      <rect id="Rectángulo_344893" data-name="Rectángulo 344893" width="6.825" height="28.196" fill="none"/>
    </clipPath>
    <clipPath id="clip-path-14">
      <rect id="Rectángulo_344894" data-name="Rectángulo 344894" width="8.888" height="8.635" fill="none"/>
    </clipPath>
    <clipPath id="clip-path-15">
      <rect id="Rectángulo_344895" data-name="Rectángulo 344895" width="25.786" height="12.412" fill="none"/>
    </clipPath>
  </defs>
  <g id="Grupo_998627" data-name="Grupo 998627" transform="translate(-308.021 -7193.894)">
    <path id="Sustracción_7" data-name="Sustracción 7" d="M3859.712,11820H3589.289c-.134-2.492-.2-5.019-.2-7.51a138.53,138.53,0,0,1,2.751-27.508,136.652,136.652,0,0,1,56.951-85.672,134.415,134.415,0,0,1,151.421,0,136.537,136.537,0,0,1,56.951,85.672,138.53,138.53,0,0,1,2.751,27.508c0,2.5-.068,5.021-.2,7.509Z" transform="translate(-3281.066 -4467.002)" fill="#fff"/>
    <g id="Grupo_998774" data-name="Grupo 998774" transform="translate(361 7193.894)">
      <g id="Grupo_998773" data-name="Grupo 998773" clip-path="url(#clip-path)">
        <rect id="Rectángulo_344864" data-name="Rectángulo 344864" width="15.015" height="7.202" transform="translate(129.732 162.795)" fill="#fff"/>
        <rect id="Rectángulo_344865" data-name="Rectángulo 344865" width="18.928" height="7.202" transform="translate(110.804 162.795)" fill="#f0f2f5"/>
        <rect id="Rectángulo_344866" data-name="Rectángulo 344866" width="15.498" height="0.592" transform="translate(129.732 162.795)" fill="#f0f2f5"/>
        <rect id="Rectángulo_344867" data-name="Rectángulo 344867" width="6.95" height="0.148" transform="translate(138.028 164.717)" fill="#f0f2f5"/>
        <rect id="Rectángulo_344868" data-name="Rectángulo 344868" width="15.498" height="0.592" transform="translate(129.732 169.406)" fill="#f0f2f5"/>
        <rect id="Rectángulo_344869" data-name="Rectángulo 344869" width="1.396" height="7.202" transform="translate(112.711 162.795)" fill="#fff"/>
        <rect id="Rectángulo_344870" data-name="Rectángulo 344870" width="0.349" height="7.202" transform="translate(127.191 162.795)" fill="#fff"/>
        <rect id="Rectángulo_344871" data-name="Rectángulo 344871" width="0.349" height="7.202" transform="translate(126.019 162.795)" fill="#fff"/>
        <path id="Trazado_701962" data-name="Trazado 701962" d="M1679.959,1954.84h-1.567l-1.457-2.627h1.567Z" transform="translate(-1535.317 -1787.348)" fill="#f0f2f5"/>
        <path id="Trazado_701963" data-name="Trazado 701963" d="M1370.672,1957.605v2.151h-.559v-.9h-.167v.9h-.56v-2.151h.56v.769h.167v-.769Z" transform="translate(-1253.741 -1792.285)" fill="#fff"/>
        <rect id="Rectángulo_344872" data-name="Rectángulo 344872" width="0.559" height="2.152" transform="translate(117.156 165.32)" fill="#fff"/>
        <g id="Grupo_998732" data-name="Grupo 998732">
          <g id="Grupo_998731" data-name="Grupo 998731" clip-path="url(#clip-path)">
            <path id="Trazado_701964" data-name="Trazado 701964" d="M1397.245,1957.766h-.52v-.159a.313.313,0,0,0-.02-.142.073.073,0,0,0-.066-.031.084.084,0,0,0-.076.041.238.238,0,0,0-.026.125.355.355,0,0,0,.029.162.423.423,0,0,0,.158.131,1.594,1.594,0,0,1,.471.364.835.835,0,0,1,.1.458.8.8,0,0,1-.054.339.421.421,0,0,1-.208.183.824.824,0,0,1-.359.074.8.8,0,0,1-.383-.085.418.418,0,0,1-.208-.217,1.113,1.113,0,0,1-.049-.374v-.141h.52v.262a.345.345,0,0,0,.022.156.085.085,0,0,0,.078.035.091.091,0,0,0,.083-.044.251.251,0,0,0,.027-.13.4.4,0,0,0-.052-.249,1.666,1.666,0,0,0-.262-.2,2.553,2.553,0,0,1-.276-.2.47.47,0,0,1-.112-.173.76.76,0,0,1-.044-.282.784.784,0,0,1,.063-.362.426.426,0,0,1,.2-.179.813.813,0,0,1,.34-.064.886.886,0,0,1,.372.071.389.389,0,0,1,.2.177.938.938,0,0,1,.05.364Z" transform="translate(-1278.119 -1791.795)" fill="#fff"/>
            <path id="Trazado_701965" data-name="Trazado 701965" d="M1413.317,1957.605v.431h-.332v1.721h-.56v-1.721h-.331v-.431Z" transform="translate(-1292.843 -1792.285)" fill="#fff"/>
            <path id="Trazado_701966" data-name="Trazado 701966" d="M1429.189,1958.375q0,.324-.015.459a.513.513,0,0,1-.313.418.792.792,0,0,1-.319.06.808.808,0,0,1-.31-.057.517.517,0,0,1-.321-.415,4.551,4.551,0,0,1-.016-.465v-.368q0-.324.015-.459a.513.513,0,0,1,.313-.418.79.79,0,0,1,.319-.06.812.812,0,0,1,.31.057.518.518,0,0,1,.321.415,4.538,4.538,0,0,1,.016.465Zm-.56-.707a.665.665,0,0,0-.017-.192.066.066,0,0,0-.068-.042.076.076,0,0,0-.067.034.478.478,0,0,0-.023.2v1a.993.993,0,0,0,.015.231.067.067,0,0,0,.071.044.069.069,0,0,0,.073-.05,1.059,1.059,0,0,0,.016-.241Z" transform="translate(-1307.309 -1791.795)" fill="#fff"/>
            <path id="Trazado_701967" data-name="Trazado 701967" d="M1445.692,1957.6h.4a3.029,3.029,0,0,1,.536.031.369.369,0,0,1,.229.156.709.709,0,0,1,.088.4.627.627,0,0,1-.062.338.328.328,0,0,1-.246.1.421.421,0,0,1,.223.11.332.332,0,0,1,.071.127,2.011,2.011,0,0,1,.014.318v.567h-.52v-.715a.492.492,0,0,0-.027-.214q-.027-.041-.143-.041v.97h-.56Zm.56.368v.478a.246.246,0,0,0,.132-.026q.038-.026.038-.168v-.118a.18.18,0,0,0-.036-.134.208.208,0,0,0-.134-.032" transform="translate(-1323.603 -1792.285)" fill="#fff"/>
            <path id="Trazado_701968" data-name="Trazado 701968" d="M1462.86,1957.6l-.408,1.373v.779h-.518v-.779l-.393-1.373h.514q.12.63.136.848.047-.344.156-.848Z" transform="translate(-1338.113 -1792.285)" fill="#fff"/>
            <rect id="Rectángulo_344873" data-name="Rectángulo 344873" width="12.89" height="6.183" transform="translate(131.205 151.549)" fill="#fff"/>
            <rect id="Rectángulo_344874" data-name="Rectángulo 344874" width="16.25" height="6.183" transform="translate(114.955 151.549)" fill="#f0f2f5"/>
            <rect id="Rectángulo_344875" data-name="Rectángulo 344875" width="13.305" height="0.508" transform="translate(131.205 151.549)" fill="#f0f2f5"/>
            <rect id="Rectángulo_344876" data-name="Rectángulo 344876" width="5.967" height="0.127" transform="translate(138.326 153.2)" fill="#f0f2f5"/>
            <rect id="Rectángulo_344877" data-name="Rectángulo 344877" width="13.305" height="0.508" transform="translate(131.205 157.225)" fill="#f0f2f5"/>
            <rect id="Rectángulo_344878" data-name="Rectángulo 344878" width="1.198" height="4.406" transform="translate(116.592 152.438)" fill="#fff"/>
            <rect id="Rectángulo_344879" data-name="Rectángulo 344879" width="8.03" height="4.406" transform="translate(120.627 152.438)" fill="#fff"/>
            <path id="Trazado_701969" data-name="Trazado 701969" d="M1677.053,1817.839h-1.346l-1.251-2.255h1.346Z" transform="translate(-1533.048 -1662.257)" fill="#f0f2f5"/>
            <path id="Trazado_701970" data-name="Trazado 701970" d="M1410.683,1872.821h-20.9a2.507,2.507,0,0,1-2.507-2.507v-.048a2.507,2.507,0,0,1,2.507-2.507h20.9Z" transform="translate(-1270.122 -1710.026)" fill="#f0f2f5"/>
            <path id="Trazado_701971" data-name="Trazado 701971" d="M1555.361,1876.913h-8.438a2.115,2.115,0,1,1,0-4.23h8.438Z" transform="translate(-1414.348 -1714.534)" fill="#fff"/>
            <rect id="Rectángulo_344880" data-name="Rectángulo 344880" width="10.893" height="0.416" transform="translate(130.46 157.733)" fill="#f0f2f5"/>
            <rect id="Rectángulo_344881" data-name="Rectángulo 344881" width="4.885" height="0.104" transform="translate(136.29 159.084)" fill="#f0f2f5"/>
            <rect id="Rectángulo_344882" data-name="Rectángulo 344882" width="10.893" height="0.416" transform="translate(130.46 162.379)" fill="#f0f2f5"/>
            <path id="Trazado_701972" data-name="Trazado 701972" d="M1409.167,1881.113h-9.006a1.689,1.689,0,0,1,0-3.377h9.005a2.133,2.133,0,0,0-.221.193,2.115,2.115,0,0,0,.222,3.184" transform="translate(-1280.371 -1719.161)" fill="#fff"/>
            <path id="Trazado_701973" data-name="Trazado 701973" d="M1500.222,1878.613a.112.112,0,0,1-.068-.023,2.4,2.4,0,0,1-.252-3.621,2.453,2.453,0,0,1,.251-.219.112.112,0,0,1,.136.179,2.21,2.21,0,0,0-.228.2,2.18,2.18,0,0,0,.229,3.282.112.112,0,0,1-.068.2" transform="translate(-1372.589 -1716.406)" fill="#f0f2f5"/>
            <path id="Trazado_701974" data-name="Trazado 701974" d="M1444.462,232a18.385,18.385,0,0,0-32.478,15.649l-6.538,5.154,9.677,1.35A18.381,18.381,0,1,0,1444.462,232" transform="translate(-1286.756 -205.715)" fill="#f0f2f5"/>
            <path id="Trazado_701975" data-name="Trazado 701975" d="M1651.525,356.29a4.159,4.159,0,0,1,.672,3.409,3.961,3.961,0,0,1-2,3.01,6,6,0,0,1-3.914.344l-.452,1.989-1.664-.323.562-3.344.611.118a7.115,7.115,0,0,0,3.388,0,2.5,2.5,0,0,0,1.642-2.151,2.712,2.712,0,0,0-.37-2.148,2.86,2.86,0,0,0-1.9-1.134,2.926,2.926,0,0,0-2.191.307,2.57,2.57,0,0,0-1.122,1.782l-1.811-.352a4.352,4.352,0,0,1,1-2.112,3.911,3.911,0,0,1,1.9-1.172,5.381,5.381,0,0,1,2.514-.058,4.878,4.878,0,0,1,3.141,1.834m-8.232,12.347a1.33,1.33,0,0,1,1.36-2.053,1.225,1.225,0,0,1,.822.553,1.375,1.375,0,0,1-.36,1.854,1.225,1.225,0,0,1-.969.205,1.284,1.284,0,0,1-.853-.559" transform="translate(-1504.221 -324.413)" fill="#fff"/>
            <path id="Trazado_701976" data-name="Trazado 701976" d="M1121.913.162a11.683,11.683,0,0,0-8.14,21.415l-.763,5.235,5.054-3.607A11.681,11.681,0,1,0,1121.913.162" transform="translate(-1014.709 0)" fill="#f0f2f5"/>
            <path id="Trazado_701977" data-name="Trazado 701977" d="M1219.741,83.247a2.643,2.643,0,0,1,.427,2.166,2.517,2.517,0,0,1-1.274,1.913,3.813,3.813,0,0,1-2.487.219l-.287,1.264-1.057-.205.357-2.125.388.075a4.522,4.522,0,0,0,2.153,0A1.587,1.587,0,0,0,1219,85.187a1.723,1.723,0,0,0-.235-1.365,1.817,1.817,0,0,0-1.208-.721,1.859,1.859,0,0,0-1.392.2,1.634,1.634,0,0,0-.713,1.133l-1.151-.223a2.766,2.766,0,0,1,.636-1.342,2.485,2.485,0,0,1,1.207-.745,3.42,3.42,0,0,1,1.6-.037,3.1,3.1,0,0,1,2,1.165m-5.232,7.846a.845.845,0,0,1,.864-1.3.779.779,0,0,1,.522.351.873.873,0,0,1-.229,1.178.778.778,0,0,1-.616.131.816.816,0,0,1-.542-.355" transform="translate(-1111.756 -75.08)" fill="#fff"/>
            <path id="Trazado_701978" data-name="Trazado 701978" d="M254.266,743.908a10.638,10.638,0,0,1,20.828-1.154l4.753.782-4.525,3.39a10.636,10.636,0,0,1-21.056-3.018" transform="translate(-232.694 -672.728)" fill="#f0f2f5"/>
            <path id="Trazado_701979" data-name="Trazado 701979" d="M357.011,808.771a2.406,2.406,0,0,1,.757,1.862,2.292,2.292,0,0,1-.807,1.931,3.472,3.472,0,0,1-2.185.627l-.037,1.179h-.981l-.05-1.962h.36a4.118,4.118,0,0,0,1.924-.372,1.445,1.445,0,0,0,.7-1.4,1.569,1.569,0,0,0-.447-1.179,1.654,1.654,0,0,0-1.2-.435,1.693,1.693,0,0,0-1.21.416,1.487,1.487,0,0,0-.441,1.136h-1.068a2.518,2.518,0,0,1,.335-1.31,2.263,2.263,0,0,1,.95-.875,3.113,3.113,0,0,1,1.422-.31,2.823,2.823,0,0,1,1.987.7m-3.315,7.921a.77.77,0,0,1,.546-1.316.709.709,0,0,1,.528.223.8.8,0,0,1,0,1.093.709.709,0,0,1-.528.223.743.743,0,0,1-.546-.223" transform="translate(-322.565 -739.834)" fill="#fff"/>
            <path id="Trazado_701980" data-name="Trazado 701980" d="M144.222,153.594a19.342,19.342,0,0,1,26.211,27.414l4.536,7.492-10.032-2.245a19.338,19.338,0,0,1-20.716-32.661" transform="translate(-123.818 -137.867)" fill="#f0f2f5"/>
            <path id="Trazado_701981" data-name="Trazado 701981" d="M238.408,353.781a2.142,2.142,0,1,1-2.142-2.142,2.142,2.142,0,0,1,2.142,2.142" transform="translate(-214.352 -321.943)" fill="#fff"/>
            <path id="Trazado_701982" data-name="Trazado 701982" d="M347.249,353.781a2.142,2.142,0,1,1-2.142-2.142,2.142,2.142,0,0,1,2.142,2.142" transform="translate(-314.001 -321.943)" fill="#fff"/>
            <path id="Trazado_701983" data-name="Trazado 701983" d="M456.089,353.781a2.142,2.142,0,1,1-2.142-2.142,2.142,2.142,0,0,1,2.142,2.142" transform="translate(-413.65 -321.943)" fill="#fff"/>
            <path id="Trazado_701984" data-name="Trazado 701984" d="M732.9,65.289a8.038,8.038,0,0,1,5.013,14.943l.382,3.619-3.376-2.617A8.036,8.036,0,0,1,732.9,65.289" transform="translate(-664.569 -59.717)" fill="#f0f2f5"/>
            <path id="Trazado_701985" data-name="Trazado 701985" d="M856.978,154.257a.89.89,0,1,0,.89-.89.89.89,0,0,0-.89.89" transform="translate(-784.606 -140.415)" fill="#fff"/>
            <path id="Trazado_701986" data-name="Trazado 701986" d="M811.748,154.257a.89.89,0,1,0,.89-.89.89.89,0,0,0-.89.89" transform="translate(-743.196 -140.415)" fill="#fff"/>
            <path id="Trazado_701987" data-name="Trazado 701987" d="M766.518,154.257a.89.89,0,1,0,.89-.89.89.89,0,0,0-.89.89" transform="translate(-701.785 -140.415)" fill="#fff"/>
            <path id="Trazado_701988" data-name="Trazado 701988" d="M1478.466,807.4a11.928,11.928,0,0,0-21.863-8.314l-5.345-.78,3.682,5.161a11.926,11.926,0,1,0,23.525,3.934" transform="translate(-1328.7 -726.49)" fill="#f0f2f5"/>
            <path id="Trazado_701989" data-name="Trazado 701989" d="M1691.669,912.1a1.321,1.321,0,1,0,1.321-1.321,1.321,1.321,0,0,0-1.321,1.321" transform="translate(-1548.807 -833.867)" fill="#fff"/>
            <path id="Trazado_701990" data-name="Trazado 701990" d="M1624.547,912.1a1.321,1.321,0,1,0,1.321-1.321,1.321,1.321,0,0,0-1.321,1.321" transform="translate(-1487.354 -833.866)" fill="#fff"/>
            <path id="Trazado_701991" data-name="Trazado 701991" d="M1557.425,912.1a1.321,1.321,0,1,0,1.321-1.321,1.321,1.321,0,0,0-1.321,1.321" transform="translate(-1425.9 -833.867)" fill="#fff"/>
          </g>
        </g>
        <g id="Grupo_998770" data-name="Grupo 998770">
          <g id="Grupo_998769" data-name="Grupo 998769" clip-path="url(#clip-path)">
            <path id="Trazado_701992" data-name="Trazado 701992" d="M150.082,861.952s-.864,15.024-13.389,12.013c-2.383-.573-6.851-2.3-12.4-7.495q-.22-.205-.442-.418a.012.012,0,0,1,0,.006,57.468,57.468,0,0,1-5.379,13.721l0,0,.4,5.434s5.292,8.1.248,10.291H48.4s.8-34.611-1.519-46.939l-2.412-6.7h0c-.284.028-26.451,2.633-36.7-2.087l-.035-.016c-.073-.034-.144-.067-.215-.1l-.014-.007s-12.843-3.379-4.916-13.826c0,0,1.82-6.739,19.434-18.2a25.7,25.7,0,0,0,7.665-7.641c1.474-2.3,3.893-4.555,7.478-3.57a28.027,28.027,0,0,0,5.976-3.743,1.57,1.57,0,0,1,1.959.021c1.964,1.607,6.166,5.643,7.155,11.418a1.723,1.723,0,0,1-.576,1.6L46.7,809.967s.79,2.935-3.728,4.284a8.678,8.678,0,0,0-4.892,3.688L38.04,818l2.3-.125s6.31-5.159,11.915-3.6c3.026-2.075,10.492,1.234,16.333.162l.808-2.37a2.366,2.366,0,0,1,2.2-1.6c3.883-.06,13.957-.106,23.962.758a3.5,3.5,0,0,1,3.17,3l.316,2.255,3.235-.5a27.855,27.855,0,0,1,11.16-6.28,2.392,2.392,0,0,1,2.488.824l3.663,4.6s6.671.174,9.723,3.576c0,0,6.884,2.255,10.737,17.222,0,0,5.531,2.777,8.3,6.624,0,0,9.434,6.366,1.729,19.405" transform="translate(0 -725.427)" fill="#f9a21b"/>
            <path id="Trazado_701993" data-name="Trazado 701993" d="M657.181,1119.818a8.753,8.753,0,0,1,.951.717q.45.384.866.8t.8.866a8.638,8.638,0,0,1,.717.952,8.652,8.652,0,0,1-.952-.717q-.45-.384-.866-.8t-.8-.866a8.744,8.744,0,0,1-.717-.951" transform="translate(-601.682 -1025.249)" fill="#fff"/>
            <path id="Trazado_701994" data-name="Trazado 701994" d="M837.144,1345.833a8.766,8.766,0,0,1-.717.951q-.384.45-.8.866t-.866.8a8.636,8.636,0,0,1-.952.717,8.648,8.648,0,0,1,.717-.951q.384-.45.8-.866t.866-.8a8.753,8.753,0,0,1,.951-.717" transform="translate(-763.393 -1232.177)" fill="#fff"/>
            <path id="Trazado_701995" data-name="Trazado 701995" d="M1374.866,1375.994a8.737,8.737,0,0,1-.717.951q-.384.45-.8.866t-.866.8a.6.6,0,1,1-.235-.235q.384-.45.8-.866t.866-.8a8.752,8.752,0,0,1,.951-.717" transform="translate(-1255.704 -1259.791)" fill="#fff"/>
            <path id="Trazado_701996" data-name="Trazado 701996" d="M802.565,1933.031a8.744,8.744,0,0,1-.717.951q-.384.45-.8.866t-.866.8a8.634,8.634,0,0,1-.951.717,8.617,8.617,0,0,1,.717-.951q.384-.45.8-.866t.866-.8a8.766,8.766,0,0,1,.951-.717" transform="translate(-731.734 -1769.786)" fill="#fff"/>
            <path id="Trazado_701997" data-name="Trazado 701997" d="M620.813,1437.345a8.759,8.759,0,0,1-.718-.95q-.327-.493-.613-1.009t-.534-1.053a8.638,8.638,0,0,1-.428-1.112,8.622,8.622,0,0,1,.718.95q.327.493.613,1.009t.533,1.053a8.74,8.74,0,0,1,.429,1.111" transform="translate(-566.286 -1312.185)" fill="#fff"/>
            <path id="Trazado_701998" data-name="Trazado 701998" d="M368.951,1018.483a8.748,8.748,0,0,1-.717.951q-.384.45-.8.866t-.866.8a8.649,8.649,0,0,1-.952.717,8.633,8.633,0,0,1,.717-.952q.384-.45.8-.866t.866-.8a8.74,8.74,0,0,1,.951-.717" transform="translate(-334.739 -932.472)" fill="#fff"/>
            <path id="Trazado_701999" data-name="Trazado 701999" d="M152.621,1110a8.763,8.763,0,0,1-.718-.951q-.327-.493-.613-1.009t-.534-1.053a8.649,8.649,0,0,1-.428-1.112,8.632,8.632,0,0,1,.718.95q.327.493.613,1.009t.533,1.053a8.748,8.748,0,0,1,.429,1.111" transform="translate(-137.633 -1012.481)" fill="#fff"/>
            <path id="Trazado_702000" data-name="Trazado 702000" d="M1232.921,1441.007a8.752,8.752,0,0,1,.951.717q.45.384.866.8t.8.866a.6.6,0,1,1-.235.235q-.45-.384-.866-.8t-.8-.866a8.725,8.725,0,0,1-.717-.951" transform="translate(-1128.8 -1319.313)" fill="#fff"/>
            <path id="Trazado_702001" data-name="Trazado 702001" d="M1571.165,1284.2a8.752,8.752,0,0,1,.951.717q.45.384.866.8t.8.866a.6.6,0,1,1-.235.235q-.45-.384-.866-.8t-.8-.866a8.737,8.737,0,0,1-.717-.951" transform="translate(-1438.48 -1175.75)" fill="#fff"/>
            <path id="Trazado_702002" data-name="Trazado 702002" d="M775.289,1662.618a8.726,8.726,0,0,1-.044,1.19c-.039.392-.093.782-.162,1.169s-.152.772-.252,1.153a8.642,8.642,0,0,1-.371,1.132,8.637,8.637,0,0,1,.044-1.19q.058-.589.163-1.169t.252-1.153a8.769,8.769,0,0,1,.37-1.132" transform="translate(-709.051 -1522.209)" fill="#fff"/>
            <path id="Trazado_702003" data-name="Trazado 702003" d="M369.575,1276.988a8.737,8.737,0,0,1-.717.951q-.384.45-.8.866t-.866.8a8.638,8.638,0,0,1-.951.717,8.64,8.64,0,0,1,.717-.951q.384-.45.8-.866t.866-.8a8.737,8.737,0,0,1,.951-.717" transform="translate(-335.31 -1169.146)" fill="#fff"/>
            <path id="Trazado_702004" data-name="Trazado 702004" d="M1062.176,1181.637a8.738,8.738,0,0,1,.3,1.152q.115.58.183,1.166t.093,1.177a8.647,8.647,0,0,1-.027,1.191,8.628,8.628,0,0,1-.3-1.152q-.115-.58-.183-1.166t-.093-1.177a8.761,8.761,0,0,1,.026-1.191" transform="translate(-972.443 -1081.847)" fill="#fff"/>
            <path id="Trazado_702005" data-name="Trazado 702005" d="M1320.072,1834.623a8.738,8.738,0,0,1,.3,1.152q.115.58.183,1.166t.093,1.177a8.648,8.648,0,0,1-.027,1.191,8.629,8.629,0,0,1-.3-1.152q-.115-.58-.183-1.166t-.093-1.177a8.761,8.761,0,0,1,.026-1.191" transform="translate(-1208.56 -1679.688)" fill="#fff"/>
            <path id="Trazado_702006" data-name="Trazado 702006" d="M1594.255,1587.275a8.737,8.737,0,0,1-.717.951q-.384.45-.8.866t-.866.8a.6.6,0,1,1-.235-.235q.384-.45.8-.866t.866-.8a8.737,8.737,0,0,1,.951-.717" transform="translate(-1456.565 -1453.229)" fill="#fff"/>
            <path id="Trazado_702007" data-name="Trazado 702007" d="M1096.166,1695.807a8.74,8.74,0,0,1-.951-.717q-.45-.384-.866-.8t-.8-.866a8.646,8.646,0,0,1-.717-.952,8.633,8.633,0,0,1,.952.717q.45.384.866.8t.8.866a8.738,8.738,0,0,1,.717.951" transform="translate(-1000.539 -1549.541)" fill="#fff"/>
            <g id="Grupo_998735" data-name="Grupo 998735" transform="translate(42.289 91.476)" opacity="0.4" style="mix-blend-mode: multiply;isolation: isolate">
              <g id="Grupo_998734" data-name="Grupo 998734">
                <g id="Grupo_998733" data-name="Grupo 998733" clip-path="url(#clip-path-4)">
                  <path id="Trazado_702008" data-name="Trazado 702008" d="M506.137,1095.067a66,66,0,0,0,.079-7.855c-.529-6.166-5.461-3.406-5.461-3.406s6.265-1.839,5.382,11.261" transform="translate(-500.755 -1083.19)" fill="#a65b3c"/>
                </g>
              </g>
            </g>
            <g id="Grupo_998738" data-name="Grupo 998738" transform="translate(51.663 95.593)" opacity="0.4" style="mix-blend-mode: multiply;isolation: isolate">
              <g id="Grupo_998737" data-name="Grupo 998737">
                <g id="Grupo_998736" data-name="Grupo 998736" clip-path="url(#clip-path-5)">
                  <path id="Trazado_702009" data-name="Trazado 702009" d="M611.759,1131.941c4.689,18.019,17.2,41.79,36.263,41.21,0,0-26.372-4.416-36.263-41.21" transform="translate(-611.759 -1131.941)" fill="#a65b3c"/>
                </g>
              </g>
            </g>
            <g id="Grupo_998741" data-name="Grupo 998741" transform="translate(7.764 104.171)" opacity="0.4" style="mix-blend-mode: multiply;isolation: isolate">
              <g id="Grupo_998740" data-name="Grupo 998740">
                <g id="Grupo_998739" data-name="Grupo 998739" clip-path="url(#clip-path-6)">
                  <path id="Trazado_702010" data-name="Trazado 702010" d="M130.177,1245.548a49.7,49.7,0,0,1,.758-5.572,20.4,20.4,0,0,1-1.946,5.027.474.474,0,0,1-.573.215c-1.584-.562-7.681-3.256-8.771-11.7a34.614,34.614,0,0,0,.474,4.659,6.006,6.006,0,0,1-4.991,6.954,32.216,32.216,0,0,1-4.29.341,3.386,3.386,0,0,1-3.01-5.049,37.481,37.481,0,0,0,2.837-6.3c-5.306,10.532-11.975,8.7-11.975,8.7a6.812,6.812,0,0,1-6.755.883c10.252,4.72,36.419,2.115,36.7,2.087h0l2.412,6.7a20.485,20.485,0,0,1-.875-6.938" transform="translate(-91.935 -1233.516)" fill="#a65b3c"/>
                </g>
              </g>
            </g>
            <g id="Grupo_998744" data-name="Grupo 998744" transform="translate(27.119 92.512)" opacity="0.4" style="mix-blend-mode: multiply;isolation: isolate">
              <g id="Grupo_998743" data-name="Grupo 998743">
                <g id="Grupo_998742" data-name="Grupo 998742" clip-path="url(#clip-path-7)">
                  <path id="Trazado_702011" data-name="Trazado 702011" d="M332.079,1095.461s-5.77,8.114-10.957,11.289c0,0,5.974-1.646,10.957-11.289" transform="translate(-321.122 -1095.461)" fill="#a65b3c"/>
                </g>
              </g>
            </g>
            <g id="Grupo_998747" data-name="Grupo 998747" transform="translate(13.502 107.128)" opacity="0.4" style="mix-blend-mode: multiply;isolation: isolate">
              <g id="Grupo_998746" data-name="Grupo 998746">
                <g id="Grupo_998745" data-name="Grupo 998745" clip-path="url(#clip-path-8)">
                  <path id="Trazado_702012" data-name="Trazado 702012" d="M169.834,1268.527a8.692,8.692,0,0,1-9.952.219s6.53,5.011,9.952-.219" transform="translate(-159.882 -1268.527)" fill="#a65b3c"/>
                </g>
              </g>
            </g>
            <g id="Grupo_998750" data-name="Grupo 998750" transform="translate(70.069 90.404)" opacity="0.4" style="mix-blend-mode: multiply;isolation: isolate">
              <g id="Grupo_998749" data-name="Grupo 998749">
                <g id="Grupo_998748" data-name="Grupo 998748" clip-path="url(#clip-path-9)">
                  <path id="Trazado_702013" data-name="Trazado 702013" d="M829.712,1070.494c10.274,10.262,23.664,6.278,28.481,1.163,0,0-11.2,15.592-28.481-1.163" transform="translate(-829.712 -1070.494)" fill="#a65b3c"/>
                </g>
              </g>
            </g>
            <g id="Grupo_998753" data-name="Grupo 998753" transform="translate(126.663 98.727)" opacity="0.4" style="mix-blend-mode: multiply;isolation: isolate">
              <g id="Grupo_998752" data-name="Grupo 998752">
                <g id="Grupo_998751" data-name="Grupo 998751" clip-path="url(#clip-path-10)">
                  <path id="Trazado_702014" data-name="Trazado 702014" d="M1503.376,1177.824s-2.805-1.833-3.522-8.77c0,0,.662,4.172,3.577,6.523a1.4,1.4,0,0,1-.034,2.232Z" transform="translate(-1499.854 -1169.054)" fill="#a65b3c"/>
                </g>
              </g>
            </g>
            <g id="Grupo_998756" data-name="Grupo 998756" transform="translate(114.521 123.36)" opacity="0.4" style="mix-blend-mode: multiply;isolation: isolate">
              <g id="Grupo_998755" data-name="Grupo 998755">
                <g id="Grupo_998754" data-name="Grupo 998754" clip-path="url(#clip-path-11)">
                  <path id="Trazado_702015" data-name="Trazado 702015" d="M1365.414,1478.007a.013.013,0,0,1,0,.006,57.47,57.47,0,0,1-5.379,13.721l0,0a37.79,37.79,0,0,1-2.645-14.795,12.846,12.846,0,0,0,.23,2.04,2.586,2.586,0,0,0,2.568,2.1,2.558,2.558,0,0,0,2.053-1.021,2.609,2.609,0,0,0,.253-2.769,110.172,110.172,0,0,1-6.409-16.55,62.978,62.978,0,0,0,9.332,17.265" transform="translate(-1356.082 -1460.742)" fill="#a65b3c"/>
                </g>
              </g>
            </g>
            <g id="Grupo_998759" data-name="Grupo 998759" transform="translate(48.328 112.505)" opacity="0.4" style="mix-blend-mode: multiply;isolation: isolate">
              <g id="Grupo_998758" data-name="Grupo 998758">
                <g id="Grupo_998757" data-name="Grupo 998757" clip-path="url(#clip-path-12)">
                  <path id="Trazado_702016" data-name="Trazado 702016" d="M582.775,1389.784s-7.172-16.37-10.507-57.575c0,0,2.235,36.291,7.471,57.575Z" transform="translate(-572.268 -1332.209)" fill="#a65b3c"/>
                </g>
              </g>
            </g>
            <g id="Grupo_998762" data-name="Grupo 998762" transform="translate(107.694 123.353)" opacity="0.4" style="mix-blend-mode: multiply;isolation: isolate">
              <g id="Grupo_998761" data-name="Grupo 998761">
                <g id="Grupo_998760" data-name="Grupo 998760" clip-path="url(#clip-path-13)">
                  <path id="Trazado_702017" data-name="Trazado 702017" d="M1282.062,1460.662s-6.327,16.382-6.826,28.058a2.139,2.139,0,0,0,2.889-2.058,75.138,75.138,0,0,1,3.937-26" transform="translate(-1275.236 -1460.662)" fill="#a65b3c"/>
                </g>
              </g>
            </g>
            <g id="Grupo_998765" data-name="Grupo 998765" transform="translate(109.975 160.598)" opacity="0.4" style="mix-blend-mode: multiply;isolation: isolate">
              <g id="Grupo_998764" data-name="Grupo 998764">
                <g id="Grupo_998763" data-name="Grupo 998763" clip-path="url(#clip-path-14)">
                  <path id="Trazado_702018" data-name="Trazado 702018" d="M1311.121,1901.684s.855,8.839-8.869,8.627c0,0,6.525.6,8.869-8.627" transform="translate(-1302.252 -1901.684)" fill="#a65b3c"/>
                </g>
              </g>
            </g>
            <g id="Grupo_998768" data-name="Grupo 998768" transform="translate(124.296 136.525)" opacity="0.4" style="mix-blend-mode: multiply;isolation: isolate">
              <g id="Grupo_998767" data-name="Grupo 998767">
                <g id="Grupo_998766" data-name="Grupo 998766" clip-path="url(#clip-path-15)">
                  <path id="Trazado_702019" data-name="Trazado 702019" d="M1497.606,1616.634s-.864,15.024-13.389,12.013c-2.383-.573-6.851-2.3-12.4-7.495,14.759,13.476,25.786-4.518,25.786-4.518" transform="translate(-1471.82 -1616.634)" fill="#a65b3c"/>
                </g>
              </g>
            </g>
            <path id="Trazado_702020" data-name="Trazado 702020" d="M1252.966,1213.913a8.762,8.762,0,0,0-.733,2.573,7.983,7.983,0,0,0,.095,2.661,7.266,7.266,0,0,0,1.022,2.449l.186.277c.065.09.135.177.2.266l.1.133c.034.044.072.085.108.128l.217.254c.152.163.307.322.464.483s.32.317.472.484a20.115,20.115,0,0,1,1.713,2.088c.258.369.511.741.744,1.127s.459.774.671,1.171c.1.2.2.4.3.6s.193.406.282.613.182.411.263.621l.125.313.116.317.453,1.269.466,1.264c1.263,3.362,2.67,6.67,4.259,9.888l.613,1.2c.1.2.211.4.317.593l.319.592c.208.4.437.784.659,1.173l.335.584.352.573c.238.38.463.769.716,1.139l.371.561c.124.187.245.376.38.556l.393.546c.132.181.257.368.4.545l.835,1.057-.013.011a34.286,34.286,0,0,1-3.19-4.344c-.956-1.524-1.833-3.1-2.638-4.706a91.034,91.034,0,0,1-4.19-9.934l-.448-1.271c-.145-.425-.289-.851-.44-1.273a17.348,17.348,0,0,0-1.086-2.459,19.382,19.382,0,0,0-3.178-4.316c-.152-.164-.314-.319-.472-.478s-.318-.322-.472-.486l-.222-.257c-.037-.043-.075-.085-.11-.129l-.1-.135c-.068-.09-.138-.18-.2-.272l-.188-.284a7.412,7.412,0,0,1-1.024-2.5,7.9,7.9,0,0,1-.056-2.7,8.6,8.6,0,0,1,.3-1.318,7.486,7.486,0,0,1,.506-1.251Z" transform="translate(-1146.319 -1111.39)" fill="#a65b3c"/>
            <path id="Trazado_702021" data-name="Trazado 702021" d="M1202.713,1074.846a1.317,1.317,0,0,0-.451.665,2.329,2.329,0,0,0-.094.8,4.983,4.983,0,0,0,.391,1.574c.218.5.461.99.712,1.478s.509.971.77,1.454c.514.969,1.049,1.928,1.578,2.89l1.589,2.886c-.295-.464-.578-.934-.864-1.4l-.838-1.419c-.553-.949-1.087-1.909-1.613-2.874-.257-.486-.512-.973-.758-1.464-.123-.246-.246-.492-.363-.741s-.226-.5-.333-.759a5.052,5.052,0,0,1-.353-1.619,2.387,2.387,0,0,1,.135-.819,1.288,1.288,0,0,1,.493-.65" transform="translate(-1100.568 -984.075)" fill="#a65b3c"/>
            <path id="Trazado_702022" data-name="Trazado 702022" d="M1499.854,1169.053a16.077,16.077,0,0,1,1.9,1.209c.15.113.3.222.45.339l.443.349c.288.241.58.478.859.73a27.109,27.109,0,0,1,3.1,3.265l.7.882.348.439c.119.144.243.284.364.427.481.573,1.006,1.105,1.54,1.627a15.4,15.4,0,0,0,1.725,1.428,7.96,7.96,0,0,0,1.962,1.073,5.459,5.459,0,0,1-1.04-.428,10.644,10.644,0,0,1-.969-.577,15.363,15.363,0,0,1-1.767-1.4,19.7,19.7,0,0,1-1.568-1.622c-.123-.142-.248-.283-.369-.427l-.353-.44-.7-.877c-.464-.587-.958-1.148-1.465-1.7-.126-.138-.26-.269-.389-.4s-.258-.271-.394-.4c-.27-.259-.534-.523-.812-.773s-.558-.5-.84-.745l-.434-.356c-.144-.119-.295-.23-.441-.347a17.744,17.744,0,0,0-1.848-1.275" transform="translate(-1373.191 -1070.326)" fill="#a65b3c"/>
            <path id="Trazado_702023" data-name="Trazado 702023" d="M1446.085,1109.779a3.527,3.527,0,0,1,1.938.041,3.1,3.1,0,0,1,.887.44,3.37,3.37,0,0,1,.706.7,4.045,4.045,0,0,1,.495.855c.07.149.12.306.176.46s.092.314.134.472a8.306,8.306,0,0,1,.205,1.937,11.534,11.534,0,0,0-.333-1.9c-.023-.077-.048-.153-.072-.229s-.044-.154-.075-.228c-.058-.149-.11-.3-.182-.443-.035-.071-.062-.147-.1-.215l-.114-.209c-.039-.069-.085-.134-.128-.2-.022-.033-.042-.067-.066-.1l-.072-.094a3.185,3.185,0,0,0-1.5-1.113,3.732,3.732,0,0,0-.933-.2,3.873,3.873,0,0,0-.963.033" transform="translate(-1323.963 -1015.952)" fill="#a65b3c"/>
            <path id="Trazado_702024" data-name="Trazado 702024" d="M1416.167,1062.147c.247.321.479.652.7.987s.442.676.655,1.018.417.692.613,1.045.385.711.555,1.078c-.23-.333-.451-.671-.668-1.011s-.431-.681-.644-1.024-.42-.688-.623-1.037-.4-.7-.592-1.057" transform="translate(-1296.571 -972.448)" fill="#a65b3c"/>
            <path id="Trazado_702025" data-name="Trazado 702025" d="M572.185,1332.2q.371,3.65.712,7.3l.8,7.292.438,3.641.218,1.821c.069.608.165,1.211.249,1.817.171,1.211.35,2.42.53,3.629l.135.907.154.9.309,1.808c.21,1.2.4,2.412.639,3.611l.685,3.6.75,3.589c.12.6.263,1.194.4,1.79l.406,1.788c.069.3.132.6.206.893l.222.889.441,1.779c.037.148.072.3.111.445l.119.443.237.885.237.885.119.443.127.44.51,1.761c.176.585.363,1.167.543,1.751.088.293.192.58.286.87s.192.58.292.869l.309.863c.052.144.109.286.163.428s.11.285.168.426l-.015.007c-.483-1.125-.888-2.28-1.284-3.437-.189-.582-.384-1.162-.568-1.745l-.531-1.757-.131-.44-.123-.442-.245-.884-.245-.884-.123-.442c-.04-.148-.076-.3-.114-.444l-.449-1.779-.223-.89c-.076-.3-.138-.6-.208-.894l-.409-1.789c-.135-.6-.279-1.191-.4-1.792l-.734-3.6c-.439-2.406-.891-4.811-1.259-7.229-.783-4.829-1.444-9.675-2.081-14.526-.282-2.43-.532-4.863-.786-7.3q-.314-3.655-.6-7.313Z" transform="translate(-523.848 -1219.696)" fill="#a65b3c"/>
            <path id="Trazado_702026" data-name="Trazado 702026" d="M500.755,1083.37a5.387,5.387,0,0,1,.915-.4,5.061,5.061,0,0,1,.976-.226,3.429,3.429,0,0,1,1.006.013,2.633,2.633,0,0,1,.948.352,2.726,2.726,0,0,1,.746.687,3.337,3.337,0,0,1,.276.427,3.909,3.909,0,0,1,.216.458,7.285,7.285,0,0,1,.442,1.962,34.787,34.787,0,0,1,.093,4c-.039,1.332-.112,2.662-.238,3.988l.032-1,.027-1c.019-.665.028-1.33.034-1.995.014-1.329,0-2.66-.1-3.981a7.141,7.141,0,0,0-.421-1.923,3.847,3.847,0,0,0-.462-.862,2.609,2.609,0,0,0-.7-.67,2.532,2.532,0,0,0-.905-.355,3.569,3.569,0,0,0-.983-.038,5.021,5.021,0,0,0-.972.194,5.822,5.822,0,0,0-.927.364" transform="translate(-458.466 -991.279)" fill="#a65b3c"/>
            <path id="Trazado_702027" data-name="Trazado 702027" d="M332.079,1095.461c-.37.546-.761,1.076-1.154,1.606s-.8,1.046-1.215,1.562-.837,1.019-1.267,1.52-.868.993-1.316,1.478-.909.957-1.38,1.42-.947.921-1.446,1.352-1,.858-1.533,1.253a17.724,17.724,0,0,1-1.645,1.1q.826-.544,1.595-1.164c.517-.407,1.012-.84,1.5-1.284.971-.887,1.9-1.821,2.789-2.79s1.76-1.957,2.607-2.966q.635-.756,1.25-1.53c.414-.512.818-1.032,1.219-1.556" transform="translate(-294.003 -1002.949)" fill="#a65b3c"/>
            <path id="Trazado_702028" data-name="Trazado 702028" d="M441.12,868.422a19.224,19.224,0,0,0,.486,1.907c.189.628.4,1.247.652,1.854a16.416,16.416,0,0,0,1.855,3.445,11.9,11.9,0,0,0,1.257,1.5,10.178,10.178,0,0,0,1.521,1.222l.418.253c.141.081.29.149.435.224.073.035.145.076.22.107l.227.092.227.092.114.046.117.037.467.149.059.019.06.014.12.027.24.055.24.055c.081.014.162.024.243.036l.487.072-.491-.047c-.082-.009-.164-.015-.245-.026l-.243-.046-.243-.046-.122-.023-.061-.011-.06-.016-.477-.132-.119-.034-.116-.044-.232-.088-.232-.088c-.077-.03-.15-.069-.225-.1-.148-.073-.3-.138-.446-.216l-.431-.247a9.4,9.4,0,0,1-1.56-1.223,11.985,11.985,0,0,1-1.287-1.508,13.961,13.961,0,0,1-1.028-1.692,16.675,16.675,0,0,1-.81-1.8,18.572,18.572,0,0,1-1.018-3.808" transform="translate(-403.867 -795.083)" fill="#a65b3c"/>
            <path id="Trazado_702029" data-name="Trazado 702029" d="M230.285,923.05q-.61.828-1.192,1.674c-.39.563-.777,1.129-1.152,1.7-.753,1.144-1.5,2.294-2.2,3.469s-1.408,2.35-2.074,3.546-1.313,2.4-1.956,3.616q.218-.465.442-.929c.149-.309.294-.62.45-.925.313-.61.621-1.223.95-1.825.163-.3.322-.606.492-.9l.508-.895c.167-.3.344-.593.518-.889s.345-.593.526-.884l.543-.874.555-.867c.183-.29.376-.574.564-.861s.382-.57.577-.852q.583-.848,1.192-1.677c.411-.549.822-1.1,1.259-1.627" transform="translate(-202.987 -845.098)" fill="#a65b3c"/>
            <path id="Trazado_702030" data-name="Trazado 702030" d="M858.193,1071.657a14.2,14.2,0,0,1-3.082,2.453,19.867,19.867,0,0,1-3.578,1.675,21.228,21.228,0,0,1-7.789,1.166,20.414,20.414,0,0,1-3.918-.55l-.956-.257c-.315-.1-.628-.2-.942-.307-.158-.047-.309-.115-.464-.173l-.461-.18-.23-.091c-.076-.032-.15-.068-.225-.1l-.45-.207a21.833,21.833,0,0,1-3.4-2,25.815,25.815,0,0,1-2.982-2.585,27.161,27.161,0,0,0,3.03,2.517,21.837,21.837,0,0,0,3.411,1.954,19.843,19.843,0,0,0,7.6,1.818,21.372,21.372,0,0,0,7.739-1.12,19.844,19.844,0,0,0,3.578-1.623c.289-.157.56-.342.839-.516.139-.087.27-.187.405-.28s.272-.185.4-.289l.388-.3c.066-.049.128-.1.189-.158l.186-.162c.254-.209.481-.447.719-.675" transform="translate(-759.643 -980.09)" fill="#a65b3c"/>
            <path id="Trazado_702031" data-name="Trazado 702031" d="M1276.969,1127.657a21.877,21.877,0,0,1-2.685,3.343,19.327,19.327,0,0,1-1.579,1.46,17.065,17.065,0,0,1-1.738,1.27,13.028,13.028,0,0,1-1.913.991,10.241,10.241,0,0,1-1.016.362,8.724,8.724,0,0,1-1.05.248,9.33,9.33,0,0,1-1.072.117,8.665,8.665,0,0,1-1.077-.023,8.1,8.1,0,0,1-2.089-.481,8.413,8.413,0,0,0,4.215.258,10.336,10.336,0,0,0,2.031-.624,12.9,12.9,0,0,0,1.882-.992,19.268,19.268,0,0,0,3.314-2.678c.507-.5.991-1.025,1.454-1.568s.909-1.1,1.323-1.684" transform="translate(-1156.109 -1032.426)" fill="#a65b3c"/>
            <path id="Trazado_702032" data-name="Trazado 702032" d="M1330.955,1359.331a38.686,38.686,0,0,1-5.272-1.7,51.688,51.688,0,0,1-5.036-2.32,50.853,50.853,0,0,1-4.748-2.863c-.758-.528-1.511-1.065-2.239-1.635s-1.438-1.161-2.132-1.77l.539.435c.179.145.357.293.541.432.365.283.728.567,1.1.838.736.556,1.5,1.079,2.261,1.593s1.547,1,2.341,1.472,1.6.924,2.413,1.35,1.637.848,2.473,1.238,1.681.757,2.532,1.112,1.714.681,2.584.987,1.748.593,2.639.833" transform="translate(-1200.77 -1235.115)" fill="#a65b3c"/>
            <path id="Trazado_702033" data-name="Trazado 702033" d="M1503.376,1177.823a3.328,3.328,0,0,1-.469-.383l-.213-.217c-.068-.075-.133-.152-.2-.228s-.128-.157-.19-.238-.123-.161-.183-.243l-.168-.253c-.054-.085-.115-.167-.164-.256-.1-.176-.206-.349-.3-.53l-.269-.545c-.157-.373-.321-.745-.447-1.13l-.1-.287-.049-.144-.041-.146-.165-.584c-.059-.194-.095-.393-.14-.59l-.128-.593c-.066-.4-.129-.8-.186-1.2-.037-.4-.08-.8-.111-1.205.07.4.129.8.193,1.193l.233,1.183.143.585c.049.195.088.392.15.583l.168.577.042.144.05.142.1.284c.121.382.282.749.433,1.12l.255.544c.089.179.189.353.281.53s.208.342.31.514c.055.083.113.165.17.248s.113.166.176.243a4.756,4.756,0,0,0,.818.88" transform="translate(-1373.191 -1070.326)" fill="#a65b3c"/>
            <path id="Trazado_702034" data-name="Trazado 702034" d="M647.934,1173.136a21.626,21.626,0,0,1-3.675-.16,22.037,22.037,0,0,1-3.6-.781,24.309,24.309,0,0,1-3.429-1.351,26.251,26.251,0,0,1-3.193-1.84,32.148,32.148,0,0,1-2.928-2.235q-.7-.6-1.368-1.232c-.222-.212-.448-.42-.663-.638s-.438-.43-.649-.652a52.283,52.283,0,0,1-4.724-5.638,63.1,63.1,0,0,1-3.966-6.2q-1.806-3.209-3.294-6.584t-2.69-6.852q-1.2-3.481-2.092-7.054l.016,0a96.837,96.837,0,0,0,4.925,13.84c1,2.236,2.084,4.436,3.274,6.577q.9,1.6,1.864,3.166t2.039,3.057a46.249,46.249,0,0,0,4.691,5.651c.212.221.433.433.651.648s.443.424.666.633q.675.623,1.382,1.21a32.833,32.833,0,0,0,2.945,2.19c.255.169.515.33.772.495l.788.47c.268.147.534.3.8.442s.541.285.817.417a24.16,24.16,0,0,0,3.4,1.361,22.636,22.636,0,0,0,7.235,1.048Z" transform="translate(-560.007 -1036.324)" fill="#a65b3c"/>
            <path id="Trazado_702035" data-name="Trazado 702035" d="M183.892,1240.663a19.8,19.8,0,0,1-2,3.413,17.784,17.784,0,0,1-1.245,1.543,15.718,15.718,0,0,1-1.415,1.392,12.265,12.265,0,0,1-1.609,1.166,9.382,9.382,0,0,1-1.8.852,9.131,9.131,0,0,1-.958.267,8.148,8.148,0,0,1-.982.149,7.875,7.875,0,0,1-1.975-.088,8.259,8.259,0,0,0,3.872-.451,10.949,10.949,0,0,0,3.338-2.024,17.849,17.849,0,0,0,2.666-2.884c.4-.524.768-1.067,1.118-1.624s.683-1.125.982-1.713" transform="translate(-157.399 -1135.889)" fill="#a65b3c"/>
            <path id="Trazado_702036" data-name="Trazado 702036" d="M530.271,1282.292q.251-.474.462-.965c.071-.163.143-.326.209-.492l.1-.247.1-.249q.38-1,.68-2.023c.05-.171.1-.343.143-.514l.071-.257.063-.259.128-.518.112-.522.057-.261c.019-.087.032-.175.05-.262l.1-.526c.067-.35.112-.7.177-1.056q-.019.267-.044.534c-.018.178-.026.357-.052.534-.05.354-.088.711-.158,1.062l-.1.528-.117.525-.06.262-.069.26c-.047.173-.091.347-.141.519a18.846,18.846,0,0,1-.72,2.025,12.164,12.164,0,0,1-.99,1.9" transform="translate(-485.489 -1166.54)" fill="#a65b3c"/>
            <path id="Trazado_702037" data-name="Trazado 702037" d="M555.129,1458.145c.176.535.329,1.078.467,1.623s.265,1.094.383,1.645.223,1.1.315,1.659c.049.277.089.556.131.834s.077.558.107.838c-.13-.548-.25-1.1-.368-1.647l-.35-1.649-.346-1.65c-.117-.55-.227-1.1-.339-1.653" transform="translate(-508.248 -1335.004)" fill="#a65b3c"/>
            <path id="Trazado_702038" data-name="Trazado 702038" d="M428.521,1245.1a6.38,6.38,0,0,1-.885-.322c-.289-.125-.569-.268-.845-.42a11.941,11.941,0,0,1-1.566-1.055,13.155,13.155,0,0,1-2.558-2.771,16.239,16.239,0,0,1-.959-1.629c-.071-.141-.136-.284-.205-.426s-.137-.284-.2-.43l-.184-.435c-.06-.146-.109-.3-.164-.443a18.582,18.582,0,0,1-.551-1.8c-.075-.305-.135-.614-.2-.92s-.107-.619-.158-.928l.2.918c.08.3.152.608.239.909a18.737,18.737,0,0,0,.593,1.779,18.241,18.241,0,0,0,.764,1.709,16.2,16.2,0,0,0,.962,1.6,14.352,14.352,0,0,0,1.154,1.47,13.373,13.373,0,0,0,1.347,1.3,12.015,12.015,0,0,0,1.525,1.084,8.909,8.909,0,0,0,1.689.812" transform="translate(-384.575 -1129.344)" fill="#a65b3c"/>
            <path id="Trazado_702039" data-name="Trazado 702039" d="M626.766,1056.211a17.719,17.719,0,0,0-1.828-1.359q-.475-.313-.966-.6l-.493-.283-.5-.266c-.165-.093-.338-.172-.508-.256s-.339-.17-.514-.244l-.519-.232c-.086-.04-.175-.073-.263-.109l-.264-.106c-.35-.148-.709-.269-1.067-.4-.177-.07-.36-.121-.541-.179s-.363-.114-.544-.174q.278.063.556.131c.185.046.372.085.554.143l.548.166c.184.052.361.125.541.188a16.958,16.958,0,0,1,2.1.919,16.753,16.753,0,0,1,1.958,1.19,12.376,12.376,0,0,1,1.754,1.467" transform="translate(-566.504 -963.164)" fill="#a65b3c"/>
            <path id="Trazado_702040" data-name="Trazado 702040" d="M169.834,1268.527a5.558,5.558,0,0,1-.538.389c-.186.12-.376.235-.572.34a8.832,8.832,0,0,1-1.216.545,8.465,8.465,0,0,1-2.616.506,8.023,8.023,0,0,1-1.336-.075l-.331-.052-.327-.07c-.11-.021-.217-.051-.324-.081s-.215-.058-.321-.093a8.943,8.943,0,0,1-2.372-1.19,10.622,10.622,0,0,0,2.41,1.063,8.544,8.544,0,0,0,2.6.329,9.078,9.078,0,0,0,2.578-.461,10,10,0,0,0,1.221-.494,8.349,8.349,0,0,0,1.147-.656" transform="translate(-146.38 -1161.399)" fill="#a65b3c"/>
            <path id="Trazado_702041" data-name="Trazado 702041" d="M1282.062,1460.662q-.617,1.7-1.188,3.421t-1.115,3.445c-.718,2.3-1.395,4.622-2,6.958-.3,1.167-.6,2.338-.863,3.515s-.513,2.358-.735,3.543a58.6,58.6,0,0,0-.928,7.175c.037-1.207.139-2.412.271-3.613l.111-.9.128-.9c.041-.3.091-.6.139-.9s.094-.6.15-.894c.419-2.38.96-4.738,1.562-7.078.3-1.169.633-2.332.971-3.492s.69-2.315,1.066-3.463.759-2.293,1.16-3.433.819-2.272,1.266-3.394" transform="translate(-1167.542 -1337.309)" fill="#a65b3c"/>
            <path id="Trazado_702042" data-name="Trazado 702042" d="M1371.106,1627.616c-.014.669-.016,1.338,0,2.006s.032,1.337.068,2,.076,1.334.132,2,.126,1.33.209,1.992q.233,1.99.664,3.949a29.921,29.921,0,0,0,1.11,3.849c-.261-.616-.491-1.246-.7-1.883s-.382-1.285-.537-1.937-.291-1.309-.406-1.969-.217-1.323-.3-1.988c-.157-1.331-.262-2.669-.3-4.008q-.029-1-.021-2.009.008-.5.027-1c.012-.334.029-.669.056-1" transform="translate(-1255.239 -1490.163)" fill="#a65b3c"/>
            <path id="Trazado_702043" data-name="Trazado 702043" d="M1311.121,1901.684a9.266,9.266,0,0,1-.383,3.526,7.169,7.169,0,0,1-1.837,3.042,6.946,6.946,0,0,1-.689.578l-.373.251a2.146,2.146,0,0,1-.193.114l-.2.11c-.066.036-.13.074-.2.108l-.2.093-.2.093a2.122,2.122,0,0,1-.206.088l-.421.153-.106.037c-.036.011-.072.02-.108.03l-.216.058-.216.058a2.138,2.138,0,0,1-.217.052l-.439.084c-.073.013-.146.03-.22.04l-.222.027-.443.053c-.3.023-.594.03-.89.046-.3,0-.594-.009-.89-.016l.888-.029c.295-.029.59-.048.883-.084a10.431,10.431,0,0,0,1.729-.357c.285-.075.556-.188.832-.289a2.063,2.063,0,0,0,.2-.088l.2-.093.2-.093c.065-.034.128-.072.192-.108l.191-.109a2.109,2.109,0,0,0,.188-.114l.362-.248a6.911,6.911,0,0,0,.667-.569,6.685,6.685,0,0,0,1.1-1.365,8.047,8.047,0,0,0,.734-1.6,10.233,10.233,0,0,0,.506-3.486" transform="translate(-1192.276 -1741.086)" fill="#a65b3c"/>
            <path id="Trazado_702044" data-name="Trazado 702044" d="M557.652,452.556a3.854,3.854,0,0,1-.967,1.829,4.665,4.665,0,0,1-2.585,3.447l-2.374,3-2,4.207a53.607,53.607,0,0,0-1.888,6.413,11.981,11.981,0,0,0,1.039,6.016,6.832,6.832,0,0,1,1.253-2.013,4.153,4.153,0,0,1,.283-3.4.971.971,0,0,1,1.652-.022,4.063,4.063,0,0,0,1.842,1.577c.042.018.083.038.122.056a2.073,2.073,0,0,1,.432,3.414,10.718,10.718,0,0,0-2.205,2.978,7.556,7.556,0,0,1-3.723,3.467,47.165,47.165,0,0,1-11.445,2.858l-4.406,2.95a59.9,59.9,0,0,1-7.292-11.179l5.047-3.4a40.233,40.233,0,0,1,5.7-10.247,15.154,15.154,0,0,1,1.707-1.9,22.064,22.064,0,0,0,3.125-4.3,14.8,14.8,0,0,1,1.506-2.119l2.347-2.746a15.807,15.807,0,0,0,2.595-3.476,1.009,1.009,0,0,1,1.81.152,2.37,2.37,0,0,1,.16.762l2.975-2.344a1.01,1.01,0,0,1,1.631.875c-.159,2.047-2.657,3.843-2.812,3.953l1.92-1.185,3.042-.959a1.176,1.176,0,0,1,1.508,1.349" transform="translate(-481.024 -410.445)" fill="#ffc89f"/>
            <path id="Trazado_702045" data-name="Trazado 702045" d="M800.244,520.249a4.167,4.167,0,0,1-.827.8,5.433,5.433,0,0,1-.995.586,5.357,5.357,0,0,1-1.1.366,5.224,5.224,0,0,1-.57.094c-.191.023-.383.028-.574.042l.035-.016a18.158,18.158,0,0,0-1.651,1.775c-.127.156-.256.315-.371.475a4.631,4.631,0,0,0-.313.507,4.791,4.791,0,0,0-.241.543l-.212.569c-.28.76-.588,1.51-.918,2.251-.164.371-.335.738-.516,1.1s-.365.724-.568,1.076l-.019-.009c.321-.744.625-1.492.924-2.243s.6-1.5.9-2.251l.225-.563a4.118,4.118,0,0,1,.271-.557,3.937,3.937,0,0,1,.35-.51c.131-.16.269-.306.405-.458.552-.595,1.109-1.181,1.654-1.782l.011-.013.024,0c.187-.027.375-.044.56-.079s.37-.07.55-.122l.272-.071.268-.086c.09-.025.177-.06.265-.093s.177-.063.261-.1a6.349,6.349,0,0,0,.993-.529,5.225,5.225,0,0,0,.885-.7Z" transform="translate(-724.575 -476.302)" fill="#ff9b6c"/>
            <path id="Trazado_702046" data-name="Trazado 702046" d="M813.45,530.95c.2-.5.409-1,.63-1.492s.446-.982.689-1.464l.373-.719a6.387,6.387,0,0,1,.424-.7c.154-.225.329-.431.491-.646s.323-.432.485-.648.318-.436.482-.65c.082-.107.161-.216.247-.324s.178-.209.273-.308a5.444,5.444,0,0,1,.616-.547c.109-.085.224-.161.329-.237s.21-.16.311-.245a4.895,4.895,0,0,0,1.04-1.186,4.262,4.262,0,0,0,.563-1.487l.021,0a3.8,3.8,0,0,1-.045.4c-.012.067-.022.135-.036.2l-.052.2a3.857,3.857,0,0,1-.308.762,4.509,4.509,0,0,1-1.038,1.274c-.1.09-.214.174-.324.256l-.331.231a5.228,5.228,0,0,0-.606.511,7.2,7.2,0,0,0-.531.6c-.171.209-.348.412-.522.619s-.35.411-.519.621a7.98,7.98,0,0,0-.49.64,4.418,4.418,0,0,0-.375.708l-.321.743c-.22.493-.457.977-.7,1.459s-.492.96-.758,1.432Z" transform="translate(-744.754 -476.36)" fill="#ff9b6c"/>
            <path id="Trazado_702047" data-name="Trazado 702047" d="M791.283,729.332a10.834,10.834,0,0,1-.776-1.622,13.111,13.111,0,0,1-.531-1.723,10.56,10.56,0,0,1-.256-1.787,7.733,7.733,0,0,1,.114-1.8c0,.3-.031.6-.007.895.007.149,0,.3.018.445l.038.443c0,.074.014.147.026.221l.029.22c.019.147.037.294.067.439l.078.438.1.434c.133.578.3,1.149.48,1.715.094.282.19.564.3.843s.214.557.328.834" transform="translate(-723.017 -661.398)" fill="#ff9b6c"/>
            <path id="Trazado_702048" data-name="Trazado 702048" d="M804.756,769.806c-.205.348-.42.673-.625,1.008l-.309.5c-.1.167-.2.338-.318.506a2.59,2.59,0,0,1,.173-.58,3.541,3.541,0,0,1,.278-.537,3.7,3.7,0,0,1,.359-.485,2.516,2.516,0,0,1,.443-.412" transform="translate(-735.647 -704.796)" fill="#ff9b6c"/>
            <path id="Trazado_702049" data-name="Trazado 702049" d="M818.34,769.806a6.877,6.877,0,0,0,.593.733,4.316,4.316,0,0,0,.333.321c.116.105.242.2.369.306a1.356,1.356,0,0,1-.464-.173,1.663,1.663,0,0,1-.39-.31,1.773,1.773,0,0,1-.289-.405,1.318,1.318,0,0,1-.152-.471" transform="translate(-749.231 -704.796)" fill="#ff9b6c"/>
            <path id="Trazado_702050" data-name="Trazado 702050" d="M799.388,734.7a7.96,7.96,0,0,0,2.138-1.487,8.07,8.07,0,0,0,.855-.979,9.3,9.3,0,0,0,.694-1.1,12.435,12.435,0,0,1,1.513-2.165q.218-.249.452-.482c.077-.079.158-.153.238-.229s.154-.152.224-.234a2.079,2.079,0,0,0,.185-.264l.079-.141.061-.149.031-.074.022-.078.043-.155c.01-.053.016-.106.025-.159l.012-.079c0-.027,0-.053,0-.08l.005-.16c0-.053-.009-.106-.013-.159l-.007-.079c0-.026-.01-.052-.015-.078l-.032-.156c-.015-.051-.033-.1-.049-.151l-.025-.075c-.01-.024-.022-.048-.033-.072l-.066-.144-.083-.134-.042-.067c-.015-.021-.033-.041-.049-.062l-.1-.122c-.036-.038-.076-.073-.113-.109a.809.809,0,0,0-.119-.1l-.127-.093a1.277,1.277,0,0,0-.135-.079c-.046-.025-.09-.053-.138-.075l-.148-.067a4.273,4.273,0,0,1-1.129-.727,3.9,3.9,0,0,1-.461-.494c-.07-.088-.135-.18-.2-.274-.031-.048-.062-.1-.09-.133a.751.751,0,0,0-.094-.111.842.842,0,0,0-.517-.242.891.891,0,0,0-.561.135,1.1,1.1,0,0,0-.381.464,3.419,3.419,0,0,0-.247.591,4.057,4.057,0,0,0-.173,1.277,6.146,6.146,0,0,0,.175,1.295l-.02.006a5.47,5.47,0,0,1-.26-1.3,4.008,4.008,0,0,1,.122-1.327,3.6,3.6,0,0,1,.242-.629,2.119,2.119,0,0,1,.173-.3,1.291,1.291,0,0,1,.118-.137,1.128,1.128,0,0,1,.142-.113,1.054,1.054,0,0,1,.329-.151,1.154,1.154,0,0,1,.361-.03,1.061,1.061,0,0,1,.655.3.869.869,0,0,1,.119.139c.038.052.066.1.094.14.059.089.121.176.187.26a4.216,4.216,0,0,0,.433.471,4.068,4.068,0,0,0,1.064.709l.15.071c.051.024.1.056.15.083a1.478,1.478,0,0,1,.147.09l.136.105a.937.937,0,0,1,.127.116c.04.041.082.081.12.123l.1.136c.017.023.035.045.051.069l.043.074.085.148.067.157c.011.026.023.052.032.079l.023.082c.015.055.032.109.046.164l.027.168c0,.028.01.056.012.084l0,.085c0,.057.006.113.006.169l-.012.169a2.2,2.2,0,0,1-.518,1.218c-.073.084-.156.161-.234.238s-.162.146-.239.224c-.158.151-.3.315-.446.48a9.2,9.2,0,0,0-.768,1.061c-.233.369-.445.751-.642,1.141a7.332,7.332,0,0,1-1.591,2.116,6.936,6.936,0,0,1-2.241,1.389Z" transform="translate(-731.879 -661.629)" fill="#ff9b6c"/>
            <path id="Trazado_702051" data-name="Trazado 702051" d="M717.932,867.366q.867-.247,1.733-.48c.577-.159,1.154-.318,1.727-.486s1.146-.339,1.717-.518,1.138-.369,1.706-.565a15.974,15.974,0,0,1-1.653.719c-.563.212-1.135.4-1.712.565s-1.159.316-1.747.443-1.178.237-1.772.323" transform="translate(-657.302 -792.241)" fill="#ff9b6c"/>
            <path id="Trazado_702052" data-name="Trazado 702052" d="M683.846,780.346a10.321,10.321,0,0,1,1.552-1.63,7.2,7.2,0,0,1,1.935-1.175,5.849,5.849,0,0,1,1.1-.313,5.435,5.435,0,0,1,2.258.078,6.636,6.636,0,0,1,1.063.372,6.963,6.963,0,0,0-2.188-.367,5.865,5.865,0,0,0-2.152.424,8,8,0,0,0-1.91,1.108,15.148,15.148,0,0,0-1.653,1.5" transform="translate(-626.095 -711.514)" fill="#ff9b6c"/>
            <path id="Trazado_702053" data-name="Trazado 702053" d="M672.027,667.341a15.343,15.343,0,0,0,1.312-3.153,13.685,13.685,0,0,0,.411-1.664,16.365,16.365,0,0,0,.19-1.707c.037-.572.071-1.145.124-1.717s.113-1.146.215-1.714a9.374,9.374,0,0,1,1.167-3.242l.018.01a12.612,12.612,0,0,0-.966,3.271c-.1.561-.173,1.127-.239,1.7s-.128,1.139-.205,1.708-.154,1.138-.237,1.707-.17,1.139-.31,1.7a9.273,9.273,0,0,1-1.462,3.118Z" transform="translate(-615.274 -598.9)" fill="#ff9b6c"/>
            <path id="Trazado_702054" data-name="Trazado 702054" d="M764.943,503.041a2.634,2.634,0,0,1-.283.291,3.814,3.814,0,0,1-.315.257c-.109.082-.225.154-.331.23a3.785,3.785,0,0,0-.306.247,3.408,3.408,0,0,0-.517.587c-.074.109-.139.217-.206.336s-.139.232-.212.346q-.225.338-.479.655c-.17.21-.348.413-.532.61s-.38.385-.574.568a3.026,3.026,0,0,0-.483.628,3.425,3.425,0,0,0-.31.723c-.078.257-.158.514-.242.769-.167.511-.337,1.021-.525,1.525a21.085,21.085,0,0,1-1.327,2.941l-.019-.009c.412-.992.773-2,1.136-3.009l.549-1.512.271-.758a3.183,3.183,0,0,1,.37-.732,3.525,3.525,0,0,1,.531-.618,6.357,6.357,0,0,0,.573-.562,8.13,8.13,0,0,0,.914-1.311c.068-.114.133-.231.2-.346a3.281,3.281,0,0,1,.216-.35,3.187,3.187,0,0,1,.9-.845c.117-.075.234-.135.347-.205a4.546,4.546,0,0,0,.645-.47Z" transform="translate(-694.245 -460.546)" fill="#ff9b6c"/>
            <path id="Trazado_702055" data-name="Trazado 702055" d="M732.066,490.7l.9-2.125c.148-.354.292-.71.436-1.065s.287-.711.4-1.076l0-.014.008-.008c.222-.225.431-.465.632-.711s.39-.5.569-.763.345-.532.5-.807.3-.556.419-.845l.005-.013.012-.013c.3-.336.583-.689.855-1.048.137-.179.272-.36.4-.544s.26-.368.383-.556a9.257,9.257,0,0,0,.665-1.171,4.134,4.134,0,0,0,.237-.628,2.287,2.287,0,0,0,.1-.663l.021,0A2.854,2.854,0,0,1,738.39,480a7.5,7.5,0,0,1-.621,1.227q-.181.292-.377.573c-.133.186-.269.37-.41.55-.285.357-.579.7-.894,1.039l.017-.026a7.607,7.607,0,0,1-.469.842q-.264.4-.552.784c-.386.508-.782,1-1.193,1.495l.012-.021c-.093.376-.209.746-.337,1.111s-.281.72-.437,1.073-.323.7-.5,1.046-.356.685-.55,1.018Z" transform="translate(-670.243 -438.231)" fill="#ff9b6c"/>
            <path id="Trazado_702056" data-name="Trazado 702056" d="M730.736,633.019a2.239,2.239,0,0,0-.521-.73,3.506,3.506,0,0,0-.722-.528c-.129-.076-.264-.144-.4-.213s-.276-.126-.42-.179a3.973,3.973,0,0,0-.89-.215,5.392,5.392,0,0,0-.915-.023c-.306,0-.616.013-.928,0a3.626,3.626,0,0,1-.926-.173,2.73,2.73,0,0,1-.826-.441l.011-.018a4.351,4.351,0,0,0,.862.29,6.119,6.119,0,0,0,.893.12c.3.024.608.033.917.05a7.034,7.034,0,0,1,.923.127c.3.056.606.12.908.194a3.725,3.725,0,0,1,.88.323,2.751,2.751,0,0,1,.742.584,1.734,1.734,0,0,1,.43.831Z" transform="translate(-663.032 -577.249)" fill="#ff9b6c"/>
            <path id="Trazado_702057" data-name="Trazado 702057" d="M715.958,607.483s-1.724,5.229-.908,8.026,2.29,1.984,2.29,1.984-2.7-5.4-.981-10.081Z" transform="translate(-654.463 -556.117)" fill="#1b1b2f"/>
            <path id="Trazado_702058" data-name="Trazado 702058" d="M1093.937,715.968l11.375-8.547s.836,6.119-3.133,10.071a5.072,5.072,0,0,0-1.377,5.256s-3.116-.577-1.949-3.566l-.006.008c-.128.163-1.3.991-1.624,4a1.752,1.752,0,0,1-1.4-1.12,1.69,1.69,0,0,1,.186-1.245,2.7,2.7,0,0,1-2.726.239l1.384-1.423a5.391,5.391,0,0,1-3.093,1.371,4.645,4.645,0,0,1-3.713-.934Z" transform="translate(-995.987 -647.679)" fill="#1b1b2f"/>
            <path id="Trazado_702059" data-name="Trazado 702059" d="M850.774,811.616l-2.4,17.4c10.247,3.331,23.861,1.113,23.861,1.113l2.106-15.266Z" transform="translate(-776.728 -743.075)" fill="#ffc89f"/>
            <path id="Trazado_702060" data-name="Trazado 702060" d="M797.641,470.2h0a15.843,15.843,0,0,0,17.86-13.529l2.645-19.173a15.843,15.843,0,0,0-31.389-4.331l-2.645,19.173a15.843,15.843,0,0,0,13.529,17.86" transform="translate(-717.755 -384.064)" fill="#ffc89f"/>
            <path id="Trazado_702061" data-name="Trazado 702061" d="M862.065,982.277a9.781,9.781,0,0,1-2.253.2,10.348,10.348,0,0,1-2.251-.311,10.894,10.894,0,0,1-1.087-.339,10.44,10.44,0,0,1-1.041-.457,9.633,9.633,0,0,1-.981-.57,6.7,6.7,0,0,1-.89-.7,11.846,11.846,0,0,0,1.956,1.091c.341.149.686.29,1.038.41s.707.229,1.068.319.724.167,1.091.227.737.1,1.108.133a15.8,15.8,0,0,0,2.243-.007" transform="translate(-781.478 -897.334)" fill="#ff9b6c"/>
            <path id="Trazado_702062" data-name="Trazado 702062" d="M865.77,665.173a1.426,1.426,0,1,0,1.608-1.218,1.426,1.426,0,0,0-1.608,1.218" transform="translate(-792.643 -607.871)" fill="#1b1b2f"/>
            <path id="Trazado_702063" data-name="Trazado 702063" d="M843.715,650.392a4.518,4.518,0,0,1,.724-.323c.124-.044.25-.083.375-.12s.254-.066.383-.086a4.48,4.48,0,0,1,1.554-.028,2.81,2.81,0,0,1,.381.077l.19.044c.063.016.122.044.184.064l.368.131c.117.059.234.115.353.171l.177.085.167.1.335.21c.218.148.419.32.638.475-.189-.186-.38-.374-.582-.55l-.325-.237-.163-.118-.176-.1c-.117-.066-.236-.132-.355-.195s-.251-.1-.377-.149c-.063-.024-.126-.051-.191-.069l-.2-.049a2.941,2.941,0,0,0-.4-.085,4.022,4.022,0,0,0-1.614.074,3.97,3.97,0,0,0-1.451.672" transform="translate(-772.463 -594.737)" fill="#1b1b2f"/>
            <path id="Trazado_702064" data-name="Trazado 702064" d="M1041.339,689.395a1.426,1.426,0,1,0,1.608-1.218,1.426,1.426,0,0,0-1.608,1.218" transform="translate(-953.385 -630.048)" fill="#1b1b2f"/>
            <path id="Trazado_702065" data-name="Trazado 702065" d="M1019.283,674.614a4.515,4.515,0,0,1,.724-.323c.124-.044.25-.083.375-.12s.254-.066.383-.086a4.48,4.48,0,0,1,1.554-.029,2.829,2.829,0,0,1,.382.077l.19.044c.063.016.122.044.184.064l.368.131c.117.059.234.115.353.171l.178.085.167.1.334.21c.219.148.419.32.638.475-.189-.186-.38-.375-.582-.55l-.325-.237-.163-.118-.176-.1c-.117-.066-.236-.132-.355-.195s-.251-.1-.377-.149c-.063-.024-.126-.051-.191-.069l-.2-.049a2.94,2.94,0,0,0-.4-.085,4.023,4.023,0,0,0-1.613.074,3.971,3.971,0,0,0-1.451.672" transform="translate(-933.204 -616.914)" fill="#1b1b2f"/>
            <path id="Trazado_702066" data-name="Trazado 702066" d="M922.358,743.127c-.206.582-.393,1.171-.576,1.76s-.357,1.181-.527,1.774a3.97,3.97,0,0,0-.19.923,2.512,2.512,0,0,0,.119.942,1.638,1.638,0,0,0,.527.786c.252.18.5.363.755.537-.228-.208-.466-.406-.7-.61a1.529,1.529,0,0,1-.446-.756,2.578,2.578,0,0,1-.079-.887,3.92,3.92,0,0,1,.193-.883c.166-.594.333-1.188.485-1.786s.305-1.2.436-1.8" transform="translate(-843.277 -680.37)" fill="#1b1b2f"/>
            <path id="Trazado_702067" data-name="Trazado 702067" d="M917.88,844.167a2.688,2.688,0,0,0,1.159,1.567,2.854,2.854,0,0,0,2.083.414,3,3,0,0,0,1.793-1.081,3.046,3.046,0,0,0,.478-.861,2.325,2.325,0,0,0,.134-.983c-.274.12-.522.232-.752.337-.291.133-.554.251-.806.352a6.113,6.113,0,0,1-1.191.365,4.313,4.313,0,0,1-.559.063c-.1.009-.2,0-.309.009-.106-.011-.219,0-.337-.014-.141-.006-.289-.021-.445-.038-.364-.039-.77-.095-1.249-.13" transform="translate(-840.365 -772.013)" fill="#e43f5a"/>
            <path id="Trazado_702068" data-name="Trazado 702068" d="M932.672,847.945a2.025,2.025,0,0,0,1.991.719,2.174,2.174,0,0,0,1.377-.881,2.12,2.12,0,0,0,.277-.575c-.291.133-.554.25-.806.352a6.108,6.108,0,0,1-1.19.365,4.3,4.3,0,0,1-.559.063c-.1.009-.2,0-.309.009-.106-.011-.219,0-.337-.014-.141-.006-.289-.021-.445-.038" transform="translate(-853.908 -775.661)" fill="#fff"/>
            <path id="Trazado_702069" data-name="Trazado 702069" d="M850.147,594.665c.656.052,1.155.079,1.626.129s.874.088,1.281.16a.7.7,0,0,1,.153.024l.154.029c.052.007.1.015.157.021s.1.025.156.034c.1.023.214.038.326.055s.22.053.338.073c.058.011.12.018.181.027s.117.033.18.044c.123.028.253.051.389.072a6.065,6.065,0,0,0,.89.137,2.532,2.532,0,0,0-.132-.462,2.6,2.6,0,0,0-.2-.426c-.084-.128-.174-.254-.271-.375-.047-.063-.1-.12-.15-.179s-.113-.107-.172-.157c-.118-.1-.242-.2-.37-.293s-.276-.156-.42-.226c-.072-.035-.144-.071-.219-.1l-.231-.072a2.766,2.766,0,0,0-.473-.109,3.24,3.24,0,0,0-1.886.263,1.7,1.7,0,0,0-.21.112c-.068.04-.136.079-.2.123a3.2,3.2,0,0,0-.366.3,2.08,2.08,0,0,0-.531.8" transform="translate(-778.352 -542.948)" fill="#1b1b2f"/>
            <path id="Trazado_702070" data-name="Trazado 702070" d="M1025.716,618.887c.656.052,1.155.079,1.626.129s.874.088,1.281.16a.7.7,0,0,1,.153.024l.153.028c.052.007.1.015.156.021s.1.025.156.034c.1.024.214.038.326.055s.22.053.338.073c.058.011.12.018.181.027s.117.033.18.044c.123.028.253.051.389.072a6.072,6.072,0,0,0,.89.137,2.541,2.541,0,0,0-.132-.462,2.6,2.6,0,0,0-.2-.426c-.084-.128-.174-.254-.271-.375-.047-.063-.1-.12-.15-.179s-.113-.107-.172-.157c-.118-.1-.242-.2-.37-.293s-.276-.156-.42-.226c-.072-.035-.144-.071-.219-.1l-.231-.072a2.767,2.767,0,0,0-.473-.109,3.241,3.241,0,0,0-1.886.263,1.715,1.715,0,0,0-.21.112c-.068.04-.136.079-.2.123a3.207,3.207,0,0,0-.366.3,2.079,2.079,0,0,0-.531.8" transform="translate(-939.094 -565.124)" fill="#1b1b2f"/>
            <path id="Trazado_702071" data-name="Trazado 702071" d="M722.129,332.618a4.66,4.66,0,0,0-5.236-3.354c-1.761.3-3.993,1.426-6.548,4.357a22.531,22.531,0,0,0-2.392,3.358c-1.261,2.135-4.886,7.237-11.257,8.375l-1.857,9.113-.213-.133a18.507,18.507,0,0,1-5.188-12.277q-.02-.534-.024-1.091a2.447,2.447,0,0,1-1.094,1.924,2.805,2.805,0,0,1-2.3.123s2.968-2.864,2.581-8.767c-.35-5.332,2.341-8.357,7.392-10.27,0,0-3.49-.033-3.655-3.3,0,0,7.066,4.354,13.061-1.033,7.361-6.614,15.32-4.333,16.223,2.661,0,0,2.259-3.606,4.869-.945s5.012,6.746,9.486,9.43-.778,14.942,6.035,18.777a3.687,3.687,0,0,1-4.8-3.285s2.708,10.025-11.351,14.578l2.228-9.013a8.779,8.779,0,0,1-5.391-8.457c-.063-5.111.18-8.12-.572-10.776" transform="translate(-628.088 -289.048)" fill="#1b1b2f"/>
            <path id="Trazado_702072" data-name="Trazado 702072" d="M1107.177,361.3a7.8,7.8,0,0,1,1.358-1.458,3.2,3.2,0,0,1,1.649-.753,2.426,2.426,0,0,1,.859.074,3.377,3.377,0,0,1,.82.361,8.232,8.232,0,0,1,1.507,1.186,11.491,11.491,0,0,1,2.351,3.267c.305.6.536,1.248.893,1.872a5.8,5.8,0,0,0,1.413,1.617,12.72,12.72,0,0,0,1.761,1.156l.456.254.462.237c.308.16.617.311.931.454s.6.27.871.425a3.9,3.9,0,0,1,.721.529,2.615,2.615,0,0,1,.515.678,2.845,2.845,0,0,1,.27.825,6.4,6.4,0,0,1-.036,1.9c-.089.657-.227,1.323-.341,2a16.665,16.665,0,0,0-.253,2.06,7.182,7.182,0,0,0,.172,2.07l.094-.014a12.366,12.366,0,0,1,.611-3.976c.182-.654.369-1.314.516-2a6.776,6.776,0,0,0,.16-2.17,3.56,3.56,0,0,0-.317-1.126,3.385,3.385,0,0,0-.686-.966,4.474,4.474,0,0,0-.913-.693,9.079,9.079,0,0,0-.968-.469,23.868,23.868,0,0,1-3.568-1.8c-.139-.087-.267-.185-.4-.277s-.256-.2-.383-.3a4.971,4.971,0,0,1-.671-.7,12.787,12.787,0,0,1-1.042-1.73c-.327-.6-.666-1.2-1-1.8a17.144,17.144,0,0,0-1.116-1.767,5.73,5.73,0,0,0-1.572-1.483,3.6,3.6,0,0,0-1.058-.431,2.832,2.832,0,0,0-1.17-.035,3.03,3.03,0,0,0-1.071.415,3.967,3.967,0,0,0-.842.71,5.107,5.107,0,0,0-.63.861,4.928,4.928,0,0,0-.438.953Z" transform="translate(-1013.597 -328.018)" fill="#1b1b2f"/>
            <path id="Trazado_702073" data-name="Trazado 702073" d="M934.872,480.516a2.63,2.63,0,0,0-1.02-.744,3.985,3.985,0,0,0-1.244-.3,5.768,5.768,0,0,0-.64-.018c-.212.016-.425.029-.635.064a5.735,5.735,0,0,0-1.227.316,12.87,12.87,0,0,0-2.2,1.179c-.7.438-1.384.894-2.061,1.371a16.644,16.644,0,0,0-1.912,1.584,21.851,21.851,0,0,0-1.7,1.808,23.533,23.533,0,0,0-2.739,4.115l.048.032c1.063-1.26,2.084-2.53,3.156-3.753l.4-.463.4-.456c.263-.31.545-.6.818-.9s.561-.587.852-.87l.431-.431.443-.421A10.517,10.517,0,0,1,928,481.173a10.024,10.024,0,0,1,2.253-.886,8.408,8.408,0,0,1,2.333-.372,3.857,3.857,0,0,1,2.246.642Z" transform="translate(-841.842 -438.964)" fill="#1b1b2f"/>
            <path id="Trazado_702074" data-name="Trazado 702074" d="M1107.711,513.3a13.286,13.286,0,0,1-2.992-1.057,9,9,0,0,1-1.324-.826,8.479,8.479,0,0,1-1.139-1.05,7.35,7.35,0,0,1-.917-1.261,6.272,6.272,0,0,1-.6-1.461,8.191,8.191,0,0,1-.159-3.164,20.507,20.507,0,0,1,.694-3.1,17.709,17.709,0,0,0,.705-3.183,10.723,10.723,0,0,0-.107-3.282,7.172,7.172,0,0,0-.211-.8,5.6,5.6,0,0,0-.305-.768,4.717,4.717,0,0,0-.418-.711,2.889,2.889,0,0,0-.553-.607l-.037.043a4.338,4.338,0,0,1,.734,1.387,7.783,7.783,0,0,1,.341,1.529,12.8,12.8,0,0,1-.052,3.136,23.332,23.332,0,0,1-.61,3.112,14.482,14.482,0,0,0-.479,3.22,12.988,12.988,0,0,0,.273,3.233,7.232,7.232,0,0,0,1.335,2.986,6.008,6.008,0,0,0,1.2,1.146,7.486,7.486,0,0,0,1.437.82,8.777,8.777,0,0,0,3.172.716Z" transform="translate(-1007.355 -450.473)" fill="#1b1b2f"/>
            <path id="Trazado_702075" data-name="Trazado 702075" d="M712.887,422.614a8.074,8.074,0,0,0,.13-.956c.031-.315.065-.627.08-.937s.054-.618.064-.926a8.282,8.282,0,0,0,.039-.922,8.855,8.855,0,0,1,.1-1.863,4.479,4.479,0,0,1,.294-.885,4.946,4.946,0,0,1,.479-.8,8.488,8.488,0,0,1,.577-.708c.107-.107.2-.225.3-.331l.315-.313a8.352,8.352,0,0,1,1.418-1.031,10.7,10.7,0,0,1,1.6-.787,13.948,13.948,0,0,1,1.78-.551l.005-.1a4.95,4.95,0,0,0-1.973-.08,5.84,5.84,0,0,0-1.912.629,5.551,5.551,0,0,0-1.565,1.293q-.16.2-.314.4c-.1.137-.188.279-.274.423a3.979,3.979,0,0,0-.227.447,4.443,4.443,0,0,0-.189.46c-.23.619-.411,1.233-.609,1.844a17.985,17.985,0,0,0-.6,1.861,6.156,6.156,0,0,0-.1.97c0,.324.006.649.041.971s.081.642.152.959a7.759,7.759,0,0,0,.285.935Z" transform="translate(-652.16 -376.633)" fill="#1b1b2f"/>
            <path id="Trazado_702076" data-name="Trazado 702076" d="M1140.154,733.583l-.816-.113a2.947,2.947,0,0,1-2.517-3.323l.719-5.212a2.947,2.947,0,0,1,3.323-2.517l.816.113a2.947,2.947,0,0,1,2.517,3.323l-.719,5.212a2.947,2.947,0,0,1-3.323,2.517" transform="translate(-1040.79 -661.384)" fill="#ffc89f"/>
            <path id="Trazado_702077" data-name="Trazado 702077" d="M1173.417,759.949a1.547,1.547,0,0,1,.719.653,2.207,2.207,0,0,1,.267.9,3.3,3.3,0,0,1-.372,1.82,2.171,2.171,0,0,1-.578.687,1.356,1.356,0,0,1-.366.207.323.323,0,0,1-.121.019c-.021,0-.044-.009-.074-.052a.967.967,0,0,1-.11-.4,3.822,3.822,0,0,1-.013-.493c.008-.337.044-.679.079-1.025a5.066,5.066,0,0,0-.345.99,3.275,3.275,0,0,0-.081.534,1.193,1.193,0,0,0,.092.6.558.558,0,0,0,.3.281.681.681,0,0,0,.387.019,1.674,1.674,0,0,0,.552-.248,2.4,2.4,0,0,0,.772-.846,3.143,3.143,0,0,0,.321-2.169,2.669,2.669,0,0,0-.176-.53,2.183,2.183,0,0,0-.307-.468,1.412,1.412,0,0,0-.949-.484" transform="translate(-1073.407 -695.771)" fill="#ff9b6c"/>
            <path id="Trazado_702078" data-name="Trazado 702078" d="M1171.015,754.552a4.412,4.412,0,0,0,.223-.592c.058-.185.109-.362.167-.513a.95.95,0,0,1,.206-.356,1.028,1.028,0,0,1,.5-.2.671.671,0,0,0-.69-.21.759.759,0,0,0-.355.229,1.084,1.084,0,0,0-.2.332,1.472,1.472,0,0,0-.08.68,1.364,1.364,0,0,0,.223.629" transform="translate(-1071.909 -689.095)" fill="#ff9b6c"/>
            <path id="Trazado_702079" data-name="Trazado 702079" d="M1261.927,675.685c.023.6.084,1.162.151,1.724q.049.421.106.837c.034.279.078.554.139.83a9.238,9.238,0,0,1,.322,1.68,4.746,4.746,0,0,1-.257,1.679l-.139.4c-.054.131-.1.262-.151.393s-.105.258-.151.387-.1.257-.155.382c-.1.255-.234.494-.351.739-.137.234-.252.479-.394.71a18.824,18.824,0,0,1-1.919,2.745l.056.077c.138-.056.275-.117.41-.182a2.977,2.977,0,0,0,.394-.217c.127-.079.254-.161.379-.247s.239-.184.354-.282a6.13,6.13,0,0,0,.653-.636,6.3,6.3,0,0,0,.545-.735,5.8,5.8,0,0,0,.426-.81,8.493,8.493,0,0,0,.3-.862c.044-.145.086-.29.115-.438a4.429,4.429,0,0,0,.083-.444c.019-.149.035-.3.046-.448l.017-.449c.007-.6,0-1.177.05-1.759s.161-1.173.161-1.769a4.5,4.5,0,0,0-.093-.882,7.471,7.471,0,0,0-.218-.859,5.384,5.384,0,0,0-.787-1.6Z" transform="translate(-1152.794 -618.592)" fill="#1b1b2f"/>
            <path id="Trazado_702080" data-name="Trazado 702080" d="M852.954,313.054a4.214,4.214,0,0,0-1.078-.231,6.5,6.5,0,0,0-1.1-.017,7.515,7.515,0,0,0-1.089.157l-.269.058c-.088.026-.177.05-.263.079a5.364,5.364,0,0,0-.517.188,7.962,7.962,0,0,0-.968.521c-.154.1-.314.183-.465.283s-.3.2-.458.287c-.078.045-.155.091-.234.132l-.228.141c-.153.093-.308.182-.466.269-.313.176-.618.367-.938.542-.159.089-.3.2-.459.294s-.3.2-.453.308c-.292.2-.56.408-.834.617-.14.1-.286.184-.427.278s-.278.2-.428.269c-.3.154-.577.336-.877.464l-.22.111c-.073.037-.15.06-.224.092l-.225.09-.113.047-.115.034a4.558,4.558,0,0,1-.935.2,3.256,3.256,0,0,1-1.925-.363l-.069.066a2.737,2.737,0,0,0,1.984,1.047,4.514,4.514,0,0,0,2.265-.4,5.822,5.822,0,0,0,.988-.549c.308-.211.593-.448.879-.68.267-.249.539-.5.789-.756s.471-.512.72-.758c.129-.117.255-.239.388-.354a3.686,3.686,0,0,1,.407-.333c.143-.1.289-.2.438-.29.074-.047.148-.094.225-.136s.158-.077.237-.114q.238-.111.483-.206c.165-.059.335-.106.5-.153.334-.1.68-.161,1.011-.25.167-.042.335-.075.5-.121.083-.02.164-.048.246-.07s.165-.042.248-.063c.329-.091.662-.166,1-.247.671-.151,1.35-.279,2.06-.393Z" transform="translate(-766.842 -286.376)" fill="#1b1b2f"/>
            <path id="Trazado_702081" data-name="Trazado 702081" d="M782.543,382.024a8.207,8.207,0,0,0,2.986.989,8.933,8.933,0,0,0,4.692-.609c.248-.1.483-.222.722-.336.231-.13.468-.25.688-.4a10.625,10.625,0,0,0,2.376-2.064,15.3,15.3,0,0,1-2.528,1.809c-.11.066-.225.125-.341.181l-.344.175c-.236.1-.466.216-.708.3a9.061,9.061,0,0,1-1.468.446,10.023,10.023,0,0,1-3.057.2,10.881,10.881,0,0,1-1.529-.237,9.113,9.113,0,0,1-1.49-.458" transform="translate(-716.457 -347.546)" fill="#1f4168"/>
            <path id="Trazado_702082" data-name="Trazado 702082" d="M712.441,555.629a2.312,2.312,0,0,0,.809-.639,4,4,0,0,0,.56-.881,6.126,6.126,0,0,0,.539-2.007,4.426,4.426,0,0,0,.037-.517l.019-.517c-.022-.344-.023-.688-.064-1.029s-.088-.68-.154-1.015-.153-.667-.246-.995c.009.343.035.681.06,1.018s.023.676.043,1.011c.005.336,0,.671,0,1.006l-.03.5a4.324,4.324,0,0,1-.044.5l-.058.495-.1.487a6.716,6.716,0,0,1-.278.95,4.755,4.755,0,0,1-.437.887,2.8,2.8,0,0,1-.66.75" transform="translate(-652.275 -501.747)" fill="#1f4168"/>
            <path id="Trazado_702083" data-name="Trazado 702083" d="M771.9,646.345a19.541,19.541,0,0,1-2.107.976,14.474,14.474,0,0,1-2.2.677,9.769,9.769,0,0,1-1.128.191,9.084,9.084,0,0,1-3.427-.234,6.144,6.144,0,0,0,2.274.6,8.169,8.169,0,0,0,2.363-.184,10.265,10.265,0,0,0,2.232-.777,9.469,9.469,0,0,0,1.989-1.248" transform="translate(-698.605 -591.761)" fill="#1f4168"/>
            <path id="Trazado_702084" data-name="Trazado 702084" d="M887.725,442.362a7.055,7.055,0,0,0-2.117.916,9.261,9.261,0,0,0-1.768,1.508,19.724,19.724,0,0,0-2.625,3.81c-.747,1.346-1.422,2.721-2.172,4.049a19.313,19.313,0,0,1-1.227,1.925,8.663,8.663,0,0,1-1.557,1.668,7.872,7.872,0,0,0,1.7-1.552A16.207,16.207,0,0,0,879.3,452.8c.81-1.312,1.5-2.684,2.249-4.016.368-.669.753-1.327,1.165-1.966a16.5,16.5,0,0,1,1.348-1.832,8.582,8.582,0,0,1,3.664-2.621" transform="translate(-802.258 -405.004)" fill="#1f4168"/>
            <path id="Trazado_702085" data-name="Trazado 702085" d="M1012.041,435.689c.373-.049.738-.114,1.1-.177l.551-.049c.183-.01.364-.049.548-.043s.365,0,.547,0a2.7,2.7,0,0,1,.273,0l.271.029c.179.024.362.023.539.059l.529.112a5.747,5.747,0,0,1,1.945.9,5.508,5.508,0,0,1,1.485,1.6,4.255,4.255,0,0,0-1.3-1.834l-.22-.186-.24-.159-.242-.158c-.084-.046-.171-.087-.257-.131a3.271,3.271,0,0,0-.529-.228l-.273-.093a1.771,1.771,0,0,0-.276-.082l-.565-.11c-.189-.033-.38-.035-.571-.05l-.286-.016c-.1-.007-.19.008-.285.011-.19.01-.379.024-.568.039-.376.043-.744.134-1.112.2-.359.116-.716.23-1.065.36" transform="translate(-926.574 -398.332)" fill="#1f4168"/>
            <path id="Trazado_702086" data-name="Trazado 702086" d="M1282.141,649.07a8.5,8.5,0,0,0,.336-2.228v-.286c0-.1-.015-.19-.021-.285s-.014-.19-.027-.285l-.044-.283a9.417,9.417,0,0,0-.272-1.1c-.228-.716-.47-1.409-.652-2.123s-.309-1.443-.437-2.182a10.388,10.388,0,0,0,.146,2.245c.063.372.155.739.254,1.1s.219.717.325,1.071a8.836,8.836,0,0,1,.433,2.14,17.114,17.114,0,0,1-.04,2.218" transform="translate(-1172.833 -586.221)" fill="#1f4168"/>
            <path id="Trazado_702087" data-name="Trazado 702087" d="M1154.589,599.516a11.226,11.226,0,0,1-1.333-1.095,14.822,14.822,0,0,1-1.179-1.247,14.244,14.244,0,0,1-1.872-2.85c-.133-.252-.245-.514-.362-.773s-.216-.527-.308-.8a14.7,14.7,0,0,1-.488-1.64,19.423,19.423,0,0,1-.466-3.411,13.291,13.291,0,0,0,.175,3.473,12.51,12.51,0,0,0,1.108,3.318,12.277,12.277,0,0,0,1.991,2.876,10.326,10.326,0,0,0,2.733,2.146" transform="translate(-1051.543 -538.072)" fill="#1f4168"/>
            <path id="Trazado_702088" data-name="Trazado 702088" d="M1111.826,386.272a6.824,6.824,0,0,1,.481-1.591,2.007,2.007,0,0,1,.45-.625.932.932,0,0,1,.647-.248,2.752,2.752,0,0,1,1.439.577c.457.309.888.669,1.334,1.024a6.634,6.634,0,0,0-1.156-1.262,4.074,4.074,0,0,0-.729-.491,2.1,2.1,0,0,0-.894-.229,1.284,1.284,0,0,0-.885.364,2.082,2.082,0,0,0-.479.775,4.082,4.082,0,0,0-.209,1.707" transform="translate(-1017.918 -351.046)" fill="#1f4168"/>
            <path id="Trazado_702089" data-name="Trazado 702089" d="M968.734,375.054a6.083,6.083,0,0,0-1.879-3.149,7.692,7.692,0,0,0-1.525-1.086,9.567,9.567,0,0,0-1.732-.708,9.132,9.132,0,0,0-3.7-.315,8.33,8.33,0,0,0-3.475,1.212,8.681,8.681,0,0,1,1.716-.622,10.353,10.353,0,0,1,1.788-.3,9.834,9.834,0,0,1,3.566.386,8.749,8.749,0,0,1,3.167,1.654,7.212,7.212,0,0,1,1.227,1.318,5.976,5.976,0,0,1,.849,1.607" transform="translate(-875.65 -338.506)" fill="#1f4168"/>
            <path id="Trazado_702090" data-name="Trazado 702090" d="M759.1,513.273a3.04,3.04,0,0,1-.627-1.466,3.975,3.975,0,0,1,.113-1.57,6.226,6.226,0,0,1,.235-.766c.1-.25.211-.5.321-.745.13-.239.242-.489.375-.73s.274-.478.4-.729c-.193.2-.374.413-.556.626s-.324.457-.481.691a4.159,4.159,0,0,0-.2.371c-.063.127-.134.25-.19.38l-.149.4a2.648,2.648,0,0,0-.122.411,4.55,4.55,0,0,0-.124.854l.016.435c.021.144.046.287.075.429a2.42,2.42,0,0,0,.917,1.409" transform="translate(-694.072 -464.427)" fill="#1f4168"/>
            <path id="Trazado_702091" data-name="Trazado 702091" d="M771.2,563.554a2.2,2.2,0,0,1-.683-.219,1.559,1.559,0,0,1-.507-.426,2.029,2.029,0,0,1-.282-.6c-.033-.107-.048-.223-.077-.333-.01-.116-.028-.231-.043-.348l-.338-.009c-.008.235-.006.47,0,.706a6.561,6.561,0,0,0,.057.71,6.559,6.559,0,0,0,.166-.693c.045-.232.083-.464.112-.7l-.338-.009c0,.129.006.259.015.389a3.891,3.891,0,0,0,.077.389,1.827,1.827,0,0,0,.384.712,1.452,1.452,0,0,0,.687.419,1.422,1.422,0,0,0,.766,0" transform="translate(-704.303 -514.195)" fill="#1f4168"/>
            <path id="Trazado_702092" data-name="Trazado 702092" d="M793.828,464.918a10.9,10.9,0,0,0-2.5,1.754,11.226,11.226,0,0,0-1.061,1.118,10.514,10.514,0,0,0-.885,1.269,8.34,8.34,0,0,0-.656,1.405,6.988,6.988,0,0,0-.366,1.507,7.713,7.713,0,0,0-.065.772c.008.258,0,.516.029.771a7.175,7.175,0,0,0,.3,1.5,10.06,10.06,0,0,1-.111-1.509c-.01-.25.021-.5.033-.749.036-.247.053-.5.109-.739.041-.245.111-.484.169-.725.076-.236.145-.475.241-.7a8.392,8.392,0,0,1,.647-1.339,12.244,12.244,0,0,1,1.824-2.366,16.688,16.688,0,0,1,2.3-1.967" transform="translate(-721.72 -425.656)" fill="#1f4168"/>
            <path id="Trazado_702093" data-name="Trazado 702093" d="M801.092,490.434c-.442.6-.891,1.188-1.364,1.76s-.946,1.141-1.436,1.7-.994,1.1-1.518,1.616-1.053,1.035-1.616,1.511a17.143,17.143,0,0,1-3.629,2.479,9.064,9.064,0,0,1-2.069.724,6.668,6.668,0,0,1-2.2.117,6.2,6.2,0,0,0,2.233.066,8.443,8.443,0,0,0,2.16-.638,13.6,13.6,0,0,0,1.97-1.092,19.658,19.658,0,0,0,1.784-1.369,26.759,26.759,0,0,0,3.11-3.222,28.967,28.967,0,0,0,2.575-3.648" transform="translate(-720.777 -449.017)" fill="#1f4168"/>
            <path id="Trazado_702094" data-name="Trazado 702094" d="M1215.9,819.1a7.437,7.437,0,0,0-.967.763,4.564,4.564,0,0,0-.791.969,3.064,3.064,0,0,0-.418,1.2,2.452,2.452,0,0,0,.168,1.235,4.475,4.475,0,0,1,.125-1.182,4.05,4.05,0,0,1,.453-1.059,8.212,8.212,0,0,1,.682-.963c.249-.313.518-.619.749-.963" transform="translate(-1111.209 -749.924)" fill="#1f4168"/>
            <path id="Trazado_702095" data-name="Trazado 702095" d="M1242.414,586.648c-.249.807-.437,1.633-.608,2.461-.087.414-.16.831-.234,1.247s-.133.836-.182,1.257a34.159,34.159,0,0,0-.287,5.073c.018.424.024.849.053,1.272l.1,1.267a23.111,23.111,0,0,1,.115,2.5,7.908,7.908,0,0,1-.368,2.444,5.026,5.026,0,0,1-.549,1.11,10.238,10.238,0,0,1-.775.994,5.542,5.542,0,0,0,1.552-2.016,7.305,7.305,0,0,0,.5-2.521c.021-.427.012-.854,0-1.28s-.049-.85-.094-1.272-.073-.837-.11-1.256-.044-.838-.067-1.257a41.507,41.507,0,0,1,.958-10.029" transform="translate(-1134.992 -537.105)" fill="#1f4168"/>
            <path id="Trazado_702096" data-name="Trazado 702096" d="M1290.519,681.59a5.157,5.157,0,0,1-1.739-1.337,7.281,7.281,0,0,1-.631-.9,2.633,2.633,0,0,1-.138-.242l-.137-.246c-.088-.167-.165-.339-.265-.508a5.229,5.229,0,0,0,.09.574,4.478,4.478,0,0,0,.184.554,3.912,3.912,0,0,0,.607,1.01,3.474,3.474,0,0,0,.913.754,2.4,2.4,0,0,0,1.116.337" transform="translate(-1178.87 -621.073)" fill="#1f4168"/>
            <path id="Trazado_702097" data-name="Trazado 702097" d="M1173.684,509.045c.507.791,1.018,1.574,1.487,2.377a17.945,17.945,0,0,1,1.232,2.485,11.149,11.149,0,0,1,.7,2.663,12.535,12.535,0,0,1,.028,2.783,8.559,8.559,0,0,0,.268-2.812,9.373,9.373,0,0,0-.643-2.773,13.433,13.433,0,0,0-1.335-2.5,18.883,18.883,0,0,0-1.739-2.22" transform="translate(-1074.566 -466.056)" fill="#1f4168"/>
            <path id="Trazado_702098" data-name="Trazado 702098" d="M1110,415.279a9.74,9.74,0,0,1,.574-1.444,4.014,4.014,0,0,1,.4-.651,1.222,1.222,0,0,1,.561-.44.628.628,0,0,1,.611.194,3.355,3.355,0,0,1,.458.587,3.919,3.919,0,0,1,.485,1.406c.093.5.133,1.02.228,1.539a8.276,8.276,0,0,0,.4,1.536,8.036,8.036,0,0,0,1.659,2.665,11.5,11.5,0,0,1-1.346-2.771c-.077-.243-.143-.489-.2-.738s-.105-.5-.145-.753c-.078-.507-.139-1.023-.239-1.546a3.874,3.874,0,0,0-.6-1.5,3.44,3.44,0,0,0-.548-.6,1.074,1.074,0,0,0-.375-.214.713.713,0,0,0-.445.006,1.357,1.357,0,0,0-.624.536,4.134,4.134,0,0,0-.379.7,8.129,8.129,0,0,0-.478,1.489" transform="translate(-1016.257 -377.682)" fill="#1f4168"/>
            <path id="Trazado_702099" data-name="Trazado 702099" d="M1211.906,430.906a2.9,2.9,0,0,0,.293,1.033c.075.165.167.321.256.479s.194.306.307.448a7.762,7.762,0,0,0,.716.814l.4.362c.133.122.282.224.422.338.282.225.591.409.891.607q.465.27.943.514c.326.148.651.295.982.428s.673.237,1.014.339c-.309-.181-.623-.344-.935-.509l-.92-.52c-.3-.19-.6-.364-.891-.557s-.585-.383-.853-.605a9.865,9.865,0,0,1-1.54-1.4c-.12-.126-.217-.269-.331-.4s-.207-.28-.3-.428a3.7,3.7,0,0,1-.457-.945" transform="translate(-1109.56 -394.516)" fill="#1f4168"/>
            <path id="Trazado_702100" data-name="Trazado 702100" d="M1144.228,605.2l-2.526-3.355s-3.543-.565-4.033-3.92,6.785-11.535,6.785-11.535a8.823,8.823,0,0,1,1.951-5.325l.781-5.947s-.1-5.291,1.18-8.459c.443-1.1,1.084-1.688,1.885-1.314,0,0-.538-2.88,1.568-3.693a1.1,1.1,0,0,1,1.486.982l.047.936s1.28-2.349,2.889-1.135c1.362,1.028.174,7.632.174,7.632l1.93,5.171a3.63,3.63,0,0,1,.16,1.974l-.818,4.136-.015.918a6.463,6.463,0,0,1-.257,1.705c-.626,2.15-2.331,7.9-3.573,11.117l1.725,3.789a24.61,24.61,0,0,0-11.337,6.323" transform="translate(-1041.571 -514.158)" fill="#ffc89f"/>
            <path id="Trazado_702101" data-name="Trazado 702101" d="M1200.672,821.234a4.1,4.1,0,0,1-.1-1.131c0-.095,0-.19.013-.285l.029-.284.015-.142c.006-.047.016-.094.023-.141l.049-.281a10.676,10.676,0,0,1,.707-2.167,16.866,16.866,0,0,1,2.5-3.8c.491-.582,1.011-1.13,1.514-1.7s1-1.133,1.5-1.7.989-1.146,1.466-1.733c.241-.291.476-.588.707-.888.114-.151.227-.3.336-.457a5.116,5.116,0,0,0,.31-.475,8.334,8.334,0,0,1-.61.959c-.221.308-.446.613-.678.913-.465.6-.945,1.186-1.432,1.766-.242.292-.489.579-.738.865s-.5.57-.75.855c-.5.569-1.018,1.125-1.5,1.7a17.3,17.3,0,0,0-2.509,3.747,10.66,10.66,0,0,0-.744,2.13l-.058.277c-.009.046-.02.092-.028.139l-.019.14-.038.28c-.011.094-.014.188-.022.282a4.368,4.368,0,0,0,.056,1.129" transform="translate(-1099.181 -737.978)" fill="#ff9b6c"/>
            <path id="Trazado_702102" data-name="Trazado 702102" d="M1242.959,767.69a13.832,13.832,0,0,1,2.237-1.2q.585-.251,1.193-.445a11.546,11.546,0,0,1,1.237-.314,8.182,8.182,0,0,1,1.271-.137,5.493,5.493,0,0,1,1.276.105,4.366,4.366,0,0,1,1.206.423,4.285,4.285,0,0,1,1.01.769,4.615,4.615,0,0,0-1.047-.695l-.288-.125c-.1-.036-.2-.066-.3-.1s-.2-.054-.3-.081l-.152-.037-.155-.025c-.2-.039-.413-.054-.621-.072l-.313-.009c-.1,0-.209,0-.313.006a8.291,8.291,0,0,0-1.245.143,13.472,13.472,0,0,0-2.412.714q-.587.231-1.16.5c-.383.177-.758.371-1.127.577" transform="translate(-1137.991 -700.938)" fill="#ff9b6c"/>
            <path id="Trazado_702103" data-name="Trazado 702103" d="M1193.737,881.717l.513-2.065c.169-.688.338-1.376.5-2.066s.315-1.381.461-2.073.277-1.389.394-2.089c-.052.708-.145,1.413-.265,2.114s-.268,1.4-.427,2.087-.341,1.379-.536,2.061-.4,1.361-.64,2.031" transform="translate(-1092.926 -799.663)" fill="#ff9b6c"/>
            <path id="Trazado_702104" data-name="Trazado 702104" d="M1192.334,1039.005a5.757,5.757,0,0,1-.923.178,7.966,7.966,0,0,1-.939.053c-.157,0-.314-.007-.471-.016-.078,0-.157-.014-.235-.021s-.156-.015-.234-.028a5.081,5.081,0,0,1-.917-.208c.313.027.62.062.93.076s.618.029.927.027c.619,0,1.237-.025,1.861-.062" transform="translate(-1088.237 -951.223)" fill="#ff9b6c"/>
            <path id="Trazado_702105" data-name="Trazado 702105" d="M634.892,849.2a5.752,5.752,0,0,1-.6-.722,7.972,7.972,0,0,1-.5-.8c-.075-.138-.145-.279-.214-.42-.034-.071-.063-.144-.1-.216s-.062-.144-.089-.218a5.086,5.086,0,0,1-.261-.9c.128.287.245.573.382.851s.273.555.424.825c.3.544.619,1.071.953,1.6" transform="translate(-579.664 -774.483)" fill="#ff9b6c"/>
            <path id="Trazado_702106" data-name="Trazado 702106" d="M1312.47,626.148a1.238,1.238,0,0,0-.3-.472c-.131-.133-.28-.252-.421-.38a10.06,10.06,0,0,1-.816-.8c-.256-.283-.5-.577-.732-.88l-.174-.227a1.211,1.211,0,0,0-.184-.192,1,1,0,0,0-.477-.215,1.024,1.024,0,0,0-.961.366,1.078,1.078,0,0,0-.216.5,3.336,3.336,0,0,0-.031.563,4.111,4.111,0,0,0,.2,1.111,6.14,6.14,0,0,0,.443,1.042,10.843,10.843,0,0,0,.59.967c.105.157.218.309.329.461l.172.225.086.113a1.417,1.417,0,0,1,.087.123,1.353,1.353,0,0,1,.13.273c.034.1.052.19.077.281l.141.552.277,1.106.134.554.067.279a1.311,1.311,0,0,1,.03.3,1.337,1.337,0,0,1-.038.3l-.069.277-.132.553c-.174.739-.335,1.48-.468,2.228l-.017,0c.078-.757.208-1.508.356-2.254l.118-.559.061-.278a1.183,1.183,0,0,0,.027-.265,1.228,1.228,0,0,0-.032-.264l-.069-.274-.141-.552-.272-1.107-.133-.554c-.023-.092-.042-.187-.069-.269a1.192,1.192,0,0,0-.111-.242,1.241,1.241,0,0,0-.076-.11l-.085-.115-.17-.231c-.108-.157-.218-.314-.32-.475a9.46,9.46,0,0,1-.561-1,5.8,5.8,0,0,1-.617-2.192,3.715,3.715,0,0,1,.017-.574,1.16,1.16,0,0,1,.21-.545,1.135,1.135,0,0,1,1.055-.448,1.1,1.1,0,0,1,.552.238,1.349,1.349,0,0,1,.21.217l.171.227q.341.454.711.884c.246.287.5.563.778.825.136.131.277.261.4.406a1.284,1.284,0,0,1,.166.237c.024.042.04.088.06.132l.043.137Z" transform="translate(-1197.635 -570.232)" fill="#ff9b6c"/>
            <path id="Trazado_702107" data-name="Trazado 702107" d="M1302.305,677.626a17.229,17.229,0,0,1,.16-2.1c.092-.7.219-1.39.374-2.076.038-.172.081-.342.125-.513s.087-.341.136-.51l.142-.505c.044-.168.085-.337.12-.508a9.636,9.636,0,0,0,.154-1.034,7.8,7.8,0,0,0,.034-1.049,7.183,7.183,0,0,1-.059,2.107c-.055.348-.15.694-.237,1.031l-.067.253-.063.255c-.042.17-.083.339-.12.51-.158.681-.291,1.368-.409,2.058-.057.345-.113.691-.16,1.038s-.093.695-.13,1.044" transform="translate(-1192.325 -612.806)" fill="#ff9b6c"/>
            <path id="Trazado_702108" data-name="Trazado 702108" d="M1322.705,585.154c.035.272.053.544.066.816s.017.544.019.816-.005.544-.019.816-.031.544-.066.816c-.035-.272-.054-.544-.066-.816s-.017-.544-.019-.816.005-.544.019-.816.031-.544.066-.816" transform="translate(-1210.925 -535.738)" fill="#ff9b6c"/>
            <path id="Trazado_702109" data-name="Trazado 702109" d="M1272.484,606.167q.069.447.128.9a7.946,7.946,0,0,1,.082.906,6.5,6.5,0,0,1-.041.912c-.032.3-.1.6-.156.894-.114.59-.215,1.184-.27,1.784a14.389,14.389,0,0,0-.039,1.805,6.64,6.64,0,0,1-.224,1.806c-.154.581-.285,1.167-.4,1.756a15.207,15.207,0,0,0-.326,3.58l-.017,0a11.663,11.663,0,0,1,.166-3.615c.112-.6.257-1.183.424-1.765a7.545,7.545,0,0,0,.285-1.765c.008-.6.032-1.207.077-1.808s.095-1.2.186-1.8c.024-.149.049-.3.077-.447s.05-.294.069-.442a7.735,7.735,0,0,0,.059-.893c0-.3-.013-.6-.04-.9s-.041-.6-.057-.9Z" transform="translate(-1163.796 -554.976)" fill="#ff9b6c"/>
            <path id="Trazado_702110" data-name="Trazado 702110" d="M783.608,774.644q-.115,1.188-.261,2.373a20.136,20.136,0,0,0-.2,2.367c-.011.4,0,.791.017,1.186s.056.79.1,1.183a19.447,19.447,0,0,0,.426,2.341c-.128-.377-.234-.761-.33-1.148s-.169-.78-.226-1.176a14.422,14.422,0,0,1-.152-2.39c0-.2.015-.4.023-.6s.025-.4.049-.6c.039-.4.1-.793.161-1.185q.18-1.18.391-2.355" transform="translate(-716.857 -709.225)" fill="#ff9b6c"/>
          </g>
        </g>
        <rect id="Rectángulo_344897" data-name="Rectángulo 344897" width="144.948" height="0.253" transform="translate(3.721 169.954)" fill="#1b1a2e"/>
        <g id="Grupo_998772" data-name="Grupo 998772">
          <g id="Grupo_998771" data-name="Grupo 998771" clip-path="url(#clip-path)">
            <path id="Trazado_702111" data-name="Trazado 702111" d="M1436.979,539.27a10.138,10.138,0,0,0-12.277,7.4,10.251,10.251,0,0,0,.107,5.479l-3.29,3.119,5.291.567a9.941,9.941,0,0,0,5.139,3.206,10.2,10.2,0,0,0,5.031-19.772" transform="translate(-1301.471 -493.445)" fill="#fff"/>
            <path id="Trazado_702112" data-name="Trazado 702112" d="M1421.519,732.083c.443.032.884.072,1.326.113s.882.089,1.323.133.882.1,1.322.15l.66.081c.22.03.44.057.659.089-.221-.015-.442-.035-.663-.052l-.662-.06c-.442-.041-.882-.089-1.324-.133s-.881-.1-1.322-.15-.88-.108-1.32-.17" transform="translate(-1301.471 -670.258)" fill="#1b1a2e"/>
            <path id="Trazado_702113" data-name="Trazado 702113" d="M1424.809,695.149c-.264.271-.533.536-.8.8s-.544.524-.816.786-.55.518-.828.773l-.418.382c-.141.125-.281.253-.424.376.131-.136.266-.269.4-.4l.4-.4c.27-.264.544-.524.817-.786s.55-.518.828-.773.557-.51.842-.759" transform="translate(-1301.471 -636.443)" fill="#1b1a2e"/>
            <path id="Trazado_702114" data-name="Trazado 702114" d="M1457.683,555.157a10.389,10.389,0,0,0,1.329,1.285,9.927,9.927,0,0,0,5.035,2.112,9.822,9.822,0,0,0,3.654-.232,10.109,10.109,0,0,0,3.332-1.544,10.211,10.211,0,0,0,3.082-13.208,10.024,10.024,0,0,0-2.3-2.851,9.894,9.894,0,0,0-6.774-2.364,10.058,10.058,0,0,0-6.637,2.831,10.231,10.231,0,0,0-2.148,3.009,10.39,10.39,0,0,0-.954,3.585,10.277,10.277,0,0,0,.381,3.691,10.292,10.292,0,0,1-.417-3.693,10.445,10.445,0,0,1,.924-3.613,10.263,10.263,0,0,1,5.235-5.12,10.043,10.043,0,0,1,10.483,1.564,10.156,10.156,0,0,1,2.338,2.888,10.335,10.335,0,0,1,1.232,5.427,10.544,10.544,0,0,1-1.763,5.292,10.257,10.257,0,0,1-5.991,4.2,9.876,9.876,0,0,1-3.686.212,9.97,9.97,0,0,1-5.037-2.171,10.405,10.405,0,0,1-1.318-1.3" transform="translate(-1332.344 -492.765)" fill="#1b1a2e"/>
            <path id="Trazado_702115" data-name="Trazado 702115" d="M1518.816,651.672a.726.726,0,1,1-.726-.736.731.731,0,0,1,.726.736" transform="translate(-1389.221 -595.964)" fill="#1f4168"/>
            <path id="Trazado_702116" data-name="Trazado 702116" d="M1567.488,651.672a.727.727,0,1,1-.727-.736.731.731,0,0,1,.727.736" transform="translate(-1433.783 -595.964)" fill="#1f4168"/>
            <path id="Trazado_702117" data-name="Trazado 702117" d="M1616.16,651.672a.727.727,0,1,1-.727-.736.731.731,0,0,1,.727.736" transform="translate(-1478.344 -595.964)" fill="#1f4168"/>
            <path id="Trazado_702118" data-name="Trazado 702118" d="M454.058,442.915a7.129,7.129,0,0,1,7.13,7.128,7.208,7.208,0,0,1-1,3.722l1.718,2.685-3.707-.507a6.99,6.99,0,0,1-4.049,1.32,7.174,7.174,0,0,1-.093-14.347" transform="translate(-409.269 -405.511)" fill="#fff"/>
            <path id="Trazado_702119" data-name="Trazado 702119" d="M583.109,597.686c-.307-.053-.616-.1-.924-.147s-.617-.089-.926-.133-.618-.083-.928-.121l-.464-.056c-.155-.017-.31-.035-.465-.051.154.027.308.051.462.076l.462.071c.308.046.617.089.926.133s.618.083.928.121.619.075.93.107" transform="translate(-530.471 -546.747)" fill="#1b1a2e"/>
            <path id="Trazado_702120" data-name="Trazado 702120" d="M602.954,571.391c.134.23.273.456.413.682s.283.45.424.675.288.447.435.668l.221.332c.075.11.149.22.226.329-.067-.115-.136-.229-.2-.343l-.209-.34c-.14-.226-.283-.45-.425-.675s-.288-.447-.435-.668-.294-.442-.446-.66" transform="translate(-552.034 -523.137)" fill="#1b1a2e"/>
            <path id="Trazado_702121" data-name="Trazado 702121" d="M457.709,455.436a7.306,7.306,0,0,1-1.125.653,6.982,6.982,0,0,1-3.794.591,6.911,6.911,0,0,1-2.455-.776,7.114,7.114,0,0,1-2.013-1.617,7.19,7.19,0,0,1-1.243-7.344,7.158,7.158,0,0,1,1.371-2.194,7.051,7.051,0,0,1,2.052-1.558,6.96,6.96,0,0,1,5.024-.469,7.074,7.074,0,0,1,4.052,3.054,7.191,7.191,0,0,1,.958,2.417,7.306,7.306,0,0,1,.045,2.608,7.225,7.225,0,0,1-.884,2.455,7.235,7.235,0,0,0,.909-2.451,7.343,7.343,0,0,0-.02-2.623,7.217,7.217,0,0,0-2.708-4.38,7.063,7.063,0,0,0-7.42-.7,7.144,7.144,0,0,0-2.084,1.576,7.268,7.268,0,0,0-1.758,3.5,7.415,7.415,0,0,0,.309,3.91,7.212,7.212,0,0,0,3.38,3.879,6.943,6.943,0,0,0,2.48.768,7.011,7.011,0,0,0,3.8-.63,7.312,7.312,0,0,0,1.119-.665" transform="translate(-408.778 -405.004)" fill="#1b1a2e"/>
            <path id="Trazado_702122" data-name="Trazado 702122" d="M559.2,522.252a.511.511,0,1,0,.511-.517.514.514,0,0,0-.511.517" transform="translate(-511.975 -477.674)" fill="#1f4168"/>
            <path id="Trazado_702123" data-name="Trazado 702123" d="M524.972,522.252a.511.511,0,1,0,.511-.517.514.514,0,0,0-.511.517" transform="translate(-480.638 -477.674)" fill="#1f4168"/>
            <path id="Trazado_702124" data-name="Trazado 702124" d="M490.743,522.252a.511.511,0,1,0,.511-.517.514.514,0,0,0-.511.517" transform="translate(-449.3 -477.674)" fill="#1f4168"/>
          </g>
        </g>
      </g>
    </g>
  </g>
</svg>
