<svg xmlns="http://www.w3.org/2000/svg" xmlns:xlink="http://www.w3.org/1999/xlink" width="136.494" height="136.494" viewBox="0 0 136.494 136.494">
  <defs>
    <clipPath id="clip-path">
      <rect id="Rectángulo_344849" data-name="Rectángulo 344849" width="91.276" height="90.171" fill="none"/>
    </clipPath>
    <clipPath id="clip-path-3">
      <rect id="Rectángulo_344846" data-name="Rectángulo 344846" width="11.719" height="41.405" fill="none"/>
    </clipPath>
  </defs>
  <g id="Grupo_1000153" data-name="Grupo 1000153" transform="translate(3532.78 -637)">
    <path id="Trazado_701954" data-name="Trazado 701954" d="M.689,643.445a68.238,68.238,0,1,1,77.172,57.943A68.239,68.239,0,0,1,.689,643.445" transform="translate(-3532.78 71.417)" fill="#ed9aa9"/>
    <path id="Trazado_701955" data-name="Trazado 701955" d="M17.748,647.442a56.688,56.688,0,1,1,64.111,48.135,56.689,56.689,0,0,1-64.111-48.135" transform="translate(-3538.404 65.793)" fill="#fff"/>
    <g id="Grupo_998727" data-name="Grupo 998727" transform="translate(-3514.417 659.051)">
      <g id="Grupo_998694" data-name="Grupo 998694" clip-path="url(#clip-path)">
        <g id="Grupo_998693" data-name="Grupo 998693">
          <g id="Grupo_998692" data-name="Grupo 998692" clip-path="url(#clip-path)">
            <path id="Trazado_701747" data-name="Trazado 701747" d="M129.468,86.928c11.9,4.695,28.756,21.556,30.037,24.291,1.3,2.779.771,4.474-1.182,4.864-2.551.509-23.587-16.925-26.367-17.605-2.841-.7-2.488-11.55-2.488-11.55" transform="translate(-70.254 -47.175)" fill="#976eb7"/>
            <path id="Trazado_701748" data-name="Trazado 701748" d="M157.251,121.748c-1.189-2.539-15.8-17.241-27.4-23.095.259,2.847.877,5.834,2.323,6.188,2.529.62,20.176,15.11,25.252,17.328-.059-.142-.1-.274-.172-.422" transform="translate(-70.467 -53.538)" fill="#7f5aa3"/>
            <path id="Trazado_701749" data-name="Trazado 701749" d="M174.685,145.848c-.924-5.916,2.5-9.664,5.888-10.608,0,0,6.1-.191,5.357,5.518-.594,4.576-11.246,5.09-11.246,5.09" transform="translate(-94.717 -73.393)" fill="#efedcb"/>
            <path id="Trazado_701750" data-name="Trazado 701750" d="M160,143.553c-1.6.853-14.535,17.8-17.474,24.114l.332.171s24.044-20.4,24.015-22.61-5.256-2.537-6.872-1.676" transform="translate(-77.349 -77.667)" fill="#edb984"/>
            <path id="Trazado_701751" data-name="Trazado 701751" d="M143.877,166.972a71.187,71.187,0,0,1,8.141-12.1A65.348,65.348,0,0,1,164,143.237a7.435,7.435,0,0,0-4,.317c-1.6.853-14.535,17.8-17.474,24.114l.332.171s.37-.314,1.017-.867" transform="translate(-77.349 -77.668)" fill="#e79b69"/>
            <path id="Trazado_701752" data-name="Trazado 701752" d="M63.038,33.843c10.877,10.568,31.242,9.643,42.2,2.314,0,0-.617-22.834-7.868-29.314S83.467-.226,82.555.055c-8.023,2.469-20.366,23.22-19.517,33.788" transform="translate(-34.188 0)" fill="#7d4230"/>
            <path id="Trazado_701753" data-name="Trazado 701753" d="M68.089,85.156C57.5,90.972,43.149,112.379,42.223,115.5s-1.388,4.86,1.157,4.86,20.365-21.176,22.68-22.1,2.029-13.106,2.029-13.106" transform="translate(-22.514 -46.214)" fill="#976eb7"/>
            <path id="Trazado_701754" data-name="Trazado 701754" d="M47.5,125.268c-.156.517-.3.992-.416,1.43,4.132-2.216,20.036-20.218,22.224-21,1.366-.489,1.835-4.859,1.988-8.405-10.356,6.9-22.928,25.1-23.8,27.975" transform="translate(-25.555 -52.8)" fill="#7f5aa3"/>
            <path id="Trazado_701755" data-name="Trazado 701755" d="M87.555,160.528H113l-3.81-30.857-17.556.155Z" transform="translate(-47.515 -70.372)" fill="#976eb7"/>
            <path id="Trazado_701756" data-name="Trazado 701756" d="M100.15,142.431c6.578,0,11.917,8.068,12.058,18.1h.8l-3.81-30.857-17.556.154-4.083,30.7h.537c.141-10.029,5.48-18.1,12.058-18.1" transform="translate(-47.515 -70.371)" fill="#7f5aa3"/>
            <path id="Trazado_701757" data-name="Trazado 701757" d="M91.174,85.031c-3.631,10.055-6.866,25.457-6.249,27s27.771.771,28.388-.463-6.4-24.068-7.328-25.611-14.364-2.165-14.811-.926" transform="translate(-46.047 -45.788)" fill="#976eb7"/>
            <path id="Trazado_701758" data-name="Trazado 701758" d="M107.594,101.7c1.862,7.5,4.043,17.62,3.675,18.435-.57,1.263-25.581,2.043-26.262.465-.505-1.17.909-10.273,3-19.094-2.764,9.1-5.065,19.077-4.582,20.285.617,1.542,29.314.771,29.931-.463.425-.85-3.174-12.161-5.758-19.627" transform="translate(-45.237 -55.088)" fill="#7f5aa3"/>
            <path id="Trazado_701759" data-name="Trazado 701759" d="M113.191,89.615a45.472,45.472,0,0,0-7.041-3.851c-1.835-1.373-13.715-1.9-14.57-.8a35.458,35.458,0,0,0-6.068,4.678,34.25,34.25,0,0,0,13.8,2.522c5.58,0,10.565-.994,13.875-2.553" transform="translate(-46.407 -45.789)" fill="#7f5aa3"/>
            <path id="Trazado_701760" data-name="Trazado 701760" d="M100.618,84.62a34.012,34.012,0,0,0,6.519,15.146,53.466,53.466,0,0,0,5.795-14.556c-3.149-.8-9.889-1.089-12.314-.59" transform="translate(-54.605 -45.789)" fill="#dfccf2"/>
            <path id="Trazado_701761" data-name="Trazado 701761" d="M39.972,137.768c5.554,2.237,7.02,7.1,6.094,10.491,0,0-2.959,5.335-7.482,1.774-3.626-2.854,1.388-12.265,1.388-12.265" transform="translate(-20.225 -74.766)" fill="#efedcb"/>
            <g id="Grupo_998691" data-name="Grupo 998691" transform="translate(14.23 32.709)" opacity="0.8">
              <g id="Grupo_998690" data-name="Grupo 998690">
                <g id="Grupo_998689" data-name="Grupo 998689" clip-path="url(#clip-path-3)">
                  <path id="Trazado_701762" data-name="Trazado 701762" d="M42.18,72.4c4.765,1.235,6.579,1.995,6.412,2.39-.413.979-6.4-.937-6.4-.937-.59.051-.6-1.4-.013-1.452" transform="translate(-36.884 -72)" fill="#e79b69"/>
                  <path id="Trazado_701763" data-name="Trazado 701763" d="M42.5,118.732c.316-1.646-4.618-22.921-7.932-29.393l-.924.919s1.771,30.655,3.467,32.016,5.072-1.9,5.388-3.541" transform="translate(-32.487 -81.193)" fill="#edb984"/>
                  <path id="Trazado_701764" data-name="Trazado 701764" d="M43.329,134.526a1.413,1.413,0,0,1-1.073.83c-1.885.135-4.471-4.864-6.355-11.849.662,8.078,1.558,16.606,2.434,17.31,1.694,1.36,5.072-1.9,5.388-3.541a11.63,11.63,0,0,0-.4-2.749" transform="translate(-33.713 -99.736)" fill="#e79b69"/>
                  <path id="Trazado_701765" data-name="Trazado 701765" d="M32.3,82.437c-2-4.5-1.065-6.836-.186-8.423a4.889,4.889,0,0,1,4.112-1.763.99.99,0,0,1,.667,1.607c-1.161,1.658-1.04,2.689-.51,3.711,1.264,2.437-3.7,5.733-4.083,4.868" transform="translate(-31.116 -71.899)" fill="#e79b69"/>
                  <path id="Trazado_701766" data-name="Trazado 701766" d="M34.373,86.436a3.114,3.114,0,0,0-3.256-2.379,11.911,11.911,0,0,0,1.188,4.8c.123.279.726.121,1.441-.3a1.963,1.963,0,0,0,.627-2.119" transform="translate(-31.117 -78.314)" fill="#edb984"/>
                  <path id="Trazado_701767" data-name="Trazado 701767" d="M40.8,72.287c1.152-.132,6.3,2.043,5.778,2.908-.225.37-6.181-1.541-6.181-1.541-.651-.609-.23-1.025.4-1.368" transform="translate(-35.975 -71.936)" fill="#edb984"/>
                  <path id="Trazado_701768" data-name="Trazado 701768" d="M37.025,84.953a14.23,14.23,0,0,0,4.42-4.3c.414-.887,3.3-1.4,3.681-1.929s.248-1.155-.683-1.282-3.426,1.234-5.628,1.93c-2.493.789-1.79,5.579-1.79,5.579" transform="translate(-34.273 -74.733)" fill="#edb984"/>
                  <path id="Trazado_701769" data-name="Trazado 701769" d="M38.371,73.074c.557-.468.8-1.09.539-1.39s-.922-.162-1.479.305-.712.895-.451,1.194.835.358,1.392-.11" transform="translate(-34.231 -71.526)" fill="#e79b69"/>
                  <path id="Trazado_701770" data-name="Trazado 701770" d="M34.6,74.313c.557-.468.8-1.09.539-1.39s-.922-.162-1.479.305-1.011,1.728-.752,2.027,1.135-.475,1.692-.943" transform="translate(-32.049 -72.198)" fill="#e79b69"/>
                  <path id="Trazado_701771" data-name="Trazado 701771" d="M39.978,73.583c.173-1.055,0-1.963-.395-2.027s-.849.739-1.022,1.794.066,1.711.457,1.775.786-.487.959-1.543" transform="translate(-35.126 -71.541)" fill="#edb984"/>
                  <path id="Trazado_701772" data-name="Trazado 701772" d="M36.494,74.981c.173-1.055,0-1.963-.395-2.027s-.849.739-1.022,1.794-.043,1.666.348,1.731.895-.443,1.068-1.5" transform="translate(-33.226 -72.299)" fill="#edb984"/>
                </g>
              </g>
            </g>
            <path id="Trazado_701773" data-name="Trazado 701773" d="M27.346,121.2c-.324-1.644-12.881-19.513-18.381-24.27l-.512,1.2S21.6,125.875,23.68,126.5s3.99-3.66,3.666-5.3" transform="translate(-4.588 -52.601)" fill="#edb984"/>
            <path id="Trazado_701774" data-name="Trazado 701774" d="M112.858,85.194q-.232-.057-.487-.111c-.08-.017-.166-.033-.25-.049-.119-.023-.24-.046-.365-.068l-.27-.047c-.189-.031-.382-.061-.582-.09l-.268-.037c-.152-.021-.305-.041-.462-.06l-.3-.036q-.271-.031-.548-.059l-.287-.028q-.307-.029-.62-.055l-.288-.023q-.283-.022-.568-.041l-.217-.015q-.375-.023-.75-.041l-.246-.011q-.295-.013-.587-.022l-.213-.007q-.379-.011-.75-.016h-.166q-.3,0-.6,0h-.2c-.237,0-.47.006-.7.013l-.084,0q-.3.01-.582.025l-.166.009c-.2.012-.386.025-.565.041l-.036,0c-.186.016-.358.037-.522.058l-.134.019c-.129.018-.25.039-.363.06l-.071.014A36.9,36.9,0,0,0,102.7,91.9a44.493,44.493,0,0,0,4.813.266c1.145,0,2.257-.052,3.342-.132a41.2,41.2,0,0,0,2.076-6.823l-.075-.02" transform="translate(-54.605 -45.79)" fill="#cab5e2"/>
            <path id="Trazado_701775" data-name="Trazado 701775" d="M111.141,56.292h-6.557l.559,12.833c.178,2.91,6.974,3.093,6.8.183Z" transform="translate(-56.757 -30.549)" fill="#d27558"/>
            <path id="Trazado_701776" data-name="Trazado 701776" d="M93.619,28.141c0,11.108,2.43,17.368,9.064,20.867,6.248-2.574,9.025-9.315,8.578-22.412-.233-6.819-17.642-3.45-17.642,1.545" transform="translate(-50.806 -12.349)" fill="#edb984"/>
            <path id="Trazado_701777" data-name="Trazado 701777" d="M99.571,14.5c.909,4.827-10.674,8.55-12.27,18.79,0,0-5.919-9.492-1-15.816,5.532-7.116,12.489-7.141,13.272-2.974" transform="translate(-45.774 -6.336)" fill="#7d4230"/>
            <path id="Trazado_701778" data-name="Trazado 701778" d="M89.588,49.572c-.493-1.269-1.321-2.037-1.849-1.718s-.557,1.607-.064,2.876S89,52.767,89.525,52.448s.557-1.607.064-2.876" transform="translate(-47.39 -25.931)" fill="#edb984"/>
            <path id="Trazado_701779" data-name="Trazado 701779" d="M134.508,50.96c.5-1.266.415-2.393-.19-2.517s-1.5.8-2,2.067-.414,2.393.191,2.517,1.5-.8,2-2.067" transform="translate(-71.631 -26.284)" fill="#edb984"/>
            <path id="Trazado_701780" data-name="Trazado 701780" d="M103.669,46.008c.014-1.025-.491-1.9-1.131-1.948s-1.179.739-1.2,1.772.493,1.912,1.139,1.958,1.174-.754,1.189-1.781" transform="translate(-54.997 -23.91)" fill="#5a4949"/>
            <path id="Trazado_701781" data-name="Trazado 701781" d="M122.822,45.68c0-1.077-.475-1.988-1.063-2.038s-1.074.787-1.077,1.871.477,2.005,1.071,2.048,1.069-.8,1.069-1.881" transform="translate(-65.493 -23.683)" fill="#5a4949"/>
            <path id="Trazado_701782" data-name="Trazado 701782" d="M103.209,39.523,99.547,38.7a.868.868,0,0,0-1.029.659l-.217.928a.844.844,0,0,0,.637,1.027l3.679.784a.85.85,0,0,0,.992-.658l.208-.907a.83.83,0,0,0-.609-1.007" transform="translate(-53.334 -20.989)" fill="#7d4230"/>
            <path id="Trazado_701783" data-name="Trazado 701783" d="M120.612,38.825l-2.669,1.041a.661.661,0,0,0-.268.937l.366.771a.783.783,0,0,0,.937.467l2.673-1.067a.655.655,0,0,0,.251-.929l-.368-.759a.78.78,0,0,0-.922-.461" transform="translate(-63.815 -21.05)" fill="#7d4230"/>
            <path id="Trazado_701784" data-name="Trazado 701784" d="M112.8,54.109s-.168-.031-.416-.061c-.312.968-1.1,2.308-2.341.425-.024.029-.062.048-.081.08,1.783,3.384,2.748.287,2.838-.445" transform="translate(-59.673 -29.331)" fill="#d27558"/>
            <path id="Trazado_701785" data-name="Trazado 701785" d="M113.516,66.014c0-.575-.328-1.041-.733-1.041s-.733.466-.733,1.041.328,1.041.733,1.041.733-.466.733-1.041" transform="translate(-60.809 -35.26)" fill="#5a4949"/>
            <path id="Trazado_701786" data-name="Trazado 701786" d="M33.632,135.934a1.413,1.413,0,0,1-.683,1.172c-1.7.833-5.97-2.832-10.337-8.6,3.644,7.239,7.675,14.809,8.751,15.131,2.081.625,3.99-3.66,3.666-5.3a11.611,11.611,0,0,0-1.4-2.4" transform="translate(-12.271 -69.74)" fill="#e79b69"/>
            <path id="Trazado_701787" data-name="Trazado 701787" d="M4.762,90.439C.823,87.729.381,85.468.28,83.823s3.926-4.641,3.8-2.209a3,3,0,0,0,1.494,3.173c2.28,1.386-.059,6.172-.815,5.652" transform="translate(-0.151 -43.794)" fill="#e79b69"/>
            <path id="Trazado_701788" data-name="Trazado 701788" d="M2.7,94.626a12.3,12.3,0,0,0,3.377,3.215c.38.262,1.16-.819,1.552-2.134a5.06,5.06,0,0,0-1.454-.953A4.527,4.527,0,0,0,2.7,94.626" transform="translate(-1.464 -51.197)" fill="#edb984"/>
            <path id="Trazado_701789" data-name="Trazado 701789" d="M2.623,74.288c1.346-5.582,2.092-7.846,2.5-7.9s-1.116,7.52-1.116,7.52c-.538.8-1.018,1.1-1.386.376" transform="translate(-1.423 -36.03)" fill="#edb984"/>
            <path id="Trazado_701790" data-name="Trazado 701790" d="M5.529,73.982c1.346-5.582,2.1-7.439,2.512-7.489s-1.116,7.519-1.116,7.519c.029.7-1.367.667-1.4-.03" transform="translate(-3.001 -36.085)" fill="#edb984"/>
            <path id="Trazado_701791" data-name="Trazado 701791" d="M10.767,90.427a11.77,11.77,0,0,0,1.382-5.345c-.119-.887,1.967-2.555,2-3.141s-.392-1.026-1.215-.721S10.784,83.7,9.354,85.21c-1.621,1.715,1.414,5.217,1.414,5.217" transform="translate(-4.818 -44.024)" fill="#edb984"/>
            <rect id="Rectángulo_344847" data-name="Rectángulo 344847" width="0.926" height="10.838" transform="translate(9.488 19.012)" fill="#7f5aa3"/>
            <path id="Trazado_701792" data-name="Trazado 701792" d="M18.219,63.729l-2.911-2.911.654-.654,2.257,2.256,2.373-2.372.654.654Z" transform="translate(-8.307 -32.588)" fill="#7f5aa3"/>
            <path id="Trazado_701793" data-name="Trazado 701793" d="M15.962,43.277l-.654-.654L18.335,39.6l2.912,2.911-.654.654-2.257-2.256Z" transform="translate(-8.307 -21.489)" fill="#7f5aa3"/>
            <path id="Trazado_701794" data-name="Trazado 701794" d="M3.614,82.727c-.4-.915-1.012-1.559-1.363-1.439s-.309.958.093,1.872S3.355,84.72,3.706,84.6s.31-.959-.092-1.873" transform="translate(-1.092 -44.107)" fill="#edb984"/>
            <path id="Trazado_701795" data-name="Trazado 701795" d="M1.6,85.426C1.2,84.512.589,83.867.238,83.987s-.31.958.093,1.872,1.012,1.559,1.363,1.44S2,86.341,1.6,85.426" transform="translate(0 -45.571)" fill="#edb984"/>
          </g>
        </g>
      </g>
    </g>
  </g>
</svg>
