<svg xmlns="http://www.w3.org/2000/svg" xmlns:xlink="http://www.w3.org/1999/xlink" width="85" height="85" viewBox="0 0 85 85">
  <defs>
    <clipPath id="clip-path">
      <rect id="Rect치ngulo_344906" data-name="Rect치ngulo 344906" width="64.287" height="64.363" fill="#fff"/>
    </clipPath>
  </defs>
  <g id="Grupo_1000162" data-name="Grupo 1000162" transform="translate(3207 -3283)">
    <g id="Grupo_1000158" data-name="Grupo 1000158" transform="translate(-3807 -2476)">
      <g id="Grupo_896274" data-name="Grupo 896274" transform="translate(315 -35)">
        <rect id="Rect치ngulo_344349" data-name="Rect치ngulo 344349" width="85" height="85" rx="11" transform="translate(285 5794)" fill="#cb5f72"/>
        <circle id="Elipse_4817" data-name="Elipse 4817" cx="8.5" cy="8.5" r="8.5" transform="translate(353 5804)" fill="#cceafb"/>
        <circle id="Elipse_4818" data-name="Elipse 4818" cx="3.5" cy="3.5" r="3.5" transform="translate(353 5794)" fill="#cceafb"/>
      </g>
      <g id="Grupo_998807" data-name="Grupo 998807" transform="translate(609.695 5770.67)">
        <g id="Grupo_998806" data-name="Grupo 998806" transform="translate(0 0)" clip-path="url(#clip-path)">
          <path id="Trazado_702196" data-name="Trazado 702196" d="M32.657,0c4.14,1.7,7.533,4.119,8.736,8.778a15.712,15.712,0,0,1,.364,3.975c.012,10.371-.051,20.742.034,31.111.037,4.463-1.447,8.029-5.358,10.321-1.125.659-1.08,1.517-1.093,2.526-.1,7.553-.1,7.553-7.74,7.553-5.6,0-11.208.016-16.811-.007-3.063-.012-4.251-1.2-4.307-4.2a7.67,7.67,0,0,1,0-1c.345-3.008-.117-5.455-2.873-7.539-2.6-1.97-3.556-5.2-3.575-8.511q-.065-11.666,0-23.333c.027-4.207,3.261-6.547,7.287-5.3.944.293,1.578.515,1.839-.693a.661.661,0,0,1,.269-.412c3.2-1.673,3.458-4.959,4.5-7.886C14.944,2.548,17.581,1.268,20.106,0Zm6.9,33.657c.029-7.478.176-14.957.03-22.432A8.026,8.026,0,0,0,35.23,3.889c-3-2.275-6.457-2.065-9.843-1.531a6.909,6.909,0,0,0-5.975,6.509,68.655,68.655,0,0,0-.075,8.271,2.932,2.932,0,0,0,3.192,3.137,3.039,3.039,0,0,0,3.137-3.227c.074-1.67-.039-3.348.048-5.017.12-2.287,1.446-3.47,3.729-3.471,2.33,0,3.654,1.146,3.711,3.445.078,3.177.025,6.357.021,9.535,0,.827.122,1.892-1.036,1.914-1.194.023-1.052-1.066-1.056-1.878-.016-3.012-.024-6.023,0-9.034.008-1.08-.338-1.8-1.523-1.851-1.3-.057-1.774.643-1.764,1.866.014,1.672.073,3.354-.074,5.015a5.218,5.218,0,0,1-5.455,4.783C19,22.231,19,22.231,19.449,25.469c4.537-1.953,6.827-1,8.756,3.659a4.674,4.674,0,0,0,2.778,2.709c1.377.527,2.636-.093,3.942-.252.735-.09,1.448-.008,1.618.776s-.452,1.086-1.155,1.346C31.21,35.246,27.843,33.66,26,29.235c-.752-1.81-1.929-2.979-4.054-2.365-1.908.552-2.636,2.22-2.039,4.417a12.843,12.843,0,0,0,13.973,9.306c5.295-.664,6.036-1.571,5.67-6.937M31.1,62.037c1.664.272,2.211-.565,2.126-2.094a13.081,13.081,0,0,1,.011-2.45c.238-1.78-.582-2.147-2.1-1.725-.684-.245-1.187-.65-1-1.454.171-.715.837-.663,1.395-.773,1.277-.252,2.62-.329,3.659-1.271,3.91-1.856,4.457-5.3,4.511-9.123.032-2.235-.785-1.842-2.032-.971a4.99,4.99,0,0,0-.995.05c-4.6,1.151-8.957.688-12.911-2.08a14.254,14.254,0,0,1-6.351-11.314c-2.843,1.678-5.371,1.58-7.581-.818-.407-.442-.734-.59-1.244-.185C6.588,29.425,4.4,28.968,2.226,28.2a6.224,6.224,0,0,0-.082.644q-.008,6.264-.007,12.528c.01,7.1,3.1,10.854,10.006,12.138.809.151,1.89.087,1.693,1.289-.181,1.1-1.228.907-2.047.86-3.206-.186-3.205-.192-3.2,3a11.669,11.669,0,0,1-.006,1.252c-.181,1.683.734,2.241,2.234,2.233L31.1,62.037M2.129,21.281h.016a19.5,19.5,0,0,0,.014,2.256c.221,1.887,1.172,3.175,3.21,3.147,2.141-.029,3.137-1.319,3.205-3.384.031-.919.013-1.84.008-2.76-.017-2.951-1.1-4.454-3.2-4.462-2.074-.008-3.225,1.566-3.256,4.45,0,.251,0,.5,0,.753m10.8-8.017a4.128,4.128,0,0,0-.95.32c-.26.2-.592.435-.668.716A23.172,23.172,0,0,0,11.3,26.294c.364,1.393,1.945,1.7,3.383,1.4a2.757,2.757,0,0,0,2.372-2.548c.085-1.175.719-2.554-1.171-3.31a4.8,4.8,0,0,1-2.952-4.8c0-1.209,0-2.419,0-3.771M18.8,3.6a5.747,5.747,0,0,0-3.7,5.438c-.162,2.655-.074,5.328-.048,7.992A2.833,2.833,0,0,0,17.507,20.1C17.257,14.49,15.989,8.931,18.8,3.6" transform="translate(0 0)" fill="#fff"/>
          <path id="Trazado_702197" data-name="Trazado 702197" d="M107.709,96.831c-3.085,7.193-8.367,7.225-13.193,6.071a7.843,7.843,0,0,1-5.991-7.444c-.132-2.244-.1-4.5-.059-6.751.092-4.647,2.721-7.926,6.974-8.795,5.241-1.07,9.65.875,11.615,5.109.2.43.088,1.027.654,1.267Zm-5.992-14.113c-6.333-2.642-11.11.414-11.126,7.117q0,1.622,0,3.242c.01,6.934,4.682,10.017,11.143,7.352,5.06-2.207,3.734-6.756,3.894-10.728.124-3.087-.681-5.734-3.91-6.982" transform="translate(-43.422 -39.099)" fill="#fff"/>
          <path id="Trazado_702198" data-name="Trazado 702198" d="M46.089,113.571a2.173,2.173,0,0,1,.56,1.63c-1.441.99-3.072.507-4.618.547-2.827.073-5.657.035-8.485.008-.824-.008-1.863,0-1.817-1.17.043-1.121,1.038-1.106,1.885-1.1q6.238.038,12.476.086" transform="translate(-15.579 -55.725)" fill="#fff"/>
          <path id="Trazado_702199" data-name="Trazado 702199" d="M24.357,114.509c-.158,1-.831,1.23-1.623,1.238s-1.608-.221-1.612-1.131c0-.884.736-1.154,1.575-1.167a1.511,1.511,0,0,1,1.66,1.06" transform="translate(-10.372 -55.708)" fill="#fff"/>
          <path id="Trazado_702200" data-name="Trazado 702200" d="M106,89.5a15.592,15.592,0,0,1,.025,12.534,6.873,6.873,0,0,1-7.528.409c-2.985-1.635-3-11.676-.021-13.328A6.849,6.849,0,0,1,106,89.5m-.916,6.453h-.01V92.711c0-1.133-.506-2.062-1.627-2.172-3.136-.308-5.019-.388-4.8,3.556.066,1.158,0,2.324.012,3.486.03,2.956.524,3.5,3.183,3.508,2.8.012,3.213-.423,3.237-3.4,0-.581,0-1.162,0-1.743" transform="translate(-47.264 -43.293)" fill="#fff"/>
        </g>
      </g>
    </g>
  </g>
</svg>
