<svg xmlns="http://www.w3.org/2000/svg" xmlns:xlink="http://www.w3.org/1999/xlink" width="136.494" height="136.494" viewBox="0 0 136.494 136.494">
  <defs>
    <clipPath id="clip-path">
      <rect id="Rectángulo_344853" data-name="Rectángulo 344853" width="75.367" height="94.653" fill="none"/>
    </clipPath>
  </defs>
  <g id="Grupo_1000155" data-name="Grupo 1000155" transform="translate(2833.273 -637)">
    <path id="Trazado_701958" data-name="Trazado 701958" d="M.689,643.445a68.238,68.238,0,1,1,77.172,57.943A68.239,68.239,0,0,1,.689,643.445" transform="translate(-2833.273 71.417)" fill="#ed9aa9"/>
    <path id="Trazado_701959" data-name="Trazado 701959" d="M17.748,647.442a56.688,56.688,0,1,1,64.111,48.135,56.689,56.689,0,0,1-64.111-48.135" transform="translate(-2838.897 65.793)" fill="#fff"/>
    <g id="Grupo_998729" data-name="Grupo 998729" transform="translate(-2799.812 655.945)">
      <g id="Grupo_998703" data-name="Grupo 998703" clip-path="url(#clip-path)">
        <path id="Trazado_701846" data-name="Trazado 701846" d="M55.484,34.214c-7.224-3.789-9.436-6.834-11.642-11.271-6.688-4.582-2.353-16.059,3.57-20.12C54.8-2.245,67.3-.482,70.494,8.047c7.16,19.106-15.009,26.166-15.009,26.166" transform="translate(-20.82 0)" fill="#7d4230"/>
        <path id="Trazado_701847" data-name="Trazado 701847" d="M87.983,83.191c12.628,4.984,30.528,22.884,31.888,25.788,1.382,2.95.819,4.75-1.255,5.164-2.709.541-25.041-17.968-27.992-18.69-3.016-.739-2.642-12.262-2.642-12.262" transform="translate(-45.261 -42.803)" fill="#5e4047"/>
        <path id="Trazado_701848" data-name="Trazado 701848" d="M117.452,119.434c-1.263-2.695-16.772-18.3-29.092-24.518.275,3.023.931,6.193,2.466,6.57,2.685.658,21.419,16.041,26.808,18.4-.063-.15-.109-.291-.182-.448" transform="translate(-45.463 -48.836)" fill="#3f2a2f"/>
        <path id="Trazado_701849" data-name="Trazado 701849" d="M119.593,139.842c-1.7.905-15.43,18.9-18.551,25.6l.352.183s25.526-21.653,25.494-24-5.58-2.693-7.3-1.779" transform="translate(-51.988 -71.711)" fill="#edb984"/>
        <path id="Trazado_701850" data-name="Trazado 701850" d="M28.241,81.419C17,87.593,1.765,110.319.781,113.636S-.692,118.8,2.01,118.8s21.62-22.48,24.077-23.463,2.154-13.913,2.154-13.913" transform="translate(0 -41.891)" fill="#5e4047"/>
        <path id="Trazado_701851" data-name="Trazado 701851" d="M6.043,123.255c-.166.549-.316,1.053-.441,1.519,4.386-2.353,21.271-21.464,23.593-22.295,1.451-.519,1.948-5.159,2.111-8.923-10.994,7.324-24.341,26.652-25.263,29.7" transform="translate(-2.882 -48.136)" fill="#3f2a2f"/>
        <path id="Trazado_701852" data-name="Trazado 701852" d="M46.068,158.692H73.085L69.04,125.934,50.4,126.1Z" transform="translate(-23.703 -64.795)" fill="#5e4047"/>
        <path id="Trazado_701853" data-name="Trazado 701853" d="M59.439,139.48c6.984,0,12.652,8.565,12.8,19.212h.844L69.04,125.934,50.4,126.1l-4.334,32.594h.57c.15-10.647,5.818-19.212,12.8-19.212" transform="translate(-23.703 -64.795)" fill="#3f2a2f"/>
        <path id="Trazado_701854" data-name="Trazado 701854" d="M50.077,81.335C46.223,92.009,42.789,108.36,43.444,110s29.482.819,30.137-.491-6.8-25.551-7.78-27.189-15.249-2.3-15.724-.983" transform="translate(-22.311 -41.488)" fill="#5e4047"/>
        <path id="Trazado_701855" data-name="Trazado 701855" d="M67.6,97.978c1.976,7.966,2.414,17.3,2.023,18.164-.605,1.34-24.046,2.006-24.77.33-.536-1.242-.267-9.336,1.948-18.7-2.934,9.662-5.377,20.253-4.864,21.535.655,1.638,31.12.819,31.775-.491.451-.9-3.369-12.911-6.113-20.836" transform="translate(-21.543 -50.305)" fill="#3f2a2f"/>
        <path id="Trazado_701856" data-name="Trazado 701856" d="M73.409,86.2a48.273,48.273,0,0,0-7.475-4.088c-1.948-1.457-14.56-2.015-15.468-.846a37.641,37.641,0,0,0-6.442,4.966C47.538,87.868,52.8,88.91,58.68,88.91c5.923,0,11.216-1.055,14.73-2.71" transform="translate(-22.652 -41.489)" fill="#3f2a2f"/>
        <path id="Trazado_701857" data-name="Trazado 701857" d="M59.132,80.9a36.106,36.106,0,0,0,6.92,16.079,56.763,56.763,0,0,0,6.153-15.453c-3.344-.844-10.5-1.156-13.073-.626" transform="translate(-30.424 -41.489)" fill="#f9f1d9"/>
        <path id="Trazado_701858" data-name="Trazado 701858" d="M72.125,81.507q-.246-.06-.518-.117c-.085-.018-.176-.035-.265-.052-.127-.025-.255-.049-.388-.072l-.287-.05c-.2-.033-.405-.065-.618-.1l-.284-.039c-.161-.022-.324-.043-.49-.064l-.317-.038q-.287-.033-.582-.063l-.3-.03c-.217-.021-.437-.04-.658-.059l-.305-.024q-.3-.023-.6-.043l-.231-.016c-.265-.017-.531-.031-.8-.044l-.261-.011q-.312-.014-.623-.024l-.227-.007c-.268-.008-.534-.014-.8-.017h-.177q-.321,0-.634,0h-.211c-.252,0-.5.007-.738.014l-.089,0q-.318.01-.618.026l-.176.01c-.208.013-.411.027-.6.043l-.038,0c-.2.017-.379.039-.554.062l-.142.02c-.137.02-.266.042-.385.065l-.076.015a39.169,39.169,0,0,0,2.211,7.729,47.225,47.225,0,0,0,5.11.282c1.216,0,2.4-.055,3.548-.14a43.836,43.836,0,0,0,2.2-7.244l-.079-.021" transform="translate(-30.424 -41.49)" fill="#e0d1ad"/>
        <path id="Trazado_701859" data-name="Trazado 701859" d="M72.469,100.835l-1.481-2.262.449-12.023.178-.636.41.688,1.6,11.852Z" transform="translate(-36.524 -44.204)" fill="#8a6793"/>
        <path id="Trazado_701860" data-name="Trazado 701860" d="M70.058,52.555H63.1l.593,13.624c.189,3.089,7.4,3.283,7.215.194Z" transform="translate(-32.464 -27.04)" fill="#d27558"/>
        <path id="Trazado_701861" data-name="Trazado 701861" d="M52.132,25.755c0,11.793,2.579,17.448,9.623,21.162,6.634-2.732,9.581-8.9,9.107-22.8-.248-7.239-18.73-3.662-18.73,1.64" transform="translate(-26.823 -10.31)" fill="#edb984"/>
        <path id="Trazado_701862" data-name="Trazado 701862" d="M67.437,10.909C64.686,16.017,78.927,21.515,77.783,32.8c0,0,10.915-9.519,6.385-16.985-5.1-8.4-14.356-9.313-16.731-4.9" transform="translate(-34.516 -4.274)" fill="#7d4230"/>
        <path id="Trazado_701863" data-name="Trazado 701863" d="M48.242,45.945c-.523-1.347-1.4-2.163-1.963-1.823s-.591,1.707-.067,3.053,1.4,2.163,1.963,1.823.591-1.706.067-3.053" transform="translate(-23.584 -22.662)" fill="#edb984"/>
        <path id="Trazado_701864" data-name="Trazado 701864" d="M93.176,47.379c.531-1.344.44-2.54-.2-2.672s-1.593.851-2.124,2.194-.44,2.54.2,2.672,1.593-.851,2.124-2.195" transform="translate(-46.566 -22.997)" fill="#edb984"/>
        <path id="Trazado_701865" data-name="Trazado 701865" d="M62.326,43.411c.015-1.088-.521-2.012-1.2-2.068s-1.252.785-1.271,1.881.524,2.03,1.209,2.078,1.247-.8,1.262-1.891" transform="translate(-30.796 -21.27)" fill="#5a4949"/>
        <path id="Trazado_701866" data-name="Trazado 701866" d="M81.467,43.089c0-1.144-.5-2.111-1.129-2.163s-1.14.836-1.143,1.987.507,2.129,1.137,2.174,1.135-.851,1.135-2" transform="translate(-40.747 -21.056)" fill="#5a4949"/>
        <path id="Trazado_701867" data-name="Trazado 701867" d="M59.447,32.779l-3.912.8c-.49.1-.812.485-.719.859l.186.742a.859.859,0,0,0,1.058.487l3.911-.841c.472-.1.777-.479.683-.844l-.185-.723a.84.84,0,0,0-1.022-.485" transform="translate(-28.195 -16.854)" fill="#7d4230"/>
        <path id="Trazado_701868" data-name="Trazado 701868" d="M82.609,36.236l-2.852-1.1a.773.773,0,0,0-.946.321l-.334.626a.577.577,0,0,0,.342.819L81.7,37.991a.758.758,0,0,0,.927-.328l.321-.62a.573.573,0,0,0-.334-.806" transform="translate(-40.343 -18.051)" fill="#7d4230"/>
        <path id="Trazado_701869" data-name="Trazado 701869" d="M71.483,51.4s-.178-.033-.442-.065c-.331,1.028-1.171,2.45-2.485.451-.026.031-.065.051-.086.085,1.893,3.593,2.917.3,3.013-.472" transform="translate(-35.229 -26.411)" fill="#d27558"/>
        <path id="Trazado_701870" data-name="Trazado 701870" d="M69.129,61.046a8.2,8.2,0,0,1-2.768-.133,4.167,4.167,0,0,0,5.442-.6,8.193,8.193,0,0,1-2.674.73" transform="translate(-34.144 -31.034)" fill="#d27558"/>
        <path id="Trazado_701871" data-name="Trazado 701871" d="M74.416,64.7c-.042-.15-.361-.193-.713-.095s-.6.3-.559.451.361.193.712.095.6-.3.56-.451" transform="translate(-37.631 -33.213)" fill="#d27558"/>
        <path id="Trazado_701872" data-name="Trazado 701872" d="M75.412,110.878c.463-.676-.978-2.753-1.618-2.685-.538.058-1.893-.095-4.295,3.7l.536,1.016s4.917-1.368,5.376-2.036" transform="translate(-35.759 -55.666)" fill="#edb984"/>
        <path id="Trazado_701873" data-name="Trazado 701873" d="M77.5,111.18a1.266,1.266,0,0,0,.407-.3c.463-.675-.978-2.752-1.618-2.684a2.947,2.947,0,0,0-1.946.823A3.46,3.46,0,0,1,77.5,111.18" transform="translate(-38.249 -55.666)" fill="#edb984"/>
        <path id="Trazado_701874" data-name="Trazado 701874" d="M72.782,108.962a15.684,15.684,0,0,0-2.4,2.918l.455.724a3.726,3.726,0,0,0,1.278-1.116,3.171,3.171,0,0,0,.667-2.525" transform="translate(-36.213 -56.063)" fill="#edb984"/>
        <path id="Trazado_701875" data-name="Trazado 701875" d="M3.627,132.073c4.846-7.36,34-18.263,34-18.263l.639.377s-22.3,16.9-27.686,20.035c-7.176,4.169-6.954-2.149-6.954-2.149" transform="translate(-1.866 -58.557)" fill="#edb984"/>
        <path id="Trazado_701876" data-name="Trazado 701876" d="M73.135,105.7c1.724,2.18-.214,1.308-.214,1.308l-.544.24a3.838,3.838,0,0,1-2,3.508l-1.5-.211c.732-4.018,3.787-5.441,4.259-4.845" transform="translate(-35.438 -54.318)" fill="#edb984"/>
        <path id="Trazado_701877" data-name="Trazado 701877" d="M79.022,104.467a7.957,7.957,0,0,0-3.22.712l.186,1.486s4.768-2.2,3.034-2.2" transform="translate(-39.001 -53.75)" fill="#edb984"/>
        <path id="Trazado_701878" data-name="Trazado 701878" d="M76.9,106.144c3.015-2.033,4.854-2.223,5.106-2.125s-3.864,2.568-3.864,2.568Z" transform="translate(-39.567 -53.509)" fill="#edb984"/>
        <path id="Trazado_701879" data-name="Trazado 701879" d="M81.089,109.4c.978-.712,3.688-2.439,3.922-2.2s-3.508,3.07-4.15,3.383.228-1.182.228-1.182" transform="translate(-41.483 -55.145)" fill="#edb984"/>
        <path id="Trazado_701880" data-name="Trazado 701880" d="M79.522,107.1c1.849-1.046,4.911-2.6,5.287-2.42s-3.97,3.088-4.433,3.291-.853-.871-.853-.871" transform="translate(-40.915 -53.851)" fill="#edb984"/>
        <path id="Trazado_701881" data-name="Trazado 701881" d="M59.838,116.818l-2.807,1.321.454,5.284,2.931-1.817Z" transform="translate(-29.343 -60.105)" fill="#f9f1d9"/>
        <path id="Trazado_701882" data-name="Trazado 701882" d="M28.485,118.6l.578,5.862s-24,18.4-28.277,13.19c-5-6.089,27.7-19.052,27.7-19.052" transform="translate(-0.138 -61.024)" fill="#5e4047"/>
        <path id="Trazado_701883" data-name="Trazado 701883" d="M28.819,125.5C26.7,127.1,4.777,143.517.708,138.56c-.028-.034-.048-.069-.073-.1A2.363,2.363,0,0,0,.79,141.2c4.277,5.21,28.276-13.19,28.276-13.19Z" transform="translate(-0.141 -64.57)" fill="#3f2a2f"/>
        <path id="Trazado_701884" data-name="Trazado 701884" d="M103.8,161.231l2.642,4.294s22.294-22.7,22.213-24.852-5.7-4.047-8.094-2.148S103.8,161.231,103.8,161.231" transform="translate(-53.407 -70.872)" fill="#5e4047"/>
        <path id="Trazado_701885" data-name="Trazado 701885" d="M62.214,79.243l.962-1.461q4.073,5.207,7.338.333l.826,1.362-1.817,3.674-2.312-1.4-2.972,1.734Z" transform="translate(-32.01 -40.02)" fill="#e5d7b7"/>
        <path id="Trazado_701886" data-name="Trazado 701886" d="M71.315,86.148,70.1,84.914l1.246-1.333,1,1.3Z" transform="translate(-36.07 -43.004)" fill="#8a6793"/>
        <path id="Trazado_701887" data-name="Trazado 701887" d="M72.2,178.722a71.755,71.755,0,0,1-5.37-13.859s-1.426,5.1-7.443,13.859Z" transform="translate(-30.555 -84.825)" fill="#e0d1ad"/>
        <path id="Trazado_701888" data-name="Trazado 701888" d="M63.1,181.61h9.656a75.869,75.869,0,0,1-4.014-11.134S67.6,174.526,63.1,181.61" transform="translate(-32.465 -87.713)" fill="#f9f1d9"/>
        <path id="Trazado_701889" data-name="Trazado 701889" d="M73.035,132.461c0-.844-.5-1.527-1.115-1.527s-1.115.684-1.115,1.527.5,1.527,1.115,1.527,1.115-.684,1.115-1.527" transform="translate(-36.431 -67.368)" fill="#3f2a2f"/>
        <path id="Trazado_701890" data-name="Trazado 701890" d="M73.928,153.38c0-.844-.5-1.527-1.115-1.527s-1.115.684-1.115,1.527.5,1.527,1.115,1.527,1.115-.684,1.115-1.527" transform="translate(-36.89 -78.131)" fill="#3f2a2f"/>
        <path id="Trazado_701891" data-name="Trazado 701891" d="M73.046,122.584c0-.718-.425-1.3-.948-1.3s-.949.582-.949,1.3.425,1.3.949,1.3.948-.582.948-1.3" transform="translate(-36.607 -62.403)" fill="#3f2a2f"/>
        <path id="Trazado_701892" data-name="Trazado 701892" d="M110.964,79.075a4.3,4.3,0,1,1,4.417.288l.611.912a5.382,5.382,0,1,0-6.013-.578Z" transform="translate(-55.583 -36.102)" fill="#8a6793"/>
        <path id="Trazado_701893" data-name="Trazado 701893" d="M121.13,83.095l1.3-.053.147,3.321,3.588-.062.028,1.3-4.86.084Z" transform="translate(-62.324 -42.726)" fill="#8a6793"/>
      </g>
    </g>
  </g>
</svg>
