<svg xmlns="http://www.w3.org/2000/svg" xmlns:xlink="http://www.w3.org/1999/xlink" width="136.494" height="136.494" viewBox="0 0 136.494 136.494">
  <defs>
    <clipPath id="clip-path">
      <rect id="Rectángulo_344843" data-name="Rectángulo 344843" width="89.866" height="78.528" fill="none"/>
    </clipPath>
    <clipPath id="clip-path-3">
      <rect id="Rectángulo_344840" data-name="Rectángulo 344840" width="17.214" height="48.362" fill="none"/>
    </clipPath>
    <clipPath id="clip-path-4">
      <rect id="Rectángulo_344841" data-name="Rectángulo 344841" width="43.836" height="11.904" fill="none"/>
    </clipPath>
  </defs>
  <g id="Grupo_1000150" data-name="Grupo 1000150" transform="translate(3387 -416.627)">
    <path id="Trazado_705402" data-name="Trazado 705402" d="M.689,643.445a68.238,68.238,0,1,1,77.172,57.943A68.239,68.239,0,0,1,.689,643.445" transform="translate(-3387 -148.956)" fill="#0098e8"/>
    <path id="Trazado_705403" data-name="Trazado 705403" d="M17.748,647.442a56.688,56.688,0,1,1,64.111,48.135,56.689,56.689,0,0,1-64.111-48.135" transform="translate(-3392.624 -154.58)" fill="#fff"/>
    <g id="Grupo_1000147" data-name="Grupo 1000147" transform="translate(-3364.707 442.377)">
      <g id="Grupo_998683" data-name="Grupo 998683" clip-path="url(#clip-path)">
        <g id="Grupo_998682" data-name="Grupo 998682">
          <g id="Grupo_998681" data-name="Grupo 998681" clip-path="url(#clip-path)">
            <path id="Trazado_701610" data-name="Trazado 701610" d="M5.469,59.191C3.17,57.314,2.795,52.9,3.076,51.4s4.269-2.768,5.4-2.064,3,6.333,3.143,7.365-5.109,3.333-6.146,2.487" transform="translate(-1.881 -30.863)" fill="#e79b69"/>
            <path id="Trazado_701611" data-name="Trazado 701611" d="M7.256,67.354A4.759,4.759,0,0,0,4.4,67.2a6.63,6.63,0,0,0,1.95,3.24c.533.435,2.176.037,3.631-.591a4.031,4.031,0,0,0-2.727-2.494" transform="translate(-2.765 -42.111)" fill="#edb984"/>
            <path id="Trazado_701612" data-name="Trazado 701612" d="M9.454,73.605l-1.01-3.564,6.217-2.957,1.97,4.129Z" transform="translate(-5.304 -42.134)" fill="#edb984"/>
            <g id="Grupo_998677" data-name="Grupo 998677" transform="translate(16.565 9.239)" opacity="0.8">
              <g id="Grupo_998676" data-name="Grupo 998676">
                <g id="Grupo_998675" data-name="Grupo 998675" clip-path="url(#clip-path-3)">
                  <path id="Trazado_701613" data-name="Trazado 701613" d="M66.393,50.582c-1.156-2.733.573-6.808,1.523-8s5.068-.452,5.735.7-.3,7-.662,7.981-6.075.559-6.6-.673" transform="translate(-58.024 -35.599)" fill="#e79b69"/>
                  <path id="Trazado_701614" data-name="Trazado 701614" d="M68.638,56.446a4.76,4.76,0,0,0-2.45-1.471,6.624,6.624,0,0,0,.21,3.776c.268.633,1.907,1.05,3.486,1.174a4.032,4.032,0,0,0-1.246-3.479" transform="translate(-58.028 -43.768)" fill="#edb984"/>
                  <path id="Trazado_701615" data-name="Trazado 701615" d="M64.432,67.188l.773-3.623,6.878.291L71.9,68.426Z" transform="translate(-57.033 -49.162)" fill="#edb984"/>
                  <path id="Trazado_701616" data-name="Trazado 701616" d="M68.661,34.958c1.442-4.226,2.412-7.269,2.712-7.535s1.644-.3,1.654.184-1.361,5.31-1.361,5.31a5.2,5.2,0,0,1-3,2.041" transform="translate(-59.69 -26.342)" fill="#edb984"/>
                  <path id="Trazado_701617" data-name="Trazado 701617" d="M84.366,36.648c.7-3.8,1.185-7.338,1-7.691s-1.292-.811-1.479-.363-1.046,5.3-1.046,5.3c.017,1.477.93,1.818,1.52,2.752" transform="translate(-68.599 -27.082)" fill="#edb984"/>
                  <path id="Trazado_701618" data-name="Trazado 701618" d="M76.794,31.379S78.412,25.2,78.608,24.9c.078-.117,1.419-.092,1.568.3s-1.156,6.525-1.156,6.525c-.967.745-1.718.665-2.226-.352" transform="translate(-64.798 -24.841)" fill="#edb984"/>
                  <path id="Trazado_701619" data-name="Trazado 701619" d="M79.587,54.7c1.405-2.008,2.574-5.273,2.239-6.246s-3.636-1.656-4.4-1.421a1.159,1.159,0,0,0-.438,1.732,11.809,11.809,0,0,0,2.629.647l-.073.439a3.335,3.335,0,0,0-2.814,1.909c-.774,1.835,1.767,4.489,2.851,2.939" transform="translate(-64.671 -38.749)" fill="#edb984"/>
                  <path id="Trazado_701620" data-name="Trazado 701620" d="M75.5,36.985,77,32.342l-1.233,4.78Z" transform="translate(-63.984 -29.552)" fill="#e79b69"/>
                  <path id="Trazado_701621" data-name="Trazado 701621" d="M81.931,36.873l1.1-4.7-.824,4.822Z" transform="translate(-68.024 -29.446)" fill="#e79b69"/>
                  <path id="Trazado_701622" data-name="Trazado 701622" d="M68.781,70.346l-8.565-1.177-1.8,5.8L68.488,76Z" transform="translate(-53.255 -52.682)" fill="#e0d5a9"/>
                  <path id="Trazado_701623" data-name="Trazado 701623" d="M54.593,75.543c-3.646,7.714-3.665,19.311-2.6,23.763s13.02,1.528,13.02,1.528,1.176-12.791-.349-23.961Z" transform="translate(-48.838 -56.686)" fill="#c6ae47"/>
                  <path id="Trazado_701624" data-name="Trazado 701624" d="M50.328,102.738c-1.118-4.526.677-18.116,3.8-26.689l-3.838-.507c-3.646,7.714-6.6,21.328-5.534,25.78.436,1.816,3.821,3.315,6.808,3.725a5.316,5.316,0,0,1-1.24-2.31" transform="translate(-44.539 -56.686)" fill="#b29a32"/>
                </g>
              </g>
            </g>
            <path id="Trazado_701625" data-name="Trazado 701625" d="M17.349,73.864,9.362,77.171l1.372,5.912L19.953,78.9Z" transform="translate(-5.88 -46.393)" fill="#e0d5a9"/>
            <path id="Trazado_701626" data-name="Trazado 701626" d="M188.687,93.308l1.2,31.345c2.886,2.36,4.6,12.479,4.6,12.479h13.887c0-18.485-7.788-34.624-19.69-43.825" transform="translate(-118.511 -58.605)" fill="#c6ae47"/>
            <path id="Trazado_701627" data-name="Trazado 701627" d="M199.6,157.424c.312-12.386-5.9-29.558-8.79-31.809l-1.408,19.7c2.886,2.361,5.536,12.1,5.536,12.1Z" transform="translate(-118.96 -78.896)" fill="#b29a32"/>
            <path id="Trazado_701628" data-name="Trazado 701628" d="M63.011,82.187c-13.76,1.557-36.535,19.47-36.729,21.219s2.823,12.321,8.734,11.121c2.639-.536,17.616-3.034,21.245-8.4,4.5-6.653,6.75-23.94,6.75-23.94" transform="translate(-16.502 -51.62)" fill="#c6ae47"/>
            <path id="Trazado_701629" data-name="Trazado 701629" d="M55.292,120.02c-7.236,3.433-19.34,13.3-24.674,12.5,1.442,3.077,3.835,6.06,7.127,5.392,2.639-.536,17.616-3.034,21.245-8.4a34.715,34.715,0,0,0,3.852-9.531c-3.284,3.254-2.59-2.315-7.55.038" transform="translate(-19.231 -75.006)" fill="#b29a32"/>
            <path id="Trazado_701630" data-name="Trazado 701630" d="M83.441,125.293l41.755.274c.784-11.848,4.638-36.429-1.22-42.5C118.405,77.3,109.338,74.9,109.338,74.9s-12.69.434-19.517,10.321c-4.758,6.891-6.381,40.066-6.381,40.066" transform="translate(-52.408 -47.046)" fill="#c6ae47"/>
            <path id="Trazado_701631" data-name="Trazado 701631" d="M149.933,83.068C144.362,77.3,135.3,74.9,135.3,74.9a30.634,30.634,0,0,0-10.528,2.757c2.469,2.012,6.793,3.946,11.913,5.123,5.379,1.236,10.334,1.336,13.412.474-.055-.062-.1-.133-.16-.192" transform="translate(-78.364 -47.046)" fill="#b29a32"/>
            <path id="Trazado_701632" data-name="Trazado 701632" d="M188.957,132.2c-.175-2.465-.633-2.418-.633-1.339,0,11.724-2.641,22.351-7.081,29.374l5.944.035c.542-8.181,2.509-18.033,1.77-28.07" transform="translate(-113.835 -81.747)" fill="#b29a32"/>
            <path id="Trazado_701633" data-name="Trazado 701633" d="M85.013,133.745c-2.04,12.11-3.338,28.5-3.338,28.5l10.486.065c-4.316-6.922-7.072-17.139-7.149-28.569" transform="translate(-51.298 -84.003)" fill="#b29a32"/>
            <path id="Trazado_701634" data-name="Trazado 701634" d="M140.281,73.895a49.169,49.169,0,0,0-7.575,1.949,45.261,45.261,0,0,0,6.073,11.938,53.519,53.519,0,0,0,9.508-10.227,66,66,0,0,0-8.006-3.66" transform="translate(-83.35 -46.412)" fill="#e0d5a9"/>
            <path id="Trazado_701635" data-name="Trazado 701635" d="M9.78,83.246c.748,8.5,6.586,18.519,9.755,21.823s12.01-5.255,12.01-5.255S26.1,88.179,19.148,79.308Z" transform="translate(-6.143 -49.812)" fill="#c6ae47"/>
            <path id="Trazado_701636" data-name="Trazado 701636" d="M23.539,110.821c-3.249-3.342-8.562-15.98-10.19-24.958l-3.569,1.5c.748,8.5,5.069,21.744,8.238,25.047,1.293,1.347,4.972.932,7.757-.222a5.31,5.31,0,0,1-2.236-1.368" transform="translate(-6.143 -53.929)" fill="#b29a32"/>
            <path id="Trazado_701637" data-name="Trazado 701637" d="M144.193,83.287a42.187,42.187,0,0,0,4.094-5.1l0,0c-.182-.1-.362-.193-.542-.289a40.234,40.234,0,0,0-7.461-2.994,29.774,29.774,0,0,0-7.326,1.491l-.248.083a40.417,40.417,0,0,0,1.463,3.812,39.449,39.449,0,0,0,7.5,2.495c.855.2,1.7.361,2.526.5" transform="translate(-83.35 -47.046)" fill="#d1c18f"/>
            <path id="Trazado_701638" data-name="Trazado 701638" d="M149.057,55.849l-8.63-.37-.779,8.154c.951,3.482,7.362,3.882,10.2.9Z" transform="translate(-87.711 -34.845)" fill="#d27558"/>
            <path id="Trazado_701639" data-name="Trazado 701639" d="M133.855,41.67c-.749-1.674-2.208-2.769-3.259-2.446s-1.295,1.941-.545,3.615,2.208,2.769,3.259,2.446,1.3-1.941.546-3.615" transform="translate(-81.409 -24.601)" fill="#edb984"/>
            <path id="Trazado_701640" data-name="Trazado 701640" d="M134.564,43.306c-.5-1.132-1.45-1.883-2.122-1.677s-.81,1.292-.309,2.425,1.45,1.883,2.122,1.677.81-1.292.31-2.425" transform="translate(-82.801 -26.125)" fill="#d27558"/>
            <path id="Trazado_701641" data-name="Trazado 701641" d="M137.131,46.757c-.338-.754-1-1.248-1.469-1.1s-.584.875-.246,1.629,1,1.248,1.469,1.1.584-.875.246-1.629" transform="translate(-84.929 -28.659)" fill="#edb984"/>
            <path id="Trazado_701642" data-name="Trazado 701642" d="M167.388,45.367c.749-1.674,2.208-2.769,3.259-2.446s1.295,1.941.545,3.615-2.208,2.769-3.259,2.446-1.3-1.941-.546-3.615" transform="translate(-104.86 -26.923)" fill="#edb984"/>
            <path id="Trazado_701643" data-name="Trazado 701643" d="M169.215,47.235c.492-1.1,1.45-1.818,2.14-1.608s.849,1.272.357,2.37-1.45,1.819-2.14,1.608-.849-1.272-.357-2.37" transform="translate(-106.101 -28.634)" fill="#d27558"/>
            <path id="Trazado_701644" data-name="Trazado 701644" d="M168.7,49.892c.349-.778,1.027-1.288,1.516-1.139s.6.9.253,1.679-1.027,1.288-1.516,1.139-.6-.9-.253-1.679" transform="translate(-105.83 -30.605)" fill="#edb984"/>
            <path id="Trazado_701645" data-name="Trazado 701645" d="M151.216,4.2c-1.105-2.619-2.763-.733-2.763-.733s.774-1.362-1.437-2.934-4.753.838-4.753.838C138.614.951,136.4,4.094,136.4,4.094c-2.874,1.362-2.211,5.448-2.211,5.448a62.851,62.851,0,0,0,2.439,14l8.726,1.083c3.137-4.688,4.422-12.049,4.422-12.049s2.542-5.763,1.437-8.382" transform="translate(-84.242 0)" fill="#823830"/>
            <path id="Trazado_701646" data-name="Trazado 701646" d="M139.236,16.537c-1.23,1.983-2.59,16.37-.774,19.383a6.714,6.714,0,0,0,4.552,2.209,8.548,8.548,0,0,0,5.508-1.371c1.658-1.572,2.666-17.252,1.768-19.593-.884-2.3-9.949-2.41-11.054-.629" transform="translate(-86.412 -9.614)" fill="#edb984"/>
            <path id="Trazado_701647" data-name="Trazado 701647" d="M162.217,41.034c.124-.664.578-1.1,1.013-.98s.688.759.563,1.423-.578,1.1-1.013.98-.687-.759-.563-1.423" transform="translate(-101.866 -25.144)" fill="#5a4949"/>
            <path id="Trazado_701648" data-name="Trazado 701648" d="M161.6,32.61l2.626.969a.428.428,0,0,1,.278.518l-.253.771a.392.392,0,0,1-.522.223l-2.626-.969a.427.427,0,0,1-.278-.518l.253-.772a.391.391,0,0,1,.521-.223" transform="translate(-100.997 -20.464)" fill="#823830"/>
            <path id="Trazado_701649" data-name="Trazado 701649" d="M144.88,39.39c.054-.669.46-1.147.908-1.068s.768.686.715,1.355-.46,1.147-.908,1.068-.768-.686-.714-1.355" transform="translate(-90.993 -24.064)" fill="#5a4949"/>
            <path id="Trazado_701650" data-name="Trazado 701650" d="M142.258,31.182l2.868-.114a.428.428,0,0,1,.456.389l.041.847a.419.419,0,0,1-.417.424l-2.868.114a.427.427,0,0,1-.456-.389l-.041-.847a.418.418,0,0,1,.417-.424" transform="translate(-89.087 -19.513)" fill="#823830"/>
            <path id="Trazado_701651" data-name="Trazado 701651" d="M153.1,44.933c-.256,1.347-.291,2.437.219,2.956a.787.787,0,0,0,.88.187l.012.033s-.756.6-1.317.127c-.6-.513-.323-1.79.206-3.3" transform="translate(-95.813 -28.222)" fill="#d27558"/>
            <path id="Trazado_701652" data-name="Trazado 701652" d="M147.324,58.192l5.123.775a2.535,2.535,0,0,1-2.815,2.334c-2.037-.2-2.308-3.109-2.308-3.109" transform="translate(-92.531 -36.549)" fill="#3e2d34"/>
            <path id="Trazado_701653" data-name="Trazado 701653" d="M148.584,59.849a2.994,2.994,0,0,1-.293-1.112l4.478.688a2.078,2.078,0,0,1-.752.88Z" transform="translate(-93.139 -36.892)" fill="#f9eddb"/>
            <path id="Trazado_701654" data-name="Trazado 701654" d="M151.848,68.041c.02-.115-.36-.113-.833-.194s-.858-.215-.878-.1.334.435.807.516.884-.107.9-.222" transform="translate(-94.297 -42.523)" fill="#d27558"/>
            <g id="Grupo_998680" data-name="Grupo 998680" transform="translate(31.405 57.613)" opacity="0.43" style="mix-blend-mode: overlay;isolation: isolate">
              <g id="Grupo_998679" data-name="Grupo 998679">
                <g id="Grupo_998678" data-name="Grupo 998678" clip-path="url(#clip-path-4)">
                  <path id="Trazado_701655" data-name="Trazado 701655" d="M127.623,174.972,84.777,172.8c-.119,1.058-.231,2.087-.336,3.079l42.846,2.168q.172-1.52.337-3.079" transform="translate(-84.441 -166.148)" fill="#fff7d0"/>
                  <path id="Trazado_701656" data-name="Trazado 701656" d="M129.486,154.907l-42.723.258c-.138,1.054-.27,2.106-.4,3.147l42.884.868c.107-1.41.189-2.836.236-4.274" transform="translate(-85.65 -154.907)" fill="#fff7d0"/>
                </g>
              </g>
            </g>
            <path id="Trazado_701657" data-name="Trazado 701657" d="M34.883,31.516A4.749,4.749,0,0,1,38.33,30.03a5.157,5.157,0,0,1,3.54,1.176l-.395.4a4.568,4.568,0,0,0-3.13-1.015A4.2,4.2,0,0,0,35.3,31.9Z" transform="translate(-21.909 -18.86)" fill="#c45b7b"/>
            <path id="Trazado_701658" data-name="Trazado 701658" d="M49.54,31.726l-.161-.54,1.382-.412-.407-1.5.543-.149.552,2.027Z" transform="translate(-31.014 -18.295)" fill="#c45b7b"/>
            <path id="Trazado_701659" data-name="Trazado 701659" d="M34.192,30.494l.563.019-.048,1.442,1.548.089-.032.562-2.1-.121Z" transform="translate(-21.434 -19.153)" fill="#c45b7b"/>
            <path id="Trazado_701660" data-name="Trazado 701660" d="M1.144,45.621c-.7-4.41-1.263-7.554-1.123-7.929s1.314-1.032,1.548-.61,1.278,5.33,1.278,5.33a5.2,5.2,0,0,1-1.7,3.209" transform="translate(0 -23.205)" fill="#edb984"/>
            <path id="Trazado_701661" data-name="Trazado 701661" d="M13.361,41.53c-1.157-3.685-2.381-7.042-2.7-7.27s-1.521-.113-1.477.37,1.553,5.177,1.553,5.177c.7,1.3,1.671,1.173,2.629,1.723" transform="translate(-5.764 -21.448)" fill="#edb984"/>
            <path id="Trazado_701662" data-name="Trazado 701662" d="M5.255,39.527S3.8,33.3,3.832,32.952c.014-.14,1.212-.745,1.529-.463S7.387,38.8,7.387,38.8c-.507,1.111-1.209,1.391-2.133.729" transform="translate(-2.406 -20.36)" fill="#edb984"/>
            <path id="Trazado_701663" data-name="Trazado 701663" d="M16.738,58.72c.3-2.432-.188-5.864-.938-6.568s-3.988.234-4.551.8a1.159,1.159,0,0,0,.422,1.736,11.787,11.787,0,0,0,2.627-.657l.141.422a3.334,3.334,0,0,0-1.6,3c.173,1.984,3.659,3.143,3.894,1.267" transform="translate(-6.91 -32.598)" fill="#edb984"/>
            <path id="Trazado_701664" data-name="Trazado 701664" d="M6.22,46.146l-.838-4.808,1.143,4.8Z" transform="translate(-3.38 -25.964)" fill="#e79b69"/>
            <path id="Trazado_701665" data-name="Trazado 701665" d="M11.255,43.359l-1.221-4.671,1.525,4.648Z" transform="translate(-6.303 -24.299)" fill="#e79b69"/>
          </g>
        </g>
      </g>
    </g>
  </g>
</svg>
