<svg xmlns="http://www.w3.org/2000/svg" xmlns:xlink="http://www.w3.org/1999/xlink" width="136.494" height="136.494" viewBox="0 0 136.494 136.494">
  <defs>
    <clipPath id="clip-path">
      <rect id="Rect치ngulo_344852" data-name="Rect치ngulo 344852" width="67.504" height="88.442" fill="none"/>
    </clipPath>
    <clipPath id="clip-path-3">
      <rect id="Rect치ngulo_344850" data-name="Rect치ngulo 344850" width="22.159" height="46.004" fill="none"/>
    </clipPath>
  </defs>
  <g id="Grupo_1000154" data-name="Grupo 1000154" transform="translate(3191.027 -637)">
    <path id="Trazado_701956" data-name="Trazado 701956" d="M.689,643.445a68.238,68.238,0,1,1,77.172,57.943A68.239,68.239,0,0,1,.689,643.445" transform="translate(-3191.027 71.417)" fill="#0098e8"/>
    <path id="Trazado_701957" data-name="Trazado 701957" d="M17.748,647.442a56.688,56.688,0,1,1,64.111,48.135,56.689,56.689,0,0,1-64.111-48.135" transform="translate(-3196.65 65.793)" fill="#fff"/>
    <g id="Grupo_998728" data-name="Grupo 998728" transform="translate(-3162.017 659.051)">
      <g id="Grupo_998701" data-name="Grupo 998701" clip-path="url(#clip-path)">
        <g id="Grupo_998700" data-name="Grupo 998700">
          <g id="Grupo_998699" data-name="Grupo 998699" clip-path="url(#clip-path)">
            <path id="Trazado_701796" data-name="Trazado 701796" d="M70.166,69.594C47.113,53.713,42.1-6.874,68.26,1.755,70.045-2.115,89.524-1,90.174,19.835,91.45,60.683,70.166,69.594,70.166,69.594" transform="translate(-27.562 0)" fill="#7d4230"/>
            <path id="Trazado_701797" data-name="Trazado 701797" d="M108.46,79.4c9.361,4.159,16.438,31.174,17.143,36.553.336,2.564-5.027,4.657-7-.911s-6.214-18.182-8.369-20.348S108.46,79.4,108.46,79.4" transform="translate(-58.987 -43.191)" fill="#6dc6d1"/>
            <path id="Trazado_701798" data-name="Trazado 701798" d="M109.332,102.529c2.186,2.094,6.61,14.293,8.664,19.678.963,2.527,2.645,3.41,4.125,3.393-.767-4.841-6.77-25.92-14.71-33.239.156,3.856.612,8.914,1.922,10.169" transform="translate(-58.43 -50.243)" fill="#55b0b7"/>
            <path id="Trazado_701799" data-name="Trazado 701799" d="M54.829,77.234c-9.461,4.045-17.184,30.322-18.017,35.555-.4,2.494,4.916,4.53,7.022-.886s6.649-17.685,8.856-19.792,2.14-14.877,2.14-14.877" transform="translate(-20.014 -42.015)" fill="#6dc6d1"/>
            <path id="Trazado_701800" data-name="Trazado 701800" d="M44.061,117.759a4.732,4.732,0,0,0,3.823-3.229c2.176-5.175,6.913-17,9.173-18.987,1.873-1.644,2.307-10.726,2.4-13.782-8.484,8.557-14.679,31.152-15.384,35.827-.008.057-.011.114-.014.171" transform="translate(-23.969 -44.477)" fill="#55b0b7"/>
            <path id="Trazado_701801" data-name="Trazado 701801" d="M66.966,157.416H94.778l-6.431-30.586-16.893-.036Z" transform="translate(-36.429 -68.974)" fill="#6dc6d1"/>
            <path id="Trazado_701802" data-name="Trazado 701802" d="M80.1,138.489c6.645.042,12.72,8.125,13.816,18.927h.862l-6.431-30.586-16.893-.036-4.488,30.623h.592c.312-10.891,5.867-18.969,12.542-18.927" transform="translate(-36.429 -68.974)" fill="#55b0b7"/>
            <path id="Trazado_701803" data-name="Trazado 701803" d="M70.79,76.534c-3.968,10.481-5.154,25.538-4.48,27.146s24.332,1.086,25.007-.2-4.4-24-5.416-25.609S71.28,75.242,70.79,76.534" transform="translate(-35.975 -41.315)" fill="#6dc6d1"/>
            <path id="Trazado_701804" data-name="Trazado 701804" d="M86.894,88.9c1.449,7.174,3.331,19.376,2.838,20.3-.677,1.269-22.174,2.189-22.845.6-.462-1.093-.39-9.064,1-17.3-1.977,8.728-2.642,17.5-2.143,18.69.674,1.608,25.1.986,25.775-.3.519-.991-2.674-14.918-4.629-21.994" transform="translate(-35.68 -48.36)" fill="#55b0b7"/>
            <path id="Trazado_701805" data-name="Trazado 701805" d="M87.463,77.6c-2.234-1.447-14.352-2.286-14.814-1.068a10.9,10.9,0,0,0-3.1,2.142,37.379,37.379,0,0,0,22.034,2.4A12.649,12.649,0,0,0,87.463,77.6" transform="translate(-37.835 -41.315)" fill="#55b0b7"/>
            <path id="Trazado_701806" data-name="Trazado 701806" d="M76.768,76.35a21.179,21.179,0,0,0,7.808,13.478A21.73,21.73,0,0,0,91.386,77.6c-2.117-1.364-13.01-2.185-14.618-1.25" transform="translate(-41.761 -41.316)" fill="#97f0f7"/>
            <path id="Trazado_701807" data-name="Trazado 701807" d="M138.352,153.927c-.071-3.545-1.9-6.3-4.095-6.16s-3.909,3.132-3.838,6.676,1.9,6.3,4.095,6.16,3.909-3.131,3.838-6.676" transform="translate(-70.945 -80.382)" fill="#fffdde"/>
            <path id="Trazado_701808" data-name="Trazado 701808" d="M132.725,149.1c-1.4,1.066-2.359,3.413-2.306,6.072.058,2.893,1.29,5.26,2.932,5.955.228-1.414,1.361-2.483,1.361-4.146a17.5,17.5,0,0,0-1.987-7.881" transform="translate(-70.945 -81.108)" fill="#efeac2"/>
            <path id="Trazado_701809" data-name="Trazado 701809" d="M42.059,140.964c-.876-3.435-3.289-5.7-5.39-5.065s-3.094,3.939-2.217,7.375,3.289,5.7,5.39,5.065,3.093-3.939,2.217-7.375" transform="translate(-18.568 -73.869)" fill="#efeac2"/>
            <path id="Trazado_701810" data-name="Trazado 701810" d="M41.293,138.342c-1.145-1.87-2.8-2.9-4.3-2.441a3.716,3.716,0,0,0-2.26,2.776c1.145,1.87,2.8,2.9,4.3,2.442a3.717,3.717,0,0,0,2.26-2.777" transform="translate(-18.896 -73.87)" fill="#fffdde"/>
            <path id="Trazado_701811" data-name="Trazado 701811" d="M133.724,172.243h5.608c.281-6.167.2-12.254-.77-15.925a2.935,2.935,0,0,0-3.514-2.182c-1.444.369-2.886,1.716-2.738,5.681.079,2.123.678,7.018,1.415,12.426" transform="translate(-71.97 -83.801)" fill="#edb984"/>
            <path id="Trazado_701812" data-name="Trazado 701812" d="M134.949,154.3c-1.41.406-2.783,1.778-2.639,5.651.079,2.123.679,7.018,1.415,12.426h2.46c.1-1.524.153-3.131.153-4.8a54.893,54.893,0,0,0-1.389-13.28" transform="translate(-71.97 -83.94)" fill="#e79b69"/>
            <path id="Trazado_701813" data-name="Trazado 701813" d="M91.155,77.471l-.046-.021c-.074-.036-.152-.071-.239-.106l-.094-.035c-.076-.03-.153-.059-.237-.088-.041-.014-.085-.027-.128-.041-.08-.026-.161-.052-.248-.078l-.151-.042-.267-.073-.166-.041c-.093-.023-.187-.046-.285-.068l-.188-.041-.3-.064-.2-.04-.312-.059-.221-.04-.32-.055-.229-.037-.33-.051-.248-.036-.326-.046-.266-.036-.313-.04-.3-.036-.285-.032-.328-.036-.252-.025-.371-.036-.174-.016-.45-.039h-.01c-3.186-.258-6.305-.229-7.109.239a22.171,22.171,0,0,0,1.016,3.919,38.716,38.716,0,0,0,6.432,1.266,39.192,39.192,0,0,0,6,.218A19.418,19.418,0,0,0,91.386,77.6a2.43,2.43,0,0,0-.232-.13" transform="translate(-41.761 -41.317)" fill="#7edde0"/>
            <path id="Trazado_701814" data-name="Trazado 701814" d="M79.379,76.059a5.9,5.9,0,0,0,11.312.815,43.358,43.358,0,0,0-11.312-.815" transform="translate(-43.181 -41.318)" fill="#beeaea"/>
            <path id="Trazado_701815" data-name="Trazado 701815" d="M91.121,48.631l-5.951-.866L84.341,60.77c-.15,3.734,7.238,4.031,7.388.3Z" transform="translate(-45.88 -25.984)" fill="#d27558"/>
            <path id="Trazado_701816" data-name="Trazado 701816" d="M82.821,43.381c-9.08-4.509-8.754-12.853-8.7-17.657s3.338-8.194,8.369-8.194,8.337,2.814,8.246,10.691a19.4,19.4,0,0,1-7.917,15.159" transform="translate(-40.314 -9.537)" fill="#edb984"/>
            <path id="Trazado_701817" data-name="Trazado 701817" d="M70.487,44.9c-.4-1.356-1.145-2.368-1.66-2.259s-.607,1.3-.205,2.653,1.145,2.368,1.66,2.259.607-1.3.205-2.653" transform="translate(-37.193 -23.194)" fill="#edb984"/>
            <path id="Trazado_701818" data-name="Trazado 701818" d="M111.248,44.9c.4-1.356,1.145-2.368,1.66-2.259s.607,1.3.205,2.653-1.145,2.368-1.66,2.259-.607-1.3-.205-2.653" transform="translate(-60.382 -23.194)" fill="#edb984"/>
            <path id="Trazado_701819" data-name="Trazado 701819" d="M69.908,27.182c6.186-2.956,10.51-11.55,10.51-11.55a8.067,8.067,0,0,0-8.211,1.314c-2.655,2.213-2.3,10.236-2.3,10.236" transform="translate(-38.021 -8.185)" fill="#7d4230"/>
            <path id="Trazado_701820" data-name="Trazado 701820" d="M101.649,26.581c-6.186-2.956-10.51-11.55-10.51-11.55a8.067,8.067,0,0,1,8.211,1.314c2.655,2.213,2.3,10.236,2.3,10.236" transform="translate(-49.579 -7.858)" fill="#7d4230"/>
            <path id="Trazado_701821" data-name="Trazado 701821" d="M83.578,42.056c-.073-.932-.693-1.679-1.385-1.667S81,41.165,81.073,42.1s.694,1.679,1.385,1.667,1.194-.777,1.12-1.709" transform="translate(-44.099 -21.971)" fill="#5a4949"/>
            <path id="Trazado_701822" data-name="Trazado 701822" d="M81.937,35.173l-2.607.682c-.219.057-.343.229-.276.385l.253.585a.443.443,0,0,0,.518.177l2.607-.682c.219-.057.342-.229.275-.384l-.253-.586a.443.443,0,0,0-.518-.177" transform="translate(-42.995 -19.123)" fill="#7d4230"/>
            <path id="Trazado_701823" data-name="Trazado 701823" d="M100.275,42.53a1.51,1.51,0,0,0-1.354-1.492,1.29,1.29,0,0,0-1.107,1.53,1.51,1.51,0,0,0,1.354,1.492,1.29,1.29,0,0,0,1.107-1.53" transform="translate(-53.207 -22.325)" fill="#5a4949"/>
            <path id="Trazado_701824" data-name="Trazado 701824" d="M100.71,36.107,98.216,35.08a.432.432,0,0,0-.531.107l-.316.548c-.084.145.018.333.228.42l2.493,1.027a.433.433,0,0,0,.532-.107l.316-.548c.084-.145-.018-.333-.228-.42" transform="translate(-52.952 -19.06)" fill="#7d4230"/>
            <path id="Trazado_701825" data-name="Trazado 701825" d="M89.714,50.087a1.8,1.8,0,0,1-.814-.8l-.028,0a2.459,2.459,0,0,0,.955,1.271c.622.3,1.168-.327,1.888-1.5-.773.86-1.384,1.283-2,1.025" transform="translate(-48.346 -26.689)" fill="#d27558"/>
            <path id="Trazado_701826" data-name="Trazado 701826" d="M91.683,56.7l-5.5.015a3.124,3.124,0,0,0,2.567,2.843c2.529.609,2.934-2.859,2.934-2.859" transform="translate(-46.882 -30.845)" fill="#3e2d34"/>
            <path id="Trazado_701827" data-name="Trazado 701827" d="M91.43,58.59a4.323,4.323,0,0,0,.419-1.339l-4.442.012a2.5,2.5,0,0,0,.453,1.259Z" transform="translate(-47.549 -31.144)" fill="#f9eddb"/>
            <path id="Trazado_701828" data-name="Trazado 701828" d="M8.22,50.873a5.823,5.823,0,0,1,4.227-1.822,6.32,6.32,0,0,1,4.339,1.442l-.484.492a5.6,5.6,0,0,0-3.838-1.244,5.148,5.148,0,0,0-3.737,1.6Z" transform="translate(-4.472 -26.682)" fill="#c45b7b"/>
            <path id="Trazado_701829" data-name="Trazado 701829" d="M22.914,51.334l-.2-.662,1.694-.506-.5-1.835.666-.182.677,2.485Z" transform="translate(-12.358 -26.193)" fill="#c45b7b"/>
            <g id="Grupo_998698" data-name="Grupo 998698" transform="translate(0 26.562)" opacity="0.8">
              <g id="Grupo_998697" data-name="Grupo 998697">
                <g id="Grupo_998696" data-name="Grupo 998696" clip-path="url(#clip-path-3)">
                  <path id="Trazado_701830" data-name="Trazado 701830" d="M6.7,69.527c-.663-.606-2.695.82-2.638,1.553.047.617-.117,2.135,3.577,5.472l1.046-.461S7.361,70.134,6.7,69.527" transform="translate(-2.208 -64.305)" fill="#e79b69"/>
                  <path id="Trazado_701831" data-name="Trazado 701831" d="M7,70.033a1.689,1.689,0,0,0-.3-.506C6.036,68.92,4,70.347,4.061,71.08A4.13,4.13,0,0,0,4.823,73.4c.12-1.688.966-3.048,2.172-3.366" transform="translate(-2.208 -64.304)" fill="#edb984"/>
                  <path id="Trazado_701832" data-name="Trazado 701832" d="M6.206,78.9a16.98,16.98,0,0,0,2.6,2.829L9.55,81.4A4.012,4.012,0,0,0,8.6,79.966,3.278,3.278,0,0,0,6.206,78.9" transform="translate(-3.376 -69.477)" fill="#edb984"/>
                  <path id="Trazado_701833" data-name="Trazado 701833" d="M24.13,116.221c-6.25-5.26-13.075-35.406-13.075-35.406l.43-.565s13.609,23.675,15.882,29.018c2.972,6.985-3.237,6.953-3.237,6.953" transform="translate(-6.014 -70.218)" fill="#edb984"/>
                  <path id="Trazado_701834" data-name="Trazado 701834" d="M31.229,127.082c-2.436,1.068-7.927-6.053-12.445-16.042,2.551,8.756,6.135,19.056,9.55,21.93,0,0,5.86.029,3.466-6.377a1.38,1.38,0,0,1-.57.489" transform="translate(-10.218 -86.967)" fill="#e79b69"/>
                  <path id="Trazado_701835" data-name="Trazado 701835" d="M9.012,71.294c-2.265.946-2.484,1.9-1.991,2.012s1.635-.788,1.635-.788l.338.489a4.123,4.123,0,0,0,.185,4.012l1.276.594c1.032-3.77-.825-6.577-1.443-6.318" transform="translate(-3.701 -65.337)" fill="#edb984"/>
                  <path id="Trazado_701836" data-name="Trazado 701836" d="M1.945,67.759C.078,64.144-.072,62.074.021,61.8s2.366,4.6,2.366,4.6Z" transform="translate(0 -60.175)" fill="#edb984"/>
                  <path id="Trazado_701837" data-name="Trazado 701837" d="M5.287,64.025c-.68-1.194-2.293-4.415-2.066-4.664s2.93,4.276,3.233,5.054-1.167-.391-1.167-.391" transform="translate(-1.74 -58.849)" fill="#edb984"/>
                  <path id="Trazado_701838" data-name="Trazado 701838" d="M2.932,64.459C1.958,62.249.543,58.681.717,58.273S3.6,63.025,3.79,63.578s-.858.881-.858.881" transform="translate(-0.382 -58.249)" fill="#edb984"/>
                </g>
              </g>
            </g>
            <path id="Trazado_701839" data-name="Trazado 701839" d="M30.952,66.685c-.43-.644-2.838-.062-3.028.522-.161.492-.82,1.629,1.59,5.184l1.149-.086s.719-4.976.289-5.62" transform="translate(-15.079 -36.122)" fill="#e79b69"/>
            <path id="Trazado_701840" data-name="Trazado 701840" d="M34.592,112.929c-4.592-6.756-3-37.623-3-37.623l.566-.427s6.691,26.475,7.433,32.234c.97,7.529-5,5.816-5,5.816" transform="translate(-17.041 -40.733)" fill="#edb984"/>
            <path id="Trazado_701841" data-name="Trazado 701841" d="M38.987,125.167c-2.634.368-5.992-7.973-7.637-18.813.085,9.12.747,20.006,3.256,23.7,0,0,5.634,1.614,5.063-5.2a1.381,1.381,0,0,1-.682.316" transform="translate(-17.054 -57.856)" fill="#e79b69"/>
            <path id="Trazado_701842" data-name="Trazado 701842" d="M32.518,70.367c-2.465.1-2.776,1.12-2.338,1.3a4.945,4.945,0,0,0,1.812-.144l.169.4a1.579,1.579,0,0,0-1.289,2.252l1.033.684c2.176-2.248,1.285-4.524.612-4.5" transform="translate(-16.327 -38.279)" fill="#edb984"/>
            <path id="Trazado_701843" data-name="Trazado 701843" d="M28.618,68.486c-.114-.854-.385-1.167-.663-1.13s-.458.411-.343,1.265.386,1.167.664,1.13.457-.411.343-1.265" transform="translate(-15.001 -36.64)" fill="#edb984"/>
            <path id="Trazado_701844" data-name="Trazado 701844" d="M31.093,67.46c-.114-.854-.386-1.167-.663-1.13s-.458.411-.343,1.265.386,1.167.664,1.13.457-.411.343-1.265" transform="translate(-16.348 -36.082)" fill="#edb984"/>
            <path id="Trazado_701845" data-name="Trazado 701845" d="M33.965,67.094c-.114-.854-.385-1.167-.663-1.13s-.458.411-.343,1.265.386,1.167.664,1.13.457-.411.343-1.265" transform="translate(-17.91 -35.882)" fill="#edb984"/>
          </g>
        </g>
      </g>
    </g>
  </g>
</svg>
