<svg xmlns="http://www.w3.org/2000/svg" xmlns:xlink="http://www.w3.org/1999/xlink" width="85" height="85" viewBox="0 0 85 85">
  <defs>
    <clipPath id="clip-path">
      <rect id="Rect치ngulo_344908" data-name="Rect치ngulo 344908" width="51.424" height="51.647" fill="#fff"/>
    </clipPath>
  </defs>
  <g id="Grupo_1000164" data-name="Grupo 1000164" transform="translate(2577 -3283)">
    <g id="Grupo_1000160" data-name="Grupo 1000160" transform="translate(-3807 -2476)">
      <g id="Grupo_896276" data-name="Grupo 896276" transform="translate(945 -35)">
        <rect id="Rect치ngulo_344349" data-name="Rect치ngulo 344349" width="85" height="85" rx="11" transform="translate(285 5794)" fill="#cb5f72"/>
        <circle id="Elipse_4817" data-name="Elipse 4817" cx="8.5" cy="8.5" r="8.5" transform="translate(353 5804)" fill="#cceafb"/>
        <circle id="Elipse_4818" data-name="Elipse 4818" cx="3.5" cy="3.5" r="3.5" transform="translate(353 5794)" fill="#cceafb"/>
      </g>
      <g id="Grupo_998811" data-name="Grupo 998811" transform="translate(1242.829 5775.677)">
        <g id="Grupo_998810" data-name="Grupo 998810" clip-path="url(#clip-path)">
          <path id="Trazado_702211" data-name="Trazado 702211" d="M93.212,16.059c-.1,7.346-2.32,13.868-7.693,19.069a6.552,6.552,0,0,0-2.251,5.566,15.43,15.43,0,0,1-.593,5.091,7.549,7.549,0,0,1-7.438,5.823,25.277,25.277,0,0,1-3.067-.015,8.588,8.588,0,0,1-8.154-10c.067-.477.8-1.25,1.134-1.209a1.985,1.985,0,0,1,1.384,1.137c.328,1.063.275,2.236.514,3.335A4.786,4.786,0,0,0,71.218,48.8c.265.047.529.1.794.143,5.522.9,8.79-1.512,8.62-7.063-.123-4.021,1.257-6.846,3.956-9.7,5.257-5.554,6.855-12.456,5.683-19.915-.836-5.32-3.991-8.442-9.386-9.207a23.161,23.161,0,0,0-7.827.233c-5.1,1.063-8.253,5.408-8.6,11.155a9.092,9.092,0,0,1-.086,2.244,6.557,6.557,0,0,1-1.281,1.691c-.448-.5-1.26-.99-1.287-1.516C61.49,10.759,63.816,2.957,72.143.765a19.629,19.629,0,0,1,12.837.664c5.647,2.366,7.739,7.128,8.225,12.854.05.588.007,1.183.007,1.776" transform="translate(-41.805 0)" fill="#fff"/>
          <path id="Trazado_702212" data-name="Trazado 702212" d="M87.611,68c.308.636.558,1.1.766,1.59a4.536,4.536,0,0,1-6.932,5.516A6.556,6.556,0,0,1,79.6,72.932c-.24-.5.142-1.293.244-1.955a8.2,8.2,0,0,1,1.893.589c.427.251.593,1.057,1.011,1.19a4.348,4.348,0,0,0,2.633.263c1.05-.42.993-1.521.514-2.507-.753-1.549-1.383-2.956-3.213-3.872-3.19-1.6-4.361-5.561-3.2-8.954A7.681,7.681,0,0,1,87.72,52.6a7.525,7.525,0,0,1,6.637,6.478,7.614,7.614,0,0,1-4.878,8.357c-.544.208-1.117.344-1.868.571" transform="translate(-53.49 -35.567)" fill="#fff"/>
          <path id="Trazado_702213" data-name="Trazado 702213" d="M97.589,25.971C97.5,29.593,95.911,33.8,93.71,37.791a2.008,2.008,0,0,1-1.785.722c-.974-.3-.868-1.2-.445-2.012A27,27,0,0,0,94.91,25.653c.211-3.636-.682-6.9-3.954-8.983a9.063,9.063,0,0,0-9.662-.269,8.206,8.206,0,0,0-4.314,6.954c-.036.374-.031.753-.033,1.13-.006.924-.357,1.755-1.357,1.534a2.089,2.089,0,0,1-1.2-1.521,10.938,10.938,0,0,1,6.125-10.676c8.321-4.081,17.118,1.651,17.077,12.15" transform="translate(-50.314 -8.459)" fill="#fff"/>
          <path id="Trazado_702214" data-name="Trazado 702214" d="M0,49.045A23.1,23.1,0,0,1,6.22,33.287c.652-.712,1.385-1.429,2.324-.632,1.075.912.275,1.7-.392,2.449-7.434,8.374-7.4,19.817.1,28.159.667.742,1.267,1.5.316,2.338s-1.677.1-2.318-.6A23,23,0,0,1,0,49.045" transform="translate(0 -21.862)" fill="#fff"/>
          <path id="Trazado_702215" data-name="Trazado 702215" d="M14.031,54.751A17.846,17.846,0,0,1,19.013,43c.657-.721,1.411-1.363,2.314-.452s.161,1.634-.456,2.346c-4.247,4.9-5.4,10.459-3.146,16.524A25.839,25.839,0,0,0,21,66.728c.558.811,1.184,1.53.213,2.351-.9.762-1.582.112-2.193-.554-3.311-3.609-4.977-7.86-4.988-13.774" transform="translate(-9.495 -28.489)" fill="#fff"/>
          <path id="Trazado_702216" data-name="Trazado 702216" d="M33.672,52.908c1.27,0,1.867.915,1.453,1.824a5.044,5.044,0,0,1-.791,1.011,11.217,11.217,0,0,0,.1,14.786c.139.164.4.312.41.483.053.625.026,1.256.029,1.885-.667-.063-1.57.129-1.961-.232a11.963,11.963,0,0,1-3.576-6.547,13.687,13.687,0,0,1,3.094-12.2,7.675,7.675,0,0,1,1.24-1.015" transform="translate(-19.629 -35.805)" fill="#fff"/>
          <path id="Trazado_702217" data-name="Trazado 702217" d="M42.22,71.262a9.126,9.126,0,0,1,2.192-6.232c.611-.717,1.335-1.213,2.2-.473.791.678.456,1.385-.1,2.109-2.261,2.944-2.27,5.539-.028,8.494.543.716.929,1.418.144,2.111-.849.75-1.571.28-2.2-.444a8.6,8.6,0,0,1-2.212-5.566" transform="translate(-28.572 -43.441)" fill="#fff"/>
        </g>
      </g>
    </g>
  </g>
</svg>
