<svg id="Grupo_896027" data-name="Grupo 896027" xmlns="http://www.w3.org/2000/svg" xmlns:xlink="http://www.w3.org/1999/xlink" width="400" height="357.648" viewBox="0 0 400 357.648">
  <defs>
    <clipPath id="clip-path">
      <rect id="Rectángulo_344256" data-name="Rectángulo 344256" width="400" height="357.648" fill="none"/>
    </clipPath>
    <clipPath id="clip-path-3">
      <rect id="Rectángulo_344238" data-name="Rectángulo 344238" width="156.565" height="14.382" fill="none"/>
    </clipPath>
    <clipPath id="clip-path-4">
      <rect id="Rectángulo_344239" data-name="Rectángulo 344239" width="91.384" height="17.185" fill="none"/>
    </clipPath>
    <clipPath id="clip-path-5">
      <rect id="Rectángulo_344240" data-name="Rectángulo 344240" width="48.216" height="6.369" fill="none"/>
    </clipPath>
    <clipPath id="clip-path-6">
      <rect id="Rectángulo_344241" data-name="Rectángulo 344241" width="58.186" height="25.157" fill="none"/>
    </clipPath>
    <clipPath id="clip-path-7">
      <rect id="Rectángulo_344242" data-name="Rectángulo 344242" width="38.722" height="20.088" fill="none"/>
    </clipPath>
    <clipPath id="clip-path-8">
      <rect id="Rectángulo_344243" data-name="Rectángulo 344243" width="10.426" height="2.922" fill="none"/>
    </clipPath>
    <clipPath id="clip-path-9">
      <rect id="Rectángulo_344244" data-name="Rectángulo 344244" width="69.859" height="33.6" fill="none"/>
    </clipPath>
    <clipPath id="clip-path-10">
      <rect id="Rectángulo_344245" data-name="Rectángulo 344245" width="34.826" height="28.085" fill="none"/>
    </clipPath>
    <clipPath id="clip-path-11">
      <rect id="Rectángulo_344249" data-name="Rectángulo 344249" width="21.418" height="74.408" fill="none"/>
    </clipPath>
    <clipPath id="clip-path-12">
      <rect id="Rectángulo_344250" data-name="Rectángulo 344250" width="15.548" height="64.573" fill="none"/>
    </clipPath>
    <clipPath id="clip-path-13">
      <rect id="Rectángulo_344251" data-name="Rectángulo 344251" width="54.465" height="51.17" fill="none"/>
    </clipPath>
    <clipPath id="clip-path-14">
      <rect id="Rectángulo_344252" data-name="Rectángulo 344252" width="17.838" height="12.579" fill="none"/>
    </clipPath>
    <clipPath id="clip-path-15">
      <rect id="Rectángulo_344253" data-name="Rectángulo 344253" width="5.61" height="30.354" fill="none"/>
    </clipPath>
    <clipPath id="clip-path-16">
      <rect id="Rectángulo_344254" data-name="Rectángulo 344254" width="7.156" height="33.338" fill="none"/>
    </clipPath>
  </defs>
  <g id="Grupo_896026" data-name="Grupo 896026" clip-path="url(#clip-path)">
    <rect id="Rectángulo_344227" data-name="Rectángulo 344227" width="84.584" height="122.601" transform="translate(170.18 0.001)" fill="#e0e0e0"/>
    <rect id="Rectángulo_344228" data-name="Rectángulo 344228" width="84.584" height="122.601" transform="translate(165.943 0.001)" fill="#f5f5f5"/>
    <rect id="Rectángulo_344229" data-name="Rectángulo 344229" width="63.566" height="96.043" transform="translate(176.452 13.28)" fill="#fff"/>
    <g id="Grupo_896025" data-name="Grupo 896025">
      <g id="Grupo_896024" data-name="Grupo 896024" clip-path="url(#clip-path)">
        <path id="Trazado_693002" data-name="Trazado 693002" d="M271.015,111.619s-.008-.162-.013-.469-.007-.77-.012-1.362c-.006-1.207-.014-2.974-.026-5.267-.014-4.6-.032-11.311-.057-19.785-.026-16.935-.061-40.918-.1-69.159l.211.211-63.558.019h-.008l.23-.23c-.018,36.231-.034,69.637-.047,96.043l-.184-.183,46.268.1,12.783.047,3.356.02c.759.007,1.16.02,1.16.02s-.374.014-1.122.02l-3.321.02-12.742.047-46.382.1h-.183v-.184c-.013-26.406-.029-59.812-.046-96.043v-.23h.238l63.558.02h.211v.211c-.043,28.3-.078,52.329-.1,69.3-.025,8.453-.043,15.145-.057,19.736-.011,2.276-.02,4.028-.026,5.226-.005.583-.009,1.026-.012,1.339s-.013.445-.013.445" transform="translate(-30.996 -2.295)" fill="#e0e0e0"/>
        <path id="Trazado_693003" data-name="Trazado 693003" d="M292.846,0a14.625,14.625,0,0,1-1.508,2.191c-.982,1.314-2.377,3.1-3.968,5.034s-3.08,3.644-4.182,4.86a14.675,14.675,0,0,1-1.861,1.9,15.829,15.829,0,0,1,1.614-2.112l4.073-4.941,4.068-4.943A15.855,15.855,0,0,1,292.846,0" transform="translate(-42.082 0)" fill="#e0e0e0"/>
        <path id="Trazado_693004" data-name="Trazado 693004" d="M282.616,128.189A78.744,78.744,0,0,0,293.7,142.055" transform="translate(-42.275 -19.175)" fill="#fff"/>
        <path id="Trazado_693005" data-name="Trazado 693005" d="M293.7,142.055a12.623,12.623,0,0,1-1.933-1.759,61.868,61.868,0,0,1-7.864-9.835,12.607,12.607,0,0,1-1.29-2.272,17.638,17.638,0,0,1,1.56,2.09c.932,1.309,2.243,3.1,3.772,5.013s2.988,3.584,4.06,4.781a17.627,17.627,0,0,1,1.7,1.981" transform="translate(-42.274 -19.175)" fill="#e0e0e0"/>
        <path id="Trazado_693006" data-name="Trazado 693006" d="M195.117,141.649l11.079-13.67" transform="translate(-29.186 -19.144)" fill="#fff"/>
        <path id="Trazado_693007" data-name="Trazado 693007" d="M206.2,127.979a84.265,84.265,0,0,1-5.36,6.979,84.538,84.538,0,0,1-5.719,6.69,84.434,84.434,0,0,1,5.361-6.98,84.3,84.3,0,0,1,5.718-6.689" transform="translate(-29.186 -19.143)" fill="#e0e0e0"/>
        <path id="Trazado_693008" data-name="Trazado 693008" d="M195.131,0a76.632,76.632,0,0,1,5.376,6.428,76.545,76.545,0,0,1,5.017,6.715,76.739,76.739,0,0,1-5.378-6.429A76.072,76.072,0,0,1,195.131,0" transform="translate(-29.188 0)" fill="#e0e0e0"/>
        <rect id="Rectángulo_344230" data-name="Rectángulo 344230" width="21.284" height="60.432" transform="translate(198.929 32.781)" fill="#e0e0e0"/>
        <path id="Trazado_693009" data-name="Trazado 693009" d="M430.713,15.841V80.674H337.6l-3.355-64.38Z" transform="translate(-49.997 -2.37)" fill="#e0e0e0"/>
        <rect id="Rectángulo_344231" data-name="Rectángulo 344231" width="93.118" height="64.243" transform="translate(284.243 13.926)" fill="#fff"/>
        <path id="Trazado_693010" data-name="Trazado 693010" d="M427.723,80.982h-94V15.855h94ZM334.6,80.1H426.84V16.738H334.6Z" transform="translate(-49.919 -2.372)" fill="#e0e0e0"/>
        <rect id="Rectángulo_344232" data-name="Rectángulo 344232" width="72.948" height="48.28" transform="translate(294.328 21.907)" fill="#fff"/>
        <path id="Trazado_693011" data-name="Trazado 693011" d="M419.006,25.723s-.125.009-.36.013l-1.038.012-4.006.026-15.032.057-52.512.1.211-.211c.005,14.751.012,31.1.019,48.274V74l-.23-.23,72.947.047-.184.183c.041-14.693.074-26.739.1-35.128.02-4.193.036-7.468.047-9.713q.013-1.665.02-2.552c.007-.579.02-.886.02-.886s.014.281.02.847q.008.875.02,2.518c.011,2.237.027,5.5.047,9.673.023,8.416.056,20.5.1,35.241v.184h-.184l-72.947.047h-.23V74c.007-17.178.013-33.523.019-48.274v-.212h.212l52.65.1,14.984.057,3.964.026,1.014.012c.226,0,.335.013.335.013" transform="translate(-51.73 -3.816)" fill="#e0e0e0"/>
        <path id="Trazado_693012" data-name="Trazado 693012" d="M334.24,16.161a7.872,7.872,0,0,1,1.6,1.037c.952.689,2.249,1.664,3.65,2.784s2.633,2.182,3.5,2.976a7.555,7.555,0,0,1,1.333,1.365c-.087.1-2.325-1.748-5.121-3.982a50.82,50.82,0,0,1-4.964-4.181" transform="translate(-49.997 -2.417)" fill="#e0e0e0"/>
        <path id="Trazado_693013" data-name="Trazado 693013" d="M441.963,16.373a45.157,45.157,0,0,1-4.9,4.171,45.25,45.25,0,0,1-5.185,3.811,45.054,45.054,0,0,1,4.9-4.171,45.076,45.076,0,0,1,5.185-3.811" transform="translate(-64.602 -2.449)" fill="#e0e0e0"/>
        <path id="Trazado_693014" data-name="Trazado 693014" d="M441.825,90.449l-10.382-8.415" transform="translate(-64.537 -12.271)" fill="#fff"/>
        <path id="Trazado_693015" data-name="Trazado 693015" d="M431.442,82.033a48.762,48.762,0,0,1,5.336,4.028,48.6,48.6,0,0,1,5.046,4.386,48.893,48.893,0,0,1-5.336-4.029,48.761,48.761,0,0,1-5.046-4.386" transform="translate(-64.536 -12.27)" fill="#e0e0e0"/>
        <path id="Trazado_693016" data-name="Trazado 693016" d="M334.24,90.529a44.258,44.258,0,0,1,4.848-4.128,44.224,44.224,0,0,1,5.134-3.767,44,44,0,0,1-4.848,4.129,44.192,44.192,0,0,1-5.134,3.766" transform="translate(-49.997 -12.36)" fill="#e0e0e0"/>
        <rect id="Rectángulo_344233" data-name="Rectángulo 344233" width="45.9" height="16.166" transform="translate(309.14 36.948)" fill="#e0e0e0"/>
        <path id="Trazado_693017" data-name="Trazado 693017" d="M119.865,15.823V80.656H26.747l-3.355-64.38Z" transform="translate(-3.499 -2.367)" fill="#e0e0e0"/>
        <rect id="Rectángulo_344234" data-name="Rectángulo 344234" width="93.118" height="64.243" transform="translate(19.893 13.91)" fill="#fff"/>
        <path id="Trazado_693018" data-name="Trazado 693018" d="M116.875,80.964h-94V15.837h94ZM23.757,80.08h92.234V16.72H23.757Z" transform="translate(-3.421 -2.369)" fill="#e0e0e0"/>
        <rect id="Rectángulo_344235" data-name="Rectángulo 344235" width="72.948" height="48.28" transform="translate(29.978 21.891)" fill="#fff"/>
        <path id="Trazado_693019" data-name="Trazado 693019" d="M108.158,25.7s-.126.009-.36.013l-1.038.012-4.006.026-15.032.057-52.512.1.211-.211c.006,14.751.013,31.1.02,48.274v.006l-.23-.23,72.948.047-.184.183c.041-14.693.074-26.739.1-35.127.02-4.193.036-7.469.047-9.714q.013-1.665.02-2.552c.007-.579.02-.886.02-.886s.013.281.02.847q.008.875.02,2.518c.011,2.237.027,5.5.047,9.673.023,8.416.056,20.5.1,35.241v.184h-.184l-72.948.047h-.23v-.236C34.988,56.8,34.994,40.456,35,25.7v-.212h.211l52.651.1,14.984.057,3.964.026,1.014.012c.226,0,.335.013.335.013" transform="translate(-5.233 -3.813)" fill="#e0e0e0"/>
        <path id="Trazado_693020" data-name="Trazado 693020" d="M23.392,16.143a7.872,7.872,0,0,1,1.6,1.037c.952.688,2.249,1.663,3.65,2.784s2.633,2.182,3.5,2.976a7.519,7.519,0,0,1,1.333,1.365c-.086.1-2.325-1.748-5.121-3.982a50.9,50.9,0,0,1-4.964-4.18" transform="translate(-3.499 -2.414)" fill="#e0e0e0"/>
        <path id="Trazado_693021" data-name="Trazado 693021" d="M131.115,16.356a45.192,45.192,0,0,1-4.9,4.171,45.211,45.211,0,0,1-5.186,3.811,45,45,0,0,1,4.9-4.172,45.126,45.126,0,0,1,5.185-3.81" transform="translate(-18.104 -2.446)" fill="#e0e0e0"/>
        <path id="Trazado_693022" data-name="Trazado 693022" d="M130.977,90.431,120.6,82.016" transform="translate(-18.039 -12.268)" fill="#fff"/>
        <path id="Trazado_693023" data-name="Trazado 693023" d="M120.594,82.015a48.673,48.673,0,0,1,5.336,4.028,48.714,48.714,0,0,1,5.046,4.386A48.81,48.81,0,0,1,125.64,86.4a48.76,48.76,0,0,1-5.046-4.386" transform="translate(-18.039 -12.268)" fill="#e0e0e0"/>
        <path id="Trazado_693024" data-name="Trazado 693024" d="M23.392,90.511a44.152,44.152,0,0,1,4.848-4.128,44.225,44.225,0,0,1,5.134-3.767,44.019,44.019,0,0,1-4.849,4.128,44.1,44.1,0,0,1-5.133,3.767" transform="translate(-3.499 -12.357)" fill="#e0e0e0"/>
        <rect id="Rectángulo_344236" data-name="Rectángulo 344236" width="45.9" height="16.166" transform="translate(44.79 36.934)" fill="#e0e0e0"/>
        <path id="Trazado_693025" data-name="Trazado 693025" d="M347.54,335.915s-28.631,15.977-28.846,22.543c-.07,2.117-.841,37.475-.841,47.8H350.8l.551-35.165,3.193,35.165H388.63l.626-34.067s19.193-3.352,25.292-7.217-2.48-31.374-2.48-31.374Z" transform="translate(-47.546 -49.901)" fill="#e0e0e0"/>
        <path id="Trazado_693026" data-name="Trazado 693026" d="M353.149,273.482c-.908.025-7.265,11.524-11.93,20.191a16.63,16.63,0,0,1-31.084-5.418l-3.916-44.843,15.7-3.884,6.409,35.114,3.936-11.16Z" transform="translate(-45.805 -35.83)" fill="#f5f5f5"/>
        <path id="Trazado_693027" data-name="Trazado 693027" d="M321.023,238.109l-.524-7.872s-2.221-17.661-2.219-19.385c0-1.993-.957-2.472-1.691-2.424-1.145.077-1.956,1.486-2.011,3.2-.019.591.054,9.924.054,9.924a21.872,21.872,0,0,0-1.807-2.52c-1.38-1.748-4.621-2.746-7.947-2.639s-4.249.43-4.267,1.724a1.647,1.647,0,0,0,.652,1.256,3.256,3.256,0,0,0,2.193.756c5.33-.1,6.764,2.75,6.764,2.75l.068,1.031s-3.239-2.314-5.818-1.337a3.123,3.123,0,0,0-1.029.634,4.169,4.169,0,0,0-3.613,6.219,1.732,1.732,0,0,0,1.674,1.045,2.213,2.213,0,0,0,.942-.572,3.406,3.406,0,0,1,.475-.351l.6,2.858s1.682,6.349,2.1,9.195" transform="translate(-44.771 -31.177)" fill="#f5f5f5"/>
        <path id="Trazado_693028" data-name="Trazado 693028" d="M321.3,240.443a2.429,2.429,0,0,1-2.509-1.315c-.528-.866-.747-1.885-1.211-2.787-1.389-2.7-4.746-3.983-6-6.743-.175-.384-.271-.914.068-1.167.314-.235.756-.049,1.1.141l8.787,4.865" transform="translate(-46.583 -34.153)" fill="#f5f5f5"/>
        <path id="Trazado_693029" data-name="Trazado 693029" d="M321.484,233.39a3.988,3.988,0,0,0-.9-.623c-.6-.369-1.466-.886-2.547-1.515l-3.814-2.181-1.106-.624a1.991,1.991,0,0,0-1.448-.412.848.848,0,0,0-.579.753,1.74,1.74,0,0,0,.146.809,6.554,6.554,0,0,0,.758,1.273,38.512,38.512,0,0,0,3.922,3.728,7.557,7.557,0,0,1,1.391,1.786c.333.622.543,1.276.8,1.859a3.538,3.538,0,0,0,2.039,2.192,1.266,1.266,0,0,0,1.106-.041,2.922,2.922,0,0,1-1.028-.168,3.426,3.426,0,0,1-1.742-2.136c-.224-.572-.409-1.238-.751-1.925a7.792,7.792,0,0,0-1.439-1.938,44.746,44.746,0,0,1-3.838-3.7,6.185,6.185,0,0,1-.69-1.146c-.167-.383-.145-.77.077-.81.235-.079.639.144,1.014.355l1.115.607,3.874,2.073c1.106.583,2.007,1.047,2.635,1.356a4.01,4.01,0,0,0,1,.429" transform="translate(-46.534 -34.106)" fill="#e0e0e0"/>
        <path id="Trazado_693030" data-name="Trazado 693030" d="M310.63,225.553a4.144,4.144,0,0,0-.611-1.8,3.2,3.2,0,0,0-1.623-1.177,8.174,8.174,0,0,0-2.521-.364,13.093,13.093,0,0,1-2.635-.23,4.215,4.215,0,0,1-1.959-.979,1.642,1.642,0,0,1-.526-1.379.972.972,0,0,1,.176-.512c.035.01-.027.193-.032.52a1.551,1.551,0,0,0,.561,1.181,4.182,4.182,0,0,0,1.855.836,14.382,14.382,0,0,0,2.571.193,7.946,7.946,0,0,1,2.627.414,3.349,3.349,0,0,1,1.724,1.353,2.973,2.973,0,0,1,.451,1.4,1.03,1.03,0,0,1-.057.536" transform="translate(-44.986 -32.776)" fill="#e0e0e0"/>
        <path id="Trazado_693031" data-name="Trazado 693031" d="M317.234,211.41a10.47,10.47,0,0,1,.026,1.856c-.014,1.272-.03,2.789-.048,4.466.007,1.677.014,3.194.019,4.467a10.471,10.471,0,0,1-.04,1.855,8.365,8.365,0,0,1-.221-1.845c-.079-1.144-.133-2.728-.128-4.477s.071-3.333.157-4.477a8.311,8.311,0,0,1,.235-1.844" transform="translate(-47.394 -31.624)" fill="#e0e0e0"/>
        <path id="Trazado_693032" data-name="Trazado 693032" d="M308.8,228.735a2.244,2.244,0,0,1-.542-.21,1.72,1.72,0,0,0-1.434-.069.921.921,0,0,0-.483.775,4.884,4.884,0,0,0,.088,1.206,2.083,2.083,0,0,1-.222,1.461,1.769,1.769,0,0,1-1.421.738,2.01,2.01,0,0,1-1.46-.633,2.516,2.516,0,0,1-.69-1.3,8.148,8.148,0,0,1,.037-2.388,4.79,4.79,0,0,1,.475-1.536c.192-.335.369-.467.379-.453.026.022-.108.181-.25.516a5.694,5.694,0,0,0-.344,1.508,8.707,8.707,0,0,0,.038,2.29,1.989,1.989,0,0,0,1.806,1.623,1.424,1.424,0,0,0,1.129-.571,1.776,1.776,0,0,0,.184-1.219,4.909,4.909,0,0,1-.053-1.29,1.2,1.2,0,0,1,.672-.966,1.8,1.8,0,0,1,1.611.174c.33.189.491.32.48.34" transform="translate(-45.258 -33.855)" fill="#e0e0e0"/>
        <path id="Trazado_693033" data-name="Trazado 693033" d="M302.916,231.655c.018,0,.069.195-.052.527a1.616,1.616,0,0,1-1.083.958,2.154,2.154,0,0,1-2.043-.632,3.528,3.528,0,0,1-.912-2.455,4.26,4.26,0,0,1,.8-2.491,4.072,4.072,0,0,1,1.665-1.335,3.833,3.833,0,0,1,1.392-.329,1.084,1.084,0,0,1,.52.052,6.682,6.682,0,0,0-1.8.514,4.017,4.017,0,0,0-1.5,1.3,4.066,4.066,0,0,0-.707,2.294,3.271,3.271,0,0,0,.788,2.22,1.912,1.912,0,0,0,1.737.614,1.532,1.532,0,0,0,1.013-.763c.148-.28.15-.47.183-.468" transform="translate(-44.7 -33.79)" fill="#e0e0e0"/>
        <path id="Trazado_693034" data-name="Trazado 693034" d="M311.189,239.324a1.512,1.512,0,0,1,.891.012,3.506,3.506,0,0,1,1.942,1.176l-.314.092a10.443,10.443,0,0,1,.207-1.244,7.968,7.968,0,0,1,1.924-3.894,20.187,20.187,0,0,0-1.564,3.977c-.1.417-.165.823-.214,1.2l-.054.418-.259-.327a3.666,3.666,0,0,0-1.725-1.184c-.507-.165-.835-.178-.833-.227" transform="translate(-46.549 -35.222)" fill="#e0e0e0"/>
        <path id="Trazado_693035" data-name="Trazado 693035" d="M310.525,221.328c.088.043-.272.713-1.092,1.063s-1.552.163-1.523.07c.011-.107.667-.093,1.376-.409.715-.3,1.153-.789,1.239-.724" transform="translate(-46.058 -33.106)" fill="#e0e0e0"/>
        <path id="Trazado_693036" data-name="Trazado 693036" d="M413.571,276.554l27.488-6.762s-1.746-4.241-6.592-18.622c-4.478-13.288-8.351-17.837-8.351-17.837s-14.042-7.744-22.282-12.227l-5.775-6.1v.614l-5.363,2.359-8.5,3.738-8.161-3-3.419-1.255-1.2,2.38-14.569,4.006s-10.388,3.778-17.079,19.053c-8.244,18.822-8.832,22.1-8.832,22.1l21.529,12.506-3.573,42.043,65.852.041-1.3-32.216Z" transform="translate(-49.503 -32.162)" fill="#e0e0e0"/>
        <path id="Trazado_693037" data-name="Trazado 693037" d="M423.653,246.672a2.628,2.628,0,0,1,.071-.677,9.185,9.185,0,0,1,.522-1.784,11.285,11.285,0,0,1,3.746-4.794,13.281,13.281,0,0,1,5.627-2.347,12.907,12.907,0,0,1,1.847-.186,2.919,2.919,0,0,1,.679.022c0,.052-.969.049-2.491.352a13.948,13.948,0,0,0-5.5,2.377,11.671,11.671,0,0,0-3.731,4.65,17.617,17.617,0,0,0-.77,2.387" transform="translate(-63.371 -35.433)" fill="#ebebeb"/>
        <path id="Trazado_693038" data-name="Trazado 693038" d="M454.61,275.629a.613.613,0,0,1-.142.048l-.423.115-1.632.418L446.4,277.7l-19.861,4.8-.119.029-.14.033-.025-.142c-1.327-7.834-2.527-14.919-3.4-20.068-.419-2.554-.76-4.626-1-6.082-.11-.7-.2-1.258-.258-1.655-.026-.178-.045-.32-.061-.432a.631.631,0,0,1-.011-.149.643.643,0,0,1,.039.145c.022.111.051.252.087.427l.308,1.646c.259,1.452.628,3.52,1.084,6.068.892,5.146,2.12,12.226,3.478,20.055l-.165-.109.119-.029,19.878-4.721,6.033-1.4,1.643-.367.429-.089a.63.63,0,0,1,.148-.021" transform="translate(-63.054 -37.999)" fill="#ebebeb"/>
        <path id="Trazado_693039" data-name="Trazado 693039" d="M378.534,220.7a1.755,1.755,0,0,1,.1.418c.054.318.122.714.2,1.194l-.015-.035a42.465,42.465,0,0,0,6.007,6.007q.408.332.813.644c.255.209.551.4.765.289s.338-.463.5-.728l.469-.812c.62-1.051,1.214-1.976,1.73-2.739s.964-1.364,1.285-1.767c.162-.2.291-.355.384-.455s.143-.151.15-.145a5.566,5.566,0,0,1-.448.662c-.3.421-.715,1.035-1.209,1.809s-1.069,1.707-1.674,2.76l-.457.812-.231.425a.959.959,0,0,1-.379.416.689.689,0,0,1-.6-.018,2.307,2.307,0,0,1-.451-.3q-.408-.314-.819-.647a36.208,36.208,0,0,1-5.95-6.127l-.014-.018,0-.018c-.054-.484-.1-.883-.135-1.2a1.805,1.805,0,0,1-.021-.429" transform="translate(-56.622 -33.013)" fill="#ebebeb"/>
        <path id="Trazado_693040" data-name="Trazado 693040" d="M412.345,221.743a.943.943,0,0,1-.215.145l-.643.37c-.6.339-1.4.793-2.369,1.346-2,1.142-4.734,2.757-7.69,4.648-1.274.814-2.483,1.612-3.581,2.351l-.114.077-.068-.118c-1.226-2.139-2.226-4-2.891-5.336-.331-.67-.58-1.209-.735-1.586a3.092,3.092,0,0,1-.21-.59,4,4,0,0,1,.287.556c.178.363.449.89.8,1.548.7,1.315,1.731,3.154,2.97,5.279l-.182-.041c1.094-.75,2.3-1.554,3.579-2.369,2.962-1.893,5.72-3.486,7.743-4.585,1.011-.553,1.839-.981,2.414-1.272l.667-.326a.93.93,0,0,1,.241-.1" transform="translate(-58.91 -33.169)" fill="#ebebeb"/>
        <path id="Trazado_693041" data-name="Trazado 693041" d="M403.334,206.328l.074-34.78a18.6,18.6,0,0,0-19.05-18.658l-.286.024a19.473,19.473,0,0,0-17.861,19.468c.025,8.885.167,18.52.615,23.227.953,10.006,11.1,10.734,11.1,10.734s-.011.707-.028,1.833l11.579,4.251Z" transform="translate(-54.779 -22.869)" fill="#f5f5f5"/>
        <path id="Trazado_693042" data-name="Trazado 693042" d="M379.952,214.734a23.367,23.367,0,0,0,12.75-4.791s-2.49,7.464-12.559,7.389Z" transform="translate(-56.835 -31.404)" fill="#ebebeb"/>
        <path id="Trazado_693043" data-name="Trazado 693043" d="M370.836,181.968a1.435,1.435,0,0,0,1.5,1.329,1.373,1.373,0,0,0,1.367-1.412,1.437,1.437,0,0,0-1.5-1.33,1.373,1.373,0,0,0-1.368,1.413" transform="translate(-55.471 -27.008)" fill="#e0e0e0"/>
        <path id="Trazado_693044" data-name="Trazado 693044" d="M369.212,180.222c.193.172,1.21-.72,2.749-.844,1.536-.145,2.732.554,2.883.351.075-.09-.134-.412-.655-.73a3.94,3.94,0,0,0-2.327-.511,3.779,3.779,0,0,0-2.169.9c-.443.4-.576.753-.481.829" transform="translate(-55.224 -26.697)" fill="#e0e0e0"/>
        <path id="Trazado_693045" data-name="Trazado 693045" d="M388.452,181.288a1.435,1.435,0,0,0,1.5,1.329,1.373,1.373,0,0,0,1.367-1.412,1.435,1.435,0,0,0-1.5-1.33,1.374,1.374,0,0,0-1.369,1.413" transform="translate(-58.106 -26.906)" fill="#e0e0e0"/>
        <path id="Trazado_693046" data-name="Trazado 693046" d="M387.031,179.087c.193.172,1.212-.719,2.75-.843,1.536-.145,2.731.553,2.882.35.075-.09-.132-.412-.655-.729a3.933,3.933,0,0,0-2.327-.512,3.787,3.787,0,0,0-2.169.9c-.441.4-.575.753-.481.829" transform="translate(-57.889 -26.527)" fill="#e0e0e0"/>
        <path id="Trazado_693047" data-name="Trazado 693047" d="M380.871,191.094a10.188,10.188,0,0,0-2.537-.244c-.4-.008-.776-.055-.863-.318a2,2,0,0,1,.166-1.187q.436-1.472.914-3.089c1.262-4.395,2.14-7.995,1.963-8.044s-1.345,3.473-2.606,7.867c-.3,1.083-.59,2.115-.864,3.1a2.287,2.287,0,0,0-.077,1.56.988.988,0,0,0,.694.52,2.685,2.685,0,0,0,.675.038,10.047,10.047,0,0,0,2.534-.207" transform="translate(-56.371 -26.658)" fill="#e0e0e0"/>
        <path id="Trazado_693048" data-name="Trazado 693048" d="M386.2,194.171c-.252.006-.117,1.677-1.448,2.982s-3.125,1.267-3.119,1.5c-.014.107.424.292,1.177.25a4.17,4.17,0,0,0,2.612-1.16,3.634,3.634,0,0,0,1.107-2.491c.006-.7-.214-1.1-.328-1.083" transform="translate(-57.087 -29.045)" fill="#e0e0e0"/>
        <path id="Trazado_693049" data-name="Trazado 693049" d="M385.979,172.09c.186.406,1.707.08,3.53.149,1.826.031,3.326.44,3.534.044.092-.189-.195-.561-.817-.918a6.14,6.14,0,0,0-5.381-.147c-.641.322-.947.679-.866.872" transform="translate(-57.734 -25.529)" fill="#e0e0e0"/>
        <path id="Trazado_693050" data-name="Trazado 693050" d="M369.44,174.914c.3.327,1.33-.123,2.6-.246,1.27-.168,2.374.04,2.593-.347.094-.186-.105-.522-.6-.814a3.784,3.784,0,0,0-4.187.477c-.421.4-.539.769-.406.929" transform="translate(-55.254 -25.891)" fill="#e0e0e0"/>
        <path id="Trazado_693051" data-name="Trazado 693051" d="M396.1,161.806l.059.039a7.907,7.907,0,0,1,3.35,4.852c.016.07.031.136.045.2.628,2.824.8,5.737,1.453,8.555s.534,4.971,3.357,5.606a3.756,3.756,0,0,0,3.93-1.6,2.451,2.451,0,0,0,.248-1.339c-.037-6.942,1.359-9.639.749-16.85a6.1,6.1,0,0,0-2.933-4.74c-1.6-.958-3.536-1.927-5.148-.994s-3.527,4.255-4.718,5.694" transform="translate(-59.25 -23.209)" fill="#e0e0e0"/>
        <path id="Trazado_693052" data-name="Trazado 693052" d="M406.422,180.4c.165-.088,6.713-2.6,7.061,4.261s-6.616,5.8-6.638,5.6-.423-9.863-.423-9.863" transform="translate(-60.794 -26.906)" fill="#f5f5f5"/>
        <path id="Trazado_693053" data-name="Trazado 693053" d="M409.229,187.936c.029-.024.124.077.331.16a1.193,1.193,0,0,0,.895-.026,2.964,2.964,0,0,0,1.235-2.725,3.943,3.943,0,0,0-.422-1.7,1.384,1.384,0,0,0-.946-.873.611.611,0,0,0-.69.364c-.082.2-.031.332-.067.345-.019.018-.153-.108-.112-.395a.765.765,0,0,1,.248-.444.906.906,0,0,1,.652-.208,1.682,1.682,0,0,1,1.3,1,4.053,4.053,0,0,1,.511,1.892,3.11,3.11,0,0,1-1.594,3.054,1.288,1.288,0,0,1-1.1-.127c-.221-.158-.264-.31-.242-.324" transform="translate(-61.213 -27.29)" fill="#ebebeb"/>
        <path id="Trazado_693054" data-name="Trazado 693054" d="M395.555,155.529c1.459-2.879-3.486-6.43-6.953-7.216s-7.783,1.23-11.055,2.624c-2.064.88-4.1,2.037-6.339,2.129a15.155,15.155,0,0,1-4.431-.747,11.125,11.125,0,0,0-4.453-.5,4.145,4.145,0,0,0-3.414,2.584,2.6,2.6,0,0,0,2.02,3.352,3.373,3.373,0,1,0-.381,6.306c-1.035-.657-2.427.685-2.206,1.891a3.553,3.553,0,0,0,2.556,2.4c2.959,1.018,6.256.342,9.129-.9s5.486-3.016,8.327-4.327,7.591-3.633,10.618-2.84c2.228.584,3.951,3.067,5.126,2.391a4.2,4.2,0,0,0,1.913-3.259,12.179,12.179,0,0,0-.457-3.887" transform="translate(-53.28 -22.159)" fill="#e0e0e0"/>
        <path id="Trazado_693055" data-name="Trazado 693055" d="M450.588,280.191l9.7,23.205A14.745,14.745,0,0,1,444.749,323.7L410.7,320.4l.628-13.456,25.182-3.968-6.983-17.656Z" transform="translate(-61.434 -41.912)" fill="#f5f5f5"/>
        <path id="Trazado_693056" data-name="Trazado 693056" d="M406.342,310.469s-5.5-1.212-7.855-1.7c-.764-.157-1.435-.584-2.191-.78-3.687-.956-8.2-3.334-9.224-4.335-1.78-1.742-3.09.942-1.315,3.142a12.591,12.591,0,0,0,3.125,2.959l-7.525,1.969a1.6,1.6,0,0,0-.944.69l-5.809,9.168A1.832,1.832,0,0,0,374.82,324a.909.909,0,0,0,1.231.092l-.747,1.248c-1.237,2.064,1.792,4.091,3.149,2.1.017-.025.034-.049.05-.075l1.453,1.97s.69,1.919,2.916.683c1.839-1.02,8.025-5.577,8.025-5.577s17.46.4,18.332-2.179Z" transform="translate(-55.982 -45.338)" fill="#f5f5f5"/>
        <path id="Trazado_693057" data-name="Trazado 693057" d="M379.19,329.7a16.288,16.288,0,0,0,1.458-2.193c.875-1.344,2.207-3.2,3.5-5.291.69-.992,1.434-1.974,2.072-2.744a1.929,1.929,0,0,1,1.2-.553l1.317-.191a10.924,10.924,0,0,0,2.591-.526,10.988,10.988,0,0,0-2.642.08l-1.327.114a2.436,2.436,0,0,0-1.543.657,30.52,30.52,0,0,0-2.191,2.805c-1.316,2.133-2.555,3.973-3.357,5.418a8.292,8.292,0,0,0-1.073,2.425" transform="translate(-56.719 -47.591)" fill="#e0e0e0"/>
        <path id="Trazado_693058" data-name="Trazado 693058" d="M376.366,325.865c.207.143,2.169-3.252,4.98-7.1a7.421,7.421,0,0,1,2.181-2.336,18.509,18.509,0,0,1,2.561-.89,10.3,10.3,0,0,1,1.791-.347c.425-.033.659.013.676-.037.016-.032-.216-.168-.674-.211a7.066,7.066,0,0,0-1.894.156,14.909,14.909,0,0,0-2.7.793,7.29,7.29,0,0,0-2.454,2.493,48.611,48.611,0,0,0-3.335,5.193,11.625,11.625,0,0,0-1.134,2.285" transform="translate(-56.298 -47.108)" fill="#e0e0e0"/>
        <path id="Trazado_693059" data-name="Trazado 693059" d="M393.242,323.2a8.572,8.572,0,0,0-2.328.046l-1.168.1a3.72,3.72,0,0,0-1.4.3,3.531,3.531,0,0,0-1.2,1.023q-.518.586-1.057,1.2c-2.885,3.3-5.113,6.064-4.976,6.175s2.573-2.46,5.443-5.743l1.043-1.2a3.16,3.16,0,0,1,1.007-.925,3.408,3.408,0,0,1,1.2-.3l1.158-.174a8.528,8.528,0,0,0,2.277-.492" transform="translate(-57.007 -48.337)" fill="#e0e0e0"/>
        <path id="Trazado_693060" data-name="Trazado 693060" d="M398.647,310.51c.026-.26-2.412-.378-5.337-.065-2.939.274-5.276.938-5.219,1.132.043.145,2.367-.227,5.284-.5l3.726-.37a7.319,7.319,0,0,0,1.547-.2" transform="translate(-58.052 -46.409)" fill="#e0e0e0"/>
        <path id="Trazado_693061" data-name="Trazado 693061" d="M258.043,175.868a4.6,4.6,0,0,1,1.843-5.551,7.1,7.1,0,0,1,6.143-.472,9.985,9.985,0,0,1,6.5,8.5,7.31,7.31,0,0,1,3.9,2.625,9.722,9.722,0,0,1-.74,12.3,10.87,10.87,0,0,1-12.394,2,12.346,12.346,0,0,1-6.54-10.955" transform="translate(-38.407 -25.335)" fill="#e0e0e0"/>
        <path id="Trazado_693062" data-name="Trazado 693062" d="M247.782,163.437c.073-2.194-1.949-3.9-3.988-4.713s-4.309-1.127-6.125-2.361c-1.607-1.094-2.684-2.791-4.043-4.181a13.515,13.515,0,0,0-22.758,6.1c-.8,3.122-.28,6.819,2.175,8.908,2.848,2.424,7.09,1.907,10.757,1.174s7.818-1.453,10.867.713c1.839,1.306,2.886,3.421,4.005,5.381s2.525,3.96,4.654,4.7,5.031-.511,5.125-2.765" transform="translate(-31.49 -22.159)" fill="#e0e0e0"/>
        <path id="Trazado_693063" data-name="Trazado 693063" d="M246.392,165.8c-.25,1.839,1.073,3.492,2.393,4.8s2.81,2.689,3.035,4.531c.264,2.151-1.316,4.261-.87,6.382.282,1.346,1.324,2.386,1.953,3.611a7.653,7.653,0,0,1,.365,5.641c-.555,1.851-1.444,5.984-2.738,7.417a29.737,29.737,0,0,1-14.477,8.547,55.917,55.917,0,0,1-15.949.8c-4.363-.289-9.383-.111-12.993-6.132-1.869-3.118-2.783-7.258-3.769-10.758-.848-3.014-1.578-6.24-.668-9.236.53-1.745,1.589-3.294,2.112-5.042.653-2.183.429-4.522.7-6.785A15.574,15.574,0,0,1,227.7,157.378" transform="translate(-30.254 -23.316)" fill="#e0e0e0"/>
        <path id="Trazado_693064" data-name="Trazado 693064" d="M208.4,173.87c.437-6.262,4.64-13.919,10.877-13.216l19.457,5.059a3.673,3.673,0,0,1,3.26,3.748l-2.406,46.983.134.031s-4.5,13.234-17.363,9.126c-2.55-.815-3.7-3.614-4.2-6.49l-.132.016c0-.342-.006-.659-.009-.985a30.757,30.757,0,0,1-.048-6.454c-.018-3.795-.007-5.35-.01-5.315,0,0-7.993-1.383-9.58-11.836-.789-5.2-.47-13.71.015-20.667" transform="translate(-31.1 -24.025)" fill="#f5f5f5"/>
        <path id="Trazado_693065" data-name="Trazado 693065" d="M212.154,183.146a1.34,1.34,0,0,0,1.282,1.36,1.281,1.281,0,0,0,1.389-1.2,1.34,1.34,0,0,0-1.28-1.361,1.283,1.283,0,0,0-1.39,1.2" transform="translate(-31.735 -27.216)" fill="#e0e0e0"/>
        <path id="Trazado_693066" data-name="Trazado 693066" d="M210.62,181.182c.165.176,1.185-.568,2.625-.554,1.44-.007,2.493.742,2.65.566.077-.077-.09-.395-.548-.733a3.677,3.677,0,0,0-2.12-.668,3.527,3.527,0,0,0-2.091.659c-.445.337-.6.652-.516.731" transform="translate(-31.502 -26.894)" fill="#e0e0e0"/>
        <path id="Trazado_693067" data-name="Trazado 693067" d="M228.684,183.434a1.34,1.34,0,0,0,1.282,1.36,1.281,1.281,0,0,0,1.389-1.2,1.34,1.34,0,0,0-1.281-1.362,1.282,1.282,0,0,0-1.39,1.2" transform="translate(-34.207 -27.259)" fill="#e0e0e0"/>
        <path id="Trazado_693068" data-name="Trazado 693068" d="M227.273,181.611c.165.176,1.186-.568,2.626-.554,1.439-.007,2.492.742,2.649.566.077-.078-.088-.394-.548-.732a3.67,3.67,0,0,0-2.119-.67,3.531,3.531,0,0,0-2.091.66c-.445.337-.6.652-.517.73" transform="translate(-33.993 -26.958)" fill="#e0e0e0"/>
        <path id="Trazado_693069" data-name="Trazado 693069" d="M220.4,192.269a9.58,9.58,0,0,0-2.338-.438c-.367-.041-.715-.117-.776-.367a1.872,1.872,0,0,1,.253-1.089q.528-1.332,1.107-2.794c1.538-3.979,2.655-7.251,2.494-7.312s-1.538,3.115-3.077,7.094q-.555,1.472-1.061,2.811a2.127,2.127,0,0,0-.2,1.443.923.923,0,0,0,.6.542,2.465,2.465,0,0,0,.624.091,9.4,9.4,0,0,0,2.373.02" transform="translate(-32.42 -26.965)" fill="#e0e0e0"/>
        <path id="Trazado_693070" data-name="Trazado 693070" d="M219.735,213.784a26.565,26.565,0,0,0,14.01-3.635s-3.442,7.149-13.886,6.1Z" transform="translate(-32.869 -31.435)" fill="#ebebeb"/>
        <path id="Trazado_693071" data-name="Trazado 693071" d="M221.705,198.3a2.6,2.6,0,0,1,2.334-.948,2.373,2.373,0,0,1,1.631.889,1.5,1.5,0,0,1,.1,1.719,1.743,1.743,0,0,1-1.892.465,5.471,5.471,0,0,1-1.834-1.112,1.6,1.6,0,0,1-.408-.429.481.481,0,0,1,.006-.537" transform="translate(-33.142 -29.518)" fill="#ebebeb"/>
        <path id="Trazado_693072" data-name="Trazado 693072" d="M225.209,195.586c-.234-.015-.248,1.549-1.595,2.65s-3.01.918-3.023,1.136c-.023.1.369.307,1.072.331a3.9,3.9,0,0,0,2.524-.861,3.4,3.4,0,0,0,1.236-2.222c.064-.654-.108-1.043-.215-1.034" transform="translate(-32.997 -29.257)" fill="#e0e0e0"/>
        <path id="Trazado_693073" data-name="Trazado 693073" d="M226.535,178.7c.139.393,1.579.217,3.267.432,1.694.181,3.054.685,3.281.336.1-.168-.134-.537-.682-.921a5.734,5.734,0,0,0-4.99-.585c-.622.246-.936.552-.876.738" transform="translate(-33.885 -26.571)" fill="#e0e0e0"/>
        <path id="Trazado_693074" data-name="Trazado 693074" d="M211.274,176.267c.251.329,1.246,0,2.44-.012,1.193-.049,2.2.235,2.438-.105.1-.166-.054-.495-.493-.808a3.534,3.534,0,0,0-3.931.1c-.424.333-.565.669-.454.83" transform="translate(-31.598 -26.146)" fill="#e0e0e0"/>
        <path id="Trazado_693075" data-name="Trazado 693075" d="M247.443,199.708a9.271,9.271,0,0,1-10.983-10.3c.337-2.562,1.731-5.165.853-7.6-1.161-3.215-5.654-4.222-6.833-7.43-.685-1.865-.053-4.039-.831-5.867-.731-1.719-2.532-2.715-4.285-3.357s-3.635-1.09-5.1-2.243-2.379-3.321-1.42-4.924a98.938,98.938,0,0,1,22.791,5.649c1.7.644,3.488,1.417,4.488,2.936,1.059,1.607,1,3.678.9,5.6q-.721,14.061-1.442,28.122" transform="translate(-32.676 -23.632)" fill="#e0e0e0"/>
        <path id="Trazado_693076" data-name="Trazado 693076" d="M246.657,202.362a.68.68,0,0,0,.169-.107l.466-.351c.4-.315,1-.782,1.736-1.425a18.358,18.358,0,0,0,2.467-2.572,9.626,9.626,0,0,0,1.972-4.289,6.536,6.536,0,0,0-1.321-5.5,21.084,21.084,0,0,0-2.424-2.085,5.676,5.676,0,0,1-1.885-2.6c-.763-2.133-.407-4.6-.694-7.116a14.156,14.156,0,0,0-2.927-7.208,9.759,9.759,0,0,0-3.085-2.544,19.066,19.066,0,0,0-3.648-1.251,8.493,8.493,0,0,1-3.2-1.595,12.591,12.591,0,0,1-2.316-2.577c-1.3-1.869-2.264-3.858-3.505-5.519a11.919,11.919,0,0,0-2.048-2.194,7.869,7.869,0,0,0-2.434-1.34,5.2,5.2,0,0,0-4.639.441,4.273,4.273,0,0,0-1.662,3.118,3.115,3.115,0,0,0,.618,2.154,1.946,1.946,0,0,0,.424.409c.106.081.162.118.167.111a.736.736,0,0,0-.136-.147,2.265,2.265,0,0,1-.38-.429,3.09,3.09,0,0,1-.514-2.084,4.1,4.1,0,0,1,1.631-2.922,4.942,4.942,0,0,1,4.386-.343,7.557,7.557,0,0,1,2.315,1.307,11.636,11.636,0,0,1,1.964,2.145c1.2,1.634,2.145,3.618,3.465,5.536a12.971,12.971,0,0,0,2.385,2.675,8.941,8.941,0,0,0,3.347,1.686,18.886,18.886,0,0,1,3.567,1.225,9.348,9.348,0,0,1,2.94,2.43,13.775,13.775,0,0,1,2.836,6.973c.293,2.436-.071,4.937.742,7.2a6.088,6.088,0,0,0,2.025,2.764,21.24,21.24,0,0,1,2.4,2.028,6.214,6.214,0,0,1,1.286,5.194,9.449,9.449,0,0,1-1.857,4.188,19.2,19.2,0,0,1-2.381,2.594c-.714.66-1.29,1.149-1.675,1.487a5.058,5.058,0,0,0-.577.53" transform="translate(-32.561 -22.699)" fill="#f5f5f5"/>
        <path id="Trazado_693077" data-name="Trazado 693077" d="M279.262,188.458a.85.85,0,0,1,.253.148,3.561,3.561,0,0,1,.612.577,4.818,4.818,0,0,1,1.071,2.873,7.88,7.88,0,0,1-1.291,4.363,10.233,10.233,0,0,1-4.051,3.829,8.185,8.185,0,0,1-5.512.7,6.976,6.976,0,0,1-2.266-.967,6.8,6.8,0,0,1-1.564-1.468,6.163,6.163,0,0,1-1.224-2.818,4.4,4.4,0,0,1-.053-.837.915.915,0,0,1,.031-.291c.034,0,.014.4.153,1.1a6.351,6.351,0,0,0,1.282,2.692,6.726,6.726,0,0,0,1.529,1.38,6.821,6.821,0,0,0,2.18.9,7.968,7.968,0,0,0,5.287-.7,10.079,10.079,0,0,0,3.936-3.687,7.784,7.784,0,0,0,1.318-4.19,4.849,4.849,0,0,0-.933-2.8,8.071,8.071,0,0,0-.76-.808" transform="translate(-39.675 -28.19)" fill="#e0e0e0"/>
        <path id="Trazado_693078" data-name="Trazado 693078" d="M212.672,226.856l6.132-4.646,23.1-1.476.93,3.1-7.514,46.888,5.015,39.305H208.107Z" transform="translate(-31.129 -33.018)" fill="#e0e0e0"/>
        <path id="Trazado_693079" data-name="Trazado 693079" d="M219.2,227.114l-.714-6.7a2.126,2.126,0,0,1,1.923-2.342l21.265-1.922a1,1,0,0,1,1.094.97l.24,7.976-6.157,10.449-6.33,2.015h-7.74l-4.452-4.754Z" transform="translate(-32.658 -32.331)" fill="#e0e0e0"/>
        <path id="Trazado_693080" data-name="Trazado 693080" d="M239.926,223.6a8.4,8.4,0,0,1-.85-.088,15.14,15.14,0,0,0-2.317-.039,22.813,22.813,0,0,0-3.405.491c-1.27.266-2.65.64-4.113,1a26.973,26.973,0,0,1-4.187.746,10.817,10.817,0,0,1-3.471-.235,7.335,7.335,0,0,1-2.166-.9,5.464,5.464,0,0,1-.518-.374c-.111-.094-.166-.148-.16-.155s.254.171.731.44a7.965,7.965,0,0,0,2.156.806,11.051,11.051,0,0,0,3.408.173,28.575,28.575,0,0,0,4.144-.759c1.458-.355,2.845-.723,4.126-.978a21.073,21.073,0,0,1,3.445-.438,12.617,12.617,0,0,1,2.339.124c.273.045.484.086.625.122a.713.713,0,0,1,.213.067" transform="translate(-32.72 -33.399)" fill="#ebebeb"/>
        <path id="Trazado_693081" data-name="Trazado 693081" d="M224.5,218.152a1.942,1.942,0,0,0-.727.7,5.213,5.213,0,0,0-.291,2.443c.054,1.984.382,3.571.3,3.586a3.484,3.484,0,0,1-.288-1.025,15.857,15.857,0,0,1-.281-2.554,11.575,11.575,0,0,1,.029-1.421,2.48,2.48,0,0,1,.367-1.129,1.464,1.464,0,0,1,.6-.534c.175-.078.283-.077.287-.063" transform="translate(-33.388 -32.631)" fill="#ebebeb"/>
        <path id="Trazado_693082" data-name="Trazado 693082" d="M231.17,223.88a31.51,31.51,0,0,0-.152-3.246,31.82,31.82,0,0,0-.756-3.16,2.825,2.825,0,0,1,.435.863,10.434,10.434,0,0,1,.651,4.592,2.824,2.824,0,0,1-.178.951" transform="translate(-34.442 -32.531)" fill="#ebebeb"/>
        <path id="Trazado_693083" data-name="Trazado 693083" d="M239.312,216.814a2.028,2.028,0,0,1,.406.789,5.49,5.49,0,0,1-.28,4.2,2.011,2.011,0,0,1-.506.729,7.022,7.022,0,0,0,.38-5.716" transform="translate(-35.74 -32.432)" fill="#ebebeb"/>
        <path id="Trazado_693084" data-name="Trazado 693084" d="M186.909,288.747s2.864-36.75,4.362-43.643c1.906-8.769,9.155-13.625,9.155-13.625l2.963,67.973-5.786,8.585-7,2.692a7.287,7.287,0,0,1-5.014.078l-6.733-2.35-.571-12.827,5.688-1.648Z" transform="translate(-26.668 -34.625)" fill="#e0e0e0"/>
        <path id="Trazado_693085" data-name="Trazado 693085" d="M209.951,310.655l.788-50.913,1.444-32.8,3.464-3.022-12.291,6.43-2.9,9.532-2.585,27.627,4.866,32.39-3.351,10.657" transform="translate(-29.598 -33.494)" fill="#e0e0e0"/>
        <path id="Trazado_693086" data-name="Trazado 693086" d="M199.987,290a2.4,2.4,0,0,1-.119-.4q-.108-.432-.29-1.159c-.127-.5-.273-1.121-.415-1.845s-.33-1.543-.475-2.459c-.161-.914-.332-1.916-.47-3-.164-1.079-.276-2.241-.406-3.461-.221-2.445-.369-5.142-.372-7.977.013-2.834.171-5.532.4-7.976.135-1.221.252-2.382.42-3.46.141-1.083.316-2.084.48-3,.149-.916.337-1.735.485-2.457s.293-1.34.422-1.843q.185-.726.3-1.158a2.34,2.34,0,0,1,.12-.4,2.6,2.6,0,0,1-.068.412l-.246,1.168c-.113.505-.247,1.125-.378,1.85s-.309,1.544-.445,2.459c-.152.913-.316,1.914-.448,3-.158,1.077-.266,2.236-.395,3.454-.216,2.439-.367,5.128-.379,7.954,0,2.825.143,5.514.35,7.953.123,1.218.227,2.377.382,3.455.128,1.081.288,2.083.436,3s.305,1.737.436,2.462.259,1.345.371,1.851q.151.733.242,1.169a2.555,2.555,0,0,1,.066.412" transform="translate(-29.534 -37.308)" fill="#ebebeb"/>
        <path id="Trazado_693087" data-name="Trazado 693087" d="M264.971,230.426a16.887,16.887,0,0,1,10.357,12.028c4.02,17.724,10.9,41.293,11.006,48.9.138,9.687-4.1,16.319-9.628,17.542-3.161.7-24.676.348-36.358.1a8.7,8.7,0,0,1-1.078-17.311l23.67-3.485-4.4-24.559,4.351-34.016Z" transform="translate(-34.679 -34.348)" fill="#e0e0e0"/>
        <path id="Trazado_693088" data-name="Trazado 693088" d="M242.485,250.3l4.446-23.2a9.176,9.176,0,0,0-.924-6.451l.051-1.208,9.175,5.034,8.875,3.626.213,26.978-5.347,54.682-18.813.071.039-24.407a141.813,141.813,0,0,1,2.285-35.127" transform="translate(-35.893 -32.825)" fill="#e0e0e0"/>
        <path id="Trazado_693089" data-name="Trazado 693089" d="M262.939,266.7a1.142,1.142,0,0,1,.069.273c.042.209.093.469.155.787.133.722.312,1.7.531,2.9.433,2.487,1.021,5.859,1.669,9.586.622,3.732,1.185,7.109,1.6,9.6.188,1.2.343,2.189.456,2.914.045.321.082.583.111.794a1.146,1.146,0,0,1,.021.281,1.115,1.115,0,0,1-.074-.271l-.16-.786c-.134-.722-.316-1.7-.538-2.9-.444-2.451-1.038-5.84-1.677-9.587s-1.2-7.14-1.593-9.6c-.185-1.2-.337-2.19-.448-2.916l-.105-.8a1.088,1.088,0,0,1-.016-.28" transform="translate(-39.331 -39.894)" fill="#ebebeb"/>
        <path id="Trazado_693090" data-name="Trazado 693090" d="M271.581,235.072a4.9,4.9,0,0,1-.726.269,16.938,16.938,0,0,0-1.925.833,14.976,14.976,0,0,0-5.209,4.438,11.072,11.072,0,0,0-1.024,1.668,10.58,10.58,0,0,0-.616,1.716,17.185,17.185,0,0,0-.517,3.062c-.076.884-.09,1.6-.1,2.1a6.385,6.385,0,0,1-.018.775,3.286,3.286,0,0,1-.085-.772,19.273,19.273,0,0,1,.012-2.117,16.1,16.1,0,0,1,.468-3.112,10.515,10.515,0,0,1,.617-1.764,10.952,10.952,0,0,1,1.045-1.714,14.434,14.434,0,0,1,5.34-4.45,13.267,13.267,0,0,1,1.977-.763,3.889,3.889,0,0,1,.758-.171" transform="translate(-39.092 -35.163)" fill="#ebebeb"/>
        <path id="Trazado_693091" data-name="Trazado 693091" d="M239.949,302.043a1.532,1.532,0,0,0,.331-.023l.942-.118,3.458-.483,11.393-1.691,8.286-1.276h-.032a5.838,5.838,0,0,1,2.875,1.269,6.251,6.251,0,0,1,1.572,1.876,7.234,7.234,0,0,1,.7,2.028.463.463,0,0,0,0-.145c-.012-.1-.019-.239-.054-.422a5.644,5.644,0,0,0-.528-1.523,6.237,6.237,0,0,0-1.571-1.957,5.981,5.981,0,0,0-2.962-1.35l-.015,0-.017,0-8.291,1.239-11.382,1.767-3.445.566-.935.168a1.522,1.522,0,0,0-.323.076" transform="translate(-35.893 -44.61)" fill="#ebebeb"/>
        <path id="Trazado_693092" data-name="Trazado 693092" d="M200.2,296.672a.963.963,0,0,0,.028.256c.036.195.078.433.131.722.123.624.287,1.531.48,2.652a54.4,54.4,0,0,1,.811,8.831,41.1,41.1,0,0,1-.3,4.871,38.183,38.183,0,0,1-.72,3.921c-.117.556-.27,1.048-.384,1.485s-.228.809-.323,1.112c-.084.281-.152.513-.209.7a.957.957,0,0,0-.056.252.947.947,0,0,0,.106-.234c.069-.186.154-.413.257-.688.111-.3.242-.668.367-1.1s.293-.925.423-1.481a34.516,34.516,0,0,0,.78-3.935,38.529,38.529,0,0,0,.321-4.9,48.822,48.822,0,0,0-.891-8.863c-.217-1.12-.409-2.022-.564-2.641l-.179-.712a.957.957,0,0,0-.08-.244" transform="translate(-29.866 -44.377)" fill="#ebebeb"/>
        <path id="Trazado_693093" data-name="Trazado 693093" d="M157.979,320.057c-.132-.008-.809.4-.271,1.461s4.527,4.636,5.749,3.447-.574-2.708-.574-2.708Z" transform="translate(-23.56 -47.875)" fill="#e0e0e0"/>
        <path id="Trazado_693094" data-name="Trazado 693094" d="M162.812,320.336a44.95,44.95,0,0,1,6.768,1.48,7.134,7.134,0,0,0,6.252-.761,17.69,17.69,0,0,0,2.708-2.113l6.262.032a7.517,7.517,0,0,0,1.384-7.732,8.385,8.385,0,0,0-1.384-2.473,6.624,6.624,0,0,0-3.909-1.89l-7.471,1.45s-11.507-1.065-13.575-.139c0,0-2.607,1.473-3.417,2.1-.305.235-1.279,3.147.563,4.711,0,0-1.659,1.264-.8,2.446l.412.526s-1.127,1.4-.577,2.027,5.421,3.623,7.2,2.971.353-2.317-.417-2.632" transform="translate(-23.317 -45.904)" fill="#f5f5f5"/>
        <path id="Trazado_693095" data-name="Trazado 693095" d="M158.47,313.478a4.532,4.532,0,0,1,.605.23c.385.156.945.378,1.647.618.352.12.739.242,1.159.363s.875.224,1.348.388a2.912,2.912,0,0,1,1.334.844,1.668,1.668,0,0,1,.327,1.653,1.3,1.3,0,0,1-.623.641,2.279,2.279,0,0,1-.824.211,6.831,6.831,0,0,1-1.562-.115,13.849,13.849,0,0,1-2.529-.716c-.7-.264-1.25-.511-1.63-.683a3.739,3.739,0,0,1-.579-.29,4.228,4.228,0,0,1,.611.217c.389.149.947.375,1.648.62a14.734,14.734,0,0,0,2.51.666,6.829,6.829,0,0,0,1.514.1,2.094,2.094,0,0,0,.75-.193,1.1,1.1,0,0,0,.526-.541,1.477,1.477,0,0,0-.3-1.446,2.756,2.756,0,0,0-1.241-.792c-.456-.164-.913-.271-1.333-.4s-.808-.259-1.158-.389c-.7-.259-1.255-.5-1.632-.681a3.473,3.473,0,0,1-.573-.3" transform="translate(-23.506 -46.891)" fill="#e0e0e0"/>
        <path id="Trazado_693096" data-name="Trazado 693096" d="M159.1,309.317a4.426,4.426,0,0,1,.6.233c.384.156.938.383,1.635.632s1.535.52,2.481.768a3.433,3.433,0,0,1,1.443.619,1.242,1.242,0,0,1,.412.762,1.571,1.571,0,0,1-.145.873,2.1,2.1,0,0,1-1.307,1.066,3.386,3.386,0,0,1-1.567.091,15,15,0,0,1-2.5-.781l-1.646-.616a3.831,3.831,0,0,1-.594-.252,3.853,3.853,0,0,1,.621.177l1.668.554a16.2,16.2,0,0,0,2.48.731,3.237,3.237,0,0,0,1.478-.1,1.919,1.919,0,0,0,1.183-.962,1.158,1.158,0,0,0-.216-1.4,3.292,3.292,0,0,0-1.356-.585,25.679,25.679,0,0,1-2.482-.816c-.695-.267-1.243-.515-1.618-.695a3.49,3.49,0,0,1-.569-.305" transform="translate(-23.621 -46.269)" fill="#e0e0e0"/>
        <path id="Trazado_693097" data-name="Trazado 693097" d="M161.987,310.219a37.853,37.853,0,0,0-.431-1.976,2.443,2.443,0,0,1,.431,1.976" transform="translate(-24.165 -46.108)" fill="#e0e0e0"/>
        <path id="Trazado_693098" data-name="Trazado 693098" d="M179.373,309.864l-4.34-1.777s-12.029-5.924-12.241-5.622-.869.256-.756,1.74,7.129,4.619,7.342,5.137-.215,3.1,2.361,5.017a9,9,0,0,0,4.461,1.993" transform="translate(-24.236 -45.242)" fill="#f5f5f5"/>
        <path id="Trazado_693099" data-name="Trazado 693099" d="M176.183,316.333a.334.334,0,0,1-.1,0,2.908,2.908,0,0,1-.3-.036,6.745,6.745,0,0,1-1.131-.3,10.129,10.129,0,0,1-1.68-.773,10,10,0,0,1-1.985-1.44,5.263,5.263,0,0,1-1.438-2.588,11.964,11.964,0,0,1-.224-1.64.973.973,0,0,0-.039-.189.353.353,0,0,0-.112-.119,4.144,4.144,0,0,0-.35-.237c-.246-.151-.5-.3-.761-.444-1.043-.583-2.152-1.174-3.269-1.848-.559-.337-1.121-.694-1.664-1.1a6.471,6.471,0,0,1-.778-.678,2.161,2.161,0,0,1-.325-.429.9.9,0,0,1-.1-.276,2.157,2.157,0,0,1-.02-.27,1.922,1.922,0,0,1,.21-1.053,1.243,1.243,0,0,1,.394-.378.747.747,0,0,0,.171-.141c.014-.013-.01,0,.043-.042a.132.132,0,0,1,.087-.025.386.386,0,0,1,.085.008c.047.01.09.021.132.034.654.217,1.251.494,1.85.755,1.191.531,2.327,1.067,3.408,1.58,2.16,1.028,4.095,1.976,5.716,2.778.406.2.79.4,1.157.566l1.061.444,1.7.714,1.07.458.276.124a.424.424,0,0,1,.092.049.381.381,0,0,1-.1-.03l-.284-.105-1.086-.423-1.713-.683-1.069-.429c-.378-.164-.758-.361-1.168-.554l-5.734-2.738c-1.083-.508-2.22-1.039-3.408-1.566-.594-.258-1.2-.538-1.826-.743-.039-.012-.077-.021-.113-.029a.285.285,0,0,0-.039-.005c0-.007,0,.015-.006-.016s0-.032-.007-.05a.034.034,0,0,0-.014-.014c.136.1.035.031.063.054l-.012.015a.949.949,0,0,1-.216.184,1.044,1.044,0,0,0-.336.319,1.737,1.737,0,0,0-.179.939.906.906,0,0,0,.092.454,2.013,2.013,0,0,0,.293.385,6.269,6.269,0,0,0,.752.654c.533.4,1.09.754,1.646,1.09,1.11.673,2.215,1.266,3.258,1.856.26.148.517.3.766.452a3.946,3.946,0,0,1,.367.252.5.5,0,0,1,.168.2,1.048,1.048,0,0,1,.048.228,12,12,0,0,0,.212,1.625,5.138,5.138,0,0,0,1.375,2.526,10.1,10.1,0,0,0,1.939,1.441,10.506,10.506,0,0,0,1.65.8,7.835,7.835,0,0,0,1.111.331c.129.029.23.045.3.056a.515.515,0,0,1,.1.02" transform="translate(-24.218 -45.224)" fill="#e0e0e0"/>
        <path id="Trazado_693100" data-name="Trazado 693100" d="M162.044,319.136a1.537,1.537,0,0,1,.462.145,4.581,4.581,0,0,1,1.132.685,4.2,4.2,0,0,1,.649.657,1.391,1.391,0,0,1,.331,1.03,1.132,1.132,0,0,1-.827.858,2.189,2.189,0,0,1-1.272-.066,23.391,23.391,0,0,1-3.994-1.7,12.761,12.761,0,0,1-1.118-.694,1.971,1.971,0,0,1-.38-.3,2.415,2.415,0,0,1,.423.231c.266.158.654.381,1.144.634a28.064,28.064,0,0,0,3.984,1.633,2.021,2.021,0,0,0,1.154.071.948.948,0,0,0,.7-.7,1.238,1.238,0,0,0-.281-.9,4.281,4.281,0,0,0-.605-.646,6.9,6.9,0,0,0-1.5-.941" transform="translate(-23.489 -47.737)" fill="#e0e0e0"/>
        <path id="Trazado_693101" data-name="Trazado 693101" d="M238.036,304.423l-7.721.16s-11.578-4.183-13.96-3.784c-2.144.36-9.994,5.574-11.533,6.607a.975.975,0,0,0-.372.475,1.683,1.683,0,0,0,.935,2.139l.163.067-.071.234a2.781,2.781,0,0,0-.118.937,1.131,1.131,0,0,0,2.1.488l-.3.526a1.283,1.283,0,0,0-.163.7l.026.477a1.287,1.287,0,0,0,2.234.8c1-1.094,3.147-3.289,4.6-3.531a34.014,34.014,0,0,1,4.752-.238,1.609,1.609,0,0,1,1.493,1.028c-.863.062-6.879,3.2-9.008,4.323a2.277,2.277,0,0,0-1.238,1.713c-.078.667.259,1.365,1.577,1.057a58.218,58.218,0,0,0,7.919-3s2.626-.75,4.327.451c2.393,1.688,3.489,2.307,5.544,1.625a17.384,17.384,0,0,0,3.57-1.658l7.006.679s4.281-6.974-1.773-12.277" transform="translate(-30.567 -44.991)" fill="#f5f5f5"/>
        <path id="Trazado_693102" data-name="Trazado 693102" d="M220.683,307.464c-.01.044-.822-.216-2.175-.3a11.229,11.229,0,0,0-9.358,3.994c-.875,1.037-1.248,1.8-1.288,1.779a2.738,2.738,0,0,1,.258-.535,9.726,9.726,0,0,1,.911-1.342,10.884,10.884,0,0,1,9.489-4.05,9.736,9.736,0,0,1,1.6.271,2.708,2.708,0,0,1,.565.185" transform="translate(-31.093 -45.917)" fill="#e0e0e0"/>
        <path id="Trazado_693103" data-name="Trazado 693103" d="M219.142,304.146a9.551,9.551,0,0,0-2.265-.4,9.88,9.88,0,0,0-5.266,1.492,21.226,21.226,0,0,0-4.244,3.59l-1.163,1.236a3.45,3.45,0,0,1-.443.439,3.27,3.27,0,0,1,.38-.495c.256-.309.632-.752,1.113-1.285a19.485,19.485,0,0,1,4.244-3.672,9.642,9.642,0,0,1,5.385-1.458,6.438,6.438,0,0,1,1.68.308,3.849,3.849,0,0,1,.434.167c.1.043.146.068.144.075" transform="translate(-30.779 -45.411)" fill="#e0e0e0"/>
        <path id="Trazado_693104" data-name="Trazado 693104" d="M193.222,325.809s-35,15.438-36.159,24.227.307,55.03.307,55.03h26.613l2.82-40.856,2.71,40.856h26.16V365.356s27.216-4.471,33.314-8.337-2.48-31.374-2.48-31.374Z" transform="translate(-23.427 -48.711)" fill="#e0e0e0"/>
        <path id="Trazado_693105" data-name="Trazado 693105" d="M48.942,200.842a7.706,7.706,0,0,0-6.519,6.925c-.143,2.2.669,4.551-.27,6.549-.906,1.929-3.1,2.808-4.875,3.979-2.4,1.577-4.363,4.322-3.869,7.15a32.176,32.176,0,0,0,1.255,3.6c.7,2.317.251,4.8.276,7.221a13.675,13.675,0,0,0,2.092,7.439,9.074,9.074,0,0,0,6.389,4.093,35.723,35.723,0,0,1,3.99.224,22.005,22.005,0,0,1,3.249,1.3,11.683,11.683,0,0,0,12.615-3.232,14.357,14.357,0,0,0,2.9-12.993c-.853-3.307-2.729-6.24-4.162-9.34s-.223-8.465-.826-11.365c-5.4-2.2-7.883-6.382-10.578-11.55" transform="translate(-4.986 -30.043)" fill="#e0e0e0"/>
        <path id="Trazado_693106" data-name="Trazado 693106" d="M94.134,163.437c.073-2.194-1.949-3.9-3.988-4.713s-4.309-1.127-6.125-2.361c-1.607-1.094-2.684-2.791-4.043-4.181a13.515,13.515,0,0,0-22.758,6.1c-.8,3.122-.28,6.819,2.175,8.908,2.848,2.424,7.09,1.907,10.757,1.174s7.818-1.453,10.867.713c1.839,1.306,2.886,3.421,4.005,5.381s2.525,3.96,4.654,4.7,5.031-.511,5.125-2.765" transform="translate(-8.507 -22.159)" fill="#e0e0e0"/>
        <path id="Trazado_693107" data-name="Trazado 693107" d="M92.744,165.8c-.25,1.839,1.073,3.492,2.393,4.8s2.81,2.689,3.035,4.531c.264,2.151-1.316,4.261-.871,6.382.283,1.346,1.325,2.386,1.953,3.611a7.653,7.653,0,0,1,.365,5.641c-.555,1.851-1.445,5.984-2.739,7.417A29.731,29.731,0,0,1,82.4,206.724a55.917,55.917,0,0,1-15.949.8c-4.363-.289-9.383-.111-12.993-6.132-1.87-3.118-2.784-7.258-3.769-10.758-.848-3.014-1.579-6.24-.669-9.236.531-1.745,1.589-3.294,2.112-5.042.653-2.183.429-4.522.7-6.785a15.574,15.574,0,0,1,22.214-12.195" transform="translate(-7.27 -23.316)" fill="#e0e0e0"/>
        <path id="Trazado_693108" data-name="Trazado 693108" d="M54.752,173.87c.438-6.262,4.64-13.919,10.877-13.216l19.457,5.059a3.673,3.673,0,0,1,3.26,3.748L85.94,216.444l.134.031s-4.5,13.234-17.362,9.126c-2.55-.815-3.7-3.614-4.2-6.49l-.132.016c0-.342-.007-.659-.009-.985a30.722,30.722,0,0,1-.047-6.454c-.019-3.795-.008-5.35-.01-5.315,0,0-7.994-1.383-9.581-11.836-.789-5.2-.47-13.71.015-20.667" transform="translate(-8.116 -24.025)" fill="#f5f5f5"/>
        <path id="Trazado_693109" data-name="Trazado 693109" d="M58.926,183.434a1.34,1.34,0,0,0,1.282,1.36,1.281,1.281,0,0,0,1.388-1.2,1.34,1.34,0,0,0-1.28-1.361,1.283,1.283,0,0,0-1.39,1.2" transform="translate(-8.814 -27.259)" fill="#e0e0e0"/>
        <path id="Trazado_693110" data-name="Trazado 693110" d="M56.971,181.182c.165.176,1.185-.568,2.625-.554,1.44-.007,2.493.742,2.65.566.077-.077-.09-.395-.548-.733a3.677,3.677,0,0,0-2.12-.668,3.527,3.527,0,0,0-2.091.659c-.445.337-.6.652-.516.731" transform="translate(-8.519 -26.894)" fill="#e0e0e0"/>
        <path id="Trazado_693111" data-name="Trazado 693111" d="M75.673,183.434a1.34,1.34,0,0,0,1.282,1.36,1.281,1.281,0,0,0,1.389-1.2,1.34,1.34,0,0,0-1.281-1.362,1.282,1.282,0,0,0-1.39,1.2" transform="translate(-11.319 -27.259)" fill="#e0e0e0"/>
        <path id="Trazado_693112" data-name="Trazado 693112" d="M73.625,181.611c.165.176,1.186-.568,2.626-.554,1.44-.007,2.492.742,2.65.566.077-.078-.088-.394-.549-.732a3.67,3.67,0,0,0-2.119-.67,3.533,3.533,0,0,0-2.091.66c-.445.337-.6.652-.517.73" transform="translate(-11.01 -26.958)" fill="#e0e0e0"/>
        <path id="Trazado_693113" data-name="Trazado 693113" d="M66.749,192.269a9.581,9.581,0,0,0-2.338-.438c-.367-.041-.715-.117-.776-.367a1.872,1.872,0,0,1,.253-1.089q.529-1.332,1.108-2.794c1.538-3.979,2.654-7.251,2.493-7.312s-1.538,3.115-3.077,7.094q-.555,1.472-1.061,2.811a2.127,2.127,0,0,0-.2,1.443.923.923,0,0,0,.6.542,2.465,2.465,0,0,0,.624.091,9.4,9.4,0,0,0,2.373.02" transform="translate(-9.436 -26.965)" fill="#e0e0e0"/>
        <path id="Trazado_693114" data-name="Trazado 693114" d="M66.087,213.784A26.562,26.562,0,0,0,80.1,210.149s-3.441,7.149-13.885,6.1Z" transform="translate(-9.886 -31.435)" fill="#ebebeb"/>
        <path id="Trazado_693115" data-name="Trazado 693115" d="M68.057,198.3a2.6,2.6,0,0,1,2.334-.948,2.373,2.373,0,0,1,1.631.889,1.5,1.5,0,0,1,.1,1.719,1.743,1.743,0,0,1-1.892.465,5.471,5.471,0,0,1-1.834-1.112,1.6,1.6,0,0,1-.408-.429.481.481,0,0,1,.006-.537" transform="translate(-10.158 -29.518)" fill="#ebebeb"/>
        <path id="Trazado_693116" data-name="Trazado 693116" d="M71.561,195.586c-.234-.015-.248,1.549-1.595,2.65s-3.01.918-3.023,1.136c-.023.1.369.307,1.072.331a3.9,3.9,0,0,0,2.524-.861,3.4,3.4,0,0,0,1.237-2.222c.064-.654-.108-1.043-.215-1.034" transform="translate(-10.013 -29.257)" fill="#e0e0e0"/>
        <path id="Trazado_693117" data-name="Trazado 693117" d="M72.886,178.7c.139.393,1.579.217,3.268.432,1.694.181,3.054.685,3.281.336.1-.168-.134-.537-.683-.921a5.732,5.732,0,0,0-4.989-.585c-.623.246-.936.552-.877.738" transform="translate(-10.901 -26.571)" fill="#e0e0e0"/>
        <path id="Trazado_693118" data-name="Trazado 693118" d="M57.626,176.267c.251.329,1.246,0,2.44-.012,1.193-.049,2.2.235,2.438-.105.1-.166-.054-.495-.493-.808a3.534,3.534,0,0,0-3.931.1c-.424.333-.565.669-.454.83" transform="translate(-8.614 -26.146)" fill="#e0e0e0"/>
        <path id="Trazado_693119" data-name="Trazado 693119" d="M93.8,199.708a9.271,9.271,0,0,1-10.983-10.3c.337-2.562,1.731-5.165.853-7.6-1.161-3.215-5.654-4.222-6.833-7.43-.685-1.865-.053-4.039-.831-5.867-.731-1.719-2.532-2.715-4.285-3.357s-3.635-1.09-5.1-2.243-2.379-3.321-1.42-4.924a98.938,98.938,0,0,1,22.791,5.649c1.7.644,3.488,1.417,4.488,2.936,1.059,1.607,1,3.678.9,5.6q-.721,14.061-1.442,28.122" transform="translate(-9.693 -23.632)" fill="#e0e0e0"/>
        <path id="Trazado_693120" data-name="Trazado 693120" d="M59.023,226.856l6.131-4.646,23.1-1.476.93,3.1-7.514,46.888,5.015,39.305H54.458Z" transform="translate(-8.146 -33.018)" fill="#ebebeb"/>
        <path id="Trazado_693121" data-name="Trazado 693121" d="M65.549,227.114l-.714-6.7a2.126,2.126,0,0,1,1.923-2.342l21.265-1.922a1,1,0,0,1,1.094.97l.24,7.976L83.2,235.541l-6.33,2.015h-7.74L64.677,232.8Z" transform="translate(-9.675 -32.331)" fill="#ebebeb"/>
        <path id="Trazado_693122" data-name="Trazado 693122" d="M86.278,223.6a8.4,8.4,0,0,1-.85-.088,15.14,15.14,0,0,0-2.317-.039,22.813,22.813,0,0,0-3.405.491c-1.27.266-2.65.64-4.113,1a26.973,26.973,0,0,1-4.187.746,10.817,10.817,0,0,1-3.471-.235,7.335,7.335,0,0,1-2.166-.9,5.464,5.464,0,0,1-.518-.374c-.111-.094-.166-.148-.161-.155s.255.171.731.44a7.965,7.965,0,0,0,2.156.806,11.051,11.051,0,0,0,3.408.173,28.574,28.574,0,0,0,4.144-.759c1.458-.355,2.845-.723,4.126-.978a21.073,21.073,0,0,1,3.445-.438,12.617,12.617,0,0,1,2.339.124c.273.045.484.086.625.122a.713.713,0,0,1,.213.067" transform="translate(-9.736 -33.399)" fill="#ebebeb"/>
        <path id="Trazado_693123" data-name="Trazado 693123" d="M70.848,218.152a1.942,1.942,0,0,0-.727.7,5.212,5.212,0,0,0-.291,2.443c.054,1.984.382,3.571.3,3.586a3.484,3.484,0,0,1-.288-1.025,15.856,15.856,0,0,1-.281-2.554,11.574,11.574,0,0,1,.029-1.421,2.48,2.48,0,0,1,.367-1.129,1.467,1.467,0,0,1,.6-.534c.176-.078.284-.077.287-.063" transform="translate(-10.405 -32.631)" fill="#ebebeb"/>
        <path id="Trazado_693124" data-name="Trazado 693124" d="M77.521,223.88a31.5,31.5,0,0,0-.152-3.246,31.818,31.818,0,0,0-.756-3.16,2.825,2.825,0,0,1,.435.863,10.434,10.434,0,0,1,.651,4.592,2.824,2.824,0,0,1-.178.951" transform="translate(-11.459 -32.531)" fill="#ebebeb"/>
        <path id="Trazado_693125" data-name="Trazado 693125" d="M85.664,216.814a2.029,2.029,0,0,1,.406.789,5.49,5.49,0,0,1-.28,4.2,2.012,2.012,0,0,1-.506.729,7.022,7.022,0,0,0,.38-5.716" transform="translate(-12.756 -32.432)" fill="#ebebeb"/>
        <path id="Trazado_693126" data-name="Trazado 693126" d="M34.315,317.362l5.234-23.721S37.574,252,39.071,245.1c1.9-8.77,9.154-13.625,9.154-13.625l2.963,67.972-2.941,15.865" transform="translate(-5.133 -34.626)" fill="#e0e0e0"/>
        <path id="Trazado_693127" data-name="Trazado 693127" d="M56.3,310.655l.788-50.913,1.444-32.8L62,223.918l-12.291,6.43-2.9,9.532-2.585,27.627,4.866,32.39-3.351,10.657" transform="translate(-6.615 -33.494)" fill="#e0e0e0"/>
        <path id="Trazado_693128" data-name="Trazado 693128" d="M46.338,290a2.51,2.51,0,0,1-.119-.4q-.108-.432-.29-1.159c-.127-.5-.273-1.121-.415-1.845s-.33-1.543-.475-2.459c-.161-.914-.332-1.916-.47-3-.164-1.079-.276-2.241-.407-3.461-.221-2.445-.369-5.142-.372-7.977.013-2.834.171-5.532.4-7.976.135-1.221.252-2.382.42-3.46.142-1.083.316-2.084.48-3,.149-.916.337-1.735.485-2.457s.293-1.34.422-1.843q.185-.726.3-1.158a2.444,2.444,0,0,1,.12-.4,2.474,2.474,0,0,1-.068.412L46.1,250.99c-.113.505-.247,1.125-.378,1.85s-.309,1.544-.445,2.459c-.152.913-.316,1.914-.448,3-.158,1.077-.266,2.236-.395,3.454-.216,2.439-.367,5.128-.379,7.954,0,2.825.143,5.514.35,7.953.124,1.218.227,2.377.382,3.455.128,1.081.288,2.083.436,3s.305,1.737.436,2.462.259,1.345.371,1.851q.151.733.242,1.169a2.556,2.556,0,0,1,.066.412" transform="translate(-6.55 -37.308)" fill="#ebebeb"/>
        <path id="Trazado_693129" data-name="Trazado 693129" d="M84.329,303.244,110.21,288.2l-4.395-24.56,4.35-34.015,7.081,2.743a6.863,6.863,0,0,1,4.253,5.021c3.693,17.972,11.987,45.609,12.106,53.966.138,9.688-4.1,16.319-9.628,17.542-3.162.7-22.385,4.907-35.336,6.109" transform="translate(-12.614 -34.348)" fill="#e0e0e0"/>
        <path id="Trazado_693130" data-name="Trazado 693130" d="M88.836,250.3l4.447-23.2a9.176,9.176,0,0,0-.924-6.451l.051-1.208,9.175,5.034,8.876,3.626.212,26.978-5.347,54.682-18.813.071.039-24.407A141.854,141.854,0,0,1,88.836,250.3" transform="translate(-12.909 -32.825)" fill="#e0e0e0"/>
        <path id="Trazado_693131" data-name="Trazado 693131" d="M109.291,266.7a1.145,1.145,0,0,1,.069.273c.042.209.093.469.155.787.133.722.312,1.7.532,2.9.433,2.487,1.02,5.859,1.669,9.586.623,3.732,1.185,7.109,1.6,9.6.188,1.2.343,2.189.456,2.914.045.321.082.583.111.794a1.2,1.2,0,0,1,.021.281,1.114,1.114,0,0,1-.074-.271l-.16-.786c-.134-.722-.316-1.7-.538-2.9-.444-2.451-1.038-5.84-1.677-9.587s-1.2-7.14-1.593-9.6c-.185-1.2-.337-2.19-.448-2.916l-.105-.8a1.086,1.086,0,0,1-.016-.28" transform="translate(-16.348 -39.894)" fill="#ebebeb"/>
        <path id="Trazado_693132" data-name="Trazado 693132" d="M117.933,235.072a4.9,4.9,0,0,1-.726.269,16.941,16.941,0,0,0-1.925.833,14.976,14.976,0,0,0-5.209,4.438,11.07,11.07,0,0,0-1.024,1.668,10.577,10.577,0,0,0-.616,1.716,17.185,17.185,0,0,0-.517,3.062c-.076.884-.09,1.6-.1,2.1a6.382,6.382,0,0,1-.018.775,3.287,3.287,0,0,1-.085-.772,19.278,19.278,0,0,1,.012-2.117,16.034,16.034,0,0,1,.468-3.112,10.443,10.443,0,0,1,.617-1.764,10.952,10.952,0,0,1,1.045-1.714,14.438,14.438,0,0,1,5.339-4.45,13.306,13.306,0,0,1,1.978-.763,3.874,3.874,0,0,1,.758-.171" transform="translate(-16.109 -35.163)" fill="#ebebeb"/>
        <path id="Trazado_693133" data-name="Trazado 693133" d="M46.551,296.672a.962.962,0,0,0,.028.256c.035.195.078.433.13.722.124.624.288,1.531.48,2.652A54.393,54.393,0,0,1,48,309.132,41.107,41.107,0,0,1,47.7,314a38.187,38.187,0,0,1-.72,3.921c-.117.556-.27,1.048-.384,1.485s-.228.809-.323,1.112c-.084.281-.152.513-.209.7a.957.957,0,0,0-.056.252.948.948,0,0,0,.106-.234c.069-.186.154-.413.256-.688.111-.3.242-.668.368-1.1s.293-.925.423-1.481a34.517,34.517,0,0,0,.78-3.935,38.529,38.529,0,0,0,.321-4.9,48.821,48.821,0,0,0-.891-8.863c-.217-1.12-.409-2.022-.564-2.641-.072-.284-.131-.52-.179-.712a.957.957,0,0,0-.08-.244" transform="translate(-6.882 -44.377)" fill="#ebebeb"/>
        <path id="Trazado_693134" data-name="Trazado 693134" d="M40.471,325.809s-28.4,12.239-29.56,21.029,4.783,59.521,4.783,59.521L75,403.972l-4.056-39.736s19.194-3.351,25.292-7.217-2.48-31.374-2.48-31.374Z" transform="translate(-1.61 -48.711)" fill="#e0e0e0"/>
        <path id="Trazado_693135" data-name="Trazado 693135" d="M80.069,316.194,72.56,318s-12.2-1.613-14.445-.713c-2.017.81-8.572,7.581-9.854,8.918a.977.977,0,0,0-.263.543,1.684,1.684,0,0,0,1.372,1.89l.173.031-.02.243a2.8,2.8,0,0,0,.085.941,1.132,1.132,0,0,0,2.159.028l-.177.577a1.3,1.3,0,0,0-.009.722l.128.461a1.288,1.288,0,0,0,2.354.3c.739-1.282,2.371-3.885,3.74-4.432a34.009,34.009,0,0,1,4.591-1.248,1.609,1.609,0,0,1,1.68.685c-.83.245-6.037,4.595-7.877,6.147a2.277,2.277,0,0,0-.844,1.938c.066.668.544,1.278,1.766.7a58.272,58.272,0,0,0,7.1-4.624s2.4-1.294,4.324-.485c2.7,1.138,3.9,1.509,5.763.4a17.414,17.414,0,0,0,3.133-2.383l6.989-.833s2.692-7.728-4.355-11.614" transform="translate(-7.177 -47.298)" fill="#f5f5f5"/>
        <path id="Trazado_693136" data-name="Trazado 693136" d="M63.707,323.1c0,.045-.849-.036-2.19.17a11.23,11.23,0,0,0-8.289,5.9c-.633,1.2-.834,2.027-.877,2.013a2.683,2.683,0,0,1,.137-.578,9.819,9.819,0,0,1,.6-1.505,10.89,10.89,0,0,1,8.4-5.984,9.805,9.805,0,0,1,1.62-.077,2.658,2.658,0,0,1,.591.06" transform="translate(-7.831 -48.321)" fill="#e0e0e0"/>
        <path id="Trazado_693137" data-name="Trazado 693137" d="M61.53,320.168a9.5,9.5,0,0,0-2.3.1,9.887,9.887,0,0,0-4.826,2.582,21.2,21.2,0,0,0-3.379,4.415l-.872,1.455a3.356,3.356,0,0,1-.34.524,3.4,3.4,0,0,1,.266-.565c.184-.356.457-.869.813-1.493a19.5,19.5,0,0,1,3.362-4.494,9.625,9.625,0,0,1,4.949-2.575,6.4,6.4,0,0,1,1.708-.059,3.919,3.919,0,0,1,.459.07.45.45,0,0,1,.156.043" transform="translate(-7.452 -47.87)" fill="#e0e0e0"/>
        <path id="Trazado_693138" data-name="Trazado 693138" d="M409.438,401.612v-97.8h-163.3s-3.808,97.8,0,97.8Z" transform="translate(-36.565 -45.445)" fill="#455a64"/>
        <path id="Trazado_693139" data-name="Trazado 693139" d="M398.068,303.7l-70.349,65.039H168.435l65.685-65.685Z" transform="translate(-25.195 -45.332)" fill="#455a64"/>
        <rect id="Rectángulo_344237" data-name="Rectángulo 344237" width="159.284" height="32.762" transform="translate(143.24 323.405)" fill="#455a64"/>
        <path id="Trazado_693140" data-name="Trazado 693140" d="M244.442,368.737l1.047-65.684,163.948.646-70.349,65.039Z" transform="translate(-36.565 -45.332)" fill="#455a64"/>
        <path id="Trazado_693141" data-name="Trazado 693141" d="M411.632,301.991l-.833-.176a85.556,85.556,0,0,0,.213-28.512c-2.358-13.8-9.833-31.864-32.046-39.541l.277-.8c22.617,7.817,30.218,26.189,32.613,40.227a86.519,86.519,0,0,1-.224,28.806" transform="translate(-56.687 -34.847)" fill="#263238"/>
        <path id="Trazado_693142" data-name="Trazado 693142" d="M378.754,232.2l-.2.4a3.9,3.9,0,0,1-5.225,1.769l-7.221-3.568a3.9,3.9,0,0,1-1.769-5.225l.2-.4a3.9,3.9,0,0,1,5.224-1.769l7.222,3.568a3.9,3.9,0,0,1,1.769,5.225" transform="translate(-54.439 -33.357)" fill="#263238"/>
        <path id="Trazado_693143" data-name="Trazado 693143" d="M355.7,401.612a.589.589,0,0,1-.015-.152c0-.119-.008-.266-.015-.451q-.01-.631-.029-1.757c-.013-1.563-.031-3.812-.054-6.662-.02-5.762-.047-13.944-.08-23.74v-.084l.062-.058L378.7,347.29l33.425-30.813,10.163-9.3,2.778-2.512.73-.645a1.922,1.922,0,0,1,.259-.209,1.7,1.7,0,0,1-.228.242l-.7.677L422.4,307.3l-10.068,9.4L379,347.615l-23.164,21.376.062-.141c-.033,9.8-.06,17.979-.08,23.74-.023,2.85-.041,5.1-.054,6.662q-.019,1.126-.029,1.757c-.006.185-.011.332-.015.451a.582.582,0,0,1-.015.152" transform="translate(-53.178 -45.445)" fill="#263238"/>
        <path id="Trazado_693144" data-name="Trazado 693144" d="M326.412,380.443c0,.122-35.409.221-79.079.221s-79.085-.1-79.085-.221,35.4-.221,79.085-.221,79.079.1,79.079.221" transform="translate(-25.167 -56.875)" fill="#263238"/>
        <path id="Trazado_693145" data-name="Trazado 693145" d="M320.293,369.464s.1-.107.3-.305l.917-.878,3.59-3.4,13.61-12.8,48.2-45.177.136.343-72.761.023-75.674-.025.138-.057L193.3,352.294l-12.834,12.694-3.4,3.342-.878.853c-.2.19-.305.281-.305.281s.092-.106.283-.3l.856-.874,3.359-3.385,12.757-12.772,45.334-45.223.057-.058h.082l75.674-.025,72.761.023h.5l-.367.343-48.308,45.061-13.687,12.721-3.631,3.354-.938.855c-.212.191-.325.281-.325.281" transform="translate(-26.309 -45.896)" fill="#263238"/>
        <path id="Trazado_693146" data-name="Trazado 693146" d="M245.642,370.374c-.122,0-.221-13.378-.221-29.876s.1-29.879.221-29.879.221,13.374.221,29.879-.1,29.876-.221,29.876" transform="translate(-36.711 -46.464)" fill="#263238"/>
        <g id="Grupo_895984" data-name="Grupo 895984" transform="translate(143.698 341.358)" opacity="0.4">
          <g id="Grupo_895983" data-name="Grupo 895983">
            <g id="Grupo_895982" data-name="Grupo 895982" clip-path="url(#clip-path-3)">
              <path id="Trazado_693147" data-name="Trazado 693147" d="M325.539,413.324s-.36-.444-1.029-1.3c-.353-.412-.81-.907-1.349-1.488-.578-.544-1.22-1.2-2.033-1.837a29.256,29.256,0,0,0-6.374-3.936,35.814,35.814,0,0,0-9.519-2.78,45.519,45.519,0,0,0-12.023-.1,82.29,82.29,0,0,0-13.524,2.9c-4.685,1.364-9.514,3.081-14.557,4.755a116.125,116.125,0,0,1-15.872,4.3,65.918,65.918,0,0,1-16.408.8c-5.308-.355-10.385-1.12-15.207-1.878s-9.4-1.514-13.711-2.016a96.1,96.1,0,0,0-12.043-.662,50.185,50.185,0,0,0-17.13,2.964c-.964.367-1.815.706-2.527,1.06-.723.33-1.333.613-1.8.889-.953.52-1.459.787-1.459.787s.493-.287,1.442-.818c.467-.281,1.075-.57,1.8-.906.71-.36,1.561-.7,2.524-1.077a49.9,49.9,0,0,1,17.152-3.024,95.517,95.517,0,0,1,12.061.641c4.317.5,8.9,1.24,13.721,2s9.895,1.515,15.193,1.866a65.851,65.851,0,0,0,16.365-.8,116.254,116.254,0,0,0,15.849-4.287c5.04-1.67,9.873-3.385,14.565-4.746A82.111,82.111,0,0,1,293.2,401.74a45.6,45.6,0,0,1,12.059.119,35.827,35.827,0,0,1,9.542,2.814,29.126,29.126,0,0,1,6.376,3.972c.811.643,1.451,1.3,2.027,1.854.537.587.99,1.085,1.339,1.5.662.864,1,1.322,1,1.322" transform="translate(-168.974 -401.401)" fill="#fff"/>
            </g>
          </g>
        </g>
        <g id="Grupo_895987" data-name="Grupo 895987" transform="translate(144.094 328.227)" opacity="0.4">
          <g id="Grupo_895986" data-name="Grupo 895986">
            <g id="Grupo_895985" data-name="Grupo 895985" clip-path="url(#clip-path-4)">
              <path id="Trazado_693148" data-name="Trazado 693148" d="M245.794,388.619s-.636.368-1.856,1.055-3.064,1.623-5.5,2.686a67.193,67.193,0,0,1-21.809,5.256,66.184,66.184,0,0,1-15.517-.737,2.868,2.868,0,0,1-1.895-.948,1.171,1.171,0,0,1-.108-1.091,1.954,1.954,0,0,1,.73-.832,9.886,9.886,0,0,1,2-.9l2.072-.793c2.81-1,5.735-1.927,8.781-2.716,12.185-3.181,26.146-4.281,40.628-3.277a10.4,10.4,0,0,1,5.145,1.612,5.994,5.994,0,0,1,1.811,2,4.343,4.343,0,0,1,.515,2.619,6.1,6.1,0,0,1-2.971,4.227,16.6,16.6,0,0,1-4.858,1.8,145.44,145.44,0,0,1-19.43,3.412,232.782,232.782,0,0,1-33.375.964c-9.505-.354-17.181-.939-22.483-1.335s-8.232-.666-8.232-.666l8.237.6c5.3.375,12.98.941,22.483,1.279a234.314,234.314,0,0,0,33.352-1,145.766,145.766,0,0,0,19.406-3.419,16.476,16.476,0,0,0,4.807-1.781,5.917,5.917,0,0,0,2.889-4.1,4.843,4.843,0,0,0-2.253-4.45A10.238,10.238,0,0,0,253.3,386.5c-14.456-1-28.4.091-40.57,3.259-3.042.786-5.963,1.712-8.769,2.7l-2.07.79a9.8,9.8,0,0,0-1.971.883,1.816,1.816,0,0,0-.678.764,1.023,1.023,0,0,0,.093.953,2.744,2.744,0,0,0,1.8.885,66.226,66.226,0,0,0,15.483.757,67.521,67.521,0,0,0,21.79-5.2c2.442-1.052,4.285-1.986,5.514-2.654s1.873-1.024,1.873-1.024" transform="translate(-169.439 -385.961)" fill="#fff"/>
            </g>
          </g>
        </g>
        <g id="Grupo_895990" data-name="Grupo 895990" transform="translate(250.741 325.048)" opacity="0.4">
          <g id="Grupo_895989" data-name="Grupo 895989">
            <g id="Grupo_895988" data-name="Grupo 895988" clip-path="url(#clip-path-5)">
              <path id="Trazado_693149" data-name="Trazado 693149" d="M343.061,387.585s-2.709.467-7.137.781c-2.213.165-4.856.246-7.79.221-2.933-.05-6.158-.22-9.525-.585-3.367-.384-6.55-.927-9.423-1.522-2.868-.621-5.429-1.281-7.552-1.927-4.25-1.28-6.79-2.33-6.79-2.33s.166.047.475.151l1.35.467c.583.208,1.3.457,2.142.715s1.789.586,2.859.876c2.124.631,4.684,1.277,7.55,1.888,2.87.586,6.049,1.123,9.409,1.506,3.361.364,6.579.538,9.508.6,2.929.033,5.568-.034,7.78-.183,1.107-.048,2.1-.156,2.982-.226s1.632-.152,2.248-.227l1.419-.159c.325-.034.5-.043.5-.043" transform="translate(-294.845 -382.222)" fill="#fff"/>
            </g>
          </g>
        </g>
        <g id="Grupo_895993" data-name="Grupo 895993" transform="translate(306.995 329.759)" opacity="0.4">
          <g id="Grupo_895992" data-name="Grupo 895992">
            <g id="Grupo_895991" data-name="Grupo 895991" clip-path="url(#clip-path-6)">
              <path id="Trazado_693150" data-name="Trazado 693150" d="M413.822,411.5s.161-.254.48-.729.786-1.179,1.358-2.1a32.121,32.121,0,0,0,1.89-3.473,16.2,16.2,0,0,0,1.447-5,9.821,9.821,0,0,0-1.3-6.066,12.288,12.288,0,0,0-5.381-4.7,18.077,18.077,0,0,0-7.82-1.491,37.563,37.563,0,0,0-8.532,1.219c-1.447.323-2.832.8-4.207,1.232-1.345.519-2.693.979-3.954,1.583a57.658,57.658,0,0,0-7.11,3.77,78.484,78.484,0,0,0-10.858,8.235c-2.885,2.6-5.066,4.874-6.554,6.457l-1.689,1.847c-.386.423-.6.639-.6.639s.776-.919,2.233-2.533c1.474-1.6,3.643-3.885,6.522-6.5A77.543,77.543,0,0,1,380.6,395.6a57.533,57.533,0,0,1,7.126-3.79c1.265-.606,2.617-1.069,3.966-1.589,1.379-.437,2.77-.914,4.222-1.239a37.606,37.606,0,0,1,8.573-1.219,18.2,18.2,0,0,1,7.891,1.516,12.429,12.429,0,0,1,5.439,4.774,9.953,9.953,0,0,1,1.3,6.154,16.238,16.238,0,0,1-1.482,5.028,31.32,31.32,0,0,1-1.923,3.467c-1.168,1.836-1.9,2.8-1.9,2.8" transform="translate(-360.994 -387.762)" fill="#fff"/>
            </g>
          </g>
        </g>
        <g id="Grupo_895996" data-name="Grupo 895996" transform="translate(313.944 337.407)" opacity="0.4">
          <g id="Grupo_895995" data-name="Grupo 895995">
            <g id="Grupo_895994" data-name="Grupo 895994" clip-path="url(#clip-path-7)">
              <path id="Trazado_693151" data-name="Trazado 693151" d="M406.834,416.843s-.108-.186-.281-.558a6.775,6.775,0,0,1-.459-1.73,10.5,10.5,0,0,1,.057-2.83,31.608,31.608,0,0,1,.811-3.664,19.935,19.935,0,0,0,.771-4.449,6.51,6.51,0,0,0-1.511-4.782,6.728,6.728,0,0,0-5.181-1.9,20,20,0,0,0-6.02,1.176,62.955,62.955,0,0,0-19.114,9.99,64.159,64.159,0,0,0-5,4.257c-.572.526-.987.962-1.285,1.242s-.453.429-.453.429.581-.634,1.691-1.721a59.7,59.7,0,0,1,4.975-4.3,62.085,62.085,0,0,1,19.137-10.06,20.071,20.071,0,0,1,6.073-1.181,6.887,6.887,0,0,1,5.3,1.962,6.651,6.651,0,0,1,1.537,4.9,19.92,19.92,0,0,1-.8,4.477,31.876,31.876,0,0,0-.834,3.645,10.63,10.63,0,0,0-.088,2.808,7.1,7.1,0,0,0,.424,1.725c.162.374.248.571.248.571" transform="translate(-369.165 -396.756)" fill="#fff"/>
            </g>
          </g>
        </g>
        <g id="Grupo_895999" data-name="Grupo 895999" transform="translate(329.562 352.21)" opacity="0.4">
          <g id="Grupo_895998" data-name="Grupo 895998">
            <g id="Grupo_895997" data-name="Grupo 895997" clip-path="url(#clip-path-8)">
              <path id="Trazado_693152" data-name="Trazado 693152" d="M397.956,417.084a9.382,9.382,0,0,0-1.238-1.29,6.226,6.226,0,0,0-7.933-.054,9.372,9.372,0,0,0-1.255,1.272,4.819,4.819,0,0,1,1.176-1.369,6.185,6.185,0,0,1,8.093.055,4.821,4.821,0,0,1,1.157,1.386" transform="translate(-387.53 -414.163)" fill="#fff"/>
            </g>
          </g>
        </g>
        <g id="Grupo_896002" data-name="Grupo 896002" transform="translate(303.73 297.872)" opacity="0.4">
          <g id="Grupo_896001" data-name="Grupo 896001">
            <g id="Grupo_896000" data-name="Grupo 896000" clip-path="url(#clip-path-9)">
              <path id="Trazado_693153" data-name="Trazado 693153" d="M427.014,350.266s-.264.122-.77.339a18.079,18.079,0,0,0-2.114,1.151,26.153,26.153,0,0,0-6.429,6.038c-2.361,2.912-4.581,6.8-7.57,10.768a34.372,34.372,0,0,1-5.367,5.628,37.035,37.035,0,0,1-7,4.557,47.581,47.581,0,0,1-15.4,4.6,71.3,71.3,0,0,1-13.158.373c-3.744-.226-6.758-.6-8.834-.893s-3.217-.5-3.217-.5.288.031.835.106l2.391.325c2.078.267,5.091.626,8.832.836a72.053,72.053,0,0,0,13.13-.411,47.631,47.631,0,0,0,15.345-4.6,37,37,0,0,0,6.965-4.533A34.3,34.3,0,0,0,410,368.463c2.987-3.945,5.222-7.836,7.6-10.747a25.839,25.839,0,0,1,6.49-6.018,16.929,16.929,0,0,1,2.136-1.126c.513-.207.785-.306.785-.306" transform="translate(-357.155 -350.266)" fill="#fff"/>
            </g>
          </g>
        </g>
        <g id="Grupo_896005" data-name="Grupo 896005" transform="translate(328.917 283.23)" opacity="0.4">
          <g id="Grupo_896004" data-name="Grupo 896004">
            <g id="Grupo_896003" data-name="Grupo 896003" clip-path="url(#clip-path-10)">
              <path id="Trazado_693154" data-name="Trazado 693154" d="M414.116,343.229s-.2.249-.6.711-.992,1.143-1.827,1.958a13.127,13.127,0,0,1-3.438,2.493,7.174,7.174,0,0,1-5.543.305,4.745,4.745,0,0,1-2.513-2.1,5.261,5.261,0,0,1-.474-3.534,7.58,7.58,0,0,1,1.712-3.449,16.664,16.664,0,0,1,3.059-2.746,19.155,19.155,0,0,1,8.022-3.647,12.183,12.183,0,0,1,4.711.128,9.661,9.661,0,0,1,4.335,2.2l.038.035-.011.048a33.2,33.2,0,0,1-1.709,5.511,34.124,34.124,0,0,1-12.9,15.555,32.13,32.13,0,0,1-8.077,3.79c-2.669.792-5.455.956-7.665-.06a7.715,7.715,0,0,1-4.145-4.714,7.344,7.344,0,0,1,.168-4.782,7.58,7.58,0,0,1,1.613-2.591,5.768,5.768,0,0,1,.8-.71s-.067.064-.2.182a7.039,7.039,0,0,0-.57.553,7.669,7.669,0,0,0-1.575,2.59,7.292,7.292,0,0,0-.138,4.728,7.617,7.617,0,0,0,4.1,4.629,11.02,11.02,0,0,0,7.573.033,32.1,32.1,0,0,0,8.029-3.785,34.045,34.045,0,0,0,12.822-15.486,33.1,33.1,0,0,0,1.7-5.479l.027.083a10.747,10.747,0,0,0-8.9-2.291,19.042,19.042,0,0,0-7.957,3.607,16.573,16.573,0,0,0-3.036,2.715,7.429,7.429,0,0,0-1.689,3.38,5.128,5.128,0,0,0,.45,3.444,4.62,4.62,0,0,0,2.442,2.055,7.086,7.086,0,0,0,5.461-.279,13.158,13.158,0,0,0,3.433-2.455c.838-.806,1.436-1.482,1.846-1.934s.625-.689.625-.689" transform="translate(-386.772 -333.048)" fill="#fff"/>
            </g>
          </g>
        </g>
        <path id="Trazado_693155" data-name="Trazado 693155" d="M192.623,379.733H323.4v-4.867H197.49a4.867,4.867,0,0,0-4.867,4.867" transform="translate(-28.813 -56.074)" fill="#263238"/>
        <path id="Trazado_693156" data-name="Trazado 693156" d="M231.43,366.04h94.512a2.841,2.841,0,0,0,2.841-2.841V293.1a2.842,2.842,0,0,0-2.841-2.842H231.43a2.842,2.842,0,0,0-2.841,2.842v70.1a2.841,2.841,0,0,0,2.841,2.841" transform="translate(-34.193 -43.418)" fill="#263238"/>
        <rect id="Rectángulo_344246" data-name="Rectángulo 344246" width="91.832" height="67.489" transform="translate(198.577 250.442)" fill="#fafafa"/>
        <path id="Trazado_693157" data-name="Trazado 693157" d="M233.486,361.963s.009-.427.013-1.243.007-2.028.013-3.606c.007-3.158.016-7.786.029-13.684.014-11.788.034-28.648.058-48.956l-.112.1,91.824.018h.009l-.133-.113c.005,24.507.011,47.594.015,67.489l.118-.1-66.425.051-18.739.026-4.956.012-1.276.005c-.287,0-.436.006-.436.006s.14,0,.423.006l1.263.005,4.933.012,18.712.026,66.5.051h.118v-.1c0-19.895.009-42.982.015-67.489v-.113h-.142l-91.824.018h-.113v.1c.025,20.333.044,37.214.059,49.016.013,5.889.022,10.51.029,13.663.006,1.57.01,2.773.013,3.588s.013,1.222.013,1.222" transform="translate(-34.909 -44.032)" fill="#263238"/>
        <path id="Trazado_693158" data-name="Trazado 693158" d="M249.666,315.835s.106.007.315.01l.927.01,3.583.019,13.327.033,45.274.039-.111-.111c0,4.953,0,10.089,0,15.346,0,5.417,0,10.706,0,15.813l.111-.111-44.96.038-13.222.033-3.553.019-.919.01c-.207,0-.313.01-.313.01s.106.007.313.01l.919.01,3.553.019,13.222.033,44.96.038h.111v-.111c0-5.107,0-10.4,0-15.813,0-5.256,0-10.393,0-15.346v-.111h-.111l-45.274.038-13.327.033-3.583.019-.927.01c-.208,0-.315.01-.315.01" transform="translate(-37.346 -47.227)" fill="#e0e0e0"/>
        <path id="Trazado_693159" data-name="Trazado 693159" d="M249.666,322c0,.063,14.2.113,31.711.113s31.715-.05,31.715-.113-14.2-.113-31.715-.113-31.711.051-31.711.113" transform="translate(-37.346 -48.15)" fill="#e0e0e0"/>
        <path id="Trazado_693160" data-name="Trazado 693160" d="M250.207,326.916c0,.063,14.2.113,31.712.113s31.715-.05,31.715-.113-14.2-.113-31.715-.113-31.712.051-31.712.113" transform="translate(-37.427 -48.884)" fill="#e0e0e0"/>
        <path id="Trazado_693161" data-name="Trazado 693161" d="M249.666,332.1c0,.063,14.2.113,31.711.113s31.715-.05,31.715-.113-14.2-.113-31.715-.113-31.711.051-31.711.113" transform="translate(-37.346 -49.659)" fill="#e0e0e0"/>
        <path id="Trazado_693162" data-name="Trazado 693162" d="M249.666,337.143c0,.062,14.2.113,31.711.113s31.715-.051,31.715-.113-14.2-.113-31.715-.113-31.711.05-31.711.113" transform="translate(-37.346 -50.414)" fill="#e0e0e0"/>
        <path id="Trazado_693163" data-name="Trazado 693163" d="M249.666,342.19c0,.062,14.2.113,31.711.113s31.715-.051,31.715-.113-14.2-.113-31.715-.113-31.711.05-31.711.113" transform="translate(-37.346 -51.169)" fill="#e0e0e0"/>
        <path id="Trazado_693164" data-name="Trazado 693164" d="M313.092,347.236c0-.063-14.2-.113-31.711-.113s-31.715.05-31.715.113,14.2.113,31.715.113,31.711-.05,31.711-.113" transform="translate(-37.346 -51.924)" fill="#e0e0e0"/>
        <path id="Trazado_693165" data-name="Trazado 693165" d="M309.459,347.487c.063,0,.113-7.081.113-15.815s-.05-15.817-.113-15.817-.113,7.08-.113,15.817.05,15.815.113,15.815" transform="translate(-46.273 -47.247)" fill="#e0e0e0"/>
        <path id="Trazado_693166" data-name="Trazado 693166" d="M294.506,347.487c.062,0,.113-7.081.113-15.815s-.051-15.817-.113-15.817-.113,7.08-.113,15.817.051,15.815.113,15.815" transform="translate(-44.036 -47.247)" fill="#e0e0e0"/>
        <path id="Trazado_693167" data-name="Trazado 693167" d="M279.552,347.487c.063,0,.113-7.081.113-15.815s-.05-15.817-.113-15.817-.113,7.08-.113,15.817.051,15.815.113,15.815" transform="translate(-41.8 -47.247)" fill="#e0e0e0"/>
        <path id="Trazado_693168" data-name="Trazado 693168" d="M264.6,347.487c.063,0,.113-7.081.113-15.815s-.05-15.817-.113-15.817-.113,7.08-.113,15.817.051,15.815.113,15.815" transform="translate(-39.563 -47.247)" fill="#e0e0e0"/>
        <path id="Trazado_693169" data-name="Trazado 693169" d="M249.646,347.487c.063,0,.113-7.081.113-15.815s-.05-15.817-.113-15.817-.113,7.08-.113,15.817.05,15.815.113,15.815" transform="translate(-37.326 -47.247)" fill="#e0e0e0"/>
        <path id="Trazado_693170" data-name="Trazado 693170" d="M249.666,322.023a3.348,3.348,0,0,0,.478.372l1.423,1.007,5.324,3.675c4.533,3.107,10.875,7.422,18.084,12.3l.091.062.105-.036,5.4-1.821,7.314-2.473-.194-.026,12.743,8.545.019.013.02.007,9.2,3.181,2.526.845.663.208a.9.9,0,0,0,.232.055.811.811,0,0,0-.214-.1l-.646-.256-2.494-.935-9.146-3.324.039.02-12.69-8.622-.091-.061-.1.035-7.317,2.464-5.4,1.826.2.026c-7.218-4.862-13.592-9.131-18.169-12.172l-5.4-3.563c-.63-.406-1.122-.722-1.466-.942a3.27,3.27,0,0,0-.524-.3" transform="translate(-37.346 -48.169)" fill="#e8505b"/>
        <path id="Trazado_693171" data-name="Trazado 693171" d="M308.569,347.12a.774.774,0,1,0,.774-.774.774.774,0,0,0-.774.774" transform="translate(-46.157 -51.808)" fill="#e8505b"/>
        <path id="Trazado_693172" data-name="Trazado 693172" d="M293.616,337.027a.774.774,0,1,0,.773-.774.773.773,0,0,0-.773.774" transform="translate(-43.92 -50.298)" fill="#e8505b"/>
        <path id="Trazado_693173" data-name="Trazado 693173" d="M278.662,341.987a.774.774,0,1,0,.774-.774.774.774,0,0,0-.774.774" transform="translate(-41.683 -51.04)" fill="#e8505b"/>
        <path id="Trazado_693174" data-name="Trazado 693174" d="M263.557,332.024a.774.774,0,1,0,.774-.774.774.774,0,0,0-.774.774" transform="translate(-39.424 -49.55)" fill="#e8505b"/>
        <path id="Trazado_693175" data-name="Trazado 693175" d="M249.666,344.177a1.088,1.088,0,0,0,.241-.13l.678-.423,2.569-1.661,9.326-6.144h-.194l12.692,8.539.173.116.124-.168,6.687-9.014,6.03-8.152-.332.023L300.414,340l.029.029.037.012,9.452,3.069,2.58.812.675.2a.914.914,0,0,0,.235.053.9.9,0,0,0-.219-.1l-.661-.245-2.552-.9-9.4-3.209.066.041-12.679-12.913-.179-.183-.153.206-6.041,8.144-6.674,9.025.3-.052-12.741-8.467-.1-.065-.1.065-9.241,6.271-2.517,1.739-.65.465a1.086,1.086,0,0,0-.212.173" transform="translate(-37.346 -48.865)" fill="#455a64"/>
        <path id="Trazado_693176" data-name="Trazado 693176" d="M293.616,326.933a.774.774,0,1,0,.773-.774.773.773,0,0,0-.773.774" transform="translate(-43.92 -48.788)" fill="#455a64"/>
        <path id="Trazado_693177" data-name="Trazado 693177" d="M308.569,342.074a.774.774,0,1,0,.774-.774.774.774,0,0,0-.774.774" transform="translate(-46.157 -51.053)" fill="#455a64"/>
        <path id="Trazado_693178" data-name="Trazado 693178" d="M278.662,347.12a.774.774,0,1,0,.774-.774.774.774,0,0,0-.774.774" transform="translate(-41.683 -51.808)" fill="#455a64"/>
        <path id="Trazado_693179" data-name="Trazado 693179" d="M263.709,337.937a.774.774,0,1,0,.774-.774.774.774,0,0,0-.774.774" transform="translate(-39.447 -50.434)" fill="#455a64"/>
        <path id="Trazado_693180" data-name="Trazado 693180" d="M315.723,356.65a6.682,6.682,0,0,0,2.448,0,6.678,6.678,0,0,0-2.448,0" transform="translate(-47.227 -53.332)" fill="#e0e0e0"/>
        <path id="Trazado_693181" data-name="Trazado 693181" d="M300.439,356.65a6.686,6.686,0,0,0,2.449,0,6.683,6.683,0,0,0-2.449,0" transform="translate(-44.941 -53.332)" fill="#e0e0e0"/>
        <path id="Trazado_693182" data-name="Trazado 693182" d="M285.155,356.65a6.686,6.686,0,0,0,2.449,0,6.683,6.683,0,0,0-2.449,0" transform="translate(-42.655 -53.332)" fill="#e0e0e0"/>
        <path id="Trazado_693183" data-name="Trazado 693183" d="M269.871,356.65a6.682,6.682,0,0,0,2.448,0,6.678,6.678,0,0,0-2.448,0" transform="translate(-40.368 -53.332)" fill="#e0e0e0"/>
        <path id="Trazado_693184" data-name="Trazado 693184" d="M254.588,356.65a6.686,6.686,0,0,0,2.449,0,6.683,6.683,0,0,0-2.449,0" transform="translate(-38.082 -53.332)" fill="#e0e0e0"/>
        <path id="Trazado_693185" data-name="Trazado 693185" d="M326.355,352.269a4.379,4.379,0,0,0,1.978,0,4.381,4.381,0,0,0-1.978,0" transform="translate(-48.817 -52.677)" fill="#e0e0e0"/>
        <path id="Trazado_693186" data-name="Trazado 693186" d="M326.355,346.4a4.38,4.38,0,0,0,1.978,0,4.38,4.38,0,0,0-1.978,0" transform="translate(-48.817 -51.799)" fill="#e0e0e0"/>
        <path id="Trazado_693187" data-name="Trazado 693187" d="M326.355,340.53a4.381,4.381,0,0,0,1.978,0,4.38,4.38,0,0,0-1.978,0" transform="translate(-48.817 -50.921)" fill="#e0e0e0"/>
        <path id="Trazado_693188" data-name="Trazado 693188" d="M326.355,334.66a4.381,4.381,0,0,0,1.978,0,4.38,4.38,0,0,0-1.978,0" transform="translate(-48.817 -50.043)" fill="#e0e0e0"/>
        <path id="Trazado_693189" data-name="Trazado 693189" d="M326.355,328.79a4.38,4.38,0,0,0,1.978,0,4.382,4.382,0,0,0-1.978,0" transform="translate(-48.817 -49.165)" fill="#e0e0e0"/>
        <path id="Trazado_693190" data-name="Trazado 693190" d="M326.355,322.92a4.381,4.381,0,0,0,1.978,0,4.38,4.38,0,0,0-1.978,0" transform="translate(-48.817 -48.287)" fill="#e0e0e0"/>
        <path id="Trazado_693191" data-name="Trazado 693191" d="M326.355,317.05a4.381,4.381,0,0,0,1.978,0,4.382,4.382,0,0,0-1.978,0" transform="translate(-48.817 -47.409)" fill="#e0e0e0"/>
        <rect id="Rectángulo_344247" data-name="Rectángulo 344247" width="18.221" height="1.293" transform="translate(257.855 257.813)" fill="#e8505b"/>
        <path id="Trazado_693192" data-name="Trazado 693192" d="M264.943,307.578c0,.063,11.393.113,25.444.113s25.446-.05,25.446-.113-11.39-.113-25.446-.113-25.444.051-25.444.113" transform="translate(-39.631 -45.992)" fill="#263238"/>
        <path id="Trazado_693193" data-name="Trazado 693193" d="M286.812,363.976c0,.062,6.946.113,15.513.113s15.516-.051,15.516-.113-6.945-.113-15.516-.113-15.513.05-15.513.113" transform="translate(-42.902 -54.428)" fill="#263238"/>
        <path id="Trazado_693194" data-name="Trazado 693194" d="M314.542,366.733a48.487,48.487,0,0,0,6.62,0,48.487,48.487,0,0,0-6.62,0" transform="translate(-47.05 -54.84)" fill="#263238"/>
        <path id="Trazado_693195" data-name="Trazado 693195" d="M253.731,363.49c0,.063,4.94.113,11.032.113s11.033-.05,11.033-.113-4.939-.113-11.033-.113-11.032.05-11.032.113" transform="translate(-37.954 -54.355)" fill="#263238"/>
        <path id="Trazado_693196" data-name="Trazado 693196" d="M267.839,365.273a52.6,52.6,0,0,0,6.9,0,52.6,52.6,0,0,0-6.9,0" transform="translate(-40.064 -54.622)" fill="#263238"/>
        <rect id="Rectángulo_344248" data-name="Rectángulo 344248" width="91.029" height="34.514" transform="translate(62.738 321.226)" fill="#263238"/>
        <path id="Trazado_693197" data-name="Trazado 693197" d="M249.719,223.039s-3.233-2.952-4.217-6.325a15.477,15.477,0,0,0-4.5-6.605c-.563-.422-2.811-2.952-2.811-2.952s-.281-2.53,2.951-2.249a13.351,13.351,0,0,1,8.574,4.076c2.249,2.389,3.513.984,5.06.14s6.183-2.39,7.027-5.2,5.341-11.384,5.341-11.384,4.637-7.871,6.042-7.59,2.216,1.221,1.654,3.189S269.956,201.4,270.8,202.8s1.687,1.124,2.389.422,12.583-14.693,15.11-14.536c2.651.165,2.458,2.309,1.193,4s-11.525,14.335-11.525,14.335l6.465-4.5s6.758-6.2,8.255-5.931c2.212.395,1.263,3.632-.665,5.79-1.8,2.016-6.606,7.308-6.606,7.308l-4.637,6.043s11.134-4.814,11.827-3.69.854,2.811,0,3.514-10.561,6.079-10.561,6.079l-11.666,12.79Z" transform="translate(-35.629 -27.665)" fill="#ffbe9d"/>
        <path id="Trazado_693198" data-name="Trazado 693198" d="M86.939,162.992l40.677-.523,1.259-34.747s2.783-.594,2.97-15.679.879-40.715.879-40.715a52.429,52.429,0,0,0-52.679,6.622l-2.235,1.721,9.13,51.042Z" transform="translate(-11.639 -10.032)" fill="#ffbe9d"/>
        <path id="Trazado_693199" data-name="Trazado 693199" d="M81.6,103.62c-.257-.111-10.365-3.066-10.035,7.247s10.615,7.855,10.623,7.559S81.6,103.62,81.6,103.62" transform="translate(-10.704 -15.429)" fill="#ffbe9d"/>
        <path id="Trazado_693200" data-name="Trazado 693200" d="M140.059,101.112c.257-.111,9.451-2.59,9.121,7.723s-10.615,7.854-10.623,7.559,1.5-15.281,1.5-15.281" transform="translate(-20.726 -15.074)" fill="#ffbe9d"/>
        <path id="Trazado_693201" data-name="Trazado 693201" d="M142.019,63.9a5.566,5.566,0,0,0-2.056-4.975,3.95,3.95,0,0,0-5.118.383,4.609,4.609,0,0,0-3.962-5.59c-2.46-.156-4.558,1.7-6.936,2.354a11.2,11.2,0,0,1-7.043-.813c-2.231-.9-4.318-2.14-6.579-2.965A19.291,19.291,0,0,0,85.654,63.617c-3.3-1.031-7.047.645-9.082,3.439a14.045,14.045,0,0,0-2.152,9.9,31.4,31.4,0,0,0,1.725,6.768c0,.194-.02.384-.016.579.156,8.295,4.481,34.508,8.019,34.562,6.168.094,1.311-28,1.311-28C93.03,87.94,90.21,76.6,92.1,74.878s5.853-5.719,21.7,2.381c6.154,3.146,14.336,3.047,18.8,2.034.131-.029.264-.048.395-.081.027-.007.064-.011.091-.019.049-.012.083-.039.131-.053a14.274,14.274,0,0,0,4.065-1.724,8.03,8.03,0,0,0,3.349-3.724,4.4,4.4,0,0,0-.864-4.722,9.671,9.671,0,0,0,2.247-5.074" transform="translate(-11.113 -7.649)" fill="#263238"/>
        <path id="Trazado_693202" data-name="Trazado 693202" d="M79.436,96.832c1.541,8.641,1.237,13.182,2.663,18.953,2.256,9.134,6.791,16.137,15.02,20.7s19.359,4.479,26.427-1.731c4.9-4.31,8.381-9.179,9.108-15.666s1.457-17.978,1.5-24.506c.083-11.774.872-23.031.872-23.031l-33.639-6.087L82.247,76.845Z" transform="translate(-11.882 -9.792)" fill="#263238"/>
        <path id="Trazado_693203" data-name="Trazado 693203" d="M118.209,154.868c.051.239-2.6.895-5.894.52-3.3-.354-5.742-1.57-5.64-1.792.1-.259,2.585.52,5.743.856,3.154.361,5.753.142,5.791.416" transform="translate(-15.956 -22.968)" fill="#263238"/>
        <path id="Trazado_693204" data-name="Trazado 693204" d="M124.759,62.254a4.827,4.827,0,0,1-1.6.294,9.355,9.355,0,0,1-4.306-1,31.308,31.308,0,0,1-5.45-3.656,14.726,14.726,0,0,0-7.107-3.277,12.754,12.754,0,0,0-7.659,1.338,12.535,12.535,0,0,0-4.668,4.37,14.313,14.313,0,0,0-2,5.6,8.1,8.1,0,0,1,.164-1.616,12.739,12.739,0,0,1,6.337-8.661,12.964,12.964,0,0,1,7.875-1.406,14.9,14.9,0,0,1,7.265,3.372A32.6,32.6,0,0,0,118.97,61.3a9.624,9.624,0,0,0,4.188,1.1,14.14,14.14,0,0,0,1.6-.148" transform="translate(-13.757 -8.096)" fill="#fff"/>
        <path id="Trazado_693205" data-name="Trazado 693205" d="M90.371,68.427a13.318,13.318,0,0,0-2.417-.9,7.737,7.737,0,0,0-9.424,5.844,13.369,13.369,0,0,0-.264,2.567,2.173,2.173,0,0,1-.123-.7,6.956,6.956,0,0,1,.127-1.929,7.761,7.761,0,0,1,9.748-6.045,6.948,6.948,0,0,1,1.784.743,2.152,2.152,0,0,1,.569.42" transform="translate(-11.686 -10.021)" fill="#455a64"/>
        <path id="Trazado_693206" data-name="Trazado 693206" d="M90.507,110c-.239.1-1.5-2.263-2.821-5.286s-2.2-5.56-1.958-5.665,1.5,2.263,2.822,5.287,2.195,5.56,1.957,5.664" transform="translate(-12.818 -14.815)" fill="#455a64"/>
        <path id="Trazado_693207" data-name="Trazado 693207" d="M100.444,116.948c-.136.2-2.7-1.577-4.764-4.756-2.084-3.167-2.675-6.231-2.439-6.275.268-.083,1.234,2.737,3.228,5.76,1.965,3.041,4.159,5.059,3.975,5.272" transform="translate(-13.94 -15.843)" fill="#455a64"/>
        <path id="Trazado_693208" data-name="Trazado 693208" d="M110.708,120.049c-.133.215-2.049-.752-4.026-2.482s-3.2-3.493-3.006-3.653,1.7,1.271,3.625,2.942,3.551,2.967,3.407,3.192" transform="translate(-15.505 -17.038)" fill="#455a64"/>
        <path id="Trazado_693209" data-name="Trazado 693209" d="M129.316,104.695c.245.012.222,2.429-.91,5.137-1.116,2.717-2.809,4.442-2.99,4.277-.217-.169,1.066-2.063,2.119-4.637,1.076-2.563,1.508-4.81,1.781-4.777" transform="translate(-18.757 -15.661)" fill="#455a64"/>
        <path id="Trazado_693210" data-name="Trazado 693210" d="M135.474,95.115c.241-.019.489,2.915-.594,6.322-1.059,3.415-2.94,5.68-3.126,5.528-.233-.155,1.221-2.553,2.227-5.81,1.036-3.246,1.214-6.046,1.493-6.04" transform="translate(-19.705 -14.228)" fill="#455a64"/>
        <path id="Trazado_693211" data-name="Trazado 693211" d="M133.886,69.469a6.165,6.165,0,0,1-1.346,1.043,10.22,10.22,0,0,1-4.428,1.363,15.453,15.453,0,0,1-6.794-1.043,54.855,54.855,0,0,1-7.538-3.759,31.828,31.828,0,0,0-7.654-3.3,12.518,12.518,0,0,0-6.7.032A9.185,9.185,0,0,0,95.5,66.056c-.764.77-1.056,1.31-1.093,1.285a5.559,5.559,0,0,1,.987-1.387,9.009,9.009,0,0,1,3.956-2.4,12.62,12.62,0,0,1,6.859-.115,31.349,31.349,0,0,1,7.754,3.306,57.167,57.167,0,0,0,7.477,3.763,15.479,15.479,0,0,0,6.652,1.1,10.433,10.433,0,0,0,5.8-2.141" transform="translate(-14.121 -9.427)" fill="#455a64"/>
        <path id="Trazado_693212" data-name="Trazado 693212" d="M141.524,76.352a2.206,2.206,0,0,1-.546.364,13.7,13.7,0,0,1-1.6.79,19.349,19.349,0,0,1-11.6,1.06,13.648,13.648,0,0,1-1.72-.486,2.2,2.2,0,0,1-.6-.259c.02-.063.907.22,2.376.484a21.665,21.665,0,0,0,11.45-1.047c1.4-.525,2.217-.964,2.249-.906" transform="translate(-18.765 -11.42)" fill="#455a64"/>
        <path id="Trazado_693213" data-name="Trazado 693213" d="M31.388,185.969s8.877,41.281,14.423,58.384c7.88,24.3,16.575,46.449,16.575,46.449s-5.986,54.091-9.2,73.843l-3.037,16.933H78.376l6.751-28.222,3.545,28.222,82.2-.225L160.418,287.99l-2.255-38.921,4.932-63.1-39.623-15.4-47.707-1.528Z" transform="translate(-4.695 -25.286)" fill="#ed9aa9"/>
        <path id="Trazado_693214" data-name="Trazado 693214" d="M14.426,304.354A39.676,39.676,0,0,1,9.58,280.348c1.762-13.436,12.334-66.735,12.334-66.735l6.166-24.667,23.787,54.18L47.9,289.378l11.541,5.982L55.7,323.143s-38.77-13.451-41.277-18.789" transform="translate(-1.388 -28.263)" fill="#ed9aa9"/>
        <path id="Trazado_693215" data-name="Trazado 693215" d="M160.346,236.029c.93,1.288,41.85,58.821,53.387,65.239,10.412,5.793,20.552,4.311,23.636-.094s21.993-62.455,21.993-62.455-7.017-16.6-21.993-14.833l-14.542,29.789s-17.2-25.765-19.407-31.813-20.587-33.709-21.143-32.919c-2.168,3.077-27.216,39.769-21.93,47.087" transform="translate(-23.876 -28.26)" fill="#ed9aa9"/>
        <path id="Trazado_693216" data-name="Trazado 693216" d="M83.571,168.467l3.811-9.843s41,1.143,41.682,1.374l2.879,9.271-28.293,3.522Z" transform="translate(-12.501 -23.728)" fill="#e8505b"/>
        <path id="Trazado_693217" data-name="Trazado 693217" d="M88.051,158.3l.42-1.851L129.4,158.3l.33,1.374Z" transform="translate(-13.171 -23.402)" fill="#f5f5f5"/>
        <g id="Grupo_896008" data-name="Grupo 896008" transform="translate(26.89 179.758)" opacity="0.3">
          <g id="Grupo_896007" data-name="Grupo 896007">
            <g id="Grupo_896006" data-name="Grupo 896006" clip-path="url(#clip-path-11)">
              <path id="Trazado_693218" data-name="Trazado 693218" d="M53.038,271.819c-9.728-17.8-16.157-40.726-20.94-60.442-1.147,18.52-.524,39.85,5.159,57.514,1.929,5.994,8.457,15.438,14.585,16.891.281.2.673-9.2,1.2-13.963" transform="translate(-31.62 -211.377)"/>
            </g>
          </g>
        </g>
        <path id="Trazado_693219" data-name="Trazado 693219" d="M57.725,336.242a.782.782,0,0,1,0-.19c.011-.143.026-.325.044-.555q.073-.769.2-2.158c.2-1.908.478-4.659.833-8.127.747-6.991,1.8-16.871,3.046-28.526l.01.089c-2.8-7.887-6.141-16.632-9.686-25.831-3.346-8.68-6.528-16.955-9.256-24.542s-5.033-14.477-6.782-20.319c-3.558-11.672-4.979-19.094-4.979-19.094a2.014,2.014,0,0,1,.1.333c.064.242.15.57.26.987.225.893.547,2.171.958,3.806.421,1.651.991,3.657,1.617,5.994.683,2.322,1.419,4.978,2.34,7.882,1.786,5.825,4.108,12.7,6.866,20.271s5.939,15.842,9.285,24.523c3.546,9.2,6.877,17.954,9.655,25.854l.015.044-.005.046c-1.31,11.649-2.42,21.522-3.206,28.509-.4,3.463-.725,6.209-.947,8.114q-.172,1.384-.268,2.151c-.031.23-.057.41-.077.552a.809.809,0,0,1-.037.186" transform="translate(-4.662 -30.963)" fill="#263238"/>
        <path id="Trazado_693220" data-name="Trazado 693220" d="M178.237,259.063c-.006,0-.052-.043-.135-.142l-.362-.444c-.307-.4-.787-.967-1.342-1.746a66.711,66.711,0,0,1-4.4-6.8,61.351,61.351,0,0,1-4.905-10.973,52.385,52.385,0,0,1-2.681-14.463,44.816,44.816,0,0,1,1.944-14.576,39.98,39.98,0,0,1,5.186-10.833,33.936,33.936,0,0,1,5.306-6.123c.686-.668,1.307-1.089,1.69-1.415l.453-.35c.1-.077.158-.114.163-.107s-.042.054-.136.143l-.424.384c-.364.348-.964.787-1.629,1.472a36,36,0,0,0-5.164,6.171,40.543,40.543,0,0,0-5.055,10.78,45.068,45.068,0,0,0-1.892,14.44,52.889,52.889,0,0,0,2.627,14.351,63.187,63.187,0,0,0,4.79,10.947,75.859,75.859,0,0,0,4.27,6.854c.533.793.99,1.377,1.274,1.792l.327.471a.661.661,0,0,1,.1.169" transform="translate(-24.589 -28.584)" fill="#263238"/>
        <g id="Grupo_896011" data-name="Grupo 896011" transform="translate(140.19 197.472)" opacity="0.3">
          <g id="Grupo_896010" data-name="Grupo 896010">
            <g id="Grupo_896009" data-name="Grupo 896009" clip-path="url(#clip-path-12)">
              <path id="Trazado_693221" data-name="Trazado 693221" d="M164.849,232.206c2.4,22.111,6.872,44.1,15.548,64.572l-2.023-30.528a99.027,99.027,0,0,1-13.525-34.044" transform="translate(-164.849 -232.206)"/>
            </g>
          </g>
        </g>
        <g id="Grupo_896014" data-name="Grupo 896014" transform="translate(66.394 242.336)" opacity="0.3">
          <g id="Grupo_896013" data-name="Grupo 896013">
            <g id="Grupo_896012" data-name="Grupo 896012" clip-path="url(#clip-path-13)">
              <path id="Trazado_693222" data-name="Trazado 693222" d="M78.073,284.962a156.25,156.25,0,0,0,54.465,51.17" transform="translate(-78.073 -284.962)"/>
            </g>
          </g>
        </g>
        <path id="Trazado_693223" data-name="Trazado 693223" d="M52.016,305.812c-.026.081-.957-.253-2.516-.446a14.917,14.917,0,0,0-2.747-.073,15.154,15.154,0,0,0-6.4,1.9,14.984,14.984,0,0,0-2.261,1.561c-1.2,1.012-1.8,1.8-1.864,1.747-.025-.019.11-.225.377-.585a5.237,5.237,0,0,1,.52-.628,8.88,8.88,0,0,1,.76-.77,13.268,13.268,0,0,1,2.266-1.679,14.269,14.269,0,0,1,6.578-1.953,13.277,13.277,0,0,1,2.814.171,8.712,8.712,0,0,1,1.058.23,5.23,5.23,0,0,1,.779.241,2.1,2.1,0,0,1,.634.285" transform="translate(-5.419 -45.604)" fill="#263238"/>
        <path id="Trazado_693224" data-name="Trazado 693224" d="M240.767,282.769a25.2,25.2,0,0,1-.758-2.859c-.441-1.769-1.1-4.2-1.96-6.842s-1.774-4.99-2.464-6.678a25.057,25.057,0,0,1-1.079-2.753,2.791,2.791,0,0,1,.415.681c.242.451.569,1.116.952,1.947a64.634,64.634,0,0,1,4.442,13.574c.184.9.313,1.626.384,2.134a2.783,2.783,0,0,1,.069.8" transform="translate(-35.078 -39.436)" fill="#263238"/>
        <path id="Trazado_693225" data-name="Trazado 693225" d="M236.62,293.494a5.494,5.494,0,0,1-.331-1.08c-.187-.7-.425-1.724-.691-2.994a94.116,94.116,0,0,1-1.926-20.163c.02-1.3.06-2.347.111-3.072a5.541,5.541,0,0,1,.12-1.123,5.542,5.542,0,0,1,.053,1.128c.008.812.017,1.839.029,3.067.037,2.588.173,6.161.548,10.092s.92,7.463,1.373,10.011c.221,1.207.406,2.218.552,3.016a5.547,5.547,0,0,1,.162,1.117" transform="translate(-34.952 -39.649)" fill="#263238"/>
        <path id="Trazado_693226" data-name="Trazado 693226" d="M139.658,338.829a.792.792,0,0,1-.217-.053l-.622-.2c-.542-.188-1.358-.422-2.374-.821a71.893,71.893,0,0,1-8.428-3.775,88.543,88.543,0,0,1-11.593-7.295,116.829,116.829,0,0,1-12.706-10.947A213.278,213.278,0,0,1,83.994,292.55c-2.339-3.117-4.2-5.665-5.472-7.431l-1.458-2.041-.37-.537a.864.864,0,0,1-.114-.192c.006-.005.057.051.151.165l.4.511,1.526,1.992,5.582,7.343a228.43,228.43,0,0,0,19.786,23.069,120.123,120.123,0,0,0,12.638,10.934,91.715,91.715,0,0,0,11.5,7.346,79.743,79.743,0,0,0,8.343,3.891c1,.423,1.809.682,2.34.9l.608.237a.882.882,0,0,1,.2.1" transform="translate(-11.455 -42.235)" fill="#263238"/>
        <g id="Grupo_896017" data-name="Grupo 896017" transform="translate(29.226 259.695)" opacity="0.3">
          <g id="Grupo_896016" data-name="Grupo 896016">
            <g id="Grupo_896015" data-name="Grupo 896015" clip-path="url(#clip-path-14)">
              <path id="Trazado_693227" data-name="Trazado 693227" d="M51.724,306c-4.708-1.646-11.157.091-14.947,3.694a8.039,8.039,0,0,0-2.129,3.016,4.151,4.151,0,0,0,.265,3.587,4.307,4.307,0,0,0,5,1.384,9.226,9.226,0,0,0,4.2-3.575,47.7,47.7,0,0,1,3.246-4.56,6.709,6.709,0,0,1,4.845-2.462l-.549-.289Z" transform="translate(-34.367 -305.374)"/>
            </g>
          </g>
        </g>
        <g id="Grupo_896020" data-name="Grupo 896020" transform="translate(51.683 264.526)" opacity="0.3">
          <g id="Grupo_896019" data-name="Grupo 896019">
            <g id="Grupo_896018" data-name="Grupo 896018" clip-path="url(#clip-path-15)">
              <path id="Trazado_693228" data-name="Trazado 693228" d="M62.189,311.055l-1.415,29.424,2.631.93,2.978-28.179Z" transform="translate(-60.774 -311.055)"/>
            </g>
          </g>
        </g>
        <g id="Grupo_896023" data-name="Grupo 896023" transform="translate(198.775 225.419)" opacity="0.3">
          <g id="Grupo_896022" data-name="Grupo 896022">
            <g id="Grupo_896021" data-name="Grupo 896021" clip-path="url(#clip-path-16)">
              <path id="Trazado_693229" data-name="Trazado 693229" d="M234.024,265.069a118.432,118.432,0,0,0,3.214,30.628c.324,1.352,1.252,3.056,2.581,2.649,1.238-.379,1.2-2.128.9-3.388l-2.9-12.374q-2.041-8.693-4.08-17.388" transform="translate(-233.738 -265.069)"/>
            </g>
          </g>
        </g>
        <path id="Trazado_693230" data-name="Trazado 693230" d="M251.045,229.463l1.123-2.479s9.653-2.885,15.831,2.479,6.812,9.918,6.812,9.918l-2.226,3.96s-6.755-14.079-21.539-13.877" transform="translate(-37.552 -33.837)" fill="#fafafa"/>
        <path id="Trazado_693231" data-name="Trazado 693231" d="M130.38,170.34a2.015,2.015,0,0,1-.476.1l-1.378.19c-1.2.162-2.934.346-5.085.528a151.976,151.976,0,0,1-33.672-.967c-2.137-.3-3.862-.588-5.046-.818l-1.364-.27a1.962,1.962,0,0,1-.47-.124,2.106,2.106,0,0,1,.486.036l1.376.188c1.193.178,2.922.413,5.06.678,4.277.533,10.208,1.094,16.783,1.287s12.526-.034,16.825-.321c2.15-.142,3.89-.278,5.091-.387l1.385-.108a2.024,2.024,0,0,1,.486-.008" transform="translate(-12.399 -25.275)" fill="#263238"/>
        <path id="Trazado_693232" data-name="Trazado 693232" d="M90.915,368.73c.121-.019,1.71,9.529,3.549,21.323s3.232,21.374,3.112,21.394-1.709-9.527-3.549-21.326-3.232-21.373-3.112-21.391" transform="translate(-13.598 -55.156)" fill="#263238"/>
        <path id="Trazado_693233" data-name="Trazado 693233" d="M394.693,419c0,.122-88.362.221-197.336.221C88.343,419.219,0,419.121,0,419s88.343-.221,197.356-.221c108.975,0,197.336.1,197.336.221" transform="translate(0 -62.642)" fill="#263238"/>
        <path id="Trazado_693234" data-name="Trazado 693234" d="M170.363,117.127l8.78-15.473a41.463,41.463,0,1,1,9.93,11.045l.014.019Z" transform="translate(-25.484 -5.772)" fill="#fff"/>
        <path id="Trazado_693235" data-name="Trazado 693235" d="M170.363,117.1l18.7-4.517-.062.174-.014-.019-.513-.665.668.511a42.378,42.378,0,0,0,8.485,5.057,41.364,41.364,0,0,0,11.279,3.174,37.061,37.061,0,0,0,6.5.308c1.118-.067,2.256-.1,3.4-.2l3.466-.534A41.424,41.424,0,0,0,247.865,103.9a40.876,40.876,0,0,0,6.9-15.83,41.789,41.789,0,0,0-.5-18.213A40.4,40.4,0,0,0,245.5,53.022l-1.672-1.839c-.549-.618-1.205-1.128-1.8-1.7-.624-.537-1.185-1.145-1.856-1.618L238.2,46.4a17.2,17.2,0,0,0-2.033-1.345l-2.076-1.262-2.174-1.056a18.958,18.958,0,0,0-2.194-.977,41.825,41.825,0,0,0-18.35-2.832,40.445,40.445,0,0,0-16.856,4.96A41.666,41.666,0,0,0,175.013,67.8a44.507,44.507,0,0,0-1.825,13.347,41.034,41.034,0,0,0,1.966,11.549,41.958,41.958,0,0,0,4.079,8.877l.032.054-.031.054L170.363,117.1c.37-.662,3.118-5.573,8.688-15.526l0,.108a41.958,41.958,0,0,1-4.147-8.907,41.154,41.154,0,0,1-2.023-11.62,44.74,44.74,0,0,1,1.8-13.458A41.986,41.986,0,0,1,194.324,43.53,40.812,40.812,0,0,1,211.346,38.5a42.2,42.2,0,0,1,18.544,2.851,19.288,19.288,0,0,1,2.218.986l2.2,1.067,2.1,1.275a17.469,17.469,0,0,1,2.055,1.36l1.986,1.484c.677.48,1.245,1.094,1.875,1.636.6.573,1.265,1.089,1.82,1.714l1.69,1.859A40.824,40.824,0,0,1,254.7,69.746a42.185,42.185,0,0,1,.489,18.4,41.268,41.268,0,0,1-6.99,15.984,41.75,41.75,0,0,1-25.853,16.6l-3.5.529c-1.157.1-2.3.124-3.431.189a37.249,37.249,0,0,1-6.552-.33,41.53,41.53,0,0,1-11.347-3.237,42.368,42.368,0,0,1-8.512-5.128l.155-.154.014.018.1.137-.167.037-18.749,4.3" transform="translate(-25.484 -5.743)" fill="#263238"/>
        <path id="Trazado_693236" data-name="Trazado 693236" d="M207.55,85.879a3.422,3.422,0,1,1-3.423-3.423,3.423,3.423,0,0,1,3.423,3.423" transform="translate(-30.022 -12.334)" fill="#263238"/>
        <path id="Trazado_693237" data-name="Trazado 693237" d="M223.656,85.879a3.423,3.423,0,1,1-3.423-3.423,3.423,3.423,0,0,1,3.423,3.423" transform="translate(-32.431 -12.334)" fill="#263238"/>
        <path id="Trazado_693238" data-name="Trazado 693238" d="M239.8,84.168a3.423,3.423,0,1,1-4.676-1.253,3.423,3.423,0,0,1,4.676,1.253" transform="translate(-34.915 -12.334)" fill="#263238"/>
      </g>
    </g>
  </g>
</svg>
