<svg xmlns="http://www.w3.org/2000/svg" width="77.429" height="80.906" viewBox="0 0 77.429 80.906">
  <g id="lenguaje-de-senas" transform="translate(-11)">
    <path id="Trazado_690669" data-name="Trazado 690669" d="M49.715,22A38.718,38.718,0,0,0,30.343,94.24l.158-.091V73.84H21.61a.632.632,0,0,1-.592-.853l5.47-14.678a7.621,7.621,0,0,1,7.11-4.938H65.831a7.621,7.621,0,0,1,7.11,4.938l5.47,14.678a.632.632,0,0,1-.592.853H75.414V89.456l.158.07A38.713,38.713,0,0,0,49.715,22Z" transform="translate(0 -18.524)" fill="#ffdc83"/>
    <g id="Grupo_895340" data-name="Grupo 895340" transform="translate(20.819 0)">
      <path id="Trazado_690670" data-name="Trazado 690670" d="M377.98,350.062v20.45a38.851,38.851,0,0,0,6.582-4.764V350.062Z" transform="translate(-329.809 -294.746)" fill="#ffbd86"/>
      <path id="Trazado_690671" data-name="Trazado 690671" d="M130.88,239.246l-5.47-14.678a7.746,7.746,0,0,0-7.259-5.041H85.919a7.746,7.746,0,0,0-7.259,5.041l-5.47,14.678a.79.79,0,0,0,.74,1.066h8.733v20.242a38.751,38.751,0,0,0,38.8-.036V240.312h8.671A.79.79,0,0,0,130.88,239.246Z" transform="translate(-73.139 -184.838)" fill="#af66da"/>
      <path id="Trazado_690672" data-name="Trazado 690672" d="M87.959,219.526H85.918a7.746,7.746,0,0,0-7.259,5.041l-5.47,14.678a.79.79,0,0,0,.74,1.066H78.85a.79.79,0,0,1-.74-1.066l5.47-14.678a7.745,7.745,0,0,1,4.379-4.486v-.555Z" transform="translate(-73.139 -184.837)" fill="#9857bd"/>
      <g id="Grupo_895337" data-name="Grupo 895337" transform="translate(12.794)">
        <g id="Grupo_895325" data-name="Grupo 895325" transform="translate(2.026)">
          <g id="Grupo_895321" data-name="Grupo 895321" transform="translate(17.298 1.221)">
            <path id="Trazado_690673" data-name="Trazado 690673" d="M278.952,12.606v2.006a2.745,2.745,0,0,1,1.03-.2,2.658,2.658,0,0,1,.8.122,5.919,5.919,0,0,1,4.164,5.673v3.317h1a4.039,4.039,0,0,1,2.2.647V17.523a9.8,9.8,0,0,0-9.8-9.8h-1.947A5.941,5.941,0,0,1,278.952,12.606Z" transform="translate(-276.394 -7.724)" fill="#883f2e"/>
            <path id="Trazado_690674" data-name="Trazado 690674" d="M290.914,164.231H289.3a9.681,9.681,0,0,1-6.679,5.982v3.752a4.015,4.015,0,0,1-.329,1.595h9.234a1.58,1.58,0,0,0,1.58-1.58v-10.4A4.04,4.04,0,0,1,290.914,164.231Z" transform="translate(-281.363 -138.955)" fill="#883f2e"/>
          </g>
          <g id="Grupo_895323" data-name="Grupo 895323" transform="translate(0 0)">
            <path id="Trazado_690675" data-name="Trazado 690675" d="M169.122,17.018h1v-.377a2.785,2.785,0,0,1,2.782-2.782H179.1a3.089,3.089,0,0,0,2.106-.826l4.721-4.378a2.809,2.809,0,0,1,1.018-.6V6.1a6.1,6.1,0,0,0-6.1-6.1h-4.113a9.8,9.8,0,0,0-9.8,9.8v7.865A4.039,4.039,0,0,1,169.122,17.018Z" transform="translate(-166.927 0)" fill="#a44f3e"/>
            <g id="Grupo_895322" data-name="Grupo 895322" transform="translate(0 25.849)">
              <path id="Trazado_690676" data-name="Trazado 690676" d="M177.412,173.964v-3.753a9.681,9.681,0,0,1-6.679-5.982h-1.61a4.037,4.037,0,0,1-2.2-.647v10.4a1.58,1.58,0,0,0,1.58,1.58h9.234A4.014,4.014,0,0,1,177.412,173.964Z" transform="translate(-166.927 -163.583)" fill="#a44f3e"/>
            </g>
          </g>
          <g id="Grupo_895324" data-name="Grupo 895324">
            <path id="Trazado_690677" data-name="Trazado 690677" d="M169.122,16.86h.844v-.219a2.938,2.938,0,0,1,1.871-2.736V9.8A9.8,9.8,0,0,1,181.2.011C181.077,0,180.959,0,180.839,0h-4.113a9.8,9.8,0,0,0-9.8,9.8v7.676A4.2,4.2,0,0,1,169.122,16.86Z" transform="translate(-166.927 0)" fill="#883f2e"/>
            <path id="Trazado_690678" data-name="Trazado 690678" d="M171.837,174.99v-7.36a9.782,9.782,0,0,1-1.215-2.231h-1.5a4.2,4.2,0,0,1-2.2-.615V174.99a1.58,1.58,0,0,0,1.58,1.58h4.91A1.58,1.58,0,0,1,171.837,174.99Z" transform="translate(-166.927 -138.745)" fill="#883f2e"/>
          </g>
        </g>
        <path id="Trazado_690679" data-name="Trazado 690679" d="M238.157,205.6H234.79a9.619,9.619,0,0,1-2.512-.334v3.794a4.2,4.2,0,1,0,8.391,0v-3.794a9.62,9.62,0,0,1-2.512.334Z" transform="translate(-219.925 -172.83)" fill="#f6a96c"/>
        <path id="Trazado_690680" data-name="Trazado 690680" d="M236.5,209.943v-3.3h-1.71a9.8,9.8,0,0,1-2.512-.326v3.629a4.195,4.195,0,0,0,6.307,3.625,4.193,4.193,0,0,1-2.084-3.625Z" transform="translate(-219.926 -173.713)" fill="#ea9b58"/>
        <g id="Grupo_895326" data-name="Grupo 895326" transform="translate(0 16.86)">
          <path id="Trazado_690681" data-name="Trazado 690681" d="M159.328,112.965V106.7h-1a4.221,4.221,0,0,0-4.221,4.221v1.351a4.221,4.221,0,0,0,4.221,4.221H160A9.586,9.586,0,0,1,159.328,112.965Z" transform="translate(-154.104 -106.696)" fill="#ea9b58"/>
          <path id="Trazado_690682" data-name="Trazado 690682" d="M327.925,106.7h-1v6.269a9.588,9.588,0,0,1-.67,3.525h1.673a4.221,4.221,0,0,0,4.221-4.221v-1.351A4.221,4.221,0,0,0,327.925,106.7Z" transform="translate(-299.049 -106.696)" fill="#f6a96c"/>
        </g>
        <g id="Grupo_895327" data-name="Grupo 895327" transform="translate(5.066 7.748)">
          <path id="Trazado_690683" data-name="Trazado 690683" d="M202.012,49.825a2.912,2.912,0,0,1,2.841-.662,6.105,6.105,0,0,1,4.275,5.824v9.428a9.8,9.8,0,0,1-9.8,9.8h-3.367a9.8,9.8,0,0,1-9.8-9.8V57.926a2.94,2.94,0,0,1,2.94-2.94h6.189a2.94,2.94,0,0,0,2-.784Z" transform="translate(-186.163 -49.034)" fill="#ffbd86"/>
        </g>
        <g id="Grupo_895328" data-name="Grupo 895328" transform="translate(5.066 13.701)">
          <path id="Trazado_690684" data-name="Trazado 690684" d="M191.141,96.065V89.533a2.961,2.961,0,0,1,2.083-2.828H189.1a2.94,2.94,0,0,0-2.94,2.94v6.488a9.8,9.8,0,0,0,9.8,9.8h3.367c.283,0,.562-.015.838-.038A9.866,9.866,0,0,1,191.141,96.065Z" transform="translate(-186.162 -86.705)" fill="#f6a96c"/>
        </g>
        <g id="Grupo_895334" data-name="Grupo 895334" transform="translate(8.404 16.556)">
          <g id="Grupo_895329" data-name="Grupo 895329" transform="translate(5.58 0.679)">
            <path id="Trazado_690685" data-name="Trazado 690685" d="M245.648,115.772a1.185,1.185,0,0,0,.66-2.171l-.923-.617,1.278-2.114a1.185,1.185,0,0,0-2.028-1.227l-1.864,3.083a1.185,1.185,0,0,0,.356,1.6l1.864,1.246A1.18,1.18,0,0,0,245.648,115.772Z" transform="translate(-242.6 -109.073)" fill="#ca6e59"/>
          </g>
          <g id="Grupo_895332" data-name="Grupo 895332">
            <g id="Grupo_895330" data-name="Grupo 895330" transform="translate(12.24)">
              <circle id="Elipse_4761" data-name="Elipse 4761" cx="2.026" cy="2.026" r="2.026" fill="#ca6e59"/>
            </g>
            <g id="Grupo_895331" data-name="Grupo 895331">
              <circle id="Elipse_4762" data-name="Elipse 4762" cx="2.026" cy="2.026" r="2.026" fill="#ca6e59"/>
            </g>
          </g>
          <g id="Grupo_895333" data-name="Grupo 895333" transform="translate(2.908 9.434)">
            <path id="Trazado_690686" data-name="Trazado 690686" d="M230.928,168.52a6.9,6.9,0,0,1-4.891-2.023,1.185,1.185,0,0,1,1.676-1.676,4.551,4.551,0,0,0,6.429,0,1.185,1.185,0,0,1,1.676,1.676A6.9,6.9,0,0,1,230.928,168.52Z" transform="translate(-225.69 -164.474)" fill="#ca6e59"/>
          </g>
        </g>
        <g id="Grupo_895336" data-name="Grupo 895336" transform="translate(18.922 12.958)">
          <g id="Grupo_895335" data-name="Grupo 895335">
            <path id="Trazado_690687" data-name="Trazado 690687" d="M280.267,84.37h-5.232a1.185,1.185,0,0,1,0-2.37h5.232a1.185,1.185,0,0,1,0,2.37Z" transform="translate(-273.85 -82)" fill="#a44f3e"/>
          </g>
        </g>
      </g>
      <g id="Grupo_895338" data-name="Grupo 895338" transform="translate(3.1 45.377)">
        <path id="Trazado_690688" data-name="Trazado 690688" d="M127.878,295.53l-5.246,3.029-.458-.793,7.01-4.047a1.15,1.15,0,0,0,.467-1.523,1.12,1.12,0,0,0-1.546-.44l-7.05,4.071-.458-.793,7.01-4.047a1.15,1.15,0,0,0,.467-1.523,1.119,1.119,0,0,0-1.546-.44l-7.05,4.071-.458-.793,5.247-3.03a1.15,1.15,0,0,0,.467-1.523,1.119,1.119,0,0,0-1.546-.44l-6.781,3.915.5-1.874a1.447,1.447,0,0,0-.938-1.77,1.408,1.408,0,0,0-1.766.984l-1.3,4.843a5.023,5.023,0,0,0-1.556,3.5l-12.17,7.026v-6.678H92.757v11.95a3.873,3.873,0,0,0,5.854,3.328l16.2-9.639a5.012,5.012,0,0,0,4.9-.064l9.331-5.387a1.12,1.12,0,0,0,.35-1.622A1.152,1.152,0,0,0,127.878,295.53Z" transform="translate(-92.757 -287.16)" fill="#ffbd86"/>
      </g>
      <g id="Grupo_895339" data-name="Grupo 895339" transform="translate(3.1 55.475)">
        <path id="Trazado_690689" data-name="Trazado 690689" d="M96.069,363.013v-11.95H92.757v11.95a3.873,3.873,0,0,0,5.529,3.5A3.843,3.843,0,0,1,96.069,363.013Z" transform="translate(-92.757 -351.063)" fill="#f6a96c"/>
      </g>
    </g>
  </g>
</svg>
