<svg xmlns="http://www.w3.org/2000/svg" xmlns:xlink="http://www.w3.org/1999/xlink" width="464" height="367" viewBox="0 0 464 367">
  <defs>
    <clipPath id="clip-path">
      <rect id="Rectángulo_345100" data-name="Rectángulo 345100" width="442.987" height="230.536" transform="translate(0 0)" fill="none"/>
    </clipPath>
  </defs>
  <g id="Grupo_1000161" data-name="Grupo 1000161" transform="translate(-741 12682)">
    <g id="Grupo_1000155" data-name="Grupo 1000155" transform="translate(691 -12613.999)">
      <g id="Grupo_999252" data-name="Grupo 999252" transform="translate(61 -0.001)" clip-path="url(#clip-path)">
        <path id="Trazado_702810" data-name="Trazado 702810" d="M772.3,86.454c-30.767,1.074-60.54-3.886-82.95-23.629-11.3-9.954-87.127-76.293-178.444-26.146-11.95,6.562-43.235,21.928-59.563,59.276-35.021,80.1,2.217,129.921,20.109,136.292,4.479,1.595,343.417,8.921,345.587,8.035,93.88-38.317,46.676-157.02-44.739-153.828" transform="translate(-429.009 -15.618)" fill="#cae7f5"/>
        <path id="Trazado_702820" data-name="Trazado 702820" d="M852,1459.215c-104.183,0-188.64,6.3-188.64,14.08s84.457,14.08,188.64,14.08,188.64-6.3,188.64-14.08-84.457-14.08-188.64-14.08" transform="translate(-624.093 -1256.839)" fill="#b3d9e8"/>
        <path id="Trazado_702830" data-name="Trazado 702830" d="M1815.1,94.454c.043-12.729-4.175-13.553-5.383-25.449-2.3-22.686,10.863-41.062,13.7-45.025,3.368-4.7,8.211-11.313,17.129-16.64A54.583,54.583,0,0,1,1867.954,0c21.116.024,35.429,12.483,39.642,16.15,11.535,10.042,16.61,21.62,19.576,28.385a97.646,97.646,0,0,1,6.362,21.044c4.286,20.847,2.282,37.712.979,47.962-1.079,8.483-2.254,17.29-6.362,28.385a118.793,118.793,0,0,1-11.745,23c-5.573,8.548-10.734,14.129-17.129,21.044a203.607,203.607,0,0,1-16.15,15.661c-7.54,6.539-11.426,9.858-17.129,12.235a46.37,46.37,0,0,1-17.129,3.426,39.3,39.3,0,0,1-18.108-3.426c-.813-.386-14.442-7.119-19.087-22.023-2.65-8.5-1.463-16.737-.489-23.491.649-4.5,1.178-5.052,1.958-10.767a123.409,123.409,0,0,0,.979-19.087c-.2-11.61-1.4-11.555-1.468-20.066-.1-12.357,2.414-14.163,2.447-23.981" transform="translate(-1611.232 0.001)" fill="#fba78d"/>
        <path id="Trazado_702831" data-name="Trazado 702831" d="M1905.341,241.118c.383-2.668-.881-4.793-2.447-7.341a31.555,31.555,0,0,0-6.852-7.83s-6.57-5.46-12.235-16.15c-7.065-13.333-3.892-27.422-3.426-29.364,1.133-4.719,3.069-12.785,10.277-18.108,5.224-3.858,10.721-4.43,15.171-4.894a44.485,44.485,0,0,1,22.023,3.426c12.929,5.671,19.319,16.319,23.491,23.491,8.757,15.053,9.818,29.071,10.767,41.6.9,11.848,1.906,25.171-3.426,41.6a95.1,95.1,0,0,1-24.47,38.173c-10.081,9.652-23.629,22.625-41.11,21.044-3.138-.284-12.741-1.61-20.066-9.3-7.3-7.665-11.545-20.817-6.852-27.9,2.258-3.406,5.051-3.091,9.788-9.3,2.194-2.874,4.208-5.585,4.4-9.3.214-4.042-1.974-4.548-2.447-9.3-.077-.774-.745-8.626,4.4-12.724a12.407,12.407,0,0,1,6.852-2.447c5.182-.394,6.676,2.49,10.278,1.468a8.711,8.711,0,0,0,5.873-6.852" transform="translate(-1658.407 -135.406)" fill="#f4967d"/>
        <path id="Trazado_702832" data-name="Trazado 702832" d="M1900.336,568.429a10.83,10.83,0,0,0,4.4,5.383c5.754,3.918,13.025,1.862,16.15.979,4.951-1.4,6.724-3.2,12.235-6.362,10.46-6.007,12.629-4.445,19.087-8.32,2.321-1.392,16.093-10.026,18.108-25.938.16-1.267,1.448-12.82-5.873-23a37.279,37.279,0,0,0-12.724-10.767c-2.671-1.442-2.713-1.057-9.3-3.915-3.384-1.469-8.551-3.725-14.193-6.852-4.813-2.668-5.468-3.473-11.745-7.341q-2.411-1.485-5.053-3.027a37.708,37.708,0,0,0,3.1,7.921c5.665,10.69,12.235,16.15,12.235,16.15a31.555,31.555,0,0,1,6.852,7.83c1.566,2.548,2.83,4.673,2.447,7.341a8.711,8.711,0,0,1-5.873,6.852c-3.6,1.022-5.1-1.862-10.277-1.468a12.409,12.409,0,0,0-6.852,2.447c-5.15,4.1-4.482,11.95-4.4,12.724.473,4.751,2.661,5.257,2.447,9.3-.2,3.714-2.211,6.424-4.4,9.3a26,26,0,0,1-6.692,6.314,9.546,9.546,0,0,0,.329,4.453" transform="translate(-1689.129 -412.798)" fill="#ef8c78"/>
        <path id="Trazado_702833" data-name="Trazado 702833" d="M2052.171,267.545c5.332-16.429,4.323-29.751,3.426-41.6-.949-12.528-2.01-26.547-10.767-41.6-4.172-7.173-10.563-17.82-23.491-23.491a44.482,44.482,0,0,0-22.023-3.426c-4.451.463-9.947,1.036-15.172,4.894-7.208,5.323-9.145,13.389-10.278,18.108a45.336,45.336,0,0,0-1.09,11.564,22.1,22.1,0,0,0,5.991,7.755c8.655,7.091,19.205,4.541,21.288,4.037,3.317-.8,8.094-1.957,10.277-5.872,2.087-3.745-.109-6.586,2.2-10.277,2.3-3.672,6.842-4.641,9.176-5.138,9.184-1.958,16.444,3.684,16.884,4.037,1,.8,7.485,6.174,7.341,13.213-.065,3.175-1.417,3.694-1.1,7.341a18.732,18.732,0,0,0,3.67,9.176c1.431,1.865,1.855,1.637,2.936,3.3,1.568,2.415,1.959,4.868,2.2,7.708a67.754,67.754,0,0,1,0,12.112c-.81,7.122-1.5,13.157-4.4,20.921a73.948,73.948,0,0,1-8.075,15.415,78.2,78.2,0,0,1-13.948,15.416c-5.564,4.88-8.346,7.321-11.378,8.075a9.837,9.837,0,0,0-4.771,2.2c-.175.161-3.073,2.9-2.569,6.24a7.864,7.864,0,0,0,4.037,5.139c2.587,1.478,7.605-1.054,13.59-5.572q.8-.764,1.576-1.506a95.1,95.1,0,0,0,24.47-38.173" transform="translate(-1751.893 -135.406)" fill="#ef8c78"/>
        <path id="Trazado_702834" data-name="Trazado 702834" d="M1918.443,841.614c.743,2.366,2.9,5.4,5.873,5.628,3.573.277,6.2-3.664,7.341-5.383,1.916-2.879,2.47-5.8,3.181-9.543.751-3.959.315-4.535,1.224-7.1.741-2.088,1.816-5.116,4.4-6.607.84-.484,2.432-1.146,9.788.245,7.838,1.482,9.382,2.868,11.745,1.713,2.685-1.313,4.286-4.86,3.915-7.83-.3-2.377-1.786-3.819-4.16-6.117a27.776,27.776,0,0,0-12.93-7.056,7.728,7.728,0,0,1-2.976,1.673c-3.6,1.022-5.1-1.862-10.277-1.468a12.407,12.407,0,0,0-6.852,2.447c-5.15,4.1-4.482,11.95-4.4,12.724.473,4.751,2.661,5.257,2.447,9.3-.2,3.714-2.211,6.424-4.4,9.3a26.3,26.3,0,0,1-4.226,4.482,8.561,8.561,0,0,0,.311,3.593" transform="translate(-1704.789 -688.676)" fill="#e88272"/>
        <path id="Trazado_702835" data-name="Trazado 702835" d="M2007.294,509.945a22.309,22.309,0,0,0,6.118,6.118c2.99,1.93,3.864,1.333,7.1,3.426a20.638,20.638,0,0,1,6.852,6.607c1.513,2.49,1.394,3.755,3.181,5.139a6.886,6.886,0,0,0,5.139,1.468s2.759-.527,4.894-4.4c1.045-1.9.935-4.676.144-7.836a31.416,31.416,0,0,0-4.549-9.294,37.278,37.278,0,0,0-12.724-10.767c-2.671-1.442-2.713-1.057-9.3-3.915-3.384-1.469-8.551-3.725-14.193-6.852-4.813-2.668-5.468-3.473-11.746-7.341q-2.411-1.485-5.053-3.027a37.694,37.694,0,0,0,3.095,7.921,64.56,64.56,0,0,0,8.1,11.919c7.156,4.321,10.862,8.05,12.944,10.838" transform="translate(-1760.85 -412.798)" fill="#e88272"/>
        <path id="Trazado_702836" data-name="Trazado 702836" d="M1974.485,827.787c-.866-4.4-1.11-4.732-.979-6.2a11.543,11.543,0,0,1,2.773-6.688,10.62,10.62,0,0,1,4.568-3.1,13.077,13.077,0,0,1,7.341,0,21.62,21.62,0,0,0,4.078.979c1.589.157,1.863-.076,3.263,0a13.564,13.564,0,0,1,5.873,1.794c2.1,1.158,3.488,1.922,4.078,3.589a5.471,5.471,0,0,1-1.305,5.547c-1.729,1.637-4.34,1.363-7.994.979-4.628-.486-5.336-1.606-7.83-.979a8.8,8.8,0,0,0-5.22,3.915c-.273.51-.365.843-.979,4.894a51.205,51.205,0,0,1-.979,5.873,10.866,10.866,0,0,1-2.773,5.383c-.5.473-2.326,2.215-3.589,1.632-1.11-.513-1.248-2.575-.979-3.915a7.09,7.09,0,0,1,1.305-2.61c.649-1.084,1.027-2.564-.652-11.093" transform="translate(-1752.511 -698.748)" fill="#dd7466"/>
        <path id="Trazado_702837" data-name="Trazado 702837" d="M2022.589,532.974c1.082.818,1.2.419,3.426,1.468a25.87,25.87,0,0,1,7.5,5.547c2.625,2.656,2.083,3.068,4.568,5.383a17.185,17.185,0,0,0,5.71,3.915c1.943.749,5.777,2.227,8.646.163,2.789-2.006,3.428-6.467,1.958-9.3-.534-1.028-1.377-1.9-7.178-4.568-3.97-1.826-5.385-2.249-9.3-3.915-5.549-2.363-8.323-3.545-10.441-5.057a54.1,54.1,0,0,0-6.525-4.568c-1.437-.805-4.776-2.676-5.384-1.958-.447.529,1.1,1.862,2.937,5.383,2.146,4.1,1.925,5.876,4.078,7.5" transform="translate(-1788.706 -447.817)" fill="#dd7466"/>
        <path id="Trazado_702838" data-name="Trazado 702838" d="M1994.372,238.84a17.545,17.545,0,0,0-2.937,3.915,16.173,16.173,0,0,0-2.61,7.341,14.4,14.4,0,0,0,1.958,7.994,17.42,17.42,0,0,0,7.83,7.178c5.962,2.942,11.612,1.845,14.193,1.305,3.553-.744,6.863-1.436,8.809-4.241,3.165-4.562.248-11.144-.163-12.072-4.929-11.123-21.757-15.96-27.08-11.419" transform="translate(-1765.709 -204.255)" fill="#e88272"/>
        <path id="Trazado_702839" data-name="Trazado 702839" d="M2005.36,264.526a13.2,13.2,0,0,0-2.284,4.4,12.709,12.709,0,0,0-1.142,4.731c.084,4.055,3.833,6.9,5.057,7.83,1.339,1.017,4.987,3.786,9.788,2.936.7-.123,5.148-.911,7.178-4.731,2.242-4.219-.034-9.187-2.121-11.746-4.444-5.448-13.4-6.55-16.477-3.426" transform="translate(-1777.023 -226.352)" fill="#dd7466"/>
        <path id="Trazado_702840" data-name="Trazado 702840" d="M1852.511,658.932c1.121-.519,1.84.172,9.054,3.671,5.438,2.637,6.554,2.983,7.586,4.649a8.531,8.531,0,0,1,.734,7.341c-1.025,2.617-2.768,2.388-4.894,5.139-3.3,4.272-3.008,9.886-2.936,11.256.237,4.529,1.974,5.365,1.224,8.809a12.13,12.13,0,0,1-3.426,5.873c-.359.371-4.983,5.149-7.586,3.915-2.027-.961-.889-4.648-1.958-13.7-.836-7.084-1.8-7.077-1.957-12.235-.084-2.7.175-2.844,1.468-13.214,1.107-8.88,1.17-10.8,2.692-11.5" transform="translate(-1644.729 -567.413)" fill="#ffaf99"/>
        <path id="Trazado_702841" data-name="Trazado 702841" d="M1871.347,804.1c1.067,4.917,5.012,7.778,8.564,10.277a36.7,36.7,0,0,0,17.619,6.852c16.22,1.633,28.761-8.863,32.79-12.235,3.937-3.295,8.089-8.8,16.395-19.821,6.582-8.731,10.082-14.389,11.012-15.906a120.4,120.4,0,0,0,9.3-17.374c5.506-13.1,6.125-22.6,6.851-33.769.287-4.406.334-9.146-1.468-9.788a2.4,2.4,0,0,0-2.447.979c-.86,1.216.011,2.853.489,5.139.284,1.358.189,3.189,0,6.852a86.471,86.471,0,0,1-2.937,16.884c-2.886,9.956-6.96,16.965-10.522,23a129.815,129.815,0,0,1-11.5,16.4c-4.714,5.734-8.319,10.119-14.437,14.682a53.354,53.354,0,0,1-15.171,8.32A41.23,41.23,0,0,1,1899,807.277c-4.547-.293-13.813-.891-19.576-7.341-2.971-3.325-3.525-6.541-5.139-6.362-2.057.228-3.969,5.764-2.936,10.522" transform="translate(-1664.299 -613.474)" fill="#ffb39f"/>
        <path id="Trazado_702842" data-name="Trazado 702842" d="M1915.306,51.154a5.791,5.791,0,0,0,1.958,3.671,3.417,3.417,0,0,0,2.447.734c1.8-.335,2.66-2.908,3.181-4.16,1.056-2.535,3.478-4.708,8.32-9.054,7.206-6.467,17.878-7.665,21.534-8.075a45.54,45.54,0,0,1,23.981,3.426c8.838,3.935,13.892,9.74,17.129,13.459,7.488,8.6,14.495,21.792,14.682,27.651a9.7,9.7,0,0,0,1.713,5.383,4.973,4.973,0,0,0,2.936,2.2,4.718,4.718,0,0,0,4.4-1.713c1.651-2.088.717-5.327,0-7.586-3.933-12.386-7.341-17.619-7.341-17.619-6.884-10.57-10.905-16.743-19.087-22.757-4.354-3.2-11.744-8.5-22.757-10.277-13.758-2.216-24.32,2.5-31.322,5.628-13.691,6.114-22.378,15.311-21.778,19.087" transform="translate(-1702.386 -22.28)" fill="#ffb39f"/>
        <path id="Trazado_702843" data-name="Trazado 702843" d="M1894.175,1087.822c.259,2.772,2.861,4.531,4.16,5.383,1.136.745,5.581,3.447,13.948,2.692,8.25-.745,14.355-4.313,18.6-6.852,6.029-3.608,5.311-4.65,10.767-7.341,6.216-3.067,10.763-3.5,11.012-5.873.16-1.531-1.53-3.257-3.181-3.67-1.791-.449-3.225.725-6.117,2.447-2.665,1.586-5.578,2.712-8.32,4.16-6.309,3.331-9.464,5-10.277,5.383-4.9,2.326-7.453,3.539-11.256,4.4-4.865,1.108-9.525,2.168-13.214-.245-2.555-1.671-3.607-4.329-4.894-3.915-.961.309-1.347,2.1-1.224,3.426" transform="translate(-1684.192 -923.383)" fill="#f9a385"/>
        <path id="Trazado_702844" data-name="Trazado 702844" d="M2799.3,1123.466l-3.838,0a17.975,17.975,0,0,0-18.094,17.746v2.7l0,4.25.013,24.083a11.046,11.046,0,0,0,11.131,10.892l17.8-.01a11.046,11.046,0,0,0,11.119-10.9l-.013-24.083,0-4.25v-2.7a17.976,17.976,0,0,0-18.114-17.726" transform="translate(-2444.914 -967.655)" fill="#69bfff"/>
        <path id="Trazado_702845" data-name="Trazado 702845" d="M2826.26,1123.466l-3.838,0h-.112a17.722,17.722,0,0,1,9.237,15.437v2.7l0,4.25.013,24.083a11.046,11.046,0,0,1-11.119,10.9l-11.776.006a11.2,11.2,0,0,0,6.806,2.289l17.8-.01a11.046,11.046,0,0,0,11.118-10.9l-.013-24.083,0-4.25v-2.7a17.976,17.976,0,0,0-18.114-17.726" transform="translate(-2471.875 -967.655)" fill="#58a9f9"/>
        <path id="Trazado_702846" data-name="Trazado 702846" d="M2880.149,765.354l-6.557,0a4.131,4.131,0,0,1-3.915-4.512l1.213-23.658a4.083,4.083,0,0,1,3.91-4.034l4.106,0a4.083,4.083,0,0,1,3.915,4.03l1.239,23.657a4.131,4.131,0,0,1-3.91,4.516" transform="translate(-2524.416 -631.472)" fill="#f4f4f4"/>
        <path id="Trazado_702847" data-name="Trazado 702847" d="M2884.059,760.837l-1.239-23.657a4.083,4.083,0,0,0-3.915-4.03h-1.69l.984,18.789a4.131,4.131,0,0,1-3.91,4.516l-4.388,0-.225,4.386a4.131,4.131,0,0,0,3.915,4.512l6.557,0a4.131,4.131,0,0,0,3.91-4.516" transform="translate(-2524.416 -631.471)" fill="#ededef"/>
        <path id="Trazado_702848" data-name="Trazado 702848" d="M2850.734,949.2l-27.2.015-.016-29.033a4.172,4.172,0,0,1,4.169-4.174l18.855-.01a4.172,4.172,0,0,1,4.174,4.169Z" transform="translate(-2484.667 -788.957)" fill="#f4f4f4"/>
        <path id="Trazado_702849" data-name="Trazado 702849" d="M2863.215,915.995l-18.855.01a4.159,4.159,0,0,0-1.485.274l11.542-.006a4.171,4.171,0,0,1,4.174,4.169l.016,28.76,8.8,0-.016-29.033a4.171,4.171,0,0,0-4.174-4.169" transform="translate(-2501.337 -788.957)" fill="#ededef"/>
        <path id="Trazado_702850" data-name="Trazado 702850" d="M2821.2,1123.466l-3.838,0a18.231,18.231,0,0,0-14.568,7.253l32.983-.018a18.231,18.231,0,0,0-14.577-7.238" transform="translate(-2466.811 -967.655)" fill="#388fe5"/>
        <path id="Trazado_702851" data-name="Trazado 702851" d="M2831.979,1080.794l-28.684.016a2.31,2.31,0,0,1-2.311-2.309l0-8.606a2.31,2.31,0,0,1,2.309-2.311l28.684-.016a2.31,2.31,0,0,1,2.311,2.309l0,8.606a2.31,2.31,0,0,1-2.309,2.311" transform="translate(-2465.252 -919.509)" fill="#fff"/>
        <path id="Trazado_702852" data-name="Trazado 702852" d="M2840.923,1067.568l-8.083,0a2.309,2.309,0,0,1,1.437,2.137l0,8.606a2.31,2.31,0,0,1-2.309,2.311l-20.6.011a2.3,2.3,0,0,0,.875.172l28.685-.016a2.31,2.31,0,0,0,2.309-2.311l0-8.606a2.31,2.31,0,0,0-2.312-2.309" transform="translate(-2474.203 -919.509)" fill="#f7f7f7"/>
        <path id="Trazado_702853" data-name="Trazado 702853" d="M2853.681,959.475h0a2.942,2.942,0,0,1-2.935-2.931l0-6.737a2.941,2.941,0,0,1,2.931-2.934h0a2.941,2.941,0,0,1,2.934,2.931l0,6.737a2.941,2.941,0,0,1-2.931,2.934" transform="translate(-2508.114 -815.553)" fill="#fdfdff"/>
        <path id="Trazado_702854" data-name="Trazado 702854" d="M2884.159,797.218h0a1.384,1.384,0,0,1-1.3-1.452l.5-9.31a1.38,1.38,0,1,1,2.756.149l-.5,9.31a1.384,1.384,0,0,1-1.453,1.3" transform="translate(-2535.771 -676.259)" fill="#fdfdff"/>
        <rect id="Rectángulo_345098" data-name="Rectángulo 345098" width="40.046" height="21.949" transform="translate(332.46 176.991)" fill="#fff"/>
        <rect id="Rectángulo_345099" data-name="Rectángulo 345099" width="12.825" height="21.949" transform="translate(359.681 176.983)" fill="#f0f8ff"/>
        <path id="Trazado_702855" data-name="Trazado 702855" d="M2892.8,1307.514c0,3.988-2.438,5.891-5.448,5.893s-5.453-1.9-5.455-5.887,5.446-10.2,5.446-10.2,5.455,6.2,5.457,10.19" transform="translate(-2534.947 -1117.401)" fill="#8eb7e8"/>
        <path id="Trazado_702856" data-name="Trazado 702856" d="M2900.132,1297.324l-.032.036c.657,1.8,2.65,7.738,1.525,10.9-.984,2.769-2.837,4.027-4.88,4.094a5.553,5.553,0,0,0,3.4,1.05c3.011,0,5.451-1.905,5.448-5.893s-5.457-10.19-5.457-10.19" transform="translate(-2547.736 -1117.401)" fill="#7fa8e2"/>
        <path id="Trazado_702857" data-name="Trazado 702857" d="M2895.841,1359.364c-.407.086-.832.025-1.027,1.752-.087.766-.229,1.9,1.115,1.874.642-.012,1.141-1.118,1.044-2.109-.129-1.316-.617-1.626-1.131-1.517" transform="translate(-2546.028 -1170.819)" fill="#add2f7"/>
        <path id="Trazado_702858" data-name="Trazado 702858" d="M2823.1,145.655c0,16.331-9.995,24.119-22.324,24.119s-22.324-7.788-22.324-24.119,22.324-41.74,22.324-41.74,22.324,25.408,22.324,41.74" transform="translate(-2445.846 -89.503)" fill="#72dbed"/>
        <path id="Trazado_702859" data-name="Trazado 702859" d="M2853.08,103.915l-.13.149c2.685,7.354,10.833,31.69,6.221,44.65-4.036,11.337-11.628,16.484-19.992,16.753a22.734,22.734,0,0,0,13.9,4.306c12.329,0,22.324-7.788,22.324-24.119s-22.324-41.74-22.324-41.74" transform="translate(-2498.154 -89.503)" fill="#6acee5"/>
        <path id="Trazado_702860" data-name="Trazado 702860" d="M2835.547,357.922c-1.667.351-3.4.1-4.21,7.173-.357,3.138-.944,7.78,4.56,7.677,2.63-.049,4.675-4.574,4.279-8.635-.525-5.389-2.521-6.659-4.629-6.215" transform="translate(-2491.213 -308.212)" fill="#8bf1fc"/>
        <path id="Trazado_702861" data-name="Trazado 702861" d="M1135.161,850.422c.576.185-.031-1.014.782,1.77.361,1.234,1.578,2.156,3.549,6.615.884,2,0,4.657-1.283,4.665-1.489.009-7.021-4.024-7.456-5.437-1.227-3.977,3.336-7.958,4.408-7.614" transform="translate(-1026.487 -732.39)" fill="#e28164"/>
        <path id="Trazado_702862" data-name="Trazado 702862" d="M1056.974,980.211c1.059,1.611.711,2.8.465,8.717-.349,8.413.279,7.855-.232,14.063-.318,3.855-.779,6.734-1.395,10.577-.39,2.434-.466,2.622-1.86,10.112-1.923,10.332-1.818,10.189-2.324,12.2-.8,3.171-1.375,4.793-2.092,8.484-1.1,5.685-.36,3.4-.93,5.928a11.782,11.782,0,0,0-.174,3.092,3.088,3.088,0,0,0,.362,1.447,6.165,6.165,0,0,0,1.188,1.24c.927.872.77.733.93.878a18.6,18.6,0,0,0,2.376,1.963,19.109,19.109,0,0,0,2.273,1.188,19.23,19.23,0,0,1,1.86.878c.749.476,1.9,1.2,1.963,2.325a2.155,2.155,0,0,1-.723,1.7,2.419,2.419,0,0,1-1.447.517,8.158,8.158,0,0,1-3.978-.672c-1.671-.727-1.332-1.076-3.048-1.808a33.738,33.738,0,0,0-3.255-1.033c-1.186-.346-1.78-.519-2.015-.568-1.661-.347-2.581-.864-2.893-.827-.2.024-.1-.259-.155-1.137-.147-2.4-.291-2.5-.155-3.254.086-.478.121-.306.517-1.7.231-.818.4-1.509.465-1.808a14.78,14.78,0,0,0,.31-3.565,72.07,72.07,0,0,1,.775-13.276c.564-2.925,1.2-4.119,1.5-7.594.094-1.1.115-2.007.155-3.771.089-3.985.01-7.006,0-7.387-.221-8.573.56-13.373.258-23.763-.327-11.252-1.5-14.311.775-15.962,2.725-1.982,8.359-.451,10.5,2.814" transform="translate(-949.931 -841.083)" fill="#d16d52"/>
        <path id="Trazado_702863" data-name="Trazado 702863" d="M933.409,995.92h0c-.524.641-1.039,18.315.17,20.477.655,1.171.473.645,2.346,3.654,2.641,4.244,2.059,3.771,4.227,7.291a29.067,29.067,0,0,1,2.867,6.31,3.493,3.493,0,0,1,.1,1.554,4.72,4.72,0,0,1-1.962,2.719,21.99,21.99,0,0,0-5.048,6.481c-1.042,1.864-6.5,11.843-7.762,12.738-1.223.864-1.907.579-3.166,1.743a5.215,5.215,0,0,0-1.647,2.575,6.013,6.013,0,0,0,.057,2.638,12.917,12.917,0,0,0,.951,2.311,31.124,31.124,0,0,1,.958,4.739,9.163,9.163,0,0,0,1.252,3.725,4.24,4.24,0,0,0,1.639,1.965c2.058,1.216,5.025,1.272,5.575.207.142-.275.075-.532-.507-2.2-.6-1.708-.9-2.563-1.054-2.947-1.11-2.7-.453-6.084-.188-7.451a18.95,18.95,0,0,1,2.805-6.641c1.53-2.508,3.832-4.82,8.372-9.343,2.02-2.012,3.764-4.339,6.04-6.056a12.817,12.817,0,0,0,3.394-3.712,6.626,6.626,0,0,0,.891-2.06,7.126,7.126,0,0,0-.873-4.685c-1.806-3.619-2.333-7.752-3.758-11.538-2.427-6.444-3.641-9.674-3.7-10.023-.419-2.555-1.519-9.264,2.144-13.877,1.042-1.312,2.05-1.927,1.837-2.49-.493-1.305-6.735-.184-12.6,1.16Z" transform="translate(-848.073 -855.67)" fill="#eb8e6c"/>
        <path id="Trazado_702864" data-name="Trazado 702864" d="M981.8,994.918c-2.084-1.885-3.333-12.632-2.561-18.64.171-1.328.419-12.634,6.887-14.676,4.705-1.485,9.735,2.36,14.2,2.3a3.714,3.714,0,0,1,2.671.812,2.659,2.659,0,0,1,.7,1.488,74.873,74.873,0,0,1,.562,16.371c-.9,10.04,1.1,8.246-.941,10.873-3.5,4.5-20.325,2.554-21.522,1.472" transform="translate(-895.971 -827.945)" fill="#ed9aa9"/>
        <path id="Trazado_702865" data-name="Trazado 702865" d="M1117.016,626.76c.154.106-.009.456-.05,2.466-.009.464-.014.7,0,.856.1,1.08,1.315,3.077-1.051,5.1-.3.26-5.837-.365-4.234-2.938,2.168-3.481,4.872-5.8,5.335-5.486" transform="translate(-1009.989 -539.811)" fill="#050d33"/>
        <path id="Trazado_702866" data-name="Trazado 702866" d="M1048.519,733.4c-.149.688,1.346,1.834,4.337,4.126a45.709,45.709,0,0,0,5.642,3.284c.7.375,1.206.637,1.558.421.884-.544-.032-3.623-.716-5.263a6.608,6.608,0,0,0-1.39-2.4,6.308,6.308,0,0,0-3.958-1.684c-2.072-.225-5.2.239-5.474,1.516" transform="translate(-955.828 -630.329)" fill="#eb8e6c"/>
        <path id="Trazado_702867" data-name="Trazado 702867" d="M1046.289,664.624c.348.82-1.074,1.454-1.476,3.288-.51,2.323,1.207,3.872.537,4.563-.769.793-3.5-.765-4.161-1.141-1.463-.834-7.772-1.646-6.1-2.577,2.475-1.382,2.362-1.949,3.151-4.2,1.118-3.191-.826-7.58-.233-7.558.76.028,3.01,5.014,4.729,6.283,1.528,1.128,3.184.464,3.557,1.342" transform="translate(-944.027 -565.881)" fill="#eb8e6c"/>
        <path id="Trazado_702868" data-name="Trazado 702868" d="M991.124,737.516s1.733-.577,3.6-1.133c1.893-.562,2.656-1.085,3.81-.618a9.779,9.779,0,0,1,1.905,1.648c2.41,2.323,2.693,2.493,3.192,2.987,1.677,1.656,3.422,2.129,4.016,1.905.677-.255.456-2.581-.464-4.325-.5-.953-.863-1.567-.978-1.751a3.448,3.448,0,0,1,2.4,1.454c.858,1.563,3.123,5.583,3.575,6.218,1.491,2.1,2.172,2.447,3.4,4.634a6.972,6.972,0,0,1,1.03,2.729,7.4,7.4,0,0,1-.669,3.81,17.13,17.13,0,0,0-.927,1.751,8.581,8.581,0,0,0-.515,2.214c-.271,2.182-.227.579-.721,4.377a148.612,148.612,0,0,0-.6,15.188s-24.395-2.791-23.757-4.266c2.15-4.971,5.8-19.672,3.4-28.481-1.05-3.846-3.078-6.748-1.7-8.342" transform="translate(-904.93 -633.567)" fill="#ed9aa9"/>
        <path id="Trazado_702869" data-name="Trazado 702869" d="M981.368,787.078c2.1-6.3,4.588-18.416,2.5-26.078-.947-3.468-2.689-6.169-2.01-7.835,2.788.788,5.661,2.241,7.256,4.932.541.913,1.7,3.26-.249,15.807-.9,5.823-1.269,6.048-2.116,11.078-1.271,7.545-2.412,14.645-1.12,23.026a49.458,49.458,0,0,0,2.22,8.839c-3.141-.272-5.607-.775-6.039-1.165-2.084-1.884-3.333-12.632-2.561-18.64.111-.864.255-5.952,2.124-9.965" transform="translate(-895.971 -648.71)" fill="#db8c9b"/>
        <path id="Trazado_702870" data-name="Trazado 702870" d="M982.841,771.857a10.878,10.878,0,0,0,.475,4.747c.117.342,4.383,16.286,9.618,16.517,1.139.05,1.548-1.556,1.355-4.592a10.625,10.625,0,0,0-.472-2.723c-1.208-4.944-1.491-5.61-1.524-5.755a60.609,60.609,0,0,1-1.508-7.566,3.8,3.8,0,0,0-.335-1.756c-.849-1.6-3.332-2.5-5.472-1.919-1.5.41-1.8,1.414-2.137,3.048" transform="translate(-899.189 -662.031)" fill="#eb8e6c"/>
        <path id="Trazado_702871" data-name="Trazado 702871" d="M1081.519,684.9c.542-1.334,1.569-1.9,1.267-2.616-.372-.878-2.028-.214-3.557-1.342-1.58-1.166-1.485-3.111-2.049-3.44a9.877,9.877,0,0,0,2.519,5.923,8.864,8.864,0,0,0,1.82,1.475" transform="translate(-980.524 -583.536)" fill="#c36252"/>
        <path id="Trazado_702872" data-name="Trazado 702872" d="M1078.21,600.507a16.443,16.443,0,0,1,0,2.315,24.144,24.144,0,0,0,.151,2.986,14.668,14.668,0,0,1,.268,1.812,6.8,6.8,0,0,1-.537,2.55c-.443,1.068-.672.9-1.007,1.812-.469,1.281-.123,1.9-.671,2.483a2.191,2.191,0,0,1-1.543.537c-2.756.145-5.184-2.408-5.5-2.751a9.383,9.383,0,0,1-2.617-5.905c-.02-.391-.168-4.631,3.02-7.18a6.008,6.008,0,0,1,4.362-1.544c1.742.184,3.634,1.331,4.077,2.886" transform="translate(-971.535 -514.716)" fill="#eb8e6c"/>
        <path id="Trazado_702873" data-name="Trazado 702873" d="M1077.608,584.539a3.3,3.3,0,0,1,2.013.805,3.637,3.637,0,0,1,.805,1.409,12.86,12.86,0,0,1,.6,2.751,5.306,5.306,0,0,0-.134-3.825,6.578,6.578,0,0,0-2.886-3.087,7.7,7.7,0,0,0-4.362-1.275c-1.937.056-4.019.9-3.959,1.409.1.849,6.307,1.649,7.918,1.812" transform="translate(-974.07 -500.693)" fill="#0e1647"/>
        <path id="Trazado_702874" data-name="Trazado 702874" d="M1042.308,582.754a10.618,10.618,0,0,0-3.02-1.141c-1.165-.113-4.051-1.025-6.375,2.483-5.088,7.68,2.223,12.816,2.631,11.5.348-1.124,1.706-1.716,2.177-3.027s.974-1.231,1.568-1.962c.545-.671,1.061-.344,1.879-1.007,1.037-.84.616-1.7,1.543-2.885,1.14-1.46,2.669-1.31,2.684-2.013.011-.494-1.022-.984-3.087-1.946" transform="translate(-940.85 -500.787)" fill="#0e1647"/>
        <path id="Trazado_702875" data-name="Trazado 702875" d="M981.717,756.5a8.568,8.568,0,0,1,0-3.406,8.671,8.671,0,0,1,.65-1.713,5.6,5.6,0,0,1,.637-1.016,3.917,3.917,0,0,1,.721-.721,2.9,2.9,0,0,1,2.008-.36,7.767,7.767,0,0,1,5.355,3.553,6.145,6.145,0,0,1,1.184,3.141c.184,3.507-1.147,4.676-1.671,4.513-.234-.073-.411-1.5-.6-2.7a8.659,8.659,0,0,0-2.071-3.97c-1.041-1.036-5.369-2.662-6.216,2.676" transform="translate(-898.154 -645.332)" fill="#db8c9b"/>
        <path id="Trazado_702876" data-name="Trazado 702876" d="M1065.767,647.213c.628-.177,1.232.606,1.264.647.892,1.186.447,3.561-.292,3.777-.665.194-1.891-1.262-1.847-2.7.018-.6.27-1.556.875-1.726" transform="translate(-969.938 -557.43)" fill="#eb8e6c"/>
        <path id="Trazado_702877" data-name="Trazado 702877" d="M1076.568,670.413a.538.538,0,0,1,.044.048l-.044-.048" transform="translate(-979.996 -577.435)" fill="#c36252"/>
        <path id="Trazado_702878" data-name="Trazado 702878" d="M1071.534,656.981a.793.793,0,0,1,.5.536.165.165,0,0,1-.118.217.146.146,0,0,1-.157-.11.486.486,0,0,0-.3-.33.436.436,0,0,0-.471.2.871.871,0,0,0,.056.715,1.935,1.935,0,0,0,.34.525c-.076-.083-.133-.146,0,.005l.06.066.058.064c.267.293.035.321.013.321-.2,0-.408-.263-.52-.431a1.508,1.508,0,0,1-.256-1.44.715.715,0,0,1,.792-.338" transform="translate(-974.89 -565.843)" fill="#c36252"/>
        <path id="Trazado_702879" data-name="Trazado 702879" d="M1076.063,669.86l-.06-.066,0,0,.079.087-.015-.016" transform="translate(-979.506 -576.897)" fill="#c36252"/>
        <path id="Trazado_702880" data-name="Trazado 702880" d="M1064.992,648.04a2.758,2.758,0,0,0-.106,1.556,2.788,2.788,0,0,0,1.215,1.968l.005.014c.072.186.262.681.745.681h0c.371,0,.465-.28.5-.517a.158.158,0,0,0-.135-.185h0a.152.152,0,0,0-.154.141c-.026.2-.078.237-.206.237h0c-.256,0-.381-.233-.477-.485-.036-.093-.066-.173-.157-.188-.294-.05-.862-.8-1.046-1.736a2.4,2.4,0,0,1,.088-1.357.9.9,0,0,1,.347-.488.691.691,0,0,1,.532-.04,1.147,1.147,0,0,1,.664.549.136.136,0,0,0,.189.052.171.171,0,0,0,.054-.231,1.441,1.441,0,0,0-.841-.685.949.949,0,0,0-.732.068,1.2,1.2,0,0,0-.479.645m1.181,3.543h0Z" transform="translate(-969.88 -557.512)" fill="#c36252"/>
        <path id="Trazado_702881" data-name="Trazado 702881" d="M1077.273,661.918c.02.047-.126.108-.235.288-.21.347-.063.778-.121.791s-.15-.223-.162-.477a.673.673,0,0,1,.13-.5c.139-.144.366-.154.389-.1" transform="translate(-980.154 -570.091)" fill="#c36252"/>
        <path id="Trazado_702882" data-name="Trazado 702882" d="M1102.132,643.4a6.831,6.831,0,0,1,2.495,0,.226.226,0,0,1-.079.444,6.382,6.382,0,0,0-2.337,0,.224.224,0,0,1-.259-.173.227.227,0,0,1,.181-.271" transform="translate(-1001.854 -554.065)" fill="#49302a"/>
        <path id="Trazado_702883" data-name="Trazado 702883" d="M1139.813,643.4a2.12,2.12,0,0,0-.841-.109,2.162,2.162,0,0,0-.529.109c-.069.023-.114.146-.1.271s.077.2.142.173a2.027,2.027,0,0,1,.5-.1,1.979,1.979,0,0,1,.788.1c.065.022.128-.055.142-.173s-.03-.248-.1-.271" transform="translate(-1033.202 -554.065)" fill="#49302a"/>
        <path id="Trazado_702884" data-name="Trazado 702884" d="M1125.047,658.147a.143.143,0,0,1,.168-.1c.632.116,1.065.067,1.227-.142.132-.17.074-.429-.041-.943-.042-.185-.088-.395-.136-.643a14.012,14.012,0,0,1-.21-1.572.135.135,0,0,1,.137-.138.144.144,0,0,1,.153.125,13.846,13.846,0,0,0,.206,1.545c.047.245.094.453.135.636.128.57.2.884-.005,1.146a1.255,1.255,0,0,1-1.169.3q-.164-.017-.348-.051a.137.137,0,0,1-.118-.16Z" transform="translate(-1021.748 -563.822)" fill="#c36252"/>
        <path id="Trazado_702885" data-name="Trazado 702885" d="M1112.914,651.429c.228,0,.412.288.412.643s-.185.643-.412.643-.412-.288-.412-.643.185-.643.412-.643" transform="translate(-1010.946 -561.084)" fill="#49302a"/>
        <path id="Trazado_702886" data-name="Trazado 702886" d="M1141.214,651.429c.228,0,.412.288.412.643s-.185.643-.412.643-.412-.288-.412-.643.185-.643.412-.643" transform="translate(-1035.321 -561.084)" fill="#49302a"/>
        <path id="Trazado_702887" data-name="Trazado 702887" d="M1116.434,688.482l.784.076a9.344,9.344,0,0,0,1.817,0l.417-.041c.181-.018.317.117.234.233a1.851,1.851,0,0,1-1.559.751,2.732,2.732,0,0,1-1.925-.787c-.078-.116.053-.247.232-.23" transform="translate(-1014.113 -592.996)" fill="#c36252"/>
        <path id="Trazado_702888" data-name="Trazado 702888" d="M1098.054,663.246c.595.076,1.038.439.991.81s-.568.612-1.162.536-1.038-.439-.991-.81.568-.612,1.162-.536" transform="translate(-997.498 -571.25)" fill="#dd8064"/>
        <path id="Trazado_702889" data-name="Trazado 702889" d="M1072.021,757.274a4.139,4.139,0,0,1-1.1-.178,8.348,8.348,0,0,1-3.54-2.229,31.809,31.809,0,0,1-3.169-3.485.271.271,0,0,1,.049-.381h0a.27.27,0,0,1,.378.048,31.264,31.264,0,0,0,3.114,3.424,7.774,7.774,0,0,0,3.316,2.1c.925.262,1.274.13,1.359.083.684-.376.847-1.832.416-3.587a.27.27,0,0,1,.191-.325h0a.271.271,0,0,1,.335.2c.5,2.05.245,3.679-.682,4.188a1.4,1.4,0,0,1-.671.141" transform="translate(-969.308 -646.798)" fill="#7f7fe2"/>
        <path id="Trazado_702890" data-name="Trazado 702890" d="M1049.442,784.375a4.927,4.927,0,0,0,1.246-3.828,6.037,6.037,0,0,0-.736-2.6.271.271,0,1,1,.477-.256,6.577,6.577,0,0,1,.8,2.827,5.441,5.441,0,0,1-1.4,4.23c-.316.324-.666-.092-.387-.378" transform="translate(-956.544 -669.715)" fill="#7f7fe2"/>
        <path id="Trazado_702891" data-name="Trazado 702891" d="M931.219,1467.751c-.807.508-2.1-2.826-2.766-6.314a50.009,50.009,0,0,1-.624-7.8c-1.107.71-4.5,1.14-4.749,3.713a9.089,9.089,0,0,0,1.134,5.427,31.144,31.144,0,0,1,.958,4.739c.478,2.32.615,2.89,1.206,3.861a4.334,4.334,0,0,0,1.684,1.83c2.058,1.217,5.025,1.272,5.575.207.142-.275.075-.532-.507-2.2-.6-1.708-.9-2.562-1.053-2.947a8.234,8.234,0,0,1-.528-2.061c-.069.85-.151,1.43-.33,1.543" transform="translate(-847.749 -1252.032)" fill="#69bfff"/>
        <path id="Trazado_702892" data-name="Trazado 702892" d="M1057.713,1546.451c-.07-1.161-1.258-1.916-2.034-2.409a19.869,19.869,0,0,0-1.927-.91,19.8,19.8,0,0,1-2.355-1.231c-.122-.08-.238-.159-.352-.241a.059.059,0,0,0-.092.059.266.266,0,0,1-.037.235c-.4.449-2.476-.855-8.038-3.178-.83-.347-2.495-1.527-2.58-1.434a4.256,4.256,0,0,0-.892,1.775c-.141.778.008.889.161,3.372.056.91-.036,1.1.161,1.178a17.338,17.338,0,0,0,3,.857c.244.051.858.23,2.088.589a34.941,34.941,0,0,1,3.372,1.07c1.778.759,1.427,1.12,3.158,1.874a8.452,8.452,0,0,0,4.122.7,2.506,2.506,0,0,0,1.5-.535,2.232,2.232,0,0,0,.749-1.766" transform="translate(-947.939 -1324.127)" fill="#69bfff"/>
        <path id="Trazado_702893" data-name="Trazado 702893" d="M930.591,1484.408a5.634,5.634,0,0,1-1.955-.423,5.889,5.889,0,0,1-3.065-2.215,7.222,7.222,0,0,1-.814-2.224,15.5,15.5,0,0,1-.431-2.179,16.6,16.6,0,0,0-.339-1.845c-.142-.59-.393-1.361-.892-2.9-.151-.465-.275-.837-.379-1.147a9.192,9.192,0,0,1-.54-2.042,7.771,7.771,0,0,1,.145-2.614c.045-.2.739-1.352,1.221-1.426,0,0-.475,1.4-.517,1.588a7.057,7.057,0,0,0-.132,2.368,8.618,8.618,0,0,0,.508,1.9c.1.312.229.685.379,1.146.507,1.561.761,2.342.91,2.958a17.245,17.245,0,0,1,.352,1.916,14.694,14.694,0,0,0,.413,2.089,6.84,6.84,0,0,0,.719,2.015,5.149,5.149,0,0,0,2.708,1.934,3.874,3.874,0,0,0,2.527.264,3.052,3.052,0,0,0,.7-.307c.159-.094.614-.428.724-.279,0,0,.361.481-.356.9a3.876,3.876,0,0,1-.865.378,3.6,3.6,0,0,1-1.021.146" transform="translate(-846.973 -1262.162)" fill="#f0f0f2"/>
        <path id="Trazado_702894" data-name="Trazado 702894" d="M1056.494,1583.431a6.946,6.946,0,0,1-1.086-.1,10.014,10.014,0,0,1-3.733-1.217,5.783,5.783,0,0,1-.875-.611,4.328,4.328,0,0,0-.828-.555,11.841,11.841,0,0,0-2.457-.874c-1.978-.585-3.581-1.01-4.184-1.17-.455-.12-1-.283-1.489-.427-.2-.06-.526-.2-.684-.241-.188-.054-.143-.765-.143-.765.161.046.829.254,1.032.314.48.142,1.024.3,1.469.421.606.161,2.217.587,4.2,1.176a12.267,12.267,0,0,1,2.594.93,5.025,5.025,0,0,1,.944.634,5.062,5.062,0,0,0,.78.545,9.257,9.257,0,0,0,3.483,1.128,3.382,3.382,0,0,0,1.6.01,3.164,3.164,0,0,0,2.023-1.21,2.611,2.611,0,0,1-.611,1.265,2.528,2.528,0,0,1-1.21.637,2.835,2.835,0,0,1-.831.113" transform="translate(-949.369 -1358.692)" fill="#f0f0f2"/>
        <path id="Trazado_702895" data-name="Trazado 702895" d="M1038.638,563.068c.279-.547.995-1.951.345-3.021-.732-1.2-2.642-1.074-3.193-1.036-.333.023-3.028.249-3.884,2.33a3.272,3.272,0,0,0,0,2.5,3.432,3.432,0,0,0,3.021,1.9c2.314.065,3.56-2.379,3.711-2.675" transform="translate(-941.31 -481.463)" fill="#0e1647"/>
        <path id="Trazado_702896" data-name="Trazado 702896" d="M1069.338,836.72c.009-.015-2.848-1.375-3.6-2.312-.076.074-13.645,7.9-17.075,8.783-2.306.593-1.654,6.226.164,6.525,2.682.441,19.554-11.393,20.509-13" transform="translate(-954.689 -718.686)" fill="#eb8e6c"/>
        <path id="Trazado_702897" data-name="Trazado 702897" d="M1265.847,757.55c-.108-.111-.3-.077-.41-.056-.342.065-.484.251-.844.5-.3.205-.255.118-.816.447a8.545,8.545,0,0,1-.854.519c-.031-.038.333-.406.591-.635.106-.094.2-.172.393-.348.156-.144.973-.641,1.19-.8.236-.178.248-.209.448-.364.438-.341.506-.289.707-.5.107-.114.39-.418.3-.7a.4.4,0,0,0-.277-.263c-.168-.035-.316.088-.443.182a8.406,8.406,0,0,1-.963.508c-.687.38-.588.3-.973.526-.439.254-.684.422-.713.385s.2-.266.227-.3a2.986,2.986,0,0,1,.512-.4c.2-.132.4-.267.6-.425a8.012,8.012,0,0,0,.645-.607c.219-.218.354-.362.469-.492.42-.471.443-.587.446-.666a.531.531,0,0,0-.326-.52c-.137-.031-.23.064-.565.279s-.225.111-.668.387c-.1.061-.394.246-.864.583-.557.4-.914.654-1.36,1.038a6.1,6.1,0,0,1-.7.532,6.887,6.887,0,0,1,.811-1.4c.1-.113.923-1.225,1.142-1.5.207-.259.317-.378.334-.587a.527.527,0,0,0-.154-.452.431.431,0,0,0-.309-.071c-.266.034-.422.277-.569.462-.1.12.014-.037-.9.774-.662.59-.994.886-1.131,1.043a5.345,5.345,0,0,0-.9,1.35c-.089.2-.1.269-.271.643-.205.46-.33.685-.452.94a8.63,8.63,0,0,0-.5,1.333c-.389,1.3-.083,1.416-.428,2.249s-.742.92-.739,1.482a2.082,2.082,0,0,0,.763,1.353c.671.721,2.034,1.751,2.8,1.393,1.543-.72,1.9-4.536,1.948-4.636a2.671,2.671,0,0,1,.315-.55c.193-.237,1.81-1.526,2.081-1.743.375-.3.428-.422.451-.5.01-.034.077-.268-.045-.394" transform="translate(-1135.862 -648.007)" fill="#e28164"/>
        <path id="Trazado_702898" data-name="Trazado 702898" d="M1288.553,760.919c-.137-.031-.23.064-.565.279s-.225.111-.668.387c-.1.061-.394.246-.864.583-.557.4-.913.654-1.36,1.038a6.534,6.534,0,0,1-.673.516c-.031.061-.06.114-.087.159-.153.254-.273.341-.315.562-.029.153-.026.395.079.441s.288-.148.629-.5c.253-.261.518-.511.773-.771.3-.3.7-.637,1.506-1.3.217-.179.838-.632.838-.632.261-.225.479-.443.688-.382a.32.32,0,0,1,.182.148.4.4,0,0,1,0,.32c.15-.2.161-.272.163-.327a.53.53,0,0,0-.326-.52" transform="translate(-1158.665 -655.384)" fill="#d8795b"/>
        <path id="Trazado_702899" data-name="Trazado 702899" d="M1295.276,773.932c-.168-.035-.316.088-.443.182a8.407,8.407,0,0,1-.963.508c-.687.38-.588.3-.973.525-.44.255-.684.422-.714.386-.007-.009,0-.028.015-.053a1.353,1.353,0,0,0-.133.194,1.607,1.607,0,0,1-.207.324c-.3.349-.616.37-.652.609a.257.257,0,0,0,.09.256c.138.07.374-.181.782-.558.223-.207.589-.544.96-.828a15.315,15.315,0,0,1,2.1-1.247.232.232,0,0,1,.211.06.282.282,0,0,1,.029.241,1.318,1.318,0,0,1-.369.553.943.943,0,0,0,.243-.193c.107-.114.39-.418.3-.7a.4.4,0,0,0-.277-.263" transform="translate(-1164.863 -666.592)" fill="#d8795b"/>
        <path id="Trazado_702900" data-name="Trazado 702900" d="M1271.45,752.424a.432.432,0,0,0-.309-.071c-.266.034-.422.277-.569.462-.1.12.014-.037-.9.774-.662.591-.994.886-1.132,1.043a5.344,5.344,0,0,0-.9,1.35c-.089.2-.1.269-.271.643-.205.46-.33.685-.452.94a8.056,8.056,0,0,0-.423,1.085,5.821,5.821,0,0,1,.413.739c.148.317.226.558.316.549s.105-.28.2-.743a6.383,6.383,0,0,1,.526-1.613,4.2,4.2,0,0,0,.267-.57c.114-.315.068-.333.173-.654a1.792,1.792,0,0,1,.578-.96.663.663,0,0,0,.14-.1.787.787,0,0,0,.208-.393c.075-.258.329-.481.838-.927.214-.188.206-.155.315-.267a5.213,5.213,0,0,0,.545-.7c.109-.167.177-.285.3-.295a.24.24,0,0,1,.2.087.346.346,0,0,1,.013.318.56.56,0,0,0,.079-.246.527.527,0,0,0-.154-.452" transform="translate(-1143.584 -648.007)" fill="#d8795b"/>
        <path id="Trazado_702901" data-name="Trazado 702901" d="M1298.826,789.376c-.108-.111-.3-.077-.41-.056-.342.065-.484.251-.844.5-.3.205-.255.118-.816.447a8.515,8.515,0,0,1-.854.519.5.5,0,0,0-.08.282c.04.283.119.5.2.526.065.02.13-.063.456-.435a2.367,2.367,0,0,1,.422-.436c.207-.138.255-.075.478-.215s.175-.2.47-.428a2.524,2.524,0,0,1,.724-.449.217.217,0,0,1,.143.058c.059.065.017.212-.06.373a.652.652,0,0,0,.211-.294c.01-.034.077-.268-.046-.394" transform="translate(-1168.841 -679.832)" fill="#d8795b"/>
        <path id="Trazado_702902" data-name="Trazado 702902" d="M1255.024,833.462l-.037.023a5.286,5.286,0,0,0,.373.523,5.382,5.382,0,0,0,1.3,1.151l.024-.037a5.336,5.336,0,0,1-1.284-1.142,5.247,5.247,0,0,1-.37-.519" transform="translate(-1133.669 -717.871)" fill="#1e0502"/>
        <path id="Trazado_702903" data-name="Trazado 702903" d="M1253.829,836.661l-.037.024a4.633,4.633,0,0,0,1.1,1.166l.026-.036a4.6,4.6,0,0,1-1.092-1.155" transform="translate(-1132.641 -720.626)" fill="#1e0502"/>
        <path id="Trazado_702904" data-name="Trazado 702904" d="M1258.547,775.677c-.124-.191-.236-.307-.513-.735a4.109,4.109,0,0,1-.369-.658c-.109-.255-.064-.239-.188-.562-.173-.453-.286-.551-.3-.83a2.279,2.279,0,0,1,.056-.41c.06-.411.036-.4.108-1.077a1.724,1.724,0,0,0,.024-.612.989.989,0,0,0-.326-.52.3.3,0,0,0-.226-.1c-.126.026-.181.214-.218.324-.009.026-.191.366-.555,1.048-.258.483-.328.546-.366.778-.015.093,0,.088-.03.493-.032.506-.047.494-.043.648a5.214,5.214,0,0,0,.12.734c.1.494.113.495.13.671a4.938,4.938,0,0,1-.008.713c-.019.473-.028.71-.028.8a3.649,3.649,0,0,0,.12,1.128,2.367,2.367,0,0,0,.313.675,1.861,1.861,0,0,0,1.287.89,1.469,1.469,0,0,0,1.133-.348,1.947,1.947,0,0,0,.333-1.675,3.057,3.057,0,0,0-.452-1.373" transform="translate(-1134.197 -663.359)" fill="#fba78d"/>
        <path id="Trazado_702905" data-name="Trazado 702905" d="M1189.049,778.616a2.13,2.13,0,0,0,.233-1.565,3.057,3.057,0,0,0-.452-1.373c-.124-.191-.236-.307-.513-.735a4.1,4.1,0,0,1-.369-.658c-.109-.255-.064-.239-.188-.562-.173-.453-.286-.551-.3-.83a2.278,2.278,0,0,1,.056-.41c.06-.411.036-.4.108-1.077a1.718,1.718,0,0,0,.024-.612.985.985,0,0,0-.326-.52.3.3,0,0,0-.226-.1c-.126.026-.181.214-.218.324-.009.026-.191.367-.556,1.048-.258.483-.328.546-.366.778-.015.093,0,.088-.03.493-.032.506-.047.494-.043.648a5.21,5.21,0,0,0,.12.735c.1.494.114.494.13.671a4.922,4.922,0,0,1-.008.713c-.163.416-.12,2.843-.18,2.959-.206.394-11.164,9.811-11.234,10.073-.253.941.392,5.712,1.491,5.824,2.745.281,10.1-9.906,10.868-10.95a11.884,11.884,0,0,1,2.645-2.763c.475-.292.03-1.3-.667-2.113" transform="translate(-1064.481 -663.36)" fill="#e28164"/>
        <path id="Trazado_702906" data-name="Trazado 702906" d="M1308.989,798.386l-.069-.1a.026.026,0,0,0-.035-.007h0a.025.025,0,0,0-.007.035l.069.1a.025.025,0,0,0,.035.007h0a.025.025,0,0,0,.007-.035" transform="translate(-1180.083 -687.562)" fill="#ef8c78"/>
        <path id="Trazado_702907" data-name="Trazado 702907" d="M1272.842,804.466c0-.009,0-.019,0-.03s0-.011,0-.016,0-.011,0-.017c0-.048.005-.106,0-.172,0-.017,0-.034,0-.051s0-.036,0-.054v-.057c0-.01,0-.02,0-.03s0-.02,0-.03,0-.041,0-.063,0-.043-.006-.065c0-.044-.01-.089-.016-.136-.013-.093-.031-.191-.055-.291a2.712,2.712,0,0,0-.093-.3l-.015-.038c0-.013-.01-.026-.015-.038l-.015-.037,0-.009,0-.01-.008-.019q-.033-.075-.071-.149c-.05-.1-.1-.193-.157-.286s-.108-.184-.161-.271l-.153-.252-.138-.225c-.086-.139-.159-.254-.211-.335l-.081-.126-.106.071.086.122c.054.078.131.19.222.325l.146.219.162.245c.056.085.113.174.17.264s.114.183.166.277c.026.047.051.095.075.143l.009.018,0,.009,0,.009.017.037c.006.012.011.025.016.037l.015.036a2.754,2.754,0,0,1,.1.295c.027.1.048.194.065.285.007.046.016.091.021.134,0,.022.005.043.008.064s0,.042.006.062l0,.03c0,.01,0,.02,0,.029s0,.039,0,.057,0,.037,0,.054,0,.035,0,.051c0,.066,0,.124,0,.172v.017c0,.006,0,.011,0,.016s0,.021,0,.03,0,.034,0,.047,0,.039,0,.039,0-.014,0-.039,0-.028,0-.047" transform="translate(-1147.921 -690.216)" fill="#d8795b"/>
        <path id="Trazado_702908" data-name="Trazado 702908" d="M1260.442,769.556c-.021-.133-.1-.292-.2-.292-.049,0-.086.044-.142.124a2.474,2.474,0,0,0-.305.59c-.085.253-.127.38-.072.444s.228.065.334.018c.17-.076.228-.255.337-.586a.6.6,0,0,0,.045-.3" transform="translate(-1137.73 -662.576)" fill="#f4e0df"/>
        <path id="Trazado_702909" data-name="Trazado 702909" d="M1177.967,776.535c.3-.448,2.845-1.912,3.433-2.719a2.676,2.676,0,0,1,.485-.55,2.776,2.776,0,0,1,.727-.407,4.72,4.72,0,0,0,1.34-1.255c.5-.57.429-.582.9-1.1a11.975,11.975,0,0,1,1.046-1.027c.563-.485.669-.475,1.24-.994a8.046,8.046,0,0,0,.752-.8c.052-.063.189-.3.465-.771a.433.433,0,0,0,.084-.317.4.4,0,0,0-.342-.28.464.464,0,0,0-.273.068,1.6,1.6,0,0,0-.54.507l-.391.505c-.235.256-.344.234-1.082.676-.413.247-.666.426-.715.372-.014-.015-.009-.048.039-.146a1.713,1.713,0,0,1,.352-.492c.241-.213.457-.454.7-.661.039-.032.422-.381,1.188-1.078,1.41-1.282.336-.336.672-.64a2.118,2.118,0,0,0,.528-.605.629.629,0,0,0,.115-.528.5.5,0,0,0-.507-.275.661.661,0,0,0-.388.273c-.241.266-.545.466-.8.715-.117.112-.488.382-1.225.917a6.711,6.711,0,0,1-1.2.822c-.031-.036.315-.38.544-.607.345-.343.581-.545.92-.845,1.048-.929.845-.815,1.137-1.03.352-.26.647-.59.983-.87a.526.526,0,0,0,.207-.324.514.514,0,0,0-.223-.452.622.622,0,0,0-.531-.073,2.662,2.662,0,0,0-.819.526c-.474.4-.4.248-1.19.871-.182.144-.42.332-.728.6-.185.16-.459.376-1.008.807-.147.116-.323.253-.371.212s.023-.162.047-.213a11.271,11.271,0,0,1,1.931-1.885c.257-.184.514-.333.94-.682.286-.234.464-.407.466-.639a.455.455,0,0,0-.18-.375c-.116-.077-.267-.071-.544.019a4.191,4.191,0,0,0-1.055.564c-.577.374-.5.285-.8.5-.1.07-.328.236-.961.784-.547.474-.6.542-.984.865a4.121,4.121,0,0,1-.972.7c-.021-.023.132-.154.255-.43.059-.133.479-.9.25-1.335-.114-.216-.309-.427-.446-.385-.07.021-.077.093-.179.332a4.93,4.93,0,0,1-.339.639,3.071,3.071,0,0,1-.285.367,5.9,5.9,0,0,1-.63.61c-.1.092-.083.083-.865,1.015a3.815,3.815,0,0,0-.659.9,2.779,2.779,0,0,0-.189.6,11.014,11.014,0,0,0-.17,2.142,8.1,8.1,0,0,1-.092,1.281,4.214,4.214,0,0,1-.992,1.583,25.927,25.927,0,0,0,.922,4.022" transform="translate(-1066.537 -656.072)" fill="#eb8e6c"/>
        <path id="Trazado_702910" data-name="Trazado 702910" d="M1195.707,775.373a3.054,3.054,0,0,1-.544.607,8.093,8.093,0,0,0-1.419,1.679c.008.007.348-.385,1.014-1.081.256-.267.4-.409.581-.579.162-.148.313-.277.45-.387a1.9,1.9,0,0,0,.234-.382c.059-.133.479-.9.25-1.335l-.018-.032a4.036,4.036,0,0,1-.164.69,3.233,3.233,0,0,1-.385.819" transform="translate(-1080.921 -666.538)" fill="#db7c5e"/>
        <path id="Trazado_702911" data-name="Trazado 702911" d="M1205.128,771.616a4.918,4.918,0,0,1-.339.639l-.039.059a.625.625,0,0,0,.411-.026.8.8,0,0,0,.386-.612,1.079,1.079,0,0,0,.019-.269c-.088-.091-.182-.146-.259-.122s-.077.093-.179.332" transform="translate(-1090.4 -664.312)" fill="#ffd5ca"/>
        <path id="Trazado_702912" data-name="Trazado 702912" d="M1255.8,795.007a.283.283,0,0,0-.045.171c.007.059.046.1.124.194.061.07.091.106.119.112.123.028.278-.214.3-.362.007-.036-.015-.062-.032-.1-.067-.147-.2-.256-.285-.226a1.078,1.078,0,0,0-.186.209" transform="translate(-1134.329 -684.565)" fill="#ffd5ca"/>
        <path id="Trazado_702913" data-name="Trazado 702913" d="M1250.351,772.507a1.263,1.263,0,0,1,.17.247l.041-.022a1.305,1.305,0,0,0-.348-.419l-.029.036a1.26,1.26,0,0,1,.166.158" transform="translate(-1129.534 -665.202)" fill="#c36252"/>
        <path id="Trazado_702914" data-name="Trazado 702914" d="M1249.448,772.688a1.2,1.2,0,0,1,.16.3l.044-.016a1.252,1.252,0,0,0-.38-.534l-.03.036a1.2,1.2,0,0,1,.206.218" transform="translate(-1128.722 -665.307)" fill="#c36252"/>
        <path id="Trazado_702915" data-name="Trazado 702915" d="M1239.9,765.64a2.14,2.14,0,0,1,.2.2l.035-.031a2.154,2.154,0,0,0-.2-.2,2.108,2.108,0,0,0-.195-.151l-.026.038a2.145,2.145,0,0,1,.191.148" transform="translate(-1120.514 -659.295)" fill="#c36252"/>
        <path id="Trazado_702916" data-name="Trazado 702916" d="M1254.207,783.324a1.75,1.75,0,0,1,.192.221l.037-.027a1.817,1.817,0,0,0-.2-.227,1.839,1.839,0,0,0-.142-.125l-.029.037a1.743,1.743,0,0,1,.138.121" transform="translate(-1132.879 -674.55)" fill="#c36252"/>
        <path id="Trazado_702917" data-name="Trazado 702917" d="M1228.552,771.82a1.2,1.2,0,0,1,.309.383l.041-.021a1.247,1.247,0,0,0-.6-.573l-.019.042a1.2,1.2,0,0,1,.273.169" transform="translate(-1110.666 -664.596)" fill="#c36252"/>
        <path id="Trazado_702918" data-name="Trazado 702918" d="M1228.37,772.921a1.832,1.832,0,0,1,.255.27l.037-.028a1.878,1.878,0,0,0-.42-.4l-.026.038a1.815,1.815,0,0,1,.154.119" transform="translate(-1110.612 -665.59)" fill="#c36252"/>
        <path id="Trazado_702919" data-name="Trazado 702919" d="M1227.252,773.174a1.377,1.377,0,0,0,.2.19,1.407,1.407,0,0,0,.176.116l.023-.041a1.34,1.34,0,0,1-.363-.3,1.321,1.321,0,0,1-.139-.194l-.04.024a1.36,1.36,0,0,0,.143.2" transform="translate(-1109.659 -665.751)" fill="#c36252"/>
        <path id="Trazado_702920" data-name="Trazado 702920" d="M1238.351,780.807a.846.846,0,0,1,.226.318.835.835,0,0,1,.041.132l.045-.01a.884.884,0,0,0-.5-.617l-.019.042a.848.848,0,0,1,.211.135" transform="translate(-1119.16 -672.366)" fill="#c36252"/>
        <path id="Trazado_702921" data-name="Trazado 702921" d="M1237.686,781.613a.952.952,0,0,1,.236.4l.044-.013a1,1,0,0,0-.248-.418.974.974,0,0,0-.188-.146l-.024.04a.919.919,0,0,1,.179.139" transform="translate(-1118.614 -673.058)" fill="#c36252"/>
        <path id="Trazado_702922" data-name="Trazado 702922" d="M1236.817,782.364a1.506,1.506,0,0,0,.274.3l.03-.036a1.451,1.451,0,0,1-.4-.544l-.043.018a1.5,1.5,0,0,0,.142.259" transform="translate(-1117.898 -673.62)" fill="#c36252"/>
        <path id="Trazado_702923" data-name="Trazado 702923" d="M1243.851,791.049a.815.815,0,0,1,.207.489l.046,0a.861.861,0,0,0-.219-.517.8.8,0,0,0-.2-.154l-.022.041a.747.747,0,0,1,.187.145" transform="translate(-1123.917 -681.18)" fill="#c36252"/>
        <path id="Trazado_702924" data-name="Trazado 702924" d="M1243.137,791.766a4.559,4.559,0,0,1,.227.424l.042-.02a4.625,4.625,0,0,0-.229-.429c-.055-.091-.114-.182-.176-.269l-.038.027c.061.087.119.176.174.266" transform="translate(-1123.314 -681.705)" fill="#c36252"/>
        <path id="Trazado_702925" data-name="Trazado 702925" d="M1242.352,792.586a.89.89,0,0,0,.309.436h0l.028-.037a.833.833,0,0,1-.294-.414.794.794,0,0,1-.035-.213h-.047a.841.841,0,0,0,.037.225" transform="translate(-1122.755 -682.468)" fill="#c36252"/>
        <path id="Trazado_702926" data-name="Trazado 702926" d="M1202.635,782.544a1.51,1.51,0,0,1,.209.234l.038-.027a1.569,1.569,0,0,0-.411-.393l-.026.039a1.559,1.559,0,0,1,.19.147" transform="translate(-1088.415 -673.854)" fill="#c36252"/>
        <path id="Trazado_702927" data-name="Trazado 702927" d="M1201.26,784.1c.087.048.176.093.267.133l.019-.043c-.089-.04-.178-.083-.263-.131-.054-.03-.108-.062-.16-.095l-.025.039c.053.033.107.066.162.1" transform="translate(-1087.255 -675.235)" fill="#c36252"/>
        <path id="Trazado_702928" data-name="Trazado 702928" d="M1199.8,785.1c-.047-.02-.094-.041-.139-.064l-.021.042c.046.023.094.045.142.066a2.182,2.182,0,0,0,.332.109l.011-.045a2.119,2.119,0,0,1-.325-.106" transform="translate(-1085.997 -676.16)" fill="#c36252"/>
        <path id="Trazado_702929" data-name="Trazado 702929" d="M1247.678,805.766a.791.791,0,0,1,.118.363l.046,0a.836.836,0,0,0-.126-.384.819.819,0,0,0-.16-.184l-.03.035a.774.774,0,0,1,.151.174" transform="translate(-1127.245 -693.836)" fill="#c36252"/>
        <path id="Trazado_702930" data-name="Trazado 702930" d="M1247.014,806.963c.033.105.071.21.114.311l.043-.018a3.25,3.25,0,0,1-.113-.306c-.023-.073-.044-.148-.061-.222l-.045.011c.018.076.039.152.062.226" transform="translate(-1126.75 -694.844)" fill="#c36252"/>
        <path id="Trazado_702931" data-name="Trazado 702931" d="M1236,782.97c-.519.485-.949.854-1.056.945-1.053.9-.761.716-1.176,1.044a3.352,3.352,0,0,0-.784.8c-.063.094-.3.441-.215.524.043.044.152-.008.732-.3.494-.249.608-.309.762-.395a2.663,2.663,0,0,0,.658-.431,5.6,5.6,0,0,0,.335-.49,3.037,3.037,0,0,1,.448-.521,1.289,1.289,0,0,1,.432-.235.393.393,0,0,0-.059-.012.463.463,0,0,0-.273.068,1.6,1.6,0,0,0-.54.507l-.391.505c-.235.256-.344.234-1.082.676-.413.247-.666.426-.715.372-.014-.015-.009-.048.039-.146a1.717,1.717,0,0,1,.352-.492c.241-.212.457-.454.7-.661.038-.032.422-.381,1.188-1.078,1.41-1.282.336-.336.672-.64a2.12,2.12,0,0,0,.528-.605,1.4,1.4,0,0,0,.124-.28,3.141,3.141,0,0,1-.314.461,3.712,3.712,0,0,1-.366.378" transform="translate(-1114.518 -673.659)" fill="#db7c5e"/>
        <path id="Trazado_702932" data-name="Trazado 702932" d="M1231.658,771.756c-.093.074,0,0-.841.744-1.232,1.086-1.144.986-1.424,1.249-.125.117-1.28,1.2-1.192,1.311.069.084.892-.48,1.006-.558.263-.181.283-.215.847-.637.361-.27.391-.285.826-.61a9.4,9.4,0,0,0,.828-.652,3.058,3.058,0,0,0,.447-.584.836.836,0,0,0-.3.251c-.241.266-.545.466-.8.715-.116.112-.488.382-1.225.917a6.72,6.72,0,0,1-1.2.823c-.031-.036.315-.38.544-.607.345-.343.581-.545.92-.845,1.048-.929.844-.815,1.136-1.03.352-.26.647-.59.983-.87a.525.525,0,0,0,.207-.324.381.381,0,0,0,0-.074,2.664,2.664,0,0,1-.242.32,3.663,3.663,0,0,1-.521.464" transform="translate(-1110.595 -664.048)" fill="#db7c5e"/>
        <path id="Trazado_702933" data-name="Trazado 702933" d="M1220.954,767.363a11.276,11.276,0,0,1,1.931-1.885c.257-.184.514-.333.941-.682.286-.234.464-.407.466-.639a.493.493,0,0,0-.011-.1,1.725,1.725,0,0,1-.29.465,2.26,2.26,0,0,1-.389.331c-.5.377-.638.443-.926.664-.17.131-.342.287-.686.6a8.744,8.744,0,0,0-.715.7c-.106.12-.044.059-.458.572-.287.356-.354.431-.33.464.053.075.507-.14.849-.356a6.5,6.5,0,0,0,.76-.6c.576-.492.551-.5.851-.737.341-.27.716-.533.825-.61.176-.124.346-.238.583-.43.2-.166.28-.244.351-.3a1.242,1.242,0,0,1,.7-.247.658.658,0,0,0-.385,0,2.658,2.658,0,0,0-.82.526c-.474.4-.4.248-1.19.871-.182.144-.42.332-.728.6-.185.16-.459.376-1.007.807-.147.116-.323.253-.371.213s.023-.162.047-.213" transform="translate(-1103.951 -658.089)" fill="#db7c5e"/>
        <path id="Trazado_702934" data-name="Trazado 702934" d="M1206.642,762.349c-.577.374-.5.285-.8.5-.1.07-.328.236-.961.784-.546.474-.6.542-.984.865a4.133,4.133,0,0,1-.972.7c-.021-.023.132-.154.255-.43a4.456,4.456,0,0,0,.228-.541c-1.135,1.259-1.388,1.61-1.351,1.647a7.187,7.187,0,0,0,.757-.472c.321-.191.386-.208.607-.353a5.6,5.6,0,0,0,.662-.526c.6-.525.741-.69,1.129-1.026.43-.373.752-.6.822-.656.121-.088.428-.307.846-.56a6.14,6.14,0,0,1,.549-.31,4.321,4.321,0,0,1,.657-.254,1.033,1.033,0,0,0-.392.071,4.193,4.193,0,0,0-1.055.564" transform="translate(-1088.081 -656.072)" fill="#db7c5e"/>
        <path id="Trazado_702935" data-name="Trazado 702935" d="M1241.881,761.909a.188.188,0,0,0-.058.132c0,.065.058.108.2.215a2.879,2.879,0,0,0,.246.176c.108.032.244-.034.383-.165a.431.431,0,0,0,.019-.126.454.454,0,0,0-.18-.375.476.476,0,0,0-.4-.023.742.742,0,0,0-.211.167" transform="translate(-1122.332 -656.072)" fill="#ffd5ca"/>
        <path id="Trazado_702936" data-name="Trazado 702936" d="M1252.669,767.165c-.126.108-.245.208-.235.328a.344.344,0,0,0,.079.145c.124.175.219.308.331.3a.631.631,0,0,0,.168-.09c.049-.03.072-.047.143-.1.19-.13.2-.127.21-.151.065-.121-.068-.3-.1-.344s-.187-.259-.385-.23c-.064.009-.114.052-.214.138" transform="translate(-1131.471 -660.648)" fill="#ffd5ca"/>
        <path id="Trazado_702937" data-name="Trazado 702937" d="M1255.793,778.072a.809.809,0,0,0-.216.254.239.239,0,0,0-.033.112.269.269,0,0,0,.067.155.64.64,0,0,0,.224.2.235.235,0,0,0,.107.039c.059,0,.1-.029.194-.1.144-.121.216-.181.233-.231a.357.357,0,0,0-.024-.254c-.074-.173-.271-.319-.419-.275a.577.577,0,0,0-.133.1" transform="translate(-1134.15 -670.068)" fill="#ffd5ca"/>
        <path id="Trazado_702938" data-name="Trazado 702938" d="M1224.307,981.692c-.7.1-1.334-.618-1.375-1.564-.04-.9-.039-1.8,0-2.692q.013-.282.032-.563c.063-.945.714-1.592,1.411-1.4a1.7,1.7,0,0,1,1,1.8q-.015.235-.026.469c-.035.755-.036,1.517,0,2.279a1.5,1.5,0,0,1-1.043,1.669Z" transform="translate(-1106.035 -840.155)" fill="#514020"/>
        <path id="Trazado_702939" data-name="Trazado 702939" d="M1434.834,588.516c-.741.228-.664,1.163-.682,1.372-.053.62.262.821.237,1.478-.017.445-.165.435-.177.828a1.791,1.791,0,0,0,1.76,2.006c.615,0,.558-1.428.6-2.479.066-1.51-1.2-3.373-1.742-3.2" transform="translate(-1287.982 -506.887)" fill="#f9f9f9"/>
        <path id="Trazado_702940" data-name="Trazado 702940" d="M1310.369,942.731a3.8,3.8,0,0,0-1.077.21c-.645.39.009,1.516.08,2.362.086,1.033,1.922,4.931,3.09,4.7.81-.161.981-1.883.827-3.328-.213-2-1.68-3.911-2.92-3.943" transform="translate(-1180.201 -811.985)" fill="#327cc6"/>
        <path id="Trazado_702941" data-name="Trazado 702941" d="M1251.254,937.255c-.849.176-3.405,2.172-4.73,2.523a4.14,4.14,0,0,1-1.961-.055c-1.5-.3-1.809-.935-2.7-.81-.5.07-.854.373-1.557.981a8.12,8.12,0,0,0-2.017,2.764,3.325,3.325,0,0,0-.389,1.01,3.446,3.446,0,0,0,1.075,2.565,3.878,3.878,0,0,0,1.8,1.274,2.193,2.193,0,0,0,1.393.128,5.514,5.514,0,0,0,2.022-1.8s.023,0,.858,0a11.279,11.279,0,0,0,1.846-.049c.337-.108.365-.219,1.462-1.13.576-.478.863-.717,1.078-.868,1.481-1.041,2.791-.344,3.209-.953.729-1.065.4-5.952-1.387-5.582" transform="translate(-1118.934 -807.252)" fill="#eb8e6c"/>
        <path id="Trazado_702942" data-name="Trazado 702942" d="M1424.3,1502.082a6.31,6.31,0,0,0-7.147-.693c-1.047.676-.938,1.276-2.72,2.614a17.635,17.635,0,0,1-2.56,1.547,31.061,31.061,0,0,1-3.733,1.653c-1.58.583-4.281,1.105-5.28,1.387a.988.988,0,0,0-.64.427,6.929,6.929,0,0,0-.213,1.653c.07.644,1.384,1.009,1.6,1.067a21.725,21.725,0,0,0,6.24.48c3.216-.23,4.1-.309,5.813-.427,3.089-.213,4.634-.32,5.067-.32,3.217,0,4.377.417,5.12-.427.507-.577.516-1.433.533-3.147a8.773,8.773,0,0,0-.267-2.613,6.644,6.644,0,0,0-1.813-3.2" transform="translate(-1260.3 -1292.472)" fill="#17253f"/>
        <path id="Trazado_702943" data-name="Trazado 702943" d="M1424.3,1502.082a6.309,6.309,0,0,0-7.147-.693c-.777.5-.918.962-1.667,1.712a6.546,6.546,0,0,0,3.616,1.83c1.151.145,2.111-.123,2.574.468.592.756-.154,2.256-.312,2.574-1.486,2.987-12.41,2.621-19.327,2.1a4.149,4.149,0,0,0-.031.6c.07.644,1.383,1.009,1.6,1.067a21.724,21.724,0,0,0,6.24.48c3.216-.23,4.1-.309,5.814-.427,3.089-.213,4.634-.32,5.067-.32,3.217,0,4.378.417,5.12-.427.508-.577.516-1.433.533-3.147a8.773,8.773,0,0,0-.267-2.613,6.644,6.644,0,0,0-1.813-3.2" transform="translate(-1260.3 -1292.472)" fill="#0c1628"/>
        <path id="Trazado_702944" data-name="Trazado 702944" d="M1422.063,1561.427c-1.058.056-2.617.182-4.32.32-3.276.266-3.528.336-5.067.427a37.6,37.6,0,0,1-5.974.053,25.06,25.06,0,0,1-4.489-.832,7.218,7.218,0,0,0-.2,1.632c.07.644,1.383,1.009,1.6,1.067a21.713,21.713,0,0,0,6.24.48c3.216-.23,4.1-.309,5.813-.427,3.089-.213,4.634-.32,5.067-.32,3.217,0,4.378.417,5.12-.427a2.981,2.981,0,0,0,.512-1.965,40.354,40.354,0,0,0-4.3-.009" transform="translate(-1260.3 -1344.83)" fill="#04041c"/>
        <path id="Trazado_702945" data-name="Trazado 702945" d="M1488.086,1159.733c-.567-7.137-13.9-1.6-12.981,4.2.762,4.82,1.69,11.813,2.061,14.628,1.026,7.789,1.626,21.755.781,25.705-.565,2.641,11.124,3.058,11.231,1.872.741-8.2,1.75-13.881.711-28.4-.837-11.684-.819-5.627-1.8-18" transform="translate(-1323.221 -995.986)" fill="#121251"/>
        <path id="Trazado_702946" data-name="Trazado 702946" d="M1537.093,1509.368c-2.523-1.437-6.337,1.177-6.56,1.333-1.133.8-.955,1.1-2.72,2.453a23.442,23.442,0,0,1-3.787,2.347,32.626,32.626,0,0,1-3.573,1.494,20.546,20.546,0,0,0-3.787,1.547,16.578,16.578,0,0,0-.373,2.027c.156.339.565.43.747.533,5.067,2.88,22.368-.786,22.774-1.28.342-.416-.039-4.24-.213-4.96-.745-3.082-1.138-4.714-2.507-5.493" transform="translate(-1358.734 -1299.667)" fill="#1e2f47"/>
        <path id="Trazado_702947" data-name="Trazado 702947" d="M1614.754,1509.368c-2.523-1.437-6.337,1.177-6.56,1.333a13.769,13.769,0,0,0-1.737,1.636,6.773,6.773,0,0,0,3,1.449c1.979.376,3.5-.371,4.368.546a2.459,2.459,0,0,1,.468,1.872c-.087,1.5-1.188,3.278-2.56,4.946a29.831,29.831,0,0,0,5.738-1.329c.342-.416-.039-4.24-.213-4.96-.745-3.082-1.139-4.714-2.507-5.493" transform="translate(-1436.395 -1299.667)" fill="#131e35"/>
        <path id="Trazado_702948" data-name="Trazado 702948" d="M1535.332,1571.532a58.818,58.818,0,0,1-9.6,1.28,24.16,24.16,0,0,1-6.027-.32,19.655,19.655,0,0,1-3.045-.9,17.246,17.246,0,0,0-.368,2.016c.156.34.565.43.747.533,5.067,2.88,22.368-.786,22.774-1.28a6.188,6.188,0,0,0,.088-2.343c-1.174.289-2.73.648-4.568,1.009" transform="translate(-1358.733 -1352.71)" fill="#04041c"/>
        <path id="Trazado_702949" data-name="Trazado 702949" d="M1490.736,952.373a44.007,44.007,0,0,0,2.282-9.36c1.159-7.093,1.98-7.715,1.893-12.18-.048-2.469-.125-6.367-3.011-9.083-1.993-1.875-5.434-3.289-8.3-2.169-1.288.5-3.924,4.247-5.016,10.542-2.241,12.919-3.718,26.553-3.022,30.976s3.565-.363,7.125.01c1.781.187,2.619-.31,4.359-2.38a21.106,21.106,0,0,0,3.694-6.356" transform="translate(-1323.501 -791.704)" fill="#121251"/>
        <path id="Trazado_702950" data-name="Trazado 702950" d="M1553.378,1099.865c-6.1,13.09.505,35.506-1.1,50.851-.185,1.771-.484,4.28-.975,7.3,1.712-.018,3.019-.235,3.055-.629.741-8.2,1.751-13.881.711-28.4-.837-11.684-1.131-15.839.155-19.033.027-.068-1.258-11.358-1.849-10.089" transform="translate(-1388.404 -947.241)" fill="#080835"/>
        <path id="Trazado_702951" data-name="Trazado 702951" d="M1590.1,919.107c-.312-2.557-.806-6.594-3.968-9.065-2.183-1.706-5.757-2.759-8.492-1.252a13.847,13.847,0,0,0-6.413,10.862,151.536,151.536,0,0,0,1.592,35.976c.375,2.679,5.791-3.6,8.361-3.625,1.792-.021,2,4.4,3.506,2.037,1.656-2.589,5.978-30.309,5.413-34.934" transform="translate(-1405.708 -782.128)" fill="#191960"/>
        <path id="Trazado_702952" data-name="Trazado 702952" d="M1590.64,1154.345c-.663-7.129-13.614-3.5-12.86,2.324.924,7.137,1.742,12.186,1.838,12.656.218,1.064.585,2.95.993,5.76,1.13,7.775,1.916,21.731,1.124,25.693-.53,2.648,11.164,2.909,11.255,1.721.631-8.21,1.565-13.9.332-28.407-.992-11.672-1.534-7.388-2.682-19.746" transform="translate(-1411.668 -990.858)" fill="#191960"/>
        <path id="Trazado_702953" data-name="Trazado 702953" d="M1329.118,709.505c-4.148,6.556-3.286,22.257-3.742,22.777-3.926,4.481-14.8,9.344-14.4,9.56,4.081,2.182,3.17,7.062,3.17,7.062,4.008-.19,17.7-8.847,18.89-10.826a14.074,14.074,0,0,0,1.584-4.492c.779-3.28,1.714-7.219.137-10.6-2.58-5.521-4.4-15.449-5.638-13.485" transform="translate(-1181.884 -610.887)" fill="#5da9e2"/>
        <path id="Trazado_702954" data-name="Trazado 702954" d="M1454.763,624.357a13.837,13.837,0,0,0,3.342,2.015,11.451,11.451,0,0,0,3.341.885,16.209,16.209,0,0,1,4.226,1.376c4.919,2.281,6.737,7.62,6.879,8.059a16.33,16.33,0,0,1,.491,2.064,30.992,30.992,0,0,1,.491,8.354c-.01.151.387,6.063,1.179,17.887.2,2.909,1.188,15.949.089,16.214-11,2.657-24.023,3-31.953-.075-.611-.237-2.509-23.616-2.927-25.181-.786-2.937-1.166-2.989-2.162-6.192a65.167,65.167,0,0,1-1.671-8.649,7.464,7.464,0,0,1,.2-4.029,6.655,6.655,0,0,1,1.573-2.359,47.258,47.258,0,0,1,7.371-5.9c5.512-3.481,8.413-5.483,9.533-4.472" transform="translate(-1289.497 -537.54)" fill="#65beef"/>
        <path id="Trazado_702955" data-name="Trazado 702955" d="M1482.006,640.643l1.3-3.039,3.875,2.572s9.5-3.4,8.386-13.779l-.058-.025a13.845,13.845,0,0,1-3.342-2.015c-1.12-1.011-4.021.99-9.533,4.472,0,0-1.259.795-2.924,2.053-1.577,8.314,2.293,9.762,2.293,9.762" transform="translate(-1326.904 -537.54)" fill="#4096dd"/>
        <path id="Trazado_702956" data-name="Trazado 702956" d="M1493.99,597.336c-.276-.6-.638-.5-1.35-1.44-1.893-2.487-1.219-5.644-1.529-5.668-.25-.019-.416,2.041-1.08,4.319-.69,2.366-1.6,5.492-4.049,7.017-2.389,1.49-5.229.821-5.308,1.53-.055.488,1.312.64,2.429,2.069,1.043,1.334.663,2.239,1.26,2.609,2.088,1.294,11.181-7.058,9.627-10.436" transform="translate(-1328.057 -508.37)" fill="#eb8e6c"/>
        <path id="Trazado_702957" data-name="Trazado 702957" d="M1491.163,592.436c.032-.4.057-.863.059-1.382-.013-.5-.014-.819-.111-.826-.25-.019-.416,2.041-1.08,4.319-.69,2.366-1.6,5.492-4.049,7.017-2.389,1.49-5.229.821-5.308,1.53-.055.488,1.312.64,2.429,2.069.045.058.087.115.127.171a9.04,9.04,0,0,0,1.045-.4c5.8-2.619,6.735-10.636,6.887-12.5" transform="translate(-1328.057 -508.37)" fill="#c36252"/>
        <path id="Trazado_702958" data-name="Trazado 702958" d="M1440.7,547.884a5.583,5.583,0,0,0,.27,2.879c.38.9.973.979,1.08,2.069a13.287,13.287,0,0,0,3.329,7.827,3.138,3.138,0,0,0,2.339.54c3.913-.251,7.8-4.927,9.177-9.537a10.126,10.126,0,0,0,.45-4.408A8.6,8.6,0,0,0,1455,542.4a8.457,8.457,0,0,0-14.3,5.488" transform="translate(-1293.566 -465.217)" fill="#eb8e6c"/>
        <path id="Trazado_702959" data-name="Trazado 702959" d="M1633.362,710.733a31,31,0,0,0-.491-8.354,16.313,16.313,0,0,0-.491-2.064,14.362,14.362,0,0,0-1.057-2.351c-7.183,2.108-9.413,4.563-9.8,6.712-.423,2.377,1.5,3.848,2.906,9.589a38.51,38.51,0,0,1,.726,13.076c-.29,3.58.754,16.2-.166,19.164a89.3,89.3,0,0,0,9.638-1.672c1.105-.237.106-13.305-.089-16.214-.793-11.824-1.189-17.735-1.179-17.887" transform="translate(-1449.324 -601.165)" fill="#5da9e2"/>
        <path id="Trazado_702960" data-name="Trazado 702960" d="M1494.47,709.024a1.683,1.683,0,0,0-.581.533c-.6,1.062.937,3.868,2.47,3.729,1.335-.121,2.545-2.463,1.84-3.632-.45-.748-1.6-.872-2.034-.92a2.568,2.568,0,0,0-1.7.291" transform="translate(-1339.324 -610.414)" fill="#0e4d99"/>
        <path id="Trazado_702961" data-name="Trazado 702961" d="M1503.629,635.453a23.183,23.183,0,0,0,3.72-1.706,11.375,11.375,0,0,0,3.923-4.456c1.338-2.739,1.614-4.585,1.264-5.514-.329-.874,3.545,1.963,3.545,1.963s.954,5.1-5.2,10.962a6.091,6.091,0,0,1-3.826,1.744s-4.2-2.3-3.43-2.992" transform="translate(-1347.748 -537.123)" fill="#65beef"/>
        <path id="Trazado_702962" data-name="Trazado 702962" d="M1485.814,699.8c.369.209-.292.494-.775,1.453-.589,1.17-.453,1.821-.742,1.873-.464.083-1.181-1.528-1.453-2.906-.057-.289-.663-2.17-.154-2.408,0,0,.94-.11,1.169.131.646.682,1.233,1.358,2.063,1.2.138-.027-.259.576-.107.662" transform="translate(-1329.619 -601.008)" fill="#65beef"/>
        <path id="Trazado_702963" data-name="Trazado 702963" d="M1500.472,731.609c-2.642.274-.969,19.276-.969,19.276l3.778,3.971,2.228-4.359s-2.387-19.164-5.037-18.888" transform="translate(-1343.825 -630.141)" fill="#0e4d99"/>
        <path id="Trazado_702964" data-name="Trazado 702964" d="M1419.518,874.86h0a.408.408,0,0,1-.552-.082,11.065,11.065,0,0,0-2.261-2.075,10.924,10.924,0,0,0-.948-.582.413.413,0,0,1-.189-.528.387.387,0,0,1,.543-.164,11.805,11.805,0,0,1,3.463,2.866.39.39,0,0,1-.055.566" transform="translate(-1271.95 -750.527)" fill="#4096dd"/>
        <path id="Trazado_702965" data-name="Trazado 702965" d="M1478.521,611.423h0a.331.331,0,0,0-.328-.346,9.994,9.994,0,0,0-3.6.611.33.33,0,0,0,.223.621,9.339,9.339,0,0,1,3.369-.572.328.328,0,0,0,.331-.313" transform="translate(-1322.636 -526.326)" fill="#f9f9f9"/>
        <path id="Trazado_702966" data-name="Trazado 702966" d="M1466.69,627.34q.179-.05.378-.122a.155.155,0,0,0,.1-.2h0a.161.161,0,0,0-.206-.079c-.682.249-1.175.276-1.4.074-.18-.165-.164-.464-.133-1.059.011-.214.024-.457.03-.743a15.829,15.829,0,0,0-.063-1.793.152.152,0,0,0-.179-.128.163.163,0,0,0-.147.169,15.628,15.628,0,0,1,.063,1.762c-.006.282-.018.523-.03.735-.034.66-.053,1.023.223,1.277a1.419,1.419,0,0,0,1.359.11" transform="translate(-1314.621 -536.844)" fill="#c36252"/>
        <path id="Trazado_702967" data-name="Trazado 702967" d="M1484.269,620c.067.4.328.682.582.639s.405-.4.338-.8-.328-.682-.582-.639-.405.4-.338.8" transform="translate(-1331.14 -533.323)" fill="#49302a"/>
        <path id="Trazado_702968" data-name="Trazado 702968" d="M1453.851,625.441c.063.371.307.639.544.6s.38-.374.317-.745-.307-.639-.544-.6-.38.374-.317.745" transform="translate(-1304.941 -538.055)" fill="#49302a"/>
        <path id="Trazado_702969" data-name="Trazado 702969" d="M1447.437,618.99h0a.313.313,0,0,0-.259-.334,6.848,6.848,0,0,0-.884,0,7.269,7.269,0,0,0-1.162.176.3.3,0,0,0-.183.37h0a.275.275,0,0,0,.306.235,6.875,6.875,0,0,1,1.1-.167,6.463,6.463,0,0,1,.83,0,.257.257,0,0,0,.25-.28" transform="translate(-1297.278 -532.846)" fill="#f9f9f9"/>
        <path id="Trazado_702970" data-name="Trazado 702970" d="M1507.91,555.781c-.886-1.035-1.924-1.289-2.462-.534-.26.365-.287.915-.718.957-.343.033-.695-.214-1.213-.147a2.037,2.037,0,0,0-1.9,2.2h0s-1.226.328-1.3,1.379a3.64,3.64,0,0,0,.673,1.891c.071.1.7,1.005,1.371,1.1.736.1.758-.866,1.434-.656.429.133.5.549,1.033.784.554.246,1.038-1.1,1.359-1.1,1.245,0,.563,1.8,1.241,2.411.746.671,5.025-2.965.473-8.284" transform="translate(-1344.98 -477.865)" fill="#f9f9f9"/>
        <path id="Trazado_702971" data-name="Trazado 702971" d="M1526.5,605.121c.027-.053.553-1.04,1.287-.961.707.076,1.168,1.093,1.3,1.759.321,1.592-.771,3.448-1.549,3.357-.865-.1-1.81-2.664-1.04-4.156" transform="translate(-1367.281 -520.367)" fill="#eb8e6c"/>
        <path id="Trazado_702972" data-name="Trazado 702972" d="M1530.417,618.2c.224-.038.405-.371.5-.58a1.7,1.7,0,0,0,.013-1.655.809.809,0,0,0-.948-.227.9.9,0,0,0-.457.692.187.187,0,0,0,.172.219.165.165,0,0,0,.155-.152.551.551,0,0,1,.274-.425.494.494,0,0,1,.564.135.986.986,0,0,1,.073.808,2.591,2.591,0,0,1-.391.823s.413-.643,0,0c-.242.378.022.365.046.361" transform="translate(-1370.131 -530.284)" fill="#c36252"/>
        <path id="Trazado_702973" data-name="Trazado 702973" d="M1528.071,609.5a.18.18,0,0,1,.116-.232h0a.172.172,0,0,1,.2.129c.067.222.132.249.274.225h0c.285-.049.38-.332.44-.631.022-.11.041-.2.14-.239a2.75,2.75,0,0,0,.838-2.133,2.714,2.714,0,0,0-.355-1.5,1.014,1.014,0,0,0-.479-.478.781.781,0,0,0-.6.056,1.3,1.3,0,0,0-.636.738.154.154,0,0,1-.2.094.193.193,0,0,1-.1-.248,1.628,1.628,0,0,1,.807-.923,1.072,1.072,0,0,1,.829-.063,1.351,1.351,0,0,1,.657.629,3.12,3.12,0,0,1,.413,1.715,3.154,3.154,0,0,1-.982,2.425l0,.016c-.045.221-.163.809-.7.9h0c-.413.07-.572-.224-.65-.482m1.279-.4h0Z" transform="translate(-1368.552 -520.438)" fill="#c36252"/>
        <path id="Trazado_702974" data-name="Trazado 702974" d="M1529.954,622.026c-.013.056.161.1.316.276.3.347.218.855.286.859.05,0,.125-.277.09-.562a.762.762,0,0,0-.24-.537c-.182-.134-.437-.1-.452-.037" transform="translate(-1370.502 -535.71)" fill="#c36252"/>
        <path id="Trazado_702975" data-name="Trazado 702975" d="M1260.542,1033.983h0a1.158,1.158,0,0,1-1.191-1.123c.079-4.56.378-22.522.518-40.683.29-37.712-.355-43.814-.655-44.658a2.432,2.432,0,0,0-1.182-1,1.6,1.6,0,0,1,1.747-1.223c.794,0,.938.1,1.593,1.219.373.639,1.247,2.136.923,45.135-.138,18.357-.442,36.638-.522,41.246a1.165,1.165,0,0,1-1.231,1.087m-1.336-86.484h0Z" transform="translate(-1136.293 -814.195)" fill="#514020"/>
        <path id="Trazado_702976" data-name="Trazado 702976" d="M1555.091,703.86c-.628.078-.135,7.63.152,10.938.238,2.746.148.428,1.845,10.548a9.806,9.806,0,0,0,2.184,5.354,9.063,9.063,0,0,0,2.748,1.983c1.952,1.022,4.909,2.351,5.684,1.336,0,0,.2-4.058.046-5.149-.341-2.454-5-2.907-7.245-6.993-5.123-9.31-4.742-18.1-5.415-18.017" transform="translate(-1391.891 -606.243)" fill="#60b5ef"/>
        <path id="Trazado_702977" data-name="Trazado 702977" d="M1598.713,707.292c4.763,5.808,12.281.589,12.588-3.637.132-1.815.061-1.513.245-5.172.064-1.285.655-10.52-.219-13.658-1.706-6.124-10.749-.981-12.162,4.569-1.082,4.25,1.607,10.4,2.866,14.785.637,2.218-5.545.531-3.318,3.114" transform="translate(-1429.307 -587.459)" fill="#65beef"/>
        <path id="Trazado_702978" data-name="Trazado 702978" d="M1222.757,945.8a6.787,6.787,0,0,1,.841-4.256,5.856,5.856,0,0,1,1.951-2.022,4.16,4.16,0,0,1,1.166-.528c.977-.26,3.055-.121,3.816,1.339l-1.918,1.219a1.815,1.815,0,0,0-1.276-.217,1.849,1.849,0,0,0-.513.247,3.515,3.515,0,0,0-1.148,1.207,9.018,9.018,0,0,0-.513,4.061Z" transform="translate(-1105.864 -808.676)" fill="#514020"/>
        <path id="Trazado_702979" data-name="Trazado 702979" d="M1252.569,951.038c-.956.608,2.79,1.06,2.4,4.346a2,2,0,0,0-.308.782,1.338,1.338,0,0,0,.565.87c.679.38,1.5-.367,2.138-1.323s1.2-3.23.187-4.449c-1.555-1.865-2.708-1.671-4.981-.225" transform="translate(-1131.452 -818.168)" fill="#ef9478"/>
        <path id="Trazado_702980" data-name="Trazado 702980" d="M1261.288,960.938a7.241,7.241,0,0,1-1.2-1.784,1.8,1.8,0,0,1,.05-.744.288.288,0,0,0-.177-.341.292.292,0,0,0-.386.2,2.368,2.368,0,0,0-.061.975c.112.724.619,1.276,1.539,2.276.143.155.138.515.229.61a1.54,1.54,0,0,0,0-1.19" transform="translate(-1137.552 -825.179)" fill="#c36252"/>
        <path id="Trazado_702981" data-name="Trazado 702981" d="M1269.665,973.326q-.068.155-.145.3a5.063,5.063,0,0,1-1.155,1.468,1.757,1.757,0,0,1-.586.39,1.281,1.281,0,0,1-1.009.024,1.224,1.224,0,0,1-.595-.652,1.44,1.44,0,0,1-.078-.893,1.223,1.223,0,0,1,.2-.429,1.717,1.717,0,0,0,.194-.36,2.032,2.032,0,0,0,.126-.508l-.64-1.682.968,1.2a1.309,1.309,0,0,1-.093,1.132,2.081,2.081,0,0,1-.233.434.849.849,0,0,0-.148.305,1.062,1.062,0,0,0,.057.647.846.846,0,0,0,.4.454.9.9,0,0,0,.708-.033,1.4,1.4,0,0,0,.463-.313,4.713,4.713,0,0,0,1.074-1.362,4.871,4.871,0,0,0,.356-.894.194.194,0,1,1,.373.106,5.3,5.3,0,0,1-.239.662" transform="translate(-1143.137 -836.323)" fill="#c36252"/>
        <path id="Trazado_702982" data-name="Trazado 702982" d="M1468.017,659.635c.059-.146.4-.016,1.005-.089,1.286-.154,2.009-1.02,2.128-.887s-.591,1.873-1.773,1.862c-.708-.007-1.457-.648-1.36-.887" transform="translate(-1317.148 -567.299)" fill="#c36252"/>
        <path id="Trazado_702983" data-name="Trazado 702983" d="M1548.463,584.484c-.362.008-.726-.951-.83-1.577a5.727,5.727,0,0,1,.208-1.992c.151-.832.227-1.247.373-1.95a14.257,14.257,0,0,0,.456-2.49,8.729,8.729,0,0,0-.166-1.66c-.243-1.823-1.116-5.01.109-5.2.241-.037.9,3.684,1.136,6.28.392,4.227-.52,8.573-1.286,8.589" transform="translate(-1385.706 -490.616)" fill="#c36252"/>
        <path id="Trazado_702984" data-name="Trazado 702984" d="M1553.407,592.714a5.648,5.648,0,0,1-1.011-3.047,10.59,10.59,0,0,0-.954-3.129c-.092-.261-.2-.487-.443-1.162a11.586,11.586,0,0,1-.387-1.162c-.136-.652.059-.969.387-2.324.249-1.026.373-1.815.443-2.268a17.954,17.954,0,0,0,.221-2.158,10.293,10.293,0,0,0-.055-1.715,16.564,16.564,0,0,0-.387-1.715c-.445-1.972-.167-1.646-.442-2.877a2.064,2.064,0,0,1,0-.885c.033-.15.141-.633.387-.664.175-.022.368.191.443.387.088.228-.01.362,0,.664a1.945,1.945,0,0,0,.221.719c.249.569.4.727.719,1.328.04.076.235.447.443.941.156.37.254.657.443,1.217.3.881.268.89.443,1.328a6.586,6.586,0,0,1,.332.83,4.344,4.344,0,0,1,.111,1.107,10.077,10.077,0,0,1-.055,1.162c-.133,1.2-.162,2.369-.166,2.711a13.668,13.668,0,0,0,.277,2.711,21.558,21.558,0,0,0,.719,2.877,20.487,20.487,0,0,0,.885,2.324c.821,1.805,1.271,2.057,1.106,2.434-.433.99-2.761,2-3.679.366" transform="translate(-1388.259 -490.609)" fill="#eb8e6c"/>
        <path id="Trazado_702985" data-name="Trazado 702985" d="M1558.823,596.03a.055.055,0,0,1-.064-.045c-.071-.407-.161-.808-.266-1.195-.136-.5-.337-1.116-.423-1.38l-.019-.059a5.437,5.437,0,0,1-.279-1.134c-.008-.072-.017-.15-.036-.306v-.007a2.713,2.713,0,0,0-.125-.7c-.056-.136-.134-.323-.25-.335s-.242.146-.294.263a.664.664,0,0,0-.033.369v.008c.025.217.035.438.045.651.008.156.015.318.029.475.016.2.028.405.035.611a.056.056,0,0,1-.054.057.055.055,0,0,1-.057-.054c-.007-.2-.019-.408-.035-.606-.013-.16-.021-.322-.029-.479-.01-.212-.021-.431-.045-.644v-.008a.766.766,0,0,1,.042-.427c.055-.123.21-.349.407-.328.182.02.273.241.34.4a2.733,2.733,0,0,1,.133.734v.007c.019.156.028.234.036.307a5.369,5.369,0,0,0,.274,1.111l.019.058c.086.265.288.884.425,1.386.106.39.2.795.268,1.2A.055.055,0,0,1,1558.823,596.03Z" transform="translate(-1393.721 -508.823)" fill="#c36252"/>
        <path id="Trazado_702986" data-name="Trazado 702986" d="M1560.018,586.066a.055.055,0,0,1-.072-.032c-.087-.227-.173-.458-.257-.687-.186-.507-.294-.827-.39-1.11-.078-.229-.145-.427-.237-.679-.116-.317-.311-.771-.7-1.675l-.089-.206a12.52,12.52,0,0,1-.633-1.682c-.057-.2-.109-.408-.155-.613a.055.055,0,1,1,.108-.024c.045.2.1.406.154.607a12.4,12.4,0,0,0,.628,1.668l.089.206c.389.906.584,1.361.7,1.681.093.253.16.452.238.682.1.282.2.6.389,1.107.084.229.17.459.257.686a.055.055,0,0,1-.032.071" transform="translate(-1394.215 -498.971)" fill="#c36252"/>
        <path id="Trazado_702987" data-name="Trazado 702987" d="M1560.976,591.638a.179.179,0,0,1-.166-.055c-.048-.048-.054-.108-.055-.332a2.232,2.232,0,0,1,.014-.387c.019-.09.061-.294.152-.3.057-.007.114.066.138.111a.311.311,0,0,1,.028.194c-.06.43.02.727-.111.775" transform="translate(-1397.031 -508.655)" fill="#fff2ee"/>
        <path id="Trazado_702988" data-name="Trazado 702988" d="M1564.816,692.282c-.532-5.048-5.471-15.076-8.053-21.167-.325-.768-4.545,1.283-5.921,1.774-.981.35,3.62,20.614,4.593,22.126,4.735,7.358,10.064,3.744,9.381-2.733" transform="translate(-1388.376 -577.893)" fill="#6bc9f2"/>
        <path id="Trazado_702989" data-name="Trazado 702989" d="M1149.346,166.893h-14.654v19.162h14.654l12.806,11.774V155.118Z" transform="translate(-1030.058 -133.605)" fill="#fff"/>
        <path id="Trazado_702990" data-name="Trazado 702990" d="M1361.623,253.678h0a1.264,1.264,0,0,1-.2-1.7,14.108,14.108,0,0,0,2.664-9.987,13.389,13.389,0,0,0-2.52-6.153,1.261,1.261,0,0,1,.191-1.7h0a1.265,1.265,0,0,1,1.851.208,15.906,15.906,0,0,1,2.984,7.306,16.67,16.67,0,0,1-3.114,11.794,1.264,1.264,0,0,1-1.853.228" transform="translate(-1225.137 -201.402)" fill="#fff"/>
        <path id="Trazado_702991" data-name="Trazado 702991" d="M1402.564,222.386h0a1.263,1.263,0,0,1-.365-1.7,28.2,28.2,0,0,0,3.915-17.422,25.781,25.781,0,0,0-3.728-10.918,1.265,1.265,0,0,1,2.143-1.344,28.316,28.316,0,0,1,4.1,11.99,30.022,30.022,0,0,1-1.707,13.653,30.647,30.647,0,0,1-2.56,5.355,1.264,1.264,0,0,1-1.8.383" transform="translate(-1260.308 -164.005)" fill="#fff"/>
        <path id="Trazado_702992" data-name="Trazado 702992" d="M1202.227,175.9l-42.09-43.2a1.485,1.485,0,0,1,2.128-2.073l42.09,43.2a1.485,1.485,0,0,1-.027,2.1h0a1.485,1.485,0,0,1-2.1-.027" transform="translate(-1051.612 -112.128)" fill="#7fbfef"/>
      </g>
    </g>
    <rect id="Rectángulo_345534" data-name="Rectángulo 345534" width="464" height="367" transform="translate(741 -12682)" fill="none"/>
  </g>
</svg>
