<svg xmlns="http://www.w3.org/2000/svg" xmlns:xlink="http://www.w3.org/1999/xlink" width="464" height="367" viewBox="0 0 464 367">
  <defs>
    <clipPath id="clip-path">
      <rect id="Rectángulo_345170" data-name="Rectángulo 345170" width="315.051" height="294.36" fill="none"/>
    </clipPath>
    <clipPath id="clip-path-2">
      <rect id="Rectángulo_345149" data-name="Rectángulo 345149" width="315.051" height="294.361" fill="none"/>
    </clipPath>
    <clipPath id="clip-path-4">
      <rect id="Rectángulo_345150" data-name="Rectángulo 345150" width="10.389" height="73.491" fill="none"/>
    </clipPath>
    <clipPath id="clip-path-5">
      <rect id="Rectángulo_345151" data-name="Rectángulo 345151" width="37.751" height="11.008" fill="none"/>
    </clipPath>
    <clipPath id="clip-path-6">
      <rect id="Rectángulo_345153" data-name="Rectángulo 345153" width="36.825" height="89.699" fill="none"/>
    </clipPath>
    <clipPath id="clip-path-7">
      <rect id="Rectángulo_345154" data-name="Rectángulo 345154" width="38.017" height="22.991" fill="none"/>
    </clipPath>
    <clipPath id="clip-path-8">
      <rect id="Rectángulo_345155" data-name="Rectángulo 345155" width="24.11" height="21.745" fill="none"/>
    </clipPath>
    <clipPath id="clip-path-9">
      <rect id="Rectángulo_345156" data-name="Rectángulo 345156" width="33.99" height="27.894" fill="none"/>
    </clipPath>
    <clipPath id="clip-path-10">
      <rect id="Rectángulo_345157" data-name="Rectángulo 345157" width="21.344" height="4.925" fill="none"/>
    </clipPath>
    <clipPath id="clip-path-11">
      <rect id="Rectángulo_345158" data-name="Rectángulo 345158" width="29.487" height="34.34" fill="none"/>
    </clipPath>
    <clipPath id="clip-path-12">
      <rect id="Rectángulo_345159" data-name="Rectángulo 345159" width="13.933" height="19.715" fill="none"/>
    </clipPath>
    <clipPath id="clip-path-13">
      <rect id="Rectángulo_345160" data-name="Rectángulo 345160" width="19.951" height="2.636" fill="none"/>
    </clipPath>
    <clipPath id="clip-path-14">
      <rect id="Rectángulo_345161" data-name="Rectángulo 345161" width="10.624" height="3.545" fill="none"/>
    </clipPath>
    <clipPath id="clip-path-15">
      <rect id="Rectángulo_345162" data-name="Rectángulo 345162" width="6.883" height="11.977" fill="none"/>
    </clipPath>
    <clipPath id="clip-path-16">
      <rect id="Rectángulo_345163" data-name="Rectángulo 345163" width="14.712" height="6.542" fill="none"/>
    </clipPath>
    <clipPath id="clip-path-17">
      <rect id="Rectángulo_345164" data-name="Rectángulo 345164" width="5.016" height="10.688" fill="none"/>
    </clipPath>
    <clipPath id="clip-path-18">
      <rect id="Rectángulo_345165" data-name="Rectángulo 345165" width="14.558" height="3.865" fill="none"/>
    </clipPath>
    <clipPath id="clip-path-19">
      <rect id="Rectángulo_345166" data-name="Rectángulo 345166" width="40.198" height="37.036" fill="none"/>
    </clipPath>
  </defs>
  <g id="Grupo_1000164" data-name="Grupo 1000164" transform="translate(-2305 12682)">
    <g id="Grupo_1000158" data-name="Grupo 1000158" transform="translate(2379 -12646)">
      <g id="Grupo_999387" data-name="Grupo 999387" clip-path="url(#clip-path)">
        <path id="Trazado_703281" data-name="Trazado 703281" d="M229.95,493.375l64.816-.446.224,32.479-6.871.047.066,9.589-8.318-9.533-49.692.342Z" transform="translate(-190.907 -409.235)" fill="#f0f2f5"/>
        <path id="Trazado_703282" data-name="Trazado 703282" d="M569.674,354.482l36.558-.252.126,18.319-3.876.027.037,5.409-4.692-5.377L569.8,372.8Z" transform="translate(-472.95 -294.086)" fill="#f0f2f5"/>
        <path id="Trazado_703283" data-name="Trazado 703283" d="M263.4,86.406l53.557-.369L316.776,59.2l-5.678.039-.054-7.924-6.764,7.971-41.06.283Z" transform="translate(-218.528 -42.603)" fill="#f0f2f5"/>
        <path id="Trazado_703284" data-name="Trazado 703284" d="M396.695,178.432l51.815-.357.179,25.964-5.493.038.053,7.666-6.65-7.621-39.725.274Z" transform="translate(-329.34 -147.84)" fill="#fff"/>
        <path id="Trazado_703285" data-name="Trazado 703285" d="M442.973,211.587l-6.753-7.739-39.763.274-.18-26.105,51.956-.357.18,26.1-5.493.038ZM396.6,203.98l39.687-.273,6.547,7.5-.052-7.547,5.493-.038-.178-25.824-51.675.356Z" transform="translate(-328.993 -147.494)" fill="#1f4068"/>
        <g id="Grupo_999334" data-name="Grupo 999334" transform="translate(0 0)">
          <g id="Grupo_999333" data-name="Grupo 999333" clip-path="url(#clip-path-2)">
            <path id="Trazado_703286" data-name="Trazado 703286" d="M629.117,246.275a1.78,1.78,0,1,0,1.768-1.792,1.78,1.78,0,0,0-1.768,1.792" transform="translate(-522.3 -202.972)" fill="#1f4068"/>
            <path id="Trazado_703287" data-name="Trazado 703287" d="M569.254,246.687a1.78,1.78,0,1,0,1.768-1.792,1.78,1.78,0,0,0-1.768,1.792" transform="translate(-472.601 -203.314)" fill="#1f4068"/>
            <path id="Trazado_703288" data-name="Trazado 703288" d="M509.392,247.1a1.78,1.78,0,1,0,1.768-1.792,1.78,1.78,0,0,0-1.768,1.792" transform="translate(-422.903 -203.656)" fill="#1f4068"/>
            <path id="Trazado_703289" data-name="Trazado 703289" d="M449.53,247.511a1.78,1.78,0,1,0,1.768-1.792,1.78,1.78,0,0,0-1.768,1.792" transform="translate(-373.204 -203.998)" fill="#1f4068"/>
            <path id="Trazado_703290" data-name="Trazado 703290" d="M50.551,274.7l81.936-.564.283,41.058-8.686.06.084,12.122L113.652,315.33l-62.818.432Z" transform="translate(-41.968 -227.594)" fill="#1f4068"/>
            <path id="Trazado_703291" data-name="Trazado 703291" d="M418.083,381.986a2.815,2.815,0,1,0,2.8-2.834,2.815,2.815,0,0,0-2.8,2.834" transform="translate(-347.097 -314.775)" fill="#fff"/>
            <path id="Trazado_703292" data-name="Trazado 703292" d="M323.422,382.638a2.815,2.815,0,1,0,2.8-2.834,2.815,2.815,0,0,0-2.8,2.834" transform="translate(-268.508 -315.317)" fill="#fff"/>
            <path id="Trazado_703293" data-name="Trazado 703293" d="M228.762,383.289a2.815,2.815,0,1,0,2.8-2.834,2.815,2.815,0,0,0-2.8,2.834" transform="translate(-189.92 -315.857)" fill="#fff"/>
            <path id="Trazado_703294" data-name="Trazado 703294" d="M134.1,383.941a2.815,2.815,0,1,0,2.8-2.834,2.815,2.815,0,0,0-2.8,2.834" transform="translate(-111.332 -316.398)" fill="#fff"/>
            <path id="Trazado_703295" data-name="Trazado 703295" d="M.417,626.459l51.914-.357.179,26.014-5.5.038.053,7.681L40.4,652.2l-39.8.274Z" transform="translate(-0.346 -519.796)" fill="#fff"/>
            <path id="Trazado_703296" data-name="Trazado 703296" d="M46.785,659.677l-6.766-7.754L.18,652.2,0,626.043l52.055-.358.18,26.155-5.5.038ZM.32,652.056l39.763-.274,6.559,7.517-.052-7.562,5.5-.038-.178-25.873-51.774.356Z" transform="translate(0 -519.45)" fill="#1f4068"/>
            <path id="Trazado_703297" data-name="Trazado 703297" d="M233.283,694.433a1.784,1.784,0,1,0,1.771-1.8,1.783,1.783,0,0,0-1.771,1.8" transform="translate(-193.674 -575.034)" fill="#1f4068"/>
            <path id="Trazado_703298" data-name="Trazado 703298" d="M173.307,694.846a1.784,1.784,0,1,0,1.771-1.8,1.783,1.783,0,0,0-1.771,1.8" transform="translate(-143.881 -575.377)" fill="#1f4068"/>
            <path id="Trazado_703299" data-name="Trazado 703299" d="M113.33,695.259a1.784,1.784,0,1,0,1.771-1.8,1.783,1.783,0,0,0-1.771,1.8" transform="translate(-94.088 -575.72)" fill="#1f4068"/>
            <path id="Trazado_703300" data-name="Trazado 703300" d="M53.354,695.671a1.784,1.784,0,1,0,1.771-1.8,1.784,1.784,0,0,0-1.771,1.8" transform="translate(-44.295 -576.062)" fill="#1f4068"/>
            <path id="Trazado_703301" data-name="Trazado 703301" d="M.6,35.13l51.914-.357L52.331,8.759l-5.5.038-.053-7.681L40.218,8.842l-39.8.274Z" transform="translate(-0.346 -0.926)" fill="#fff"/>
            <path id="Trazado_703302" data-name="Trazado 703302" d="M52.235,33.914.18,34.272,0,8.117l39.839-.274L46.5,0l.054,7.8,5.5-.038ZM.32,34.13l51.774-.356L51.915,7.9l-5.5.038L46.36.377,39.9,7.983.142,8.257Z" transform="translate(0 0.003)" fill="#1f4068"/>
            <path id="Trazado_703303" data-name="Trazado 703303" d="M233.283,114.461a1.784,1.784,0,1,1,1.8,1.771,1.784,1.784,0,0,1-1.8-1.771" transform="translate(-193.674 -93.535)" fill="#1f4068"/>
            <path id="Trazado_703304" data-name="Trazado 703304" d="M173.306,114.874a1.784,1.784,0,1,1,1.8,1.771,1.784,1.784,0,0,1-1.8-1.771" transform="translate(-143.88 -93.878)" fill="#1f4068"/>
            <path id="Trazado_703305" data-name="Trazado 703305" d="M113.33,115.286a1.784,1.784,0,1,1,1.8,1.771,1.784,1.784,0,0,1-1.8-1.771" transform="translate(-94.088 -94.22)" fill="#1f4068"/>
            <path id="Trazado_703306" data-name="Trazado 703306" d="M53.353,115.7a1.784,1.784,0,1,1,1.8,1.771,1.784,1.784,0,0,1-1.8-1.771" transform="translate(-44.294 -94.563)" fill="#1f4068"/>
          </g>
        </g>
        <g id="Grupo_999384" data-name="Grupo 999384" transform="translate(0 0)">
          <g id="Grupo_999383" data-name="Grupo 999383" clip-path="url(#clip-path-2)">
            <path id="Trazado_703307" data-name="Trazado 703307" d="M897.092,992.194l-1.258,12.107h136.9l-8.9-50.714L980,855.44s-25.11,4.38-46.717,0Z" transform="translate(-743.731 -710.195)" fill="#1f4168"/>
            <g id="Grupo_999337" data-name="Grupo 999337" transform="translate(215.569 152.283)" opacity="0.4" style="mix-blend-mode: multiply;isolation: isolate">
              <g id="Grupo_999336" data-name="Grupo 999336">
                <g id="Grupo_999335" data-name="Grupo 999335" clip-path="url(#clip-path-4)">
                  <path id="Trazado_703308" data-name="Trazado 703308" d="M1269.627,896.894s1.087,42.08,10.39,73.491l-8.24-67.9Z" transform="translate(-1269.627 -896.894)" fill="#1f4168"/>
                </g>
              </g>
            </g>
            <g id="Grupo_999340" data-name="Grupo 999340" transform="translate(251.247 283.098)" opacity="0.4" style="mix-blend-mode: multiply;isolation: isolate">
              <g id="Grupo_999339" data-name="Grupo 999339">
                <g id="Grupo_999338" data-name="Grupo 999338" clip-path="url(#clip-path-5)">
                  <path id="Trazado_703309" data-name="Trazado 703309" d="M1515.578,1667.346l1.931,11.008h-36.947l-.805-2.243Z" transform="translate(-1479.758 -1667.346)" fill="#1f4168"/>
                </g>
              </g>
            </g>
            <path id="Trazado_703310" data-name="Trazado 703310" d="M712.094,645.791s-22.776,15.076-60.223,18.97c0,0-26.45-51.3-29.607-134.437l-3.918-10.2L559.352,654.664s-25.652-3.437-41.914-15.117l7.787-15.574,20.124-72.919-.01,0a.025.025,0,0,1-.012,0,79.614,79.614,0,0,1-18.818-.271s0,0,0,0c-6.963-.954-14.634-3.092-20.72-7.584,0,0-24.726-6.4-17.018-23.127,0,0,13.237-27.636,57.744-52.07l17.816-19.389s15.549,2.316,22.45,26.162l-17.673,15.615s9.332.666,14.9,1.274c0,0,7.764-13.97,17.836-16.926s51.195-1.8,51.195-1.8,10.294-.1,14.107,9.341c0,0,31.467,2.944,32.853,7.21,7.517,0,12.742,38.332,7.25,74.193,0,0,3.625,5.3-.654,13.771,0,0,1.37,16.947-9.33,20.8l8.59,31Z" transform="translate(-404.545 -372.445)" fill="#f9a21b"/>
            <path id="Trazado_703311" data-name="Trazado 703311" d="M1170.383,490.8v21.988l-3.031,2.456s.456,5.9,7.966,14.266a29.707,29.707,0,0,1,7.638,19.867l0,2.909-1.852,7.081a5.457,5.457,0,0,0,3.617.385l-.218-21.962s8.277-11.84,26.779-11.7c0,0,4.73-3.756,6.816-12.937l-7.864-4.978V497.689Z" transform="translate(-969.148 -407.463)" fill="#ffc89f"/>
            <path id="Trazado_703312" data-name="Trazado 703312" d="M1205.285,195.971s8.814,6.431,5.864,13.442a4.957,4.957,0,0,0-1.032-2.738s.671,4.491-2.833,6.533c0,0,1.5-5.138-3.038-7.682a4.5,4.5,0,0,1-5.007,2.319s.612,1.056,2.712,1.189a8.625,8.625,0,0,1-8.129-.423s-4.411,3.345-10.808.371H1140.2c-3.415-10.591-16.68-62.43,18.5-78.763,0,0,50.839,16.085,48.891,38.208s-2.307,27.544-2.307,27.544" transform="translate(-942.217 -108.109)" fill="#1b1a2e"/>
            <rect id="Rectángulo_345152" data-name="Rectángulo 345152" width="39.753" height="33.849" transform="translate(201.235 77.401)" fill="#ffc89f"/>
            <path id="Trazado_703313" data-name="Trazado 703313" d="M1209.284,202.526h0a26.475,26.475,0,0,1-26.475-26.475V143.707a26.475,26.475,0,0,1,52.951,0V176.05a26.475,26.475,0,0,1-26.475,26.475" transform="translate(-981.981 -97.327)" fill="#ffc89f"/>
            <path id="Trazado_703314" data-name="Trazado 703314" d="M1421.278,341.492a2.383,2.383,0,1,1-2.383-2.383,2.383,2.383,0,0,1,2.383,2.383" transform="translate(-1176.003 -281.531)" fill="#1b1a2e"/>
            <path id="Trazado_703315" data-name="Trazado 703315" d="M1414.7,318.685a7.487,7.487,0,0,0-1.122-.7c-.195-.1-.394-.2-.594-.286s-.405-.168-.615-.232a7.45,7.45,0,0,0-2.568-.405,4.742,4.742,0,0,0-.65.041l-.325.03c-.108.013-.213.044-.32.063-.213.045-.428.085-.64.134-.207.071-.415.138-.624.2l-.313.1-.3.136-.6.273c-.395.2-.766.437-1.162.645.357-.263.716-.53,1.092-.772l.593-.316.3-.158.314-.123c.209-.082.42-.163.632-.24.218-.058.438-.106.658-.16.11-.025.219-.056.331-.071l.338-.035a4.855,4.855,0,0,1,.677-.049,7,7,0,0,1,4.9,1.924" transform="translate(-1166.337 -262.975)" fill="#1b1a2e"/>
            <path id="Trazado_703316" data-name="Trazado 703316" d="M1273.969,341.492a2.383,2.383,0,1,1-2.383-2.383,2.383,2.383,0,0,1,2.383,2.383" transform="translate(-1053.705 -281.531)" fill="#1b1a2e"/>
            <path id="Trazado_703317" data-name="Trazado 703317" d="M1267.394,318.685a7.486,7.486,0,0,0-1.121-.7c-.2-.1-.394-.2-.593-.286s-.405-.168-.615-.232a7.452,7.452,0,0,0-2.569-.405,4.741,4.741,0,0,0-.65.041l-.325.03c-.108.013-.213.044-.32.063-.213.045-.428.085-.641.134-.207.071-.414.138-.624.2l-.313.1-.3.136-.6.273c-.395.2-.766.437-1.162.645.357-.263.716-.53,1.092-.772l.593-.316.3-.158.314-.123c.209-.082.42-.163.632-.24.218-.058.439-.106.658-.16.11-.025.219-.056.331-.071l.338-.035a4.855,4.855,0,0,1,.677-.049,7,7,0,0,1,4.9,1.924" transform="translate(-1044.04 -262.975)" fill="#1b1a2e"/>
            <path id="Trazado_703318" data-name="Trazado 703318" d="M1368.52,405.122c.2,1.012.376,2.029.544,3.046s.318,2.037.466,3.057a6.634,6.634,0,0,1,.1,1.569,4.2,4.2,0,0,1-.409,1.53,2.729,2.729,0,0,1-1.048,1.179c-.457.242-.909.488-1.37.721.427-.29.866-.562,1.3-.845a2.561,2.561,0,0,0,.916-1.151,4.3,4.3,0,0,0,.335-1.453,6.566,6.566,0,0,0-.117-1.508c-.14-1.021-.28-2.042-.4-3.067s-.236-2.049-.319-3.078" transform="translate(-1134.737 -336.336)" fill="#1b1a2e"/>
            <path id="Trazado_703319" data-name="Trazado 703319" d="M1414.7,273.049c-1.068-.1-1.9-.194-2.69-.24s-1.484-.082-2.189-.055a1.205,1.205,0,0,0-.264.006l-.266.013c-.089,0-.178,0-.268,0s-.179.02-.271.024c-.182.018-.368.02-.559.025-.187.028-.381.042-.581.055-.1.01-.2.008-.306.012s-.2.032-.307.04c-.209.024-.428.038-.656.049a10.19,10.19,0,0,1-1.478.071,4.322,4.322,0,0,1,.34-.708,4.384,4.384,0,0,1,.436-.638c.17-.185.349-.368.539-.54.093-.09.192-.171.29-.254s.211-.147.321-.211c.219-.135.443-.269.675-.389.24-.1.489-.188.74-.269.126-.04.251-.083.381-.111l.394-.065a4.632,4.632,0,0,1,.8-.071,5.447,5.447,0,0,1,3.031.838,2.618,2.618,0,0,1,.321.224c.1.079.207.156.305.242a5.472,5.472,0,0,1,.541.558,3.508,3.508,0,0,1,.724,1.395" transform="translate(-1166.337 -223.981)" fill="#1b1a2e"/>
            <path id="Trazado_703320" data-name="Trazado 703320" d="M1267.394,273.049c-1.068-.1-1.9-.194-2.69-.24s-1.484-.082-2.189-.055a1.205,1.205,0,0,0-.264.006l-.266.013c-.089,0-.178,0-.269,0s-.179.02-.271.024c-.182.018-.368.02-.559.025-.187.028-.381.042-.581.055-.1.01-.2.008-.306.012s-.2.032-.307.04c-.209.024-.428.038-.655.049a10.191,10.191,0,0,1-1.478.071,5.129,5.129,0,0,1,.776-1.346c.17-.185.349-.368.539-.54.093-.09.191-.171.29-.254s.211-.147.321-.211c.219-.135.443-.269.675-.389.24-.1.489-.188.74-.269.126-.04.251-.083.381-.111l.394-.065a4.636,4.636,0,0,1,.8-.071,5.447,5.447,0,0,1,3.031.838,2.608,2.608,0,0,1,.321.224c.1.079.207.156.305.242a5.446,5.446,0,0,1,.541.558,3.5,3.5,0,0,1,.724,1.395" transform="translate(-1044.04 -223.981)" fill="#1b1a2e"/>
            <path id="Trazado_703321" data-name="Trazado 703321" d="M1330.96,479.961a4.376,4.376,0,1,1-4.376-4.376,4.376,4.376,0,0,1,4.376,4.376" transform="translate(-1097.711 -394.835)" fill="#ff9b6c"/>
            <path id="Trazado_703322" data-name="Trazado 703322" d="M1332.906,513.965a3.8,3.8,0,0,1-1.541,1.73,4.23,4.23,0,0,1-4.57-.142,3.788,3.788,0,0,1-1.429-1.825,5.333,5.333,0,0,0,1.671,1.431,4.653,4.653,0,0,0,4.112.13,5.323,5.323,0,0,0,1.757-1.323" transform="translate(-1100.333 -426.501)" fill="#e3405a"/>
            <path id="Trazado_703323" data-name="Trazado 703323" d="M1066.035,76.693s6.768-2.469,16.737,5.67,16.871,22.468,27.851,28.442c0,0,3.343,25.544-8.363,32.73,0,0,9.123,1.7,11.545-10.5,0,0,13.4-11.692-9.768-52.884-4-9.44-32.039-30.751-61.216-8.439,0,0-14.3,7.724-18.451,34.756,0,0-12.374,37.115,17.487,44.879,0,0,8.65,8.527,15.906,2.382,0,0-5.1-1.613-6.884-3.92,0,0,9.807,4.615,15.287.4,0,0-11.768-1.846-15.056-7.5,0,0,5.307,5.365,10.384-.288,0,0-21.374-1.368-17.964-30.349,0,0,15.323,7.262,17.28-10.74,1.894-17.42,5.227-24.649,5.227-24.649" transform="translate(-848.332 -51.373)" fill="#1b1a2e"/>
            <path id="Trazado_703324" data-name="Trazado 703324" d="M1515.563,222.261a11.814,11.814,0,0,0,1.358-1.2,17.03,17.03,0,0,0,1.176-1.366,16.686,16.686,0,0,0,1.851-3.061,17.088,17.088,0,0,0,1.147-3.376,24.5,24.5,0,0,0,.511-3.538,25.29,25.29,0,0,0-.02-3.6c-.012-.3-.054-.6-.089-.9l-.107-.9c-.113-.594-.2-1.194-.345-1.784a32.808,32.808,0,0,0-2.482-6.827c-2.215-4.319-4.465-8.655-6.607-13.025s-4.175-8.8-6.178-13.246l.078-.043c1.269,2.088,2.428,4.233,3.588,6.377s2.264,4.317,3.362,6.492,2.131,4.382,3.177,6.582c.528,1.1,1.038,2.2,1.549,3.31.257.553.512,1.1.758,1.664l.719,1.691a56.193,56.193,0,0,1,2.317,6.956,27.766,27.766,0,0,1,1.02,7.29,16.65,16.65,0,0,1-1.778,7.185,13.146,13.146,0,0,1-4.959,5.4Z" transform="translate(-1250.113 -140.632)" fill="#1b1a2e"/>
            <path id="Trazado_703325" data-name="Trazado 703325" d="M1172.112,149.062c-1.137,4.2-1.908,8.471-2.637,12.748-.166,1.072-.393,2.136-.552,3.211l-.261,1.61c-.074.539-.157,1.076-.221,1.616a62.792,62.792,0,0,0-.464,6.507c-.029,1.084-.047,2.192-.177,3.289a15.069,15.069,0,0,1-.743,3.255,9.134,9.134,0,0,1-1.708,2.947,7.089,7.089,0,0,1-1.3,1.153,7.657,7.657,0,0,1-1.547.794,9.983,9.983,0,0,1-3.355.57,17.187,17.187,0,0,1-3.321-.327,32.674,32.674,0,0,1-6.272-1.96l.029-.084a50.736,50.736,0,0,0,6.357,1.331,18.561,18.561,0,0,0,3.185.156,9.748,9.748,0,0,0,3.045-.575,6.691,6.691,0,0,0,2.519-1.665,8.275,8.275,0,0,0,1.621-2.629,15.982,15.982,0,0,0,.871-3.062c.1-.527.182-1.059.249-1.595s.1-1.075.156-1.619l.527-6.52c.047-.543.076-1.088.113-1.633l.141-1.632c.089-1.089.211-2.175.352-3.259.162-1.081.331-2.161.556-3.231.2-1.074.453-2.139.713-3.2a40.694,40.694,0,0,1,2.045-6.229Z" transform="translate(-954.368 -123.726)" fill="#1b1a2e"/>
            <path id="Trazado_703326" data-name="Trazado 703326" d="M1494.67,310.236c.721.567,1.411,1.158,2.1,1.742s1.382,1.166,2.086,1.73,1.41,1.124,2.128,1.671,1.455,1.073,2.194,1.616a14.693,14.693,0,0,1-2.454-1.234,21.342,21.342,0,0,1-2.241-1.593,24.464,24.464,0,0,1-2.027-1.852,19.782,19.782,0,0,1-1.789-2.079" transform="translate(-1240.891 -257.561)" fill="#1f4068"/>
            <path id="Trazado_703327" data-name="Trazado 703327" d="M1282.147,146.488a13.947,13.947,0,0,1,5.419-.266,21.423,21.423,0,0,1,5.275,1.362c.851.323,1.659.741,2.475,1.133.4.214.793.44,1.189.658l.6.324.579.354,1.164.694c.385.237.757.493,1.141.732q.288.179.564.375l.561.38c.378.249.744.514,1.109.782a52.033,52.033,0,0,1,4.23,3.4q2.03,1.8,3.977,3.678c2.587,2.515,5.125,5.058,7.823,7.455l-.037.046a80.318,80.318,0,0,1-8.224-7.045c-1.308-1.24-2.594-2.5-3.913-3.721s-2.663-2.415-4.054-3.554a28.955,28.955,0,0,0-9.353-5.229,29.67,29.67,0,0,0-5.167-1.369,17.274,17.274,0,0,0-5.339-.132Z" transform="translate(-1064.452 -121.277)" fill="#1f4068"/>
            <path id="Trazado_703328" data-name="Trazado 703328" d="M1164.511,387.914a16.45,16.45,0,0,1-4.879-1,18.087,18.087,0,0,1-4.429-2.324,20.18,20.18,0,0,1-3.593-3.46,25.511,25.511,0,0,1-2.783-4.124c-.187-.371-.4-.731-.568-1.113s-.334-.764-.5-1.148-.28-.785-.422-1.178l-.2-.593c-.058-.2-.108-.4-.163-.6l-.321-1.211-.242-1.228-.12-.615c-.035-.206-.054-.413-.081-.62l-.151-1.242c-.054-.414-.053-.831-.082-1.246l-.06-1.247c.012-.832.01-1.664.045-2.493.062-.828.122-1.656.2-2.481q.163-1.234.353-2.46l.059.007a59.345,59.345,0,0,0,.11,9.858,29.92,29.92,0,0,0,2.428,9.467,17.306,17.306,0,0,0,2.639,4.144,18.02,18.02,0,0,0,3.729,3.18,23.643,23.643,0,0,0,9.03,3.666Z" transform="translate(-951.354 -296.827)" fill="#1f4068"/>
            <path id="Trazado_703329" data-name="Trazado 703329" d="M1488.054,490.42a14.086,14.086,0,0,0,4.478-.1,9.6,9.6,0,0,0,4.014-1.735,8.364,8.364,0,0,0,1.579-1.519,4.468,4.468,0,0,0,.339-.435c.1-.151.223-.294.318-.453.19-.317.4-.626.559-.96a18.577,18.577,0,0,0,1.531-4.227,13.2,13.2,0,0,1-1.116,4.431,9.23,9.23,0,0,1-2.854,3.637,8.991,8.991,0,0,1-2.042,1.139,9.622,9.622,0,0,1-2.252.576,10.87,10.87,0,0,1-4.552-.352" transform="translate(-1235.399 -399.322)" fill="#1f4068"/>
            <path id="Trazado_703330" data-name="Trazado 703330" d="M1497.1,304.883a79.313,79.313,0,0,1,1.062,10.592,69.489,69.489,0,0,1-.4,10.658,36.385,36.385,0,0,1-2.649,10.34,18.126,18.126,0,0,1-2.825,4.547,12.272,12.272,0,0,1-4.239,3.195,12.708,12.708,0,0,0,4.016-3.381,18.8,18.8,0,0,0,2.623-4.544,31.591,31.591,0,0,0,1.586-5.023,48.067,48.067,0,0,0,.9-5.205,81.45,81.45,0,0,0,.522-10.576q-.031-2.653-.181-5.3c-.09-1.769-.236-3.534-.421-5.3" transform="translate(-1235.399 -253.117)" fill="#1f4068"/>
            <path id="Trazado_703331" data-name="Trazado 703331" d="M1286.035,136.59a5.174,5.174,0,0,1,1.652-.988,7.6,7.6,0,0,1,1.9-.456,9.625,9.625,0,0,1,3.865.44,13.842,13.842,0,0,1,1.813.705l.221.1.212.118.422.237c.281.158.564.314.837.483.527.37,1.058.733,1.563,1.125.485.421.969.839,1.434,1.276-.548-.335-1.075-.688-1.6-1.039-.539-.332-1.094-.636-1.63-.965l-.843-.421-.42-.212-.21-.106-.218-.086a14.443,14.443,0,0,0-1.752-.649,10.848,10.848,0,0,0-3.659-.547,8.792,8.792,0,0,0-1.84.271,6.355,6.355,0,0,0-1.742.714" transform="translate(-1067.68 -112.16)" fill="#1f4068"/>
            <path id="Trazado_703332" data-name="Trazado 703332" d="M1184.564,105.405a22.8,22.8,0,0,0-2.065-1.488q-1.063-.693-2.184-1.281a21.339,21.339,0,0,0-4.677-1.827,15.568,15.568,0,0,0-2.463-.447,14.975,14.975,0,0,0-2.5-.067,6.084,6.084,0,0,0-.626.047l-.626.068c-.413.071-.833.121-1.241.225a17.893,17.893,0,0,0-2.439.712,13.22,13.22,0,0,1,4.895-1.512,14.479,14.479,0,0,1,5.151.4,18.2,18.2,0,0,1,4.755,2,18.415,18.415,0,0,1,4.024,3.171" transform="translate(-967.81 -82.818)" fill="#1f4068"/>
            <path id="Trazado_703333" data-name="Trazado 703333" d="M1156.787,155.848q1.812-5.277,3.483-10.585a106.9,106.9,0,0,0,3.093-10.7c.4-1.815.736-3.648,1.181-5.458.212-.907.454-1.808.7-2.707s.514-1.8.826-2.68a18.94,18.94,0,0,1,2.487-5.059,6.125,6.125,0,0,1,2.137-1.892,4.148,4.148,0,0,1,2.784-.318l-.009.058a4.766,4.766,0,0,0-1.369.06,4.142,4.142,0,0,0-1.254.482,6.244,6.244,0,0,0-1.892,1.895,15.126,15.126,0,0,0-1.289,2.411c-.372.838-.69,1.7-1,2.572-.614,1.74-1.14,3.519-1.641,5.305s-1.013,3.575-1.458,5.38l-1.345,5.417c-.446,1.807-.9,3.614-1.451,5.394s-1.153,3.541-1.8,5.288q-.494,1.306-1.015,2.6c-.359.859-.718,1.718-1.117,2.561Z" transform="translate(-960.377 -96.586)" fill="#1f4068"/>
            <path id="Trazado_703334" data-name="Trazado 703334" d="M1128.984,153.793a35.741,35.741,0,0,0-2.615,4.253l-.576,1.106c-.2.366-.359.75-.539,1.124l-.53,1.128-.483,1.149a64.828,64.828,0,0,0-3.091,9.461c-.183.81-.349,1.624-.524,2.436-.082.407-.182.811-.25,1.22l-.193,1.231c-.127.821-.275,1.639-.384,2.463l-.26,2.48-.133,1.241-.063,1.246-.135,2.494c-.035.416-.032.832-.031,1.249l0,1.25q0,1.251-.015,2.5-.08-1.248-.142-2.5l-.065-1.252c-.023-.418-.048-.835-.035-1.253l.037-2.509.024-1.255.1-1.252.205-2.5c.1-.832.231-1.659.345-2.489l.183-1.244c.066-.414.164-.822.245-1.233.172-.82.334-1.643.516-2.461a56.35,56.35,0,0,1,3.244-9.507,37.646,37.646,0,0,1,5.166-8.577" transform="translate(-928.936 -127.68)" fill="#1f4068"/>
            <path id="Trazado_703335" data-name="Trazado 703335" d="M1211.651,138.557a1.51,1.51,0,0,0-1.142.05,2.4,2.4,0,0,0-.883.739,6.981,6.981,0,0,0-1.028,2.135,19.088,19.088,0,0,0-.566,2.347c-.136.793-.261,1.607-.414,2.41-.309,1.608-.675,3.2-1.021,4.8s-.662,3.2-1.02,4.8-.766,3.189-1.275,4.751a43.782,43.782,0,0,1-1.744,4.61,32.642,32.642,0,0,1-5.271,8.291l-.046-.037a48.012,48.012,0,0,0,4.739-8.511,73.185,73.185,0,0,0,3.284-9.184,48.532,48.532,0,0,0,1.143-4.76c.3-1.606.5-3.229.721-4.846a23.6,23.6,0,0,1,1.035-4.825,8.319,8.319,0,0,1,.505-1.147,4.964,4.964,0,0,1,.716-1.043,2.489,2.489,0,0,1,1.051-.723,1.551,1.551,0,0,1,1.243.085Z" transform="translate(-993.962 -114.843)" fill="#1f4068"/>
            <path id="Trazado_703336" data-name="Trazado 703336" d="M1267.6,103.36a5.342,5.342,0,0,1,.65-1.192,7.559,7.559,0,0,1,.884-1.047,7.8,7.8,0,0,1,2.288-1.53,9.306,9.306,0,0,1,2.675-.7,12.214,12.214,0,0,1,2.757.03,17.576,17.576,0,0,1,2.686.552,22.861,22.861,0,0,1,2.564.933,29.432,29.432,0,0,1,4.748,2.613c-1.616-.8-3.249-1.553-4.921-2.184a21.9,21.9,0,0,0-5.146-1.326,10.859,10.859,0,0,0-5.188.505,7.838,7.838,0,0,0-4,3.342" transform="translate(-1052.378 -82.049)" fill="#1f4068"/>
            <path id="Trazado_703337" data-name="Trazado 703337" d="M1390.637,130.043a25.985,25.985,0,0,1,3.822,2.945,32.17,32.17,0,0,1,3.321,3.508c1,1.264,1.908,2.6,2.782,3.943s1.725,2.709,2.506,4.117c.2.351.381.709.572,1.064s.358.723.533,1.085l.526,1.075c.176.358.339.722.531,1.071.371.705.733,1.415,1.141,2.1.386.7.807,1.371,1.22,2.05a42.045,42.045,0,0,0,2.748,3.893,21.22,21.22,0,0,0,3.319,3.421l-.031.05a17.022,17.022,0,0,1-3.642-3.17,31.373,31.373,0,0,1-2.927-3.857,40.935,40.935,0,0,1-2.329-4.239c-.36-.721-.661-1.469-.988-2.2l-.469-1.1c-.165-.363-.324-.729-.495-1.09a29.892,29.892,0,0,0-2.374-4.16c-.225-.331-.465-.65-.7-.973s-.488-.633-.744-.94c-.5-.623-1.027-1.223-1.555-1.82a59.905,59.905,0,0,0-6.8-6.721Z" transform="translate(-1154.495 -107.963)" fill="#1f4068"/>
            <path id="Trazado_703338" data-name="Trazado 703338" d="M1117.207,106.066a10.778,10.778,0,0,0-3.381,1.243,6.555,6.555,0,0,0-.765.47,7.063,7.063,0,0,0-.73.52l-.7.563c-.223.2-.434.413-.651.618a25.97,25.97,0,0,0-4.279,5.767l-.233.387-.213.4-.425.8-.425.8-.39.817c-.26.545-.531,1.085-.782,1.635l-.726,1.663c-.121.277-.247.553-.364.832l-.338.843-.685,1.684c-.451,1.126-.856,2.27-1.312,3.4q.246-.877.51-1.75c.177-.581.339-1.168.53-1.746l.6-1.725.3-.862c.106-.285.223-.566.333-.85l.679-1.7c.24-.56.5-1.112.75-1.668l.384-.83.424-.812.424-.812.212-.406.234-.395a23.631,23.631,0,0,1,4.477-5.806,12.425,12.425,0,0,1,3.026-2.092,10.064,10.064,0,0,1,3.514-.986" transform="translate(-913.905 -88.057)" fill="#1f4068"/>
            <path id="Trazado_703339" data-name="Trazado 703339" d="M1043.959,260.29c-.421,1.705-.945,3.382-1.522,5.038s-1.2,3.3-1.941,4.892-1.528,3.16-2.279,4.744c-.187.4-.384.79-.562,1.187s-.368.791-.521,1.2a26.1,26.1,0,0,0-.859,2.466,31.322,31.322,0,0,0-1.049,5.094,34.872,34.872,0,0,0-.181,5.192,48.385,48.385,0,0,0,.5,5.192c.123.864.26,1.728.4,2.594a23.189,23.189,0,0,1,.3,2.618l-.059,0c-.127-.865-.332-1.714-.526-2.568s-.389-1.709-.561-2.571a36.927,36.927,0,0,1-.677-5.241c-.049-.883-.045-1.768-.015-2.652.046-.884.124-1.765.246-2.642a25.816,25.816,0,0,1,1.25-5.142c.157-.413.3-.829.476-1.234l.252-.61.274-.6c.365-.8.77-1.581,1.15-2.367.77-1.571,1.4-3.206,2.029-4.838s1.274-3.254,1.91-4.883l1.909-4.891Z" transform="translate(-858.757 -216.081)" fill="#1f4068"/>
            <path id="Trazado_703340" data-name="Trazado 703340" d="M1052.443,117.06a51.945,51.945,0,0,0-3.729,4.391c-1.168,1.521-2.253,3.1-3.275,4.723a39.218,39.218,0,0,0-2.767,5.045c-.787,1.757-1.465,3.562-2.119,5.374s-1.287,3.632-1.955,5.44-1.32,3.622-2.023,5.418-1.445,3.578-2.243,5.339c-.4.88-.82,1.75-1.271,2.607a19.647,19.647,0,0,1-1.51,2.478l-.049-.033a26.156,26.156,0,0,0,1.289-2.575c.4-.873.748-1.77,1.115-2.658l.535-1.339.516-1.348,1.029-2.7,2.091-5.387c.7-1.8,1.419-3.585,2.174-5.36l2.245-5.333c.179-.448.379-.887.574-1.33l.288-.666c.1-.22.209-.436.313-.654.412-.876.868-1.731,1.346-2.575a35.8,35.8,0,0,1,3.337-4.753,32.135,32.135,0,0,1,4.049-4.149Z" transform="translate(-856.363 -97.147)" fill="#1f4068"/>
            <path id="Trazado_703341" data-name="Trazado 703341" d="M1101,491.227a7.2,7.2,0,0,1-2.662-2.267,14.287,14.287,0,0,1-.975-1.471c-.29-.511-.552-1.037-.8-1.567a24,24,0,0,1-1.189-3.294,21.073,21.073,0,0,1-.693-3.422c.366,1.1.739,2.2,1.133,3.279s.815,2.151,1.289,3.193a22.611,22.611,0,0,0,1.611,3.016,9.61,9.61,0,0,0,2.286,2.533" transform="translate(-908.817 -397.841)" fill="#1f4068"/>
            <path id="Trazado_703342" data-name="Trazado 703342" d="M1098.2,481.327a1.726,1.726,0,0,1-1.151.6,1.8,1.8,0,0,1-1.314-.405,2.474,2.474,0,0,1-.466-.5,3.2,3.2,0,0,1-.169-.284,1.916,1.916,0,0,1-.146-.291,4.829,4.829,0,0,1-.194-.61,5.135,5.135,0,0,1-.078-.631,5.688,5.688,0,0,1,.347.52c.1.173.231.331.33.5.12.154.23.311.352.453a3.172,3.172,0,0,0,.392.376,1.805,1.805,0,0,0,.943.409,2.916,2.916,0,0,0,1.155-.135" transform="translate(-908.817 -397.841)" fill="#1f4068"/>
            <path id="Trazado_703343" data-name="Trazado 703343" d="M1093.876,281.54c-1.3,2.872-2.462,5.787-3.527,8.738-.547,1.47-1.079,2.953-1.482,4.474a30.8,30.8,0,0,0-.826,4.637,38.076,38.076,0,0,0-.2,4.687,25.811,25.811,0,0,0,.488,4.636,21.064,21.064,0,0,0,1.356,4.445,20.7,20.7,0,0,0,2.393,4.022l-.044.039a16.58,16.58,0,0,1-2.77-3.861,18.212,18.212,0,0,1-1.554-4.522c-.071-.393-.156-.784-.208-1.18l-.135-1.189c-.047-.8-.1-1.591-.082-2.387a27.444,27.444,0,0,1,.435-4.735c.267-1.56.6-3.1.961-4.64s.731-3.075,1.2-4.587a40.07,40.07,0,0,1,1.72-4.42,34.892,34.892,0,0,1,2.223-4.187Z" transform="translate(-902.673 -233.713)" fill="#1f4068"/>
            <path id="Trazado_703344" data-name="Trazado 703344" d="M1131.734,449.214a11.726,11.726,0,0,1-1.688-.951,19.313,19.313,0,0,1-1.566-1.15,21.581,21.581,0,0,1-2.774-2.73,24.428,24.428,0,0,1-2.283-3.162,28.807,28.807,0,0,1-1.769-3.477,31.948,31.948,0,0,1-1.269-3.686c-.149-.632-.33-1.257-.445-1.9l-.192-.954-.145-.962a36.7,36.7,0,0,1-.3-7.737,50.658,50.658,0,0,0,.76,7.662l.177.943.211.936c.127.627.318,1.238.478,1.856a32.919,32.919,0,0,0,1.275,3.607,27.828,27.828,0,0,0,3.861,6.576,24.3,24.3,0,0,0,2.608,2.8,17.618,17.618,0,0,0,3.064,2.319" transform="translate(-929.189 -350.772)" fill="#1f4068"/>
            <path id="Trazado_703345" data-name="Trazado 703345" d="M1520.612,209.351c-.668-2.311-1.2-4.641-1.75-6.967l-.806-3.491c-.275-1.163-.545-2.325-.841-3.491a24.105,24.105,0,0,1,1.287,3.369c.363,1.147.66,2.311.937,3.479s.509,2.346.706,3.529.371,2.371.467,3.572" transform="translate(-1259.608 -162.224)" fill="#1f4068"/>
            <path id="Trazado_703346" data-name="Trazado 703346" d="M1240.586,78.971a2.719,2.719,0,0,1-.4-1.461,2.94,2.94,0,0,1,.448-1.5,4.183,4.183,0,0,1,1.073-1.147c.206-.158.423-.286.634-.43s.437-.26.659-.383a13.808,13.808,0,0,1,2.818-1.094,12.806,12.806,0,0,1,2.965-.458q-1.443.4-2.826.9a21.937,21.937,0,0,0-2.679,1.174c-.214.114-.425.234-.635.353l-.608.39a4.215,4.215,0,0,0-1.018.95,2.88,2.88,0,0,0-.542,1.27,3.116,3.116,0,0,0,.115,1.438" transform="translate(-1029.614 -60.187)" fill="#1f4068"/>
            <path id="Trazado_703347" data-name="Trazado 703347" d="M1208.094,85.551a1.868,1.868,0,0,1-.324-.9,2.42,2.42,0,0,1,.087-.962,2.212,2.212,0,0,1,1.209-1.435c-.12.3-.26.555-.361.822a6.429,6.429,0,0,0-.279.779,11.28,11.28,0,0,0-.331,1.694" transform="translate(-1002.691 -68.289)" fill="#1f4068"/>
            <path id="Trazado_703348" data-name="Trazado 703348" d="M1058.491,434.881c.156,1.076.322,2.148.533,3.212s.424,2.125.671,3.177a41,41,0,0,0,1.932,6.164,19.976,19.976,0,0,0,1.437,2.867,11.391,11.391,0,0,0,1.979,2.481,6.672,6.672,0,0,0,2.719,1.565,6.957,6.957,0,0,0,3.192.08,6.264,6.264,0,0,1-6.217-1.3,11.118,11.118,0,0,1-2.149-2.531,19.77,19.77,0,0,1-1.508-2.937,33.529,33.529,0,0,1-1.835-6.294,41.127,41.127,0,0,1-.754-6.487" transform="translate(-878.771 -361.042)" fill="#1f4068"/>
            <path id="Trazado_703349" data-name="Trazado 703349" d="M1520,535.99a10.04,10.04,0,0,0,.393,1.917,7.455,7.455,0,0,0,.777,1.732,3.126,3.126,0,0,0,.255.4,4.315,4.315,0,0,0,.281.381l.3.368c.1.119.224.226.333.344a9.57,9.57,0,0,0,.715.654c.248.214.524.391.781.616a7.182,7.182,0,0,1-.94-.373,5.461,5.461,0,0,1-.861-.55,5.4,5.4,0,0,1-1.374-1.534c-.082-.153-.176-.3-.246-.457s-.142-.315-.207-.475l-.154-.494c-.047-.165-.076-.336-.11-.5a4.753,4.753,0,0,1,.055-2.024" transform="translate(-1261.804 -444.984)" fill="#1f4068"/>
            <path id="Trazado_703350" data-name="Trazado 703350" d="M1465.11,563.721l.633,1.271c.208.416.426.82.649,1.219s.466.784.722,1.166.547.738.841,1.132a3.857,3.857,0,0,1-1.2-.836,5.4,5.4,0,0,1-.882-1.17,6.3,6.3,0,0,1-.563-1.344,4.66,4.66,0,0,1-.2-1.438" transform="translate(-1216.349 -468.007)" fill="#1f4068"/>
            <path id="Trazado_703351" data-name="Trazado 703351" d="M1144.138,366.669h1.363a4.874,4.874,0,0,0,4.874-4.874v-8.7a4.874,4.874,0,0,0-4.874-4.874h-1.363a4.874,4.874,0,0,0-4.874,4.874v8.7a4.874,4.874,0,0,0,4.874,4.874" transform="translate(-945.829 -289.096)" fill="#ffc89f"/>
            <path id="Trazado_703352" data-name="Trazado 703352" d="M1157.175,365.13a6.056,6.056,0,0,0-1.338.352,5.071,5.071,0,0,0-1.161.676,4.526,4.526,0,0,0-.912.955,4.1,4.1,0,0,0-.606,1.16,4.2,4.2,0,0,0-.255,1.284c-.03.45-.026.931-.056,1.4-.043.936-.108,1.872-.231,2.808-.123-.936-.188-1.872-.231-2.808-.024-.472-.04-.928-.042-1.412a4.56,4.56,0,0,1,.257-1.463,4.472,4.472,0,0,1,3.15-2.87,4.289,4.289,0,0,1,1.426-.077" transform="translate(-956.686 -303.111)" fill="#ff9b6c"/>
            <path id="Trazado_703353" data-name="Trazado 703353" d="M1170.161,409.544c.081-.284.179-.53.269-.774l.268-.713.26-.716c.091-.244.176-.494.3-.763a1.941,1.941,0,0,1,.158.844,2.634,2.634,0,0,1-.586,1.584,1.949,1.949,0,0,1-.669.539" transform="translate(-971.48 -337.544)" fill="#ff9b6c"/>
            <g id="Grupo_999343" data-name="Grupo 999343" transform="translate(152.103 204.407)" opacity="0.4" style="mix-blend-mode: multiply;isolation: isolate">
              <g id="Grupo_999342" data-name="Grupo 999342">
                <g id="Grupo_999341" data-name="Grupo 999341" clip-path="url(#clip-path-6)">
                  <path id="Trazado_703354" data-name="Trazado 703354" d="M932.658,1203.883s-15.958,44.049-20.83,89.7H895.834l1.258-12.107,1.446.221Z" transform="translate(-895.834 -1203.883)" fill="#1f4168"/>
                </g>
              </g>
            </g>
            <g id="Grupo_999346" data-name="Grupo 999346" transform="translate(257.565 213.43)" opacity="0.4" style="mix-blend-mode: multiply;isolation: isolate">
              <g id="Grupo_999345" data-name="Grupo 999345">
                <g id="Grupo_999344" data-name="Grupo 999344" clip-path="url(#clip-path-7)">
                  <path id="Trazado_703355" data-name="Trazado 703355" d="M1552.13,1269.412l2.861,10.323s-24.5,4.541-38.017-22.707a68.6,68.6,0,0,0,8.4,8.562s8.077,10.834,26.76,3.823" transform="translate(-1516.973 -1257.028)" fill="#a65b3c"/>
                </g>
              </g>
            </g>
            <g id="Grupo_999349" data-name="Grupo 999349" transform="translate(121.963 157.295)" opacity="0.4" style="mix-blend-mode: multiply;isolation: isolate">
              <g id="Grupo_999348" data-name="Grupo 999348">
                <g id="Grupo_999347" data-name="Grupo 999347" clip-path="url(#clip-path-8)">
                  <path id="Trazado_703356" data-name="Trazado 703356" d="M742.429,926.413s-2.69,13.387-5.268,21.314l-.01,0a.024.024,0,0,1-.012,0,79.606,79.606,0,0,1-18.818-.27,0,0,0,0,0,0,0s17.175,2.212,24.11-21.045" transform="translate(-718.319 -926.413)" fill="#a65b3c"/>
                </g>
              </g>
            </g>
            <g id="Grupo_999352" data-name="Grupo 999352" transform="translate(130.571 117.948)" opacity="0.4" style="mix-blend-mode: multiply;isolation: isolate">
              <g id="Grupo_999351" data-name="Grupo 999351">
                <g id="Grupo_999350" data-name="Grupo 999350" clip-path="url(#clip-path-9)">
                  <path id="Trazado_703357" data-name="Trazado 703357" d="M803.007,694.669l-25.9,23.748s-2.317,2.878-8.088,4.131c0,0,14.045,1.586,33.99-27.879" transform="translate(-769.017 -694.669)" fill="#a65b3c"/>
                </g>
              </g>
            </g>
            <g id="Grupo_999355" data-name="Grupo 999355" transform="translate(187.844 129.77)" opacity="0.4" style="mix-blend-mode: multiply;isolation: isolate">
              <g id="Grupo_999354" data-name="Grupo 999354">
                <g id="Grupo_999353" data-name="Grupo 999353" clip-path="url(#clip-path-10)">
                  <path id="Trazado_703358" data-name="Trazado 703358" d="M1127.684,766.906s-2.752-4.034-10.073-2.07c0,0-7.063,2.635-11.271,4.387,0,0,14.022-3.335,21.344-2.316" transform="translate(-1106.34 -764.297)" fill="#a65b3c"/>
                </g>
              </g>
            </g>
            <g id="Grupo_999358" data-name="Grupo 999358" transform="translate(217.719 157.879)" opacity="0.4" style="mix-blend-mode: multiply;isolation: isolate">
              <g id="Grupo_999357" data-name="Grupo 999357">
                <g id="Grupo_999356" data-name="Grupo 999356" clip-path="url(#clip-path-11)">
                  <path id="Trazado_703359" data-name="Trazado 703359" d="M1282.288,929.85l29.487,34.34s-27.265-21.439-29.487-34.34" transform="translate(-1282.288 -929.85)" fill="#a65b3c"/>
                </g>
              </g>
            </g>
            <g id="Grupo_999361" data-name="Grupo 999361" transform="translate(265.961 147.495)" opacity="0.4" style="mix-blend-mode: multiply;isolation: isolate">
              <g id="Grupo_999360" data-name="Grupo 999360">
                <g id="Grupo_999359" data-name="Grupo 999359" clip-path="url(#clip-path-12)">
                  <path id="Trazado_703360" data-name="Trazado 703360" d="M1570.676,888.409s5.775-6.785,9.676-19.715c0,0-4.742,10.137-13.932,14.086Z" transform="translate(-1566.42 -868.694)" fill="#a65b3c"/>
                </g>
              </g>
            </g>
            <g id="Grupo_999364" data-name="Grupo 999364" transform="translate(165.366 158.026)" opacity="0.4" style="mix-blend-mode: multiply;isolation: isolate">
              <g id="Grupo_999363" data-name="Grupo 999363">
                <g id="Grupo_999362" data-name="Grupo 999362" clip-path="url(#clip-path-13)">
                  <path id="Trazado_703361" data-name="Trazado 703361" d="M993.9,932l-15.231.107a8.7,8.7,0,0,1-4.72-1.391s5.386,4.949,19.951,1.284" transform="translate(-973.947 -930.718)" fill="#a65b3c"/>
                </g>
              </g>
            </g>
            <g id="Grupo_999367" data-name="Grupo 999367" transform="translate(288.998 184.295)" opacity="0.4" style="mix-blend-mode: multiply;isolation: isolate">
              <g id="Grupo_999366" data-name="Grupo 999366">
                <g id="Grupo_999365" data-name="Grupo 999365" clip-path="url(#clip-path-14)">
                  <path id="Trazado_703362" data-name="Trazado 703362" d="M1702.1,1087.079s5.873-1.291,10.623,1.9c0,0-5.859-6.5-10.623-1.9" transform="translate(-1702.103 -1085.432)" fill="#a65b3c"/>
                </g>
              </g>
            </g>
            <g id="Grupo_999370" data-name="Grupo 999370" transform="translate(295.15 190.405)" opacity="0.4" style="mix-blend-mode: multiply;isolation: isolate">
              <g id="Grupo_999369" data-name="Grupo 999369">
                <g id="Grupo_999368" data-name="Grupo 999368" clip-path="url(#clip-path-15)">
                  <path id="Trazado_703363" data-name="Trazado 703363" d="M1744.763,1133.392s-1.191-8.022-6.43-11.977c0,0,8.969,3.438,6.43,11.977" transform="translate(-1738.333 -1121.415)" fill="#a65b3c"/>
                </g>
              </g>
            </g>
            <g id="Grupo_999373" data-name="Grupo 999373" transform="translate(106.764 158.341)" opacity="0.4" style="mix-blend-mode: multiply;isolation: isolate">
              <g id="Grupo_999372" data-name="Grupo 999372">
                <g id="Grupo_999371" data-name="Grupo 999371" clip-path="url(#clip-path-16)">
                  <path id="Trazado_703364" data-name="Trazado 703364" d="M628.8,938.188s8.717.326,14.712-5.618c0,0-5.191,9.475-14.712,5.618" transform="translate(-628.802 -932.57)" fill="#a65b3c"/>
                </g>
              </g>
            </g>
            <g id="Grupo_999376" data-name="Grupo 999376" transform="translate(120.49 156.533)" opacity="0.4" style="mix-blend-mode: multiply;isolation: isolate">
              <g id="Grupo_999375" data-name="Grupo 999375">
                <g id="Grupo_999374" data-name="Grupo 999374" clip-path="url(#clip-path-17)">
                  <path id="Trazado_703365" data-name="Trazado 703365" d="M714.223,921.923a17.628,17.628,0,0,1-4.577,10.688s6.776-1.831,4.577-10.688" transform="translate(-709.646 -921.923)" fill="#a65b3c"/>
                </g>
              </g>
            </g>
            <g id="Grupo_999379" data-name="Grupo 999379" transform="translate(244.435 126.196)" opacity="0.4" style="mix-blend-mode: multiply;isolation: isolate">
              <g id="Grupo_999378" data-name="Grupo 999378">
                <g id="Grupo_999377" data-name="Grupo 999377" clip-path="url(#clip-path-18)">
                  <path id="Trazado_703366" data-name="Trazado 703366" d="M1439.636,743.956s.509,1.117,1.378,3.157c0,0,8.128-1.7,13.181-.019,0,0-6.356-5.824-14.559-3.138" transform="translate(-1439.637 -743.248)" fill="#a65b3c"/>
                </g>
              </g>
            </g>
            <g id="Grupo_999382" data-name="Grupo 999382" transform="translate(197.572 247.236)" opacity="0.4" style="mix-blend-mode: multiply;isolation: isolate">
              <g id="Grupo_999381" data-name="Grupo 999381">
                <g id="Grupo_999380" data-name="Grupo 999380" clip-path="url(#clip-path-19)">
                  <path id="Trazado_703367" data-name="Trazado 703367" d="M1203.824,1493.17s-21.749,0-40.2-37.036c0,0,13.732,28.535,40.2,37.036" transform="translate(-1163.627 -1456.134)" fill="#1f4168"/>
                </g>
              </g>
            </g>
            <path id="Trazado_703368" data-name="Trazado 703368" d="M1036.718,770.472a27.755,27.755,0,0,0,9.486-1.508c1.527-.5,3.032-1.073,4.521-1.689s2.965-1.264,4.457-1.884a40.992,40.992,0,0,1,4.575-1.625,13.049,13.049,0,0,1,4.834-.527,8.271,8.271,0,0,1,2.368.612,8.578,8.578,0,0,1,2.081,1.27,14.126,14.126,0,0,1,3.071,3.73,14.584,14.584,0,0,0-3.175-3.6,8.472,8.472,0,0,0-2.06-1.2,8.026,8.026,0,0,0-2.311-.55,13.322,13.322,0,0,0-4.726.565,41.026,41.026,0,0,0-4.529,1.641c-2.979,1.218-5.93,2.562-9.028,3.508a32.109,32.109,0,0,1-4.728,1.082,22.919,22.919,0,0,1-4.836.177" transform="translate(-860.695 -633.602)" fill="#a65b3c"/>
            <path id="Trazado_703369" data-name="Trazado 703369" d="M1162.2,770.8a37.861,37.861,0,0,0,2.946,3.352q.779.8,1.6,1.556l.823.751.846.725c1.136.955,2.307,1.872,3.534,2.712,1.213.861,2.487,1.631,3.769,2.4q-.5-.244-1-.5c-.333-.17-.671-.33-.993-.52l-.972-.56-.243-.141-.236-.152-.471-.3c-.312-.206-.634-.4-.935-.621l-.912-.656c-.154-.107-.3-.221-.448-.339l-.44-.349c-.293-.233-.59-.461-.871-.709a34.317,34.317,0,0,1-3.236-3.11,25.487,25.487,0,0,1-2.755-3.533" transform="translate(-964.873 -639.924)" fill="#a65b3c"/>
            <path id="Trazado_703370" data-name="Trazado 703370" d="M1039.846,700.81c-.27.718-.535,1.436-.77,2.165s-.472,1.455-.694,2.187c-.435,1.466-.821,2.945-1.145,4.437l-.237,1.12-.2,1.127c-.075.375-.122.753-.176,1.131l-.081.567-.041.283-.029.285-.118,1.139c-.04.38-.048.762-.075,1.143l-.038.573c-.012.191-.006.382-.01.573q0,.574-.016,1.15a26.715,26.715,0,0,1-.006-4.6,35.5,35.5,0,0,1,.7-4.559,43.855,43.855,0,0,1,1.225-4.444,36.129,36.129,0,0,1,1.716-4.272" transform="translate(-860.193 -581.82)" fill="#a65b3c"/>
            <path id="Trazado_703371" data-name="Trazado 703371" d="M1614.049,1020.292c1.4,1.25,2.821,2.48,4.24,3.708s2.848,2.444,4.291,3.644,2.887,2.4,4.347,3.577,2.929,2.347,4.4,3.521c-1.546-1.067-3.075-2.162-4.561-3.313-.751-.565-1.482-1.156-2.22-1.737s-1.46-1.184-2.181-1.787q-2.161-1.809-4.248-3.706c-1.391-1.264-2.753-2.56-4.065-3.906" transform="translate(-1340.001 -847.057)" fill="#a65b3c"/>
            <path id="Trazado_703372" data-name="Trazado 703372" d="M1477.841,1102.751c1.031-.03,2.061-.083,3.088-.168s2.052-.181,3.075-.3c2.044-.244,4.078-.568,6.088-1a48.289,48.289,0,0,0,5.936-1.658c.969-.342,1.922-.73,2.862-1.149s1.849-.9,2.747-1.413a27,27,0,0,1-2.676,1.563c-.928.457-1.873.881-2.842,1.248s-1.95.7-2.945.984-2,.54-3.011.757-2.03.4-3.052.559-2.049.281-3.079.375a47.882,47.882,0,0,1-6.191.207" transform="translate(-1226.92 -910.789)" fill="#a65b3c"/>
            <path id="Trazado_703373" data-name="Trazado 703373" d="M1103.763,1293.787c.479,1.81,1.016,3.6,1.575,5.391s1.156,3.561,1.769,5.33,1.26,3.525,1.937,5.27,1.369,3.484,2.1,5.2,1.477,3.439,2.267,5.137c.392.85.8,1.692,1.209,2.535s.843,1.672,1.281,2.5a94.466,94.466,0,0,0,5.794,9.615,79.242,79.242,0,0,0,6.963,8.786,57.6,57.6,0,0,0,8.305,7.493,46.921,46.921,0,0,0,4.722,3c.412.219.816.452,1.235.659l1.258.613c.853.377,1.706.758,2.584,1.074a35.909,35.909,0,0,0,5.371,1.572,39.176,39.176,0,0,0,5.559.728v.034a37.52,37.52,0,0,1-5.591-.594l-1.379-.286c-.456-.111-.91-.234-1.365-.35s-.9-.266-1.351-.4l-.673-.211-.662-.243a40.26,40.26,0,0,1-9.912-5.31,52.114,52.114,0,0,1-4.365-3.565c-1.393-1.261-2.707-2.608-3.97-4-.637-.69-1.245-1.406-1.851-2.122l-.888-1.092c-.3-.365-.577-.74-.866-1.109-1.14-1.49-2.237-3.012-3.276-4.574s-2.026-3.155-2.989-4.763-1.865-3.252-2.755-4.9c-1.767-3.305-3.413-6.677-4.912-10.115-.74-1.723-1.458-3.455-2.123-5.209s-1.3-3.517-1.905-5.292-1.163-3.565-1.693-5.363c-.266-.9-.517-1.8-.758-2.707s-.474-1.813-.679-2.728Z" transform="translate(-916.329 -1074.115)" fill="#1b1a2e"/>
            <path id="Trazado_703374" data-name="Trazado 703374" d="M1119.284,1641.2a97.921,97.921,0,0,1-11.244-1.208c-1.864-.294-3.716-.655-5.562-1.046s-3.684-.823-5.508-1.308-3.635-1.018-5.428-1.609-3.578-1.2-5.328-1.912c-.881-.339-1.746-.716-2.616-1.082-.433-.186-.861-.386-1.292-.578s-.861-.386-1.283-.6l-1.271-.621-1.255-.653-.627-.327-.618-.344-1.231-.695c1.672.869,3.347,1.733,5.072,2.489.426.2.858.387,1.291.572s.863.377,1.3.555c.874.35,1.742.712,2.626,1.036a105.917,105.917,0,0,0,10.748,3.437c3.634.983,7.319,1.766,11.025,2.425q2.781.494,5.583.859c1.866.254,3.739.461,5.618.606" transform="translate(-893.325 -1352.595)" fill="#1b1a2e"/>
            <path id="Trazado_703375" data-name="Trazado 703375" d="M1469.331,862.01c1.312.79,2.552,1.692,3.781,2.606.6.473,1.215.934,1.8,1.429l.887.732c.3.243.579.5.869.752l.865.757c.291.25.561.522.843.782l.837.788.417.4.405.407c.539.544,1.085,1.083,1.619,1.632l1.567,1.683.389.423.374.437.747.874c.5.584,1,1.159,1.47,1.767l1.427,1.8c.47.605.906,1.236,1.356,1.856.917,1.228,1.731,2.528,2.576,3.8.429.634.8,1.308,1.189,1.965s.774,1.32,1.157,1.983q-.621-.966-1.233-1.935c-.415-.642-.8-1.3-1.252-1.921-.872-1.256-1.708-2.536-2.647-3.742l-.687-.917c-.232-.3-.446-.62-.69-.914l-1.434-1.787c-.469-.6-.977-1.173-1.476-1.751l-.75-.865-.375-.433-.39-.419-1.549-1.687c-.528-.551-1.068-1.091-1.6-1.637l-.4-.409-.413-.4-.828-.791c-.547-.533-1.115-1.043-1.68-1.557-.284-.255-.561-.519-.851-.767l-.869-.747c-.573-.506-1.175-.976-1.765-1.462-1.191-.956-2.409-1.882-3.679-2.737" transform="translate(-1219.855 -715.65)" fill="#a65b3c"/>
            <path id="Trazado_703376" data-name="Trazado 703376" d="M1426.161,721.2a52.3,52.3,0,0,1,2.95,5.59c.442.958.852,1.93,1.243,2.91s.745,1.975,1.081,2.976.628,2.016.9,3.037.492,2.055.68,3.094.319,2.089.412,3.14a28.92,28.92,0,0,1,.065,3.161c-.035-1.053-.1-2.1-.231-3.145s-.3-2.078-.507-3.107a53.482,53.482,0,0,0-1.64-6.074c-.658-1.993-1.415-3.954-2.244-5.885q-.623-1.448-1.3-2.874c-.445-.953-.918-1.892-1.411-2.823" transform="translate(-1184.014 -598.746)" fill="#a65b3c"/>
            <path id="Trazado_703377" data-name="Trazado 703377" d="M1546.64,646.919c.339,1.063.621,2.143.9,3.225s.507,2.174.731,3.269c.445,2.189.772,4.4,1.022,6.623a55.853,55.853,0,0,1,.3,6.7c-.035,1.118-.1,2.235-.22,3.346a30.423,30.423,0,0,1-.572,3.3,39.581,39.581,0,0,0,.53-6.649c-.009-1.112-.033-2.224-.094-3.334s-.161-2.219-.277-3.325c-.221-2.214-.552-4.417-.94-6.609q-.288-1.645-.636-3.28c-.223-1.092-.472-2.178-.738-3.261" transform="translate(-1284.037 -537.079)" fill="#a65b3c"/>
            <path id="Trazado_703378" data-name="Trazado 703378" d="M1459.96,752.531a27.62,27.62,0,0,0-1.879-2.352c-.661-.754-1.36-1.473-2.088-2.158a24.41,24.41,0,0,0-4.8-3.551,15.769,15.769,0,0,0-5.627-1.88,14.333,14.333,0,0,0-5.927.545l.715-.242.359-.118.367-.091.736-.178.748-.12a12.468,12.468,0,0,1,3.032-.059c.126.012.253.018.379.036l.376.06.376.062.188.032.185.044.741.175.728.223a17.7,17.7,0,0,1,2.787,1.215,22.559,22.559,0,0,1,4.823,3.658,26.868,26.868,0,0,1,2.032,2.242,23.287,23.287,0,0,1,1.752,2.458" transform="translate(-1195.201 -616.231)" fill="#a65b3c"/>
            <path id="Trazado_703379" data-name="Trazado 703379" d="M1467.4,753.246a12.69,12.69,0,0,1-1.457,2.416,18.527,18.527,0,0,1-1.866,2.128,19.178,19.178,0,0,1-2.166,1.82c-.374.287-.779.531-1.174.787-.2.129-.409.234-.612.351s-.412.227-.62.336c.375-.286.769-.538,1.139-.826s.75-.557,1.106-.859l.542-.442.525-.461c.178-.15.348-.309.517-.469s.344-.314.505-.481l.5-.492c.163-.166.317-.341.478-.508s.313-.344.468-.518.306-.351.455-.53a21.4,21.4,0,0,0,1.665-2.253" transform="translate(-1211.696 -625.352)" fill="#a65b3c"/>
            <path id="Trazado_703380" data-name="Trazado 703380" d="M1372.846,862.01a27.327,27.327,0,0,1-4.463,2.919,38.717,38.717,0,0,1-4.874,2.19c-.207.083-.418.154-.63.224l-.634.213c-.422.142-.843.289-1.275.4l-1.286.364c-.431.112-.867.206-1.3.307-.864.219-1.747.347-2.622.5-.437.083-.882.116-1.323.173s-.883.1-1.325.148q.656-.124,1.311-.237c.436-.082.876-.14,1.307-.248.865-.2,1.736-.358,2.59-.6.428-.114.858-.219,1.285-.336l1.271-.384c.211-.067.426-.121.634-.195l.628-.215.628-.215c.21-.07.419-.142.624-.225l1.24-.473c.411-.164.814-.345,1.224-.514s.808-.36,1.211-.543.8-.378,1.2-.577a36.212,36.212,0,0,0,4.585-2.685" transform="translate(-1123.369 -715.65)" fill="#a65b3c"/>
            <path id="Trazado_703381" data-name="Trazado 703381" d="M1298.969,761.9q.46,2.91.883,5.824l.835,5.829.817,5.831.808,5.834c-.794-3.848-1.4-7.73-1.961-11.618-.27-1.945-.529-3.892-.761-5.842s-.445-3.9-.621-5.859" transform="translate(-1078.418 -632.538)" fill="#a65b3c"/>
            <path id="Trazado_703382" data-name="Trazado 703382" d="M1566.42,1307.454a14.408,14.408,0,0,0,2.666,2.405,18.069,18.069,0,0,0,3.1,1.8,21.2,21.2,0,0,0,3.37,1.2,22,22,0,0,0,3.528.6,24.288,24.288,0,0,0,3.581.076l.9-.059c.3-.014.6-.063.893-.094s.6-.062.891-.111l.888-.139.444-.071.44-.091.881-.181c.585-.13,1.164-.292,1.747-.434l1.73-.506q.853-.293,1.71-.575-.838.335-1.681.661l-1.712.581c-.581.161-1.159.336-1.744.483l-.882.205-.441.1-.445.083a26.2,26.2,0,0,1-7.226.407,22.383,22.383,0,0,1-3.576-.637,19.105,19.105,0,0,1-3.4-1.268,18.09,18.09,0,0,1-3.085-1.9,16.089,16.089,0,0,1-1.369-1.186,10.656,10.656,0,0,1-1.2-1.352" transform="translate(-1300.459 -1085.462)" fill="#a65b3c"/>
            <path id="Trazado_703383" data-name="Trazado 703383" d="M1295.388,945.1q3.461,3.921,6.885,7.873c2.292,2.627,4.561,5.274,6.842,7.911,1.142,1.317,2.269,2.647,3.4,3.97s2.262,2.653,3.387,3.984c2.256,2.658,4.5,5.328,6.768,7.974l.011.012,0,.017a30.329,30.329,0,0,0,1.131,4.32c.478,1.412,1.024,2.8,1.627,4.163s1.269,2.7,1.978,4,1.462,2.594,2.277,3.84a61.361,61.361,0,0,0,5.368,7.127,68.649,68.649,0,0,0,6.326,6.315l-.022.026a56.035,56.035,0,0,1-6.526-6.143c-.257-.272-.5-.56-.743-.841s-.495-.562-.731-.852c-.471-.582-.948-1.16-1.394-1.761q-1.368-1.782-2.576-3.679a52.065,52.065,0,0,1-4.162-7.947q-.867-2.07-1.543-4.212a36.771,36.771,0,0,1-1.128-4.341l.014.03c-2.273-2.643-4.573-5.264-6.859-7.9q-1.718-1.971-3.426-3.951c-1.137-1.322-2.281-2.637-3.41-3.965-2.261-2.654-4.535-5.3-6.786-7.959s-4.507-5.321-6.742-8Z" transform="translate(-1075.424 -784.63)" fill="#a65b3c"/>
            <path id="Trazado_703384" data-name="Trazado 703384" d="M1724.03,1111.023a14.209,14.209,0,0,1,3.4,2.5,17.982,17.982,0,0,1,2.67,3.3,18.637,18.637,0,0,1,1.842,3.821,19.405,19.405,0,0,1,.945,4.12,26.912,26.912,0,0,0-1.194-4.028c-.059-.165-.131-.324-.2-.485s-.131-.324-.2-.482c-.147-.317-.287-.636-.45-.945a19.056,19.056,0,0,0-1.028-1.82,18.741,18.741,0,0,0-1.2-1.71,20.834,20.834,0,0,0-1.368-1.582,20.434,20.434,0,0,0-1.526-1.437,14.362,14.362,0,0,0-1.689-1.252" transform="translate(-1431.308 -922.383)" fill="#a65b3c"/>
            <path id="Trazado_703385" data-name="Trazado 703385" d="M1714.2,1096.126a9.206,9.206,0,0,0-1.236-1.072,12.637,12.637,0,0,0-1.371-.878,13.1,13.1,0,0,0-4.6-1.494c-.268-.04-.538-.061-.808-.086s-.541-.038-.813-.038a20,20,0,0,0-3.264.213,13.58,13.58,0,0,1,3.265-.478,12.181,12.181,0,0,1,3.3.366,11.215,11.215,0,0,1,3.059,1.288,8.932,8.932,0,0,1,2.474,2.178" transform="translate(-1413.104 -906.829)" fill="#a65b3c"/>
            <path id="Trazado_703386" data-name="Trazado 703386" d="M1605.625,808.584a77.37,77.37,0,0,1-1.87,7.8c-.747,2.57-1.627,5.1-2.589,7.6l-.76,1.859c-.267.614-.545,1.223-.817,1.835-.139.3-.268.614-.416.914l-.443.9-.444.9c-.149.3-.3.6-.466.89a53.033,53.033,0,0,1-4.286,6.779q.542-.845,1.09-1.682l.273-.419c.092-.139.184-.278.264-.425l.5-.867.506-.863c.17-.287.341-.573.49-.872l.93-1.772c1.186-2.388,2.31-4.81,3.261-7.3.985-2.479,1.857-5,2.656-7.549.193-.639.4-1.274.582-1.916s.375-1.282.544-1.927c.366-1.285.688-2.581.993-3.882" transform="translate(-1322.97 -671.295)" fill="#a65b3c"/>
            <path id="Trazado_703387" data-name="Trazado 703387" d="M1669.526,708.18a22.59,22.59,0,0,1,1.418-4.795,26.766,26.766,0,0,1,2.337-4.437q.7-1.045,1.484-2.027a24.642,24.642,0,0,1,1.691-1.856,21.34,21.34,0,0,1,3.944-3.074c-.667.5-1.337.992-1.954,1.548-.632.537-1.225,1.117-1.8,1.712s-1.112,1.226-1.629,1.872-1,1.321-1.452,2.012a31.224,31.224,0,0,0-2.378,4.354c-.337.757-.65,1.526-.927,2.308a23.714,23.714,0,0,0-.733,2.383" transform="translate(-1386.059 -574.498)" fill="#a65b3c"/>
            <path id="Trazado_703388" data-name="Trazado 703388" d="M742.1,858.866a9.632,9.632,0,0,1-.543,2.712,12.576,12.576,0,0,1-1.174,2.52,12.886,12.886,0,0,1-1.686,2.21,12.4,12.4,0,0,1-1,.96c-.168.159-.361.289-.542.43s-.37.275-.557.41q.246-.244.5-.481c.163-.162.341-.306.49-.481.31-.337.636-.656.918-1.014.143-.177.3-.346.435-.525l.406-.548c.141-.178.261-.372.387-.561s.257-.375.365-.575l.346-.587.313-.605q.3-.61.558-1.244a14.417,14.417,0,0,0,.791-2.621" transform="translate(-611.534 -713.039)" fill="#a65b3c"/>
            <path id="Trazado_703389" data-name="Trazado 703389" d="M771.587,738.979c.165-.863.329-1.725.47-2.591l.218-1.3.205-1.3q.4-2.6.691-5.213c.205-1.74.349-3.487.464-5.236l.077-1.312.05-1.314.029-.657.01-.658q.006-.658.024-1.317a51.736,51.736,0,0,1,.076,5.271c-.007.44-.033.879-.06,1.318s-.046.878-.083,1.317l-.113,1.314c-.037.438-.091.875-.136,1.312-.2,1.747-.449,3.489-.767,5.218s-.69,3.449-1.154,5.144" transform="translate(-640.58 -596.162)" fill="#a65b3c"/>
            <path id="Trazado_703390" data-name="Trazado 703390" d="M845.078,563.721a35.447,35.447,0,0,1,6.785,3.212,37.386,37.386,0,0,1,3.126,2.1,36.745,36.745,0,0,1,2.912,2.39c.236.208.458.43.684.649s.454.435.668.665l.652.681.627.7c.213.231.408.478.608.72s.405.481.59.735l.568.752c.184.255.355.519.533.777a27.473,27.473,0,0,1,3.324,6.726,31.547,31.547,0,0,0-1.578-3.4l-.218-.414c-.074-.137-.157-.27-.234-.4l-.473-.807-.509-.784-.256-.391-.272-.38a33.63,33.63,0,0,0-4.942-5.582,40.868,40.868,0,0,0-5.945-4.518q-1.58-1-3.247-1.861a34.849,34.849,0,0,0-3.4-1.573" transform="translate(-701.593 -468.007)" fill="#a65b3c"/>
            <path id="Trazado_703391" data-name="Trazado 703391" d="M803.006,694.665q-4.032,3.8-8.1,7.573l-4.062,3.771-4.077,3.755-4.077,3.755-4.093,3.737-1.023.934c-.342.309-.677.628-1.034.931a13.656,13.656,0,0,1-2.293,1.594,14.548,14.548,0,0,1-2.551,1.121c-.442.141-.892.258-1.339.371s-.9.227-1.345.338c.44-.141.88-.282,1.322-.417s.881-.273,1.312-.435.853-.341,1.268-.538.817-.416,1.211-.65.774-.49,1.144-.759.731-.551,1.075-.851c.677-.61,1.359-1.247,2.037-1.87l4.078-3.754,4.094-3.737,4.094-3.737,4.108-3.721q4.106-3.723,8.246-7.41" transform="translate(-638.446 -576.718)" fill="#a65b3c"/>
            <path id="Trazado_703392" data-name="Trazado 703392" d="M829.289,865.67c.419-1.569.838-3.138,1.231-4.714l.6-2.36.58-2.365c.763-3.156,1.5-6.317,2.176-9.493.708-3.168,1.318-6.357,1.91-9.548l.428-2.4c.142-.8.259-1.6.391-2.4.285-1.6.479-3.211.732-4.816q-.492,4.848-1.294,9.661c-.12.8-.274,1.6-.418,2.4s-.286,1.6-.448,2.4l-.471,2.392-.5,2.386c-.7,3.173-1.438,6.339-2.256,9.484-.413,1.571-.833,3.141-1.271,4.705s-.9,3.123-1.391,4.671" transform="translate(-688.485 -687.06)" fill="#a65b3c"/>
            <path id="Trazado_703393" data-name="Trazado 703393" d="M844.175,870.8a19.9,19.9,0,0,1-1.319-2.235c-.4-.77-.749-1.563-1.069-2.368a22.3,22.3,0,0,1-.81-2.472,15.6,15.6,0,0,1-.457-2.557c.22.838.442,1.667.711,2.483.137.407.268.815.418,1.217l.219.605.234.6c.625,1.6,1.33,3.166,2.073,4.727" transform="translate(-697.809 -714.953)" fill="#a65b3c"/>
            <path id="Trazado_703394" data-name="Trazado 703394" d="M634.91,916.464a22.545,22.545,0,0,1-4.045,3.856,24.409,24.409,0,0,1-4.839,2.832,23.654,23.654,0,0,1-2.644.954c-.225.066-.454.119-.68.179l-.34.087-.344.073c-.23.046-.458.1-.689.141l-.694.108a19.526,19.526,0,0,1-5.587-.01,23.875,23.875,0,0,0,2.786.039,21.31,21.31,0,0,0,2.76-.291,22.959,22.959,0,0,0,2.7-.635,24.24,24.24,0,0,0,2.6-.957,24.792,24.792,0,0,0,2.478-1.243c.806-.454,1.584-.957,2.342-1.49S632.2,919,632.9,918.392a22.9,22.9,0,0,0,2.012-1.928" transform="translate(-510.619 -760.858)" fill="#a65b3c"/>
            <path id="Trazado_703395" data-name="Trazado 703395" d="M706.249,921.923a13.579,13.579,0,0,1-.406,3.5,15.883,15.883,0,0,1-1.21,3.325,16.926,16.926,0,0,1-.887,1.536,15.056,15.056,0,0,1-1.071,1.413,13.308,13.308,0,0,1-2.634,2.341,18.314,18.314,0,0,0,2.429-2.509,17.1,17.1,0,0,0,1.859-2.933,19.031,19.031,0,0,0,1.258-3.241c.16-.559.3-1.125.409-1.7a15.2,15.2,0,0,0,.253-1.734" transform="translate(-581.182 -765.39)" fill="#a65b3c"/>
            <path id="Trazado_703396" data-name="Trazado 703396" d="M939.937,818.542q-3.292,7.867-6.661,15.7t-6.79,15.644L919.58,865.48l-3.426,7.808-3.405,7.818q-6.815,15.633-13.777,31.2-3.494,7.779-7.059,15.525c-1.19,2.581-2.366,5.169-3.567,7.745L884.73,943.3l-.031-.014,6.989-15.556,6.964-15.567,13.926-31.135c2.316-5.191,4.63-10.384,6.894-15.6l1.7-3.909,1.685-3.917,3.369-7.833q6.778-15.649,13.678-31.245Z" transform="translate(-734.487 -679.551)" fill="#a65b3c"/>
            <path id="Trazado_703397" data-name="Trazado 703397" d="M1333.17,989.167c1.495,8.982,3.1,17.944,4.756,26.9l1.244,6.715c.421,2.237.861,4.47,1.3,6.7.427,2.236.921,4.458,1.388,6.686l.714,3.339.752,3.331.752,3.331c.252,1.11.5,2.221.763,3.328l1.566,6.646c.131.554.256,1.109.391,1.661l.409,1.658.817,3.315.81,3.316.2.829.212.827.425,1.653,1.694,6.614c.577,2.2,1.179,4.4,1.767,6.595l.881,3.3.929,3.285,1.849,6.574-.033.01-1.982-6.536-.978-3.272-.923-3.288c-.608-2.194-1.23-4.385-1.827-6.582l-1.717-6.611c-.581-2.2-1.12-4.414-1.652-6.628l-.8-3.321-.4-1.66c-.133-.553-.255-1.109-.383-1.664l-1.51-6.661c-.255-1.109-.487-2.224-.727-3.337l-.715-3.339-.713-3.34-.688-3.345-.694-3.344-.352-1.671-.341-1.673-1.374-6.69-1.335-6.7c-.416-2.238-.844-4.475-1.248-6.715l-1.17-6.729c-.757-4.49-1.467-8.988-2.095-13.5Z" transform="translate(-1106.784 -821.217)" fill="#a65b3c"/>
            <path id="Trazado_703398" data-name="Trazado 703398" d="M1441.126,1530.945q3.625-.848,7.231-1.768t7.2-1.887c2.392-.658,4.784-1.315,7.166-2.009s4.754-1.416,7.118-2.165c4.733-1.484,9.425-3.1,14.042-4.909q3.468-1.343,6.844-2.91a72.436,72.436,0,0,0,6.6-3.424,67.085,67.085,0,0,1-6.531,3.575q-3.359,1.611-6.818,3c-4.606,1.862-9.306,3.479-14.036,4.99q-7.111,2.221-14.32,4.1-3.6.934-7.227,1.8c-2.418.562-4.837,1.117-7.271,1.607" transform="translate(-1196.438 -1255.174)" fill="#a65b3c"/>
            <path id="Trazado_703399" data-name="Trazado 703399" d="M756.955,1500.215q-1.226-.247-2.444-.537c-.813-.188-1.621-.391-2.431-.593s-1.612-.429-2.418-.645l-2.408-.683c-.8-.238-1.6-.477-2.4-.723l-2.383-.768c-.794-.255-1.58-.536-2.371-.8-.394-.136-.791-.267-1.183-.408l-1.176-.428-1.174-.434-.587-.218-.582-.23-2.329-.919c-.775-.31-1.54-.644-2.31-.965l-1.153-.487c-.382-.168-.759-.347-1.139-.52-3.055-1.347-6.018-2.892-8.934-4.51l2.237,1.119,1.117.562,1.134.526,2.261,1.064,2.29,1c.382.166.762.337,1.146.5l1.155.477c.771.316,1.536.645,2.311.949l2.33.9.582.225.587.213,1.174.427c3.125,1.156,6.285,2.215,9.469,3.2l2.392.726,2.4.691q2.4.688,4.832,1.29" transform="translate(-597.366 -1233.979)" fill="#a65b3c"/>
            <path id="Trazado_703400" data-name="Trazado 703400" d="M1332.582,803.312a3.12,3.12,0,1,1-3.12-3.12,3.12,3.12,0,0,1,3.12,3.12" transform="translate(-1101.143 -664.328)" fill="#1f4168"/>
            <path id="Trazado_703401" data-name="Trazado 703401" d="M1204.438,868.678a3.12,3.12,0,1,1-3.12-3.12,3.12,3.12,0,0,1,3.12,3.12" transform="translate(-994.756 -718.595)" fill="#1f4168"/>
            <path id="Trazado_703402" data-name="Trazado 703402" d="M1089.161,1129.476a3.12,3.12,0,1,1-3.12-3.12,3.12,3.12,0,0,1,3.12,3.12" transform="translate(-899.053 -935.112)" fill="#1f4168"/>
            <path id="Trazado_703403" data-name="Trazado 703403" d="M977.9,1390.019a3.12,3.12,0,1,1-3.12-3.12,3.12,3.12,0,0,1,3.12,3.12" transform="translate(-806.678 -1151.418)" fill="#1f4168"/>
            <path id="Trazado_703404" data-name="Trazado 703404" d="M966.25,578.593l3.6-3.668q1.795-1.838,3.576-3.688c1.191-1.23,2.36-2.48,3.532-3.729.581-.628,1.167-1.253,1.742-1.888s1.148-1.272,1.733-1.9c-1.053,1.354-2.142,2.68-3.279,3.964s-2.3,2.55-3.484,3.786-2.4,2.452-3.635,3.641-2.494,2.355-3.788,3.48" transform="translate(-802.191 -468.007)" fill="#a65b3c"/>
            <path id="Trazado_703405" data-name="Trazado 703405" d="M967.71,560.112a3.12,3.12,0,1,1-.981,4.3,3.12,3.12,0,0,1,.981-4.3" transform="translate(-802.191 -464.613)" fill="#1f4168"/>
            <path id="Trazado_703406" data-name="Trazado 703406" d="M924.445,961.35a7.3,7.3,0,0,0,2.28,1.3,7.589,7.589,0,0,0,2.578.443h0c1.661.115,3.329.165,4.994.151a39.782,39.782,0,0,0,4.977-.329,19.319,19.319,0,0,0,2.438-.484,7.678,7.678,0,0,0,2.255-.966,3.017,3.017,0,0,0,.851-.841,2.486,2.486,0,0,0,.145-.259l.125-.285.25-.57c.171-.378.316-.77.475-1.154s.306-.774.454-1.164c1.195-3.11,2.277-6.266,3.353-9.421q.81-2.366,1.6-4.741t1.581-4.747q-.718,2.4-1.459,4.786t-1.528,4.765c-.516,1.586-1.057,3.165-1.6,4.741s-1.1,3.15-1.709,4.706c-.15.39-.3.779-.46,1.165s-.308.776-.482,1.157l-.255.574-.127.287a2.679,2.679,0,0,1-.161.286,3.242,3.242,0,0,1-.917.9,7.892,7.892,0,0,1-2.326.99,18.336,18.336,0,0,1-2.469.476,39.937,39.937,0,0,1-5,.281c-1.67,0-3.339-.067-5-.217h0a7.658,7.658,0,0,1-2.593-.491,7.32,7.32,0,0,1-2.264-1.339" transform="translate(-767.484 -778.97)" fill="#a65b3c"/>
            <path id="Trazado_703407" data-name="Trazado 703407" d="M872.124,876.1l-.946,3.214-.959,3.21c-.643,2.139-1.285,4.278-1.943,6.413l-1.968,6.405-.5,1.6a3.459,3.459,0,0,0-.179.791,3.218,3.218,0,0,0,.026.806,4.066,4.066,0,0,0,.581,1.51,5.605,5.605,0,0,0,1.071,1.238l0,0,0,0,4.058,4.208,2.021,2.111,2.016,2.117-2.071-2.063-2.065-2.069-4.114-4.152.006.006a5.825,5.825,0,0,1-1.119-1.282,4.292,4.292,0,0,1-.621-1.593,3.443,3.443,0,0,1-.031-.864,3.7,3.7,0,0,1,.184-.84l.491-1.6,1.988-6.4c.66-2.134,1.337-4.262,2.013-6.391l1.019-3.192Z" transform="translate(-718.449 -727.345)" fill="#a65b3c"/>
            <path id="Trazado_703408" data-name="Trazado 703408" d="M898.023,835.874a3.135,3.135,0,0,1-.909-1.1,2.294,2.294,0,0,1-.2-.694,1.817,1.817,0,0,1,.066-.722,1.889,1.889,0,0,1,.342-.643l.458-.555.916-1.11,1.841-2.211a2.538,2.538,0,0,1,1.24-.781,3.333,3.333,0,0,1,.725-.134,3.973,3.973,0,0,1,.735.007,4.586,4.586,0,0,1,.723.133c.238.068.464.149.69.227l1.359.474,2.716.949,5.433,1.9,10.849,3.844,5.417,1.942,1.352.492.676.246a4.1,4.1,0,0,1,.663.291,2.573,2.573,0,0,1,1.016,1.009,1.653,1.653,0,0,1,.2.691,1.33,1.33,0,0,1-.157.7,1.323,1.323,0,0,0,.142-.694,1.633,1.633,0,0,0-.209-.677,2.529,2.529,0,0,0-1.019-.969,4.017,4.017,0,0,0-.659-.272l-.681-.231-1.362-.462-5.441-1.875-10.868-3.789-5.425-1.919-2.713-.96-1.356-.481c-.226-.081-.452-.164-.674-.231a4.378,4.378,0,0,0-.689-.135,3.778,3.778,0,0,0-.7-.015,3.133,3.133,0,0,0-.689.119,2.37,2.37,0,0,0-1.168.714l-1.869,2.188-.939,1.09a3.574,3.574,0,0,0-.812,1.156,1.755,1.755,0,0,0-.078.7,2.247,2.247,0,0,0,.182.686,3.12,3.12,0,0,0,.881,1.116" transform="translate(-744.618 -687.337)" fill="#a65b3c"/>
            <path id="Trazado_703409" data-name="Trazado 703409" d="M939.653,879.776l-2.462,4.778c-.051.1-.1.2-.165.3a1.618,1.618,0,0,1-.225.268,1.9,1.9,0,0,1-.587.369,2.468,2.468,0,0,1-.67.165c-.231.024-.455.018-.678.023l-2.687.038-10.749.113-1.345.005a8.483,8.483,0,0,1-1.357-.12,8.9,8.9,0,0,1-2.573-.862,8.249,8.249,0,0,1-1.154-.721c-.362-.275-.7-.559-1.055-.838l-2.094-1.685-4.181-3.378-4.164-3.4,4.242,3.3,4.225,3.322,2.109,1.666c.351.275.7.564,1.053.829a8.009,8.009,0,0,0,1.125.7,8.66,8.66,0,0,0,2.507.828,8.217,8.217,0,0,0,1.318.111l1.342-.01,10.75-.053,2.688,0c.224,0,.449.007.664-.013a2.331,2.331,0,0,0,.632-.147,1.761,1.761,0,0,0,.549-.334,1.475,1.475,0,0,0,.209-.242c.058-.087.109-.187.163-.286Z" transform="translate(-750.101 -726.295)" fill="#a65b3c"/>
            <line id="Línea_2445" data-name="Línea 2445" y1="1.271" x2="5.718" transform="translate(232.462 239.383)" fill="#1b1a2e"/>
            <path id="Trazado_703410" data-name="Trazado 703410" d="M1367.877,1410.158a.255.255,0,0,1-.055-.5l5.719-1.271a.255.255,0,0,1,.11.5l-5.719,1.271a.253.253,0,0,1-.055.006" transform="translate(-1135.415 -1169.25)" fill="#1f4168"/>
            <line id="Línea_2446" data-name="Línea 2446" y1="0.164" x2="5.856" transform="translate(223.031 194.917)" fill="#1b1a2e"/>
            <path id="Trazado_703411" data-name="Trazado 703411" d="M1312.331,1147.165a.255.255,0,0,1-.007-.509l5.855-.164h.007a.255.255,0,0,1,.007.509l-5.855.164h-.007" transform="translate(-1089.3 -951.83)" fill="#1f4168"/>
            <path id="Trazado_703412" data-name="Trazado 703412" d="M899.086,756.633a.17.17,0,0,1-.033-.336s.358-.07,1-.185a.17.17,0,0,1,.059.334c-.642.114-1,.184-1,.184a.168.168,0,0,1-.033,0" transform="translate(-746.29 -627.73)" fill="#a65b3c"/>
            <path id="Trazado_703413" data-name="Trazado 703413" d="M916.784,747.477a.17.17,0,0,1-.026-.338c.66-.1,1.337-.2,2.013-.3a.17.17,0,1,1,.047.336c-.674.095-1.349.2-2.008.3l-.027,0m4.025-.567a.17.17,0,0,1-.021-.338c.673-.084,1.354-.164,2.021-.236a.17.17,0,1,1,.037.338c-.666.072-1.344.152-2.016.236h-.021m4.041-.439a.17.17,0,0,1-.015-.339c.681-.063,1.364-.119,2.028-.168a.17.17,0,1,1,.025.339c-.662.049-1.343.105-2.022.167h-.016m4.053-.3a.17.17,0,0,1-.009-.339c.688-.037,1.372-.067,2.033-.088a.17.17,0,0,1,.011.339c-.659.021-1.34.05-2.026.087H928.9m6.093-.115h0c-.658-.014-1.345-.018-2.027-.013h0a.17.17,0,0,1,0-.34c.686-.005,1.376,0,2.037.013a.17.17,0,0,1,0,.34" transform="translate(-760.983 -619.092)" fill="#a65b3c"/>
            <path id="Trazado_703414" data-name="Trazado 703414" d="M1037,746.63h-.012q-.5-.036-1.014-.063a.17.17,0,0,1-.161-.178.174.174,0,0,1,.179-.161q.513.027,1.02.064a.17.17,0,0,1-.012.339" transform="translate(-859.943 -619.525)" fill="#a65b3c"/>
            <path id="Trazado_703415" data-name="Trazado 703415" d="M1555.169,687.225a.17.17,0,0,1-.006-.339s.36-.014,1.021-.028a.17.17,0,0,1,.007.34c-.656.014-1.014.028-1.015.028h-.007" transform="translate(-1290.977 -570.236)" fill="#a65b3c"/>
            <path id="Trazado_703416" data-name="Trazado 703416" d="M1593.868,688.246h-.023c-.712-.094-1.446-.185-2.179-.268a.17.17,0,0,1,.039-.337c.736.084,1.471.174,2.186.269a.17.17,0,0,1-.022.338m-4.371-.5h-.017c-.719-.07-1.456-.135-2.19-.195a.17.17,0,0,1,.028-.338c.735.06,1.474.125,2.195.2a.17.17,0,0,1-.016.339m-4.386-.357h-.012c-.721-.048-1.459-.091-2.194-.13a.17.17,0,1,1,.017-.339c.737.038,1.477.082,2.2.13a.17.17,0,0,1-.011.339m-4.4-.229h-.006c-.728-.028-1.468-.051-2.2-.069a.17.17,0,0,1-.166-.174.168.168,0,0,1,.174-.165c.732.018,1.472.041,2.2.07a.17.17,0,0,1-.006.339m-4.4-.109h0c-.621-.007-1.2-.01-1.726-.01h-.473a.17.17,0,0,1,0-.34h.473c.53,0,1.108,0,1.73.01a.17.17,0,0,1,0,.34" transform="translate(-1306.706 -570.108)" fill="#a65b3c"/>
            <path id="Trazado_703417" data-name="Trazado 703417" d="M1704.281,696.118l-.028,0q-.5-.082-1.005-.159a.17.17,0,0,1-.142-.194.168.168,0,0,1,.194-.142q.5.077,1.009.159a.17.17,0,0,1-.027.337" transform="translate(-1413.936 -577.51)" fill="#a65b3c"/>
            <path id="Trazado_703418" data-name="Trazado 703418" d="M907.178,271.445s13.2,4.449,20.563,21.3l8.7-7.961a5.013,5.013,0,0,1,3.265-1.286l5.708-.1a5.014,5.014,0,0,1,4,1.882l1.331,1.665a2.431,2.431,0,0,0,4.092-.449c1.5-3.179.8-8.6-9.93-10.334a10.308,10.308,0,0,1-8.538-8.587,47.208,47.208,0,0,0-1.836-8.04s1.027-24.742-5.649-19.373c0,0-.676-3.654-2.943-4.786a2.173,2.173,0,0,0-3.1,2.06l.208,5.668s-2.85-2.867-5.044.541-1.912,15.051-1.912,15.051a5.471,5.471,0,0,1-3.735-.14c-1.681-.84-6.022-6.769-6.022-6.769s-4.146-7.131-6.214-4.129c-1.241,1.8,3.321,10,5.738,14.086a9.934,9.934,0,0,1,1.386,5.146Z" transform="translate(-747.12 -195.223)" fill="#ffc89f"/>
            <path id="Trazado_703419" data-name="Trazado 703419" d="M1292.04,460.867s11.928-9.372,22.772-3.253a37.031,37.031,0,0,1,2.631-8.472,20.494,20.494,0,0,0,1.967-8.673v-.13a20.1,20.1,0,0,1,.39-3.939l2.917-14.6,3.591-10.009a1.982,1.982,0,0,0-1.794-2.654,7.445,7.445,0,0,0-1.691.159l.863-3.1a1.968,1.968,0,0,0-2-2.491c-1.506.072-3.543,1.27-4.936,4.306.54-1.743-5.271-3.531-6.961,6.117l-4.533,13.519s-3.655,6.467-3.983,11.34c0,0-7,10.261-9.236,21.875" transform="translate(-1072.666 -335.162)" fill="#ffc89f"/>
            <path id="Trazado_703420" data-name="Trazado 703420" d="M1360.388,487.552a1.636,1.636,0,0,0,.255-.808,1.571,1.571,0,0,0-.185-.806,1.454,1.454,0,0,0-.566-.579c-.059-.034-.123-.057-.184-.086s-.129-.04-.195-.058a3.183,3.183,0,0,0-.414-.059,2.8,2.8,0,0,0-1.6.381,5.9,5.9,0,0,0-1.3,1.084,13.423,13.423,0,0,0-1.909,2.894c-.126.263-.248.528-.37.793s-.219.541-.326.812c-.222.54-.392,1.1-.58,1.652l0,.012-.009.012c-.372.511-.727,1.039-1.067,1.573s-.679,1.071-1.007,1.613c-.656,1.084-1.256,2.2-1.829,3.329l-.422.85-.4.862c-.139.285-.26.577-.382.869s-.254.58-.36.878a32.023,32.023,0,0,0-1.165,3.618l-.033-.007.177-.939c.032-.156.055-.315.1-.469l.122-.463c.085-.307.154-.62.254-.924s.195-.608.3-.911a30.407,30.407,0,0,1,1.489-3.529c.572-1.142,1.212-2.249,1.889-3.329a35.518,35.518,0,0,1,2.213-3.121l-.013.023c.415-1.1.821-2.194,1.316-3.258a13.345,13.345,0,0,1,1.8-3.034,5.376,5.376,0,0,1,1.378-1.151,2.97,2.97,0,0,1,1.767-.378,2.764,2.764,0,0,1,.45.084c.074.023.149.051.222.078s.142.068.208.111a1.634,1.634,0,0,1,.412,2.4Z" transform="translate(-1117.744 -402.553)" fill="#ff9b6c"/>
            <path id="Trazado_703421" data-name="Trazado 703421" d="M1386.9,525.136c-.046-1.081-.017-2.164.041-3.244.032-.54.071-1.08.125-1.618s.113-1.076.195-1.611.18-1.067.275-1.6c.045-.267.106-.53.16-.8l.156-.8c.056-.265.116-.528.168-.793s.1-.531.166-.793c.135-.523.221-1.059.373-1.579l.2-.786c.064-.264.158-.518.239-.777s.164-.518.254-.773l.3-.755.15-.378c.05-.123.092-.248.142-.376q.144-.38.295-.757c.2-.5.415-1,.637-1.494q.671-1.479,1.471-2.9a21.094,21.094,0,0,1,1.8-2.705l.027.02a43,43,0,0,0-2.963,5.731c-.442.983-.845,1.974-1.258,2.975l-.316.743c-.1.25-.186.5-.28.755l-.138.378c-.048.125-.1.251-.134.38l-.247.768-.122.385-.107.39q-.108.389-.206.782c-.13.523-.236,1.052-.343,1.58-.181,1.063-.311,2.134-.418,3.206-.243,2.14-.454,4.282-.607,6.437Z" transform="translate(-1151.398 -415.609)" fill="#ff9b6c"/>
            <path id="Trazado_703422" data-name="Trazado 703422" d="M1425.641,429.082l-.637,2.41c-.21.8-.423,1.6-.623,2.408s-.4,1.608-.6,2.414-.379,1.615-.587,2.423a24.976,24.976,0,0,1,.328-2.478c.067-.412.159-.818.241-1.226s.185-.813.287-1.216c.207-.807.435-1.609.7-2.4a23.548,23.548,0,0,1,.891-2.335" transform="translate(-1181.554 -356.228)" fill="#ff9b6c"/>
            <path id="Trazado_703423" data-name="Trazado 703423" d="M1414.082,515.977c-.2,1.693-.344,3.39-.472,5.086-.061.849-.117,1.7-.162,2.547l-.067,1.274-.05,1.275c-.022.425-.028.85-.042,1.275s-.027.85-.031,1.276l-.024,1.276-.008,1.276c-.012,1.7.015,3.4.038,5.11q-.059-.636-.107-1.274c-.032-.425-.071-.85-.092-1.276-.042-.852-.092-1.7-.1-2.557-.052-1.706-.024-3.413.031-5.118s.182-3.409.355-5.107.4-3.39.735-5.063" transform="translate(-1173.032 -428.369)" fill="#ff9b6c"/>
            <path id="Trazado_703424" data-name="Trazado 703424" d="M995.216,363.922a17.49,17.49,0,0,1,4.336-1.553,19.589,19.589,0,0,1,4.6-.465,20.4,20.4,0,0,1,2.31.2,18.2,18.2,0,0,1,2.261.509,16.642,16.642,0,0,1,4.187,1.92l-.516-.255c-.171-.086-.34-.176-.516-.25-.35-.156-.7-.316-1.056-.446a19.117,19.117,0,0,0-2.17-.714,20.6,20.6,0,0,0-2.236-.446,21.138,21.138,0,0,0-2.271-.181,22.224,22.224,0,0,0-4.54.385q-1.123.213-2.224.534a18.231,18.231,0,0,0-2.165.76" transform="translate(-826.239 -300.454)" fill="#ff9b6c"/>
            <path id="Trazado_703425" data-name="Trazado 703425" d="M1036.712,446.163a14.846,14.846,0,0,1,.559-4.109,16.017,16.017,0,0,1,1.617-3.84,16.431,16.431,0,0,1,1.192-1.718,14.808,14.808,0,0,1,1.436-1.518,13.75,13.75,0,0,1,3.462-2.285l-.44.273c-.147.09-.3.174-.437.275-.285.194-.572.382-.841.6a15.65,15.65,0,0,0-1.562,1.333,15.472,15.472,0,0,0-2.518,3.216,18.1,18.1,0,0,0-1.656,3.742,19.96,19.96,0,0,0-.514,1.992,15.8,15.8,0,0,0-.3,2.043" transform="translate(-860.688 -359.226)" fill="#ff9b6c"/>
            <path id="Trazado_703426" data-name="Trazado 703426" d="M1191.012,488.676a8.777,8.777,0,0,0-.258-1.433,9.952,9.952,0,0,0-.457-1.371,8.19,8.19,0,0,0-1.529-2.409,6.994,6.994,0,0,0-1.061-.955c-.188-.148-.391-.275-.592-.4-.1-.065-.208-.118-.312-.178s-.207-.121-.317-.17a11.884,11.884,0,0,0-2.74-.944,8.838,8.838,0,0,1,2.854.7,7.229,7.229,0,0,1,2.418,1.717,7.491,7.491,0,0,1,1.525,2.543,7.8,7.8,0,0,1,.469,2.9" transform="translate(-982.759 -399.174)" fill="#ff9b6c"/>
            <path id="Trazado_703427" data-name="Trazado 703427" d="M980.579,401.259a22.913,22.913,0,0,0,3.929.073c.327-.021.653-.039.978-.075s.652-.054.975-.108.648-.085.971-.136l.964-.176c.162-.026.321-.06.48-.1l.478-.108c.319-.071.638-.141.952-.234l.947-.258c.313-.1.622-.2.934-.3.628-.187,1.232-.442,1.849-.668s1.2-.52,1.818-.764q-.432.238-.87.468c-.293.15-.578.32-.882.449-.6.264-1.2.554-1.827.765a23.883,23.883,0,0,1-3.814,1.083,23.062,23.062,0,0,1-3.943.426,16.7,16.7,0,0,1-3.939-.337" transform="translate(-814.087 -330.76)" fill="#ff9b6c"/>
            <path id="Trazado_703428" data-name="Trazado 703428" d="M1071.7,282.136l-.213-4.38c-.073-1.459-.141-2.918-.228-4.375-.043-.729-.082-1.458-.136-2.186s-.1-1.456-.154-2.184c-.12-1.455-.246-2.909-.412-4.363.3,1.433.511,2.883.676,4.338s.275,2.915.365,4.375.134,2.924.154,4.387.009,2.926-.051,4.388" transform="translate(-888.784 -219.713)" fill="#ff9b6c"/>
            <path id="Trazado_703429" data-name="Trazado 703429" d="M1035.695,295.772q-.042-1.728-.046-3.453c-.006-1.15,0-2.3.006-3.449l.031-3.449c.009-1.15.028-2.3.053-3.452q.161,1.721.212,3.449c.038,1.151.047,2.3.044,3.454s-.033,2.3-.081,3.452-.115,2.3-.218,3.448" transform="translate(-859.805 -234.093)" fill="#ff9b6c"/>
            <path id="Trazado_703430" data-name="Trazado 703430" d="M1447.023,436.613c-.117.323-.224.65-.33.976l-.3.986-.286.99-.267,1c-.095.33-.17.665-.256,1s-.175.664-.253,1l-.48,2c-.155.669-.324,1.336-.473,2.007s-.292,1.344-.427,2.019c-.239,1.355-.465,2.712-.623,4.079-.082.683-.174,1.364-.249,2.048l-.231,2.05c-.085.682-.147,1.367-.212,2.051l-.209,2.052-.394,4.107c-.113,1.371-.233,2.741-.375,4.111l-.034,0c.031-1.376.085-2.753.145-4.129.093-1.374.18-2.749.3-4.121l.218-2.055c.076-.684.15-1.369.247-2.051l.281-2.047c.044-.342.1-.681.16-1.021l.173-1.019c.216-1.36.479-2.712.7-4.071.124-.677.237-1.356.35-2.036s.254-1.354.383-2.031c.066-.338.143-.674.223-1.01l.241-1.005c.174-.667.351-1.334.547-1.995l.305-.988.331-.98c.233-.649.473-1.3.769-1.921Z" transform="translate(-1196.851 -362.469)" fill="#ff9b6c"/>
            <path id="Trazado_703431" data-name="Trazado 703431" d="M1301.276,611.52c-.519.85-1.024,1.707-1.5,2.578-.244.433-.478.872-.717,1.307l-.695,1.318q-1.364,2.65-2.546,5.385c-.8,1.817-1.5,3.677-2.14,5.555l-.465,1.415c-.144.475-.276.954-.416,1.431l-.211.715-.179.724q-.176.725-.363,1.448.133-.734.275-1.468l.143-.734.175-.727c.121-.483.237-.968.364-1.451l.427-1.434c.074-.238.137-.48.22-.715l.244-.707c.167-.47.317-.946.5-1.411l.542-1.395c.181-.465.385-.92.578-1.38.795-1.83,1.664-3.627,2.625-5.374a52.667,52.667,0,0,1,3.147-5.08" transform="translate(-1072.666 -507.69)" fill="#ff9b6c"/>
            <path id="Trazado_703432" data-name="Trazado 703432" d="M1386.155,421.785a.8.8,0,0,0-.167-.694,1.458,1.458,0,0,0-.6-.418,2.441,2.441,0,0,0-1.457-.074,3.644,3.644,0,0,0-1.336.631,5.774,5.774,0,0,0-1.07,1.05,10.01,10.01,0,0,0-1.487,2.657,14.833,14.833,0,0,0-.76,2.982h0v0c-.269,1.133-.526,2.27-.806,3.4s-.558,2.261-.856,3.387c-.145.564-.3,1.125-.453,1.687l-.474,1.682c-.319,1.12-.649,2.237-1,3.349l-.033-.009c.238-1.141.5-2.277.768-3.41l.411-1.7c.144-.564.282-1.13.431-1.693.292-1.127.609-2.248.913-3.372s.643-2.239.964-3.359v.006a24.676,24.676,0,0,1,.774-3,11.634,11.634,0,0,1,.572-1.449,7.585,7.585,0,0,1,.806-1.346,5.276,5.276,0,0,1,1.132-1.107,3.729,3.729,0,0,1,1.457-.641,2.633,2.633,0,0,1,1.578.168,1.5,1.5,0,0,1,.618.51.929.929,0,0,1,.151.374.8.8,0,0,1-.041.395Z" transform="translate(-1142.084 -348.936)" fill="#ff9b6c"/>
            <path id="Trazado_703433" data-name="Trazado 703433" d="M1443.57,408.852c.1-.57.216-1.134.352-1.693.067-.28.139-.558.213-.836.036-.139.075-.277.115-.416l.06-.206.048-.194a1.825,1.825,0,0,0-.377-1.541,1.75,1.75,0,0,0-1.489-.605,3.613,3.613,0,0,0-.814.179c-.133.041-.26.1-.39.147s-.254.113-.375.184a6.417,6.417,0,0,0-1.336,1,9.8,9.8,0,0,0-1.115,1.269c-.337.457-.635.945-.932,1.44l-.031-.014a9.112,9.112,0,0,1,.741-1.574,7.372,7.372,0,0,1,1.085-1.381,5.592,5.592,0,0,1,1.441-1.025,3.728,3.728,0,0,1,1.718-.412,2.2,2.2,0,0,1,1.576.718,2.25,2.25,0,0,1,.466.756,2.038,2.038,0,0,1,.108.9l-.042.227c-.015.073-.035.14-.054.21-.038.139-.075.278-.117.415-.08.276-.162.552-.249.826-.173.549-.36,1.094-.573,1.631Z" transform="translate(-1193.43 -334.72)" fill="#ff9b6c"/>
            <path id="Trazado_703434" data-name="Trazado 703434" d="M1426.062,483.91a33.481,33.481,0,0,1,1.019-4.5,30.726,30.726,0,0,1,1.626-4.32,21.69,21.69,0,0,0,1.907-8.888,20.219,20.219,0,0,1,.195-2.3c.106-.763.262-1.516.409-2.269.3-1.506.572-3.016.853-4.525.558-3.019,1.151-6.031,1.736-9.044l0-.013,0-.013,1.362-3.778c.451-1.261.918-2.515,1.381-3.771l.7-1.884.177-.47a2.251,2.251,0,0,0,.128-.46,1.874,1.874,0,0,0-.091-.936,1.926,1.926,0,0,0-1.4-1.207,4.159,4.159,0,0,0-.987-.039,8.407,8.407,0,0,0-.993.118l-.007-.033a8.488,8.488,0,0,1,.994-.163,4.249,4.249,0,0,1,1.015,0,2.052,2.052,0,0,1,1.554,1.258,2.086,2.086,0,0,1,.132,1.037,2.5,2.5,0,0,1-.125.51l-.162.475-.661,1.9c-.44,1.264-.878,2.53-1.331,3.79l-1.35,3.783.007-.025c-.618,3.007-1.229,6.015-1.874,9.017-.32,1.5-.646,3-.952,4.506-.15.753-.324,1.5-.419,2.26a20.015,20.015,0,0,0-.167,2.288l0,1.152-.018.578-.034.577a20.16,20.16,0,0,1-.306,2.294,19.684,19.684,0,0,1-1.421,4.4,40.06,40.06,0,0,0-2.876,8.7Z" transform="translate(-1183.932 -361.46)" fill="#ff9b6c"/>
            <path id="Trazado_703435" data-name="Trazado 703435" d="M1168.54,444.06a2.414,2.414,0,1,1-2.414-2.414,2.414,2.414,0,0,1,2.414,2.414" transform="translate(-966.126 -366.659)" fill="#f9a21b"/>
          </g>
        </g>
        <g id="Grupo_999386" data-name="Grupo 999386" transform="translate(0 0)">
          <g id="Grupo_999385" data-name="Grupo 999385" clip-path="url(#clip-path-2)">
            <path id="Trazado_703436" data-name="Trazado 703436" d="M1666.424,290.839a16.17,16.17,0,0,0-17.057,22.418l-4.676,5.489,8.538-.031a16.167,16.167,0,1,0,13.2-27.876" transform="translate(-1365.44 -241.33)" fill="#fff"/>
            <path id="Trazado_703437" data-name="Trazado 703437" d="M1644.691,455.585c.711-.027,1.423-.041,2.134-.053s1.423-.014,2.134-.022,1.423,0,2.135.006l1.067.013c.356.009.711.013,1.067.025-.356.015-.712.022-1.067.033l-1.067.021c-.711.012-1.423.014-2.135.021s-1.423,0-2.134-.006-1.423-.016-2.135-.038" transform="translate(-1365.44 -378.169)" fill="#1b1a2e"/>
            <path id="Trazado_703438" data-name="Trazado 703438" d="M1649.367,423.627c-.371.473-.752.938-1.134,1.4s-.772.921-1.159,1.381-.782.912-1.179,1.363l-.6.675c-.2.222-.4.447-.607.667.185-.238.375-.47.562-.7l.572-.7c.383-.464.773-.921,1.159-1.381s.783-.912,1.18-1.363.8-.9,1.2-1.342" transform="translate(-1365.44 -351.699)" fill="#1b1a2e"/>
            <path id="Trazado_703439" data-name="Trazado 703439" d="M1669.482,318.212a16.734,16.734,0,0,0,2.353,1.793,16.1,16.1,0,0,0,8.411,2.449,15.9,15.9,0,0,0,5.783-1,16.029,16.029,0,1,0-20.409-8.7,16.207,16.207,0,0,1,12.5-22.5,16.275,16.275,0,0,1,16.745,23.68,16.2,16.2,0,0,1-3.687,4.644,16.364,16.364,0,0,1-5.1,3.018,15.994,15.994,0,0,1-5.837.978,16.172,16.172,0,0,1-8.424-2.541,16.737,16.737,0,0,1-2.338-1.818" transform="translate(-1381.693 -240.827)" fill="#1b1a2e"/>
            <path id="Trazado_703440" data-name="Trazado 703440" d="M1790.641,354.975a.245.245,0,0,0-.362.332,6.684,6.684,0,0,1,0,9.034.245.245,0,0,0,.362.332,7.175,7.175,0,0,0,0-9.7" transform="translate(-1486.256 -294.638)" fill="#1f4168"/>
            <path id="Trazado_703441" data-name="Trazado 703441" d="M1780.256,362.117a.245.245,0,0,0-.341.353,4.575,4.575,0,0,1,0,6.584.245.245,0,1,0,.341.353,5.065,5.065,0,0,0,0-7.29" transform="translate(-1477.642 -300.576)" fill="#1f4168"/>
            <path id="Trazado_703442" data-name="Trazado 703442" d="M1769.615,369.4a.245.245,0,0,0-.28.4,2.466,2.466,0,0,1,0,4.051.245.245,0,0,0,.28.4,2.956,2.956,0,0,0,0-4.856" transform="translate(-1468.834 -306.646)" fill="#1f4168"/>
            <path id="Trazado_703443" data-name="Trazado 703443" d="M1726.849,352.036a.28.28,0,0,0-.28.28v.123h0l-2.921,2.1h-3.826v6.442h3.826l2.921,2.1h0v.123a.28.28,0,1,0,.56,0v-10.9a.28.28,0,0,0-.28-.28" transform="translate(-1427.813 -292.264)" fill="#1f4168"/>
            <rect id="Rectángulo_345168" data-name="Rectángulo 345168" width="293.547" height="0.509" transform="translate(11.847 293.851)" fill="#1b1a2e"/>
          </g>
        </g>
      </g>
    </g>
    <rect id="Rectángulo_345537" data-name="Rectángulo 345537" width="464" height="367" transform="translate(2305 -12682)" fill="none"/>
  </g>
</svg>
