<svg xmlns="http://www.w3.org/2000/svg" xmlns:xlink="http://www.w3.org/1999/xlink" width="464" height="367" viewBox="0 0 464 367">
  <defs>
    <clipPath id="clip-path">
      <rect id="Rectángulo_345097" data-name="Rectángulo 345097" width="302.785" height="304.167" fill="none"/>
    </clipPath>
  </defs>
  <g id="Grupo_1000160" data-name="Grupo 1000160" transform="translate(-96 12682)">
    <g id="Grupo_1000154" data-name="Grupo 1000154" transform="translate(177 -12651)">
      <rect id="Rectángulo_345094" data-name="Rectángulo 345094" width="67.826" height="9.166" transform="translate(112.311 264.255) rotate(-84.967)" fill="#fff"/>
      <g id="Grupo_999250" data-name="Grupo 999250">
        <g id="Grupo_999249" data-name="Grupo 999249" clip-path="url(#clip-path)">
          <path id="Trazado_702671" data-name="Trazado 702671" d="M683.01,1250.274h-.032l-9.13-.8a.366.366,0,0,1-.332-.4l5.95-67.565a.367.367,0,0,1,.129-.248.358.358,0,0,1,.267-.084l9.131.8a.366.366,0,0,1,.332.4l-5.95,67.565a.366.366,0,0,1-.364.333m-8.734-1.5,8.4.74,5.886-66.836-8.4-.74Z" transform="translate(-561.568 -984.849)"/>
          <rect id="Rectángulo_345095" data-name="Rectángulo 345095" width="9.166" height="67.826" transform="translate(188.387 196.856) rotate(-3.13)" fill="#fff"/>
          <path id="Trazado_702672" data-name="Trazado 702672" d="M1135.287,1248.1a.365.365,0,0,1-.365-.346l-3.7-67.724a.365.365,0,0,1,.345-.385l9.152-.5a.333.333,0,0,1,.264.093.364.364,0,0,1,.121.252l3.7,67.725a.365.365,0,0,1-.345.385l-9.152.5h-.02m-3.318-67.745,3.664,66.994,8.422-.461-3.664-66.995Z" transform="translate(-943.197 -983.158)"/>
          <rect id="Rectángulo_345096" data-name="Rectángulo 345096" width="9.166" height="67.826" transform="matrix(0.972, -0.234, 0.234, 0.972, 257.174, 199.589)" fill="#fff"/>
          <path id="Trazado_702673" data-name="Trazado 702673" d="M1561.316,1254.523a.367.367,0,0,1-.356-.28l-15.877-65.941a.366.366,0,0,1,.27-.441l8.911-2.146a.367.367,0,0,1,.442.27l15.877,65.941a.366.366,0,0,1-.27.442l-8.911,2.146a.378.378,0,0,1-.086.01m-15.436-66.037,15.706,65.23,8.2-1.975-15.707-65.23Z" transform="translate(-1288.264 -988.626)"/>
          <path id="Trazado_702674" data-name="Trazado 702674" d="M491.6,221.858a2.41,2.41,0,0,1-2.3-2.255L476,7.9c-.091-1.431,6.308-5.768,7.74-5.7L643.43,3.831c1.229.055-1.162,6.444-1.084,7.671L663.8,219.744c.091,1.431-172.2,2.114-172.2,2.114" transform="translate(-396.879 -1.835)" fill="#fff"/>
          <path id="Trazado_702675" data-name="Trazado 702675" d="M489.763,220.389h-.016a2.772,2.772,0,0,1-2.645-2.6L473.8,6.093c-.028-.442.289-.984,1-1.705,1.768-1.8,5.76-4.387,7.083-4.387h.042L641.6,1.63a.653.653,0,0,1,.513.269c.467.635.066,2.328-.649,5.041a15.422,15.422,0,0,0-.587,2.7l21.452,208.228a.411.411,0,0,1-.1.3c-.3.325-.936,1-86.858,1.7-42.393.343-85.174.514-85.6.516ZM481.874.731c-.956,0-4.722,2.3-6.558,4.168-.787.8-.791,1.115-.789,1.148l13.305,211.7a2.041,2.041,0,0,0,1.94,1.912c57.4-.228,165.859-.933,171.8-1.993L640.148,9.705a13.09,13.09,0,0,1,.608-2.951c.363-1.378,1.033-3.917.785-4.393L481.9.732h-.025" transform="translate(-395.045)"/>
          <path id="Trazado_702676" data-name="Trazado 702676" d="M702.38,222.145H543.386a3.924,3.924,0,0,1-3.9-3.5L516.508,7.417a3.924,3.924,0,0,1,3.9-4.348H679.4a3.924,3.924,0,0,1,3.9,3.5L706.281,217.8a3.924,3.924,0,0,1-3.9,4.348" transform="translate(-430.639 -2.559)" fill="#fff"/>
          <path id="Trazado_702677" data-name="Trazado 702677" d="M700.549,220.677H541.555a4.284,4.284,0,0,1-4.265-3.826L514.313,5.623A4.289,4.289,0,0,1,518.577.87H677.572A4.283,4.283,0,0,1,681.836,4.7l22.977,211.228a4.289,4.289,0,0,1-4.265,4.753M518.577,1.6a3.558,3.558,0,0,0-3.537,3.943l22.977,211.228a3.554,3.554,0,0,0,3.538,3.174H700.549A3.558,3.558,0,0,0,704.086,216L681.109,4.775A3.552,3.552,0,0,0,677.572,1.6Z" transform="translate(-428.807 -0.725)"/>
          <path id="Trazado_702678" data-name="Trazado 702678" d="M525.466,107.781a.365.365,0,0,1-.363-.327L514.313,5.622A4.289,4.289,0,0,1,518.577.87H677.572A4.283,4.283,0,0,1,681.836,4.7l7.538,67.181a.366.366,0,1,1-.727.081L681.109,4.776A3.553,3.553,0,0,0,677.572,1.6H518.577a3.558,3.558,0,0,0-3.537,3.943l10.79,101.833a.365.365,0,0,1-.325.4l-.039,0" transform="translate(-428.807 -0.725)"/>
          <path id="Trazado_702679" data-name="Trazado 702679" d="M738.32,1028.469H626.062a4.284,4.284,0,0,1-4.265-3.826L615.643,970.1a.366.366,0,1,1,.727-.082l6.154,54.547a3.553,3.553,0,0,0,3.538,3.175H738.32a.366.366,0,1,1,0,.731" transform="translate(-513.315 -808.518)"/>
          <path id="Trazado_702680" data-name="Trazado 702680" d="M855.207,987.565H721.521a.366.366,0,0,1-.365-.336l-.716-8.733a.366.366,0,0,1,.365-.4H854.491a.366.366,0,0,1,.365.336l.716,8.733a.366.366,0,0,1-.365.4m-133.349-.731H854.81l-.656-8H721.2Z" transform="translate(-600.694 -815.529)"/>
          <path id="Trazado_702681" data-name="Trazado 702681" d="M867.2,1084.57H733.51a.366.366,0,0,1-.365-.336l-.716-8.734a.366.366,0,0,1,.365-.4H866.48a.366.366,0,0,1,.365.336l.716,8.734a.366.366,0,0,1-.365.4m-133.349-.731H866.8l-.656-8H733.191Z" transform="translate(-610.69 -896.41)"/>
          <path id="Trazado_702682" data-name="Trazado 702682" d="M879.187,1181.57H745.5a.366.366,0,0,1-.365-.336l-.716-8.733a.366.366,0,0,1,.365-.4H878.47a.366.366,0,0,1,.365.336l.716,8.733a.366.366,0,0,1-.365.4m-133.349-.731H878.79l-.656-8H745.182Z" transform="translate(-620.688 -977.289)"/>
          <path id="Trazado_702683" data-name="Trazado 702683" d="M1242.294,315.609h-41.6a.366.366,0,0,1-.364-.325l-.876-7.822a.366.366,0,0,1,.363-.406h41.6a.366.366,0,0,1,.364.325l.876,7.822a.366.366,0,0,1-.364.406m-41.273-.731h40.865l-.794-7.091h-40.865Z" transform="translate(-1000.089 -256.02)"/>
          <path id="Trazado_702684" data-name="Trazado 702684" d="M1231.963,230.146h-41.6a.366.366,0,0,1-.363-.325l-.876-7.822a.366.366,0,0,1,.364-.406h41.6a.366.366,0,0,1,.364.325l.876,7.822a.366.366,0,0,1-.363.406m-41.274-.731h40.865l-.795-7.091h-40.865Z" transform="translate(-991.475 -184.761)"/>
          <path id="Trazado_702685" data-name="Trazado 702685" d="M910.194,101.592H847.649a.366.366,0,0,1-.365-.342l-.639-9.829a.366.366,0,0,1,.365-.389h62.545a.366.366,0,0,1,.365.342l.64,9.829a.366.366,0,0,1-.365.389m-62.2-.731H909.8l-.592-9.1H847.4Z" transform="translate(-705.922 -75.901)"/>
          <path id="Trazado_702686" data-name="Trazado 702686" d="M785.317,285.3c.132,14.816-4.557,23.558-7.892,34.748-3.509,11.773-2.631,20.694-16.584,23.773-8.805,1.944-17.948-3.678-23.1-13.59-4.893-9.42-5.8-22.706-13.391-37.356-19.251-37.176-1.378-65.151,17.1-62.25,29.316,4.6,43.708,36.628,43.868,54.675" transform="translate(-597.044 -192.12)" fill="#fff"/>
          <path id="Trazado_702687" data-name="Trazado 702687" d="M755.652,342.742c-7.686,0-15.4-5.336-19.981-14.161-2.2-4.233-3.563-9.108-5.143-14.754-1.9-6.805-4.063-14.518-8.249-22.6-12.457-24.056-9.089-43.46-1.783-53.6,4.947-6.865,12.148-10.3,19.261-9.18,16.656,2.616,27.2,13.655,33.114,22.454,6.734,10.022,10.973,22.505,11.063,32.579.1,11.305-2.547,18.968-5.349,27.081-.863,2.5-1.756,5.083-2.558,7.775-.649,2.178-1.142,4.236-1.619,6.228-2.04,8.515-3.652,15.241-15.236,17.8a16.307,16.307,0,0,1-3.519.382M737.1,228.969c-5.979,0-11.821,3.27-16.011,9.084-7.178,9.962-10.465,29.074,1.839,52.835,4.221,8.152,6.391,15.9,8.3,22.742,1.569,5.606,2.923,10.448,5.088,14.614,5.132,9.879,14.254,15.264,22.693,13.4,11.138-2.458,12.625-8.665,14.683-17.255.48-2,.975-4.069,1.63-6.265.806-2.707,1.7-5.3,2.568-7.805,2.781-8.051,5.408-15.656,5.309-26.835-.088-9.938-4.28-22.268-10.939-32.177-5.832-8.678-16.225-19.564-32.62-22.139a16.364,16.364,0,0,0-2.544-.2" transform="translate(-595.296 -190.302)"/>
          <path id="Trazado_702688" data-name="Trazado 702688" d="M756.006,342.681c-11.269,0-19.708-8.447-24.532-24.654a.365.365,0,1,1,.7-.208c5.18,17.4,14.562,25.663,27.127,23.894,10.289-1.449,12.321-8.987,14.893-18.531.435-1.614.885-3.283,1.392-4.984.694-2.328,1.443-4.609,2.168-6.815,2.844-8.65,5.529-16.82,5.426-28.5C783.035,266.525,770.191,234,739.9,229.24c-5.129-.807-10.03,1.038-14.17,5.331-9.3,9.641-13.033,29.032-9.295,48.251a.366.366,0,0,1-.718.14c-3.781-19.443.031-39.094,9.486-48.9,4.313-4.473,9.435-6.388,14.81-5.546,16.665,2.617,27.129,13.471,32.972,22.116,6.648,9.834,10.833,22.189,10.922,32.243.1,11.8-2.6,20.026-5.462,28.735-.724,2.2-1.472,4.476-2.163,6.795-.5,1.692-.953,3.356-1.387,4.966-2.538,9.416-4.729,17.548-15.5,19.065a24.356,24.356,0,0,1-3.4.245" transform="translate(-595.556 -190.374)"/>
          <path id="Trazado_702689" data-name="Trazado 702689" d="M881.527,775.3a.365.365,0,0,1-.254-.1c-2.833-2.738-9.315-3.7-14.759-2.195a.366.366,0,0,1-.195-.705c4.97-1.376,12.112-.865,15.463,2.374a.366.366,0,0,1-.254.628" transform="translate(-722.103 -643.339)"/>
          <path id="Trazado_702690" data-name="Trazado 702690" d="M807.072,354.074a.366.366,0,0,1-.337-.507c11.011-26.329,1.938-54.666-13.093-63.631-10.03-5.982-21.577-5-26.223-2.451a20.5,20.5,0,0,0-10.244,14.544,29.4,29.4,0,0,0,6.344,23.684c2.562,3.066,8.436,8.936,12.333,9.2a.366.366,0,0,1,.34.39.37.37,0,0,1-.39.34c-4.136-.281-10.02-6.079-12.845-9.461a30.147,30.147,0,0,1-6.5-24.288,21.22,21.22,0,0,1,10.611-15.05c4.794-2.63,16.674-3.664,26.95,2.464,8,4.771,14.133,14.39,16.826,26.39a63.623,63.623,0,0,1-3.434,38.151.366.366,0,0,1-.337.225" transform="translate(-630.339 -237.437)"/>
          <path id="Trazado_702691" data-name="Trazado 702691" d="M781.766,434.212h-.018a.366.366,0,0,1-.348-.383c.294-6.161,7.74-16.656,16.953-23.895,2.339-1.838,3.67-4.752,3.846-8.428.3-6.23-2.8-13.4-7.9-18.266s-13.959-9.38-21.327-7.75c-5.04,1.116-8.838,4.859-11.288,11.124a.366.366,0,1,1-.681-.266c2.544-6.506,6.518-10.4,11.811-11.571,7.671-1.7,16.571,2.762,21.99,7.935,5.244,5.006,8.433,12.4,8.123,18.831-.187,3.894-1.614,6.995-4.125,8.968-8.914,7-16.394,17.481-16.674,23.355a.366.366,0,0,1-.365.348" transform="translate(-634.497 -312.178)"/>
          <path id="Trazado_702692" data-name="Trazado 702692" d="M699.831,286.917c-30.614-28.792-6.849-85.45,41.014-59.742l-2.749,5.2c-41.789-20.252-57.252,22.775-35.09,51.73Z" transform="translate(-572.091 -183.979)" fill="#fff"/>
          <path id="Trazado_702693" data-name="Trazado 702693" d="M698.013,285.4a.366.366,0,0,1-.251-.1,43.528,43.528,0,0,1-13.613-27.461,39.582,39.582,0,0,1,6.756-26.657,29.87,29.87,0,0,1,19.207-12.256c8.854-1.6,18.639.431,29.088,6.043a.366.366,0,0,1,.15.493l-2.749,5.2a.365.365,0,0,1-.483.158c-16.28-7.89-30.257-6.727-38.35,3.19-9.713,11.9-8.118,32.535,3.71,47.988a.365.365,0,0,1-.048.5l-3.175,2.809a.364.364,0,0,1-.242.092m17.867-66.283A28.99,28.99,0,0,0,691.5,231.615c-9.825,13.652-10.04,37.124,6.522,52.928l2.67-2.362c-11.841-15.685-13.355-36.534-3.49-48.624,8.271-10.137,22.444-11.419,38.917-3.539l2.414-4.57c-7.982-4.234-15.667-6.326-22.653-6.326" transform="translate(-570.273 -182.1)"/>
          <path id="Trazado_702694" data-name="Trazado 702694" d="M760.7,608.852l-.737.355c-2.1,1.013-4.989-.074-6.447-2.427l-4.62-7.456c-1.458-2.353-.936-5.082,1.167-6.095l.737-.355c2.1-1.013,4.989.074,6.447,2.427l4.62,7.456c1.458,2.353.936,5.082-1.167,6.1" transform="translate(-623.731 -494.016)" fill="#fff"/>
          <path id="Trazado_702695" data-name="Trazado 702695" d="M768.632,604.44l-.737.355c-2.1,1.013-4.989-.074-6.447-2.427l-4.62-7.456c-1.458-2.353-.936-5.082,1.166-6.095l.737-.355c2.1-1.013,4.989.074,6.447,2.427l4.62,7.456c1.458,2.353.936,5.082-1.167,6.1" transform="translate(-630.345 -490.337)"/>
          <path id="Trazado_702696" data-name="Trazado 702696" d="M786.22,645.769c2,5.6-.739,10.885-6.109,11.8s-11.341-2.883-13.338-8.485.739-10.885,6.109-11.8,11.342,2.883,13.338,8.485" transform="translate(-638.782 -531.247)"/>
          <path id="Trazado_702697" data-name="Trazado 702697" d="M798.734,641.215c2,5.6-.739,10.885-6.109,11.8s-11.341-2.883-13.338-8.485.739-10.885,6.109-11.8,11.342,2.883,13.338,8.485" transform="translate(-649.217 -527.45)" fill="#fff"/>
          <path id="Trazado_702698" data-name="Trazado 702698" d="M789.2,651.686c-5.047,0-10.223-3.686-12.067-8.862a9.891,9.891,0,0,1,.52-8.327,8.257,8.257,0,0,1,5.872-3.957c5.526-.945,11.694,2.97,13.744,8.722a9.892,9.892,0,0,1-.52,8.327,8.258,8.258,0,0,1-5.872,3.957,9.958,9.958,0,0,1-1.676.14m-3.986-20.556a9.342,9.342,0,0,0-1.567.131,7.539,7.539,0,0,0-5.363,3.606,9.162,9.162,0,0,0-.462,7.711c1.936,5.433,7.737,9.132,12.932,8.247a7.539,7.539,0,0,0,5.363-3.606,9.164,9.164,0,0,0,.462-7.711,12.686,12.686,0,0,0-11.365-8.378" transform="translate(-647.41 -525.62)"/>
          <path id="Trazado_702699" data-name="Trazado 702699" d="M1009.958,336.269c.089,6.648,5.252,12.52,11.332,8.472a10.523,10.523,0,0,0,4.469-7.519c5.548-40.856-7.253-64.444-29.938-78.727-2.358-.674-3.436-.068-3.778,1.274a4.814,4.814,0,0,0,1.658,4.519c20.827,19.1,25.617,43.293,16.257,71.98" transform="translate(-827.067 -215.3)"/>
          <path id="Trazado_702700" data-name="Trazado 702700" d="M1262.764,487.6a.366.366,0,0,1-.334-.514c5.954-13.482,3.255-35.95-5.554-46.233a.366.366,0,0,1,.556-.476c8.963,10.462,11.717,33.305,5.668,47a.366.366,0,0,1-.335.218" transform="translate(-1047.895 -367.078)"/>
          <path id="Trazado_702701" data-name="Trazado 702701" d="M1339.732,519.524a.366.366,0,0,1-.358-.443c2.513-11.665,1.233-24.919-3.26-33.765a.366.366,0,0,1,.652-.331c4.564,8.987,5.868,22.431,3.323,34.251a.366.366,0,0,1-.357.289" transform="translate(-1114.004 -404.207)"/>
          <path id="Trazado_702702" data-name="Trazado 702702" d="M139.105,232.5a.366.366,0,0,1-.272-.609,119.668,119.668,0,0,1,33.283-26.178.366.366,0,1,1,.342.646,118.947,118.947,0,0,0-33.08,26.019.364.364,0,0,1-.272.122" transform="translate(-115.679 -171.484)"/>
          <path id="Trazado_702703" data-name="Trazado 702703" d="M92.25,398.1a.366.366,0,0,1-.294-.582c1.144-1.558,2.34-3.112,3.555-4.62a.365.365,0,0,1,.569.458c-1.208,1.5-2.4,3.045-3.535,4.594a.365.365,0,0,1-.3.149" transform="translate(-76.612 -327.477)"/>
          <path id="Trazado_702704" data-name="Trazado 702704" d="M99.156,309.831a.366.366,0,0,1-.313-.553,112.833,112.833,0,0,1,35.541-37.239.366.366,0,1,1,.4.613,112.111,112.111,0,0,0-35.311,37,.366.366,0,0,1-.314.178" transform="translate(-82.371 -226.773)"/>
          <path id="Trazado_702705" data-name="Trazado 702705" d="M147.319,244.375a4.985,4.985,0,0,1,.05-1.45,3.848,3.848,0,0,1,.51-1.378,3.518,3.518,0,0,1,.466-.593,3.179,3.179,0,0,1,.289-.258l.177-.121.182-.089a5.062,5.062,0,0,1,1.42-.333c.457-.059.9-.106,1.326-.189a3.4,3.4,0,0,0,1.156-.408c.633-.36.888-1.262,1.172-2.11a11.309,11.309,0,0,1,.494-1.317,2.988,2.988,0,0,1,.938-1.2,1.778,1.778,0,0,1,.8-.269,3.959,3.959,0,0,1,.744,0c.476.04.927.121,1.369.18a4.037,4.037,0,0,0,1.246.031,1.215,1.215,0,0,0,.805-.675,6.4,6.4,0,0,0,.467-1.209c.066-.215.132-.436.213-.661a2.2,2.2,0,0,1,.359-.694.274.274,0,0,1,.425.346l-.009.011a1.76,1.76,0,0,0-.241.522c-.067.2-.125.421-.187.641a6.919,6.919,0,0,1-.483,1.34,2.423,2.423,0,0,1-.469.629,1.584,1.584,0,0,1-.747.381,4.58,4.58,0,0,1-1.466-.01c-.459-.057-.9-.132-1.335-.164a1.834,1.834,0,0,0-1.1.162,2.327,2.327,0,0,0-.7.937,10.717,10.717,0,0,0-.449,1.238,11.687,11.687,0,0,1-.476,1.324,3.3,3.3,0,0,1-.388.656l-.125.157-.154.142a1.953,1.953,0,0,1-.324.237,4.106,4.106,0,0,1-1.4.491c-.468.088-.929.132-1.373.186a4.976,4.976,0,0,0-1.231.258l-.126.056-.106.069a2.613,2.613,0,0,0-.223.19,2.859,2.859,0,0,0-.385.467,4.079,4.079,0,0,0-.569,2.41v.021a.274.274,0,0,1-.546.048" transform="translate(-122.807 -193.045)"/>
          <path id="Trazado_702706" data-name="Trazado 702706" d="M904.407,1738.031a3.058,3.058,0,0,1-3.242-2.58,3.108,3.108,0,0,1,3.127-3.037,3.651,3.651,0,0,1,2.381.634,2.594,2.594,0,0,1,1.141,1.936,3.109,3.109,0,0,1-3.127,3.037c-.094.007-.187.01-.279.01m.168-4.9c-.077,0-.154,0-.232.008a2.132,2.132,0,1,0,2.741,1.892,1.878,1.878,0,0,0-.836-1.392,2.882,2.882,0,0,0-1.673-.508" transform="translate(-751.376 -1444.458)"/>
          <path id="Trazado_702707" data-name="Trazado 702707" d="M968.456,1673.675a.366.366,0,0,1-.052-.728,106.209,106.209,0,0,0,37.96-12.93.366.366,0,1,1,.364.634,106.94,106.94,0,0,1-38.22,13.02.382.382,0,0,1-.052,0" transform="translate(-807.183 -1384.063)"/>
          <path id="Trazado_702708" data-name="Trazado 702708" d="M743.261,1655.13h-.01a.366.366,0,0,1,0-.731h.011c.825,0,40.993-.141,68.09-14.969a.366.366,0,1,1,.351.641c-27.258,14.916-67.6,15.059-68.443,15.059" transform="translate(-619.41 -1366.9)"/>
          <path id="Trazado_702709" data-name="Trazado 702709" d="M1729.156,332.236a.365.365,0,0,1-.366-.366v-2.925a.366.366,0,1,1,.731,0v2.925a.365.365,0,0,1-.366.366" transform="translate(-1441.445 -273.965)"/>
          <path id="Trazado_702710" data-name="Trazado 702710" d="M1729.156,371.838a.365.365,0,0,1-.366-.366v-2.925a.366.366,0,1,1,.731,0v2.925a.365.365,0,0,1-.366.366" transform="translate(-1441.445 -306.985)"/>
          <path id="Trazado_702711" data-name="Trazado 702711" d="M1702.38,356.812h-2.925a.366.366,0,1,1,0-.731h2.925a.366.366,0,1,1,0,.731" transform="translate(-1416.681 -296.896)"/>
          <path id="Trazado_702712" data-name="Trazado 702712" d="M1743.815,356.812h-2.56a.366.366,0,0,1,0-.731h2.56a.366.366,0,1,1,0,.731" transform="translate(-1451.534 -296.896)"/>
          <path id="Trazado_702713" data-name="Trazado 702713" d="M1640.144,1311.8s3.869,4.6,15.317,4.951c10.056.309,10.212-2.559,10.1-4.064-.119-1.584-1.223-3.631-9.944-4.6-9.747-1.083-15.471,3.713-15.471,3.713" transform="translate(-1367.533 -1090.533)"/>
          <path id="Trazado_702714" data-name="Trazado 702714" d="M1686.485,1804.938a28.861,28.861,0,0,1-7.235-.926.366.366,0,1,1,.2-.7,27.287,27.287,0,0,0,11.83.392.366.366,0,1,1,.163.713,22.416,22.416,0,0,1-4.958.525" transform="translate(-1399.918 -1503.567)"/>
          <path id="Trazado_702715" data-name="Trazado 702715" d="M1695.519,1673.432l-.912,8.69-5.876.688v-10.3Z" transform="translate(-1408.045 -1394.517)" fill="#fff"/>
          <path id="Trazado_702716" data-name="Trazado 702716" d="M1686.9,1681.342a.366.366,0,0,1-.366-.366v-10.3a.366.366,0,0,1,.415-.363l6.788.925a.366.366,0,0,1,.314.4l-.912,8.69a.366.366,0,0,1-.321.325l-5.876.688-.042,0m.366-10.25v9.474l5.177-.607.845-8.047Z" transform="translate(-1406.21 -1392.682)"/>
          <path id="Trazado_702717" data-name="Trazado 702717" d="M1671.672,1726.111a41.046,41.046,0,0,0,11.168,0,2.628,2.628,0,0,0,2.207-3.226c-1.038-4.218-2.826-12.223-5.9-15.932l-.763,2.012-1.053-1.894a.931.931,0,0,0-.7-.472l-2.307-.293a.933.933,0,0,0-1.03.733l-.367,1.745-1.153-2.291-.984,8.858q-.293,2.639-.824,5.242l-.527,2.579a2.319,2.319,0,0,0,2.226,2.941" transform="translate(-1391.911 -1422.689)" fill="#fff"/>
          <path id="Trazado_702718" data-name="Trazado 702718" d="M1675.39,1725.026a40.5,40.5,0,0,1-5.605-.384,3.072,3.072,0,0,1-2.155-1.152,2.788,2.788,0,0,1-.379-2.219l.527-2.584c.351-1.719.626-3.471.819-5.21l.983-8.858a.366.366,0,0,1,.69-.124l.683,1.358.152-.723a1.309,1.309,0,0,1,1.434-1.021l2.307.292a1.3,1.3,0,0,1,.972.658l.67,1.205.484-1.275a.366.366,0,0,1,.624-.1c2.914,3.522,4.688,10.811,5.747,15.167l.222.911a2.982,2.982,0,0,1-.427,2.383,3.021,3.021,0,0,1-2.085,1.292,41.453,41.453,0,0,1-5.664.387m-5.5-1.108a40.6,40.6,0,0,0,11.067,0,2.288,2.288,0,0,0,1.579-.979,2.218,2.218,0,0,0,.323-1.8l-.223-.913c-1-4.091-2.629-10.807-5.208-14.366l-.531,1.4a.365.365,0,0,1-.315.235.361.361,0,0,1-.346-.187l-1.053-1.894a.567.567,0,0,0-.424-.287l-2.307-.292a.568.568,0,0,0-.626.446l-.367,1.745a.366.366,0,0,1-.684.089l-.6-1.19-.847,7.633c-.2,1.761-.475,3.536-.83,5.275l-.526,2.579a2.089,2.089,0,0,0,.256,1.652,2.43,2.43,0,0,0,1.663.854" transform="translate(-1390.074 -1420.859)"/>
          <path id="Trazado_702719" data-name="Trazado 702719" d="M1703.092,1769.718h-.012l-5.507-.182a.366.366,0,0,1,.024-.731l5.507.182a.366.366,0,0,1-.012.731" transform="translate(-1415.122 -1474.808)"/>
          <path id="Trazado_702720" data-name="Trazado 702720" d="M1690.182,1802.212h-.012l-5.507-.182c-.09.006-2.642,0-2.922-1.775a.366.366,0,0,1,.722-.115c.181,1.147,2.155,1.159,2.209,1.159h0l5.5.181c1.938-.194,2.052-.973,2.052-.981a.365.365,0,0,1,.365-.354h.012a.365.365,0,0,1,.353.378c0,.146-.123,1.434-2.735,1.687l-.036,0" transform="translate(-1402.212 -1500.679)"/>
          <path id="Trazado_702721" data-name="Trazado 702721" d="M1522.459,1650.235l-.881,12.681h-7.07l-.329-12.681Z" transform="translate(-1262.506 -1375.947)" fill="#fff"/>
          <path id="Trazado_702722" data-name="Trazado 702722" d="M1519.745,1661.448h-7.07a.366.366,0,0,1-.366-.356l-.329-12.681a.366.366,0,0,1,.366-.375h8.279a.365.365,0,0,1,.365.391l-.88,12.681a.366.366,0,0,1-.365.34m-6.714-.731h6.373l.829-11.95h-7.512Z" transform="translate(-1260.672 -1374.113)"/>
          <path id="Trazado_702723" data-name="Trazado 702723" d="M1431.923,1705.184a2.552,2.552,0,0,1-1.97,2.525c-4.065.946-13.221,3.052-15.833,3.441-3.39.5-7.556-.534-9.347-2.517s4.011-6.717,6.764-8.439c4.09-2.559,8.02-7.616,9.668-7.844s4.724,4.553,4.724,4.553l5.028-2.112a62.244,62.244,0,0,1,.966,10.393" transform="translate(-1171.003 -1411.056)" fill="#fff"/>
          <path id="Trazado_702724" data-name="Trazado 702724" d="M1410.512,1709.81c-3.117,0-6.328-1.083-7.846-2.764a1.7,1.7,0,0,1-.41-1.444c.348-2.5,5.036-6.164,7.251-7.55a38.6,38.6,0,0,0,5.678-4.739c1.852-1.757,3.19-3.027,4.133-3.157,1.632-.233,4.114,3.256,4.913,4.46l4.747-1.994a.365.365,0,0,1,.5.264,63.253,63.253,0,0,1,.974,10.46,2.933,2.933,0,0,1-2.254,2.886c-3.891.906-13.225,3.054-15.861,3.447a12.459,12.459,0,0,1-1.826.131m8.982-18.935a.577.577,0,0,0-.075.005c-.71.1-2.177,1.49-3.73,2.964a39.166,39.166,0,0,1-5.794,4.828c-2.267,1.418-6.623,4.936-6.915,7.031a1,1,0,0,0,.228.853c1.671,1.85,5.633,2.9,9.022,2.4,2.61-.389,11.921-2.532,15.8-3.435a2.2,2.2,0,0,0,1.688-2.163,65.219,65.219,0,0,0-.878-9.885l-4.609,1.936a.365.365,0,0,1-.449-.139c-1.195-1.856-3.283-4.394-4.291-4.394" transform="translate(-1169.167 -1409.223)"/>
          <path id="Trazado_702725" data-name="Trazado 702725" d="M1420.293,1769.768c-2.575,0-4.84-.488-6.29-1.8a.366.366,0,0,1,.49-.543c5.258,4.746,23.141-2.483,23.321-2.556a.366.366,0,1,1,.276.677c-.557.228-10.438,4.22-17.8,4.22" transform="translate(-1178.879 -1471.506)"/>
          <path id="Trazado_702726" data-name="Trazado 702726" d="M1479.727,1728.306a.364.364,0,0,1-.245-.094l-3.6-3.244a.366.366,0,0,1,.49-.543l3.6,3.244a.366.366,0,0,1-.245.637" transform="translate(-1230.476 -1437.727)"/>
          <path id="Trazado_702727" data-name="Trazado 702727" d="M1519.334,1143.112s2.191,39.643,3.337,53.328-2.681,35.683-2.681,35.683l-10.913-.573s-.539-19.265-1.2-29.635a25.708,25.708,0,0,0-1.762-7.869,77.42,77.42,0,0,1-4.576-15.719c-1.366-8.98-6.02-23.165-6.02-23.165s-3.78,70.8-4.144,76.361c0,0-8.558.381-11.626-1.549,0,0-5.436-25.815-4.656-39.861s-.077-48.942-.077-48.942Z" transform="translate(-1229.854 -951.495)"/>
          <path id="Trazado_702728" data-name="Trazado 702728" d="M1683.643,1484.913a6.46,6.46,0,0,1-2.048-.334.366.366,0,0,1,.231-.694,5.719,5.719,0,0,0,3.469.052.366.366,0,1,1,.21.7,6.476,6.476,0,0,1-1.863.275" transform="translate(-1401.886 -1237.231)" fill="#fff"/>
          <path id="Trazado_702729" data-name="Trazado 702729" d="M1499.916,1508.4a.366.366,0,0,1-.366-.359c-.117-6.354-7.431-18.3-7.5-18.419a.366.366,0,1,1,.623-.383c.306.5,7.493,12.237,7.613,18.789a.366.366,0,0,1-.359.373Z" transform="translate(-1244.005 -1241.563)" fill="#fff"/>
          <path id="Trazado_702730" data-name="Trazado 702730" d="M1179.519,698.775a41.145,41.145,0,0,1-3.741-4.514s-4.215-7.107-7.413-9.676-3.7-2.908-3.7-2.908a2.606,2.606,0,0,0,0,2.908,31.216,31.216,0,0,0,2.59,3.218,1.759,1.759,0,0,1,.038,2.289,3.928,3.928,0,0,0-.532,4.168,5.907,5.907,0,0,0,5.188,3.666,1.238,1.238,0,0,1,1.084.9c.232.832.642,2.21,1.25,3.935Z" transform="translate(-970.713 -568.374)" fill="#fff"/>
          <path id="Trazado_702731" data-name="Trazado 702731" d="M1172.431,701.293a.366.366,0,0,1-.345-.244c-.608-1.723-1.02-3.1-1.257-3.958a.868.868,0,0,0-.766-.633,6.235,6.235,0,0,1-5.495-3.9,4.281,4.281,0,0,1,.589-4.534,1.391,1.391,0,0,0-.029-1.814,31.6,31.6,0,0,1-2.625-3.265,2.954,2.954,0,0,1,.016-3.325.366.366,0,0,1,.5-.083c.021.014.551.377,3.724,2.927,3.213,2.581,7.325,9.482,7.5,9.775a41.509,41.509,0,0,0,3.692,4.449.365.365,0,0,1-.044.543l-5.235,3.986a.365.365,0,0,1-.221.075m-9.5-20.91a2.233,2.233,0,0,0,.194,2.172,30.878,30.878,0,0,0,2.555,3.172,2.119,2.119,0,0,1,.048,2.764,3.564,3.564,0,0,0-.475,3.8,5.533,5.533,0,0,0,4.881,3.436,1.594,1.594,0,0,1,1.4,1.165c.213.764.566,1.954,1.077,3.437l4.512-3.435a41.347,41.347,0,0,1-3.5-4.262c-.055-.09-4.231-7.1-7.34-9.6-1.994-1.6-2.933-2.332-3.356-2.653" transform="translate(-968.859 -566.54)"/>
          <path id="Trazado_702732" data-name="Trazado 702732" d="M1511.879,671.735s-13.27-6.416-31.8.6c-15.511,5.869,2.685,48.416-.227,76.562,0,0,24.4,3.676,31.238-5.607,3.61-4.9.79-71.551.79-71.551" transform="translate(-1228.785 -557.848)" fill="#fff"/>
          <path id="Trazado_702733" data-name="Trazado 702733" d="M1488.721,748.279a79.293,79.293,0,0,1-10.8-.745.366.366,0,0,1-.309-.4c1.171-11.318-1.044-24.722-3.186-37.684-3.155-19.09-5.88-35.577,3.647-39.182,18.465-6.986,31.955-.648,32.09-.583a.366.366,0,0,1,.206.314c.115,2.727,2.784,66.837-.86,71.783-3.917,5.317-13.265,6.5-20.786,6.5m-10.347-1.42c2.98.395,24.35,2.9,30.545-5.509,2.786-3.781,1.7-48.02.728-71.092-1.712-.741-14.364-5.718-31.316.7-8.967,3.393-6.287,19.606-3.185,38.379,2.129,12.877,4.328,26.188,3.228,37.527" transform="translate(-1226.908 -556.128)"/>
          <path id="Trazado_702734" data-name="Trazado 702734" d="M1401.333,698.219s8.058-11.58,16.064-16.219a20.88,20.88,0,0,1,4.329-1.717c3.255,7.978,8.238,22.778,5.767,33.757-2.928,13.015-2.084,59.974-1.7,75.975-15.928-.348-20.086-.71-20.086-.71-2.009-11.03,6.744-75.566,6.744-75.566Z" transform="translate(-1168.415 -567.212)" fill="#fff"/>
          <path id="Trazado_702735" data-name="Trazado 702735" d="M1423.957,788.542h-.008c-15.758-.344-20.068-.707-20.11-.711a.365.365,0,0,1-.328-.3c-1.969-10.808,6.152-71.326,6.722-75.537l-11.033-15.4a.365.365,0,0,1,0-.422c.08-.116,8.2-11.7,16.18-16.327a21.216,21.216,0,0,1,4.409-1.751.364.364,0,0,1,.442.213c3.233,7.924,8.283,22.874,5.786,33.976-2.945,13.09-2.04,61.393-1.692,75.886a.366.366,0,0,1-.366.375m-19.773-1.418c1.16.081,6.144.386,19.4.678-.355-14.962-1.22-62.624,1.718-75.682,2.422-10.765-2.42-25.312-5.624-33.23a19.966,19.966,0,0,0-3.932,1.587c-7.255,4.205-14.663,14.317-15.8,15.9l10.965,15.309a.364.364,0,0,1,.065.262c-.087.639-8.581,63.562-6.793,75.174" transform="translate(-1166.58 -565.373)"/>
          <path id="Trazado_702736" data-name="Trazado 702736" d="M1580.2,714.679c1.123-14.044,9.253-31.506,13.834-40.388a55.321,55.321,0,0,1,11.677,3.517c16.308,6.983,10.522,30.739,10.522,30.739l-11.07-1.685-.041,13.884a273.526,273.526,0,0,0,2.748,39.488l4.1,23.548c-1.489-4.856-24.393-1.524-35.058-.518,1.811-26.36,2.027-52.8,3.29-68.585" transform="translate(-1314.806 -562.216)" fill="#fff"/>
          <path id="Trazado_702737" data-name="Trazado 702737" d="M1610.128,782.312a.366.366,0,0,1-.349-.258c-1.183-3.859-18.8-1.955-29.323-.818-1.951.211-3.793.41-5.352.557a.36.36,0,0,1-.29-.1.367.367,0,0,1-.109-.287c.953-13.865,1.466-27.8,1.919-40.1.414-11.268.773-21,1.371-28.485l.365.029-.365-.029c1.123-14.038,9.175-31.416,13.874-40.526a.367.367,0,0,1,.392-.192,55.85,55.85,0,0,1,11.755,3.541c6.8,2.911,10.81,9.237,11.6,18.292a44.922,44.922,0,0,1-.863,12.869.366.366,0,0,1-.41.275l-10.651-1.621-.04,13.459a274.043,274.043,0,0,0,2.744,39.435l4.1,23.537a.365.365,0,0,1-.361.429m-17.733-109.446c-4.691,9.124-12.567,26.22-13.67,40.007-.6,7.47-.956,17.194-1.37,28.453-.448,12.177-.956,25.962-1.89,39.7,1.459-.142,3.141-.323,4.913-.515,13.345-1.442,25.568-2.491,29.144.084l-3.851-22.131a274.776,274.776,0,0,1-2.753-39.552l.041-13.884a.367.367,0,0,1,.128-.277.359.359,0,0,1,.293-.084l10.732,1.634c.6-2.865,4.421-23.651-10.383-29.99a55.074,55.074,0,0,0-11.333-3.443" transform="translate(-1312.97 -560.381)"/>
          <path id="Trazado_702738" data-name="Trazado 702738" d="M1462.38,1168.595a.366.366,0,0,1-.02-.731,1.828,1.828,0,0,0,1.309-.691c2.071-2.365,1.8-9.629,1.7-11.4a18.988,18.988,0,0,1-6.918-.432.366.366,0,0,1,.188-.706,18.43,18.43,0,0,0,7.006.36.366.366,0,0,1,.427.332c.03.383.695,9.41-1.858,12.326a2.556,2.556,0,0,1-1.819.939h-.021" transform="translate(-1215.817 -962.714)"/>
          <path id="Trazado_702739" data-name="Trazado 702739" d="M1627.624,1167.683a5.62,5.62,0,0,1-4.326-1.9c-3.875-4.266-2.908-14.224-2.865-14.646a.366.366,0,0,1,.158-.265.371.371,0,0,1,.305-.05c7.824,2.208,15.862-.39,15.942-.416a.366.366,0,0,1,.229.694c-.08.027-8.034,2.6-15.942.542-.14,1.963-.505,10.105,2.714,13.649a4.918,4.918,0,0,0,3.785,1.656.138.138,0,0,0,.038,0,.366.366,0,0,1,0,.731Z" transform="translate(-1350.983 -959.183)"/>
          <path id="Trazado_702740" data-name="Trazado 702740" d="M1211.057,758.194c3.062,8.677,11.192,22.2,26.959,22.888,5.478.239,10.812-5.2,18.034-10.592,0,0-7.563-22.749-8.065-22.132-2.358,2.9-8.258,11.27-13.407,11.409-7.627.206-11.3-4.287-15.237-8.453Z" transform="translate(-1009.765 -623.962)" fill="#fff"/>
          <path id="Trazado_702741" data-name="Trazado 702741" d="M1236.542,777.094q-.187,0-.375-.008c-18.023-.787-25.443-17.9-27.288-23.131a.366.366,0,0,1,.111-.4l8.285-6.88a.366.366,0,0,1,.5.03q.382.4.763.812c3.717,3.968,7.232,7.722,14.2,7.527,4.382-.119,9.452-6.589,12.176-10.065.589-.751,1.054-1.345,1.4-1.737a.365.365,0,1,1,.546.486c-.334.376-.792.961-1.373,1.7-2.8,3.571-8.005,10.217-12.731,10.345-7.316.2-11.088-3.847-14.752-7.759l-.525-.56-7.824,6.5c1.942,5.381,9.245,21.649,26.545,22.4,4.208.177,8.294-3.062,13.484-7.171.936-.741,1.9-1.507,2.908-2.28a.366.366,0,0,1,.446.579c-1,.77-1.966,1.535-2.9,2.274-5.161,4.085-9.268,7.336-13.6,7.336" transform="translate(-1007.931 -619.601)"/>
          <path id="Trazado_702742" data-name="Trazado 702742" d="M1431.7,815.052h20.764a2.134,2.134,0,0,0,2.064-2.677l-7.7-29.28a2.134,2.134,0,0,0-2.064-1.591H1424a2.134,2.134,0,0,0-2.064,2.677l7.7,29.28a2.134,2.134,0,0,0,2.064,1.591" transform="translate(-1185.535 -651.609)" fill="#fff"/>
          <path id="Trazado_702743" data-name="Trazado 702743" d="M1450.632,813.584h-20.764a2.5,2.5,0,0,1-2.417-1.864l-7.7-29.28a2.5,2.5,0,0,1,2.417-3.136h20.764a2.5,2.5,0,0,1,2.417,1.863l7.7,29.28a2.5,2.5,0,0,1-2.417,3.136m-28.467-33.548a1.768,1.768,0,0,0-1.71,2.218l7.7,29.28a1.77,1.77,0,0,0,1.71,1.319h20.764a1.768,1.768,0,0,0,1.71-2.218l-7.7-29.28a1.77,1.77,0,0,0-1.71-1.318Z" transform="translate(-1183.7 -649.776)"/>
          <path id="Trazado_702744" data-name="Trazado 702744" d="M1546.045,841.163l-2.684-1.079a3.857,3.857,0,0,1-2.246-2.424c-.141-.451-.3-1.012-.487-1.708-.719-2.734-2.847-4.362-3.669-3.237-.493.675.742,2.726.5,4.072-.412,2.31-4.519.609-5.2.348a12.089,12.089,0,0,1-2.995-1.864,1.212,1.212,0,0,0-1.854,1.22c.318,1.93,1.1,4.39,3,5.576a11.18,11.18,0,0,0,6.127,2.077,5.189,5.189,0,0,1,2.442.829c1.114.723,2.916,1.872,5.116,3.2Z" transform="translate(-1273.526 -694.008)" fill="#fff"/>
          <path id="Trazado_702745" data-name="Trazado 702745" d="M1542.265,846.7a.365.365,0,0,1-.189-.053c-2.191-1.324-4-2.475-5.126-3.208a4.852,4.852,0,0,0-2.271-.771l-.132-.01a11.467,11.467,0,0,1-6.162-2.121c-2.033-1.268-2.844-3.869-3.166-5.827a1.577,1.577,0,0,1,2.415-1.586c.4.261.7.494.966.7a6.592,6.592,0,0,0,1.96,1.129l.093.036c2.536.99,3.655.87,4.147.594a.936.936,0,0,0,.467-.7,5.28,5.28,0,0,0-.322-2.068c-.253-.894-.473-1.665-.115-2.155a1.215,1.215,0,0,1,1.269-.484c1.222.231,2.532,1.883,3.048,3.843.167.634.329,1.2.482,1.692a3.482,3.482,0,0,0,2.034,2.194l2.683,1.079a.365.365,0,0,1,.216.437l-1.945,7.011a.365.365,0,0,1-.353.268m-15.49-13.1a.835.835,0,0,0-.457.14.847.847,0,0,0-.376.856c.3,1.809,1.031,4.2,2.832,5.325a10.841,10.841,0,0,0,5.828,2.012l.133.01a5.58,5.58,0,0,1,2.614.887c1.053.683,2.7,1.732,4.694,2.945l1.729-6.231-2.38-.957a4.212,4.212,0,0,1-2.459-2.654c-.156-.5-.322-1.08-.491-1.724-.486-1.848-1.664-3.158-2.477-3.311a.494.494,0,0,0-.543.2c-.147.2.07.966.228,1.524a5.745,5.745,0,0,1,.338,2.4,1.647,1.647,0,0,1-.829,1.211c-.929.52-2.489.34-4.771-.551l-.09-.035a7.3,7.3,0,0,1-2.144-1.233c-.268-.207-.544-.42-.92-.666a.834.834,0,0,0-.459-.141" transform="translate(-1271.692 -692.173)"/>
          <path id="Trazado_702746" data-name="Trazado 702746" d="M1619.811,829.7c8.124,4.911,21.676,12.285,26.043,9.757,5.6-3.241,7.143-25.057,7.143-26.362l-16.949-3.555-.8,8.214a3.451,3.451,0,0,1-3.606,3.047,33.612,33.612,0,0,1-8.618-1.284Z" transform="translate(-1350.58 -674.987)" fill="#fff"/>
          <path id="Trazado_702747" data-name="Trazado 702747" d="M1641.687,842.648c-5.551,0-15.719-5.372-23.9-10.318a.366.366,0,0,1-.16-.423l3.214-10.184a.366.366,0,0,1,.437-.245,32.276,32.276,0,0,0,7.9,1.241l.646.032a3.089,3.089,0,0,0,3.224-2.724l.718-7.38a.366.366,0,1,1,.728.071l-.719,7.388a3.831,3.831,0,0,1-3.988,3.376l-.644-.032a32.075,32.075,0,0,1-7.709-1.179l-3.025,9.582c13.281,8,22.3,11.409,25.424,9.6,5.292-3.064,6.961-24.183,6.961-26.046a.366.366,0,0,1,.731,0c0,.224-1.355,23.222-7.326,26.679a5,5,0,0,1-2.514.558" transform="translate(-1348.744 -677.301)"/>
          <path id="Trazado_702748" data-name="Trazado 702748" d="M1559.873,587.179a.255.255,0,0,0-.143.2l-1.07,9.117c-.216,1.295,0,2.777-1.5,3.457l-1.662.678a.851.851,0,0,0,.04,1.591,26.766,26.766,0,0,0,8.4,1.583,15.7,15.7,0,0,0,7.7-2.211.854.854,0,0,0-.209-1.562l-.278-.075c-1.242-.335-2.037-1.905-2.21-3.18l-1.312-12.962a.256.256,0,0,0-.366-.2Z" transform="translate(-1296.518 -486.586)" fill="#fff"/>
          <path id="Trazado_702749" data-name="Trazado 702749" d="M1562.148,602.337h-.038a27.01,27.01,0,0,1-8.524-1.6,1.217,1.217,0,0,1-.057-2.275l1.662-.678c.99-.45,1.075-1.335,1.174-2.359.026-.269.053-.547.1-.819l1.068-9.1a.618.618,0,0,1,.347-.487l7.4-3.569a.622.622,0,0,1,.888.5l1.312,12.962c.159,1.171.894,2.581,1.941,2.864l.278.075a1.22,1.22,0,0,1,.3,2.233,16.006,16.006,0,0,1-7.843,2.26m-3.9-16.689-1.063,9.057c-.044.265-.068.519-.094.787-.105,1.092-.225,2.33-1.613,2.96l-1.676.684a.485.485,0,0,0,.022.907,26.269,26.269,0,0,0,8.285,1.562h.036a15.272,15.272,0,0,0,7.477-2.162.475.475,0,0,0,.237-.482.483.483,0,0,0-.359-.411l-.278-.075c-1.366-.369-2.28-2.032-2.477-3.484l-1.3-12.819Zm.007-.061h0Z" transform="translate(-1294.683 -484.751)"/>
          <path id="Trazado_702750" data-name="Trazado 702750" d="M1514.378,492.23c2.606-.795-.05,2.734,9.026-2.5,3.614-2.083,2.76,2.942,3.7,2.4,3.468-1.986,3.348-1.922,5.287-1.886,1.284.024,2.615,2.059,2.8,3.776.239,2.267-1.432,3.274-1.9,8.3-.327,3.53.434,5.441-.753,6.233s-2.61-.734-3.988.042c-1.783,1-.591,4.229-2.118,6.059-.963,1.153-3.6,2.221-8.508,1.151a1.7,1.7,0,0,1-1.336-1.709c.029-1.046.072-2.368.219-3.626.7-6,2.352-7.718,1.293-8.97-1.622-1.919-5.443.335-6.567-1.292-1.167-1.69-.72-6.9,2.848-7.986" transform="translate(-1259.817 -407.91)"/>
          <path id="Trazado_702751" data-name="Trazado 702751" d="M1548.637,533.884l-.41,1.6a16.843,16.843,0,0,0-.422,2.288c-.165,1.448-.467,3.936-.742,5.315-.4,2.027-6.753,1.213-6.753,1.213l-.625-1.039-.742-.111a.836.836,0,0,1-.4-.163.806.806,0,0,1-.259-.914,29.053,29.053,0,0,0,1.944-8.78,8.74,8.74,0,0,1,8.406.594" transform="translate(-1282.564 -443.979)" fill="#fff"/>
          <path id="Trazado_702752" data-name="Trazado 702752" d="M1541.19,542.959a22.925,22.925,0,0,1-2.761-.18.366.366,0,0,1-.267-.174l-.536-.892-.572-.086a1.2,1.2,0,0,1-.572-.239,1.172,1.172,0,0,1-.374-1.326,29.013,29.013,0,0,0,1.922-8.655.364.364,0,0,1,.193-.32,9.03,9.03,0,0,1,8.774.607.367.367,0,0,1,.159.4l-.41,1.6a16.559,16.559,0,0,0-.413,2.238c-.158,1.391-.465,3.936-.746,5.346-.274,1.375-2.474,1.685-4.4,1.685m-2.493-.884c2.488.294,5.946.2,6.173-.944.276-1.384.58-3.905.737-5.286a17.245,17.245,0,0,1,.431-2.337l.343-1.335a8.44,8.44,0,0,0-7.623-.532,29.633,29.633,0,0,1-1.964,8.674.442.442,0,0,0,.144.5.468.468,0,0,0,.224.088l.742.111a.368.368,0,0,1,.259.173Z" transform="translate(-1280.729 -442.099)"/>
          <path id="Trazado_702753" data-name="Trazado 702753" d="M1601.816,556.435s.981-3.84,2.628-3.013.461,5.026-2.628,3.013" transform="translate(-1335.576 -461.339)" fill="#fff"/>
          <path id="Trazado_702754" data-name="Trazado 702754" d="M368.231,1640.81l-1.669,13.006-4.656.032-.86-14.265Z" transform="translate(-301.036 -1367.066)" fill="#fff"/>
          <path id="Trazado_702755" data-name="Trazado 702755" d="M360.072,1652.379a.365.365,0,0,1-.365-.343l-.859-14.265a.365.365,0,0,1,.426-.382l7.186,1.227a.366.366,0,0,1,.3.407l-1.669,13.006a.366.366,0,0,1-.36.319l-4.656.032Zm-.467-14.192.811,13.458,3.99-.027,1.584-12.341Z" transform="translate(-299.202 -1365.231)"/>
          <path id="Trazado_702756" data-name="Trazado 702756" d="M521.172,1684.81l-.315,10.462-6.137-.118-1.072-11.1Z" transform="translate(-428.274 -1404.14)" fill="#fff"/>
          <path id="Trazado_702757" data-name="Trazado 702757" d="M519.022,1693.806h-.007l-6.137-.118a.366.366,0,0,1-.357-.33l-1.072-11.105a.365.365,0,0,1,.106-.294.376.376,0,0,1,.295-.1l7.525.761a.366.366,0,0,1,.329.375l-.315,10.461a.366.366,0,0,1-.366.354m-5.8-.842,5.45.1.294-9.76-6.742-.682Z" transform="translate(-426.438 -1402.31)"/>
          <path id="Trazado_702758" data-name="Trazado 702758" d="M504.733,1730.606a1.572,1.572,0,0,1-.565-1.331c.114-1.528.437-4.775,1.176-5.933.979-1.536,4.116,1.06,4.116,1.06s2.246-2.53,3.457-2.988c.627-.237,3.885,2.442,7.085,5.967,3.507,3.864,5.137,5.148,5.666,8.227a2.346,2.346,0,0,1-2.392,2.711c-3.57-.1-10.679-1.252-18.543-7.714" transform="translate(-420.366 -1435.284)" fill="#fff"/>
          <path id="Trazado_702759" data-name="Trazado 702759" d="M521.513,1736.9h-.081c-3.592-.105-10.807-1.258-18.765-7.8a1.935,1.935,0,0,1-.7-1.641c.132-1.764.467-4.9,1.232-6.1a1.377,1.377,0,0,1,.973-.634c1.174-.185,2.761.9,3.411,1.392a13.313,13.313,0,0,1,3.369-2.832c1.073-.406,5.162,3.5,7.485,6.064.552.609,1.058,1.153,1.52,1.65,2.511,2.7,3.772,4.06,4.236,6.76a2.654,2.654,0,0,1-.621,2.2,2.723,2.723,0,0,1-2.061.943m-17.052-15.465a1.143,1.143,0,0,0-.174.013.638.638,0,0,0-.469.3c-.5.777-.9,2.878-1.119,5.763a1.2,1.2,0,0,0,.432,1.021h0c7.79,6.4,14.823,7.528,18.322,7.63a1.96,1.96,0,0,0,1.569-.691,1.926,1.926,0,0,0,.452-1.593c-.427-2.486-1.563-3.708-4.051-6.386-.464-.5-.971-1.046-1.526-1.657-3.467-3.82-6.187-5.828-6.709-5.862a14.327,14.327,0,0,0-3.288,2.879.366.366,0,0,1-.507.039,6.331,6.331,0,0,0-2.933-1.463" transform="translate(-418.532 -1433.492)"/>
          <path id="Trazado_702760" data-name="Trazado 702760" d="M532,1772.332a25.167,25.167,0,0,1-16.5-6.677.366.366,0,1,1,.489-.544c8.074,7.259,16.752,6.471,16.839,6.462a.366.366,0,0,1,.075.728c-.017,0-.338.031-.9.031" transform="translate(-429.72 -1471.651)"/>
          <path id="Trazado_702761" data-name="Trazado 702761" d="M322.4,1700.074l.655-7.147a2.164,2.164,0,0,0-3.354-.749,2.726,2.726,0,0,0-3.577-.887,5.04,5.04,0,0,0-2.287,1.916c-1.534,2.313-5.547,8.449-7.646,12.474-.7,1.35-.336,3.724,1.69,4.013a9.727,9.727,0,0,0,6.27-1.1c2.046-1.1,5.736-4.851,7.352-6.546a3.3,3.3,0,0,0,.9-1.977" transform="translate(-255.026 -1409.933)" fill="#fff"/>
          <path id="Trazado_702762" data-name="Trazado 702762" d="M307.628,1708.343a11.627,11.627,0,0,1-1.639-.12,2.568,2.568,0,0,1-1.974-1.4,3.573,3.573,0,0,1,.012-3.147c2.092-4.012,6.058-10.084,7.666-12.508a5.389,5.389,0,0,1,2.455-2.053,3.133,3.133,0,0,1,3.8.732,2.421,2.421,0,0,1,1.835-.358,2.992,2.992,0,0,1,1.758,1.431.37.37,0,0,1,.04.2l-.655,7.147h0a3.685,3.685,0,0,1-1,2.2c-1.909,2-5.414,5.523-7.444,6.616a9.909,9.909,0,0,1-4.855,1.257m8.039-18.812a3.321,3.321,0,0,0-1.247.266,4.662,4.662,0,0,0-2.119,1.779c-1.6,2.414-5.55,8.46-7.626,12.441a2.85,2.85,0,0,0-.01,2.475,1.83,1.83,0,0,0,1.427,1.007,9.345,9.345,0,0,0,6.045-1.058c2.014-1.084,5.748-4.89,7.261-6.476a2.951,2.951,0,0,0,.8-1.758l.644-7.029a2.191,2.191,0,0,0-1.229-.974,1.883,1.883,0,0,0-1.533.437.355.355,0,0,1-.292.062.365.365,0,0,1-.241-.176,2.205,2.205,0,0,0-1.876-1m4.893,8.71h0Z" transform="translate(-253.184 -1408.1)"/>
          <path id="Trazado_702763" data-name="Trazado 702763" d="M318.434,1753a3.4,3.4,0,0,1-2.612-1.072.366.366,0,0,1,.539-.495c1.692,1.839,5.071.11,6.067-.463a34.993,34.993,0,0,0,5.834-5.337.366.366,0,0,1,.535.5,35.484,35.484,0,0,1-6,5.471,9.556,9.556,0,0,1-4.358,1.4" transform="translate(-263.248 -1455.395)"/>
          <path id="Trazado_702764" data-name="Trazado 702764" d="M384.958,1700.5l-.037,0a.366.366,0,0,1-.327-.4l.387-3.849a.372.372,0,0,1,.4-.327.366.366,0,0,1,.327.4l-.387,3.849a.366.366,0,0,1-.363.329" transform="translate(-320.668 -1414.036)"/>
          <path id="Trazado_702765" data-name="Trazado 702765" d="M351.994,1117.589a2.916,2.916,0,0,0,2.779-2.473c1.024-6.734,3.965-27.983,3.58-47.744-.465-23.872-7.659-58.624-7.659-58.624s-11.352-1.671-19.767-1.395a16.627,16.627,0,0,1-12.808-4.889,60.936,60.936,0,0,0-6.534,23.546c-.8,12.78,6.237,82.206,6.237,82.206s.265,2.566,2.028,3.144a22.773,22.773,0,0,0,6.2,1.339,2.657,2.657,0,0,0,2.779-2.478l4.9-73.679s3.823,16.159,5.278,27.111a55.87,55.87,0,0,0,2.84,11.645,17.818,17.818,0,0,1,1.019,7.351c-.453,6.469-1,19.615.81,31.718a2.921,2.921,0,0,0,2.072,2.379,20.285,20.285,0,0,0,6.251.841" transform="translate(-259.742 -835.844)"/>
          <path id="Trazado_702766" data-name="Trazado 702766" d="M359.523,1432.317a8.364,8.364,0,0,1-5.594-1.88.366.366,0,1,1,.493-.541c2.377,2.167,6.228,1.625,6.266,1.619a.366.366,0,0,1,.108.724,9.231,9.231,0,0,1-1.274.079" transform="translate(-295.003 -1192.152)" fill="#fff"/>
          <path id="Trazado_702767" data-name="Trazado 702767" d="M224.812,575.6c.2.615,3.81,12.408-4.1,17.139-7.4,4.422-19.145-.753-21.311-1.707-5.994-2.641-12.768-7.873-11.638-11.39.47-1.463,2.06-1.856,1.968-3.323-.144-2.3-4.177-3.2-6.562-5.221-5.17-4.381-3.758-15.025,2.341-21.225,6.444-6.551,15.27-5.246,17.14-11.249,1.076-3.453-1.77-5.236.139-8.837,1-1.884,3.467-3.336,8.4-6.24,6.768-3.982,9.471-4.411,10.4-4.537a14.77,14.77,0,0,1,8,.8c.963.421,3.332,1.456,4.023,3.444.726,2.086-.846,3.923-1.7,4.922-1.912,2.236-4.095,2.665-5.4,3.671-5.864,4.511,3.436,12.739-.154,23.941-1.781,5.559-5.377,7.608-4.4,13.141.537,3.034,1.783,3.351,2.855,6.675" transform="translate(-150.075 -432.565)"/>
          <path id="Trazado_702768" data-name="Trazado 702768" d="M305.956,713.265l-3.908-.146a24.471,24.471,0,0,1-3.686,6.394c-1.79,2.234-5.6,6.994-9.591,6.7-4.113-.305-6.2-9.342-10.928-14.5a89.523,89.523,0,0,0-17.019-1.64,86.4,86.4,0,0,0-12.057.828,50.84,50.84,0,0,0-7.582,1.44l0-.005-.052.02c-.353.1-.731.2-1.145.322.019.034.034.07.053.1-22.626,9.344-21.587,44.019.2,46.175-.231,3.653-.05,6.72,1.168,7.764,2.563,2.2,7.692.989,19.61.228,9.76-.623,21.541,6.019,18.926-15.278-.242-1.968-.041-9.576-.172-15.209a16.451,16.451,0,0,0,9.877,3.072c8.653-.525,17.569-11.4,16.3-26.263" transform="translate(-186.337 -592.047)" fill="#fff"/>
          <path id="Trazado_702769" data-name="Trazado 702769" d="M244.559,766.5c-2.428,0-4.04-.339-5.207-1.34-1.138-.975-1.558-3.431-1.316-7.715-8.747-1.019-15.037-7.568-16.455-17.175-1.521-10.308,2.921-23.907,16.24-29.557a.087.087,0,0,1,.005-.013.365.365,0,0,1,.237-.212c.415-.118.794-.225,1.148-.323l.024-.011a.351.351,0,0,1,.094-.021,51.271,51.271,0,0,1,7.565-1.433A87.519,87.519,0,0,1,259,707.868h.007a90.133,90.133,0,0,1,17.082,1.647.364.364,0,0,1,.2.112,37.566,37.566,0,0,1,4.891,7.565c1.922,3.571,3.581,6.656,5.794,6.82,3.792.279,7.5-4.34,9.278-6.562a24.086,24.086,0,0,0,3.63-6.3.362.362,0,0,1,.354-.232l3.907.146a.366.366,0,0,1,.351.334c.68,7.972-1.538,15.562-6.086,20.825-3.053,3.534-6.8,5.606-10.558,5.834a16.438,16.438,0,0,1-9.519-2.748c.041,2.273.036,4.827.032,7.1-.006,3.367-.012,6.276.122,7.371.885,7.2.223,11.669-2.082,14.053-2.537,2.624-6.637,2.262-10.977,1.876a41.814,41.814,0,0,0-6.207-.242c-2.891.185-5.358.393-7.535.577-2.958.251-5.281.447-7.129.447m-6.018-55.387a.364.364,0,0,1-.185.169c-13.155,5.434-17.543,18.78-16.052,28.881,1.385,9.386,7.575,15.743,16.153,16.592a.365.365,0,0,1,.329.387c-.262,4.136.088,6.647,1.041,7.463,1.825,1.564,5.159,1.282,11.8.719,2.181-.185,4.652-.394,7.55-.579a42.3,42.3,0,0,1,6.318.243c4.162.369,8.092.718,10.387-1.656,2.11-2.182,2.725-6.583,1.882-13.455-.14-1.141-.134-4.07-.128-7.462,0-2.51.01-5.354-.046-7.783a.366.366,0,0,1,.572-.31,16.234,16.234,0,0,0,9.648,3.009c3.557-.216,7.126-2.2,10.049-5.582,4.358-5.045,6.514-12.3,5.936-19.963l-3.324-.125a24.77,24.77,0,0,1-3.645,6.248c-1.857,2.319-5.719,7.142-9.9,6.834-2.613-.194-4.361-3.442-6.384-7.2a37.678,37.678,0,0,0-4.7-7.328,89.419,89.419,0,0,0-16.824-1.611H259a86.778,86.778,0,0,0-12.005.824,50.565,50.565,0,0,0-7.537,1.431l-.029.007-.891.25" transform="translate(-184.514 -590.212)"/>
          <path id="Trazado_702770" data-name="Trazado 702770" d="M685.92,656.084l2.792-6.677a1.038,1.038,0,0,1,1.973.616l-.593,2.8,2.513,2.491a2.6,2.6,0,0,1,.534,2.926l-1.2,2.621a3.5,3.5,0,0,1-3.383,2.04l-.969-.055a3.5,3.5,0,0,1-3.173-2.545l-.479-1.7a1.92,1.92,0,0,1,1.435-2.4Z" transform="translate(-570.198 -540.936)" fill="#fff"/>
          <path id="Trazado_702771" data-name="Trazado 702771" d="M686.923,661.432c-.075,0-.149,0-.225-.007l-.969-.055a3.869,3.869,0,0,1-3.5-2.81l-.479-1.7a2.284,2.284,0,0,1,1.708-2.853l.362-.08,2.719-6.5a1.4,1.4,0,0,1,2.668.833l-.552,2.6,2.372,2.35a2.974,2.974,0,0,1,.609,3.337l-1.2,2.621a3.843,3.843,0,0,1-3.511,2.26m.907-14.133a.671.671,0,0,0-.619.413l-2.792,6.677a.367.367,0,0,1-.259.216l-.548.12a1.554,1.554,0,0,0-1.162,1.94l.479,1.7a3.139,3.139,0,0,0,2.842,2.279l.969.055a3.12,3.12,0,0,0,3.03-1.827l1.2-2.621a2.24,2.24,0,0,0-.459-2.514L688,651.242a.365.365,0,0,1-.1-.335l.593-2.8a.673.673,0,0,0-.658-.812m-3.749,6.949h0Z" transform="translate(-568.36 -539.1)"/>
          <path id="Trazado_702772" data-name="Trazado 702772" d="M696.233,692.778l2.352.554s.149,1.978-1.349,1.784Z" transform="translate(-580.511 -577.63)" fill="#fff"/>
          <path id="Trazado_702773" data-name="Trazado 702773" d="M695.6,693.66a1.858,1.858,0,0,1-.244-.016.365.365,0,1,1,.094-.725.7.7,0,0,0,.6-.15,1.537,1.537,0,0,0,.336-.982l-2.071-.488a.366.366,0,1,1,.168-.712l2.352.554a.366.366,0,0,1,.281.329,2.5,2.5,0,0,1-.561,1.829,1.348,1.348,0,0,1-.955.361" transform="translate(-578.676 -575.796)"/>
          <path id="Trazado_702774" data-name="Trazado 702774" d="M720.655,677.172l-.94,3.358Z" transform="translate(-600.09 -564.618)" fill="#fff"/>
          <path id="Trazado_702775" data-name="Trazado 702775" d="M717.881,679.062a.358.358,0,0,1-.1-.014.365.365,0,0,1-.254-.45l.94-3.359a.366.366,0,0,1,.7.2l-.94,3.358a.366.366,0,0,1-.352.267" transform="translate(-598.256 -562.784)"/>
          <path id="Trazado_702776" data-name="Trazado 702776" d="M730.24,687.361l-.775,2.665Z" transform="translate(-608.22 -573.114)" fill="#fff"/>
          <path id="Trazado_702777" data-name="Trazado 702777" d="M727.632,688.554a.366.366,0,0,1-.351-.468l.775-2.665a.366.366,0,0,1,.7.2l-.775,2.665a.366.366,0,0,1-.351.264" transform="translate(-606.386 -571.276)"/>
          <path id="Trazado_702778" data-name="Trazado 702778" d="M554.961,790.874a.366.366,0,0,1-.363-.323l-1.464-12.262a.366.366,0,1,1,.726-.086l1.464,12.262a.366.366,0,0,1-.32.406l-.044,0" transform="translate(-461.195 -648.588)"/>
          <path id="Trazado_702779" data-name="Trazado 702779" d="M385.041,926.518l-6.035-.432a2.613,2.613,0,0,0-2.314,1.141l-2.068,2.96a2.658,2.658,0,0,1-1.625,1.09,28.722,28.722,0,0,1-5.97.234v6.568a65.446,65.446,0,0,0,7.789-2.474,8.726,8.726,0,0,0,4.055-4.346c.984-2.113,4.562-2.181,6.443-3.258a.794.794,0,0,0-.274-1.483" transform="translate(-306.024 -772.155)" fill="#fff"/>
          <path id="Trazado_702780" data-name="Trazado 702780" d="M365.194,936.607a.366.366,0,0,1-.366-.366v-6.569a.366.366,0,0,1,.113-.265.376.376,0,0,1,.269-.1,28.788,28.788,0,0,0,5.877-.226,2.29,2.29,0,0,0,1.4-.942l2.068-2.96a2.976,2.976,0,0,1,2.64-1.3l6.035.432a1.086,1.086,0,0,1,.991.866,1.182,1.182,0,0,1-.561,1.3,11.814,11.814,0,0,1-2.489.923c-1.589.466-3.233.947-3.8,2.172a9.03,9.03,0,0,1-4.247,4.53,66.323,66.323,0,0,1-7.841,2.491.374.374,0,0,1-.087.01m.366-6.553v5.719a66.644,66.644,0,0,0,7.293-2.348,8.48,8.48,0,0,0,3.854-4.158c.71-1.525,2.515-2.054,4.261-2.565a11.354,11.354,0,0,0,2.331-.856.451.451,0,0,0,.212-.5.362.362,0,0,0-.331-.3l-6.035-.432a2.266,2.266,0,0,0-1.989.986l-2.068,2.959a3.015,3.015,0,0,1-1.849,1.238,27.936,27.936,0,0,1-5.679.257" transform="translate(-304.189 -770.317)"/>
          <path id="Trazado_702781" data-name="Trazado 702781" d="M333.177,850.262a.394.394,0,0,1-.054,0c-4.3-.636-7.653-2.492-9.693-5.368-2.2-3.094-2.859-7.313-1.919-12.2a.366.366,0,0,1,.719.138c-.9,4.688-.28,8.713,1.8,11.64,1.922,2.709,5.1,4.461,9.2,5.067a.366.366,0,0,1-.053.728" transform="translate(-267.727 -694.039)"/>
          <path id="Trazado_702782" data-name="Trazado 702782" d="M147.756,1704.258l.775,10.431a1.942,1.942,0,0,0,1.908,2.07l1.231-.036a1.925,1.925,0,0,0,1.791-1.992l1.158-9.51Z" transform="translate(-123.197 -1420.991)" fill="#fff"/>
          <path id="Trazado_702783" data-name="Trazado 702783" d="M148.554,1715.29a2.135,2.135,0,0,1-1.516-.64,2.46,2.46,0,0,1-.707-1.788l-.774-10.413a.365.365,0,0,1,.415-.389l6.864.963a.366.366,0,0,1,.312.406l-1.155,9.488a2.279,2.279,0,0,1-2.146,2.335l-1.231.036h-.062m-2.234-12.442.742,9.979a.349.349,0,0,1,0,.037,1.728,1.728,0,0,0,.492,1.27,1.37,1.37,0,0,0,1.04.425l1.231-.036a1.554,1.554,0,0,0,1.436-1.627.394.394,0,0,1,0-.044l1.115-9.153Z" transform="translate(-121.364 -1419.155)"/>
          <path id="Trazado_702784" data-name="Trazado 702784" d="M134.788,1762.93a.7.7,0,0,0-1.064-.006,7.212,7.212,0,0,0-1.64,2.926c-.424,1.884-1.139,5.844.162,6.277.964.321,11.174-.014,16.227-.2a1.9,1.9,0,0,0,1.371-3.138,12.644,12.644,0,0,0-4.16-2.634,12.832,12.832,0,0,1-4.624-2.942,1.3,1.3,0,0,0-1.664-.278l-1.638,1.006a1.9,1.9,0,0,1-2.433-.385Z" transform="translate(-109.645 -1469.705)" fill="#fff"/>
          <path id="Trazado_702785" data-name="Trazado 702785" d="M133.484,1770.792a17.48,17.48,0,0,1-3.214-.151c-1.18-.393-1.316-2.648-.4-6.7a7.511,7.511,0,0,1,1.721-3.087,1.132,1.132,0,0,1,.811-.366,1.068,1.068,0,0,1,.807.375h0l.536.628a1.521,1.521,0,0,0,1.964.31l1.638-1.006a1.661,1.661,0,0,1,2.132.351,12.5,12.5,0,0,0,4.494,2.846,12.865,12.865,0,0,1,4.288,2.726,2.214,2.214,0,0,1,.378,2.362,2.257,2.257,0,0,1-2.009,1.383c-6.03.221-10.421.332-13.142.332m-1.091-9.577a.334.334,0,0,0-.255.116,6.946,6.946,0,0,0-1.558,2.766c-.85,3.776-.652,5.66-.079,5.85.237.08,2.1.3,16.1-.217a1.533,1.533,0,0,0,1.363-.94,1.469,1.469,0,0,0-.252-1.589,12.165,12.165,0,0,0-4.033-2.542,13.161,13.161,0,0,1-4.755-3.038.934.934,0,0,0-1.2-.206l-1.638,1.006a2.251,2.251,0,0,1-2.9-.459l-.536-.629a.334.334,0,0,0-.255-.118Z" transform="translate(-107.784 -1467.871)"/>
          <path id="Trazado_702786" data-name="Trazado 702786" d="M181.935,1784.728a.366.366,0,0,1-.209-.666l2.485-1.719a.366.366,0,0,1,.416.6l-2.485,1.719a.364.364,0,0,1-.208.065" transform="translate(-151.39 -1486.042)"/>
          <path id="Trazado_702787" data-name="Trazado 702787" d="M153.551,1353.779s-5.319,45.644-5.32,45.647l-10.365-.391c-.458-.67-1.393-37.416-.282-42.888.879-4.329,3.281-16.912,3.281-16.912l13.384-4.114s-.527,11.182-.7,18.658" transform="translate(-114.28 -1113.209)"/>
          <path id="Trazado_702788" data-name="Trazado 702788" d="M65.168,1701.36l.9,11.635a1.942,1.942,0,0,0,1.908,2.07l1.231-.036A1.925,1.925,0,0,0,71,1713.037l1.637-11.316Z" transform="translate(-54.336 -1418.574)" fill="#fff"/>
          <path id="Trazado_702789" data-name="Trazado 702789" d="M66.087,1713.591a2.133,2.133,0,0,1-1.515-.639,2.461,2.461,0,0,1-.708-1.787l-.9-11.617a.367.367,0,0,1,.1-.283.334.334,0,0,1,.28-.11l7.466.362a.366.366,0,0,1,.344.418l-1.634,11.291a2.279,2.279,0,0,1-2.146,2.33l-1.231.036h-.062M63.729,1699.9l.866,11.222a.328.328,0,0,1,0,.038,1.728,1.728,0,0,0,.492,1.27,1.354,1.354,0,0,0,1.04.425l1.231-.036a1.554,1.554,0,0,0,1.436-1.627.372.372,0,0,1,0-.052l1.58-10.917Z" transform="translate(-52.501 -1416.734)"/>
          <path id="Trazado_702790" data-name="Trazado 702790" d="M52.939,1767.277a.7.7,0,0,0-1.064-.006,7.213,7.213,0,0,0-1.64,2.926c-.424,1.884-1.139,5.844.162,6.277.964.321,11.174-.014,16.227-.2A1.9,1.9,0,0,0,68,1773.139a12.644,12.644,0,0,0-4.16-2.634,12.834,12.834,0,0,1-4.624-2.942,1.3,1.3,0,0,0-1.664-.278l-1.638,1.006a1.9,1.9,0,0,1-2.433-.385Z" transform="translate(-41.401 -1473.33)" fill="#fff"/>
          <path id="Trazado_702791" data-name="Trazado 702791" d="M51.633,1775.139a17.508,17.508,0,0,1-3.213-.151c-1.18-.393-1.316-2.649-.4-6.7a7.509,7.509,0,0,1,1.721-3.087,1.068,1.068,0,0,1,.8-.366h.006a1.068,1.068,0,0,1,.807.375l.536.628a1.52,1.52,0,0,0,1.963.31l1.638-1.006a1.664,1.664,0,0,1,2.133.351,12.5,12.5,0,0,0,4.494,2.845,12.868,12.868,0,0,1,4.288,2.726,2.215,2.215,0,0,1,.378,2.362,2.259,2.259,0,0,1-2.01,1.384c-6.03.22-10.422.331-13.142.331m-1.091-9.577a.333.333,0,0,0-.254.116,6.952,6.952,0,0,0-1.558,2.766c-.85,3.776-.652,5.659-.079,5.85.236.079,2.094.3,16.1-.216a1.534,1.534,0,0,0,1.364-.941,1.471,1.471,0,0,0-.253-1.589,12.172,12.172,0,0,0-4.033-2.542,13.166,13.166,0,0,1-4.755-3.038.934.934,0,0,0-1.2-.206l-1.637,1.006a2.25,2.25,0,0,1-2.9-.459l-.536-.629a.331.331,0,0,0-.254-.119Z" transform="translate(-39.539 -1471.496)"/>
          <path id="Trazado_702792" data-name="Trazado 702792" d="M100.087,1789.075a.366.366,0,0,1-.209-.666l2.485-1.719a.366.366,0,0,1,.416.6l-2.484,1.719a.366.366,0,0,1-.208.065" transform="translate(-83.146 -1489.667)"/>
          <path id="Trazado_702793" data-name="Trazado 702793" d="M69.531,1357.231s-7.464,45-7.465,45l-9.176.292c-.458-.67-.437-37.455.674-42.927.879-4.329,1.855-21.194,1.855-21.194l13,4.3a81.852,81.852,0,0,1,1.109,14.528" transform="translate(-43.864 -1115.947)"/>
          <path id="Trazado_702794" data-name="Trazado 702794" d="M62.608,1410.445a.366.366,0,0,1-.236-.646c3.514-2.956,5.323-5.827,5.53-8.777a.36.36,0,0,1,.39-.339.365.365,0,0,1,.339.39c-.222,3.157-2.115,6.195-5.789,9.285a.365.365,0,0,1-.235.086" transform="translate(-51.897 -1167.874)" fill="#fff"/>
          <path id="Trazado_702795" data-name="Trazado 702795" d="M237.072,982.142c5.331.959,7.777.943,12.186-1.111,0,0,4.912-2.718,4.448-4.108l-1.428-12.384a13.9,13.9,0,0,1,.45-5.6l1.716-4.833a.764.764,0,0,1,1.484.277l-.07,2.506a4.664,4.664,0,0,0,1.169-.121,2.765,2.765,0,0,0,1.6-1.689c.313-.884.826-2.3,1.04-2.686a4.216,4.216,0,0,1,1.35-1.776l.02-.011a.956.956,0,0,1,1.4.985l-.41,2.7a9.3,9.3,0,0,1-2.616,5.178l-2.778,2.781a1.8,1.8,0,0,0-.393,1.961l4.719,11.484c1.064,2.651,1.333,5.149.642,6.788-3.6,8.535-25.82,13.9-25.82,13.9Z" transform="translate(-196.592 -792.505)" fill="#fff"/>
          <path id="Trazado_702796" data-name="Trazado 702796" d="M233.946,994.933a.366.366,0,0,1-.364-.4l1.29-14.245a.366.366,0,0,1,.429-.327c5.3.955,7.647.93,11.967-1.082,2.221-1.23,4.475-3,4.255-3.661a.346.346,0,0,1-.016-.074l-1.428-12.384a14.185,14.185,0,0,1,.462-5.745l1.723-4.853a1.13,1.13,0,0,1,2.194.41l-.059,2.122a2.782,2.782,0,0,0,.665-.09,2.389,2.389,0,0,0,1.386-1.469c.365-1.033.847-2.347,1.065-2.742.044-.079.088-.163.135-.25a3.832,3.832,0,0,1,1.359-1.67,1.322,1.322,0,0,1,1.958,1.349l-.41,2.7a9.6,9.6,0,0,1-2.719,5.382l-2.779,2.781a1.434,1.434,0,0,0-.313,1.563l4.719,11.484c1.123,2.8,1.356,5.372.641,7.069-3.63,8.606-25.157,13.9-26.072,14.118a.355.355,0,0,1-.086.01m1.618-14.181-1.207,13.334c3.293-.857,21.881-6,25.073-13.565.641-1.521.406-3.893-.644-6.509l-4.718-11.481a2.165,2.165,0,0,1,.472-2.359l2.779-2.781a8.88,8.88,0,0,0,2.513-4.975l.41-2.7a.591.591,0,0,0-.865-.609,3.245,3.245,0,0,0-1.083,1.383c-.048.09-.095.178-.14.26-.15.27-.52,1.229-1.016,2.631a3.117,3.117,0,0,1-1.818,1.909,4.7,4.7,0,0,1-1.3.144.366.366,0,0,1-.362-.376l.07-2.506a.4.4,0,0,0-.774-.144l-1.717,4.833a13.451,13.451,0,0,0-.432,5.433l1.425,12.354c.439,1.557-3.426,3.837-4.63,4.5-4.378,2.04-6.91,2.119-12.035,1.22" transform="translate(-194.757 -790.686)"/>
          <path id="Trazado_702797" data-name="Trazado 702797" d="M86.254,1131.717l-2.709-12.824c-3.971,1.228-4.714,3.158-9.392,3.071-6.114-3.78-23.41-2.247-30.587-.039-5.137,1.581-5.02,1.706-8.131,4.058l2.394,8.551c1.353,3.589.64,7.393.974,11.215l1.606,18.347c19.8,5.188,29.9-2.083,29.9-2.083l.869-19.417q.08-1.794.314-3.574c3.941-1.1,10.56-3.5,14.758-7.305" transform="translate(-29.544 -932.92)" fill="#fff"/>
          <path id="Trazado_702798" data-name="Trazado 702798" d="M52.088,1164.477a53.635,53.635,0,0,1-13.607-1.861.366.366,0,0,1-.271-.322L36.6,1143.947c-.114-1.3-.108-2.612-.1-3.878a19.755,19.755,0,0,0-.851-7.239l-2.4-8.581a.366.366,0,0,1,.131-.39l.721-.548c2.442-1.862,2.756-2.1,7.523-3.568,7.02-2.16,24.41-3.814,30.8.024h.193a9.973,9.973,0,0,0,5.47-1.513,18.562,18.562,0,0,1,3.516-1.544.366.366,0,0,1,.466.274l2.709,12.824a.365.365,0,0,1-.112.346c-4.524,4.1-11.6,6.447-14.671,7.321-.137,1.1-.232,2.209-.281,3.3l-.869,19.417a.366.366,0,0,1-.152.28c-.075.054-5.731,4-16.6,4m-13.173-2.5c17.975,4.632,27.914-1.168,29.206-2l.861-19.232c.054-1.194.16-2.407.317-3.6a.365.365,0,0,1,.264-.3c2.852-.795,9.92-3.065,14.455-7.084l-2.582-12.22a18.448,18.448,0,0,0-3,1.367,10.738,10.738,0,0,1-6.121,1.6.367.367,0,0,1-.186-.054c-5.913-3.656-23.184-2.186-30.288,0-4.642,1.428-4.893,1.62-7.294,3.45l-.525.4,2.327,8.312a20.57,20.57,0,0,1,.888,7.47c-.006,1.25-.012,2.542.1,3.811Z" transform="translate(-27.71 -931.087)"/>
          <path id="Trazado_702799" data-name="Trazado 702799" d="M9.6,1181.741a10.373,10.373,0,0,1,1.258-1.828l2.09,5.545a42.082,42.082,0,0,1,1.938,6.864c.353,2.373,1.481,4.049,4.127,3.816,3.338-.294,8.253-.985,10.654-5.09,1.056-1.806,2.951-3.676,4.024-2.724.67.595-.507,1.611-.945,2.387-.269.477.061.632.6.556,3.731-.524,6.121-3.993,7.136-2.388a3.845,3.845,0,0,1-.4,3.022c-1.811,3.2-6.161,4.484-8.815,5.248-4.953,1.426-11.589,8.871-19.026,8.053-5.639-.62-5.953-17.323-2.644-23.461" transform="translate(-6.23 -983.798)" fill="#fff"/>
          <path id="Trazado_702800" data-name="Trazado 702800" d="M11.618,1203.8a10.9,10.9,0,0,1-1.2-.065,4.35,4.35,0,0,1-3.258-2.669c-2.574-4.9-2.4-16.267.332-21.33a10.781,10.781,0,0,1,1.3-1.892.37.37,0,0,1,.341-.123.365.365,0,0,1,.279.231l2.09,5.545a42.544,42.544,0,0,1,1.954,6.923c.381,2.562,1.6,3.709,3.736,3.521,3.91-.345,8.2-1.2,10.371-4.91.834-1.426,2.211-2.95,3.408-3.141a1.384,1.384,0,0,1,1.174.328c.744.66.062,1.561-.436,2.219a6.073,6.073,0,0,0-.433.621l-.014.026a1.3,1.3,0,0,0,.247-.013,11.115,11.115,0,0,0,4.24-1.815c1.3-.8,2.525-1.561,3.255-.406a4.126,4.126,0,0,1-.389,3.4c-1.9,3.366-6.366,4.651-9.032,5.419a25.329,25.329,0,0,0-5.859,3.166c-3.62,2.339-7.685,4.965-12.11,4.965m-3.48-23.717c-2.643,4.9-2.818,15.9-.328,20.643a3.68,3.68,0,0,0,2.69,2.281c4.632.515,8.988-2.3,12.831-4.787a25.757,25.757,0,0,1,6.054-3.254c2.559-.737,6.841-1.97,8.6-5.076a3.637,3.637,0,0,0,.408-2.646c-.3-.471-.774-.276-2.253.637a11.7,11.7,0,0,1-4.523,1.917c-.495.069-.836-.025-1.011-.282a.729.729,0,0,1,.04-.815,6.734,6.734,0,0,1,.487-.7c.523-.691.736-1.051.533-1.231a.652.652,0,0,0-.573-.153c-.807.129-2.023,1.3-2.892,2.788-2.34,4-6.842,4.908-10.938,5.269-1.761.159-3.971-.435-4.521-4.126a41.841,41.841,0,0,0-1.918-6.789l-1.864-4.947a9.971,9.971,0,0,0-.82,1.273" transform="translate(-4.449 -981.966)"/>
          <path id="Trazado_702801" data-name="Trazado 702801" d="M11.1,1174.667c-2.005,3.856-6.07,6.86-6,10.725-6.773-14.145.078-28.644,3.67-28.986a54.15,54.15,0,0,1,2.489,13.43c.1,1.759.65,3.268-.162,4.83" transform="translate(-1.863 -964.198)" fill="#fff"/>
          <path id="Trazado_702802" data-name="Trazado 702802" d="M3.245,1183.919a.366.366,0,0,1-.33-.208c-5.23-10.922-2.324-21.442.217-25.936,1.221-2.16,2.588-3.462,3.748-3.572a.359.359,0,0,1,.4.329.365.365,0,0,1-.329.4c-.892.085-2.111,1.313-3.18,3.2a28.437,28.437,0,0,0-.751,24.026c.432-2,1.807-3.772,3.246-5.629a26.557,26.557,0,0,0,2.653-3.872,5.219,5.219,0,0,0,.261-3.281c-.056-.436-.114-.887-.14-1.36a.365.365,0,0,1,.73-.041c.025.447.081.884.136,1.307A5.855,5.855,0,0,1,9.566,1173a27.083,27.083,0,0,1-2.724,3.983c-1.684,2.174-3.276,4.227-3.231,6.567a.366.366,0,0,1-.281.363.357.357,0,0,1-.084.01" transform="translate(0 -962.36)"/>
          <path id="Trazado_702803" data-name="Trazado 702803" d="M74.947,970.408a10.26,10.26,0,0,1-5.41,1.117c-.35-.041-4.717-.6-5.319-3.3a3.868,3.868,0,0,1,.653-2.82,2.606,2.606,0,0,1-2.3-2.667,2.529,2.529,0,0,1,1.766-2.1,6.731,6.731,0,0,1-1.965-3.665c-.663-4.313,3.941-7.5,4.933-8.139,1.172-.754,3.928-2.528,6.451-1.393a5,5,0,0,1,2.221,2.117,5.49,5.49,0,0,1,1.912-1.184c2.838-1.009,6.213.623,7.908,2.933a5.64,5.64,0,0,1,1.293,3.731c-.122,1.465-.969,2.168-2.023,3.767-1.917,2.908-1.087,3.578-2.561,5.944-2.137,3.431-5.661,4.876-7.561,5.656" transform="translate(-51.952 -789.66)"/>
          <path id="Trazado_702804" data-name="Trazado 702804" d="M110.031,1027.634c.079.4.669,4.263-.858,5.979a7.685,7.685,0,0,1-3,2.192s7,1.636,10.78.762,3.283-1.857,3.283-1.857l-2.138-1.12a1.932,1.932,0,0,1-1.028-1.887l.041-.449a5.133,5.133,0,0,0,3.644-.612,5.478,5.478,0,0,0,2.3-4.442c.047-1.391-.532-1.153-1.02-3.654-.419-2.148-.187-3.242-1.048-4.871a7.271,7.271,0,0,0-.891-1.312,6.378,6.378,0,0,0-3.668,1.223c-1.162.9-1.046,1.591-2.195,2.286-1.675,1.014-3.2.313-3.7,1.188-.185.323-.249.893.358,1.974,0,0-1.588-1.043-2.678-.4a1.728,1.728,0,0,0-.746.976c-.355,1.167.688,2.777,2.567,4.028" transform="translate(-88.522 -847.433)" fill="#fff"/>
          <path id="Trazado_702805" data-name="Trazado 702805" d="M112.378,1035.354a41.814,41.814,0,0,1-8.125-1.03.366.366,0,0,1-.029-.7,7.448,7.448,0,0,0,2.844-2.087c1.223-1.374.968-4.5.8-5.519-1.968-1.353-2.98-3.05-2.585-4.351a2.1,2.1,0,0,1,.912-1.184,2.53,2.53,0,0,1,2.124-.043,1.706,1.706,0,0,1,.063-1.393c.343-.6.991-.659,1.677-.724a4.673,4.673,0,0,0,2.152-.6,3.009,3.009,0,0,0,1.023-1.022,4.978,4.978,0,0,1,1.138-1.24,6.718,6.718,0,0,1,3.874-1.3.351.351,0,0,1,.3.128,7.6,7.6,0,0,1,.936,1.378,7.752,7.752,0,0,1,.819,3.112c.059.536.126,1.144.266,1.861a8,8,0,0,0,.68,2.151,2.91,2.91,0,0,1,.347,1.585,5.871,5.871,0,0,1-2.473,4.739,5.366,5.366,0,0,1-3.51.725l-.005.06a1.561,1.561,0,0,0,.833,1.53l2.138,1.12a.368.368,0,0,1,.158.16.768.768,0,0,1-.029.654c-.32.68-1.5,1.259-3.5,1.723a12.842,12.842,0,0,1-2.82.267m-6.924-1.524c2.075.408,6.782,1.192,9.579.544,2.3-.531,2.849-1.074,2.98-1.289l-1.922-1.007a2.291,2.291,0,0,1-1.222-2.244l.041-.449a.367.367,0,0,1,.145-.259.363.363,0,0,1,.289-.067,4.725,4.725,0,0,0,3.381-.563,5.141,5.141,0,0,0,2.13-4.144,2.209,2.209,0,0,0-.279-1.251,8.739,8.739,0,0,1-.735-2.321c-.145-.747-.214-1.37-.275-1.921a6.974,6.974,0,0,0-.738-2.849,6.9,6.9,0,0,0-.731-1.108,5.916,5.916,0,0,0-3.281,1.136,4.3,4.3,0,0,0-.985,1.079,3.744,3.744,0,0,1-1.244,1.23,5.356,5.356,0,0,1-2.463.7c-.628.059-.963.1-1.11.359-.18.315-.056.873.36,1.612a.366.366,0,0,1-.519.485c-.39-.255-1.563-.821-2.293-.394a1.38,1.38,0,0,0-.582.767c-.3.982.7,2.469,2.42,3.617a.365.365,0,0,1,.156.233c.009.043.8,4.333-.943,6.293a9.266,9.266,0,0,1-2.159,1.81" transform="translate(-86.689 -845.596)"/>
          <path id="Trazado_702806" data-name="Trazado 702806" d="M146.7,1094.815a7.508,7.508,0,0,1-4.567-2.045.366.366,0,0,1,.509-.526c.021.02,2.106,2,4.332,1.829a.366.366,0,1,1,.054.729q-.165.012-.328.012" transform="translate(-118.417 -910.616)"/>
          <path id="Trazado_702807" data-name="Trazado 702807" d="M396.8,588.236a4.911,4.911,0,0,1-3.557-5.5l.606-3.841c2.35.062,4.407-.846,4.478-1.583a41.543,41.543,0,0,0-.836-5.464,1.2,1.2,0,0,0,.237-2c-.908-.722-2.68-4.9-2.68-4.9-2.368-3.417-3.61.919-5.663,1.076-1.421.109-2.267.879-1.931,2.757s-.57.859-1.542.232-1.712-.3-1.322,1.42a5.66,5.66,0,0,0,2.337,2.927l.772,2.011-3.033,9.173a5.292,5.292,0,0,1-3.776,3.481l-2.929.711,14.029,9.326,8.18-8.907Z" transform="translate(-315.142 -469.956)" fill="#fff"/>
          <path id="Trazado_702808" data-name="Trazado 702808" d="M390.158,596.591a.366.366,0,0,1-.2-.061L375.927,587.2a.366.366,0,0,1,.116-.66l2.929-.711a4.9,4.9,0,0,0,3.515-3.241l2.991-9.049-.683-1.779a5.823,5.823,0,0,1-2.395-3.088c-.229-1.01-.116-1.682.336-2,.223-.156.721-.34,1.541.19.182.117.36.247.53.37s.37.269.52.355a3.46,3.46,0,0,0-.066-.585,2.866,2.866,0,0,1,.37-2.32,2.511,2.511,0,0,1,1.893-.866,3.457,3.457,0,0,0,1.766-1.136c.7-.656,1.418-1.337,2.316-1.242a2.883,2.883,0,0,1,1.91,1.458.407.407,0,0,1,.036.065c.672,1.582,1.963,4.272,2.571,4.755a1.4,1.4,0,0,1,.591,1.187,1.851,1.851,0,0,1-.644,1.241,40.3,40.3,0,0,1,.789,5.355c-.1,1-2.252,1.893-4.529,1.917l-.557,3.53a4.54,4.54,0,0,0,3.292,5.093l3.37.92a.366.366,0,0,1,.173.6l-8.18,8.907a.365.365,0,0,1-.269.118m-13.13-9.534,13.072,8.691,7.563-8.235-2.791-.762a5.271,5.271,0,0,1-3.822-5.913l.606-3.841a.376.376,0,0,1,.371-.308c2.388.07,4.066-.861,4.1-1.253a42.833,42.833,0,0,0-.827-5.339.365.365,0,0,1,.154-.4,1.189,1.189,0,0,0,.525-.825.692.692,0,0,0-.315-.58c-.931-.741-2.529-4.432-2.774-5.007-.488-.7-.947-1.073-1.364-1.116-.563-.066-1.135.478-1.738,1.047a3.924,3.924,0,0,1-2.211,1.333,1.831,1.831,0,0,0-1.371.584,2.2,2.2,0,0,0-.228,1.744c.124.694.134,1.2-.222,1.424-.393.247-.829-.071-1.382-.474-.159-.116-.326-.238-.5-.347-.367-.237-.629-.274-.726-.2s-.228.414-.041,1.237a5.3,5.3,0,0,0,2.173,2.7.366.366,0,0,1,.148.18l.773,2.011a.365.365,0,0,1,.005.246l-3.032,9.173a5.626,5.626,0,0,1-4.037,3.722Z" transform="translate(-313.307 -468.118)"/>
          <path id="Trazado_702809" data-name="Trazado 702809" d="M453.607,643.384a3.686,3.686,0,0,1-3.351-2.39.366.366,0,0,1,.691-.239,2.875,2.875,0,0,0,3.117,1.868.366.366,0,0,1,.094.725,4.281,4.281,0,0,1-.551.037" transform="translate(-375.401 -534.049)"/>
        </g>
      </g>
    </g>
    <rect id="Rectángulo_345533" data-name="Rectángulo 345533" width="464" height="367" transform="translate(96 -12682)" fill="none"/>
  </g>
</svg>
