<svg xmlns="http://www.w3.org/2000/svg" xmlns:xlink="http://www.w3.org/1999/xlink" width="464" height="367" viewBox="0 0 464 367">
  <defs>
    <clipPath id="clip-path">
      <rect id="Rectángulo_345148" data-name="Rectángulo 345148" width="335.368" height="317.181" fill="none"/>
    </clipPath>
  </defs>
  <g id="Grupo_1000163" data-name="Grupo 1000163" transform="translate(-1805 12682)">
    <g id="Grupo_1000157" data-name="Grupo 1000157" transform="translate(1869 -12657)">
      <g id="Grupo_999331" data-name="Grupo 999331" clip-path="url(#clip-path)">
        <path id="Trazado_703142" data-name="Trazado 703142" d="M12.959,352.235c-.048,1.58,18.266,4.987,18.088,7.37-.014.177-.158.348-.457.513C26.631,362.309.726,367.868.006,373.724s67.171,7.656,62.549,11.613-29.808,7.556-23.331,11.154,275.248,4.678,280.285-1.439-40.614-11.589-40.1-12.811,54.848-2.387,55.927-7.741-30.03-10.66-29.228-12.5c1.536-3.528,20.937-4.324,20.952-5.614.057-5.028-313.909-10.635-314.106-4.146" transform="translate(0 -82.235)" fill="#c7c8c9"/>
        <path id="Trazado_703143" data-name="Trazado 703143" d="M270.156,218.072a.948.948,0,0,1-.924-.95c.138-7.743,3.619-15.231,8.593-21.209a77.823,77.823,0,0,1,15.774-14.6.947.947,0,0,0-.612-1.729c-8.477.7-16.42,5.782-21.623,12.62a36.591,36.591,0,0,0-2.756,4.205.946.946,0,0,1-1.775-.426c-.1-3.266-.2-5.83-.214-6.337-.1-3.269-1.711-5.931-2.467-8.876-1.147-4.471.73-8.724.606-13.25-.1-3.584-1.559-6.978-2.257-10.495-1.076-5.423,1.85-9.728,2.736-14.932,1.011-5.937-.406-11.329-2.393-16.906-2.408-6.758-.411-13.455,0-15.5s.529-12.064,0-14.3a76.386,76.386,0,0,0-4.468-12.336c-1.636-3.155-.135-9.337-.008-9.841a.653.653,0,0,1,.018-.063l4.412-13.46a.959.959,0,0,0,.047-.294V51.557s.273-2.686-1.572-11.914a.944.944,0,0,1,1.71-.713c7.436,11.312,16.236,21.844,27.938,28.036a.945.945,0,0,0,1.365-.651,33.1,33.1,0,0,0-7.832-27.867,29.889,29.889,0,0,0-2.144-2.135.943.943,0,0,1,.807-1.624l49.4,9.105a.95.95,0,0,0,.982-1.426,53.545,53.545,0,0,0-35.7-24.842,52.656,52.656,0,0,0-22.153.758.942.942,0,0,1-.924-1.545A48.647,48.647,0,0,0,284.467,1.3a.954.954,0,0,0-1-1.291A33.52,33.52,0,0,0,263.3,9.858a32.9,32.9,0,0,0-5.366,7.358.942.942,0,0,1-1.765-.324c0-.017,0-.034-.006-.05a.946.946,0,0,0-.939-.84h-.034a.947.947,0,0,0-.879.6l-1.689,4.231a.951.951,0,0,0-.067.351v3.871a.942.942,0,0,1-1.564.713c-4.741-4.3-11.633-6.63-18.184-6.916a42.312,42.312,0,0,0-43.8,36.818.947.947,0,0,0,1.542.847C205.783,43.748,224.593,35.1,244.185,33.69a.949.949,0,0,1,.627,1.71c-14.509,11.021-23.274,29.549-22,47.78a.947.947,0,0,0,1.39.762,67.628,67.628,0,0,0,29.659-33.651.944.944,0,0,1,1.814.276c.288,3.1.307,5.758-.206,7.1-2.09,5.479-1.575,12.824-1.906,18.579-.415,7.228-2.3,16.323-.685,23.323.739,3.2,1.946,6.311,2.273,9.58.447,4.464-.77,8.9-1.4,13.342-.822,5.825,1.164,9.794,2.354,15.2a29.825,29.825,0,0,1-.862,15.113,27.384,27.384,0,0,0-.372,13.841c.96,4.542,4.493,7.546,2.13,12.262-1.06,2.115-2.63,3.979-3.4,6.217-1.07,3.127-.221,5.743,1.333,8.424.589,1.016,1.862,1.213,2.1,2.6.105.6.167,3.69-1.335,2-6.387-7.171-19.1-11.75-27.032-4.393a6.232,6.232,0,0,0-2.287,4.152c-.052,1.622,1.277,3.338,2.892,3.186a4.19,4.19,0,0,0,2.476-1.528c4.006-4.237,9.834-.282,13.623,2.679a33.712,33.712,0,0,1,10.386,14.564.945.945,0,0,1-.86,1.274c-16.142.557-28.207,2.773-28.207,5.425,0,3.071,1.829,60.885,36.144,60.885,43.382,0,36.144-57.813,36.144-60.885,0-2.686-12.377-4.925-28.831-5.445" transform="translate(-44.494 0)" fill="#c7c8c9"/>
        <path id="Trazado_703144" data-name="Trazado 703144" d="M166.874,341.9c.138-2.657-17.586-8.235-34.872-7.913h-.015s48.108-13.124,43.831-21.4-32.338.085-32.338.085,45.719-18.822,22.252-41.76-65.044,41.873-65.044,41.873-5.247-56.438-21.669-49.6c-12.343,5.143-6.05,33.377-2.163,47.083-2.843-8.268-7.935-20.08-13.08-17.259-6.976,3.824,4.311,30.306,6.65,35.59-14.173,4.872-23.869,9.482-23.366,12.932,1.7,11.664,119.46,7.147,119.814.36" transform="translate(-11.075 -61.827)" fill="#c7c8c9"/>
        <path id="Trazado_703145" data-name="Trazado 703145" d="M269.871,75.427h.185a2.217,2.217,0,1,0,0-4.435h-.185a2.217,2.217,0,1,0,0,4.435" transform="translate(-63.012 -16.713)" fill="#fff"/>
        <path id="Trazado_703146" data-name="Trazado 703146" d="M282.048,77.381h0a2.31,2.31,0,0,0,2.31-2.31V69.609a2.31,2.31,0,1,0-4.62,0v5.462a2.31,2.31,0,0,0,2.31,2.31" transform="translate(-65.857 -15.844)" fill="#fff"/>
        <path id="Trazado_703147" data-name="Trazado 703147" d="M293.82,75.274h.626a2,2,0,0,0,0-3.994h-.626a2,2,0,0,0,0,3.994" transform="translate(-68.702 -16.781)" fill="#fff"/>
        <path id="Trazado_703148" data-name="Trazado 703148" d="M257.88,81.921h0a2.31,2.31,0,0,0,2.31-2.31V61.031a2.31,2.31,0,1,0-4.62,0v18.58a2.31,2.31,0,0,0,2.31,2.31" transform="translate(-60.167 -13.824)" fill="#fff"/>
        <path id="Trazado_703149" data-name="Trazado 703149" d="M245.795,85.142h0a2.31,2.31,0,0,0,2.31-2.31V54.943a2.31,2.31,0,1,0-4.62,0V82.832a2.31,2.31,0,0,0,2.31,2.31" transform="translate(-57.322 -12.391)" fill="#fff"/>
        <path id="Trazado_703150" data-name="Trazado 703150" d="M233.711,79.6h0a2.31,2.31,0,0,0,2.31-2.31V65.411a2.31,2.31,0,1,0-4.62,0V77.292a2.31,2.31,0,0,0,2.31,2.31" transform="translate(-54.477 -14.855)" fill="#fff"/>
        <path id="Trazado_703151" data-name="Trazado 703151" d="M221.627,86.2h0a2.31,2.31,0,0,0,2.31-2.31V52.945a2.31,2.31,0,0,0-4.62,0V83.89a2.31,2.31,0,0,0,2.31,2.31" transform="translate(-51.632 -11.921)" fill="#fff"/>
        <path id="Trazado_703152" data-name="Trazado 703152" d="M209.542,95.526h0a2.31,2.31,0,0,0,2.31-2.31v-57.9a2.31,2.31,0,0,0-4.62,0v57.9a2.31,2.31,0,0,0,2.31,2.31" transform="translate(-48.787 -7.771)" fill="#fff"/>
        <path id="Trazado_703153" data-name="Trazado 703153" d="M197.458,90.056h0a2.31,2.31,0,0,0,2.31-2.31V45.655a2.31,2.31,0,0,0-4.62,0V87.746a2.31,2.31,0,0,0,2.31,2.31" transform="translate(-45.942 -10.204)" fill="#fff"/>
        <path id="Trazado_703154" data-name="Trazado 703154" d="M185.373,86.2h0a2.31,2.31,0,0,0,2.31-2.31V52.945a2.31,2.31,0,0,0-4.62,0V83.89a2.31,2.31,0,0,0,2.31,2.31" transform="translate(-43.097 -11.921)" fill="#fff"/>
        <path id="Trazado_703155" data-name="Trazado 703155" d="M173.289,79.6h0a2.31,2.31,0,0,0,2.31-2.31V65.411a2.31,2.31,0,1,0-4.62,0V77.292a2.31,2.31,0,0,0,2.31,2.31" transform="translate(-40.252 -14.855)" fill="#fff"/>
        <path id="Trazado_703156" data-name="Trazado 703156" d="M161.2,85.142h0a2.31,2.31,0,0,0,2.31-2.31V54.943a2.31,2.31,0,0,0-4.62,0V82.832a2.31,2.31,0,0,0,2.31,2.31" transform="translate(-37.408 -12.391)" fill="#fff"/>
        <path id="Trazado_703157" data-name="Trazado 703157" d="M149.12,81.921h0a2.31,2.31,0,0,0,2.31-2.31V61.031a2.31,2.31,0,0,0-4.62,0v18.58a2.31,2.31,0,0,0,2.31,2.31" transform="translate(-34.562 -13.824)" fill="#fff"/>
        <path id="Trazado_703158" data-name="Trazado 703158" d="M136.722,75.274h.626a2,2,0,0,0,0-3.994h-.626a2,2,0,1,0,0,3.994" transform="translate(-31.717 -16.781)" fill="#fff"/>
        <path id="Trazado_703159" data-name="Trazado 703159" d="M202.2,176.317c0,9.1-9.695,11.434-21.654,11.434S158.9,186.133,158.9,176.317c0-11.434,8.829-14.461,20.789-14.461S202.2,165.3,202.2,176.317" transform="translate(-37.408 -38.105)" fill="#454658"/>
        <path id="Trazado_703160" data-name="Trazado 703160" d="M167.81,191.137s-5.037,5.757-4.408,7.016,12.684-5.037,12.684-5.037" transform="translate(-38.456 -44.998)" fill="#454658"/>
        <path id="Trazado_703161" data-name="Trazado 703161" d="M171.709,176.461a2.661,2.661,0,0,1,2.141,2.633,2.466,2.466,0,0,1-2.44,2.283,2.652,2.652,0,0,1-2-1.134c-1.339-1.872-.134-4.219,2.3-3.782" transform="translate(-39.752 -41.53)" fill="#fff"/>
        <path id="Trazado_703162" data-name="Trazado 703162" d="M183.456,180.71a3.813,3.813,0,0,0,3.246,1.264,4.652,4.652,0,0,0,3.086-1.713,3.234,3.234,0,0,0,.806-2.579,3.119,3.119,0,0,0-1.648-2.028c-3.156-1.72-8.507,1.479-5.489,5.057" transform="translate(-42.98 -41.24)" fill="#fff"/>
        <path id="Trazado_703163" data-name="Trazado 703163" d="M203.522,181.521a2.218,2.218,0,0,0,1.88-.941,1.984,1.984,0,0,0-2.6-2.914c-1.642.955-1.384,3.728.719,3.855" transform="translate(-47.493 -41.756)" fill="#fff"/>
        <path id="Trazado_703164" data-name="Trazado 703164" d="M243.992,121.65c0,4.548-4.847,5.718-10.826,5.718s-10.827-.81-10.827-5.718c0-5.718,4.415-7.231,10.394-7.231s11.259,1.723,11.259,7.231" transform="translate(-52.343 -26.937)" fill="#8abcdd"/>
        <path id="Trazado_703165" data-name="Trazado 703165" d="M226.8,129.06s-2.519,2.879-2.2,3.508,6.341-2.518,6.341-2.518" transform="translate(-52.868 -30.384)" fill="#8abcdd"/>
        <path id="Trazado_703166" data-name="Trazado 703166" d="M228.745,121.722a1.33,1.33,0,0,1,1.07,1.317,1.233,1.233,0,0,1-1.22,1.142,1.324,1.324,0,0,1-1-.567,1.152,1.152,0,0,1,1.148-1.891" transform="translate(-53.516 -28.65)" fill="#fff"/>
        <path id="Trazado_703167" data-name="Trazado 703167" d="M234.619,123.847a1.9,1.9,0,0,0,1.623.632,2.319,2.319,0,0,0,1.542-.856,1.614,1.614,0,0,0,.4-1.289,1.559,1.559,0,0,0-.824-1.015c-1.578-.86-4.253.739-2.744,2.528" transform="translate(-55.13 -28.505)" fill="#fff"/>
        <path id="Trazado_703168" data-name="Trazado 703168" d="M244.652,124.251a1.108,1.108,0,0,0,.94-.471.992.992,0,0,0-1.3-1.457,1.028,1.028,0,0,0,.36,1.927" transform="translate(-57.386 -28.762)" fill="#fff"/>
        <path id="Trazado_703169" data-name="Trazado 703169" d="M266.14,102.043c0,2.748-2.929,3.456-6.543,3.456s-6.542-.49-6.542-3.456c0-3.455,2.668-4.37,6.281-4.37s6.8,1.041,6.8,4.37" transform="translate(-59.575 -22.994)" fill="#8abcdd"/>
        <path id="Trazado_703170" data-name="Trazado 703170" d="M255.749,106.521s-1.522,1.739-1.332,2.119,3.832-1.522,3.832-1.522" transform="translate(-59.892 -25.077)" fill="#8abcdd"/>
        <path id="Trazado_703171" data-name="Trazado 703171" d="M256.927,102.086a.8.8,0,0,1,.647.8.745.745,0,0,1-.737.69.8.8,0,0,1-.6-.343.7.7,0,0,1,.694-1.143" transform="translate(-60.283 -24.03)" fill="#fff"/>
        <path id="Trazado_703172" data-name="Trazado 703172" d="M260.476,103.371a1.15,1.15,0,0,0,.981.382,1.4,1.4,0,0,0,.932-.518.976.976,0,0,0,.243-.779.945.945,0,0,0-.5-.613c-.953-.519-2.57.447-1.658,1.528" transform="translate(-61.259 -23.942)" fill="#fff"/>
        <path id="Trazado_703173" data-name="Trazado 703173" d="M266.539,103.616a.671.671,0,0,0,.568-.284.6.6,0,0,0-.785-.88.621.621,0,0,0,.217,1.164" transform="translate(-62.622 -24.098)" fill="#fff"/>
        <path id="Trazado_703174" data-name="Trazado 703174" d="M334.66,93.3s-1.236,3.8-2.661,5.143" transform="translate(-78.16 -21.964)" fill="none" stroke="#fff" stroke-linecap="round" stroke-linejoin="round" stroke-width="0.689"/>
        <path id="Trazado_703175" data-name="Trazado 703175" d="M253.794,147.2c3.04,4.459,35.151-25.538,35.151-25.538" transform="translate(-59.749 -28.643)" fill="none" stroke="#ff8b6a" stroke-linecap="round" stroke-miterlimit="10" stroke-width="16.524"/>
        <path id="Trazado_703176" data-name="Trazado 703176" d="M348.657,120.877c-.2,2.58,27.765,42.072,28.781,47.372,1.254,6.545.6,36.813.6,36.813" transform="translate(-82.081 -28.457)" fill="none" stroke="#ff8b6a" stroke-linecap="round" stroke-miterlimit="10" stroke-width="16.524"/>
        <path id="Trazado_703177" data-name="Trazado 703177" d="M344.494,212.542c6.356,8.544,6.891,17.779,7.38,28.716.355,7.944.357,25.975-4.74,36.593-1.9,3.957-4.34-.269-7.05-.031-3.9.342-7.475-2.165-8.023-5.656q-5.826-28.662-11.654-57.325c.891-6.174,6.749-10.56,12.9-10.313,5.3.211,8.83,4.844,11.19,8.016" transform="translate(-75.431 -48.148)" fill="#ff8b6a"/>
        <path id="Trazado_703178" data-name="Trazado 703178" d="M352.346,271.634c2.621-.087,4.92,35.337,3.574,42.592-.08.43-.6,3.312-1.15,7.337-.116.853-.228,1.811-.339,3.016a42.51,42.51,0,0,0,1.755,16.185l-9,.918a65.245,65.245,0,0,0-1.021-9.562,69.067,69.067,0,0,0-1.916-7.793c-.878-2.953-1.578-5.187-2.168-7.009-1.945-6.009-2.925-9.01-3.093-9.56-.816-2.67-3.823-12.92-1.079-23.916.88-3.526,2.78-8.847,4.715-8.756,2.111.1,2.7,6.572,4.649,6.613,2.442.053,3.3-10,5.073-10.063" transform="translate(-79.285 -63.949)" fill="#ff8b6a"/>
        <path id="Trazado_703179" data-name="Trazado 703179" d="M349.285,361.046s-1.208,2.666.329,4.576a19.566,19.566,0,0,1,4.412,9.34c.885,4.746,12.753,3.369,15.079-1.216,1.765-3.478-5.846-10.537-5.846-10.537" transform="translate(-82.123 -84.998)" fill="#fff"/>
        <path id="Trazado_703180" data-name="Trazado 703180" d="M349.484,350.245c-2.194.278-1.067,7.478-.266,9.355s3.036,3.525,3.91,6.435,1.519,6.675,9.167,5.017c4.689-1.017,5.694-5.578,2.162-9.076s-5.217-5.042-6.592-9.876-9.475.4-7.066,3.35-.28,2.654-.752-.382-.563-4.822-.563-4.822" transform="translate(-81.976 -82.429)" fill="#454658"/>
        <path id="Trazado_703181" data-name="Trazado 703181" d="M366.1,366.194a28.533,28.533,0,0,1-6.079-10.7" transform="translate(-84.756 -83.692)" fill="none" stroke="#fff" stroke-linecap="round" stroke-linejoin="round" stroke-width="0.602"/>
        <path id="Trazado_703182" data-name="Trazado 703182" d="M357.608,368.854a29.856,29.856,0,0,0-4.113-11.337" transform="translate(-83.221 -84.168)" fill="none" stroke="#fff" stroke-linecap="round" stroke-linejoin="round" stroke-width="0.602"/>
        <path id="Trazado_703183" data-name="Trazado 703183" d="M363.276,364.352l-7.055,2.37" transform="translate(-83.863 -85.777)" fill="none" stroke="#fff" stroke-linecap="round" stroke-linejoin="round" stroke-width="0.602"/>
        <path id="Trazado_703184" data-name="Trazado 703184" d="M362.06,361.778A18.865,18.865,0,0,0,355.8,363.6" transform="translate(-83.764 -85.171)" fill="none" stroke="#fff" stroke-linecap="round" stroke-linejoin="round" stroke-width="0.602"/>
        <path id="Trazado_703185" data-name="Trazado 703185" d="M360.5,359.134a31.348,31.348,0,0,0-5.854,2.214" transform="translate(-83.491 -84.548)" fill="none" stroke="#fff" stroke-linecap="round" stroke-linejoin="round" stroke-width="0.602"/>
        <path id="Trazado_703186" data-name="Trazado 703186" d="M364.525,374.746c2.2-.846,3.847-2.1,3.759-3.486s-4.534-.122-5.95.306a12.774,12.774,0,0,0-4.26,3.124,8.492,8.492,0,0,0,6.451.056" transform="translate(-84.298 -87.254)" fill="#fff"/>
        <path id="Trazado_703187" data-name="Trazado 703187" d="M293.481,212.542c-6.356,8.544-6.891,17.779-7.38,28.716-.355,7.944-.357,25.975,4.74,36.593,1.9,3.957,4.34-.269,7.05-.031,3.9.342,7.475-2.165,8.023-5.656q5.826-28.662,11.654-57.325c-.892-6.174-6.748-10.56-12.9-10.313-5.3.211-8.83,4.844-11.19,8.016" transform="translate(-67.323 -48.148)" fill="#ff8b6a"/>
        <path id="Trazado_703188" data-name="Trazado 703188" d="M287.947,273.132c-2.59.411,1.876,35.629,4.574,42.5.16.408,1.219,3.139,2.522,6.985.276.817.567,1.736.905,2.9a42.508,42.508,0,0,1,1.349,16.224l9.011-.807a65.27,65.27,0,0,1-.812-9.582,69.066,69.066,0,0,1,.4-8.016c.981-9.981,1.555-12.124,2.021-17.266.525-5.815.743-8.727-.024-11.655-.137-.523-1.931-7.011-7.585-10.736-2.253-1.485-3.123-.4-5.472-1.621-5.383-2.792-5.8-9.092-6.891-8.918" transform="translate(-67.606 -64.301)" fill="#ff8b6a"/>
        <path id="Trazado_703189" data-name="Trazado 703189" d="M307.313,359.455s1.692,2.388.545,4.555a19.567,19.567,0,0,0-2.559,10.008c.031,4.828-11.882,5.728-15.035,1.668-2.393-3.08,3.74-11.455,3.74-11.455" transform="translate(-68.204 -84.624)" fill="#fff"/>
        <path id="Trazado_703190" data-name="Trazado 703190" d="M306,348.968c2.207-.144,2.466,7.14,2.037,9.134s-2.312,4.037-2.617,7.06-.226,6.841-8.048,6.666c-4.8-.108-6.65-4.395-3.847-8.5s4.166-5.941,4.6-10.947,9.379-1.406,7.575,1.948.778,2.552.665-.518-.363-4.841-.363-4.841" transform="translate(-68.792 -82.155)" fill="#454658"/>
        <path id="Trazado_703191" data-name="Trazado 703191" d="M297.454,376.252c-2.324-.413-4.175-1.33-4.352-2.709s4.428-.98,5.9-.83a12.776,12.776,0,0,1,4.776,2.259,8.492,8.492,0,0,1-6.324,1.279" transform="translate(-69.002 -87.705)" fill="#fff"/>
        <path id="Trazado_703192" data-name="Trazado 703192" d="M340.7,152.371c.385-28.71.027-35.057-3.788-38.8-2.237-2.2-7.955-2.61-19.391-3.438l-.3-.018v-.219q-1.055.03-2.182.086-1.125-.055-2.181-.086v.219l-.3.018c-11.437.827-17.154,1.241-19.391,3.438-6.182,6.071-4.882,24.062-3.788,38.8a253.551,253.551,0,0,1-2.2,56.05H342.9c-.2-1.6-.5-4.1-.817-7.161-1.589-15.569-1.662-28.326-1.386-48.889" transform="translate(-67.608 -25.871)" fill="#ff8b6a"/>
        <rect id="Rectángulo_345147" data-name="Rectángulo 345147" width="7.192" height="12.073" transform="translate(242.29 79.538) rotate(-1.651)" fill="#ff8b6a"/>
        <path id="Trazado_703193" data-name="Trazado 703193" d="M316.949,105.841l-.1-3.384,7.189-.206.151,5.232a18.458,18.458,0,0,1-7.242-1.642" transform="translate(-74.594 -24.072)" fill="#381905"/>
        <path id="Trazado_703194" data-name="Trazado 703194" d="M318.484,70.73c7.576-.218,10.914,4.919,10.655,13.524-.212,7.095-4.263,13.167-9.882,13.328-5.922.171-10.428-5.643-10.633-12.737-.216-7.527,2.284-13.9,9.86-14.115" transform="translate(-72.654 -16.65)" fill="#ff8b6a"/>
        <path id="Trazado_703195" data-name="Trazado 703195" d="M315.437,82.759a1.026,1.026,0,0,1,.7.022.429.429,0,0,1,.2.591.64.64,0,0,1-.306.19c-.464.177-2.119,1.142-2.307.5-.207-.715,1.252-1.193,1.716-1.3" transform="translate(-73.852 -19.472)" fill="#381905"/>
        <path id="Trazado_703196" data-name="Trazado 703196" d="M326.415,82.759a1.026,1.026,0,0,0-.7.022.429.429,0,0,0-.2.591.64.64,0,0,0,.306.19c.464.177,2.119,1.142,2.307.5.207-.715-1.252-1.193-1.716-1.3" transform="translate(-76.621 -19.472)" fill="#381905"/>
        <path id="Trazado_703197" data-name="Trazado 703197" d="M320.989,88.333s.625,2.03.215,2.23-1.4-.08-1.434.138.681,1.92,1.739,1.414" transform="translate(-75.281 -20.796)" fill="none" stroke="#381905" stroke-linecap="round" stroke-linejoin="round" stroke-width="0.751"/>
        <path id="Trazado_703198" data-name="Trazado 703198" d="M326.3,87.838c.054.558.359.986.681.954s.541-.508.487-1.067-.359-.986-.681-.954-.541.508-.487,1.067" transform="translate(-76.817 -20.428)" fill="#381905"/>
        <path id="Trazado_703199" data-name="Trazado 703199" d="M315.849,87.708c.053.558.359.986.681.954s.541-.508.487-1.067-.359-.986-.681-.954-.541.508-.487,1.067" transform="translate(-74.356 -20.397)" fill="#381905"/>
        <path id="Trazado_703200" data-name="Trazado 703200" d="M320.284,71.51c.505,0,1.012,0,1.52-.022,1.655-.055,3.564-.5,3.782-2.443.278-2.487.3-4.776-1.314-6.869a8.327,8.327,0,0,0-6.9-3.119,9.408,9.408,0,0,0-6.773,3.532c-2.167,2.7-2.8,6.355-4.78,9.2-.889,1.274-2.069,2.426-2.421,3.938a4.168,4.168,0,0,0,1.864,4.295c.66.42,1.2.416,1.568,1.122.357.677.193,1.714,1.086,2.044a.322.322,0,0,0,.25.026c.546-.25-.824-2.829.275-4.371.262-.369.375-.271.718-.729,1.215-1.623.417-3.923,2.067-5.369a5.477,5.477,0,0,1,2.986-1.057,47.176,47.176,0,0,1,6.072-.174" transform="translate(-71.406 -13.901)" fill="#381905"/>
        <path id="Trazado_703201" data-name="Trazado 703201" d="M330.86,85.373c-.206-.048.108-6.743-.384-7.054-.294-.187-.451-.092-.755-.349-1.03-.876.75-2.791-.075-3.728-.741-.842-4.182-.352-5.476-1.213-1.064-.708.739-1.049-.191-2.432-1.555-2.313-4.524-2.6-4.453-2.853.139-.5,2.624.042,2.909.106a26.263,26.263,0,0,0,2.557.739c.749.088,1.515-.034,2.268.051a6.12,6.12,0,0,1,4.017,2.241,8.8,8.8,0,0,1,1.8,5.428,22.325,22.325,0,0,1-1.542,7.8c-.045.117-.476,1.312-.673,1.267" transform="translate(-75.224 -15.899)" fill="#381905"/>
        <path id="Trazado_703202" data-name="Trazado 703202" d="M334.718,88.013c.04-.12.1-2.312,1.692-2.012,2.087.4.979,7.389-2.087,5.12" transform="translate(-78.707 -20.24)" fill="#ff8b6a"/>
        <path id="Trazado_703203" data-name="Trazado 703203" d="M336.3,88.55a1.251,1.251,0,0,0-.844.839,3.7,3.7,0,0,0-.138,1.229.868.868,0,0,1,.677-.544" transform="translate(-78.941 -20.847)" fill="none" stroke="#381905" stroke-linecap="round" stroke-linejoin="round" stroke-width="0.751"/>
        <path id="Trazado_703204" data-name="Trazado 703204" d="M307.791,87.85c-.04-.12-.1-2.278-1.693-2.012-2.4.4-.977,7.389,2.087,5.12" transform="translate(-71.778 -20.203)" fill="#ff8b6a"/>
        <path id="Trazado_703205" data-name="Trazado 703205" d="M306.366,88.446a2.1,2.1,0,0,1,1.156,1.541.684.684,0,0,0-.825-.024" transform="translate(-72.126 -20.822)" fill="none" stroke="#381905" stroke-linecap="round" stroke-linejoin="round" stroke-width="0.751"/>
        <path id="Trazado_703206" data-name="Trazado 703206" d="M284.485,270.078a46.3,46.3,0,0,0,25.335-1.622,80.424,80.424,0,0,1,2.144-21.586c1.347-5.553,2.06-5.716,2.275-5.724,2.158-.075,4.38,13.671,5.918,25.282a32.572,32.572,0,0,0,10.944.811c6.309-.607,11.408-1.378,13.98-2.905a183.694,183.694,0,0,0-.518-25.578,157.832,157.832,0,0,0-2.908-19.924,99.353,99.353,0,0,1-56.019,0q-.672,5-1.146,10.275a232.407,232.407,0,0,0,0,40.97" transform="translate(-66.762 -51.518)" fill="#381905"/>
        <path id="Trazado_703207" data-name="Trazado 703207" d="M302.65,110.657s-.022,15.524,5.559,15.524,8.014-15.524,8.014-15.524,15.4-1.5,19.66,2.552,16.823,25.336,16.823,25.336a22.6,22.6,0,0,1-12.9,9.121l-3.52-5.676,5.265,56.752a134.193,134.193,0,0,1-63.839,0q2.544-30.1,5.088-60.2L276.295,145a36.489,36.489,0,0,1-7.7-15.779c1.743-3.045,8.406-11.187,19.887-16.823,4.981-2.446,14.169-1.742,14.169-1.742" transform="translate(-63.233 -25.987)" fill="#fff"/>
        <path id="Trazado_703208" data-name="Trazado 703208" d="M287.624,125.487q-.634,13.309-1.27,26.618" transform="translate(-67.414 -29.543)" fill="none" stroke="#381905" stroke-linecap="round" stroke-linejoin="round" stroke-width="0.751"/>
        <path id="Trazado_703209" data-name="Trazado 703209" d="M355.3,122.418q.282,13.165,1.815,26.264" transform="translate(-83.646 -28.82)" fill="none" stroke="#381905" stroke-linecap="round" stroke-linejoin="round" stroke-width="0.751"/>
        <path id="Trazado_703210" data-name="Trazado 703210" d="M282.512,93.109c.2,2.58-31.821,42.913-28.781,47.372" transform="translate(-59.686 -21.92)" fill="none" stroke="#ff8b6a" stroke-linecap="round" stroke-miterlimit="10" stroke-width="16.524"/>
        <path id="Trazado_703211" data-name="Trazado 703211" d="M286.8,79.225a3.031,3.031,0,0,0,2.369-2.135c.147-.926-.3-1.174-.556-2.461a2.219,2.219,0,0,1,.9-2.071,1.391,1.391,0,0,1,1.347-.192c.787.35,1.043,1.437,1.191,1.98.678,2.491,2.2,2.758,3.543,5.187a12.505,12.505,0,0,1,1.219,7.451,14.311,14.311,0,0,1-2.841,7.079l-9.222-15.045a3.377,3.377,0,0,0,2.052.206" transform="translate(-67.035 -17.013)" fill="#ff8b6a"/>
        <path id="Trazado_703212" data-name="Trazado 703212" d="M274.372,77.251c.081-.375.364-1.025.757-1.046.716-.039.937,2.055,2.9,3.884.258.24.751.7.9.592.317-.222-.927-2.759-1.94-4.522a11.381,11.381,0,0,1-1.748-4.3c-.07-.438-.016-1.252.549-1.356.35-.064.755.482,1.189,1.147,1.533,2.343,2.367,4.4,3.842,6.39.655.885.807.909.854.883s.111-.2-.341-1.4a52.444,52.444,0,0,0-2.826-5.594c-.469-.931-.924-1.872-1.318-2.838-.268-.661-.6-1.677.248-2.077a1.568,1.568,0,0,1,1.648.352,4.607,4.607,0,0,1,.977,1.479c.807,1.653,1.613,3.307,2.375,4.982.012.027.173.3.49.853,1.479,2.568,1.62,2.787,1.684,2.762.171-.067-.244-1.823-.886-3.523-1.078-2.854-1.711-4.234-1.973-4.882a3.387,3.387,0,0,1-.337-1.345,1.153,1.153,0,0,1,.719-1.093c.66-.2,1.263.426,1.629,1.01,1.3,2.071,2.025,4.513,3.214,6.621l4.538,18.488a4.519,4.519,0,0,1-3.641,1.973,5.849,5.849,0,0,1-4.383-1.9,12.323,12.323,0,0,1-2.356-3.67,36.962,36.962,0,0,0-2.349-4.906c-.39-.6-.64-.733-2.519-3.038a14.986,14.986,0,0,1-1.252-1.89c-.666-1.174-.731-1.632-.644-2.034" transform="translate(-64.586 -15.67)" fill="#ff8b6a"/>
        <path id="Trazado_703213" data-name="Trazado 703213" d="M290.03,74.254a3.859,3.859,0,0,0,.271,2.53c.334.8.818,1.522,1.226,2.285a5.321,5.321,0,0,1,.748,2.457,14.212,14.212,0,0,1-.482,2.529,6.323,6.323,0,0,0,1.4,5.168" transform="translate(-68.253 -17.481)" fill="none" stroke="#381905" stroke-linecap="round" stroke-linejoin="round" stroke-width="0.751"/>
        <path id="Trazado_703214" data-name="Trazado 703214" d="M308.484,93.3s1.236,3.8,2.661,5.143" transform="translate(-72.624 -21.964)" fill="none" stroke="#fff" stroke-linecap="round" stroke-linejoin="round" stroke-width="0.689"/>
        <path id="Trazado_703215" data-name="Trazado 703215" d="M326.8,91.761h-1.951c-1.486,0-3.716-1.09-5.395-1.09s-3.909,1.09-5.4,1.09H312.1a47.885,47.885,0,0,0-1.069,5.48,10.269,10.269,0,0,0,8.144,5.476h.541a10.267,10.267,0,0,0,8.144-5.476,47.729,47.729,0,0,0-1.068-5.48" transform="translate(-73.222 -21.346)" fill="#bfc9e2"/>
        <path id="Trazado_703216" data-name="Trazado 703216" d="M314.055,93.061c1.486,0,3.716-1.09,5.4-1.09s3.909,1.09,5.395,1.09H326.8s.671,2.816.955,4.421a2.108,2.108,0,0,0,.113-.241,47.893,47.893,0,0,0-1.068-5.48h-1.951c-1.486,0-3.716-1.09-5.395-1.09s-3.909,1.09-5.4,1.09H312.1a47.885,47.885,0,0,0-1.069,5.48,2.255,2.255,0,0,0,.113.241c.284-1.6.956-4.421.956-4.421Z" transform="translate(-73.222 -21.346)" fill="#fff"/>
        <path id="Trazado_703217" data-name="Trazado 703217" d="M330.865,91.448c.248-.174,3.009-5.2,4.137-5.474" transform="translate(-77.893 -20.24)" fill="none" stroke="#fff" stroke-linecap="round" stroke-linejoin="round" stroke-width="0.689"/>
        <path id="Trazado_703218" data-name="Trazado 703218" d="M311.824,91.448c-.248-.174-3.009-5.2-4.137-5.474" transform="translate(-72.437 -20.24)" fill="none" stroke="#fff" stroke-linecap="round" stroke-linejoin="round" stroke-width="0.689"/>
        <path id="Trazado_703219" data-name="Trazado 703219" d="M389.649,224.774a11.193,11.193,0,0,0-1.62-3.616,5.313,5.313,0,0,0-3.678-2.3c-4.307-.379-5.107,4.248-6.59,7.134-.72,1.4-1.64,2.3-1.923,3.981a8.881,8.881,0,0,1-.8,3.012c-.359.625-.929,1.258-.757,1.958a1.264,1.264,0,0,0,.888.859,2.015,2.015,0,0,0,1.986-.511c.411-.473.754-1.645,1.455-1.77.938-.166,1.976.754,2.486,1.427,1.9,2.507,2.027,5.909,3.279,8.793.249.574.706,1.219,1.326,1.128a1.046,1.046,0,0,0,.794-.884,3.06,3.06,0,0,0-.121-1.254q-.556-2.326-1.111-4.652c-.057-.235-.2-.861.089-1.022.251-.14.609.255.731.447a3.07,3.07,0,0,1,.325.833c.457,1.608.958,3.2,1.459,4.8a4.2,4.2,0,0,0,.677,1.461,1.425,1.425,0,0,0,1.432.539c.82-.245.657-1.2.5-1.832-.222-.921-.5-1.828-.8-2.728-.59-1.8-1.259-3.582-1.781-5.408-.094-.33-.137-.777.171-.928a.512.512,0,0,1,.569.148,1.5,1.5,0,0,1,.283.555l2.094,6.086c.133.387.389,1.208.913,1.191s.68-.741.677-1.144a12.967,12.967,0,0,0-.989-4.094c-.451-1.305-.791-2.634-1.137-3.97a.45.45,0,0,1,.007-.354.308.308,0,0,1,.425-.041.9.9,0,0,1,.266.388,35.4,35.4,0,0,0,1.9,3.6c.182.3.482.642.813.525a.526.526,0,0,0,.312-.426,6.02,6.02,0,0,0-.286-1.991,8.14,8.14,0,0,0-.97-2.136,29.544,29.544,0,0,1-1.851-3.071,33.577,33.577,0,0,1-1.445-4.725" transform="translate(-88.107 -51.518)" fill="#ff8b6a"/>
        <path id="Trazado_703220" data-name="Trazado 703220" d="M294.827,369.853a28.523,28.523,0,0,0,4.885-11.292" transform="translate(-69.409 -84.413)" fill="none" stroke="#fff" stroke-linecap="round" stroke-linejoin="round" stroke-width="0.602"/>
        <path id="Trazado_703221" data-name="Trazado 703221" d="M304.176,371.576a29.872,29.872,0,0,1,2.861-11.716" transform="translate(-71.61 -84.719)" fill="none" stroke="#fff" stroke-linecap="round" stroke-linejoin="round" stroke-width="0.602"/>
        <path id="Trazado_703222" data-name="Trazado 703222" d="M296.777,367.951l7.27,1.593" transform="translate(-69.868 -86.624)" fill="none" stroke="#fff" stroke-linecap="round" stroke-linejoin="round" stroke-width="0.602"/>
        <path id="Trazado_703223" data-name="Trazado 703223" d="M297.951,365.233a18.869,18.869,0,0,1,6.416,1.129" transform="translate(-70.144 -85.984)" fill="none" stroke="#fff" stroke-linecap="round" stroke-linejoin="round" stroke-width="0.602"/>
        <path id="Trazado_703224" data-name="Trazado 703224" d="M299.34,362.422a31.387,31.387,0,0,1,6.059,1.567" transform="translate(-70.471 -85.322)" fill="none" stroke="#fff" stroke-linecap="round" stroke-linejoin="round" stroke-width="0.602"/>
        <path id="Trazado_703225" data-name="Trazado 703225" d="M152.321,361.789c-1.705-.95-.853-3.7-1.715-8.485-.622-3.456-1.323-3.429-7.694-16.557a78.39,78.39,0,0,1-4.3-10.058,47.073,47.073,0,0,1-1.878-7.91,61.75,61.75,0,0,1,.732-22.883,10.049,10.049,0,0,1,5.226-2.926c1.193-.237,4.239-.755,6.354,1.15a5.3,5.3,0,0,1,1.488,3.489c.043.034,4.561,45.147,6.779,53.829,1.661,6.5,3.019,6.656,3.349,6.582-2.666,2.3-6.294,4.907-8.337,3.769" transform="translate(-32.016 -68.914)" fill="#e87578"/>
        <path id="Trazado_703226" data-name="Trazado 703226" d="M170.143,369.959a9.752,9.752,0,0,1-3.132-1.73c-1.022-1.025-2.927-3.707-3.212-3.68a9.883,9.883,0,0,0-2.553,1.684c-.167.331,4.972,3.769,4.795,3.917s-.9,3.012-.106,3.223,3.671-.885,3.671-.885l.641-1.918Z" transform="translate(-37.96 -85.823)" fill="#08051a"/>
        <path id="Trazado_703227" data-name="Trazado 703227" d="M175.49,372.825s-.366-1.112-1.135-1.3a40.927,40.927,0,0,0-4.189.062,13.88,13.88,0,0,0-1.97-.684c-.355.018-2.544,2.791-3.181,2.791s.972-2.117.645-2.334-3.551-2.247-3.708-2.519-3.525,2.807-7.121,2.554l.159,5.445.231,1.367,1.537.109,4.058-.979,5.675-.122,2.9-.131,4.149-1.625,2.135-2.441Z" transform="translate(-36.451 -86.83)" fill="#454658"/>
        <path id="Trazado_703228" data-name="Trazado 703228" d="M175.974,374.657c.011-.067-.221-1.046-.5-1.111s-.223,1.2-.389,1.271a16.271,16.271,0,0,1-7.439,2.912c-4.814.729-5.763-.393-8.036-.1s-4.331,1.473-4.614.323c-.046.206-.523,2.446.606,3.34.609.482,1.4.347,2.635.119a16.753,16.753,0,0,0,4.464-1.48c.647-.273,1.693.369,3.812.218s8.874-2.084,9.462-5.493" transform="translate(-36.457 -87.941)" fill="#fff"/>
        <path id="Trazado_703229" data-name="Trazado 703229" d="M171.6,371.884a.191.191,0,0,0-.034-.375,6.894,6.894,0,0,0-3.21.649.191.191,0,0,0-.091.251.179.179,0,0,0,.243.094,6.524,6.524,0,0,1,3.042-.614.178.178,0,0,0,.05-.005" transform="translate(-39.609 -87.46)" fill="#454658"/>
        <path id="Trazado_703230" data-name="Trazado 703230" d="M168.69,371.965a.184.184,0,0,0,.093-.055c.132-.146.264-.31.4-.478a5.266,5.266,0,0,1,.936-.982.193.193,0,0,0,.048-.264.18.18,0,0,0-.255-.05,5.439,5.439,0,0,0-1.012,1.052c-.131.162-.259.32-.386.463a.194.194,0,0,0,.009.268.179.179,0,0,0,.167.046" transform="translate(-39.66 -87.131)" fill="#454658"/>
        <path id="Trazado_703231" data-name="Trazado 703231" d="M171.278,371.5a.186.186,0,0,0,.135-.134.191.191,0,0,0-.128-.234c-1.014-.288-3.528-.736-4.826-.261a.191.191,0,0,0-.112.242.18.18,0,0,0,.234.116,9.8,9.8,0,0,1,4.607.269.181.181,0,0,0,.09,0" transform="translate(-39.159 -87.262)" fill="#454658"/>
        <path id="Trazado_703232" data-name="Trazado 703232" d="M166.292,370.484a.182.182,0,0,0,.1-.063A8.6,8.6,0,0,1,167.919,369a.193.193,0,0,0,.05-.263.179.179,0,0,0-.255-.052,9.049,9.049,0,0,0-1.606,1.492.194.194,0,0,0,.023.268.179.179,0,0,0,.16.039" transform="translate(-39.096 -86.789)" fill="#454658"/>
        <path id="Trazado_703233" data-name="Trazado 703233" d="M168.521,369.9a.185.185,0,0,0,.134-.13.19.19,0,0,0-.122-.236,7.051,7.051,0,0,0-3.686.022.192.192,0,0,0-.121.238.182.182,0,0,0,.23.125,6.646,6.646,0,0,1,3.47-.021.174.174,0,0,0,.095,0" transform="translate(-38.778 -86.942)" fill="#454658"/>
        <path id="Trazado_703234" data-name="Trazado 703234" d="M164.05,368.98a.192.192,0,0,0,.077-.04,3.36,3.36,0,0,1,2.769-.675.183.183,0,0,0,.222-.138.191.191,0,0,0-.135-.229,3.7,3.7,0,0,0-3.1.754.194.194,0,0,0-.021.268.18.18,0,0,0,.182.061" transform="translate(-38.568 -86.591)" fill="#454658"/>
        <path id="Trazado_703235" data-name="Trazado 703235" d="M164.792,369.25a.188.188,0,0,0,.109-.076l.2-.305a8.686,8.686,0,0,1,1.31-1.706.2.2,0,0,0,.034-.266.179.179,0,0,0-.258-.036,8.728,8.728,0,0,0-1.391,1.8l-.2.3a.194.194,0,0,0,.046.264.18.18,0,0,0,.147.029" transform="translate(-38.743 -86.358)" fill="#454658"/>
        <path id="Trazado_703236" data-name="Trazado 703236" d="M124.436,213.478s19.642,57.759,17.96,67.724-14,8.179-15.334,3.111-27.509-58.169-27.509-58.169Z" transform="translate(-23.437 -50.258)" fill="#ff8b6a"/>
        <path id="Trazado_703237" data-name="Trazado 703237" d="M137.225,324.486a1.565,1.565,0,0,0,1.673.824,18.129,18.129,0,0,0,7.8-3.416,1.548,1.548,0,0,0,.591-1.454c-1.215-8.683-4.649-41.026-4.617-41.219,1.694-10.04-17.186-65.736-17.99-68.1l-.288-.847A15.062,15.062,0,0,0,98.037,223.69l4.675,9.527q12.129,24.05,23.117,49.182.271.622.541,1.241a60.23,60.23,0,0,0,.533,14.495,48.305,48.305,0,0,0,1.909,8.038,79.3,79.3,0,0,0,4.341,10.147c1.739,3.584,3.064,6.2,4.073,8.166" transform="translate(-22.953 -48.148)" fill="#8abcdd"/>
        <path id="Trazado_703238" data-name="Trazado 703238" d="M98.6,226.343a24.153,24.153,0,0,0,5.684,1.207s1.106,5.917,1.726,9.462a10.268,10.268,0,0,1-3.623-1.608C100.967,234.27,98.6,226.343,98.6,226.343Z" transform="translate(-23.213 -53.286)" fill="none" stroke="#381905" stroke-linecap="round" stroke-linejoin="round" stroke-width="0.751"/>
        <path id="Trazado_703239" data-name="Trazado 703239" d="M89.5,367.5c-1.288-1.467.438-3.775,1.23-8.569.572-3.465-.1-3.675-1.7-18.179a78.389,78.389,0,0,1-.683-10.92,47.107,47.107,0,0,1,.884-8.082A61.754,61.754,0,0,1,97.6,300.441a10.062,10.062,0,0,1,5.9-1c1.2.177,4.247.71,5.6,3.214a5.3,5.3,0,0,1,.232,3.786c.029.045-10.842,44.062-11.663,52.986-.615,6.681.611,7.282.947,7.324-3.282,1.269-7.575,2.512-9.118.755" transform="translate(-20.798 -70.471)" fill="#e87578"/>
        <path id="Trazado_703240" data-name="Trazado 703240" d="M105.65,382.293a9.757,9.757,0,0,1-2.307-2.735c-.588-1.323-1.408-4.509-1.685-4.584a9.894,9.894,0,0,0-2.986.661c-.274.249,3.3,5.3,3.079,5.372s-1.918,2.491-1.251,2.971,3.745.485,3.745.485l1.283-1.561Z" transform="translate(-23.226 -88.276)" fill="#08051a"/>
        <path id="Trazado_703241" data-name="Trazado 703241" d="M108.888,387.34s.055-1.17-.6-1.616a40.7,40.7,0,0,0-3.935-1.439,13.824,13.824,0,0,0-1.595-1.343c-.337-.11-3.373,1.7-3.968,1.47s1.664-1.63,1.436-1.95-2.514-3.366-2.564-3.677-4.3,1.362-7.562-.158l-1.8,5.143-.274,1.359,1.4.651,4.139.536,5.345,1.914,2.759.915,4.456-.036L109,387.592Z" transform="translate(-20.725 -89.137)" fill="#454658"/>
        <path id="Trazado_703242" data-name="Trazado 703242" d="M108.9,389.769c.035-.059.167-1.056-.07-1.216s-.635,1.037-.817,1.048a16.282,16.282,0,0,1-7.988.062c-4.757-1.039-5.242-2.426-7.471-2.964s-4.572-.171-4.425-1.346c-.117.176-1.363,2.1-.627,3.336.4.667,1.184.825,2.419,1.052a16.756,16.756,0,0,0,4.7.213c.7-.024,1.45.949,3.483,1.566s9.033,1.224,10.8-1.75" transform="translate(-20.545 -90.721)" fill="#fff"/>
        <path id="Trazado_703243" data-name="Trazado 703243" d="M106.417,384.525a.191.191,0,0,0,.1-.362,6.878,6.878,0,0,0-3.23-.541.193.193,0,0,0-.175.2.18.18,0,0,0,.193.174,6.522,6.522,0,0,1,3.061.513.187.187,0,0,0,.048.013" transform="translate(-24.275 -90.309)" fill="#454658"/>
        <path id="Trazado_703244" data-name="Trazado 703244" d="M103.577,383.535a.18.18,0,0,0,.106-.018c.174-.09.356-.2.543-.3a5.218,5.218,0,0,1,1.226-.583.194.194,0,0,0,.139-.229.181.181,0,0,0-.22-.138,5.459,5.459,0,0,0-1.321.622c-.18.1-.356.206-.525.294a.2.2,0,0,0-.087.254.18.18,0,0,0,.14.1" transform="translate(-24.347 -89.992)" fill="#454658"/>
        <path id="Trazado_703245" data-name="Trazado 703245" d="M106.3,383.931a.187.187,0,0,0,.174-.076.192.192,0,0,0-.036-.265c-.844-.632-3.032-1.948-4.415-1.968a.191.191,0,0,0-.191.186.179.179,0,0,0,.177.192,9.807,9.807,0,0,1,4.207,1.9.175.175,0,0,0,.083.034" transform="translate(-23.974 -89.843)" fill="#454658"/>
        <path id="Trazado_703246" data-name="Trazado 703246" d="M101.869,381.317a.186.186,0,0,0,.115-.023,8.533,8.533,0,0,1,1.936-.781.2.2,0,0,0,.141-.229.18.18,0,0,0-.219-.139,9.1,9.1,0,0,0-2.033.821.193.193,0,0,0-.074.257.177.177,0,0,0,.135.095" transform="translate(-23.945 -89.493)" fill="#454658"/>
        <path id="Trazado_703247" data-name="Trazado 703247" d="M104.292,381.468a.186.186,0,0,0,.172-.073.191.191,0,0,0-.031-.265,7.048,7.048,0,0,0-3.451-1.3.192.192,0,0,0-.2.179.181.181,0,0,0,.171.2,6.649,6.649,0,0,1,3.249,1.22.176.176,0,0,0,.087.037" transform="translate(-23.727 -89.422)" fill="#454658"/>
        <path id="Trazado_703248" data-name="Trazado 703248" d="M100.386,379.113a.179.179,0,0,0,.086-.01,3.362,3.362,0,0,1,2.827.359.183.183,0,0,0,.258-.05.191.191,0,0,0-.043-.263,3.7,3.7,0,0,0-3.161-.4.193.193,0,0,0-.115.242.178.178,0,0,0,.148.122" transform="translate(-23.596 -89.122)" fill="#454658"/>
        <path id="Trazado_703249" data-name="Trazado 703249" d="M100.843,379.626a.186.186,0,0,0,.129-.032l.3-.213a8.665,8.665,0,0,1,1.832-1.125.194.194,0,0,0,.128-.236.18.18,0,0,0-.228-.126,8.724,8.724,0,0,0-1.94,1.181l-.293.21a.193.193,0,0,0-.05.263.176.176,0,0,0,.126.079" transform="translate(-23.704 -88.963)" fill="#454658"/>
        <path id="Trazado_703250" data-name="Trazado 703250" d="M114.4,220.264s-.863,61-5.789,69.825-15.932,3.011-15.49-2.21-6.41-64.025-6.41-64.025Z" transform="translate(-20.415 -51.855)" fill="#ff8b6a"/>
        <path id="Trazado_703251" data-name="Trazado 703251" d="M88.714,327.833a1.567,1.567,0,0,0,1.3,1.338,18.158,18.158,0,0,0,8.5-.6,1.548,1.548,0,0,0,1.044-1.172c1.767-8.588,9.377-40.211,9.472-40.381,4.963-8.891,5.851-67.693,5.887-70.192l.013-.9a15.062,15.062,0,0,0-29.335,3.8Q86.2,225,86.8,230.275,90.165,257,92.089,284.362q.047.675.093,1.35a60.3,60.3,0,0,0-4.358,13.834,48.255,48.255,0,0,0-.9,8.213,79.269,79.269,0,0,0,.687,11.015c.437,3.959.807,6.869,1.1,9.059" transform="translate(-20.15 -48.404)" fill="#8abcdd"/>
        <path id="Trazado_703252" data-name="Trazado 703252" d="M87.035,236.563c-2.519-.719-4.094-9.6-5.142-20.8s9-7.442,9-7.442l.775,11.924" transform="translate(-19.262 -48.9)" fill="#8abcdd"/>
        <path id="Trazado_703253" data-name="Trazado 703253" d="M116.243,294.465c4.963-8.891,5.5-50.733,5.632-57.219" transform="translate(-27.366 -55.853)" fill="none" stroke="#381905" stroke-linecap="round" stroke-linejoin="round" stroke-width="0.751"/>
        <path id="Trazado_703254" data-name="Trazado 703254" d="M105.147,127.34l47.081,8.435A6.752,6.752,0,0,0,155.2,122.8l.006,0-.016-.005c-.154-.064-.312-.125-.473-.177-.143-.047-.294-.076-.441-.114l-44.26-14.7c-8.193-2.675-12.865,4.625-13.117,9.154a9.972,9.972,0,0,0,8.247,10.377" transform="translate(-22.809 -25.246)" fill="#e87578"/>
        <path id="Trazado_703255" data-name="Trazado 703255" d="M117.723,106.945l27.113,9.878a1.236,1.236,0,0,1,.813,1.05,31.219,31.219,0,0,1-3.241,16.354,1.247,1.247,0,0,1-1.3.664l-21.576-3.3" transform="translate(-27.715 -25.177)" fill="#fff"/>
        <path id="Trazado_703256" data-name="Trazado 703256" d="M121.471,95.438l.018-.02a4.273,4.273,0,0,1-.457-.59,4.172,4.172,0,0,1,6.16-5.468l0,0,.049.041.021.018,34.4,29.049q.141.112.276.233l.122.1-.006.006a6.747,6.747,0,1,1-9.405,9.674l0,0-.039-.041-.043-.045Z" transform="translate(-28.341 -20.816)" fill="#e87578"/>
        <path id="Trazado_703257" data-name="Trazado 703257" d="M84.764,124.453l-24.82,40.887a6.752,6.752,0,0,1-11.7-6.354l0,.005.007-.015c.054-.158.113-.317.18-.473.06-.138.138-.271.206-.406L66.9,115.185c3.415-7.914,11.979-6.588,15.542-3.782a9.972,9.972,0,0,1,2.326,13.05" transform="translate(-11.274 -25.713)" fill="#e87578"/>
        <path id="Trazado_703258" data-name="Trazado 703258" d="M129.114,88.213a10.128,10.128,0,0,1,.68,3.516,4.8,4.8,0,0,1-1.525,3.616c-2.989,2.519-5.984-.489-8.581-1.853-1.261-.663-2.408-.85-3.491-1.947a8.036,8.036,0,0,0-2.157-1.813c-.591-.275-1.342-.448-1.578-1.055a1.143,1.143,0,0,1,.211-1.1,1.823,1.823,0,0,1,1.735-.654c.55.136,1.412.826,2,.554.78-.365,1.07-1.584,1.1-2.347.1-2.841-1.57-5.424-2.142-8.209-.114-.554-.11-1.268.395-1.523a.947.947,0,0,1,1.047.242,2.757,2.757,0,0,1,.562.99q.8,2.009,1.595,4.019c.08.2.3.739.6.71.258-.026.317-.5.308-.71a2.759,2.759,0,0,0-.192-.784c-.5-1.427-.955-2.867-1.413-4.307A3.776,3.776,0,0,1,118,74.126a1.288,1.288,0,0,1,.779-1.143c.735-.245,1.111.549,1.326,1.094.313.8.576,1.614.826,2.433.5,1.642.929,3.3,1.492,4.926.1.293.3.646.609.6a.461.461,0,0,0,.343-.4,1.347,1.347,0,0,0-.079-.558q-.806-2.795-1.613-5.591c-.1-.356-.339-1.1.057-1.355s.888.194,1.095.494a11.751,11.751,0,0,1,1.4,3.543c.345,1.2.784,2.359,1.222,3.528a.407.407,0,0,0,.189.258.278.278,0,0,0,.336-.19.821.821,0,0,0,0-.426,31.643,31.643,0,0,1-.465-3.649c-.022-.316.023-.725.328-.81a.478.478,0,0,1,.452.153,5.434,5.434,0,0,1,.823,1.622,7.353,7.353,0,0,1,.392,2.084,26.636,26.636,0,0,0,.226,3.233,30.3,30.3,0,0,0,1.385,4.246" transform="translate(-26.462 -17.171)" fill="#e87578"/>
        <path id="Trazado_703259" data-name="Trazado 703259" d="M79.564,196.507c-.531-8-4.8-72.688-4.482-83.363A6.182,6.182,0,0,1,75.869,110c2.511-4.231,10.751-4.275,20.741-4.849,8.748-.5,15.169.79,16.143,5.647l8.283,78.479a48.325,48.325,0,0,1-5.957,3.7,54.653,54.653,0,0,1-8.256,3.383c-5.636,1.719-15.472,2.47-27.259.145" transform="translate(-17.672 -24.731)" fill="#fff"/>
        <path id="Trazado_703260" data-name="Trazado 703260" d="M124.334,118.447c.986,9,3.818,31.866,4.805,40.861" transform="translate(-29.271 -27.885)" fill="none" stroke="#381905" stroke-linecap="round" stroke-linejoin="round" stroke-width="0.751"/>
        <path id="Trazado_703261" data-name="Trazado 703261" d="M100.117,63.767c.193.232,9.9-2.089,8.474,9.537-.408,3.332-12.687-3.068-11.661-3.744s3.188-5.792,3.188-5.792" transform="translate(-22.805 -15.001)" fill="#08051a"/>
        <path id="Trazado_703262" data-name="Trazado 703262" d="M97.918,106.866l2.03-.621a6.367,6.367,0,0,1,4.681-.035c5.119,2.21,5.532,12.868,2.871,14.218-3.363,1.706-14.206-10.147-12.529-12.9.443-.729,1.742-.781,2.947-.661" transform="translate(-22.317 -24.907)" fill="#e87578"/>
        <path id="Trazado_703263" data-name="Trazado 703263" d="M102.621,103.157c-.01.048-.466.586-.962,1.161a3.817,3.817,0,0,1-3.931,1.234,2.249,2.249,0,0,1-.793-.39L92.16,91.618l6.467.213Z" transform="translate(-21.697 -21.569)" fill="#e87578"/>
        <path id="Trazado_703264" data-name="Trazado 703264" d="M102.359,101.9l-3.526-10-5.8.016c1.973,3.554,5.642,8.362,9.326,9.984" transform="translate(-21.902 -21.635)" fill="#08051a"/>
        <path id="Trazado_703265" data-name="Trazado 703265" d="M89.724,83.434a27.5,27.5,0,0,0,2.048,2.807,5.7,5.7,0,0,1,1.021,1.129,10.882,10.882,0,0,0,8.929,3.418,8.808,8.808,0,0,0,5.058-2.216,9.233,9.233,0,0,0,1.681-2.269c1.626-3.175,1.8-9.738-1.739-15.335-1.419-2.243-5.4-8.54-11.7-7.919-5.091.5-9.167,5.282-9.575,9.641-.323,3.42,1.618,6.513,4.272,10.745" transform="translate(-20.109 -14.833)" fill="#e87578"/>
        <path id="Trazado_703266" data-name="Trazado 703266" d="M85.02,80.563a34.209,34.209,0,0,0,5.432-1.173.118.118,0,0,0,.063-.187,4.753,4.753,0,0,1-.906-3.816c.248-.987.813-.952.968-1.855.343-2-2.24-3.2-1.992-4.666.141-.836,1.232-1.481,4.271-2.372,6.623-1.944,8.986-1.177,10.418-3.051,1.5-1.964.508-4.9.3-5.52-1.116-3.306-4.618-5.921-7.233-5.344-2.4.53-1.914,3.415-4.918,6.654-4.692,5.062-10.492,3.084-11.8,6.7-.57,1.58.692,4.415,3.216,10.083.866,1.945,1.646,3.514,2.178,4.549" transform="translate(-18.714 -12.359)" fill="#08051a"/>
        <path id="Trazado_703267" data-name="Trazado 703267" d="M109.3,79.329s.7,1.778.872,2.478c.132.518,1.681-.217,1.824,0s-.611,1.018-1.247,1.631" transform="translate(-25.731 -18.676)" fill="none" stroke="#381905" stroke-linecap="round" stroke-linejoin="round" stroke-width="0.751"/>
        <path id="Trazado_703268" data-name="Trazado 703268" d="M91.455,87.851c1.143,1.4,1.21,3.231.148,4.1s-2.847.441-3.99-.954-1.209-3.232-.148-4.1,2.847-.441,3.99.955" transform="translate(-20.414 -20.352)" fill="#e87578"/>
        <path id="Trazado_703269" data-name="Trazado 703269" d="M111.044,73.922c.044.283,1.07.332,1.473.33s1.427-.062,1.469-.348c.037-.253-.7-.681-1.426-.692-.778-.011-1.557.451-1.516.71" transform="translate(-26.142 -17.236)" fill="#08051a"/>
        <path id="Trazado_703270" data-name="Trazado 703270" d="M100.989,77.511c.151.19-.493,1.092-1.522,1.91s-2.052,1.243-2.2,1.054.352-1.27,1.381-2.088,2.194-1.066,2.345-.875" transform="translate(-22.892 -18.234)" fill="#08051a"/>
        <path id="Trazado_703271" data-name="Trazado 703271" d="M88.907,89.021A2.951,2.951,0,0,1,90.968,90.4a.492.492,0,0,0-.724.613" transform="translate(-20.931 -20.958)" fill="none" stroke="#381905" stroke-linecap="round" stroke-linejoin="round" stroke-width="0.751"/>
        <line id="Línea_2444" data-name="Línea 2444" x1="5.096" y1="0.675" transform="translate(71.19 71.6)" fill="none" stroke="#fff" stroke-linecap="round" stroke-linejoin="round" stroke-width="0.751"/>
        <path id="Trazado_703272" data-name="Trazado 703272" d="M107.215,80.615a9.248,9.248,0,0,1,5.146.685c.529.46,2.254,6.308-.116,9.788-5.1,7.486-13.411.713-13.429-.167s.19-5.1.19-5.1,6.455-4.612,8.209-5.211" transform="translate(-23.263 -18.945)" fill="#bfc9e2"/>
        <path id="Trazado_703273" data-name="Trazado 703273" d="M107.913,82.46a9.255,9.255,0,0,1,5.146.685l0,0a5.063,5.063,0,0,0-.7-1.85,9.255,9.255,0,0,0-5.146-.685c-1.754.6-8.209,5.212-8.209,5.212s-.208,4.215-.19,5.094c0,.154.265.491.714.9.046-1.541.174-4.146.174-4.146s6.455-4.612,8.209-5.211" transform="translate(-23.263 -18.945)" fill="#fff"/>
        <path id="Trazado_703274" data-name="Trazado 703274" d="M97.933,87.727a51.831,51.831,0,0,0-7.829-1.48" transform="translate(-21.213 -20.305)" fill="none" stroke="#fff" stroke-linecap="round" stroke-linejoin="round" stroke-width="0.751"/>
        <path id="Trazado_703275" data-name="Trazado 703275" d="M112.884,78.055c.079.461.359.8.625.752s.419-.456.34-.917-.359-.8-.625-.752-.419.456-.34.917" transform="translate(-26.57 -18.159)" fill="#381905"/>
        <path id="Trazado_703276" data-name="Trazado 703276" d="M104.18,81.029c.083.482.375.836.654.788s.439-.477.356-.96-.375-.836-.655-.788-.438.478-.356.96" transform="translate(-24.521 -18.849)" fill="#381905"/>
        <path id="Trazado_703277" data-name="Trazado 703277" d="M108.308,176.82a11.2,11.2,0,0,1-3.094-2.474,5.316,5.316,0,0,1-1.307-4.139c.712-4.264,5.392-3.878,8.557-4.591,1.537-.346,2.638-1.012,4.336-.864a8.871,8.871,0,0,0,3.117-.02c.7-.191,1.451-.584,2.085-.242a1.263,1.263,0,0,1,.609,1.076,2.015,2.015,0,0,1-.992,1.794c-.56.279-1.781.317-2.078.965-.4.866.235,2.1.758,2.764,1.95,2.467,5.211,3.443,7.69,5.379.493.385,1,.989.759,1.566a1.048,1.048,0,0,1-1.054.547,3.065,3.065,0,0,1-1.184-.432l-4.225-2.242c-.213-.113-.784-.408-1.012-.17-.2.207.094.653.249.819a3.056,3.056,0,0,0,.724.524c1.443.846,2.86,1.73,4.279,2.614a4.2,4.2,0,0,1,1.245,1.022,1.425,1.425,0,0,1,.163,1.521c-.443.732-1.329.334-1.9.029-.836-.447-1.643-.947-2.441-1.458-1.6-1.024-3.152-2.117-4.789-3.079-.3-.174-.717-.328-.94-.067a.509.509,0,0,0,0,.587,1.481,1.481,0,0,0,.466.414l5.367,3.553c.342.226,1.072.679.924,1.182s-.888.473-1.277.369a12.976,12.976,0,0,1-3.716-1.983c-1.151-.764-2.352-1.425-3.558-2.1a.447.447,0,0,0-.345-.082.308.308,0,0,0-.147.4.906.906,0,0,0,.309.355,35.188,35.188,0,0,1,3.007,2.74c.245.251.5.628.305.918a.526.526,0,0,1-.49.195,6.03,6.03,0,0,1-1.856-.776,8.094,8.094,0,0,1-1.825-1.475,29.613,29.613,0,0,0-2.509-2.561,33.49,33.49,0,0,0-4.212-2.583" transform="translate(-24.449 -38.693)" fill="#e87578"/>
        <path id="Trazado_703278" data-name="Trazado 703278" d="M118.127,95.8a4.949,4.949,0,0,0,7.285-2.064,4.232,4.232,0,0,0,3.1-.191" transform="translate(-27.81 -22.023)" fill="none" stroke="#381905" stroke-linecap="round" stroke-linejoin="round" stroke-width="0.751"/>
        <path id="Trazado_703279" data-name="Trazado 703279" d="M101.2,174.681l0-.028a4.13,4.13,0,0,0,.725-.179,4.172,4.172,0,0,0-1.44-8.11v0l-.063,0-.027,0-45,1.447c-.12,0-.241,0-.362.011l-.16.005v.008a6.748,6.748,0,1,0,1.376,13.422v0l.056-.008.062-.009Z" transform="translate(-11.459 -39.165)" fill="#e87578"/>
        <path id="Trazado_703280" data-name="Trazado 703280" d="M79.122,109.124c-7.192-2.278-9.308,1.621-21.233,29.416a1.252,1.252,0,0,0,.1,1.183c1.094,1.661,4.928,6.445,14.34,9.528a1.24,1.24,0,0,0,1.488-.618c1.99-3.916,9.57-18.874,10.268-20.827.8-2.251,3.666-15.948-4.964-18.682" transform="translate(-13.604 -25.561)" fill="#fff"/>
      </g>
    </g>
    <rect id="Rectángulo_345536" data-name="Rectángulo 345536" width="464" height="367" transform="translate(1805 -12682)" fill="none"/>
  </g>
</svg>
