<svg xmlns="http://www.w3.org/2000/svg" xmlns:xlink="http://www.w3.org/1999/xlink" width="464" height="367" viewBox="0 0 464 367">
  <defs>
    <clipPath id="clip-path">
      <rect id="Rectángulo_345465" data-name="Rectángulo 345465" width="372.008" height="293.303" fill="none"/>
    </clipPath>
    <clipPath id="clip-path-2">
      <rect id="Rectángulo_345464" data-name="Rectángulo 345464" width="372.008" height="293.302" fill="none"/>
    </clipPath>
    <clipPath id="clip-path-3">
      <rect id="Rectángulo_345456" data-name="Rectángulo 345456" width="32.282" height="20.639" fill="none"/>
    </clipPath>
    <clipPath id="clip-path-4">
      <rect id="Rectángulo_345457" data-name="Rectángulo 345457" width="159.062" height="11.542" fill="none"/>
    </clipPath>
    <clipPath id="clip-path-5">
      <rect id="Rectángulo_345458" data-name="Rectángulo 345458" width="21.207" height="3.001" fill="none"/>
    </clipPath>
    <clipPath id="clip-path-6">
      <rect id="Rectángulo_345459" data-name="Rectángulo 345459" width="19.573" height="2.769" fill="none"/>
    </clipPath>
    <clipPath id="clip-path-7">
      <rect id="Rectángulo_345460" data-name="Rectángulo 345460" width="18.883" height="2.672" fill="none"/>
    </clipPath>
    <clipPath id="clip-path-8">
      <rect id="Rectángulo_345461" data-name="Rectángulo 345461" width="17.978" height="2.544" fill="none"/>
    </clipPath>
    <clipPath id="clip-path-9">
      <rect id="Rectángulo_345462" data-name="Rectángulo 345462" width="19.573" height="2.77" fill="none"/>
    </clipPath>
    <clipPath id="clip-path-10">
      <rect id="Rectángulo_345463" data-name="Rectángulo 345463" width="33.751" height="40.792" fill="none"/>
    </clipPath>
  </defs>
  <g id="Grupo_1000175" data-name="Grupo 1000175" transform="translate(-6494 10194)">
    <g id="Grupo_1000168" data-name="Grupo 1000168" transform="translate(6540.135 -10156.892)">
      <g id="Grupo_1000042" data-name="Grupo 1000042" clip-path="url(#clip-path)">
        <g id="Grupo_1000041" data-name="Grupo 1000041" transform="translate(0 0.001)">
          <g id="Grupo_1000040" data-name="Grupo 1000040" clip-path="url(#clip-path-2)">
            <path id="Trazado_704579" data-name="Trazado 704579" d="M1174.374,1070.523c.948-.843-8.216-12.438-9.231-11.674-15.165,11.432-41.348,26.763-46.1,29.35,0,0,8.832,11.29,19.093,10.877,8.17-.328,23.706-17.416,36.238-28.554" transform="translate(-950.533 -899.374)" fill="#ffc19f"/>
            <path id="Trazado_704580" data-name="Trazado 704580" d="M1033.7,1028.743c-3.648,6.379-11.82,20.027-16.026,26.383-14.094-8.072-25.1-15.337-25.651-16.391-4.833-9.3,5.066-29.123,8.532-34.761a11.608,11.608,0,0,1,4.326,2.107c6.873,5.441,16.848,13.854,28.82,22.662" transform="translate(-841.529 -852.793)" fill="#afafaf"/>
            <path id="Trazado_704581" data-name="Trazado 704581" d="M550.219,1107.621c29.05,8.6,69.5,3.592,94.233-8.335,0,0-13.483-77.3-18.065-95.312-19.191.6-51.46,1.509-72.875,10.036-1.267,23.373-.21,59.951-3.293,93.612" transform="translate(-467.365 -852.793)" fill="#636363"/>
            <path id="Trazado_704582" data-name="Trazado 704582" d="M645.79,1021.933a164.039,164.039,0,0,1-5.78-17.959c-19.192.6-51.46,1.509-72.875,10.036-.468,8.621-.535,14.081-.877,17.843-.209,2.3,36.707-17.829,39-18.13,7.868.342,19.156,3.934,40.535,8.21" transform="translate(-480.989 -852.793)" fill="#afafaf"/>
            <path id="Trazado_704583" data-name="Trazado 704583" d="M714.236,1014.031a34.424,34.424,0,0,0-1.51-5.657c-11.848,2.061-28.19,2.989-40.765,4.693a10.022,10.022,0,0,0-.249,1.491c.094,8.9,9.792,16.021,21.663,15.9s20.954-7.519,20.861-16.423" transform="translate(-570.563 -856.53)" fill="#12263f"/>
            <path id="Trazado_704584" data-name="Trazado 704584" d="M728.716,884.438l2.118,25.038c.455,5.384-6.018,10.328-14.459,11.042s-15.652-3.073-16.108-8.457l-2.118-25.037Z" transform="translate(-593.019 -751.257)" fill="#ffc19f"/>
            <g id="Grupo_1000018" data-name="Grupo 1000018" transform="translate(105.421 139.172)" opacity="0.19">
              <g id="Grupo_1000017" data-name="Grupo 1000017">
                <g id="Grupo_1000016" data-name="Grupo 1000016" clip-path="url(#clip-path-3)">
                  <path id="Trazado_704585" data-name="Trazado 704585" d="M730.953,925.289l1.409,16.654a27.205,27.205,0,0,1-14.854,2.805,26.229,26.229,0,0,1-16.3-7.172L700.08,924.26c9.491-.184,20.92.275,30.873,1.029" transform="translate(-700.08 -924.219)" fill="#960c0c"/>
                </g>
              </g>
            </g>
            <path id="Trazado_704586" data-name="Trazado 704586" d="M268.161,62.007c1.26,48.68,39.971,75.781,79.676,70.363S415.479,87.554,405.084,41.4C399.312,15.777,374.324-4.825,331.718,1c-43.565,5.955-64.453,26.388-63.557,61.008" transform="translate(-227.756 -0.005)" fill="#12263f"/>
            <path id="Trazado_704587" data-name="Trazado 704587" d="M1072.809,514.9c-1.991,14.353-14.26,24.589-24.37,24.329s-13.3-11.5-13.037-25.151,8.669-24.531,18.777-24.236c13.818.4,20.5,11.566,18.63,25.058" transform="translate(-879.474 -416.078)" fill="#ffc19f"/>
            <path id="Trazado_704588" data-name="Trazado 704588" d="M1086.668,623.339c-2.12,5.6-7.737,8.625-12.544,6.768s-6.985-7.9-4.864-13.5,7.736-8.625,12.543-6.767,6.986,7.9,4.865,13.5" transform="translate(-907.557 -517.544)" fill="#e0956c"/>
            <path id="Trazado_704589" data-name="Trazado 704589" d="M240.87,612.257c5.241,13.51,19.538,20.646,29.316,18.065s10.293-14.258,6.9-27.476S263,580.968,253.232,583.583c-13.354,3.575-17.289,15.975-12.362,28.674" transform="translate(-202.864 -495.31)" fill="#ffc19f"/>
            <path id="Trazado_704590" data-name="Trazado 704590" d="M334.816,712.363c3.351,4.957,9.515,6.612,13.765,3.7s4.978-9.3,1.625-14.256-9.513-6.613-13.763-3.7-4.979,9.3-1.627,14.256" transform="translate(-282.609 -591.763)" fill="#e0956c"/>
            <path id="Trazado_704591" data-name="Trazado 704591" d="M423.118,73.165A67.274,67.274,0,1,1,348.5,14.14a67.274,67.274,0,0,1,74.616,59.024" transform="translate(-245.496 -11.621)" fill="#12263f"/>
            <path id="Trazado_704592" data-name="Trazado 704592" d="M464.909,200.809c3.879,7.379,6.47,60.387,1.241,70.278-6.1,11.529-19.675,27.4-46.818,30.666-26.464,3.18-44.494-9.152-52.364-19.094-9.315-11.765-16.83-61.383-15.146-68.656,5.7-24.569,24.882-33.308,53.335-36.691,25.489-3.03,48.611,2.3,59.752,23.5" transform="translate(-298.642 -149.946)" fill="#ffc19f"/>
            <path id="Trazado_704593" data-name="Trazado 704593" d="M984.232,676.8c.32,2.57,4.384,4.213,9.078,3.669s8.24-3.066,7.92-5.635-4.385-4.213-9.077-3.67-8.24,3.066-7.921,5.636" transform="translate(-836.006 -570.01)" fill="#ff9797"/>
            <path id="Trazado_704594" data-name="Trazado 704594" d="M435.766,743.529c.319,2.57,4.384,4.213,9.078,3.67s8.24-3.066,7.92-5.636-4.385-4.212-9.077-3.669-8.24,3.066-7.921,5.635" transform="translate(-370.13 -626.691)" fill="#ff9797"/>
            <path id="Trazado_704595" data-name="Trazado 704595" d="M667.532,748.913c-1.5-4.762-8.843-2.627-21.081-1.282-.64.07-3.128.361-3.769.439-12.219,1.509-19.853,1.121-20.219,6.1-.7,9.594,12.3,18.465,24.722,17.054l.215-.025c12.415-1.486,23.026-13.113,20.132-22.286" transform="translate(-528.707 -633.641)" fill="#701608"/>
            <path id="Trazado_704596" data-name="Trazado 704596" d="M715.349,868.5l-.215.025a25.665,25.665,0,0,1-12.476-1.882l-.252-.1.179-.2a19.064,19.064,0,0,1,24.481-2.856l.221.154-.223.154a25.743,25.743,0,0,1-11.715,4.7" transform="translate(-596.635 -730.742)" fill="#dd6b5b"/>
            <path id="Trazado_704597" data-name="Trazado 704597" d="M676.42,753.1c-8.546,1-15.969-.821-17.269-4.233l-.077-.21,33.2-3.873-.026.221c-.488,3.621-7.293,7.1-15.831,8.1" transform="translate(-559.828 -632.633)" fill="#fff"/>
            <path id="Trazado_704598" data-name="Trazado 704598" d="M726.221,681.261a.639.639,0,0,0,.563-.6,4.561,4.561,0,0,1,8.875-1.05.639.639,0,1,0,1.234-.327,5.837,5.837,0,0,0-11.387,1.315.64.64,0,0,0,.607.669Z" transform="translate(-616.257 -573.523)" fill="#c4735b"/>
            <path id="Trazado_704599" data-name="Trazado 704599" d="M424.6,411.414a2.694,2.694,0,0,1-2.342-4.458c4.863-5.513,15.946-8.293,24.289-6.273a2.7,2.7,0,1,1-1.268,5.239c-6.4-1.559-15.419.56-18.977,4.6a2.691,2.691,0,0,1-1.7.892" transform="translate(-358.103 -339.788)" fill="#843720"/>
            <path id="Trazado_704600" data-name="Trazado 704600" d="M877.878,361.915a2.694,2.694,0,0,0,1.253-4.877c-6-4.246-17.427-4.4-25.081-.513a2.7,2.7,0,1,0,2.44,4.806c5.873-2.991,15.133-3.005,19.526.108a2.693,2.693,0,0,0,1.862.476" transform="translate(-724.191 -300.463)" fill="#843720"/>
            <path id="Trazado_704601" data-name="Trazado 704601" d="M840.817,501.393c-3.78,7.216-2.322,14.5,2.028,16.813,6.554,3.489,21,2.988,25.6-3.727,4.454-6.506.656-16.946-8.327-20.564-7.864-3.167-15.641.494-19.3,7.478" transform="translate(-712.359 -418.564)" fill="#f9feff"/>
            <path id="Trazado_704602" data-name="Trazado 704602" d="M878.766,488.29c-7.811-9.56-23.166-4.18-26.535,5.278A15.225,15.225,0,0,1,871.5,486.24a16.016,16.016,0,0,1,9.342,10.051c1.082,3.575.736,7.77-1.114,10.471,2.276-1.891,4.784-11.443-.96-18.473" transform="translate(-723.899 -410.493)" fill="#994939"/>
            <path id="Trazado_704603" data-name="Trazado 704603" d="M882.8,538.558a9.092,9.092,0,1,1-12.307-3.725,9.092,9.092,0,0,1,12.307,3.725" transform="translate(-735.334 -453.381)" fill="#752912"/>
            <path id="Trazado_704604" data-name="Trazado 704604" d="M947.085,553.37a2.523,2.523,0,1,1-3.414-1.033,2.522,2.522,0,0,1,3.414,1.033" transform="translate(-800.438 -468.91)" fill="#fefffe"/>
            <path id="Trazado_704605" data-name="Trazado 704605" d="M490.655,542.3c5.34,6.153,5.6,13.575,1.9,16.828-5.575,4.9-19.748,7.742-25.769,2.265-5.832-5.305-4.54-16.339,3.37-21.927,6.924-4.893,15.334-3.12,20.5,2.834" transform="translate(-393.421 -455.825)" fill="#f9feff"/>
            <path id="Trazado_704606" data-name="Trazado 704606" d="M458.641,538.036c5.4-11.1,21.582-9.4,27.037-.973a15.224,15.224,0,0,0-20.436-2.7,16.019,16.019,0,0,0-6.778,11.932c-.229,3.728,1.073,7.73,3.495,9.934-2.65-1.316-7.29-10.034-3.318-18.2" transform="translate(-388.266 -450.381)" fill="#994939"/>
            <path id="Trazado_704607" data-name="Trazado 704607" d="M524.713,580.335a9.092,9.092,0,1,0,11.119-6.458,9.092,9.092,0,0,0-11.119,6.458" transform="translate(-445.44 -487.201)" fill="#752912"/>
            <path id="Trazado_704608" data-name="Trazado 704608" d="M530.172,602.012a2.523,2.523,0,1,0,3.085-1.792,2.523,2.523,0,0,0-3.085,1.792" transform="translate(-450.265 -509.765)" fill="#fefffe"/>
            <path id="Trazado_704609" data-name="Trazado 704609" d="M544.955,214.6c-5.078,2.228-19.141,3.777-29.234-1.383s-13.251-13.071-10.9-17.669,15.763-9.406,21.268.5c5.88,10.586,15.361,16.546,18.867,18.548" transform="translate(-428.175 -161.596)" fill="#12263f"/>
            <path id="Trazado_704610" data-name="Trazado 704610" d="M659.673,187.661c-1.092,1.38-10.01,5.175-21.121,2.934s-19.93-10.487-22.209-15.965c2.154-.4,20.167-3.245,25.976-2.742,2.5,7.748,13.014,14.475,17.354,15.773" transform="translate(-523.532 -145.955)" fill="#12263f"/>
            <path id="Trazado_704611" data-name="Trazado 704611" d="M803.6,136.887c-.559,5.164-10.333,8.342-21.831,7.1s-20.366-6.442-19.806-11.606,10.333-8.342,21.831-7.1,20.365,6.442,19.806,11.606" transform="translate(-647.198 -106.187)" fill="#12263f"/>
            <path id="Trazado_704612" data-name="Trazado 704612" d="M294.706,58.091c8.167-1.77,16.035-1.466,22.826,4.929,1.263-17.729-13.635-21.3-22.826-4.929" transform="translate(-250.328 -40.407)" fill="#12263f"/>
            <path id="Trazado_704613" data-name="Trazado 704613" d="M12.313,1646.423H381.1l-27.778-28.037c-.923-.931-2.91-1.527-5.1-1.527H53.37a8.276,8.276,0,0,0-4.815,1.279Z" transform="translate(-10.459 -1373.387)" fill="#d3b6b6"/>
            <path id="Trazado_704614" data-name="Trazado 704614" d="M2.835,1811.659H369.173a2.834,2.834,0,0,1,2.835,2.834v14.827a2.835,2.835,0,0,1-2.835,2.835H2.835A2.835,2.835,0,0,1,0,1829.321v-14.827a2.835,2.835,0,0,1,2.835-2.834" transform="translate(0 -1538.853)" fill="#a38989"/>
            <g id="Grupo_1000021" data-name="Grupo 1000021" transform="translate(165.227 254.376)" opacity="0.14">
              <g id="Grupo_1000020" data-name="Grupo 1000020">
                <g id="Grupo_1000019" data-name="Grupo 1000019" clip-path="url(#clip-path-4)">
                  <path id="Trazado_704615" data-name="Trazado 704615" d="M1256.3,1700.817H1097.237l10.214-10.947a2.7,2.7,0,0,1,1.874-.6H1241.2a2.917,2.917,0,0,1,1.771.5Z" transform="translate(-1097.237 -1689.274)"/>
                </g>
              </g>
            </g>
            <path id="Trazado_704616" data-name="Trazado 704616" d="M1169.56,1698.569v5.2a2.678,2.678,0,0,0,2.677,2.677h130.376a2.677,2.677,0,0,0,2.676-2.677v-5.2Z" transform="translate(-993.443 -1442.793)" fill="#bfbfbf"/>
            <path id="Trazado_704617" data-name="Trazado 704617" d="M1327.758,1454.386H1201.732l8.093-10.514a1.909,1.909,0,0,1,1.484-.573H1315.8a2.026,2.026,0,0,1,1.4.48Z" transform="translate(-1020.771 -1225.963)" fill="#999"/>
            <path id="Trazado_704618" data-name="Trazado 704618" d="M1277.558,1373.98H1129.9l9.482-10.947a2.39,2.39,0,0,1,1.739-.6h122.421a2.567,2.567,0,0,1,1.643.5Z" transform="translate(-959.758 -1157.277)" fill="#e2e2e2"/>
            <path id="Trazado_704619" data-name="Trazado 704619" d="M1272.745,1433.45H1128.628a2.32,2.32,0,0,0-2.32,2.319v1.967a2.32,2.32,0,0,0,2.32,2.32h144.116a2.319,2.319,0,0,0,2.319-2.32v-1.967a2.319,2.319,0,0,0-2.319-2.319" transform="translate(-956.705 -1217.597)" fill="#c9c9c9"/>
            <path id="Trazado_704620" data-name="Trazado 704620" d="M1299.2,1515.082H1175.708a2.922,2.922,0,0,0-2.892,2.5l-3.19,24.468a2.922,2.922,0,0,0,2.892,3.347H1302.39a2.922,2.922,0,0,0,2.892-3.347l-3.189-24.468a2.923,2.923,0,0,0-2.892-2.5" transform="translate(-993.473 -1286.936)" fill="#dbdbdb"/>
            <path id="Trazado_704621" data-name="Trazado 704621" d="M1329.864,1545.51h-115.84a1.588,1.588,0,0,0-1.571,1.358l-2.237,17.972a1.589,1.589,0,0,0,1.573,1.82H1332.1a1.589,1.589,0,0,0,1.572-1.82l-2.236-17.972a1.589,1.589,0,0,0-1.572-1.358" transform="translate(-1027.962 -1312.782)" fill="#4db1f0"/>
            <path id="Trazado_704622" data-name="Trazado 704622" d="M1803.254,1538.107h-2.669l1.642,23.379h2.708Z" transform="translate(-1529.447 -1306.494)" fill="#dbdbdb"/>
            <path id="Trazado_704623" data-name="Trazado 704623" d="M1287.221,1647.919c0,.9-1.481,1.621-3.307,1.621s-3.307-.726-3.307-1.621,1.481-1.621,3.307-1.621,3.307.725,3.307,1.621" transform="translate(-1087.767 -1398.393)" fill="#1a7da8"/>
            <path id="Trazado_704624" data-name="Trazado 704624" d="M1363.321,1647.919c0,.9-1.48,1.621-3.307,1.621s-3.308-.726-3.308-1.621,1.48-1.621,3.308-1.621,3.307.725,3.307,1.621" transform="translate(-1152.409 -1398.393)" fill="#1a7da8"/>
            <path id="Trazado_704625" data-name="Trazado 704625" d="M1437.715,1647.919c0,.9-1.481,1.621-3.307,1.621s-3.307-.726-3.307-1.621,1.481-1.621,3.307-1.621,3.307.725,3.307,1.621" transform="translate(-1215.6 -1398.393)" fill="#1a7da8"/>
            <path id="Trazado_704626" data-name="Trazado 704626" d="M1856.437,1569.173h17.52a.712.712,0,0,1,.7.609l1,6.831a.712.712,0,0,1-.7.815H1856.97a.712.712,0,0,1-.7-.815l-.534-6.831a.712.712,0,0,1,.7-.609" transform="translate(-1576.289 -1332.882)" fill="#65696b"/>
            <path id="Trazado_704627" data-name="Trazado 704627" d="M1343.622,1569.025h-63.54a.712.712,0,0,0-.7.609l-1,6.831a.712.712,0,0,0,.7.815h64.935a.712.712,0,0,0,.705-.815l-.393-6.831a.713.713,0,0,0-.7-.609" transform="translate(-1085.866 -1332.756)" fill="#65696b"/>
            <g id="Grupo_1000024" data-name="Grupo 1000024" transform="translate(240.913 205.471)" opacity="0.12">
              <g id="Grupo_1000023" data-name="Grupo 1000023">
                <g id="Grupo_1000022" data-name="Grupo 1000022" clip-path="url(#clip-path-5)">
                  <path id="Trazado_704628" data-name="Trazado 704628" d="M1621.064,1366c0,.829-4.747,1.5-10.6,1.5s-10.6-.672-10.6-1.5,4.747-1.5,10.6-1.5,10.6.672,10.6,1.5" transform="translate(-1599.856 -1364.501)"/>
                </g>
              </g>
            </g>
            <path id="Trazado_704629" data-name="Trazado 704629" d="M1580.307,1167.353a16.889,16.889,0,1,1-20.11-12.887,16.889,16.889,0,0,1,20.11,12.887" transform="translate(-1313.975 -980.288)" fill="#d82a03"/>
            <path id="Trazado_704630" data-name="Trazado 704630" d="M1592.381,1167.353a16.889,16.889,0,0,0-30.5-5.834,19.492,19.492,0,0,0,21.312,24.674,16.9,16.9,0,0,0,9.187-18.84" transform="translate(-1326.049 -980.288)" fill="#ea4b06"/>
            <path id="Trazado_704631" data-name="Trazado 704631" d="M1606.6,1156.705l-2.411.325-1.846,1.584-.193-1.517-2.145-.172,2.292-1.262.52-1.691,1.608.736,2.468-.873-1.3,1.717Z" transform="translate(-1359.075 -980.087)" fill="#4cb741"/>
            <g id="Grupo_1000027" data-name="Grupo 1000027" transform="translate(270.635 208.411)" opacity="0.12">
              <g id="Grupo_1000026" data-name="Grupo 1000026">
                <g id="Grupo_1000025" data-name="Grupo 1000025" clip-path="url(#clip-path-6)">
                  <path id="Trazado_704632" data-name="Trazado 704632" d="M1816.809,1385.408c0,.765-4.382,1.385-9.787,1.385s-9.787-.62-9.787-1.385,4.381-1.384,9.787-1.384,9.787.62,9.787,1.384" transform="translate(-1797.236 -1384.024)"/>
                </g>
              </g>
            </g>
            <path id="Trazado_704633" data-name="Trazado 704633" d="M1779.2,1202.078a15.587,15.587,0,1,1-18.56-11.893,15.588,15.588,0,0,1,18.56,11.893" transform="translate(-1485.104 -1010.654)" fill="#e53f05"/>
            <path id="Trazado_704634" data-name="Trazado 704634" d="M1790.34,1202.078a15.588,15.588,0,0,0-28.148-5.385,17.989,17.989,0,0,0,19.669,22.772,15.594,15.594,0,0,0,8.479-17.387" transform="translate(-1496.245 -1010.654)" fill="#ff5c0b"/>
            <path id="Trazado_704635" data-name="Trazado 704635" d="M1847.846,1201.952l-2.052-.911-2.217.352.583-1.284-1.6-1.174,2.412.117,1.227-1.078.907,1.357,2.361.509-1.851.721Z" transform="translate(-1565.098 -1017.578)" fill="#4cb741"/>
            <g id="Grupo_1000030" data-name="Grupo 1000030" transform="translate(253.782 211.736)" opacity="0.12">
              <g id="Grupo_1000029" data-name="Grupo 1000029">
                <g id="Grupo_1000028" data-name="Grupo 1000028" clip-path="url(#clip-path-7)">
                  <path id="Trazado_704636" data-name="Trazado 704636" d="M1685.318,1407.442c0,.738,4.228,1.336,9.442,1.336s9.442-.6,9.442-1.336-4.227-1.336-9.442-1.336-9.442.6-9.442,1.336" transform="translate(-1685.318 -1406.106)"/>
                </g>
              </g>
            </g>
            <path id="Trazado_704637" data-name="Trazado 704637" d="M1661.075,1224.813a15.038,15.038,0,1,0,21.043-3.08,15.039,15.039,0,0,0-21.043,3.08" transform="translate(-1408.415 -1035.231)" fill="#ff6f0d"/>
            <path id="Trazado_704638" data-name="Trazado 704638" d="M1671.262,1250.767a14.363,14.363,0,1,0,17.156-23.04c-.254-.189-.535-.307-.8-.477a15.024,15.024,0,1,1-14.971,25.822,14.856,14.856,0,0,1-4.552-5.661,14.215,14.215,0,0,0,3.162,3.356" transform="translate(-1416.911 -1042.447)" fill="#ef4714"/>
            <path id="Trazado_704639" data-name="Trazado 704639" d="M1709.226,1223.028l1.869-1.1,2.165.1-.7-1.169,1.41-1.3-2.3.372-1.292-.9-.724,1.4-2.209.741,1.853.492Z" transform="translate(-1450.332 -1035.47)" fill="#4cb741"/>
            <g id="Grupo_1000033" data-name="Grupo 1000033" transform="translate(198.209 208.437)" opacity="0.12">
              <g id="Grupo_1000032" data-name="Grupo 1000032">
                <g id="Grupo_1000031" data-name="Grupo 1000031" clip-path="url(#clip-path-8)">
                  <path id="Trazado_704640" data-name="Trazado 704640" d="M1334.249,1385.469c0,.7-4.025,1.272-8.989,1.272s-8.989-.57-8.989-1.272,4.025-1.271,8.989-1.271,8.989.569,8.989,1.271" transform="translate(-1316.271 -1384.198)"/>
                </g>
              </g>
            </g>
            <path id="Trazado_704641" data-name="Trazado 704641" d="M1299.7,1217.081a14.317,14.317,0,1,1-17.047-10.924,14.317,14.317,0,0,1,17.047,10.924" transform="translate(-1079.944 -1024.246)" fill="#d82a03"/>
            <path id="Trazado_704642" data-name="Trazado 704642" d="M1309.935,1217.081a14.317,14.317,0,0,0-25.853-4.946,16.523,16.523,0,0,0,18.066,20.916,14.322,14.322,0,0,0,7.787-15.97" transform="translate(-1090.178 -1024.246)" fill="#ea4b06"/>
            <path id="Trazado_704643" data-name="Trazado 704643" d="M1321.987,1208.054l-2.044.276-1.565,1.343-.163-1.285-1.819-.146,1.943-1.07.441-1.434,1.364.624,2.091-.74-1.1,1.456Z" transform="translate(-1118.169 -1024.075)" fill="#4cb741"/>
            <g id="Grupo_1000036" data-name="Grupo 1000036" transform="translate(217.31 211.8)" opacity="0.12">
              <g id="Grupo_1000035" data-name="Grupo 1000035">
                <g id="Grupo_1000034" data-name="Grupo 1000034" clip-path="url(#clip-path-9)">
                  <path id="Trazado_704644" data-name="Trazado 704644" d="M1462.7,1407.919c0,.765-4.382,1.385-9.787,1.385s-9.787-.621-9.787-1.385,4.382-1.385,9.787-1.385,9.787.62,9.787,1.385" transform="translate(-1443.121 -1406.534)"/>
                </g>
              </g>
            </g>
            <path id="Trazado_704645" data-name="Trazado 704645" d="M1423.121,1219.733a15.587,15.587,0,1,1-21.455-5.058,15.588,15.588,0,0,1,21.455,5.058" transform="translate(-1184.32 -1029.784)" fill="#ef4b03"/>
            <path id="Trazado_704646" data-name="Trazado 704646" d="M1425.982,1219.733a15.587,15.587,0,0,0-28.339,4.265,17.989,17.989,0,0,0,26.113,14.951,15.592,15.592,0,0,0,2.226-19.215" transform="translate(-1187.181 -1029.784)" fill="#ff6f0d"/>
            <path id="Trazado_704647" data-name="Trazado 704647" d="M1467.337,1238.876l-2.256-.261-1.957,1.151.087-1.581-1.928-.7,2.309-.716.766-1.583,1.341,1.138,2.4-.279-1.48,1.419Z" transform="translate(-1241.237 -1049.189)" fill="#5ea842"/>
            <path id="Trazado_704648" data-name="Trazado 704648" d="M1456.979,967.394c8.616-1.706,15.84-1.761,17.632,1.35-4.517,1.548-24.322,7.2-36.456,9.916-1.476.331-3.776-7.1-2.042-8.659,1.66-4.791,10.931-6.247,19.037-14.154,2.319-2.261,2.727.339,2.4,1.786-.583,2.59-3.383,4.359-5.96,8.4-1.822,2.857,2.968,1.836,5.388,1.357" transform="translate(-1219.33 -811.159)" fill="#e0956c"/>
            <path id="Trazado_704649" data-name="Trazado 704649" d="M1521.553,1066.914c-5.226.871-13.024,2.2-27.84,5.032-4.385.837-5.42-5.709-3.708-6.074,8.866-1.892,29.1-5.9,31.548,1.043" transform="translate(-1264.97 -902.925)" fill="#e0956c"/>
            <path id="Trazado_704650" data-name="Trazado 704650" d="M1454.646,1043.042c-5.179,1.115-17.528,3.289-32.067,5.791-7.328,1.261-13.207-10.771-4.4-14.877,5.286-2.463,14.267,2.537,17.846,5.888,8.671-.663,17.155-.148,18.616,3.2" transform="translate(-1200.871 -877.701)" fill="#ffc19f"/>
            <path id="Trazado_704651" data-name="Trazado 704651" d="M957.55,1474.863c-4.231-1.176-11.359-5.321-14.363-6.306,2.045,2.413-1.8,5.794-4.182,4.719.109,2.028-2.983,4.394-6.917,2.194,1.027,1.645-.565,4.256-4.426,3.828-4.9-.544-13.167-4.523-15.5-7.169s.557-10.3,1.839-11.806c3.33-3.909,17.209-4.468,22.514-3.226,3.234.758,12.838,6.314,25.014,13.906,2.311,2.539-1.059,4.671-3.979,3.86" transform="translate(-774.052 -1237.182)" fill="#ffc19f"/>
            <g id="Grupo_1000039" data-name="Grupo 1000039" transform="translate(84.643 189.206)" opacity="0.27">
              <g id="Grupo_1000038" data-name="Grupo 1000038">
                <g id="Grupo_1000037" data-name="Grupo 1000037" clip-path="url(#clip-path-10)">
                  <path id="Trazado_704652" data-name="Trazado 704652" d="M562.127,1269.916c3.068-1.578,15.23-11.3,19.926-13.426,2.822,5.558,10.475,21.13,13.8,27.679-4.118,2.562-25.423,11.7-33.751,13.113.043-3.219.2-18.9.028-27.366" transform="translate(-562.099 -1256.49)" fill="#044c48"/>
                </g>
              </g>
            </g>
            <path id="Trazado_704653" data-name="Trazado 704653" d="M654.409,1407.211c1.263.122,3.53-14.483,2.28-14.707-18.695-3.342-47.741-12.11-52.87-13.833,0,0-2.27,14.153,5.011,21.4,5.8,5.766,28.891,5.533,45.579,7.145" transform="translate(-512.609 -1171.066)" fill="#ffc19f"/>
            <path id="Trazado_704654" data-name="Trazado 704654" d="M482.122,1134.892c8.223-1.611,24.095-8.961,30.92-12.109-3.2-8.626-9.55-24.062-12.4-31.983-.365-1.014-14.006-20.545-15.03-20.208A26.181,26.181,0,0,0,475.5,1079c-2.64,4.083-6.02,14.269-5.046,22.492.54,4.551,7.057,20.663,11.668,33.4" transform="translate(-399.466 -909.376)" fill="#afafaf"/>
            <path id="Trazado_704655" data-name="Trazado 704655" d="M1084.154,1634a1.109,1.109,0,0,0,.134,1.559,1.122,1.122,0,0,0,1.561-.135l6.445-7.644a1.111,1.111,0,0,0-.133-1.559l-.12-.086a1.107,1.107,0,0,0-1.443.22Zm13.466,7.132a1.107,1.107,0,1,0,2.212.083l.387-9.989a1.109,1.109,0,0,0-.51-.974,1.09,1.09,0,0,0-.553-.174,1.11,1.11,0,0,0-1.152,1.064Zm-20.665-21.02a1.113,1.113,0,0,0,1.017,1.191l9.966.772a1.107,1.107,0,0,0,.683-2.036,1.129,1.129,0,0,0-.51-.174l-9.965-.772a1.109,1.109,0,0,0-1.19,1.02" transform="translate(-914.78 -1375.279)" fill="#686868"/>
          </g>
        </g>
      </g>
    </g>
    <rect id="Rectángulo_345540" data-name="Rectángulo 345540" width="464" height="367" transform="translate(6494 -10194)" fill="none"/>
  </g>
</svg>
