<svg xmlns="http://www.w3.org/2000/svg" xmlns:xlink="http://www.w3.org/1999/xlink" width="464" height="367" viewBox="0 0 464 367">
  <defs>
    <clipPath id="clip-path">
      <rect id="Rectángulo_345491" data-name="Rectángulo 345491" width="416.206" height="272.423" fill="none"/>
    </clipPath>
    <clipPath id="clip-path-2">
      <rect id="Rectángulo_345490" data-name="Rectángulo 345490" width="408.634" height="272.423" fill="none"/>
    </clipPath>
    <clipPath id="clip-path-3">
      <rect id="Rectángulo_345470" data-name="Rectángulo 345470" width="283.31" height="200.44" fill="none"/>
    </clipPath>
    <clipPath id="clip-path-4">
      <rect id="Rectángulo_345471" data-name="Rectángulo 345471" width="7.936" height="7.936" fill="none"/>
    </clipPath>
    <clipPath id="clip-path-6">
      <rect id="Rectángulo_345482" data-name="Rectángulo 345482" width="11.214" height="12.951" fill="none"/>
    </clipPath>
    <clipPath id="clip-path-7">
      <rect id="Rectángulo_345484" data-name="Rectángulo 345484" width="21.929" height="25.911" fill="none"/>
    </clipPath>
    <clipPath id="clip-path-8">
      <rect id="Rectángulo_345486" data-name="Rectángulo 345486" width="21.504" height="25.21" fill="none"/>
    </clipPath>
    <clipPath id="clip-path-9">
      <rect id="Rectángulo_345488" data-name="Rectángulo 345488" width="5.728" height="6.737" fill="none"/>
    </clipPath>
    <clipPath id="clip-path-10">
      <rect id="Rectángulo_345489" data-name="Rectángulo 345489" width="21.09" height="19.021" fill="none"/>
    </clipPath>
  </defs>
  <g id="Grupo_1000177" data-name="Grupo 1000177" transform="translate(-7775 10205)">
    <g id="Grupo_1000170" data-name="Grupo 1000170" transform="translate(7798.443 -10157.564)">
      <g id="Grupo_1000072" data-name="Grupo 1000072" clip-path="url(#clip-path)">
        <g id="Grupo_1000071" data-name="Grupo 1000071" transform="translate(2.969)">
          <g id="Grupo_1000070" data-name="Grupo 1000070" clip-path="url(#clip-path-2)">
            <g id="Grupo_1000048" data-name="Grupo 1000048" transform="translate(57.841 17.495)" opacity="0.6">
              <g id="Grupo_1000047" data-name="Grupo 1000047">
                <g id="Grupo_1000046" data-name="Grupo 1000046" clip-path="url(#clip-path-3)">
                  <path id="Trazado_705020" data-name="Trazado 705020" d="M598.019,128.465c36.471-.8,68.215,21.8,91.1,48.353,24.224,28.1,45.429,65.157,39.669,103.551A48.231,48.231,0,0,1,701.1,317.154c-12.451,5.826-27.4,7.564-41.032,6.479-25.158-2-51.136-7.307-76.178-6.494-25.525.829-50.064,7.833-75.248,10.819-11.1,1.317-22.7,1.79-33.511-2.5-28.888-11.462-33.257-48.3-24.973-74.444,19.286-60.866,82.814-121.131,147.861-122.552" transform="translate(-446.433 -128.444)" fill="#edf2ff"/>
                </g>
              </g>
            </g>
            <path id="Trazado_705021" data-name="Trazado 705021" d="M1110.208,751.683s2.854-1.261-.033-15.927l-8.2,9.755Z" transform="translate(-954.846 -635.538)" fill="#6f3428"/>
            <path id="Trazado_705022" data-name="Trazado 705022" d="M1217.933,600.507l6.172-13.671a38.393,38.393,0,0,1,14.713-4.353l-2.084,2.617,4.434.635-3.365,1.73s-5.589,1.11-6.787,4.558-6.834,13.3-7.089,17.186l-2.97.379Z" transform="translate(-1055.005 -503.142)" fill="#f9b384"/>
            <path id="Trazado_705023" data-name="Trazado 705023" d="M1147.427,714.806l-7.6,2.887-3.52,16.75,14.141-10.556,3.342-5.983Z" transform="translate(-984.499 -617.442)" fill="#f9b384"/>
            <path id="Trazado_705024" data-name="Trazado 705024" d="M1747.35,729.628s-3.517-3.783,0-14.334l7.1,8.163Z" transform="translate(-1510.96 -617.863)" fill="#6f3428"/>
            <path id="Trazado_705025" data-name="Trazado 705025" d="M1564.6,598.472l-9.358-13.1-12.864-3.242,2.281,2.448-4.371.978,3.489,1.464s4.5,1.643,5.958,4.988,9.009,11.758,9.565,15.612l2.991.147Z" transform="translate(-1333.448 -502.833)" fill="#f9b384"/>
            <path id="Trazado_705026" data-name="Trazado 705026" d="M1680.056,702.14l6.637,2.123,5.973,16.591-14.918-9.425-3.8-5.705Z" transform="translate(-1448.909 -606.501)" fill="#f9b384"/>
            <path id="Trazado_705027" data-name="Trazado 705027" d="M1204.009,636.137c-.008,4.531-1.4,8.9-2.779,13.156l-68.064,14.629L1113.807,649.6q-.275-.418-.525-.836a27.263,27.263,0,0,1-4.2-11.467c-.486-4.491.518-9.293,3.209-12.646,2.047-2.556,4.882-4.109,7.406-6.06a4.272,4.272,0,0,0,1.409-1.553,4.616,4.616,0,0,0,.334-1.9,63.667,63.667,0,0,0-.892-7.852c-.008-.1-.024-.2-.032-.3a12.376,12.376,0,0,1,1.083-7.374c1.728-2.986,5.192-4.109,7.263-6.8a22.247,22.247,0,0,0,2.684-5.79c2.07-5.439,5.192-10.488,9.508-13.864s9.89-4.929,14.964-3.384a31.716,31.716,0,0,1,8.4-.709,14.492,14.492,0,0,1,9.811,5.1c1.752,2.118,2.9,4.8,4.714,6.849,1.6,1.808,3.655,3.034,5.32,4.77a15.84,15.84,0,0,1,4.2,10.552c.024,1.6-.144,3.353.7,4.651.789,1.226,2.254,1.633,3.281,2.6,2.166,2.055,1.9,5.845,1.346,8.967s-1.059,6.809.876,9.134c1.123,1.346,2.811,1.863,4.229,2.8,3.472,2.3,5.12,7.112,5.112,11.651" transform="translate(-960.881 -491.482)" fill="#102048"/>
            <path id="Trazado_705028" data-name="Trazado 705028" d="M1144.042,1005.265l-32.119,12.476c-4.251,37.771-6.011,70.016-4.513,95.03l96.889-.531c.389-26.558,1.5-62.784-5.309-101.136l-34.774-6.9Z" transform="translate(-959.083 -867.419)" fill="#ffa031"/>
            <path id="Trazado_705029" data-name="Trazado 705029" d="M807.971,751.683,783.948,763.3l40.083,21.236-13.007,35.836s-70.344-41.41-57.337-61.849,54.251-22.762,54.251-22.762c-1.612,6.813-1.854,12.356.033,15.927" transform="translate(-652.609 -635.538)" fill="#ffa031"/>
            <path id="Trazado_705030" data-name="Trazado 705030" d="M1641.112,729.628l27.661,17.055L1622.8,765.066l18.913,35.769s64.5-37.163,55.213-58.664c-9.61-22.24-55.81-26.877-55.81-26.877,2.323,2.455,1.368,10.437,0,14.334" transform="translate(-1404.722 -617.863)" fill="#ffa031"/>
            <path id="Trazado_705031" data-name="Trazado 705031" d="M1346.63,900.45l-3.693,18.934a5.215,5.215,0,0,0,3.674,6.015,34.058,34.058,0,0,0,21.8-.994l.729-.284a5.216,5.216,0,0,0,3.188-6.031l-4.3-18.634Z" transform="translate(-1162.898 -776.939)" fill="#f9b384"/>
            <path id="Trazado_705032" data-name="Trazado 705032" d="M1453.757,927.94l13.734,5.849-2.92-12.41Z" transform="translate(-1258.707 -795.877)" fill="#e38b6d"/>
            <path id="Trazado_705033" data-name="Trazado 705033" d="M1544.357,782.477c0,2.932.661,5.309,2.787,5.309s5.84-3.173,5.84-6.105a4.674,4.674,0,0,0-4.778-4.513c-2.126,0-3.849,2.377-3.849,5.309" transform="translate(-1336.967 -671.309)" fill="#e38b6d"/>
            <path id="Trazado_705034" data-name="Trazado 705034" d="M1300.614,782.477c0,2.932-.661,5.309-2.787,5.309s-5.84-3.173-5.84-6.105a4.674,4.674,0,0,1,4.778-4.513c2.126,0,3.849,2.377,3.849,5.309" transform="translate(-1118.972 -671.309)" fill="#e38b6d"/>
            <path id="Trazado_705035" data-name="Trazado 705035" d="M1354.456,673.231c1.333,1.28,1.686,3.667,1.261,6.7a21.66,21.66,0,0,1-2.644,7.409c-2.905,5.721-7.8,10.781-13.782,10.828-6.606-.33-11.629-4.906-14.619-10.167a19.7,19.7,0,0,1-2.8-7.739c-.364-2.884.038-5.371,1.327-6.7l-1.628-8.022-.672-4.1,17.421-5.978,0-.08.12.037.119-.042,0,.08,17.638,5.28-.509,4.12Z" transform="translate(-1143.947 -566.111)" fill="#f9b384"/>
            <path id="Trazado_705036" data-name="Trazado 705036" d="M1281.269,611.934c11.282-2.452,18.747-10.69,18.747-10.69,7.765,9.081,22.8,6.782,28.669,5.518l-2.19-8.046-15.33-12.529-21.5,6.552-6.67,7.357Z" transform="translate(-1109.714 -506.34)" fill="#102048"/>
            <path id="Trazado_705037" data-name="Trazado 705037" d="M1313.1,1106.495a45.738,45.738,0,0,0,4.6,1.449c1.553.419,3.121.782,4.7,1.063a45.194,45.194,0,0,0,9.566.769,35.073,35.073,0,0,0,4.761-.487,28.607,28.607,0,0,0,4.6-1.281,22.431,22.431,0,0,0,7.964-5.192l.229.211a23.121,23.121,0,0,1-3.627,3.28,23.362,23.362,0,0,1-4.31,2.348,26.794,26.794,0,0,1-4.713,1.379,32.432,32.432,0,0,1-4.875.53,42.869,42.869,0,0,1-9.719-.9,48.065,48.065,0,0,1-9.3-2.886Z" transform="translate(-1137.102 -952.6)" fill="#6f3428"/>
            <path id="Trazado_705038" data-name="Trazado 705038" d="M1809.445,1214.623c.162,1.5.276,3,.38,4.5s.17,3.007.257,4.51q.094,2.256.152,4.515c.025,1.506.046,3.012.007,4.521l-.311.014c-.171-1.5-.283-3-.391-4.5s-.176-3.007-.246-4.511c-.045-1.505-.121-3.009-.141-4.515s-.047-3.012-.019-4.521Z" transform="translate(-1565.666 -1049.178)" fill="#6f3428"/>
            <path id="Trazado_705039" data-name="Trazado 705039" d="M1117.092,1232.161c-.016,1.753-.078,3.5-.152,5.254s-.184,3.5-.274,5.246q-.172,2.621-.378,5.24c-.152,1.745-.308,3.49-.524,5.231l-.311-.02c.006-1.754.071-3.5.14-5.255s.178-3.5.285-5.245c.132-1.746.233-3.494.39-5.239s.306-3.49.512-5.231Z" transform="translate(-966.485 -1064.309)" fill="#6f3428"/>
            <path id="Trazado_705040" data-name="Trazado 705040" d="M1939.523,932.1c1.92.976,3.787,2.036,5.658,3.082l2.8,1.584q1.395.8,2.8,1.56l-.119.287a22.826,22.826,0,0,1-3.009-1.231c-.977-.464-1.927-.977-2.864-1.511s-1.863-1.086-2.765-1.677-1.8-1.181-2.667-1.831Z" transform="translate(-1678.164 -805.14)" fill="#6f3428"/>
            <path id="Trazado_705041" data-name="Trazado 705041" d="M923.214,926.877c1.046-.552,2.111-1.061,3.181-1.56s2.147-.978,3.228-1.449,2.171-.921,3.271-1.349,2.2-.849,3.328-1.217l.122.286c-1.042.561-2.108,1.067-3.176,1.57s-2.148.975-3.232,1.438-2.174.916-3.276,1.338-2.2.851-3.323,1.228Z" transform="translate(-800.43 -795.811)" fill="#6f3428"/>
            <path id="Trazado_705042" data-name="Trazado 705042" d="M1114.271,759.885a15.831,15.831,0,0,0-1.165,5.832,16.229,16.229,0,0,0,.256,2.961,17.2,17.2,0,0,0,.8,2.893l-.28.136a10.477,10.477,0,0,1-1.2-2.88,11.929,11.929,0,0,1-.369-3.117,11.606,11.606,0,0,1,1.681-5.966Z" transform="translate(-963.771 -656.258)" fill="#6f3428"/>
            <path id="Trazado_705043" data-name="Trazado 705043" d="M1786.7,756.2a33.124,33.124,0,0,0,1.342-4.557,37.624,37.624,0,0,0,.646-4.707l.311-.013a13.148,13.148,0,0,1-.182,4.886,13.757,13.757,0,0,1-1.839,4.53Z" transform="translate(-1546.297 -645.182)" fill="#6f3428"/>
            <path id="Trazado_705044" data-name="Trazado 705044" d="M1539.724,621.6c0-2.23-1.825-5.53-1.825-5.53s-1.825,3.3-1.825,5.53.817,2.544,1.825,2.544,1.825-.314,1.825-2.544" transform="translate(-1329.812 -532.152)" fill="#fff"/>
            <g id="Grupo_1000051" data-name="Grupo 1000051" transform="translate(201.55 111.03)" opacity="0.4">
              <g id="Grupo_1000050" data-name="Grupo 1000050">
                <g id="Grupo_1000049" data-name="Grupo 1000049" clip-path="url(#clip-path-4)">
                  <path id="Trazado_705045" data-name="Trazado 705045" d="M1509.418,819.1a3.968,3.968,0,1,1-3.968-3.968,3.968,3.968,0,0,1,3.968,3.968" transform="translate(-1501.483 -815.132)" fill="#fc8879"/>
                </g>
              </g>
            </g>
            <g id="Grupo_1000054" data-name="Grupo 1000054" transform="translate(181.509 111.428)" opacity="0.4">
              <g id="Grupo_1000053" data-name="Grupo 1000053">
                <g id="Grupo_1000052" data-name="Grupo 1000052" clip-path="url(#clip-path-4)">
                  <path id="Trazado_705046" data-name="Trazado 705046" d="M1362.284,822.023a3.968,3.968,0,1,1-3.968-3.968,3.967,3.967,0,0,1,3.968,3.968" transform="translate(-1354.349 -818.054)" fill="#fc8879"/>
                </g>
              </g>
            </g>
            <path id="Trazado_705047" data-name="Trazado 705047" d="M1403.4,774.122a1.218,1.218,0,0,0-1.645.1,2.422,2.422,0,0,0-.486,1.722,2.273,2.273,0,0,0,.512,1.538,1.292,1.292,0,0,0,1.729.112,2.346,2.346,0,0,0,.481-2.974,1.511,1.511,0,0,0-.59-.5" transform="translate(-1213.37 -668.444)" fill="#102048"/>
            <path id="Trazado_705048" data-name="Trazado 705048" d="M1490.447,775.685a1.511,1.511,0,0,0-.59-.5,1.218,1.218,0,0,0-1.645.1,2.422,2.422,0,0,0-.486,1.722,2.272,2.272,0,0,0,.512,1.538,1.291,1.291,0,0,0,1.729.112,2.346,2.346,0,0,0,.481-2.974" transform="translate(-1288.047 -669.362)" fill="#102048"/>
            <path id="Trazado_705049" data-name="Trazado 705049" d="M1457.321,801.482a11.261,11.261,0,0,0,.8,2.609c.186.413.383.821.6,1.218.11.188.234.415.333.572s.248.344.394.534a4.166,4.166,0,0,1,.791,1.441,1.84,1.84,0,0,1-.045,1.007,2.374,2.374,0,0,1-.457.789,8.285,8.285,0,0,1-2.507,1.6l-.293-.364a21.087,21.087,0,0,0,1.974-1.886.982.982,0,0,0,.2-.858,3.65,3.65,0,0,0-.614-1.017,6.5,6.5,0,0,1-.792-1.3,9.9,9.9,0,0,1-.546-1.387,7.119,7.119,0,0,1-.309-2.954Z" transform="translate(-1261.346 -692.311)" fill="#102048"/>
            <path id="Trazado_705050" data-name="Trazado 705050" d="M1416.083,883.8a3.316,3.316,0,0,1,2-.9,5.2,5.2,0,0,1,2.179.232,5.31,5.31,0,0,1,1.906,1.067,3.021,3.021,0,0,1,1.094,1.925l-.451.122a4.061,4.061,0,0,0-1.284-1.216,7.575,7.575,0,0,0-1.633-.767,5.262,5.262,0,0,0-3.546-.074Z" transform="translate(-1226.165 -762.608)" fill="#102048"/>
            <path id="Trazado_705051" data-name="Trazado 705051" d="M1390.246,753.938a10,10,0,0,1,2.7-.608,10.973,10.973,0,0,1,1.375-.055,6.454,6.454,0,0,1,1.4.165l.042.465a6.439,6.439,0,0,1-1.342.414,11.03,11.03,0,0,1-1.362.194,10,10,0,0,1-2.77-.111Z" transform="translate(-1203.847 -650.667)" fill="#102048"/>
            <path id="Trazado_705052" data-name="Trazado 705052" d="M1486.491,755.891a10,10,0,0,1-2.749-.362,11.01,11.01,0,0,1-1.309-.423,6.453,6.453,0,0,1-1.252-.637l.121-.451a6.441,6.441,0,0,1,1.4.074,10.939,10.939,0,0,1,1.345.288,9.989,9.989,0,0,1,2.562,1.06Z" transform="translate(-1282.396 -651.302)" fill="#102048"/>
            <path id="Trazado_705053" data-name="Trazado 705053" d="M1359.069,911.878c.492.5,1,.987,1.524,1.46s1.05.936,1.589,1.385a31.442,31.442,0,0,0,3.389,2.466c.295.185.6.359.9.535s.609.335.921.484a15.456,15.456,0,0,0,1.908.811c.161.063.327.11.492.161s.329.1.5.141.334.088.5.125l.508.1a11.231,11.231,0,0,0,2.071.146l.034.309a8.794,8.794,0,0,1-2.174.1,10.847,10.847,0,0,1-2.144-.409,15.758,15.758,0,0,1-3.932-1.824,23.821,23.821,0,0,1-3.415-2.626c-.53-.482-1.036-.99-1.523-1.513a20.149,20.149,0,0,1-1.382-1.644Z" transform="translate(-1176.71 -787.67)" fill="#e38b6d"/>
            <path id="Trazado_705054" data-name="Trazado 705054" d="M1144.339,858.05l-1.693,35.338-15.794,1.858-3.188-3.846-1.059,4.245-8.537.326s-4.2-10.812-4.86-17.705c-.428-4.5.518-9.293,3.209-12.646,2.047-2.556,4.882-4.109,7.406-6.06a4.269,4.269,0,0,0,1.41-1.553,4.619,4.619,0,0,0,.334-1.9,63.716,63.716,0,0,0-.892-7.852c-.008-.1-.024-.2-.032-.3Z" transform="translate(-961.005 -732.448)" fill="#102048"/>
            <line id="Línea_2449" data-name="Línea 2449" y2="17.584" transform="translate(216.378 53.035)" fill="none" stroke="#708cd5" stroke-miterlimit="10" stroke-width="5.846"/>
            <line id="Línea_2450" data-name="Línea 2450" x2="0.188" y2="20.77" transform="translate(208.348 49.849)" fill="none" stroke="#708cd5" stroke-miterlimit="10" stroke-width="5.846"/>
            <line id="Línea_2451" data-name="Línea 2451" y2="26.742" transform="translate(200.694 43.877)" fill="none" stroke="#708cd5" stroke-miterlimit="10" stroke-width="5.846"/>
            <path id="Trazado_705055" data-name="Trazado 705055" d="M1542.177,1731.724h-27.54l4.181-5.492h23.359Z" transform="translate(-1311.295 -1491.1)" fill="#1f3c88"/>
            <path id="Trazado_705056" data-name="Trazado 705056" d="M1706.129,1446.347h-59.461l17.52-50.435h59.46Z" transform="translate(-1425.342 -1205.773)" fill="#d3dfff"/>
            <rect id="Rectángulo_345473" data-name="Rectángulo 345473" width="71.007" height="11.058" transform="translate(105.989 229.566)" fill="#102048"/>
            <rect id="Rectángulo_345474" data-name="Rectángulo 345474" width="19.74" height="11.058" transform="translate(117.138 229.566)" fill="#fff"/>
            <rect id="Rectángulo_345475" data-name="Rectángulo 345475" width="71.007" height="11.058" transform="translate(97.594 218.517)" fill="#d3dfff"/>
            <rect id="Rectángulo_345476" data-name="Rectángulo 345476" width="51.012" height="8.518" transform="translate(112.333 198.948)" fill="#708cd5"/>
            <rect id="Rectángulo_345477" data-name="Rectángulo 345477" width="66.027" height="11.058" transform="translate(107.57 207.459)" fill="#1f3c88"/>
            <rect id="Rectángulo_345478" data-name="Rectángulo 345478" width="249.654" height="11.613" transform="translate(72.941 240.176)" fill="#c6eae9"/>
            <line id="Línea_2452" data-name="Línea 2452" x2="249.654" transform="translate(72.941 240.318)" fill="none" stroke="#102048" stroke-miterlimit="10" stroke-width="4.906"/>
            <path id="Trazado_705057" data-name="Trazado 705057" d="M49.507,370.984,1.956,363.593V335.561L42,351.2Z" transform="translate(-4.658 -289.854)" fill="#f9b384"/>
            <path id="Trazado_705058" data-name="Trazado 705058" d="M303.458,509.118s5.844,9.822,22.038,6.289l19.269-5.491-8.625-9.057L323.7,504.917l-15.166-.439Z" transform="translate(-265.092 -432.635)" fill="#e38b6d"/>
            <path id="Trazado_705059" data-name="Trazado 705059" d="M295.912,424.9,322.2,420.89l12.19,10.063,10.471,13.6s-5.122,2.768-14.073-9.018l-17.607-2.267Z" transform="translate(-258.574 -363.56)" fill="#e38b6d"/>
            <path id="Trazado_705060" data-name="Trazado 705060" d="M487.555,561.534l4.33,3.865s-7.154,3.221-4.442,6.382l8.4-2.173,1.613-8.332Z" transform="translate(-423.487 -484.823)" fill="#e38b6d"/>
            <path id="Trazado_705061" data-name="Trazado 705061" d="M502.56,532.178l7.645,6.235s-2.91,8.014,1.643,8.795l5.605-9.969-8.624-6.8Z" transform="translate(-437.074 -458.188)" fill="#e38b6d"/>
            <rect id="Rectángulo_345479" data-name="Rectángulo 345479" width="4.142" height="48.691" transform="translate(57.42 63.437) rotate(-47.588)" fill="#102048"/>
            <path id="Trazado_705062" data-name="Trazado 705062" d="M712.573,689.317l-1.2-2.339-1.355-2.806-1.848,1.058-.927,2.008,2.891,1.1Z" transform="translate(-613.879 -590.98)" fill="#102048"/>
            <path id="Trazado_705063" data-name="Trazado 705063" d="M274.994,450.353l14,1.768,20.877,8.865s-.62,6.818-17.835,1.542c0,0-9.442,7.067-20.342,2.627Z" transform="translate(-237.657 -389.01)" fill="#f9b384"/>
            <path id="Trazado_705064" data-name="Trazado 705064" d="M2708.606,288.687v29.381l-54.716,5.97a15.759,15.759,0,0,0,4.249-3.5,20.021,20.021,0,0,0,5.063-1.322l-3.3-14.8Z" transform="translate(-2295.369 -249.365)" fill="#f9b384"/>
            <path id="Trazado_705065" data-name="Trazado 705065" d="M2650.416,404.136l3.3,14.8a20.013,20.013,0,0,1-5.063,1.322,15.76,15.76,0,0,1-4.25,3.5l-1.5.16,1.373-3.61,1.605-4.235Z" transform="translate(-2285.881 -349.088)" fill="#f9b384"/>
            <path id="Trazado_705066" data-name="Trazado 705066" d="M2428.518,462.893a8.3,8.3,0,0,1-.733.988,15.768,15.768,0,0,1-4.25,3.5c-3.181,1.83-8.034,3.283-14.977,2.194-.668-.109-1.366-.24-2.078-.392l-7.924-2.259-3.821-1.089-1.322-.378-1.961-.559-.894-.254-1.278-.363-.937-.269-1.133-.319,8.629-9.058,4.329,1.416h.007l3.581,1.169,4.518,1.474,15.166-.443,1.576,1.445Z" transform="translate(-2065.014 -392.708)" fill="#e38b6d"/>
            <path id="Trazado_705067" data-name="Trazado 705067" d="M2387.606,384.126l-19.51-2.978a15.325,15.325,0,0,0-12.07,3.331l-6.9,5.7-10.471,13.6s5.122,2.768,14.074-9.018l17.606-2.267Z" transform="translate(-2023.072 -329.08)" fill="#e38b6d"/>
            <path id="Trazado_705068" data-name="Trazado 705068" d="M2438.989,515.307l-4.33,3.865s7.154,3.221,4.442,6.381l-8.4-2.173-1.612-8.331Z" transform="translate(-2101.186 -444.893)" fill="#e38b6d"/>
            <path id="Trazado_705069" data-name="Trazado 705069" d="M2396.938,485.951l-7.645,6.234s2.91,8.014-1.643,8.8l-5.605-9.969,8.624-6.8Z" transform="translate(-2060.552 -418.258)" fill="#e38b6d"/>
            <rect id="Rectángulo_345480" data-name="Rectángulo 345480" width="47.607" height="30.153" transform="translate(293.057 90.179) rotate(-50.051)" fill="#f5c7be"/>
            <g id="Grupo_1000057" data-name="Grupo 1000057" transform="translate(302.398 78.312)" opacity="0.3">
              <g id="Grupo_1000056" data-name="Grupo 1000056">
                <g id="Grupo_1000055" data-name="Grupo 1000055" clip-path="url(#clip-path-6)">
                  <rect id="Rectángulo_345481" data-name="Rectángulo 345481" width="16.296" height="0.846" transform="translate(0.003 12.406) rotate(-49.591)" fill="#6f3428"/>
                </g>
              </g>
            </g>
            <g id="Grupo_1000060" data-name="Grupo 1000060" transform="translate(306.483 69.295)" opacity="0.3">
              <g id="Grupo_1000059" data-name="Grupo 1000059">
                <g id="Grupo_1000058" data-name="Grupo 1000058" clip-path="url(#clip-path-7)">
                  <rect id="Rectángulo_345483" data-name="Rectángulo 345483" width="33.113" height="0.845" transform="translate(-0.003 25.366) rotate(-49.994)" fill="#6f3428"/>
                </g>
              </g>
            </g>
            <g id="Grupo_1000063" data-name="Grupo 1000063" transform="translate(310.572 73.944)" opacity="0.3">
              <g id="Grupo_1000062" data-name="Grupo 1000062">
                <g id="Grupo_1000061" data-name="Grupo 1000061" clip-path="url(#clip-path-8)">
                  <rect id="Rectángulo_345485" data-name="Rectángulo 345485" width="32.301" height="0.846" transform="matrix(0.646, -0.764, 0.764, 0.646, 0.003, 24.668)" fill="#6f3428"/>
                </g>
              </g>
            </g>
            <g id="Grupo_1000066" data-name="Grupo 1000066" transform="translate(330.156 76.909)" opacity="0.3">
              <g id="Grupo_1000065" data-name="Grupo 1000065">
                <g id="Grupo_1000064" data-name="Grupo 1000064" clip-path="url(#clip-path-9)">
                  <rect id="Rectángulo_345487" data-name="Rectángulo 345487" width="8.012" height="0.845" transform="translate(0 6.202) rotate(-50.71)" fill="#6f3428"/>
                </g>
              </g>
            </g>
            <path id="Trazado_705070" data-name="Trazado 705070" d="M2480.153,418.939a20.011,20.011,0,0,1-5.062,1.322,20.568,20.568,0,0,1-4.373.051,23.71,23.71,0,0,1-10.91-4,53.8,53.8,0,0,1-5.92,1.489,22.958,22.958,0,0,1-6.915.4c-3.458-.45-4.525-2.063-4.852-2.905a2.183,2.183,0,0,1-.145-.523l5.5-2.339h.007l15.37-6.53,14-1.765Z" transform="translate(-2112.32 -349.088)" fill="#f9b384"/>
            <path id="Trazado_705071" data-name="Trazado 705071" d="M319.148,1318.4a37.418,37.418,0,0,1-18.282,3.247l-2.956-.218-2.106-.16-3.261-7.576.138-.261,6.021-11.593,15.958-4.184.051.225.494,2.288,1.2,5.557.567,2.593.959,4.446.116.523Z" transform="translate(-255.663 -1120.898)" fill="#e38b6d"/>
            <path id="Trazado_705072" data-name="Trazado 705072" d="M419.465,1352.563a2.535,2.535,0,0,0-2.258,1.184c-2.361,4.258,6.105,6.562,9.88,7.36a2.908,2.908,0,0,0,3.32-1.728,4.3,4.3,0,0,0,0-3.08c-.876-2.49-7.686-3.427-10.941-3.736" transform="translate(-362.993 -1168.322)" fill="#f9b384"/>
            <path id="Trazado_705073" data-name="Trazado 705073" d="M419.283,1399.049a1.387,1.387,0,0,0-1.452.945c-.969,3.029.561,5.424,9.319,5.986a3.129,3.129,0,0,0,1.177-3.865c-.737-2.088-6.614-2.842-9.044-3.066" transform="translate(-363.667 -1208.478)" fill="#f9b384"/>
            <path id="Trazado_705074" data-name="Trazado 705074" d="M45.244,1355.619,0,1369.827v-27.957l36.615-4.649-1.1.712,4.336,9.937,3.261,7.576,2.107.16a.055.055,0,0,1,.029.015" transform="translate(-2.969 -1155.076)" fill="#f9b384"/>
            <path id="Trazado_705075" data-name="Trazado 705075" d="M270.411,1354.96l-2.106-.16-3.261-7.576-4.336-9.937,1.1-.712.6-.1c.93,3.734,1.721,7.373,2.775,10.489.029.073.051.145.073.218,1.2,3.472,2.731,6.276,5.157,7.779" transform="translate(-228.164 -1154.431)" fill="#f9b384"/>
            <path id="Trazado_705076" data-name="Trazado 705076" d="M358.094,1168.353c8.534-2.636,24.061.258,28.458,1.024,8.456-12.684,15.575-18.345,29.6-34.67l-25.816.182c-14.191,17.264-22.171,27.087-32.239,33.464" transform="translate(-312.286 -980.146)" fill="#d3dfff"/>
            <g id="Grupo_1000069" data-name="Grupo 1000069" transform="translate(67.137 158.953)" opacity="0.3">
              <g id="Grupo_1000068" data-name="Grupo 1000068">
                <g id="Grupo_1000067" data-name="Grupo 1000067" clip-path="url(#clip-path-10)">
                  <path id="Trazado_705077" data-name="Trazado 705077" d="M590.51,1171.267a28.684,28.684,0,0,1-5.2-1.134.988.988,0,0,0-.838.274c-.073.059-.143.122-.214.185a2.424,2.424,0,0,1-.758.515,1.068,1.068,0,0,1-.842-.049.72.72,0,0,1-.375-.458,1.166,1.166,0,0,1,.036-.57.761.761,0,0,0,.034-.376.249.249,0,0,0-.164-.166.97.97,0,0,0-.75.117,5.325,5.325,0,0,0-.613.456,5.1,5.1,0,0,1-.754.545,1.494,1.494,0,0,1-1.82-.13.678.678,0,0,1-.171-.324.775.775,0,0,1,.087-.472,5.173,5.173,0,0,1,.963-1.286,3.776,3.776,0,0,0,.98-1.435l.406.117a4.15,4.15,0,0,1-1.076,1.605,4.776,4.776,0,0,0-.89,1.177.421.421,0,0,0-.055.216.271.271,0,0,0,.07.12,1.092,1.092,0,0,0,1.3.043,4.673,4.673,0,0,0,.691-.5,5.629,5.629,0,0,1,.663-.492,1.369,1.369,0,0,1,1.119-.151.667.667,0,0,1,.416.437,1.1,1.1,0,0,1-.027.6.842.842,0,0,0-.038.367.3.3,0,0,0,.162.188.659.659,0,0,0,.5.026,2.083,2.083,0,0,0,.624-.435c.076-.067.151-.134.228-.2a1.315,1.315,0,0,1,1.242-.346,28.173,28.173,0,0,0,5.08,1.11Z" transform="translate(-569.44 -1166.959)" fill="#1f3c88"/>
                  <path id="Trazado_705078" data-name="Trazado 705078" d="M555,1227.114a1.681,1.681,0,0,1-1.388-.725l-.061-.094a.642.642,0,0,0-.182-.221.566.566,0,0,0-.387.021c-.229.069-.452.161-.674.251a5.57,5.57,0,0,1-1.088.358,1.728,1.728,0,0,1-1.846-.689c-.018-.032-.035-.067-.052-.1a.535.535,0,0,0-.112-.175.484.484,0,0,0-.253-.047,2.4,2.4,0,0,0-1.7.768l-.312-.286a2.833,2.833,0,0,1,2-.9.812.812,0,0,1,.52.136.855.855,0,0,1,.232.321l.042.083a1.329,1.329,0,0,0,1.4.477,5.2,5.2,0,0,0,1-.333c.235-.1.469-.191.711-.264a.911.911,0,0,1,.716.014.966.966,0,0,1,.335.367l.052.083a1.267,1.267,0,0,0,1.451.463c.079-.03.156-.069.232-.107a2.335,2.335,0,0,1,.374-.158,2.372,2.372,0,0,1,1.136.032l.069.014a12.083,12.083,0,0,0,3.416.16l.04.421a12.54,12.54,0,0,1-3.535-.167l-.071-.013a2.011,2.011,0,0,0-.936-.041,1.893,1.893,0,0,0-.306.131c-.088.044-.177.088-.269.122a1.579,1.579,0,0,1-.564.1" transform="translate(-542.551 -1217.327)" fill="#1f3c88"/>
                  <path id="Trazado_705079" data-name="Trazado 705079" d="M543.544,1254.18l-3.363-.144a1.342,1.342,0,0,1-1.077-.41,1.988,1.988,0,0,1-2.2-.159c-.041-.032-.08-.067-.119-.1a1.163,1.163,0,0,0-.264-.194c-.322-.145-.74.109-1.067.349l-.249-.342a1.534,1.534,0,0,1,1.492-.392,1.511,1.511,0,0,1,.367.261c.035.031.069.061.1.09a1.575,1.575,0,0,0,1.89.012l.26-.2.076.323c.064.273.532.334.806.345l3.363.144Z" transform="translate(-532.407 -1241.025)" fill="#1f3c88"/>
                  <path id="Trazado_705080" data-name="Trazado 705080" d="M517.835,1300.834a1.7,1.7,0,0,1-.614-.09,1.989,1.989,0,0,1-.308-.158c-.052-.031-.1-.062-.158-.089a2.7,2.7,0,0,0-1.956.09l-.12-.406a3.1,3.1,0,0,1,2.266-.062c.062.032.123.068.183.1a1.492,1.492,0,0,0,.242.125,1.611,1.611,0,0,0,.594.061l4.263-.071.008.423-4.264.071-.136,0" transform="translate(-514.681 -1281.814)" fill="#1f3c88"/>
                </g>
              </g>
            </g>
            <path id="Trazado_705081" data-name="Trazado 705081" d="M287.705,1272.944c-1.01.254-2.157.479-3.45.683q-1.46.229-3.181.414a18.012,18.012,0,0,1-3.123,5.063,21.927,21.927,0,0,1-2.361,2.368,22.76,22.76,0,0,1-10.336,4.954l-.211.044-4.336-9.937,1.1-.712,15.144-9.682,13.655.828,4.976.3s.864,3.537-7.881,5.673" transform="translate(-228.164 -1093.676)" fill="#f9b384"/>
            <path id="Trazado_705082" data-name="Trazado 705082" d="M2656.4,1230.047l-5.073,3.015a6.155,6.155,0,0,0-2.873,4l-2.459,11.445,5.7,2.756,1.644-13.209s6.4-4.927,3.063-8.005" transform="translate(-2288.545 -1062.5)" fill="#e38b6d"/>
            <path id="Trazado_705083" data-name="Trazado 705083" d="M2684.7,1264.134l-13.576,5.192-3.445,11,4.832,4.96,4.824-13.033s10.471-2.249,7.365-8.12" transform="translate(-2307.283 -1091.945)" fill="#e38b6d"/>
            <path id="Trazado_705084" data-name="Trazado 705084" d="M2618.59,1302.326l-7.111,13.248-1.547-.21-18.115-2.463a7.274,7.274,0,0,1-4.837-2.833l-6.124-8.121-1.794-2.375-2.942-3.9-.138-7.67,8.622,6.537,1.518,1.206.2.16,2.528,2.012.465.37,2.077,1.649,1.083.864,3.574-2.288.211-.138.007-.007L2606,1292.7a25.893,25.893,0,0,1,11.353,7.939,14.373,14.373,0,0,1,1.242,1.685" transform="translate(-2228.074 -1112.562)" fill="#f9b384"/>
            <path id="Trazado_705085" data-name="Trazado 705085" d="M2856.6,1386.744v31.6l-31.378-22.829,1.547.211,7.111-13.249a14.387,14.387,0,0,0-1.242-1.685Z" transform="translate(-2443.365 -1192.709)" fill="#f9b384"/>
            <path id="Trazado_705086" data-name="Trazado 705086" d="M2803.53,1375.074a14.386,14.386,0,0,1,1.242,1.685l-7.111,13.249-1.547-.211-4.591-3.341,3.929-3.777,4.475-8.506Z" transform="translate(-2414.255 -1186.996)" fill="#f9b384"/>
            <path id="Trazado_705087" data-name="Trazado 705087" d="M2228.374,1099.64l45.408,29.284-24.029,12.128-45.409-29.284Z" transform="translate(-1907.056 -949.856)" fill="#708cd5"/>
            <path id="Trazado_705088" data-name="Trazado 705088" d="M2551.636,1314.63l-1.594,4.089-24.03,12.128,1.594-4.089Z" transform="translate(-2184.91 -1135.563)" fill="#d3dfff"/>
            <path id="Trazado_705089" data-name="Trazado 705089" d="M2239.647,1217.96l-1.594,4.09-45.408-29.284,1.594-4.089Z" transform="translate(-1896.95 -1026.764)" fill="#1f3c88"/>
            <path id="Trazado_705090" data-name="Trazado 705090" d="M2338.536,1178.545l10.359-6.131,4.651,2.854-10.253,6.342Z" transform="translate(-2022.969 -1012.718)" fill="#fff"/>
            <path id="Trazado_705091" data-name="Trazado 705091" d="M2657.138,1276.283l-8.876,6c-17.152-6.475-12.5-13.29-12.5-13.29s8.178,3.521,16.6,6.243c1.578.51,3.251.51,4.775,1.044" transform="translate(-2279.216 -1096.144)" fill="#f9b384"/>
          </g>
        </g>
      </g>
    </g>
    <rect id="Rectángulo_345542" data-name="Rectángulo 345542" width="464" height="367" transform="translate(7775 -10205)" fill="none"/>
  </g>
</svg>
