<svg id="observacion" xmlns="http://www.w3.org/2000/svg" width="96.261" height="96.261" viewBox="0 0 96.261 96.261">
  <path id="Trazado_705284" data-name="Trazado 705284" d="M95.156,18H2V80.1H95.156Z" transform="translate(-0.447 8.394)" fill="#e91e63"/>
  <path id="Trazado_705285" data-name="Trazado 705285" d="M17.388,16H46.367V68.788H20.993A21.205,21.205,0,0,0,6,75V47.817A29.546,29.546,0,0,0,17.388,16Z" transform="translate(42.13 7.289)" fill="#f2f2f2"/>
  <path id="Trazado_705286" data-name="Trazado 705286" d="M8,56.21H45.262V50H22.993A21.205,21.205,0,0,0,8,56.21Z" transform="translate(40.13 26.077)" fill="#ccc"/>
  <path id="Trazado_705287" data-name="Trazado 705287" d="M12,33.635v3.891H33.736V22H15.065A29.329,29.329,0,0,1,12,33.635Z" transform="translate(45.446 10.605)" fill="#5e87ca"/>
  <g id="Grupo_1000137" data-name="Grupo 1000137" transform="translate(57.449 52.788)">
    <path id="Trazado_705288" data-name="Trazado 705288" d="M34.286,35H11v3.105H34.286Z" transform="translate(-11 -35)" fill="#d8d8d8"/>
    <path id="Trazado_705289" data-name="Trazado 705289" d="M24.97,39H11v3.105H24.97Z" transform="translate(-1.684 -32.79)" fill="#d8d8d8"/>
    <path id="Trazado_705290" data-name="Trazado 705290" d="M18.76,43H11v3.105h7.76Z" transform="translate(4.526 -30.579)" fill="#d8d8d8"/>
  </g>
  <path id="Trazado_705291" data-name="Trazado 705291" d="M22,37.167,32.868,48.035l6.21-6.21L28.333,31.079Z" transform="translate(24.578 15.622)" fill="#9da1bf"/>
  <path id="Trazado_705292" data-name="Trazado 705292" d="M11.316,37,2,46.316,29.569,73.885a6.587,6.587,0,1,0,9.316-9.316Z" transform="translate(53.893 18.893)" fill="#858bb5"/>
  <path id="Trazado_705293" data-name="Trazado 705293" d="M7.329,60.658A2.329,2.329,0,1,0,5,58.329,2.329,2.329,0,0,0,7.329,60.658Z" transform="translate(80.393 29.393)" fill="#4c506e"/>
  <path id="Trazado_705294" data-name="Trazado 705294" d="M69.262,56.21H32V50H54.269a21.205,21.205,0,0,1,14.993,6.21Z" transform="translate(-21.132 26.077)" fill="#b5b5b5"/>
  <path id="Trazado_705295" data-name="Trazado 705295" d="M46,50V68.631l4.658-4.658,4.658,4.658V50" transform="translate(-28.921 26.077)" fill="#559b2d"/>
  <path id="Trazado_705296" data-name="Trazado 705296" d="M50.658,50V68.631L46,63.973V50Z" transform="translate(-24.264 26.077)" fill="#6bc13b"/>
  <ellipse id="Elipse_8296" data-name="Elipse 8296" cx="29.5" cy="29.5" rx="29.5" ry="29.5" transform="translate(1 1.261)" fill="#858bb5"/>
  <path id="Trazado_705297" data-name="Trazado 705297" d="M28.652,21.526H58.378a9.316,9.316,0,0,1,9.316,9.316,9.316,9.316,0,0,1,5.2-8.359,23.3,23.3,0,0,0-44.24-.956Z" transform="translate(-19.563 1.763)" fill="#e2e7f6"/>
  <path id="Trazado_705298" data-name="Trazado 705298" d="M72.367,65.793a21.205,21.205,0,0,0-14.993-6.21H32V32.659A29.507,29.507,0,0,0,72.367,38.61Z" transform="translate(-24.237 16.495)" fill="#d8d8d8"/>
  <path id="Trazado_705299" data-name="Trazado 705299" d="M28,39.258a23.326,23.326,0,0,0,5.2-22.64A9.316,9.316,0,0,0,28,24.974Z" transform="translate(20.131 7.63)" fill="#f2f2f2"/>
  <path id="Trazado_705300" data-name="Trazado 705300" d="M72.382,39.6V25.316A9.316,9.316,0,0,0,63.066,16H33.34A23.289,23.289,0,0,0,72.382,39.6Z" transform="translate(-24.251 7.289)" fill="#d8d8d8"/>
  <path id="Trazado_705301" data-name="Trazado 705301" d="M61.84,43H37v3.105H61.84Z" transform="translate(-21.473 22.209)" fill="#939393"/>
  <path id="Trazado_705302" data-name="Trazado 705302" d="M59.736,23H38V36.973H59.736Z" transform="translate(-20.921 11.157)" fill="#5e87ca"/>
  <path id="Trazado_705303" data-name="Trazado 705303" d="M58.466,23V36.973H48.292A22.191,22.191,0,0,1,38,23Z" transform="translate(-19.651 11.157)" fill="#78a0d4"/>
  <path id="Trazado_705304" data-name="Trazado 705304" d="M12,22H28.794V37.526H22.671A26.407,26.407,0,0,1,12,22Z" transform="translate(50.388 10.605)" fill="#78a0d4"/>
  <path id="Trazado_705305" data-name="Trazado 705305" d="M32.052,1a31.106,31.106,0,0,1,29.62,21.736H89.5a1.553,1.553,0,0,1,1.553,1.553v1.553h4.658a1.553,1.553,0,0,1,1.553,1.553V89.5h-.039a8.117,8.117,0,0,1-13.855,5.378L79.54,91.051H28.947v4.658a1.553,1.553,0,0,1-2.65,1.1l-3.56-3.56-3.56,3.56a1.553,1.553,0,0,1-2.65-1.1V91.051H2.553A1.553,1.553,0,0,1,1,89.5V32.052A31.088,31.088,0,0,1,32.052,1ZM16.526,78.63H13.421v3.105h3.105Zm17.611-3.105a22.582,22.582,0,0,1,13.441,4.392V58.9A30.9,30.9,0,0,1,10.316,54.19V75.525ZM55.8,65.111l.455-.455-5.568-5.568V79.917a22.572,22.572,0,0,1,13.335-4.392L55.79,67.3a1.553,1.553,0,0,1,0-2.2ZM67.119,78.63H64.124a19.513,19.513,0,0,0-10.589,3.105H70.224Zm-38.172,0v3.105H44.726A19.513,19.513,0,0,0,34.137,78.63Zm29.5-16.169,4.015-4.015-6.55-6.55A31.439,31.439,0,0,1,51.9,55.911ZM60,45.5v2.08H78.63V35.157H62.949A30.785,30.785,0,0,1,60,45.5ZM87.945,25.842H62.483a31.125,31.125,0,0,1,.621,6.21H80.182A1.553,1.553,0,0,1,81.735,33.6V49.131a1.553,1.553,0,0,1-1.553,1.553H59.089l3.105,3.105H81.735v3.105H68.4L71.51,60H81.735V63.1h-7.12l3.105,3.105h4.015v3.105h-.908l6.21,6.21h.908Zm3.105,3.105V77.077a1.54,1.54,0,0,1-1.017,1.444l4.122,4.122v-53.7ZM85.564,92.682a5.035,5.035,0,1,0,7.119-7.122L66.209,59.089l-7.12,7.12Zm-9.129-4.737L73.329,84.84H28.947v3.105Zm-54.8,2.007a1.553,1.553,0,0,1,2.2,0l2.008,2.008V78.63h-6.21V91.96ZM4.105,87.945H16.526V84.84H11.868a1.553,1.553,0,0,1-1.553-1.553V78.63H8.763A1.553,1.553,0,0,1,7.21,77.077V50.6A31.028,31.028,0,0,1,4.105,45.5ZM32.052,60A27.947,27.947,0,1,0,4.105,32.052,27.947,27.947,0,0,0,32.052,60Z" transform="translate(-1 -1)"/>
  <path id="Trazado_705306" data-name="Trazado 705306" d="M51.842,5A24.842,24.842,0,1,1,27,29.842,24.842,24.842,0,0,1,51.842,5Zm0,3.105A21.736,21.736,0,0,0,32.232,20.526H59.6a10.868,10.868,0,0,1,9.306,5.26,10.811,10.811,0,0,1,3.31-3.434A21.753,21.753,0,0,0,51.842,8.105Zm21.3,17.433a7.71,7.71,0,0,0-2.674,5.856V40.98a21.567,21.567,0,0,0,2.674-15.442ZM39.421,45.368H58.052V34.5H39.421Zm-3.105-.343V32.947a1.553,1.553,0,0,1,1.553-1.553H59.6a1.553,1.553,0,0,1,1.553,1.553V46.92A1.553,1.553,0,0,1,59.6,48.473H40.7a21.612,21.612,0,0,0,26.664-3.448V31.394A7.772,7.772,0,0,0,59.6,23.631H31.021a21.623,21.623,0,0,0,5.294,21.393Z" transform="translate(-20.79 1.21)"/>
  <path id="Trazado_705307" data-name="Trazado 705307" d="M61.842,43H37v3.105H61.842Z" transform="translate(-21.474 22.209)"/>
  <path id="Trazado_705308" data-name="Trazado 705308" d="M7.329,56A2.329,2.329,0,1,1,5,58.329,2.329,2.329,0,0,1,7.329,56Z" transform="translate(80.393 29.393)"/>
</svg>
