<svg id="Grupo_930055" data-name="Grupo 930055" xmlns="http://www.w3.org/2000/svg" xmlns:xlink="http://www.w3.org/1999/xlink" width="82" height="82.02" viewBox="0 0 82 82.02">
  <defs>
    <clipPath id="clip-path">
      <rect id="Rectángulo_344429" data-name="Rectángulo 344429" width="82" height="82.02" fill="none"/>
    </clipPath>
  </defs>
  <g id="Grupo_930055-2" data-name="Grupo 930055" clip-path="url(#clip-path)">
    <path id="Trazado_696534" data-name="Trazado 696534" d="M82,40.7V46.95c-.248.091-.151.312-.168.478A38.048,38.048,0,0,1,75.357,65.3c-.626.92-1,1.052-2,.712a1.382,1.382,0,0,1-.08-1.938A35.463,35.463,0,0,0,79.107,37.9a34.587,34.587,0,0,0-3.245-10.072c-.108-.216-.148-.653-.591-.387a4.816,4.816,0,0,1-2.792.5c-.515-.021-.672.048-.39.6,2.519,4.9,2.016,9.615-.968,14.134a2.984,2.984,0,0,0-.569,1.8c.043,6.484.027,12.967.024,19.451a4.192,4.192,0,0,1-.874,2.684A4.266,4.266,0,0,1,66.114,68.2q-4.8-.008-9.605,0c-.324,0-.714-.028-.872.274s.188.522.346.75c1.352,1.955,2.946,3.721,4.371,5.618.341.453.577.428,1.025.17a36.825,36.825,0,0,0,8.01-6.2c.748-.765,1.169-.806,2.024-.261a1.322,1.322,0,0,1-.265,1.906A38.1,38.1,0,0,1,49.541,81.583a13.714,13.714,0,0,0-2.772.437H40.524c-.064-.217-.251-.144-.4-.165-1.265-.184-2.542-.307-3.794-.557a37.375,37.375,0,0,1-19.4-10.274A37.422,37.422,0,0,1,5.584,46.172C5.5,44.9,5.516,44.9,4.206,44.889a4.014,4.014,0,0,1-4.19-4.01q-.032-9.964,0-19.927A3.99,3.99,0,0,1,3.93,16.993c.773-.024,1.549.024,2.32-.02a1.357,1.357,0,0,1,1.563,1.145c-.283,1.037-.578,1.258-1.668,1.268-.6.006-1.209.022-1.813.034a1.642,1.642,0,0,0-1.92,1.87q-.008,9.638,0,19.275a1.669,1.669,0,0,0,1.906,1.916c3.2.007,6.4.013,9.6,0a4.2,4.2,0,0,1,2.6.84c2.147,1.575,4.315,3.123,6.48,4.672.152.109.272.347.556.232,0-.823-.008-1.649,0-2.475a3.14,3.14,0,0,1,3.205-3.259c.666-.018,1.333,0,2-.005,1.3-.015,1.879-.635,1.831-1.94.013-.238.038-.477.038-.715q0-9.155,0-18.309c0-1.622-.52-2.132-2.165-2.132q-7.916,0-15.831,0c-1.122,0-1.412-.221-1.7-1.266a1.394,1.394,0,0,1,1.643-1.147c.985.044,1.976-.03,2.96.024a1.885,1.885,0,0,0,1.532-.624A37.739,37.739,0,0,1,43.439,5.517c.8-.015.986-.219.921-.967A4.207,4.207,0,0,1,48.838,0c8,.073,16.006.026,24.009.028,2.878,0,4.521,1.63,4.522,4.49q0,9.484,0,18.968a3.319,3.319,0,0,1-.048,1.033,1.573,1.573,0,0,0,.227,1.348,37.837,37.837,0,0,1,4.015,12.138A11.767,11.767,0,0,0,82,40.7M25.147,13.16l0,0a27.682,27.682,0,0,0-5.194,3.8h2.308c2.214.009,4.429.026,6.643.023a4.183,4.183,0,0,1,2.6.874c.133.1.224.322.518.195A9.6,9.6,0,0,0,29.51,11.21a.441.441,0,0,0-.618-.1,23.459,23.459,0,0,0-3.434,1.854.365.365,0,0,0-.312.2M64.394,28c-.184-.019-.369-.053-.553-.054-1.269,0-1.541-.005-1.581,1.42A11.815,11.815,0,0,1,58.625,37.8,3.987,3.987,0,0,0,57.6,39.578c-.169.568.013.712.548.67.477-.038.958-.026,1.437-.037,2.186.011,4.372.033,6.559.026a4.32,4.32,0,0,1,2.645.739c.3.218.466.225.681-.115A10.863,10.863,0,0,0,69.1,28.346c-.166-.212-.316-.413-.637-.406-1.358.029-2.716.041-4.074.059M33.079,30.77c-.059,2.386-.467,2,1.614,3.093a7.385,7.385,0,0,0,8.246-.359,7.461,7.461,0,0,0,3.274-5.582.808.808,0,0,0-.334-.869,3.938,3.938,0,0,1-1.531-3.27c.013-1.33,0-2.661,0-3.992,0-1.281.43-1.649,1.724-1.5a1.7,1.7,0,0,1,.688,1.525c-.029,1.331-.022,2.664,0,4a1.579,1.579,0,0,0,1.683,1.716c.719.024,1.439-.013,2.158.013a3.137,3.137,0,0,1,3.22,3.322c.005.813,0,1.627,0,2.456a1.372,1.372,0,0,0,.752-.4c2.078-1.49,4.165-2.966,6.218-4.488a4.5,4.5,0,0,1,2.826-.9c2.958.018,5.915.006,8.872.006,2.1,0,2.506-.413,2.475-2.539,0-.133-.02-.265-.029-.4.009-6.181.027-12.362.018-18.543,0-1.02-.738-1.618-1.878-1.622q-4.237-.012-8.473,0-7.394.01-14.787.025c-.265-.009-.53-.024-.8-.025-1.765,0-2.264.5-2.265,2.275,0,2.87-.013,5.739.009,8.608a1.762,1.762,0,0,1-.688,1.6c-1.292.149-1.721-.222-1.724-1.507,0-1.627-.009-3.254,0-4.881,0-.4-.033-.64-.545-.633A35.706,35.706,0,0,0,33.8,9.337c-.558.163-1.114.333-1.675.488-.377.1-.462.239-.181.581a10.264,10.264,0,0,1,1.71,3.043c1.032,2.841,1.258,5.643-.477,8.333a1.012,1.012,0,0,0-.136.525c0,.8.022,1.593.036,2.389-.067,2.025-.074,4.049,0,6.074M55.112,77.737a24.4,24.4,0,0,0,2.777-.99c.616-.222.634-.429.229-.921a60.45,60.45,0,0,1-4.175-5.356c-.334-.513-.563-.436-.977-.129-1.562,1.158-3.152,2.279-4.724,3.424A2.193,2.193,0,0,1,44.6,71.952q0-1.44,0-2.879c0-.589-.263-.891-.874-.875-.533.014-1.066,0-1.6,0-2.959-.009-4.616-1.656-4.617-4.6q0-7.558-.005-15.116a1.581,1.581,0,0,0-.105-.9,5.7,5.7,0,0,0-1.908,2A13.672,13.672,0,0,0,34.425,52.5a1.439,1.439,0,0,1-1.481,1.2c-.94-.448-1.135-.865-.847-1.842.151-.511.319-1.016.476-1.525a8.257,8.257,0,0,1,4.518-5.311.659.659,0,0,0,.431-.658,4.083,4.083,0,0,1,4.435-4.121q6.245,0,12.49.005c.415,0,.652-.018.708-.557a5.93,5.93,0,0,1,1.821-3.647,9.961,9.961,0,0,0,1.694-2.219,8.078,8.078,0,0,0,1.068-3.641c-.326.225-.543.369-.754.52Q57,32.129,55.022,33.555a2.191,2.191,0,0,1-3.606-1.875c.015-.56,0-1.121,0-1.681.014-2.086.189-2.06-2.122-2.066-.56,0-.71.2-.78.721A9.491,9.491,0,0,1,44.743,35.2a9.888,9.888,0,0,1-10.847.986c-.866-.407-.861-.415-.862.577,0,1.388.024,2.776-.011,4.163a3.991,3.991,0,0,1-3.987,3.963c-.721.015-1.441,0-2.162,0a.806.806,0,0,0-.917.94c0,.133,0,.267,0,.4,0,.827-.013,1.655,0,2.482a2.117,2.117,0,0,1-1.132,2.054,2.141,2.141,0,0,1-2.405-.217q-3.676-2.626-7.353-5.25a1.174,1.174,0,0,0-.991-.412c-1.868,0-3.737.014-5.6-.007-.469-.005-.575.143-.551.6A36.39,36.39,0,0,0,10.978,58.32c.265.6.429.648.954.234,1.817-1.43,3.725-2.7,6.183-2.665A5.3,5.3,0,0,1,21.8,58.045a3.514,3.514,0,0,0,1.83,1.22,5.333,5.333,0,0,0,6.113-1.926c.7-.876.994-.961,1.971-.571.6.841.6,1.169-.026,1.988a8.787,8.787,0,0,1-.67.789c-2.579,2.674-5.958,3.131-9.717,1.321a10.741,10.741,0,0,1-1.434-1.379,2.641,2.641,0,0,0-3.478-.882,14.6,14.6,0,0,0-3.434,2.17c-.417.316-.485.543-.2,1.024a35.765,35.765,0,0,0,13.83,13.43A35.335,35.335,0,0,0,47.5,79.424a28.948,28.948,0,0,0,7.612-1.687M68.131,63.113a1.351,1.351,0,0,0,.042-.235q0-9.163,0-18.326a1.714,1.714,0,0,0-1.95-1.906q-7.282-.01-14.564,0c-2.96,0-5.92.019-8.88.029-.292-.011-.585-.034-.877-.032A1.751,1.751,0,0,0,39.911,44.6q-.011,9.643,0,19.287A1.733,1.733,0,0,0,41.787,65.8c.612.024,1.227,0,1.84.006A3.082,3.082,0,0,1,47,69.184c.007.787,0,1.575,0,2.478.345-.23.567-.368.778-.52,1.99-1.434,4-2.843,5.956-4.318a4.887,4.887,0,0,1,3.18-1.039c2.933.052,5.869.017,8.8.017,2.028,0,2.625-.666,2.414-2.69" transform="translate(0 0)" fill="#030302"/>
    <path id="Trazado_696535" data-name="Trazado 696535" d="M17.457,58.449h3.124c.284,1.045.574,1.266,1.7,1.266q7.916,0,15.831,0c1.645,0,2.165.51,2.165,2.132q0,9.155,0,18.309c0,.239-.024.477-.038.715q-1.961,0-3.923,0a5.062,5.062,0,0,0-4.69,3.026c-.352.665-.591.778-1.221.34-.807-.561-1.609-1.131-2.381-1.737a6.934,6.934,0,0,0-4.771-1.657c-2.5.113-5.016.028-7.524.028-1.543,0-1.749-.2-1.749-1.749q0-9.687,0-19.374c.6-.011,1.209-.028,1.813-.033,1.09-.01,1.384-.231,1.668-1.268m15.6,19.963a5.569,5.569,0,0,0-.153-.536q-2.647-6.964-5.3-13.927a1.536,1.536,0,0,0-2.932.009q-2.625,6.972-5.261,13.94a1.207,1.207,0,1,0,2.241.847c.279-.689.551-1.383.786-2.087a.659.659,0,0,1,.735-.543c2,.024,4,.019,6,0a.619.619,0,0,1,.692.491c.267.778.574,1.543.89,2.3a1.107,1.107,0,0,0,1.354.711,1.164,1.164,0,0,0,.948-1.21" transform="translate(-9.643 -40.33)" fill="#f8f6f6"/>
    <path id="Trazado_696536" data-name="Trazado 696536" d="M137.949,137.588c2.96-.01,5.921-.026,8.881-.029q7.282-.007,14.564,0a1.714,1.714,0,0,1,1.95,1.906q.02,9.163,0,18.326a1.325,1.325,0,0,1-.042.235q-6,.006-12,.014a5.512,5.512,0,0,0-3.4,1.162c-.825.626-1.658,1.243-2.517,1.821-.412.277-.865.432-1.228-.157a5.451,5.451,0,0,0-5.167-2.822c-.744.033-1.06-.239-1.057-1.014q.03-9.721.018-19.443m17.7,4.277c-.934,0-1.869-.022-2.8.007a1.153,1.153,0,0,0-1.189,1.151,1.175,1.175,0,0,0,1.188,1.237,7.325,7.325,0,0,0,1.04,0c.392-.03.577.063.56.514-.035.906-.029,1.815,0,2.722.012.419-.127.555-.544.547-1.174-.022-2.349-.029-3.522,0-.576.015-.637-.131-.484-.686a4.261,4.261,0,0,0-4.21-5.495c-1.014-.009-2.028-.006-3.043,0-.944.006-1.484.438-1.495,1.18-.011.777.536,1.216,1.536,1.22.961,0,1.922,0,2.882,0a1.89,1.89,0,1,1,.13,3.762c-.239.015-.48.006-.72.006-1.014,0-2.03-.032-3.042.019a1.166,1.166,0,0,0-.962,1.847,1.456,1.456,0,0,0,1.347.539c1.228.01,2.457-.026,3.682.036a1.8,1.8,0,0,1,1.69,1.808,1.843,1.843,0,0,1-1.706,1.887,6.582,6.582,0,0,1-5.066-1.508,1.18,1.18,0,0,0-1.32-.307,1.208,1.208,0,0,0-.277,2.089,8.611,8.611,0,0,0,6.185,2.146,4.253,4.253,0,0,0,4.362-5.552c-.164-.6.064-.609.509-.6,1.148.014,2.3.028,3.442-.006.493-.015.637.134.626.628-.033,1.414-.013,2.829-.01,4.243a1.169,1.169,0,0,0,1.068,1.277c.758.119,1.325-.494,1.328-1.423.008-3.123,0-6.245,0-9.368,0-1.46,0-1.46,1.455-1.523a1.2,1.2,0,0,0,1.309-1.2,1.184,1.184,0,0,0-1.309-1.2c-.88-.017-1.761,0-2.642,0" transform="translate(-95.173 -94.914)" fill="#ffa031"/>
    <path id="Trazado_696537" data-name="Trazado 696537" d="M160.657,7.863q7.393-.013,14.787-.025,4.237-.006,8.473,0c1.14,0,1.876.6,1.878,1.622.009,6.181-.009,12.362-.018,18.543-1.724,0-3.448.006-5.172,0-.257,0-.537.075-.75-.154.076-1.1-.045-1.324-1.078-1.764a18.182,18.182,0,0,1-5-2.956c-.348-.306-.4-.517-.1-.911A16.733,16.733,0,0,0,176.05,17.8c.237-.643.177-1.565.71-1.877s1.346-.1,2.038-.109c.962-.019,1.553-.5,1.525-1.257-.027-.72-.579-1.141-1.532-1.144-1.733-.006-3.468-.019-5.2.008-.52.008-.727-.144-.683-.678a8.016,8.016,0,0,0-.016-1.358,1.148,1.148,0,0,0-1.216-1.2,1.169,1.169,0,0,0-1.179,1.248,7.761,7.761,0,0,0,0,1.279c.055.575-.184.719-.729.711-1.786-.029-3.574-.02-5.36,0a1.214,1.214,0,0,0-1.326,1.186,1.239,1.239,0,0,0,1.327,1.206,15.727,15.727,0,0,0,1.68,0c.509-.033.73.123.866.656a15.692,15.692,0,0,0,2.706,5.658c.361.476.325.718-.114,1.092a19.172,19.172,0,0,1-5.021,2.924c-1.041.445-1.219.95-.785,2.03a8.517,8.517,0,0,0-2.136-.157c-.721.052-.963-.253-.96-.985.025-6.387.016-12.775.017-19.163" transform="translate(-110.842 -5.406)" fill="#ed9aa9"/>
    <path id="Trazado_696538" data-name="Trazado 696538" d="M48.617,107.471q3.677,2.625,7.353,5.25a2.141,2.141,0,0,0,2.405.218,2.117,2.117,0,0,0,1.132-2.054c-.016-.827,0-1.654,0-2.482,0-.134,0-.267,0-.4a.806.806,0,0,1,.917-.94c.721,0,1.441.011,2.162,0a3.991,3.991,0,0,0,3.987-3.964c.034-1.387.01-2.775.011-4.163,0-.992,0-.983.862-.577a9.889,9.889,0,0,0,10.847-.986,9.491,9.491,0,0,0,3.773-6.543c.07-.525.221-.723.78-.721,2.311.007,2.136-.02,2.122,2.066,0,.56.012,1.121,0,1.681a2.191,2.191,0,0,0,3.606,1.875q1.983-1.422,3.962-2.85c.211-.152.427-.3.754-.52A8.084,8.084,0,0,1,92.216,96a9.933,9.933,0,0,1-1.695,2.219,5.934,5.934,0,0,0-1.821,3.647c-.056.539-.293.558-.708.557q-6.245-.015-12.49-.005a4.083,4.083,0,0,0-4.435,4.121.659.659,0,0,1-.431.657,8.256,8.256,0,0,0-4.518,5.311c-.157.509-.326,1.014-.477,1.525-.288.976-.093,1.393.847,1.841a13.588,13.588,0,0,1-1.225,3.069c-.976-.391-1.271-.305-1.971.57a5.331,5.331,0,0,1-6.113,1.926,3.509,3.509,0,0,1-1.83-1.22,5.3,5.3,0,0,0-3.689-2.156,3.3,3.3,0,0,0-.141-.534,38.651,38.651,0,0,1-1.827-4.931,25.231,25.231,0,0,1-1.076-5.125" transform="translate(-33.546 -62.173)" fill="#bfe5f9"/>
    <path id="Trazado_696539" data-name="Trazado 696539" d="M79.141,162.688a13.6,13.6,0,0,0,1.225-3.069,1.441,1.441,0,0,0,1.482-1.2,13.665,13.665,0,0,1,1.066-2.915,5.7,5.7,0,0,1,1.909-2,1.579,1.579,0,0,1,.1.9q.009,7.558.006,15.116c0,2.94,1.658,4.587,4.617,4.6.533,0,1.067.012,1.6,0,.61-.016.876.286.874.875q0,1.44,0,2.879a2.192,2.192,0,0,0,3.637,1.811c1.572-1.145,3.162-2.265,4.724-3.424.414-.307.644-.384.978.129a60.445,60.445,0,0,0,4.175,5.356c.4.493.387.7-.229.922a24.391,24.391,0,0,1-2.777.99c-.239-.322-.588-.195-.889-.193A46.245,46.245,0,0,1,93.87,183a38.113,38.113,0,0,1-11.916-4.056A37.609,37.609,0,0,1,70.185,169.1a5.2,5.2,0,0,1-1.456-2.318c3.759,1.811,7.137,1.354,9.717-1.321a8.871,8.871,0,0,0,.669-.789c.622-.819.622-1.147.026-1.988" transform="translate(-47.423 -105.919)" fill="#a9e500"/>
    <path id="Trazado_696540" data-name="Trazado 696540" d="M197.107,126.909c-.582.9-1.407,1.6-1.942,2.534-.855-.546-1.276-.5-2.024.26a36.815,36.815,0,0,1-8.009,6.2c-.448.257-.684.283-1.025-.17-1.426-1.9-3.02-3.663-4.371-5.618-.157-.228-.5-.458-.346-.75s.548-.274.872-.274q4.8,0,9.605,0a4.265,4.265,0,0,0,3.588-1.592,4.191,4.191,0,0,0,.874-2.683c0-6.484.02-12.968-.024-19.451a2.982,2.982,0,0,1,.568-1.8c2.985-4.519,3.487-9.234.968-14.133-.282-.549-.124-.618.39-.6a4.813,4.813,0,0,0,2.792-.5c.443-.267.484.17.591.387a34.582,34.582,0,0,1,3.246,10.072,35.463,35.463,0,0,1-5.833,26.179,1.382,1.382,0,0,0,.08,1.938" transform="translate(-123.753 -60.892)" fill="#bfe5f9"/>
    <path id="Trazado_696541" data-name="Trazado 696541" d="M119.579,35.861c-1.294-.148-1.72.22-1.724,1.5,0,1.331.01,2.661,0,3.992a3.938,3.938,0,0,0,1.531,3.271.808.808,0,0,1,.334.869,7.461,7.461,0,0,1-3.274,5.582c-.211.022-.421.045-.632.065a10.685,10.685,0,0,1-5.633-.62,20.043,20.043,0,0,1-3.594-2.178c-.078-2.025-.071-4.049,0-6.074a.807.807,0,0,0,.456-.3,9.3,9.3,0,0,0,2.858-7.748,13.018,13.018,0,0,0-2.307-6.591.981.981,0,0,1-.284-.718,35.714,35.714,0,0,1,10.011-1.442c.511-.008.548.233.545.633-.014,1.627-.009,3.254,0,4.881,0,1.285.432,1.656,1.724,1.507q0,1.687,0,3.374" transform="translate(-73.504 -17.572)" fill="#a9e500"/>
    <path id="Trazado_696542" data-name="Trazado 696542" d="M49.323,190.639a5.2,5.2,0,0,0,1.456,2.318A37.615,37.615,0,0,0,62.549,202.8a38.119,38.119,0,0,0,11.916,4.056,46.235,46.235,0,0,0,7.776.46c.3,0,.65-.129.889.193a28.941,28.941,0,0,1-7.612,1.687A35.333,35.333,0,0,1,54.608,205a35.76,35.76,0,0,1-13.83-13.43c-.284-.481-.216-.708.2-1.024a14.583,14.583,0,0,1,3.433-2.17,2.641,2.641,0,0,1,3.478.882,10.761,10.761,0,0,0,1.434,1.379" transform="translate(-28.018 -129.773)" fill="#9ed600"/>
    <path id="Trazado_696543" data-name="Trazado 696543" d="M148.629,23.7q0-1.687,0-3.374a1.762,1.762,0,0,0,.689-1.6c-.021-2.869-.01-5.739-.009-8.608,0-1.776.5-2.278,2.265-2.276.265,0,.53.016.8.025,0,6.388.008,12.775-.017,19.163,0,.732.239,1.037.96.985a8.5,8.5,0,0,1,2.135.157l.809.431a5.8,5.8,0,0,1,2.222,2.116c.357.593.744.6,1.239.25.453-.324.915-.638,1.34-1A7.255,7.255,0,0,1,166.822,28a14.485,14.485,0,0,0,1.913,0c.271.1.546.2.813.309a1.413,1.413,0,0,0,2.019-.451c.213.229.494.153.751.154,1.724,0,3.448,0,5.172,0,.01.132.028.265.029.4.031,2.126-.372,2.539-2.475,2.539-2.957,0-5.915.011-8.872-.006a4.5,4.5,0,0,0-2.827.9c-2.053,1.522-4.141,3-6.218,4.488a1.372,1.372,0,0,1-.751.4c0-.829,0-1.643,0-2.456a3.136,3.136,0,0,0-3.22-3.322c-.719-.026-1.439.011-2.158-.013a1.579,1.579,0,0,1-1.683-1.716c-.019-1.332-.026-2.664,0-4a1.7,1.7,0,0,0-.688-1.525" transform="translate(-102.555 -5.413)" fill="#ed9aa9"/>
    <path id="Trazado_696544" data-name="Trazado 696544" d="M131.6,137.591q0,9.721-.018,19.443c0,.775.314,1.047,1.057,1.014a5.451,5.451,0,0,1,5.167,2.821c.363.589.816.434,1.227.157.859-.578,1.693-1.194,2.517-1.82a5.51,5.51,0,0,1,3.4-1.162q6-.014,12-.014c.211,2.024-.386,2.689-2.415,2.69-2.934,0-5.869.036-8.8-.017a4.888,4.888,0,0,0-3.18,1.039c-1.959,1.475-3.967,2.884-5.956,4.318-.211.153-.433.29-.778.52,0-.9.007-1.691,0-2.478a3.082,3.082,0,0,0-3.371-3.381c-.613,0-1.228.018-1.84-.006a1.733,1.733,0,0,1-1.875-1.915q-.014-9.643,0-19.287a1.75,1.75,0,0,1,1.988-1.953c.292,0,.585.02.877.032" transform="translate(-88.824 -94.916)" fill="#ffa031"/>
    <path id="Trazado_696545" data-name="Trazado 696545" d="M9.695,62.645q0,9.687,0,19.374c0,1.544.206,1.749,1.749,1.749,2.509,0,5.021.085,7.524-.028A6.935,6.935,0,0,1,23.739,85.4c.773.606,1.574,1.176,2.381,1.737.63.437.87.325,1.221-.34a5.062,5.062,0,0,1,4.69-3.026q1.961,0,3.923,0c.048,1.3-.534,1.925-1.831,1.94-.666.008-1.334-.013-2,.005a3.139,3.139,0,0,0-3.205,3.259c-.01.826,0,1.651,0,2.475-.284.114-.4-.124-.556-.232-2.166-1.549-4.333-3.1-6.481-4.672a4.2,4.2,0,0,0-2.6-.84c-3.2.017-6.4.011-9.6,0a1.669,1.669,0,0,1-1.906-1.916q-.007-9.638,0-19.275a1.643,1.643,0,0,1,1.92-1.87" transform="translate(-5.362 -43.224)" fill="#f0e7e4"/>
    <path id="Trazado_696546" data-name="Trazado 696546" d="M196.985,90.188c1.358-.018,2.716-.03,4.074-.059.321-.007.471.194.637.406a10.865,10.865,0,0,1,.363,12.514c-.216.34-.38.333-.681.115a4.321,4.321,0,0,0-2.645-.738c-2.186.007-4.373-.016-6.559-.026a3.971,3.971,0,0,1,1.3-3.133,11.367,11.367,0,0,0,2.97-4.916c.355-1.368.324-2.78.543-4.163" transform="translate(-132.592 -62.19)" fill="#a9e500"/>
    <path id="Trazado_696547" data-name="Trazado 696547" d="M32.7,145.192a25.231,25.231,0,0,0,1.076,5.125,38.652,38.652,0,0,0,1.827,4.931,3.3,3.3,0,0,1,.141.534c-2.458-.035-4.366,1.235-6.183,2.665-.526.414-.689.368-.954-.234a36.383,36.383,0,0,1-3.053-12.837c-.024-.46.082-.609.551-.6,1.868.021,3.736.011,5.6.007a1.173,1.173,0,0,1,.991.412" transform="translate(-17.633 -99.894)" fill="#bfe5f9"/>
    <path id="Trazado_696548" data-name="Trazado 696548" d="M75.016,37.5a23.473,23.473,0,0,1,3.434-1.854.44.44,0,0,1,.618.105,9.6,9.6,0,0,1,2.516,6.839c-.293.126-.385-.095-.518-.2a4.182,4.182,0,0,0-2.6-.874c-2.214,0-4.429-.015-6.643-.024.2-.724.821-1.146,1.211-1.733.494-.743,1.312-1.22,1.675-2.066l0,0a.266.266,0,0,0,.312-.2" transform="translate(-49.558 -24.54)" fill="#bfe5f9"/>
    <path id="Trazado_696549" data-name="Trazado 696549" d="M104.532,30.12a.982.982,0,0,0,.284.718,13.019,13.019,0,0,1,2.307,6.592,9.3,9.3,0,0,1-2.858,7.748.808.808,0,0,1-.456.3c-.014-.8-.037-1.593-.036-2.389a1.019,1.019,0,0,1,.136-.525c1.736-2.69,1.509-5.491.478-8.333a10.268,10.268,0,0,0-1.71-3.043c-.281-.341-.2-.476.181-.581.56-.155,1.117-.325,1.675-.488" transform="translate(-70.732 -20.783)" fill="#9ed600"/>
    <path id="Trazado_696550" data-name="Trazado 696550" d="M192.46,90.2c-.219,1.383-.188,2.795-.543,4.163a11.367,11.367,0,0,1-2.97,4.916,3.971,3.971,0,0,0-1.3,3.133c-.479.01-.96,0-1.437.037-.535.042-.716-.1-.548-.67A3.986,3.986,0,0,1,186.691,100a11.816,11.816,0,0,0,3.636-8.436c.04-1.425.311-1.424,1.58-1.42.184,0,.369.035.553.054" transform="translate(-128.067 -62.2)" fill="#9ed600"/>
    <path id="Trazado_696551" data-name="Trazado 696551" d="M106.551,99.258a20.036,20.036,0,0,0,3.594,2.178,10.689,10.689,0,0,0,5.634.62c.211-.02.421-.043.632-.065a7.384,7.384,0,0,1-8.246.359c-2.081-1.092-1.672-.706-1.614-3.093" transform="translate(-73.472 -68.489)" fill="#9ed600"/>
    <path id="Trazado_696552" data-name="Trazado 696552" d="M69.572,42.444c-.363.846-1.181,1.323-1.675,2.066-.39.587-1.015,1.009-1.211,1.733H64.378a27.684,27.684,0,0,1,5.194-3.8" transform="translate(-44.421 -29.287)" fill="#50bbc6"/>
    <path id="Trazado_696553" data-name="Trazado 696553" d="M81.431,41.806a.266.266,0,0,1-.312.2.366.366,0,0,1,.312-.2" transform="translate(-55.973 -28.846)" fill="#50bbc6"/>
    <path id="Trazado_696554" data-name="Trazado 696554" d="M44.921,88.267a1.164,1.164,0,0,1-.948,1.21,1.107,1.107,0,0,1-1.354-.711c-.316-.76-.624-1.525-.89-2.3a.618.618,0,0,0-.692-.491c-2,.016-4,.02-6,0a.659.659,0,0,0-.735.543c-.235.7-.507,1.4-.786,2.088a1.207,1.207,0,1,1-2.241-.847q2.623-6.973,5.261-13.94A1.536,1.536,0,0,1,39.47,73.8q2.643,6.966,5.3,13.927a5.519,5.519,0,0,1,.153.536m-9.488-4.731h5.174l-2.6-6.814-2.577,6.814" transform="translate(-21.503 -50.185)" fill="#040404"/>
    <path id="Trazado_696555" data-name="Trazado 696555" d="M157.667,151.439c.881,0,1.762-.015,2.642,0a1.184,1.184,0,0,1,1.309,1.2,1.2,1.2,0,0,1-1.309,1.2c-1.455.063-1.455.063-1.455,1.523,0,3.123,0,6.245,0,9.368,0,.93-.57,1.543-1.328,1.424a1.169,1.169,0,0,1-1.068-1.277c0-1.414-.023-2.829.01-4.243.011-.494-.134-.643-.626-.628-1.147.034-2.295.02-3.443.006-.445-.006-.673,0-.509.6a4.253,4.253,0,0,1-4.362,5.552,8.611,8.611,0,0,1-6.185-2.146,1.207,1.207,0,0,1,.277-2.089,1.179,1.179,0,0,1,1.32.307A6.582,6.582,0,0,0,148,163.747a1.843,1.843,0,0,0,1.706-1.887,1.8,1.8,0,0,0-1.69-1.808c-1.224-.062-2.454-.026-3.681-.036a1.455,1.455,0,0,1-1.347-.539,1.166,1.166,0,0,1,.962-1.847c1.012-.052,2.028-.016,3.042-.019.24,0,.481.009.72-.007a1.89,1.89,0,1,0-.13-3.762c-.961-.007-1.921,0-2.882,0-1,0-1.548-.444-1.536-1.221.011-.743.551-1.175,1.494-1.18,1.014-.006,2.029-.009,3.043,0a4.261,4.261,0,0,1,4.21,5.495c-.153.555-.092.7.484.686,1.174-.03,2.349-.024,3.522,0,.417.008.556-.127.544-.547-.027-.907-.033-1.816,0-2.721.017-.452-.167-.544-.56-.515a7.278,7.278,0,0,1-1.04,0,1.175,1.175,0,0,1-1.188-1.237,1.153,1.153,0,0,1,1.189-1.151c.933-.029,1.868-.007,2.8-.008" transform="translate(-97.197 -104.489)" fill="#040301"/>
    <path id="Trazado_696556" data-name="Trazado 696556" d="M185.28,33.086a1.414,1.414,0,0,1-2.019.451c-.266-.114-.541-.207-.812-.309a19.157,19.157,0,0,1-4.753-3.023c-.457-.438-.7-.377-1.148.011a17.287,17.287,0,0,1-6.578,3.618l-.808-.431c-.433-1.08-.255-1.585.786-2.03a19.177,19.177,0,0,0,5.021-2.924c.439-.374.476-.616.114-1.092a15.7,15.7,0,0,1-2.706-5.658c-.135-.533-.356-.689-.866-.656a15.721,15.721,0,0,1-1.679,0A1.239,1.239,0,0,1,168.5,19.84a1.214,1.214,0,0,1,1.326-1.186c1.787-.015,3.574-.024,5.361,0,.545.009.784-.135.729-.711a7.766,7.766,0,0,1,0-1.279,1.168,1.168,0,0,1,1.179-1.248,1.148,1.148,0,0,1,1.216,1.2,8.08,8.08,0,0,1,.016,1.358c-.044.534.162.686.683.678,1.733-.027,3.467-.014,5.2-.008.954,0,1.505.424,1.532,1.144.028.753-.563,1.239-1.525,1.257-.692.013-1.516-.2-2.038.109s-.472,1.234-.71,1.877a16.739,16.739,0,0,1-2.373,4.418c-.3.394-.249.6.1.911a18.177,18.177,0,0,0,5,2.956c1.033.441,1.154.665,1.078,1.764m-8.128-12.034c-.666,0-1.332.011-2,0-.368-.008-.464.1-.35.471a15.473,15.473,0,0,0,2.048,4.218c.236.342.371.256.566-.028a15.544,15.544,0,0,0,2.014-4.146c.124-.4.055-.529-.364-.516-.639.02-1.278.005-1.917.006" transform="translate(-116.268 -10.641)" fill="#040101"/>
    <path id="Trazado_696557" data-name="Trazado 696557" d="M173.234,66.063a17.291,17.291,0,0,0,6.578-3.618c.443-.388.691-.449,1.148-.011a19.159,19.159,0,0,0,4.753,3.023,14.49,14.49,0,0,1-1.913,0,7.255,7.255,0,0,0-5.764,1.973c-.425.358-.887.672-1.34,1-.5.355-.883.343-1.239-.25a5.8,5.8,0,0,0-2.223-2.116" transform="translate(-119.532 -42.869)" fill="#ed9aa9"/>
    <path id="Trazado_696558" data-name="Trazado 696558" d="M44.937,92.419l2.577-6.814,2.6,6.814Z" transform="translate(-31.007 -59.068)" fill="#f8f6f6"/>
    <path id="Trazado_696559" data-name="Trazado 696559" d="M191.077,33.571c.639,0,1.279.014,1.917-.005.419-.013.488.121.364.516a15.544,15.544,0,0,1-2.014,4.146c-.194.284-.33.37-.566.028a15.482,15.482,0,0,1-2.048-4.218c-.114-.367-.018-.48.35-.472.665.015,1.331,0,2,0" transform="translate(-130.194 -23.16)" fill="#ed9aa9"/>
  </g>
</svg>
