<svg xmlns="http://www.w3.org/2000/svg" xmlns:xlink="http://www.w3.org/1999/xlink" width="1240" height="490" viewBox="0 0 1240 490">
  <defs>
    <clipPath id="clip-path">
      <rect id="Rectangle" width="1240" height="490" rx="20" transform="translate(0 54)" fill="#f6f6f6"/>
    </clipPath>
    <clipPath id="clip-path-2">
      <rect id="Rectángulo_345531" data-name="Rectángulo 345531" width="1241" height="544" rx="20" transform="translate(0 0)" fill="#fceae8"/>
    </clipPath>
    <clipPath id="clip-path-3">
      <path id="Trazado_705264" data-name="Trazado 705264" d="M225.648,0c-11.189.1-19.589,4.572-23.854,12.638-4.1,7.6-4.384,18.427,0,31.827,15.432,46.23,75.86,89,112.1,148.194,36.1,59.185,37.507,67.328,37.507,67.328l-3.245,20.328s-46.992-15.635-96.675-59.074c-49.683-43.55-142.245-97.708-165.741-112.676s-57.747-25.345-79.962,0c-7.933,9.051-7.087,19.874-1.129,31.382C15.389,160.61,43,183.5,67.2,202.712c37.789,29.7,122.428,91.56,144.513,105.415,22.215,13.949,71.888,45.673,82.643,66.335,8.074,15.4,22.226,38.969,24.494,77.937a222.469,222.469,0,0,1-2.691,45.9c-10.9,67.893-93.56,44.329-46.851,103.745C316.158,661.336,419.062,721.2,492.22,739.958,555.914,790.213,626.412,916.4,626.412,916.4s58.311,4.572,131.772-19.651c50.66-16.646,108.7-47.129,159.642-102.409a397.2,397.2,0,0,0,37.941-48.019c-100.354-57.729-189.1-158.238-189.1-158.238,40.057-73.707,46.134-165.156,48.826-222.338-12.871-35.287-59.733-68.116-44.018-156.114,17.125-96.484-11.319-91.458-59.158-62.987-1.281.788-2.55,1.567-3.679,2.346C662.92,179.036,636.179,250.278,665.329,327c0,0-1.281,9.6-9.062,11.945C555.349,336.82,486.142,267.36,446.932,218.116c-39.341-49.141-111.8-151.653-165.166-193.644C260.615,7.724,241.2.146,226.462,0Z" transform="translate(0)" fill="none"/>
    </clipPath>
    <linearGradient id="linear-gradient" x1="0.168" y1="0.939" x2="0.176" y2="0.939" gradientUnits="objectBoundingBox">
      <stop offset="0" stop-color="#f8c5a1"/>
      <stop offset="0.699" stop-color="#f9bb9a"/>
      <stop offset="1" stop-color="#fab597"/>
    </linearGradient>
    <clipPath id="clip-path-4">
      <path id="Trazado_705265" data-name="Trazado 705265" d="M121.914,33.045c-1.281.788-2.55,1.567-3.679,2.346,38.071-9.71,51.94-3.014,51.94,24.121,0,32.05-40.621,58.74-25.753,76.944,15,18.2,49.238,88,45.147,152.878-3.972,64.879-2.691,86.662-24.777,132.55-22.215,46.007-28.868,80.634-104.869,120.16,128.788-11.054,175.356,23.119,210.03,50.6,24.494,19.317,46.427,63.535,57.464,88.1a397.2,397.2,0,0,0,37.941-48.019c-100.354-57.729-189.1-158.238-189.1-158.238,40.057-73.707,46.134-165.156,48.826-222.338-12.871-35.287-59.733-68.116-44.018-156.114,10.722-60.384,3.592-81.011-14.977-81.011-11.091,0-26.285,7.372-44.181,18.024" transform="translate(-59.924 -15.021)" fill="none"/>
    </clipPath>
    <linearGradient id="linear-gradient-2" x1="-2.129" y1="1.184" x2="-2.094" y2="1.184" gradientUnits="objectBoundingBox">
      <stop offset="0" stop-color="#f7b08a"/>
      <stop offset="0.394" stop-color="#f0a582"/>
      <stop offset="1" stop-color="#e38c72"/>
    </linearGradient>
    <clipPath id="clip-path-5">
      <path id="Trazado_705266" data-name="Trazado 705266" d="M113.706,118.357c-4.254,2.791-13.739,4.915-26.47,6.473a222.471,222.471,0,0,1-2.691,45.9c-10.9,67.893-93.56,44.329-46.851,103.745C84.545,333.768,187.45,393.629,260.607,412.39,324.3,462.644,394.8,588.832,394.8,588.832S453.11,593.4,526.571,569.18c-78.128-7.038-128.94-30.158-160.228-77.732-38.635-58.74-28.456-115.467-28.456-115.467s-76.142,8.263-161.91-24.344-88.036-92.46-88.036-92.46,45.006-10.164,53.08-31.493c8.2-21.441,18.688-18.2,33.252-24.9,14.586-6.7,29.877-27.589,25.764-40.655-4.243-12.947-47.133-32.6-47.133-32.6l2.409-32.615-8.5,10.729S143.29,83.738,156.3,43.314c-13.87,38.421-20.1,60.084-42.6,75.043" transform="translate(-23.508 -43.314)" fill="none"/>
    </clipPath>
    <linearGradient id="linear-gradient-3" x1="-0.416" y1="0.992" x2="-0.395" y2="0.992" xlink:href="#linear-gradient-2"/>
    <clipPath id="clip-path-6">
      <path id="Trazado_705268" data-name="Trazado 705268" d="M28.993,79.627C24.316,85.544,11.716,101.3,17.8,114.691,20.354,120.5,27.712,132,40.03,143.847a128.427,128.427,0,0,0,44.3,28.025,128.426,128.426,0,0,0,30.713,6.919c56.607-6.139,90.152-32.829,90.152-74.478C158.909,108.663,63.949,54.5,63.949,54.5,43.557,59.642,33.79,73.821,28.993,79.627" transform="translate(-16.175 -54.504)" fill="none"/>
    </clipPath>
    <linearGradient id="linear-gradient-4" x1="-0.669" y1="2.511" x2="-0.621" y2="2.511" xlink:href="#linear-gradient"/>
    <clipPath id="clip-path-7">
      <path id="Trazado_705269" data-name="Trazado 705269" d="M42.448,0C31.259.1,22.859,4.572,18.594,12.638,61.625,1.7,102.246,25.482,102.246,55.409c0,33.951,18.959,37.076,36.1,45.673s51.094,31.382,51.094,50.588c0,19.317,21.651.334,35.662,44.56s17.125,25.679,43.313,54.947c26.176,29.139,42.032,68,84.5,79.727,42.466,11.834,81.242,25.012,96.675,23.564,15.281-1.456,23.485-15.524,23.485-15.524C372.15,336.82,302.943,267.36,263.732,218.116,224.392,168.975,151.929,66.463,98.567,24.472,77.415,7.724,58,.146,43.262,0Z" transform="translate(-18.594)" fill="none"/>
    </clipPath>
    <linearGradient id="linear-gradient-5" x1="-0.444" y1="2.576" x2="-0.42" y2="2.576" xlink:href="#linear-gradient-2"/>
    <clipPath id="clip-path-8">
      <path id="Trazado_705270" data-name="Trazado 705270" d="M5.774,26.246C-2.159,35.3-1.313,46.12,4.645,57.628c2.681-25.354,20.935-30.26,42.738-30.26,25.189,0,65.962,22.443,76.283,44.885,10.484,22.451,23.919,37.419,55.62,43.781,31.57,6.473,66.385,30.706,69.077,47.8s63.694,30.26,76.283,54.159C337.4,241.888,348.152,198,348.152,198s-46.992-15.635-96.675-59.074C201.794,95.373,109.232,41.214,85.736,26.246c-13.2-8.4-29.769-15.361-45.711-15.361-12.448,0-24.505,4.247-34.251,15.361" transform="translate(0 -10.885)" fill="none"/>
    </clipPath>
    <linearGradient id="linear-gradient-6" x1="0.006" y1="3.564" x2="0.037" y2="3.564" xlink:href="#linear-gradient-2"/>
    <clipPath id="clip-path-9">
      <path id="Trazado_705271" data-name="Trazado 705271" d="M28.993,79.627C24.316,85.544,11.716,101.3,17.8,114.691,20.354,120.5,27.712,132,40.03,143.847c2.116-40.1,19.947-55.169,44.018-48.7,27.587,7.475,60.427,14.856,60.427,31.493,0,13.281-30.138,33.5-60.145,45.228a128.426,128.426,0,0,0,30.713,6.919c56.607-6.139,90.152-32.829,90.152-74.478C158.909,108.663,63.949,54.5,63.949,54.5,43.557,59.642,33.79,73.821,28.993,79.627" transform="translate(-16.175 -54.504)" fill="none"/>
    </clipPath>
    <linearGradient id="linear-gradient-7" x1="-0.884" y1="3.621" x2="-0.828" y2="3.621" xlink:href="#linear-gradient-2"/>
    <clipPath id="clip-path-10">
      <path id="Trazado_705273" data-name="Trazado 705273" d="M49.656,55.623S24.185,78.075,20.223,89.574c-2.127,5.805-1.7,16.3.846,26.69,2.4,10.386,7.076,20.439,13.729,25.688,10.191,8.032,54.068,31.707,91.433,44.783,11.178,3.9,21.792,6.807,30.854,8.143,22.79,3.245,45.993-.89,62.978-8.486,12.177-5.352,20.956-12.39,24.342-19.874,3.679-7.929,5.947-17.425,2.127-26.022-4.808-10.72-19.383-19.874-53.221-22.34,0-18.975-44.441-29.361-44.441-29.361s7.5-26.467-30.138-44.894A212.754,212.754,0,0,0,49.656,55.623" transform="translate(-18.86 -43.901)" fill="none"/>
    </clipPath>
    <linearGradient id="linear-gradient-8" x1="-0.602" y1="2.45" x2="-0.565" y2="2.45" xlink:href="#linear-gradient"/>
    <clipPath id="clip-path-11">
      <path id="Trazado_705274" data-name="Trazado 705274" d="M49.656,55.623S24.185,78.075,20.223,89.574c-2.127,5.805-1.7,16.3.846,26.69,23.767-44.115,40.187-43.772,63.119-42.1,24.918,1.79,33.263,6.371,41.2,28.145,7.781,21.775,56.477,14.4,56.477,38.189,0,19.206-28.455,36.965-55.63,46.238,11.178,3.9,21.792,6.807,30.854,8.143,22.79,3.245,45.993-.89,62.978-8.486,12.177-5.352,20.956-12.39,24.342-19.874,3.679-7.929,5.947-17.425,2.127-26.022-4.808-10.72-19.383-19.874-53.221-22.34,0-18.975-44.441-29.361-44.441-29.361s7.5-26.467-30.138-44.894A212.754,212.754,0,0,0,49.656,55.623" transform="translate(-18.86 -43.901)" fill="none"/>
    </clipPath>
    <linearGradient id="linear-gradient-9" x1="-0.878" y1="3.507" x2="-0.831" y2="3.507" xlink:href="#linear-gradient-2"/>
    <clipPath id="clip-path-12">
      <path id="Trazado_705276" data-name="Trazado 705276" d="M50.575,63.556S54.808,83.884,37.4,101.078C49.577,95.726,58.356,88.688,61.742,81.2c3.679-7.929,5.947-17.425,2.127-26.022a31.8,31.8,0,0,1-13.294,8.374" transform="translate(-37.4 -55.182)" fill="none"/>
    </clipPath>
    <linearGradient id="linear-gradient-10" x1="-6.473" y1="15.843" x2="-6.293" y2="15.843" xlink:href="#linear-gradient-2"/>
    <clipPath id="clip-path-13">
      <path id="Trazado_705278" data-name="Trazado 705278" d="M118.042,266.908C71.7,213.666,68.532,144.086,109.913,88.351c-17.787,3.793-31.852,14.522-37.268,28.419a133.5,133.5,0,0,1,8.3-71.19C20.8,116.18,36.7,211.08,118.042,266.908" transform="translate(-44.585 -45.581)" fill="none"/>
    </clipPath>
    <linearGradient id="linear-gradient-11" x1="-2.662" y1="2.28" x2="-2.595" y2="2.28" xlink:href="#linear-gradient-2"/>
    <clipPath id="clip-path-14">
      <rect id="Rectángulo_345530" data-name="Rectángulo 345530" width="955.755" height="916.743" fill="none"/>
    </clipPath>
  </defs>
  <g id="Grupo_1000152" data-name="Grupo 1000152" transform="translate(42 6078)">
    <path id="Trazado_705262" data-name="Trazado 705262" d="M15,0H1225c8.284,0,15,7.942,15,17.738V471.83c0,9.8-6.716,17.738-15,17.738H15c-8.284,0-15-7.942-15-17.738V17.738C0,7.942,6.716,0,15,0Z" transform="translate(-42 -6077.568)" fill="#f6f6f6" opacity="0.997"/>
    <g id="Enmascarar_grupo_998557" data-name="Enmascarar grupo 998557" transform="translate(-42 -6132)" clip-path="url(#clip-path)">
      <g id="Grupo_1000151" data-name="Grupo 1000151" transform="translate(-1 0)">
        <g id="Enmascarar_grupo_998556" data-name="Enmascarar grupo 998556" transform="translate(0 0)" clip-path="url(#clip-path-2)">
          <g id="Grupo_1000150" data-name="Grupo 1000150" transform="translate(-183.319 -82.606)" opacity="0.07">
            <g id="Grupo_1000127" data-name="Grupo 1000127" transform="translate(0)">
              <g id="Grupo_1000126" data-name="Grupo 1000126" clip-path="url(#clip-path-3)">
                <path id="Trazado_705263" data-name="Trazado 705263" d="M0,0,1174.713,103.444l94.95,1281.772L94.95,1281.772Z" transform="matrix(0.367, -0.93, 0.93, 0.367, -400.329, 797.169)" fill="url(#linear-gradient)"/>
              </g>
            </g>
            <g id="Grupo_1000129" data-name="Grupo 1000129" transform="translate(650.331 128.62)">
              <g id="Grupo_1000128" data-name="Grupo 1000128" clip-path="url(#clip-path-4)">
                <rect id="Rectángulo_345524" data-name="Rectángulo 345524" width="305.435" height="665.721" transform="translate(0 0)" fill="url(#linear-gradient-2)"/>
              </g>
            </g>
            <g id="Grupo_1000131" data-name="Grupo 1000131" transform="translate(255.121 370.883)">
              <g id="Grupo_1000130" data-name="Grupo 1000130" clip-path="url(#clip-path-5)">
                <rect id="Rectángulo_345525" data-name="Rectángulo 345525" width="535.586" height="550.09" transform="translate(-32.523 0)" fill="url(#linear-gradient-3)"/>
              </g>
            </g>
            <g id="Grupo_1000133" data-name="Grupo 1000133" transform="translate(175.54 466.699)">
              <g id="Grupo_1000132" data-name="Grupo 1000132" clip-path="url(#clip-path-6)">
                <path id="Trazado_705267" data-name="Trazado 705267" d="M0,0,191.15,19.83,212.3,253.2l-191.15-19.83Z" transform="translate(-69.061 97.694) rotate(-62.447)" fill="url(#linear-gradient-4)"/>
              </g>
            </g>
            <g id="Grupo_1000135" data-name="Grupo 1000135" transform="translate(201.794)">
              <g id="Grupo_1000134" data-name="Grupo 1000134" clip-path="url(#clip-path-7)">
                <rect id="Rectángulo_345526" data-name="Rectángulo 345526" width="454.474" height="355.915" transform="translate(0)" fill="url(#linear-gradient-5)"/>
              </g>
            </g>
            <g id="Grupo_1000137" data-name="Grupo 1000137" transform="translate(0 93.204)">
              <g id="Grupo_1000136" data-name="Grupo 1000136" clip-path="url(#clip-path-8)">
                <rect id="Rectángulo_345527" data-name="Rectángulo 345527" width="350.311" height="231.003" transform="translate(-2.159 0)" fill="url(#linear-gradient-6)"/>
              </g>
            </g>
            <g id="Grupo_1000139" data-name="Grupo 1000139" transform="translate(175.54 466.699)">
              <g id="Grupo_1000138" data-name="Grupo 1000138" clip-path="url(#clip-path-9)">
                <rect id="Rectángulo_345528" data-name="Rectángulo 345528" width="193.48" height="124.287" transform="translate(-4.459 0)" fill="url(#linear-gradient-7)"/>
              </g>
            </g>
            <g id="Grupo_1000141" data-name="Grupo 1000141" transform="translate(204.685 375.909)">
              <g id="Grupo_1000140" data-name="Grupo 1000140" clip-path="url(#clip-path-10)">
                <path id="Trazado_705272" data-name="Trazado 705272" d="M0,0,247.254,27.974l29.019,282.4L29.019,282.4Z" transform="translate(-90.005 108.55) rotate(-57.031)" fill="url(#linear-gradient-8)"/>
              </g>
            </g>
            <g id="Grupo_1000143" data-name="Grupo 1000143" transform="translate(204.685 375.909)">
              <g id="Grupo_1000142" data-name="Grupo 1000142" clip-path="url(#clip-path-11)">
                <rect id="Rectángulo_345529" data-name="Rectángulo 345529" width="232.256" height="154.222" transform="translate(-0.764 0)" fill="url(#linear-gradient-9)"/>
              </g>
            </g>
            <g id="Grupo_1000145" data-name="Grupo 1000145" transform="translate(405.888 472.504)">
              <g id="Grupo_1000144" data-name="Grupo 1000144" clip-path="url(#clip-path-12)">
                <path id="Trazado_705275" data-name="Trazado 705275" d="M0,0,47.722,1,48.3,35.756l-47.722-1Z" transform="matrix(0.079, -0.997, 0.997, 0.079, -4.588, 45.609)" fill="url(#linear-gradient-10)"/>
              </g>
            </g>
            <g id="Grupo_1000147" data-name="Grupo 1000147" transform="translate(483.868 390.294)">
              <g id="Grupo_1000146" data-name="Grupo 1000146" clip-path="url(#clip-path-13)">
                <path id="Trazado_705277" data-name="Trazado 705277" d="M0,0,158.98,7.808,173.324,244.5l-158.98-7.808Z" transform="matrix(0.972, -0.237, 0.237, 0.972, -88.302, 12.403)" fill="url(#linear-gradient-11)"/>
              </g>
            </g>
            <g id="Grupo_1000149" data-name="Grupo 1000149" transform="translate(0.001)">
              <g id="Grupo_1000148" data-name="Grupo 1000148" clip-path="url(#clip-path-14)">
                <path id="Trazado_705279" data-name="Trazado 705279" d="M61.26,42.348c2.854-1.8,5.936-3.314,8.964-4.975,3.234-1.319,6.446-2.714,9.778-3.93a104.128,104.128,0,0,1,21.152-5.052,90.291,90.291,0,0,1,22.237-.171c7.315.968,14.673,2.7,20.533,6.285a107.594,107.594,0,0,0-20.978-2,167.758,167.758,0,0,0-20.663,1.4c-6.881.745-13.587,2.252-20.446,3.571Z" transform="translate(603.57 208.778)" fill="#e08172"/>
                <path id="Trazado_705280" data-name="Trazado 705280" d="M33.623,53.884C46.614,50.416,59.3,47.65,71.173,43.429a126.27,126.27,0,0,0,17.169-7.073,58.433,58.433,0,0,0,14.727-10.275c-1.617,5.386-6.273,9.924-11.384,13.657a66.363,66.363,0,0,1-17.679,8.811A104.5,104.5,0,0,1,54.124,53.13l-10.223.9c-3.451-.051-6.848.077-10.277-.146" transform="translate(331.274 197.241)" fill="#e08172"/>
                <path id="Trazado_705281" data-name="Trazado 705281" d="M29.627,45.707c9.778-4.35,19.133-8.066,27.859-12.647A113.535,113.535,0,0,0,81.578,16.842c-1.031,4.427-4.1,8.366-7.6,11.885a52.734,52.734,0,0,1-12.611,8.991,70.683,70.683,0,0,1-15.259,5.7,71.674,71.674,0,0,1-16.485,2.286" transform="translate(291.903 127.37)" fill="#e08172"/>
                <path id="Trazado_705282" data-name="Trazado 705282" d="M24.8,31.881c5.676-6.1,13.284-10.549,21.239-14.257,8.1-3.545,16.68-6.482,26.187-7.484-7.174,4.975-14.868,8.691-22.671,12.322-3.983,1.7-7.868,3.5-12.025,5.009-4.113,1.55-8.183,3.168-12.73,4.41" transform="translate(244.334 76.685)" fill="#e08172"/>
                <path id="Trazado_705283" data-name="Trazado 705283" d="M9.94,59.413c5.708-2.56,11.363-4.667,16.485-7.449a108.758,108.758,0,0,0,14.51-8.845A104.754,104.754,0,0,0,64.149,20.213c-.543,5.18-2.974,10.13-6.132,14.711A49.994,49.994,0,0,1,45.7,47.245,67.614,67.614,0,0,1,9.94,59.413" transform="translate(97.935 152.864)" fill="#e08172"/>
                <path id="Trazado_705284" data-name="Trazado 705284" d="M19.6,74.411c4.015-3.862,8.237-7.244,11.97-10.994,3.766-3.691,7.488-7.355,10.885-11.226a302.507,302.507,0,0,0,19.6-24.112c-.434,4.992-2.333,9.77-4.7,14.36A59.373,59.373,0,0,1,48.2,55.445,70.246,70.246,0,0,1,19.6,74.411" transform="translate(193.071 212.352)" fill="#e08172"/>
                <path id="Trazado_705285" data-name="Trazado 705285" d="M29.627,73.761c1.519-3.691,3.527-6.987,5.285-10.378l5.491-9.95c3.8-6.576,7.347-13.135,11.808-19.942a28.412,28.412,0,0,1-.944,11.388A44.176,44.176,0,0,1,46.861,55.7,50.283,50.283,0,0,1,29.627,73.761" transform="translate(291.903 253.281)" fill="#e08172"/>
                <path id="Trazado_705286" data-name="Trazado 705286" d="M20.885,89.575C20,80.926,23.534,72.064,29.7,64.786A48.068,48.068,0,0,1,40.865,55.11a46.417,46.417,0,0,1,14.347-6.345c-7.423,6.328-14.054,12.382-19.643,19.129a103.865,103.865,0,0,0-7.846,10.361c-2.529,3.579-4.363,7.407-6.837,11.32" transform="translate(204.436 368.793)" fill="#e08172"/>
                <path id="Trazado_705287" data-name="Trazado 705287" d="M33.592,95.138c3.028-3.374,6.284-6.268,9.105-9.427,2.854-3.117,5.589-6.225,8.1-9.445a154.13,154.13,0,0,0,13.653-20.55c.76,4.11-.054,8.237-1.389,12.2a37.124,37.124,0,0,1-6.262,11.294,49.2,49.2,0,0,1-23.2,15.927" transform="translate(330.968 421.361)" fill="#e08172"/>
                <path id="Trazado_705288" data-name="Trazado 705288" d="M26.672,102.25c3.657-3.194,7.239-6.028,10.408-9.179,3.082-3.194,6.273-6.242,9.073-9.582C52,76.948,57.222,70.1,63.256,63.042a34.321,34.321,0,0,1-3.733,12.373,51.292,51.292,0,0,1-7.575,11.268c-6.219,6.91-14.8,13.092-25.276,15.567" transform="translate(262.788 476.765)" fill="#e08172"/>
                <path id="Trazado_705289" data-name="Trazado 705289" d="M17.769,100.446c-.695-8.3,2.464-16.363,6.62-23.719,4.45-7.287,9.974-14.223,17.777-19.763-3.1,7.869-7.26,14.959-11.363,22.1-4.276,7.107-8.335,14.034-13.034,21.381" transform="translate(174.126 430.806)" fill="#e08172"/>
                <path id="Trazado_705290" data-name="Trazado 705290" d="M46.422,114.775,65.968,106.9c6.349-2.749,12.8-5.283,19.057-8.117,12.708-5.429,25.124-11.2,38.3-16.612a101.5,101.5,0,0,1-16.3,11.911,152.378,152.378,0,0,1-18.59,9.59c-13,5.549-27.164,9.89-42.01,11.106" transform="translate(457.377 621.408)" fill="#e08172"/>
                <path id="Trazado_705291" data-name="Trazado 705291" d="M178.934,69.587c-4.981,8.957-13.164,16.706-22.1,23.487a185.141,185.141,0,0,1-29.562,17.862A264.252,264.252,0,0,1,59,133.207c22.2-8.434,44-16.851,64.529-27.007,20.435-10.164,40.361-21.227,55.4-36.614" transform="translate(581.323 526.262)" fill="#e08172"/>
              </g>
            </g>
          </g>
        </g>
      </g>
    </g>
  </g>
</svg>
