<svg xmlns="http://www.w3.org/2000/svg" xmlns:xlink="http://www.w3.org/1999/xlink" width="83.213" height="83.213" viewBox="0 0 83.213 83.213">
  <defs>
    <clipPath id="clip-path">
      <rect id="Rectángulo_33847" data-name="Rectángulo 33847" width="83.213" height="83.213" fill="none"/>
    </clipPath>
    <clipPath id="clip-path-2">
      <rect id="Rectángulo_344427" data-name="Rectángulo 344427" width="73.928" height="67.603" fill="none"/>
    </clipPath>
    <clipPath id="clip-path-3">
      <circle id="Elipse_4783" data-name="Elipse 4783" cx="33.802" cy="33.802" r="33.802" transform="translate(0 47.803) rotate(-45)" fill="none"/>
    </clipPath>
    <clipPath id="clip-path-4">
      <rect id="Rectángulo_344424" data-name="Rectángulo 344424" width="37.126" height="52.637" fill="none"/>
    </clipPath>
    <clipPath id="clip-path-5">
      <path id="Trazado_696503" data-name="Trazado 696503" d="M50.622,218.187a3.986,3.986,0,0,0-.989-2.91l-.041-.236c.045-.2.087-.392.123-.59.025-.147.048-.294.067-.443s.031-.3.038-.448a3.516,3.516,0,0,0-.006-.454,1.838,1.838,0,0,0-.086-.457c-.006-.019-.014-.038-.021-.056s-.014-.038-.024-.055c-.018-.035-.034-.072-.055-.106l-.033-.052-.017-.026-.02-.025-.04-.049-.048-.045a.424.424,0,0,0-.259-.107.406.406,0,0,0-.143.024l-.014.006c-.177-.3-.816-1.373-1.115-1.967-.1-.2-.2-.435-.312-.685a5.765,5.765,0,0,0-.931-1.656c-.505-.492-4.063-3.059-5.508-3.2a12.164,12.164,0,0,0-3.822.782c-.628.19-1.226.371-1.739.493a13.67,13.67,0,0,0,1.508-3.527,11.207,11.207,0,0,0,3.348-2.686c.193-.12,1.56-.969,2.253-1.3a2.689,2.689,0,0,0,1.108-1.065,2.435,2.435,0,0,0,.269-1.8,1.884,1.884,0,0,0-.8-1.34.73.73,0,0,0-.469-.062.114.114,0,0,0-.03-.015.133.133,0,0,0-.027-.006h-.021a.2.2,0,0,0-.049.01.575.575,0,0,0-.111.056c-.063.039-.119.082-.175.124-.11.086-.216.176-.319.268s-.2.181-.293.273a3.685,3.685,0,0,1-1.276.5A12.837,12.837,0,0,0,36.4,197.6c-.187.155-.591.472-1.058.839-.921.723-2.067,1.622-2.4,1.948a4.187,4.187,0,0,0-.6.83c-.153.247-.327.528-.56.849a20.936,20.936,0,0,0,1.252-2.663,15.3,15.3,0,0,1,1.391-2.021c.609-.657.884-1.373.379-2.912-.227-.69-.62-.857-.909-.876a1.24,1.24,0,0,0-.666.169l-.025-.014a.356.356,0,0,0-.179-.031.33.33,0,0,0-.092.02l-.023.009a.2.2,0,0,0-.027.016l-.013.009-.009.008-.018.016a.845.845,0,0,0-.093.121c-.026.04-.05.079-.073.12-.09.16-.171.322-.246.486-.057.122-.112.244-.166.367a5.938,5.938,0,0,1-.985,1.258,6.765,6.765,0,0,0-1.371,1.867,3.859,3.859,0,0,1-.491.775,7.292,7.292,0,0,0-.9,1.484,7.173,7.173,0,0,1-.692,1.242c-.076.112-.144.211-.207.322a1.967,1.967,0,0,0-.535-.926,1.49,1.49,0,0,0-2.039-.3l-.057.055.006.014,0,0a.2.2,0,0,0-.055.06.247.247,0,0,0-.028.073,1.192,1.192,0,0,0,.091.526l.256.9c0,.177-.008.368-.027.572s-.038.386-.056.556a4.866,4.866,0,0,0,.088,2.257c.039.12.088.268.144.435a18.26,18.26,0,0,1,.879,3.2,3.707,3.707,0,0,0-.76,1.477c-.049.259-.089,1.017-.143,2.066-.106,2.04-.266,5.123-.653,7.631-.58,3.767-1.544,5.484-4.245,9.894-2.636,4.3-5.857,9.907-5.889,9.964l-.059.1,10.9,5.6.053-.1c.056-.1,5.608-10.455,9.033-13.983a29.065,29.065,0,0,1,6.288-4.7,17.219,17.219,0,0,0,2.67-1.809c1.626-1.507,4.139-3.668,5.272-4.535a4.271,4.271,0,0,0,1.885-2.682m-8.094-.008a3.029,3.029,0,0,1-1.8.5,1.541,1.541,0,0,1-1.178-.518,9.076,9.076,0,0,0-1.278-1.294,4.661,4.661,0,0,1-.382-.348c-.311-.329-1.623-2.06-1.947-2.49a4.122,4.122,0,0,0,.887-1.084c.164-.251.334-.51.525-.747a1.331,1.331,0,0,0,.347-1.134,5.629,5.629,0,0,0,3.57-1.1,3.975,3.975,0,0,0,2.19,1.1,13.018,13.018,0,0,0,2.629,2.941,8.644,8.644,0,0,0-.909,1.893,18.935,18.935,0,0,0-2.657,2.276" transform="translate(-14.519 -193.591)" fill="none"/>
    </clipPath>
    <clipPath id="clip-path-6">
      <rect id="Rectángulo_344423" data-name="Rectángulo 344423" width="35.878" height="48.933" fill="none"/>
    </clipPath>
    <clipPath id="clip-path-8">
      <path id="Trazado_696533" data-name="Trazado 696533" d="M534.758,55.013a3.986,3.986,0,0,0,.989,2.91l.041.236c-.045.2-.087.392-.123.59-.025.147-.048.294-.067.443s-.031.3-.038.448a3.508,3.508,0,0,0,.006.454,1.842,1.842,0,0,0,.086.457c.006.019.014.038.021.056s.014.038.024.055c.019.035.034.072.055.106l.033.052.017.026.02.025.04.049.048.045a.424.424,0,0,0,.26.107.405.405,0,0,0,.143-.024l.015-.006c.177.3.816,1.373,1.115,1.967.1.2.2.435.312.685a5.76,5.76,0,0,0,.931,1.656c.505.492,4.063,3.059,5.508,3.2a12.164,12.164,0,0,0,3.822-.782c.628-.19,1.226-.371,1.739-.493a13.669,13.669,0,0,0-1.508,3.527,11.209,11.209,0,0,0-3.348,2.686c-.193.12-1.56.969-2.253,1.3a2.689,2.689,0,0,0-1.108,1.065,2.435,2.435,0,0,0-.269,1.8,1.884,1.884,0,0,0,.8,1.34.73.73,0,0,0,.469.062.114.114,0,0,0,.03.015.135.135,0,0,0,.027.006h.021a.2.2,0,0,0,.049-.01.575.575,0,0,0,.111-.056c.063-.039.119-.082.175-.124.11-.086.216-.176.319-.268s.2-.181.293-.273a3.684,3.684,0,0,1,1.276-.5,12.838,12.838,0,0,0,4.143-2.249c.187-.155.591-.472,1.058-.839.921-.723,2.067-1.622,2.4-1.948a4.183,4.183,0,0,0,.6-.83c.153-.247.327-.528.56-.849a20.965,20.965,0,0,0-1.252,2.663,15.3,15.3,0,0,1-1.391,2.021c-.609.657-.884,1.373-.379,2.912.227.69.62.857.909.876a1.24,1.24,0,0,0,.666-.169l.025.014a.356.356,0,0,0,.179.031.332.332,0,0,0,.091-.02l.023-.009a.2.2,0,0,0,.027-.016l.013-.009.009-.008.018-.016a.835.835,0,0,0,.093-.121c.026-.04.05-.079.073-.12.09-.16.171-.322.246-.486.057-.122.112-.244.166-.367a5.941,5.941,0,0,1,.984-1.258,6.765,6.765,0,0,0,1.371-1.867,3.857,3.857,0,0,1,.491-.775,7.291,7.291,0,0,0,.9-1.484,7.173,7.173,0,0,1,.692-1.242c.076-.112.144-.211.207-.322a1.967,1.967,0,0,0,.535.926,1.49,1.49,0,0,0,2.039.3l.057-.055-.006-.014,0,0a.2.2,0,0,0,.055-.06.248.248,0,0,0,.028-.073,1.192,1.192,0,0,0-.091-.526l-.256-.9c0-.177.008-.368.027-.572s.038-.386.056-.557a4.864,4.864,0,0,0-.088-2.257c-.039-.121-.088-.268-.143-.435a18.25,18.25,0,0,1-.879-3.2,3.707,3.707,0,0,0,.76-1.477c.049-.259.089-1.017.143-2.066.106-2.04.266-5.123.652-7.631.58-3.767,1.544-5.484,4.245-9.894,2.636-4.3,5.857-9.907,5.889-9.964l.059-.1-10.9-5.6-.053.1c-.056.1-5.608,10.455-9.033,13.983a29.063,29.063,0,0,1-6.288,4.7,17.224,17.224,0,0,0-2.67,1.809c-1.626,1.507-4.139,3.668-5.272,4.535a4.271,4.271,0,0,0-1.885,2.682m8.094.008a3.03,3.03,0,0,1,1.8-.5,1.541,1.541,0,0,1,1.178.518,9.078,9.078,0,0,0,1.278,1.294,4.662,4.662,0,0,1,.382.348c.311.329,1.623,2.06,1.947,2.49a4.122,4.122,0,0,0-.887,1.084c-.164.251-.334.51-.525.747a1.331,1.331,0,0,0-.347,1.134,5.629,5.629,0,0,0-3.57,1.1,3.975,3.975,0,0,0-2.19-1.1,13.015,13.015,0,0,0-2.629-2.941,8.643,8.643,0,0,0,.909-1.893,18.93,18.93,0,0,0,2.657-2.276" transform="translate(-534.733 -27.201)" fill="none"/>
    </clipPath>
  </defs>
  <g id="Grupo_1000311" data-name="Grupo 1000311" transform="translate(12996.546 11629.278)">
    <g id="Grupo_1000124" data-name="Grupo 1000124" transform="translate(-12996.546 -11629.278)">
      <g id="Grupo_80331" data-name="Grupo 80331" transform="translate(0 0)" clip-path="url(#clip-path)">
        <path id="Trazado_113698" data-name="Trazado 113698" d="M83.213,41.607A41.607,41.607,0,1,1,41.607,0,41.607,41.607,0,0,1,83.213,41.607" fill="#4db1f0"/>
        <g id="Grupo_930054" data-name="Grupo 930054" transform="translate(4.643 7.805)">
          <g id="Grupo_930053" data-name="Grupo 930053" clip-path="url(#clip-path-2)">
            <g id="Grupo_930052" data-name="Grupo 930052" transform="translate(-10.839 -14.001)">
              <g id="Grupo_930051" data-name="Grupo 930051" transform="translate(0)" clip-path="url(#clip-path-3)">
                <path id="Trazado_696474" data-name="Trazado 696474" d="M51.664,216.864l-.524-3.031s-.813-1.35-1.165-2.052a10.173,10.173,0,0,0-1.221-2.31c-.484-.471-4.043-3.032-5.44-3.171s-4.149.994-5.79,1.331a13.433,13.433,0,0,0,1.651-3.772s2.6-1.421,3.363-2.693c0,0,1.529-.959,2.287-1.322a2.491,2.491,0,0,0,1.316-2.736c-.31-1.293-.9-1.443-1.278-1.272A4.749,4.749,0,0,1,42.7,197a12.85,12.85,0,0,0-4.095,2.226c-.552.458-2.951,2.293-3.456,2.781s-.726,1.28-1.851,2.522a1.9,1.9,0,0,1,.273-.593,18.861,18.861,0,0,0,1.482-3.044,15.549,15.549,0,0,1,1.411-2.05c.586-.633.847-1.3.354-2.8s-1.841-.543-2.143.087a5.875,5.875,0,0,1-1.191,1.637,6.453,6.453,0,0,0-1.346,1.831c-.3.68-.837,1.033-1.392,2.261s-.825,1.292-1.051,1.889a1.987,1.987,0,0,0-.565-1.215c-.524-.49-1.328-.821-1.883-.3a4.683,4.683,0,0,1,.215,2.127,6.207,6.207,0,0,0,.027,2.768,20.719,20.719,0,0,1,1.027,3.717,3.7,3.7,0,0,0-.761,1.455c-.141.743-.209,5.89-.795,9.693s-1.595,5.584-4.26,9.936-5.888,9.961-5.888,9.961l10.7,5.493s5.576-10.428,9.052-14.008,7.308-4.984,8.962-6.518,4.169-3.692,5.28-4.542,3.068-2.573.858-5.454m-4.247.661a17.7,17.7,0,0,0-2.669,2.274c-.335.34-2.271,1.026-3.143-.026a14.255,14.255,0,0,0-1.655-1.636c-.363-.383-2.028-2.6-2.028-2.6.568-.344.937-1.191,1.487-1.874a1.1,1.1,0,0,0,.275-1.184,5.5,5.5,0,0,0,3.737-1.13,3.841,3.841,0,0,0,2.245,1.147c1.955,2.659,2.727,3.013,2.727,3.013a8.483,8.483,0,0,0-.975,2.012" transform="translate(-4.82 -167.806)" fill="#ffdbac"/>
                <path id="Trazado_696475" data-name="Trazado 696475" d="M25.421,246l-10.9-5.6.059-.1c.032-.056,3.254-5.66,5.889-9.964,2.7-4.41,3.665-6.127,4.245-9.894.386-2.507.547-5.59.653-7.631.055-1.049.094-1.807.143-2.066a3.707,3.707,0,0,1,.76-1.477,18.256,18.256,0,0,0-.879-3.2c-.055-.167-.1-.315-.144-.435a4.864,4.864,0,0,1-.088-2.257c.018-.171.037-.355.056-.557a4.639,4.639,0,0,0-.207-2.072l-.031-.073.057-.055a1.49,1.49,0,0,1,2.039.3,1.967,1.967,0,0,1,.535.926c.063-.111.13-.21.207-.322a7.172,7.172,0,0,0,.692-1.242,7.293,7.293,0,0,1,.9-1.484,3.864,3.864,0,0,0,.491-.775,6.765,6.765,0,0,1,1.371-1.867,5.777,5.777,0,0,0,1.168-1.6,1.746,1.746,0,0,1,1.444-.949c.289.019.682.186.909.876.506,1.539.23,2.255-.379,2.912a15.3,15.3,0,0,0-1.391,2.021,20.946,20.946,0,0,1-1.252,2.663c.233-.321.407-.6.56-.849a4.187,4.187,0,0,1,.6-.83c.337-.326,1.483-1.226,2.4-1.948.468-.367.871-.684,1.058-.839a12.838,12.838,0,0,1,4.143-2.249,3.441,3.441,0,0,0,1.765-.884,1.63,1.63,0,0,1,.371-.274.731.731,0,0,1,.633.009,1.883,1.883,0,0,1,.8,1.34,2.435,2.435,0,0,1-.269,1.8,2.689,2.689,0,0,1-1.108,1.065c-.693.332-2.061,1.182-2.253,1.3a11.208,11.208,0,0,1-3.348,2.686,13.67,13.67,0,0,1-1.508,3.527c.513-.121,1.111-.3,1.739-.493a12.166,12.166,0,0,1,3.822-.782c1.445.144,5,2.711,5.508,3.2a5.762,5.762,0,0,1,.931,1.656c.109.249.212.485.312.685.347.69,1.153,2.031,1.161,2.045l.011.018,0,.021.52,3a3.986,3.986,0,0,1,.989,2.91,4.271,4.271,0,0,1-1.885,2.682c-1.133.866-3.646,3.028-5.272,4.535a17.222,17.222,0,0,1-2.67,1.809,29.066,29.066,0,0,0-6.288,4.7c-3.425,3.528-8.977,13.878-9.033,13.983Zm-10.586-5.692,10.491,5.388c.58-1.074,5.751-10.57,9.017-13.935a29.26,29.26,0,0,1,6.334-4.741,17.1,17.1,0,0,0,2.632-1.781c1.63-1.511,4.151-3.679,5.289-4.549a4.071,4.071,0,0,0,1.8-2.531,3.789,3.789,0,0,0-.961-2.764l-.017-.022-.526-3.038c-.1-.164-.83-1.388-1.159-2.042-.1-.205-.207-.443-.318-.7a5.658,5.658,0,0,0-.881-1.584c-.479-.466-4-3-5.372-3.14a12.315,12.315,0,0,0-3.734.773c-.744.225-1.446.438-2.022.556l-.271.056.154-.23a13.428,13.428,0,0,0,1.635-3.736l.012-.049.044-.024c.026-.014,2.578-1.421,3.32-2.652l.014-.023.023-.014c.063-.039,1.544-.967,2.3-1.328a2.386,2.386,0,0,0,1.254-2.607c-.192-.8-.476-1.089-.681-1.189a.5.5,0,0,0-.439-.006,1.472,1.472,0,0,0-.315.238,3.687,3.687,0,0,1-1.868.936,12.807,12.807,0,0,0-4.046,2.2c-.189.157-.594.475-1.063.843-.917.719-2.058,1.615-2.386,1.933a4.035,4.035,0,0,0-.57.787,10.8,10.8,0,0,1-1.277,1.73l-.3.334.108-.438a2.005,2.005,0,0,1,.293-.634,18.717,18.717,0,0,0,1.467-3.015l.008-.018a15.39,15.39,0,0,1,1.426-2.07c.567-.612.8-1.247.329-2.686-.15-.457-.389-.7-.708-.72a1.539,1.539,0,0,0-1.225.821,6.008,6.008,0,0,1-1.214,1.669,6.528,6.528,0,0,0-1.321,1.795,4.035,4.035,0,0,1-.517.82,7.006,7.006,0,0,0-.876,1.442A7.374,7.374,0,0,1,28,201.642a2.6,2.6,0,0,0-.337.606l-.19.5-.03-.535a1.887,1.887,0,0,0-.529-1.139c-.492-.46-1.188-.734-1.67-.346a5.035,5.035,0,0,1,.194,2.1c-.019.2-.038.387-.056.559a4.7,4.7,0,0,0,.078,2.164c.039.12.088.267.143.434a16.343,16.343,0,0,1,.889,3.325l0,.039-.025.029a3.6,3.6,0,0,0-.735,1.4c-.046.244-.085,1-.139,2.036-.106,2.045-.267,5.135-.655,7.653-.587,3.81-1.557,5.539-4.276,9.978-2.437,3.978-5.374,9.069-5.827,9.855m25.524-21.444a1.661,1.661,0,0,1-.981-.557,8.873,8.873,0,0,0-1.25-1.266,4.845,4.845,0,0,1-.4-.365c-.363-.383-1.968-2.515-2.036-2.605l-.076-.1.108-.065a3.478,3.478,0,0,0,.919-1.083c.167-.255.34-.519.538-.765.491-.609.273-1.04.263-1.059l-.094-.178.2.011a5.424,5.424,0,0,0,3.655-1.1l.08-.07.075.075a3.75,3.75,0,0,0,2.172,1.114l.053,0,.031.043c1.9,2.579,2.676,2.974,2.683,2.977l.118.057-.071.109a8.433,8.433,0,0,0-.961,1.981l-.015.051-.049.021a17.516,17.516,0,0,0-2.633,2.249,3.184,3.184,0,0,1-1.968.567,2.377,2.377,0,0,1-.363-.043m-4.413-4.834c.324.429,1.636,2.161,1.947,2.49a4.65,4.65,0,0,0,.382.348,9.078,9.078,0,0,1,1.278,1.294,1.541,1.541,0,0,0,1.178.518,3.029,3.029,0,0,0,1.8-.5,18.932,18.932,0,0,1,2.657-2.276,8.645,8.645,0,0,1,.909-1.893,13.015,13.015,0,0,1-2.629-2.941,3.974,3.974,0,0,1-2.19-1.1,5.628,5.628,0,0,1-3.57,1.1,1.331,1.331,0,0,1-.347,1.134c-.191.237-.361.5-.525.747a4.122,4.122,0,0,1-.887,1.084" transform="translate(-2.681 -166.266)" fill="#8d5524"/>
                <path id="Trazado_696476" data-name="Trazado 696476" d="M478.376,465.267a4.4,4.4,0,0,0-.782.25c-.062.027-.125.052-.186.082l-.092.044-.046.022-.045.024c-.059.033-.12.063-.178.1l-.173.105a.959.959,0,0,0-.085.055l-.084.057-.084.056c-.028.019-.053.041-.081.061-.054.041-.107.082-.162.123l-.155.133-.078.066c-.026.022-.049.047-.075.07l-.15.141-.038.035-.035.038c-.024.025-.047.05-.071.075-.048.05-.1.1-.148.147.034-.061.07-.12.107-.18.018-.03.037-.059.056-.089l.028-.044.031-.042.13-.166c.022-.027.043-.056.067-.082l.073-.076c.049-.051.1-.1.148-.151s.107-.092.161-.138c.027-.023.053-.046.082-.067l.086-.062.087-.061a.97.97,0,0,1,.089-.058l.183-.108c.063-.033.127-.063.19-.094l.048-.023.049-.02.1-.039c.065-.028.133-.047.2-.069a2.342,2.342,0,0,1,.832-.11" transform="translate(-432.056 -419.241)" fill="#8d5524"/>
                <path id="Trazado_696477" data-name="Trazado 696477" d="M436.01,422.307a4.114,4.114,0,0,0,.708-.3,5.434,5.434,0,0,0,.643-.4l.15-.117c.025-.02.051-.037.075-.058l.072-.062c.048-.042.1-.082.145-.124l.14-.131.071-.065.067-.069.136-.137c.047-.044.087-.095.133-.141s.089-.095.137-.141c-.03.058-.062.115-.094.172-.016.029-.033.057-.05.085s-.033.057-.052.083l-.115.16-.059.079-.064.075-.131.148c-.045.048-.095.092-.142.138a3.623,3.623,0,0,1-.3.256,3.225,3.225,0,0,1-.693.386,2.127,2.127,0,0,1-.77.165" transform="translate(-395.164 -377.613)" fill="#8d5524"/>
                <path id="Trazado_696478" data-name="Trazado 696478" d="M403.387,397.144a2.889,2.889,0,0,0,.19-.27c.059-.091.112-.186.164-.28a6.05,6.05,0,0,0,.274-.585l.059-.151c.02-.05.036-.1.055-.152.039-.1.069-.205.1-.308.019-.051.032-.1.048-.156s.032-.1.049-.157c.031-.105.059-.212.1-.318,0,.112,0,.223-.006.335-.006.055-.012.111-.019.166s-.013.111-.025.166a3.191,3.191,0,0,1-.078.327c-.016.054-.031.108-.05.161l-.06.158a2.92,2.92,0,0,1-.324.593,2.15,2.15,0,0,1-.218.259,1.322,1.322,0,0,1-.262.212" transform="translate(-364.786 -353.597)" fill="#8d5524"/>
                <path id="Trazado_696479" data-name="Trazado 696479" d="M331.367,426.3c-.051-.067-.1-.129-.156-.19s-.107-.121-.161-.179c-.108-.118-.219-.234-.331-.349s-.224-.23-.335-.348c-.056-.058-.112-.118-.166-.179s-.11-.122-.161-.19c.076.035.149.076.22.118s.138.091.206.139a3.1,3.1,0,0,1,.372.328,2.5,2.5,0,0,1,.312.39,1.81,1.81,0,0,1,.121.22.944.944,0,0,1,.078.24" transform="translate(-296.503 -381.625)" fill="#8d5524"/>
                <path id="Trazado_696480" data-name="Trazado 696480" d="M317.539,476.25a.852.852,0,0,1-.2-.214,1.432,1.432,0,0,1-.135-.251,1.465,1.465,0,0,1-.083-.272,1.008,1.008,0,0,1-.019-.29,1.379,1.379,0,0,1,.159.24,2.626,2.626,0,0,1,.118.25c.035.085.066.171.093.259a1.918,1.918,0,0,1,.065.279" transform="translate(-284.437 -428.516)" fill="#8d5524"/>
                <path id="Trazado_696481" data-name="Trazado 696481" d="M328.029,542.5a2.656,2.656,0,0,1-.585.106l-.149.01-.149,0c-.1,0-.2,0-.3-.009a5.415,5.415,0,0,1-1.175-.213l-.284-.093-.071-.024-.069-.028-.138-.056-.138-.057-.069-.029-.067-.033q-.134-.065-.267-.133c-.09-.043-.175-.093-.26-.144l-.255-.153c-.164-.11-.325-.226-.482-.345.18.084.352.177.528.264l.266.124.132.063c.043.022.09.038.134.058.09.037.18.074.27.113l.067.029.068.025.137.05.137.051.068.026.069.022.277.088a7.983,7.983,0,0,0,1.135.248c.1.012.193.026.289.032l.145.013.146.006a4.076,4.076,0,0,0,.587-.013" transform="translate(-290.465 -490.048)" fill="#8d5524"/>
                <path id="Trazado_696482" data-name="Trazado 696482" d="M344.728,528.435a4.278,4.278,0,0,1-.625-.264,6.123,6.123,0,0,1-.586-.341,5.221,5.221,0,0,1-.542-.409,2.977,2.977,0,0,1-.463-.5c.187.13.37.256.554.381l.555.369c.186.123.372.245.557.371s.369.253.55.392" transform="translate(-308.101 -476.657)" fill="#8d5524"/>
                <path id="Trazado_696483" data-name="Trazado 696483" d="M461.458,511.916a1.111,1.111,0,0,1,.261-.242,1.627,1.627,0,0,1,.311-.167,1.512,1.512,0,0,1,.34-.1,1.075,1.075,0,0,1,.356,0c-.107.058-.212.1-.316.146l-.31.129c-.1.042-.207.083-.313.123s-.213.078-.33.111" transform="translate(-418.861 -462.197)" fill="#8d5524"/>
                <path id="Trazado_696484" data-name="Trazado 696484" d="M518.02,532.512a4.825,4.825,0,0,0-.166-.66c-.068-.214-.15-.422-.238-.627l-.07-.152c-.022-.052-.049-.1-.074-.151s-.049-.1-.075-.151-.054-.1-.08-.149l-.039-.075-.043-.073q-.042-.073-.083-.149c-.056-.1-.118-.2-.171-.3.086.077.168.159.247.245q.056.066.111.134l.055.068c.017.023.034.047.051.071.033.048.066.1.1.144s.06.1.089.15c.061.1.108.207.159.312a3.194,3.194,0,0,1,.209.668c.011.057.021.115.027.173,0,.029.007.058.009.087l.005.087a1.564,1.564,0,0,1-.02.348" transform="translate(-470.56 -479.547)" fill="#8d5524"/>
                <path id="Trazado_696485" data-name="Trazado 696485" d="M421.5,550.757a.931.931,0,0,1,.218-.1,1.484,1.484,0,0,1,.22-.05,1.522,1.522,0,0,1,.224-.018.984.984,0,0,1,.236.025.693.693,0,0,1-.208.121,1.059,1.059,0,0,1-.224.059,1.116,1.116,0,0,1-.231.01.738.738,0,0,1-.235-.05" transform="translate(-381.65 -498.698)" fill="#8d5524"/>
                <path id="Trazado_696486" data-name="Trazado 696486" d="M212.294,375.212c-.385.123-.776.226-1.169.321s-.789.176-1.188.245c-.1.017-.2.035-.3.05l-.3.045c-.2.03-.391.072-.584.121s-.384.106-.572.171-.374.137-.555.219-.361.167-.535.263c-.088.046-.172.1-.258.149s-.168.106-.25.163a5.426,5.426,0,0,0-.475.359l-.113.1c-.038.032-.072.068-.109.1-.074.066-.142.139-.212.209a5.053,5.053,0,0,0-.383.457c-.062.078-.115.163-.172.245-.028.041-.052.085-.079.127s-.053.085-.076.129a5.276,5.276,0,0,0-.464,1.109,4.539,4.539,0,0,1,.381-1.152,4.652,4.652,0,0,1,.682-1.014,5.3,5.3,0,0,1,.916-.815c.082-.061.17-.114.255-.171s.174-.107.265-.156c.178-.1.362-.192.548-.275s.378-.156.572-.221.39-.124.589-.17.4-.084.6-.111.4-.049.6-.077q.6-.083,1.192-.19c.4-.069.792-.147,1.188-.23" transform="translate(-179.591 -335.388)" fill="#8d5524"/>
                <path id="Trazado_696487" data-name="Trazado 696487" d="M191.653,330.167c-.138.3-.29.6-.448.891-.078.147-.162.29-.243.436-.04.073-.083.144-.126.215l-.128.214c-.084.144-.174.283-.263.424s-.181.279-.272.418l-.139.208c-.047.069-.1.136-.143.2-.1.135-.19.273-.29.407l-.3.4c-.049.067-.1.131-.155.2l-.157.194-.158.193-.164.188c-.11.125-.218.252-.332.374l-.346.361-.087.09-.091.086-.182.172c-.239.232-.5.44-.758.649.471-.469.924-.951,1.352-1.455.055-.061.105-.128.158-.191l.158-.191.158-.191.152-.2c.1-.131.206-.259.3-.391l.3-.4c.1-.132.194-.268.291-.4.048-.067.1-.134.144-.2l.141-.2c.192-.27.373-.546.559-.821q.548-.828,1.069-1.677" transform="translate(-163.172 -293.443)" fill="#8d5524"/>
                <path id="Trazado_696488" data-name="Trazado 696488" d="M194.089,318.81c-.042.133-.072.269-.1.4l-.043.2-.039.2c-.05.273-.092.547-.13.821q-.111.824-.17,1.654c-.047.552-.07,1.107-.1,1.662l-.015.416-.018.417c-.008.278-.016.556-.033.835-.026-.278-.043-.556-.06-.834s-.019-.557-.022-.836c0-.139,0-.279,0-.419s0-.279.009-.419c.012-.279.024-.558.046-.836s.052-.556.083-.834l.06-.415c.019-.138.047-.276.071-.413.012-.069.026-.137.04-.206l.044-.205c.014-.068.033-.136.049-.2s.032-.136.052-.2l.058-.2c.02-.067.042-.133.064-.2s.047-.132.071-.2.052-.13.082-.193" transform="translate(-169.211 -282.868)" fill="#8d5524"/>
                <path id="Trazado_696489" data-name="Trazado 696489" d="M271.918,262.928c-.059-.1-.112-.2-.167-.288s-.11-.181-.169-.267c-.014-.022-.028-.044-.045-.064l-.046-.064c-.033-.041-.062-.084-.1-.124-.065-.085-.139-.162-.211-.257a.82.82,0,0,1,.314.149,1.051,1.051,0,0,1,.132.116,1.177,1.177,0,0,1,.109.137,1.1,1.1,0,0,1,.149.315.814.814,0,0,1,.03.346" transform="translate(-241.682 -229.842)" fill="#8d5524"/>
                <path id="Trazado_696490" data-name="Trazado 696490" d="M249.251,319.587a1.46,1.46,0,0,1-.182-.11,1.805,1.805,0,0,1-.154-.122,1.6,1.6,0,0,1-.141-.139.888.888,0,0,1-.125-.175.554.554,0,0,1,.214.055.753.753,0,0,1,.178.117.737.737,0,0,1,.138.164.46.46,0,0,1,.072.21" transform="translate(-220.698 -283.083)" fill="#8d5524"/>
                <path id="Trazado_696491" data-name="Trazado 696491" d="M333.88,304.02c-.045-.11-.093-.209-.14-.309s-.1-.2-.146-.293l-.15-.294c-.024-.05-.051-.1-.073-.152a1.424,1.424,0,0,1-.067-.162,1.179,1.179,0,0,1,.142.106,1.582,1.582,0,0,1,.123.125,1.419,1.419,0,0,1,.106.14c.016.024.032.049.047.074l.042.077a1.335,1.335,0,0,1,.118.333,1.009,1.009,0,0,1,.02.177.575.575,0,0,1-.021.178" transform="translate(-299.526 -267.969)" fill="#8d5524"/>
                <path id="Trazado_696492" data-name="Trazado 696492" d="M390.543,257.225c.023-.153.043-.3.059-.447s.03-.292.036-.438.013-.292.011-.44c0-.074,0-.148,0-.223s0-.151,0-.229c.018.034.034.07.049.105a.968.968,0,0,1,.041.109,1.694,1.694,0,0,1,.057.225,1.932,1.932,0,0,1,.03.464,1.913,1.913,0,0,1-.08.458,1.3,1.3,0,0,1-.2.417" transform="translate(-352.826 -223.866)" fill="#8d5524"/>
                <path id="Trazado_696493" data-name="Trazado 696493" d="M514.91,467.388s-.883-2.2-.524-3.031c0,0,.336-.291.6.3a6.315,6.315,0,0,1-.08,2.734" transform="translate(-468.066 -418.331)" fill="#f5e0cd"/>
                <path id="Trazado_696494" data-name="Trazado 696494" d="M513.684,466.111c-.113-.236-.211-.478-.3-.724s-.171-.5-.236-.75a4.971,4.971,0,0,1-.147-.779,2.41,2.41,0,0,1-.012-.4,1.293,1.293,0,0,1,.086-.411l.008-.02.017-.014.017-.013.015-.01.03-.018a.413.413,0,0,1,.064-.029.405.405,0,0,1,.143-.024.424.424,0,0,1,.26.107l.048.045.04.049.02.025.017.026.033.052c.021.035.037.071.055.106.01.017.016.037.024.055s.015.037.021.056a1.838,1.838,0,0,1,.086.457,3.53,3.53,0,0,1,.006.454c-.007.15-.021.3-.038.448s-.042.3-.067.443c-.053.294-.119.583-.189.872m0,0c.026-.3.067-.591.093-.885.014-.147.026-.294.034-.441s.015-.294.014-.44a4.156,4.156,0,0,0-.022-.435c-.007-.072-.019-.142-.033-.212-.008-.034-.015-.069-.025-.1l-.014-.05-.017-.049a.833.833,0,0,0-.207-.333.236.236,0,0,0-.143-.061.236.236,0,0,0-.112.029l-.017.01-.008.005,0,0,.025-.034a1.114,1.114,0,0,0-.076.35,2.748,2.748,0,0,0,0,.377c.009.127.024.254.044.381s.041.254.068.38q.079.379.182.756c.068.251.141.5.218.75" transform="translate(-466.84 -417.054)" fill="#8d5524"/>
                <path id="Trazado_696495" data-name="Trazado 696495" d="M166.367,296.551a3.079,3.079,0,0,1-.018,1.588s-.217-.782-.346-1.122-.115-.6.364-.466" transform="translate(-143.675 -262.106)" fill="#f5e0cd"/>
                <path id="Trazado_696496" data-name="Trazado 696496" d="M165.64,296.176a3,3,0,0,1,.11.392,3.154,3.154,0,0,1,.061.4c.007.068.008.137.011.206s0,.139-.009.209a1.2,1.2,0,0,1-.109.419l-.106.215-.067-.234-.279-.978a1.192,1.192,0,0,1-.091-.526.245.245,0,0,1,.028-.073.2.2,0,0,1,.055-.06.243.243,0,0,1,.142-.039.693.693,0,0,1,.254.064m0,0a.824.824,0,0,0-.249-.006.178.178,0,0,0-.1.044.134.134,0,0,0-.034.087.585.585,0,0,0,.046.224c.014.039.029.074.046.115s.033.08.049.12q.091.242.167.487c.051.163.1.327.143.492l-.173-.018.037-.081c.011-.028.019-.058.028-.087a.777.777,0,0,0,.023-.091l.01-.046.007-.048a2.7,2.7,0,0,0,.031-.389c0-.066,0-.132,0-.2s0-.133-.007-.2q-.01-.2-.027-.4" transform="translate(-142.948 -261.732)" fill="#8d5524"/>
                <path id="Trazado_696497" data-name="Trazado 696497" d="M268.219,198.469s1.073-1.3,1.213-1.468-.11-.281-.258-.209a14.392,14.392,0,0,0-.955,1.677" transform="translate(-238.921 -169.226)" fill="#f5e0cd"/>
                <path id="Trazado_696498" data-name="Trazado 696498" d="M268.219,197.2c.127-.156.245-.308.356-.461s.213-.3.313-.443.2-.278.3-.413c.052-.067.105-.133.159-.2l.01-.012.005-.008a.05.05,0,0,0,.009-.015l0-.006s0,0,0,0,0,0,0,0,0,0,0,0,0,0,0,0,0,0,0-.005a.076.076,0,0,0-.025-.017.171.171,0,0,0-.084-.015.141.141,0,0,0-.04.008l-.009,0s0,0,0,0h0l0,0-.007.006a.673.673,0,0,0-.073.092c-.024.034-.047.072-.071.109-.093.149-.179.307-.269.462s-.178.313-.27.468a4.182,4.182,0,0,1-.3.452m0,0c.078-.163.147-.329.218-.494s.144-.33.221-.493.156-.326.246-.486c.023-.04.047-.08.073-.119a.842.842,0,0,1,.093-.121l.018-.016.009-.008.013-.009a.209.209,0,0,1,.027-.016l.023-.009a.328.328,0,0,1,.091-.02.355.355,0,0,1,.179.031.263.263,0,0,1,.084.061.217.217,0,0,1,.034.05.2.2,0,0,1,.018.062.258.258,0,0,1-.072.192c-.061.072-.122.145-.185.216-.125.143-.255.286-.384.42s-.256.263-.374.389-.229.25-.332.371" transform="translate(-238.921 -167.954)" fill="#8d5524"/>
                <path id="Trazado_696499" data-name="Trazado 696499" d="M406.7,203.546a3.507,3.507,0,0,0,1.277-.879c.105-.305-.959.661-1.277.879" transform="translate(-367.868 -174.663)" fill="#f5e0cd"/>
                <path id="Trazado_696500" data-name="Trazado 696500" d="M406.7,202.268c.113-.068.224-.135.333-.206s.214-.144.317-.22.2-.157.3-.241a2.674,2.674,0,0,0,.258-.271l-.016.028,0-.006v0h0a.028.028,0,0,0,0,0,.071.071,0,0,0,0,.012.068.068,0,0,0,.009.019.076.076,0,0,0,.019.021.078.078,0,0,0,.021.011.065.065,0,0,0,.015,0h.008s0,0,0,0a.424.424,0,0,0-.073.037c-.054.033-.11.071-.165.11-.111.078-.22.16-.332.24s-.224.16-.337.239a3.323,3.323,0,0,1-.356.217m0,0,.3-.29c.1-.1.2-.191.3-.283s.208-.182.319-.268c.056-.042.112-.085.175-.124a.579.579,0,0,1,.111-.056.192.192,0,0,1,.049-.01h.021a.134.134,0,0,1,.027.006.117.117,0,0,1,.033.017.113.113,0,0,1,.028.03.117.117,0,0,1,.014.031.114.114,0,0,1,0,.024v.019l0,.016c0,.008,0,.016,0,.023l-.006.019,0,.015-.011.013a2.132,2.132,0,0,1-.289.287,2.711,2.711,0,0,1-.33.228,3.29,3.29,0,0,1-.356.178,2.48,2.48,0,0,1-.375.126" transform="translate(-367.868 -173.385)" fill="#8d5524"/>
                <g id="Grupo_930042" data-name="Grupo 930042" transform="translate(10.839 27.095)" opacity="0.8">
                  <g id="Grupo_930041" data-name="Grupo 930041">
                    <g id="Grupo_930040" data-name="Grupo 930040" clip-path="url(#clip-path-4)">
                      <g id="Grupo_930039" data-name="Grupo 930039" transform="translate(0.999 0.229)">
                        <g id="Grupo_930038" data-name="Grupo 930038" clip-path="url(#clip-path-5)">
                          <g id="Grupo_930037" data-name="Grupo 930037" transform="translate(-0.999 -0.229)" style="mix-blend-mode: multiply;isolation: isolate">
                            <g id="Grupo_930036" data-name="Grupo 930036">
                              <g id="Grupo_930035" data-name="Grupo 930035" clip-path="url(#clip-path-6)">
                                <path id="Trazado_696501" data-name="Trazado 696501" d="M11.636,197.241s.551.535.53,2.58.8,5.239,1.178,5.307a24.778,24.778,0,0,1,.658-5.9l.37-1.949s3.437-6.776,5.072-6.837c0,0,.148-.357.944-.083,0,0-1.968,2.7-2.778,3.854A39.043,39.043,0,0,0,14.546,200c-.564,1.473-.695,4.655-.323,4.729a20.449,20.449,0,0,0,3.258-4.584s2.408-3.875,2.7-4.2,6.138-4.228,7.981-4.75,1.911-.083,1.911-.083a10.411,10.411,0,0,1-3.471,2.092,20.54,20.54,0,0,0-6.762,4.839c-.958,1.317-5.429,7.076-5.979,8.087s1.114-3.166,7.838-3.11c0,0-2.175.488-3.089.615a5.863,5.863,0,0,0-4.532,3.93c-.927,2.908-.913,10.41-3.526,15.572S.906,239.192.906,239.192a3.566,3.566,0,0,1,.249-4.937c2.444-2.374,9.862-13.808,9.212-17.339s-.858-20.929,1.27-19.675" transform="translate(0 -190.259)" fill="#ffdbac"/>
                                <path id="Trazado_696502" data-name="Trazado 696502" d="M382.882,437.585c-.624,1-1.148,1.458-.06,1.45,0,0-2.182,2.047-3.089,2.717s-3.43,1.54-4.01-.227c.056.065.115.134.176.208a1.542,1.542,0,0,0,1.178.518,3.03,3.03,0,0,0,1.8-.5,18.94,18.94,0,0,1,2.657-2.276,8.613,8.613,0,0,1,.909-1.893,13.031,13.031,0,0,1-2.629-2.941,3.925,3.925,0,0,1-2.026-.953s2.368.884,2.772.712c0,0,1.246,2.2,1.968,2.265s1.129-1.205,3.219-1.021c0,0-2.237.946-2.861,1.943" transform="translate(-349.865 -416.934)" fill="#ffdbac"/>
                              </g>
                            </g>
                          </g>
                        </g>
                      </g>
                    </g>
                  </g>
                </g>
                <path id="Trazado_696504" data-name="Trazado 696504" d="M537.389,59.935l.524,3.031s.813,1.35,1.165,2.052a10.173,10.173,0,0,0,1.221,2.31c.484.471,4.043,3.032,5.44,3.171s4.149-.994,5.79-1.331a13.433,13.433,0,0,0-1.651,3.772s-2.6,1.421-3.363,2.693c0,0-1.529.959-2.287,1.322a2.491,2.491,0,0,0-1.316,2.736c.31,1.293.9,1.443,1.278,1.272a4.749,4.749,0,0,1,2.159-1.165,12.851,12.851,0,0,0,4.095-2.226c.552-.458,2.951-2.293,3.456-2.781s.726-1.28,1.852-2.522a1.9,1.9,0,0,1-.273.593A18.86,18.86,0,0,0,554,75.906a15.549,15.549,0,0,1-1.411,2.05c-.586.633-.847,1.3-.354,2.8s1.841.543,2.143-.087a5.875,5.875,0,0,1,1.191-1.637,6.454,6.454,0,0,0,1.346-1.831c.3-.68.837-1.033,1.392-2.261s.825-1.292,1.051-1.889a1.988,1.988,0,0,0,.565,1.215c.524.49,1.328.821,1.883.3a4.683,4.683,0,0,1-.215-2.127,6.208,6.208,0,0,0-.027-2.768,20.724,20.724,0,0,1-1.027-3.717,3.7,3.7,0,0,0,.761-1.455c.141-.743.209-5.89.795-9.693s1.595-5.584,4.26-9.936,5.888-9.961,5.888-9.961l-10.7-5.493s-5.576,10.428-9.052,14.008-7.308,4.984-8.963,6.518-4.169,3.692-5.28,4.542-3.068,2.573-.858,5.454m4.247-.661A17.689,17.689,0,0,0,544.306,57c.335-.34,2.271-1.025,3.143.026a14.243,14.243,0,0,0,1.655,1.636c.363.383,2.028,2.6,2.028,2.6-.568.344-.937,1.191-1.487,1.874a1.1,1.1,0,0,0-.275,1.184,5.5,5.5,0,0,0-3.737,1.13,3.84,3.84,0,0,0-2.245-1.147c-1.955-2.659-2.727-3.013-2.727-3.013a8.48,8.48,0,0,0,.975-2.012" transform="translate(-488.628 -13.388)" fill="#ffdbac"/>
                <path id="Trazado_696505" data-name="Trazado 696505" d="M559.958,27.2l10.9,5.6-.059.1c-.032.056-3.254,5.66-5.889,9.964-2.7,4.41-3.665,6.127-4.245,9.894-.386,2.507-.547,5.59-.652,7.631-.055,1.049-.094,1.807-.143,2.066a3.708,3.708,0,0,1-.76,1.477,18.263,18.263,0,0,0,.879,3.2c.055.167.1.315.144.435a4.864,4.864,0,0,1,.088,2.257c-.018.171-.037.355-.056.557a4.639,4.639,0,0,0,.207,2.072l.031.073-.057.055a1.489,1.489,0,0,1-2.039-.3,1.967,1.967,0,0,1-.535-.926c-.063.111-.13.21-.207.322a7.167,7.167,0,0,0-.692,1.242,7.294,7.294,0,0,1-.9,1.484,3.865,3.865,0,0,0-.491.775,6.765,6.765,0,0,1-1.371,1.867,5.776,5.776,0,0,0-1.168,1.6,1.746,1.746,0,0,1-1.444.949c-.289-.019-.682-.186-.909-.876-.506-1.539-.23-2.255.379-2.912a15.3,15.3,0,0,0,1.391-2.021,20.948,20.948,0,0,1,1.251-2.663c-.233.321-.407.6-.56.849a4.189,4.189,0,0,1-.6.83c-.337.326-1.483,1.226-2.4,1.948-.467.367-.871.684-1.058.839a12.836,12.836,0,0,1-4.143,2.249,3.441,3.441,0,0,0-1.765.884,1.634,1.634,0,0,1-.371.274A.731.731,0,0,1,542.07,79a1.883,1.883,0,0,1-.8-1.34,2.436,2.436,0,0,1,.269-1.8,2.69,2.69,0,0,1,1.108-1.065c.693-.332,2.061-1.182,2.253-1.3a11.207,11.207,0,0,1,3.348-2.686,13.668,13.668,0,0,1,1.508-3.527c-.513.121-1.111.3-1.739.493a12.166,12.166,0,0,1-3.822.782c-1.445-.144-5-2.711-5.508-3.2a5.762,5.762,0,0,1-.931-1.656c-.109-.249-.212-.485-.312-.685-.347-.69-1.153-2.031-1.161-2.045l-.011-.018,0-.021-.52-3a3.986,3.986,0,0,1-.989-2.91,4.271,4.271,0,0,1,1.885-2.682c1.133-.866,3.646-3.028,5.272-4.535a17.222,17.222,0,0,1,2.67-1.809,29.066,29.066,0,0,0,6.288-4.7C554.3,37.754,559.85,27.4,559.906,27.3Zm10.586,5.692-10.491-5.388c-.58,1.074-5.751,10.57-9.017,13.935a29.259,29.259,0,0,1-6.334,4.741,17.1,17.1,0,0,0-2.632,1.781c-1.63,1.511-4.151,3.679-5.289,4.549a4.071,4.071,0,0,0-1.8,2.531,3.789,3.789,0,0,0,.961,2.764l.017.022.526,3.038c.1.164.83,1.388,1.159,2.042.1.205.207.443.318.7a5.659,5.659,0,0,0,.881,1.584c.479.466,4,3,5.372,3.14a12.315,12.315,0,0,0,3.734-.773c.744-.225,1.446-.438,2.022-.556l.271-.056-.154.23a13.427,13.427,0,0,0-1.635,3.736l-.012.049-.044.024c-.026.014-2.578,1.421-3.32,2.652l-.014.023-.023.014c-.063.039-1.544.967-2.3,1.328a2.386,2.386,0,0,0-1.254,2.607c.192.8.476,1.089.681,1.189a.5.5,0,0,0,.439.006,1.473,1.473,0,0,0,.315-.238,3.687,3.687,0,0,1,1.868-.936,12.806,12.806,0,0,0,4.046-2.2c.189-.157.594-.475,1.063-.843.917-.719,2.058-1.615,2.386-1.933a4.029,4.029,0,0,0,.57-.787,10.794,10.794,0,0,1,1.277-1.73l.3-.334-.108.438a2.006,2.006,0,0,1-.293.634,18.721,18.721,0,0,0-1.467,3.015l-.008.018a15.389,15.389,0,0,1-1.426,2.07c-.567.612-.8,1.247-.329,2.686.15.457.388.7.708.72a1.539,1.539,0,0,0,1.225-.821,6.008,6.008,0,0,1,1.214-1.669,6.527,6.527,0,0,0,1.321-1.795,4.035,4.035,0,0,1,.517-.82,7,7,0,0,0,.876-1.442,7.37,7.37,0,0,1,.711-1.276,2.6,2.6,0,0,0,.337-.606l.19-.5.03.535a1.888,1.888,0,0,0,.529,1.139c.492.46,1.188.734,1.67.346a5.037,5.037,0,0,1-.194-2.1c.019-.2.038-.387.056-.559a4.7,4.7,0,0,0-.078-2.164c-.039-.12-.088-.267-.143-.434a16.347,16.347,0,0,1-.889-3.325l0-.039.025-.029a3.6,3.6,0,0,0,.735-1.4c.046-.244.085-1,.139-2.036.106-2.045.267-5.135.655-7.653.587-3.81,1.557-5.539,4.276-9.978,2.437-3.978,5.374-9.069,5.827-9.855M545.02,54.337a1.662,1.662,0,0,1,.981.557,8.871,8.871,0,0,0,1.25,1.266,4.849,4.849,0,0,1,.4.365c.363.383,1.968,2.515,2.036,2.605l.076.1-.108.065a3.479,3.479,0,0,0-.919,1.083c-.167.255-.34.519-.538.765-.491.609-.273,1.04-.263,1.059l.094.178-.2-.011a5.424,5.424,0,0,0-3.655,1.1l-.08.07-.075-.075a3.75,3.75,0,0,0-2.172-1.114l-.053,0-.031-.043c-1.9-2.579-2.676-2.974-2.683-2.977l-.118-.057.071-.109a8.43,8.43,0,0,0,.961-1.981l.015-.051.049-.021a17.514,17.514,0,0,0,2.633-2.249,3.184,3.184,0,0,1,1.968-.567,2.379,2.379,0,0,1,.363.043m4.413,4.834c-.324-.429-1.636-2.161-1.947-2.49a4.652,4.652,0,0,0-.382-.348,9.075,9.075,0,0,1-1.278-1.294,1.541,1.541,0,0,0-1.178-.518,3.029,3.029,0,0,0-1.8.5,18.93,18.93,0,0,1-2.657,2.276,8.643,8.643,0,0,1-.909,1.893,13.016,13.016,0,0,1,2.629,2.941,3.975,3.975,0,0,1,2.19,1.1,5.628,5.628,0,0,1,3.57-1.1A1.331,1.331,0,0,1,548.021,61c.191-.237.361-.5.525-.747a4.122,4.122,0,0,1,.887-1.084" transform="translate(-487.093 -11.328)" fill="#8d5524"/>
                <path id="Trazado_696506" data-name="Trazado 696506" d="M558.633,494.218a4.413,4.413,0,0,0,.782-.25c.062-.027.125-.052.186-.082l.092-.044.046-.022.044-.024c.059-.033.12-.063.178-.1l.173-.105a.957.957,0,0,0,.085-.055l.084-.057.084-.056c.028-.019.053-.041.081-.061.054-.041.107-.082.162-.123l.155-.133.078-.066c.026-.022.049-.047.075-.07l.15-.141.038-.035.035-.037c.024-.025.047-.05.071-.075.048-.05.1-.1.148-.147-.034.061-.07.12-.107.18-.018.03-.037.059-.056.089l-.028.044-.031.042-.13.166c-.022.028-.043.056-.067.081l-.073.077c-.049.051-.1.1-.148.151s-.107.092-.161.138c-.027.023-.053.046-.082.067l-.086.062-.087.061a1.021,1.021,0,0,1-.089.058l-.183.108c-.063.033-.127.063-.19.094l-.048.023-.049.02-.1.039c-.065.028-.133.047-.2.069a2.338,2.338,0,0,1-.832.111" transform="translate(-509.348 -444.639)" fill="#8d5524"/>
                <path id="Trazado_696507" data-name="Trazado 696507" d="M604.677,536.314a4.112,4.112,0,0,0-.708.3,5.419,5.419,0,0,0-.643.4l-.15.117c-.025.02-.051.037-.075.058l-.072.062c-.048.042-.1.082-.145.124l-.14.131-.071.065-.067.069-.136.137c-.047.044-.087.095-.133.141s-.089.095-.136.141c.03-.058.062-.115.094-.172.016-.029.033-.057.05-.085s.033-.057.052-.083l.115-.16.059-.079.064-.075c.043-.05.087-.1.131-.148s.095-.092.142-.138a3.623,3.623,0,0,1,.3-.256,3.223,3.223,0,0,1,.693-.386,2.126,2.126,0,0,1,.77-.165" transform="translate(-549.918 -485.402)" fill="#8d5524"/>
                <path id="Trazado_696508" data-name="Trazado 696508" d="M656.692,552.975a2.879,2.879,0,0,0-.19.27c-.059.091-.112.186-.164.28a6.052,6.052,0,0,0-.274.585l-.059.151c-.02.05-.036.1-.055.152-.039.1-.069.205-.1.308-.019.051-.032.1-.048.156s-.032.1-.049.157c-.031.105-.059.212-.1.318,0-.112,0-.223.006-.335q.009-.083.019-.166c.007-.055.013-.111.025-.166a3.183,3.183,0,0,1,.078-.327c.016-.054.031-.108.05-.161l.06-.158a2.914,2.914,0,0,1,.324-.593,2.152,2.152,0,0,1,.218-.259,1.322,1.322,0,0,1,.262-.212" transform="translate(-599.687 -500.917)" fill="#8d5524"/>
                <path id="Trazado_696509" data-name="Trazado 696509" d="M725.094,536.56c.05.067.1.129.156.19s.107.121.161.18c.108.118.219.234.331.348s.224.23.335.349c.056.058.112.118.166.179s.11.122.161.19c-.076-.035-.149-.076-.22-.118s-.138-.091-.206-.139a3.106,3.106,0,0,1-.372-.329,2.494,2.494,0,0,1-.312-.39,1.8,1.8,0,0,1-.122-.22.944.944,0,0,1-.078-.24" transform="translate(-664.352 -485.631)" fill="#8d5524"/>
                <path id="Trazado_696510" data-name="Trazado 696510" d="M750.693,492.129a.852.852,0,0,1,.2.214,1.43,1.43,0,0,1,.135.251,1.459,1.459,0,0,1,.083.272,1,1,0,0,1,.019.29,1.375,1.375,0,0,1-.159-.24,2.634,2.634,0,0,1-.118-.25c-.035-.085-.066-.171-.093-.259a1.923,1.923,0,0,1-.065-.279" transform="translate(-688.19 -444.258)" fill="#8d5524"/>
                <path id="Trazado_696511" data-name="Trazado 696511" d="M685.855,421.974a2.652,2.652,0,0,1,.585-.106l.149-.01.149,0c.1,0,.2,0,.3.009a5.429,5.429,0,0,1,1.175.213l.284.093.071.024.069.028.138.056.138.057.069.029.067.033c.089.043.178.088.267.133s.175.093.26.144l.255.153c.164.11.325.226.482.345-.18-.084-.352-.177-.528-.264l-.266-.124-.132-.063c-.043-.022-.09-.039-.134-.058-.09-.037-.18-.074-.27-.113l-.067-.029-.069-.025-.137-.05-.136-.051-.068-.026-.069-.022-.277-.088a7.988,7.988,0,0,0-1.135-.248c-.1-.012-.193-.026-.289-.032l-.145-.013-.146-.006a4.081,4.081,0,0,0-.587.013" transform="translate(-627.814 -378.822)" fill="#8d5524"/>
                <path id="Trazado_696512" data-name="Trazado 696512" d="M699.476,433.374a4.284,4.284,0,0,1,.625.264,6.148,6.148,0,0,1,.586.341,5.233,5.233,0,0,1,.542.409,2.975,2.975,0,0,1,.463.5c-.187-.13-.37-.256-.554-.381l-.555-.369c-.186-.123-.372-.245-.557-.371s-.369-.253-.55-.392" transform="translate(-640.498 -389.547)" fill="#8d5524"/>
                <path id="Trazado_696513" data-name="Trazado 696513" d="M595.562,463.308a1.11,1.11,0,0,1-.261.242,1.621,1.621,0,0,1-.311.167,1.516,1.516,0,0,1-.34.1,1.078,1.078,0,0,1-.356,0c.107-.058.212-.1.315-.146l.31-.129c.1-.042.207-.083.313-.123s.214-.078.33-.111" transform="translate(-542.554 -417.421)" fill="#8d5524"/>
                <path id="Trazado_696514" data-name="Trazado 696514" d="M541.793,416.136a4.825,4.825,0,0,0,.166.66c.068.214.15.422.238.627l.07.152c.022.052.049.1.074.151s.049.1.075.151.054.1.08.149l.04.075.043.073q.042.074.083.149c.056.1.118.2.171.3-.086-.077-.168-.159-.247-.245q-.056-.066-.111-.134l-.055-.068c-.017-.023-.034-.047-.051-.071-.033-.048-.066-.1-.1-.144s-.06-.1-.09-.15c-.061-.1-.108-.207-.159-.312a3.2,3.2,0,0,1-.209-.668c-.011-.057-.021-.115-.027-.173,0-.029-.007-.058-.009-.087l-.005-.087a1.552,1.552,0,0,1,.02-.348" transform="translate(-493.647 -373.495)" fill="#8d5524"/>
                <path id="Trazado_696515" data-name="Trazado 696515" d="M640.527,428.581a.931.931,0,0,1-.218.1,1.5,1.5,0,0,1-.22.05,1.524,1.524,0,0,1-.225.018.985.985,0,0,1-.236-.025.692.692,0,0,1,.208-.122,1.058,1.058,0,0,1,.224-.059,1.112,1.112,0,0,1,.231-.01.737.737,0,0,1,.235.05" transform="translate(-584.768 -385.035)" fill="#8d5524"/>
                <path id="Trazado_696516" data-name="Trazado 696516" d="M756.486,545.088c.385-.123.776-.226,1.169-.321s.789-.176,1.188-.245c.1-.017.2-.035.3-.05l.3-.045c.2-.03.391-.072.584-.121s.384-.106.572-.171.374-.137.555-.219.361-.167.535-.263c.088-.047.172-.1.258-.149s.168-.106.25-.163a5.407,5.407,0,0,0,.475-.359l.113-.1c.038-.033.073-.068.109-.1.074-.066.142-.139.212-.209a5.052,5.052,0,0,0,.383-.457c.062-.078.115-.163.172-.245.028-.041.052-.085.079-.127s.053-.084.076-.129a5.271,5.271,0,0,0,.464-1.109,4.539,4.539,0,0,1-.381,1.152,4.656,4.656,0,0,1-.682,1.014,5.3,5.3,0,0,1-.916.815c-.082.061-.17.114-.255.17s-.174.107-.265.156c-.178.1-.362.192-.548.275s-.378.156-.572.221-.39.124-.589.17-.4.084-.6.111-.4.049-.6.077q-.6.083-1.192.19c-.4.069-.792.147-1.187.23" transform="translate(-693.584 -489.307)" fill="#8d5524"/>
                <path id="Trazado_696517" data-name="Trazado 696517" d="M817.841,566.621c.138-.3.29-.6.448-.891.078-.147.162-.29.243-.436.04-.073.083-.144.126-.215l.128-.214c.084-.143.174-.283.263-.424s.181-.279.272-.418l.139-.207c.047-.069.1-.136.143-.2.1-.135.19-.273.29-.407l.3-.4c.049-.067.1-.131.155-.2l.157-.194.158-.193.164-.188c.11-.125.218-.252.332-.374l.346-.361.087-.089.091-.086.182-.172c.239-.232.5-.44.758-.649-.471.469-.924.951-1.352,1.455-.055.061-.105.128-.158.191l-.158.191-.158.191-.152.2c-.1.131-.206.259-.3.391l-.3.4c-.1.132-.194.268-.291.4-.048.067-.1.134-.144.2l-.141.2c-.192.269-.373.546-.559.82q-.548.828-1.069,1.677" transform="translate(-750.716 -507.739)" fill="#8d5524"/>
                <path id="Trazado_696518" data-name="Trazado 696518" d="M870.19,573.946c.042-.133.072-.269.1-.4l.043-.2.039-.2c.05-.273.092-.547.13-.821q.111-.824.17-1.654c.047-.552.07-1.107.1-1.662l.015-.417.018-.417c.008-.278.016-.556.033-.835.026.278.043.556.06.834s.018.557.022.836c0,.14,0,.279,0,.419s0,.279-.009.419c-.012.279-.024.558-.046.836s-.052.556-.083.834l-.06.415c-.019.138-.047.276-.071.413-.012.069-.026.137-.04.206l-.044.205c-.014.068-.033.136-.049.2s-.032.136-.052.2l-.058.2c-.02.067-.042.134-.064.2s-.047.132-.071.2-.052.13-.082.193" transform="translate(-799.463 -514.283)" fill="#8d5524"/>
                <path id="Trazado_696519" data-name="Trazado 696519" d="M792.228,704.962c.059.1.112.2.167.288s.11.181.169.267c.014.022.028.044.045.064l.045.064c.033.041.063.084.1.124.065.085.139.163.211.257a.82.82,0,0,1-.314-.149,1.038,1.038,0,0,1-.132-.116,1.176,1.176,0,0,1-.109-.137,1.093,1.093,0,0,1-.149-.315.811.811,0,0,1-.03-.346" transform="translate(-726.859 -642.443)" fill="#8d5524"/>
                <path id="Trazado_696520" data-name="Trazado 696520" d="M816.785,655.3a1.455,1.455,0,0,1,.182.11,1.807,1.807,0,0,1,.154.122,1.6,1.6,0,0,1,.141.139.885.885,0,0,1,.125.175.554.554,0,0,1-.214-.055.755.755,0,0,1-.178-.117.737.737,0,0,1-.138-.164.462.462,0,0,1-.072-.21" transform="translate(-749.733 -596.199)" fill="#8d5524"/>
                <path id="Trazado_696521" data-name="Trazado 696521" d="M732.216,661.88c.045.11.093.209.14.309s.1.2.146.293l.15.294c.024.05.051.1.073.152a1.413,1.413,0,0,1,.067.162,1.208,1.208,0,0,1-.142-.106,1.6,1.6,0,0,1-.122-.125,1.434,1.434,0,0,1-.106-.14c-.016-.024-.032-.049-.047-.074l-.042-.077a1.333,1.333,0,0,1-.118-.333,1.014,1.014,0,0,1-.02-.177.575.575,0,0,1,.021-.178" transform="translate(-670.965 -602.326)" fill="#8d5524"/>
                <path id="Trazado_696522" data-name="Trazado 696522" d="M679.759,701c-.023.153-.043.3-.059.447s-.03.292-.036.438-.013.292-.011.44c0,.074,0,.148,0,.223s0,.151,0,.229c-.018-.034-.034-.07-.049-.105a.952.952,0,0,1-.041-.109,1.7,1.7,0,0,1-.057-.225,1.938,1.938,0,0,1-.03-.464,1.913,1.913,0,0,1,.08-.458,1.3,1.3,0,0,1,.2-.417" transform="translate(-621.87 -638.758)" fill="#8d5524"/>
                <path id="Trazado_696523" data-name="Trazado 696523" d="M548.059,472.907s.883,2.2.524,3.031c0,0-.336.29-.6-.3a6.316,6.316,0,0,1,.08-2.734" transform="translate(-499.298 -426.359)" fill="#f5e0cd"/>
                <path id="Trazado_696524" data-name="Trazado 696524" d="M546.972,472.907c.113.236.211.478.3.724s.171.5.236.75a4.971,4.971,0,0,1,.147.779,2.4,2.4,0,0,1,.012.4,1.289,1.289,0,0,1-.086.411l-.008.02-.017.014-.017.013-.015.01-.03.018a.422.422,0,0,1-.207.053.423.423,0,0,1-.259-.107l-.048-.045-.04-.049-.02-.025-.017-.026-.033-.052c-.021-.035-.037-.071-.055-.106-.009-.017-.016-.037-.024-.055s-.015-.037-.021-.056a1.834,1.834,0,0,1-.086-.457,3.519,3.519,0,0,1-.006-.454c.007-.15.021-.3.038-.448s.042-.3.067-.443c.053-.294.119-.583.189-.872m0,0c-.026.3-.067.591-.093.885-.014.147-.026.294-.034.441s-.015.294-.014.44a4.188,4.188,0,0,0,.022.435c.007.072.019.142.033.212.008.034.015.069.025.1l.014.05.017.049a.835.835,0,0,0,.207.333.236.236,0,0,0,.143.061.234.234,0,0,0,.112-.029l.017-.01.008-.005.005,0-.025.034a1.114,1.114,0,0,0,.076-.35,2.758,2.758,0,0,0,0-.377c-.009-.127-.024-.254-.044-.381s-.041-.254-.068-.381q-.079-.379-.182-.756c-.068-.251-.141-.5-.218-.75" transform="translate(-498.211 -426.359)" fill="#8d5524"/>
                <path id="Trazado_696525" data-name="Trazado 696525" d="M900.525,663.753a3.079,3.079,0,0,1,.018-1.588s.217.782.346,1.122.115.6-.364.466" transform="translate(-827.611 -602.592)" fill="#f5e0cd"/>
                <path id="Trazado_696526" data-name="Trazado 696526" d="M899.486,660.253a3,3,0,0,1-.11-.392,3.143,3.143,0,0,1-.061-.4c-.007-.068-.008-.137-.011-.206s0-.139.009-.209a1.206,1.206,0,0,1,.109-.42l.107-.215.067.234.279.978a1.193,1.193,0,0,1,.091.526.253.253,0,0,1-.028.073.2.2,0,0,1-.055.06.243.243,0,0,1-.142.039.691.691,0,0,1-.254-.064m0,0a.82.82,0,0,0,.25.006.178.178,0,0,0,.1-.044.134.134,0,0,0,.034-.087.585.585,0,0,0-.046-.224c-.014-.039-.029-.074-.047-.115s-.033-.08-.049-.12q-.091-.242-.167-.487c-.051-.163-.1-.327-.143-.492l.173.018-.037.081c-.011.028-.019.058-.029.087a.78.78,0,0,0-.022.091l-.01.046-.007.048a2.711,2.711,0,0,0-.031.39c0,.066,0,.132,0,.2s0,.133.007.2q.01.2.027.4" transform="translate(-826.573 -599.092)" fill="#8d5524"/>
                <path id="Trazado_696527" data-name="Trazado 696527" d="M788.986,760.81s-1.073,1.3-1.213,1.468.11.281.258.209a14.385,14.385,0,0,0,.955-1.677" transform="translate(-722.679 -694.448)" fill="#f5e0cd"/>
                <path id="Trazado_696528" data-name="Trazado 696528" d="M787.724,760.81c-.127.156-.245.308-.356.461s-.213.3-.313.443-.2.278-.3.412c-.052.067-.105.133-.159.2l-.01.012-.005.009a.049.049,0,0,0-.009.015l0,.006s0,0,0,0,0,0,0,0,0,0,0,0,0,0,0,0,0,0,0,.005a.075.075,0,0,0,.025.017.172.172,0,0,0,.084.015.141.141,0,0,0,.04-.008l.009,0s0,0,0,0h0l0,0,.007-.006a.664.664,0,0,0,.073-.092c.024-.034.047-.072.071-.109.093-.15.179-.307.269-.462s.178-.313.27-.468a4.173,4.173,0,0,1,.3-.452m0,0c-.078.163-.147.329-.219.494s-.144.33-.221.493-.156.326-.246.486c-.023.04-.047.08-.073.119a.843.843,0,0,1-.093.121l-.018.016-.009.008-.013.009a.226.226,0,0,1-.027.016l-.023.009a.327.327,0,0,1-.091.02.357.357,0,0,1-.179-.031.261.261,0,0,1-.084-.061.217.217,0,0,1-.034-.05.213.213,0,0,1-.018-.062.259.259,0,0,1,.072-.192c.061-.072.122-.145.185-.216.125-.143.255-.286.384-.42s.256-.263.374-.389.229-.25.332-.371" transform="translate(-721.417 -694.448)" fill="#8d5524"/>
                <path id="Trazado_696529" data-name="Trazado 696529" d="M650.11,766.044a3.507,3.507,0,0,0-1.277.879c-.106.305.959-.661,1.277-.879" transform="translate(-593.333 -699.322)" fill="#f5e0cd"/>
                <path id="Trazado_696530" data-name="Trazado 696530" d="M648.829,766.044c-.113.068-.224.135-.333.206s-.214.144-.317.22-.2.157-.3.241a2.671,2.671,0,0,0-.258.271l.016-.028,0,.006v0h0a.029.029,0,0,0,0,0,.076.076,0,0,0,0-.011.07.07,0,0,0-.009-.019.075.075,0,0,0-.019-.021.077.077,0,0,0-.021-.011.061.061,0,0,0-.015,0h-.008s0,0,0,0a.422.422,0,0,0,.073-.037c.054-.033.11-.071.165-.11.111-.078.22-.16.332-.24s.224-.16.337-.239a3.336,3.336,0,0,1,.356-.217m0,0-.3.29c-.1.1-.2.191-.3.283s-.208.182-.319.268c-.056.042-.112.085-.175.124a.574.574,0,0,1-.111.056.2.2,0,0,1-.049.01h-.021a.134.134,0,0,1-.027-.006.115.115,0,0,1-.033-.017.112.112,0,0,1-.028-.03.114.114,0,0,1-.014-.031.109.109,0,0,1,0-.024v-.034c0-.008,0-.016,0-.023l.006-.019,0-.015.011-.013a2.124,2.124,0,0,1,.289-.287,2.717,2.717,0,0,1,.33-.228,3.3,3.3,0,0,1,.356-.178,2.488,2.488,0,0,1,.375-.126" transform="translate(-592.052 -699.322)" fill="#8d5524"/>
                <g id="Grupo_930050" data-name="Grupo 930050" transform="translate(47.64 15.873)" opacity="0.8">
                  <g id="Grupo_930049" data-name="Grupo 930049" transform="translate(0)">
                    <g id="Grupo_930048" data-name="Grupo 930048" clip-path="url(#clip-path-4)">
                      <g id="Grupo_930047" data-name="Grupo 930047" transform="translate(0 0)">
                        <g id="Grupo_930046" data-name="Grupo 930046" clip-path="url(#clip-path-8)">
                          <g id="Grupo_930045" data-name="Grupo 930045" transform="translate(1.248 3.704)" style="mix-blend-mode: multiply;isolation: isolate">
                            <g id="Grupo_930044" data-name="Grupo 930044" transform="translate(0 0)">
                              <g id="Grupo_930043" data-name="Grupo 930043" clip-path="url(#clip-path-6)">
                                <path id="Trazado_696531" data-name="Trazado 696531" d="M655.583,122.977s-.551-.535-.53-2.58-.8-5.239-1.178-5.307a24.778,24.778,0,0,1-.659,5.9l-.369,1.949s-3.437,6.776-5.072,6.837c0,0-.148.357-.944.083,0,0,1.968-2.7,2.778-3.854a39.044,39.044,0,0,0,3.066-5.787c.564-1.473.7-4.655.323-4.729a20.446,20.446,0,0,0-3.258,4.584s-2.408,3.875-2.7,4.2-6.138,4.228-7.981,4.75-1.911.083-1.911.083a10.413,10.413,0,0,1,3.471-2.092,20.542,20.542,0,0,0,6.762-4.839c.958-1.317,5.429-7.076,5.979-8.087s-1.114,3.166-7.839,3.11c0,0,2.175-.488,3.09-.615a5.864,5.864,0,0,0,4.532-3.93c.927-2.908.913-10.41,3.526-15.572s9.652-16.053,9.652-16.053a3.566,3.566,0,0,1-.249,4.937c-2.444,2.374-9.862,13.808-9.212,17.339s.858,20.929-1.27,19.675" transform="translate(-631.341 -81.026)" fill="#ffdbac"/>
                                <path id="Trazado_696532" data-name="Trazado 696532" d="M555.732,424.551c.624-1,1.148-1.458.06-1.45,0,0,2.182-2.047,3.089-2.717s3.43-1.54,4.01.227q-.084-.1-.176-.208a1.542,1.542,0,0,0-1.178-.518,3.03,3.03,0,0,0-1.8.5,18.94,18.94,0,0,1-2.657,2.276,8.609,8.609,0,0,1-.909,1.893A13.031,13.031,0,0,1,558.8,427.5a3.924,3.924,0,0,1,2.026.953s-2.368-.884-2.772-.712c0,0-1.247-2.2-1.968-2.265s-1.129,1.205-3.219,1.021c0,0,2.237-.946,2.861-1.943" transform="translate(-552.871 -396.27)" fill="#ffdbac"/>
                              </g>
                            </g>
                          </g>
                        </g>
                      </g>
                    </g>
                  </g>
                </g>
              </g>
            </g>
          </g>
        </g>
      </g>
    </g>
  </g>
</svg>
