<svg xmlns="http://www.w3.org/2000/svg" xmlns:xlink="http://www.w3.org/1999/xlink" width="104.364" height="104.364" viewBox="0 0 104.364 104.364">
  <defs>
    <clipPath id="clip-path">
      <rect id="Rectángulo_33849" data-name="Rectángulo 33849" width="104.364" height="104.364" fill="none"/>
    </clipPath>
    <clipPath id="clip-path-2">
      <path id="Trazado_696471" data-name="Trazado 696471" d="M39.74,0c-.21.167-.415.341-.632.5a.7.7,0,0,1-.283.115c-.2.034-.4.047-.6.07.07.178.137.358.224.585-.148.184-.291.509-.613.054a.413.413,0,0,0-.377-.121.54.54,0,0,0-.278.346A2.324,2.324,0,0,1,35.761,3.5a5.1,5.1,0,0,1-1.635.39,1.353,1.353,0,0,0-.763.453,6.43,6.43,0,0,1-3.292,2.069A3.984,3.984,0,0,1,27.2,6.058a.911.911,0,0,0-1.315.8,3.112,3.112,0,0,0,.007.358A.811.811,0,0,1,25,8.1a5.317,5.317,0,0,1-1.573-.452A1.011,1.011,0,0,0,22,7.833,9.062,9.062,0,0,1,20.1,9.387,3.082,3.082,0,0,0,18.538,12.1a1.658,1.658,0,0,0,.224.749c.143.342.2.634-.129.927a.992.992,0,0,0-.228,1.12c.064.2.155.391.2.6a.817.817,0,0,1-1.043.976,2.081,2.081,0,0,0-1.743.547c-.529.36-.526,1.009-.857,1.472a2.338,2.338,0,0,1-.307.373,12.242,12.242,0,0,1-1.35,1.166,10.238,10.238,0,0,1-1.509.724,2.072,2.072,0,0,1-.458.054c.182.265.27.508.444.621a.967.967,0,0,1,.5.847c0,.745.436,1.5-.031,2.233-.085.133-.258.346-.333.324a1.523,1.523,0,0,1-.634-.371c-.058-.058.026-.333.119-.454.434-.565.441-.554-.154-.926a1.835,1.835,0,0,1-.414-.34c-.489-.566-.96-1.148-1.454-1.711-.1-.114-.348-.268-.388-.236a1.609,1.609,0,0,0-.423.543c-.035.075.1.242.173.35a4.323,4.323,0,0,1,1.119,2.683.6.6,0,0,1-.232.446c-.61.289-.823.884-1.16,1.386a1.546,1.546,0,0,1-.388.413c-.258.179-.466.127-.6-.188a4.809,4.809,0,0,0-.326-.553l-.176.025a2.54,2.54,0,0,0-.025.688c.064.272.037.421-.247.511-.522.167-.411.686-.506,1.06-.033.129.243.359.409.508a4.726,4.726,0,0,0,.524.345.662.662,0,0,1,.3.813c-.038.133.072.327.154.471.165.291.356.566.559.885l.281-.136c.028.01.064.011.081.03a1.8,1.8,0,0,1,.054,2.418c-.08.1-.033.346.026.5.136.354.314.693.478,1.038a1.726,1.726,0,0,0,.2.388.946.946,0,0,1-.493,1.622c-.1.031-.206.042-.3.078-.352.13-.333.232-.113.535a2.429,2.429,0,0,1,.379.911,8.96,8.96,0,0,1,.082,1.107c.03.354.077.7.117,1.057a.513.513,0,0,0,.027.176c.465.892-.068,1.782-.014,2.675.018.3-.22.485-.526.59a.547.547,0,0,0-.23.951c.266.314.527.634.766.921a1.136,1.136,0,0,1,.056-.5,1.085,1.085,0,0,1,.493-.356c.054-.024.243.113.278.209.163.455-.24.535-.506.692a.479.479,0,0,0,.775.348.491.491,0,0,1,.4-.08.466.466,0,0,1,.167.369c0,.073-.182.133-.262.218-.1.1-.243.224-.25.344a.822.822,0,0,1-.608.8.539.539,0,0,0-.421.715c.085.35-.178.491-.417.6a1.172,1.172,0,0,0-.678.72.927.927,0,0,1-.358.5,1.257,1.257,0,0,0-.6,1.111,1.19,1.19,0,0,1-1.075,1.141.89.89,0,0,0-.7.623c-.041.11-.169.189-.256.281a1.308,1.308,0,0,1-.23-.279c-.206-.46-.418-.5-.747-.115-.107.126-.2.267-.313.382a.54.54,0,0,1-.294.181,1.208,1.208,0,0,0-1.1,1.627,1.215,1.215,0,0,1-.085.829.7.7,0,0,0,.022.859,1.538,1.538,0,0,1,.136.557,1.935,1.935,0,0,1-.545.033C.8,57.607.577,57.682,0,58.531v.45c.573.448,1.132.914,1.722,1.338.422.3.89.539,1.327.823a4.281,4.281,0,0,1,1.22.871A2.3,2.3,0,0,0,6.953,63.02c.31-.081.445,0,.548.323a1.259,1.259,0,0,0,.469.562.814.814,0,0,1,.424.813.68.68,0,0,0,.757.8,4.475,4.475,0,0,1,2.454.51,4.043,4.043,0,0,0,1.587.141c.179-.007.357-.014.532-.014.1,0,.249-.233.287-.381.136-.532.405-.767.931-.6a5.173,5.173,0,0,1,1.21.646,2.524,2.524,0,0,1,.615.587,2.245,2.245,0,0,0,1.363.781,6.924,6.924,0,0,1,1.268.537c.361.175.678.317,1.065,0a.645.645,0,0,1,.943.175,1.667,1.667,0,0,0,1.25.7c.31.02.426.166.516.45a1.377,1.377,0,0,0,.418.579,3.948,3.948,0,0,0,.694.409,1.622,1.622,0,0,1,.922,1.231,7.253,7.253,0,0,0,.583,1.57.674.674,0,0,0,.332.278c.373.175.772.3,1.134.5.2.109.339.339.535.47a1.657,1.657,0,0,0,.621.268,1.711,1.711,0,0,1,1.64,1.46,1.127,1.127,0,0,1-.147.736c-.192.3-.077.49.171.556a4.246,4.246,0,0,0,1.1.13c.562,0,.716.093.829.648.065.322.118.648.16.974.038.29.114.572-.318.7-.287.085-.262.392.018.531a.864.864,0,0,0,.341.1c.414.011.784.049.8.6,0,.047.243.146.345.118.408-.113.8-.277,1.207-.4a1.181,1.181,0,0,1,.394.024c.6.047,1.189.127,1.785.125a3.145,3.145,0,0,0,.777-.263,1.533,1.533,0,0,1,.6-.1.845.845,0,0,0,.91-.5c.5-.847.576-.857,1.418-.35.346.209.689.424,1.042.619a1.3,1.3,0,0,0,1.547-.144,1.857,1.857,0,0,1,2.242.178c.25.266.453.577.92.5a.707.707,0,0,1,.545.266,3.424,3.424,0,0,0,1.405.922c.678.336.766.625.276,1.208a17.821,17.821,0,0,0-2.3,3.579c-.162.328-.471.579-.667.9a2.74,2.74,0,0,0-.207.649,2.157,2.157,0,0,0,.671.138,3.289,3.289,0,0,0,1.032-.281.641.641,0,0,1,.944.286c.316.523.617,1.055.95,1.626-.1.01-.184.025-.263.025l.679,0c.039-.362.053-.676.11-.982.473-2.559.939-5.119,1.436-7.673.4-2.067.865-4.124,1.256-6.194a3.406,3.406,0,0,0-.51-2.734c-.167-.23-.322-.468-.49-.7a.533.533,0,0,1-.022-.691c.293-.445.169-.761-.315-1.015s-.94-.516-1.411-.774a1.026,1.026,0,0,1-.587-.9c-.031-1.09-.06-2.182-.046-3.273a.716.716,0,0,1,.348-.516,3.8,3.8,0,0,1,1.64-.615,1.19,1.19,0,0,0,1.068-.419c.041-.043.261.031.356.106.161.128.266.381.437.433a1.366,1.366,0,0,0,.793-.01c.276-.1.289-.374.206-.652-.1-.329-.157-.67-.248-1-.138-.509-.419-.608-.932-.611a21.943,21.943,0,0,1-2.441-.207.446.446,0,0,1-.267-.344c.072-.952.175-1.9.291-2.851.01-.081.183-.187.293-.205a7.533,7.533,0,0,1,1.413-.172c.671.017,1.335.173,2.006.192,1.569.047,3.139.052,4.708.065a1.153,1.153,0,0,0,.31-.1,4.833,4.833,0,0,1-.3-.724.542.542,0,0,1,.081-.452.472.472,0,0,1,.444-.017,7.162,7.162,0,0,1,.771.594c.244.2.485.4.806.664a2.115,2.115,0,0,1,.158-.6c.164-.23.342-.534.579-.61a1.91,1.91,0,0,0,1.091-.8c.169-.264.369-.483.731-.371a.649.649,0,0,1,.491.758,2.5,2.5,0,0,0,.641,1.743,7.85,7.85,0,0,1,.689,1.9,1.146,1.146,0,0,1,.02.312c.031.765.1.814.857.573V59.879a3.091,3.091,0,0,0-.634-1.537c-.29-.446-.15-1.082-.644-1.443-.038-.028,0-.186.031-.274.157-.423.109-.506-.439-.573-.02-.405-.026-.829-.068-1.249a.771.771,0,0,0-.184-.43c-.579-.6-1.186-1.167-1.761-1.765a1.119,1.119,0,0,0-.9-.4,2.49,2.49,0,0,1-.644-.184,5.927,5.927,0,0,1,.53-.58c.541-.449,1.1-.873,1.646-1.323a3.62,3.62,0,0,0,.588-.611c.164-.223.271-.463-.08-.674-.126-.075-.179-.3-.232-.461-.126-.4-.211-.81-.352-1.2-.093-.253-.253-.427-.589-.265a.391.391,0,0,1-.559-.343c-.127-.911-.716-1.714-.581-2.691a1.009,1.009,0,0,0-.518-1.146.553.553,0,0,1-.083-.528,2.032,2.032,0,0,0,.277-1.422c-.043-.6-.1-1.193-.133-1.791a1.092,1.092,0,0,1,.8-1.241,2.282,2.282,0,0,0,.4-.193.4.4,0,0,0,.186-.619,1.293,1.293,0,0,1,.365-1.687c.741-.648.75-1.089.039-1.773a1.791,1.791,0,0,0-1.853-.2,10.266,10.266,0,0,1-5.59.566c-.236-.048-.468-.107-.705-.135a.873.873,0,0,0-.948.453c-.188.344-.4.543-.744.165-.03-.032-.085-.075-.113-.066-.507.181-.554-.281-.754-.531q-1.6-2-3.2-4a.465.465,0,0,0-.682-.082,1.311,1.311,0,0,1-1.476-.053,6.728,6.728,0,0,1-.75-.4,1.138,1.138,0,0,0-1.452.035c-.134.1-.282.175-.406.281a.681.681,0,0,1-.825.064,2.261,2.261,0,0,0-.929-.238c-1.27.013-2.54.074-3.81.107a.317.317,0,0,1-.251-.127c-.228-.464-.458-.93-.641-1.413-.121-.32-.192-.625-.64-.426a.346.346,0,0,1-.214-.025,1.654,1.654,0,0,1-.882-1.876c.265-.689.265-.7-.03-1.093.882-.5.865-.677.564-1.731a2.7,2.7,0,0,0-1.015-1.406,2.342,2.342,0,0,1-.91-1.867,3.235,3.235,0,0,0-.413-1.24c-.1-.217-.32-.3-.6-.1-.319.235-.456.123-.477-.292-.01-.226-.056-.451-.087-.676l-.134-.037a2.8,2.8,0,0,1-.382.442,5.572,5.572,0,0,1-.646.377,2.477,2.477,0,0,1-.3-.844,1.67,1.67,0,0,1,.355-.808c.383-.553.8-1.084,1.211-1.617.2-.253.318-.471.1-.8a.8.8,0,0,1,.039-.611c.182-.442.431-.848.2-1.365-.052-.118.062-.347.154-.489.237-.363.52-.7.756-1.06.455-.7.922-1.392,1.325-2.12a2.571,2.571,0,0,1,1.329-1.207,1.087,1.087,0,0,0,.5-.452c.349-.627.672-1.27.974-1.921a.765.765,0,0,1,.723-.5,9.087,9.087,0,0,0,2.679-.817c.2-.064.36-.379.439-.613.087-.249.13-.421.453-.437.155-.008.331-.186.433-.331.031-.045-.143-.242-.233-.363-.159-.214-.337-.415-.488-.633-.233-.337-.434-.666-.951-.6-.159.019-.352-.228-.529-.353Z" fill="none"/>
    </clipPath>
    <linearGradient id="linear-gradient" y1="1" x2="0.01" y2="1" gradientUnits="objectBoundingBox">
      <stop offset="0" stop-color="#7b0002"/>
      <stop offset="0.003" stop-color="#7b0002"/>
      <stop offset="0.5" stop-color="#f60100"/>
      <stop offset="1" stop-color="#7b0002"/>
    </linearGradient>
    <clipPath id="clip-path-3">
      <path id="Trazado_696472" data-name="Trazado 696472" d="M7.437,45.692a1.52,1.52,0,0,0,.146.314c.165.291.356.566.559.885l.281-.136c.028.01.064.011.081.03A1.8,1.8,0,0,1,8.557,49.2c-.08.1-.033.346.026.5.136.354.314.693.478,1.038a1.726,1.726,0,0,0,.2.388.946.946,0,0,1-.493,1.622c-.1.031-.206.042-.3.078-.352.13-.333.232-.113.535a2.429,2.429,0,0,1,.379.911,8.96,8.96,0,0,1,.082,1.107c.03.354.077.7.117,1.057a.513.513,0,0,0,.027.176c.465.892-.068,1.782-.014,2.675.018.3-.22.485-.526.59a.547.547,0,0,0-.23.951c.266.314.527.634.766.921a1.136,1.136,0,0,1,.056-.5,1.085,1.085,0,0,1,.493-.356c.054-.024.243.113.278.209.163.455-.24.535-.506.692a.479.479,0,0,0,.775.348.491.491,0,0,1,.4-.08.466.466,0,0,1,.167.369c0,.073-.182.133-.262.218-.1.1-.243.224-.25.344a.822.822,0,0,1-.608.8.539.539,0,0,0-.421.715c.085.35-.178.491-.417.6a1.172,1.172,0,0,0-.678.72.927.927,0,0,1-.358.5,1.257,1.257,0,0,0-.6,1.111,1.19,1.19,0,0,1-1.075,1.141.89.89,0,0,0-.7.623c-.041.11-.169.189-.256.281a1.308,1.308,0,0,1-.23-.279c-.206-.46-.418-.5-.747-.115-.107.126-.2.267-.313.382a.54.54,0,0,1-.294.181,1.208,1.208,0,0,0-1.1,1.627,1.215,1.215,0,0,1-.085.829.7.7,0,0,0,.022.859,1.538,1.538,0,0,1,.136.557,1.935,1.935,0,0,1-.545.033C.8,73.322.577,73.4,0,74.246v.45c.4.315.8.638,1.2.95H49.751c.054-.547.115-1.092.182-1.639.01-.081.183-.187.293-.205a7.532,7.532,0,0,1,1.413-.172c.671.017,1.335.173,2.006.192,1.569.047,3.139.052,4.708.065a1.153,1.153,0,0,0,.31-.1,4.832,4.832,0,0,1-.3-.724.542.542,0,0,1,.081-.452.472.472,0,0,1,.444-.017,7.16,7.16,0,0,1,.771.594c.244.2.485.4.806.664a2.115,2.115,0,0,1,.158-.6c.164-.23.342-.534.579-.61a1.911,1.911,0,0,0,1.091-.8c.169-.264.369-.483.731-.371a.649.649,0,0,1,.491.758,2.5,2.5,0,0,0,.641,1.743,6.185,6.185,0,0,1,.617,1.672h.949v-.052a3.091,3.091,0,0,0-.634-1.537c-.29-.446-.15-1.082-.644-1.443-.038-.028,0-.186.031-.274.157-.423.109-.506-.439-.573-.02-.405-.026-.829-.068-1.248a.771.771,0,0,0-.184-.43c-.579-.6-1.186-1.167-1.761-1.765a1.119,1.119,0,0,0-.9-.4,2.49,2.49,0,0,1-.644-.184,5.927,5.927,0,0,1,.53-.58c.541-.449,1.1-.873,1.646-1.323a3.62,3.62,0,0,0,.588-.611c.164-.223.271-.463-.08-.674-.126-.075-.179-.3-.232-.461-.126-.4-.211-.81-.352-1.2-.093-.253-.253-.427-.589-.265a.391.391,0,0,1-.559-.343c-.127-.911-.716-1.714-.581-2.691a1.009,1.009,0,0,0-.518-1.146.553.553,0,0,1-.083-.528,2.032,2.032,0,0,0,.277-1.422c-.043-.6-.1-1.193-.133-1.791a1.092,1.092,0,0,1,.8-1.241,2.281,2.281,0,0,0,.4-.193.4.4,0,0,0,.186-.619,1.293,1.293,0,0,1,.365-1.687c.741-.648.75-1.089.039-1.773a1.791,1.791,0,0,0-1.853-.2,10.266,10.266,0,0,1-5.59.566c-.236-.048-.468-.107-.705-.135a.873.873,0,0,0-.948.453c-.188.344-.4.543-.744.165-.03-.032-.085-.075-.113-.066-.507.181-.554-.281-.754-.531q-1.5-1.875-3-3.748Z" transform="translate(0 -45.692)" fill="none"/>
    </clipPath>
    <linearGradient id="linear-gradient-2" y1="2.001" x2="0.01" y2="2.001" gradientUnits="objectBoundingBox">
      <stop offset="0" stop-color="#000b61"/>
      <stop offset="0.098" stop-color="#00156c"/>
      <stop offset="0.272" stop-color="#00328b"/>
      <stop offset="0.502" stop-color="#0061bc"/>
      <stop offset="0.528" stop-color="#0067c3"/>
      <stop offset="1" stop-color="#000b61"/>
    </linearGradient>
    <clipPath id="clip-path-4">
      <path id="Trazado_696473" data-name="Trazado 696473" d="M42.988,0c-.21.167-.415.341-.632.5a.7.7,0,0,1-.283.115c-.2.034-.4.047-.6.07.07.178.137.358.224.585-.148.184-.291.509-.613.054a.413.413,0,0,0-.377-.121.54.54,0,0,0-.278.346A2.324,2.324,0,0,1,39.01,3.5a5.1,5.1,0,0,1-1.635.39,1.353,1.353,0,0,0-.763.453A6.43,6.43,0,0,1,33.32,6.413a3.984,3.984,0,0,1-2.874-.355.911.911,0,0,0-1.315.8,3.111,3.111,0,0,0,.007.358.811.811,0,0,1-.892.888,5.317,5.317,0,0,1-1.573-.452,1.011,1.011,0,0,0-1.421.181,9.062,9.062,0,0,1-1.907,1.554A3.082,3.082,0,0,0,21.787,12.1a1.658,1.658,0,0,0,.224.749c.143.342.2.634-.129.927a.992.992,0,0,0-.228,1.12c.064.2.155.391.2.6a.817.817,0,0,1-1.042.976,2.081,2.081,0,0,0-1.743.547c-.529.36-.526,1.009-.857,1.472a2.338,2.338,0,0,1-.307.373,12.242,12.242,0,0,1-1.35,1.166,10.238,10.238,0,0,1-1.509.724,2.072,2.072,0,0,1-.458.054c.182.265.27.508.444.621a.967.967,0,0,1,.5.847c0,.745.436,1.5-.031,2.233-.085.133-.258.346-.333.324a1.523,1.523,0,0,1-.634-.371c-.058-.058.026-.333.119-.454.434-.565.441-.554-.154-.926a1.835,1.835,0,0,1-.414-.34c-.489-.566-.96-1.148-1.454-1.711-.1-.114-.348-.268-.388-.236a1.609,1.609,0,0,0-.423.543c-.035.075.1.242.173.35a4.323,4.323,0,0,1,1.119,2.683.6.6,0,0,1-.232.446c-.61.289-.823.884-1.16,1.386a1.546,1.546,0,0,1-.388.413c-.258.179-.466.127-.6-.188a4.809,4.809,0,0,0-.326-.553l-.176.025a2.54,2.54,0,0,0-.025.688c.064.272.037.421-.247.511-.522.167-.411.686-.506,1.06-.033.129.243.359.409.508a4.726,4.726,0,0,0,.524.345.662.662,0,0,1,.3.813.294.294,0,0,0,.008.157H51.734c-.067-.084-.135-.167-.2-.252a.465.465,0,0,0-.682-.082,1.311,1.311,0,0,1-1.476-.053,6.727,6.727,0,0,1-.75-.4,1.138,1.138,0,0,0-1.452.035c-.134.1-.282.175-.406.281a.681.681,0,0,1-.825.064,2.261,2.261,0,0,0-.929-.238c-1.27.013-2.54.074-3.81.107a.317.317,0,0,1-.251-.127c-.228-.464-.458-.93-.641-1.413-.121-.32-.192-.625-.64-.426a.346.346,0,0,1-.214-.025,1.654,1.654,0,0,1-.882-1.876c.265-.689.265-.7-.03-1.093.882-.5.865-.677.564-1.731A2.7,2.7,0,0,0,38.1,21.339a2.342,2.342,0,0,1-.91-1.867,3.235,3.235,0,0,0-.413-1.24c-.1-.217-.32-.3-.6-.1-.319.235-.456.123-.477-.292-.01-.226-.056-.451-.087-.676l-.134-.037a2.8,2.8,0,0,1-.382.442,5.572,5.572,0,0,1-.646.377,2.477,2.477,0,0,1-.3-.844,1.67,1.67,0,0,1,.355-.808c.383-.553.8-1.084,1.211-1.617.2-.253.318-.471.1-.8a.8.8,0,0,1,.039-.611c.182-.442.431-.848.2-1.365-.052-.118.062-.347.154-.489.237-.363.52-.7.756-1.06.455-.7.922-1.392,1.325-2.12a2.571,2.571,0,0,1,1.329-1.207,1.087,1.087,0,0,0,.5-.452c.349-.627.672-1.27.974-1.921a.765.765,0,0,1,.723-.5,9.087,9.087,0,0,0,2.679-.817c.2-.064.36-.379.439-.613.087-.249.13-.421.453-.437.155-.008.331-.186.433-.331.031-.045-.143-.242-.233-.363-.159-.214-.337-.415-.488-.633-.233-.337-.434-.666-.951-.6C43.988.372,43.8.125,43.618,0Z" transform="translate(-9.446)" fill="none"/>
    </clipPath>
    <linearGradient id="linear-gradient-3" x1="-0.146" y1="2.998" x2="-0.13" y2="2.998" gradientUnits="objectBoundingBox">
      <stop offset="0" stop-color="#f4c70b"/>
      <stop offset="0.5" stop-color="#fffc0d"/>
      <stop offset="1" stop-color="#f4c70b"/>
    </linearGradient>
  </defs>
  <g id="Grupo_1000313" data-name="Grupo 1000313" transform="translate(13463.333 11453.551)">
    <g id="Grupo_1000125" data-name="Grupo 1000125" transform="translate(-13463.333 -11453.551)">
      <g id="Grupo_80335" data-name="Grupo 80335" transform="translate(0 0)" clip-path="url(#clip-path)">
        <path id="Trazado_113704" data-name="Trazado 113704" d="M104.364,52.182A52.182,52.182,0,1,1,52.182,0a52.182,52.182,0,0,1,52.182,52.182" transform="translate(0)" fill="#4db1f0"/>
        <g id="Grupo_930034" data-name="Grupo 930034" transform="translate(19.321 7.226)">
          <g id="Grupo_930029" data-name="Grupo 930029">
            <g id="Grupo_930028" data-name="Grupo 930028" clip-path="url(#clip-path-2)">
              <rect id="Rectángulo_344420" data-name="Rectángulo 344420" width="65.723" height="89.912" fill="url(#linear-gradient)"/>
            </g>
          </g>
          <g id="Grupo_930031" data-name="Grupo 930031" transform="translate(0 29.977)">
            <g id="Grupo_930030" data-name="Grupo 930030" clip-path="url(#clip-path-3)">
              <rect id="Rectángulo_344421" data-name="Rectángulo 344421" width="65.723" height="29.954" fill="url(#linear-gradient-2)"/>
            </g>
          </g>
          <g id="Grupo_930033" data-name="Grupo 930033" transform="translate(6.197)">
            <g id="Grupo_930032" data-name="Grupo 930032" clip-path="url(#clip-path-4)">
              <rect id="Rectángulo_344422" data-name="Rectángulo 344422" width="42.319" height="29.988" transform="translate(-0.03)" fill="url(#linear-gradient-3)"/>
            </g>
          </g>
        </g>
      </g>
    </g>
  </g>
</svg>
