<svg xmlns="http://www.w3.org/2000/svg" xmlns:xlink="http://www.w3.org/1999/xlink" width="377.996" height="334" viewBox="0 0 377.996 334">
  <defs>
    <clipPath id="clip-path">
      <rect id="Rectángulo_344483" data-name="Rectángulo 344483" width="318.049" height="315.5" transform="translate(0 20)" fill="none"/>
    </clipPath>
    <clipPath id="clip-path-2">
      <rect id="Rectángulo_344439" data-name="Rectángulo 344439" width="335" height="335" transform="translate(0 0.499)" fill="none"/>
    </clipPath>
    <clipPath id="clip-path-3">
      <rect id="Rectángulo_344433" data-name="Rectángulo 344433" width="256.73" height="217.423" fill="none"/>
    </clipPath>
    <clipPath id="clip-path-4">
      <rect id="Rectángulo_344434" data-name="Rectángulo 344434" width="114.649" height="62.442" fill="none"/>
    </clipPath>
    <clipPath id="clip-path-5">
      <rect id="Rectángulo_344436" data-name="Rectángulo 344436" width="114.382" height="103.158" fill="none"/>
    </clipPath>
    <clipPath id="clip-path-7">
      <rect id="Rectángulo_344437" data-name="Rectángulo 344437" width="88.137" height="57.427" fill="none"/>
    </clipPath>
    <clipPath id="clip-path-8">
      <rect id="Rectángulo_344438" data-name="Rectángulo 344438" width="81.056" height="58.141" fill="none"/>
    </clipPath>
    <clipPath id="clip-path-11">
      <rect id="Rectángulo_344441" data-name="Rectángulo 344441" width="0.036" height="0.042" fill="none"/>
    </clipPath>
    <clipPath id="clip-path-12">
      <rect id="Rectángulo_344442" data-name="Rectángulo 344442" width="4.116" height="5.516" fill="none"/>
    </clipPath>
    <clipPath id="clip-path-13">
      <rect id="Rectángulo_344443" data-name="Rectángulo 344443" width="5.32" height="4.405" fill="none"/>
    </clipPath>
    <clipPath id="clip-path-14">
      <rect id="Rectángulo_344457" data-name="Rectángulo 344457" width="29.385" height="9.686" fill="none"/>
    </clipPath>
    <clipPath id="clip-path-15">
      <rect id="Rectángulo_344444" data-name="Rectángulo 344444" width="0.467" height="0.468" fill="none"/>
    </clipPath>
    <clipPath id="clip-path-18">
      <rect id="Rectángulo_344447" data-name="Rectángulo 344447" width="0.468" height="0.468" fill="none"/>
    </clipPath>
    <clipPath id="clip-path-19">
      <rect id="Rectángulo_344448" data-name="Rectángulo 344448" width="0.468" height="0.467" fill="none"/>
    </clipPath>
    <clipPath id="clip-path-26">
      <rect id="Rectángulo_344455" data-name="Rectángulo 344455" width="0.467" height="0.467" fill="none"/>
    </clipPath>
    <clipPath id="clip-path-28">
      <rect id="Rectángulo_344458" data-name="Rectángulo 344458" width="48.592" height="22.257" fill="none"/>
    </clipPath>
    <clipPath id="clip-path-29">
      <rect id="Rectángulo_344459" data-name="Rectángulo 344459" width="4.412" height="5.315" fill="none"/>
    </clipPath>
    <clipPath id="clip-path-30">
      <rect id="Rectángulo_344460" data-name="Rectángulo 344460" width="5.092" height="4.683" fill="none"/>
    </clipPath>
    <clipPath id="clip-path-31">
      <rect id="Rectángulo_344461" data-name="Rectángulo 344461" width="70.746" height="48.626" fill="none"/>
    </clipPath>
    <clipPath id="clip-path-32">
      <rect id="Rectángulo_344462" data-name="Rectángulo 344462" width="85.605" height="61.262" fill="none"/>
    </clipPath>
    <clipPath id="clip-path-34">
      <rect id="Rectángulo_344464" data-name="Rectángulo 344464" width="4.675" height="5.101" fill="none"/>
    </clipPath>
    <clipPath id="clip-path-35">
      <rect id="Rectángulo_344465" data-name="Rectángulo 344465" width="4.86" height="4.929" fill="none"/>
    </clipPath>
    <clipPath id="clip-path-36">
      <rect id="Rectángulo_344466" data-name="Rectángulo 344466" width="49.891" height="18.912" fill="none"/>
    </clipPath>
    <clipPath id="clip-path-38">
      <rect id="Rectángulo_344476" data-name="Rectángulo 344476" width="15.31" height="10.774" fill="none"/>
    </clipPath>
    <clipPath id="clip-path-39">
      <rect id="Rectángulo_344477" data-name="Rectángulo 344477" width="29.517" height="16.704" fill="none"/>
    </clipPath>
    <clipPath id="clip-path-40">
      <rect id="Rectángulo_344478" data-name="Rectángulo 344478" width="9.503" height="55.724" fill="none"/>
    </clipPath>
    <clipPath id="clip-path-41">
      <rect id="Rectángulo_344479" data-name="Rectángulo 344479" width="29.684" height="29.685" fill="none"/>
    </clipPath>
    <clipPath id="clip-path-42">
      <rect id="Rectángulo_344480" data-name="Rectángulo 344480" width="30.912" height="30.914" fill="none"/>
    </clipPath>
    <clipPath id="clip-path-43">
      <rect id="Rectángulo_344481" data-name="Rectángulo 344481" width="30.908" height="30.91" fill="none"/>
    </clipPath>
  </defs>
  <g id="Grupo_1000127" data-name="Grupo 1000127" transform="translate(9407 9997)">
    <path id="Trazado_705262" data-name="Trazado 705262" d="M0,0H378V334H0Z" transform="translate(-9407 -9997)" fill="none"/>
    <g id="Grupo_930179" data-name="Grupo 930179" transform="translate(-9377 -10008)" clip-path="url(#clip-path)">
      <g id="Grupo_930077" data-name="Grupo 930077" transform="translate(0 0.001)">
        <g id="Grupo_930076" data-name="Grupo 930076" clip-path="url(#clip-path-2)">
          <g id="Grupo_930060" data-name="Grupo 930060" transform="translate(37.818 51.626)" style="mix-blend-mode: multiply;isolation: isolate">
            <g id="Grupo_930059" data-name="Grupo 930059">
              <g id="Grupo_930058" data-name="Grupo 930058" clip-path="url(#clip-path-3)">
                <path id="Trazado_696560" data-name="Trazado 696560" d="M85.886,93.3c-32.935,27.373-40.26,95.47-11.658,127.969a63.531,63.531,0,0,0,22.754,16.388c8.936,3.8,15.643,1.675,25.021,1.571,13.375-.147,17.374,13.384,23.75,22.426a78.086,78.086,0,0,0,33.912,26.638c70.523,28.838,145.346-48.85,131.928-118.526-4.839-25.127-17.436-42.159-40.934-53.05-20.2-9.363-42.8-11.972-64.984-13.838-9.871-.83-20.953-1.831-29.445-7.445-3.6-2.378-6.014-5.948-9.471-8.126-3.627-2.285-9.176-4.386-13.226-6A61.817,61.817,0,0,0,132.7,77.08,69.584,69.584,0,0,0,92.953,88.1a73.98,73.98,0,0,0-7.067,5.2" transform="translate(-56.437 -77.044)" fill="#ffedd7"/>
              </g>
            </g>
          </g>
          <path id="Trazado_696561" data-name="Trazado 696561" d="M285.6,183.586A62.285,62.285,0,1,1,223.317,121.3,62.285,62.285,0,0,1,285.6,183.586" transform="translate(-53.125 -40.018)" fill="#fdda5f"/>
          <path id="Trazado_696562" data-name="Trazado 696562" d="M283.251,185.631a57.385,57.385,0,0,1-39.42,54.57,57.536,57.536,0,0,1-37.254-.4,55.674,55.674,0,0,1-10.014-4.669c-.249-.148-.5-.3-.743-.45q-1.181-.729-2.325-1.511c-.263-.178-.523-.361-.78-.542-.531-.376-1.055-.758-1.575-1.152-.156-.119-.316-.241-.472-.364-.189-.145-.379-.289-.564-.442-.275-.216-.55-.439-.818-.661-.234-.193-.468-.387-.694-.58-.572-.487-1.133-.98-1.683-1.49-.271-.253-.542-.5-.81-.761-.215-.2-.43-.412-.642-.624-.271-.264-.539-.535-.8-.806-.2-.2-.4-.409-.59-.613q-1.187-1.253-2.3-2.577c-.127-.153-.257-.3-.379-.457a57.557,57.557,0,0,1-8.03-12.915c-.011-.022-.019-.044-.03-.067q-.774-1.721-1.433-3.5c-.078-.2-.152-.4-.223-.609-.085-.234-.167-.468-.249-.7q-.362-1.058-.684-2.128c-.029-.1-.063-.2-.093-.308-.041-.137-.078-.271-.119-.405q-.167-.59-.323-1.181c-.067-.253-.13-.509-.194-.762-.07-.278-.137-.557-.2-.839-.011-.041-.022-.082-.029-.123-.111-.491-.219-.98-.32-1.475-.063-.316-.123-.631-.182-.947q-.468-2.507-.71-5.092c0-.056-.011-.108-.015-.164-.041-.446-.078-.9-.108-1.348q-.129-1.939-.13-3.9c0-1.259.052-2.5.126-3.729q.123-1.928.375-3.815c.041-.308.082-.617.127-.921q.323-2.206.817-4.361a55.674,55.674,0,0,1,4.075-11.748,57.4,57.4,0,0,1,9.753-14.427s0,0,0-.007c.565-.612,1.144-1.214,1.738-1.8s1.2-1.17,1.82-1.731l.624-.557c.208-.186.42-.368.632-.549a57.138,57.138,0,0,1,6.877-5.066l.1-.059c.578-.361,1.161-.715,1.752-1.056a.194.194,0,0,0,.048-.029q.585-.335,1.181-.657l.62-.334q1.242-.664,2.526-1.256c.428-.2.858-.393,1.293-.583.216-.092.431-.186.65-.278.238-.1.476-.2.717-.3,0,0,0,0,0,0a0,0,0,0,0,0,0c.208-.085.416-.167.628-.249a56.629,56.629,0,0,1,12.462-3.321,56.046,56.046,0,0,1,8.52-.631,56.807,56.807,0,0,1,20.57,3.807q1.878.72,3.684,1.56h0c.279.13.553.26.828.394a56.789,56.789,0,0,1,5.109,2.814l0,0c.3.186.6.371.9.564.056.034.108.071.164.1.115.07.231.145.342.222.587.387,1.17.784,1.742,1.2.267.189.535.383.8.576s.549.408.821.617c.2.156.408.312.609.475.252.194.5.39.742.591.3.249.609.5.907.754.082.067.159.134.237.2.249.212.5.427.743.65.13.111.26.227.386.345.279.249.553.505.829.762.382.36.761.728,1.132,1.1.19.186.375.375.561.564q.552.563,1.092,1.148t1.058,1.177a57.334,57.334,0,0,1,6.872,9.72q.39.7.765,1.4t.724,1.427c.2.4.39.809.58,1.218.074.152.141.308.208.46.189.412.367.828.545,1.244.212.494.413,1,.609,1.5.078.2.156.4.23.6s.152.409.226.612.145.409.219.613c.123.349.242.7.356,1.051.089.267.178.535.26.809.13.416.257.836.379,1.255.133.464.263.933.386,1.408.041.168.086.334.127.5.111.431.212.869.312,1.307.048.208.093.415.137.627.007.034.015.067.023.1.085.4.163.8.241,1.2.067.353.13.71.19,1.062.052.3.1.6.145.9q.055.34.1.679l.067.472c.026.22.056.435.082.654a58.242,58.242,0,0,1,.423,7.013" transform="translate(-55.528 -42.282)" fill="#4887fc"/>
          <g id="Grupo_930063" data-name="Grupo 930063" transform="translate(112.931 137.889)" opacity="0.4" style="mix-blend-mode: multiply;isolation: isolate">
            <g id="Grupo_930062" data-name="Grupo 930062">
              <g id="Grupo_930061" data-name="Grupo 930061" clip-path="url(#clip-path-4)">
                <path id="Trazado_696563" data-name="Trazado 696563" d="M268.584,249.006a57.474,57.474,0,0,1-93.274-10.628,55.619,55.619,0,0,1-5.347-13.655,57.722,57.722,0,0,1-1.433-8.292q3.67,2.165,7.681,4.681c56.68,35.6,95-1.241,106.753-15.337a57.328,57.328,0,0,1-14.379,43.231" transform="translate(-168.529 -205.775)" fill="#4887fc"/>
              </g>
            </g>
          </g>
          <g id="Grupo_930069" data-name="Grupo 930069" transform="translate(112.918 89.691)" opacity="0.7">
            <g id="Grupo_930068" data-name="Grupo 930068">
              <g id="Grupo_930067" data-name="Grupo 930067" clip-path="url(#clip-path-5)">
                <g id="Grupo_930066" data-name="Grupo 930066" style="mix-blend-mode: multiply;isolation: isolate">
                  <g id="Grupo_930065" data-name="Grupo 930065">
                    <g id="Grupo_930064" data-name="Grupo 930064" clip-path="url(#clip-path-5)">
                      <path id="Trazado_696564" data-name="Trazado 696564" d="M303.475,182.653c-.022-.156-.045-.312-.067-.472q-.044-.34-.1-.679c-.044-.3-.092-.6-.145-.9-.06-.353-.123-.71-.19-1.062-.078-.4-.155-.8-.241-1.2l-.022-.1c-.045-.212-.089-.419-.137-.628-.1-.438-.2-.877-.312-1.307-.041-.171-.082-.338-.126-.5-.123-.475-.253-.943-.387-1.408-.123-.419-.249-.839-.379-1.255-.082-.275-.171-.543-.26-.81-.111-.352-.234-.7-.356-1.051-.074-.2-.145-.409-.219-.613s-.152-.409-.227-.612-.153-.4-.23-.6c-.2-.5-.4-1-.609-1.5-.175-.419-.356-.832-.546-1.244-.067-.152-.133-.308-.208-.46-.186-.409-.379-.814-.58-1.218q-.351-.719-.724-1.427c-.249-.472-.5-.939-.765-1.4a57.293,57.293,0,0,0-6.871-9.72c-.346-.4-.7-.791-1.059-1.177s-.724-.773-1.092-1.148c-.186-.19-.372-.379-.561-.564q-.558-.563-1.133-1.1c-.275-.256-.549-.513-.828-.761-.126-.119-.256-.234-.386-.345-.245-.223-.495-.438-.743-.65-.078-.071-.156-.137-.238-.2-.3-.257-.6-.505-.906-.754-.245-.2-.491-.4-.743-.591-.2-.164-.4-.319-.609-.475-.271-.208-.546-.413-.821-.617s-.531-.387-.8-.576a1.579,1.579,0,0,1-1.318.558.209.209,0,0,0-.153.085c-.107.108-.219.3-.334.431-.119-.2-.219-.367-.349-.586-.694.706-1.812.579-2.755.612-.071.253-.115.4-.168.587-.564-.279-1.021-.5-1.522-.743.334-.126.583-.219.824-.308-.352-.9-1.159-.679-2.054-.653.231.186.349.282.472.383l-.3.256a7.023,7.023,0,0,1,.545.746,5.392,5.392,0,0,0-1.709.275c-.022-.516-.04-.928-.056-1.222-1.567-.8-3.87-.4-4.754-.746a5.774,5.774,0,0,1-1.924-.787c-.164-.141-.758.379-1.173,0-.03-.026-.39.152-.609.2a15.633,15.633,0,0,1-2.526.561c-.932.067-1.764.635-2.574.635-.208,0-.806.62-.342.865-1.025,1.664-3.042,2.266-5.289,2.816.59.316-.85.572-.037.954a5.518,5.518,0,0,0-.5,1.345c.1.888,2.451.6,3.759.085.29.594.55,1.129.8,1.638-.235.193-.387.316-.661.542-.227-.52-.428-.984-.624-1.43-.5.271-1.4.6-1.5.821a6.765,6.765,0,0,0,.4,1.868c-.846.2-1.593.379-2.529.6a7.234,7.234,0,0,1-2.611,1.7c-.345.825-1.244.818-1.846,1.215-.212-.19-.349-.308-.542-.483-.134.416-.249.787-.375,1.208-.23-.186-.371-.3-.542-.442-.457.208-.91.419-1.319.609.639.594,1.278,1.189,1.779,1.661a11.726,11.726,0,0,1-.186,2.388c-.361.33-3.993-.977-5.642.345.58,1.4.03,2.66-.805,3.848a7.837,7.837,0,0,0,.471,1.782c.55.349,2.359,2.032.65,3.02a6.649,6.649,0,0,0-2.4,2.812c.156.2.483.523.468.609-.112.694-5.367,5.263-6.556,8.386.565,2.252,1.259,4.58-.282,6.519.052.349.086.717.115,1.078a5.557,5.557,0,0,0,.316,1.738c.568,1.151,2.21,2.741,2.9,4.26.074.159.208.438.364.509,1.724.791,3.291,4.29,5.256,2.615a1.994,1.994,0,0,1,2.288-.3c1.939,1.385,2.968-1.7,6.511-.973.419.679.761,1.222,1.129,1.816l2.362.011a8.056,8.056,0,0,1,.929,1.627,69.029,69.029,0,0,0,3.328,12.572.278.278,0,0,1,.019.045,1.4,1.4,0,0,1-.156,1.055c-2.172,2.6-.193,5.861.921,7.889.538.973.234,3.028,1.118,3.848.9.836,1.2,2.028,2.073,2.867.093.092-.164.383-.267.609a8.343,8.343,0,0,0,1.215,1.125c.869.375,3.265-.215,3.5-.227a5.08,5.08,0,0,0,1.671-.364,16.04,16.04,0,0,0,3.458-2.819,4.114,4.114,0,0,0,1.452-2.5c.728-.3,1.341-.565,1.976-.832-.078-1.1.4-2.307-.279-3.409.6-.639,1.783-.688,1.969-1.675a.427.427,0,0,1,.294-.253c1.437-.026,1.957-1.2,2.8-1.728.078-1.419.464-3.228.2-3.944-.122-.324-.9-.676-.757-1.348.056-.271-.23-.58-.226-.877.007-.323.352-.765.234-.958a1.577,1.577,0,0,1,.1-2.061c.527-.643.26-1.727.98-2.2a5.977,5.977,0,0,0,1.43-1.426,12.9,12.9,0,0,1,2.3-2.734c2.964-2.15,5.713-9.605,5.029-10.147-.2-.159-6.838,3.25-6.251-.186,2.8-1.2,5.709-2.021,7.967-4.32h1.207c.349-.267.127-1.132.884-.947,1.474-1.208,2.952-4.034,2.9-4.784-.041-.55-3.673-1.371-3.139-3.273,2.206.643,6.656.346,7.283.416.676.078,3.031,3.142,4.138,4.94.253-.141.576-.342.866-.516-.026-.219-.056-.435-.082-.654M273.49,158.9c.011.383.022.676.033,1.084-.594,0-1.1,0-1.98-.007.832-.46,1.345-.742,1.947-1.077m-2.853-13.379c.007.257.019.491.029.888-.383-.115-.687-.2-1.014-.3-.178.141-.4.32-.7.553-.171-.39-.33-.754-.509-1.147.675,0,1.411,0,2.191,0m-2.058,14.244c.59,0,1.11,0,1.723,0-.19.186-.282.279-.435.424.48.33.966.668,1.468,1.021a4.389,4.389,0,0,1,.7-.688c.881-.471,2.559.625,3.844,1.338.227.126.438.238.635.33.516.242.706.791.449,1.508-.624-.06-1.259-.015-1.894-.033a4.293,4.293,0,0,1-2.392-.657c-.535-.356-1.475-.156-2.173-.2-.308.3-.557.531-.839.806a3.041,3.041,0,0,1-2.886-1.051c.62-.966,1.23-1.909,1.8-2.8M257.1,152.188c.728-.338,1.4-.65,2.084-.966-.208-.286-.33-.453-.505-.695.457-.4.907-.8,1.464-1.289-.271-.171-.523-.327-.843-.523.011-.235.026-.546.048-.955.791-.568,1.664-1.185,2.778-1.961h1.423c-.977.606-2.414,1.256-2.533,1.594-.194.561,2.436,1.88,2.44,1.913a27.377,27.377,0,0,0-2.782,3.684c-.818.023-1.285-.773-2.147-.163-.308.219-1.181.805-1.813.056l.386-.695m-12.832,15.9c.6-.665,1.233-1.363,1.894-2.087-.026-.038-.156-.245-.268-.42.617-1.489,2.236-1.749,3.08-2.837a7.625,7.625,0,0,1-.52-.591,41.906,41.906,0,0,1,4.933-1c.538.034,1.047,2.57,2.938,2.53.594.643,1.2,1.345,1.805,2.024-.093.089-.3.294-.58.576a15.511,15.511,0,0,0-2.5.015,20.146,20.146,0,0,0,2.611,1.805c-.07-1.341,1.307-1.7,1.456-2.834-.112-.171-.241-.383-.546-.862a8.132,8.132,0,0,0,1.274.457c.208-.127-4.4-4.368-3.862-4.684.174-.1,2.2,2.262,3.662,2.318.222.007.751.539.739.746-.1,1.62,1.623,2.916,2.392,4.665.2,0,.542,0,.951,0,.059-.4.123-.8.186-1.222l1.043.561-1.53-2.623c.624-.215,1.274-.442,2.065-.716,0,1,0,1.764-.007,2.518a3.214,3.214,0,0,1,2.028,1.924c.576-.669,1.3.546,1.764-.052.724-.928,1.2.365,1.861.123a7.47,7.47,0,0,1,1.419-.323c.219-.034.446-.07.679-.119.238,1.589.153,4.446-.5,4.858-.549.349-2.165.4-3.952.174a16.261,16.261,0,0,1-3.74-.891,5.265,5.265,0,0,0-3.462-.52c-.16.568-.364,1.3-.616,2.191-1.218-.805-2.893-.713-3.774-2.239-.628,0-1.255,0-1.809.007-.524-.546-.974-1.014-1.3-1.36.115-.9.531-2.366.346-2.648a2.381,2.381,0,0,0-1.371-.368c-2.726,1.256-5.53-.312-8.922,2.243a3.582,3.582,0,0,0-2.21-.423c.621-1.222,1.523-.795,2.344-.913m28.7,35.616c.825.984-.041,1.6-.234,2.336-.442,0-1.01.1-1.141,0-.334-.26.628-1.589,1.374-2.34m7.837-12.183s-1.642-2.073-2.355-2.79c-.884-.884-.907-2.993-2.378-3.265.442-2.849-1.571-3.718-2.05-5.8-.212-.917-1.527-2.63-1.434-3.038.175-.78,3.365,3.275,3.726,3.521a2.464,2.464,0,0,1,.62,1.795,1.962,1.962,0,0,0,.665,1.731c1.126.858,2.938,3.443,2.845,4.973a16.079,16.079,0,0,0,.361,2.871m.082-30.925c1.9-1.865,2.355-1.991,4.041-1a21.32,21.32,0,0,0-2.411,1.259s1.163.52,1.167.676c.007.594.494.527.783.71,1.441.906.505,3.265,2.411,3.844.018.479.041.958.063,1.486a3.655,3.655,0,0,1-3.406-1.059c.041-.653.085-1.426.141-2.347a8.833,8.833,0,0,1-2.79-3.573m8.019,19.485a4.987,4.987,0,0,1-1.445-.007c-.271-.186.159-1.8-.869-2.147a4.508,4.508,0,0,1-.29.784c-.018,0-.263-.153-.263-.2.208-1.586-2.2-2.28-1.8-4.142a1.188,1.188,0,0,1,1.723.769c.7,1.719,3.971,2.3,4.91,2.236.342-.022-1.589,2.046-1.965,2.7" transform="translate(-189.175 -136.662)" fill="#4887fc"/>
                      <path id="Trazado_696565" data-name="Trazado 696565" d="M187.583,150.123c.334-.134.78-.2.914-.356.171-.2.126-.565-.026-.974-.212.182-.424.365-.632.55l-.624.557c-.617.565-1.226,1.141-1.82,1.731s-1.17,1.185-1.738,1.8c0,0,0,0,0,.007.015,0,.029,0,.044,0,.108.517.212.984.346,1.6l1.385.45.758-.657c.089.1.174.2.453.513.171-1.1.286-1.79.409-2.493.208.093.386.175.6.275a14.13,14.13,0,0,0,1.705-1.526c-.621-.516-1.181-.984-1.768-1.474M197.7,209.95c-.434-.015-.805-.03-1.073-.041a17.255,17.255,0,0,0-2.259-2.08c-1.121-.464-3.176-.717-4.628-1.872-.809-.643-2.006-.665-2.723-1.608a2.7,2.7,0,0,0,.3-.558c.06-2.128-3.008-3.8-5.126-4.825-.535-.256-.735-1.538-1.407-1.786-.806-.3-.806-1.6-1.549-2.132a2.116,2.116,0,0,0-1.79.361c-.509-.676-1.148-.32-1.709-.5-.074-.245-.149-.483-.245-.8-.416-.007-.851-.015-1.259-.025-.086-.312-.152-.55-.238-.862-.843.5-1.645.977-2.366,1.4-.271.676-.52,1.3-.765,1.913-.513-.375-.891-.7-1.285-.936-.55-.331-.654.769-1.055.758a.261.261,0,0,0-.015-.023c.029.45.067.9.108,1.348,0,.056.011.108.015.164.108.074.216.137.323.2.015-.041.03-.085.045-.134.2-.609.4-1.534.576-1.433a5.642,5.642,0,0,1,.888,2.306c.018.3-.041.531-.235.628.424.453.275,1.074.312,1.686-.535.42-.773,1.275-1.2,1.843.059.316.119.631.182.947.1.494.208.984.32,1.475.007.041.019.082.03.122.063.283.129.561.2.84.063.253.126.509.193.761q.156.591.323,1.181c.041.134.078.267.119.4.029.1.063.208.092.308q.324,1.07.684,2.128c.082.235.164.468.249.7.071.2.145.409.223.609q.657,1.783,1.434,3.5a.5.5,0,0,0,.025.063l0,0c.037.041.078.082.115.119a12.176,12.176,0,0,0,2.5,2.032,5.15,5.15,0,0,1,2.537,3.2,52.307,52.307,0,0,0,2.618,6.972c.015.038.034.071.048.108.067.152.141.312.208.483,0,0,0,.011.007.015.123.148.245.3.371.442.739.885,1.508,1.742,2.3,2.578.193.2.39.412.59.613.264.271.531.542.8.806.212.211.427.419.643.624.267.256.538.509.809.761.549.509,1.11,1,1.683,1.49.226.193.46.386.695.579.267.223.542.446.817.661.186.152.375.3.564.442.156.123.316.245.472.364q.78.59,1.575,1.151a2.094,2.094,0,0,1,.182-.735c-.46-.153-.881-.3-1.311-.45-.2-.07-.409-.145-.625-.219-.048-.111-.1-.241-.152-.361-.026-.063-.052-.123-.074-.174.238-.041.365-.063.527-.093-.431-.527-.464-.951-.082-1.244.034-.026-.074-.156-.141-.282-.353-.078-.71-.156-1.1-.245-.019-.182-.029-.294-.041-.412.241.126.446.234.572.3.891-.092.237-.754.137-1.222,1.274.1,2.243-.349,1.887-1.248-.134-.342-1.107-.509-.977-1.1l1.43.123c.044-.732.832-1.125.123-2.21,1.363.111.219-1.419,1.1-1.564a10.606,10.606,0,0,1-.847-2.629,5.228,5.228,0,0,1,2.544-1.218,1.147,1.147,0,0,0,1.167-1.177c.13-1.634-.658-4.65-.65-5.694a9.46,9.46,0,0,1,1.756-3.7,1.354,1.354,0,0,0,.312-.742,7.873,7.873,0,0,0-.818-3.19m-1,31.631a7.323,7.323,0,0,1-.817-.093c.245.153.49.3.738.45h0a.9.9,0,0,0,.308-.222.774.774,0,0,0,.089-.123c-.108,0-.215,0-.323-.011" transform="translate(-168.51 -138.778)" fill="#4887fc"/>
                      <path id="Trazado_696566" data-name="Trazado 696566" d="M223.028,135.193c-.52-.617-2.663.219-2.767.074-.038-.048-.892-1.4-1.839-1.408a6.988,6.988,0,0,0-1.943.119l-.038.011a3.17,3.17,0,0,0-.627.249,0,0,0,0,1,0,0s0,0,0,0a3.158,3.158,0,0,0-.435.283c-.092,0-.19.007-.282.015-.219.092-.435.186-.65.279q-.652.283-1.293.583-1.276.6-2.526,1.255l-.62.334q-.6.324-1.181.657a.2.2,0,0,1-.048.03q-1.827,1.058-3.569,2.239a.452.452,0,0,1,.3.141c.137.167.464.643.286.872-.368.476.056.806-.4,1.2-.6.52-.416,1.133-.546,1.382s-.438.688-.72,1.118c.539-.049.909-.082,1.553-.137-.65.379-1.04.608-1.464.861-.2.584-.416,1.219-.605,1.805.541,1.118.267,2.723,1.11,3.818,1.1-.675,1.668.981,2.27.357.687-.71,1.63-3.673,3.149-4.171,2.443-.8,1.423-1.675,4.141-2.526a7.281,7.281,0,0,0,3.324-2.091c.45-.517.149-.777.163-1.136a1.741,1.741,0,0,1,.294-.854,6.832,6.832,0,0,1,1.389-1.434c.156-.133.159-.456.231-.675.212-.064.419-.127.817-.242-.256-.383-.713-.891-.694-1.036.037-.323,2.266-1.363,3.231-1.983" transform="translate(-180.087 -133.848)" fill="#4887fc"/>
                      <path id="Trazado_696567" data-name="Trazado 696567" d="M303.326,260.874c-.2-.528.35-1.179-.238-1.713-.136-.123.065-.645.265-.9.917-1.153.574-3.5,1.156-4.074a25.217,25.217,0,0,1,4.61-3.312c.37-.08.97,2.188.938,2.665-.021.32-1.007,1.155-1.119,1.841a13.352,13.352,0,0,1-2.951,5.129,9.08,9.08,0,0,1-1.755.734l-.906-.375" transform="translate(-212.893 -172.456)" fill="#4887fc"/>
                      <path id="Trazado_696568" data-name="Trazado 696568" d="M253.152,158.863c-.359-.263-.732.54-1.3.218-.781-.444-3.142.528-3.143.517a12.307,12.307,0,0,1,1.018-2.258c.04-.068-.214-.249-.381-.433l1.409-.246-1.517-.977c-.084.67-.159,1.306-.224,1.878a3.541,3.541,0,0,1-2.836.675c.474-2.236.858-2.635,2.511-2.866.063-.484.129-.978.211-1.563l-.706-.961c.878-.222,1.851-.667,2.231-.157s1.181.593,1.329,1.272c-.155.2-.332.434-.575.757.8.846,1.628,1.724,2.535,2.686-.152.39-.364.938-.562,1.457" transform="translate(-194.133 -139.987)" fill="#4887fc"/>
                      <path id="Trazado_696569" data-name="Trazado 696569" d="M269.616,134.989l1.443,0c.751-.71,2.563-.656,4.309.109-.489.459-.5.469-2.272.342.642.342,1.182.639,1.712.935-1,.448-1.025.415-2.1-.562-.547.345-1.077,1.173-1.218,1.236a7.785,7.785,0,0,1-1.567-.489c0-.083.007-.251.012-.419-1.265-.469-1.267-.545-.318-1.149" transform="translate(-201.642 -134.059)" fill="#4887fc"/>
                      <path id="Trazado_696570" data-name="Trazado 696570" d="M300.818,142.222a4.507,4.507,0,0,1-.5-.063,13.744,13.744,0,0,1-2.024-.609,3.764,3.764,0,0,0,.568-.594c.3.186.6.371.9.564.056.034.108.071.164.1.115.078.23.152.346.23.186.119.367.245.549.368" transform="translate(-211.325 -136.193)" fill="#4887fc"/>
                      <path id="Trazado_696571" data-name="Trazado 696571" d="M227.81,150.532c-.074.3-.149.621-.218.916-.7.426-1.394.857-2.106,1.306-.7-.134-1.35-.215-2.035-.316-.021-.161-.046-.348-.073-.558l-.5.379c-.1-.347-.2-.692-.308-1.078.273-.22.519-.417.752-.6.661.426,1.534-.321,2.1-.105.369-.291.634-.482.844-.631l1.546.688" transform="translate(-186.344 -139.125)" fill="#4887fc"/>
                      <path id="Trazado_696572" data-name="Trazado 696572" d="M173.047,203.843c-.84.939-.869.947-1.939.873.09-.171.16-.3.279-.524-.742-.338-1.563-1.712-2.325-1.995.041-.308.082-.616.127-.921l.809-.023c1.033.885,2.039,1.739,3.05,2.589" transform="translate(-168.692 -156.085)" fill="#4887fc"/>
                      <path id="Trazado_696573" data-name="Trazado 696573" d="M175.636,206.455c-.15-.375-.257-.643-.393-.99l1.955-.022c.321.451.946.836.675,1.876-.874-.633-1.285-.272-1.285-.272a3.23,3.23,0,0,0-1.5-.01c-.117.041-.318.478-.411.222a2.805,2.805,0,0,1-.02-.516l.984-.287" transform="translate(-170.536 -157.467)" fill="#4887fc"/>
                      <path id="Trazado_696574" data-name="Trazado 696574" d="M290.628,136.566c-.152.07-.316.141-.487.219-.33-.1-.728-.208-1.311-.371l.966-.242h0c.279.13.553.26.828.394" transform="translate(-208.204 -134.615)" fill="#4887fc"/>
                      <path id="Trazado_696575" data-name="Trazado 696575" d="M297.758,144.328l-1.476-.006c0-.3,0-.544.006-.911.644.257,1.12.449,1.6.643l-.127.274" transform="translate(-210.662 -137.003)" fill="#4887fc"/>
                      <path id="Trazado_696576" data-name="Trazado 696576" d="M213.526,285.741c-.32.3-.32.3-1.629.206.317-.3.318-.3,1.629-.206" transform="translate(-182.823 -183.939)" fill="#4887fc"/>
                      <path id="Trazado_696577" data-name="Trazado 696577" d="M262.639,175.413a9.027,9.027,0,0,1,.3-3.174,6.764,6.764,0,0,1,.866-.566.958.958,0,0,1-.218,1.487c.925.732-.111,2.438-.535,2.475-.069.006-.273-.149-.409-.223" transform="translate(-199.552 -146.327)" fill="#4887fc"/>
                      <path id="Trazado_696578" data-name="Trazado 696578" d="M280.017,181.909c.821.107,1.761-.493,2.432.515-1.082.356-1.086.354-2.432-.515" transform="translate(-205.296 -149.677)" fill="#4887fc"/>
                      <path id="Trazado_696579" data-name="Trazado 696579" d="M290.281,182.5c.46-.62.957-.862,1.621-.5.428,1.056-.895.569-.99,1.2l-.631-.7" transform="translate(-208.682 -149.677)" fill="#4887fc"/>
                    </g>
                  </g>
                </g>
              </g>
            </g>
          </g>
          <g id="Grupo_930072" data-name="Grupo 930072" transform="translate(114.233 85.881)" opacity="0.45" style="mix-blend-mode: screen;isolation: isolate">
            <g id="Grupo_930071" data-name="Grupo 930071">
              <g id="Grupo_930070" data-name="Grupo 930070" clip-path="url(#clip-path-7)">
                <path id="Trazado_696580" data-name="Trazado 696580" d="M258.609,143.577a35.138,35.138,0,0,1-2.749,13.6q-.379.914-.81,1.805a38.968,38.968,0,0,1-2.507,4.427c-.164.253-.331.5-.505.746-.264.387-.539.773-.818,1.152-.765,1.036-1.586,2.042-2.451,3.015-8.606,9.654-22.111,16.184-37.522,17.142-1.3.082-2.611.123-3.933.123-14.456,0-27.519-4.9-36.842-12.785a55.64,55.64,0,0,1,4.075-11.748A57.4,57.4,0,0,1,184.3,146.63s0,0,0-.007c.565-.612,1.144-1.214,1.738-1.8s1.2-1.17,1.82-1.731l.624-.557c.208-.186.42-.368.632-.549A57.059,57.059,0,0,1,196,136.923l.1-.06c.578-.361,1.161-.716,1.752-1.056a.217.217,0,0,0,.048-.029q.585-.335,1.181-.657l.62-.334q1.242-.663,2.526-1.256c.428-.2.858-.393,1.293-.583l.65-.279c.238-.1.476-.2.717-.3,0,0,0,0,0,0a0,0,0,0,0,0,0,3.151,3.151,0,0,1,.628-.249,56.629,56.629,0,0,1,12.462-3.321,56.046,56.046,0,0,1,8.52-.631,56.807,56.807,0,0,1,20.57,3.807q1.878.719,3.684,1.56h0c.279.13.553.26.828.394a56.791,56.791,0,0,1,5.109,2.814l0,0c.3.186.6.371.9.564.056.034.108.071.164.1.115.07.231.145.342.222a.012.012,0,0,1,0,.007c.018.1.034.2.048.3.085.505.156,1.018.219,1.53a35.065,35.065,0,0,1,.241,4.108" transform="translate(-170.472 -128.162)" fill="#4887fc"/>
              </g>
            </g>
          </g>
          <g id="Grupo_930075" data-name="Grupo 930075" transform="translate(117.783 76.195)" style="mix-blend-mode: multiply;isolation: isolate">
            <g id="Grupo_930074" data-name="Grupo 930074">
              <g id="Grupo_930073" data-name="Grupo 930073" clip-path="url(#clip-path-8)">
                <path id="Trazado_696581" data-name="Trazado 696581" d="M256.826,156.383s-5.8-.306-15.556-7.349a25.621,25.621,0,0,0,.847-10.5c-2.036-15.881-18.492-26.858-36.756-24.517s-31.42,17.114-29.384,32.995,18.492,26.858,36.756,24.518a36.043,36.043,0,0,0,21.619-10.687c5.59.788,13.472.391,22.474-4.465" transform="translate(-175.77 -113.708)" fill="#fdda5f"/>
              </g>
            </g>
          </g>
          <path id="Trazado_696582" data-name="Trazado 696582" d="M258.942,148.2s-5.711-1.041-14.5-9.267a25.606,25.606,0,0,0,2.174-10.3c0-16.011-14.927-28.991-33.34-28.991s-33.341,12.98-33.341,28.991,14.927,28.992,33.341,28.992a36.044,36.044,0,0,0,22.8-7.851c5.445,1.492,13.312,2.1,22.859-1.571" transform="translate(-59.362 -32.873)" fill="#fff"/>
          <path id="Trazado_696583" data-name="Trazado 696583" d="M212.068,99.82c-.032.389-.074.783-.133,1.178-1.535,10.12-12.21,16.9-23.85,15.136a22.977,22.977,0,0,1-2.755-.586c5.085-8.677,15.046-14.827,26.739-15.728" transform="translate(-61.14 -32.931)" fill="#050012"/>
        </g>
      </g>
      <text id="hello" transform="translate(136.778 105.597)" fill="#050012" font-size="26" font-family="AmaticSC-Bold, Amatic SC" font-weight="700"><tspan x="0" y="0">hello</tspan></text>
      <g id="Grupo_930079" data-name="Grupo 930079" transform="translate(0 0.001)">
        <g id="Grupo_930078" data-name="Grupo 930078" clip-path="url(#clip-path-2)">
          <path id="Trazado_696584" data-name="Trazado 696584" d="M133.152,86.154s4.512-.822,11.453-7.322a20.238,20.238,0,0,1-1.717-8.14c0-12.651,11.794-22.907,26.343-22.907s26.343,10.256,26.343,22.907S183.779,93.6,169.231,93.6a28.48,28.48,0,0,1-18.017-6.2,28.541,28.541,0,0,1-18.062-1.242" transform="translate(-43.927 -15.765)" fill="#917aeb"/>
        </g>
      </g>
      <text id="ni_hao" data-name="ni hao" transform="translate(108.963 60.914)" fill="#fff" font-size="20" font-family="AmaticSC-Bold, Amatic SC" font-weight="700"><tspan x="0" y="0">ni hao</tspan></text>
      <g id="Grupo_930147" data-name="Grupo 930147" transform="translate(0 0.001)">
        <g id="Grupo_930146" data-name="Grupo 930146" clip-path="url(#clip-path-2)">
          <path id="Trazado_696585" data-name="Trazado 696585" d="M308.3,117.092a10.608,10.608,0,0,0-8.142,4.2c-1.277,1.647-2.091,4.287-.784,5.9a8.219,8.219,0,0,0-5.165,4.457,9.938,9.938,0,0,0-.419,7.28,2.168,2.168,0,0,0,.807,1.232.769.769,0,0,0,1.141-.448c-1.5-.436-4.417.439-5.634,1.507a6.009,6.009,0,0,0-1.927,4.52,3.092,3.092,0,0,0,1.273,2.729,6.137,6.137,0,0,0,.93,6.457,4.634,4.634,0,0,0,5.8.856c.019.224.436,4.3,3.844,5.985a7.567,7.567,0,0,0,9.221-2.572,15.536,15.536,0,0,0,9.344,8.36,15.259,15.259,0,0,0,15.055-4.013c.273,2.744,1.4,5.343,3.842,5.75a5.727,5.727,0,0,0,6.018-3.745c2.122,3.317,6.418,3.7,8.526,1.761,1.792-1.648,2.091-5.054.094-7.606,2.183-1.168,4.427-2.158,4.439-4.865a7.552,7.552,0,0,0-3.627-6.546,6.618,6.618,0,0,0,2.518-6.077,6.153,6.153,0,0,0-3.919-5.067,10.383,10.383,0,0,0,1.344-8.452c-.517-1.848-1.7-2.538-5.414-6.086-5.485-5.242-4.834-5.271-6.748-6.692a24.5,24.5,0,0,0-11.831-4.41c-10.426-1.319-18.451,4.047-20.587,5.577" transform="translate(-95.068 -36.721)" fill="#992b1e"/>
          <g id="Grupo_930082" data-name="Grupo 930082" transform="translate(205.253 66.845)" style="mix-blend-mode: screen;isolation: isolate">
            <g id="Grupo_930081" data-name="Grupo 930081">
              <g id="Grupo_930080" data-name="Grupo 930080" clip-path="url(#clip-path-11)">
                <path id="Trazado_696586" data-name="Trazado 696586" d="M306.31,99.8c.011-.016.017-.026.028-.042-.033.016-.044.031-.028.042" transform="translate(-306.303 -99.755)" fill="#050012"/>
              </g>
            </g>
          </g>
          <path id="Trazado_696587" data-name="Trazado 696587" d="M306.631,141.026a12.407,12.407,0,0,0-.057-6.377c-.728-2.542-2.337-4.7-5.891-1.315-6.319,6.028-.312,14.034,4.917,11.873Z" transform="translate(-98.3 -43.412)" fill="#f29e79"/>
          <g id="Grupo_930085" data-name="Grupo 930085" transform="translate(202.963 92.152)" style="mix-blend-mode: multiply;isolation: isolate">
            <g id="Grupo_930084" data-name="Grupo 930084">
              <g id="Grupo_930083" data-name="Grupo 930083" clip-path="url(#clip-path-12)">
                <path id="Trazado_696588" data-name="Trazado 696588" d="M303.177,137.634a3.1,3.1,0,0,1,3.046.844,2.933,2.933,0,0,1,.592,3.024,3.063,3.063,0,0,1-1.128,1.476.421.421,0,0,1-.57-.149.426.426,0,0,1,.149-.57,2.246,2.246,0,0,0,.818-2.4.294.294,0,0,1-.143.025,2.536,2.536,0,0,0-.371-.011c-.059,0-.117.007-.176.013l-.04,0-.081.014a3,3,0,0,0-.341.09c-.056.019-.111.042-.166.062.086-.032-.021.009-.031.015l-.08.038a2.834,2.834,0,0,0-.3.179c-.025.016-.049.032-.073.05l-.054.042c-.036.029-.073.06-.108.092a2.512,2.512,0,0,0-.245.255l-.052.064-.02.028c-.038.053-.072.108-.105.163a.416.416,0,1,1-.726-.407,3.191,3.191,0,0,1,2.636-1.531,2.264,2.264,0,0,0-2.2-.6.416.416,0,0,1-.225-.8" transform="translate(-302.885 -137.521)" fill="#e66239"/>
              </g>
            </g>
          </g>
          <path id="Trazado_696589" data-name="Trazado 696589" d="M342.789,150.489c-8.848,5.581-18.059,3.2-23.327,1.835-2.942-.764-12.049-3.119-14.415-9.551-.169-.461-.265-.849-.377-1.265a15.087,15.087,0,0,1-.456-3.219,22.993,22.993,0,0,1,.255-4.03,37.964,37.964,0,0,1,1.245-5.539c.077-.262.153-.525.235-.781.43-1.372.9-2.658,1.386-3.85.57-1.4,1.169-2.685,1.756-3.844a40.865,40.865,0,0,1,4.724-7.342,27.455,27.455,0,0,1,3.489-3.611,14.68,14.68,0,0,1,1.853-1.345,22.783,22.783,0,0,1,8.07-2.787,11.287,11.287,0,0,1,2.946-.158c15.262.671,21.9,7.877,23.735,17a30.746,30.746,0,0,1,.544,6.869c0,.09-.008.214-.011.374-.131,2.714-1.27,14.7-11.652,21.246" transform="translate(-100.358 -34.63)" fill="#f29e79"/>
          <path id="Trazado_696590" data-name="Trazado 696590" d="M336.113,105.662a47.63,47.63,0,0,1-4.014,4.709c-.18.189-.36.378-.556.555a45.957,45.957,0,0,1-4.66,4.1,48.831,48.831,0,0,1-19.7,9.15,19.613,19.613,0,0,1,1.844-10.467,18.187,18.187,0,0,1,1.452-2.456,19.887,19.887,0,0,1,4.922-4.959,18.532,18.532,0,0,1,19.4-1.361c.513.259.956.513,1.315.728" transform="translate(-101.308 -33.921)" fill="#992b1e"/>
          <path id="Trazado_696591" data-name="Trazado 696591" d="M371.343,129.112c0,.143-.008.291-.02.43a16.3,16.3,0,0,1-2.351,8.348c-1.65,2.586-2.741,3.8-5.8,4.068a38.556,38.556,0,0,1-17.51-23.026,37.45,37.45,0,0,1-1.2-6.628c-.03-.312-.052-.627-.074-.942a36.126,36.126,0,0,1,.046-5.152c.889-.127,1.78-.225,2.652-.285,5.935-.452,11.464.528,16.032,4.569a24.083,24.083,0,0,1,5.118,6.417,24.542,24.542,0,0,1,3.116,12.2" transform="translate(-113.588 -34.912)" fill="#992b1e"/>
          <path id="Trazado_696592" data-name="Trazado 696592" d="M332.384,137.16c-.288.889.116,1.808-.137,2.69a.949.949,0,0,1-.847.782,1.71,1.71,0,0,0-1.091.3,1.474,1.474,0,0,0-.127,1.829,3.076,3.076,0,0,0,2.463,1.009.254.254,0,0,0,.037-.507c-.752-.067-1.892-.153-2.184-1a.978.978,0,0,1,.076-.867c.222-.3.639-.224.966-.261a1.508,1.508,0,0,0,1.239-1.332c.162-.816-.177-1.662.083-2.464.1-.31-.377-.482-.478-.17" transform="translate(-108.843 -45.195)" fill="#dd541d"/>
          <path id="Trazado_696593" data-name="Trazado 696593" d="M324.988,135.714c-.316.164-1-1.82-2.975-2.448-1.821-.576-3.346.434-3.473.15-.166-.375,2.17-2.868,4.378-2.082s2.458,4.179,2.07,4.38" transform="translate(-105.084 -43.278)" fill="#050012"/>
          <path id="Trazado_696594" data-name="Trazado 696594" d="M352.186,143.372c-.316.165-.994-1.82-2.975-2.448-1.821-.576-3.347.434-3.473.149-.166-.375,2.17-2.867,4.378-2.082s2.458,4.179,2.07,4.38" transform="translate(-114.057 -45.804)" fill="#050012"/>
          <path id="Trazado_696595" data-name="Trazado 696595" d="M340.075,153.065c-.2.123-.4.241-.592.352-15.43,9.04-22.3-4.7-22.3-4.7.316.064.653.127,1.027.192Z" transform="translate(-104.64 -49.062)" fill="#e66239"/>
          <path id="Trazado_696596" data-name="Trazado 696596" d="M340.075,153.065c-.2.123-.4.241-.592.352-.019,0-.036.007-.055.007-16.715,1.826-22.241-4.708-22.241-4.708.316.064.653.127,1.027.192Z" transform="translate(-104.64 -49.062)" fill="#fff7e6"/>
          <path id="Trazado_696597" data-name="Trazado 696597" d="M363.835,161.853a12.4,12.4,0,0,1,3.452-5.363c1.971-1.761,4.486-2.732,5.682,2.032,2.128,8.469-7.224,12.035-10.494,7.417Z" transform="translate(-119.581 -51.15)" fill="#f29e79"/>
          <g id="Grupo_930088" data-name="Grupo 930088" transform="translate(246.188 107.885)" style="mix-blend-mode: multiply;isolation: isolate">
            <g id="Grupo_930087" data-name="Grupo 930087">
              <g id="Grupo_930086" data-name="Grupo 930086" clip-path="url(#clip-path-13)">
                <path id="Trazado_696598" data-name="Trazado 696598" d="M372.6,162a3.1,3.1,0,0,0-3.026-.912,2.932,2.932,0,0,0-2.115,2.241,3.065,3.065,0,0,0,.166,1.85.421.421,0,0,0,.562.178.425.425,0,0,0,.179-.562,2.248,2.248,0,0,1,.591-2.469.3.3,0,0,0,.109.1,2.682,2.682,0,0,1,.32.188c.048.034.1.068.142.105l.031.025c.02.018.041.036.06.055a2.748,2.748,0,0,1,.241.259c.038.046.072.094.108.141-.056-.073.013.019.019.029s.031.05.047.075a2.73,2.73,0,0,1,.163.314c.012.027.023.054.035.081,0,.008.022.064.023.064.015.046.029.09.042.136a2.518,2.518,0,0,1,.071.345c0,.028.007.056.01.083l0,.034c0,.065,0,.13,0,.194a.417.417,0,0,0,.833.043,3.191,3.191,0,0,0-1.413-2.7,2.26,2.26,0,0,1,2.182.663A.417.417,0,0,0,372.6,162" transform="translate(-367.39 -160.999)" fill="#e66239"/>
              </g>
            </g>
          </g>
          <g id="Grupo_930130" data-name="Grupo 930130" transform="translate(209.11 91.239)" opacity="0.38">
            <g id="Grupo_930129" data-name="Grupo 930129">
              <g id="Grupo_930128" data-name="Grupo 930128" clip-path="url(#clip-path-14)">
                <g id="Grupo_930091" data-name="Grupo 930091" style="mix-blend-mode: multiply;isolation: isolate">
                  <g id="Grupo_930090" data-name="Grupo 930090">
                    <g id="Grupo_930089" data-name="Grupo 930089" clip-path="url(#clip-path-15)">
                      <path id="Trazado_696599" data-name="Trazado 696599" d="M312.522,136.433a.234.234,0,1,1-.189-.271.233.233,0,0,1,.189.271" transform="translate(-312.058 -136.158)" fill="#dd541d"/>
                    </g>
                  </g>
                </g>
                <g id="Grupo_930094" data-name="Grupo 930094" transform="translate(15.243 3.649)" style="mix-blend-mode: multiply;isolation: isolate">
                  <g id="Grupo_930093" data-name="Grupo 930093">
                    <g id="Grupo_930092" data-name="Grupo 930092" clip-path="url(#clip-path-15)">
                      <path id="Trazado_696600" data-name="Trazado 696600" d="M335.27,141.879a.234.234,0,1,1-.189-.271.233.233,0,0,1,.189.271" transform="translate(-334.806 -141.604)" fill="#dd541d"/>
                    </g>
                  </g>
                </g>
                <g id="Grupo_930097" data-name="Grupo 930097" transform="translate(7.833 4.571)" style="mix-blend-mode: multiply;isolation: isolate">
                  <g id="Grupo_930096" data-name="Grupo 930096">
                    <g id="Grupo_930095" data-name="Grupo 930095" clip-path="url(#clip-path-15)">
                      <path id="Trazado_696601" data-name="Trazado 696601" d="M324.212,143.254a.234.234,0,1,1-.189-.271.233.233,0,0,1,.189.271" transform="translate(-323.748 -142.979)" fill="#dd541d"/>
                    </g>
                  </g>
                </g>
                <g id="Grupo_930100" data-name="Grupo 930100" transform="translate(5.217 3.367)" style="mix-blend-mode: multiply;isolation: isolate">
                  <g id="Grupo_930099" data-name="Grupo 930099">
                    <g id="Grupo_930098" data-name="Grupo 930098" clip-path="url(#clip-path-18)">
                      <path id="Trazado_696602" data-name="Trazado 696602" d="M320.309,141.457a.234.234,0,1,1-.189-.271.233.233,0,0,1,.189.271" transform="translate(-319.844 -141.182)" fill="#dd541d"/>
                    </g>
                  </g>
                </g>
                <g id="Grupo_930103" data-name="Grupo 930103" transform="translate(7.932 2.548)" style="mix-blend-mode: multiply;isolation: isolate">
                  <g id="Grupo_930102" data-name="Grupo 930102">
                    <g id="Grupo_930101" data-name="Grupo 930101" clip-path="url(#clip-path-19)">
                      <path id="Trazado_696603" data-name="Trazado 696603" d="M324.359,140.236a.234.234,0,1,1-.189-.271.233.233,0,0,1,.189.271" transform="translate(-323.895 -139.961)" fill="#dd541d"/>
                    </g>
                  </g>
                </g>
                <g id="Grupo_930106" data-name="Grupo 930106" transform="translate(2.735 1.801)" style="mix-blend-mode: multiply;isolation: isolate">
                  <g id="Grupo_930105" data-name="Grupo 930105">
                    <g id="Grupo_930104" data-name="Grupo 930104" clip-path="url(#clip-path-19)">
                      <path id="Trazado_696604" data-name="Trazado 696604" d="M316.6,139.121a.234.234,0,1,1-.19-.271.233.233,0,0,1,.19.271" transform="translate(-316.139 -138.846)" fill="#dd541d"/>
                    </g>
                  </g>
                </g>
                <g id="Grupo_930109" data-name="Grupo 930109" transform="translate(17.805 5.841)" style="mix-blend-mode: multiply;isolation: isolate">
                  <g id="Grupo_930108" data-name="Grupo 930108">
                    <g id="Grupo_930107" data-name="Grupo 930107" clip-path="url(#clip-path-18)">
                      <path id="Trazado_696605" data-name="Trazado 696605" d="M339.093,145.15a.234.234,0,1,1-.19-.271.234.234,0,0,1,.19.271" transform="translate(-338.629 -144.875)" fill="#dd541d"/>
                    </g>
                  </g>
                </g>
                <g id="Grupo_930112" data-name="Grupo 930112" transform="translate(28.917 9.219)" style="mix-blend-mode: multiply;isolation: isolate">
                  <g id="Grupo_930111" data-name="Grupo 930111">
                    <g id="Grupo_930110" data-name="Grupo 930110" clip-path="url(#clip-path-19)">
                      <path id="Trazado_696606" data-name="Trazado 696606" d="M355.676,150.19a.234.234,0,1,1-.189-.271.233.233,0,0,1,.189.271" transform="translate(-355.212 -149.915)" fill="#dd541d"/>
                    </g>
                  </g>
                </g>
                <g id="Grupo_930115" data-name="Grupo 930115" transform="translate(28.328 6.49)" style="mix-blend-mode: multiply;isolation: isolate">
                  <g id="Grupo_930114" data-name="Grupo 930114">
                    <g id="Grupo_930113" data-name="Grupo 930113" clip-path="url(#clip-path-18)">
                      <path id="Trazado_696607" data-name="Trazado 696607" d="M354.8,146.118a.234.234,0,1,1-.189-.271.234.234,0,0,1,.189.271" transform="translate(-354.332 -145.843)" fill="#dd541d"/>
                    </g>
                  </g>
                </g>
                <g id="Grupo_930118" data-name="Grupo 930118" transform="translate(17.837 3.619)" style="mix-blend-mode: multiply;isolation: isolate">
                  <g id="Grupo_930117" data-name="Grupo 930117">
                    <g id="Grupo_930116" data-name="Grupo 930116" clip-path="url(#clip-path-18)">
                      <path id="Trazado_696608" data-name="Trazado 696608" d="M339.141,141.834a.233.233,0,1,1-.189-.271.233.233,0,0,1,.189.271" transform="translate(-338.677 -141.559)" fill="#dd541d"/>
                    </g>
                  </g>
                </g>
                <g id="Grupo_930121" data-name="Grupo 930121" transform="translate(25.653 8.869)" style="mix-blend-mode: multiply;isolation: isolate">
                  <g id="Grupo_930120" data-name="Grupo 930120">
                    <g id="Grupo_930119" data-name="Grupo 930119" clip-path="url(#clip-path-18)">
                      <path id="Trazado_696609" data-name="Trazado 696609" d="M350.8,149.669a.234.234,0,1,1-.189-.271.233.233,0,0,1,.189.271" transform="translate(-350.341 -149.394)" fill="#dd541d"/>
                    </g>
                  </g>
                </g>
                <g id="Grupo_930124" data-name="Grupo 930124" transform="translate(20.433 7.071)" style="mix-blend-mode: multiply;isolation: isolate">
                  <g id="Grupo_930123" data-name="Grupo 930123">
                    <g id="Grupo_930122" data-name="Grupo 930122" clip-path="url(#clip-path-26)">
                      <path id="Trazado_696610" data-name="Trazado 696610" d="M343.014,146.984a.234.234,0,1,1-.189-.271.234.234,0,0,1,.189.271" transform="translate(-342.55 -146.71)" fill="#dd541d"/>
                    </g>
                  </g>
                </g>
                <g id="Grupo_930127" data-name="Grupo 930127" transform="translate(10.397 1.51)" style="mix-blend-mode: multiply;isolation: isolate">
                  <g id="Grupo_930126" data-name="Grupo 930126">
                    <g id="Grupo_930125" data-name="Grupo 930125" clip-path="url(#clip-path-15)">
                      <path id="Trazado_696611" data-name="Trazado 696611" d="M328.038,138.687a.234.234,0,1,1-.189-.271.233.233,0,0,1,.189.271" transform="translate(-327.574 -138.412)" fill="#dd541d"/>
                    </g>
                  </g>
                </g>
              </g>
            </g>
          </g>
          <g id="Grupo_930133" data-name="Grupo 930133" transform="translate(209.167 72.374)" style="mix-blend-mode: screen;isolation: isolate">
            <g id="Grupo_930132" data-name="Grupo 930132">
              <g id="Grupo_930131" data-name="Grupo 930131" clip-path="url(#clip-path-28)">
                <path id="Trazado_696612" data-name="Trazado 696612" d="M333.212,112.637a45.885,45.885,0,0,1-4.661,4.1c-.17-.141-.338-.273-.508-.414a12.868,12.868,0,0,1-1.514-1.507,17.78,17.78,0,0,1-8.1.538,17.036,17.036,0,0,1-1.671-.363,16.3,16.3,0,0,1-4.618-2.026,19.887,19.887,0,0,1,4.922-4.959,8.977,8.977,0,0,0,1.346,1,11.17,11.17,0,0,0,8.27,1.132,9.486,9.486,0,0,0,3.25-1.472,7.989,7.989,0,0,0,1.748,2.71,8.965,8.965,0,0,0,1.533,1.259" transform="translate(-312.143 -108.006)" fill="#992b1e"/>
                <path id="Trazado_696613" data-name="Trazado 696613" d="M371.414,131.936c0,.143-.008.291-.02.43-.432-.393-.846-.812-1.25-1.247l0-.008a21.143,21.143,0,0,1-3.3-4.8,8.659,8.659,0,0,1-7.726.471c-2.459-1.068-4.728-3.23-4.992-5.653a14.757,14.757,0,0,1-8.4.631,37.45,37.45,0,0,1-1.2-6.628A9.377,9.377,0,0,0,346.7,116a9.74,9.74,0,0,0,6.952-.877,7.684,7.684,0,0,0,1.12-.741,9.023,9.023,0,0,0,.75,1.326l0,.008A10.92,10.92,0,0,0,361.778,120a11.481,11.481,0,0,0,6.52-.265,24.542,24.542,0,0,1,3.116,12.2" transform="translate(-322.826 -110.11)" fill="#992b1e"/>
              </g>
            </g>
          </g>
          <path id="Trazado_696614" data-name="Trazado 696614" d="M317.16,138.233a7.664,7.664,0,1,1,8.789-5.886,7.493,7.493,0,0,1-8.789,5.886m3.027-13.6a6.293,6.293,0,1,0,4.421,7.419,6.12,6.12,0,0,0-4.421-7.419" transform="translate(-102.765 -40.618)" fill="#917aeb"/>
          <path id="Trazado_696615" data-name="Trazado 696615" d="M344.84,146.92a7.664,7.664,0,1,1,8.79-5.886,7.492,7.492,0,0,1-8.79,5.886m3.028-13.6a6.293,6.293,0,1,0,4.422,7.419,6.12,6.12,0,0,0-4.422-7.419" transform="translate(-111.897 -43.484)" fill="#917aeb"/>
          <path id="Trazado_696616" data-name="Trazado 696616" d="M336.942,141.218a.684.684,0,0,1-.439-.316,4.4,4.4,0,0,0-5.1-1.774.687.687,0,1,1-.482-1.287,5.751,5.751,0,0,1,6.762,2.351.687.687,0,0,1-.737,1.025" transform="translate(-109.023 -45.365)" fill="#917aeb"/>
          <path id="Trazado_696617" data-name="Trazado 696617" d="M369.485,152.188a.684.684,0,0,1-.467-.367,8.3,8.3,0,0,0-10.344-4.1.687.687,0,1,1-.48-1.287,9.668,9.668,0,0,1,12.056,4.785.687.687,0,0,1-.765.974" transform="translate(-118.021 -48.109)" fill="#917aeb"/>
          <path id="Trazado_696618" data-name="Trazado 696618" d="M175.78,205.719a12.4,12.4,0,0,1,.84-6.322c1.034-2.433,2.9-4.382,6.007-.582,5.531,6.758-1.413,13.966-6.337,11.18Z" transform="translate(-57.958 -64.885)" fill="#f29e79"/>
          <g id="Grupo_930136" data-name="Grupo 930136" transform="translate(119.349 135.915)" style="mix-blend-mode: multiply;isolation: isolate">
            <g id="Grupo_930135" data-name="Grupo 930135">
              <g id="Grupo_930134" data-name="Grupo 930134" clip-path="url(#clip-path-29)">
                <path id="Trazado_696619" data-name="Trazado 696619" d="M182.273,203.063a3.1,3.1,0,0,0-3.127.463,2.934,2.934,0,0,0-.959,2.929,3.058,3.058,0,0,0,.938,1.6.421.421,0,0,0,.584-.077.426.426,0,0,0-.078-.584,2.246,2.246,0,0,1-.516-2.486.3.3,0,0,0,.139.042,2.634,2.634,0,0,1,.369.034c.058.009.115.021.173.035l.04.009.078.024a2.875,2.875,0,0,1,.328.131c.054.025.105.054.157.082-.081-.043.019.012.029.018l.074.048a2.9,2.9,0,0,1,.281.214l.066.059.048.048c.033.035.065.069.1.105a2.544,2.544,0,0,1,.212.282c.015.023.029.047.044.071l.017.029c.03.058.058.117.084.176a.417.417,0,1,0,.771-.316,3.189,3.189,0,0,0-2.428-1.843,2.261,2.261,0,0,1,2.256-.328.417.417,0,0,0,.322-.769" transform="translate(-178.107 -202.83)" fill="#e66239"/>
              </g>
            </g>
          </g>
          <path id="Trazado_696620" data-name="Trazado 696620" d="M117.537,209.412c8.1,6.625,17.531,5.39,22.925,4.684,3.014-.4,12.341-1.616,15.479-7.709.224-.437.368-.81.529-1.21a15.044,15.044,0,0,0,.848-3.139,22.878,22.878,0,0,0,.241-4.031,37.92,37.92,0,0,0-.555-5.65c-.044-.27-.088-.539-.137-.8-.259-1.415-.566-2.748-.9-3.99-.394-1.462-.83-2.808-1.271-4.031a40.86,40.86,0,0,0-3.788-7.866,27.521,27.521,0,0,0-3.019-4.012,14.739,14.739,0,0,0-1.675-1.563,22.8,22.8,0,0,0-7.667-3.756,11.306,11.306,0,0,0-2.9-.519c-15.228-1.207-22.7,5.13-25.642,13.955a30.812,30.812,0,0,0-1.382,6.751c-.011.089-.019.214-.035.373-.2,2.709-.545,14.748,8.955,22.515" transform="translate(-35.799 -54.656)" fill="#f29e79"/>
          <path id="Trazado_696621" data-name="Trazado 696621" d="M133.915,172.311a35.467,35.467,0,0,1-21.869,18.54c-.767,1.589-2.53,3.926-3.3,5.515a35.216,35.216,0,0,1-3.513-10.3A23.748,23.748,0,0,1,147.7,168.276c4.019,5.34,7.116,11.355,7.133,18.038-3.215-2.578-6.966-4.386-10.453-6.583s-8.718-3.685-10.462-7.419" transform="translate(-34.64 -52.433)" fill="#050012"/>
          <path id="Trazado_696622" data-name="Trazado 696622" d="M153.693,198.922c.177.917-.337,1.78-.194,2.686a.947.947,0,0,0,.744.88,1.711,1.711,0,0,1,1.047.428,1.474,1.474,0,0,1-.1,1.83,3.078,3.078,0,0,1-2.569.7.254.254,0,0,1,.025-.507c.755.025,1.9.079,2.291-.728a.975.975,0,0,0,.031-.87c-.184-.326-.606-.3-.926-.378a1.509,1.509,0,0,1-1.067-1.474c-.061-.83.38-1.628.22-2.455-.062-.321.434-.432.5-.111" transform="translate(-50.274 -65.562)" fill="#dd541d"/>
          <path id="Trazado_696623" data-name="Trazado 696623" d="M159.589,198.337c.293.2,1.21-1.684,3.253-2.064,1.877-.349,3.268.841,3.428.574.211-.352-1.8-3.112-4.09-2.6s-2.952,3.846-2.592,4.094" transform="translate(-52.618 -64.061)" fill="#050012"/>
          <path id="Trazado_696624" data-name="Trazado 696624" d="M131.656,202.6c.293.2,1.21-1.684,3.253-2.064,1.877-.349,3.268.841,3.428.574.211-.352-1.8-3.112-4.09-2.6s-2.952,3.846-2.592,4.094" transform="translate(-43.403 -65.467)" fill="#050012"/>
          <path id="Trazado_696625" data-name="Trazado 696625" d="M137.944,214.149a6.037,6.037,0,0,0,3.527,3.994c.1.049.191.092.29.132a13.758,13.758,0,0,0,2.256.753,14.1,14.1,0,0,0,4.476.312c.1-.008.207-.019.311-.027a9.639,9.639,0,0,0,6.391-2.932c.075-.087.146-.174.215-.269a5.814,5.814,0,0,0,.954-1.93,3.541,3.541,0,0,0-.3-2.9c-.862-1.3-2.063-.971-3.227-.421-.094.044-.188.088-.281.137-.328.164-.647.331-.956.48a13.042,13.042,0,0,1-3.153,1.035c-.1.02-.2.036-.311.052a13.057,13.057,0,0,1-5.2-.167c-.1-.026-.2-.049-.3-.079-.06-.012-.122-.031-.184-.048-1.095-.31-2.937-1.13-3.982-.33a1.6,1.6,0,0,0-.616,1.092,2.952,2.952,0,0,0,.088,1.117" transform="translate(-45.472 -69.403)" fill="#fff"/>
          <path id="Trazado_696626" data-name="Trazado 696626" d="M153.566,220.391c.1-.007.207-.019.311-.027-.054-1.275-.243-4.776-.354-6.8-.1.02-.205.036-.312.052.143,2.551.308,5.658.355,6.777" transform="translate(-50.545 -70.455)" fill="#dd541d"/>
          <path id="Trazado_696627" data-name="Trazado 696627" d="M143.263,219.1c.1.048.191.092.289.132l1.179-5.879c-.1-.027-.2-.049-.3-.08Z" transform="translate(-47.263 -70.359)" fill="#dd541d"/>
          <path id="Trazado_696628" data-name="Trazado 696628" d="M159.807,211.234l2.637,5.386c.075-.088.146-.174.215-.269l-2.57-5.253c-.094.044-.188.088-.281.136" transform="translate(-52.721 -69.642)" fill="#dd541d"/>
          <path id="Trazado_696629" data-name="Trazado 696629" d="M115.636,219.26a12.4,12.4,0,0,0-2.768-5.745c-1.74-1.99-4.117-3.262-5.89,1.319-3.151,8.145,5.694,12.831,9.5,8.65Z" transform="translate(-35.073 -69.844)" fill="#f29e79"/>
          <g id="Grupo_930139" data-name="Grupo 930139" transform="translate(73.552 145.999)" style="mix-blend-mode: multiply;isolation: isolate">
            <g id="Grupo_930138" data-name="Grupo 930138">
              <g id="Grupo_930137" data-name="Grupo 930137" clip-path="url(#clip-path-30)">
                <path id="Trazado_696630" data-name="Trazado 696630" d="M109.9,218.616a3.1,3.1,0,0,1,3.115-.534,2.933,2.933,0,0,1,1.823,2.484,3.057,3.057,0,0,1-.392,1.816.42.42,0,0,1-.579.109.426.426,0,0,1-.109-.58,2.248,2.248,0,0,0-.283-2.523.306.306,0,0,1-.119.084,2.6,2.6,0,0,0-.34.147c-.052.027-.1.056-.154.087l-.035.021-.066.048a2.65,2.65,0,0,0-.271.227c-.043.041-.082.084-.124.126.064-.065-.015.019-.022.027s-.038.045-.056.068a2.772,2.772,0,0,0-.2.292q-.023.038-.044.076c0,.007-.03.06-.031.06-.02.043-.041.086-.058.129a2.58,2.58,0,0,0-.113.334c-.007.027-.013.054-.02.081,0,.008,0,.019-.006.034-.011.064-.019.129-.025.193a.417.417,0,1,1-.832-.06,3.189,3.189,0,0,1,1.734-2.508,2.26,2.26,0,0,0-2.247.391.417.417,0,0,1-.545-.63" transform="translate(-109.763 -217.878)" fill="#e66239"/>
              </g>
            </g>
          </g>
          <path id="Trazado_696631" data-name="Trazado 696631" d="M160.024,160.642q-3.22,1.5-6.72,3l-.315.135c-4.478,1.91-9.287,3.813-14.423,5.648l-.292.1c-4,1.425-8.2,2.806-12.6,4.112l-.285.086q-3.364,1-6.876,1.935-2.722.725-5.391,1.372c-.1.023-.2.051-.294.071q-6.88,1.666-13.348,2.845c-.1.022-.208.04-.313.056-5.7,1.052-11.139,1.849-16.267,2.455-.115.011-.231.028-.346.04l0,0c-3.43.4-6.722.71-9.856.952l29.8-42.494,0,0,1.042-1.49,0,0,2.012-2.867a6.322,6.322,0,0,1,1.537-1.551c.112-.078.226-.154.343-.227a6.511,6.511,0,0,1,1.154-.567c.1-.037.192-.068.289-.1a6.128,6.128,0,0,1,.985-.231,2.844,2.844,0,0,1,.308-.04,5.952,5.952,0,0,1,1.269-.008c.135.009.271.027.409.05a6.361,6.361,0,0,1,2.171.756l3.395,1.914,0,0,1.866,1.051.005.006Z" transform="translate(-23.984 -44.157)" fill="#fdda5f"/>
          <g id="Grupo_930142" data-name="Grupo 930142" transform="translate(58.575 89.721)" style="mix-blend-mode: multiply;isolation: isolate">
            <g id="Grupo_930141" data-name="Grupo 930141">
              <g id="Grupo_930140" data-name="Grupo 930140" clip-path="url(#clip-path-31)">
                <path id="Trazado_696632" data-name="Trazado 696632" d="M175.32,165l-.315.135-35.571-27.181,1.866,1.051.006.006Z" transform="translate(-104.574 -135.233)" fill="#fdda5f"/>
                <path id="Trazado_696633" data-name="Trazado 696633" d="M130.923,133.942l26.717,35.5-.291.1-26.834-35.654c.135.009.271.027.409.05" transform="translate(-101.632 -133.893)" fill="#fdda5f"/>
                <path id="Trazado_696634" data-name="Trazado 696634" d="M128.469,133.9l15.507,39.758c-.094.029-.187.058-.286.086l-15.528-39.8a2.827,2.827,0,0,1,.307-.04" transform="translate(-100.856 -133.897)" fill="#fdda5f"/>
                <path id="Trazado_696635" data-name="Trazado 696635" d="M126.549,134.309l4.247,42.88c-.1.023-.2.051-.294.071l-4.242-42.851c.1-.037.192-.068.289-.1" transform="translate(-100.228 -134.03)" fill="#fdda5f"/>
                <path id="Trazado_696636" data-name="Trazado 696636" d="M120.469,135.3l-7.952,45.13c-.1.023-.208.04-.313.056l7.923-44.959c.111-.078.226-.154.342-.227" transform="translate(-95.591 -134.358)" fill="#fdda5f"/>
                <path id="Trazado_696637" data-name="Trazado 696637" d="M108.4,142.24,87.758,185.233c-.115.011-.231.028-.346.04l19.939-41.539,0,0Z" transform="translate(-87.412 -136.647)" fill="#fdda5f"/>
              </g>
            </g>
          </g>
          <g id="Grupo_930145" data-name="Grupo 930145" transform="translate(204.964 139.037)" style="mix-blend-mode: color-burn;isolation: isolate">
            <g id="Grupo_930144" data-name="Grupo 930144">
              <g id="Grupo_930143" data-name="Grupo 930143" clip-path="url(#clip-path-32)">
                <path id="Trazado_696638" data-name="Trazado 696638" d="M305.871,251.3s6.108-.184,16.546-7.362a26.945,26.945,0,0,1-.641-11.063c2.522-16.664,20.1-27.822,39.264-24.922s32.655,18.759,30.133,35.423-20.1,27.822-39.264,24.922a37.939,37.939,0,0,1-22.495-11.762c-5.9.7-14.186.089-23.543-5.235" transform="translate(-305.871 -207.489)" fill="#fdda5f"/>
              </g>
            </g>
          </g>
          <path id="Trazado_696639" data-name="Trazado 696639" d="M306.492,245.847s6.011-1.095,15.258-9.755a26.952,26.952,0,0,1-2.289-10.844c0-16.854,15.712-30.516,35.094-30.516s35.093,13.663,35.093,30.516-15.712,30.516-35.093,30.516a37.94,37.94,0,0,1-24-8.264c-5.731,1.571-14.012,2.211-24.061-1.654" transform="translate(-101.112 -64.243)" fill="#f46968"/>
          <path id="Trazado_696640" data-name="Trazado 696640" d="M308.121,267.881q-1.244-.4-2.528-.892a13.288,13.288,0,0,0,2.533-.864" transform="translate(-100.816 -87.796)" fill="none" stroke="#fff" stroke-miterlimit="10" stroke-width="1"/>
          <path id="Trazado_696641" data-name="Trazado 696641" d="M315.063,261.327a48.13,48.13,0,0,0,5.265-3.726" transform="translate(-103.94 -84.984)" fill="none" stroke="#fff" stroke-miterlimit="10" stroke-width="1" stroke-dasharray="6.423 6.423"/>
          <path id="Trazado_696642" data-name="Trazado 696642" d="M325.391,253.419q.968-.838,1.992-1.795-.538-1.228-.956-2.5" transform="translate(-107.347 -82.186)" fill="none" stroke="#fff" stroke-miterlimit="10" stroke-width="1"/>
          <path id="Trazado_696643" data-name="Trazado 696643" d="M325.133,224.8a26.694,26.694,0,0,1-.186-3.146c0-16.853,15.712-30.516,35.093-30.516s35.094,13.663,35.094,30.516-15.712,30.516-35.094,30.516a38.682,38.682,0,0,1-19.615-5.217" transform="translate(-107.2 -63.057)" fill="none" stroke="#fff" stroke-miterlimit="10" stroke-width="1" stroke-dasharray="7.948 7.948"/>
          <path id="Trazado_696644" data-name="Trazado 696644" d="M342.356,271.495q-1.108-.769-2.141-1.612c-.819.224-1.689.43-2.609.606" transform="translate(-111.377 -89.035)" fill="none" stroke="#fff" stroke-miterlimit="10" stroke-width="1"/>
          <path id="Trazado_696645" data-name="Trazado 696645" d="M323.453,271.162a38.894,38.894,0,0,1-9.5-1.125" transform="translate(-103.574 -89.086)" fill="none" stroke="#fff" stroke-miterlimit="10" stroke-width="1" stroke-dasharray="9.534 9.534"/>
        </g>
      </g>
      <text id="namaste" transform="translate(227.357 169.085)" fill="#fff" font-size="24" font-family="AmaticSC-Bold, Amatic SC" font-weight="700"><tspan x="0" y="0">namaste</tspan></text>
      <g id="Grupo_930158" data-name="Grupo 930158" transform="translate(0 0.001)">
        <g id="Grupo_930157" data-name="Grupo 930157" clip-path="url(#clip-path-2)">
          <path id="Trazado_696646" data-name="Trazado 696646" d="M293.451,283.468a12.4,12.4,0,0,1,1.562-6.183c1.307-2.3,3.381-4.02,6.034.115,4.717,7.349-3.011,13.71-7.582,10.375Z" transform="translate(-96.81 -90.688)" fill="#c86858"/>
          <g id="Grupo_930150" data-name="Grupo 930150" transform="translate(198.367 188.396)" style="mix-blend-mode: multiply;isolation: isolate">
            <g id="Grupo_930149" data-name="Grupo 930149">
              <g id="Grupo_930148" data-name="Grupo 930148" clip-path="url(#clip-path-34)">
                <path id="Trazado_696647" data-name="Trazado 696647" d="M300.5,281.532a3.1,3.1,0,0,0-3.16.1,2.933,2.933,0,0,0-1.289,2.8,3.058,3.058,0,0,0,.747,1.7.421.421,0,0,0,.589-.01.425.425,0,0,0-.009-.589,2.247,2.247,0,0,1-.227-2.529.3.3,0,0,0,.134.058,2.6,2.6,0,0,1,.363.076c.056.016.112.034.168.054l.038.014.075.033a2.733,2.733,0,0,1,.311.169c.05.031.1.066.146.1-.076-.052.019.015.027.022s.046.037.068.056a2.828,2.828,0,0,1,.255.245l.059.066c.005.006.041.053.042.053.028.038.056.076.083.115a2.64,2.64,0,0,1,.178.3c.012.025.024.05.036.076l.013.031c.023.06.044.122.064.184a.417.417,0,1,0,.8-.225,3.19,3.19,0,0,0-2.2-2.11,2.259,2.259,0,0,1,2.279-.066.417.417,0,0,0,.409-.726" transform="translate(-296.026 -281.147)" fill="#992b1e"/>
              </g>
            </g>
          </g>
          <path id="Trazado_696648" data-name="Trazado 696648" d="M234.223,281.433c7.279,7.513,16.793,7.372,22.233,7.293,3.04-.047,12.445-.185,16.263-5.875.273-.408.458-.763.665-1.141a15.082,15.082,0,0,0,1.2-3.02,23.009,23.009,0,0,0,.7-3.977,37.863,37.863,0,0,0,.1-5.676c-.012-.273-.025-.546-.043-.814-.093-1.435-.245-2.794-.438-4.068-.222-1.5-.5-2.885-.8-4.15a40.928,40.928,0,0,0-2.856-8.25,27.452,27.452,0,0,0-2.538-4.334,14.657,14.657,0,0,0-1.483-1.744,22.789,22.789,0,0,0-7.183-4.614,11.275,11.275,0,0,0-2.825-.85c-14.988-2.952-23.138,2.482-27.079,10.909A30.8,30.8,0,0,0,228,257.67c-.02.088-.043.21-.077.366-.513,2.668-2.239,14.588,6.3,23.4" transform="translate(-75.028 -78.98)" fill="#c86858"/>
          <path id="Trazado_696649" data-name="Trazado 696649" d="M272.391,274.028c.07.931-.54,1.73-.5,2.646a.947.947,0,0,0,.638.96,1.711,1.711,0,0,1,.99.545,1.473,1.473,0,0,1-.308,1.806,3.078,3.078,0,0,1-2.632.4.254.254,0,0,1,.084-.5c.746.112,1.875.3,2.359-.46a.977.977,0,0,0,.131-.86c-.145-.344-.568-.369-.876-.482a1.508,1.508,0,0,1-.89-1.587c.035-.832.565-1.573.5-2.414a.254.254,0,0,1,.505-.052" transform="translate(-89.196 -90.33)" fill="#992b1e"/>
          <path id="Trazado_696650" data-name="Trazado 696650" d="M278.464,274.241c.268.235,1.4-1.534,3.469-1.675,1.905-.131,3.15,1.212,3.339.965.251-.326-1.431-3.3-3.762-3.058s-3.375,3.48-3.046,3.768" transform="translate(-91.846 -89.226)" fill="#050012"/>
          <path id="Trazado_696651" data-name="Trazado 696651" d="M250.226,275.257c.268.235,1.4-1.534,3.47-1.675,1.9-.131,3.149,1.212,3.338.965.251-.325-1.431-3.3-3.762-3.058s-3.375,3.48-3.046,3.768" transform="translate(-82.53 -89.561)" fill="#050012"/>
          <path id="Trazado_696652" data-name="Trazado 696652" d="M257.406,288.313s7.811,6.137,15.342,0" transform="translate(-84.919 -95.116)" fill="none" stroke="#992b1e" stroke-miterlimit="10" stroke-width="1"/>
          <path id="Trazado_696653" data-name="Trazado 696653" d="M232.366,236.849a18.615,18.615,0,0,1,2.532-1.92c1.783-1.137,3.856-2.086,13.988-3.143A221.011,221.011,0,0,1,274.4,230.6c.115.292.236.628.346,1.014a10.852,10.852,0,0,1,.033,6.751,8.925,8.925,0,0,1-.846,1.793,11.249,11.249,0,0,1-4.669,4.092c-.372.183-.756.354-1.128.513a24.25,24.25,0,0,1-5.2,1.411,9.264,9.264,0,0,1-1.576.1,16.472,16.472,0,0,1-4.152-.6,3,3,0,0,1-1.083-.617c-2.021,5.988-10.746,7.59-14.244,1.975.791,5.648-5.156,10.507-10.535,8.605a18.829,18.829,0,0,1,1.266,13.689c-.19.033-.38.067-.551.094a3.021,3.021,0,0,1-3.628-1.785,21.527,21.527,0,0,1-1.239-2.572l-.007-.006c-.114-.244-.209-.482-.3-.727a.008.008,0,0,0,0-.012,27.914,27.914,0,0,1-1.477-13.8,24.081,24.081,0,0,1,3.1-8.957,20,20,0,0,1,2.337-3.2,17.5,17.5,0,0,1,1.513-1.519" transform="translate(-74.269 -76.071)" fill="#050012"/>
          <path id="Trazado_696654" data-name="Trazado 696654" d="M232.222,289.987a12.4,12.4,0,0,0-2.087-6.026c-1.5-2.177-3.714-3.714-6,.633-4.068,7.727,4.178,13.4,8.445,9.686Z" transform="translate(-73.58 -92.973)" fill="#c86858"/>
          <g id="Grupo_930153" data-name="Grupo 930153" transform="translate(151.95 193.039)" style="mix-blend-mode: multiply;isolation: isolate">
            <g id="Grupo_930152" data-name="Grupo 930152">
              <g id="Grupo_930151" data-name="Grupo 930151" clip-path="url(#clip-path-35)">
                <path id="Trazado_696655" data-name="Trazado 696655" d="M226.934,288.6a3.1,3.1,0,0,1,3.156-.172,2.932,2.932,0,0,1,1.525,2.678,3.056,3.056,0,0,1-.6,1.758.42.42,0,0,1-.588.041.425.425,0,0,1-.041-.588,2.248,2.248,0,0,0,.009-2.539.3.3,0,0,1-.129.069,2.64,2.64,0,0,0-.355.107c-.055.021-.109.044-.162.068l-.038.017-.072.039a2.956,2.956,0,0,0-.295.2c-.047.036-.092.074-.137.111.071-.058-.017.017-.025.024s-.042.041-.063.062a2.823,2.823,0,0,0-.233.266l-.053.071c0,.007-.037.056-.038.056-.025.04-.05.08-.073.122a2.662,2.662,0,0,0-.151.319c-.01.026-.019.052-.029.078l-.01.033c-.019.062-.034.125-.048.188a.417.417,0,0,1-.819-.155,3.187,3.187,0,0,1,2.011-2.291,2.26,2.26,0,0,0-2.277.129.417.417,0,0,1-.469-.689" transform="translate(-226.757 -288.076)" fill="#992b1e"/>
              </g>
            </g>
          </g>
          <path id="Trazado_696656" data-name="Trazado 696656" d="M275.874,244.487a4.331,4.331,0,0,0,.119,1.068A6.566,6.566,0,0,0,278.1,248.8a16.257,16.257,0,0,0,3.206,2.16,13.405,13.405,0,0,0,6.434,1.553,13.394,13.394,0,0,0-.438,3.068,9.712,9.712,0,0,0,.468,3.777,7.4,7.4,0,0,0,2.955,3.405,5.032,5.032,0,0,0,.456.257,7.08,7.08,0,0,0,2.456.773c-.244-.213-.488-.426-.738-.64.013-.051.025-.109.039-.165.734-3.367,2-11.1-.978-17.875a17.409,17.409,0,0,0-.948-1.878c-.111-.2-.229-.382-.341-.561a11.088,11.088,0,0,0-2.77-3.1,6.445,6.445,0,0,0-1.6-.866,8.28,8.28,0,0,0-7.764,1.174,5.573,5.573,0,0,0-.527.446,9.793,9.793,0,0,0-.82.862,5.389,5.389,0,0,0-1.319,3.294" transform="translate(-91.011 -78.592)" fill="#050012"/>
          <g id="Grupo_930156" data-name="Grupo 930156" transform="translate(151.144 155.542)" style="mix-blend-mode: screen;isolation: isolate">
            <g id="Grupo_930155" data-name="Grupo 930155">
              <g id="Grupo_930154" data-name="Grupo 930154" clip-path="url(#clip-path-36)">
                <path id="Trazado_696657" data-name="Trazado 696657" d="M232.508,237.356a9.508,9.508,0,0,0,4.859,2.46.009.009,0,0,0,.013,0,9.222,9.222,0,0,0,1.794.135,9.449,9.449,0,0,0,6.339-2.747v-.012a9.064,9.064,0,0,0,.942-1.106,7.454,7.454,0,0,0,.793.953l.013.012a7.692,7.692,0,0,0,10.1.907,7.6,7.6,0,0,0,2.1-2.227,8.243,8.243,0,0,0,2.473,2.138,8.937,8.937,0,0,0,7.376.744,8.149,8.149,0,0,0,1.992-1.053,9.047,9.047,0,0,0,3.582-5.439,10.852,10.852,0,0,1,.034,6.751,8.927,8.927,0,0,1-.846,1.793c.119.176.238.365.345.553a19.941,19.941,0,0,1,.947,1.877,13.416,13.416,0,0,1-5.961,1.663,14.113,14.113,0,0,1-1.516-.022l-.006-.006a14.354,14.354,0,0,1-6.852-2.3,11.508,11.508,0,0,1-1.642,1.116,12.767,12.767,0,0,1-13.872-.811c-.772,2.275-3.205,3.868-5.567,4.356a7.086,7.086,0,0,1-6.556-2.172,20.991,20.991,0,0,1-3.9,3.909h-.013a15.8,15.8,0,0,1-3.928,2.209,24.082,24.082,0,0,1,3.1-8.957,9.38,9.38,0,0,0,2.337-3.2,17.5,17.5,0,0,1,1.513-1.519" transform="translate(-225.555 -232.119)" fill="#050012"/>
              </g>
            </g>
          </g>
        </g>
      </g>
      <text id="A" transform="translate(22.629 95.34)" fill="#4887fc" font-size="40" font-family="AmaticSC-Bold, Amatic SC" font-weight="700"><tspan x="0" y="0">A</tspan></text>
      <text id="a-2" data-name="a" transform="translate(47.095 93.913)" fill="#4887fc" font-size="30" font-family="AmaticSC-Bold, Amatic SC" font-weight="700"><tspan x="0" y="0">a</tspan></text>
      <text id="b" transform="translate(261.086 116.479)" fill="#917aeb" font-size="39" font-family="AmaticSC-Bold, Amatic SC" font-weight="700"><tspan x="0" y="0">b</tspan></text>
      <text id="b-2" data-name="b" transform="translate(280.343 116.704)" fill="#917aeb" font-size="30" font-family="AmaticSC-Bold, Amatic SC" font-weight="700"><tspan x="0" y="0">b</tspan></text>
      <g id="Grupo_930178" data-name="Grupo 930178" transform="translate(0 0.001)">
        <g id="Grupo_930177" data-name="Grupo 930177" clip-path="url(#clip-path-2)">
          <rect id="Rectángulo_344468" data-name="Rectángulo 344468" width="12.801" height="12.801" transform="translate(47.113 196.545) rotate(-62.143)" fill="#fdda5f"/>
          <rect id="Rectángulo_344469" data-name="Rectángulo 344469" width="12.801" height="12.801" transform="translate(293.735 144.674) rotate(-62.14)" fill="#90d4b9"/>
          <rect id="Rectángulo_344470" data-name="Rectángulo 344470" width="4.747" height="4.747" transform="matrix(0.975, -0.224, 0.224, 0.975, 106.705, 203.8)" fill="#917aeb"/>
          <rect id="Rectángulo_344471" data-name="Rectángulo 344471" width="4.747" height="4.747" transform="translate(261.558 67.418) rotate(-12.963)" fill="#917aeb"/>
          <rect id="Rectángulo_344472" data-name="Rectángulo 344472" width="4.747" height="4.747" transform="translate(296.978 167.151) rotate(-12.963)" fill="#4887fc"/>
          <rect id="Rectángulo_344473" data-name="Rectángulo 344473" width="4.747" height="4.747" transform="matrix(0.975, -0.224, 0.224, 0.975, 87.073, 170.625)" fill="#f46968"/>
          <rect id="Rectángulo_344474" data-name="Rectángulo 344474" width="4.747" height="4.747" transform="translate(236.542 201.009) rotate(-12.963)" fill="#fdda5f"/>
          <rect id="Rectángulo_344475" data-name="Rectángulo 344475" width="4.747" height="4.747" transform="matrix(0.975, -0.224, 0.224, 0.975, 107.8, 83.624)" fill="#4887fc"/>
          <path id="Trazado_696658" data-name="Trazado 696658" d="M236.8,463.765l-12.6,2.672-4.007,45.5,44.358.286,1.145-46.361-11.38-1.654Z" transform="translate(-72.641 -152.997)" fill="#f46968"/>
          <path id="Trazado_696659" data-name="Trazado 696659" d="M207.191,395.851c.733-2.67.355-9.753,1.091-12.43l7.493-.2-.7,9.8Z" transform="translate(-68.353 -126.426)" fill="#f29e79"/>
          <path id="Trazado_696660" data-name="Trazado 696660" d="M218.8,369.163a38.811,38.811,0,0,0-3.771,7.321c.756,2.281-1.372,5.032-3.66,5.758a9.594,9.594,0,0,1-6.624-.338c-.168-.491-.99-.931-1.2-1.409a58.926,58.926,0,0,1-4.056-12.264,2.928,2.928,0,0,1,2.368-1.393,2.468,2.468,0,0,1,1.366.505q.269.627.534,1.3c.177.444.35.9.507,1.345a17.331,17.331,0,0,1-.249-2.824,2.3,2.3,0,0,1,3.77-.9,6.521,6.521,0,0,0,.667,2.149c-.469-2.333-.344-4.746,1.277-6.528a1.508,1.508,0,0,1,1.885-.352c.565.352.55.961.536,1.518a27.859,27.859,0,0,0,1.144,8.017,6.669,6.669,0,0,1,4.6-3.323.918.918,0,0,1,.909,1.416" transform="translate(-65.811 -119.206)" fill="#f29e79"/>
          <path id="Trazado_696661" data-name="Trazado 696661" d="M203.567,377.569c-.4,0-.93-.227-1.488-1.087a19.029,19.029,0,0,1-2.32-5.069.252.252,0,0,1,.483-.14,18.526,18.526,0,0,0,2.258,4.935c.237.366.708.966,1.2.841.4-.1.593-.879.688-1.255a5.124,5.124,0,0,0,.1-1.892,7.92,7.92,0,0,1-.488-1.794.251.251,0,0,1,.48-.133,7.322,7.322,0,0,1,.5,1.8l.006.013a4.705,4.705,0,0,0,.591,1.086,2.362,2.362,0,0,0,.939.876,1.407,1.407,0,0,0,1.171.079,1.651,1.651,0,0,0,.759-1.025,4.327,4.327,0,0,0-.2-3.139.251.251,0,0,1,.464-.194,4.819,4.819,0,0,1,.205,3.509,2.1,2.1,0,0,1-1.025,1.309,1.894,1.894,0,0,1-1.579-.079,2.825,2.825,0,0,1-1.138-1.035c-.054-.073-.1-.144-.151-.214a5.352,5.352,0,0,1-.151.958c-.128.507-.366,1.452-1.056,1.62a1.089,1.089,0,0,1-.257.031" transform="translate(-65.897 -122.425)" fill="#e66239"/>
          <path id="Trazado_696662" data-name="Trazado 696662" d="M215.289,380.43h-.008a.252.252,0,0,1-.243-.259,2.984,2.984,0,0,1,2.371-2.742l.726-1.981a.251.251,0,0,1,.472.173l-.777,2.121a.25.25,0,0,1-.205.163,2.454,2.454,0,0,0-2.084,2.283.251.251,0,0,1-.251.243" transform="translate(-70.941 -123.807)" fill="#e66239"/>
          <path id="Trazado_696663" data-name="Trazado 696663" d="M225.109,450.461c-13.135-13.783-27.573-38.845-19.228-51.6l9.743-4.383s-1.379,29.047,26.568,44.6Z" transform="translate(-67.107 -130.14)" fill="#f46968"/>
          <path id="Trazado_696664" data-name="Trazado 696664" d="M259.514,446.744l.2,4.24.479,9.862-13.223,1.548s-.243-1.307-.58-3.141c-.756-4.133-1.976-10.916-1.892-11.33Z" transform="translate(-80.66 -147.382)" fill="#f29e79"/>
          <path id="Trazado_696665" data-name="Trazado 696665" d="M259.514,446.744l.2,4.24c-3.8,7.563-9.763,8.5-13.324,8.268-.756-4.133-1.976-10.916-1.892-11.33Z" transform="translate(-80.66 -147.382)" fill="#e66239"/>
          <path id="Trazado_696666" data-name="Trazado 696666" d="M268.39,419.758c13.987-8.677,14.933-25.177,15-27.319,3.3-20.766-22.5-38.655-44.582-26.878-7.417,3.956-12.523,13.628-12.944,21.809-.026.5-1.136,1.742-1.431,2.284a23.268,23.268,0,0,0-1.436,3.2,25.087,25.087,0,0,0-1.413,6.611c-.482,6.225.787,12.767,5.745,16.925,5.76,4.829,13.035,6.817,20.52,7.429,6.887.562,14.649-.111,20.54-4.059" transform="translate(-73.07 -119.363)" fill="#f29e79"/>
          <path id="Trazado_696667" data-name="Trazado 696667" d="M231.852,394.431s4.833-5.449,9.411-.687c0,0-4.2-9.408-9.411.688" transform="translate(-76.488 -128.582)" fill="#fdda5f"/>
          <path id="Trazado_696668" data-name="Trazado 696668" d="M267.4,397.917s6.951-2.178,8.419,4.262c0,0,1.254-10.224-8.419-4.262" transform="translate(-88.215 -130.658)" fill="#fdda5f"/>
          <g id="Grupo_930161" data-name="Grupo 930161" transform="translate(177.48 278.681)" opacity="0.39" style="mix-blend-mode: multiply;isolation: isolate">
            <g id="Grupo_930160" data-name="Grupo 930160">
              <g id="Grupo_930159" data-name="Grupo 930159" clip-path="url(#clip-path-38)">
                <path id="Trazado_696669" data-name="Trazado 696669" d="M264.856,421.268c0,2.975,3.428,5.387,7.655,5.387s7.655-2.412,7.655-5.387-3.428-5.387-7.655-5.387-7.655,2.412-7.655,5.387" transform="translate(-264.856 -415.881)" fill="#f29e79"/>
              </g>
            </g>
          </g>
          <path id="Trazado_696670" data-name="Trazado 696670" d="M250.833,399.829c-.673.911-.562,2.122-1.191,3.038a1.148,1.148,0,0,1-1.274.573,2.07,2.07,0,0,0-1.367-.079,1.786,1.786,0,0,0-.85,2.051c.279,1.123,1.48,1.686,2.443,2.107a.308.308,0,0,0,.237-.569c-.838-.366-2.115-.9-2.124-1.992a1.182,1.182,0,0,1,.421-.967c.371-.26.821-.013,1.21.071a1.828,1.828,0,0,0,1.937-1.054c.5-.876.436-1.978,1.043-2.8.235-.318-.249-.7-.484-.38" transform="translate(-81.187 -131.865)" fill="#e66239"/>
          <path id="Trazado_696671" data-name="Trazado 696671" d="M235.719,398.352c-.233,1.47.336,2.8,1.269,2.977s1.88-.877,2.112-2.347-.335-2.8-1.269-2.977-1.88.876-2.112,2.346" transform="translate(-77.747 -130.637)" fill="#050012"/>
          <path id="Trazado_696672" data-name="Trazado 696672" d="M268.87,404.739c-.233,1.47.336,2.8,1.269,2.977s1.88-.876,2.112-2.347-.335-2.8-1.269-2.977-1.88.876-2.112,2.346" transform="translate(-88.683 -132.744)" fill="#050012"/>
          <path id="Trazado_696673" data-name="Trazado 696673" d="M254.255,422.138a7.626,7.626,0,0,1-.062.8,8.037,8.037,0,0,1-3.541,5.445,5.321,5.321,0,0,1-3.988.8,9.657,9.657,0,0,1-5.171-2.7,8.324,8.324,0,0,1-1.451-2.022,8.672,8.672,0,0,1-.935-3.74,9.284,9.284,0,0,1,.618-3.452,3.491,3.491,0,0,1,1.362-1.65,3.827,3.827,0,0,1,3.912-.075,4.731,4.731,0,0,0,3.651.5,3.443,3.443,0,0,1,2.654.3,5.48,5.48,0,0,1,2.028,2.125,7.417,7.417,0,0,1,.921,3.665" transform="translate(-78.882 -136.924)" fill="#992b1e"/>
          <path id="Trazado_696674" data-name="Trazado 696674" d="M255.43,425.1a7.627,7.627,0,0,1-.062.8,8.037,8.037,0,0,1-3.541,5.445,5.321,5.321,0,0,1-3.988.8,9.657,9.657,0,0,1-5.171-2.7c.963-3.121,4.3-5.418,8.286-5.418a9.648,9.648,0,0,1,4.476,1.073" transform="translate(-80.056 -139.889)" fill="#f46968"/>
          <path id="Trazado_696675" data-name="Trazado 696675" d="M254.309,418.474c-9.3,1.967-11.737-1.74-12.246-2.853a3.826,3.826,0,0,1,3.912-.076,4.729,4.729,0,0,0,3.651.5,3.443,3.443,0,0,1,2.654.3,5.491,5.491,0,0,1,2.028,2.125" transform="translate(-79.857 -136.924)" fill="#feffff"/>
          <path id="Trazado_696676" data-name="Trazado 696676" d="M226.905,376.95a10.607,10.607,0,0,0,1.287,4.567,50.246,50.246,0,0,1,9.611-10.651c-.272,3.6.243,9.462,4.139,10.793-1.1-2.625-1.125-6.771.889-9.006,1.875,4.889,4.426,9.851,8.55,13.4-.736-3.367.493-8.6,2.227-11.652,1.809,2.476,1.74,6.871,3.647,9.653,6.124,7.771,5.845,9.072,8.682-1.176,1.369,8.945-.6,12.057,5.654,19.6,1.967,3.594-3.03,13.549,4.527,9.433,12.552-8.641,11.833-33.793,6.295-41.133-8.148-12.8-31.061-16.245-42.89-15.791.182,1.621,2.871,5.4,4.695,6.188-2.66-2.83-11.536-2.534-13.23,1.921.239,1.04,3.143.911,3.2,1.707-.289.815-4.291,1.851-4.267,4.908.065-.076.1-.111.111-.106a4.622,4.622,0,0,1-.49.847,14.411,14.411,0,0,0-1.48,2.187,9.059,9.059,0,0,0-.836,1.866,7.649,7.649,0,0,0-.322,2.445" transform="translate(-74.855 -117.099)" fill="#fdda5f"/>
          <g id="Grupo_930164" data-name="Grupo 930164" transform="translate(181.878 264.758)" style="mix-blend-mode: screen;isolation: isolate">
            <g id="Grupo_930163" data-name="Grupo 930163">
              <g id="Grupo_930162" data-name="Grupo 930162" clip-path="url(#clip-path-39)">
                <path id="Trazado_696677" data-name="Trazado 696677" d="M271.42,396.405a5.753,5.753,0,0,0,.522.9c6.124,7.77,5.845,9.072,8.682-1.177.654,2.86.544,6.109.831,9.2a7.023,7.023,0,0,0,5.352,4.536,7.363,7.363,0,0,0,7.028-2.882,11.032,11.032,0,0,0,5.463,4.823,27.735,27.735,0,0,0,1.639-7.668,2.955,2.955,0,0,1-1.338-.4,16.749,16.749,0,0,1-7.322-7.256,5.428,5.428,0,0,1-1.646,3.551,4.643,4.643,0,0,1-3.4,1.228,6.232,6.232,0,0,1-4.1-2.162,18.316,18.316,0,0,1-2.573-3.992,4.49,4.49,0,0,1-4.345,3.212,7.75,7.75,0,0,1-4.786-1.911" transform="translate(-271.42 -395.104)" fill="#fdda5f"/>
              </g>
            </g>
          </g>
          <path id="Trazado_696678" data-name="Trazado 696678" d="M287.894,434.627a15.741,15.741,0,0,1,4.227-6.9c2.451-2.29,5.613-3.592,7.266,2.418,2.937,10.683-8.826,15.469-13.1,9.7Z" transform="translate(-94.445 -140.476)" fill="#f29e79"/>
          <path id="Trazado_696679" data-name="Trazado 696679" d="M298.942,434.479a4.061,4.061,0,0,0-3.992-1.11,3.851,3.851,0,0,0-2.715,2.993,4.041,4.041,0,0,0,.273,2.445.667.667,0,0,0,.9.263.675.675,0,0,0,.263-.9,2.6,2.6,0,0,1-.1-1.738,2.838,2.838,0,0,1,.659-1.174c.025.019.04.047.07.061a3.318,3.318,0,0,1,.411.228c.062.041.123.084.183.129l.009.007-.017-.017c.029.031.07.059.1.088a3.617,3.617,0,0,1,.312.321c.038.044.125.12.141.175-.051-.07-.062-.086-.034-.046l.038.055c.021.031.042.062.061.094a3.506,3.506,0,0,1,.216.393c.016.034.031.068.046.1l.026.062c.019.046.011.027-.021-.056a.656.656,0,0,1,.071.212,3.234,3.234,0,0,1,.1.436c0,.019.006.041.009.062l0,.024c0,.015,0,.032.006.047l0-.02c.005.082.007.164.007.247a.661.661,0,0,0,1.322.038,4.205,4.205,0,0,0-1.663-3.321,2.691,2.691,0,0,1,2.351.8c.58.625,1.542-.283.962-.908" transform="translate(-96.383 -142.923)" fill="#e66239"/>
          <path id="Trazado_696680" data-name="Trazado 696680" d="M297.829,439.732c0-.008,0-.015,0-.024a.193.193,0,0,0,.006.051l0-.027" transform="translate(-98.253 -145.061)" fill="#e66239"/>
          <path id="Trazado_696681" data-name="Trazado 696681" d="M296.259,436.9c.033.032.049.038,0,0" transform="translate(-97.736 -144.134)" fill="#e66239"/>
          <path id="Trazado_696682" data-name="Trazado 696682" d="M262.487,464.211c-.313,3.428-4.25,6.04-8.963,5.885-4.655-.152-8.378-2.945-8.553-6.331q1.754.081,3.524.149,7.119.27,13.992.3" transform="translate(-80.816 -152.997)" fill="#f29e79"/>
          <path id="Trazado_696683" data-name="Trazado 696683" d="M268.253,479.992c14.949,12.416,43.174,15.674,43.174,15.674.511-4.1,4.725-8.668,2.049-13.319-1.972-.49-3.505-.959-4.366-1.233-4.284-1.362-9.985-3.673-27-13.957-1.12-.677-2.036-1.24-2.63-1.607l-11.229,14.442" transform="translate(-88.497 -153.586)" fill="#f46968"/>
          <path id="Trazado_696684" data-name="Trazado 696684" d="M314.8,378.629s-2.733,2.951-5.684.656c0,0,1.858-3.061,5.684-.656" transform="translate(-101.976 -124.607)" fill="#fdda5f"/>
          <path id="Trazado_696685" data-name="Trazado 696685" d="M311.186,372.389s1.158,3.852-2.317,5.231c0,0-1.7-3.154,2.317-5.231" transform="translate(-101.779 -122.852)" fill="#fdda5f"/>
          <path id="Trazado_696686" data-name="Trazado 696686" d="M169.388,442.539l13.439,53.483,78.281,7.393,14.53-54.056s-27.376-17.989-52.79-3.889l-5.321-.415s-12.777-14.1-48.139-2.517" transform="translate(-55.881 -144.488)" fill="#fff"/>
          <path id="Trazado_696687" data-name="Trazado 696687" d="M169.388,442.539l13.439,53.483,78.281,7.393,14.53-54.056s-27.376-17.989-52.79-3.889l-5.321-.415S204.75,430.957,169.388,442.539Z" transform="translate(-55.881 -144.488)" fill="none" stroke="#050012" stroke-miterlimit="10" stroke-width="0.5"/>
          <path id="Trazado_696688" data-name="Trazado 696688" d="M159.754,448.4l15.729,53.53,89.735,7.62,16.312-54.021s-31.476-18.071-60.507-4.042l-6.1-.43S200.2,436.921,159.754,448.4" transform="translate(-52.703 -146.447)" fill="#fff"/>
          <path id="Trazado_696689" data-name="Trazado 696689" d="M159.754,448.4l15.729,53.53,89.735,7.62,16.312-54.021s-31.476-18.071-60.507-4.042l-6.1-.43S200.2,436.921,159.754,448.4Z" transform="translate(-52.703 -146.447)" fill="none" stroke="#050012" stroke-miterlimit="10" stroke-width="0.5"/>
          <path id="Trazado_696690" data-name="Trazado 696690" d="M281.111,460.489l-14.6,53.826-46.578-3.892-7.8-.653-42.185-3.527q-6.3-25.734-12.61-51.481c5.645-2.874,21.583-10.025,40.6-5.548a55,55,0,0,1,15.842,6.5c.165.1.33.2.488.3h8.066c22.636-12.755,58.783,4.483,58.783,4.483" transform="translate(-51.905 -147.722)" fill="#4887fc"/>
          <g id="Grupo_930167" data-name="Grupo 930167" transform="translate(160.184 307.987)" style="mix-blend-mode: multiply;isolation: isolate">
            <g id="Grupo_930166" data-name="Grupo 930166">
              <g id="Grupo_930165" data-name="Grupo 930165" clip-path="url(#clip-path-40)">
                <path id="Trazado_696691" data-name="Trazado 696691" d="M248.549,459.911l-1.657,54.417-.027,1.011-7.818-.241.042-1.423,1.643-54.06c.165.1.33.2.488.3Z" transform="translate(-239.046 -459.616)" fill="#4887fc"/>
              </g>
            </g>
          </g>
          <path id="Trazado_696692" data-name="Trazado 696692" d="M326.838,501.233c-2.036-2.341-5.876-5.649-7.917-8l4.488-7.1,6.96,3.766Z" transform="translate(-105.212 -160.379)" fill="#f29e79"/>
          <path id="Trazado_696693" data-name="Trazado 696693" d="M317.468,479.81a43.25,43.25,0,0,1-4.484-8.05,1.032,1.032,0,0,0-1.89-.034,7.45,7.45,0,0,0,.232,6.343,31.66,31.66,0,0,1-8.2-3.915c-.508-.36-1.067-.755-1.75-.45a1.686,1.686,0,0,0-.841,1.977c.883,3.577,4.6,5.272,8.051,6.139-2.345-.866-5.826-1.711-8.171-2.578a2.111,2.111,0,0,0-1.319-.182,1.407,1.407,0,0,0-.782,1.7,3.588,3.588,0,0,0,1.181,1.657,19.2,19.2,0,0,0,8.674,4.531c-2.131-1.043-6.438-1.842-8.79-2.166-1.419-.2-3.415.2-3.215,1.777a1.858,1.858,0,0,0,1.114,1.415A66.646,66.646,0,0,0,314.047,493c.574.092,1.5-.4,2.066-.252a10.769,10.769,0,0,0,4.447-5.95c.751-2.585-.489-6.273-3.092-6.988" transform="translate(-97.699 -155.426)" fill="#f29e79"/>
          <path id="Trazado_696694" data-name="Trazado 696694" d="M306.408,484.321a.354.354,0,0,1-.013-.34.361.361,0,0,1,.48-.161,28.489,28.489,0,0,0,5.107,1.954.357.357,0,1,1-.19.688,29.409,29.409,0,0,1-5.237-2,.364.364,0,0,1-.148-.138" transform="translate(-101.068 -159.601)" fill="#e66239"/>
          <path id="Trazado_696695" data-name="Trazado 696695" d="M305.874,492.357a.352.352,0,0,1-.024-.312.356.356,0,0,1,.464-.2c1.593.625,3.22,1.174,4.838,1.63a.357.357,0,1,1-.2.686c-1.64-.462-3.291-1.019-4.906-1.653a.356.356,0,0,1-.177-.15" transform="translate(-100.892 -162.252)" fill="#e66239"/>
          <path id="Trazado_696696" data-name="Trazado 696696" d="M223.307,327.686a34.453,34.453,0,0,1-29.6-17.541,25.186,25.186,0,0,1-8.051-.741,43.874,43.874,0,0,1-27.879-64.683l.58.336a43.206,43.206,0,0,0,27.454,63.695,24.9,24.9,0,0,0,7.555.749q-.263-.515-.508-1.039c-1.606-3.45-2.156-6.408-1.683-9.043.524-2.922,2.815-6.071,6.179-6.439a6.1,6.1,0,0,1,4.927,1.843,7.727,7.727,0,0,1,2.36,5.96c-.289,3.73-3.245,7.189-7.356,8.609a14.835,14.835,0,0,1-2.86.671c6.133,11.045,19.136,18.039,31.745,16.815l.064.667c-.974.094-1.953.141-2.93.141m-25.353-34.069a4.911,4.911,0,0,0-.524.029c-3.037.332-5.112,3.215-5.593,5.891-.448,2.495.085,5.321,1.63,8.642q.3.634.619,1.252a14.345,14.345,0,0,0,2.983-.673c3.214-1.11,6.6-4.023,6.907-8.028a7.042,7.042,0,0,0-2.158-5.426,5.568,5.568,0,0,0-3.864-1.687" transform="translate(-50.133 -80.734)" fill="#4887fc"/>
          <g id="Grupo_930170" data-name="Grupo 930170" transform="translate(70.818 208.891)" style="mix-blend-mode: multiply;isolation: isolate">
            <g id="Grupo_930169" data-name="Grupo 930169">
              <g id="Grupo_930168" data-name="Grupo 930168" clip-path="url(#clip-path-41)">
                <path id="Trazado_696697" data-name="Trazado 696697" d="M134.02,320.4a14.839,14.839,0,1,1-26.988,12.347,14.676,14.676,0,0,1-.932-2.7,14.838,14.838,0,0,1,26.488-12.119,14.635,14.635,0,0,1,1.432,2.469" transform="translate(-105.683 -311.732)" fill="#ffedd7"/>
              </g>
            </g>
          </g>
          <path id="Trazado_696698" data-name="Trazado 696698" d="M128.81,313.631a14.845,14.845,0,1,1-1.432-2.469,14.824,14.824,0,0,1,1.432,2.469" transform="translate(-33.146 -100.608)" fill="#f46968"/>
          <path id="Trazado_696699" data-name="Trazado 696699" d="M127.378,311.162l-26.488,12.119a14.838,14.838,0,0,1,26.488-12.119" transform="translate(-33.146 -100.608)" fill="#050012"/>
          <path id="Trazado_696700" data-name="Trazado 696700" d="M132.565,326.637a14.846,14.846,0,0,1-24.782,11.338Z" transform="translate(-35.558 -107.759)" fill="#fdda5f"/>
          <g id="Grupo_930173" data-name="Grupo 930173" transform="translate(174.691 36.2)" style="mix-blend-mode: multiply;isolation: isolate">
            <g id="Grupo_930172" data-name="Grupo 930172">
              <g id="Grupo_930171" data-name="Grupo 930171" clip-path="url(#clip-path-42)">
                <path id="Trazado_696701" data-name="Trazado 696701" d="M290.383,75.5a15.453,15.453,0,1,1-28.467-12.034,15.239,15.239,0,0,1,1.417-2.613,15.451,15.451,0,0,1,27.939,11.811,15.281,15.281,0,0,1-.889,2.837" transform="translate(-260.694 -54.023)" fill="#ffedd7"/>
              </g>
            </g>
          </g>
          <path id="Trazado_696702" data-name="Trazado 696702" d="M291.494,67.663A15.4,15.4,0,0,1,273.511,75.6a15.789,15.789,0,0,1-2.777-1.074,15.455,15.455,0,0,1,7.85-29.232,15.462,15.462,0,0,1,12.909,22.372" transform="translate(-86.51 -14.934)" fill="#fff"/>
          <path id="Trazado_696703" data-name="Trazado 696703" d="M297.917,69.9A15.476,15.476,0,0,1,281.7,78.223l13.175-26.181c.272.209.53.426.781.649A15.46,15.46,0,0,1,297.917,69.9" transform="translate(-92.933 -17.169)" fill="#f46968"/>
          <path id="Trazado_696704" data-name="Trazado 696704" d="M265.832,70.638a15.461,15.461,0,0,1,12.755-25.352Z" transform="translate(-86.51 -14.932)" fill="#4887fc"/>
          <g id="Grupo_930176" data-name="Grupo 930176" transform="translate(204.546 206.354)" style="mix-blend-mode: multiply;isolation: isolate">
            <g id="Grupo_930175" data-name="Grupo 930175">
              <g id="Grupo_930174" data-name="Grupo 930174" clip-path="url(#clip-path-43)">
                <path id="Trazado_696705" data-name="Trazado 696705" d="M335.967,325.806a15.459,15.459,0,1,1,.177-2.967,15.434,15.434,0,0,1-.177,2.967" transform="translate(-305.248 -307.946)" fill="#ffedd7"/>
              </g>
            </g>
          </g>
          <path id="Trazado_696706" data-name="Trazado 696706" d="M326.221,328.41a14.927,14.927,0,0,1-2.331,1.179,14.17,14.17,0,0,1-2.491.761c-.488.1-.97.188-1.458.244a15.15,15.15,0,0,1-5.331-.293H314.6a15.482,15.482,0,0,1-8.967-5.945,14.551,14.551,0,0,1-1.361-2.247c-.174-.348-.342-.712-.489-1.082-.174-.44-.335-.886-.467-1.333a16.149,16.149,0,0,1-.5-2.261,15.472,15.472,0,0,1,2.7-11.123,15.165,15.165,0,0,1,3.8-3.754c.23-.161.46-.314.7-.461a15.039,15.039,0,0,1,4.815-1.94,15.458,15.458,0,0,1,16.2,6.594,16.114,16.114,0,0,1,.837,1.445,13.266,13.266,0,0,1,.586,1.284,16.458,16.458,0,0,1,.586,1.738,16.05,16.05,0,0,1,.4,1.947,15.467,15.467,0,0,1-7.215,15.247" transform="translate(-99.849 -98.904)" fill="#4887fc"/>
          <path id="Trazado_696707" data-name="Trazado 696707" d="M321.345,331.952a15.165,15.165,0,0,1-5.331-.293h-.007L312,321.073l-1.73-4.571-3.35-8.834a15.168,15.168,0,0,1,3.8-3.755l4.117,10.858,1.731,4.571Z" transform="translate(-101.254 -100.262)" fill="#fdda5f"/>
          <path id="Trazado_696708" data-name="Trazado 696708" d="M333.114,314.638l-17.878,6.769-4.563,1.73-6.322,2.394c-.174-.35-.342-.713-.488-1.082-.174-.44-.335-.887-.467-1.333a16.2,16.2,0,0,1-.5-2.261l6.05-2.288,4.564-1.732,17.6-6.664a16.477,16.477,0,0,1,.838,1.445,13.5,13.5,0,0,1,.586,1.285,16.389,16.389,0,0,1,.586,1.737" transform="translate(-99.924 -102.327)" fill="#fdda5f"/>
          <path id="Trazado_696709" data-name="Trazado 696709" d="M270.935,346.343a.337.337,0,0,1-.025-.06l-3.076-9.671a.335.335,0,0,1,.639-.2l3.076,9.67a.335.335,0,0,1-.613.263" transform="translate(-88.353 -110.905)" fill="#4887fc"/>
          <path id="Trazado_696710" data-name="Trazado 696710" d="M279.3,347.271a.331.331,0,0,1,0-.2l3.056-10.465a.335.335,0,0,1,.643.188l-3.056,10.465a.335.335,0,0,1-.64.01" transform="translate(-92.135 -110.969)" fill="#4887fc"/>
          <path id="Trazado_696711" data-name="Trazado 696711" d="M285.65,353.644a.335.335,0,0,1,.082-.342l6.784-6.712a.335.335,0,0,1,.472.476l-6.784,6.712a.335.335,0,0,1-.474,0,.323.323,0,0,1-.08-.131" transform="translate(-94.231 -114.309)" fill="#4887fc"/>
        </g>
      </g>
    </g>
  </g>
</svg>
