<svg xmlns="http://www.w3.org/2000/svg" width="85" height="85" viewBox="0 0 85 85">
  <g id="Grupo_1000191" data-name="Grupo 1000191" transform="translate(-1227.5 -1236)">
    <circle id="Elipse_8212" data-name="Elipse 8212" cx="42.5" cy="42.5" r="42.5" transform="translate(1227.5 1236)" fill="#f7cad2"/>
    <g id="conferencia" transform="translate(1245 1249.975)">
      <g id="Grupo_895994" data-name="Grupo 895994" transform="translate(15.655 17.18)">
        <path id="Trazado_694755" data-name="Trazado 694755" d="M331.4,171.7a.8.8,0,0,1-.8-.8v-3.552l-1.45-1.378a.8.8,0,0,1,1.1-1.16l1.7,1.614a.8.8,0,0,1,.249.58v3.9A.8.8,0,0,1,331.4,171.7Z" transform="translate(-310.511 -164.589)" fill="#7a6d79"/>
        <path id="Trazado_694756" data-name="Trazado 694756" d="M152.029,171.7a.8.8,0,0,1-.8-.8V167a.8.8,0,0,1,.249-.58l1.7-1.614a.8.8,0,1,1,1.1,1.16l-1.45,1.378V170.9A.8.8,0,0,1,152.029,171.7Z" transform="translate(-151.229 -164.589)" fill="#7a6d79"/>
      </g>
      <g id="Grupo_895995" data-name="Grupo 895995" transform="translate(19.458 4.49)">
        <path id="Trazado_694757" data-name="Trazado 694757" d="M190.935,180.843l-2.964-2.962v-6.458a7.027,7.027,0,0,1,2.682-5.529h8.719a7.093,7.093,0,0,1,.619.551,7.017,7.017,0,0,1,2.062,4.978v6.458c-1.35,1.35-1.8,1.26-2.962,2.962" transform="translate(-187.971 -153.069)" fill="#7a6d79"/>
        <path id="Trazado_694758" data-name="Trazado 694758" d="M249.076,186.825a.8.8,0,0,1-.8-.8v-5.354a.8.8,0,0,1,1.6,0v5.354A.8.8,0,0,1,249.076,186.825Z" transform="translate(-242.033 -165.599)" fill="#685e68"/>
        <path id="Trazado_694759" data-name="Trazado 694759" d="M295.393,281.7h0" transform="translate(-284.272 -256.883)" fill="#ffdfcf"/>
        <path id="Trazado_694760" data-name="Trazado 694760" d="M222.606,152.8l-3.56,4.02a1.068,1.068,0,0,1-1.6,0l-3.56-4.02a7.044,7.044,0,0,1,8.719,0Z" transform="translate(-211.204 -139.979)" fill="#f5f8f9"/>
        <path id="Trazado_694761" data-name="Trazado 694761" d="M249.874,159.2v3.971l-.424.479a.5.5,0,0,1-.752,0l-.424-.479v-4a.8.8,0,0,1,.853-.8A.818.818,0,0,1,249.874,159.2Z" transform="translate(-242.032 -146.324)" fill="#f9f7f8"/>
        <path id="Trazado_694762" data-name="Trazado 694762" d="M224.343,78.3v1.886a4.139,4.139,0,0,1-2.429,3.764v1a1.7,1.7,0,1,1-3.407,0v-1a4.131,4.131,0,0,1-2.429-3.764v-3.05a8.21,8.21,0,0,1,2.9-.55A8.75,8.75,0,0,1,224.343,78.3Z" transform="translate(-213.168 -73.009)" fill="#ffdfcf"/>
        <path id="Trazado_694763" data-name="Trazado 694763" d="M223.125,83.131a4.141,4.141,0,0,1-1.211.837v1a1.7,1.7,0,1,1-3.407,0v-1a4.131,4.131,0,0,1-2.429-3.764v-3.05a8.21,8.21,0,0,1,2.9-.55V79.5a3.046,3.046,0,0,0,2.012,2.865Z" transform="translate(-213.168 -73.021)" fill="#ffcebf"/>
        <path id="Trazado_694764" data-name="Trazado 694764" d="M295.913,93.158h0" transform="translate(-284.738 -87.862)" fill="#ffdfcf"/>
        <path id="Trazado_694765" data-name="Trazado 694765" d="M224.342,46.133V47.3a10.53,10.53,0,0,1-5.363-.128,16.028,16.028,0,0,1-2.9-1.037,4.132,4.132,0,0,1,8.265,0Z" transform="translate(-213.168 -42.001)" fill="#7a6d79"/>
        <path id="Trazado_694766" data-name="Trazado 694766" d="M221.19,42.117a3.044,3.044,0,0,0-2.211,2.929v2.123a16.027,16.027,0,0,1-2.9-1.037,4.135,4.135,0,0,1,5.113-4.015Z" transform="translate(-213.168 -42)" fill="#685e68"/>
      </g>
      <path id="Trazado_694767" data-name="Trazado 694767" d="M170.509,242.289l-.392,2.671-3.3,22.5H151.884l-3.694-25.174,11.16-1.571Z" transform="translate(-132.85 -215.657)" fill="#ffe177"/>
      <path id="Trazado_694768" data-name="Trazado 694768" d="M170.117,244.96H152.308l2.429,22.5h-2.853l-3.694-25.174,11.16-1.571,11.159,1.571Z" transform="translate(-132.85 -215.657)" fill="#fece85"/>
      <path id="Trazado_694769" data-name="Trazado 694769" d="M153.466,228.378H128.656a.866.866,0,0,0-.866.866v1.409a.866.866,0,0,0,.866.866h24.809a.866.866,0,0,0,.866-.866v-1.409A.866.866,0,0,0,153.466,228.378Z" transform="translate(-114.562 -204.595)" fill="#ffe177"/>
      <g id="Grupo_896000" data-name="Grupo 896000" transform="translate(0 32.592)">
        <g id="Grupo_895996" data-name="Grupo 895996" transform="translate(39.75)">
          <path id="Trazado_694770" data-name="Trazado 694770" d="M390.623,438.8A6.625,6.625,0,0,0,384,445.422a.935.935,0,0,0,.935.935h11.38a.935.935,0,0,0,.935-.935A6.625,6.625,0,0,0,390.623,438.8Z" transform="translate(-383.998 -425.824)" fill="#dc8758"/>
          <path id="Trazado_694771" data-name="Trazado 694771" d="M387.919,445.429a.934.934,0,0,0,.936.936h-3.918a.934.934,0,0,1-.936-.936,6.63,6.63,0,0,1,8.585-6.33A6.627,6.627,0,0,0,387.919,445.429Z" transform="translate(-384.001 -425.83)" fill="#c57a44"/>
          <path id="Trazado_694772" data-name="Trazado 694772" d="M413.263,361.719v2.888a4.532,4.532,0,0,1-2.55,4.077c-.037.019-.076.036-.115.054v1.092a1.87,1.87,0,1,1-3.74,0v-1.092a4.533,4.533,0,0,1-2.664-4.131v-2.888h9.069Z" transform="translate(-402.103 -356.725)" fill="#ffdfcf"/>
          <path id="Trazado_694773" data-name="Trazado 694773" d="M410.713,368.685c-.037.019-.076.036-.115.054v1.092a1.87,1.87,0,0,1-3.74,0v-1.092a4.533,4.533,0,0,1-2.664-4.131V361.72h3.287v3.14A3.88,3.88,0,0,0,410.713,368.685Z" transform="translate(-402.103 -356.726)" fill="#ffcebf"/>
          <path id="Trazado_694774" data-name="Trazado 694774" d="M413.262,318.007v.46a4.535,4.535,0,1,1-9.069,0v-.46a4.535,4.535,0,0,1,9.069,0Z" transform="translate(-402.103 -313.472)" fill="#7a6d79"/>
          <path id="Trazado_694775" data-name="Trazado 694775" d="M407.479,317.351v4.256a3.864,3.864,0,0,0,.215,1.276,4.537,4.537,0,0,1-3.5-4.417v-.46a4.536,4.536,0,0,1,5.9-4.324,3.881,3.881,0,0,0-2.615,3.668Z" transform="translate(-402.102 -313.472)" fill="#685e68"/>
        </g>
        <g id="Grupo_895997" data-name="Grupo 895997" transform="translate(26.5)">
          <path id="Trazado_694776" data-name="Trazado 694776" d="M262.622,438.8A6.625,6.625,0,0,0,256,445.422a.935.935,0,0,0,.935.935h11.38a.935.935,0,0,0,.935-.935A6.625,6.625,0,0,0,262.622,438.8Z" transform="translate(-255.997 -425.824)" fill="#fe76a8"/>
          <path id="Trazado_694777" data-name="Trazado 694777" d="M259.918,445.429a.935.935,0,0,0,.936.936h-3.918a.935.935,0,0,1-.936-.936,6.63,6.63,0,0,1,8.585-6.33A6.627,6.627,0,0,0,259.918,445.429Z" transform="translate(-256 -425.83)" fill="#fe5694"/>
          <path id="Trazado_694778" data-name="Trazado 694778" d="M285.261,361.719v2.888a4.532,4.532,0,0,1-2.55,4.077c-.037.019-.076.036-.115.054v1.092a1.87,1.87,0,0,1-3.74,0v-1.092a4.533,4.533,0,0,1-2.664-4.131v-2.888h9.069Z" transform="translate(-274.102 -356.725)" fill="#ffdfcf"/>
          <path id="Trazado_694779" data-name="Trazado 694779" d="M282.711,368.685c-.037.019-.076.036-.115.054v1.092a1.87,1.87,0,1,1-3.74,0v-1.092a4.533,4.533,0,0,1-2.664-4.131V361.72h3.287v3.14A3.88,3.88,0,0,0,282.711,368.685Z" transform="translate(-274.102 -356.726)" fill="#ffcebf"/>
          <path id="Trazado_694780" data-name="Trazado 694780" d="M285.26,318.007v.46a4.535,4.535,0,1,1-9.069,0v-.46a4.535,4.535,0,0,1,9.069,0Z" transform="translate(-274.101 -313.472)" fill="#ae6c6c"/>
          <path id="Trazado_694781" data-name="Trazado 694781" d="M279.478,317.351v4.256a3.864,3.864,0,0,0,.215,1.276,4.537,4.537,0,0,1-3.5-4.417v-.46a4.536,4.536,0,0,1,5.9-4.324,3.88,3.88,0,0,0-2.615,3.668Z" transform="translate(-274.101 -313.472)" fill="#9b5e5e"/>
        </g>
        <g id="Grupo_895998" data-name="Grupo 895998" transform="translate(13.25)">
          <path id="Trazado_694782" data-name="Trazado 694782" d="M134.621,438.8A6.625,6.625,0,0,0,128,445.422a.935.935,0,0,0,.935.935h11.38a.935.935,0,0,0,.935-.935A6.625,6.625,0,0,0,134.621,438.8Z" transform="translate(-127.996 -425.824)" fill="#d2e1f1"/>
          <path id="Trazado_694783" data-name="Trazado 694783" d="M131.916,445.429a.934.934,0,0,0,.936.936h-3.918a.934.934,0,0,1-.936-.936,6.63,6.63,0,0,1,8.585-6.33A6.627,6.627,0,0,0,131.916,445.429Z" transform="translate(-127.998 -425.83)" fill="#b0c0d2"/>
          <path id="Trazado_694784" data-name="Trazado 694784" d="M157.26,361.719v2.888a4.532,4.532,0,0,1-2.55,4.077c-.037.019-.076.036-.115.054v1.092a1.87,1.87,0,1,1-3.74,0v-1.092a4.533,4.533,0,0,1-2.664-4.131v-2.888h9.069Z" transform="translate(-146.1 -356.725)" fill="#ffdfcf"/>
          <path id="Trazado_694785" data-name="Trazado 694785" d="M154.71,368.685c-.037.019-.076.036-.115.054v1.092a1.87,1.87,0,1,1-3.74,0v-1.092a4.533,4.533,0,0,1-2.664-4.131V361.72h3.287v3.14A3.88,3.88,0,0,0,154.71,368.685Z" transform="translate(-146.101 -356.726)" fill="#ffcebf"/>
          <path id="Trazado_694786" data-name="Trazado 694786" d="M157.259,318.007v.46a4.535,4.535,0,1,1-9.069,0v-.46a4.535,4.535,0,0,1,9.069,0Z" transform="translate(-146.1 -313.472)" fill="#7a6d79"/>
          <path id="Trazado_694787" data-name="Trazado 694787" d="M151.476,317.351v4.256a3.864,3.864,0,0,0,.215,1.276,4.537,4.537,0,0,1-3.5-4.417v-.46a4.536,4.536,0,0,1,5.9-4.324,3.881,3.881,0,0,0-2.615,3.668Z" transform="translate(-146.099 -313.472)" fill="#685e68"/>
        </g>
        <g id="Grupo_895999" data-name="Grupo 895999">
          <path id="Trazado_694788" data-name="Trazado 694788" d="M6.625,438.8A6.625,6.625,0,0,0,0,445.422a.935.935,0,0,0,.935.935h11.38a.935.935,0,0,0,.935-.935A6.625,6.625,0,0,0,6.625,438.8Z" transform="translate(0 -425.824)" fill="#7a6d79"/>
          <path id="Trazado_694789" data-name="Trazado 694789" d="M3.921,445.429a.934.934,0,0,0,.936.936H.939A.934.934,0,0,1,0,445.429a6.63,6.63,0,0,1,8.585-6.33,6.627,6.627,0,0,0-4.667,6.33Z" transform="translate(-0.003 -425.83)" fill="#685e68"/>
          <path id="Trazado_694790" data-name="Trazado 694790" d="M29.264,361.719v2.888a4.532,4.532,0,0,1-2.55,4.077c-.037.019-.076.036-.115.054v1.092a1.87,1.87,0,1,1-3.74,0v-1.092a4.533,4.533,0,0,1-2.664-4.131v-2.888h9.069Z" transform="translate(-18.104 -356.725)" fill="#ffdfcf"/>
          <path id="Trazado_694791" data-name="Trazado 694791" d="M26.714,368.685c-.037.019-.076.036-.115.054v1.092a1.87,1.87,0,1,1-3.74,0v-1.092a4.533,4.533,0,0,1-2.664-4.131V361.72h3.287v3.14A3.88,3.88,0,0,0,26.714,368.685Z" transform="translate(-18.104 -356.726)" fill="#ffcebf"/>
          <path id="Trazado_694792" data-name="Trazado 694792" d="M29.263,318.007v.46a4.535,4.535,0,1,1-9.069,0v-.46a4.535,4.535,0,0,1,9.069,0Z" transform="translate(-18.104 -313.472)" fill="#ae6c6c"/>
          <path id="Trazado_694793" data-name="Trazado 694793" d="M23.481,317.351v4.256a3.864,3.864,0,0,0,.215,1.276,4.537,4.537,0,0,1-3.5-4.417v-.46a4.536,4.536,0,0,1,5.9-4.324,3.88,3.88,0,0,0-2.615,3.668Z" transform="translate(-18.104 -313.472)" fill="#9b5e5e"/>
        </g>
      </g>
      <path id="Trazado_694794" data-name="Trazado 694794" d="M348.993.159H339.7a3.072,3.072,0,0,0-3.072,3.072V14.089a.956.956,0,0,0,1.458.813l3.877-2.4a2.529,2.529,0,0,1,1.33-.378h5.7a3.072,3.072,0,0,0,3.072-3.072V3.231A3.072,3.072,0,0,0,348.993.159Z" transform="translate(-301.782)" fill="#f9f7f8"/>
      <g id="Grupo_896001" data-name="Grupo 896001" transform="translate(37.008 3.022)">
        <path id="Trazado_694795" data-name="Trazado 694795" d="M367.825,29.412h-9.514a.8.8,0,1,1,0-1.6h9.514a.8.8,0,1,1,0,1.6Z" transform="translate(-357.511 -27.812)" fill="#7a6d79"/>
        <path id="Trazado_694796" data-name="Trazado 694796" d="M367.825,54.993h-9.514a.8.8,0,1,1,0-1.6h9.514a.8.8,0,1,1,0,1.6Z" transform="translate(-357.511 -50.745)" fill="#7a6d79"/>
      </g>
    </g>
  </g>
</svg>
