<svg xmlns="http://www.w3.org/2000/svg" width="85" height="85" viewBox="0 0 85 85">
  <g id="Grupo_1000190" data-name="Grupo 1000190" transform="translate(-915 -1236)">
    <circle id="Elipse_4798" data-name="Elipse 4798" cx="42.5" cy="42.5" r="42.5" transform="translate(915 1236)" fill="#7bcaf4"/>
    <g id="curriculum" transform="translate(937.562 1252.001)">
      <path id="Trazado_695119" data-name="Trazado 695119" d="M96.179,77.379V81.2a.775.775,0,0,0,.775.775h33.826a.775.775,0,0,0,.775-.775V33.221a.775.775,0,0,0-.775-.775h-7.407l3.544,3.433v41.5Z" transform="translate(-92.635 -28.856)" fill="#ed9aa9"/>
      <path id="Trazado_695120" data-name="Trazado 695120" d="M98.761,49.632H64.922a.775.775,0,0,1-.775-.775V.778A.775.775,0,0,1,64.922,0H92.454l7.082,7.023V48.858a.774.774,0,0,1-.774.775Z" transform="translate(-64.147 -0.003)" fill="#fff"/>
      <path id="Trazado_695121" data-name="Trazado 695121" d="M66.429,0V49.629h-1.5a.775.775,0,0,1-.775-.775V.775A.775.775,0,0,1,64.926,0Z" transform="translate(-64.151)" fill="#dee4f0"/>
      <path id="Trazado_695122" data-name="Trazado 695122" d="M149.373,75.032a10.584,10.584,0,0,1-3.559,7.929h0c-1.876,1.67-4.346,1.577-7.053,1.577s-5.2.085-7.076-1.6a10.612,10.612,0,1,1,17.687-7.909Z" transform="translate(-121.067 -57.292)" fill="#365e7d"/>
      <path id="Trazado_695123" data-name="Trazado 695123" d="M174.245,173.4v4.2a10.611,10.611,0,0,1-14.128-.02V173.4a1.691,1.691,0,0,1,1.225-1.584l3.913-.987h3.853l3.912.987A1.691,1.691,0,0,1,174.245,173.4Z" transform="translate(-149.498 -151.93)" fill="#9bd8f9"/>
      <path id="Trazado_695124" data-name="Trazado 695124" d="M168.329,180.222a10.719,10.719,0,0,1-1.137.06,10.567,10.567,0,0,1-7.076-2.7V173.4a1.691,1.691,0,0,1,1.225-1.584l3.913-.987h2.278l-3.913.987a1.691,1.691,0,0,0-1.225,1.584v4.175A10.569,10.569,0,0,0,168.329,180.222Z" transform="translate(-149.498 -151.93)" fill="#73c3f9"/>
      <path id="Trazado_695125" data-name="Trazado 695125" d="M320.757,7.119l6.3-.093L319.971,0V6.344a.775.775,0,0,0,.786.774Z" transform="translate(-291.664 -0.003)" fill="#dee4f0"/>
      <g id="Grupo_896104" data-name="Grupo 896104" transform="translate(6.228 31.036)">
        <g id="Grupo_896103" data-name="Grupo 896103" transform="translate(0)">
          <g id="Grupo_896095" data-name="Grupo 896095">
            <path id="Trazado_695126" data-name="Trazado 695126" d="M130.128,282.2h-8.844a.854.854,0,0,1,0-1.708h8.844a.854.854,0,0,1,0,1.708Z" transform="translate(-120.43 -280.489)" fill="#365e7d"/>
          </g>
          <g id="Grupo_896096" data-name="Grupo 896096" transform="translate(12.381)">
            <path id="Trazado_695127" data-name="Trazado 695127" d="M242.025,282.2h-8.844a.854.854,0,0,1,0-1.708h8.844a.854.854,0,0,1,0,1.708Z" transform="translate(-232.327 -280.489)" fill="#365e7d"/>
          </g>
          <g id="Grupo_896097" data-name="Grupo 896097" transform="translate(0 3.565)">
            <path id="Trazado_695128" data-name="Trazado 695128" d="M130.128,314.415h-8.844a.854.854,0,0,1,0-1.708h8.844a.854.854,0,0,1,0,1.708Z" transform="translate(-120.43 -312.707)" fill="#365e7d"/>
          </g>
          <g id="Grupo_896098" data-name="Grupo 896098" transform="translate(12.381 3.565)">
            <path id="Trazado_695129" data-name="Trazado 695129" d="M242.025,314.415h-8.844a.854.854,0,0,1,0-1.708h8.844a.854.854,0,0,1,0,1.708Z" transform="translate(-232.327 -312.707)" fill="#365e7d"/>
          </g>
          <g id="Grupo_896099" data-name="Grupo 896099" transform="translate(0 7.075)">
            <path id="Trazado_695130" data-name="Trazado 695130" d="M130.128,346.138h-8.844a.854.854,0,0,1,0-1.708h8.844a.854.854,0,0,1,0,1.708Z" transform="translate(-120.43 -344.43)" fill="#365e7d"/>
          </g>
          <g id="Grupo_896100" data-name="Grupo 896100" transform="translate(12.381 7.075)">
            <path id="Trazado_695131" data-name="Trazado 695131" d="M242.025,346.138h-8.844a.854.854,0,0,1,0-1.708h8.844a.854.854,0,0,1,0,1.708Z" transform="translate(-232.327 -344.43)" fill="#365e7d"/>
          </g>
          <g id="Grupo_896101" data-name="Grupo 896101" transform="translate(0 10.585)">
            <path id="Trazado_695132" data-name="Trazado 695132" d="M130.128,377.861h-8.844a.854.854,0,1,1,0-1.708h8.844a.854.854,0,1,1,0,1.708Z" transform="translate(-120.43 -376.153)" fill="#365e7d"/>
          </g>
          <g id="Grupo_896102" data-name="Grupo 896102" transform="translate(12.381 10.585)">
            <path id="Trazado_695133" data-name="Trazado 695133" d="M242.025,377.861h-8.844a.854.854,0,1,1,0-1.708h8.844a.854.854,0,1,1,0,1.708Z" transform="translate(-232.327 -376.153)" fill="#365e7d"/>
          </g>
        </g>
      </g>
      <path id="Trazado_695134" data-name="Trazado 695134" d="M192.09,104.9v1.211a3.538,3.538,0,0,0,7.075,0V104.9a3.538,3.538,0,0,0-7.075,0Z" transform="translate(-177.933 -90.168)" fill="#ffcebf"/>
      <path id="Trazado_695135" data-name="Trazado 695135" d="M196.762,109.439a3.545,3.545,0,0,1-4.677-3.328V104.9a3.494,3.494,0,0,1,1.036-2.485,3.566,3.566,0,0,1,3.641-.843,3.541,3.541,0,0,0-1.363.843,3.494,3.494,0,0,0-1.036,2.485v1.211A3.517,3.517,0,0,0,196.762,109.439Z" transform="translate(-177.929 -90.169)" fill="#ffb09e"/>
    </g>
  </g>
</svg>
