<?xml version="1.0" encoding="utf-8"?>
<!-- Generator: Adobe Illustrator 27.5.0, SVG Export Plug-In . SVG Version: 6.00 Build 0)  -->
<svg version="1.1" id="Layer_1" xmlns="http://www.w3.org/2000/svg" xmlns:xlink="http://www.w3.org/1999/xlink" x="0px" y="0px"
	 viewBox="0 0 418 319" style="enable-background:new 0 0 418 319;" xml:space="preserve">
<style type="text/css">
	.st0{fill:#CCEAFA;}
	.st1{clip-path:url(#SVGID_00000179626913094876879140000006778047891338409401_);}
	.st2{fill:#FFFFFF;}
	.st3{fill:none;stroke:#1D1D1B;stroke-width:0.5;stroke-linecap:round;stroke-linejoin:round;}
	.st4{fill:#1D1D1B;}
	.st5{fill:none;stroke:#1D1D1B;stroke-width:2;stroke-linecap:round;stroke-miterlimit:10;}
	.st6{fill:#FFD08C;}
	.st7{fill:#5E5B5D;}
	.st8{fill:#4DB1F0;}
	.st9{fill:#FFAA9A;}
	.st10{fill:#E39090;}
	.st11{fill:#ED9AA9;}
	.st12{fill:#FDD5CD;}
	.st13{fill:#636363;}
	.st14{fill:none;}
</style>
<g>
	<rect class="st0" width="418" height="319"/>
	<g id="Grupo_1000194" transform="translate(6031 8971)">
		<g id="Grupo_1000193" transform="translate(-5978 -8957)">
			<g>
				<defs>
					<rect id="SVGID_1_" width="312" height="291.7"/>
				</defs>
				<clipPath id="SVGID_00000170258088868594960200000013391633753322948008_">
					<use xlink:href="#SVGID_1_"  style="overflow:visible;"/>
				</clipPath>
				<g id="Grupo_998066" style="clip-path:url(#SVGID_00000170258088868594960200000013391633753322948008_);">
					<path id="Trazado_696754" class="st2" d="M304.7,133c-5.4-11.6-19.1-16.6-30.7-11.2s-16.6,19.1-11.2,30.7
						c5,10.6,17.1,15.9,28.2,12.2c2.3,2.4,8.8,8,18.4,6.9c0,0-7.7,0.6-12.5-9.8C306.2,155.3,309.4,143.2,304.7,133"/>
					<path id="Trazado_696755" class="st3" d="M304.7,133c-5.4-11.6-19.1-16.6-30.7-11.2s-16.6,19.1-11.2,30.7
						c5,10.6,17.1,15.9,28.2,12.2c2.3,2.4,8.8,8,18.4,6.9c0,0-7.7,0.6-12.5-9.8C306.2,155.3,309.4,143.2,304.7,133z"/>
					<path id="Trazado_696756" class="st4" d="M290.8,152.2c0.6,1.4,0,3-1.3,3.7s-3,0-3.7-1.3s0-3,1.3-3.7l0,0
						C288.6,150.3,290.2,150.9,290.8,152.2 M284.2,127.5c-2.4-0.6-5-0.3-7.2,0.8c-2.3,1-4.1,2.7-5.1,5c-0.6,1.4-0.9,3-0.7,4.5
						c0.1,1,0.7,1.9,1.5,2.4c1.5,0.8,3.4,0.3,4.2-1.2c0.3-0.6,0.5-1.3,0.4-2c-0.4-1.6,0.4-3.2,1.9-3.7c0.8-0.4,1.8-0.5,2.7-0.3
						c0.8,0.3,1.5,0.9,1.8,1.7c0.2,0.4,0.3,0.9,0.2,1.3c-0.2,1-0.5,2-1,3c-0.7,1.5-1.2,3.1-1.3,4.7c0,1.3,0.3,2.5,0.8,3.7
						c0.3,0.8,0.9,1.4,1.6,1.7c0.8,0.3,1.6,0.3,2.4-0.1c1.4-0.6,2.1-2.2,1.5-3.7c-0.3-0.5-0.4-1.1-0.4-1.6c0.2-1.1,0.5-2.1,1-3.1
						c0.8-1.5,1.2-3.1,1.4-4.7c0.1-1.4-0.2-2.7-0.8-3.9C288.3,129.8,286.4,128.2,284.2,127.5"/>
					<path id="Trazado_696757" class="st2" d="M132.7,116.9c0-13.3-10.7-24-24-24c-13.3,0-24,10.7-24,24c0,12.2,9.1,22.4,21.2,23.9
						c1.1,3.2,4.7,11.4,14.3,14.6c0,0-7.5-2.8-7.5-14.8C124.3,138.5,132.7,128.6,132.7,116.9"/>
					<path id="Trazado_696758" class="st3" d="M132.7,116.9c0-13.3-10.7-24-24-24c-13.3,0-24,10.7-24,24c0,12.2,9.1,22.4,21.2,23.9
						c1.1,3.2,4.7,11.4,14.3,14.6c0,0-7.5-2.8-7.5-14.8C124.3,138.5,132.7,128.6,132.7,116.9z"/>
					<path id="Trazado_696759" class="st4" d="M111.2,128.9c0,1.6-1.3,2.9-2.9,2.9s-2.9-1.3-2.9-2.9c0-1.6,1.3-2.9,2.9-2.9
						C110,126.1,111.2,127.3,111.2,128.9 M115.8,102.7c-2-1.6-4.6-2.5-7.2-2.4c-2.5-0.1-5,0.8-7,2.5c-1.2,1-2.1,2.4-2.6,3.9
						c-0.3,1-0.2,2.1,0.4,2.9c1,1.4,3.1,1.8,4.5,0.7c0.6-0.4,1-1,1.2-1.7c0.3-1.7,1.8-2.8,3.4-2.7c1-0.1,1.9,0.3,2.6,0.9
						c0.6,0.6,1,1.5,0.9,2.4c0,0.5-0.1,0.9-0.4,1.3c-0.6,0.9-1.4,1.7-2.3,2.3c-1.3,1.1-2.5,2.4-3.3,3.9c-0.5,1.2-0.8,2.5-0.9,3.8
						c-0.1,0.8,0.2,1.7,0.8,2.3c0.6,0.6,1.4,1,2.3,1c1.6,0,2.9-1.2,3-2.8c0-0.6,0.1-1.2,0.4-1.7c0.6-1,1.4-1.8,2.3-2.5
						c1.4-1,2.5-2.4,3.4-3.9c0.7-1.2,1-2.6,1-4C118.7,106.6,117.6,104.3,115.8,102.7"/>
					<path id="Trazado_696760" class="st2" d="M123.1,27.5H72.8c-3.6,0-6.4,2.9-6.4,6.4v38.1c0,3.6,2.9,6.4,6.4,6.4h17.8
						c-0.4,3.4-2,8.8-7.8,14.6c0,0,13.8-6.3,19.4-14.6h20.9c3.6,0,6.4-2.9,6.4-6.4l0,0V34C129.5,30.4,126.7,27.5,123.1,27.5
						L123.1,27.5"/>
					<path id="Trazado_696761" class="st3" d="M123.1,27.5H72.8c-3.6,0-6.4,2.9-6.4,6.4v38.1c0,3.6,2.9,6.4,6.4,6.4h17.8
						c-0.4,3.4-2,8.8-7.8,14.6c0,0,13.8-6.3,19.4-14.6h20.9c3.6,0,6.4-2.9,6.4-6.4l0,0V34C129.5,30.4,126.7,27.5,123.1,27.5z"/>
					<path id="Trazado_696762" class="st4" d="M97.9,60.1c-2.5,0-4.5-2-4.5-4.5v-19c0-2.5,2.1-4.5,4.6-4.5c2.4,0,4.4,2,4.5,4.5v19
						C102.5,58.1,100.4,60.1,97.9,60.1"/>
					<path id="Trazado_696763" class="st4" d="M102.5,67.2c0,2.5-2,4.5-4.5,4.5s-4.5-2-4.5-4.5c0-2.5,2-4.5,4.5-4.5
						C100.4,62.7,102.5,64.7,102.5,67.2C102.5,67.2,102.5,67.2,102.5,67.2"/>
					<path id="Trazado_696764" class="st2" d="M274.5,0.2h-49.9c-2.6,0-4.7,2.1-4.7,4.7c0,0,0,0,0,0v14.6c0,2.6,2.1,4.7,4.7,4.7l0,0
						h19.6c-0.3,2.5-1.5,6.5-5.7,10.6c0,0,10-4.6,14.1-10.6h21.9c2.6,0,4.7-2.1,4.7-4.7c0,0,0,0,0,0V4.9
						C279.2,2.3,277.1,0.2,274.5,0.2L274.5,0.2"/>
					<path id="Trazado_696765" class="st3" d="M274.5,0.2h-49.9c-2.6,0-4.7,2.1-4.7,4.7c0,0,0,0,0,0v14.6c0,2.6,2.1,4.7,4.7,4.7l0,0
						h19.6c-0.3,2.5-1.5,6.5-5.7,10.6c0,0,10-4.6,14.1-10.6h21.9c2.6,0,4.7-2.1,4.7-4.7c0,0,0,0,0,0V4.9
						C279.2,2.3,277.1,0.2,274.5,0.2z"/>
					<path id="Trazado_696766" class="st4" d="M242.8,12.4c0,1.8-1.5,3.3-3.3,3.3s-3.3-1.5-3.3-3.3c0-1.8,1.5-3.3,3.3-3.3l0,0
						C241.3,9.1,242.8,10.6,242.8,12.4"/>
					<path id="Trazado_696767" class="st4" d="M252.8,12.4c0,1.8-1.5,3.3-3.3,3.3s-3.3-1.5-3.3-3.3c0-1.8,1.5-3.3,3.3-3.3l0,0
						C251.3,9.1,252.8,10.6,252.8,12.4"/>
					<path id="Trazado_696768" class="st4" d="M262.9,12.4c0,1.8-1.5,3.3-3.3,3.3c-1.8,0-3.3-1.5-3.3-3.3c0-1.8,1.5-3.3,3.3-3.3l0,0
						C261.4,9.1,262.9,10.6,262.9,12.4"/>
					<path id="Trazado_696769" class="st2" d="M217.2,42.8c0-18.9-17.4-34.2-38.9-34.2c-21.5,0-38.9,15.3-38.9,34.2
						c0,17.8,15.5,32.5,35.4,34.1c-1.7,4.3-4.7,11-8.6,14.1c0,0,11.1-7.1,17.1-14.2C202.4,74.6,217.2,60.2,217.2,42.8"/>
					<path id="Trazado_696770" class="st3" d="M217.2,42.8c0-18.9-17.4-34.2-38.9-34.2c-21.5,0-38.9,15.3-38.9,34.2
						c0,17.8,15.5,32.5,35.4,34.1c-1.7,4.3-4.7,11-8.6,14.1c0,0,11.1-7.1,17.1-14.2C202.4,74.6,217.2,60.2,217.2,42.8z"/>
					<line id="Línea_2285" class="st5" x1="148.2" y1="29.8" x2="200.1" y2="29.8"/>
					<line id="Línea_2286" class="st5" x1="148.2" y1="42.5" x2="200.1" y2="42.5"/>
					<line id="Línea_2287" class="st5" x1="148.2" y1="55.2" x2="200.1" y2="55.2"/>
					<line id="Línea_2288" class="st5" x1="148.2" y1="36.2" x2="189.8" y2="36.2"/>
					<line id="Línea_2289" class="st5" x1="148.2" y1="48.9" x2="189.8" y2="48.9"/>
					<path id="Trazado_696771" class="st2" d="M296.9,40.1h-49c-8,0-14.4,6.5-14.4,14.4c0,7.9,6.4,14.4,14.4,14.4h37.5
						c-1.4,3.2-3.5,7-6,9c4.1-2.7,7.9-5.7,11.5-9h6.1c8,0,14.4-6.4,14.4-14.4S304.9,40.1,296.9,40.1"/>
					<path id="Trazado_696772" class="st3" d="M296.9,40.1h-49c-8,0-14.4,6.5-14.4,14.4c0,7.9,6.4,14.4,14.4,14.4h37.5
						c-1.4,3.2-3.5,7-6,9c4.1-2.7,7.9-5.7,11.5-9h6.1c8,0,14.4-6.4,14.4-14.4S304.9,40.1,296.9,40.1L296.9,40.1z"/>
					<line id="Línea_2290" class="st5" x1="242.2" y1="49.3" x2="302.7" y2="49.3"/>
					<line id="Línea_2291" class="st5" x1="242.2" y1="58.5" x2="302.7" y2="58.5"/>
					<line id="Línea_2292" class="st5" x1="251.1" y1="53.9" x2="302.7" y2="53.9"/>
					<path id="Trazado_696773" class="st2" d="M118.6,163.7H58.2c-5.5,0.1-10,4.6-9.9,10.1c0.1,5.5,4.5,9.9,9.9,9.9h33.5
						c-1,2.6-2.8,6.6-5.2,8.4c0,0,6.5-4.2,10.2-8.4h21.9c5.5-0.1,10-4.6,9.9-10.1C128.5,168.2,124.1,163.8,118.6,163.7"/>
					<path id="Trazado_696774" class="st3" d="M118.6,163.7H58.2c-5.5,0.1-10,4.6-9.9,10.1c0.1,5.5,4.5,9.9,9.9,9.9h33.5
						c-1,2.6-2.8,6.6-5.2,8.4c0,0,6.5-4.2,10.2-8.4h21.9c5.5-0.1,10-4.6,9.9-10.1C128.5,168.2,124.1,163.8,118.6,163.7z"/>
					<line id="Línea_2293" class="st5" x1="57.4" y1="169.3" x2="118.7" y2="169.3"/>
					<line id="Línea_2294" class="st5" x1="57.4" y1="174.1" x2="104.9" y2="174.1"/>
					<path id="Trazado_696775" class="st2" d="M78.2,10.6H18.1c-3.1,0-5.7,2.5-5.7,5.6c0,0,0,0,0,0v27.1c0,3.1,2.5,5.7,5.7,5.7h23.6
						c-0.3,3-1.8,7.8-6.8,12.8c0,0,12.1-5.5,17-12.8h26.3c3.1,0,5.7-2.5,5.7-5.7l0,0V16.3C83.8,13.1,81.3,10.6,78.2,10.6L78.2,10.6"
						/>
					<path id="Trazado_696776" class="st3" d="M78.2,10.6H18.1c-3.1,0-5.7,2.5-5.7,5.6c0,0,0,0,0,0v27.1c0,3.1,2.5,5.7,5.7,5.7h23.6
						c-0.3,3-1.8,7.8-6.8,12.8c0,0,12.1-5.5,17-12.8h26.3c3.1,0,5.7-2.5,5.7-5.7l0,0V16.3C83.8,13.1,81.3,10.6,78.2,10.6z"/>
					<line id="Línea_2295" class="st5" x1="25.5" y1="21.1" x2="70.5" y2="21.1"/>
					<line id="Línea_2296" class="st5" x1="25.5" y1="36.2" x2="70.5" y2="36.2"/>
					<line id="Línea_2297" class="st5" x1="31.6" y1="28.6" x2="64.3" y2="28.6"/>
					<path id="Trazado_696777" class="st6" d="M151.7,258.7c18.5-0.3,30.9-2.4,37.2-3.8c-2.1-5.8-3.7-9.8-3.7-9.8l-79.2-3.8
						c-1,3.1-1.8,6.3-2.4,9.5C119.1,256.2,135.4,258.9,151.7,258.7"/>
					<path id="Trazado_696778" class="st7" d="M198.2,289c-0.6-8.7-5.7-24.1-9.3-34.1c-6.3,1.4-18.7,3.5-37.2,3.8
						c-16.4,0.1-32.7-2.6-48.1-8c-3.1,14-7.6,38.2-7.6,38.2H198.2z"/>
					<path id="Trazado_696779" class="st2" d="M143.2,262.2l-7.1-0.2c-4.7-0.1-8.5-4.1-8.3-8.8l0.1-2.8c0.1-4.7,4.1-8.5,8.8-8.3
						l7.1,0.2c4.7,0.1,8.5,4.1,8.3,8.8l-0.1,2.8C151.9,258.5,147.9,262.3,143.2,262.2 M136.5,246.5c-2.2-0.1-4.1,1.7-4.1,3.9
						l-0.1,2.8c-0.1,2.2,1.7,4.1,3.9,4.2l7.1,0.2c2.2,0.1,4.1-1.7,4.1-3.9l0.1-2.8c0.1-2.2-1.7-4.1-3.9-4.2L136.5,246.5z"/>
					<path id="Trazado_696780" class="st4" d="M106.1,241.3c0,0,26,9.1,50.8,9.5s29.8-1.9,29.8-1.9l-1.5-3.8L106.1,241.3z"/>
					<path id="Trazado_696781" class="st8" d="M180.7,142.9c0,0,19.1,8.3,23.6,14.2c4.5,5.9,2.1,32.1-2.1,43s-12.8,28.4-15.1,31.7
						c0,0,1.3,7.3,1.1,9.4s-2.9,4-2.9,4c-15,2.3-30.2,3-45.3,2.2c-24.7-1.3-34.9-6.5-34.9-6.5s-1.2-1.2,0-4.1s1.9-4.8,1.9-4.8
						l1.7-6.3c0,0-7.1,1.3-7.7-3.7s9-47.9,11.2-56.8s5.4-19.7,12-22.4c6.6-2.7,18.9-2.7,18.9-2.7L180.7,142.9z"/>
					<path id="Trazado_696782" class="st3" d="M160.7,191.3c0.9,0.3,1.7,0.9,2.3,1.7c1.2,1.5,18.5,22.3,19.5,25.6"/>
					<line id="Línea_2298" class="st3" x1="174.7" y1="207.5" x2="185.7" y2="172.4"/>
					<path id="Trazado_696783" class="st3" d="M152.8,211.4c0,0,14,21.7,20.2,25.8c6.2,4.1,12.8-1.6,14.1-5.4"/>
					<path id="Trazado_696784" class="st3" d="M122.7,205.1c0,0,0.3-1-3.4-0.2s-12.2,2.9-13.2,3.7"/>
					<path id="Trazado_696785" class="st3" d="M122.7,157.9l-0.8,13l-9.6,12.7l3.4,10.3l-1.3,12.2"/>
					<path id="Trazado_696786" class="st3" d="M108.7,225.7c0,0,11.4-2.1,14-2.6s2.8-2.3,2.8-2.3"/>
					<path id="Trazado_696787" class="st4" d="M112.3,183.6l8.6,7.7l-5.1,2.6L112.3,183.6z"/>
					<path id="Trazado_696788" class="st2" d="M148.2,135.9l-7.4,3.6l1.6,13.3l4.9-2.4c4.2,4.2,10.8,4.7,15.6,1.2l3,4l15.7-13.5
						l-6.7-7.9l-1.3-0.8L148.2,135.9z"/>
					<path id="Trazado_696789" d="M147.3,150.5l8.1-5.8l-6.7,6.9L147.3,150.5z"/>
					<path id="Trazado_696790" class="st3" d="M147.3,150.5l8.1-5.8l-6.7,6.9L147.3,150.5z"/>
					<path id="Trazado_696791" d="M162.8,151.6l-5.9-7l4.3,8L162.8,151.6z"/>
					<path id="Trazado_696792" class="st3" d="M162.8,151.6l-5.9-7l4.3,8L162.8,151.6z"/>
					<path id="Trazado_696793" class="st9" d="M136.8,102.4c0,0-2.8,0.1-3.6-4.5c-0.5-2.6,0.1-5.2,1.8-7.3c0,0-2.3-6.5,2.5-10
						c0,0,0.7-3.8,6.3-6.2s12.1-4.6,23.6-2.1c0,0-1.6-3.2-0.5-5.5s3.8-2.8,5.1-0.9c0,0-0.5-4.8,3.2-5.8s7.1-0.7,7.9,2
						c0,0,2.5-1.2,5.4,1.2c2.9,2.4,4,5.8,3,8.3c0,0,2.6-2.1,5-0.5c1.4,1,2,2.7,1.6,4.4c0,0,6.2,4.8,0.1,12.1c0,0,2.9,2.9,0.9,6.3
						c-2,3.4-6.9,3.8-6.9,3.8s-0.3,2.8-4,3.4c1.3,5.2-0.4,10.7-4.5,14.1c0,0-8.1,9.6-12.3,10.6S136.8,102.4,136.8,102.4"/>
					<path id="Trazado_696794" class="st3" d="M167.5,72.3c0,0,4.4-1.6,10.7,5.3c0,0,5.7,1.2,7.5,5.8"/>
					<path id="Trazado_696795" class="st3" d="M188.5,101.1c0,0,1.5-7.9-1.2-12.9"/>
					<path id="Trazado_696796" class="st3" d="M165.2,91.5c1-0.1,2.1,0,3.1-0.1c1.3-0.2,2.5-0.9,3.4-1.9c0.2-0.4,0.7-0.6,1.2-0.5
						c2.2,0.1,4.2-0.9,5.4-2.8"/>
					<path id="Trazado_696797" class="st3" d="M169.7,97.8c2,0.2,3.9-0.3,5.5-1.5c0.2-0.2,0.5-0.3,0.7-0.4c0.3,0,0.6,0,0.9,0.1
						c1.4,0.2,3.1-0.1,3.8-1.4"/>
					<path id="Trazado_696798" class="st3" d="M172.5,104.9c2.5,0.5,5.1-0.3,6.7-2.2"/>
					<path id="Trazado_696799" class="st3" d="M188.5,92.2c0.1,0.8-0.1,1.6-0.7,2.3c-0.5,0.6-1.1,1.2-1.8,1.7"/>
					<path id="Trazado_696800" class="st3" d="M150.3,84.6c0-1.5,0.9-2.9,2.2-3.7c1.3-0.7,2.8-1.1,4.3-1.2c-0.3-0.9,0-1.8,0.8-2.3
						c0.8-0.5,1.8-0.7,2.7-0.6"/>
					<path id="Trazado_696801" class="st3" d="M168.5,80.6c0.9,0.5,1.9,0.5,2.8,0.1c1.1-0.7,1.9-1.7,2.4-2.9"/>
					<path id="Trazado_696802" class="st3" d="M176.8,63.2c-1,0.2-1.6,1.1-1.5,2.1c0.1,1,0.9,1.8,1.8,2c-1,0.2-1.9,0.9-2.2,1.9
						c-0.3,0.9-0.1,1.9,0.5,2.6"/>
					<path id="Trazado_696803" class="st3" d="M191.9,89.9c2.1,0.5,4.2-0.9,4.7-3c0.1-0.6,0.1-1.1,0-1.7"/>
					<path id="Trazado_696804" class="st3" d="M192.9,76c1.7,0.5,2.7,2.2,2.2,3.9c-0.1,0.5-0.3,0.9-0.7,1.2"/>
					<path id="Trazado_696805" class="st3" d="M179.5,110.5c1.7-0.2,3-1.4,3.5-3"/>
					<path id="Trazado_696806" class="st3" d="M143.7,84.4c-0.7-2,0.3-4.2,2.3-4.9c0.4-0.1,0.7-0.2,1.1-0.2
						c-0.1-0.9,0.3-1.8,1.1-2.4c0.7-0.5,1.5-0.8,2.4-0.9"/>
					<path id="Trazado_696807" class="st3" d="M138.7,84.5c-0.4,0-0.7-0.3-0.8-0.7c-0.1-0.4,0-0.8,0.2-1.1c0.4-1,1.2-1.9,2.1-2.5"/>
					<path id="Trazado_696808" class="st10" d="M138.4,84.6c0,0-4,33.4,4.2,44.9c0.6,0.8,3.3,4.7,5.6,4.4v2.1c0,0,6.5,7.9,7.1,8.7
						l18.4-10l-1.6-14.1c0,0,2.3,1.6,4,0.3c2-1.6,4.4-8.5,3-10.8s-2.6-3.2-5.3-1.6c0,0-2.4-0.1-1.3-3.4c0,0-3.8-1.8-2.6-7.1
						c-3-0.6-4.9-3.4-4.5-6.3c0,0-5.3-1.1-6.3-5.7c0,0-6.9,3-8.5-1.2c0,0-5.4,2.2-6.9,0C143.7,84.6,140.8,86.6,138.4,84.6"/>
					<path id="Trazado_696809" d="M148.2,133.8c3.4-0.4,6.7-1.2,10-2.4l-9,5.6l-0.9-1.1V133.8z"/>
					<path id="Trazado_696810" class="st3" d="M148.2,133.8c3.4-0.4,6.7-1.2,10-2.4l-9,5.6l-0.9-1.1V133.8z"/>
					<path id="Trazado_696811" class="st4" d="M173.5,111.4c0,0,3-4.2,4.6,0"/>
					<path id="Trazado_696812" class="st3" d="M173.5,111.4c0,0,3-4.2,4.6,0"/>
					<path id="Trazado_696813" class="st10" d="M161.2,192.3l-5.2-10.4l5.9-19.1l-0.7-2c0,0,2.4-3.7,1.7-5.9s-4,0.8-4,0.8l-1.5-4
						l-5.3-1.9c0,0-5.6,2.6-5.5,3.7c0.3,1.2,1.5,1.9,2.7,1.6c0,0,0.1,0,0.1,0c1.1-0.2,2.3-0.5,3.4-0.9l2.1,6c0,0-3.8-2.8-4.9-2.1
						s-1.8,4-1.8,4c-1,0.1-1.9,0.7-2.4,1.6c-0.5,1-0.8,2.1-1.1,3.2c0,0-2.4,5.4-2,6.5s2.6,1.6,2.6,1.6s-1.6,7.7-1.2,9.9
						s4.8,12,4.8,12S157.7,198.4,161.2,192.3"/>
					<path id="Trazado_696814" d="M154.8,160.1l2.1,1.8l-2.9-4.1L154.8,160.1z"/>
					<path id="Trazado_696815" class="st3" d="M154.8,160.1l2.1,1.8l-2.9-4.1L154.8,160.1z"/>
					<path id="Trazado_696816" class="st3" d="M144.9,170.9l1.3,1.5l1.1-1.5"/>
					<line id="Línea_2299" class="st3" x1="146.2" y1="172.4" x2="145.3" y2="174.8"/>
					<line id="Línea_2300" class="st3" x1="144.6" y1="166.7" x2="151.3" y2="168.2"/>
					<line id="Línea_2301" class="st3" x1="148" y1="161.9" x2="153.9" y2="164.5"/>
					<line id="Línea_2302" class="st3" x1="158.9" y1="155.6" x2="161.2" y2="160.8"/>
					<path id="Trazado_696817" class="st10" d="M124.5,221.2c0,0-8.7-3.6-3.7-15.8l11.8-1.7c0,0,10.3-9,14.1-9.5
						c4.4-0.3,8.8-0.1,13.1,0.7c2.4,0.5,2.8,2.6,1.3,3c-1.4,0.3-2.8,0.5-4.3,0.7c0,0,5,0.5,5.9,2s-0.7,3-2.4,2.9c0,0,2,1.1,1.7,2.8
						s-4.8,1.4-4.8,1.4s2.1,1.2,1.5,2.7s-5.1,0.9-8.3,1.2s-8.3,4.4-11.4,5.1c-2,0.5-4.1,0.5-6.2,0.1L124.5,221.2z"/>
					<path id="Trazado_696818" class="st3" d="M157.4,207.6c0,0-6.9-0.3-9.4,0"/>
					<path id="Trazado_696819" class="st3" d="M160.5,203.4c-4.4-0.7-8.8-0.7-13.2,0"/>
					<path id="Trazado_696820" class="st3" d="M156.9,198.5c0,0-6.5-1.2-9.6,0"/>
					<path id="Trazado_696821" class="st3" d="M147.7,194c4.1,0,8.1,0.2,12.2,0.8"/>
					<path id="Trazado_696822" class="st4" d="M144.2,106.6c0,0.5-0.4,1-1,1c-0.5,0-1-0.4-1-1s0.4-1,1-1
						C143.7,105.7,144.2,106.1,144.2,106.6C144.2,106.6,144.2,106.6,144.2,106.6"/>
					<path id="Trazado_696823" class="st4" d="M147.1,102.5c-0.4,0.5-2-0.3-3.9-0.3s-3.5,0.7-3.9,0.3c-0.4-0.5,1.2-2.5,3.9-2.5
						C145.9,100.1,147.5,102.1,147.1,102.5"/>
					<path id="Trazado_696824" class="st4" d="M158.4,106.6c0,0.5-0.4,1-1,1c-0.5,0-1-0.4-1-1s0.4-1,1-1
						C157.9,105.7,158.4,106.1,158.4,106.6C158.4,106.6,158.4,106.6,158.4,106.6"/>
					<path id="Trazado_696825" class="st4" d="M161.3,102.5c-0.4,0.5-2-0.3-3.9-0.3s-3.5,0.7-3.9,0.3s1.2-2.5,3.9-2.5
						S161.7,102.1,161.3,102.5"/>
					<path id="Trazado_696826" class="st3" d="M147.8,102.7l-1.7,14.5h5.4"/>
					<path id="Trazado_696827" class="st3" d="M157.9,118c-1.7,3.3-5.9,2.6-5.9,2.6L157.9,118z"/>
					<path id="Trazado_696828" class="st4" d="M212.9,281.2l-1.7,7.5h55.6l-24.3-19.1L212.9,281.2z"/>
					<path id="Trazado_696829" class="st3" d="M212.9,281.2l-1.7,7.5h55.6l-24.3-19.1L212.9,281.2z"/>
					<path id="Trazado_696830" class="st9" d="M210.4,60.2l-5.9,37.3h4.8l11.9-0.6l13.9,26.4l26-9l-6.9-17.9l-18.7-42.3l-24.8,3.7
						L210.4,60.2z"/>
					<path id="Trazado_696831" class="st4" d="M239.3,87.3c0,0-1.5,2.8-3.7,3l3.7-0.7V87.3z"/>
					<path id="Trazado_696832" class="st3" d="M239.3,87.3c0,0-1.5,2.8-3.7,3l3.7-0.7V87.3z"/>
					<path id="Trazado_696833" class="st11" d="M230.9,130.2c0,0,0.3-8.5,4-11.2s25-11.1,28.9-9.8s6.9,6.8,6.9,7.7v2.8
						c0,0,10.8,17.8,11.9,29.2s-5.5,70.8-5.5,70.8l5.7,69.1h-19.3c0,0-15.2-2.4-22.3-13.4c0,0-23,11.5-26.5,11.6s-1.7-53.2-1.3-64
						s3.4-41.5,6.3-55.5s5.7-30.2,7.4-32.5S230.9,130.2,230.9,130.2"/>
					<path id="Trazado_696834" class="st3" d="M230.9,130.2c0,0,11.9-7.9,20.6-10.2c5.9-1.4,11.8-2.3,17.8-2.7"/>
					<line id="Línea_2303" class="st3" x1="270.6" y1="119.6" x2="268.2" y2="117.4"/>
					<path id="Trazado_696835" class="st3" d="M265.1,133.9c-2.9-3-12.3-4.8-18.5-3.7s-14.8,8.6-15.7,16.1s-1.6,34.2-1.6,34.2
						c11.3,5.3,24.2,5.7,35.8,1.1l4.9-29.7"/>
					<path id="Trazado_696836" class="st9" d="M231.9,180.1c0,0,5.1-2.4,13.6-2s13.2,3.4,13.2,3.4l-2.6,36c0,0-13.1,38.2-15.8,43.6
						c-2.8,5.4-9,18.9-9,18.9l0.6,8.6h-16.5c-0.1-4.4,0.3-8.7,1.3-13c1.6-6.5,16.5-67.2,16.5-67.2L231.9,180.1z"/>
					<path id="Trazado_696837" class="st4" d="M232,182.5c0,0,7.7-5.2,26.6,0l0.1-0.9c0,0-11.6-6.7-26.8-1.5L232,182.5z"/>
					<path id="Trazado_696838" class="st3" d="M232,182.5c0,0,7.7-5.2,26.6,0l0.1-0.9c0,0-11.6-6.7-26.8-1.5L232,182.5z"/>
					<path id="Trazado_696839" class="st4" d="M220.1,269.4l-3.6-1.5l-2.4,8.6c6.1,2.4,12.4,4.3,18.8,5.7l2.8-7.6L220.1,269.4z"/>
					<path id="Trazado_696840" class="st3" d="M220.1,269.4l-3.6-1.5l-2.4,8.6c6.1,2.4,12.4,4.3,18.8,5.7l2.8-7.6L220.1,269.4z"/>
					<path id="Trazado_696841" class="st4" d="M231,274.6c0,3.7-3,6.7-6.7,6.7s-6.7-3-6.7-6.7s3-6.7,6.7-6.7l0,0
						C228,267.9,231,270.9,231,274.6"/>
					<path id="Trazado_696842" class="st3" d="M231,274.6c0,3.7-3,6.7-6.7,6.7s-6.7-3-6.7-6.7s3-6.7,6.7-6.7l0,0
						C228,267.9,231,270.9,231,274.6z"/>
					<path id="Trazado_696843" class="st2" d="M228.6,274.6c0,2.3-1.9,4.2-4.2,4.2s-4.2-1.9-4.2-4.2s1.9-4.2,4.2-4.2c0,0,0,0,0,0
						C226.7,270.4,228.6,272.3,228.6,274.6"/>
					<path id="Trazado_696844" class="st6" d="M210.2,61.5c0,0-4.1-3.3,0.7-7.4s15.5-9.6,35.7-6.1c0,0-0.4-6.7,4.5-9.5
						c4.9-2.8,5,1.3,5,1.3s7.8-3.2,10.6,5.9c0,0,5,3.7,2.8,7.8s-5.7,7.3-9.4,6.5c0,0,2.4,9.5,0.9,14.9s-3.7,14.9-4,16.1
						s-2.1,5.1-4.9,5.8s-3.8,0-3.8,0s-4.8,2-5.7,0.6s-3.3-10.2-3.3-10.2s3.5-6.5,1.6-10.7s-9.9-3.7-10.2,3.8s4.5,18,5.1,20.3
						s-7,12.5-9.6,14.7s-8.3,3-11.5,0s-2.4-10.7-2.4-10.7s-3.3-1.7-3.2-7.2c0,0,1.6-2.1,6.9-3.6c2.6-0.8,5.2-1.5,7.9-2l2.9-4.1
						l-0.7-16c0,0-4.9-5.3-4.9-7.8c0-1.6,0.1-3.3,0.4-4.9c0,0-3.6,0.5-4.8,0c0,0-3.3,0.6-4.4,0C212.7,59.2,211.8,62,210.2,61.5"/>
					<path id="Trazado_696845" class="st3" d="M212.7,59.1c0,0-0.3-4.7,8.5-6.9"/>
					<path id="Trazado_696846" class="st3" d="M217,59.1c0,0,2.7-8.1,22.3-12"/>
					<path id="Trazado_696847" class="st3" d="M221.8,59.1c0,0,10.2,1.9,23.5-5"/>
					<path id="Trazado_696848" class="st3" d="M246.6,48.1c0,0,0.9,10,13.5,12"/>
					<path id="Trazado_696849" class="st3" d="M257,59.4c0,0,11.1,6.4,9.7-13.6"/>
					<path id="Trazado_696850" class="st3" d="M256.1,39.9c0,0-11.7,6.6-6.4,14.8"/>
					<path id="Trazado_696851" class="st3" d="M261.9,43.6c0,0-0.4,15.1-6.3,15.3"/>
					<path id="Trazado_696852" class="st3" d="M253.3,57.8c0,0,3.7,6.1-3.2,13.8"/>
					<path id="Trazado_696853" class="st3" d="M248.3,96.9c0,0,4.9,0.5,6-9.1"/>
					<path id="Trazado_696854" class="st3" d="M214.8,102.4l8.5-5.4C223.2,96.9,221.1,105.3,214.8,102.4z"/>
					<path id="Trazado_696855" class="st4" d="M214.7,82.3c0,0.5-0.4,0-1,0s-1,0.5-1,0c0-0.5,0.4-1,1-1S214.7,81.8,214.7,82.3"/>
					<path id="Trazado_696856" class="st4" d="M217.6,78.2c-0.4,0.5-2-0.3-3.9-0.3s-3.5,0.7-3.9,0.3s1.2-2.5,3.9-2.5
						S218,77.7,217.6,78.2"/>
					<path id="Trazado_696857" class="st4" d="M233.5,79.9c0,0,0.5-3.8,3.9-3.6s2.2,4,2.2,4"/>
					<path id="Trazado_696858" class="st3" d="M233.5,79.9c0,0,0.5-3.8,3.9-3.6s2.2,4,2.2,4"/>
					<path id="Trazado_696859" class="st12" d="M70.1,64.7c0,0,9.5,18.9,10.9,31.5l-4.4,1.2c0,0-0.8,17.3-3.8,17.7
						S61,111.4,61,111.4s-2.6,12.2-2.5,15s11.9,24.3,11.9,24.3l-28.7-12.4l9.2-38L52,84.3L70.1,64.7z"/>
					<path id="Trazado_696860" d="M61,111.4c-1.9-1.1-3.7-2.4-5.4-3.7l4.6,7.5L61,111.4z"/>
					<path id="Trazado_696861" class="st3" d="M61,111.4c-1.9-1.1-3.7-2.4-5.4-3.7l4.6,7.5L61,111.4z"/>
					<path id="Trazado_696862" class="st3" d="M66.4,98l7.7,2.8C74.2,100.9,69.4,104.1,66.4,98z"/>
					<path id="Trazado_696863" class="st4" d="M72.5,87.4c0,0.5-0.4,0.8-0.8,0.8s-0.8-0.4-0.8-0.8c0-0.5,0.4-0.8,0.8-0.8l0,0
						C72.1,86.5,72.5,86.9,72.5,87.4"/>
					<path id="Trazado_696864" class="st4" d="M75,83.8c-0.3,0.4-1.7-0.2-3.4-0.2c-1.6,0-3,0.6-3.4,0.2s1-2.1,3.4-2.1
						C74,81.7,75.3,83.4,75,83.8"/>
					<path id="Trazado_696865" class="st3" d="M74.1,85.9c0,4.7,0.9,8.5,2,8.5s2-3.8,2-8.5s-0.9-8.5-2-8.5
						C75,77.3,74.1,81.2,74.1,85.9z"/>
					<line id="Línea_2304" class="st3" x1="74.1" y1="84.4" x2="58.7" y2="84.4"/>
					<path id="Trazado_696866" class="st6" d="M81.9,233.4c0,0,2.6,22.4,2.5,27.5c-0.1,5.1-1.2,14.3-1.2,14.3l2.6,16.5H24.4
						c-1.8-9.6-1.9-19.5-0.4-29.1c2.6-15.3,6.3-24.6,7-29.7L81.9,233.4z"/>
					<path id="Trazado_696867" class="st3" d="M83.2,275.2l-1.7,3.8l-0.9,12.6"/>
					<path id="Trazado_696868" class="st3" d="M54.4,235.4c0,0-1.4,52.3-2.1,56.1"/>
					<path id="Trazado_696869" class="st3" d="M56.4,235.4c0,0-1.5,52.4-2.4,56.1"/>
					<path id="Trazado_696870" class="st3" d="M55.6,259.9c0,0,15.7-7.8,14.1-25"/>
					<path id="Trazado_696871" class="st3" d="M28.2,244l7.8,0.9c0,0-1.4,21.2-3.9,25.8c-2.5,4.6-7.9,2.2-8.9-1.1"/>
					<path id="Trazado_696872" class="st13" d="M30,221.2c0,0-0.4,0.3-0.4,2v8.4c0,0.9,4,3.9,23.3,3.9s28-1.7,29.5-2.2
						s1-3.3,0.4-6.5s-1.2-4.1-1.8-4.5c-0.3-0.2-0.6-0.3-1-0.2L30,221.2z"/>
					<path id="Trazado_696873" class="st2" d="M79.8,230.6v-9.5h-2.3v11.9c0,1,0.8,1.9,1.9,1.9l0,0h3.3c0.6,0,1.2-0.5,1.2-1.2v-0.6
						c0-0.6-0.5-1.2-1.2-1.2h-1.5C80.4,232,79.8,231.4,79.8,230.6"/>
					<path id="Trazado_696874" class="st7" d="M44.1,134.3c4.3-1.3,9-0.3,12.5,2.6c6.3,4.9,6.9,6.9,10.4,7.4c0,0,14.6,24.7,15.3,28
						c0.7,3.3-7,14.3-7,14.3s6.9,27.2,7,29.6s-2.1,5.8-2.1,5.8c-10.2,3.8-21.2,4.9-32,3.2c-18.1-2.8-23.4-5-25.5-8.7
						s1.5-6.2,1.9-15.8s-0.8-20.3-0.8-28.2c0-7.8,3.3-21.3,6.6-27.6C33.8,138.3,44.1,134.3,44.1,134.3"/>
					<path id="Trazado_696875" d="M82.3,172.2l-10.9,12.5l4,1.8C75.3,186.5,82.5,176.8,82.3,172.2"/>
					<path id="Trazado_696876" class="st3" d="M82.3,172.2l-10.9,12.5l4,1.8C75.3,186.5,82.5,176.8,82.3,172.2z"/>
					<path id="Trazado_696877" class="st3" d="M43.1,136.6c3.8-0.5,7.7,0.1,11.2,1.9c5,2.8,9.3,9.2,13.7,7.7"/>
					<path id="Trazado_696878" class="st3" d="M55.6,170.9c0,0,2.3-1.5,2-5.4s-4.7-14-4.7-14"/>
					<path id="Trazado_696879" class="st10" d="M70.1,64.7l4.8,10.5c0,0,3.3-6.7,0.7-12.7s-6.2-4.8-6.2-4.8s-4.1-4.7-19.7-6.6
						s-24.5,6.7-28.3,20.7s-6.7,46-7.8,56.1S8.5,149.4,7.1,157s-1.7,17.7,9.1,20.8c0,0,0.1,5.8,8.5,7c0,0-1.4-23.2,6.3-34.5
						s19.7-13.7,22.7-24.6S51.6,96,52.6,88.7C52.6,88.7,68.1,79.2,70.1,64.7"/>
					<path id="Trazado_696880" class="st3" d="M16.2,177.8c0,0-6.3-7.2-2-20.3s7.7-22.3,8-25.8"/>
					<path id="Trazado_696881" class="st3" d="M73.5,72.2c0.9-3.1,0.7-6.3-0.5-9.2"/>
					<path id="Trazado_696882" class="st3" d="M70.1,64.7c0.4-1.4,0.5-2.9,0.2-4.3"/>
					<path id="Trazado_696883" class="st12" d="M31.9,164c0,0,6.2,43.4,8.6,54.8s5.6,18.7,11.1,18s56.5-32.7,56.5-32.7
						s8.8-0.6,11.9-2.6s5.5-3.8,5.8-4.7c0.3-1.1-0.1-2.2-1.1-2.9c0,0,2.4-0.4,2.6-1.8s-1.2-3.3-1.2-3.3s3.6-0.5,3.4-2.1
						s-0.6-2.6-2.5-2.6s-7.5,0.2-7.5,0.2l-0.3-0.8c0,0,4.4-1.6,6-1.6s8.5-0.1,8-2.2s-6-2.3-7.9-2.2c-3.3,0.4-6.6,1.1-9.8,2.2
						c-1.3,0.7-2.6,1.4-3.8,2.2c-1.1,0-2.2,0.4-3.1,1.1c-1.8,1.1-8.3,10.3-8.3,10.3l-42.3,19.2c0,0-2.5-41.1-3.1-44.9
						s-5.5-11.2-9.2-11S31.9,164,31.9,164"/>
					<path id="Trazado_696884" d="M58.2,212.6l-3.8,2.5l3.6-6.4L58.2,212.6z"/>
					<path id="Trazado_696885" class="st3" d="M58.2,212.6l-3.8,2.5l3.6-6.4L58.2,212.6z"/>
					<line id="Línea_2305" class="st3" x1="126.1" y1="188.9" x2="119.3" y2="190.3"/>
					<line id="Línea_2306" class="st3" x1="124.7" y1="193.9" x2="121.3" y2="194.9"/>
					<line id="Línea_2307" class="st3" x1="111.9" y1="182" x2="108.4" y2="184.7"/>
					<path id="Trazado_696886" d="M108.1,204l-2.5-0.8v2.3L108.1,204z"/>
					<path id="Trazado_696887" class="st3" d="M108.1,204l-2.5-0.8v2.3L108.1,204z"/>
					<path id="Trazado_696888" class="st2" d="M269.7,129.1h37.3c2.6,0,4.8,2.1,4.8,4.8v28.3c0,2.6-2.1,4.8-4.8,4.8h-13.2
						c0.3,2.6,1.5,6.6,5.8,10.8c0,0-10.2-4.7-14.4-10.8h-15.5c-2.6,0-4.8-2.1-4.8-4.8v-28.3C265,131.2,267.1,129.1,269.7,129.1"/>
					<path id="Trazado_696889" class="st3" d="M269.7,129.1h37.3c2.6,0,4.8,2.1,4.8,4.8v28.3c0,2.6-2.1,4.8-4.8,4.8h-13.2
						c0.3,2.6,1.5,6.6,5.8,10.8c0,0-10.2-4.7-14.4-10.8h-15.5c-2.6,0-4.8-2.1-4.8-4.8v-28.3C265,131.2,267.1,129.1,269.7,129.1z"/>
					<path id="Trazado_696890" class="st4" d="M288.4,153.2c1.9,0,3.4-1.5,3.4-3.4v-14.1c0-1.9-1.5-3.4-3.4-3.4s-3.4,1.5-3.4,3.4
						v14.1C285.1,151.7,286.6,153.2,288.4,153.2"/>
					<path id="Trazado_696891" class="st4" d="M285.1,158.5c0,1.9,1.5,3.4,3.4,3.4c1.9,0,3.4-1.5,3.4-3.4c0-1.9-1.5-3.4-3.4-3.4
						C286.6,155.1,285.1,156.6,285.1,158.5"/>
					<path id="Trazado_696892" class="st2" d="M157.6,175.2h49.9c2.6,0,4.7-2.1,4.7-4.7c0,0,0,0,0,0v-14.6c0-2.6-2.1-4.7-4.7-4.7
						l0,0h-19.6c0.3-2.5,1.5-6.4,5.7-10.6c0,0-10,4.6-14.1,10.6h-21.9c-2.6,0-4.7,2.1-4.7,4.7v14.6
						C152.9,173.1,155,175.2,157.6,175.2"/>
					<path id="Trazado_696893" class="st3" d="M157.6,175.2h49.9c2.6,0,4.7-2.1,4.7-4.7c0,0,0,0,0,0v-14.6c0-2.6-2.1-4.7-4.7-4.7
						l0,0h-19.6c0.3-2.5,1.5-6.4,5.7-10.6c0,0-10,4.6-14.1,10.6h-21.9c-2.6,0-4.7,2.1-4.7,4.7v14.6
						C152.9,173.1,155,175.2,157.6,175.2z"/>
					<path id="Trazado_696894" class="st4" d="M189.3,162.9c0-1.8,1.5-3.3,3.3-3.3c1.8,0,3.3,1.5,3.3,3.3s-1.5,3.3-3.3,3.3l0,0
						C190.8,166.2,189.3,164.8,189.3,162.9"/>
					<path id="Trazado_696895" class="st4" d="M179.2,162.9c0-1.8,1.5-3.3,3.3-3.3c1.8,0,3.3,1.5,3.3,3.3s-1.5,3.3-3.3,3.3l0,0
						C180.7,166.2,179.2,164.8,179.2,162.9"/>
					<path id="Trazado_696896" class="st4" d="M169.2,162.9c0-1.8,1.5-3.3,3.3-3.3c1.8,0,3.3,1.5,3.3,3.3s-1.5,3.3-3.3,3.3l0,0
						C170.7,166.2,169.2,164.8,169.2,162.9"/>
					<path id="Trazado_696897" class="st2" d="M52.2,194.3c0-12.6-11.7-22.9-26-22.9s-26,10.2-26,22.9c0,11.9,10.4,21.7,23.7,22.8
						c-1.1,2.9-3.1,7.3-5.8,9.4c0,0,7.4-4.7,11.5-9.5C42.3,215.6,52.2,206,52.2,194.3"/>
					<path id="Trazado_696898" class="st3" d="M52.2,194.3c0-12.6-11.7-22.9-26-22.9s-26,10.2-26,22.9c0,11.9,10.4,21.7,23.7,22.8
						c-1.1,2.9-3.1,7.3-5.8,9.4c0,0,7.4-4.7,11.5-9.5C42.3,215.6,52.2,206,52.2,194.3z"/>
					<line id="Línea_2308" class="st5" x1="6.1" y1="185.6" x2="40.8" y2="185.6"/>
					<line id="Línea_2309" class="st5" x1="6.1" y1="194.1" x2="40.8" y2="194.1"/>
					<line id="Línea_2310" class="st5" x1="6.1" y1="202.6" x2="40.8" y2="202.6"/>
					<line id="Línea_2311" class="st5" x1="6.1" y1="189.8" x2="33.9" y2="189.8"/>
					<line id="Línea_2312" class="st5" x1="6.1" y1="198.4" x2="33.9" y2="198.4"/>
				</g>
			</g>
		</g>
		<rect id="Rectángulo_345544" x="-6031" y="-8971" class="st14" width="418" height="319"/>
	</g>
</g>
</svg>
