<svg xmlns="http://www.w3.org/2000/svg" xmlns:xlink="http://www.w3.org/1999/xlink" width="168" height="133" viewBox="0 0 168 133">
  <defs>
    <clipPath id="clip-path">
      <rect id="Rect치ngulo_345545" data-name="Rect치ngulo 345545" width="168" height="133" transform="translate(-3433 -6535)" fill="none" stroke="#707070" stroke-width="1"/>
    </clipPath>
    <clipPath id="clip-path-2">
      <rect id="Rect치ngulo_344640" data-name="Rect치ngulo 344640" width="81.805" height="112.712" transform="translate(0 0)" fill="none"/>
    </clipPath>
  </defs>
  <g id="Enmascarar_grupo_998558" data-name="Enmascarar grupo 998558" transform="translate(3433 6535)" clip-path="url(#clip-path)">
    <g id="Grupo_1000208" data-name="Grupo 1000208" transform="translate(-2 -4.644)">
      <circle id="Elipse_8294" data-name="Elipse 8294" cx="42.5" cy="42.5" r="42.5" transform="translate(-3390 -6510)" fill="#7bcaf4"/>
      <g id="Grupo_1000198" data-name="Grupo 1000198" transform="translate(-3384.805 -6520.36)">
        <g id="Grupo_998401" data-name="Grupo 998401" transform="translate(0 0.004)" clip-path="url(#clip-path-2)">
          <path id="Trazado_697801" data-name="Trazado 697801" d="M148.882,518.62a18.727,18.727,0,0,0-14.638,0c-8.768,4.078-25.031,21.333-19.85,30.856s16.653,7.746,20.893,6.456,4.561-2.64,4.561-2.64l.817.084v.185l.9-.092.9.092v-.185l.817-.084s.32,1.349,4.561,2.64,15.712,3.068,20.893-6.456-11.083-26.778-19.85-30.856" transform="translate(-101.919 -464.787)" fill="#499fee"/>
          <path id="Trazado_697802" data-name="Trazado 697802" d="M404.756,798.991c-4.131,4.131-11.228,7.1-11.228,7.1s9.215,1.695,14.829-.953" transform="translate(-353.695 -718.118)" fill="none" stroke="#2e1d0d" stroke-linecap="round" stroke-linejoin="round" stroke-width="1"/>
          <path id="Trazado_697803" data-name="Trazado 697803" d="M246.078,798.991c4.131,4.131,11.228,7.1,11.228,7.1s-9.215,1.695-14.829-.953" transform="translate(-217.934 -718.118)" fill="none" stroke="#2e1d0d" stroke-linecap="round" stroke-linejoin="round" stroke-width="1"/>
          <path id="Trazado_697804" data-name="Trazado 697804" d="M375.671,900.462s7.929,5.3,4.188,21.441c0,0-9.648-3.853-7.141-20.715Z" transform="translate(-334.617 -809.318)" fill="#499fee"/>
          <path id="Trazado_697805" data-name="Trazado 697805" d="M389.744,904.356a174.434,174.434,0,0,1,4.786,17.306" transform="translate(-350.294 -812.818)" fill="none" stroke="#2e1d0d" stroke-linecap="round" stroke-linejoin="round" stroke-width="2.5"/>
          <path id="Trazado_697806" data-name="Trazado 697806" d="M379.858,921.9s-9.648-3.853-7.141-20.715l2.953-.726" transform="translate(-334.617 -809.318)" fill="none" stroke="#2e1d0d" stroke-linecap="round" stroke-linejoin="round" stroke-width="2.5"/>
          <path id="Trazado_697807" data-name="Trazado 697807" d="M335.751,893.806a12.43,12.43,0,0,0-2.766,3.615c-1.307,2.444-4.056,7.586-3.14,12.78,0,0,9.859-5.681,8.868-15.06Z" transform="translate(-296.293 -803.336)" fill="#499fee"/>
          <path id="Trazado_697808" data-name="Trazado 697808" d="M335.751,893.806a12.43,12.43,0,0,0-2.766,3.615c-1.307,2.444-4.056,7.586-3.14,12.78,0,0,9.859-5.681,8.868-15.06Z" transform="translate(-296.293 -803.336)" fill="none" stroke="#2e1d0d" stroke-linecap="round" stroke-linejoin="round" stroke-width="1"/>
          <path id="Trazado_697809" data-name="Trazado 697809" d="M354.288,902.423s-4.039,8.088-5.209,11.653" transform="translate(-313.745 -811.08)" fill="none" stroke="#2e1d0d" stroke-linecap="round" stroke-linejoin="round" stroke-width="1"/>
          <path id="Trazado_697810" data-name="Trazado 697810" d="M361.133,861.6s4.482-2.09,6.658.087l-.608,4.162s-3.617-.288-5.57.736Z" transform="translate(-324.579 -773.578)" fill="#499fee"/>
          <path id="Trazado_697811" data-name="Trazado 697811" d="M361.133,861.6s4.482-2.09,6.658.087l-.608,4.162s-3.617-.288-5.57.736Z" transform="translate(-324.579 -773.578)" fill="none" stroke="#2e1d0d" stroke-linecap="round" stroke-linejoin="round" stroke-width="2.5"/>
          <path id="Trazado_697812" data-name="Trazado 697812" d="M170.792,541.906c-3.467,6.836.316,23.648.316,23.648l8.2-11.739a24.122,24.122,0,0,1,10.349,4.841l2.392,3.329,2.35-3.385a24.7,24.7,0,0,1,10.391-4.785l8.2,11.739s3.537-15.719.636-22.939c-.049-.121-.1-.24-.152-.357-.078-.173-.156-.346-.242-.507,0,0-6.145-7.5-9.84-10.267a10.94,10.94,0,0,0-1.39-.849l-.048-.02-2.36-.017c-1.98.136-4.974.327-7.544.488-3.486-.219-7.76-.493-9.21-.608h-.065a2.98,2.98,0,0,0-1.527.627q-.7.508-1.349,1.027a95.227,95.227,0,0,0-9.03,9.621c-.026.048-.046.1-.071.154h0" transform="translate(-152.19 -476.782)" fill="#fff"/>
          <path id="Trazado_697813" data-name="Trazado 697813" d="M538.972,645.278a45.284,45.284,0,0,0,2.064-7.554" transform="translate(-484.417 -573.174)" fill="none" stroke="#2e1d0d" stroke-linecap="round" stroke-linejoin="round" stroke-width="1"/>
          <path id="Trazado_697814" data-name="Trazado 697814" d="M230.259,645.278a45.281,45.281,0,0,1-2.064-7.554" transform="translate(-205.097 -573.174)" fill="none" stroke="#2e1d0d" stroke-linecap="round" stroke-linejoin="round" stroke-width="1"/>
          <path id="Trazado_697815" data-name="Trazado 697815" d="M417,559.831a24.7,24.7,0,0,1,10.391-4.785l8.2,11.739s3.843-17.066.242-23.8c0,0-6.837-8.956-11.268-11.136" transform="translate(-374.789 -478.013)" fill="none" stroke="#2e1d0d" stroke-linecap="round" stroke-linejoin="round" stroke-width="1"/>
          <path id="Trazado_697816" data-name="Trazado 697816" d="M189.63,558.622a24.122,24.122,0,0,0-10.349-4.842l-8.2,11.739s-3.843-17.066-.242-23.8a44.677,44.677,0,0,1,11.266-11.279" transform="translate(-152.164 -476.748)" fill="none" stroke="#2e1d0d" stroke-linecap="round" stroke-linejoin="round" stroke-width="1"/>
          <path id="Trazado_697817" data-name="Trazado 697817" d="M264.846,20.117A12.714,12.714,0,0,0,265.1,17.6V13.328C265.1,5.969,258.823,0,251.074,0h-5.1c-7.748,0-14.029,5.965-14.029,13.324V16.2Z" transform="translate(-208.472 -0.004)" fill="#fcebc0"/>
          <path id="Trazado_697818" data-name="Trazado 697818" d="M232.6,91.92a12.7,12.7,0,0,0-.652,4.02v2.872l32.9,3.917a12.724,12.724,0,0,0,.258-2.517V95.94c0-.415-.023-.825-.062-1.23-11.268-.2-26.441-2.017-32.44-2.79" transform="translate(-208.471 -82.616)" fill="#e52323"/>
          <path id="Trazado_697819" data-name="Trazado 697819" d="M43.346,96.67c-6.261-.028-17.5-.955-23.777-3.381s-20.6-5.428-18.009,7.648c2.565,12.948,18.379,23.949,34.661,25.31,10.436.873,15.361.162,25.658-2.012,12.705-2.682,24.287-16.1,20.223-23.893S54.165,96.718,43.346,96.67" transform="translate(-1.123 -81.934)" fill="#fcebc0"/>
          <path id="Trazado_697820" data-name="Trazado 697820" d="M718.772,237.706s-1.573,6.384-7.031,9.806" transform="translate(-639.699 -213.646)" fill="none" stroke="#2e1d0d" stroke-linecap="round" stroke-linejoin="round" stroke-width="1"/>
          <path id="Trazado_697821" data-name="Trazado 697821" d="M82.1,100.342c-4.064-7.794-27.937-3.624-38.756-3.672-6.261-.028-17.5-.955-23.777-3.381s-20.6-5.428-18.009,7.648" transform="translate(-1.124 -81.934)" fill="none" stroke="#2e1d0d" stroke-linecap="round" stroke-linejoin="round" stroke-width="1"/>
          <path id="Trazado_697822" data-name="Trazado 697822" d="M346.747,419.929c10.436.873,15.361.162,25.658-2.012" transform="translate(-311.649 -375.616)" fill="none" stroke="#2e1d0d" stroke-linecap="round" stroke-linejoin="round" stroke-width="2.5"/>
          <path id="Trazado_697823" data-name="Trazado 697823" d="M28.074,119.206s1.573-3.166,7.216-2.277a47.815,47.815,0,0,1,10.015,2.732" transform="translate(-25.232 -104.952)" fill="none" stroke="#2e1d0d" stroke-linecap="round" stroke-linejoin="round" stroke-width="1"/>
          <path id="Trazado_697824" data-name="Trazado 697824" d="M60.064,138.627a3.968,3.968,0,0,1,3.328-.64" transform="translate(-53.984 -123.919)" fill="none" stroke="#2e1d0d" stroke-linecap="round" stroke-linejoin="round" stroke-width="1"/>
          <path id="Trazado_697825" data-name="Trazado 697825" d="M252.492,422.909c4.134,3.676,8.257,6.924,9.483,9.536l.364.512c1.227-2.612,5.572-6.372,9.706-10.048,3.182-2.829,4.4-7.784,4.849-10.632-2.16-1.793-3.526-3.655-3.873-5.863-.791-5.035-1.746-9.543-1.346-16.493.231-4.005-19.981-4.005-19.75,0,.4,6.95-.555,11.458-1.346,16.493a8.964,8.964,0,0,1-3.043,5.131c.349,2.647,1.479,8.274,4.955,11.364" transform="translate(-222.481 -347.754)" fill="#91331d"/>
          <path id="Trazado_697826" data-name="Trazado 697826" d="M297.09,400.53l-5.057-13.312c-4.45.18-8.487,1.171-8.383,2.974a56.894,56.894,0,0,1-.816,13.213c8.03,3.63,14.257-2.875,14.257-2.875" transform="translate(-254.206 -348.024)" fill="#6f2a20"/>
          <path id="Trazado_697827" data-name="Trazado 697827" d="M407.558,615.9s-.451,8.679-5.1,12.814-9.312,7.734-9.822,10.49" transform="translate(-352.892 -553.56)" fill="none" stroke="#2e1d0d" stroke-linecap="round" stroke-linejoin="round" stroke-width="1"/>
          <path id="Trazado_697828" data-name="Trazado 697828" d="M260.918,638.992c-.51-2.756-5.08-6.142-9.732-10.278s-5.1-12.814-5.1-12.814" transform="translate(-221.175 -553.559)" fill="none" stroke="#2e1d0d" stroke-linecap="round" stroke-linejoin="round" stroke-width="1"/>
          <path id="Trazado_697829" data-name="Trazado 697829" d="M509.051,272.072s2.854-.052,4.813-4.505c1.863-4.235,2.09-11.247-2.08-11.411s-2.733,15.916-2.733,15.916" transform="translate(-457.31 -230.227)" fill="#91331d"/>
          <path id="Trazado_697830" data-name="Trazado 697830" d="M220.745,271.087s-2.9-.053-4.889-4.576c-1.892-4.3-1.807-11.423,2.428-11.59s2.461,16.166,2.461,16.166" transform="translate(-192.944 -229.117)" fill="#91331d"/>
          <path id="Trazado_697831" data-name="Trazado 697831" d="M244.059,194.263a14.293,14.293,0,0,0-2.835.019,58.358,58.358,0,0,0-.871,12.185c0,11.772,6.825,21.315,15.243,21.315s14.953-9.547,15.243-21.315a67.154,67.154,0,0,0-.324-10.871c-9.374.16-20.787-.833-26.456-1.333" transform="translate(-216.025 -174.545)" fill="#91331d"/>
          <path id="Trazado_697832" data-name="Trazado 697832" d="M264.961,381.177a11.455,11.455,0,0,1-5.366,1.358c-7.145,0-13.142-6.874-14.793-16.151" transform="translate(-220.023 -329.299)" fill="none" stroke="#2e1d0d" stroke-linecap="round" stroke-linejoin="round" stroke-width="1"/>
          <path id="Trazado_697833" data-name="Trazado 697833" d="M284.735,391.359c-4.841-5.491-16.2-5.471-21.015,0-.514.514-1.567.089-2.637-.6,2.649,6.3,7.542,10.526,13.145,10.526,5.57,0,10.313-4.181,12.97-10.418-1.008.62-1.977.975-2.463.489" transform="translate(-234.656 -348.051)" fill="#2e1d0d"/>
          <path id="Trazado_697834" data-name="Trazado 697834" d="M429.72,354.286c-1.159,8.678-6.079,15.5-12.3,17.048" transform="translate(-375.165 -318.426)" fill="none" stroke="#fff" stroke-linecap="round" stroke-linejoin="round" stroke-width="1"/>
          <path id="Trazado_697835" data-name="Trazado 697835" d="M219.626,205.6c.07,1.328,2.247,12.473,2.872,12.76.838.384,1.4-3.959,1.371-13.057.27-.171-3.011-.277-4.243.3" transform="translate(-197.396 -184.4)" fill="#2e1d0d"/>
          <path id="Trazado_697836" data-name="Trazado 697836" d="M525.134,213.776c-.032,6.969.436,12.21,1.282,12.24.579.02,2.948-10.805,3.018-12.35-1.374.067-2.816.1-4.3.11" transform="translate(-471.979 -192.039)" fill="#2e1d0d"/>
          <path id="Trazado_697837" data-name="Trazado 697837" d="M152.956,178.886s1.462-4.835,9.107-4.16,25.747,2.249,35.192.675a8.362,8.362,0,0,0,2.642-.739c1.587-.87,2.474-3.59-1.405-3.833-6.67-.419-17.99,1.087-31.594-.487s-17.54-.9-18.552,1.237a7.77,7.77,0,0,0,0,6.521c.9,1.911,4.61.787,4.61.787" transform="translate(-132.686 -152.323)" fill="#fcebc0"/>
          <path id="Trazado_697838" data-name="Trazado 697838" d="M200.259,224.919s1.462-4.835,9.107-4.16,25.747,2.249,35.192.675" transform="translate(-179.989 -198.356)" fill="none" stroke="#2e1d0d" stroke-linecap="round" stroke-linejoin="round" stroke-width="1"/>
          <path id="Trazado_697839" data-name="Trazado 697839" d="M341.332,419.837a5.265,5.265,0,0,0,10.044,0Z" transform="translate(-306.782 -377.342)" fill="#fff"/>
          <path id="Trazado_697840" data-name="Trazado 697840" d="M296.908,291.146c0-1.967.648-3.562,1.447-3.562s1.447,1.595,1.447,3.562" transform="translate(-266.855 -258.475)" fill="none" stroke="#2e1d0d" stroke-linecap="round" stroke-linejoin="round" stroke-width="2.5"/>
          <path id="Trazado_697841" data-name="Trazado 697841" d="M449.61,291.146c0-1.967.648-3.562,1.447-3.562s1.447,1.595,1.447,3.562" transform="translate(-404.101 -258.475)" fill="none" stroke="#2e1d0d" stroke-linecap="round" stroke-linejoin="round" stroke-width="2.5"/>
          <path id="Trazado_697842" data-name="Trazado 697842" d="M360.98,366.8a4.191,4.191,0,0,0,5.323,0" transform="translate(-324.442 -329.677)" fill="none" stroke="#2e1d0d" stroke-linecap="round" stroke-linejoin="round" stroke-width="2.5"/>
          <path id="Trazado_697843" data-name="Trazado 697843" d="M275.659,243.908l-5.07.551a.809.809,0,1,1-.217-1.6l4.892-.8a1.024,1.024,0,0,1,1.383.841c.047.648-.438.9-.987,1.012" transform="translate(-242.375 -217.515)" fill="#2e1d0d"/>
          <path id="Trazado_697844" data-name="Trazado 697844" d="M440.856,243.908l5.07.551a.809.809,0,1,0,.217-1.6l-4.892-.8a1.024,1.024,0,0,0-1.383.841c-.047.648.439.9.987,1.012" transform="translate(-395.342 -217.515)" fill="#2e1d0d"/>
        </g>
      </g>
    </g>
  </g>
</svg>
