<svg xmlns="http://www.w3.org/2000/svg" xmlns:xlink="http://www.w3.org/1999/xlink" width="168" height="133" viewBox="0 0 168 133">
  <defs>
    <clipPath id="clip-path">
      <rect id="Rectángulo_345547" data-name="Rectángulo 345547" width="168" height="133" transform="translate(-3038 -6535)" fill="none" stroke="#707070" stroke-width="1"/>
    </clipPath>
    <clipPath id="clip-path-2">
      <rect id="Rectángulo_344650" data-name="Rectángulo 344650" width="77.053" height="74.497" fill="none"/>
    </clipPath>
    <clipPath id="clip-path-4">
      <rect id="Rectángulo_344648" data-name="Rectángulo 344648" width="22.847" height="25.069" fill="none"/>
    </clipPath>
  </defs>
  <g id="Enmascarar_grupo_998560" data-name="Enmascarar grupo 998560" transform="translate(3038 6535)" clip-path="url(#clip-path)">
    <g id="Grupo_1000204" data-name="Grupo 1000204" transform="translate(-307 -1)">
      <circle id="Elipse_8295" data-name="Elipse 8295" cx="42.5" cy="42.5" r="42.5" transform="translate(-2689 -6510)" fill="#7bcaf4"/>
      <g id="Grupo_1000200" data-name="Grupo 1000200" transform="translate(-2684.527 -6503.22)">
        <g id="Grupo_998423" data-name="Grupo 998423" clip-path="url(#clip-path-2)">
          <g id="Grupo_998422" data-name="Grupo 998422">
            <g id="Grupo_998421" data-name="Grupo 998421" clip-path="url(#clip-path-2)">
              <path id="Trazado_697892" data-name="Trazado 697892" d="M78.864,170.305a.123.123,0,0,1-.114-.077l-1.892-4.606a.123.123,0,1,1,.228-.093l1.892,4.605a.123.123,0,0,1-.067.161.115.115,0,0,1-.047.01" transform="translate(-44.501 -95.808)" fill="#fce8db"/>
              <path id="Trazado_697893" data-name="Trazado 697893" d="M81.634,169.169a.123.123,0,0,1-.114-.077l-1.892-4.606a.123.123,0,0,1,.228-.094L81.748,169a.123.123,0,0,1-.067.161.122.122,0,0,1-.047.009" transform="translate(-46.105 -95.15)" fill="#fce8db"/>
              <path id="Trazado_697894" data-name="Trazado 697894" d="M84.4,168.03a.123.123,0,0,1-.114-.077L82.4,163.348a.123.123,0,0,1,.228-.094l1.892,4.606a.124.124,0,0,1-.067.161.122.122,0,0,1-.047.009" transform="translate(-47.709 -94.491)" fill="#fce8db"/>
              <path id="Trazado_697895" data-name="Trazado 697895" d="M87.175,166.893a.123.123,0,0,1-.114-.077l-1.892-4.606a.124.124,0,0,1,.229-.094l1.891,4.606a.123.123,0,0,1-.067.161.115.115,0,0,1-.047.01" transform="translate(-49.313 -93.832)" fill="#fce8db"/>
              <path id="Trazado_697896" data-name="Trazado 697896" d="M89.945,165.755a.123.123,0,0,1-.114-.077l-1.892-4.606a.123.123,0,0,1,.228-.094l1.892,4.606a.123.123,0,0,1-.067.161.115.115,0,0,1-.047.01" transform="translate(-50.917 -93.173)" fill="#fce8db"/>
              <path id="Trazado_697897" data-name="Trazado 697897" d="M92.715,164.617a.123.123,0,0,1-.114-.077l-1.892-4.606a.124.124,0,0,1,.229-.094l1.891,4.606a.124.124,0,0,1-.067.161.122.122,0,0,1-.047.009" transform="translate(-52.521 -92.514)" fill="#fce8db"/>
              <path id="Trazado_697898" data-name="Trazado 697898" d="M95.485,163.479a.123.123,0,0,1-.114-.077L93.479,158.8a.123.123,0,0,1,.228-.094l1.892,4.606a.123.123,0,0,1-.067.161.115.115,0,0,1-.047.01" transform="translate(-54.126 -91.856)" fill="#fce8db"/>
              <path id="Trazado_697899" data-name="Trazado 697899" d="M98.255,162.342a.123.123,0,0,1-.114-.077l-1.892-4.606a.124.124,0,0,1,.229-.094l1.891,4.606a.123.123,0,0,1-.067.161.115.115,0,0,1-.047.01" transform="translate(-55.73 -91.197)" fill="#fce8db"/>
              <path id="Trazado_697900" data-name="Trazado 697900" d="M100.887,161.261a.123.123,0,0,1-.114-.077l-1.892-4.606a.123.123,0,0,1,.228-.094L101,161.091a.123.123,0,0,1-.067.161.122.122,0,0,1-.047.009" transform="translate(-57.253 -90.571)" fill="#fce8db"/>
              <path id="Trazado_697901" data-name="Trazado 697901" d="M103.657,160.124a.123.123,0,0,1-.114-.077l-1.892-4.606a.123.123,0,0,1,.228-.094l1.892,4.606a.123.123,0,0,1-.067.161.122.122,0,0,1-.047.009" transform="translate(-58.858 -89.912)" fill="#fce8db"/>
              <path id="Trazado_697902" data-name="Trazado 697902" d="M106.427,158.986a.123.123,0,0,1-.114-.077l-1.892-4.606a.124.124,0,0,1,.229-.094l1.891,4.606a.124.124,0,0,1-.067.161.122.122,0,0,1-.047.009" transform="translate(-60.462 -89.254)" fill="#fce8db"/>
              <path id="Trazado_697903" data-name="Trazado 697903" d="M109.2,157.849a.123.123,0,0,1-.114-.077l-1.892-4.606a.123.123,0,0,1,.228-.094l1.892,4.606a.123.123,0,0,1-.067.161.122.122,0,0,1-.047.009" transform="translate(-62.066 -88.595)" fill="#fce8db"/>
              <path id="Trazado_697904" data-name="Trazado 697904" d="M111.967,156.71a.123.123,0,0,1-.114-.077l-1.892-4.606a.124.124,0,0,1,.229-.094l1.891,4.606a.123.123,0,0,1-.067.161.115.115,0,0,1-.047.01" transform="translate(-63.67 -87.936)" fill="#fce8db"/>
              <path id="Trazado_697905" data-name="Trazado 697905" d="M114.737,155.573a.123.123,0,0,1-.114-.077l-1.892-4.606a.123.123,0,0,1,.228-.094l1.892,4.606a.123.123,0,0,1-.067.161.122.122,0,0,1-.047.009" transform="translate(-65.274 -87.277)" fill="#fce8db"/>
              <path id="Trazado_697906" data-name="Trazado 697906" d="M117.507,154.435a.123.123,0,0,1-.114-.077l-1.892-4.606a.124.124,0,0,1,.229-.094l1.891,4.606a.123.123,0,0,1-.067.161.122.122,0,0,1-.047.009" transform="translate(-66.878 -86.618)" fill="#fce8db"/>
              <path id="Trazado_697907" data-name="Trazado 697907" d="M120.277,153.3a.123.123,0,0,1-.114-.077l-1.892-4.606a.123.123,0,0,1,.228-.093l1.892,4.605a.123.123,0,0,1-.067.161.115.115,0,0,1-.047.01" transform="translate(-68.482 -85.96)" fill="#fce8db"/>
              <path id="Trazado_697908" data-name="Trazado 697908" d="M122.909,152.217a.123.123,0,0,1-.114-.077l-1.892-4.606a.123.123,0,0,1,.228-.094l1.892,4.606a.123.123,0,0,1-.067.161.115.115,0,0,1-.047.01" transform="translate(-70.006 -85.334)" fill="#fce8db"/>
              <path id="Trazado_697909" data-name="Trazado 697909" d="M125.679,151.08a.123.123,0,0,1-.114-.077l-1.892-4.606a.123.123,0,0,1,.067-.161.124.124,0,0,1,.162.067l1.891,4.606a.123.123,0,0,1-.067.161.12.12,0,0,1-.046.009" transform="translate(-71.61 -84.675)" fill="#fce8db"/>
              <path id="Trazado_697910" data-name="Trazado 697910" d="M128.449,149.941a.123.123,0,0,1-.114-.077l-1.892-4.606a.123.123,0,0,1,.228-.094l1.892,4.606a.123.123,0,0,1-.067.161.115.115,0,0,1-.047.01" transform="translate(-73.214 -84.016)" fill="#fce8db"/>
              <path id="Trazado_697911" data-name="Trazado 697911" d="M131.219,148.8a.123.123,0,0,1-.114-.077l-1.892-4.606a.124.124,0,0,1,.229-.094l1.891,4.606a.123.123,0,0,1-.067.161.122.122,0,0,1-.047.009" transform="translate(-74.818 -83.358)" fill="#fce8db"/>
              <path id="Trazado_697912" data-name="Trazado 697912" d="M133.989,147.666a.123.123,0,0,1-.114-.077l-1.892-4.605a.123.123,0,1,1,.228-.094L134.1,147.5a.123.123,0,0,1-.067.161.122.122,0,0,1-.047.009" transform="translate(-76.422 -82.699)" fill="#fce8db"/>
              <path id="Trazado_697913" data-name="Trazado 697913" d="M136.759,146.529a.123.123,0,0,1-.114-.077l-1.892-4.606a.123.123,0,1,1,.228-.093l1.892,4.605a.123.123,0,0,1-.067.161.122.122,0,0,1-.047.009" transform="translate(-78.026 -82.04)" fill="#fce8db"/>
              <path id="Trazado_697914" data-name="Trazado 697914" d="M139.529,145.39a.123.123,0,0,1-.114-.077l-1.892-4.606a.123.123,0,0,1,.228-.093l1.892,4.605a.124.124,0,0,1-.067.161.122.122,0,0,1-.047.009" transform="translate(-79.63 -81.381)" fill="#fce8db"/>
              <path id="Trazado_697915" data-name="Trazado 697915" d="M142.3,144.254a.123.123,0,0,1-.114-.077l-1.892-4.606a.124.124,0,0,1,.229-.094l1.891,4.606a.123.123,0,0,1-.067.161.122.122,0,0,1-.047.009" transform="translate(-81.234 -80.723)" fill="#fce8db"/>
              <path id="Trazado_697916" data-name="Trazado 697916" d="M144.93,143.172a.122.122,0,0,1-.114-.077l-1.892-4.606a.123.123,0,0,1,.228-.094L145.044,143a.122.122,0,0,1-.067.161.113.113,0,0,1-.047.01" transform="translate(-82.758 -80.096)" fill="#fce8db"/>
              <path id="Trazado_697917" data-name="Trazado 697917" d="M147.562,142.092a.123.123,0,0,1-.114-.077l-1.892-4.606a.123.123,0,0,1,.228-.094l1.892,4.606a.123.123,0,0,1-.067.161.115.115,0,0,1-.047.01" transform="translate(-84.282 -79.471)" fill="#fce8db"/>
              <path id="Trazado_697918" data-name="Trazado 697918" d="M150.194,141.011a.123.123,0,0,1-.114-.077l-1.892-4.606a.123.123,0,1,1,.228-.093l1.892,4.605a.123.123,0,0,1-.067.161.122.122,0,0,1-.047.009" transform="translate(-85.806 -78.845)" fill="#fce8db"/>
              <path id="Trazado_697919" data-name="Trazado 697919" d="M152.825,139.931a.123.123,0,0,1-.114-.077l-1.892-4.606a.124.124,0,0,1,.229-.094l1.891,4.606a.123.123,0,0,1-.067.161.115.115,0,0,1-.047.01" transform="translate(-87.329 -78.219)" fill="#fce8db"/>
              <path id="Trazado_697920" data-name="Trazado 697920" d="M51.284,4.366,73.12,57.534,37.361,72.22,12.939,12.755,42.948.43A5.7,5.7,0,0,1,45.313,0a6.844,6.844,0,0,1,5.971,4.363" transform="translate(-7.493 0)" fill="#fff"/>
              <path id="Trazado_697921" data-name="Trazado 697921" d="M39.916,88.719l-2.555,1.049L12.938,30.3Z" transform="translate(-7.492 -17.548)" fill="#f9a99e"/>
              <rect id="Rectángulo_344646" data-name="Rectángulo 344646" width="2.394" height="64.285" transform="matrix(0.925, -0.38, 0.38, 0.925, 31.021, 2.251)" fill="#ffb929"/>
              <rect id="Rectángulo_344647" data-name="Rectángulo 344647" width="2.394" height="64.285" transform="translate(33.236 1.342) rotate(-22.328)" fill="#475ecf"/>
              <path id="Trazado_697922" data-name="Trazado 697922" d="M86.54,0l24.231,59-2.215.91L84.134.446,84.175.43A5.7,5.7,0,0,1,86.54,0" transform="translate(-48.719 0)" fill="#fb5226"/>
              <path id="Trazado_697923" data-name="Trazado 697923" d="M98.8,51.743C77.751,51.856,75.23,34.169,77.414,24.81c1.856-7.953,6.567-9.926,7.934-10.335.133-.043.235-.068.3-.083a.142.142,0,0,1,.036-.006c.029-.005.047-.011.047-.011a11.982,11.982,0,0,1,10.243-6.9c5.42-.306,8.3,1.748,9.647,3.221a.526.526,0,0,1,.064.073s.008.007.008.011a5.966,5.966,0,0,1,.937,1.331l.2-.013c.11-.008.22-.011.33-.015,6.934-.24,10.438,6.193,11.827,11.782,1.424,5.731.853,27.761-20.192,27.878" transform="translate(-44.456 -4.311)" fill="#fce8db"/>
              <g id="Grupo_998420" data-name="Grupo 998420" transform="translate(40.782 3.134)" opacity="0.34">
                <g id="Grupo_998419" data-name="Grupo 998419">
                  <g id="Grupo_998418" data-name="Grupo 998418" clip-path="url(#clip-path-4)">
                    <path id="Trazado_697924" data-name="Trazado 697924" d="M119.693,17.718c.525,7.732-4.145,14.348-10.433,14.776S97.452,27,96.926,19.265a16.833,16.833,0,0,1,.368-4.873l.083-.017a11.983,11.983,0,0,1,10.243-6.9c8.332-.471,10.655,4.636,10.655,4.636l.056,0a16.749,16.749,0,0,1,1.36,5.61" transform="translate(-96.886 -7.446)" fill="#ffd878"/>
                  </g>
                </g>
              </g>
              <path id="Trazado_697925" data-name="Trazado 697925" d="M119.683,34.665c-.833,3.337-3.638,11.03-11.795,11.584-.191.013-.385.022-.584.025-4.178.111-7.681-1.709-10.418-5.41a17.745,17.745,0,0,1-3.3-8.585,18.151,18.151,0,0,1-.118-2.33,25.148,25.148,0,0,1,1.546-9.095l.336-.089a24.056,24.056,0,0,0-1.61,9.188,19.151,19.151,0,0,0,.115,2.293A17.5,17.5,0,0,0,97.111,40.7c2.676,3.625,6.1,5.405,10.19,5.3.191-.006.378-.015.565-.028,7.985-.543,10.729-8.1,11.547-11.379a17.447,17.447,0,0,0,.243-7.258c-.023-.124-.038-.229-.06-.335-.438-2.271-1.375-6.043-3.1-8.525.11-.007.22-.011.33-.015a24.267,24.267,0,0,1,3.036,8.485c.022.109.04.218.059.327a17.809,17.809,0,0,1-.241,7.39" transform="translate(-54.123 -10.691)" fill="#37004d"/>
              <path id="Trazado_697926" data-name="Trazado 697926" d="M109.478,60.241C96.245,61.995,94.34,48.706,94.071,44.421a17.579,17.579,0,0,0,3.278,8.52,12.11,12.11,0,0,0,10.3,5.355c7.548-.193,10.978-6.43,12.246-11.508a17.723,17.723,0,0,0,.242-7.317l.08-.013S125,58.185,109.478,60.241" transform="translate(-54.473 -22.849)" fill="#37004d"/>
              <path id="Trazado_697927" data-name="Trazado 697927" d="M32.753,97.326c-3.507,0-7-1.278-10.32-2.638-5.9-2.414-12.619-5.416-17.581-10.512a17.515,17.515,0,0,1-4.2-6.4,10.445,10.445,0,0,1,.171-7.729A16.5,16.5,0,0,1,4.37,65.517c.5-.508,1.025-1.034,1.5-1.567a40.254,40.254,0,0,0,4.039-5.784,53.174,53.174,0,0,1,3.13-4.708c3.262-4.222,7.512-6.429,11.365-5.9l-.17,1.251c-3.4-.463-7.213,1.565-10.2,5.425a52.3,52.3,0,0,0-3.054,4.6,41.208,41.208,0,0,1-4.172,5.963c-.5.557-1.03,1.095-1.545,1.615a15.346,15.346,0,0,0-3.295,4.172,9.176,9.176,0,0,0-.125,6.784A16.284,16.284,0,0,0,5.757,83.3c4.792,4.922,11.367,7.858,17.154,10.224C27.029,95.2,31.4,96.761,35.574,95.73c3.6-.889,6.527-3.663,8.67-5.98A62.479,62.479,0,0,0,55.28,73.141l1.15.522A63.746,63.746,0,0,1,45.171,90.608c-2.263,2.446-5.364,5.379-9.295,6.349a12.977,12.977,0,0,1-3.124.37" transform="translate(0 -27.493)" fill="#37004d"/>
              <path id="Trazado_697928" data-name="Trazado 697928" d="M130.144,105.893s2.359-3.037.665-4.289-3.41.625-3.41.625Z" transform="translate(-73.773 -58.586)" fill="#ffb929"/>
              <path id="Trazado_697929" data-name="Trazado 697929" d="M40.673,48.672S24.471,63.4,30.058,72.527s20.913,18.646,27.848,14.56c8.178-4.819,14.141-14.195,14.141-14.195Z" transform="translate(-16.727 -28.184)" fill="#37004d"/>
              <path id="Trazado_697930" data-name="Trazado 697930" d="M77.221,78.612c-.832,1.415-2.321,3.41-2.538,3.712l0,.008c-.046.061-.09.128-.136.188-.2.285-.4.563-.6.839-.113.158-.226.316-.343.472-.157.216-.314.431-.474.644a31.621,31.621,0,0,1-4.7,5.173,17.1,17.1,0,0,1-4.507,3.007c-.13.055-.258.106-.392.15a7.77,7.77,0,0,1-2.02.438,15.341,15.341,0,0,1-5.88-.881,33.794,33.794,0,0,1-6.049-2.688c-.136-.075-.267-.153-.4-.23a37.8,37.8,0,0,1-5.707-4.061c-.114-.1-.224-.191-.333-.29a32.625,32.625,0,0,1-6.278-7.352,9,9,0,0,1-.894-6.789c.031-.143.065-.284.1-.425.889-3.578,3.218-7.242,5.54-10.216.12-.154.241-.308.365-.459.312-.387.62-.767.925-1.125.037-.047.08-.095.118-.141l.14-.162c.152-.184.306-.362.456-.532l.59-.659c.6-.674,1.163-1.263,1.643-1.752.08-.085.159-.161.234-.238l.217-.219c.729-.728,1.183-1.139,1.183-1.139L77.729,77.19c.168.129-.085.7-.508,1.421" transform="translate(-20.669 -31.202)" fill="#fb5226"/>
              <path id="Trazado_697931" data-name="Trazado 697931" d="M57.585,117.056s-4.991,2.1-6.259,5.725a14.957,14.957,0,0,0-.117,7.8,11.155,11.155,0,0,0,6.7-3.838,15.962,15.962,0,0,0,3.236-7.264Z" transform="translate(-29.376 -67.783)" fill="#37004d"/>
              <path id="Trazado_697932" data-name="Trazado 697932" d="M58.324,118.2s-4.458,1.88-5.59,5.113a13.353,13.353,0,0,0-.1,6.964,9.962,9.962,0,0,0,5.987-3.428,14.251,14.251,0,0,0,2.89-6.487Z" transform="translate(-30.229 -68.447)" fill="#fb5226"/>
              <path id="Trazado_697933" data-name="Trazado 697933" d="M85.362,80.178c-.832,1.415-2.321,3.41-2.538,3.712l0,.008c-.046.061-.09.128-.136.188-.2.285-.4.563-.6.839-.113.158-.226.316-.343.472-.157.216-.314.431-.474.644L49.752,61.876c.12-.154.241-.308.365-.459.312-.387.62-.767.925-1.125.037-.047.08-.095.118-.141l.14-.162c.152-.184.306-.362.456-.532l.59-.659c.6-.674,1.163-1.263,1.643-1.752.08-.085.159-.161.234-.238l.217-.219Z" transform="translate(-28.81 -32.769)" fill="#37004d"/>
              <path id="Trazado_697934" data-name="Trazado 697934" d="M50.579,101.982l-.4-.117a3.675,3.675,0,0,0,.09-.367,4.861,4.861,0,0,0-1.012-4.036c-1.115-1.339-2.965-2.121-5.657-2.383-.555-.054-1.126-.089-1.677-.126A17.184,17.184,0,0,1,37.16,94.2a5.264,5.264,0,0,1-.807-.355c.031-.143.066-.284.1-.425a4.823,4.823,0,0,0,.848.384,16.975,16.975,0,0,0,4.646.728c.556.036,1.127.07,1.689.129,2.808.272,4.75,1.1,5.938,2.53a5.285,5.285,0,0,1,1.062,4.57c-.015.075-.039.148-.057.221" transform="translate(-21.051 -54.096)" fill="#37004d"/>
              <path id="Trazado_697935" data-name="Trazado 697935" d="M87.87,128.748c-.13.055-.258.106-.392.15a11.932,11.932,0,0,1-.492-1.186,16.785,16.785,0,0,1-.836-3.39c-.056-.459-.1-.93-.138-1.387a8.878,8.878,0,0,0-.985-4.055,5.116,5.116,0,0,0-3.367-2.188,8.162,8.162,0,0,0-3.986.753c-.163.06-.322.122-.473.18l-.15-.391c.076-.029.146-.056.224-.088a9.053,9.053,0,0,1,4.464-.866,5.468,5.468,0,0,1,3.646,2.377,9.244,9.244,0,0,1,1.049,4.245c.036.452.077.921.136,1.367a16.147,16.147,0,0,0,.814,3.3,12.2,12.2,0,0,0,.487,1.178" transform="translate(-44.618 -67.296)" fill="#37004d"/>
              <path id="Trazado_697936" data-name="Trazado 697936" d="M66.181,112.1l3.938,2.8a.848.848,0,0,1,.221,1.151l-.545.842a.848.848,0,0,1-1.194.237L64.512,114.3a.847.847,0,0,1-.161-1.248l.7-.812a.847.847,0,0,1,1.134-.139" transform="translate(-37.145 -64.823)" fill="#37004d"/>
              <path id="Trazado_697937" data-name="Trazado 697937" d="M81.742,92.039c-.157.216-.314.431-.474.644L49.752,68.517c.12-.154.24-.308.365-.459Z" transform="translate(-28.81 -39.41)" fill="#ffb929"/>
              <path id="Trazado_697938" data-name="Trazado 697938" d="M84.76,88.567l0,.007c-.046.061-.09.128-.136.189a2.566,2.566,0,0,0-.941-1.138,8.267,8.267,0,0,0-1.1-.6,6.9,6.9,0,0,1-1.309-.74,3.6,3.6,0,0,1-1.391-2.8,3.57,3.57,0,0,1-3.721-.778,6.861,6.861,0,0,1-.95-1.32,10.5,10.5,0,0,0-.614-.931A2.149,2.149,0,0,0,72.36,79.5l-.118.043-.023-.126a2.508,2.508,0,0,0-1.389-1.629,9.958,9.958,0,0,0-.982-.439,9.328,9.328,0,0,1-1.133-.524,4.817,4.817,0,0,1-2.257-3.072,2.578,2.578,0,0,1-2.632-.926,10.9,10.9,0,0,1-.8-1.034,7.84,7.84,0,0,0-1.04-1.276,3.757,3.757,0,0,0-2.739-.95l-.1.006-.016-.1a3.05,3.05,0,0,0-1.71-2.136,13.166,13.166,0,0,0-1.345-.62,12.817,12.817,0,0,1-1.339-.606A6.649,6.649,0,0,1,53.1,64.827l.14-.162a6.51,6.51,0,0,0,1.615,1.264,12.469,12.469,0,0,0,1.309.6,12.636,12.636,0,0,1,1.375.627,3.334,3.334,0,0,1,1.8,2.2,3.963,3.963,0,0,1,2.8,1.009A7.894,7.894,0,0,1,63.2,71.671a10.891,10.891,0,0,0,.783,1.016,2.315,2.315,0,0,0,2.508.828l.123-.059.025.132a4.584,4.584,0,0,0,2.183,3.057,9.826,9.826,0,0,0,1.108.508,9.358,9.358,0,0,1,1,.45A2.8,2.8,0,0,1,72.4,79.262a2.419,2.419,0,0,1,2.355,1.07,9.593,9.593,0,0,1,.628.948,6.745,6.745,0,0,0,.918,1.276,3.338,3.338,0,0,0,3.636.674l.16-.072-.008.171A3.381,3.381,0,0,0,81.4,86.117a6.711,6.711,0,0,0,1.268.716,8.73,8.73,0,0,1,1.134.612,2.861,2.861,0,0,1,.961,1.121" transform="translate(-30.746 -37.445)" fill="#ffb929"/>
              <path id="Trazado_697939" data-name="Trazado 697939" d="M52.927,48.523s1.526-3.53,3.439-2.648,1.094,3.289,1.094,3.289Z" transform="translate(-30.648 -26.482)" fill="#ffb929"/>
              <path id="Trazado_697940" data-name="Trazado 697940" d="M10.848,62.885l-1.322.635a2.156,2.156,0,0,0-1.011,1.011L7.88,65.853a.193.193,0,0,1-.348,0L6.9,64.531A2.156,2.156,0,0,0,5.886,63.52l-1.322-.635a.193.193,0,0,1,0-.348L5.886,61.9A2.16,2.16,0,0,0,6.9,60.891l.635-1.322a.193.193,0,0,1,.348,0l.635,1.322A2.16,2.16,0,0,0,9.526,61.9l1.322.635a.193.193,0,0,1,0,.348" transform="translate(-2.58 -34.431)" fill="#fff"/>
              <path id="Trazado_697941" data-name="Trazado 697941" d="M149.742,159.906l-1.323.635a2.155,2.155,0,0,0-1.011,1.011l-.635,1.322a.193.193,0,0,1-.348,0l-.635-1.322a2.161,2.161,0,0,0-1.011-1.011l-1.322-.635a.193.193,0,0,1,0-.348l1.322-.635a2.165,2.165,0,0,0,1.011-1.011l.635-1.322a.193.193,0,0,1,.348,0l.635,1.322a2.159,2.159,0,0,0,1.011,1.011l1.323.635a.193.193,0,0,1,0,.348" transform="translate(-83.009 -90.613)" fill="#fff"/>
              <path id="Trazado_697942" data-name="Trazado 697942" d="M174,72.587l-1.322.635a2.156,2.156,0,0,0-1.011,1.011l-.635,1.322a.193.193,0,0,1-.348,0l-.635-1.322a2.158,2.158,0,0,0-1.011-1.011l-1.322-.635a.193.193,0,0,1,0-.348l1.322-.635a2.162,2.162,0,0,0,1.011-1.011l.635-1.322a.193.193,0,0,1,.348,0l.635,1.322a2.16,2.16,0,0,0,1.011,1.011l1.322.635a.193.193,0,0,1,0,.348" transform="translate(-97.054 -40.049)" fill="#fff"/>
            </g>
          </g>
        </g>
      </g>
    </g>
  </g>
</svg>
