<?xml version="1.0" encoding="utf-8"?>
<!-- Generator: Adobe Illustrator 27.4.0, SVG Export Plug-In . SVG Version: 6.00 Build 0)  -->
<svg version="1.1" id="Capa_1" xmlns="http://www.w3.org/2000/svg" xmlns:xlink="http://www.w3.org/1999/xlink" x="0px" y="0px"
	 viewBox="0 0 61.53 61.53" style="enable-background:new 0 0 61.53 61.53;" xml:space="preserve">
<style type="text/css">
	.st0{fill:#4DB1F0;}
	.st1{fill:#F3D8BE;}
	.st2{fill:none;}
</style>
<g>
	<g>
		<circle class="st0" cx="30.77" cy="35.41" r="23.73"/>
		<g>
			<path d="M40.71,50.87c0.05,0.11,0.04,0.21-0.01,0.3c0.04,0.17-0.02,0.36-0.23,0.43c-4.64,1.58-9.71,1.48-14.18-0.59
				c-0.09-0.04-0.14-0.12-0.15-0.2c-0.14-0.07-0.25-0.22-0.21-0.41c1.07-4.59-4.94-9.15-7.33-12.67c-1.29-1.9-3.18-4.2-3.05-6.6
				c-0.03-0.04-0.05-0.09-0.04-0.15c0.03-0.25,0.1-0.48,0.18-0.7c0.01-0.06,0.02-0.12,0.04-0.17c0.01-0.02,0.03-0.04,0.04-0.05
				c0.61-1.34,2.06-1.91,3.44-1.63c-1.03-1.05-0.99-3.04-0.06-4.13c0.76-0.89,2.14-1.24,3.21-0.8c-3.3-3.66-6.15-7.78-8.82-11.91
				c-1.19-1.85-3.45-4.87-0.67-6.33c0.05-0.03,0.11-0.03,0.15-0.01c3.3-1.64,10.54,8.9,11.87,10.64c0.33-1.23,1.17-2.97,2.27-3.57
				c-0.29-2.32-0.65-5.07-0.27-7.38c0.23-1.43,1.09-2.64,2.66-2.53c0.13,0.01,0.21,0.13,0.22,0.24c2,0.27,2.22,3.12,2.52,5.05
				c0.76,4.81,1.96,9.07,3.71,13.62c1.5,3.91,2.84,7.84,2.85,12.07C38.87,39.62,38.05,44.92,40.71,50.87z M37.76,40.54
				c0.05-4.43,0.77-8.56-0.35-12.95c-0.12-0.47-0.25-0.94-0.39-1.4c-1-3.29-2.45-6.42-3.55-9.67c-0.65-1.93-1.15-3.88-1.47-5.89
				c-0.27-1.73-0.23-7.43-2.99-7.59c-2.41,1.17-1.43,6.67-1.47,9.12c0.5-0.14,1.06-0.05,1.64,0.43c0.06,0.06,0.04,0.14-0.01,0.19
				c0.46,0.52,0.57,0.9,0.65,1.73c0.09,0.92-0.19,1.86-0.09,2.78c0.23,2.09,1.04,3.16,2.31,4.56c1.44,1.58,2.93,2.86,3.56,4.76
				c0.14,0.44,0.24,0.91,0.29,1.43c0.03,0.3-0.48,0.37-0.52,0.07c-0.5-3.33-3.3-4.81-5.07-7.36c-1.78-2.58-0.18-5.53-1.62-8.08
				c-0.01-0.01,0-0.03-0.01-0.04c-2.01-0.88-3.12,3.3-3.26,4.19c-0.19,1.21-0.14,2.36,0.14,3.56c0.52,2.24,1.72,4.17,2.92,6.08
				c0.05,0.09,0,0.18-0.08,0.22c-0.05,0.02-0.11,0.01-0.15-0.04c-2.31-2.8-4.12-6.36-3.49-10.08c-0.09,0.02-0.19,0-0.27-0.1
				c-1.56-1.95-3.12-3.92-4.76-5.79c-0.86-0.99-1.76-1.97-2.68-2.91c-0.36-0.36-0.71-0.76-1.1-1.09c-0.81-0.65-2.21-1.24-3.2-0.59
				c-1.83,3.5,8.6,15.31,10.22,17.55c0.06,0.09,0.02,0.18-0.05,0.24c0.1,0.09,0.21,0.17,0.3,0.27c0.05,0.06,0.05,0.14,0.02,0.21
				c1.3,1.14,2.45,2.5,3.31,4c0.48-0.65,1.14-1.23,1.89-1.58c0.2-0.09,0.41-0.17,0.62-0.23c0.28-0.07,0.48,0.37,0.2,0.49
				c-0.98,0.43-1.79,0.89-2.53,1.68c0.21,0.39,0.4,0.78,0.55,1.18c0.38,0.97,1.37,3.54,0.27,4.35c-0.04,0.02-0.06,0.04-0.09,0.04
				c-0.55,0.72-1.63,0.92-2.47,0.58c0.07,0.44,0.03,0.89-0.17,1.32c0.09,0.06,0.13,0.17,0.06,0.27c-2.04,2.97-5.09-1.99-6.66-2.79
				c-0.2-0.1-0.02-0.37,0.17-0.3c1.13,0.48,2.35,2.22,3.62,3.03c-0.4-0.61-0.48-1.41-0.03-2.06c0.51-0.73,1.57-0.83,2.17-0.19
				c-0.6-1.19-1.82-2.25-2.61-3.14c-0.53-0.6-1.07-1.36-1.81-1.74c-1.69-0.89-3.12,0.11-3.74,1.56c0.14,4.5,5.27,9.45,7.97,12.52
				c1.89,2.16,3.32,4.23,2.71,7.16c4.45,1.63,8.8,1.92,13.36,0.53C38.54,47.66,37.71,44.2,37.76,40.54z M27.46,33.53
				c0.26-0.57,0.12-1.42-0.19-2.32c-0.46-1.33-1.29-2.73-1.68-3.34c-0.86-1.32-1.94-2.47-2.94-3.68c-0.97-0.5-2.21-0.4-2.98,0.46
				c-1.06,1.19-0.47,2.61,0.06,3.85c0.01,0.02,0.01,0.04,0.01,0.07c0.43,0.16,0.84,0.4,1.2,0.73c1.25,1.16,2.61,2.72,3.51,4.17
				c0.18,0.3,0.32,0.6,0.42,0.91c0.02,0,0.04-0.01,0.05,0c0.25,0.13,0.5,0.18,0.76,0.18c-1.07-0.73-1.83-2.1-1.06-3.34
				c0.58-0.93,2.12-1.1,2.63-0.01c0.09,0.19-0.17,0.36-0.3,0.17c-0.7-1.09-2.08-0.39-2.19,0.73c-0.09,0.99,0.61,1.77,1.31,2.38
				c0.45-0.12,0.86-0.43,1.14-0.86C27.29,33.55,27.37,33.52,27.46,33.53z M24.37,36.3c0.23-0.68,0.15-1.33-0.12-1.95
				c-0.04,0.07-0.14,0.12-0.21,0.04c-0.59-0.66-1.55-0.42-1.86,0.38c-0.28,0.71,0.05,1.35,0.5,1.89
				C23.23,36.84,23.8,36.79,24.37,36.3z"/>
			<path class="st1" d="M37.41,27.59c1.12,4.39,0.4,8.52,0.35,12.95c-0.04,3.66,0.78,7.12,2.27,10.45
				c-4.56,1.4-8.91,1.11-13.36-0.53c0.61-2.93-0.81-5-2.71-7.16c-2.7-3.07-7.83-8.02-7.97-12.52c0.61-1.45,2.04-2.45,3.74-1.56
				c0.73,0.38,1.27,1.14,1.81,1.74c0.79,0.9,2.01,1.95,2.61,3.14c-0.6-0.65-1.66-0.54-2.17,0.19c-0.45,0.65-0.37,1.45,0.03,2.06
				c-1.27-0.81-2.49-2.55-3.62-3.03c-0.19-0.08-0.37,0.19-0.17,0.3c1.58,0.8,4.62,5.76,6.66,2.79c0.07-0.1,0.03-0.21-0.06-0.27
				c0.19-0.43,0.24-0.88,0.17-1.32c0.83,0.34,1.91,0.14,2.47-0.58c0.03-0.01,0.06-0.02,0.09-0.04c1.11-0.81,0.12-3.38-0.27-4.35
				c-0.16-0.4-0.35-0.79-0.55-1.18c0.74-0.78,1.55-1.24,2.53-1.68c0.28-0.12,0.08-0.56-0.2-0.49c-0.21,0.06-0.42,0.14-0.62,0.23
				l-0.04-0.08c0.08-0.04,0.13-0.13,0.08-0.22c-1.2-1.91-2.4-3.84-2.92-6.08c-0.28-1.2-0.34-2.35-0.14-3.56
				c0.14-0.89,1.25-5.07,3.26-4.19c0.01,0.01,0,0.03,0.01,0.04c1.44,2.55-0.17,5.51,1.62,8.08c1.76,2.55,4.56,4.04,5.07,7.36
				c0.04,0.3,0.55,0.23,0.52-0.07c-0.04-0.52-0.14-0.99-0.29-1.43l1.41-0.4C37.15,26.65,37.28,27.12,37.41,27.59z"/>
			<path class="st1" d="M37.02,26.19l-1.41,0.4c-0.63-1.89-2.12-3.18-3.56-4.76c-1.27-1.4-2.08-2.46-2.31-4.56
				c-0.1-0.91,0.17-1.86,0.09-2.78c-0.08-0.83-0.19-1.22-0.65-1.73c0.05-0.05,0.07-0.13,0.01-0.19c-0.58-0.48-1.14-0.58-1.64-0.43
				c0.04-2.45-0.94-7.95,1.47-9.12c2.76,0.17,2.71,5.86,2.99,7.59c0.32,2.01,0.82,3.97,1.47,5.89
				C34.57,19.77,36.02,22.9,37.02,26.19z"/>
			<path class="st1" d="M28.41,26.65l0.04,0.08c-0.75,0.35-1.41,0.94-1.89,1.58c-0.86-1.5-2.02-2.86-3.31-4
				c0.03-0.06,0.03-0.14-0.02-0.21c-0.09-0.1-0.19-0.18-0.3-0.27c0.07-0.06,0.12-0.15,0.05-0.24C21.36,21.37,10.93,9.55,12.76,6.06
				c0.99-0.65,2.4-0.06,3.2,0.59c0.39,0.32,0.74,0.73,1.1,1.09c0.92,0.94,1.81,1.92,2.68,2.91c1.64,1.88,3.2,3.84,4.76,5.79
				c0.08,0.1,0.18,0.12,0.27,0.1c-0.63,3.71,1.18,7.28,3.49,10.08C28.3,26.67,28.36,26.67,28.41,26.65z"/>
			<path class="st1" d="M27.27,31.22c0.3,0.89,0.45,1.75,0.19,2.32c-0.09-0.01-0.17,0.01-0.24,0.12c-0.27,0.43-0.68,0.74-1.14,0.86
				c-0.7-0.61-1.4-1.39-1.31-2.38c0.11-1.12,1.49-1.82,2.19-0.73c0.12,0.19,0.38,0.02,0.3-0.17L27.27,31.22z"/>
			<path class="st1" d="M27.27,31.22l-0.01,0.01c-0.51-1.09-2.06-0.92-2.63,0.01c-0.77,1.24-0.01,2.61,1.06,3.34
				c-0.25,0-0.5-0.05-0.76-0.18c-0.01-0.01-0.03,0-0.05,0c-0.1-0.31-0.24-0.61-0.42-0.91c-0.91-1.45-2.26-3.02-3.51-4.17
				c-0.36-0.33-0.77-0.57-1.2-0.73c0-0.03,0.01-0.05-0.01-0.07c-0.53-1.24-1.12-2.66-0.06-3.85c0.77-0.86,2.01-0.96,2.98-0.46
				c1,1.22,2.08,2.37,2.94,3.68C25.98,28.48,26.81,29.88,27.27,31.22z"/>
			<path class="st1" d="M24.26,34.35c0.27,0.62,0.35,1.27,0.12,1.95c-0.58,0.48-1.14,0.54-1.69,0.36c-0.45-0.53-0.78-1.18-0.5-1.89
				c0.32-0.81,1.27-1.04,1.86-0.38C24.11,34.47,24.22,34.43,24.26,34.35z"/>
		</g>
	</g>
	<rect class="st2" width="61.53" height="61.53"/>
</g>
</svg>
