<svg xmlns="http://www.w3.org/2000/svg" xmlns:xlink="http://www.w3.org/1999/xlink" width="98.955" height="99.541" viewBox="0 0 98.955 99.541">
  <defs>
    <radialGradient id="radial-gradient" cx="0.076" cy="0.019" r="1.465" gradientTransform="translate(0.001)" gradientUnits="objectBoundingBox">
      <stop offset="0" stop-color="#f6f6f7"/>
      <stop offset="0.477" stop-color="#f9f9fa"/>
      <stop offset="0.715" stop-color="#fff"/>
    </radialGradient>
    <filter id="Trazado_40937" x="0" y="0.684" width="98.955" height="98.856" filterUnits="userSpaceOnUse">
      <feOffset dy="7" input="SourceAlpha"/>
      <feGaussianBlur stdDeviation="2.5" result="blur"/>
      <feFlood flood-opacity="0.102"/>
      <feComposite operator="in" in2="blur"/>
      <feComposite in="SourceGraphic"/>
    </filter>
    <clipPath id="clip-path">
      <rect id="Rectángulo_345511" data-name="Rectángulo 345511" width="37.151" height="32.538" fill="none"/>
    </clipPath>
  </defs>
  <g id="Grupo_1000139" data-name="Grupo 1000139" transform="translate(6280.414 3091.376)">
    <g id="Grupo_1000136" data-name="Grupo 1000136" transform="translate(-6274 -3091.376)">
      <g id="Grupo_18423" data-name="Grupo 18423" transform="translate(0 0)">
        <g id="Grupo_18421" data-name="Grupo 18421">
          <g id="Grupo_18420" data-name="Grupo 18420">
            <g id="Grupo_18419" data-name="Grupo 18419">
              <path id="Trazado_40936" data-name="Trazado 40936" d="M279.664,2188.24a42.521,42.521,0,1,1-42.52-42.519A42.52,42.52,0,0,1,279.664,2188.24Z" transform="translate(-194.623 -2145.721)" fill="#fff"/>
            </g>
          </g>
        </g>
        <g transform="matrix(1, 0, 0, 1, -6.41, 0)" filter="url(#Trazado_40937)">
          <path id="Trazado_40937-2" data-name="Trazado 40937" d="M279.432,2187.987a42.52,42.52,0,1,0-42.52,42.521A42.352,42.352,0,0,0,279.432,2187.987Z" transform="translate(-187.98 -2145.47)" fill="url(#radial-gradient)"/>
        </g>
        <path id="Trazado_40938" data-name="Trazado 40938" d="M267.371,2186.006a32.456,32.456,0,1,0-32.456,32.456A32.336,32.336,0,0,0,267.371,2186.006Z" transform="translate(-192.266 -2143.346)" fill="none" stroke="#ff9e1e" stroke-miterlimit="10" stroke-width="4"/>
        <g id="Grupo_18422" data-name="Grupo 18422" transform="translate(7.533 23.872)">
          <path id="Trazado_40939" data-name="Trazado 40939" d="M273.754,2164.488a42.526,42.526,0,0,1-73.209,42.344,42.391,42.391,0,0,0,73.209-42.344Z" transform="translate(-200.545 -2164.488)" fill="#eceef0"/>
        </g>
      </g>
    </g>
    <g id="Grupo_1000137" data-name="Grupo 1000137" transform="translate(-6250.055 -3065.125)">
      <g id="Grupo_1000117" data-name="Grupo 1000117" clip-path="url(#clip-path)">
        <path id="Trazado_705178" data-name="Trazado 705178" d="M37.149,18.582q0,5.17,0,10.34,0,3.586-3.577,3.593c-4.51.006-9.02-.025-13.529.023-1.011.011-1.472-.328-1.613-1.318-.118-.829-.452-1.629-.558-2.459-.1-.776-.481-.916-1.173-.912-4.29.024-8.58.014-12.87.012C1.11,27.86,0,26.765,0,24.083Q0,13.908,0,3.734C0,1.195,1.165.022,3.683.021,8.156.018,12.63.045,17.1,0c1.008-.01,1.473.339,1.617,1.325.122.829.451,1.629.56,2.459.1.777.49.907,1.179.9,4.326-.025,8.653-.015,12.979-.012,2.549,0,3.708,1.152,3.71,3.678q0,5.115,0,10.23M22.992,26.373c-.061-.357-.082-.536-.123-.711-1.834-7.8-3.682-15.6-5.487-23.415-.166-.716-.553-.719-1.1-.718-4.182.01-8.364,0-12.545.006-1.725,0-2.216.494-2.216,2.227q0,10.179,0,20.359c0,1.766.5,2.25,2.318,2.251q7.483,0,14.966,0h4.184m-1.7,4.327.213.307q5.99,0,11.98,0c1.629,0,2.138-.527,2.139-2.2q0-10.232,0-20.464c0-1.645-.525-2.173-2.17-2.175q-6.326-.008-12.653,0c-.279,0-.557.041-.94.07l1.1,4.573h4.583a9.192,9.192,0,0,1,.034-1.923c.089-.4.505-.718.775-1.073.236.344.61.663.677,1.038a11.982,11.982,0,0,1,.031,2.033h4.188c.569,0,1.247.007,1.154.766-.034.273-.7.592-1.113.666a8.228,8.228,0,0,1-1.64.029c-.774,1.985-1.479,3.739-2.126,5.513a1.044,1.044,0,0,0,.143.919c1.049.958,2.14,1.874,3.255,2.755.441.349,1.037.6.638,1.273s-.965.332-1.43.04a12.335,12.335,0,0,1-1.883-1.326,20.352,20.352,0,0,1-1.577-1.779c-3.347,1.451-3.074,3.779-2.16,6.285a.843.843,0,0,1,.1.422,3.675,3.675,0,0,1-.477,1.537c-.873.969-1.884,1.815-2.84,2.71m.031-18.307c.331,1.445.624,2.758.933,4.068s.627,2.594,1,4.111c.708-.734,1.3-1.313,1.84-1.937a.791.791,0,0,0,.085-.673c-.7-1.827-1.431-3.642-2.2-5.57Zm3.363.018,1.432,4.3.415-.005,1.382-4.292ZM21.778,27.954H19.255l.52,2.233,2-2.233" transform="translate(0 0)"/>
        <path id="Trazado_705179" data-name="Trazado 705179" d="M28.383,31.793H24.2q-7.483,0-14.966,0c-1.818,0-2.317-.484-2.318-2.251q0-10.179,0-20.359c0-1.733.491-2.226,2.216-2.227,4.182,0,8.364,0,12.545-.006.545,0,.932,0,1.1.718,1.8,7.81,3.653,15.611,5.487,23.415.041.175.062.354.123.711M17.6,15.5a3.03,3.03,0,0,1-3.9,2.184,3.109,3.109,0,1,1,2.148-5.832c.521.19,1.093.542,1.4-.193.317-.768-.325-1.007-.885-1.23a4.62,4.62,0,1,0,2.873,5.111c.186-1.259-.042-1.548-1.251-1.557-.879-.007-1.758-.012-2.636,0-.6.01-1.415-.171-1.377.774.036.9.844.724,1.443.737.717.015,1.434,0,2.188,0" transform="translate(-5.391 -5.42)" fill="#ed9aa9"/>
        <path id="Trazado_705180" data-name="Trazado 705180" d="M91.661,52.551c.956-.895,1.967-1.74,2.84-2.71a3.675,3.675,0,0,0,.477-1.537.848.848,0,0,0-.1-.422c-.915-2.506-1.187-4.834,2.16-6.285a20.353,20.353,0,0,0,1.577,1.779,12.322,12.322,0,0,0,1.883,1.326c.465.292,1.031.63,1.43-.04s-.2-.924-.638-1.273c-1.115-.881-2.206-1.8-3.255-2.755a1.045,1.045,0,0,1-.143-.919c.648-1.774,1.353-3.528,2.126-5.513a8.228,8.228,0,0,0,1.64-.029c.416-.074,1.079-.393,1.113-.666.094-.759-.584-.766-1.154-.766H97.427a11.978,11.978,0,0,0-.031-2.033c-.068-.374-.441-.694-.677-1.038-.27.355-.686.677-.775,1.073a9.193,9.193,0,0,0-.034,1.923H91.326l-1.1-4.573c.383-.03.662-.07.94-.07q6.326-.006,12.653,0c1.645,0,2.169.53,2.17,2.175q0,10.232,0,20.464c0,1.669-.51,2.194-2.139,2.2q-5.99.008-11.98,0l-.213-.307" transform="translate(-70.367 -21.85)" fill="#4db1f0"/>
        <path id="Trazado_705181" data-name="Trazado 705181" d="M96.874,56.3H98.53c.766,1.928,1.5,3.743,2.2,5.57a.791.791,0,0,1-.085.672c-.539.624-1.132,1.2-1.84,1.937-.368-1.517-.689-2.812-1-4.111s-.6-2.622-.933-4.068" transform="translate(-75.548 -43.908)" fill="#4db1f0"/>
        <path id="Trazado_705182" data-name="Trazado 705182" d="M112.151,56.383h3.229L114,60.675l-.415.005-1.433-4.3" transform="translate(-87.462 -43.971)" fill="#4db1f0"/>
        <path id="Trazado_705183" data-name="Trazado 705183" d="M89.99,126.983l-2,2.233-.52-2.233Z" transform="translate(-68.213 -99.029)" fill="#e8e8e8"/>
        <path id="Trazado_705184" data-name="Trazado 705184" d="M28.69,26.628c-.754,0-1.471.011-2.188,0-.6-.013-1.407.165-1.443-.737-.038-.946.781-.765,1.377-.774.879-.015,1.757-.009,2.636,0,1.208.009,1.437.3,1.251,1.557a4.631,4.631,0,1,1-2.873-5.111c.559.223,1.2.463.885,1.23-.3.735-.875.383-1.4.193a3.109,3.109,0,1,0-2.148,5.832,3.03,3.03,0,0,0,3.9-2.184" transform="translate(-16.476 -16.551)"/>
      </g>
    </g>
  </g>
</svg>
