<svg xmlns="http://www.w3.org/2000/svg" xmlns:xlink="http://www.w3.org/1999/xlink" width="98.955" height="99.541" viewBox="0 0 98.955 99.541">
  <defs>
    <radialGradient id="radial-gradient" cx="0.076" cy="0.019" r="1.465" gradientTransform="translate(0.001)" gradientUnits="objectBoundingBox">
      <stop offset="0" stop-color="#f6f6f7"/>
      <stop offset="0.477" stop-color="#f9f9fa"/>
      <stop offset="0.715" stop-color="#fff"/>
    </radialGradient>
    <filter id="Trazado_40937" x="0" y="0.684" width="98.955" height="98.856" filterUnits="userSpaceOnUse">
      <feOffset dy="7" input="SourceAlpha"/>
      <feGaussianBlur stdDeviation="2.5" result="blur"/>
      <feFlood flood-opacity="0.102"/>
      <feComposite operator="in" in2="blur"/>
      <feComposite in="SourceGraphic"/>
    </filter>
    <clipPath id="clip-path">
      <rect id="Rectángulo_345510" data-name="Rectángulo 345510" width="39.631" height="39.633" fill="none"/>
    </clipPath>
  </defs>
  <g id="Grupo_1000138" data-name="Grupo 1000138" transform="translate(6910.455 3091.376)">
    <g id="Grupo_1000134" data-name="Grupo 1000134" transform="translate(-6904.041 -3091.376)">
      <g id="Grupo_18423" data-name="Grupo 18423" transform="translate(0 0)">
        <g id="Grupo_18421" data-name="Grupo 18421">
          <g id="Grupo_18420" data-name="Grupo 18420">
            <g id="Grupo_18419" data-name="Grupo 18419">
              <path id="Trazado_40936" data-name="Trazado 40936" d="M279.664,2188.24a42.521,42.521,0,1,1-42.52-42.519A42.52,42.52,0,0,1,279.664,2188.24Z" transform="translate(-194.623 -2145.721)" fill="#fff"/>
            </g>
          </g>
        </g>
        <g transform="matrix(1, 0, 0, 1, -6.41, 0)" filter="url(#Trazado_40937)">
          <path id="Trazado_40937-2" data-name="Trazado 40937" d="M279.432,2187.987a42.52,42.52,0,1,0-42.52,42.521A42.352,42.352,0,0,0,279.432,2187.987Z" transform="translate(-187.98 -2145.47)" fill="url(#radial-gradient)"/>
        </g>
        <path id="Trazado_40938" data-name="Trazado 40938" d="M267.371,2186.006a32.456,32.456,0,1,0-32.456,32.456A32.336,32.336,0,0,0,267.371,2186.006Z" transform="translate(-192.266 -2143.346)" fill="none" stroke="#0098e8" stroke-miterlimit="10" stroke-width="4"/>
        <g id="Grupo_18422" data-name="Grupo 18422" transform="translate(7.533 23.872)">
          <path id="Trazado_40939" data-name="Trazado 40939" d="M273.754,2164.488a42.526,42.526,0,0,1-73.209,42.344,42.391,42.391,0,0,0,73.209-42.344Z" transform="translate(-200.545 -2164.488)" fill="#eceef0"/>
        </g>
      </g>
    </g>
    <g id="Grupo_1000135" data-name="Grupo 1000135" transform="translate(-6881.815 -3068.672)">
      <g id="Grupo_1000115" data-name="Grupo 1000115" clip-path="url(#clip-path)">
        <path id="Trazado_705167" data-name="Trazado 705167" d="M163.242,207.191c0-.72,0-1.377,0-2.035a2.005,2.005,0,0,1,2.051-2.067q5.979,0,11.959,0a2.081,2.081,0,0,1,2.343,2.37q0,4.478,0,8.956a2.057,2.057,0,0,1-2.32,2.32q-5.885,0-11.77,0a2.006,2.006,0,0,1-2.259-2.293,4.8,4.8,0,0,0-.806-3c-.611-.921-1.115-1.914-1.663-2.877s-.289-1.367.822-1.372c.51,0,1.02,0,1.644,0m-.924,1.344c.372.661.656,1.228,1,1.759a6.058,6.058,0,0,1,1.263,4.225c-.093.663.2.875.875.876q5.913.01,11.826,0c.795,0,.975-.191.976-.994q.005-4.506,0-9.012c0-.754-.2-.951-.943-.952q-5.941-.007-11.881-.008c-.581,0-.868.26-.867.844q0,1.18-.006,2.361c0,.671-.207.884-.867.9-.417.008-.834,0-1.368,0" transform="translate(-139.967 -177.104)"/>
        <path id="Trazado_705168" data-name="Trazado 705168" d="M184.137,35.085c-.228-.03-.351-.049-.475-.062a1.954,1.954,0,0,1-1.9-2.021q-.027-4.8,0-9.6a1.928,1.928,0,0,1,1.976-2q6.173-.036,12.346-.006a1.966,1.966,0,0,1,2.038,2.144q.01,4.638,0,9.275a2.009,2.009,0,0,1-2.174,2.2c-1.45.012-2.9-.031-4.349.021a4.081,4.081,0,0,0-1.574.382c-1.9.91-3.769,1.893-5.669,2.807-.279.134-.836.186-.961.031a1.288,1.288,0,0,1-.09-1.02c.209-.708.525-1.384.831-2.159m.935,1.3c1.649-.821,3.118-1.587,4.621-2.279a4.368,4.368,0,0,1,1.636-.38c1.51-.053,3.024-.014,4.536-.027.686-.006.912-.211.914-.861.009-3.088,0-6.177,0-9.265,0-.588-.289-.851-.866-.851q-5.974,0-11.949,0c-.586,0-.885.276-.885.843,0,3.11,0,6.219.007,9.329a.733.733,0,0,0,.785.811c.34.018.681,0,1.022.007.84.016,1.082.363.786,1.134-.174.453-.357.9-.611,1.542" transform="translate(-158.497 -18.65)"/>
        <path id="Trazado_705169" data-name="Trazado 705169" d="M9.543,13.652c0,.688.01,1.281,0,1.874-.016.76-.453,1.039-1.137.7-1.509-.743-2.993-1.537-4.519-2.244a4.17,4.17,0,0,0-1.585-.32,2.089,2.089,0,0,1-2.3-2.3Q0,6.8,0,2.225A2.04,2.04,0,0,1,2.234,0Q8.211-.005,14.189,0a2.018,2.018,0,0,1,2.184,2.2q.011,4.635,0,9.27a2.02,2.02,0,0,1-2.2,2.179c-1.509.008-3.019,0-4.625,0m-1.337.976c0-.511,0-.908,0-1.3,0-.818.2-1.018,1.017-1.021,1.578-.006,3.155,0,4.733,0,.914,0,1.1-.176,1.1-1.067q0-4.413,0-8.826c0-.872-.181-1.053-1.045-1.054q-5.82,0-11.64,0c-.845,0-1.025.173-1.026,1q-.006,4.477,0,8.954c0,.817.192,1.026,1.037.981a4.025,4.025,0,0,1,2.2.513c1.156.624,2.347,1.183,3.631,1.824" transform="translate(0 0)"/>
        <path id="Trazado_705170" data-name="Trazado 705170" d="M45.07,155.418c0,.579,0,1.109,0,1.638a1.55,1.55,0,0,1-1.661,1.75c-1.242.056-1.242.056-1.251,1.3-.008,1.074-.349,1.423-1.409,1.426q-2.685.007-5.371,0c-1,0-1.383-.394-1.389-1.4,0-.512-.032-1.025,0-1.534a4.96,4.96,0,0,0-.944-3.342c-2.843-4.173.016-10.131,5.039-10.723a6.536,6.536,0,0,1,7.463,5.725,10.664,10.664,0,0,0,1.1,3.162c.606,1.295.2,1.937-1.232,1.949-.083,0-.166.02-.351.043M43.6,157.465c.062-.109.1-.145.1-.182.01-.659,0-1.319.025-1.978a1.143,1.143,0,0,1,1.334-1.257,2.454,2.454,0,0,0,.33-.045,2.127,2.127,0,0,0-.108-.337,10.82,10.82,0,0,1-1.1-3.417,5.148,5.148,0,0,0-6.352-4.305,5.478,5.478,0,0,0-4.252,3.84,5.257,5.257,0,0,0,1.113,5.476,2.25,2.25,0,0,1,.659,1.715c-.041,1.056-.011,2.114-.011,3.163h5.5c0-.492-.007-.936,0-1.38.017-.906.39-1.282,1.284-1.293.506-.006,1.012,0,1.477,0" transform="translate(-27.838 -126.001)"/>
        <path id="Trazado_705171" data-name="Trazado 705171" d="M174.7,217.7c.534,0,.951.006,1.368,0,.66-.012.863-.226.867-.9q.006-1.18.006-2.361c0-.583.286-.845.867-.844q5.941.01,11.882.008c.746,0,.942.2.943.952q.009,4.506,0,9.012c0,.8-.181.993-.976.994q-5.913.007-11.826,0c-.677,0-.968-.213-.875-.876a6.058,6.058,0,0,0-1.263-4.224c-.341-.53-.624-1.1-1-1.759m7.841.054-.287.116a2.726,2.726,0,0,0,.984,5.3c1,.014,2,0,3,.005.5,0,.952-.111.938-.694s-.473-.663-.971-.654c-.979.018-1.959.014-2.939.005a1.388,1.388,0,1,1,0-2.759c.809-.009,1.618,0,2.428-.007.43,0,.776-.161.784-.647.009-.517-.331-.693-.8-.69a4.92,4.92,0,0,1-1.208-.03,1,1,0,0,1-.64-.565.793.793,0,0,1,.352-.7c.226-.085.56.1.84.185.064.02.09.181.151.193.3.061.659.207.89.1.154-.074.253-.579.16-.8a1.965,1.965,0,0,0-2.981-.645,2.221,2.221,0,0,0-.707,2.29" transform="translate(-152.346 -186.272)" fill="#e8e8e8"/>
        <path id="Trazado_705172" data-name="Trazado 705172" d="M194.148,45.478c.254-.639.437-1.088.611-1.542.3-.77.054-1.118-.786-1.134-.341-.007-.682.012-1.022-.007a.733.733,0,0,1-.785-.811c0-3.11-.011-6.219-.007-9.329,0-.567.3-.844.885-.843q5.974.01,11.949,0c.577,0,.866.263.866.851,0,3.088,0,6.177,0,9.265,0,.65-.228.855-.914.861-1.512.013-3.026-.025-4.536.027a4.368,4.368,0,0,0-1.636.38c-1.5.692-2.971,1.459-4.621,2.279M200.319,38c-.453,0-.77,0-1.086,0-.447,0-.842.1-.859.632-.018.553.364.779.846.7a1.97,1.97,0,0,1,2.557,1.54.622.622,0,0,0,.953.432c.458-.241.43-.635.225-1.044-.019-.038-.041-.075-.06-.113-1.047-2.1-2.081-4.2-3.155-6.277a.742.742,0,0,0-1.446.007c-1.072,2.082-2.1,4.186-3.152,6.278-.221.439-.376.871.17,1.146s.807-.107,1.023-.545q1.2-2.432,2.427-4.855a5.031,5.031,0,0,1,.292-.445L200.319,38" transform="translate(-167.573 -27.743)" fill="#4db1f0"/>
        <path id="Trazado_705173" data-name="Trazado 705173" d="M17.333,23.847c-1.284-.64-2.475-1.2-3.631-1.824a4.025,4.025,0,0,0-2.2-.513c-.846.045-1.036-.164-1.037-.981q0-4.477,0-8.954c0-.83.181-1,1.026-1q5.82,0,11.64,0c.864,0,1.044.182,1.045,1.054q0,4.413,0,8.826c0,.892-.184,1.067-1.1,1.067-1.578,0-3.155-.005-4.733,0-.822,0-1.013.2-1.017,1.021,0,.4,0,.794,0,1.3m-.856-6.085c-.668.349-1.27.7-1.9.983-.435.2-.785.422-.595.946s.638.523,1.06.314c.833-.412,1.648-.86,2.477-1.3.64.395,1.322.825,2.015,1.239.408.243.84.312,1.1-.185s-.061-.768-.477-1.006c-.6-.342-1.165-.733-1.688-1.067a23.589,23.589,0,0,0,1.149-2.267c.21-.548.434-.843,1.066-.77a.606.606,0,0,0,.706-.65c.009-.442-.274-.645-.691-.672-.191-.013-.383,0-.575,0H18.062c-.152-.567.1-1.3-.7-1.331-.9-.03-.631.769-.745,1.333-.9,0-1.766,0-2.635,0-.455,0-.748.241-.737.7.01.429.312.632.731.637.554.007,1.108,0,1.662,0h2.941l-1.161,2.1-.9-1.076a.634.634,0,0,0-.95-.163.623.623,0,0,0-.115.955c.289.393.611.762,1.031,1.28" transform="translate(-9.128 -9.219)" fill="#ed9aa9"/>
        <path id="Trazado_705174" data-name="Trazado 705174" d="M52.671,166.458c-.465,0-.971-.005-1.477,0-.894.011-1.267.387-1.284,1.293-.008.444,0,.888,0,1.38h-5.5c0-1.05-.031-2.108.011-3.163a2.25,2.25,0,0,0-.659-1.715,5.257,5.257,0,0,1-1.113-5.476,5.478,5.478,0,0,1,4.252-3.84,5.148,5.148,0,0,1,6.352,4.305,10.819,10.819,0,0,0,1.1,3.417,2.13,2.13,0,0,1,.108.337,2.46,2.46,0,0,1-.33.045A1.143,1.143,0,0,0,52.8,164.3c-.023.659-.015,1.319-.025,1.978,0,.037-.039.073-.1.182" transform="translate(-36.908 -134.994)" fill="#ffa031"/>
        <path id="Trazado_705175" data-name="Trazado 705175" d="M221.4,227.571a2.221,2.221,0,0,1,.707-2.29,1.965,1.965,0,0,1,2.981.645c.094.22-.006.726-.16.8-.23.11-.59-.036-.89-.1-.061-.012-.086-.173-.151-.193-.28-.088-.613-.27-.84-.185a.793.793,0,0,0-.352.7,1,1,0,0,0,.64.565,4.92,4.92,0,0,0,1.208.03c.471,0,.811.173.8.69-.008.485-.354.643-.784.647-.809.007-1.619,0-2.428.007a1.388,1.388,0,1,0,0,2.759c.98.008,1.96.013,2.939-.005.5-.009.956.073.971.654s-.44.7-.938.694c-1-.008-2,.008-3-.005a2.726,2.726,0,0,1-.984-5.3l.287-.116" transform="translate(-191.209 -196.086)"/>
        <path id="Trazado_705176" data-name="Trazado 705176" d="M219.275,48.122l-1.265-2.545a5.038,5.038,0,0,0-.292.445q-1.218,2.425-2.427,4.855c-.217.437-.478.82-1.023.545s-.391-.706-.17-1.146c1.053-2.092,2.081-4.2,3.152-6.278a.742.742,0,0,1,1.446-.007c1.074,2.081,2.109,4.182,3.155,6.277.019.038.041.075.06.113.2.409.233.8-.225,1.044a.622.622,0,0,1-.953-.432,1.97,1.97,0,0,0-2.557-1.54c-.483.079-.864-.147-.846-.7.017-.529.413-.636.859-.632.317,0,.633,0,1.086,0" transform="translate(-186.529 -37.864)"/>
        <path id="Trazado_705177" data-name="Trazado 705177" d="M35.4,27.453c-.421-.519-.742-.888-1.031-1.28a.623.623,0,0,1,.115-.955.634.634,0,0,1,.95.163l.9,1.076,1.161-2.1H34.558c-.554,0-1.108.006-1.662,0-.419-.005-.721-.208-.731-.637-.011-.457.282-.694.737-.7.868-.006,1.737,0,2.635,0,.114-.564-.151-1.363.745-1.333.8.027.549.764.7,1.331h2.058c.192,0,.384-.009.575,0,.417.028.7.231.691.672a.606.606,0,0,1-.706.65c-.632-.073-.856.221-1.066.77a23.59,23.59,0,0,1-1.149,2.267c.523.334,1.091.726,1.688,1.067.416.238.733.512.477,1.006s-.688.428-1.1.185c-.693-.414-1.376-.844-2.015-1.239-.83.437-1.645.885-2.477,1.3-.422.209-.867.217-1.06-.314s.159-.749.595-.946c.631-.285,1.233-.634,1.9-.983" transform="translate(-28.05 -18.909)"/>
      </g>
    </g>
  </g>
</svg>
