<svg id="Grupo_998543" data-name="Grupo 998543" xmlns="http://www.w3.org/2000/svg" xmlns:xlink="http://www.w3.org/1999/xlink" width="400" height="238.102" viewBox="0 0 400 238.102">
  <defs>
    <clipPath id="clip-path">
      <rect id="Rectángulo_344720" data-name="Rectángulo 344720" width="400" height="238.101" fill="none"/>
    </clipPath>
    <clipPath id="clip-path-3">
      <rect id="Rectángulo_344718" data-name="Rectángulo 344718" width="28.827" height="28.827" fill="none"/>
    </clipPath>
  </defs>
  <g id="Enmascarar_grupo_998542" data-name="Enmascarar grupo 998542" clip-path="url(#clip-path)">
    <g id="Grupo_998541" data-name="Grupo 998541" transform="translate(0 0)">
      <g id="Grupo_998540" data-name="Grupo 998540" clip-path="url(#clip-path)">
        <path id="Trazado_698408" data-name="Trazado 698408" d="M27.958,237.324s-42.249-11.911-22.876-66.45,56.225-31.012,45.576-78.71C36.617,29.267,96.079-13.506,161.449,3.915S209.3,40.7,286.122,21.2C379.776-2.573,387.676,96.33,365.955,129.182s59.293,37.589,25.83,108.142Z" transform="translate(0 -0.002)" fill="#fff"/>
        <path id="Trazado_698409" data-name="Trazado 698409" d="M2275.82,677.449s10.825-22.071,16.879-20.112-16.879,20.112-16.879,20.112" transform="translate(-1952.54 -563.857)" fill="#cde0fb"/>
        <path id="Trazado_698410" data-name="Trazado 698410" d="M2221.016,741.033s25.931-25.417,36.007-20.782-6.142,9.606-12.328,10.96-23.679,9.822-23.679,9.822" transform="translate(-1905.521 -617.455)" fill="#cde0fb"/>
        <path id="Trazado_698411" data-name="Trazado 698411" d="M2230.85,1169.222c9.263-6.085.463-22.2.463-22.2s-21.608-5.817-23.143-9.067,19.445,1.366,19.445,1.366c-1.516-6.774-15.049-20.867-15.049-20.867s-20.408,7.862-21.095,4.335,18.425-6.04,18.425-6.04c-3.989-5.729-13.345-9.229-13.345-9.229-14.5-3.455-18.19,15.344-18.19,15.344a35.556,35.556,0,0,1-16.849.832h0a25.789,25.789,0,0,0-4.781-.674l.568,1.732c.511-.011,1.011,0,1.5.029a.011.011,0,0,1,.009,0h.021c.306.031.743.077,1.277.137h0c1.209.19,2.092.3,2.719.342h.006c3.771.52,8.757,1.415,10.145,2.647a3.535,3.535,0,0,1,.673-.631l-.673.631c-5.381,5.047-1.581,20.219,2.821,27.924s5.551,3.34,7.874-2.347-1.728-14.679-1.148-17.918,3.381.3,4.763,5.944-3.222,10.2-1.154,19.376,21.021,10.465,21.021,10.465c-3.919-5.517-4.141-17.641-2.161-18.758s7.113,15.259,8.581,17.592,8.009,5.115,17.272-.971" transform="translate(-1850.37 -949.835)" fill="#cde0fb"/>
        <path id="Trazado_698412" data-name="Trazado 698412" d="M482.684,819.562s-13.653-27.838-21.289-25.367,21.289,25.367,21.289,25.367" transform="translate(-394.752 -681.246)" fill="#dfebfd"/>
        <path id="Trazado_698413" data-name="Trazado 698413" d="M389.3,899.758s-32.706-32.058-45.415-26.212,7.747,12.116,15.549,13.823S389.3,899.758,389.3,899.758" transform="translate(-291.549 -748.848)" fill="#dfebfd"/>
        <path id="Trazado_698414" data-name="Trazado 698414" d="M254.023,1117.628c.168-9.741,16.273-10.775,16.273-10.775s14.474,13.319,17.609,12.932-10.151-13.8-10.151-13.8c5.745-2.056,22.572,1.375,22.572,1.375s3.749,18.854,6.692,17.708-4.171-16.526-4.171-16.526c6.13.271,13.126,5.577,13.126,5.577,9.381,9.149-2.852,20.722-2.852,20.722a31.251,31.251,0,0,0,7.3,12.907h0a22.678,22.678,0,0,1,2.747,3.234l-1.554.392q-.348-.577-.726-1.1a.009.009,0,0,0,0-.006l-.011-.015c-.167-.213-.406-.516-.7-.884h0l0,0c-.709-.809-1.2-1.415-1.531-1.859l0,0c-2.158-2.557-21.011,4.382-28.8,4.732s-5.09-2.554-1.957-6.952,11.716-5.613,13.85-7.566-1.811-2.372-6.654-.745-6.066,7.188-13.852,9.962-17.652-10.7-17.652-10.7c5.94.319,15.05-5.213,14.951-7.208s-14.677,1.886-17.1,1.892-7.563-3.547-7.395-13.287" transform="translate(-217.935 -948.313)" fill="#cde0fb"/>
        <path id="Trazado_698415" data-name="Trazado 698415" d="M684.836,682.967h-115a4.53,4.53,0,0,1-4.524-4.536V524.785A4.53,4.53,0,0,1,570,520.252l119.358,5.5V678.431a4.53,4.53,0,0,1-4.523,4.536" transform="translate(-485.006 -446.348)" fill="#12263f"/>
        <path id="Trazado_698416" data-name="Trazado 698416" d="M1443.127,682.967h115a4.53,4.53,0,0,0,4.524-4.536V524.785a4.53,4.53,0,0,0-4.693-4.533l-119.358,5.5V678.431a4.53,4.53,0,0,0,4.524,4.536" transform="translate(-1234.249 -446.348)" fill="#12263f"/>
        <path id="Trazado_698417" data-name="Trazado 698417" d="M599.056,567.188l-3.729,3.029a2.277,2.277,0,0,0-.834,1.767V720.942A2.232,2.232,0,0,0,596.7,723.2h9.284a2.235,2.235,0,0,0,2.2-2.394Z" transform="translate(-510.045 -486.619)" fill="#e8e8e8"/>
        <path id="Trazado_698418" data-name="Trazado 698418" d="M2197.038,567.188l3.729,3.029a2.275,2.275,0,0,1,.834,1.767V720.942a2.231,2.231,0,0,1-2.206,2.257h-9.284a2.235,2.235,0,0,1-2.2-2.394Z" transform="translate(-1877.114 -486.619)" fill="#aec3ff"/>
        <path id="Trazado_698419" data-name="Trazado 698419" d="M729.4,716.233H621.2a4.321,4.321,0,0,1-4.256-4.383V563.405a4.315,4.315,0,0,1,4.416-4.379l94.448,3.65a18.855,18.855,0,0,1,17.853,19.086V711.851a4.321,4.321,0,0,1-4.256,4.383" transform="translate(-529.305 -479.614)" fill="#fff7f0"/>
        <path id="Trazado_698420" data-name="Trazado 698420" d="M1442.509,716.15h108.9a3.965,3.965,0,0,0,3.906-4.022V562.948a3.96,3.96,0,0,0-4.053-4.019l-96.816,3.742a16.739,16.739,0,0,0-15.849,16.943V712.128a3.965,3.965,0,0,0,3.906,4.022" transform="translate(-1234.249 -479.531)" fill="#fff7f0"/>
        <rect id="Rectángulo_344709" data-name="Rectángulo 344709" width="0.587" height="96.389" transform="translate(204.06 108.956)" fill="#f9dec7"/>
        <path id="Trazado_698421" data-name="Trazado 698421" d="M1795.247,657.035a.777.777,0,0,1,.133.831l0,0a5.169,5.169,0,0,1-1.644,1.778c-.1.078-.187.15-.263.216l-.059.052-.045.041c-.721.656-.453.809-1.75,2.141-1.479,1.517-2.49,1.538-2.777,1.4-.243-.12.258-.927.811-1.834l.081-.132c.074-.12.147-.243.22-.364.65-1.092.488-1.607.348-3.239-.114-1.326-2.01-7.42-2.01-7.42l2.817-.465s.813,4.847,1.742,5.6c.5.4,1.055.41,1.533.708.034.021.067.042.1.064a3.7,3.7,0,0,1,.766.624" transform="translate(-1534.263 -557.701)" fill="#ffb27d"/>
        <path id="Trazado_698422" data-name="Trazado 698422" d="M1798.185,695.131a.776.776,0,0,1,.133.831.006.006,0,0,1,0,0,5.982,5.982,0,0,1-1.646,1.772c-.1.08-.184.153-.261.222l-.059.052-.045.04c-.722.656-.453.809-1.75,2.141-1.479,1.517-2.49,1.538-2.777,1.4-.242-.12.258-.927.811-1.834a6.256,6.256,0,0,0,2.632-1.91c.892-1.122,1.492-2.568,2.1-3.4.034.021.067.042.1.064a3.691,3.691,0,0,1,.765.624" transform="translate(-1537.202 -595.798)" fill="#233862"/>
        <path id="Trazado_698423" data-name="Trazado 698423" d="M1626.654,649.136c-.18.868-1.417.714-2.8.366s-1.055.057-3.022-.175-2.558-.97-2.616-1.263c-.052-.26.922-.345,1.966-.458.131-.014.263-.029.4-.044a8.513,8.513,0,0,0,3.121-1.51,12.491,12.491,0,0,0,2.547-2.983l2.7.233s-1.432,2.142-1.987,3.074a3.264,3.264,0,0,0-.278,1.838,3.474,3.474,0,0,1-.027.923" transform="translate(-1388.348 -551.72)" fill="#ffb27d"/>
        <path id="Trazado_698424" data-name="Trazado 698424" d="M1623.855,676.909c-1.381-.348-1.055.056-3.022-.175s-2.559-.97-2.616-1.263c-.052-.26.922-.345,1.966-.458l.01.02a5.55,5.55,0,0,0,2.813.9c1.335.042,2.753-.331,3.675-.309a3.474,3.474,0,0,1-.028.923c-.18.867-1.417.714-2.8.366" transform="translate(-1388.348 -579.128)" fill="#233862"/>
        <path id="Trazado_698425" data-name="Trazado 698425" d="M1760.475,553.522s-.188.122-.469.277a6.289,6.289,0,0,1-1.23.535,5,5,0,0,1-1.266.165c-.292,0-.485-.018-.485-.018l-3.233-8.892-.584-1.607-.621-1.711-.217-.6-1.052-2.9s2.573-6.6,5.2-3.452a6.362,6.362,0,0,1,.9,1.625c.191.466.373.992.547,1.562.13.428.255.88.376,1.351.327,1.281.616,2.7.869,4.116.844,4.743,1.271,9.54,1.271,9.54" transform="translate(-1502.542 -458.556)" fill="#233862"/>
        <path id="Trazado_698426" data-name="Trazado 698426" d="M1702.662,493.23l-13.11.552a27.667,27.667,0,0,1-6.942-2.929c-.137-.068-.264-.132-.384-.19a7.847,7.847,0,0,0-1.108-.5c-1-.208-1.511,1.417-2.355,3.416-.173.407-.358.828-.564,1.254a6.423,6.423,0,0,1-.8,1.151c-.069.084-.141.169-.217.257-2.9,3.389-10.37,9.7-10.37,9.7s-.088,0-.23,0a7.547,7.547,0,0,1-1.963-.238,3,3,0,0,1-.636-.33,1.44,1.44,0,0,1-.3-.272s8.938-17.475,13.565-22.236h0c.067-.069.134-.135.2-.2a3.765,3.765,0,0,1,1.327-.937c1.577-.5,11.777.057,11.777.057l.326-.529.544-.039.094-.007.454-.033h0l.627-.044.932-.066,2.521-.179.4-.029,4.66-.331s.212.48.5,1.274c.112.31.236.668.362,1.064.832,2.6,1.909,7.283.688,10.369" transform="translate(-1427.355 -412.265)" fill="#2b478b"/>
        <path id="Trazado_698427" data-name="Trazado 698427" d="M1854.992,282.585c-2.329-1.988-3.99-2.48-4.221-5.627-.125-1.709-2.42-7.36-6.3-6.866a5.813,5.813,0,0,1-.978.057,3.625,3.625,0,0,0-1.972.5c-1.868,1.094-5.308,11.207-2.989,14.76a2.574,2.574,0,0,0,1.849,1.189l.3.168h0c.417.234.876.492,1.361.767,2.742,1.546,6.332,3.59,8.17,4.623h0l.314.177.535.3c.216.118.341.184.351.184a7.991,7.991,0,0,0,1.137.32,4.34,4.34,0,0,0,3.121-.289,4.966,4.966,0,0,0,.988-.856c1.866-2.087,2.358-5.964-1.668-9.4" transform="translate(-1576.703 -231.699)" fill="#233862"/>
        <path id="Trazado_698428" data-name="Trazado 698428" d="M1875.205,340.113a4.816,4.816,0,0,0,3,.113,5.352,5.352,0,0,0,2-2.362c-.518-.028-1.083-.484-1.5-3.456l-.221.077-3.716,1.307s.26,1.191.426,2.324c.14.952.212,1.863.009,2" transform="translate(-1608.46 -286.906)" fill="#ffb27d"/>
        <path id="Trazado_698429" data-name="Trazado 698429" d="M1874.771,336.26s.158.835.378,2.028a4.328,4.328,0,0,0,3.337-3.335Z" transform="translate(-1608.46 -287.373)" fill="#ed975d"/>
        <path id="Trazado_698430" data-name="Trazado 698430" d="M1855.363,298.644s5.075-.645,4.625-3.8-.1-5.362-3.358-5.084-3.716,1.572-3.822,2.661,1.223,6.308,2.555,6.222" transform="translate(-1589.612 -248.581)" fill="#ffb27d"/>
        <path id="Trazado_698431" data-name="Trazado 698431" d="M1854.231,288.99s3.226,2.82,5.433,3.061,3.047-.462,3.047-.462a8.622,8.622,0,0,1-2.064-2.839,1.553,1.553,0,0,0-1.273-.924c-1.576-.147-4.564-.23-5.142,1.164" transform="translate(-1590.838 -246.875)" fill="#233862"/>
        <path id="Trazado_698432" data-name="Trazado 698432" d="M1852.63,291.11a7.992,7.992,0,0,0-1.441,1.819,6.138,6.138,0,0,0-.189,3.261s-1.669-3.3-.7-4.893a1.352,1.352,0,0,1,2.33-.187" transform="translate(-1587.206 -249.231)" fill="#233862"/>
        <path id="Trazado_698433" data-name="Trazado 698433" d="M1847.4,367.691c.081,10.265-.015,8.119,1.1,9.1a4.315,4.315,0,0,0,2.029.455c3.146.231,8.682-.248,8.9-.828.74-2.007.232-2.636.859-5.713.065-.327.146-.681.24-1.067.52-2.113,1.017-2.829-.751-6.241-1.6-3.091-3.273-5.6-3.426-5.513-4.3,2.514-4.635.373-4.635.373s-4.354,4.427-4.314,9.434" transform="translate(-1584.974 -307.044)" fill="#aec3ff"/>
        <path id="Trazado_698434" data-name="Trazado 698434" d="M1775.426,577.9s-.188.122-.469.277a6.281,6.281,0,0,1-1.23.535,5,5,0,0,1-1.266.165c-.293,0-.485-.017-.485-.017l-3.233-8.892.947-1.607,2.425-4.116.8-1.351c.13.428.255.88.376,1.351.327,1.281.616,2.7.869,4.116.844,4.743,1.271,9.54,1.271,9.54" transform="translate(-1517.492 -482.939)" fill="#2b478b"/>
        <path id="Trazado_698435" data-name="Trazado 698435" d="M1825.8,360.52s-4.416.717-4.948,2.612-3.658,13.038-3.658,13.038,2.239.419,3.282-.61,3.672-9.585,3.672-9.585Z" transform="translate(-1559.058 -309.308)" fill="#aec3ff"/>
        <path id="Trazado_698436" data-name="Trazado 698436" d="M1869.43,428.82c3.146.231,8.682-.248,8.9-.828.74-2.007.232-2.636.86-5.713l-1.488-4.285s.218,4.762-1.195,6-5.765,2.376-6.454,3.418a3.832,3.832,0,0,0-.619,1.405" transform="translate(-1603.877 -358.617)" fill="#95b3ef"/>
        <path id="Trazado_698437" data-name="Trazado 698437" d="M1861.657,477.258s-3.1-.713-3.6-.441a7.3,7.3,0,0,0-1.89,1.615c-.156.348,1.117-.257,1.531-.365a3.671,3.671,0,0,1,1.317.3,4.385,4.385,0,0,0,2.362.254Z" transform="translate(-1592.484 -409.032)" fill="#ffb27d"/>
        <path id="Trazado_698438" data-name="Trazado 698438" d="M1894.052,357.882s4.167.286,5.6,2.309c2.011,2.848,5.957,14.952,3.635,16.547-2.614,1.8-11.842.391-11.842.391a3.753,3.753,0,0,1,.135-2.131c.433-.692,7.391-1.766,7.714-2.084s-3.966-6.284-3.959-7.246-1.281-7.786-1.281-7.786" transform="translate(-1622.677 -307.045)" fill="#aec3ff"/>
        <path id="Trazado_698439" data-name="Trazado 698439" d="M1861.067,483.266a6.013,6.013,0,0,1-.87.933.637.637,0,0,1-.352.073l.444-.786Z" transform="translate(-1595.654 -414.618)" fill="#ffb27d"/>
        <path id="Trazado_698440" data-name="Trazado 698440" d="M1858.087,477.19l-1.9.905a.337.337,0,0,0,.313.123,4.522,4.522,0,0,0,.822-.22Z" transform="translate(-1592.517 -409.405)" fill="#ffb27d"/>
        <path id="Trazado_698441" data-name="Trazado 698441" d="M1748.094,427.646l-14.962-.106-4.422-11.224,14.939.105Z" transform="translate(-1483.147 -357.179)" fill="#f99746"/>
        <path id="Trazado_698442" data-name="Trazado 698442" d="M1758.626,492.254l19.758.139,0,.436-19.582-.138Z" transform="translate(-1508.814 -422.33)" fill="#ed7d2b"/>
        <path id="Trazado_698443" data-name="Trazado 698443" d="M1786.54,451.843a.519.519,0,0,1,.513-.709,1.02,1.02,0,0,1,.911.719.518.518,0,0,1-.513.709,1.021,1.021,0,0,1-.912-.719" transform="translate(-1532.738 -387.05)" fill="#fff"/>
        <path id="Trazado_698444" data-name="Trazado 698444" d="M664.756,1541.018h79.867a10.059,10.059,0,0,0,10.059-10.059v-.419a10.059,10.059,0,0,0-10.059-10.059H664.756A10.059,10.059,0,0,0,654.7,1530.54v.419a10.059,10.059,0,0,0,10.059,10.059" transform="translate(-561.697 -1304.497)" fill="#2b478b"/>
        <path id="Trazado_698445" data-name="Trazado 698445" d="M1043.717,1530.8l-.072,4.488a7.191,7.191,0,0,0,7.074,7.3l53.082.848.014-.894a9.149,9.149,0,0,1-4.931-8.269l.025-1.579a9.149,9.149,0,0,1,5.193-8.107v-.018l-53.082-.848a7.191,7.191,0,0,0-7.3,7.074" transform="translate(-895.395 -1307.281)" fill="#f9dec7"/>
        <path id="Trazado_698446" data-name="Trazado 698446" d="M1100.312,1540.936h-55.922c-3.607,0-6.432-4.513-6.432-10.275s2.826-10.275,6.432-10.275h55.922a.841.841,0,1,1,0,1.682h-55.922c-2.575,0-4.751,3.935-4.751,8.594s2.176,8.594,4.751,8.594h55.922a.841.841,0,1,1,0,1.682" transform="translate(-890.515 -1304.415)" fill="#1b3770"/>
        <rect id="Rectángulo_344710" data-name="Rectángulo 344710" width="48.091" height="0.132" transform="translate(156.37 221.442)" fill="#e8c2a3"/>
        <rect id="Rectángulo_344711" data-name="Rectángulo 344711" width="18.257" height="0.121" transform="translate(185.521 223.317)" fill="#e8c2a3"/>
        <rect id="Rectángulo_344712" data-name="Rectángulo 344712" width="31.848" height="0.121" transform="translate(171.93 229.695)" fill="#e8c2a3"/>
        <path id="Trazado_698447" data-name="Trazado 698447" d="M1097.918,1559.368a5.22,5.22,0,0,1,2.761,4.518,24.786,24.786,0,0,1,0,5.342l-2.979-1.417-3.007,1.417v-5.448s-.11-4.412-4.215-4.412Z" transform="translate(-935.576 -1337.86)" fill="#f78248"/>
        <path id="Trazado_698448" data-name="Trazado 698448" d="M640.662,1427.115h61.45a6.584,6.584,0,0,0,6.584-6.584v-2.29a6.584,6.584,0,0,0-6.584-6.584h-61.45a6.585,6.585,0,0,0-6.584,6.584v2.29a6.584,6.584,0,0,0,6.584,6.584" transform="translate(-544.007 -1211.13)" fill="#699dee"/>
        <path id="Trazado_698449" data-name="Trazado 698449" d="M924.405,1419.413l-.053,3.374a5.387,5.387,0,0,0,5.28,5.49l39.615.637.011-.672a6.884,6.884,0,0,1-3.68-6.215l.019-1.187a6.88,6.88,0,0,1,3.876-6.094v-.014l-39.615-.637a5.385,5.385,0,0,0-5.451,5.318" transform="translate(-793.047 -1213.222)" fill="#f9dec7"/>
        <path id="Trazado_698450" data-name="Trazado 698450" d="M966.641,1427.03H924.907c-2.692,0-4.8-3.393-4.8-7.724s2.109-7.724,4.8-7.724h41.735a.632.632,0,0,1,0,1.264H924.907c-1.922,0-3.546,2.958-3.546,6.459s1.624,6.46,3.546,6.46h41.735a.632.632,0,0,1,0,1.264" transform="translate(-789.405 -1211.068)" fill="#4b87dd"/>
        <rect id="Rectángulo_344713" data-name="Rectángulo 344713" width="30.135" height="0.091" transform="translate(143.12 204.632)" fill="#e8c2a3"/>
        <rect id="Rectángulo_344714" data-name="Rectángulo 344714" width="13.625" height="0.091" transform="translate(159.12 206.038)" fill="#e8c2a3"/>
        <rect id="Rectángulo_344715" data-name="Rectángulo 344715" width="23.768" height="0.091" transform="translate(148.977 210.832)" fill="#e8c2a3"/>
        <path id="Trazado_698451" data-name="Trazado 698451" d="M2150.864,1320.839a15.321,15.321,0,0,1,.7,2.906,10.512,10.512,0,0,1-.892,2.862c-.344.473-.514-1.927-.787-2.287s-.056.9-.248,1.021-.593-.93-.765-1.3.421-1.732.423-2.681,1.568-.52,1.568-.52" transform="translate(-1843.599 -1133.131)" fill="#ffb27d"/>
        <path id="Trazado_698452" data-name="Trazado 698452" d="M2035.886,1167.181a3.357,3.357,0,0,1,5.058-3.16l.142.089c3.482,2.241,11,12.7,11.512,13.747s2.043,9.382,2.043,9.382-1.886.69-2.768-.026c0,0-3.059-7.9-3.511-8.3s-12.234-7.006-12.334-9.484c-.027-.655-.079-1.443-.142-2.247" transform="translate(-1746.679 -998.257)" fill="#233862"/>
        <rect id="Rectángulo_344716" data-name="Rectángulo 344716" width="15.669" height="3.115" transform="translate(258.88 169.702) rotate(-19.196)" fill="#f99746"/>
        <path id="Trazado_698453" data-name="Trazado 698453" d="M1801.845,1197.336l3.953.273-1.024-2.942Z" transform="translate(-1545.893 -1024.965)" fill="#f9ddbf"/>
        <path id="Trazado_698454" data-name="Trazado 698454" d="M1928.69,1156.86l.324.93a1.1,1.1,0,0,1-.675,1.4l-.685.239-1.024-2.942.744-.259a1.034,1.034,0,0,1,1.316.636" transform="translate(-1652.952 -991.933)" fill="#f9ddbf"/>
        <path id="Trazado_698455" data-name="Trazado 698455" d="M2153.239,1616.442s1.4,1.281,1.13,2.191-1.541,1.517-1.712,2.63-.856,1.719-1.472,1.719h-2.938s-.454-.783.642-1.019,1.509-1.543,1.44-2.757a21.387,21.387,0,0,1,.1-2.832l2.328-.539Z" transform="translate(-1843.007 -1386.306)" fill="#1f4075"/>
        <path id="Trazado_698456" data-name="Trazado 698456" d="M2012.868,1636.619s.252,2.916-.364,3.219l-7.888-.016s0-.91,1.267-1.113,3.493-.944,3.869-2.6,3.116.506,3.116.506" transform="translate(-1719.86 -1403.169)" fill="#1f4075"/>
        <path id="Trazado_698457" data-name="Trazado 698457" d="M2015.828,1349.209s.416,5.111.9,11.255c.665,8.345,1.464,18.6,1.543,20.539.137,3.372.685,8.767.685,8.767a4.353,4.353,0,0,0,3.9.741,87.059,87.059,0,0,0,2.982-15.848c.01-.134.021-.268.031-.4.616-8.294,1.575-25.759,1.575-25.759Z" transform="translate(-1729.48 -1156.947)" fill="#b0c0d2"/>
        <path id="Trazado_698458" data-name="Trazado 698458" d="M2015.828,1349.209s.416,5.111.9,11.255l9.114,14.2c.01-.134.021-.268.031-.4.616-8.294,1.575-25.759,1.575-25.759Z" transform="translate(-1729.48 -1156.947)" fill="#dee4f0"/>
        <path id="Trazado_698459" data-name="Trazado 698459" d="M2029.2,1337.6s7.5,18.51,12.429,27.208,6.472,11.126,6.472,11.126,2.825-1.113,3.082-1.871c0,0-1.886-16.793-5.188-20.887-1.866-2.313-4.058-9.255-4.16-11.682s-.667-7.232-.667-7.232Z" transform="translate(-1740.955 -1144.729)" fill="#b0c0d2"/>
        <path id="Trazado_698460" data-name="Trazado 698460" d="M2026.6,1125.473s-5.024,2.548-7.967,1.7a6.9,6.9,0,0,1,1.948-1.623c-.113-.585-.2-1.093-.255-1.524a14.118,14.118,0,0,1-.155-1.559l1.927-1.578,1.827-1.51a7.48,7.48,0,0,0,2.675,6.1" transform="translate(-1731.891 -960.37)" fill="#ffb27d"/>
        <path id="Trazado_698461" data-name="Trazado 698461" d="M2016.291,1178.217a20.7,20.7,0,0,1-6.2,2.669c-2.651.628-5.909.443-7,.609a.453.453,0,0,1-.318-.08c-.086-.044-.567-3.278-1.049-7.359-.021-.164-.044-.33-.053-.5l-.007-.055c-.187-1.6-.352-3.271-.494-4.952-.116-1.307-.212-2.6-.278-3.814-.083-1.519-.118-2.915-.083-4.063.015-.525.045-1,.093-1.406a10,10,0,0,1,2.5-5.356l.888-1.011a4.87,4.87,0,0,0,3.074-.785c1.085-.714,2.26-1.561,2.481-1.432,1.663.91,3.012,3.346,3.979,6.459a35.519,35.519,0,0,1,1.252,5.979c.088.668.162,1.354.219,2.036.011.126.021.253.031.377.13,1.867.344,3.616.58,5.178.318,2.107.68,3.871.936,5.114.128.633.226,1.122.284,1.472.052.306-.56.744-.833.914" transform="translate(-1716.587 -987.221)" fill="#2b478b"/>
        <path id="Trazado_698462" data-name="Trazado 698462" d="M2033.285,1130.079a6.722,6.722,0,0,1-3.664,3.064,14.2,14.2,0,0,1-.155-1.559l1.927-1.578Z" transform="translate(-1741.181 -969.489)" fill="#ed985f"/>
        <path id="Trazado_698463" data-name="Trazado 698463" d="M2017.034,1092.914s4.855.7,5.25-2.288,1.288-4.9-1.8-5.474-3.837.491-4.215,1.456-.492,6.049.76,6.307" transform="translate(-1729.642 -930.869)" fill="#ffb27d"/>
        <path id="Trazado_698464" data-name="Trazado 698464" d="M2014.032,1073.678c.043-.052.143-.094.368-.111a.912.912,0,0,0-.424-.111,1.134,1.134,0,0,0-.774-.989.678.678,0,0,1,.338.482c-.637-.63-1.986-1.07-5.689-.7-4.88.483-3.207,3.58-2.567,3.941s2.213-.694,3.393-.624,1.439,1.769,1.844,1.995.239-.184.775-.439.605.64.461,1.226.614,1.34.614,1.34l.735-.824c.736-.824,1.376-4.265,1.02-4.99l-.094-.193" transform="translate(-1719.747 -919.819)" fill="#2c3a64"/>
        <path id="Trazado_698465" data-name="Trazado 698465" d="M2009.33,1221.354a21.966,21.966,0,0,1-8.433,3.8c-.083-1.519-.118-2.915-.083-4.063Z" transform="translate(-1716.587 -1047.633)" fill="#233862"/>
        <path id="Trazado_698466" data-name="Trazado 698466" d="M1856.8,1178.56c-.064-.069-.9-2.86-2.343-2.656-.942.133-2.481.678-2.072,1.919.16.488,3.03,2.168,3.03,2.168Z" transform="translate(-1589.197 -1008.858)" fill="#ffb27d"/>
        <path id="Trazado_698467" data-name="Trazado 698467" d="M1900.056,1172.237a3.357,3.357,0,0,1-.352,5.954l-.154.064c-3.843,1.542-15.278,1.713-17.873,1.428-2.815-.308-8.833-3.766-8.833-3.766s.529-1.937,1.624-2.242a66.759,66.759,0,0,0,8.8,1.942c1.546.089,12.795-5.919,14.874-4.567.55.358,1.222.771,1.915,1.185" transform="translate(-1606.806 -1004.534)" fill="#2b478b"/>
        <path id="Trazado_698468" data-name="Trazado 698468" d="M1513.638,1412.489l-26.015,1.279v-26.015l26.015-1.279Z" transform="translate(-1276.306 -1189.525)" fill="#f9dec7"/>
        <path id="Trazado_698469" data-name="Trazado 698469" d="M1501.378,1471.062l7.685-14.231,5.65,7.429,2.821-3.223,5.979,8.937Z" transform="translate(-1288.107 -1249.888)" fill="#fff7f0"/>
        <path id="Trazado_698470" data-name="Trazado 698470" d="M1581.25,1428.949a2.112,2.112,0,0,1,1.989-2.086,1.876,1.876,0,0,1,1.988,1.891,2.111,2.111,0,0,1-1.988,2.086,1.876,1.876,0,0,1-1.989-1.891" transform="translate(-1356.633 -1224.175)" fill="#fff7f0"/>
        <path id="Trazado_698471" data-name="Trazado 698471" d="M1988.617,642.984l-37.479,1.842V607.347l37.479-1.842Z" transform="translate(-1673.979 -519.493)" fill="#f9dec7"/>
        <path id="Trazado_698472" data-name="Trazado 698472" d="M1970.955,727.366l11.071-20.5,8.139,10.7,4.065-4.643,8.613,12.875Z" transform="translate(-1690.981 -606.454)" fill="#fff7f0"/>
        <path id="Trazado_698473" data-name="Trazado 698473" d="M2086.024,666.7a3.042,3.042,0,0,1,2.865-3.006,2.7,2.7,0,0,1,2.865,2.724,3.041,3.041,0,0,1-2.865,3.005,2.7,2.7,0,0,1-2.865-2.724" transform="translate(-1789.704 -569.412)" fill="#fff7f0"/>
        <path id="Trazado_698474" data-name="Trazado 698474" d="M1524.272,1055.515l-36.648,1.8v-2.135l36.648-1.8Z" transform="translate(-1276.307 -903.748)" fill="#ffa031"/>
        <path id="Trazado_698475" data-name="Trazado 698475" d="M1507.271,1098.263l-19.647.966v-1.068l19.647-.966Z" transform="translate(-1276.307 -941.339)" fill="#f9dec7"/>
        <path id="Trazado_698476" data-name="Trazado 698476" d="M1501.512,1125.255l-13.889.683v-1.067l13.889-.683Z" transform="translate(-1276.307 -964.497)" fill="#f9dec7"/>
        <path id="Trazado_698477" data-name="Trazado 698477" d="M1618.27,1119.516l-13.889.683v-1.067l13.889-.683Z" transform="translate(-1376.479 -959.574)" fill="#f9dec7"/>
        <path id="Trazado_698478" data-name="Trazado 698478" d="M1733.009,1112.977l-16.923.832v-1.067l16.923-.832Z" transform="translate(-1472.316 -953.963)" fill="#f9dec7"/>
        <path id="Trazado_698479" data-name="Trazado 698479" d="M1499.681,1150.376l-12.057.593V1149.9l12.057-.593Z" transform="translate(-1276.307 -986.05)" fill="#f9dec7"/>
        <path id="Trazado_698480" data-name="Trazado 698480" d="M1601.044,1145.395l-12.058.593v-1.067l12.058-.593Z" transform="translate(-1363.271 -981.776)" fill="#f9dec7"/>
        <path id="Trazado_698481" data-name="Trazado 698481" d="M1700.656,1139.717l-14.692.722v-1.067l14.692-.722Z" transform="translate(-1446.473 -976.904)" fill="#f9dec7"/>
        <path id="Trazado_698482" data-name="Trazado 698482" d="M1524.272,885.932l-36.648,1.8V885.6l36.648-1.8Z" transform="translate(-1276.307 -758.254)" fill="#ffa031"/>
        <path id="Trazado_698483" data-name="Trazado 698483" d="M1507.271,928.68l-19.647.965v-1.067l19.647-.966Z" transform="translate(-1276.307 -795.845)" fill="#f9dec7"/>
        <path id="Trazado_698484" data-name="Trazado 698484" d="M1672.439,920.562l-19.647.966V920.46l19.647-.966Z" transform="translate(-1418.013 -788.88)" fill="#f9dec7"/>
        <path id="Trazado_698485" data-name="Trazado 698485" d="M1501.512,955.672l-13.889.683v-1.067l13.889-.683Z" transform="translate(-1276.307 -819.003)" fill="#f9dec7"/>
        <path id="Trazado_698486" data-name="Trazado 698486" d="M1618.27,949.934l-13.889.683v-1.068l13.889-.683Z" transform="translate(-1376.479 -814.08)" fill="#f9dec7"/>
        <path id="Trazado_698487" data-name="Trazado 698487" d="M1733.009,943.394l-16.923.832v-1.067l16.923-.832Z" transform="translate(-1472.316 -808.469)" fill="#f9dec7"/>
        <path id="Trazado_698488" data-name="Trazado 698488" d="M1499.681,980.793l-12.057.593v-1.067l12.057-.593Z" transform="translate(-1276.307 -840.556)" fill="#f9dec7"/>
        <path id="Trazado_698489" data-name="Trazado 698489" d="M1601.044,975.812l-12.058.593v-1.067l12.058-.593Z" transform="translate(-1363.271 -836.282)" fill="#f9dec7"/>
        <path id="Trazado_698490" data-name="Trazado 698490" d="M1700.656,970.134l-14.692.722v-1.068l14.692-.722Z" transform="translate(-1446.473 -831.411)" fill="#f9dec7"/>
        <path id="Trazado_698491" data-name="Trazado 698491" d="M1975.436,910.669l-25.781,1.267v-1.5l25.781-1.267Z" transform="translate(-1672.707 -780.021)" fill="#ffa031"/>
        <path id="Trazado_698492" data-name="Trazado 698492" d="M1963.477,940.741l-13.821.679v-.751l13.821-.679Z" transform="translate(-1672.707 -806.464)" fill="#f9dec7"/>
        <path id="Trazado_698493" data-name="Trazado 698493" d="M2079.665,935.031l-13.821.679v-.751l13.821-.679Z" transform="translate(-1772.39 -801.565)" fill="#f9dec7"/>
        <path id="Trazado_698494" data-name="Trazado 698494" d="M1959.426,959.729l-9.77.48v-.751l9.77-.48Z" transform="translate(-1672.707 -822.756)" fill="#f9dec7"/>
        <path id="Trazado_698495" data-name="Trazado 698495" d="M2041.561,955.692l-9.77.48v-.751l9.77-.48Z" transform="translate(-1743.175 -819.292)" fill="#f9dec7"/>
        <path id="Trazado_698496" data-name="Trazado 698496" d="M2122.275,951.091l-11.9.585v-.751l11.9-.585Z" transform="translate(-1810.592 -815.345)" fill="#f9dec7"/>
        <path id="Trazado_698497" data-name="Trazado 698497" d="M1958.138,977.4l-8.482.417v-.751l8.482-.417Z" transform="translate(-1672.707 -837.916)" fill="#f9dec7"/>
        <path id="Trazado_698498" data-name="Trazado 698498" d="M2029.442,973.9l-8.482.417v-.751l8.482-.417Z" transform="translate(-1733.883 -834.91)" fill="#f9dec7"/>
        <path id="Trazado_698499" data-name="Trazado 698499" d="M2099.515,969.9l-10.335.508v-.751l10.335-.508Z" transform="translate(-1792.411 -831.483)" fill="#f9dec7"/>
        <path id="Trazado_698500" data-name="Trazado 698500" d="M1524.272,1232.417l-36.648,1.8v-2.135l36.648-1.8Z" transform="translate(-1276.307 -1055.521)" fill="#ffa031"/>
        <path id="Trazado_698501" data-name="Trazado 698501" d="M1507.271,1275.163l-19.647.965v-1.067l19.647-.966Z" transform="translate(-1276.307 -1093.111)" fill="#f9dec7"/>
        <path id="Trazado_698502" data-name="Trazado 698502" d="M1672.439,1267.046l-19.647.965v-1.067l19.647-.966Z" transform="translate(-1418.013 -1086.147)" fill="#f9dec7"/>
        <path id="Trazado_698503" data-name="Trazado 698503" d="M1501.512,1302.156l-13.889.683v-1.068l13.889-.682Z" transform="translate(-1276.307 -1116.269)" fill="#f9dec7"/>
        <path id="Trazado_698504" data-name="Trazado 698504" d="M1618.27,1296.418l-13.889.683v-1.068l13.889-.682Z" transform="translate(-1376.479 -1111.346)" fill="#f9dec7"/>
        <path id="Trazado_698505" data-name="Trazado 698505" d="M1733.009,1289.878l-16.923.832v-1.067l16.923-.832Z" transform="translate(-1472.316 -1105.735)" fill="#f9dec7"/>
        <path id="Trazado_698506" data-name="Trazado 698506" d="M1499.681,1327.277l-12.057.593V1326.8l12.057-.593Z" transform="translate(-1276.307 -1137.822)" fill="#f9dec7"/>
        <path id="Trazado_698507" data-name="Trazado 698507" d="M1601.044,1322.3l-12.058.593v-1.068l12.058-.593Z" transform="translate(-1363.271 -1133.547)" fill="#f9dec7"/>
        <path id="Trazado_698508" data-name="Trazado 698508" d="M1700.656,1316.618l-14.692.722v-1.067l14.692-.722Z" transform="translate(-1446.473 -1128.677)" fill="#f9dec7"/>
        <path id="Trazado_698509" data-name="Trazado 698509" d="M1746.3,1468.064l-28.307,1.391v-2.135l28.307-1.391Z" transform="translate(-1473.953 -1257.694)" fill="#ffa031"/>
        <path id="Trazado_698510" data-name="Trazado 698510" d="M1733.169,1509.472l-15.175.746v-1.067l15.175-.746Z" transform="translate(-1473.953 -1294.136)" fill="#f9dec7"/>
        <path id="Trazado_698511" data-name="Trazado 698511" d="M1860.744,1503.2l-15.176.746v-1.067l15.176-.746Z" transform="translate(-1583.405 -1288.757)" fill="#f9dec7"/>
        <path id="Trazado_698512" data-name="Trazado 698512" d="M1728.721,1536.011l-10.728.527v-1.067l10.728-.527Z" transform="translate(-1473.953 -1316.905)" fill="#f9dec7"/>
        <path id="Trazado_698513" data-name="Trazado 698513" d="M1818.9,1531.579l-10.728.527v-1.067l10.728-.528Z" transform="translate(-1551.324 -1313.103)" fill="#f9dec7"/>
        <path id="Trazado_698514" data-name="Trazado 698514" d="M1907.528,1526.527l-13.072.642V1526.1l13.072-.643Z" transform="translate(-1625.349 -1308.769)" fill="#f9dec7"/>
        <path id="Trazado_698515" data-name="Trazado 698515" d="M1727.306,1560.988l-9.313.458v-1.068l9.313-.458Z" transform="translate(-1473.952 -1338.334)" fill="#f9dec7"/>
        <path id="Trazado_698516" data-name="Trazado 698516" d="M1805.6,1557.141l-9.313.458v-1.067l9.313-.458Z" transform="translate(-1541.123 -1335.033)" fill="#f9dec7"/>
        <path id="Trazado_698517" data-name="Trazado 698517" d="M1882.539,1552.755l-11.348.558v-1.068l11.348-.558Z" transform="translate(-1605.388 -1331.271)" fill="#f9dec7"/>
        <path id="Trazado_698518" data-name="Trazado 698518" d="M1097.366,703.927l-40.841-1.483V661.6l40.841,1.483Z" transform="translate(-906.446 -567.623)" fill="#f9dec7"/>
        <path id="Trazado_698519" data-name="Trazado 698519" d="M1078.12,788.338l12.064-21.311,8.87,12.421,4.429-4.681,9.386,14.832Z" transform="translate(-924.973 -658.071)" fill="#fff7f0"/>
        <path id="Trazado_698520" data-name="Trazado 698520" d="M1203.511,728.337a2.989,2.989,0,0,1,3.122-3.008,3.263,3.263,0,0,1,3.122,3.235,2.989,2.989,0,0,1-3.122,3.008,3.263,3.263,0,0,1-3.122-3.235" transform="translate(-1032.552 -622.294)" fill="#fff7f0"/>
        <path id="Trazado_698521" data-name="Trazado 698521" d="M1088.336,1052l-36.649-1.331v-2.135l36.649,1.331Z" transform="translate(-902.295 -899.587)" fill="#ffa031"/>
        <path id="Trazado_698522" data-name="Trazado 698522" d="M1071.335,1088.245l-19.647-.713v-1.067l19.647.713Z" transform="translate(-902.295 -932.132)" fill="#f9dec7"/>
        <path id="Trazado_698523" data-name="Trazado 698523" d="M1065.576,1113.036l-13.889-.5v-1.067l13.889.5Z" transform="translate(-902.295 -953.581)" fill="#f9dec7"/>
        <path id="Trazado_698524" data-name="Trazado 698524" d="M1182.334,1117.275l-13.889-.5V1115.7l13.889.5Z" transform="translate(-1002.467 -957.218)" fill="#f9dec7"/>
        <path id="Trazado_698525" data-name="Trazado 698525" d="M1297.073,1121.44l-16.923-.615v-1.067l16.923.614Z" transform="translate(-1098.305 -960.696)" fill="#f9dec7"/>
        <path id="Trazado_698526" data-name="Trazado 698526" d="M1063.745,1137.456l-12.058-.438v-1.068l12.058.438Z" transform="translate(-902.295 -974.59)" fill="#f9dec7"/>
        <path id="Trazado_698527" data-name="Trazado 698527" d="M1165.108,1141.136l-12.058-.438v-1.068l12.058.438Z" transform="translate(-989.26 -977.746)" fill="#f9dec7"/>
        <path id="Trazado_698528" data-name="Trazado 698528" d="M1264.72,1144.753l-14.692-.533v-1.067l14.692.533Z" transform="translate(-1072.462 -980.768)" fill="#f9dec7"/>
        <path id="Trazado_698529" data-name="Trazado 698529" d="M1088.336,1228.9l-36.649-1.331v-2.135l36.649,1.331Z" transform="translate(-902.295 -1051.359)" fill="#ffa031"/>
        <path id="Trazado_698530" data-name="Trazado 698530" d="M1071.335,1265.146l-19.647-.713v-1.067l19.647.713Z" transform="translate(-902.295 -1083.905)" fill="#f9dec7"/>
        <path id="Trazado_698531" data-name="Trazado 698531" d="M1236.5,1271.142l-19.647-.713v-1.068l19.647.713Z" transform="translate(-1044.002 -1089.049)" fill="#f9dec7"/>
        <path id="Trazado_698532" data-name="Trazado 698532" d="M1065.576,1289.937l-13.889-.5v-1.067l13.889.5Z" transform="translate(-902.295 -1105.353)" fill="#f9dec7"/>
        <path id="Trazado_698533" data-name="Trazado 698533" d="M1182.334,1294.175l-13.889-.5V1292.6l13.889.5Z" transform="translate(-1002.467 -1108.989)" fill="#f9dec7"/>
        <path id="Trazado_698534" data-name="Trazado 698534" d="M1297.073,1298.341l-16.923-.614v-1.067l16.923.615Z" transform="translate(-1098.305 -1112.469)" fill="#f9dec7"/>
        <path id="Trazado_698535" data-name="Trazado 698535" d="M1063.745,1314.358l-12.058-.438v-1.067l12.058.438Z" transform="translate(-902.295 -1126.362)" fill="#f9dec7"/>
        <path id="Trazado_698536" data-name="Trazado 698536" d="M1165.108,1318.038l-12.058-.438v-1.068l12.058.438Z" transform="translate(-989.26 -1129.519)" fill="#f9dec7"/>
        <path id="Trazado_698537" data-name="Trazado 698537" d="M1264.72,1321.653l-14.692-.533v-1.067l14.692.533Z" transform="translate(-1072.462 -1132.539)" fill="#f9dec7"/>
        <path id="Trazado_698538" data-name="Trazado 698538" d="M721.751,612.83,685.1,611.5v-2.135l36.648,1.33Z" transform="translate(-587.784 -522.805)" fill="#ffa031"/>
        <path id="Trazado_698539" data-name="Trazado 698539" d="M704.75,649.078l-19.647-.713V647.3l19.647.713Z" transform="translate(-587.784 -555.35)" fill="#f9dec7"/>
        <path id="Trazado_698540" data-name="Trazado 698540" d="M869.918,655.075l-19.648-.713v-1.067l19.648.713Z" transform="translate(-729.489 -560.494)" fill="#f9dec7"/>
        <path id="Trazado_698541" data-name="Trazado 698541" d="M698.991,673.87l-13.889-.5V672.3l13.889.5Z" transform="translate(-587.784 -576.799)" fill="#f9dec7"/>
        <path id="Trazado_698542" data-name="Trazado 698542" d="M815.749,678.108l-13.889-.5v-1.067l13.889.5Z" transform="translate(-687.956 -580.435)" fill="#f9dec7"/>
        <path id="Trazado_698543" data-name="Trazado 698543" d="M930.489,682.274l-16.923-.614v-1.067l16.923.614Z" transform="translate(-783.794 -583.914)" fill="#f9dec7"/>
        <path id="Trazado_698544" data-name="Trazado 698544" d="M697.16,698.29l-12.058-.438v-1.067l12.058.438Z" transform="translate(-587.783 -597.807)" fill="#f9dec7"/>
        <path id="Trazado_698545" data-name="Trazado 698545" d="M798.524,701.97l-12.058-.438v-1.068l12.058.438Z" transform="translate(-674.748 -600.964)" fill="#f9dec7"/>
        <path id="Trazado_698546" data-name="Trazado 698546" d="M898.136,705.587l-14.692-.533v-1.067l14.692.533Z" transform="translate(-757.951 -603.985)" fill="#f9dec7"/>
        <path id="Trazado_698547" data-name="Trazado 698547" d="M792.046,325.079l3.216-.764,10.587,14.352-3.646.866-2.294-3.211-6.7,1.592-.6,3.9-3.556.845Zm5.885,8.459L794.6,328.9l-.885,5.641Z" transform="translate(-676.961 -278.246)" fill="#afcdfb"/>
        <path id="Trazado_698548" data-name="Trazado 698548" d="M936.871,217.695a8.595,8.595,0,0,1,15.3-4.281l-2.375,2.244a5.64,5.64,0,0,0-3.99-2.221,5.138,5.138,0,0,0-1.012,10.192,5.881,5.881,0,0,0,4.451-1.476l2.029,2.658a8.679,8.679,0,0,1-14.4-7.115" transform="translate(-803.749 -180.257)" fill="#afcdfb"/>
        <path id="Trazado_698549" data-name="Trazado 698549" d="M1282.911,224.59l7.469-1.206a5.882,5.882,0,0,1,4.435.746,4.016,4.016,0,0,1,0,6.414c1.976.412,3.3,1.307,3.656,3.513.475,2.941-1.678,4.8-5.309,5.384l-7.652,1.235Zm7.76,5.42c1.563-.252,2.469-.918,2.269-2.158-.171-1.057-1.094-1.521-2.588-1.28l-3.493.564.549,3.4Zm1.988,6.328c1.563-.252,2.416-.956,2.216-2.2-.174-1.08-1.086-1.617-2.9-1.323l-4.09.66.571,3.539Z" transform="translate(-1100.673 -191.552)" fill="#afcdfb"/>
        <path id="Trazado_698550" data-name="Trazado 698550" d="M1085.418,375.254a8.364,8.364,0,0,1,9.226-7.673,8.947,8.947,0,0,1,6.189,2.769l-2.48,2.522a6,6,0,0,0-4.1-2.008,5.158,5.158,0,0,0-.616,10.273,5.719,5.719,0,0,0,3.446-.688l.2-2.319-3.595-.306.262-3.085,7.051.6-.6,7.051a10.576,10.576,0,0,1-7.154,1.985,8.166,8.166,0,0,1-7.822-9.122" transform="translate(-931.203 -315.337)" fill="#afcdfb"/>
        <path id="Trazado_698551" data-name="Trazado 698551" d="M2407.172,445.934a8.879,8.879,0,0,1-5.026.364,8.43,8.43,0,1,1,10.238-6.447,8.238,8.238,0,0,1-2.38,4.279l1.346,1.736-2.757,2.01Zm-2.11-2.849-2.129-2.758,2.762-2.033,2.118,2.923a5.466,5.466,0,0,0,.905-2.14,4.951,4.951,0,0,0-3.768-6.032,4.886,4.886,0,0,0-5.843,4,4.951,4.951,0,0,0,3.768,6.032,5.254,5.254,0,0,0,2.187.01" transform="translate(-2055.003 -368.585)" fill="#afcdfb"/>
        <path id="Trazado_698552" data-name="Trazado 698552" d="M2221.016,290.488l3.276-.444,8.913,8.917-1.347-9.942,3.506-.475,2.188,16.147-3.022.41-9.21-9.205,1.391,10.265-3.506.475Z" transform="translate(-1905.521 -247.556)" fill="#afcdfb"/>
        <path id="Trazado_698553" data-name="Trazado 698553" d="M1472.951,362.5l3.82.4,2.217,11.323,4.781-10.643,3.056.318,2.49,11.4,4.5-10.626,3.728.387-7.23,15.748-3.1-.322-2.556-10.984-4.76,10.224-3.1-.323Z" transform="translate(-1263.719 -311.007)" fill="#afcdfb"/>
        <path id="Trazado_698554" data-name="Trazado 698554" d="M294.159,1603.245a4.536,4.536,0,0,0,.036.581,4.763,4.763,0,0,0,4.73,4.185h67.031a4.767,4.767,0,0,0,0-9.533H298.925a4.767,4.767,0,0,0-4.766,4.767" transform="translate(-252.374 -1371.414)" fill="#f78248"/>
        <path id="Trazado_698555" data-name="Trazado 698555" d="M325.735,1583.573h22.982a.732.732,0,0,0,0-1.463H325.735a.732.732,0,1,0,0,1.463" transform="translate(-278.836 -1357.371)" fill="#f78248"/>
        <rect id="Rectángulo_344717" data-name="Rectángulo 344717" width="2.491" height="0.863" transform="translate(48.168 226.201)" fill="#ea642f"/>
        <path id="Trazado_698556" data-name="Trazado 698556" d="M298.231,1648.088a4.774,4.774,0,0,0,4.188,2.486h14.2v-2.486Z" transform="translate(-255.867 -1413.977)" fill="#ea642f"/>
        <path id="Trazado_698557" data-name="Trazado 698557" d="M433.192,1601.85v2.792a3.368,3.368,0,0,1-3.369,3.37H360a3.368,3.368,0,0,1-3.369-3.37v-2.792a3.369,3.369,0,0,1,3.369-3.371h69.824a3.369,3.369,0,0,1,3.369,3.371" transform="translate(-305.97 -1371.415)" fill="#f99746"/>
        <path id="Trazado_698558" data-name="Trazado 698558" d="M433.783,1648.088a3.369,3.369,0,0,1-3.252,2.486H360.707a3.369,3.369,0,0,1-3.252-2.486Z" transform="translate(-306.678 -1413.977)" fill="#ef873a"/>
        <path id="Trazado_698559" data-name="Trazado 698559" d="M846.793,1603.263a5.3,5.3,0,0,0,1.386,3.68l.057.058a3.382,3.382,0,0,0,2.392,1.045c1.413,0,4.917-2.133,7.088-3.549,1.082-.707,1.833-1.234,1.833-1.234s-.751-.528-1.833-1.234c-2.171-1.417-5.675-3.55-7.088-3.55a3.163,3.163,0,0,0-1.173.227,3.841,3.841,0,0,0-1.616,1.275,5.262,5.262,0,0,0-.971,2.333.271.271,0,0,0,0,.031,5.91,5.91,0,0,0-.071.918" transform="translate(-726.506 -1371.415)" fill="#cde0fb"/>
        <path id="Trazado_698560" data-name="Trazado 698560" d="M846.793,1626.615a5.3,5.3,0,0,0,1.386,3.68l10.747-3.7-12.062-.9a5.91,5.91,0,0,0-.071.918" transform="translate(-726.506 -1394.767)" fill="#a6c7ed"/>
        <path id="Trazado_698561" data-name="Trazado 698561" d="M854.155,1601.354l10.721,2.928-9.1-4.2a3.844,3.844,0,0,0-1.616,1.276" transform="translate(-732.822 -1372.787)" fill="#e3f0ff"/>
        <path id="Trazado_698562" data-name="Trazado 698562" d="M918.767,1624.7a1.323,1.323,0,0,0,.7,1.234c1.082-.706,1.833-1.234,1.833-1.234s-.751-.528-1.833-1.234a1.321,1.321,0,0,0-.7,1.234" transform="translate(-788.256 -1392.856)" fill="#f99746"/>
        <path id="Trazado_698563" data-name="Trazado 698563" d="M695.651,1122.241h0a1.235,1.235,0,0,0,1.124-.781l28.89-88.756a.584.584,0,0,0-.612-.792,1.236,1.236,0,0,0-1.124.781l-28.89,88.756a.584.584,0,0,0,.612.792" transform="translate(-596.276 -885.33)" fill="#233862"/>
        <path id="Trazado_698564" data-name="Trazado 698564" d="M531.742,1121.283h0a1.235,1.235,0,0,0,1.124-.781l28.89-88.755a.584.584,0,0,0-.612-.792,1.236,1.236,0,0,0-1.124.781l-28.89,88.756a.584.584,0,0,0,.612.791" transform="translate(-455.651 -884.508)" fill="#233862"/>
        <path id="Trazado_698565" data-name="Trazado 698565" d="M708.449,1114.623l23.38.137a1.17,1.17,0,0,0,1.061-.738.552.552,0,0,0-.578-.747l-23.38-.137a1.17,1.17,0,0,0-1.061.738.552.552,0,0,0,.578.747" transform="translate(-607.289 -955.017)" fill="#233862"/>
        <path id="Trazado_698566" data-name="Trazado 698566" d="M672.94,1223.715l23.38.136a1.17,1.17,0,0,0,1.061-.737.552.552,0,0,0-.578-.747l-23.38-.137a1.17,1.17,0,0,0-1.061.738.552.552,0,0,0,.578.747" transform="translate(-576.823 -1048.612)" fill="#233862"/>
        <path id="Trazado_698567" data-name="Trazado 698567" d="M638.741,1328.783l23.38.136a1.17,1.17,0,0,0,1.061-.738.552.552,0,0,0-.578-.747l-23.38-.137a1.17,1.17,0,0,0-1.061.738.552.552,0,0,0,.578.747" transform="translate(-547.482 -1138.755)" fill="#233862"/>
        <path id="Trazado_698568" data-name="Trazado 698568" d="M600.24,1447.067l23.38.137a1.17,1.17,0,0,0,1.061-.738.552.552,0,0,0-.578-.747l-23.38-.136a1.17,1.17,0,0,0-1.061.738.552.552,0,0,0,.578.747" transform="translate(-514.451 -1240.238)" fill="#233862"/>
        <path id="Trazado_698569" data-name="Trazado 698569" d="M559.943,1570.87l23.38.137a1.171,1.171,0,0,0,1.061-.738.552.552,0,0,0-.578-.747l-23.38-.136a1.17,1.17,0,0,0-1.061.737.552.552,0,0,0,.578.747" transform="translate(-479.877 -1346.455)" fill="#233862"/>
        <path id="Trazado_698570" data-name="Trazado 698570" d="M868.059,884.492s.276-.622.455-.916.944-1.157,1.074-.962.651,1.51.374,1.878.018,1.009-1.358,1.4Z" transform="translate(-744.751 -757.215)" fill="#ffb27d"/>
        <path id="Trazado_698571" data-name="Trazado 698571" d="M760.408,868.368s7.044,5.88,9.791,5.336a54.192,54.192,0,0,0,5.444-1.556l.659,1.686s-2.956,4.01-6.038,4.036a17.559,17.559,0,0,1-8.377-2.086Z" transform="translate(-652.392 -745.017)" fill="#ef7e29"/>
        <path id="Trazado_698572" data-name="Trazado 698572" d="M673.441,1298.568s.2,3.3.843,3.346c.085.006,3.237.006,3.237.006l4.024-.023a1.306,1.306,0,0,0-1.2-1.175,5.454,5.454,0,0,1-3.857-2.586c-.749-1.635-3.043.432-3.043.432" transform="translate(-577.779 -1113.197)" fill="#1c3d72"/>
        <path id="Trazado_698573" data-name="Trazado 698573" d="M671.809,1060.627a8.389,8.389,0,0,0,2.178.409,8,8,0,0,0,2.034-.29,55.655,55.655,0,0,1,1.5-7.134c.664-2.572,1.613-5.879,2.963-9.987A135.213,135.213,0,0,0,685.451,1025c.006-.033.008-.05.008-.05l-.012-.005-11.474-5.038s1.418,15.651-.391,21.659a25.33,25.33,0,0,0-.657,2.878,115.368,115.368,0,0,0-1.116,16.187" transform="translate(-576.378 -875.026)" fill="#2b478b"/>
        <path id="Trazado_698574" data-name="Trazado 698574" d="M688.159,1053.611c.664-2.572,1.613-5.879,2.963-9.988a135.235,135.235,0,0,0,4.971-18.629c0-.019,0-.036,0-.055l-11.474-5.038s1.418,15.651-.391,21.659c-.254.839,3.936,12.05,3.936,12.05" transform="translate(-587.02 -875.025)" fill="#233862"/>
        <path id="Trazado_698575" data-name="Trazado 698575" d="M736.531,1298.568s.2,3.3.843,3.346c.085.006,3.237.006,3.237.006l4.023-.023a1.306,1.306,0,0,0-1.2-1.175,5.454,5.454,0,0,1-3.857-2.586c-.749-1.635-3.043.432-3.043.432" transform="translate(-631.907 -1113.197)" fill="#1c3d72"/>
        <path id="Trazado_698576" data-name="Trazado 698576" d="M708.645,1022.5a163.352,163.352,0,0,1-1.606,22.6c-1.755,12.453-1.16,17.739-1.16,17.739a11.98,11.98,0,0,1-1.692.43,7.674,7.674,0,0,1-2.51-.291s-2.512-12.457-1.792-18.69-3.439-21.388-3.439-21.388Z" transform="translate(-597.515 -877.252)" fill="#2b478b"/>
        <path id="Trazado_698577" data-name="Trazado 698577" d="M725.051,825.134l2.24,1.469,2.04-.577a4.874,4.874,0,0,0,.477-2.446,15.185,15.185,0,0,0-.08-1.629l-3.022-1.334-1.128-.5c0,.017.088.926.1,1.058a7.715,7.715,0,0,1-.627,3.955" transform="translate(-622.057 -703.622)" fill="#ffb27d"/>
        <path id="Trazado_698578" data-name="Trazado 698578" d="M697.283,876.83c-2.788,2.692-13.338,2.239-13.989-.727s.709-25.245,5.471-26.645c.988-.291,6.271,1.417,6.271,1.417a33.508,33.508,0,0,1,1.373,4.93c.106.538.414,6.231.644,11.557.108,2.491.2,4.9.245,6.668a19.239,19.239,0,0,1-.015,2.8" transform="translate(-586.102 -728.764)" fill="#f99746"/>
        <path id="Trazado_698579" data-name="Trazado 698579" d="M730.539,824.219c.613,1.037,2.764,1.944,3.9,2.359a15.248,15.248,0,0,0-.08-1.629l-3.022-1.334c-.668-.009-1.075.141-.8.6" transform="translate(-626.693 -706.621)" fill="#fca56b"/>
        <path id="Trazado_698580" data-name="Trazado 698580" d="M724.99,783.312s-4.869,1.519-5.768-1.528-2.133-4.9.938-6,4.021-.115,4.568.829,1.506,6.226.263,6.7" transform="translate(-616.18 -665.167)" fill="#ffb27d"/>
        <path id="Trazado_698581" data-name="Trazado 698581" d="M711.742,766.271s-.31,3.545-1.044,3.391-1.54-.483-1.433.586-.713,2.9-1.77,2.9c-2.268-.009-4.731-5.828-4.11-6.931,1.791-3.183,10.946-3.826,8.357.058" transform="translate(-603.386 -655.12)" fill="#163560"/>
        <path id="Trazado_698582" data-name="Trazado 698582" d="M727.7,841.171c-.063-.026-3.625-1.624-4.041-1.487s-.936,1.41-.936,1.41L729,842.512a3.114,3.114,0,0,0-1.295-1.341" transform="translate(-620.064 -720.4)" fill="#ef7e29"/>
        <path id="Trazado_698583" data-name="Trazado 698583" d="M781.995,960.137l-19.966,18.8c-.391.369-.885.486-1.1.261l-.674-.716c-.212-.225-.065-.71.326-1.079l19.966-18.8c.391-.368.885-.486,1.1-.261l.674.716c.212.225.065.71-.326,1.079" transform="translate(-652.18 -822.112)" fill="#1f4d84"/>
        <path id="Trazado_698584" data-name="Trazado 698584" d="M770.791,1036.667l-8.761,8.249c-.391.368-.885.486-1.1.261l-.674-.716c-.212-.225-.065-.711.327-1.079l8.761-8.249Z" transform="translate(-652.181 -888.093)" fill="#f78248"/>
        <path id="Trazado_698585" data-name="Trazado 698585" d="M877.459,799.609A15.649,15.649,0,1,0,903.4,783.883c-.08-.08-.162-.159-.246-.237a15.65,15.65,0,0,0-25.692,15.963m4.473-14.443a14.414,14.414,0,1,1,.621,20.375,14.4,14.4,0,0,1-.621-20.375" transform="translate(-752.233 -668.681)" fill="#1f4d84"/>
        <g id="Grupo_998539" data-name="Grupo 998539" transform="translate(125.782 111.948)" opacity="0.5">
          <g id="Grupo_998538" data-name="Grupo 998538">
            <g id="Grupo_998537" data-name="Grupo 998537" clip-path="url(#clip-path-3)">
              <path id="Trazado_698586" data-name="Trazado 698586" d="M910.385,812.381a14.415,14.415,0,1,1-.621-20.374,14.355,14.355,0,0,1,.621,20.374" transform="translate(-885.474 -788.092)" fill="#b3cff9"/>
            </g>
          </g>
        </g>
        <path id="Trazado_698587" data-name="Trazado 698587" d="M721.765,912.115c-11-7.839-10.086-18.3-10.086-18.3,4.021,2.268,8.011,7.282,9.841,11.632.108,2.491.2,4.9.245,6.668" transform="translate(-610.569 -766.849)" fill="#ef7e29"/>
        <path id="Trazado_698588" data-name="Trazado 698588" d="M851.28,992.268a3,3,0,0,0,1.405-.868s.331.023-.054.728c-.032.059-.1.211-.158.318a.068.068,0,0,0,.057.1,7.317,7.317,0,0,1,1.76.037c.119.025.153.31.149.431a1.1,1.1,0,0,1-.232.751,3.839,3.839,0,0,1-1.39.728,4.2,4.2,0,0,1-2.151-.27l-.7-.326.218-1.309.177.037c.281.059.629-.284.922-.356" transform="translate(-729.226 -850.572)" fill="#f99746"/>
        <path id="Trazado_698589" data-name="Trazado 698589" d="M713.82,859.641s-9.885,1.882,2.908,16.2c2.046,2.289,13.1,5.27,13.1,5.27s1.121-.954.556-1.726c0,0-7.611-5.527-9.286-6.406-.753-.4-2.924-8.821-4.152-10.851a5.536,5.536,0,0,0-3.127-2.484" transform="translate(-609.296 -737.529)" fill="#f99746"/>
        <path id="Trazado_698590" data-name="Trazado 698590" d="M869.946,882.678a5.046,5.046,0,0,0,.386-.944,5.213,5.213,0,0,1,.638-1.444c.067-.067.288.02.315.308a1.675,1.675,0,0,1-.159.625,7.055,7.055,0,0,0-.209,1.242c-.153.5-.971.213-.971.213" transform="translate(-746.37 -755.227)" fill="#ffb27d"/>
        <path id="Trazado_698591" data-name="Trazado 698591" d="M412.937,1666.311l-396.693-.137a.539.539,0,0,1-.537-.537v-.423a.538.538,0,0,1,.537-.537l396.693.137a.538.538,0,0,1,.537.537v.424a.539.539,0,0,1-.537.536" transform="translate(-13.477 -1428.21)" fill="#2e3552"/>
      </g>
    </g>
  </g>
</svg>
