<svg id="Grupo_1000136" data-name="Grupo 1000136" xmlns="http://www.w3.org/2000/svg" xmlns:xlink="http://www.w3.org/1999/xlink" width="206.815" height="210.37" viewBox="0 0 206.815 210.37">
  <defs>
    <clipPath id="clip-path">
      <rect id="Rectángulo_345524" data-name="Rectángulo 345524" width="206.815" height="210.37" fill="none"/>
    </clipPath>
  </defs>
  <g id="Grupo_1000135" data-name="Grupo 1000135" clip-path="url(#clip-path)">
    <path id="Trazado_705272" data-name="Trazado 705272" d="M67.188,86.527c40.508,19.859,89.491,4.447,89.491,4.447s.515-81.962-44.632-72.445c-38.629-12.931-44.859,68-44.859,68" fill="#a3333b"/>
    <path id="Trazado_705273" data-name="Trazado 705273" d="M128.865,94.518c20.529,9.12,36.048,68.362,37.593,80.159.737,5.623-11.023,10.213-15.35-2s-13.628-39.872-18.353-44.621-3.89-33.54-3.89-33.54" fill="#edb984"/>
    <path id="Trazado_705274" data-name="Trazado 705274" d="M128.865,94.518s-.107,3.738-.025,8.735c3.416.025,6.743-.07,9.959-.285-3.14-3.933-6.465-6.909-9.934-8.45" fill="#e79b69"/>
    <path id="Trazado_705275" data-name="Trazado 705275" d="M132,129.78c4.794,4.592,14.5,31.344,19,43.152,2.113,5.541,5.8,7.478,9.046,7.44-1.681-10.617-14.846-56.84-32.259-72.891.342,8.455,1.342,19.548,4.214,22.3" fill="#e79b69"/>
    <path id="Trazado_705276" data-name="Trazado 705276" d="M96.721,92.355c-20.747,8.871-37.683,66.494-39.51,77.97-.87,5.469,10.78,9.933,15.4-1.944s14.581-38.783,19.42-43.4,4.692-32.624,4.692-32.624" fill="#edb984"/>
    <path id="Trazado_705277" data-name="Trazado 705277" d="M96.721,92.355a24.658,24.658,0,0,0-7.4,5.253Q92.85,98.63,96.589,99.5c.146-4.164.132-7.141.132-7.141" fill="#e79b69"/>
    <path id="Trazado_705278" data-name="Trazado 705278" d="M64.435,175.825c3.075-.314,6.369-2.288,8.384-7.082,4.77-11.348,15.158-37.289,20.114-41.637C97.042,123.5,98,103.584,98.2,96.883,79.6,115.648,66.01,165.2,64.466,175.449a3.687,3.687,0,0,0-.031.376" fill="#e79b69"/>
    <path id="Trazado_705279" data-name="Trazado 705279" d="M87.34,209.068h60.99l-14.1-67.074-37.045-.08Z" fill="#ff3e4c"/>
    <path id="Trazado_705280" data-name="Trazado 705280" d="M116.143,167.563c14.572.091,27.894,17.818,30.3,41.506h1.89l-14.1-67.074-37.045-.08L87.34,209.069h1.3c.684-23.885,12.867-41.6,27.5-41.506" fill="#d12439"/>
    <path id="Trazado_705281" data-name="Trazado 705281" d="M96.721,92.355c-8.7,22.984-11.3,56-9.824,59.53s53.359,2.381,54.838-.44-9.658-52.631-11.877-56.157-32.064-5.767-33.137-2.933" fill="#ff3e4c"/>
    <path id="Trazado_705282" data-name="Trazado 705282" d="M132.383,103.323c-1.12-4.252-2.037-7.261-2.525-8.035a2.108,2.108,0,0,0-.651-.591,5.132,5.132,0,0,0-.487-.274l-.046-.025c-.173-.086-.365-.17-.568-.253l-.087-.037c-.2-.081-.419-.16-.647-.239l-.119-.041c-.228-.077-.47-.152-.721-.226-.05-.015-.1-.03-.149-.044-.252-.073-.516-.145-.79-.215l-.174-.045c-.274-.069-.558-.137-.85-.2l-.2-.045q-.443-.1-.909-.194l-.209-.041c-.318-.064-.642-.126-.974-.186l-.2-.036c-.339-.06-.683-.12-1.034-.177l-.205-.033c-.357-.057-.719-.114-1.087-.168l-.18-.026q-.573-.083-1.157-.161l-.121-.015c-2.181-.286-4.486-.516-6.747-.677l-.039,0c-.334-.023-.666-.044-1-.064l-.428-.027c-.287-.017-.571-.031-.855-.046l-.549-.027c-.256-.012-.508-.021-.76-.031l-.618-.023-.686-.018c-.217,0-.435-.011-.648-.014s-.422-.006-.631-.008-.438,0-.653,0l-.582,0c-.215,0-.429,0-.638.008-.184,0-.365.007-.544.012-.2.006-.406.012-.6.02l-.5.022q-.29.015-.567.033c-.155.01-.309.021-.459.033-.18.014-.352.03-.523.046-.139.014-.278.027-.41.042-.164.019-.319.04-.473.062-.121.016-.244.033-.359.051-.147.024-.282.051-.417.077-.1.02-.208.04-.3.062-.128.029-.241.061-.355.094-.082.023-.17.045-.244.069-.108.036-.2.075-.288.114-.06.026-.128.05-.181.076a1.552,1.552,0,0,0-.22.144c-.034.025-.079.047-.108.073a.656.656,0,0,0-.176.241l0,0c-.8,2.12-1.552,4.326-2.253,6.586a81,81,0,0,0,19.008,4.38,81.632,81.632,0,0,0,18.907,0" fill="#d12439"/>
    <path id="Trazado_705283" data-name="Trazado 705283" d="M98.878,91.428c-3.827,22.247-3.937,44.239-2.915,45.262,1.191,1.19,33.505.85,35.205-.851,1.183-1.182-3.062-26.951-5.758-42.543-7.269-1.83-21.175-2.792-26.532-1.868" fill="#edb984"/>
    <path id="Trazado_705284" data-name="Trazado 705284" d="M132.683,104.019c3.177,15.732,7.305,42.49,6.223,44.517-1.485,2.784-48.627,4.8-50.1,1.321-1.014-2.4-.855-19.876,2.2-37.932-4.337,19.141-5.793,38.382-4.7,40.986,1.479,3.527,55.045,2.162,56.524-.66,1.139-2.174-5.863-32.714-10.152-48.232" fill="#d12439"/>
    <path id="Trazado_705285" data-name="Trazado 705285" d="M155.8,209.068h12.3c.616-13.523.448-26.872-1.688-34.923a6.436,6.436,0,0,0-7.706-4.785c-3.167.81-6.329,3.764-6.006,12.459.173,4.655,1.488,15.39,3.1,27.249" fill="#edb984"/>
    <path id="Trazado_705286" data-name="Trazado 705286" d="M158.483,169.426c-3.092.891-6.1,3.9-5.787,12.393.173,4.656,1.488,15.391,3.1,27.25h5.394c.215-3.343.336-6.865.336-10.521,0-11.727-1.186-22.2-3.046-29.122" fill="#e79b69"/>
    <path id="Trazado_705287" data-name="Trazado 705287" d="M49.441,84.768c-1.218-1.541-7.191.42-7.552,1.936-.305,1.279-1.443,4.546,5.374,13.046l2.59-.709s.806-12.732-.412-14.273" fill="#e79b69"/>
    <path id="Trazado_705288" data-name="Trazado 705288" d="M59.99,175.249C48.764,161.29,46.811,93.537,46.811,93.537L47.973,92.5s19.284,56.693,21.92,69.151c3.446,16.287-9.9,13.594-9.9,13.594" fill="#edb984"/>
    <path id="Trazado_705289" data-name="Trazado 705289" d="M68.708,163.8c-5.693,1.268-14.5-16.373-20-39.779,1.791,19.92,5.152,43.6,11.287,51.226,0,0,12.6,2.538,10.152-12.259a3.031,3.031,0,0,1-1.435.812" fill="#e79b69"/>
    <path id="Trazado_705290" data-name="Trazado 705290" d="M48.937,91.24a5.7,5.7,0,0,0-1.864,7.346l2.753,1.52c1.4-1.775,1.422-6.013,3.091-7.447,1.328-1.144-1.7-2.1-3.98-1.419" fill="#edb984"/>
    <path id="Trazado_705291" data-name="Trazado 705291" d="M56.532,87.64c-1.3.125-4.683,2.575-4.683,2.575l-1.929.779,1.448,2.515c6.442-3.292,6.468-5.994,5.164-5.869" fill="#edb984"/>
    <path id="Trazado_705292" data-name="Trazado 705292" d="M45.777,86.929c-.4-1.84-1.123-2.459-1.818-2.308s-1.1,1.014-.7,2.854,1.123,2.459,1.819,2.308,1.1-1.014.7-2.854" fill="#edb984"/>
    <path id="Trazado_705293" data-name="Trazado 705293" d="M47.84,86.03c-.463-2.136-1.213-2.874-1.908-2.723s-1.074,1.132-.611,3.268,1.149,2.4,1.845,2.254,1.137-.663.674-2.8" fill="#edb984"/>
    <path id="Trazado_705294" data-name="Trazado 705294" d="M48.3,77.908c-.463-2.136-1.163-2.9-1.859-2.751s-.769.959-.306,3.1c.192.884,1.177,6.851,1.442,7.292.377.626.8.843,1.212.754s.726-.487.8-1.261c.047-.5-1.1-6.287-1.286-7.129" fill="#edb984"/>
    <path id="Trazado_705295" data-name="Trazado 705295" d="M41.124,81.439c-.782-2.041-1.59-2.691-2.255-2.437s-.614,1.065.168,3.106c.323.844,2.2,6.593,2.533,6.988.468.561.923.711,1.312.561s.644-.592.6-1.367c-.03-.5-2.047-6.047-2.355-6.851" fill="#edb984"/>
    <path id="Trazado_705296" data-name="Trazado 705296" d="M125.41,93.3c-7.261-1.829-21.165-2.793-26.531-1.873-.5,2.882-.933,5.76-1.309,8.589a83.835,83.835,0,0,0,15.9,3.309,85.54,85.54,0,0,0,13.711.447c-.617-3.717-1.228-7.3-1.776-10.472" fill="#e79b69"/>
    <path id="Trazado_705297" data-name="Trazado 705297" d="M119.586,64.786l-13.051-1.9-1.816,28.52c-.329,8.189,15.873,8.839,16.2.65Z" fill="#d27558"/>
    <path id="Trazado_705298" data-name="Trazado 705298" d="M113.59,89.341c-19.912-9.888-19.2-28.187-19.075-38.72s7.319-17.968,18.353-17.968,18.282,6.17,18.083,23.445c-.251,21.91-17.361,33.243-17.361,33.243" fill="#edb984"/>
    <path id="Trazado_705299" data-name="Trazado 705299" d="M93.385,62.731c-.881-2.974-2.511-5.192-3.641-4.954s-1.331,2.844-.45,5.818,2.511,5.193,3.641,4.954,1.331-2.843.45-5.818" fill="#edb984"/>
    <path id="Trazado_705300" data-name="Trazado 705300" d="M131.921,62.731c.881-2.974,2.511-5.192,3.641-4.954s1.331,2.844.45,5.818-2.511,5.193-3.641,4.954-1.331-2.843-.45-5.818" fill="#edb984"/>
    <path id="Trazado_705301" data-name="Trazado 705301" d="M106.951,59.167c-.16-2.044-1.52-3.681-3.038-3.656s-2.617,1.7-2.457,3.747,1.521,3.681,3.038,3.656,2.617-1.7,2.457-3.747" fill="#5a4949"/>
    <path id="Trazado_705302" data-name="Trazado 705302" d="M105.772,50.317l-5.717,1.495c-.481.126-.752.5-.605.844L100,53.939a.971.971,0,0,0,1.137.389l5.718-1.494c.48-.126.751-.5.6-.844l-.554-1.284a.972.972,0,0,0-1.137-.389" fill="#a3333b"/>
    <path id="Trazado_705303" data-name="Trazado 705303" d="M123.592,59.432c-.15-1.83-1.479-3.295-2.969-3.271s-2.576,1.526-2.427,3.356,1.479,3.3,2.969,3.271,2.577-1.526,2.427-3.356" fill="#5a4949"/>
    <path id="Trazado_705304" data-name="Trazado 705304" d="M125.105,52.506l-5.469-2.253a.948.948,0,0,0-1.165.234l-.693,1.2c-.184.319.04.731.5.92l5.469,2.253a.947.947,0,0,0,1.165-.234l.693-1.2c.184-.318-.04-.731-.5-.92" fill="#a3333b"/>
    <path id="Trazado_705305" data-name="Trazado 705305" d="M111.092,66.431a3.938,3.938,0,0,1-1.784-1.758l-.062.005s.716,2.132,2.094,2.787,2.561-.718,4.14-3.282c-1.695,1.887-3.035,2.814-4.388,2.248" fill="#d27558"/>
    <path id="Trazado_705306" data-name="Trazado 705306" d="M118.62,71.824l-12.064.034a6.85,6.85,0,0,0,5.63,6.235c5.546,1.336,6.434-6.269,6.434-6.269" fill="#3e2d34"/>
    <path id="Trazado_705307" data-name="Trazado 705307" d="M116.6,75.309a9.479,9.479,0,0,0,.919-2.936l-9.74.027a5.488,5.488,0,0,0,.993,2.759Z" fill="#f9eddb"/>
    <path id="Trazado_705308" data-name="Trazado 705308" d="M102.5,48.783c7.205-7.06,10.919-15.9,8.295-19.734S100.2,27.822,93,34.882,82.08,50.778,84.7,54.617s10.591,1.226,17.8-5.834" fill="#a3333b"/>
    <path id="Trazado_705309" data-name="Trazado 705309" d="M116.725,43.135c5.563,8.415,13.532,13.74,17.8,11.893s3.217-10.166-2.347-18.58-13.532-13.74-17.8-11.893-3.216,10.165,2.347,18.58" fill="#a3333b"/>
    <path id="Trazado_705310" data-name="Trazado 705310" d="M125.41,93.3c-.184-.046-.389-.089-.581-.135,2.522,15.679,6.259,40.166,5.182,41.318-1.589,1.7-31.781,2.041-32.893.85-.938-1-.854-22.195,2.528-44.007-.266.033-.535.066-.768.106-3.827,22.246-3.938,44.239-2.915,45.262,1.191,1.19,33.5.85,35.205-.851,1.183-1.182-3.062-26.951-5.758-42.543" fill="#e79b69"/>
    <path id="Trazado_705311" data-name="Trazado 705311" d="M112.8,127.676c.17.85-1.871,9.354-1.871,9.354l5.1-.34Z" fill="#e79b69"/>
  </g>
</svg>
