<svg id="Grupo_1000145" data-name="Grupo 1000145" xmlns="http://www.w3.org/2000/svg" xmlns:xlink="http://www.w3.org/1999/xlink" width="206.815" height="210.37" viewBox="0 0 206.815 210.37">
  <defs>
    <clipPath id="clip-path">
      <rect id="Rectángulo_345529" data-name="Rectángulo 345529" width="206.815" height="210.37" fill="none"/>
    </clipPath>
  </defs>
  <g id="Grupo_1000144" data-name="Grupo 1000144" clip-path="url(#clip-path)">
    <path id="Trazado_705361" data-name="Trazado 705361" d="M133.788,92.422l-14.28,84.28c6.44,6.346,5.387,33.554,5.387,33.554h37.339c10.332-49.7-1.588-93.095-28.446-117.834" fill="#708db7"/>
    <path id="Trazado_705362" data-name="Trazado 705362" d="M145.471,210.256c10.783-37.931.9-90.52-8.136-97.414l-20.56,60.345c8.949,7.229,11.282,37.069,11.282,37.069Z" fill="#537296"/>
    <path id="Trazado_705363" data-name="Trazado 705363" d="M165.914,187.452l-36.707,5.311a3.031,3.031,0,0,0-2.234,3.228l.123,11.016c.02,1.795,1.182,3.249,2.6,3.249H163.6a2.744,2.744,0,0,0,2.47-2.544l2.675-16.326c.357-2.179-1.088-4.186-2.832-3.934" fill="#f4e9c3"/>
    <path id="Trazado_705364" data-name="Trazado 705364" d="M147.329,209.3a74.318,74.318,0,0,1,2.438-19.509l-20.56,2.975a3.032,3.032,0,0,0-2.234,3.228l.124,11.016c.02,1.795,1.182,3.249,2.6,3.249h17.647c0-.319-.01-.637-.01-.959" fill="#e5d5a8"/>
    <path id="Trazado_705365" data-name="Trazado 705365" d="M43.924,209.5l85.377.738c10.544-29.683,23.982-97.95,8.231-114.269C122.552,80.448,98.175,74.02,98.175,74.02S64.054,75.188,45.7,101.772C32.9,120.3,43.924,209.5,43.924,209.5" fill="#708db7"/>
    <path id="Trazado_705366" data-name="Trazado 705366" d="M88.314,139.4c-19.6,0-37.017-5.962-48.118-15.207C37.439,157,43.924,209.5,43.924,209.5L80,209.811a103.768,103.768,0,0,1,10.818-28.874c14.858-27.217,37.928-44.351,53.22-40.227a140.306,140.306,0,0,0,.243-25.136c-9.2,14-30.8,23.823-55.967,23.823" fill="#537296"/>
    <path id="Trazado_705367" data-name="Trazado 705367" d="M137.532,95.968C122.552,80.449,98.175,74.02,98.175,74.02a82.367,82.367,0,0,0-28.306,7.414c6.638,5.408,18.266,10.611,32.032,13.775,14.462,3.323,27.785,3.592,36.062,1.275-.147-.166-.28-.358-.431-.516" fill="#537296"/>
    <path id="Trazado_705368" data-name="Trazado 705368" d="M98.175,73.01a132.2,132.2,0,0,0-20.367,5.241,121.7,121.7,0,0,0,16.33,32.1s15.473-12.441,25.564-27.5a177.467,177.467,0,0,0-21.527-9.84" fill="#e0d5a9"/>
    <path id="Trazado_705369" data-name="Trazado 705369" d="M108.695,96.555A113.424,113.424,0,0,0,119.7,82.85l-.01,0c-.489-.265-.972-.52-1.457-.776a108.149,108.149,0,0,0-20.06-8.05,80.051,80.051,0,0,0-19.7,4.01c-.223.075-.442.145-.668.222A108.4,108.4,0,0,0,81.741,88.5a106.079,106.079,0,0,0,20.16,6.708c2.3.528,4.566.971,6.794,1.347" fill="#d1c18f"/>
    <path id="Trazado_705370" data-name="Trazado 705370" d="M110.047,55.589l-23.2-1L84.75,76.516c2.558,9.361,19.795,10.438,27.427,2.423Z" fill="#d27558"/>
    <path id="Trazado_705371" data-name="Trazado 705371" d="M86.114,45.01c-2.015-4.5-5.938-7.443-8.763-6.575s-3.481,5.22-1.466,9.72,5.938,7.444,8.762,6.575,3.482-5.22,1.467-9.72" fill="#edb984"/>
    <path id="Trazado_705372" data-name="Trazado 705372" d="M84.28,45.309c-1.346-3.045-3.9-5.063-5.706-4.508s-2.178,3.475-.832,6.52,3.9,5.063,5.705,4.508,2.179-3.475.833-6.52" fill="#d27558"/>
    <path id="Trazado_705373" data-name="Trazado 705373" d="M85.458,47.775c-.908-2.028-2.676-3.355-3.949-2.963s-1.569,2.352-.661,4.38,2.676,3.355,3.949,2.963,1.569-2.352.661-4.38" fill="#edb984"/>
    <path id="Trazado_705374" data-name="Trazado 705374" d="M113.223,48.708c2.015-4.5,5.938-7.444,8.763-6.576s3.481,5.22,1.466,9.72-5.937,7.444-8.762,6.576-3.482-5.22-1.467-9.72" fill="#edb984"/>
    <path id="Trazado_705375" data-name="Trazado 705375" d="M114.8,49.127c1.324-2.954,3.9-4.889,5.754-4.324s2.283,3.42.959,6.373-3.9,4.89-5.753,4.324-2.284-3.419-.96-6.373" fill="#d27558"/>
    <path id="Trazado_705376" data-name="Trazado 705376" d="M114.144,50.975c.938-2.092,2.762-3.464,4.075-3.063s1.618,2.422.68,4.515-2.762,3.463-4.075,3.062-1.618-2.422-.68-4.514" fill="#edb984"/>
    <path id="Trazado_705377" data-name="Trazado 705377" d="M123.689,11.588c-15.367-7.215-41.551.195-41.551.195s-6.12,32,3.827,57.715l26.108-2.866c13.657-20.86,11.616-55.044,11.616-55.044" fill="#823830"/>
    <path id="Trazado_705378" data-name="Trazado 705378" d="M87.617,24.126C84.264,28.87,80.287,63.3,85.1,70.508c1.2,1.791,6.157,4.781,12.189,5.287,5.791.485,12.638-1.439,14.839-3.281,4.494-3.76,7.555-41.283,5.193-46.884-2.326-5.515-26.7-5.766-29.708-1.5" fill="#edb984"/>
    <path id="Trazado_705379" data-name="Trazado 705379" d="M106.48,47.323c.334-1.784,1.554-2.964,2.724-2.636s1.849,2.041,1.514,3.825-1.553,2.964-2.724,2.636-1.848-2.041-1.514-3.825" fill="#5a4949"/>
    <path id="Trazado_705380" data-name="Trazado 705380" d="M89.1,45.808c.144-1.8,1.237-3.085,2.441-2.872s2.065,1.844,1.922,3.643-1.237,3.085-2.442,2.872-2.065-1.844-1.921-3.643" fill="#5a4949"/>
    <path id="Trazado_705381" data-name="Trazado 705381" d="M98.23,49.532c-.689,3.622-.782,6.553.588,7.949a2.116,2.116,0,0,0,2.367.5l.031.09s-2.034,1.621-3.541.342c-1.624-1.379-.869-4.814.555-8.885" fill="#d27558"/>
    <path id="Trazado_705382" data-name="Trazado 705382" d="M101.948,64.772a10.121,10.121,0,0,1,2.407.9,4.5,4.5,0,0,0-2.806-2.065,9.74,9.74,0,0,0-8.223,1.106,16.943,16.943,0,0,1,8.622.063" fill="#d27558"/>
    <path id="Trazado_705383" data-name="Trazado 705383" d="M95.45,66.872c-.028.313,1.055-.522,2.48-.409s2.652,1.131,2.68.819a3.394,3.394,0,0,0-2.581-1.951,2.844,2.844,0,0,0-2.579,1.541" fill="#d27558"/>
    <path id="Trazado_705384" data-name="Trazado 705384" d="M111.7,45.838a2.833,2.833,0,1,0-2.832,2.889,2.86,2.86,0,0,0,2.832-2.889" fill="#edb984"/>
    <path id="Trazado_705385" data-name="Trazado 705385" d="M94.02,43.887a2.833,2.833,0,1,0-2.832,2.889,2.86,2.86,0,0,0,2.832-2.889" fill="#edb984"/>
    <path id="Trazado_705386" data-name="Trazado 705386" d="M106.365,39.527l7.359,1.572a1.151,1.151,0,0,1,.939,1.272l-.378,2.151a1.052,1.052,0,0,1-1.3.793l-7.36-1.572a1.148,1.148,0,0,1-.937-1.272l.377-2.15a1.054,1.054,0,0,1,1.3-.794" fill="#823830"/>
    <path id="Trazado_705387" data-name="Trazado 705387" d="M86.776,39.172l7.7-.56a1.149,1.149,0,0,1,1.261,1.006l.186,2.274a1.126,1.126,0,0,1-1.083,1.177l-7.7.56a1.15,1.15,0,0,1-1.261-1.006l-.185-2.274a1.126,1.126,0,0,1,1.083-1.177" fill="#823830"/>
    <path id="Trazado_705388" data-name="Trazado 705388" d="M118.261,23.941c.275-2.91-6.351-5.918-14.8-6.717s-15.523.912-15.8,3.822,6.351,5.918,14.8,6.717,15.523-.911,15.8-3.822" fill="#823830"/>
    <path id="Trazado_705389" data-name="Trazado 705389" d="M72.667,145.52C55.83,124.346,69.314,83.6,64.372,84.5s-36.094,3.365-37.88,48.009c-1.266,31.658,13.011,46.429,25,47.2S72.667,145.52,72.667,145.52" fill="#708db7"/>
    <path id="Trazado_705390" data-name="Trazado 705390" d="M64.58,99.472c-.5,2.563-1.1,5.176-1.809,7.8-5.756,21.358-19.47,39.063-30.63,39.545a9.165,9.165,0,0,1-5.233-1.3c2.523,22.726,14.379,33.534,24.585,34.186,11.99.765,21.174-34.185,21.174-34.185-10.108-12.712-9.288-32.474-8.087-46.048" fill="#537296"/>
    <path id="Trazado_705391" data-name="Trazado 705391" d="M67.955,130.822c-4.982-5.711-22.5-1.969-30.443,20.192-5.431,15.151-1.07,29.2,13.982,30.476s23.98-16.327,23.98-16.327Z" fill="#f4e9c3"/>
    <path id="Trazado_705392" data-name="Trazado 705392" d="M112.767,116.447c-.234-1.069,4.085-3.752,6.039-2.287,1.377,1.033,5.147,7.376,5,8.644-.147,1.25-3.154,3.106-4.263,2.758s-6.518-7.949-6.773-9.115" fill="#e79b69"/>
    <path id="Trazado_705393" data-name="Trazado 705393" d="M114.341,114.972c2.383,1.937,3.209,5.924,1.772,9.814-1.287,3.486-3.166,5.684-5.926,6.088a8.664,8.664,0,0,1-2.613-9.63c1.287-3.485,4.007-5.868,6.767-6.272" fill="#e79b69"/>
    <path id="Trazado_705394" data-name="Trazado 705394" d="M107.365,143.79l7.863-5.105-4.709-17.128-10.585,3.19Z" fill="#e79b69"/>
    <path id="Trazado_705395" data-name="Trazado 705395" d="M114.744,139.159S75.66,175.108,53.619,179.194c-6.956,1.289-12.075-31.8,2.466-43.113,9.523-7.407,45.43-11.352,45.43-11.352,13.891-1.511,14.853,5.6,13.229,14.43" fill="#edb984"/>
    <path id="Trazado_705396" data-name="Trazado 705396" d="M116.363,138.92a21.291,21.291,0,0,0,16.534-5.64c4.157-3.9-2.987-19.316-5.612-19.857S112,119.378,108.341,124.161c-2.624,3.427.8,14.133,8.022,14.759" fill="#edb984"/>
    <path id="Trazado_705397" data-name="Trazado 705397" d="M132.708,127.482c1.106,0,3.811,4.617,2.279,6.038-1.079,1-7.271,2.892-8.424,2.448-1.136-.438-2.563-3.626-2.14-4.551s7.193-3.936,8.285-3.935" fill="#edb984"/>
    <path id="Trazado_705398" data-name="Trazado 705398" d="M132.42,119.549c1.2-.08,3.832,4.515,2.083,6.1-1.233,1.119-8.057,3.529-9.277,3.152-1.2-.372-2.545-3.577-2.028-4.567s8.04-4.608,9.222-4.687" fill="#edb984"/>
    <path id="Trazado_705399" data-name="Trazado 705399" d="M128.861,112.723c1.141-.116,3.976,4.092,2.411,5.639-1.1,1.09-7.468,3.583-8.662,3.272-1.176-.306-2.68-3.259-2.252-4.2s7.377-4.592,8.5-4.707" fill="#edb984"/>
    <path id="Trazado_705400" data-name="Trazado 705400" d="M160.881,104.457a8.85,8.85,0,1,1,6.827,6.044l-.155,2.255a11.086,11.086,0,1,0-9.06-8.531Z" fill="#8a6793"/>
    <path id="Trazado_705401" data-name="Trazado 705401" d="M169.744,104.541l2.187,1.557-3.953,5.592,5.919,4.427-1.593,2.148-8.017-6Z" fill="#8a6793"/>
  </g>
</svg>
