<svg id="Grupo_1000143" data-name="Grupo 1000143" xmlns="http://www.w3.org/2000/svg" xmlns:xlink="http://www.w3.org/1999/xlink" width="206.815" height="210.37" viewBox="0 0 206.815 210.37">
  <defs>
    <clipPath id="clip-path">
      <rect id="Rectángulo_345528" data-name="Rectángulo 345528" width="206.815" height="210.37" fill="none"/>
    </clipPath>
    <clipPath id="clip-path-3">
      <rect id="Rectángulo_345525" data-name="Rectángulo 345525" width="25.626" height="90.541" transform="translate(34.727 83.577)" fill="none"/>
    </clipPath>
  </defs>
  <g id="Grupo_1000142" data-name="Grupo 1000142" clip-path="url(#clip-path)">
    <g id="Grupo_1000141" data-name="Grupo 1000141">
      <g id="Grupo_1000140" data-name="Grupo 1000140" clip-path="url(#clip-path)">
        <path id="Trazado_705312" data-name="Trazado 705312" d="M133.1,98.979c26.011,10.266,62.882,47.137,65.683,53.118,2.848,6.077,1.687,9.783-2.585,10.637-5.579,1.114-51.579-37.01-57.657-38.5-6.213-1.523-5.441-25.257-5.441-25.257" fill="#976eb7"/>
        <path id="Trazado_705313" data-name="Trazado 705313" d="M193.381,161.206c-2.6-5.551-34.548-37.7-59.924-50.5.566,6.226,1.917,12.757,5.08,13.532,5.531,1.355,44.118,33.042,55.219,37.892-.129-.31-.224-.6-.375-.922" fill="#7f5aa3"/>
        <path id="Trazado_705314" data-name="Trazado 705314" d="M178.477,170.489c-2.02-12.937,5.466-21.133,12.877-23.2,0,0,13.335-.418,11.714,12.066-1.3,10.006-24.591,11.131-24.591,11.131" fill="#efedcb"/>
        <path id="Trazado_705315" data-name="Trazado 705315" d="M184.35,156.125c-3.5,1.865-31.783,38.929-38.211,52.73l.726.375s52.578-44.6,52.513-49.441c-.065-4.825-11.494-5.548-15.028-3.664" fill="#edb984"/>
        <path id="Trazado_705316" data-name="Trazado 705316" d="M149.089,207.335a155.666,155.666,0,0,1,17.8-26.45c9.019-11,18.38-19.925,26.21-25.453-3.291-.534-6.995-.243-8.751.693-3.5,1.865-31.783,38.929-38.211,52.73l.727.375s.81-.687,2.223-1.895" fill="#e79b69"/>
        <path id="Trazado_705317" data-name="Trazado 705317" d="M66.7,86.056c23.785,23.11,68.318,21.086,92.272,5.061,0,0-1.35-49.932-17.206-64.1s-30.394-15.459-32.388-14.845C91.831,17.569,64.841,62.946,66.7,86.056" fill="#7d4230"/>
        <path id="Trazado_705318" data-name="Trazado 705318" d="M103.269,97.207c-23.161,12.718-54.536,59.529-56.561,66.36S43.672,174.2,49.239,174.2s44.533-46.305,49.594-48.329,4.436-28.659,4.436-28.659" fill="#976eb7"/>
        <path id="Trazado_705319" data-name="Trazado 705319" d="M51.609,170.518c-.343,1.13-.651,2.169-.909,3.128,9.034-4.845,43.813-44.21,48.6-45.922,2.988-1.07,4.012-10.626,4.348-18.38C81,124.43,53.507,164.241,51.609,170.518" fill="#7f5aa3"/>
        <path id="Trazado_705320" data-name="Trazado 705320" d="M91.166,209.2h55.649l-8.332-67.475-38.389.338Z" fill="#976eb7"/>
        <path id="Trazado_705321" data-name="Trazado 705321" d="M118.708,169.625c14.385,0,26.06,17.642,26.368,39.572h1.739l-8.332-67.475-38.389.338L91.166,209.2H92.34c.308-21.93,11.983-39.572,26.368-39.572" fill="#7f5aa3"/>
        <path id="Trazado_705322" data-name="Trazado 705322" d="M102.29,97.864c-7.939,21.987-15.013,55.667-13.664,59.04s60.728,1.687,62.077-1.012-14-52.63-16.025-56-31.409-4.735-32.388-2.024" fill="#976eb7"/>
        <path id="Trazado_705323" data-name="Trazado 705323" d="M139.967,113.986c4.071,16.41,8.841,38.53,8.037,40.311-1.247,2.761-55.938,4.468-57.428,1.016-1.1-2.558,1.988-22.463,6.551-41.753-6.043,19.9-11.075,41.717-10.019,44.357,1.35,3.373,64.1,1.686,65.451-1.012.929-1.859-6.94-26.593-12.592-42.919" fill="#7f5aa3"/>
        <path id="Trazado_705324" data-name="Trazado 705324" d="M149.648,107.886a99.433,99.433,0,0,0-15.4-8.42c-4.013-3-29.991-4.149-31.861-1.743a77.535,77.535,0,0,0-13.269,10.23c7.237,3.369,18.067,5.515,30.186,5.515,12.2,0,23.1-2.173,30.34-5.582" fill="#7f5aa3"/>
        <path id="Trazado_705325" data-name="Trazado 705325" d="M104.229,96.963c3.689,20.823,14.256,33.12,14.256,33.12s9.431-15.726,12.672-31.83c-6.886-1.74-21.624-2.382-26.928-1.29" fill="#dfccf2"/>
        <path id="Trazado_705326" data-name="Trazado 705326" d="M46.792,149.82c12.145,4.892,15.35,15.519,13.326,22.941,0,0-6.471,11.667-16.362,3.88-7.929-6.241,3.036-26.821,3.036-26.821" fill="#efedcb"/>
        <g id="Grupo_1000139" data-name="Grupo 1000139" opacity="0.8">
          <g id="Grupo_1000138" data-name="Grupo 1000138">
            <g id="Grupo_1000137" data-name="Grupo 1000137" clip-path="url(#clip-path-3)">
              <path id="Trazado_705327" data-name="Trazado 705327" d="M46.309,84.45c10.42,2.7,14.386,4.362,14.021,5.226-.9,2.141-13.993-2.05-13.993-2.05-1.29.111-1.318-3.065-.028-3.176" fill="#e79b69"/>
              <path id="Trazado_705328" data-name="Trazado 705328" d="M56.617,165.666c.692-3.6-10.1-50.121-17.344-64.275l-2.02,2.009s3.872,67.034,7.581,70.009,11.091-4.145,11.783-7.743" fill="#edb984"/>
              <path id="Trazado_705329" data-name="Trazado 705329" d="M55.753,159.654a3.091,3.091,0,0,1-2.346,1.815c-4.123.3-9.777-10.637-13.9-25.911,1.447,17.664,3.406,36.313,5.323,37.851,3.705,2.973,11.091-4.145,11.783-7.743a25.431,25.431,0,0,0-.864-6.012" fill="#e79b69"/>
              <path id="Trazado_705330" data-name="Trazado 705330" d="M37.325,106.623C32.96,96.775,35,91.675,36.919,88.2c1.249-2.252,6.242-4.4,8.992-3.855a2.166,2.166,0,0,1,1.458,3.514c-2.539,3.625-2.275,5.881-1.116,8.115,2.764,5.329-8.09,12.536-8.928,10.645" fill="#e79b69"/>
              <path id="Trazado_705331" data-name="Trazado 705331" d="M41.846,101.337a6.809,6.809,0,0,0-7.119-5.2,26.046,26.046,0,0,0,2.6,10.488c.27.61,1.588.264,3.151-.652,1.881-1.112,1.6-3.764,1.37-4.634" fill="#edb984"/>
              <path id="Trazado_705332" data-name="Trazado 705332" d="M45.275,84.345c2.52-.288,13.787,4.468,12.635,6.36-.493.809-13.516-3.369-13.516-3.369-1.423-1.332-.5-2.241.881-2.991" fill="#edb984"/>
              <path id="Trazado_705333" data-name="Trazado 705333" d="M40.744,105.925c4.361-2.625,8.759-7.457,9.665-9.4s7.227-3.06,8.049-4.219.543-2.526-1.494-2.8-7.492,2.7-12.306,4.221c-5.452,1.726-3.914,12.2-3.914,12.2" fill="#edb984"/>
              <path id="Trazado_705334" data-name="Trazado 705334" d="M43.78,86.963c1.219-1.023,1.746-2.384,1.178-3.039s-2.016-.355-3.235.668-1.556,1.957-.987,2.612,1.825.783,3.044-.241" fill="#e79b69"/>
              <path id="Trazado_705335" data-name="Trazado 705335" d="M40.309,88.2c1.219-1.024,1.746-2.384,1.178-3.039s-2.016-.355-3.235.668-2.211,3.778-1.644,4.433,2.482-1.039,3.7-2.062" fill="#e79b69"/>
              <path id="Trazado_705336" data-name="Trazado 705336" d="M45.336,88.045c.378-2.308-.008-4.292-.863-4.432s-1.856,1.616-2.234,3.924.145,3.742,1,3.882,1.719-1.066,2.1-3.374" fill="#edb984"/>
              <path id="Trazado_705337" data-name="Trazado 705337" d="M41.875,89.441c.378-2.307-.009-4.292-.864-4.432s-1.856,1.616-2.233,3.924-.094,3.644.761,3.785,1.957-.969,2.336-3.277" fill="#edb984"/>
            </g>
          </g>
        </g>
        <path id="Trazado_705338" data-name="Trazado 705338" d="M53.376,162.048c-.709-3.6-28.167-42.67-40.193-53.071l-1.119,2.62s28.741,60.683,33.3,62.05,8.726-8,8.017-11.6" fill="#edb984"/>
        <path id="Trazado_705339" data-name="Trazado 705339" d="M130.993,98.215q-.507-.124-1.066-.242c-.176-.037-.363-.072-.546-.108-.26-.051-.525-.1-.8-.149-.195-.034-.39-.069-.591-.1-.414-.068-.836-.134-1.273-.2-.191-.028-.39-.054-.585-.08-.332-.045-.668-.089-1.01-.131l-.654-.078q-.593-.067-1.2-.129l-.628-.062q-.672-.064-1.355-.12c-.209-.018-.42-.034-.63-.05q-.619-.048-1.243-.089l-.476-.032q-.819-.051-1.639-.089c-.179-.009-.358-.016-.538-.024q-.645-.028-1.284-.049l-.466-.015q-.83-.024-1.639-.035l-.364,0q-.663-.007-1.305,0l-.437,0c-.519,0-1.028.014-1.52.028l-.183.007q-.657.021-1.273.054l-.363.02c-.429.026-.845.055-1.236.089l-.078.007c-.407.036-.782.08-1.142.127-.1.013-.2.027-.294.042-.282.04-.546.085-.793.132-.051.01-.107.019-.156.03a80.684,80.684,0,0,0,4.553,15.92,97.294,97.294,0,0,0,10.525.581c2.5,0,4.935-.113,7.309-.288a90.1,90.1,0,0,0,4.539-14.921c-.056-.014-.106-.029-.163-.043" fill="#cab5e2"/>
        <path id="Trazado_705340" data-name="Trazado 705340" d="M122.533,68.344H108.195L109.417,96.4c.389,6.363,15.25,6.763,14.86.4Z" fill="#d27558"/>
        <path id="Trazado_705341" data-name="Trazado 705341" d="M97.23,46.583c0,24.291,5.314,37.978,19.821,45.63,13.663-5.628,19.736-20.369,18.758-49.009C135.3,28.293,97.23,35.66,97.23,46.583" fill="#edb984"/>
        <path id="Trazado_705342" data-name="Trazado 705342" d="M121.249,29.892c1.987,10.555-23.341,18.7-26.83,41.088,0,0-12.943-20.757-2.193-34.584,12.1-15.56,27.308-15.616,29.023-6.5" fill="#7d4230"/>
        <path id="Trazado_705343" data-name="Trazado 705343" d="M95.887,63.747c-1.078-2.774-2.889-4.455-4.044-3.756s-1.217,3.515-.139,6.289,2.889,4.455,4.044,3.756,1.217-3.515.139-6.289" fill="#edb984"/>
        <path id="Trazado_705344" data-name="Trazado 705344" d="M141.1,66.011c1.093-2.768.907-5.232-.416-5.5s-3.282,1.752-4.375,4.52-.906,5.232.417,5.5,3.281-1.752,4.374-4.52" fill="#edb984"/>
        <path id="Trazado_705345" data-name="Trazado 705345" d="M110.042,60.374c.031-2.241-1.074-4.145-2.473-4.26s-2.579,1.617-2.617,3.874,1.079,4.182,2.491,4.281,2.568-1.648,2.6-3.895" fill="#5a4949"/>
        <path id="Trazado_705346" data-name="Trazado 705346" d="M128.971,60.152c0-2.355-1.039-4.348-2.325-4.456s-2.348,1.721-2.354,4.092,1.044,4.385,2.341,4.478,2.338-1.752,2.338-4.114" fill="#5a4949"/>
        <path id="Trazado_705347" data-name="Trazado 705347" d="M112.672,52.579l-8.008-1.806a1.9,1.9,0,0,0-2.25,1.44l-.475,2.03a1.846,1.846,0,0,0,1.394,2.246l8.046,1.715a1.86,1.86,0,0,0,2.169-1.438L114,54.782a1.816,1.816,0,0,0-1.331-2.2" fill="#7d4230"/>
        <path id="Trazado_705348" data-name="Trazado 705348" d="M127.809,50.92,121.973,53.2a1.445,1.445,0,0,0-.585,2.047l.8,1.688a1.712,1.712,0,0,0,2.05,1.022l5.845-2.333a1.431,1.431,0,0,0,.548-2.032l-.806-1.659a1.7,1.7,0,0,0-2.016-1.009" fill="#7d4230"/>
        <path id="Trazado_705349" data-name="Trazado 705349" d="M119.774,66.232s-.367-.067-.91-.132c-.682,2.117-2.411,5.046-5.118.93-.053.064-.135.105-.178.176,3.9,7.4,6.009.627,6.206-.974" fill="#d27558"/>
        <path id="Trazado_705350" data-name="Trazado 705350" d="M118.866,79.3c0-1.258-.717-2.277-1.6-2.277s-1.6,1.019-1.6,2.277.717,2.277,1.6,2.277,1.6-1.019,1.6-2.277" fill="#5a4949"/>
        <path id="Trazado_705351" data-name="Trazado 705351" d="M50.32,156.8a3.092,3.092,0,0,1-1.494,2.563c-3.71,1.821-13.054-6.192-22.6-18.8,7.969,15.83,16.783,32.382,19.136,33.089,4.55,1.365,8.726-8,8.017-11.6A25.437,25.437,0,0,0,50.32,156.8" fill="#e79b69"/>
        <path id="Trazado_705352" data-name="Trazado 705352" d="M13.694,114.05c-8.612-5.926-9.579-10.869-9.8-14.467s8.584-10.149,8.318-4.831c-.2,3.99,1.176,5.668,3.266,6.939,4.986,3.031-.129,13.5-1.783,12.359" fill="#e79b69"/>
        <path id="Trazado_705353" data-name="Trazado 705353" d="M6.309,107.019a26.893,26.893,0,0,0,7.385,7.031c.831.573,2.537-1.791,3.394-4.667a11.066,11.066,0,0,0-3.18-2.083,9.9,9.9,0,0,0-7.6-.281" fill="#edb984"/>
        <path id="Trazado_705354" data-name="Trazado 705354" d="M6.234,95.71C9.178,83.5,10.808,78.554,11.706,78.444S9.265,94.887,9.265,94.887c-1.176,1.76-2.227,2.4-3.031.823" fill="#edb984"/>
        <path id="Trazado_705355" data-name="Trazado 705355" d="M9.14,94.92c2.944-12.207,4.594-16.267,5.492-16.376s-2.44,16.442-2.44,16.442c.063,1.525-2.989,1.459-3.052-.066" fill="#edb984"/>
        <path id="Trazado_705356" data-name="Trazado 705356" d="M16.62,113.522c2.195-3.99,3.285-9.75,3.023-11.688s4.3-5.587,4.373-6.867-.858-2.245-2.657-1.577-4.7,5.414-7.83,8.725c-3.544,3.751,3.091,11.407,3.091,11.407" fill="#edb984"/>
        <rect id="Rectángulo_345526" data-name="Rectángulo 345526" width="2.024" height="23.7" transform="translate(24.357 53.626)" fill="#7f5aa3"/>
        <path id="Trazado_705357" data-name="Trazado 705357" d="M25.284,80.148l-6.366-6.365,1.431-1.431,4.935,4.934L30.473,72.1,31.9,73.531Z" fill="#7f5aa3"/>
        <path id="Trazado_705358" data-name="Trazado 705358" d="M20.349,59.7l-1.431-1.431,6.619-6.618L31.9,58.013l-1.431,1.431L25.537,54.51Z" fill="#7f5aa3"/>
        <path id="Trazado_705359" data-name="Trazado 705359" d="M9.125,96.5c-.879-2-2.213-3.409-2.981-3.147s-.676,2.094.2,4.094,2.213,3.409,2.98,3.148.677-2.1-.2-4.1" fill="#edb984"/>
        <path id="Trazado_705360" data-name="Trazado 705360" d="M7.112,99.2c-.879-2-2.214-3.409-2.981-3.147s-.677,2.094.2,4.094,2.213,3.409,2.98,3.148.677-2.095-.2-4.095" fill="#edb984"/>
      </g>
    </g>
  </g>
</svg>
