<svg xmlns="http://www.w3.org/2000/svg" xmlns:xlink="http://www.w3.org/1999/xlink" width="256.191" height="387" viewBox="0 0 256.191 387">
  <defs>
    <clipPath id="clip-path">
      <rect id="Rectángulo_344801" data-name="Rectángulo 344801" width="256.191" height="387" fill="none"/>
    </clipPath>
  </defs>
  <g id="Grupo_998625" data-name="Grupo 998625" transform="translate(0 -0.001)">
    <g id="Grupo_998624" data-name="Grupo 998624" transform="translate(0 0.001)" clip-path="url(#clip-path)">
      <path id="Trazado_699351" data-name="Trazado 699351" d="M155.461,7.049V226.879c0,3.893-3.671,7.048-8.2,7.048H23.022c-4.528,0-8.2-3.158-8.2-7.052V7.049c0-3.893,3.67-7.048,8.2-7.048H147.265c4.525,0,8.2,3.155,8.2,7.048" transform="translate(-10.977 -0.001)" fill="#b2ada5"/>
      <path id="Trazado_699352" data-name="Trazado 699352" d="M140.642,18.05V237.88c0,3.893-3.671,7.048-8.2,7.048H8.2c-4.528,0-8.2-3.159-8.2-7.052V18.05C0,14.157,3.67,11,8.2,11H132.446c4.525,0,8.2,3.155,8.2,7.048" transform="translate(0 -8.55)" fill="#fff"/>
      <path id="Trazado_699353" data-name="Trazado 699353" d="M155.523,140.7v62.337c0,3.669-3.46,6.641-7.727,6.641H38.63c-4.268,0-7.725-2.972-7.725-6.641V140.7c0-3.669,3.457-6.641,7.725-6.641H147.8c4.268,0,7.727,2.972,7.727,6.641" transform="translate(-22.893 -104.185)" fill="#f4f4f4"/>
      <path id="Trazado_699354" data-name="Trazado 699354" d="M220.958,48.263a3.366,3.366,0,0,1-1.229,2.554,4.555,4.555,0,0,1-2.971,1.056h-45.75a3.937,3.937,0,0,1-4.2-3.61,3.36,3.36,0,0,1,1.229-2.551,4.541,4.541,0,0,1,2.971-1.059h45.75a3.939,3.939,0,0,1,4.2,3.61" transform="translate(-123.562 -34.701)" fill="#e8e8e8"/>
      <path id="Trazado_699355" data-name="Trazado 699355" d="M169.32,679.471a3.091,3.091,0,0,1-1.13,2.346,4.193,4.193,0,0,1-2.733.972H54.953a3.62,3.62,0,0,1-3.863-3.318,3.1,3.1,0,0,1,1.13-2.349,4.185,4.185,0,0,1,2.733-.972h110.5a3.62,3.62,0,0,1,3.863,3.321" transform="translate(-37.845 -525.457)" fill="#e8e8e8"/>
      <path id="Trazado_699356" data-name="Trazado 699356" d="M169.32,731.7a3.091,3.091,0,0,1-1.13,2.346,4.192,4.192,0,0,1-2.733.972H54.953A3.62,3.62,0,0,1,51.09,731.7a3.1,3.1,0,0,1,1.13-2.35,4.185,4.185,0,0,1,2.733-.971h110.5a3.62,3.62,0,0,1,3.863,3.321" transform="translate(-37.845 -566.045)" fill="#e8e8e8"/>
      <path id="Trazado_699357" data-name="Trazado 699357" d="M169.32,781.686a3.091,3.091,0,0,1-1.13,2.346,4.193,4.193,0,0,1-2.733.972H54.953a3.621,3.621,0,0,1-3.863-3.318,3.1,3.1,0,0,1,1.13-2.349,4.185,4.185,0,0,1,2.733-.971h110.5a3.62,3.62,0,0,1,3.863,3.321" transform="translate(-37.845 -604.891)" fill="#e8e8e8"/>
      <path id="Trazado_699358" data-name="Trazado 699358" d="M169.32,833.914a3.091,3.091,0,0,1-1.13,2.346,4.192,4.192,0,0,1-2.733.972H54.953a3.621,3.621,0,0,1-3.863-3.318,3.1,3.1,0,0,1,1.13-2.349,4.185,4.185,0,0,1,2.733-.972h110.5a3.62,3.62,0,0,1,3.863,3.321" transform="translate(-37.845 -645.479)" fill="#4db1f0"/>
      <path id="Trazado_699359" data-name="Trazado 699359" d="M169.32,879.382a3.091,3.091,0,0,1-1.13,2.346,4.193,4.193,0,0,1-2.733.972H54.953a3.621,3.621,0,0,1-3.863-3.318,3.1,3.1,0,0,1,1.13-2.349,4.185,4.185,0,0,1,2.733-.972h110.5a3.62,3.62,0,0,1,3.863,3.321" transform="translate(-37.845 -680.814)" fill="#e8e8e8"/>
      <path id="Trazado_699360" data-name="Trazado 699360" d="M169.32,931.61a3.09,3.09,0,0,1-1.13,2.346,4.192,4.192,0,0,1-2.733.972H54.953a3.621,3.621,0,0,1-3.863-3.318,3.1,3.1,0,0,1,1.13-2.349,4.185,4.185,0,0,1,2.733-.972h110.5a3.62,3.62,0,0,1,3.863,3.321" transform="translate(-37.845 -721.401)" fill="#e8e8e8"/>
      <path id="Trazado_699361" data-name="Trazado 699361" d="M92.222,557.427H65.665V534.6H92.222Zm-22.986-3.07H88.65V537.668H69.236Z" transform="translate(-48.641 -415.452)" fill="#e8e8e8"/>
      <path id="Trazado_699362" data-name="Trazado 699362" d="M94.608,544.322l-9.262-8.377,4.264-3.483,5.323,4.815,17.88-13.8,3.93,3.762Z" transform="translate(-63.22 -406.809)" fill="#ffa031"/>
      <path id="Trazado_699363" data-name="Trazado 699363" d="M273.721,605.442a3.087,3.087,0,0,1-1.13,2.346,4.168,4.168,0,0,1-2.729.975H199.155a3.625,3.625,0,0,1-3.863-3.321,3.1,3.1,0,0,1,1.13-2.346,4.2,4.2,0,0,1,2.733-.972h70.706a3.619,3.619,0,0,1,3.86,3.318" transform="translate(-144.661 -467.929)" fill="#4db1f0"/>
      <path id="Trazado_699364" data-name="Trazado 699364" d="M155.523,140.7v11.232H30.905V140.7c0-3.669,3.457-6.641,7.725-6.641H147.8c4.268,0,7.727,2.972,7.727,6.641" transform="translate(-22.893 -104.185)" fill="#4db1f0"/>
      <path id="Trazado_699365" data-name="Trazado 699365" d="M166.475,284.3H55.512a.3.3,0,1,1,0-.594H166.475a.3.3,0,1,1,0,.594" transform="translate(-40.865 -220.481)" fill="#e5e5e5"/>
      <path id="Trazado_699366" data-name="Trazado 699366" d="M785.883,1575.936c.8.534,7.408,4.84,9.787,2.963,2.527-2,9.1-7.864,12.335-8.452s5.7-7.153,5.7-7.153l-.23-7.7a37.994,37.994,0,0,1-3.362,1.952c-3.055,1.548-7.059,2.947-10.69,2.22-.211,2.2-.505,4.7-.872,6.859-.686,4.019-8.893,7.781-12.672,9.313" transform="translate(-582.138 -1208.898)" fill="#f78769"/>
      <path id="Trazado_699367" data-name="Trazado 699367" d="M810.9,1230a26.486,26.486,0,0,1-3.445,3.788c3.388.34,7.045.213,8.948-1.423,0,0,1.372-50.462-12.845-70.57l2.115-27.575c-4.159,8.707-9.492,16.642-16.3,22.06,0,0,18.313,55.977,21.524,73.72" transform="translate(-584.729 -881.436)" fill="#39434c"/>
      <path id="Trazado_699368" data-name="Trazado 699368" d="M683.387,813.7l9.224,36.659,28.76,114.332a48.22,48.22,0,0,0,7.575,1.423,26.494,26.494,0,0,0,3.445-3.788c-3.211-17.743-21.524-73.72-21.524-73.72,6.8-5.418,12.138-13.353,16.3-22.06l4.548-59.346,1.132-14.788-45.4-2.633Z" transform="translate(-506.215 -613.758)" fill="#47525e"/>
      <path id="Trazado_699369" data-name="Trazado 699369" d="M758.36,343.952c1.011,2.231,5.977,5.5,5.977,5.5a22.863,22.863,0,0,0,14.33-8.032c-1.606-3.436-1.457-9.048-1.209-12.234-6.161,6.257-17.506,8.349-17.506,8.349s-.453-.219-1.21-.6c.424,4.639-.3,6.792-.375,6.992Z" transform="translate(-561.751 -255.822)" fill="#ff8f6a"/>
      <path id="Trazado_699370" data-name="Trazado 699370" d="M758.387,343.933l2.737-4.275c13.248-2.888,16.353-10.471,16.353-10.471-6.161,6.257-17.506,8.349-17.506,8.349s-.453-.219-1.209-.6c.424,4.639-.3,6.792-.375,6.992" transform="translate(-561.771 -255.822)" fill="#db421a"/>
      <path id="Trazado_699371" data-name="Trazado 699371" d="M704.745,139.079c4.875-12.16,21.332-13.811,28.18-12a10.036,10.036,0,0,1,1.3.434c5.765,2.429,6.731,4.372,6.731,4.372a31.415,31.415,0,0,1,7.172,4.8,16.147,16.147,0,0,1,4.746,7.147c3.635,12.239-11.423,22.73-10.859,28.656a16.9,16.9,0,0,1-.584-4.758c-1.359,1.949-3.755,5.786-3.131,7.834a5.382,5.382,0,0,1-.734-2.863,6.472,6.472,0,0,0-.446,5.421s-3.01-3.667-.462-9.174l1.709-.1a14.819,14.819,0,0,1,.758-1.6,9.66,9.66,0,0,0,.455-1.348c6.844,1.166,7.022-10.662,3.827-11.173-2.165-.344-4.31,1.07-5.622,2.191l-.509,4.3a21.877,21.877,0,0,0-.479-3.378,7.976,7.976,0,0,0-1.33-3.17c-1.581-1.906-20.343-3.277-21.136-8.81,0,0-4.255,6.563-9.106,8.212-.1.035-.2.066-.3.1a29.588,29.588,0,0,1-.655,12.685c1.243-5.83-4.748-14.77.471-27.789" transform="translate(-520.427 -98.278)" fill="#5e1212"/>
      <path id="Trazado_699372" data-name="Trazado 699372" d="M750.612,386.592s3.48,5.308,7.766,7.072c0,0,8.155-1.551,13.637-6.166a15.478,15.478,0,0,0,2.6-2.73l.007-.006-1.691-.681s-4.647,5.71-14.33,8.032c0,0-4.223-2.463-5.97-5.521l.361-1.739-2.023.14a.043.043,0,0,1-.007.018Z" transform="translate(-556.011 -298.481)" fill="#cecccc"/>
      <path id="Trazado_699373" data-name="Trazado 699373" d="M714.467,238.727c1.73,3.619,7.6,6.875,10.523,8.368.756.382,1.213.6,1.213.6s11.343-2.092,17.5-8.349a13.9,13.9,0,0,0,3-4.383,9.675,9.675,0,0,0,.451-1.351c6.848,1.169,7.027-10.663,3.832-11.17-2.168-.348-4.316,1.066-5.622,2.188l-.51,4.3a21.878,21.878,0,0,0-.477-3.38,8.007,8.007,0,0,0-1.333-3.169c-1.585-1.9-20.346-3.277-21.135-8.805,0,0-4.256,6.56-9.109,8.207a25.614,25.614,0,0,0,.577,3.545c1.293,5.317-1.089,8.855,1.092,13.4" transform="translate(-528.001 -165.978)" fill="#ff8f6a"/>
      <path id="Trazado_699374" data-name="Trazado 699374" d="M819.637,90.164c.361.1.693.207,1,.322h.007c.106.037.205.079.3.115,5.765,2.426,6.734,4.372,6.734,4.372a31.439,31.439,0,0,1,7.172,4.8,19.26,19.26,0,0,0,1.9-.474c12.117-3.709,7.936-17.092-2.68-19.841-9.068-2.347-12.583,4.031-13.92,8.616-.2.669-.347,1.3-.46,1.861-.014.079-.028.152-.043.225" transform="translate(-607.141 -61.362)" fill="#5e1212"/>
      <path id="Trazado_699375" data-name="Trazado 699375" d="M876.107,196.745c5.144-6.018,7.245-11.577,6.245-16.524a13.289,13.289,0,0,0-5.749-8.2l-.121.154a13.092,13.092,0,0,1,5.658,8.079c.987,4.894-1.1,10.4-6.207,16.378Z" transform="translate(-648.842 -133.684)" fill="#5e1212"/>
      <path id="Trazado_699376" data-name="Trazado 699376" d="M716.1,137.994c3.917-10.882,19.963-10.553,26.68-9.906l.024-.185c-6.77-.652-22.945-.979-26.911,10.036Z" transform="translate(-530.296 -99.191)" fill="#5e1212"/>
      <path id="Trazado_699377" data-name="Trazado 699377" d="M819.8,121.736q.435.228.955.547h.007c4.513,2.724,11.808,7.441,11.808,7.441l2.4,1.85a19.268,19.268,0,0,0,1.9-.474,34.422,34.422,0,0,0-16.6-11.225c-.2.669-.347,1.3-.46,1.861" transform="translate(-607.263 -93.159)" fill="#7ac4bd"/>
      <path id="Trazado_699378" data-name="Trazado 699378" d="M693.263,946.784l32.218,76.279c.271.042.539.072.807.087a8.631,8.631,0,0,0,.911.017c3.345-.146,6.4-2.206,8.593-4.2a29.063,29.063,0,0,0,2.341-2.4c.47-.545.8-.977.972-1.2l.132-.183c-3.212-17.744-21.523-73.721-21.523-73.721,6.8-5.416,12.137-13.351,16.295-22.059,11.283-23.6,13.936-52.846,13.936-52.846a35.553,35.553,0,0,0-9.389-6.5c-6.938-3.235-16.606-4.44-25,6.5-6.139,7.992-10.764,22.377-14.095,36.66a374.56,374.56,0,0,0-6.776,39.584,7.879,7.879,0,0,0,.58,3.984" transform="translate(-513.063 -666.62)" fill="#47525e"/>
      <path id="Trazado_699379" data-name="Trazado 699379" d="M721.024,484.522c-.566-37.243-.679-69.159,2.957-78.584,2.412-6.263,6.96-11.972,9.839-15.2-5.482,4.615-13.637,6.166-13.637,6.166-4.286-1.763-7.766-7.072-7.766-7.072l.346-1.581c-.382.778-12.9,26.3-12.251,31.351s1,51.046-1.464,60.525c7.689,3.794,17.061,4.378,21.977,4.39" transform="translate(-517.815 -301.726)" fill="#e8e8e8"/>
      <path id="Trazado_699380" data-name="Trazado 699380" d="M465.589,481.371l2.37,19.7L477.436,506s23.71,36.848,32.4,40.758,12.223-1.362,12.223-1.362c3.494-9.516-5.425-14.259-5.425-14.259l-34.256-29.551c-3.155-2.718-2.171-9.176-2.567-11.717a2.863,2.863,0,0,0-2.766-2.548l-1.181,6.962-1.627-4.481a13.343,13.343,0,0,0-3.275-5,15.938,15.938,0,0,0-5.369-3.423" transform="translate(-344.882 -374.088)" fill="#ff8f6a"/>
      <path id="Trazado_699381" data-name="Trazado 699381" d="M824.907,85.2c0-.067.1-6.749,4.487-9.009,2.393-1.233,5.627-.944,9.612.859l.1-.165c-4.057-1.835-7.363-2.122-9.824-.853-4.49,2.314-4.591,9.1-4.591,9.167Z" transform="translate(-610.885 -58.484)" fill="#5e1212"/>
      <path id="Trazado_699382" data-name="Trazado 699382" d="M885.606,169.125a2.938,2.938,0,0,1,2.543,1.285s.155-2.464-2.543-1.285" transform="translate(-656.007 -131.184)" fill="#5e1212"/>
      <path id="Trazado_699383" data-name="Trazado 699383" d="M816.112,110.256a2.425,2.425,0,0,1,1.5,2.186s1.529-2.089-1.5-2.186" transform="translate(-604.53 -85.683)" fill="#5e1212"/>
      <path id="Trazado_699384" data-name="Trazado 699384" d="M708.962,221.949c7.329-.308,10.171-8.367,10.2-8.449l-.207-.052c-.027.08-2.827,8.013-10,8.315Z" transform="translate(-525.151 -165.877)" fill="#5e1212"/>
      <path id="Trazado_699385" data-name="Trazado 699385" d="M843.274,267.415c5.751-.456,6.09-7.807,4.159-8.865a2.452,2.452,0,0,0-1.818-.158,3.005,3.005,0,0,0-2.334,3.557,7.44,7.44,0,0,0,.651,1.782c.792,1.429-.658,3.685-.658,3.685" transform="translate(-624.597 -200.725)" fill="#db421a"/>
      <path id="Trazado_699386" data-name="Trazado 699386" d="M699.047,480.132l1.457.675c3.416-7.734,1.726-58.221,1.938-61.79s9.973-29.18,9.973-29.18l.346-1.581c-.382.778-12.9,26.3-12.251,31.351s1,51.046-1.464,60.525" transform="translate(-517.815 -301.726)" fill="#cecccc"/>
      <path id="Trazado_699387" data-name="Trazado 699387" d="M782.963,483.653c.014.742.021,1.484.035,2.232.354,23.154,16.657,28.554,29.446,29.223a61.206,61.206,0,0,0,15.129-1.143L810.952,454.77c11.473,3.162,22.953,15.809,22.953,15.809s2.942-4.043,1.761-19.853c-1-13.462-12.986-46.54-16.53-56.074a5.622,5.622,0,0,0-4.032-3.368l-16.742-4.147-.007.006c-.092.085-1.125,1.083-2.6,2.73-2.879,3.223-7.427,8.932-9.839,15.2-3.636,9.425-3.523,41.341-2.957,78.584" transform="translate(-579.754 -300.856)" fill="#ed9aa9"/>
      <path id="Trazado_699388" data-name="Trazado 699388" d="M679.036,834.209a18.755,18.755,0,0,0,4.077,3.294s-1.075-15.981-.147-26.553a34.879,34.879,0,0,1,.96-6.046c-.851,2.853-5.112,17.805-4.891,29.3" transform="translate(-502.986 -625.515)" fill="#e88a9b"/>
      <path id="Trazado_699389" data-name="Trazado 699389" d="M663.006,510.354c-.222-11.5,4.04-26.452,4.891-29.3.078-.268.127-.429.141-.471a.038.038,0,0,0,0-.012c.049-.151.1-.322.147-.5,2.468-9.479,2.1-55.486,1.465-60.526s11.869-30.574,12.249-31.35a.04.04,0,0,0,.009-.02l-10.8,1.733a5.306,5.306,0,0,0-4.129,3.009l-3.723,8.758s1.952,35.685,0,62.07c-.692,9.37-1.88,17.572-3.818,22.575-4.755,12.258-.265,20.036,3.567,24.037" transform="translate(-486.956 -301.66)" fill="#ed9aa9"/>
      <path id="Trazado_699390" data-name="Trazado 699390" d="M694.22,809.307l1.1-6.517c-.015.042-.064.2-.141.471a34.869,34.869,0,0,0-.96,6.046" transform="translate(-514.239 -623.873)" fill="#7ac4bd"/>
      <path id="Trazado_699391" data-name="Trazado 699391" d="M661.07,510.282a47.218,47.218,0,0,0,4.916.529c1.952-26.383,0-62.07,0-62.07Z" transform="translate(-489.684 -348.73)" fill="#e88a9b"/>
      <path id="Trazado_699392" data-name="Trazado 699392" d="M579.706,473.811l-4.4-19.035s-23.5-15.213-42.583-17.352c0,0,23.094,40.5,19.234,61.256,0,0,25.747,7.313,32.981,11.117a229.187,229.187,0,0,0-5.232-35.985" transform="translate(-394.611 -339.936)" fill="#e8e8e8"/>
      <path id="Trazado_699393" data-name="Trazado 699393" d="M576.832,473.811l-4.4-19.035s-23.5-15.213-42.583-17.352c0,0,23.094,40.5,19.234,61.256,0,0,25.747,7.313,32.981,11.117a229.188,229.188,0,0,0-5.232-35.985" transform="translate(-392.482 -339.936)" fill="#d1d1d1"/>
      <path id="Trazado_699394" data-name="Trazado 699394" d="M574.028,476.009l-4.4-19.035s-23.5-15.213-42.583-17.352c0,0,23.094,40.5,19.234,61.256,0,0,25.747,7.314,32.982,11.117a229.2,229.2,0,0,0-5.232-35.985" transform="translate(-390.405 -341.644)" fill="#e8e8e8"/>
      <path id="Trazado_699395" data-name="Trazado 699395" d="M640.226,581.908c2.638,3.569,8.318,15.007,8.693,15.986s12.88,6.987,12.88,6.987,35.38,17.986,50.107,22.352a23.1,23.1,0,0,0,4.131.912c10.383.973,12.357-6.2,12.357-6.2-10.709-12.751-22.953-15.809-22.953-15.809l-.332,2.268c-15.618-3.648-36.264-8.336-36.264-8.336-2.815-1.623-3.416-7.953-3.416-7.953-2.6-5.071-5.086-6.342-6.585-6.579-.7-.109-1.252.492-.976,1.052l2.653,5.363c-8.686-6.98-20.293-10.039-20.293-10.039" transform="translate(-474.244 -452.219)" fill="#ff8f6a"/>
      <path id="Trazado_699396" data-name="Trazado 699396" d="M887.068,559.435s.593-22.361-1.647-37.617c0,0,1.3,2.774,3.463,16.123a132.44,132.44,0,0,1,1.871,22.819Z" transform="translate(-655.87 -405.521)" fill="#e88a9b"/>
      <path id="Trazado_699397" data-name="Trazado 699397" d="M739.261,1609.334s10.438-6.143,11.439-6.544c.8.534,7.408,4.839,9.787,2.963,2.527-2,9.1-7.864,12.335-8.453s5.7-7.153,5.7-7.153l.005.009c.128.164,3.776,4.986,3.834,8.228h0l0,.05a3.652,3.652,0,0,1-.046.617l-.977,13.205a7.561,7.561,0,0,1-2.539,0s0-6.661-.815-9.622a43.2,43.2,0,0,1-4.366,1.543,23.736,23.736,0,0,0-7.442,3.676c-3.33,2.494-9.461,5.026-14.429,4.751-4.789-.273-8.363.2-12.188-.824-1.4-.373-1.615-1.877-.3-2.447" transform="translate(-546.955 -1235.751)" fill="#252d33"/>
      <path id="Trazado_699398" data-name="Trazado 699398" d="M890.49,692.871s13.445,4.4,23.285,13.541c0,0-11.36-13.312-22.953-15.809Z" transform="translate(-659.625 -536.689)" fill="#db421a"/>
      <path id="Trazado_699399" data-name="Trazado 699399" d="M710.171,948.286s5.657-23.654,10.648-32.5L707.1,936.071Z" transform="translate(-523.779 -711.686)" fill="#39434c"/>
      <path id="Trazado_699400" data-name="Trazado 699400" d="M693.252,834.079s.46-29.543,7.1-28.871c10.1,1.023,14.6,7.243,17.518,15.628.255.748.537,1.526.841,2.347,5.227,14.082,27.175,13.231,27.175,13.231l-.071-.073c-12.788-.669-29.092-6.068-29.446-29.223-.014-.748-.021-1.49-.035-2.232-10.688.985-21.977-4.39-21.977-4.39-2.872,7.388-1.1,33.582-1.1,33.582" transform="translate(-513.123 -622.091)" fill="#39434c"/>
      <path id="Trazado_699401" data-name="Trazado 699401" d="M790.519,1592.208c.986.342,9.135,3.052,10.911.558,1.88-2.66,6.557-10.235,9.634-11.641s3.356-8.666,3.356-8.666l-2.806-7.662c-.17.226-.5.657-.972,1.2a29.1,29.1,0,0,1-2.342,2.4c-2.191,1.99-5.248,4.05-8.593,4.2a8.551,8.551,0,0,1-.911-.017c.522,2.248,1.053,4.8,1.4,7.035.663,4.239-6.376,10.1-9.683,12.592" transform="translate(-585.572 -1216.051)" fill="#ff8f6a"/>
      <path id="Trazado_699402" data-name="Trazado 699402" d="M753.519,1626.044l7.454-5.9.041-.036c.141-.1.755-.528,1.633-1.183.987.342,9.137,3.051,10.911.556,1.882-2.658,6.558-10.235,9.634-11.639s3.358-8.667,3.358-8.667l.008.007c.2.148,6.7,5,6.877,8.391l.008,0-.006.08a2.425,2.425,0,0,1-.031.483c0,.01-.005.021-.007.031l-1.037,14.019a7.959,7.959,0,0,1-2.675,0,63.4,63.4,0,0,0-.671-9.334c-.887.627-1.816,1.224-2.69,1.756a22.286,22.286,0,0,0-6.293,5.581c-2.529,3.357-6.965,8.175-12.088,9.137a37.5,37.5,0,0,1-13.572-.442,1.589,1.589,0,0,1-.854-2.837" transform="translate(-557.702 -1242.767)" fill="#39434c"/>
      <path id="Trazado_699403" data-name="Trazado 699403" d="M804.324,791.424c.177.444,6.684,7.266,22.33,9.644V798.4s-.488-.1-1.316-.3c-3.989-.936-15.929-4.037-19.479-8.324,0,0-1.7,1.2-1.535,1.648" transform="translate(-595.789 -613.759)" fill="#e88a9b"/>
      <path id="Trazado_699404" data-name="Trazado 699404" d="M664.132,581.358s-10.8-9.976-19.028-13.076l.626,3.6s15.681,7.046,18.4,9.471" transform="translate(-477.857 -441.629)" fill="#cecccc"/>
    </g>
  </g>
</svg>
