<?xml version="1.0" encoding="utf-8"?>
<!-- Generator: Adobe Illustrator 27.4.0, SVG Export Plug-In . SVG Version: 6.00 Build 0)  -->
<svg version="1.1" id="Capa_1" xmlns="http://www.w3.org/2000/svg" xmlns:xlink="http://www.w3.org/1999/xlink" x="0px" y="0px"
	 viewBox="0 0 61.53 61.53" style="enable-background:new 0 0 61.53 61.53;" xml:space="preserve">
<style type="text/css">
	.st0{fill:#4EAFEE;}
	.st1{fill:#F3D8BE;}
	.st2{fill:none;}
</style>
<g>
	<g>
		<circle class="st0" cx="35.71" cy="30.77" r="23.73"/>
		<g>
			<path d="M50.1,42.46c0.11,0.2,0.02,0.39-0.13,0.49c-0.04,0.1-0.12,0.18-0.26,0.22c-5.62,1.73-11.67,2.09-17.32,0.28
				c-0.34-0.11-0.21-0.58,0.13-0.54c0.01-0.07,0.04-0.13,0.11-0.19c0.74-0.58,0.33-4.47,0.34-5.38c0.01-1.26,0.03-2.53,0.03-3.8
				c0.01-2.94-0.05-5.87,0.09-8.81c-0.2,0.09-0.4,0.17-0.61,0.23c-0.01,0-0.01,0.01-0.03,0.01c-6.2,1.71-11.07,4.31-14.3,9.98
				c-0.48,1.15-0.28,2.5-1.01,3.56c-0.35,0.5-0.97,0.87-1.56,0.83c-0.05,0.08-0.13,0.13-0.23,0.1c-4.87-1.85-2.42-7.23,0.46-11.6
				c-1.45,0.17-2.88-0.17-4.11-0.98c-0.63,0.73-1.26,1.46-1.89,2.17c-1.56,1.75-4.12,6.12-6.98,4.69c-0.09-0.05-0.09-0.15-0.05-0.24
				c-1.25-0.71-0.59-2.6,0.19-3.85c1.4-2.21,3.11-4.18,4.7-6.22c-1.61-1.53,0.09-3.64,1.26-5.02c1.63-1.9,2.17-3.53,3.13-5.76
				c0.43-0.99,0.86-1.48,1.79-1.66c0.03-0.09,0.09-0.16,0.22-0.17c5.77-0.33,11.69-0.28,17.45,0.24c3.2,0.28,6.68,0.89,8.88,3.45
				c2.61,3.05,3.53,7.92,4.47,11.68C46.27,31.74,47.38,37.33,50.1,42.46z M49.25,42.45c-3.84-7.51-4.32-16.04-7.44-23.81
				c-2.43-6.04-7.29-6.76-13.13-7.09c-4.79-0.28-9.57-0.27-14.36-0.28c-0.02,0.02-0.04,0.04-0.07,0.05
				c-1.83,0.44-2.25,3.9-3.17,5.32C10.05,18.24,6.58,20.82,8,23c1.17-1.53,2.26-3.11,3.09-4.9c0.15-0.34,0.65-0.04,0.5,0.29
				c-0.93,2.13-2.21,3.98-3.65,5.79c-0.32,0.41-1.96,2.26-3.29,4.2c0.98,0.42,1.2,1.55,0.85,2.48c-0.4,1.06-1.32,1.89-2.42,2.11
				c0.15,0.2,0.38,0.35,0.71,0.43c0.04,0.01,0.06,0.03,0.08,0.06c2.59-0.48,6.37-5.79,7.61-7.29c2.13-2.57,3.88-5.32,5.73-8.09
				c-0.26-0.81-0.44-1.63-0.54-2.47c-0.02-0.2,0.3-0.24,0.34-0.05c0.59,2.52,1.65,4.64,3.19,6.7c0.09,0.13,0.03,0.27-0.07,0.35
				c-0.03,0.05-0.07,0.11-0.09,0.16c0.01,0.11-0.05,0.22-0.15,0.26c-2.05,3.34-8.96,11.07-5.93,14.83
				c-0.17-1.06,0.03-2.22,0.73-3.05c0.92-1.09,1.9-0.63,2.93-0.06c0.1-0.19,0.22-0.37,0.37-0.54c2.36-5.58,8.66-8.7,14.36-9.69
				c0.03,0,0.05,0,0.08,0.01c1.09-0.42,1.79-1.33,2.28-2.44c0.09-0.21,0.46-0.11,0.43,0.11c-0.12,1.03-0.82,1.88-1.72,2.38
				c0.02,0.03,0.04,0.05,0.05,0.09c0.4,4.2,0.34,8.46,0.29,12.67c-0.01,1.2,0.65,4.66-0.4,5.72C38.77,44.02,43.9,44.04,49.25,42.45z
				 M14.79,22.92c1.51-0.55,3.43-1.2,4.82-0.5c-1.01-1.16-1.78-2.52-2.29-3.96C16.65,20.02,15.77,21.5,14.79,22.92z M19.38,22.93
				c-1.58-0.51-3.39,0.2-5,0.55c-0.75,1.04-1.55,2.05-2.37,3.03c1.29,0.69,2.67,0.92,4.13,0.71c0.03,0,0.06,0,0.09,0.01
				C17.41,25.49,18.62,23.96,19.38,22.93z M17.18,36.17c0.06-0.38,0.13-0.75,0.27-1.1c-0.44-0.24-0.91-0.59-1.41-0.57
				c-0.59,0.02-1.04,0.51-1.3,0.98c-0.48,0.83-0.55,1.84-0.42,2.78c0.26,0.24,0.57,0.45,0.93,0.65C16.76,39.09,17,37.31,17.18,36.17
				z M2.96,32.72c1.49-0.36,3.57-3.03,1.47-4c0,0-0.01-0.01-0.01-0.01C3.39,30.28,2.62,31.84,2.96,32.72z"/>
			<path class="st1" d="M41.81,18.64c3.12,7.76,3.6,16.3,7.44,23.81c-5.35,1.59-10.48,1.57-15.9,0.61c1.04-1.06,0.38-4.52,0.4-5.72
				c0.05-4.22,0.11-8.47-0.29-12.67c-0.01-0.04-0.03-0.07-0.05-0.09c0.89-0.5,1.59-1.35,1.72-2.38c0.03-0.22-0.34-0.32-0.43-0.11
				c-0.49,1.12-1.19,2.02-2.28,2.44c-0.03-0.01-0.05-0.01-0.08-0.01c-5.7,0.99-11.99,4.1-14.36,9.69c-0.15,0.17-0.27,0.35-0.37,0.54
				c-1.04-0.57-2.02-1.03-2.93,0.06c-0.69,0.83-0.9,1.99-0.73,3.05c-3.03-3.77,3.88-11.49,5.93-14.83c0.1-0.04,0.16-0.15,0.15-0.26
				c0.03-0.05,0.07-0.11,0.09-0.16c0.1-0.08,0.16-0.22,0.07-0.35c-1.53-2.07-2.6-4.18-3.19-6.7c-0.05-0.19-0.36-0.15-0.34,0.05
				c0.1,0.83,0.28,1.66,0.54,2.47c-1.85,2.76-3.6,5.52-5.73,8.09c-1.24,1.49-5.02,6.81-7.61,7.29c-0.02-0.03-0.04-0.05-0.08-0.06
				c-0.33-0.08-0.56-0.23-0.71-0.43c1.1-0.22,2.02-1.05,2.42-2.11c0.35-0.93,0.12-2.06-0.85-2.48c1.33-1.94,2.97-3.79,3.29-4.2
				c1.43-1.82,2.72-3.67,3.65-5.79c0.15-0.33-0.34-0.63-0.5-0.29C10.26,19.88,9.17,21.47,8,23c-1.42-2.18,2.06-4.76,3.09-6.36
				c0.91-1.42,1.34-4.88,3.17-5.32c0.03-0.01,0.05-0.03,0.07-0.05c4.79,0.01,9.57,0.01,14.36,0.28
				C34.52,11.88,39.38,12.6,41.81,18.64z"/>
			<path class="st1" d="M19.61,22.41c-1.39-0.7-3.31-0.05-4.82,0.5c0.98-1.42,1.86-2.9,2.53-4.47
				C17.83,19.89,18.6,21.25,19.61,22.41z"/>
			<path class="st1" d="M14.39,23.48c1.61-0.35,3.42-1.06,5-0.55c-0.77,1.03-1.97,2.56-3.16,4.3c-0.03-0.01-0.05-0.01-0.09-0.01
				c-1.46,0.21-2.84-0.02-4.13-0.71C12.84,25.53,13.64,24.52,14.39,23.48z"/>
			<path class="st1" d="M17.45,35.07c-0.13,0.34-0.21,0.71-0.27,1.1c-0.17,1.14-0.42,2.92-1.94,2.73c-0.36-0.19-0.67-0.41-0.93-0.65
				c-0.13-0.94-0.06-1.94,0.42-2.78c0.26-0.46,0.71-0.96,1.3-0.98C16.53,34.49,17,34.84,17.45,35.07z"/>
			<path class="st1" d="M4.42,28.73c2.1,0.97,0.03,3.63-1.47,4c-0.34-0.88,0.43-2.44,1.45-4C4.42,28.72,4.42,28.73,4.42,28.73z"/>
		</g>
	</g>
	<rect class="st2" width="61.53" height="61.53"/>
</g>
</svg>
