<svg xmlns="http://www.w3.org/2000/svg" xmlns:xlink="http://www.w3.org/1999/xlink" width="136.494" height="136.494" viewBox="0 0 136.494 136.494">
  <defs>
    <clipPath id="clip-path">
      <rect id="Rectángulo_344844" data-name="Rectángulo 344844" width="64.662" height="95.47" fill="none"/>
    </clipPath>
  </defs>
  <g id="Grupo_1000151" data-name="Grupo 1000151" transform="translate(3045.247 -416.627)">
    <path id="Trazado_705404" data-name="Trazado 705404" d="M.689,643.445a68.238,68.238,0,1,1,77.172,57.943A68.239,68.239,0,0,1,.689,643.445" transform="translate(-3045.247 -148.956)" fill="#ed9aa9"/>
    <path id="Trazado_705405" data-name="Trazado 705405" d="M17.748,647.442a56.688,56.688,0,1,1,64.111,48.135,56.689,56.689,0,0,1-64.111-48.135" transform="translate(-3050.871 -154.58)" fill="#fff"/>
    <g id="Grupo_1000148" data-name="Grupo 1000148" transform="translate(-3012.331 434.57)">
      <g id="Grupo_998685" data-name="Grupo 998685" clip-path="url(#clip-path)">
        <path id="Trazado_701666" data-name="Trazado 701666" d="M28.781,34.518C48.93,44.4,73.294,36.73,73.294,36.73S73.55-4.038,51.094.7C31.88-5.736,28.781,34.518,28.781,34.518" transform="translate(-14.465 0)" fill="#a3333b"/>
        <path id="Trazado_701667" data-name="Trazado 701667" d="M90.429,77.388c10.211,4.536,17.93,34,18.7,39.871.367,2.8-5.483,5.079-7.635-.994s-6.779-19.832-9.129-22.194-1.935-16.683-1.935-16.683" transform="translate(-45.436 -38.895)" fill="#edb984"/>
        <path id="Trazado_701668" data-name="Trazado 701668" d="M90.43,77.388s-.053,1.859-.012,4.345c1.7.012,3.354-.035,4.954-.142a13.971,13.971,0,0,0-4.941-4.2" transform="translate(-45.436 -38.895)" fill="#e79b69"/>
        <path id="Trazado_701669" data-name="Trazado 701669" d="M91.474,101.443c2.385,2.284,7.21,15.59,9.45,21.464,1.051,2.756,2.886,3.72,4.5,3.7-.836-5.281-7.384-28.272-16.046-36.256.17,4.206.668,9.723,2.1,11.091" transform="translate(-44.921 -45.411)" fill="#e79b69"/>
        <path id="Trazado_701670" data-name="Trazado 701670" d="M38.433,75.226C28.113,79.638,19.69,108.3,18.781,114.008c-.433,2.72,5.362,4.941,7.659-.967S33.692,93.751,36.1,91.453s2.334-16.227,2.334-16.227" transform="translate(-9.428 -37.809)" fill="#edb984"/>
        <path id="Trazado_701671" data-name="Trazado 701671" d="M54.6,75.226a12.265,12.265,0,0,0-3.68,2.613q1.755.508,3.615.939c.073-2.071.066-3.552.066-3.552" transform="translate(-25.59 -37.809)" fill="#e79b69"/>
        <path id="Trazado_701672" data-name="Trazado 701672" d="M26.028,119.019c1.53-.156,3.168-1.138,4.17-3.523,2.373-5.644,7.54-18.548,10-20.71,2.044-1.794,2.517-11.7,2.621-15.033-9.255,9.334-16.012,33.98-16.78,39.079a1.835,1.835,0,0,0-.015.187" transform="translate(-13.082 -40.084)" fill="#e79b69"/>
        <path id="Trazado_701673" data-name="Trazado 701673" d="M48.933,158.187H79.269l-7.014-33.363-18.426-.04Z" transform="translate(-24.594 -62.717)" fill="#ff3e4c"/>
        <path id="Trazado_701674" data-name="Trazado 701674" d="M63.26,137.542c7.248.046,13.874,8.863,15.07,20.645h.94l-7.014-33.363-18.426-.04-4.9,33.4h.646c.34-11.88,6.4-20.691,13.68-20.645" transform="translate(-24.594 -62.717)" fill="#d12439"/>
        <path id="Trazado_701675" data-name="Trazado 701675" d="M53.18,74.58c-4.328,11.432-5.622,27.856-4.886,29.61s26.541,1.184,27.276-.219-4.8-26.179-5.908-27.933S53.714,73.17,53.18,74.58" transform="translate(-24.175 -37.162)" fill="#ff3e4c"/>
        <path id="Trazado_701676" data-name="Trazado 701676" d="M74.92,80.035a24.186,24.186,0,0,0-1.256-4,1.054,1.054,0,0,0-.324-.294h0a2.668,2.668,0,0,0-.242-.136l-.023-.012c-.086-.043-.182-.085-.283-.126l-.043-.017c-.1-.041-.208-.08-.322-.119l-.059-.02c-.113-.038-.234-.076-.359-.112l-.074-.022c-.125-.036-.257-.072-.393-.106l-.087-.023c-.136-.034-.278-.068-.423-.1l-.1-.022q-.22-.049-.452-.1l-.1-.02q-.237-.048-.484-.093l-.1-.017q-.253-.046-.514-.089l-.1-.016c-.178-.028-.358-.057-.541-.084l-.09-.013-.576-.08-.06-.007c-1.085-.142-2.231-.257-3.356-.337h-.019l-.5-.032-.213-.014L63.4,74l-.273-.013-.378-.015-.307-.011-.341-.009-.322-.007-.314,0-.325,0H60.85l-.317,0-.271.006-.3.009-.251.011-.282.016-.228.016-.26.023-.2.021c-.082.009-.159.019-.235.03l-.179.025c-.073.012-.14.025-.207.038-.051.01-.1.02-.151.031-.064.014-.12.03-.177.047-.041.011-.085.022-.121.034-.054.018-.1.037-.144.057-.029.013-.063.025-.09.038a.772.772,0,0,0-.109.072c-.017.012-.039.023-.054.036a.326.326,0,0,0-.088.12h0c-.4,1.054-.772,2.152-1.121,3.276a42.29,42.29,0,0,0,18.859,2.18" transform="translate(-28.176 -37.163)" fill="#d12439"/>
        <path id="Trazado_701677" data-name="Trazado 701677" d="M58.73,74.119c-1.9,11.066-1.958,22-1.45,22.513.592.592,16.665.423,17.511-.423.588-.588-1.523-13.405-2.864-21.161-3.616-.91-10.532-1.389-13.2-.929" transform="translate(-28.652 -37.163)" fill="#edb984"/>
        <path id="Trazado_701678" data-name="Trazado 701678" d="M70.795,86.889c1.58,7.825,3.634,21.134,3.1,22.143-.739,1.384-24.187,2.388-24.919.657-.5-1.192-.425-9.886,1.1-18.867-2.157,9.521-2.881,19.091-2.338,20.386.736,1.754,27.379,1.075,28.115-.328.567-1.081-2.916-16.272-5.05-23.991" transform="translate(-23.902 -43.671)" fill="#d12439"/>
        <path id="Trazado_701679" data-name="Trazado 701679" d="M115.821,171.886h6.117c.306-6.726.223-13.366-.84-17.371a3.2,3.2,0,0,0-3.833-2.38c-1.575.4-3.148,1.872-2.987,6.2.086,2.315.74,7.655,1.543,13.554" transform="translate(-57.431 -76.416)" fill="#edb984"/>
        <path id="Trazado_701680" data-name="Trazado 701680" d="M117.156,152.3c-1.538.443-3.035,1.939-2.878,6.164.086,2.316.74,7.655,1.543,13.554H118.5c.107-1.663.167-3.415.167-5.233a59.875,59.875,0,0,0-1.515-14.485" transform="translate(-57.43 -76.544)" fill="#e79b69"/>
        <path id="Trazado_701681" data-name="Trazado 701681" d="M7.107,67.356c-.606-.766-3.577.209-3.756.963-.152.636-.718,2.261,2.673,6.489l1.288-.353s.4-6.333-.2-7.1" transform="translate(-1.618 -33.713)" fill="#e79b69"/>
        <path id="Trazado_701682" data-name="Trazado 701682" d="M14.959,116.532C9.375,109.589,8.4,75.889,8.4,75.889l.578-.514s9.592,28.2,10.9,34.4c1.714,8.1-4.926,6.762-4.926,6.762" transform="translate(-4.224 -37.884)" fill="#edb984"/>
        <path id="Trazado_701683" data-name="Trazado 701683" d="M20.246,126.68c-2.832.631-7.213-8.144-9.95-19.786.891,9.908,2.563,21.686,5.614,25.48,0,0,6.266,1.262,5.05-6.1a1.507,1.507,0,0,1-.714.4" transform="translate(-5.175 -53.725)" fill="#e79b69"/>
        <path id="Trazado_701684" data-name="Trazado 701684" d="M9.283,74a2.834,2.834,0,0,0-.927,3.654l1.369.756c.695-.883.708-2.991,1.537-3.7.662-.569-.845-1.044-1.98-.706" transform="translate(-4.046 -37.134)" fill="#edb984"/>
        <path id="Trazado_701685" data-name="Trazado 701685" d="M14.8,70.508a8.9,8.9,0,0,0-2.329,1.281l-.959.387.72,1.251c3.2-1.637,3.217-2.981,2.569-2.919" transform="translate(-5.786 -35.436)" fill="#edb984"/>
        <path id="Trazado_701686" data-name="Trazado 701686" d="M6.025,68.629c-.2-.915-.559-1.223-.9-1.148s-.547.5-.349,1.42.559,1.223.9,1.148.547-.5.348-1.42" transform="translate(-2.359 -33.911)" fill="#edb984"/>
        <path id="Trazado_701687" data-name="Trazado 701687" d="M8.065,67.523c-.23-1.062-.6-1.43-.949-1.354s-.534.563-.3,1.626.572,1.2.918,1.121.566-.33.335-1.392" transform="translate(-3.373 -33.252)" fill="#edb984"/>
        <path id="Trazado_701688" data-name="Trazado 701688" d="M8.655,59.386c-.23-1.062-.578-1.443-.925-1.368s-.383.477-.152,1.539c.1.44.585,3.408.717,3.627.188.311.4.419.6.375s.361-.242.4-.627c.023-.25-.549-3.127-.64-3.546" transform="translate(-3.735 -29.155)" fill="#edb984"/>
        <path id="Trazado_701689" data-name="Trazado 701689" d="M1.352,63.058C.963,62.043.561,61.72.23,61.847s-.305.53.084,1.544c.161.42,1.1,3.279,1.26,3.476.233.279.459.354.653.279s.32-.294.3-.68c-.015-.251-1.018-3.008-1.171-3.408" transform="translate(0 -31.071)" fill="#edb984"/>
        <path id="Trazado_701690" data-name="Trazado 701690" d="M73.011,75.048c-3.612-.909-10.527-1.389-13.2-.932-.247,1.434-.464,2.865-.651,4.272a41.66,41.66,0,0,0,7.911,1.646,42.551,42.551,0,0,0,6.82.222c-.307-1.849-.611-3.632-.884-5.209" transform="translate(-29.735 -37.163)" fill="#e79b69"/>
        <path id="Trazado_701691" data-name="Trazado 701691" d="M73.7,46.7l-6.492-.945-.9,14.186c-.164,4.073,7.9,4.4,8.059.323Z" transform="translate(-33.325 -22.998)" fill="#d27558"/>
        <path id="Trazado_701692" data-name="Trazado 701692" d="M65.579,43.72c-9.9-4.918-9.548-14.02-9.488-19.259s3.64-8.937,9.129-8.937,9.093,3.069,8.994,11.662A21.16,21.16,0,0,1,65.579,43.72" transform="translate(-28.183 -7.802)" fill="#edb984"/>
        <path id="Trazado_701693" data-name="Trazado 701693" d="M52.646,43.1c-.438-1.479-1.249-2.582-1.811-2.464s-.662,1.415-.224,2.894S51.86,46.115,52.422,46s.662-1.414.224-2.894" transform="translate(-25.3 -20.42)" fill="#edb984"/>
        <path id="Trazado_701694" data-name="Trazado 701694" d="M93.238,43.1c.438-1.479,1.249-2.582,1.811-2.464s.662,1.415.224,2.894S94.024,46.115,93.462,46s-.662-1.414-.224-2.894" transform="translate(-46.724 -20.42)" fill="#edb984"/>
        <path id="Trazado_701695" data-name="Trazado 701695" d="M65.774,40.2c-.08-1.017-.756-1.831-1.511-1.818s-1.3.847-1.222,1.864.757,1.831,1.511,1.818,1.3-.847,1.222-1.864" transform="translate(-31.681 -19.29)" fill="#5a4949"/>
        <path id="Trazado_701696" data-name="Trazado 701696" d="M64.167,33.166l-2.844.744c-.239.063-.374.25-.3.42l.276.638a.483.483,0,0,0,.566.193l2.844-.744c.239-.062.374-.25.3-.419l-.276-.639a.483.483,0,0,0-.566-.193" transform="translate(-30.66 -16.659)" fill="#a3333b"/>
        <path id="Trazado_701697" data-name="Trazado 701697" d="M82.466,40.658a1.647,1.647,0,0,0-1.477-1.627A1.408,1.408,0,0,0,79.782,40.7a1.647,1.647,0,0,0,1.477,1.627,1.407,1.407,0,0,0,1.207-1.669" transform="translate(-40.095 -19.617)" fill="#5a4949"/>
        <path id="Trazado_701698" data-name="Trazado 701698" d="M82.983,34.2l-2.72-1.121a.471.471,0,0,0-.579.116l-.345.6c-.092.159.02.364.249.458l2.72,1.121a.472.472,0,0,0,.579-.116l.345-.6c.092-.158-.02-.364-.249-.458" transform="translate(-39.86 -16.6)" fill="#a3333b"/>
        <path id="Trazado_701699" data-name="Trazado 701699" d="M71.757,48.172a1.959,1.959,0,0,1-.887-.874l-.031,0a2.682,2.682,0,0,0,1.042,1.386c.678.322,1.274-.357,2.059-1.632-.843.939-1.51,1.4-2.183,1.118" transform="translate(-35.604 -23.649)" fill="#d27558"/>
        <path id="Trazado_701700" data-name="Trazado 701700" d="M74.15,54.694l-6,.017a3.407,3.407,0,0,0,2.8,3.1c2.759.665,3.2-3.118,3.2-3.118" transform="translate(-34.252 -27.489)" fill="#3e2d34"/>
        <path id="Trazado_701701" data-name="Trazado 701701" d="M73.763,56.7a4.715,4.715,0,0,0,.457-1.46l-4.845.013a2.732,2.732,0,0,0,.494,1.373Z" transform="translate(-34.868 -27.765)" fill="#f9eddb"/>
        <path id="Trazado_701702" data-name="Trazado 701702" d="M54.726,20.845c3.584-3.512,5.431-7.907,4.126-9.816s-5.268-.61-8.852,2.9-5.431,7.907-4.126,9.816,5.268.61,8.852-2.9" transform="translate(-22.846 -5.101)" fill="#a3333b"/>
        <path id="Trazado_701703" data-name="Trazado 701703" d="M75.82,16.483c2.767,4.186,6.731,6.834,8.853,5.916s1.6-5.057-1.167-9.242-6.731-6.834-8.853-5.916-1.6,5.056,1.167,9.242" transform="translate(-36.865 -3.548)" fill="#a3333b"/>
        <path id="Trazado_701704" data-name="Trazado 701704" d="M71.927,75.175c-.092-.023-.193-.045-.289-.067,1.254,7.8,3.113,19.979,2.578,20.552-.79.846-15.808,1.015-16.361.423-.467-.5-.425-11.04,1.257-21.889-.131.016-.266.032-.382.053-1.9,11.065-1.959,22-1.45,22.513.592.592,16.665.423,17.511-.423.588-.588-1.523-13.406-2.864-21.161" transform="translate(-28.652 -37.289)" fill="#e79b69"/>
        <path id="Trazado_701705" data-name="Trazado 701705" d="M73.454,110.546a45.1,45.1,0,0,1-.931,4.653l2.538-.169Z" transform="translate(-36.45 -55.561)" fill="#e79b69"/>
      </g>
    </g>
  </g>
</svg>
