<svg xmlns="http://www.w3.org/2000/svg" xmlns:xlink="http://www.w3.org/1999/xlink" width="85" height="85" viewBox="0 0 85 85">
  <defs>
    <clipPath id="clip-path">
      <rect id="Rect치ngulo_344905" data-name="Rect치ngulo 344905" width="59.077" height="59.071" fill="#fff"/>
    </clipPath>
  </defs>
  <g id="Grupo_1000161" data-name="Grupo 1000161" transform="translate(3522 -3283)">
    <g id="Grupo_1000157" data-name="Grupo 1000157" transform="translate(-3807 -2476)">
      <g id="Grupo_896273" data-name="Grupo 896273" transform="translate(0 -35)">
        <rect id="Rect치ngulo_344349" data-name="Rect치ngulo 344349" width="85" height="85" rx="11" transform="translate(285 5794)" fill="#cb5f72"/>
        <circle id="Elipse_4817" data-name="Elipse 4817" cx="8.5" cy="8.5" r="8.5" transform="translate(353 5804)" fill="#cceafb"/>
        <circle id="Elipse_4818" data-name="Elipse 4818" cx="3.5" cy="3.5" r="3.5" transform="translate(353 5794)" fill="#cceafb"/>
      </g>
      <g id="Grupo_998805" data-name="Grupo 998805" transform="translate(297.047 5771.965)">
        <g id="Grupo_998804" data-name="Grupo 998804" clip-path="url(#clip-path)">
          <path id="Trazado_702191" data-name="Trazado 702191" d="M15.01,0c1.248.213,2.51.365,3.741.651a23.467,23.467,0,0,1,9.915,5.3A15.238,15.238,0,0,1,34.3,18.1a48.658,48.658,0,0,1-2.79,16.213,2.816,2.816,0,0,0-.163.652,15.389,15.389,0,0,1,10.567-6.257,14.681,14.681,0,0,1,11.736,3.479A15.229,15.229,0,0,1,40.007,58.572a14.915,14.915,0,0,1-6.723-3.764,15.074,15.074,0,0,1-4.059-6.619,15.956,15.956,0,0,1-.349-7.694c-.629,1.118-1.24,2.246-1.889,3.352A62.887,62.887,0,0,1,18.2,55.214c-.546.576-1.057,1.192-1.653,1.711a8.852,8.852,0,0,1-14.383-4.77c-.2-.82-.247-1.676-.373-2.575h1.9a17.483,17.483,0,0,0,.377,2.284,6.846,6.846,0,0,0,5.148,5.091A6.656,6.656,0,0,0,16,54.8a74.488,74.488,0,0,0,8.319-10.239,49.047,49.047,0,0,0,7.564-19.526,35.33,35.33,0,0,0,.414-8.717A12.729,12.729,0,0,0,28.1,8.013a21.832,21.832,0,0,0-9.5-5.439,15.375,15.375,0,0,0-7.473-.384A10.339,10.339,0,0,0,3.353,9.478c-.534,1.657-1.005,3.334-1.527,5.072L0,14.014c.52-1.729,1.009-3.434,1.546-5.125A12.214,12.214,0,0,1,9.508.677,26.207,26.207,0,0,1,12.39,0ZM43.842,30.484A13.336,13.336,0,1,0,57.162,43.82a13.355,13.355,0,0,0-13.32-13.337" fill="#fff"/>
          <path id="Trazado_702192" data-name="Trazado 702192" d="M54.746,78.678c.5-1,.977-1.928,1.435-2.87,1.437-2.957,3.012-5.858,4.262-8.893a23.776,23.776,0,0,0,1.619-12.484,16.152,16.152,0,0,0-4.488-9.514A9.816,9.816,0,0,0,49.03,42.05a5.566,5.566,0,0,0-4.846,5.831,5.7,5.7,0,0,0,5.265,5.489l.394.036v1.818c-3.349.294-8.1-3.008-7.546-8.616a7.1,7.1,0,0,0-.934,2.956A8.674,8.674,0,0,0,49.9,59.1a20.814,20.814,0,0,1,3.367.265A7.3,7.3,0,0,1,58.3,63.454l-1.595.806c-2.071-2.772-3.484-3.443-6.831-3.225a12.682,12.682,0,0,1,1.9,6.587H49.947c-.121-.787-.207-1.594-.375-2.383a10.579,10.579,0,0,0-2.261-4.467,1.252,1.252,0,0,0-.544-.318,10.365,10.365,0,0,1-7.254-8.422,10.483,10.483,0,0,1,8.945-11.872C54.2,39.527,58.8,42.009,61.682,47.3a21.4,21.4,0,0,1,2.366,12.663,30.888,30.888,0,0,1-3.47,11.353c-1.321,2.529-2.567,5.1-3.848,7.646-.087.174-.183.345-.3.56l-1.687-.839" transform="translate(-34.678 -35.284)" fill="#fff"/>
          <path id="Trazado_702193" data-name="Trazado 702193" d="M32.951,223.751a7.641,7.641,0,0,1,7.507,6.617,6.747,6.747,0,0,1-2.869,6.514c-.935.7-1.023.91-.776,1.664a1.983,1.983,0,0,0,1.836,1.366,1.925,1.925,0,0,0,1.831-1.1c.357-.685.694-1.38,1.045-2.068a5.253,5.253,0,0,1,3.73-2.867,3.337,3.337,0,0,0,2.9-3.565c0-.271,0-.543,0-.842h1.824a5.216,5.216,0,0,1-3.819,6.134,4.2,4.2,0,0,0-3.281,2.679,14.185,14.185,0,0,1-.746,1.486,3.879,3.879,0,0,1-7.3-1.695c-.039-1.169-.012-2.34-.016-3.51A2.948,2.948,0,0,0,32,231.311v-1.86a4.655,4.655,0,0,1,3.59,1.692,5.182,5.182,0,0,1,1.123,3.85c1.26-.517,2.078-2.572,1.834-4.51-.333-2.646-2.411-4.475-5.594-4.894Z" transform="translate(-28.18 -197.05)" fill="#fff"/>
          <path id="Trazado_702194" data-name="Trazado 702194" d="M284.825,304.121q0,3.662,0,7.323c0,1.12-.629,1.517-1.624,1.022-2.2-1.1-4.391-2.209-6.6-3.287a3.068,3.068,0,0,0-1.183-.282c-.931-.04-1.865-.007-2.8-.015-.778-.007-1.127-.352-1.129-1.129q-.009-3.632,0-7.264c0-.779.349-1.115,1.129-1.131a.836.836,0,0,1,.119,0,9.558,9.558,0,0,0,6.272-1.461c1.337-.805,2.786-1.426,4.189-2.121,1-.493,1.623-.1,1.624,1.022q.006,3.662,0,7.323m-1.931,6.064V298.129a.787.787,0,0,0-.195.034c-1.738.865-3.478,1.726-5.2,2.613a.665.665,0,0,0-.278.5q-.029,2.857,0,5.715a.611.611,0,0,0,.245.462c1.777.912,3.567,1.8,5.434,2.734m-9.459-3.253h1.834V301.29h-1.834Z" transform="translate(-239.094 -260.301)" fill="#fff"/>
          <path id="Trazado_702195" data-name="Trazado 702195" d="M397.018,333.8l-3.158-3.1,1.387-1.265,3.03,3.039,3.088-3.191,1.322,1.473-3.018,2.992,3.153,3.127-1.454,1.317-2.993-3.021-3.122,3.145-1.33-1.439,3.095-3.072" transform="translate(-346.866 -289.994)" fill="#fff"/>
        </g>
      </g>
    </g>
  </g>
</svg>
