<svg xmlns="http://www.w3.org/2000/svg" xmlns:xlink="http://www.w3.org/1999/xlink" width="136.494" height="136.494" viewBox="0 0 136.494 136.494">
  <defs>
    <clipPath id="clip-path">
      <rect id="Rectángulo_344845" data-name="Rectángulo 344845" width="69.133" height="90.61" fill="none"/>
    </clipPath>
  </defs>
  <g id="Grupo_1000152" data-name="Grupo 1000152" transform="translate(2687.494 -416.627)">
    <path id="Trazado_705406" data-name="Trazado 705406" d="M.689,643.445a68.238,68.238,0,1,1,77.172,57.943A68.239,68.239,0,0,1,.689,643.445" transform="translate(-2687.494 -148.956)" fill="#0098e8"/>
    <path id="Trazado_705407" data-name="Trazado 705407" d="M17.748,647.442a56.688,56.688,0,1,1,64.111,48.135,56.689,56.689,0,0,1-64.111-48.135" transform="translate(-2693.117 -154.58)" fill="#fff"/>
    <g id="Grupo_1000149" data-name="Grupo 1000149" transform="translate(-2652 437.431)">
      <g id="Grupo_998687" data-name="Grupo 998687" clip-path="url(#clip-path)">
        <path id="Trazado_701706" data-name="Trazado 701706" d="M99.505,83.991l-6.411,37.838c2.891,2.849,2.419,15.064,2.419,15.064h16.763c4.639-22.313-.713-41.8-12.771-52.9" transform="translate(-51.299 -46.283)" fill="#708db7"/>
        <path id="Trazado_701707" data-name="Trazado 701707" d="M103.244,148.145c4.841-17.029.4-40.639-3.653-43.734L90.361,131.5c4.018,3.245,5.065,16.642,5.065,16.642Z" transform="translate(-49.793 -57.535)" fill="#537296"/>
        <path id="Trazado_701708" data-name="Trazado 701708" d="M118.042,179.009l-16.48,2.384a1.361,1.361,0,0,0-1,1.449l.055,4.946a1.35,1.35,0,0,0,1.165,1.459H117a1.232,1.232,0,0,0,1.109-1.142l1.2-7.33c.16-.978-.488-1.879-1.271-1.766" transform="translate(-55.413 -98.637)" fill="#f4e9c3"/>
        <path id="Trazado_701709" data-name="Trazado 701709" d="M109.7,190.115a33.368,33.368,0,0,1,1.095-8.759l-9.23,1.336a1.361,1.361,0,0,0-1,1.45l.056,4.945a1.35,1.35,0,0,0,1.165,1.459H109.7c0-.144,0-.286,0-.431" transform="translate(-55.413 -99.936)" fill="#e5d5a8"/>
        <path id="Trazado_701710" data-name="Trazado 701710" d="M15.079,126.412l38.33.331c4.734-13.326,10.766-43.975,3.7-51.3-6.725-6.968-17.669-9.854-17.669-9.854s-15.319.524-23.56,12.459c-5.744,8.318-.8,48.365-.8,48.365" transform="translate(-7.218 -36.142)" fill="#708db7"/>
        <path id="Trazado_701711" data-name="Trazado 701711" d="M35.009,117.838c-8.8,0-16.619-2.677-21.6-6.827-1.238,14.731,1.674,38.3,1.674,38.3l16.2.14a46.587,46.587,0,0,1,4.857-12.963c6.671-12.219,17.028-19.911,23.893-18.06a62.991,62.991,0,0,0,.109-11.285c-4.132,6.284-13.826,10.7-25.127,10.7" transform="translate(-7.218 -59.041)" fill="#537296"/>
        <path id="Trazado_701712" data-name="Trazado 701712" d="M73.832,75.442c-6.725-6.968-17.669-9.854-17.669-9.854a36.979,36.979,0,0,0-12.708,3.329c2.98,2.428,8.2,4.764,14.381,6.184,6.493,1.492,12.474,1.613,16.19.572-.066-.075-.126-.161-.194-.231" transform="translate(-23.946 -36.142)" fill="#537296"/>
        <path id="Trazado_701713" data-name="Trazado 701713" d="M60.538,64.579a59.35,59.35,0,0,0-9.144,2.353,54.635,54.635,0,0,0,7.331,14.41A64.62,64.62,0,0,0,70.2,69a79.674,79.674,0,0,0-9.665-4.418" transform="translate(-28.321 -35.586)" fill="#e0d5a9"/>
        <path id="Trazado_701714" data-name="Trazado 701714" d="M65.261,75.706A51.011,51.011,0,0,0,70.2,69.553l0,0c-.22-.119-.437-.233-.654-.348a48.564,48.564,0,0,0-9.006-3.614,35.939,35.939,0,0,0-8.843,1.8l-.3.1a48.912,48.912,0,0,0,1.765,4.6A47.634,47.634,0,0,0,62.211,75.1c1.033.237,2.05.436,3.05.6" transform="translate(-28.321 -36.142)" fill="#d1c18f"/>
        <path id="Trazado_701715" data-name="Trazado 701715" d="M69.693,46.609l-10.417-.447L58.336,56c1.148,4.2,8.887,4.686,12.313,1.087Z" transform="translate(-32.146 -25.437)" fill="#d27558"/>
        <path id="Trazado_701716" data-name="Trazado 701716" d="M53.42,32.872c-.9-2.02-2.666-3.342-3.934-2.952s-1.563,2.344-.658,4.364,2.666,3.342,3.934,2.952,1.563-2.344.659-4.364" transform="translate(-26.617 -16.449)" fill="#edb984"/>
        <path id="Trazado_701717" data-name="Trazado 701717" d="M53.818,34.343c-.6-1.367-1.751-2.273-2.562-2.024s-.978,1.56-.374,2.927,1.751,2.273,2.561,2.024.978-1.56.374-2.927" transform="translate(-27.839 -17.787)" fill="#d27558"/>
        <path id="Trazado_701718" data-name="Trazado 701718" d="M56.214,37.674c-.408-.91-1.2-1.506-1.773-1.33s-.7,1.056-.3,1.966,1.2,1.506,1.773,1.33.7-1.056.3-1.966" transform="translate(-29.706 -20.01)" fill="#edb984"/>
        <path id="Trazado_701719" data-name="Trazado 701719" d="M86.165,36.57c.9-2.02,2.666-3.342,3.934-2.952s1.563,2.344.658,4.364-2.665,3.342-3.934,2.952-1.563-2.344-.659-4.364" transform="translate(-47.192 -18.487)" fill="#edb984"/>
        <path id="Trazado_701720" data-name="Trazado 701720" d="M87.962,38.258c.594-1.326,1.751-2.195,2.583-1.941s1.025,1.535.431,2.861-1.75,2.2-2.583,1.941-1.025-1.535-.431-2.861" transform="translate(-48.281 -19.988)" fill="#d27558"/>
        <path id="Trazado_701721" data-name="Trazado 701721" d="M87.43,40.817c.421-.939,1.24-1.556,1.829-1.376s.726,1.087.305,2.027-1.24,1.555-1.829,1.375-.726-1.088-.305-2.027" transform="translate(-48.044 -21.717)" fill="#edb984"/>
        <path id="Trazado_701722" data-name="Trazado 701722" d="M73.352,1.417C66.453-1.822,54.7,1.5,54.7,1.5S51.95,15.872,56.416,27.416L68.137,26.13c6.131-9.365,5.215-24.712,5.215-24.712" transform="translate(-29.68 0)" fill="#823830"/>
        <path id="Trazado_701723" data-name="Trazado 701723" d="M58.587,14.072C57.082,16.2,55.3,31.659,57.459,34.9c.537.8,2.764,2.146,5.472,2.373,2.6.218,5.674-.646,6.662-1.473,2.018-1.688,3.392-18.534,2.331-21.049-1.044-2.476-11.985-2.589-13.337-.675" transform="translate(-31.11 -7.026)" fill="#edb984"/>
        <path id="Trazado_701724" data-name="Trazado 701724" d="M80.019,37.409c.15-.8.7-1.331,1.223-1.183s.83.916.68,1.717-.7,1.331-1.223,1.183-.83-.916-.68-1.717" transform="translate(-44.073 -19.949)" fill="#5a4949"/>
        <path id="Trazado_701725" data-name="Trazado 701725" d="M62.676,35.781c.065-.808.555-1.385,1.1-1.289s.927.828.863,1.636-.555,1.385-1.1,1.289-.927-.828-.862-1.636" transform="translate(-34.534 -19.001)" fill="#5a4949"/>
        <path id="Trazado_701726" data-name="Trazado 701726" d="M71.005,41.1c-.309,1.626-.351,2.942.264,3.569a.95.95,0,0,0,1.063.226l.014.04s-.913.728-1.59.154c-.729-.619-.39-2.161.249-3.989" transform="translate(-38.763 -22.649)" fill="#d27558"/>
        <path id="Trazado_701727" data-name="Trazado 701727" d="M70.783,55.45a4.544,4.544,0,0,1,1.081.4,2.023,2.023,0,0,0-1.26-.927,4.374,4.374,0,0,0-3.692.5,7.612,7.612,0,0,1,3.871.028" transform="translate(-36.872 -30.156)" fill="#d27558"/>
        <path id="Trazado_701728" data-name="Trazado 701728" d="M69.036,57.588c-.013.14.474-.235,1.113-.185s1.191.508,1.2.368a1.525,1.525,0,0,0-1.159-.876,1.276,1.276,0,0,0-1.158.692" transform="translate(-38.042 -31.35)" fill="#d27558"/>
        <path id="Trazado_701729" data-name="Trazado 701729" d="M82.165,35.815a1.272,1.272,0,1,0-1.271,1.3,1.285,1.285,0,0,0,1.271-1.3" transform="translate(-43.876 -19.021)" fill="#edb984"/>
        <path id="Trazado_701730" data-name="Trazado 701730" d="M64.485,33.863a1.272,1.272,0,1,0-1.271,1.3,1.285,1.285,0,0,0,1.271-1.3" transform="translate(-34.133 -17.945)" fill="#edb984"/>
        <path id="Trazado_701731" data-name="Trazado 701731" d="M79.017,31.08l3.3.706a.516.516,0,0,1,.421.571l-.17.966a.473.473,0,0,1-.585.356l-3.3-.706a.515.515,0,0,1-.421-.571l.169-.965a.474.474,0,0,1,.585-.356" transform="translate(-43.123 -17.12)" fill="#823830"/>
        <path id="Trazado_701732" data-name="Trazado 701732" d="M59.763,30.431l3.455-.251a.516.516,0,0,1,.566.452l.084,1.021a.505.505,0,0,1-.486.528l-3.456.251a.516.516,0,0,1-.566-.452l-.083-1.021a.505.505,0,0,1,.486-.528" transform="translate(-32.664 -16.629)" fill="#823830"/>
        <path id="Trazado_701733" data-name="Trazado 701733" d="M74.981,11.7c.123-1.307-2.851-2.657-6.645-3.016s-6.969.409-7.093,1.716,2.851,2.657,6.645,3.016,6.969-.409,7.093-1.716" transform="translate(-33.746 -4.737)" fill="#823830"/>
        <path id="Trazado_701734" data-name="Trazado 701734" d="M20.766,103.456c-7.559-9.506-1.505-27.8-3.724-27.395S.837,77.572.036,97.615c-.569,14.213,5.841,20.844,11.224,21.188s9.506-15.347,9.506-15.347" transform="translate(0 -41.91)" fill="#708db7"/>
        <path id="Trazado_701735" data-name="Trazado 701735" d="M17.407,91.04c-.223,1.151-.494,2.323-.812,3.5C14.011,104.132,7.854,112.08,2.843,112.3a4.115,4.115,0,0,1-2.349-.584c1.133,10.2,6.455,15.055,11.037,15.347,5.383.344,9.506-15.347,9.506-15.347-4.538-5.708-4.17-14.58-3.631-20.674" transform="translate(-0.272 -50.167)" fill="#537296"/>
        <path id="Trazado_701736" data-name="Trazado 701736" d="M23.531,121.077c-2.237-2.564-10.1-.884-13.667,9.065-2.438,6.8-.48,13.11,6.277,13.682s10.766-7.33,10.766-7.33Z" transform="translate(-4.881 -66.13)" fill="#f4e9c3"/>
        <path id="Trazado_701737" data-name="Trazado 701737" d="M86.348,106.519c-.105-.48,1.834-1.684,2.711-1.027.618.464,2.311,3.311,2.243,3.881a2.226,2.226,0,0,1-1.914,1.238c-.5-.157-2.926-3.569-3.041-4.092" transform="translate(-47.58 -58.026)" fill="#e79b69"/>
        <path id="Trazado_701738" data-name="Trazado 701738" d="M83.9,106.541a3.944,3.944,0,0,1,.8,4.406c-.578,1.565-1.421,2.552-2.66,2.733a3.89,3.89,0,0,1-1.173-4.323,4.158,4.158,0,0,1,3.038-2.816" transform="translate(-44.429 -58.709)" fill="#e79b69"/>
        <path id="Trazado_701739" data-name="Trazado 701739" d="M76.856,123.107l3.53-2.292-2.114-7.69-4.752,1.432Z" transform="translate(-40.513 -62.337)" fill="#e79b69"/>
        <path id="Trazado_701740" data-name="Trazado 701740" d="M50.868,122.664S33.321,138.8,23.426,140.638c-3.123.579-5.421-14.278,1.107-19.356,4.275-3.325,20.4-5.1,20.4-5.1,6.236-.678,6.668,2.513,5.939,6.478" transform="translate(-11.212 -63.974)" fill="#edb984"/>
        <path id="Trazado_701741" data-name="Trazado 701741" d="M85.044,116.42a9.561,9.561,0,0,0,7.423-2.532c1.866-1.752-1.341-8.672-2.52-8.915s-6.86,2.674-8.5,4.821c-1.178,1.539.359,6.345,3.6,6.626" transform="translate(-44.662 -57.838)" fill="#edb984"/>
        <path id="Trazado_701742" data-name="Trazado 701742" d="M101.687,119.051c.5,0,1.711,2.073,1.023,2.711a8.281,8.281,0,0,1-3.782,1.1,2.473,2.473,0,0,1-.961-2.043,11.275,11.275,0,0,1,3.72-1.767" transform="translate(-53.966 -65.603)" fill="#edb984"/>
        <path id="Trazado_701743" data-name="Trazado 701743" d="M100.861,111.117c.538-.036,1.72,2.027.935,2.74a10.277,10.277,0,0,1-4.165,1.415,2.2,2.2,0,0,1-.91-2.051,14.44,14.44,0,0,1,4.14-2.1" transform="translate(-53.27 -61.231)" fill="#edb984"/>
        <path id="Trazado_701744" data-name="Trazado 701744" d="M97.72,104.29c.512-.052,1.785,1.837,1.082,2.531a9.655,9.655,0,0,1-3.889,1.469A2.127,2.127,0,0,1,93.9,106.4a13.321,13.321,0,0,1,3.817-2.113" transform="translate(-51.727 -57.468)" fill="#edb984"/>
        <path id="Trazado_701745" data-name="Trazado 701745" d="M133.007,88.461a3.973,3.973,0,1,1,3.065,2.713L136,92.186a4.977,4.977,0,1,0-4.068-3.83Z" transform="translate(-72.637 -45.35)" fill="#8a6793"/>
        <path id="Trazado_701746" data-name="Trazado 701746" d="M140.323,96.109l.982.7-1.775,2.511,2.657,1.988-.715.964-3.6-2.692Z" transform="translate(-75.975 -52.961)" fill="#8a6793"/>
      </g>
    </g>
  </g>
</svg>
