<svg xmlns="http://www.w3.org/2000/svg" xmlns:xlink="http://www.w3.org/1999/xlink" width="136.494" height="136.494" viewBox="0 0 136.494 136.494">
  <defs>
    <clipPath id="clip-path">
      <rect id="Rect치ngulo_344856" data-name="Rect치ngulo 344856" width="89.552" height="81.413" fill="none"/>
    </clipPath>
    <clipPath id="clip-path-3">
      <rect id="Rect치ngulo_344854" data-name="Rect치ngulo 344854" width="36.624" height="41.988" fill="none"/>
    </clipPath>
  </defs>
  <g id="Grupo_1000156" data-name="Grupo 1000156" transform="translate(2499.052 -637)">
    <path id="Trazado_701960" data-name="Trazado 701960" d="M.689,643.445a68.238,68.238,0,1,1,77.172,57.943A68.239,68.239,0,0,1,.689,643.445" transform="translate(-2499.052 71.417)" fill="#0098e8"/>
    <path id="Trazado_701961" data-name="Trazado 701961" d="M17.748,647.442a56.688,56.688,0,1,1,64.111,48.135,56.689,56.689,0,0,1-64.111-48.135" transform="translate(-2504.676 65.793)" fill="#fff"/>
    <g id="Grupo_998730" data-name="Grupo 998730" transform="translate(-2481.955 664.54)">
      <g id="Grupo_998710" data-name="Grupo 998710" clip-path="url(#clip-path)">
        <g id="Grupo_998709" data-name="Grupo 998709">
          <g id="Grupo_998708" data-name="Grupo 998708" clip-path="url(#clip-path)">
            <path id="Trazado_701894" data-name="Trazado 701894" d="M117.386,7.289c.624-1.49-3.742-4.888-3.742-4.888s.935.06-.312-1.192S108.24.851,108.24.851s.987-.6-.468-.834-4.729,2.146-4.729,2.146.312-1.133-1.975.06-2.65,5.663-2.65,5.663l-.728-.6s-2.442,6.08,3.9,12.458l12.836-1.013c4.781-4.888,1.611-11.028,1.611-11.028s.727,1.073,1.351-.417" transform="translate(-57.615 0)" fill="#873e3e"/>
            <path id="Trazado_701895" data-name="Trazado 701895" d="M161.644,78.542l3.288,38.6c3.732,2.662,7.314,10.814,7.314,10.814h13.093c-1.794-21.5-10.532-39.232-23.7-49.414" transform="translate(-95.787 -46.542)" fill="#edb984"/>
            <path id="Trazado_701896" data-name="Trazado 701896" d="M170.329,126.682c-2.38-1.776-1.108,18.923-1.108,18.923,3.732,2.662,7.314,10.814,7.314,10.814h5c-.446-4.817-5-25.1-11.209-29.737" transform="translate(-100.076 -75.005)" fill="#e79b69"/>
            <path id="Trazado_701897" data-name="Trazado 701897" d="M79.489,75.554c-9.683.89-17.808,14.066-22.389,20.162.649,2.223,4.587,8.051,11.164,3.6S79.489,75.554,79.489,75.554" transform="translate(-33.836 -44.772)" fill="#e79b69"/>
            <g id="Grupo_998707" data-name="Grupo 998707" transform="translate(0 29.339)" opacity="0.8">
              <g id="Grupo_998706" data-name="Grupo 998706">
                <g id="Grupo_998705" data-name="Grupo 998705" clip-path="url(#clip-path-3)">
                  <path id="Trazado_701898" data-name="Trazado 701898" d="M11.475,97.295c-2.959-1.347-4.587-5.914-4.708-7.582s3.75-4.123,5.14-3.692,4.948,5.871,5.385,6.926-4.482,4.956-5.817,4.349" transform="translate(-4.008 -80.283)" fill="#e79b69"/>
                  <path id="Trazado_701899" data-name="Trazado 701899" d="M14.1,105.1a5.214,5.214,0,0,0-3.066.632,7.259,7.259,0,0,0,2.969,2.888c.686.312,2.316-.568,3.681-1.639A4.417,4.417,0,0,0,14.1,105.1" transform="translate(-6.541 -91.607)" fill="#edb984"/>
                  <path id="Trazado_701900" data-name="Trazado 701900" d="M18.94,109.392,16.876,105.9l5.761-4.867,3.239,3.824Z" transform="translate(-10 -89.208)" fill="#edb984"/>
                  <path id="Trazado_701901" data-name="Trazado 701901" d="M21.256,114.275c3.163,8.795,12.792,19.237,17.072,21.852S49.22,128.45,49.22,128.45a252.091,252.091,0,0,0-20.867-18.379Z" transform="translate(-12.596 -94.565)" fill="#edb984"/>
                  <path id="Trazado_701902" data-name="Trazado 701902" d="M60.142,132.022S51.318,123.28,42.41,116.1a35.8,35.8,0,0,0-2.722,14.177c0,.024,0,.047,0,.07,3.517,4.377,7.292,7.966,9.561,9.354,4.28,2.615,10.892-7.677,10.892-7.677" transform="translate(-23.518 -98.136)" fill="#e79b69"/>
                  <path id="Trazado_701903" data-name="Trazado 701903" d="M3.4,87.128C1.43,82.651-.043,79.479,0,79.042s1.1-1.46,1.47-1.078,2.84,5.29,2.84,5.29c.262,1.766-.306,2.6-.909,3.874" transform="translate(0 -75.489)" fill="#edb984"/>
                  <path id="Trazado_701904" data-name="Trazado 701904" d="M13.835,79.435c-2.254-3.581-4.487-6.8-4.894-6.946s-1.643.3-1.462.8,3.089,5.05,3.089,5.05c1.108,1.178,2.1.777,3.266,1.091" transform="translate(-4.422 -72.278)" fill="#edb984"/>
                  <path id="Trazado_701905" data-name="Trazado 701905" d="M5.271,79.525S1.99,73.34,1.929,72.958c-.024-.152,1.076-1.127,1.49-.917s3.908,6.118,3.908,6.118c-.227,1.318-.893,1.811-2.056,1.366" transform="translate(-1.143 -72.012)" fill="#edb984"/>
                  <path id="Trazado_701906" data-name="Trazado 701906" d="M22.063,93.883c-.356-2.661-1.835-6.16-2.827-6.7s-4.159,1.361-4.6,2.115a1.269,1.269,0,0,0,.931,1.721,12.929,12.929,0,0,0,2.6-1.429l.267.408a3.653,3.653,0,0,0-.852,3.626c.737,2.054,4.753,2.309,4.478.255" transform="translate(-8.602 -80.949)" fill="#edb984"/>
                  <path id="Trazado_701907" data-name="Trazado 701907" d="M7.562,86.032l-2.23-4.859L7.883,85.94Z" transform="translate(-3.16 -77.44)" fill="#e79b69"/>
                  <path id="Trazado_701908" data-name="Trazado 701908" d="M11.754,82.032l-2.6-4.608,2.912,4.5Z" transform="translate(-5.427 -75.219)" fill="#e79b69"/>
                </g>
              </g>
            </g>
            <path id="Trazado_701909" data-name="Trazado 701909" d="M84.085,120.061H120.74c-.069-15.709,2.033-40.663-4.416-47.616-6.134-6.613-18.25-7.226-18.25-7.226s-8.818,2.955-14.616,14.4c-4.042,7.979.627,40.439.627,40.439" transform="translate(-48.479 -38.647)" fill="#7c5960"/>
            <path id="Trazado_701910" data-name="Trazado 701910" d="M98.365,141.934c5.913,0,14.179,12.12,15.772,20.351h4.981c-.311-6.81.935-16.351.191-25.811-2.969,4.9-10.8,4.317-20.944,4.317-8.47,0-15.235.172-19.292-2.809a106.4,106.4,0,0,0,3.39,24.3h3c3.081-9.43,7.289-20.351,12.9-20.351" transform="translate(-46.857 -80.872)" fill="#5e4047"/>
            <path id="Trazado_701911" data-name="Trazado 701911" d="M86.852,100.074c3.713-16.984,16.529-28.812,29.385-27.717-6.16-6.527-18.163-7.137-18.163-7.137s-8.818,2.954-14.616,14.4c-4.042,7.98.627,40.439.627,40.439h3.2a41.132,41.132,0,0,1-.436-19.988" transform="translate(-48.48 -38.648)" fill="#5e4047"/>
            <path id="Trazado_701912" data-name="Trazado 701912" d="M159.745,164.075h7.178c-.485-6.336.889-15.722.295-24.5-.1-1.461-2.753,18.055-7.473,24.5" transform="translate(-94.662 -82.661)" fill="#5e4047"/>
            <path id="Trazado_701913" data-name="Trazado 701913" d="M79.768,128.891c0-.047-.247-.262-.247-.309-.976,12.364,3.118,29.027,3.118,29.027h5.4c-5.014-6.494-8.268-16.937-8.268-28.718" transform="translate(-47.034 -76.195)" fill="#5e4047"/>
            <path id="Trazado_701914" data-name="Trazado 701914" d="M122.31,90.91c.758-.947,2.163-10.963-.08-19.375-6.347-5.756-17.32-6.315-17.32-6.315s-5.442,1.826-10.587,8.159c-1.593,8-1.045,16.025.27,17.809,1.94,2.633,26.608,1.109,27.716-.277" transform="translate(-55.316 -38.647)" fill="#edb984"/>
            <path id="Trazado_701915" data-name="Trazado 701915" d="M123.66,80.305c-.108-.1-.22-.19-.33-.285,2.117,8.34.742,18.1-.006,19.037-1.086,1.357-24.765,2.847-27.564.434a2.643,2.643,0,0,0,.264.466c1.94,2.633,26.607,1.109,27.716-.277.758-.948,2.163-10.963-.08-19.375" transform="translate(-56.746 -47.418)" fill="#e79b69"/>
            <path id="Trazado_701916" data-name="Trazado 701916" d="M103.571,78.684c1.851-5.58,4.828-9.9,8.113-12.341a38.151,38.151,0,0,0-6.772-1.124s-5.442,1.826-10.587,8.159c-1.593,8-1.044,16.025.271,17.809.622.844,3.582,1.261,7.351,1.392a33.644,33.644,0,0,1,1.625-13.895" transform="translate(-55.316 -38.647)" fill="#e79b69"/>
            <path id="Trazado_701917" data-name="Trazado 701917" d="M120.959,69.865c-6.392-4.2-15.143-4.646-15.143-4.646s-5.442,1.826-10.587,8.159c-.133.668-.25,1.337-.354,2a31.861,31.861,0,0,0,26.084-5.515" transform="translate(-56.221 -38.647)" fill="#e79b69"/>
            <path id="Trazado_701918" data-name="Trazado 701918" d="M111.632,60.954l-.136-5.191,10.515-1.343-.08,5.394c-3.3,4.272-6.717,5.127-10.3,1.141" transform="translate(-66.07 -32.248)" fill="#d27558"/>
            <path id="Trazado_701919" data-name="Trazado 701919" d="M139.719,38.849c.584-1.419.352-2.859-.518-3.217s-2.049.5-2.633,1.92-.352,2.859.518,3.217,2.049-.5,2.633-1.92" transform="translate(-80.737 -21.066)" fill="#edb984"/>
            <path id="Trazado_701920" data-name="Trazado 701920" d="M103.964,38.845c-.805-1.23-2.163-1.933-3.031-1.571s-.919,1.652-.113,2.882,2.163,1.933,3.031,1.571.92-1.652.114-2.882" transform="translate(-59.404 -22.032)" fill="#edb984"/>
            <path id="Trazado_701921" data-name="Trazado 701921" d="M103.309,31.886h2.981l.919,8.562-2.9-1.062Z" transform="translate(-61.219 -18.895)" fill="#873e3e"/>
            <path id="Trazado_701922" data-name="Trazado 701922" d="M137.8,30.616h-2.981l-.52,9.08,2.852-1.126Z" transform="translate(-79.581 -18.142)" fill="#873e3e"/>
            <path id="Trazado_701923" data-name="Trazado 701923" d="M106.68,20.342c-.367,3.415.153,13.838.537,14.746s4.674,3.285,6.667,3.145,6.36-2.865,6.514-3.844-.341-14.154-.69-15.235c-1.15-3.564-12.644-2.376-13.028,1.188" transform="translate(-63.142 -10.075)" fill="#edb984"/>
            <path id="Trazado_701924" data-name="Trazado 701924" d="M119.737,20.918a2.024,2.024,0,0,0-.5-.79,70.609,70.609,0,0,1-.483,9.947c-.134.979-3.773,1.876-5.518,2.016s-5.691-.409-6.026-1.317a47.588,47.588,0,0,1-1.085-9.414,2.1,2.1,0,0,0-.648,1.244,72.889,72.889,0,0,0,1.053,14.337c.383.909,4.674,3.285,6.667,3.145s6.36-2.865,6.513-3.844.37-14.243.022-15.324" transform="translate(-62.46 -11.927)" fill="#873e3e"/>
            <path id="Trazado_701925" data-name="Trazado 701925" d="M129.7,36.748c.045-.687.455-1.192.917-1.127s.8.673.754,1.36-.456,1.192-.917,1.127-.8-.673-.754-1.36" transform="translate(-76.853 -21.105)" fill="#5a4949"/>
            <path id="Trazado_701926" data-name="Trazado 701926" d="M129.683,29.771l2.77.784a.43.43,0,0,1,.321.5l-.21.8a.41.41,0,0,1-.523.266l-2.77-.785a.43.43,0,0,1-.321-.5l.21-.8a.41.41,0,0,1,.523-.266" transform="translate(-76.406 -17.631)" fill="#873e3e"/>
            <path id="Trazado_701927" data-name="Trazado 701927" d="M112.588,37.325c-.029-.683.328-1.221.8-1.2s.872.588.9,1.271-.328,1.221-.8,1.2-.871-.589-.9-1.272" transform="translate(-66.716 -21.406)" fill="#5a4949"/>
            <path id="Trazado_701928" data-name="Trazado 701928" d="M108.525,31.3l2.8-.972a.435.435,0,0,1,.563.243l.284.815a.434.434,0,0,1-.291.539l-2.8.971a.435.435,0,0,1-.563-.243l-.283-.815a.434.434,0,0,1,.291-.539" transform="translate(-64.125 -17.954)" fill="#873e3e"/>
            <path id="Trazado_701929" data-name="Trazado 701929" d="M121.775,40.353c-.1,1.4,0,2.5.591,2.956a.82.82,0,0,0,.926.07l.015.032s-.7.712-1.333.307c-.682-.436-.554-1.765-.2-3.365" transform="translate(-71.99 -23.912)" fill="#d27558"/>
            <path id="Trazado_701930" data-name="Trazado 701930" d="M121.633,52.241a2.727,2.727,0,0,1-3.095-1.3l-.436.133s1.071,2.176,3.092,1.541a3.371,3.371,0,0,0,1.385-.8,4.024,4.024,0,0,1-.946.423" transform="translate(-69.985 -30.188)" fill="#512020"/>
            <path id="Trazado_701931" data-name="Trazado 701931" d="M124.311,59.036c.006-.119-.383-.065-.877-.083s-.907-.1-.913.018.4.394.891.411.893-.228.9-.347" transform="translate(-72.603 -34.908)" fill="#512020"/>
            <path id="Trazado_701932" data-name="Trazado 701932" d="M51.381,65.047a8.363,8.363,0,0,1,5.16-4.133,9.141,9.141,0,0,1,6.575.33l-.481.865a8.1,8.1,0,0,0-5.8-.249A7.394,7.394,0,0,0,52.266,65.5Z" transform="translate(-30.447 -35.832)" fill="#c45b7b"/>
            <path id="Trazado_701933" data-name="Trazado 701933" d="M48.956,66.156l.966-.232.6,2.463,2.675-.576.212.967-3.624.78Z" transform="translate(-29.01 -39.065)" fill="#c45b7b"/>
            <path id="Trazado_701934" data-name="Trazado 701934" d="M69.925,123.334c-.4-5.611-3.977-9.927-7.985-9.64s-6.931,5.069-6.528,10.68,4.427,9.537,8.435,9.25,6.481-4.679,6.079-10.29" transform="translate(-32.814 -67.365)" fill="#e79b69"/>
            <path id="Trazado_701935" data-name="Trazado 701935" d="M97.937,69.746c-.215-2.719.491-6.459,1.347-7.157s4.359.679,4.948,1.36a1.249,1.249,0,0,1-.547,1.873,13.454,13.454,0,0,1-2.847-1l-.175.452a3.926,3.926,0,0,1,1.6,3.485c-.286,2.174-4.163,3.087-4.328.989" transform="translate(-58.013 -36.975)" fill="#edb984"/>
            <path id="Trazado_701936" data-name="Trazado 701936" d="M104.886,71.536c2.61-1.831,3.236-6.663,3-8.352s-4.544-3.507-5.812-2.848-3.6,6.68-3.8,7.806,5.437,4.22,6.614,3.394" transform="translate(-58.231 -35.672)" fill="#edb984"/>
            <path id="Trazado_701937" data-name="Trazado 701937" d="M107.928,79.169a5.19,5.19,0,0,1,3.135.129,6.868,6.868,0,0,1-2.294,3.374c-.605.424-2.387-.188-3.951-1.035a4.136,4.136,0,0,1,3.11-2.468" transform="translate(-62.113 -46.808)" fill="#edb984"/>
            <path id="Trazado_701938" data-name="Trazado 701938" d="M101.354,85.129l1.28-3.831-6.669-3.921L93.6,81.73Z" transform="translate(-55.468 -45.852)" fill="#edb984"/>
            <path id="Trazado_701939" data-name="Trazado 701939" d="M80.991,87.744c-1.232,9.31-8.236,23.746-11.87,27.062-1.924,1.756-5.429-.33-8.3-2.681a6.811,6.811,0,0,1-1.437-9.064,209.443,209.443,0,0,1,14-18.3Z" transform="translate(-34.518 -50.225)" fill="#edb984"/>
            <path id="Trazado_701940" data-name="Trazado 701940" d="M118.959,61.661c.663-3.754,1.206-6.424,1.042-6.764s-1.466-1.027-1.713-.684-1.274,4.495-1.274,4.495c.235,1.423,1.014,2.016,1.945,2.954" transform="translate(-69.34 -32.07)" fill="#edb984"/>
            <path id="Trazado_701941" data-name="Trazado 701941" d="M104.274,57.216c1.182-3.08,2.444-5.868,2.794-6.033s1.666.055,1.63.47-1.58,4.333-1.58,4.333c-.742,1.055-1.806.85-2.844,1.23" transform="translate(-61.791 -30.298)" fill="#edb984"/>
            <path id="Trazado_701942" data-name="Trazado 701942" d="M113.58,56.339s1.451-5.25,1.4-5.559c-.019-.123-1.348-.768-1.689-.555s-2.073,5.268-2.073,5.268a1.64,1.64,0,0,0,2.357.846" transform="translate(-65.909 -29.737)" fill="#edb984"/>
            <path id="Trazado_701943" data-name="Trazado 701943" d="M116.6,61.515l.805-4.086-1.14,4.049Z" transform="translate(-68.899 -34.031)" fill="#e79b69"/>
            <path id="Trazado_701944" data-name="Trazado 701944" d="M110.85,58.832l1.228-3.929-1.562,3.878Z" transform="translate(-65.489 -32.535)" fill="#e79b69"/>
            <path id="Trazado_701945" data-name="Trazado 701945" d="M123.45,123.254l.415-5.523,1.108,5.5Z" transform="translate(-73.154 -69.766)" fill="#e79b69"/>
          </g>
        </g>
      </g>
    </g>
  </g>
</svg>
