<svg xmlns="http://www.w3.org/2000/svg" xmlns:xlink="http://www.w3.org/1999/xlink" width="85" height="85" viewBox="0 0 85 85">
  <defs>
    <clipPath id="clip-path">
      <rect id="Rect치ngulo_344907" data-name="Rect치ngulo 344907" width="64.331" height="52.23" fill="#fff"/>
    </clipPath>
  </defs>
  <g id="Grupo_1000163" data-name="Grupo 1000163" transform="translate(2892 -3283)">
    <g id="Grupo_1000159" data-name="Grupo 1000159" transform="translate(-3807 -2476)">
      <g id="Grupo_896275" data-name="Grupo 896275" transform="translate(630 -35)">
        <rect id="Rect치ngulo_344349" data-name="Rect치ngulo 344349" width="85" height="85" rx="11" transform="translate(285 5794)" fill="#cb5f72"/>
        <circle id="Elipse_4817" data-name="Elipse 4817" cx="8.5" cy="8.5" r="8.5" transform="translate(353 5804)" fill="#cceafb"/>
        <circle id="Elipse_4818" data-name="Elipse 4818" cx="3.5" cy="3.5" r="3.5" transform="translate(353 5794)" fill="#cceafb"/>
      </g>
      <g id="Grupo_998809" data-name="Grupo 998809" transform="translate(915 5791.77)">
        <g id="Grupo_998808" data-name="Grupo 998808" transform="translate(7 -13)" clip-path="url(#clip-path)">
          <path id="Trazado_702201" data-name="Trazado 702201" d="M15.526,29.555A17.1,17.1,0,0,1,25.94,33.088a12.226,12.226,0,0,1,4.841,12.125,18.8,18.8,0,0,1-3.057,7.626c-.979,1.5-1.965,2.988-2.945,4.484a18.766,18.766,0,0,0-2.727,7.287A47.31,47.31,0,0,1,20.6,71.5a11.1,11.1,0,0,1-1.926,3.692A8.465,8.465,0,0,1,13.3,78.113a11.087,11.087,0,0,1-8.982-2.3,11.424,11.424,0,0,1-4.289-7.2,1.332,1.332,0,0,1,1.133-1.674.967.967,0,0,1,1.2.871,12.241,12.241,0,0,0,.808,2.8A7.668,7.668,0,0,0,6.26,74.346c2.877,1.683,5.881,2.078,8.93.418a6.884,6.884,0,0,0,2.931-3.482,23.486,23.486,0,0,0,1.468-5.308c.272-1.487.544-2.975.85-4.456a17.743,17.743,0,0,1,2.722-6.039,58.679,58.679,0,0,0,3.688-6.222,16.093,16.093,0,0,0,1.575-4.77,9.737,9.737,0,0,0-2.568-8.227,12.745,12.745,0,0,0-6.663-3.779,14.632,14.632,0,0,0-8.682.406,11.159,11.159,0,0,0-5.66,4.74A17.4,17.4,0,0,0,2.373,44.4a1.017,1.017,0,0,1-1.554.837,1.361,1.361,0,0,1-.784-1.626,18.575,18.575,0,0,1,1.028-3.888,17.056,17.056,0,0,1,4.68-6.851,13.4,13.4,0,0,1,2.7-1.794,15.313,15.313,0,0,1,7.078-1.525" transform="translate(0 -27.677)" fill="#fff"/>
          <path id="Trazado_702202" data-name="Trazado 702202" d="M615.713,36.223h-5.108a1.235,1.235,0,0,1-1.34-1.345q0-2.669,0-5.337v-.351c-.694.045-1.364.1-2.035.131a15.051,15.051,0,0,1-4.424-.216,4.614,4.614,0,0,1-1.931-.921,3.369,3.369,0,0,1-.922-3.742,9.3,9.3,0,0,1,2.029-3.555c1.008-1.212,2.06-2.39,3.044-3.621a29.655,29.655,0,0,0,3.68-6.175A36.753,36.753,0,0,0,611.36,3.9a16.788,16.788,0,0,0,.323-2.606,1.223,1.223,0,0,1,1.659-1.22,1.111,1.111,0,0,1,.8,1.127,16.336,16.336,0,0,1-.6,4.422,36.054,36.054,0,0,1-3.315,7.979A38.522,38.522,0,0,1,606,20.075c-.691.826-1.505,1.548-2.215,2.36a20.2,20.2,0,0,0-1.295,1.756,1.611,1.611,0,0,0-.207.529,1.307,1.307,0,0,0,.8,1.66,6.079,6.079,0,0,0,2.635.478c1.322,0,2.644-.082,3.966-.129.212-.008.423-.028.634-.03a1.249,1.249,0,0,1,1.4,1.383q0,2.652,0,5.3v.4h5.15a1.183,1.183,0,0,1,1.305,1.142,6.459,6.459,0,0,1-4.805,7.189c-.547.15-1.117.218-1.724.333,0,.067,0,.169,0,.271.006,1.8.009,3.6.025,5.4a.445.445,0,0,0,.171.3,6.6,6.6,0,0,0,3.067,1.2,17.055,17.055,0,0,0,5.712-.288c.914-.171,1.821-.384,2.731-.577a1.255,1.255,0,0,1,1.587,1.092,1.056,1.056,0,0,1-.794,1.236,33.89,33.89,0,0,1-8.217,1.135,10.343,10.343,0,0,1-4.115-.8,5.771,5.771,0,0,1-1.987-1.446,2.326,2.326,0,0,1-.616-1.562q-.018-3.637-.007-7.275a1.185,1.185,0,0,1,1.29-1.187,5.875,5.875,0,0,0,3.148-.557,3.9,3.9,0,0,0,2.08-3.18" transform="translate(-561.653 0.001)" fill="#fff"/>
          <path id="Trazado_702203" data-name="Trazado 702203" d="M100.107,120.952a9.4,9.4,0,0,1-1.856,5.513c-.894,1.3-1.868,2.539-2.8,3.81a13.663,13.663,0,0,0-2.409,4.509,17.824,17.824,0,0,0-.348,1.964,1.287,1.287,0,0,1-1.816,1,1,1,0,0,1-.62-1.076,12.8,12.8,0,0,1,.673-3.414,21.9,21.9,0,0,1,3.465-6.026c.73-.972,1.473-1.939,2.142-2.952a6.5,6.5,0,0,0,.528-6.307,8.747,8.747,0,0,0-7.984-5.41,6.525,6.525,0,0,0-5.864,3.5,8.3,8.3,0,0,0-.422.852,1.989,1.989,0,0,0,.218,2.073,6.537,6.537,0,0,0,1.879,1.639c.657.426,1.318.848,1.994,1.242a7.037,7.037,0,0,1,2.946,3.393,9.471,9.471,0,0,1,.044,8.085,9.712,9.712,0,0,1-4.053,4.215,14.394,14.394,0,0,1-4.986,1.8,1.366,1.366,0,0,1-1.689-1.124.973.973,0,0,1,.86-1.209,11.45,11.45,0,0,0,4.766-1.9,8.582,8.582,0,0,0,3.059-3.45,6,6,0,0,0-.659-6.217,8.632,8.632,0,0,0-3.892-3.049c-.446-.195-.892-.389-1.345-.567a3.152,3.152,0,0,1-2.059-3.956,9.53,9.53,0,0,1,8.211-7.706,10.391,10.391,0,0,1,11.5,7.339,10.833,10.833,0,0,1,.523,3.431" transform="translate(-74.099 -103.096)" fill="#fff"/>
          <path id="Trazado_702204" data-name="Trazado 702204" d="M543.2,479.716q0,3.811,0,7.622a1.223,1.223,0,1,1-2.445,0q0-7.542,0-15.085a1.234,1.234,0,1,1,2.454-.155c-.019,2.54-.006,5.081-.006,7.622" transform="translate(-506.39 -440.934)" fill="#fff"/>
          <path id="Trazado_702205" data-name="Trazado 702205" d="M402.193,502.413q0-3.016,0-6.031a1.2,1.2,0,0,1,1.635-1.2,1.063,1.063,0,0,1,.794.931,2.779,2.779,0,0,1,.021.348q0,5.984,0,11.968a1.218,1.218,0,0,1-1.745,1.239,1.089,1.089,0,0,1-.7-1.127q0-3.063,0-6.127" transform="translate(-376.637 -463.648)" fill="#fff"/>
          <path id="Trazado_702206" data-name="Trazado 702206" d="M473.844,514.071q0,2.667,0,5.335a1.1,1.1,0,0,1-.617,1.093,1.323,1.323,0,0,1-1.359-.079,1.168,1.168,0,0,1-.482-1.079q0-2.143,0-4.287,0-3.112,0-6.224a1.228,1.228,0,1,1,2.454-.061c.005,1.768,0,3.535,0,5.3" transform="translate(-441.433 -475.306)" fill="#fff"/>
          <path id="Trazado_702207" data-name="Trazado 702207" d="M610.055,522.838c0-1.555,0-3.111,0-4.666a1.212,1.212,0,0,1,1.775-1.122,1.044,1.044,0,0,1,.653.9c.018.178.013.359.013.539,0,3.016-.016,6.031.008,9.047a1.229,1.229,0,0,1-1.753,1.167,1.129,1.129,0,0,1-.7-1.137c0-1.577,0-3.153,0-4.73Z" transform="translate(-571.29 -484.076)" fill="#fff"/>
          <path id="Trazado_702208" data-name="Trazado 702208" d="M838.7,73.061c-1.482,0-2.964,0-4.446,0a1.191,1.191,0,0,1-1.192-1.592,1.035,1.035,0,0,1,1-.834c.74-.029,1.481-.01,2.222-.012.535,0,1.07-.006,1.606-.006h5.24a1.223,1.223,0,1,1,.02,2.445q-2.223,0-4.446,0" transform="translate(-780.075 -66.127)" fill="#fff"/>
          <path id="Trazado_702209" data-name="Trazado 702209" d="M679.273,563.9c0-.625,0-1.249,0-1.874a1.229,1.229,0,1,1,2.455-.016q.006,1.906,0,3.811a1.228,1.228,0,1,1-2.455.016c0-.021,0-.042,0-.064q0-.937,0-1.874" transform="translate(-636.111 -525.099)" fill="#fff"/>
          <path id="Trazado_702210" data-name="Trazado 702210" d="M888.445,113.976a1.831,1.831,0,1,1-1.845-1.826,1.826,1.826,0,0,1,1.845,1.826" transform="translate(-828.564 -105.024)" fill="#fff"/>
        </g>
      </g>
    </g>
  </g>
</svg>
