<svg id="Grupo_1000221" data-name="Grupo 1000221" xmlns="http://www.w3.org/2000/svg" xmlns:xlink="http://www.w3.org/1999/xlink" width="674.892" height="499.999" viewBox="0 0 674.892 499.999">
  <defs>
    <clipPath id="clip-path">
      <rect id="Rectángulo_345549" data-name="Rectángulo 345549" width="674.892" height="499.999" fill="none"/>
    </clipPath>
    <clipPath id="clip-path-2">
      <rect id="Rectángulo_345531" data-name="Rectángulo 345531" width="674.892" height="569.716" fill="none"/>
    </clipPath>
    <clipPath id="clip-path-3">
      <rect id="Rectángulo_345532" data-name="Rectángulo 345532" width="500" height="499.999" transform="translate(87.446)" fill="none"/>
    </clipPath>
    <clipPath id="clip-path-5">
      <rect id="Rectángulo_345533" data-name="Rectángulo 345533" width="19.398" height="6.381" transform="translate(410.516 205.753)" fill="none"/>
    </clipPath>
    <clipPath id="clip-path-6">
      <path id="Trazado_705480" data-name="Trazado 705480" d="M474.588,279.817c-36.276,14.107-30.9-44.338-30.9-44.338s-23.513-6.046-28.215,22.169-20.153,80.614-20.153,80.614l28.215,51.728L402.9,500h176.76L559.9,400.066l6.035-158.208-38.28-8.4c-21.5,28.888-53.071,46.354-53.071,46.354" fill="none"/>
    </clipPath>
    <clipPath id="clip-path-7">
      <rect id="Rectángulo_345535" data-name="Rectángulo 345535" width="65.224" height="65.224" transform="translate(378.551 237.246)" fill="none"/>
    </clipPath>
    <clipPath id="clip-path-8">
      <rect id="Rectángulo_345536" data-name="Rectángulo 345536" width="65.224" height="65.224" transform="translate(429.798 320.681)" fill="none"/>
    </clipPath>
    <clipPath id="clip-path-9">
      <rect id="Rectángulo_345537" data-name="Rectángulo 345537" width="65.224" height="65.223" transform="translate(487.398 241.058)" fill="none"/>
    </clipPath>
    <clipPath id="clip-path-10">
      <rect id="Rectángulo_345538" data-name="Rectángulo 345538" width="65.223" height="65.223" transform="translate(511.116 347.787)" fill="none"/>
    </clipPath>
    <clipPath id="clip-path-11">
      <rect id="Rectángulo_345539" data-name="Rectángulo 345539" width="65.224" height="65.223" transform="translate(530.598 451.975)" fill="none"/>
    </clipPath>
    <clipPath id="clip-path-12">
      <rect id="Rectángulo_345540" data-name="Rectángulo 345540" width="65.224" height="65.223" transform="translate(442.504 408.775)" fill="none"/>
    </clipPath>
    <clipPath id="clip-path-13">
      <rect id="Rectángulo_345541" data-name="Rectángulo 345541" width="65.223" height="65.224" transform="translate(373.893 458.751)" fill="none"/>
    </clipPath>
    <clipPath id="clip-path-14">
      <path id="Trazado_705483" data-name="Trazado 705483" d="M357.025,299.971s13.437,67.85,20.154,93.377,24.184,25.528,34.933,20.826,11.421-24.184,11.421-24.184L381.21,291.909Z" fill="none"/>
    </clipPath>
    <clipPath id="clip-path-15">
      <rect id="Rectángulo_345544" data-name="Rectángulo 345544" width="107.576" height="128.752" transform="translate(321.375 298.658)" fill="none"/>
    </clipPath>
    <clipPath id="clip-path-16">
      <rect id="Rectángulo_345542" data-name="Rectángulo 345542" width="65.223" height="65.223" transform="translate(321.375 298.658)" fill="none"/>
    </clipPath>
    <clipPath id="clip-path-17">
      <rect id="Rectángulo_345543" data-name="Rectángulo 345543" width="65.223" height="65.223" transform="translate(363.728 362.187)" fill="none"/>
    </clipPath>
    <clipPath id="clip-path-19">
      <path id="Trazado_705499" data-name="Trazado 705499" d="M517.582,281.832l-26.2,63.82-65.164-69.866L406.066,294.6s33.589,54.415,54.414,91.363,40.308,20.825,40.308,20.825,54.414-55.758,73.9-98.081c14.8-32.162,4-53.461-2.035-61.835a13.653,13.653,0,0,0-8.426-5.388,32.228,32.228,0,0,0-6.294-.637c-28.634,0-40.347,40.989-40.347,40.989" fill="none"/>
    </clipPath>
    <clipPath id="clip-path-20">
      <rect id="Rectángulo_345546" data-name="Rectángulo 345546" width="64.376" height="64.376" transform="translate(430.222 321.105)" fill="none"/>
    </clipPath>
    <clipPath id="clip-path-21">
      <rect id="Rectángulo_345547" data-name="Rectángulo 345547" width="64.376" height="64.377" transform="translate(523.398 271.128)" fill="none"/>
    </clipPath>
  </defs>
  <g id="Grupo_1000220" data-name="Grupo 1000220" clip-path="url(#clip-path)">
    <rect id="Rectángulo_345530" data-name="Rectángulo 345530" width="674.892" height="499.999" fill="#f3edd7"/>
    <g id="Grupo_1000166" data-name="Grupo 1000166">
      <g id="Grupo_1000165" data-name="Grupo 1000165" clip-path="url(#clip-path-2)">
        <path id="Trazado_705408" data-name="Trazado 705408" d="M344.131,128.03c-4.672-3.2-8.426-9.522-18.084-17.034-17.547-13.648-31.2,0-31.2,0C296.8,75.9,261.707,85.65,261.707,85.65s-3.9-25.346-27.295-23.4-25.346,31.195-25.346,31.195S183.72,83.7,175.921,103.2a27.961,27.961,0,0,0-2.18,10.1c-4.465-1.975-24.262-9.174-32.265,14.3h38.33c.159.15.316.3.47.434Z" fill="#fff"/>
        <path id="Trazado_705409" data-name="Trazado 705409" d="M524.79,218.953c-4.743-3.247-8.553-9.666-18.357-17.291-17.812-13.854-31.665,0-31.665,0,1.979-35.624-33.645-25.728-33.645-25.728s-3.958-25.728-27.707-23.749-25.728,31.665-25.728,31.665-25.729-9.9-33.645,9.9A28.367,28.367,0,0,0,351.83,204c-4.533-2-24.629-9.312-32.752,14.516h38.909c.16.152.32.3.476.44Z" fill="#fff"/>
      </g>
    </g>
    <g id="Grupo_1000168" data-name="Grupo 1000168">
      <g id="Grupo_1000167" data-name="Grupo 1000167" clip-path="url(#clip-path-3)">
        <path id="Trazado_705410" data-name="Trazado 705410" d="M185.721,207.936s20.154,41.651,56.43,27.543,14.107-83.3-2.687-95.393-40.979-16.123-54.415,4.7-4.03,55.758.672,63.148" fill="#edab9b"/>
        <path id="Trazado_705411" data-name="Trazado 705411" d="M216.175,182.184a9.978,9.978,0,0,0,2.093,1.915,8.153,8.153,0,0,0,2.952,1.234,7.579,7.579,0,0,0,2.685.109,6.1,6.1,0,0,0,.942-.2c.321-.1.58-.209.58-.209a3.827,3.827,0,0,0,.483-.22,5.138,5.138,0,0,0,.787-.473,8.224,8.224,0,0,0,2.474-3.011,10,10,0,0,0,.888-5.867c-.808,1.895-1.317,3.146-2.278,5.158a6.867,6.867,0,0,1-1.992,2.439,4.2,4.2,0,0,1-.589.357,2.672,2.672,0,0,1-.358.17l-.436.151a5.8,5.8,0,0,1-.717.147,6.212,6.212,0,0,1-2.167-.086,27.553,27.553,0,0,1-2.756-.733c-.826-.261-1.636-.5-2.591-.885" fill="#373735"/>
        <path id="Trazado_705412" data-name="Trazado 705412" d="M240.807,171.883A9.978,9.978,0,0,0,242.9,173.8a8.154,8.154,0,0,0,2.952,1.234,7.579,7.579,0,0,0,2.685.109,6.1,6.1,0,0,0,.942-.2c.321-.1.58-.209.58-.209a3.825,3.825,0,0,0,.483-.22,5.14,5.14,0,0,0,.787-.473,8.224,8.224,0,0,0,2.474-3.011,10,10,0,0,0,.888-5.867c-.808,1.9-1.317,3.146-2.278,5.158a6.866,6.866,0,0,1-1.992,2.439,4.2,4.2,0,0,1-.589.357,2.672,2.672,0,0,1-.358.17l-.436.151a5.805,5.805,0,0,1-.717.147,6.213,6.213,0,0,1-2.167-.086,27.558,27.558,0,0,1-2.756-.733c-.826-.261-1.636-.5-2.591-.885" fill="#373735"/>
        <path id="Trazado_705413" data-name="Trazado 705413" d="M207.666,178.6l20.154-13.436s-15.228-4.478-20.154,13.436" fill="#1d1d1b"/>
        <path id="Trazado_705414" data-name="Trazado 705414" d="M249.792,153.437c-.373-.746-.588-1.26-1.26-2.519-3.75.237-8.443,2.222-12.92,7.158l15.44-1.952c-.409-.934-.5-1.176-1.26-2.687" fill="#1d1d1b"/>
        <path id="Trazado_705415" data-name="Trazado 705415" d="M236.328,171.883a10.522,10.522,0,0,0,1.4,2.547l9.289,12.554,1.348,1.823,1.418,1.917a8.971,8.971,0,0,1,.734,1.064,1.838,1.838,0,0,1,.144,1.166,1.923,1.923,0,0,1-1.7,1.554l-2.733.437-1.743.282a10.565,10.565,0,0,0-2.783.84,10.536,10.536,0,0,0,2.906-.07l1.744-.276,2.733-.437a2.722,2.722,0,0,0,2.347-2.181,2.631,2.631,0,0,0-.205-1.649,9,9,0,0,0-.814-1.2l-1.419-1.916-1.349-1.822-9.29-12.554a10.57,10.57,0,0,0-2.027-2.083" fill="#373735"/>
        <path id="Trazado_705416" data-name="Trazado 705416" d="M237.672,192.037c-.269.185-.417.314-.448.565l-.164,1.635s-.135,1.356-.163,1.636c-.02.252.1.408.327.643.269-.186.418-.315.449-.566.028-.279.163-1.635.163-1.635L238,192.68c.019-.252-.1-.408-.328-.643" fill="#373735"/>
        <path id="Trazado_705417" data-name="Trazado 705417" d="M243.942,202.338a3.276,3.276,0,0,0,2.029,1.416,13.192,13.192,0,0,0,3.691.336,8.351,8.351,0,0,0,2.056-.391,6.333,6.333,0,0,0,.864-.374,5.422,5.422,0,0,0,2.27-2.126,8.464,8.464,0,0,0,1.063-3.67,3.263,3.263,0,0,0-.776-2.357,5.04,5.04,0,0,0-.779,2.229,7.239,7.239,0,0,1-.854,2.989,4.441,4.441,0,0,1-1.048,1.184,4.637,4.637,0,0,1-.592.365,5.018,5.018,0,0,1-.65.279,6.878,6.878,0,0,1-1.658.306,12.452,12.452,0,0,1-3.249-.293,4.992,4.992,0,0,0-2.367.107" fill="#fb6220"/>
        <path id="Trazado_705418" data-name="Trazado 705418" d="M180.794,196.068s25.976-24.632,21.945-54.191c0,0,17.466,4.927,24.184-8.509,0,0-21.721-14.107-40.531,5.374-12.826,13.284-13.659,35.829-5.6,57.326" fill="#1d1d1b"/>
        <path id="Trazado_705419" data-name="Trazado 705419" d="M202.739,141.877a18.9,18.9,0,0,0,.918,2.734c.061.148.153.371.266.647.056.138.117.29.182.452l.368.995.372,1.12a35.413,35.413,0,0,1,1.611,10.5,33.649,33.649,0,0,1-1.406,9.528c-.327,1.24-.767,2.205-.992,2.9L203.6,171.8l-.461,1.051c-.328.655-.8,1.6-1.429,2.718a44.113,44.113,0,0,1-5.742,7.786,61.258,61.258,0,0,1-7.859,7.194c-.607.5-1.143.865-1.4,1.057A10.617,10.617,0,0,0,184.6,193.6a10.539,10.539,0,0,0,2.571-1.364c.264-.192.807-.557,1.421-1.065a61.9,61.9,0,0,0,7.959-7.288,44.78,44.78,0,0,0,5.839-7.924c.645-1.137,1.122-2.1,1.457-2.774l.47-1.074s.168-.387.465-1.075c.232-.714.68-1.7,1.016-2.968a34.392,34.392,0,0,0,1.442-9.75,36.107,36.107,0,0,0-1.647-10.733q-.195-.585-.38-1.144-.2-.525-.377-1.018l-.187-.464c-.117-.282-.206-.512-.276-.661a7.39,7.39,0,0,0-1.635-2.425" fill="#373735"/>
        <path id="Trazado_705420" data-name="Trazado 705420" d="M241.974,142.378s-1.167-30.955-31.173-23.79c0,0-36.725-12.987-56.878,15.675s-7.614,80.167-7.614,80.167-19.258,22.84-2.239,47.92L196.021,240.4l-4.478-22.84s-25.528-32.246-8.062-68.97,58.493-6.217,58.493-6.217" fill="#1d1d1b"/>
        <path id="Trazado_705421" data-name="Trazado 705421" d="M197.813,206.816A13.212,13.212,0,1,1,184.6,193.6a13.212,13.212,0,0,1,13.212,13.212" fill="#edab9b"/>
        <path id="Trazado_705422" data-name="Trazado 705422" d="M191.543,217.565a10.585,10.585,0,0,0-.639-2.835c-.071-.191-.185-.5-.423-1.144l-2.237-6L186.2,202.09l-.624-1.668a10.54,10.54,0,0,0-1.37-2.563,10.576,10.576,0,0,0,.639,2.835c.1.279.3.81.619,1.67.73,1.958,2.046,5.491,2.046,5.491s1.57,4.222,2.232,6l.428,1.143a10.575,10.575,0,0,0,1.37,2.563" fill="#373735"/>
        <path id="Trazado_705423" data-name="Trazado 705423" d="M169.6,243.092l-43.442,14.779,13.212,252.367H295.894L299.252,251.6l-45.457-7.165L224.237,368.492Z" fill="#5174c8"/>
        <path id="Trazado_705424" data-name="Trazado 705424" d="M253.795,244.436l12.988,2.687s27.319,38.964-8.062,64.491c0,0,13.436,43.443-34.484,56.878Z" fill="#fff"/>
        <path id="Trazado_705425" data-name="Trazado 705425" d="M156.61,247.123s-20.6,42.1,22.393,61.356c0,0-10.749,58.222,45.233,60.013L169.6,243.092Z" fill="#fff"/>
        <path id="Trazado_705426" data-name="Trazado 705426" d="M224.236,368.492a10.588,10.588,0,0,0-.353,2.885c.148,11.626.892,69.85.892,69.85s.688,53.822.826,64.569a10.544,10.544,0,0,0,.426,2.875,10.542,10.542,0,0,0,.354-2.885c-.138-10.746-.825-64.569-.825-64.569s-.745-58.224-.893-69.85a10.58,10.58,0,0,0-.427-2.875" fill="#373735"/>
        <path id="Trazado_705427" data-name="Trazado 705427" d="M237.224,402.3a3.359,3.359,0,1,1-3.359-3.358,3.359,3.359,0,0,1,3.359,3.358" fill="#fff"/>
        <path id="Trazado_705428" data-name="Trazado 705428" d="M238.792,445.524a3.359,3.359,0,1,1-3.359-3.359,3.359,3.359,0,0,1,3.359,3.359" fill="#fff"/>
        <path id="Trazado_705429" data-name="Trazado 705429" d="M238.538,484.345a3.359,3.359,0,1,1-3.359-3.359,3.359,3.359,0,0,1,3.359,3.359" fill="#fff"/>
        <path id="Trazado_705430" data-name="Trazado 705430" d="M191.543,217.565,189.3,237.271,169.6,243.093l54.639,125.4,29.558-124.057L241.7,242.645l.448-7.166s-25.08,10.749-50.608-17.914" fill="#edab9b"/>
        <path id="Trazado_705431" data-name="Trazado 705431" d="M196.917,225.178a7.917,7.917,0,0,0,1.708,2.37l.515.495.367.338c.366.342.881.788,1.361,1.2a46.282,46.282,0,0,0,7.066,4.907,40.893,40.893,0,0,0,7.149,3.145,32.829,32.829,0,0,0,3.287.913s1.3.321,3.358.611a35.956,35.956,0,0,0,7.817.129,39.072,39.072,0,0,0,8.394-1.765l1.684-.584a9.967,9.967,0,0,0,2.528-1.458,11.219,11.219,0,0,0-2.8.727l-1.656.569a38.371,38.371,0,0,1-8.222,1.73,35.288,35.288,0,0,1-7.643-.123c-2.011-.283-3.285-.6-3.285-.6a31.934,31.934,0,0,1-3.217-.9,40.192,40.192,0,0,1-7.009-3.087,45.53,45.53,0,0,1-6.943-4.822c-.472-.4-.978-.843-1.338-1.179-.129-.119-.25-.229-.361-.33-.216-.207-.391-.373-.508-.484a16.071,16.071,0,0,0-2.251-1.81" fill="#373735"/>
        <path id="Trazado_705432" data-name="Trazado 705432" d="M189.3,237.27a10.557,10.557,0,0,0-.52,2.859c-.01.2-.026.533-.058,1.219-.077,1.7-.258,5.721-.258,5.721s-.155,3.367-.24,5.234c-.041.915-.066,1.482-.079,1.778a10.6,10.6,0,0,0,.259,2.9,10.556,10.556,0,0,0,.521-2.86c.014-.3.04-.862.083-1.778.084-1.866.235-5.234.235-5.234s.185-4.022.263-5.72c.03-.686.044-1.016.053-1.219a10.6,10.6,0,0,0-.259-2.895" fill="#373735"/>
        <path id="Trazado_705433" data-name="Trazado 705433" d="M241.7,242.645a10.547,10.547,0,0,0-.734,2.812c-.025.2-.065.53-.149,1.211-.113.943-.383,3.177-.383,3.177s-.228,1.869-.355,2.906c-.108.91-.176,1.472-.211,1.767a10.605,10.605,0,0,0,.04,2.906,10.547,10.547,0,0,0,.734-2.812c.037-.295.106-.857.217-1.767.125-1.036.35-2.906.35-2.906s.272-2.234.387-3.177c.081-.681.121-1.009.145-1.211a10.564,10.564,0,0,0-.041-2.906" fill="#373735"/>
        <path id="Trazado_705434" data-name="Trazado 705434" d="M126.156,257.872S92.343,271.084,86.3,329.529l45.681,30.9Z" fill="#5174c8"/>
        <path id="Trazado_705435" data-name="Trazado 705435" d="M86.3,329.529l-7.179,90.719a24.262,24.262,0,0,0,.479,7.131c1.65,7.506,7.077,21.279,24.382,15.484a20.8,20.8,0,0,0,8.825-5.81l83.665-92.745L179,323.483l-47.026,36.948Z" fill="#edab9b"/>
        <path id="Trazado_705436" data-name="Trazado 705436" d="M100.4,386.631a10.551,10.551,0,0,0,2.465-1.539l11.717-9.719,11.161-9.262,4.516-3.747,1.8-1.5.177-.146c.066-.056.152-.1.126-.2,0-.13,0-.258.007-.383,0-.166.006-.326.009-.481.005-.309.011-.6.015-.861.242-13.412.309-17.109.309-17.109s.794-43.94.952-52.714a10.549,10.549,0,0,0-.338-2.887,10.583,10.583,0,0,0-.442,2.873c-.158,8.773-.952,52.714-.952,52.714s-.067,3.7-.311,17.109c0,.265-.01.552-.015.861q0,.232-.009.48l0,.121c-.012.009.026-.022-.025.021l-1.8,1.495c-1.314,1.091-2.844,2.359-4.516,3.746l-11.162,9.261-11.713,9.724a10.592,10.592,0,0,0-1.967,2.139" fill="#373735"/>
        <path id="Trazado_705437" data-name="Trazado 705437" d="M263.312,293.588c-1.344-1.68-7.39,1.008-7.39,1.008,6.382-5.039,9.4-10.413,5.039-10.413s-30.23,17.466-30.23,17.466,3.022-3.359,12.092-11.756,12.092-12.092,9.74-13.1-33.925,21.162-33.925,21.162l-8.3,3.321c.192-.441.782-2.554,2.593-11.383,2.687-13.1-3.359-13.436-3.359-13.436-1.585,4.228-9.791,20.7-12.79,28.258a16,16,0,0,1-3.923,5.763l-13.853,13,17.467,20.826,32.917-15.787s32.246-16.459,30.566-18.81-19.817,4.03-19.817,4.03c25.863-15.451,24.52-18.474,23.176-20.153" fill="#edab9b"/>
        <path id="Trazado_705438" data-name="Trazado 705438" d="M246.27,279.675a10.107,10.107,0,0,0-2.669,1.157l-.974.6-2.4,1.512-3.087,1.993-6.442,4.269-6.419,4.363-5.872,4.055-5.687,2.276-1.763.7v0c.083-.323.162-.625.234-.9.857-3.561,1.445-6.5,1.949-8.9a35.708,35.708,0,0,0,.84-5.79,10.866,10.866,0,0,0-.175-3.176,2.769,2.769,0,0,0-.3-.705c-.082-.142-.119-.208-.119-.208a4.8,4.8,0,0,0-.469-.566,3.674,3.674,0,0,0-1.823-.941,3.544,3.544,0,0,0-3.046.789,3.926,3.926,0,0,0-.646.735,8.5,8.5,0,0,0-.439.89q-.375.876-.79,1.841c-2.227,5.141-5.375,12.035-9.089,19.072-.9,1.767-1.826,3.55-2.866,5.242a11.6,11.6,0,0,1-1.744,2.311l-2.176,2.043-8.176,7.675-1.286,1.211A10.577,10.577,0,0,0,179,323.483a10.563,10.563,0,0,0,2.367-1.687l1.29-1.207,8.176-7.675,2.175-2.043a12.3,12.3,0,0,0,1.875-2.47c1.064-1.732,1.991-3.526,2.9-5.3,3.714-7.038,6.879-13.971,9.107-19.117l.791-1.846a7.9,7.9,0,0,1,.377-.773,3.1,3.1,0,0,1,.5-.57,2.763,2.763,0,0,1,2.38-.611,2.9,2.9,0,0,1,1.431.735,4.6,4.6,0,0,1,.361.436l.09.161a2.039,2.039,0,0,1,.233.546,10.364,10.364,0,0,1,.142,2.914,34.859,34.859,0,0,1-.826,5.67c-.5,2.395-1.092,5.343-1.942,8.872q-.108.412-.232.891a9.028,9.028,0,0,1-.352,1.036l-.114.289-.056.144c0,.029-.073.131-.007.085l.511-.2,2.829-1.131,5.687-2.274a2.056,2.056,0,0,0,.438-.268l.352-.246.714-.5,1.465-1.017,3.057-2.108,6.412-4.358,6.433-4.263,3.081-1.989,2.393-1.508.967-.6a11.107,11.107,0,0,0,2.261-1.822" fill="#373735"/>
        <path id="Trazado_705439" data-name="Trazado 705439" d="M242.184,294.186a10.5,10.5,0,0,0-2.623,1.244l-4.706,3.063-3.06,2c-.426.277-.792.517-1.074.7l-.195.127-.011.007h0c.227.261-.509-.583.508.586l0,0,0,0,.016-.018.033-.035.06-.066c.077-.082.134-.143.168-.181l.948-.989s1.162-1.2,2.687-2.691,3.4-3.292,4.749-4.563l1.294-1.22a10.717,10.717,0,0,0,1.841-2.248,10.391,10.391,0,0,0-2.374,1.679l-1.3,1.218c-1.353,1.272-3.234,3.073-4.76,4.576s-2.7,2.705-2.7,2.705l-.958,1-.173.184-.062.068-.034.038-.019.02,0,0,0,0c1.018,1.169.283.324.511.584h0l.011-.007.2-.127,1.073-.7,3.056-1.99,4.695-3.062a10.626,10.626,0,0,0,2.2-1.9" fill="#373735"/>
        <path id="Trazado_705440" data-name="Trazado 705440" d="M211.248,337.59a10.593,10.593,0,0,0,2.751-.939l1.092-.544,7.594-3.8,6.949-3.473,1.58-.824a10.569,10.569,0,0,0,2.378-1.674,10.582,10.582,0,0,0-2.734.98l-1.579.817-6.945,3.477-7.6,3.8-1.09.547a10.569,10.569,0,0,0-2.4,1.637" fill="#373735"/>
        <path id="Trazado_705441" data-name="Trazado 705441" d="M255.922,294.6a10.53,10.53,0,0,0-2.6,1.309l-1.007.688-7.98,5.482-7.3,5.011-1.466,1.009a10.594,10.594,0,0,0-2.154,1.952,10.514,10.514,0,0,0,2.595-1.309l1.469-1.005,7.3-5.015,7.982-5.478,1-.692a10.613,10.613,0,0,0,2.153-1.952" fill="#373735"/>
        <path id="Trazado_705442" data-name="Trazado 705442" d="M240.135,313.742a1.461,1.461,0,0,0-1.027.055l-2.331,1.1-2.33,1.1a.556.556,0,1,0,.333.7l2.331-1.1,2.331-1.1a1.462,1.462,0,0,0,.693-.76" fill="#373735"/>
        <path id="Trazado_705443" data-name="Trazado 705443" d="M299.252,251.6s33.983,13.436,40.029,71.881l-45.681,30.9Z" fill="#5174c8"/>
        <path id="Trazado_705444" data-name="Trazado 705444" d="M339.281,323.483,346.46,414.2a24.3,24.3,0,0,1-.48,7.131c-1.65,7.506-7.077,21.279-24.382,15.485a20.82,20.82,0,0,1-8.825-5.811l-83.665-92.745,17.467-20.825L293.6,354.385Z" fill="#edab9b"/>
        <path id="Trazado_705445" data-name="Trazado 705445" d="M325.174,380.584a10.592,10.592,0,0,0-1.967-2.139l-11.714-9.723-11.162-9.262-4.516-3.746-1.8-1.495-.025-.021,0-.12c0-.166-.006-.326-.009-.481q-.009-.463-.016-.861l-.31-17.109s-.794-43.94-.953-52.714a10.545,10.545,0,0,0-.441-2.873,10.511,10.511,0,0,0-.338,2.887c.158,8.774.952,52.714.952,52.714s.067,3.7.308,17.109q.008.4.016.862c0,.154.006.314.008.48,0,.126.005.253.007.383-.025.1.061.144.127.2l.176.146,1.8,1.5,4.516,3.747,11.161,9.262,11.717,9.719a10.551,10.551,0,0,0,2.465,1.539" fill="#373735"/>
        <path id="Trazado_705446" data-name="Trazado 705446" d="M162.266,287.542c1.344-1.68,7.39,1.008,7.39,1.008-6.382-5.039-9.4-10.413-5.039-10.413S194.848,295.6,194.848,295.6s-3.023-3.358-12.093-11.756-12.092-12.092-9.74-13.1,33.925,21.162,33.925,21.162l8.3,3.321c-.192-.441-.782-2.554-2.593-11.383-2.687-13.1,3.359-13.435,3.359-13.435,1.585,4.227,9.791,20.7,12.79,28.256a15.983,15.983,0,0,0,3.923,5.764l13.853,13-17.467,20.826-32.917-15.787s-32.246-16.459-30.566-18.81,19.817,4.031,19.817,4.031c-25.863-15.451-24.52-18.475-23.176-20.154" fill="#edab9b"/>
        <path id="Trazado_705447" data-name="Trazado 705447" d="M179.308,273.629a11.105,11.105,0,0,0,2.261,1.822l.967.6,2.393,1.508,3.081,1.989,6.433,4.263,6.412,4.358,3.057,2.108,1.466,1.017.713.5.352.245a1.979,1.979,0,0,0,.438.268l5.687,2.275,2.829,1.131.511.2c.066.045,0-.056-.007-.085l-.056-.144-.114-.289a8.909,8.909,0,0,1-.352-1.037c-.083-.318-.16-.616-.232-.891-.85-3.528-1.44-6.476-1.942-8.871a34.874,34.874,0,0,1-.826-5.67,10.364,10.364,0,0,1,.142-2.914,2.064,2.064,0,0,1,.233-.547l.09-.161a4.693,4.693,0,0,1,.361-.435,2.887,2.887,0,0,1,1.431-.735,2.763,2.763,0,0,1,2.38.611,3.1,3.1,0,0,1,.5.57,7.9,7.9,0,0,1,.377.773l.791,1.846c2.228,5.146,5.393,12.079,9.107,19.117.907,1.774,1.834,3.567,2.9,5.3a12.3,12.3,0,0,0,1.875,2.47l2.175,2.043,8.176,7.675,1.29,1.207a10.563,10.563,0,0,0,2.367,1.687,10.577,10.577,0,0,0-1.833-2.256l-1.286-1.211-8.176-7.675-2.176-2.043a11.6,11.6,0,0,1-1.744-2.311c-1.04-1.692-1.963-3.476-2.866-5.243-3.714-7.036-6.862-13.931-9.089-19.071l-.79-1.841a8.5,8.5,0,0,0-.439-.89,3.926,3.926,0,0,0-.646-.735,3.544,3.544,0,0,0-3.046-.789,3.666,3.666,0,0,0-1.823.941,4.8,4.8,0,0,0-.469.566l-.119.208a2.769,2.769,0,0,0-.3.7,10.866,10.866,0,0,0-.175,3.176,35.723,35.723,0,0,0,.84,5.79c.5,2.4,1.092,5.341,1.949,8.9.072.279.151.581.234.9v0l-1.763-.706-5.687-2.275-5.872-4.055-6.419-4.363-6.442-4.269-3.087-1.993-2.4-1.513-.974-.6a10.107,10.107,0,0,0-2.669-1.157" fill="#373735"/>
        <path id="Trazado_705448" data-name="Trazado 705448" d="M183.394,288.14a10.625,10.625,0,0,0,2.2,1.9l4.7,3.062,3.056,1.99,1.073.7.2.127.011.007h0c.227-.26-.507.585.51-.584l0,0,0-.006-.018-.02-.035-.037-.062-.068-.173-.184h0l-.958-1s-1.168-1.206-2.7-2.706-3.407-3.3-4.76-4.575l-1.3-1.218a10.391,10.391,0,0,0-2.374-1.679A10.748,10.748,0,0,0,184.6,286.1l1.294,1.22c1.35,1.271,3.228,3.067,4.749,4.563s2.687,2.69,2.687,2.69l.948.99.168.181.06.066.033.035.016.018,0,0,0,0c1.017-1.169.281-.325.508-.586h0l-.011-.007-.2-.128c-.282-.183-.648-.423-1.074-.7l-3.06-1.995-4.706-3.063a10.5,10.5,0,0,0-2.623-1.244" fill="#373735"/>
        <path id="Trazado_705449" data-name="Trazado 705449" d="M214.33,331.544a10.568,10.568,0,0,0-2.4-1.637l-1.09-.547-7.6-3.795-6.945-3.477-1.579-.817a10.546,10.546,0,0,0-2.734-.98,10.569,10.569,0,0,0,2.378,1.674l1.58.824,6.949,3.473,7.594,3.8,1.092.544a10.593,10.593,0,0,0,2.751.939" fill="#373735"/>
        <path id="Trazado_705450" data-name="Trazado 705450" d="M169.656,288.55a10.614,10.614,0,0,0,2.153,1.952l1,.692,7.982,5.478,7.3,5.015,1.469,1.006a10.543,10.543,0,0,0,2.6,1.308,10.594,10.594,0,0,0-2.154-1.952l-1.466-1.009c-2.6-1.788-7.3-5.011-7.3-5.011l-7.98-5.482-1.007-.689a10.562,10.562,0,0,0-2.6-1.308" fill="#373735"/>
        <path id="Trazado_705451" data-name="Trazado 705451" d="M185.443,307.7a1.459,1.459,0,0,0,.694.76l2.33,1.1,2.33,1.1a.556.556,0,1,0,.334-.7l-2.33-1.1-2.331-1.1a1.461,1.461,0,0,0-1.027-.055" fill="#373735"/>
        <path id="Trazado_705452" data-name="Trazado 705452" d="M425.548,130.009s14.108-28.215,49.712-24.184,63.82,59.117,63.82,82.629c0,0,27.83,12.439,31.189,72.228s-54.212,72.282-54.212,72.282l-24.29-2.717L481.306,201.89,467.87,178.377s-44.337,6.718-42.322-48.368" fill="#1d1d1b"/>
        <path id="Trazado_705453" data-name="Trazado 705453" d="M413.456,158.224s-12.764-25.528,12.092-28.215Z" fill="#1d1d1b"/>
        <path id="Trazado_705454" data-name="Trazado 705454" d="M481.306,201.89l18.138,29.559,28.215,2.015s-85.652,111.18-83.973,2.015c0,0,31.574-10.077,37.62-33.589" fill="#fda225"/>
        <path id="Trazado_705455" data-name="Trazado 705455" d="M425.548,130.009s-10.077,8.733-12.092,28.215-11.42,31.574-14.108,34.261l10.077,4.7s-2.687,46.354,34.261,38.292c0,0,33.589-8.733,40.979-39.635Z" fill="#fda225"/>
        <path id="Trazado_705456" data-name="Trazado 705456" d="M425.548,130.009s-3.3,51.224,41.483,45.849c0,0-12.148-26.815-41.483-45.849" fill="#1d1d1b"/>
        <path id="Trazado_705457" data-name="Trazado 705457" d="M425.548,130.009a14.744,14.744,0,0,0-1.669,5.609c-.03.328-.074.82-.129,1.43-.019.3-.04.641-.062,1-.052.658-.06,1.5-.089,2.308a49.5,49.5,0,0,0,1,10.858,36.949,36.949,0,0,0,3.309,9.365,28.559,28.559,0,0,0,1.6,2.737,8.044,8.044,0,0,0,.668.98l.712.95a30.45,30.45,0,0,0,2.06,2.416,32.637,32.637,0,0,0,7.958,5.977,40.136,40.136,0,0,0,10.217,3.777c1.555.431,2.871.555,3.515.692.6.1,1.136.176,1.637.221.5.018.969.016,1.423,0a27.268,27.268,0,0,0,2.783-.285c-.978-.353-1.789-.631-2.652-.853-.431-.111-.875-.208-1.358-.293-.478-.112-.994-.225-1.576-.327-.623-.14-1.909-.262-3.411-.682a38.683,38.683,0,0,1-9.833-3.63,31.053,31.053,0,0,1-7.573-5.677,28.9,28.9,0,0,1-1.955-2.289l-.676-.9a7.268,7.268,0,0,1-.633-.931,26.948,26.948,0,0,1-1.519-2.6,35.419,35.419,0,0,1-3.16-8.967,48.094,48.094,0,0,1-.965-10.508c.028-.784.035-1.6.085-2.245.021-.349.04-.675.058-.972.05-.594.091-1.072.118-1.391a37.808,37.808,0,0,0,.117-5.764" fill="#373735"/>
        <path id="Trazado_705458" data-name="Trazado 705458" d="M492.13,189.123a16.1,16.1,0,1,1-16.1-16.1,16.1,16.1,0,0,1,16.1,16.1" fill="#fda225"/>
        <path id="Trazado_705459" data-name="Trazado 705459" d="M482.314,204.241a10.593,10.593,0,0,0-.908-2.761c-.088-.183-.233-.48-.532-1.1l-3.966-8.163-3.625-7.47c-.4-.824-.65-1.334-.78-1.6a10.578,10.578,0,0,0-1.61-2.421,10.581,10.581,0,0,0,.908,2.761c.129.267.375.778.775,1.6l3.63,7.468s2.786,5.741,3.963,8.164l.535,1.1a10.528,10.528,0,0,0,1.61,2.42" fill="#373735"/>
        <path id="Trazado_705460" data-name="Trazado 705460" d="M455.778,255.633a10.593,10.593,0,0,0-1.147-2.67l-.626-1.047-3.963-6.6-3.622-6.042-.918-1.525a10.591,10.591,0,0,0-1.816-2.269,10.561,10.561,0,0,0,1.147,2.671l.914,1.527,3.626,6.039,3.959,6.6.63,1.045a10.567,10.567,0,0,0,1.816,2.269" fill="#373735"/>
        <path id="Trazado_705461" data-name="Trazado 705461" d="M499.444,231.448a10.565,10.565,0,0,0,1.31,2.594l.69,1.007c.376.547,1.269,1.842,1.269,1.842l1.157,1.688,1.011,1.465a10.535,10.535,0,0,0,1.953,2.153,10.542,10.542,0,0,0-1.311-2.6l-1.006-1.468-1.161-1.685L502.09,234.6l-.693-1a10.554,10.554,0,0,0-1.953-2.152" fill="#373735"/>
        <path id="Trazado_705462" data-name="Trazado 705462" d="M443.686,235.479a8.441,8.441,0,0,0,2.886-.422l.679-.217.472-.155,1.385-.495a63.1,63.1,0,0,0,6.389-2.757c1.074-.507,2.087-1.075,3.022-1.6.949-.5,1.772-1.047,2.482-1.492a25.859,25.859,0,0,0,2.289-1.533l.609-.438c.379-.294.974-.65,1.605-1.2l2.234-1.85,2.466-2.384c.809-.873,1.59-1.811,2.373-2.7.734-.917,1.388-1.908,1.987-2.722a11.874,11.874,0,0,0,.948-1.51,10.451,10.451,0,0,0,1.091-2.7,10.591,10.591,0,0,0-1.758,2.3,12.014,12.014,0,0,1-.934,1.475c-.588.8-1.227,1.768-1.946,2.667-.768.871-1.534,1.791-2.327,2.648-.841.814-1.662,1.609-2.422,2.343l-2.2,1.822c-.62.546-1.207.9-1.58,1.186l-.6.432a25.394,25.394,0,0,1-2.258,1.509c-.7.438-1.511.976-2.449,1.471-.923.52-1.923,1.08-2.984,1.581a63.039,63.039,0,0,1-6.312,2.722l-1.367.49L447,234.1l-.668.218a14.1,14.1,0,0,0-2.65,1.165" fill="#373735"/>
        <path id="Trazado_705463" data-name="Trazado 705463" d="M428.894,180.93s-10.07-4.363-16.937-3.836l-1.26-3.211s12.81,1.008,18.2,7.047" fill="#1d1d1b"/>
        <path id="Trazado_705464" data-name="Trazado 705464" d="M409.761,205.669l16.8,1.344-14.7,9.488a45.7,45.7,0,0,1-2.1-10.832" fill="#fa4e04"/>
        <path id="Trazado_705465" data-name="Trazado 705465" d="M414.8,165.807l24.856,10.325s-5.354-19.5-24.856-10.325" fill="#1d1d1b"/>
        <path id="Trazado_705466" data-name="Trazado 705466" d="M411.1,196.683c.307.037.491.038.646-.118l.982-1.042.981-1.043c.146-.164.134-.347.078-.652-.307-.037-.491-.039-.646.118-.17.179-.981,1.042-.981,1.042l-.982,1.043c-.146.164-.133.347-.078.652" fill="#373735"/>
        <path id="Trazado_705467" data-name="Trazado 705467" d="M429.242,181.073s-8.918-3.8-16.937-3.836c0,0-.193,15.583,16.937,3.836" fill="#fff"/>
        <path id="Trazado_705468" data-name="Trazado 705468" d="M429.242,181.073a8.762,8.762,0,0,0-2.567-1.382l-.674-.232-.472-.155-1.348-.422a52.38,52.38,0,0,0-6.509-1.537c-1.127-.2-2.24-.326-3.273-.4-.515-.053-1.014-.06-1.482-.076l-.5-.016-.325,0h-.16c-.044.009-.012.1-.022.138,0,.213.006.423.009.628.007.119.014.235.021.349a13.141,13.141,0,0,0,.289,1.946c.106.46.181.716.181.716s.07.258.232.7a8.361,8.361,0,0,0,.888,1.791,5.969,5.969,0,0,0,2.127,2,6.525,6.525,0,0,0,3.354.713,15.876,15.876,0,0,0,6.435-2.006c.714-.369,1.284-.7,1.56-.872a8.73,8.73,0,0,0,2.232-1.881,13.373,13.373,0,0,0-2.628,1.209c-.272.171-.831.488-1.525.846a15.177,15.177,0,0,1-6.1,1.92,5.736,5.736,0,0,1-2.952-.617,5.184,5.184,0,0,1-1.85-1.745,7.563,7.563,0,0,1-.806-1.627c-.151-.413-.216-.653-.216-.653s-.07-.239-.169-.67a12.443,12.443,0,0,1-.271-1.833c-.006-.086-.011-.173-.017-.262h0l.188.006c.456.016.94.023,1.444.076,1.007.075,2.1.2,3.2.4a52.078,52.078,0,0,1,6.412,1.515l1.331.416.467.152.666.226a13.353,13.353,0,0,0,2.823.645" fill="#3a3a38"/>
        <path id="Trazado_705469" data-name="Trazado 705469" d="M417.517,178.053s4.6,3.307-1.007,7.19c0,0-3.665-1.918-4.205-8,0,0,3.774.1,5.212.815" fill="#1d1d1b"/>
      </g>
    </g>
    <g id="Grupo_1000173" data-name="Grupo 1000173">
      <g id="Grupo_1000172" data-name="Grupo 1000172" clip-path="url(#clip-path-3)">
        <g id="Grupo_1000171" data-name="Grupo 1000171" style="mix-blend-mode: multiply;isolation: isolate">
          <g id="Grupo_1000170" data-name="Grupo 1000170">
            <g id="Grupo_1000169" data-name="Grupo 1000169" clip-path="url(#clip-path-5)">
              <path id="Trazado_705470" data-name="Trazado 705470" d="M410.517,212.134a10.471,10.471,0,0,0,2.857-.53c.194-.062.508-.164,1.16-.379l5.784-1.9s3.4-1.117,5.293-1.738l1.69-.559a10.536,10.536,0,0,0,2.613-1.27,10.522,10.522,0,0,0-2.858.53l-1.691.553-5.292,1.743s-4.068,1.338-5.785,1.9c-.651.217-.965.321-1.158.383a10.608,10.608,0,0,0-2.613,1.271" fill="#fb6220"/>
            </g>
          </g>
        </g>
        <path id="Trazado_705471" data-name="Trazado 705471" d="M583.417,518.972,559.9,400.066l6.035-158.208-38.28-8.394c-21.5,28.886-53.071,46.353-53.071,46.353-36.276,14.107-30.9-44.338-30.9-44.338s-23.513-6.046-28.215,22.169-20.154,80.614-20.154,80.614l28.215,51.727L399.348,518.972Z" fill="#fff"/>
        <path id="Trazado_705472" data-name="Trazado 705472" d="M357.026,299.97l24.184-8.061,42.323,98.08s-.672,19.482-11.421,24.184-28.215,4.7-34.932-20.825-20.154-93.378-20.154-93.378" fill="#fff"/>
      </g>
    </g>
    <g id="Grupo_1000196" data-name="Grupo 1000196">
      <g id="Grupo_1000195" data-name="Grupo 1000195" clip-path="url(#clip-path-6)">
        <g id="Grupo_1000176" data-name="Grupo 1000176" opacity="0.2">
          <g id="Grupo_1000175" data-name="Grupo 1000175">
            <g id="Grupo_1000174" data-name="Grupo 1000174" clip-path="url(#clip-path-7)">
              <path id="Trazado_705473" data-name="Trazado 705473" d="M443.775,269.858a32.611,32.611,0,1,1-32.612-32.612,32.612,32.612,0,0,1,32.612,32.612" fill="#fa4e04"/>
            </g>
          </g>
        </g>
        <g id="Grupo_1000179" data-name="Grupo 1000179" opacity="0.2">
          <g id="Grupo_1000178" data-name="Grupo 1000178">
            <g id="Grupo_1000177" data-name="Grupo 1000177" clip-path="url(#clip-path-8)">
              <path id="Trazado_705474" data-name="Trazado 705474" d="M495.022,353.293a32.611,32.611,0,1,1-32.612-32.612,32.612,32.612,0,0,1,32.612,32.612" fill="#fa4e04"/>
            </g>
          </g>
        </g>
        <g id="Grupo_1000182" data-name="Grupo 1000182" opacity="0.2">
          <g id="Grupo_1000181" data-name="Grupo 1000181">
            <g id="Grupo_1000180" data-name="Grupo 1000180" clip-path="url(#clip-path-9)">
              <path id="Trazado_705475" data-name="Trazado 705475" d="M552.622,273.669a32.612,32.612,0,1,1-32.612-32.612,32.612,32.612,0,0,1,32.612,32.612" fill="#fa4e04"/>
            </g>
          </g>
        </g>
        <g id="Grupo_1000185" data-name="Grupo 1000185" opacity="0.2">
          <g id="Grupo_1000184" data-name="Grupo 1000184">
            <g id="Grupo_1000183" data-name="Grupo 1000183" clip-path="url(#clip-path-10)">
              <path id="Trazado_705476" data-name="Trazado 705476" d="M576.339,380.4a32.611,32.611,0,1,1-32.612-32.612A32.612,32.612,0,0,1,576.339,380.4" fill="#fa4e04"/>
            </g>
          </g>
        </g>
        <g id="Grupo_1000188" data-name="Grupo 1000188" opacity="0.2">
          <g id="Grupo_1000187" data-name="Grupo 1000187">
            <g id="Grupo_1000186" data-name="Grupo 1000186" clip-path="url(#clip-path-11)">
              <path id="Trazado_705477" data-name="Trazado 705477" d="M595.822,484.587a32.612,32.612,0,1,1-32.612-32.612,32.612,32.612,0,0,1,32.612,32.612" fill="#fa4e04"/>
            </g>
          </g>
        </g>
        <g id="Grupo_1000191" data-name="Grupo 1000191" opacity="0.2">
          <g id="Grupo_1000190" data-name="Grupo 1000190">
            <g id="Grupo_1000189" data-name="Grupo 1000189" clip-path="url(#clip-path-12)">
              <path id="Trazado_705478" data-name="Trazado 705478" d="M507.728,441.387a32.611,32.611,0,1,1-32.612-32.612,32.612,32.612,0,0,1,32.612,32.612" fill="#fa4e04"/>
            </g>
          </g>
        </g>
        <g id="Grupo_1000194" data-name="Grupo 1000194" opacity="0.2">
          <g id="Grupo_1000193" data-name="Grupo 1000193">
            <g id="Grupo_1000192" data-name="Grupo 1000192" clip-path="url(#clip-path-13)">
              <path id="Trazado_705479" data-name="Trazado 705479" d="M439.116,491.363A32.611,32.611,0,1,1,406.5,458.751a32.612,32.612,0,0,1,32.612,32.612" fill="#fa4e04"/>
            </g>
          </g>
        </g>
      </g>
    </g>
    <g id="Grupo_1000207" data-name="Grupo 1000207">
      <g id="Grupo_1000206" data-name="Grupo 1000206" clip-path="url(#clip-path-14)">
        <g id="Grupo_1000205" data-name="Grupo 1000205" opacity="0.2">
          <g id="Grupo_1000204" data-name="Grupo 1000204">
            <g id="Grupo_1000203" data-name="Grupo 1000203" clip-path="url(#clip-path-15)">
              <g id="Grupo_1000199" data-name="Grupo 1000199" opacity="0.4">
                <g id="Grupo_1000198" data-name="Grupo 1000198">
                  <g id="Grupo_1000197" data-name="Grupo 1000197" clip-path="url(#clip-path-16)">
                    <path id="Trazado_705481" data-name="Trazado 705481" d="M386.6,331.269a32.612,32.612,0,1,1-32.612-32.612A32.613,32.613,0,0,1,386.6,331.269" fill="#fa4e04"/>
                  </g>
                </g>
              </g>
              <g id="Grupo_1000202" data-name="Grupo 1000202" opacity="0.4">
                <g id="Grupo_1000201" data-name="Grupo 1000201">
                  <g id="Grupo_1000200" data-name="Grupo 1000200" clip-path="url(#clip-path-17)">
                    <path id="Trazado_705482" data-name="Trazado 705482" d="M428.951,394.8a32.611,32.611,0,1,1-32.612-32.612A32.612,32.612,0,0,1,428.951,394.8" fill="#fa4e04"/>
                  </g>
                </g>
              </g>
            </g>
          </g>
        </g>
      </g>
    </g>
    <g id="Grupo_1000209" data-name="Grupo 1000209">
      <g id="Grupo_1000208" data-name="Grupo 1000208" clip-path="url(#clip-path-3)">
        <path id="Trazado_705484" data-name="Trazado 705484" d="M398,329.529a10.549,10.549,0,0,0,.761,2.805l12.026,28.483,11.261,26.671a10.579,10.579,0,0,0,1.48,2.5,10.539,10.539,0,0,0-.761-2.8c-1.874-4.44-11.261-26.671-11.261-26.671s-10.025-23.742-12.026-28.484a10.594,10.594,0,0,0-1.48-2.5" fill="#373735"/>
        <path id="Trazado_705485" data-name="Trazado 705485" d="M423.532,389.989a12.376,12.376,0,0,0-.431-2.868c-.043-.156-.106-.391-.185-.681-.04-.145-.083-.3-.13-.475q-.332-1.321-.686-2.726-.344-1.5-.705-3.082a172.8,172.8,0,0,1-3.706-28.3,140.863,140.863,0,0,1,1.137-25.848c.108-.851.211-1.665.309-2.436.121-.769.274-1.489.4-2.168.256-1.356.477-2.532.659-3.5s.317-1.722.429-2.232l.2-.773.767-2.973c.245-.951.543-2.11.888-3.446.369-1.332.837-2.831,1.323-4.481l7.428-24.892c3.526-11.821,7.371-24.715,8.651-29.007a10.583,10.583,0,0,0,.451-2.873,10.54,10.54,0,0,0-1.2,2.646l-8.657,29.008c-2.792,9.362-5.458,18.3-7.426,24.9-.486,1.651-.953,3.147-1.323,4.483-.347,1.345-.647,2.512-.894,3.469l-.771,2.994s-.07.27-.2.779c-.112.513-.245,1.275-.431,2.245s-.407,2.155-.665,3.52c-.123.683-.278,1.408-.4,2.181q-.148,1.164-.312,2.45a141.723,141.723,0,0,0-1.146,25.988,173.358,173.358,0,0,0,3.723,28.43q.363,1.587.709,3.1.355,1.413.691,2.743l.131.478c.081.292.147.528.19.685a9.237,9.237,0,0,0,1.183,2.66" fill="#373735"/>
        <path id="Trazado_705486" data-name="Trazado 705486" d="M381.21,291.909s-.672-26.535-4.7-35.94a218.684,218.684,0,0,0-16.123-29.223c-3.359-4.7-10.077-3.023-5.71,9.741s8.061,16.794,6.717,19.817c0,0-15.115-3.359-20.825-.671s-2.351,7.053-2.351,7.053-8.062,5.71,1.679,9.4c0,0-9.069,7.39,1.008,9.741,0,0-3.7,5.374,1.679,8.4s14.444,9.741,14.444,9.741Z" fill="#fda225"/>
        <path id="Trazado_705487" data-name="Trazado 705487" d="M361.392,256.3c.769.68,1.257,1.143,2.037,1.939l.289.344c.1.152.219.327.321.528l.149.377a4.154,4.154,0,0,1,.087.578,2.546,2.546,0,0,1-.347,1.164c-.128.179-.242.368-.379.546l-.493.5a3.886,3.886,0,0,1-.555.456l-.472.357-.307.231-.153.116-.074.058.082.053.655.434.393.277.616.457c.407.312.809.637,1.2.977a15.76,15.76,0,0,1,2.151,2.226,4.557,4.557,0,0,1,1.123,2.638,1.962,1.962,0,0,1-.431,1.207,2.227,2.227,0,0,1-1.111.678,8.143,8.143,0,0,1-2.837.164c-.95-.08-1.874-.23-2.758-.394-1.77-.326-3.377-.711-4.812-.907a5.021,5.021,0,0,0-2.1.034l-.135.051-.033.013c.047.329-.115-.731.1.739h.006l.013,0,.051.009.2.037.383.073.684.137h0c5.287,1.1,8.543,2.281,10.249,3.316a3.57,3.57,0,0,1,1.416,1.313,1.307,1.307,0,0,1,.107.433,1.668,1.668,0,0,1-.082.465,2.8,2.8,0,0,1-1.315,1.314,13.784,13.784,0,0,1-3.824,1.344c-.859.194-1.833.366-2.924.509l-.84.1-.216.021-.053.005h-.013c-.009-.169.046,1.478.026.781h.033l.109,0,.449.018q.91.042,1.909.143a21.827,21.827,0,0,1,3.327.572,5.981,5.981,0,0,1,1.953.84,1.112,1.112,0,0,1,.5.756,1.484,1.484,0,0,1-.363.951,15.465,15.465,0,0,1-4.537,3.323,22.99,22.99,0,0,1-5.859,2.02,24.308,24.308,0,0,1-6.185.454c-.5-.046-1-.076-1.491-.132l-.344-.054-.392-.061a11.037,11.037,0,0,1-1.147-.208,18.281,18.281,0,0,0-2.853-.4,7.5,7.5,0,0,0,2.689,1.159,10.824,10.824,0,0,0,1.188.22l.406.064.356.055c.507.058,1.023.091,1.543.138a25.07,25.07,0,0,0,6.388-.469,23.766,23.766,0,0,0,6.056-2.09,15.98,15.98,0,0,0,4.813-3.557,2.23,2.23,0,0,0,.513-1.489,1.879,1.879,0,0,0-.807-1.305,6.638,6.638,0,0,0-2.225-.975,22.573,22.573,0,0,0-3.452-.594h0c-.68-.069-1.329-.117-1.951-.146l-.461-.019-.115,0h-.037c-.025-.7.024.95.023.78h.015l.058-.005.224-.022.861-.1c1.115-.146,2.11-.322,3-.522a14.491,14.491,0,0,0,4.048-1.432,3.557,3.557,0,0,0,1.652-1.718,2.416,2.416,0,0,0,.131-.738,2.059,2.059,0,0,0-.184-.766,4.282,4.282,0,0,0-1.713-1.643c-1.858-1.121-5.156-2.3-10.5-3.416l-.692-.139-.39-.074-.205-.038-.054-.01-.013,0h-.007c.213,1.469.061.406.11.734l.017-.006.067-.023a4.51,4.51,0,0,1,1.734,0c1.369.187,2.981.572,4.773.9.9.166,1.842.32,2.836.4a8.85,8.85,0,0,0,3.128-.194,3,3,0,0,0,1.488-.928,2.744,2.744,0,0,0,.613-1.7,5.281,5.281,0,0,0-1.284-3.128,16.629,16.629,0,0,0-2.261-2.343q-.607-.526-1.238-1.007l-.634-.471-.238-.169,0,0,0,0v0l.137-.1a4.423,4.423,0,0,0,.609-.5l.558-.564c.164-.21.308-.442.459-.661a3.316,3.316,0,0,0,.452-1.558,4.491,4.491,0,0,0-.12-.8l-.2-.495a6.434,6.434,0,0,0-.4-.655l-.342-.4a4.76,4.76,0,0,0-2.611-1.41" fill="#373735"/>
        <path id="Trazado_705488" data-name="Trazado 705488" d="M340.9,281.832a9.47,9.47,0,0,0,2.867.51l1.223.029c.915.022,2.456.025,3.768.012l2.4-.055,2.064-.078c1.158-.052,2.565-.141,3.568-.224.918-.066,1.484-.133,1.78-.16a9.606,9.606,0,0,0,2.825-.706,11.718,11.718,0,0,0-2.9-.071l-1.767.154c-1,.082-2.393.171-3.543.224l-2.051.081-2.38.051c-1.3.011-2.836.007-3.745-.012l-1.216-.025a11.916,11.916,0,0,0-2.888.27" fill="#373735"/>
        <path id="Trazado_705489" data-name="Trazado 705489" d="M339.895,272.091a10.333,10.333,0,0,0,2.883.378l1.22-.008,4.2-.056,3.844-.081,1.782-.058a9.964,9.964,0,0,0,2.864-.511,11.183,11.183,0,0,0-2.891-.268l-1.777.051-3.836.087-4.2.052-1.219.012a10.768,10.768,0,0,0-2.877.4" fill="#373735"/>
        <path id="Trazado_705490" data-name="Trazado 705490" d="M338.216,262.686a12.683,12.683,0,0,0,2.9-.073l1.2-.157c1.336-.169,3.6-.4,5.525-.483s3.521-.065,3.521-.065,1.334.007,3.025.15a25.657,25.657,0,0,1,5.116.921,13.933,13.933,0,0,1,1.627.6c1.058.479,1.673.694,2.613,1.127a5.374,5.374,0,0,0-2.3-1.841,13.8,13.8,0,0,0-1.712-.632,26.148,26.148,0,0,0-5.278-.95c-1.727-.145-3.081-.15-3.081-.15s-1.617-.036-3.569.062-4.236.314-5.585.487l-1.215.163a9.078,9.078,0,0,0-2.789.846" fill="#373735"/>
        <path id="Trazado_705491" data-name="Trazado 705491" d="M426.22,275.786s-18.362-22.841-23.737-31.35-10.3-21.5-12.987-21.049-6.719,14.331,3.582,26.423c0,0-21.121,7.6-21.5,9.853-.447,2.687,5.375,2.687,5.375,2.687s-9.853,5.375,1.342,7.166c0,0-8.061,5.822.448,7.614,0,0-6.269,4.03-1.342,8.061s21.945,2.239,28.661,9.4Z" fill="#fda225"/>
        <path id="Trazado_705492" data-name="Trazado 705492" d="M376.507,255.968a7.3,7.3,0,0,0-2.694,1.152c-.171.118-.452.3-1,.753a7.028,7.028,0,0,0-1.038,1.029,3.047,3.047,0,0,0-.469.786,1.533,1.533,0,0,0-.046,1.1,2.473,2.473,0,0,0,1.6,1.295,10.309,10.309,0,0,0,1.8.424c.581.089,1.137.152,1.643.185l.37.027.178.013a.839.839,0,0,0,.24-.006l.617-.077,1.226-.152,9.8-1.2,1.766-.221a10.538,10.538,0,0,0,2.811-.739,10.539,10.539,0,0,0-2.906-.035l-1.767.215-9.794,1.21-1.226.151-.617.075c-.093.01,0,.007-.1,0l-.172-.013-.36-.027c-.493-.032-1.03-.093-1.583-.178a9.576,9.576,0,0,1-1.652-.389c-.514-.184-1.025-.477-1.128-.818a1.3,1.3,0,0,1,.39-1.138,6.387,6.387,0,0,1,.923-.914c.513-.419.784-.6.945-.714a19.426,19.426,0,0,0,2.251-1.794" fill="#373735"/>
        <path id="Trazado_705493" data-name="Trazado 705493" d="M376.955,262.35a6.5,6.5,0,0,0-2.59,1.391,9.31,9.31,0,0,0-.9.9,4.7,4.7,0,0,0-.811,1.245,2.048,2.048,0,0,0,.114,1.926,3.572,3.572,0,0,0,1.566,1.185,9.924,9.924,0,0,0,1.74.545c.569.127,1.114.225,1.612.288a3.8,3.8,0,0,0,.779.07l.613-.042,1.218-.084,9.729-.664,1.776-.124a10.561,10.561,0,0,0,2.846-.586,10.561,10.561,0,0,0-2.9-.192l-1.776.119-9.728.669-1.218.082-.613.042a3.43,3.43,0,0,1-.616-.065c-.484-.061-1.008-.156-1.546-.277a4.894,4.894,0,0,1-2.821-1.391c-.5-.744.158-1.7.629-2.232a9.044,9.044,0,0,1,.825-.825c.878-.759,1.353-1.24,2.074-1.976" fill="#373735"/>
        <path id="Trazado_705494" data-name="Trazado 705494" d="M378.3,269.516a6.275,6.275,0,0,0-2.479,1.583,8.664,8.664,0,0,0-.823.974,4.954,4.954,0,0,0-.7,1.319,2.382,2.382,0,0,0,.118,1.9,3.326,3.326,0,0,0,1.463,1.331,8.938,8.938,0,0,0,1.729.645c.283.088.565.135.835.2l.215.048a1.69,1.69,0,0,0,.265.006l.382-.008,1.326-.026,1.228-.024,9.812-.185,1.779-.036a10.567,10.567,0,0,0,2.872-.445,10.552,10.552,0,0,0-2.887-.335l-1.779.031-9.812.19-1.228.023-1.326.025-.382.007-.127,0-.177-.04c-.255-.061-.527-.1-.789-.188a4.36,4.36,0,0,1-2.7-1.588c-.455-.824.107-1.809.521-2.391a8.46,8.46,0,0,1,.748-.89c.811-.826,1.246-1.342,1.917-2.124" fill="#373735"/>
        <path id="Trazado_705495" data-name="Trazado 705495" d="M378.747,277.13a5.56,5.56,0,0,0-2.306,1.84,7.71,7.71,0,0,0-.677,1.086,5.347,5.347,0,0,0-.57,1.785,4.176,4.176,0,0,0,.04,1.225,3.864,3.864,0,0,0,.343,1,4.884,4.884,0,0,0,1.087,1.415,8.2,8.2,0,0,0,1.505,1.1,6.542,6.542,0,0,0,2.817.849c-.849-.592-1.42-.945-2.423-1.522a7.743,7.743,0,0,1-1.361-1,4.161,4.161,0,0,1-.924-1.192,3.093,3.093,0,0,1-.278-.8,3.374,3.374,0,0,1-.027-.984,4.667,4.667,0,0,1,.49-1.521,7.255,7.255,0,0,1,.608-.983l1.676-2.3" fill="#373735"/>
        <path id="Trazado_705496" data-name="Trazado 705496" d="M564.222,241.479a13.662,13.662,0,0,1,8.427,5.389c6.039,8.374,16.84,29.672,2.035,61.835-19.482,42.322-73.9,98.081-73.9,98.081S481.3,422.906,460.48,385.958,406.066,294.6,406.066,294.6l20.153-18.81,65.163,69.865,26.2-63.818s13.416-46.957,46.64-40.354" fill="#fff"/>
      </g>
    </g>
    <g id="Grupo_1000217" data-name="Grupo 1000217">
      <g id="Grupo_1000216" data-name="Grupo 1000216" clip-path="url(#clip-path-19)">
        <g id="Grupo_1000212" data-name="Grupo 1000212" opacity="0.2">
          <g id="Grupo_1000211" data-name="Grupo 1000211">
            <g id="Grupo_1000210" data-name="Grupo 1000210" clip-path="url(#clip-path-20)">
              <path id="Trazado_705497" data-name="Trazado 705497" d="M494.6,353.293a32.188,32.188,0,1,1-32.188-32.188A32.188,32.188,0,0,1,494.6,353.293" fill="#fa4e04"/>
            </g>
          </g>
        </g>
        <g id="Grupo_1000215" data-name="Grupo 1000215" opacity="0.2">
          <g id="Grupo_1000214" data-name="Grupo 1000214">
            <g id="Grupo_1000213" data-name="Grupo 1000213" clip-path="url(#clip-path-21)">
              <path id="Trazado_705498" data-name="Trazado 705498" d="M587.774,303.316a32.188,32.188,0,1,1-32.188-32.187,32.188,32.188,0,0,1,32.188,32.187" fill="#fa4e04"/>
            </g>
          </g>
        </g>
      </g>
    </g>
    <g id="Grupo_1000219" data-name="Grupo 1000219">
      <g id="Grupo_1000218" data-name="Grupo 1000218" clip-path="url(#clip-path-3)">
        <path id="Trazado_705500" data-name="Trazado 705500" d="M422.831,276.915a10.583,10.583,0,0,0,1.679,2.372l57.164,61.289,1.464,1.569c.61.656,1.466,1.573,2.659,2.853q.449.479.96,1.028c.171.184.347.373.53.568s.352.378.532.571l.285.3c.061-.111.117-.251.177-.377l1.753-3.849,26.709-58.63a10.56,10.56,0,0,0,.839-2.782,10.562,10.562,0,0,0-1.549,2.459L489.324,342.92l-1.443,3.167-1.513-1.622-2.66-2.852-1.464-1.569-57.163-61.289a10.569,10.569,0,0,0-2.25-1.84" fill="#373735"/>
        <path id="Trazado_705501" data-name="Trazado 705501" d="M406.066,294.6a10.536,10.536,0,0,0,1.119,2.682l31.8,54.313,23.408,39.974,2.219,3.79c.372.611.65,1.162,1.07,1.774.4.538.811,1.033,1.213,1.511a41.62,41.62,0,0,0,4.537,4.543,35.574,35.574,0,0,0,3.259,2.5c.778.536,1.213.787,1.213.787s.419.275,1.247.733a26.892,26.892,0,0,0,3.738,1.731,22.746,22.746,0,0,0,6.3,1.395,21.253,21.253,0,0,0,8.356-1.105,28.169,28.169,0,0,0,8.73-4.981l2.064-1.794,1.991-1.979c1.243-1.507,2.369-3.006,3.6-4.561l15.459-19.763c13.2-16.88,27.6-35.291,32.394-41.419a10.536,10.536,0,0,0,1.467-2.509,10.561,10.561,0,0,0-2.081,2.028l-32.4,41.416-15.458,19.764c-1.209,1.53-2.407,3.112-3.55,4.5l-1.958,1.946-2.023,1.759a27.391,27.391,0,0,1-8.489,4.849,20.482,20.482,0,0,1-8.049,1.066,22.013,22.013,0,0,1-6.083-1.347,26.051,26.051,0,0,1-3.631-1.682c-.807-.446-1.216-.715-1.216-.715s-.424-.244-1.184-.768a34.947,34.947,0,0,1-3.19-2.445,40.867,40.867,0,0,1-4.45-4.458c-.393-.466-.8-.954-1.181-1.47-.326-.469-.672-1.124-1.022-1.7l-2.219-3.79L439.66,351.194l-31.8-54.31a10.566,10.566,0,0,0-1.792-2.288" fill="#373735"/>
      </g>
    </g>
  </g>
</svg>
