<svg id="Grupo_1000241" data-name="Grupo 1000241" xmlns="http://www.w3.org/2000/svg" xmlns:xlink="http://www.w3.org/1999/xlink" width="436.914" height="457.642" viewBox="0 0 436.914 457.642">
  <defs>
    <clipPath id="clip-path">
      <rect id="Rectángulo_345564" data-name="Rectángulo 345564" width="436.914" height="457.642" fill="none"/>
    </clipPath>
    <clipPath id="clip-path-3">
      <rect id="Rectángulo_345555" data-name="Rectángulo 345555" width="17.452" height="37.169" transform="translate(208.196 312.067)" fill="none"/>
    </clipPath>
    <clipPath id="clip-path-4">
      <rect id="Rectángulo_345556" data-name="Rectángulo 345556" width="32.618" height="20.412" transform="translate(182.257 363.691)" fill="none"/>
    </clipPath>
    <clipPath id="clip-path-5">
      <rect id="Rectángulo_345560" data-name="Rectángulo 345560" width="12.046" height="31.53" transform="translate(278.524 155.084)" fill="none"/>
    </clipPath>
    <clipPath id="clip-path-6">
      <rect id="Rectángulo_345561" data-name="Rectángulo 345561" width="49.372" height="11.776" transform="translate(287.286 201.078)" fill="none"/>
    </clipPath>
    <clipPath id="clip-path-7">
      <rect id="Rectángulo_345562" data-name="Rectángulo 345562" width="3.062" height="3.104" transform="translate(59.653 422.856)" fill="none"/>
    </clipPath>
  </defs>
  <g id="Grupo_1000240" data-name="Grupo 1000240" clip-path="url(#clip-path)">
    <g id="Grupo_1000239" data-name="Grupo 1000239">
      <g id="Grupo_1000238" data-name="Grupo 1000238" clip-path="url(#clip-path)">
        <path id="Trazado_705502" data-name="Trazado 705502" d="M254.759,117.228l5.039-2.843a4.917,4.917,0,0,1,1.968-6.787,4.68,4.68,0,0,1,5.417.375,5.188,5.188,0,0,1,1.944,4.284c-.06,1.891-1.211,4.229-4.945,5.546l6.41,11.363,4.983-2.811L271.82,119.7a11.172,11.172,0,0,0,1.626-13.45c-4.157-7.37-11.731-5.353-14.56-3.758-2.163,1.22-9.237,5.9-4.127,14.737" fill="#f5f5f5"/>
        <rect id="Rectángulo_345550" data-name="Rectángulo 345550" width="5.806" height="5.423" transform="translate(271.898 131.515) rotate(-29.431)" fill="#f5f5f5"/>
        <path id="Trazado_705503" data-name="Trazado 705503" d="M376.546,134.339l1.585.607a1.441,1.441,0,0,1,1.9-.825,1.376,1.376,0,0,1,.929,1.295,1.523,1.523,0,0,1-.605,1.24,1.842,1.842,0,0,1-2.178-.08l-1.369,3.573,1.567.6.8-2.093a3.277,3.277,0,0,0,3.343-2.148,3.049,3.049,0,0,0-1.873-3.992,2.911,2.911,0,0,0-4.1,1.823" fill="#e0e0e0"/>
        <rect id="Rectángulo_345551" data-name="Rectángulo 345551" width="1.591" height="1.703" transform="translate(375.954 142.369) rotate(-69.043)" fill="#e0e0e0"/>
        <path id="Trazado_705504" data-name="Trazado 705504" d="M372.334,28.3l3.721,1.93a3.564,3.564,0,0,1,4.9-1.5,3.393,3.393,0,0,1,1.919,3.435,3.754,3.754,0,0,1-1.829,2.876c-1.171.714-3.045.942-5.324-.8l-4.352,8.391,3.68,1.909,2.55-4.915a8.1,8.1,0,0,0,8.8-4.345c2.823-5.442-1.4-9.237-3.491-10.321-1.6-.828-7.24-3.265-10.575,3.337" fill="#e0e0e0"/>
        <rect id="Rectángulo_345552" data-name="Rectángulo 345552" width="3.929" height="4.207" transform="translate(368.65 47.846) rotate(-62.589)" fill="#e0e0e0"/>
        <path id="Trazado_705505" data-name="Trazado 705505" d="M369.846,432.07c-1.445-1.239-4.668-5.164-2.182-9.731.911-1.674,2.846-2.5,4.6-3.24a18.657,18.657,0,0,0,5.042-2.611c2.733-2.326,3.487-6.189,5.3-9.292,2.083-3.561,5.971-6.23,10.079-6.043,4.7.214,8.627,4.056,10.406,8.437s1.84,9.244,1.877,13.975c.02,2.616-.1,5.565-2.017,7.331-1.77,1.629-4.436,1.649-6.836,1.575l-25.707-.789" fill="#f5f5f5"/>
        <path id="Trazado_705506" data-name="Trazado 705506" d="M419.014,361.38H351.408l12.178,72.615a8.109,8.109,0,0,0,5.772,6.465c.078.025.158.042.237.065.2.051.395.119.6.155a8.3,8.3,0,0,0,1.375.158c0,.023.007.047.011.07l.329-.052h30.133a8.525,8.525,0,0,0,1.656-.165,8.141,8.141,0,0,0,6.839-7.1l5.871-50.034.265-1.989h-.032l2.325-19.814ZM406.26,407.7h-6.938l.7-21.075h8.038Zm2.474-21.075h6.642L412.9,407.7h-5.97Zm-19.821,44.437-.422-18.308h9.991l-.608,18.308Zm-10.8-18.308h9.708l.421,18.308h-8.706Zm.75,18.308h-8.139c-.774-4.943-1.78-11.367-2.87-18.308h9.586ZM377.719,407.7l-1.638-21.075h11.137L387.7,407.7Zm10.656,0-.486-21.075H399.35l-.7,21.075Zm-.6-26.129-.45-19.517h12.843l-.648,19.517Zm-.671,0H375.688l-1.516-19.517h12.48Zm-12.086,0H362.94c-.427-2.7-.833-5.247-1.2-7.543-1.26-7.89-1.734-10.857-2-11.974H373.5Zm.392,5.054,1.638,21.075H367.06c-.336-2.139-.676-4.3-1.017-6.467-.782-4.974-1.566-9.948-2.3-14.608ZM366.381,407.7h-6.524l-3.535-21.075h6.738c1.03,6.513,2.172,13.762,3.321,21.075m.793,5.054c.995,6.335,1.973,12.582,2.869,18.308h-6.268L360.7,412.754Zm31.372,18.308.608-18.308h6.674l-1.564,18.308Zm1.644-49.491.648-19.517h9.322l-1.668,19.517Zm-41.085-19.517c.268,1.411,1.5,9.091,3.155,19.517h-6.786L352.2,362.054Zm51.057,69.008h-5.225l1.564-18.308h5.809Zm5.807-49.491h-6.8l1.667-19.517h7.426Z" fill="#e0e0e0"/>
        <rect id="Rectángulo_345553" data-name="Rectángulo 345553" width="48.653" height="12.871" transform="translate(195.06 247.149)" fill="#ebebeb"/>
        <path id="Trazado_705507" data-name="Trazado 705507" d="M223.14,273.577a1.555,1.555,0,0,1-.015-.234c0-.172-.009-.389-.016-.66q-.013-.909-.036-2.533c-.02-2.222-.048-5.416-.084-9.444l.151.151-48.65.1c.11-.111-.25.247.245-.248V264q0,1.637,0,3.248,0,3.222,0,6.331l-.243-.243,34.672.111,10.234.069,2.767.032.724.015a1.739,1.739,0,0,1,.256.016,1.192,1.192,0,0,1-.225.016l-.694.015-2.715.032-10.178.069-34.841.11h-.242v-.243q0-3.105,0-6.331,0-1.611,0-3.248,0-.817,0-1.642v-1.65c.5-.5.14-.137.251-.248l48.65.1h.152v.151c-.036,4.066-.064,7.29-.084,9.534q-.022,1.6-.036,2.5c-.007.26-.012.468-.016.633a.952.952,0,0,1-.015.2" fill="#e0e0e0"/>
        <rect id="Rectángulo_345554" data-name="Rectángulo 345554" width="48.653" height="12.871" transform="translate(21.247 368.165)" fill="#ebebeb"/>
        <path id="Trazado_705508" data-name="Trazado 705508" d="M49.327,394.593a1.554,1.554,0,0,1-.015-.234c0-.172-.009-.389-.016-.66q-.014-.909-.036-2.533c-.02-2.222-.048-5.416-.084-9.444l.151.151-48.65.1c.11-.111-.25.247.245-.248v3.292q0,1.637,0,3.248,0,3.222,0,6.331l-.243-.243,34.672.111,10.234.069,2.767.032.724.015a1.744,1.744,0,0,1,.256.016,1.193,1.193,0,0,1-.225.016l-.694.015-2.715.032-10.178.069-34.841.11H.432v-.243q0-3.1,0-6.331,0-1.611,0-3.248,0-.818,0-1.642v-1.65c.5-.5.14-.137.251-.248l48.65.1h.152v.151c-.036,4.066-.064,7.29-.084,9.534q-.022,1.6-.036,2.5c-.007.26-.012.468-.016.633a.952.952,0,0,1-.015.2" fill="#e0e0e0"/>
        <path id="Trazado_705509" data-name="Trazado 705509" d="M410.115,313.408a1.556,1.556,0,0,1-.015-.234c0-.172-.009-.389-.016-.66q-.014-.909-.036-2.533c-.02-2.222-.048-5.416-.084-9.444l.151.151-48.65.1c.11-.11-.25.247.245-.248v3.292q0,1.637,0,3.248,0,3.222,0,6.331l-.243-.242,34.672.11,10.234.069,2.767.032.724.015a1.94,1.94,0,0,1,.256.016,1.193,1.193,0,0,1-.225.016l-.694.015-2.715.032-10.178.069-34.841.111h-.242v-.243q0-3.1,0-6.331,0-1.611,0-3.248,0-.818,0-1.642v-1.65c.5-.5.14-.137.251-.248l48.65.1h.152v.15c-.036,4.066-.064,7.291-.084,9.534q-.023,1.6-.036,2.5c-.007.26-.012.468-.016.634a.945.945,0,0,1-.015.2" fill="#e0e0e0"/>
        <path id="Trazado_705510" data-name="Trazado 705510" d="M416.712,300.537a1.489,1.489,0,0,1-.019-.245c-.005-.185-.011-.409-.019-.681q-.017-.951-.044-2.582c-.023-2.257-.056-5.444-.1-9.362l.178.177-29.23.071c-.223.22.3-.3.246-.248v3.353q0,1.659,0,3.276c0,2.153-.006,4.241-.009,6.241l-.236-.236,20.911.112,6.091.066,1.643.029a5,5,0,0,1,.587.029,3.115,3.115,0,0,1-.531.029l-1.593.03-6.038.065c-5.246.028-12.567.068-21.07.112l-.236,0v-.238c0-2-.006-4.088-.009-6.241q0-1.615,0-3.276c0-.553,0-1.11,0-1.668v-1.685c-.055.054.47-.47.25-.248l29.23.069h.18l0,.179c-.04,3.965-.073,7.188-.1,9.472q-.027,1.6-.044,2.539a7.565,7.565,0,0,1-.038.859" fill="#e0e0e0"/>
        <path id="Trazado_705511" data-name="Trazado 705511" d="M418.294,177.267a1.554,1.554,0,0,1-.015-.234c0-.172-.009-.389-.016-.66q-.014-.909-.036-2.533c-.02-2.222-.048-5.416-.084-9.444l.151.151-48.65.1c.11-.11-.25.247.245-.248v3.292q0,1.637,0,3.248,0,3.222,0,6.331l-.243-.242,34.672.11,10.234.069,2.767.032.724.015a1.931,1.931,0,0,1,.256.016,1.194,1.194,0,0,1-.225.016l-.694.015-2.715.032-10.178.069-34.841.11H369.4v-.243q0-3.1,0-6.331,0-1.611,0-3.248V164.4c.5-.5.14-.137.251-.248l48.65.1h.152v.151c-.036,4.066-.064,7.291-.083,9.534q-.024,1.6-.037,2.5c-.007.26-.012.468-.016.634a.947.947,0,0,1-.015.2" fill="#e0e0e0"/>
        <path id="Trazado_705512" data-name="Trazado 705512" d="M424.891,164.4a1.508,1.508,0,0,1-.019-.245c-.005-.185-.011-.409-.019-.682q-.016-.949-.044-2.581c-.023-2.256-.056-5.444-.1-9.363l.178.178-29.23.07c-.223.221.3-.3.246-.247v3.353q0,1.659,0,3.276c0,2.153-.005,4.241-.008,6.241l-.236-.236,20.911.112,6.091.065,1.643.03a4.994,4.994,0,0,1,.587.029,3.425,3.425,0,0,1-.531.029l-1.593.03-6.038.065-21.07.112h-.236V164.4c0-2-.006-4.088-.009-6.241q0-1.615,0-3.276,0-.829,0-1.669v-1.684c-.055.053.47-.47.25-.249l29.23.07h.18l0,.178c-.04,3.965-.073,7.189-.1,9.472q-.027,1.6-.044,2.54a7.569,7.569,0,0,1-.038.859" fill="#e0e0e0"/>
        <path id="Trazado_705513" data-name="Trazado 705513" d="M58.464,239.186a1.555,1.555,0,0,1-.015-.234c0-.172-.009-.389-.016-.66q-.013-.909-.036-2.533c-.02-2.222-.048-5.416-.084-9.444l.151.151-48.65.1c.11-.111-.25.247.245-.248v3.292q0,1.637,0,3.248,0,3.222,0,6.331l-.243-.243,34.672.111,10.234.069,2.767.032.724.015a1.737,1.737,0,0,1,.256.016,1.2,1.2,0,0,1-.225.016l-.694.015-2.715.032-10.178.069-34.841.11H9.569v-.243q0-3.105,0-6.331,0-1.611,0-3.248v-3.292c.5-.5.14-.137.251-.248l48.65.1h.152v.15c-.036,4.066-.064,7.291-.083,9.534q-.024,1.6-.037,2.5c-.007.26-.012.468-.016.634a.947.947,0,0,1-.015.2" fill="#e0e0e0"/>
        <path id="Trazado_705514" data-name="Trazado 705514" d="M65.06,226.315a1.506,1.506,0,0,1-.019-.245c0-.185-.011-.409-.019-.682q-.017-.949-.044-2.581c-.023-2.257-.056-5.444-.1-9.363l.178.178-29.23.07c-.223.221.3-.3.246-.247V216.8q0,1.659,0,3.276c0,2.153,0,4.241-.008,6.241l-.236-.236,20.911.112,6.091.065,1.643.03a4.971,4.971,0,0,1,.587.029,3.427,3.427,0,0,1-.531.029l-1.593.03-6.038.065-21.07.112h-.236v-.237c0-2-.006-4.088-.009-6.241q0-1.616,0-3.276v-3.353c-.055.053.47-.47.25-.249l29.23.07h.18l0,.178c-.04,3.965-.073,7.189-.1,9.472q-.028,1.6-.044,2.54a7.583,7.583,0,0,1-.038.859" fill="#e0e0e0"/>
        <path id="Trazado_705515" data-name="Trazado 705515" d="M237.6,143.876a1.553,1.553,0,0,1-.015-.234c0-.172-.009-.389-.016-.66q-.014-.909-.036-2.533c-.02-2.222-.048-5.416-.084-9.444l.151.151-48.65.1c.11-.11-.25.247.245-.248V134.3q0,1.637,0,3.248,0,3.222,0,6.331l-.243-.242,34.672.11,10.234.069,2.767.032.724.015a1.929,1.929,0,0,1,.256.016,1.2,1.2,0,0,1-.225.016l-.694.015-2.715.032-10.178.069-34.841.111h-.242v-.243q0-3.105,0-6.331,0-1.611,0-3.248v-3.292c.5-.5.14-.137.251-.248l48.65.1h.152v.15c-.036,4.066-.064,7.291-.083,9.534q-.024,1.6-.037,2.5c-.007.26-.012.468-.016.634a.948.948,0,0,1-.015.2" fill="#e0e0e0"/>
        <path id="Trazado_705516" data-name="Trazado 705516" d="M158.315,16.98a1.553,1.553,0,0,1-.015-.234c0-.172-.009-.389-.016-.66q-.014-.909-.036-2.533c-.02-2.222-.048-5.416-.084-9.444l.151.151-48.65.1c.11-.11-.25.247.245-.248V7.4q0,1.636,0,3.248,0,3.222,0,6.331l-.243-.242,34.672.11,10.234.069,2.767.032.724.015a1.931,1.931,0,0,1,.256.016,1.194,1.194,0,0,1-.225.016l-.694.015-2.715.032-10.178.069-34.841.111h-.242V16.98q0-3.1,0-6.331,0-1.611,0-3.248V4.109c.5-.5.14-.137.251-.248l48.65.1h.152v.15c-.036,4.066-.064,7.291-.083,9.534q-.024,1.6-.037,2.5c-.007.26-.012.468-.016.634a.946.946,0,0,1-.015.2" fill="#e0e0e0"/>
        <path id="Trazado_705517" data-name="Trazado 705517" d="M436.762,66.519a1.461,1.461,0,0,1-.016-.234c0-.172-.009-.389-.016-.66q-.014-.909-.036-2.533c-.02-2.222-.048-5.416-.083-9.444l.151.151-48.651.1c.11-.11-.25.247.246-.248V56.94q0,1.636,0,3.248,0,3.222,0,6.331l-.244-.242,34.672.11,10.234.069,2.767.032.724.015a1.96,1.96,0,0,1,.257.016,1.228,1.228,0,0,1-.226.016l-.694.015-2.714.032-10.179.069-34.841.11h-.242v-.243q0-3.1,0-6.331,0-1.611,0-3.248V53.648c.5-.5.139-.137.25-.248l48.651.1h.151v.151c-.036,4.066-.064,7.291-.083,9.534q-.024,1.6-.037,2.5c-.007.26-.012.468-.016.634a1.124,1.124,0,0,1-.014.2" fill="#e0e0e0"/>
        <path id="Trazado_705518" data-name="Trazado 705518" d="M429.254,440.632c0,.144-95.288.26-212.8.26-117.557,0-212.825-.116-212.825-.26s95.268-.26,212.825-.26c117.517,0,212.8.116,212.8.26" fill="#263238"/>
        <path id="Trazado_705519" data-name="Trazado 705519" d="M222.333,412.717s-4.084-28.079-3.744-44.417-.02-34.717-.02-34.717h1.882s-1.275,32.428.112,51.987c1.387,19.542,5.039,27.147,5.039,27.147Z" fill="#263238"/>
        <path id="Trazado_705520" data-name="Trazado 705520" d="M234.5,301.989a4.973,4.973,0,0,0-1.716-2.511c-1.194-.756-2.759-.442-4.092.03-5.686,2.011-10.727,12.613-13.026,18.19l7.55,25.438c13.627-12.642,15.986-29.226,11.284-41.147" fill="#455a64"/>
        <path id="Trazado_705521" data-name="Trazado 705521" d="M232.343,300.508a1.446,1.446,0,0,1-.11.332l-.369.927c-.331.8-.8,1.964-1.35,3.409-1.113,2.889-2.529,6.928-3.8,11.477s-2.129,8.744-2.665,11.793c-.269,1.524-.472,2.761-.6,3.617-.066.4-.119.726-.162.985a1.433,1.433,0,0,1-.077.34,1.528,1.528,0,0,1,.015-.348c.027-.261.062-.59.1-.993.093-.863.262-2.106.5-3.638a108.108,108.108,0,0,1,6.472-23.313c.582-1.438,1.078-2.591,1.444-3.377l.423-.9a1.463,1.463,0,0,1,.167-.307" fill="#263238"/>
        <path id="Trazado_705522" data-name="Trazado 705522" d="M219.86,349.236a23.034,23.034,0,0,1-11.636-19.342c-.272-5.645,1.462-11.184,3.427-16.483a2.125,2.125,0,0,1,.8-1.2,2.027,2.027,0,0,1,1.929.3c5.142,2.928,8.257,8.511,9.915,14.191a28.646,28.646,0,0,1,1.164,11.669,19.388,19.388,0,0,1-5.6,10.861" fill="#455a64"/>
        <path id="Trazado_705523" data-name="Trazado 705523" d="M219.86,349.236a1.408,1.408,0,0,1-.028-.341c-.005-.258-.011-.581-.018-.977,0-.847-.037-2.073-.106-3.586a98.259,98.259,0,0,0-1.314-11.751c-.785-4.557-1.738-8.636-2.44-11.585-.346-1.443-.629-2.626-.837-3.492-.088-.386-.161-.7-.218-.953a1.319,1.319,0,0,1-.055-.337,1.432,1.432,0,0,1,.116.321c.072.248.163.558.274.938.233.816.554,2,.934,3.469.757,2.938,1.745,7.017,2.533,11.587a85.891,85.891,0,0,1,1.226,11.8c.042,1.518.042,2.747.008,3.6-.016.4-.03.719-.04.977a1.431,1.431,0,0,1-.035.34" fill="#263238"/>
        <g id="Grupo_1000225" data-name="Grupo 1000225" opacity="0.3">
          <g id="Grupo_1000224" data-name="Grupo 1000224">
            <g id="Grupo_1000223" data-name="Grupo 1000223" clip-path="url(#clip-path-3)">
              <path id="Trazado_705524" data-name="Trazado 705524" d="M219.86,349.236a23.034,23.034,0,0,1-11.636-19.342c-.272-5.645,1.462-11.184,3.427-16.483a2.125,2.125,0,0,1,.8-1.2,2.027,2.027,0,0,1,1.929.3c5.142,2.928,8.257,8.511,9.915,14.191a28.646,28.646,0,0,1,1.164,11.669,19.388,19.388,0,0,1-5.6,10.861"/>
            </g>
          </g>
        </g>
        <path id="Trazado_705525" data-name="Trazado 705525" d="M227.844,392.2c6.965,1.53,12.7,6.443,19.418,8.831,4.446,1.58,9.473,2.14,13.022,5.248-.851-2.15-2.87-3.582-4.832-4.808a86.64,86.64,0,0,0-17.6-8.4c-3.161-1.091-6.591-2-9.812-1.105" fill="#455a64"/>
        <path id="Trazado_705526" data-name="Trazado 705526" d="M217.774,398.4c-8.722-.141-17.906-7.567-26.588-8.01,9.086-2.933,22.1-.537,26.588,8.01" fill="#455a64"/>
        <path id="Trazado_705527" data-name="Trazado 705527" d="M221.182,377.481a28.4,28.4,0,0,1,13.944-.949,84.8,84.8,0,0,1,13.613,3.7c-.447-3.026-2.9-5.3-5.2-7.316a36.3,36.3,0,0,0-5.466-4.2,12.19,12.19,0,0,0-6.555-1.849,10.366,10.366,0,0,0-7.236,3.647,12.017,12.017,0,0,0-3.1,6.969" fill="#455a64"/>
        <path id="Trazado_705528" data-name="Trazado 705528" d="M203.281,367.851c-5.491-4.688-13.807-4.229-21.024-4.067A171.325,171.325,0,0,1,214.863,384.1c.293-5.1-4.646-10.331-11.582-16.252" fill="#455a64"/>
        <g id="Grupo_1000228" data-name="Grupo 1000228" opacity="0.3">
          <g id="Grupo_1000227" data-name="Grupo 1000227">
            <g id="Grupo_1000226" data-name="Grupo 1000226" clip-path="url(#clip-path-4)">
              <path id="Trazado_705529" data-name="Trazado 705529" d="M203.281,367.851c-5.491-4.688-13.807-4.229-21.024-4.067A171.325,171.325,0,0,1,214.863,384.1c.293-5.1-4.646-10.331-11.582-16.252"/>
            </g>
          </g>
        </g>
        <path id="Trazado_705530" data-name="Trazado 705530" d="M223.652,361.38a61.069,61.069,0,0,1,8.444-4.908c2.89-1.313,5.586-3.4,8.377-4.916,3.618-1.96,6.754-4.684,10.076-7.113s6.971-4.623,11.036-5.266a21.709,21.709,0,0,0-10.043.58,64.885,64.885,0,0,0-9.453,3.678c-4.284,1.929-8.64,3.906-12.142,7.039s-6.666,6.223-6.3,10.906" fill="#455a64"/>
        <path id="Trazado_705531" data-name="Trazado 705531" d="M247.1,398.4a1.129,1.129,0,0,1-.276-.119l-.761-.395c-.657-.349-1.6-.867-2.788-1.464-.587-.31-1.239-.634-1.946-.966s-1.459-.69-2.265-1.038a33.177,33.177,0,0,0-5.37-1.872,11.542,11.542,0,0,0-5.6-.141,16,16,0,0,0-2.371.708,12.248,12.248,0,0,0-4.318,2.969c-.5.541-.751.873-.774.856a1.174,1.174,0,0,1,.157-.257,8.085,8.085,0,0,1,.527-.68,11.273,11.273,0,0,1,2.375-2.09,11.8,11.8,0,0,1,1.935-1.036,15.782,15.782,0,0,1,2.4-.749,11.642,11.642,0,0,1,5.732.117,31.879,31.879,0,0,1,5.414,1.912c.807.357,1.566.71,2.263,1.069.7.343,1.353.68,1.935,1,1.178.624,2.106,1.172,2.745,1.554l.733.445a1.113,1.113,0,0,1,.245.174" fill="#263238"/>
        <path id="Trazado_705532" data-name="Trazado 705532" d="M211.268,394.082a1.97,1.97,0,0,1,.546.16,12.057,12.057,0,0,1,1.421.618,17.256,17.256,0,0,1,7.288,7,12.3,12.3,0,0,1,.674,1.4,1.965,1.965,0,0,1,.181.54c-.05.022-.375-.717-1.046-1.825a19.311,19.311,0,0,0-7.2-6.917c-1.134-.625-1.885-.921-1.865-.972" fill="#263238"/>
        <path id="Trazado_705533" data-name="Trazado 705533" d="M191.97,367.413a1.823,1.823,0,0,1,.372.11l1.046.372,1.651.609c.643.239,1.342.592,2.132.94a50.389,50.389,0,0,1,11.355,7.235,55.5,55.5,0,0,1,5.3,5.214,58.645,58.645,0,0,1,3.758,4.762c1,1.411,1.751,2.586,2.268,3.4l.6.935a1.964,1.964,0,0,1,.194.337,1.768,1.768,0,0,1-.245-.3c-.153-.2-.374-.507-.646-.9-.549-.793-1.331-1.948-2.347-3.337s-2.29-2.995-3.794-4.7a58.009,58.009,0,0,0-5.282-5.168,53.155,53.155,0,0,0-11.248-7.273c-.781-.359-1.47-.725-2.1-.978l-1.627-.656-1.024-.427a1.818,1.818,0,0,1-.351-.169" fill="#263238"/>
        <path id="Trazado_705534" data-name="Trazado 705534" d="M234.27,372.578a3.007,3.007,0,0,1-.7-.09l-.8-.147c-.311-.061-.675-.062-1.071-.1a10.97,10.97,0,0,0-6,1.182,10.824,10.824,0,0,0-2.727,2.025,12.322,12.322,0,0,0-1.754,2.168,18.135,18.135,0,0,0-1.2,2.288,2.538,2.538,0,0,1,.178-.68,9.721,9.721,0,0,1,.834-1.725,11.63,11.63,0,0,1,1.737-2.253,10.61,10.61,0,0,1,8.945-3.224c.4.055.769.073,1.081.15l.8.2a3.067,3.067,0,0,1,.67.208" fill="#263238"/>
        <path id="Trazado_705535" data-name="Trazado 705535" d="M243.036,345.384a1.793,1.793,0,0,1-.33.2l-.973.529c-.846.456-2.064,1.129-3.543,2s-3.208,1.968-5.053,3.288a42.276,42.276,0,0,0-5.642,4.726,14.344,14.344,0,0,0-2.307,2.988c-.571,1.1-1.118,2.157-1.62,3.175a57.511,57.511,0,0,0-2.423,5.517,33.567,33.567,0,0,0-1.179,3.884c-.223.934-.3,1.46-.334,1.455a1.737,1.737,0,0,1,.034-.385c.032-.252.085-.623.182-1.1a28.752,28.752,0,0,1,1.09-3.933,53.018,53.018,0,0,1,2.373-5.569c.5-1.025,1.038-2.09,1.606-3.19a14.441,14.441,0,0,1,2.355-3.063,40.805,40.805,0,0,1,5.7-4.744c1.863-1.313,3.617-2.382,5.108-3.244s2.734-1.494,3.6-1.918l1-.477a1.745,1.745,0,0,1,.358-.147" fill="#263238"/>
        <path id="Trazado_705536" data-name="Trazado 705536" d="M218.578,371.793a3.533,3.533,0,0,1-.173-.735c-.1-.538-.23-1.213-.381-2.015a51.592,51.592,0,0,0-4.141-12.82c-.338-.744-.623-1.369-.85-1.868a3.559,3.559,0,0,1-.28-.7,3.538,3.538,0,0,1,.388.648c.232.426.557,1.048.941,1.827A43.044,43.044,0,0,1,218.24,369c.137.857.235,1.553.285,2.036a3.563,3.563,0,0,1,.053.753" fill="#263238"/>
        <path id="Trazado_705537" data-name="Trazado 705537" d="M217.947,351.949a23.674,23.674,0,0,0-2.836-9.417,31.085,31.085,0,0,0-21.07-15.711l19.506,29.072,2.519,5.189a14.909,14.909,0,0,0,1.881-9.133" fill="#455a64"/>
        <rect id="Rectángulo_345557" data-name="Rectángulo 345557" width="45.357" height="8.039" transform="translate(200.57 409.244)" fill="#ff725e"/>
        <path id="Trazado_705538" data-name="Trazado 705538" d="M203.958,415.688l3.862,24.944h30.111l4.609-24.944Z" fill="#ff725e"/>
        <path id="Trazado_705539" data-name="Trazado 705539" d="M245.9,417.293c0,.088-10.231.16-22.848.16s-22.851-.072-22.851-.16,10.229-.159,22.851-.159,22.848.071,22.848.159" fill="#263238"/>
        <path id="Trazado_705540" data-name="Trazado 705540" d="M289.586,51.408A31.582,31.582,0,1,1,258,19.826a31.582,31.582,0,0,1,31.582,31.582" fill="#fff"/>
        <path id="Trazado_705541" data-name="Trazado 705541" d="M289.586,51.408s-.027-.173-.053-.511c-.024-.359-.058-.857-.1-1.5q-.03-.5-.068-1.1c-.044-.4-.131-.841-.2-1.318a23.009,23.009,0,0,0-.661-3.255,30.134,30.134,0,0,0-3.5-8.367,31.547,31.547,0,0,0-21.2-14.757,29.251,29.251,0,0,0-3.966-.457c-.676-.023-1.358-.089-2.044-.078l-2.075.108c-.348.024-.7.022-1.047.068l-1.046.161c-.7.116-1.407.2-2.109.344a34.261,34.261,0,0,0-8.265,3.025c-.662.359-1.3.777-1.951,1.166a15.963,15.963,0,0,0-1.891,1.3,35.3,35.3,0,0,0-3.554,3.021,35.577,35.577,0,0,0-3.069,3.632,30.345,30.345,0,0,0-4.478,8.63,33.468,33.468,0,0,0-1.616,9.882,33.488,33.488,0,0,0,1.614,9.886,30.362,30.362,0,0,0,4.478,8.633,35.6,35.6,0,0,0,3.07,3.633,35.068,35.068,0,0,0,3.554,3.022,15.973,15.973,0,0,0,1.891,1.3c.655.389,1.289.807,1.951,1.166a32.736,32.736,0,0,0,4.088,1.8,33.08,33.08,0,0,0,4.179,1.228c.7.145,1.411.227,2.109.343l1.046.161c.348.046.7.044,1.047.068l2.075.108c.687.011,1.368-.055,2.044-.078a29.233,29.233,0,0,0,3.966-.457A31.546,31.546,0,0,0,285,67.46a30.128,30.128,0,0,0,3.5-8.367,22.981,22.981,0,0,0,.661-3.255c.072-.476.159-.914.2-1.318q.037-.606.068-1.1c.043-.642.077-1.139.1-1.5.026-.338.053-.511.053-.511s.009.173,0,.512c-.012.36-.029.86-.05,1.5q-.02.5-.044,1.109c-.035.406-.114.847-.178,1.327a22.574,22.574,0,0,1-.618,3.283,29.946,29.946,0,0,1-3.449,8.466,31.755,31.755,0,0,1-21.374,15.033,29.376,29.376,0,0,1-4.02.478c-.685.026-1.377.094-2.073.085l-2.105-.1c-.353-.024-.71-.021-1.063-.067l-1.061-.16c-.709-.115-1.429-.2-2.142-.343a33.674,33.674,0,0,1-4.246-1.236,33.069,33.069,0,0,1-4.155-1.818c-.672-.363-1.318-.786-1.984-1.18a16.352,16.352,0,0,1-1.923-1.321,35.811,35.811,0,0,1-3.615-3.065,35.925,35.925,0,0,1-3.124-3.688,30.783,30.783,0,0,1-4.558-8.771,33.962,33.962,0,0,1-1.644-10.05,33.9,33.9,0,0,1,1.646-10.046,30.8,30.8,0,0,1,4.558-8.768,35.794,35.794,0,0,1,3.124-3.686,35.671,35.671,0,0,1,3.614-3.065,16.344,16.344,0,0,1,1.923-1.32c.666-.394,1.311-.817,1.984-1.181a33.133,33.133,0,0,1,4.154-1.817,33.626,33.626,0,0,1,4.246-1.236c.712-.146,1.432-.228,2.141-.343l1.061-.16c.353-.046.71-.043,1.063-.067l2.1-.1c.7-.009,1.387.059,2.073.085a29.537,29.537,0,0,1,4.019.477,31.761,31.761,0,0,1,21.375,15.033,29.906,29.906,0,0,1,3.449,8.466,22.429,22.429,0,0,1,.618,3.284c.065.479.144.92.179,1.327q.024.609.044,1.109c.021.644.038,1.144.05,1.5.008.339,0,.512,0,.512" fill="#263238"/>
        <path id="Trazado_705542" data-name="Trazado 705542" d="M295.521,74.2a3.435,3.435,0,1,1-3.436-3.435,3.436,3.436,0,0,1,3.436,3.435" fill="#fff"/>
        <path id="Trazado_705543" data-name="Trazado 705543" d="M295.521,74.2c-.047,0-.052-.306-.207-.814a3.428,3.428,0,0,0-1.262-1.77A3.262,3.262,0,0,0,291,71.2a3.212,3.212,0,1,0,3.055,5.583,3.426,3.426,0,0,0,1.262-1.769c.155-.508.16-.815.207-.814a1.64,1.64,0,0,1-.009.863,3.429,3.429,0,0,1-1.237,2.013,3.6,3.6,0,0,1-3.44.575,3.658,3.658,0,0,1,0-6.9,3.6,3.6,0,0,1,3.44.575,3.426,3.426,0,0,1,1.237,2.013,1.64,1.64,0,0,1,.009.863" fill="#263238"/>
        <path id="Trazado_705544" data-name="Trazado 705544" d="M258,61.392H245.992a1.245,1.245,0,0,1-1.078-1.867l6.006-10.4,6.006-10.4a1.245,1.245,0,0,1,2.157,0l6.005,10.4,6.006,10.4a1.245,1.245,0,0,1-1.078,1.867Z" fill="#ff725e"/>
        <path id="Trazado_705545" data-name="Trazado 705545" d="M351.029,25.877a20.05,20.05,0,1,1-10.575-23.71,20.055,20.055,0,0,1,10.575,23.71" fill="#fff"/>
        <path id="Trazado_705546" data-name="Trazado 705546" d="M350.507,27.419a1.843,1.843,0,0,1,.079-.317c.069-.227.159-.529.275-.913q.093-.3.207-.669c.065-.25.112-.529.176-.828a14.505,14.505,0,0,0,.342-2.079,19.137,19.137,0,0,0-.186-5.747A19.87,19.87,0,0,0,332.141.427a18.262,18.262,0,0,0-5.653.728,22.5,22.5,0,0,0-2.785.982,22.482,22.482,0,0,0-2.636,1.453,19.189,19.189,0,0,0-4.6,4.087,21.227,21.227,0,0,0-3.193,5.475,21.22,21.22,0,0,0-1.284,6.209,19.182,19.182,0,0,0,.691,6.116,22.257,22.257,0,0,0,.991,2.843,22.369,22.369,0,0,0,1.416,2.592,20.622,20.622,0,0,0,1.711,2.33,20.582,20.582,0,0,0,2.008,1.989,19.924,19.924,0,0,0,25.315.636,19.148,19.148,0,0,0,3.977-4.152,14.6,14.6,0,0,0,1.135-1.775c.151-.265.3-.5.421-.733l.294-.637.4-.862a1.772,1.772,0,0,1,.153-.289,1.749,1.749,0,0,1-.11.306l-.366.883q-.125.294-.275.649c-.113.234-.259.477-.406.748a14.136,14.136,0,0,1-1.108,1.81,18.977,18.977,0,0,1-3.965,4.248,20.185,20.185,0,0,1-16.114,4.08,20.267,20.267,0,0,1-9.626-4.6,20.877,20.877,0,0,1-2.056-2.025,21.119,21.119,0,0,1-1.754-2.376,22.644,22.644,0,0,1-1.451-2.646,22.761,22.761,0,0,1-1.019-2.9,19.642,19.642,0,0,1-.713-6.252,21.625,21.625,0,0,1,1.312-6.349,21.6,21.6,0,0,1,3.266-5.6A19.615,19.615,0,0,1,320.83,3.22a22.86,22.86,0,0,1,2.7-1.479,22.8,22.8,0,0,1,2.846-1,18.6,18.6,0,0,1,5.775-.729,20.256,20.256,0,0,1,10.235,3.009,20.19,20.19,0,0,1,9.264,13.8,18.979,18.979,0,0,1,.112,5.81,14.147,14.147,0,0,1-.385,2.088c-.072.3-.126.578-.2.827l-.229.667c-.134.379-.239.678-.318.9a1.676,1.676,0,0,1-.122.3" fill="#263238"/>
        <path id="Trazado_705547" data-name="Trazado 705547" d="M335.284,50.673a3.386,3.386,0,1,1-1.9-3.876,3.387,3.387,0,0,1,1.9,3.876" fill="#fff"/>
        <path id="Trazado_705548" data-name="Trazado 705548" d="M335.153,51.093c-.039-.013.068-.3.11-.82a3.381,3.381,0,0,0-.531-2.088,3.208,3.208,0,0,0-5.691.566,3.208,3.208,0,0,0,3.857,4.224,3.382,3.382,0,0,0,1.789-1.2c.319-.418.428-.7.466-.684a1.731,1.731,0,0,1-.323.784,3.373,3.373,0,0,1-1.843,1.4,3.528,3.528,0,0,1-3.344-.685,3.577,3.577,0,0,1,2.413-6.3A3.528,3.528,0,0,1,335,48.019a3.37,3.37,0,0,1,.434,2.275,1.717,1.717,0,0,1-.283.8" fill="#263238"/>
        <path id="Trazado_705549" data-name="Trazado 705549" d="M326.412,16.883h2.869a2.438,2.438,0,0,1,2.5-2.452,2.32,2.32,0,0,1,2.248,1.482,2.57,2.57,0,0,1-.2,2.323c-.487.8-1.553,1.532-3.487,1.191V25.9h2.837v-3.79a5.539,5.539,0,0,0,3.979-5.413c0-4.2-3.762-5.17-5.373-5.17-1.232,0-5.427.3-5.373,5.359" fill="#263238"/>
        <rect id="Rectángulo_345558" data-name="Rectángulo 345558" width="2.879" height="2.689" transform="translate(330.335 27.229)" fill="#263238"/>
        <path id="Trazado_705550" data-name="Trazado 705550" d="M400.5,106.135a15.064,15.064,0,1,1,14.323-13.24,15.066,15.066,0,0,1-14.323,13.24" fill="#fff"/>
        <path id="Trazado_705551" data-name="Trazado 705551" d="M399.275,106.135a1.35,1.35,0,0,1,.245-.02l.714-.025.528-.014c.192-.013.4-.048.63-.074a10.847,10.847,0,0,0,1.562-.258A14.338,14.338,0,0,0,407,104.227a14.931,14.931,0,0,0,7.056-17.668,13.75,13.75,0,0,0-1.881-3.847,16.846,16.846,0,0,0-1.369-1.745,17.09,17.09,0,0,0-1.67-1.526,14.435,14.435,0,0,0-4.017-2.288,14.776,14.776,0,0,0-9.394-.37,14.471,14.471,0,0,0-4.186,1.966,17,17,0,0,0-1.784,1.391,16.833,16.833,0,0,0-1.5,1.632,13.715,13.715,0,0,0-2.177,3.688,14.967,14.967,0,0,0,5.65,18.167,14.381,14.381,0,0,0,3.913,1.83,11.018,11.018,0,0,0,1.536.38c.225.044.432.094.624.123l.523.055.713.081a1.311,1.311,0,0,1,.242.039,1.3,1.3,0,0,1-.245-.005l-.717-.047-.528-.04c-.193-.023-.4-.069-.63-.108a10.656,10.656,0,0,1-1.555-.352,14.269,14.269,0,0,1-3.979-1.8A15.158,15.158,0,0,1,384.835,93.3a15.213,15.213,0,0,1,.952-7.959A14.007,14.007,0,0,1,388,81.571a13.934,13.934,0,0,1,3.353-3.1,14.718,14.718,0,0,1,4.278-2.014,15.073,15.073,0,0,1,9.6.378,14.742,14.742,0,0,1,4.105,2.344,13.952,13.952,0,0,1,3.1,3.347,13.979,13.979,0,0,1,1.91,3.934,15.2,15.2,0,0,1,.327,8.008,15.169,15.169,0,0,1-7.588,9.919,14.3,14.3,0,0,1-4.108,1.481,10.7,10.7,0,0,1-1.579.229c-.23.021-.442.05-.636.058l-.53,0-.718-.009a1.21,1.21,0,0,1-.243-.014" fill="#263238"/>
        <path id="Trazado_705552" data-name="Trazado 705552" d="M381.291,104.936a2.544,2.544,0,1,1,2.3-2.286,2.544,2.544,0,0,1-2.3,2.286" fill="#fff"/>
        <path id="Trazado_705553" data-name="Trazado 705553" d="M380.96,104.944c0-.031.227-.023.61-.119a2.542,2.542,0,0,0,1.357-.881,2.4,2.4,0,1,0-3.85-.151,2.537,2.537,0,0,0,1.284.984c.374.127.6.136.6.167a1.292,1.292,0,0,1-.636-.041,2.533,2.533,0,0,1-1.442-.973,2.655,2.655,0,0,1-.319-2.545,2.688,2.688,0,0,1,5.065.2,2.65,2.65,0,0,1-.517,2.511,2.531,2.531,0,0,1-1.514.858,1.287,1.287,0,0,1-.637-.009" fill="#263238"/>
        <path id="Trazado_705554" data-name="Trazado 705554" d="M395.662,88.833l2.15-.157a1.832,1.832,0,0,1,1.742-1.975,1.743,1.743,0,0,1,1.765.987,1.933,1.933,0,0,1-.025,1.752,2.34,2.34,0,0,1-2.548,1.084l.355,4.848,2.126-.156-.208-2.84A4.162,4.162,0,0,0,403.7,88.1a3.875,3.875,0,0,0-4.31-3.58,3.7,3.7,0,0,0-3.732,4.311" fill="#263238"/>
        <rect id="Rectángulo_345559" data-name="Rectángulo 345559" width="2.164" height="2.02" transform="translate(399.167 96.371) rotate(-4.188)" fill="#263238"/>
        <path id="Trazado_705555" data-name="Trazado 705555" d="M335,102.245a52.95,52.95,0,0,1,2.954-14.124,23.181,23.181,0,0,1,8.7-11.267l1.045.972a6.057,6.057,0,0,1,10.576-1.62,5.98,5.98,0,0,1,6.534,9.087,5.483,5.483,0,0,1,2.441,9.941,7.978,7.978,0,0,1-4.92,14.009,6.306,6.306,0,0,1-11.015,5.529,6.345,6.345,0,0,1-4.875,6.279,8.627,8.627,0,0,1-7.894-2.481,13.7,13.7,0,0,1-3.6-7.7,34.622,34.622,0,0,1,.052-8.624" fill="#263238"/>
        <path id="Trazado_705556" data-name="Trazado 705556" d="M347.927,80.969c2.794.9,3.366,3.167,3.946,5.053,1.25,4.058-.155,10.064-2.426,13.652s-4.762,5.411-8.965,6.018q-.2-9.663-.41-19.327Z" fill="#ff725e"/>
        <path id="Trazado_705557" data-name="Trazado 705557" d="M349.5,92.064a6.692,6.692,0,0,0-.594-8.56c1.223-1.537.784-3.908-.459-5.427a13.1,13.1,0,0,0-4.873-3.219,9.009,9.009,0,0,0-10.5-6.578c-2.33-3.426-7.3-3.962-11.273-2.8a10.627,10.627,0,0,1-2.954.644,17.209,17.209,0,0,1-2.2-.305c-4.047-.544-8.063,2.3-9.641,6.071a7.463,7.463,0,0,1-.859,1.752,10.1,10.1,0,0,1-2,1.6,6.458,6.458,0,0,0-2.475,4.779c-.066,1.57.434,3.238-.228,4.665a23.369,23.369,0,0,0-1.189,2.039c-.749,2.159,1.645,4.366,1.2,6.607-.09.457-.3.883-.423,1.332a3.985,3.985,0,0,0,.243,2.786,5.715,5.715,0,0,1,.877,2.006,6.412,6.412,0,0,1-.327,1.635c-.273,1.337,2.614,6.5,3.77,7.224l34.551.31a6.459,6.459,0,0,0,5-5.56,2.37,2.37,0,0,1,.322-1.271,2.789,2.789,0,0,1,.943-.612c2.225-1.194,2.494-4.249,2.259-6.763a3.061,3.061,0,0,1,.02-1.055,3.854,3.854,0,0,1,.815-1.295" fill="#263238"/>
        <path id="Trazado_705558" data-name="Trazado 705558" d="M339.606,92.114A18.5,18.5,0,0,0,329.8,75.983a22.848,22.848,0,0,0-8.829-2.132,13.992,13.992,0,0,0-8.149,1.709c-1.9.447-8.883,6.837-9.245,13.771-.4,7.7-.591,17.124.383,22.859,1.958,11.53,10.826,12.9,10.826,12.9,0-.018-.826,19.166-.826,19.166L331,158.229l6.636-22.186Z" fill="#ffc09d"/>
        <path id="Trazado_705559" data-name="Trazado 705559" d="M314.785,125.1a29.5,29.5,0,0,0,15.476-4.29s-4.031,8.185-15.6,7.228Z" fill="#ff9b6c"/>
        <path id="Trazado_705560" data-name="Trazado 705560" d="M337.863,103.08c-.007-.86.965-2.9,1.813-3.04,2.265-.378,6.355-.24,6.455,5.52.136,7.874-7.8,6.387-7.815,6.161-.014-.176-.428-5.671-.453-8.641" fill="#ffc09d"/>
        <path id="Trazado_705561" data-name="Trazado 705561" d="M340.438,108.807c.034-.026.139.094.372.2a1.374,1.374,0,0,0,1.026,0c.827-.319,1.5-1.652,1.518-3.072a4.525,4.525,0,0,0-.418-1.958,1.584,1.584,0,0,0-1.05-1.035.7.7,0,0,0-.8.39c-.1.222-.049.379-.09.393-.022.02-.172-.129-.114-.455a.873.873,0,0,1,.3-.5,1.036,1.036,0,0,1,.755-.214,1.93,1.93,0,0,1,1.454,1.2,4.66,4.66,0,0,1,.513,2.187c-.023,1.588-.809,3.086-1.942,3.435a1.468,1.468,0,0,1-1.258-.187c-.248-.19-.292-.365-.265-.38" fill="#ff9b6c"/>
        <path id="Trazado_705562" data-name="Trazado 705562" d="M301.886,88.164a20.879,20.879,0,0,1,2.77-8.09,16.769,16.769,0,0,1,3.557-4.743,18.536,18.536,0,0,1,4.252-2.565c3.946-1.871,8.346-3.459,12.605-2.5a21.747,21.747,0,0,1,6.348,2.949,23.839,23.839,0,0,1,4.361,3.144,17.838,17.838,0,0,1,2.834,3.768,24.416,24.416,0,0,1,3.511,10.6c.258,3.748,3.094,7.062.9,10.11a45.012,45.012,0,0,1-4.354,1.153c-.636.254-1.336-.437-1.331-1.121a2.522,2.522,0,0,1,.983-1.735,1.9,1.9,0,0,1-1.581-2.091,5.169,5.169,0,0,1,1.216-2.615.75.75,0,0,0,.17-.337c.041-.332-.336-.536-.623-.706a2.651,2.651,0,0,1-.281-4.151,3.555,3.555,0,0,1-2.427-4.5,1.138,1.138,0,0,0,.113-.879c-.131-.262-.456-.344-.737-.427a4.516,4.516,0,0,1-3.024-5.085,11.312,11.312,0,0,1-3.268-.145,3.823,3.823,0,0,1-2.578-1.861,4.265,4.265,0,0,1-7.214.387,11.16,11.16,0,0,1-5.406-.837,5.277,5.277,0,0,1-3.438,3.7c-.324.105-.7.207-.855.511a1.255,1.255,0,0,0-.072.64c.058,1.1-.691,1.568-1.3,2.487s-1.664,2.288-2.722,1.985a4.581,4.581,0,0,1-2.465,4.246Z" fill="#263238"/>
        <path id="Trazado_705563" data-name="Trazado 705563" d="M300.257,86.719a3.02,3.02,0,0,1,.417-.849c.164-.263.4-.57.616-.963a3.682,3.682,0,0,0,.429-1.475,11.553,11.553,0,0,0-.052-1.948,8.679,8.679,0,0,1,.041-2.339,6.557,6.557,0,0,1,1.013-2.49,6.462,6.462,0,0,1,.959-1.123,9.569,9.569,0,0,1,1.236-.936,4.9,4.9,0,0,0,1.187-1.043,6.334,6.334,0,0,0,.733-1.489,10.574,10.574,0,0,1,4.917-5.436,9.438,9.438,0,0,1,1.89-.729,8.46,8.46,0,0,1,2.067-.252,9.754,9.754,0,0,1,1.062.075c.352.052.7.123,1.049.182a5.08,5.08,0,0,0,2.1-.016c.7-.145,1.393-.4,2.119-.593a13.877,13.877,0,0,1,4.536-.455,12.045,12.045,0,0,1,2.314.406,7.77,7.77,0,0,1,3.987,2.582l.3.385-.126-.048a9.138,9.138,0,0,1,10.638,6.67l-.064-.079A24.923,24.923,0,0,1,346.4,76.19a8.319,8.319,0,0,1,2.27,2,5.406,5.406,0,0,1,1.048,2.709,3.723,3.723,0,0,1-.73,2.669l-.008-.132a6.517,6.517,0,0,1,1.847,4.028,6.674,6.674,0,0,1-.786,3.92,6.363,6.363,0,0,1-.517.784,8.565,8.565,0,0,0-.536.708,1.677,1.677,0,0,0-.274.774,4.845,4.845,0,0,0,.029.817,12.938,12.938,0,0,1-.058,2.99,6.264,6.264,0,0,1-.756,2.281,3.889,3.889,0,0,1-1.214,1.289c-.4.271-.763.378-.962.526a1.735,1.735,0,0,0-.285.24.914.914,0,0,1,.268-.265c.2-.159.556-.277.946-.551a3.835,3.835,0,0,0,1.171-1.283,6.212,6.212,0,0,0,.719-2.253,12.882,12.882,0,0,0,.034-2.961,4.945,4.945,0,0,1-.035-.842,1.831,1.831,0,0,1,.291-.841,8.622,8.622,0,0,1,.541-.724,6.308,6.308,0,0,0,.5-.767,6.525,6.525,0,0,0,.747-3.824,6.346,6.346,0,0,0-1.806-3.9l-.064-.062.056-.07a3.518,3.518,0,0,0,.679-2.527,5.2,5.2,0,0,0-1.014-2.6,8.1,8.1,0,0,0-2.216-1.938,24.87,24.87,0,0,0-2.751-1.416l-.051-.023-.012-.055a8.915,8.915,0,0,0-10.361-6.488l-.075.018-.051-.066-.286-.372a7.529,7.529,0,0,0-3.866-2.5,11.82,11.82,0,0,0-2.265-.4,13.636,13.636,0,0,0-4.459.443c-.713.183-1.408.444-2.133.593a5.438,5.438,0,0,1-1.1.123,6.48,6.48,0,0,1-1.087-.109c-.354-.061-.7-.132-1.044-.183a9.459,9.459,0,0,0-1.032-.075,8.227,8.227,0,0,0-2.012.241,9.217,9.217,0,0,0-1.848.707,10.4,10.4,0,0,0-4.842,5.319,6.559,6.559,0,0,1-.762,1.526,5.051,5.051,0,0,1-1.233,1.075,9.57,9.57,0,0,0-1.223.915,6.334,6.334,0,0,0-.942,1.091,6.435,6.435,0,0,0-1.007,2.43,8.543,8.543,0,0,0-.059,2.306,11.373,11.373,0,0,1,.03,1.965,3.693,3.693,0,0,1-.458,1.5c-.23.4-.468.7-.638.955a4.588,4.588,0,0,0-.356.6c-.069.143-.1.22-.1.218" fill="#455a64"/>
        <path id="Trazado_705564" data-name="Trazado 705564" d="M329.368,66.58c-.012.018-.209-.118-.593-.3a5.274,5.274,0,0,0-1.721-.487,4.976,4.976,0,0,0-2.586.4,5.138,5.138,0,0,0-2.338,2.152,4.387,4.387,0,0,0-.385.9.989.989,0,0,0,.064.829l.2.266-.319-.087a3.261,3.261,0,0,0-2.433.309,3.146,3.146,0,0,0-1.324,1.468,3.451,3.451,0,0,0-.3,1.3c-.008.315.018.488,0,.491s-.019-.041-.037-.123a2.112,2.112,0,0,1-.043-.368,3.289,3.289,0,0,1,1.6-2.941,3.426,3.426,0,0,1,2.594-.359l-.124.179a1.2,1.2,0,0,1-.1-1.026,4.537,4.537,0,0,1,.4-.948,5.279,5.279,0,0,1,2.458-2.237,5.025,5.025,0,0,1,2.694-.364,4.9,4.9,0,0,1,1.743.572,3.388,3.388,0,0,1,.42.269c.091.069.136.108.131.115" fill="#455a64"/>
        <path id="Trazado_705565" data-name="Trazado 705565" d="M342.217,75.52c.009.01-.083.115-.273.284a5.171,5.171,0,0,1-.886.626,3.777,3.777,0,0,1-1.567.483,2.814,2.814,0,0,1-1.96-.575l.174-.028c-.075.106-.151.214-.228.325s-.177.207-.267.312a4.767,4.767,0,0,1-1.958,1.24,4.888,4.888,0,0,1-1.874.25,4.346,4.346,0,0,1-1.243-.273,1.561,1.561,0,0,1-.413-.216,6.858,6.858,0,0,0,1.664.322,4.992,4.992,0,0,0,1.8-.29,4.7,4.7,0,0,0,1.856-1.195c.084-.1.173-.2.252-.3l.217-.306.077-.108.1.08a2.653,2.653,0,0,0,1.8.549,3.787,3.787,0,0,0,1.506-.414c.8-.413,1.206-.805,1.232-.771" fill="#455a64"/>
        <path id="Trazado_705566" data-name="Trazado 705566" d="M346.437,82.79c.008,0,0,.051-.018.145a1.383,1.383,0,0,1-.172.383,2.105,2.105,0,0,1-1.262.853,4.013,4.013,0,0,1-2.252-.226,13.031,13.031,0,0,1-1.247-.481,2.154,2.154,0,0,1-1.1-.982c-.017-.044-.035-.087-.05-.127l.186.055a9.01,9.01,0,0,1-2.325,1.421,4.053,4.053,0,0,1-2.21.246,2.918,2.918,0,0,1-1.367-.609,1.865,1.865,0,0,1-.288-.289c-.056-.074-.083-.114-.077-.12s.141.136.421.337a3.048,3.048,0,0,0,1.338.517,4,4,0,0,0,2.1-.284,9.238,9.238,0,0,0,2.257-1.4l.124-.1.062.155.041.105a1.955,1.955,0,0,0,.98.87c.4.192.825.34,1.217.483a3.958,3.958,0,0,0,2.141.27,2.093,2.093,0,0,0,1.226-.743,3.365,3.365,0,0,0,.266-.475" fill="#455a64"/>
        <path id="Trazado_705567" data-name="Trazado 705567" d="M320.426,99.038a1.457,1.457,0,0,0,1.357,1.514,1.393,1.393,0,0,0,1.543-1.264,1.458,1.458,0,0,0-1.355-1.515,1.394,1.394,0,0,0-1.545,1.265" fill="#263238"/>
        <path id="Trazado_705568" data-name="Trazado 705568" d="M306.584,98.395a1.457,1.457,0,0,0,1.357,1.514,1.393,1.393,0,0,0,1.543-1.264,1.457,1.457,0,0,0-1.355-1.515,1.393,1.393,0,0,0-1.545,1.265" fill="#263238"/>
        <path id="Trazado_705569" data-name="Trazado 705569" d="M306.32,93.563c.174.2,1.3-.585,2.871-.531,1.565.032,2.69.876,2.866.689.086-.082-.087-.431-.576-.812a4.01,4.01,0,0,0-2.287-.786,3.833,3.833,0,0,0-2.292.66c-.494.354-.668.692-.582.78" fill="#263238"/>
        <path id="Trazado_705570" data-name="Trazado 705570" d="M321.9,94.345c.194.177,1.239-.716,2.8-.822,1.56-.13,2.765.593,2.921.39.077-.091-.128-.42-.656-.748a3.993,3.993,0,0,0-2.355-.548,3.846,3.846,0,0,0-2.213.892c-.453.4-.593.758-.5.836" fill="#263238"/>
        <path id="Trazado_705571" data-name="Trazado 705571" d="M316.06,106.108a10.389,10.389,0,0,0-2.53-.541c-.4-.054-.775-.146-.834-.421a2.035,2.035,0,0,1,.3-1.177q.612-1.436,1.282-3.009c1.782-4.285,3.087-7.814,2.914-7.884s-1.759,3.346-3.542,7.631q-.645,1.585-1.232,3.028a2.318,2.318,0,0,0-.258,1.564,1,1,0,0,0,.639.606,2.735,2.735,0,0,0,.677.117,10.2,10.2,0,0,0,2.579.086" fill="#263238"/>
        <path id="Trazado_705572" data-name="Trazado 705572" d="M318.487,108.437a2.238,2.238,0,0,1,1.516.877,2.315,2.315,0,0,1,.25,2.089c-.29.381-1.584.38-2.474.267a1.09,1.09,0,0,1-.893-.73l-.352-1.011a1.093,1.093,0,0,1,.681-1.4,2.926,2.926,0,0,1,1.272-.087" fill="#ff9b6c"/>
        <path id="Trazado_705573" data-name="Trazado 705573" d="M321.245,88.105c.233.389,1.731-.109,3.578-.243,1.846-.171,3.4.074,3.571-.348.072-.2-.258-.545-.926-.835a6.241,6.241,0,0,0-5.447.45c-.61.4-.88.79-.776.976" fill="#263238"/>
        <path id="Trazado_705574" data-name="Trazado 705574" d="M306.608,90.409c.258.4,1.552.237,3.04.459,1.494.178,2.7.679,3.053.358.156-.158.014-.542-.481-.964a4.773,4.773,0,0,0-2.375-.974,4.7,4.7,0,0,0-2.535.316c-.583.277-.813.611-.7.805" fill="#263238"/>
        <path id="Trazado_705575" data-name="Trazado 705575" d="M321.725,110.918c-.027.067-.391-.014-.953-.2a11.742,11.742,0,0,0-2.169-.574,10.137,10.137,0,0,0-1.23-.079,1.366,1.366,0,0,0-.857.17.541.541,0,0,0-.193.472c.015.131.084.2.062.233s-.142.022-.252-.162a.716.716,0,0,1,.133-.813,1.566,1.566,0,0,1,1.1-.379,6.82,6.82,0,0,1,1.308.042,6.956,6.956,0,0,1,2.241.749c.529.272.84.472.813.538" fill="#263238"/>
        <path id="Trazado_705576" data-name="Trazado 705576" d="M318.346,428.467l.007,1.152s-19.46,8.033-19.633,11.742l38.788-.57-.717-12.9a22.192,22.192,0,0,1-18.445.576" fill="#263238"/>
        <path id="Trazado_705577" data-name="Trazado 705577" d="M337.508,440.791l-.172-3.1-37.114,1.683s-1.715.776-1.5,1.99Z" fill="#455a64"/>
        <path id="Trazado_705578" data-name="Trazado 705578" d="M318.218,429.73c.009.189.957.261,1.9.857.957.57,1.449,1.383,1.623,1.306.173-.039-.126-1.168-1.278-1.868s-2.287-.468-2.243-.295" fill="#fff"/>
        <path id="Trazado_705579" data-name="Trazado 705579" d="M314.175,431.473c-.041.184.784.494,1.44,1.286.678.772.853,1.636,1.041,1.625.179.027.294-1.084-.54-2.053s-1.94-1.039-1.941-.858" fill="#fff"/>
        <path id="Trazado_705580" data-name="Trazado 705580" d="M311.935,436.376c.173.038.423-.912-.079-1.942s-1.394-1.43-1.472-1.271c-.1.157.479.705.878,1.557.418.843.485,1.64.673,1.656" fill="#fff"/>
        <path id="Trazado_705581" data-name="Trazado 705581" d="M346.082,416.771l-16.517,4.619,4.125,9.365-4.279,23.7a2.687,2.687,0,0,0,1.863,3.076,2.739,2.739,0,0,0,2.78-.8c3.646-4.088,16.981-19.191,16.661-21.036l-.528-4.927c-.11-1.022-1.1-3.453-1.1-3.673Z" fill="#263238"/>
        <path id="Trazado_705582" data-name="Trazado 705582" d="M331.764,457.622l18.793-23.639.1,1.077a2.978,2.978,0,0,1-.762,2.472c-1.475,2.378-5.674,7.783-15.762,19.2a2.732,2.732,0,0,1-2.368.894" fill="#455a64"/>
        <path id="Trazado_705583" data-name="Trazado 705583" d="M336.719,445.961a8.079,8.079,0,0,0-2.471-1.769,8.378,8.378,0,0,0-3.058-.285c-.029-.061.284-.288.888-.428a4.288,4.288,0,0,1,2.378.188,4.153,4.153,0,0,1,1.9,1.4c.353.5.428.867.365.894" fill="#fff"/>
        <path id="Trazado_705584" data-name="Trazado 705584" d="M335.17,449.538a22.1,22.1,0,0,0-2.414-.882,22.708,22.708,0,0,0-2.58-.087,3.046,3.046,0,0,1,2.7-.463c1.577.3,2.428,1.351,2.3,1.432" fill="#fff"/>
        <path id="Trazado_705585" data-name="Trazado 705585" d="M339.783,441.278a27,27,0,0,0-3.629-1.607,27.466,27.466,0,0,0-3.954-.525,6.1,6.1,0,0,1,4.117-.014,5.908,5.908,0,0,1,3.466,2.146" fill="#fff"/>
        <path id="Trazado_705586" data-name="Trazado 705586" d="M333.5,427.533a17.9,17.9,0,0,1,.193,3.189v.012l0,.021c-.207,1.372-.494,3.127-.828,5.031-.394,2.255-.779,4.291-1.082,5.76a12.021,12.021,0,0,1-.589,2.361,11.91,11.91,0,0,1,.247-2.421c.215-1.484.545-3.53.94-5.785.334-1.9.66-3.652.932-5.012l0,.033a17.9,17.9,0,0,1,.193-3.189" fill="#455a64"/>
        <path id="Trazado_705587" data-name="Trazado 705587" d="M357,274.97c1.3-6.284,4.6-17.639,3.3-22.869-3.008-12.119-8.29-19.13-15.507-34.517H339.43l-51.474-.9-4.214,9.336c-4.674,12.59-7.869,20.106-9.184,29.314-1.515,10.606,1.144,25.972,7.038,41.486,12.72,33.488,19.824,60.271,20.314,67.484s1.256,14.671,7.944,37.512c4.883,16.676,8.492,26.646,8.492,26.646,5.072,2.863,10.452,3.636,15.347.855l14.936-5.766s-4.578-39.333-9.922-49.767c-3.847-7.511-10.141-11.079-7.2-20.868S353,294.246,357,274.97" fill="#263238"/>
        <path id="Trazado_705588" data-name="Trazado 705588" d="M296.752,243.208a2.037,2.037,0,0,1,.2.26l.568.791c.507.719,1.236,1.757,2.18,3.1l8.161,11.738.03.044,0,.052c-.4,4.4-.548,9.5-.82,15.181s-.568,11.94-.888,18.658c-.351,6.719-.727,13.9-1.121,21.421-.447,7.524-.833,15.389-1.585,23.481-.784,6.731-1.477,13.342-.9,19.7a47.087,47.087,0,0,0,.64,4.685,30.867,30.867,0,0,0,1.113,4.489c1.066,2.853,2.3,5.617,3.476,8.3,4.751,10.749,9.2,20.356,12.905,28.436,3.718,8.059,6.729,14.586,8.821,19.119,1.03,2.245,1.833,3.994,2.387,5.2l.611,1.358c.135.307.193.47.193.47s-.089-.148-.239-.448q-.234-.479-.656-1.337c-.574-1.2-1.406-2.936-2.472-5.164L320.39,403.7c-3.747-8.063-8.229-17.654-13.006-28.4-1.182-2.695-2.417-5.432-3.508-8.341a31.369,31.369,0,0,1-1.136-4.55c-.3-1.548-.5-3.131-.652-4.73-.586-6.417.111-13.072.893-19.8.75-8.058,1.142-15.938,1.6-23.454.408-7.522.8-14.7,1.162-21.417.342-6.716.661-12.972.951-18.653s.475-10.788.9-15.186l.025.1c-3.445-5.059-6.171-9.061-8.048-11.816l-2.116-3.143-.535-.814a1.893,1.893,0,0,1-.17-.283" fill="#455a64"/>
        <path id="Trazado_705589" data-name="Trazado 705589" d="M357.315,164.774,343.73,201.391l3.946,20.7H282.714s7.6-18.795,7.856-23.111-3.4-29.371-1.348-37.827,7.944-26.58,7.944-26.58l17.318-2.75c7.94,4.265,14.175,3.549,22.714-1.394l15.7,7.715Z" fill="#f5f5f5"/>
        <path id="Trazado_705590" data-name="Trazado 705590" d="M297.592,134.541s-5.256,1.122-9,8.771c-3.7,7.556-18.012,40.863-18.57,46.45s3.974,13.108,7.925,14.147l11.982-11.945,9.941.885,13.089-61.071Z" fill="#ff725e"/>
        <g id="Grupo_1000231" data-name="Grupo 1000231" opacity="0.3">
          <g id="Grupo_1000230" data-name="Grupo 1000230">
            <g id="Grupo_1000229" data-name="Grupo 1000229" clip-path="url(#clip-path-5)">
              <path id="Trazado_705591" data-name="Trazado 705591" d="M290.57,155.084a44.988,44.988,0,0,0-2.339,23.711l-6.547-2.445a20.452,20.452,0,0,0,6.8,5.967,15.943,15.943,0,0,0-5.409-.906,5.41,5.41,0,0,0-4.553,2.645,22.042,22.042,0,0,1,6.479-.531,7.442,7.442,0,0,1,5.5,3.089,75.907,75.907,0,0,1-1.839-21.3"/>
            </g>
          </g>
        </g>
        <path id="Trazado_705592" data-name="Trazado 705592" d="M301.347,183.515a2.133,2.133,0,0,1-.187-.486l-.447-1.425-1.567-5.3c-.654-2.273-1.427-4.963-2.289-7.96-.424-1.5-.923-3.1-1.229-4.8-.332-1.692-.628-3.455-.907-5.275l-.032-.212.2-.07,3.056-1.06,3.173-1.1-.064.474-5.632-3.256-.185-.106.079-.2a130.632,130.632,0,0,1,6.193-12.575c.8-1.525,1.4-2.75,1.82-3.59A9.663,9.663,0,0,1,304,135.3a1.35,1.35,0,0,1-.114.355c-.11.271-.243.6-.4,1-.37.862-.933,2.111-1.7,3.659-1.5,3.107-3.93,7.34-6.007,12.619l-.106-.3,5.646,3.233.492.282-.556.193-3.15,1.093-3.036,1.049.169-.281c.274,1.812.563,3.574.884,5.256.293,1.686.771,3.25,1.185,4.771.821,3.009,1.557,5.709,2.18,7.991.586,2.216,1.064,4.022,1.414,5.344.145.587.264,1.066.358,1.449a2.092,2.092,0,0,1,.093.513" fill="#263238"/>
        <path id="Trazado_705593" data-name="Trazado 705593" d="M344.581,201.078,362.1,253.249s-13.385,9.661-42.081,9.54l-5.279-54.049,2.63-28.33-1.8-13.822,8.568-17.46,13.646-23.536,2.647,6.245,15.487,6.586,2.45,25.484Z" fill="#ff725e"/>
        <path id="Trazado_705594" data-name="Trazado 705594" d="M299.2,206.966l-9.707,53.983-18.072-4.576,14.406-49.407,2.378-14.525,6.735,5.422Z" fill="#ff725e"/>
        <g id="Grupo_1000234" data-name="Grupo 1000234" opacity="0.3">
          <g id="Grupo_1000233" data-name="Grupo 1000233">
            <g id="Grupo_1000232" data-name="Grupo 1000232" clip-path="url(#clip-path-6)">
              <path id="Trazado_705595" data-name="Trazado 705595" d="M287.854,201.078l48.8,4.835c-3.518-.074-6.225,2.9-9.271,4.665-5.639,3.262-12.662,2.35-19.1,1.337l-16-2.515a6.886,6.886,0,0,1-3.77-1.4c-1.778-1.673-1.291-4.563-.668-6.923"/>
            </g>
          </g>
        </g>
        <path id="Trazado_705596" data-name="Trazado 705596" d="M325.126,197.066l8.172-7.891a3.775,3.775,0,0,1,2.977-1.043,56.573,56.573,0,0,1,7.1.947,5.593,5.593,0,0,1,2.6,1.688,34.477,34.477,0,0,1,1.494,4.611,10.635,10.635,0,0,1-.131,1.662,1.155,1.155,0,0,1-1.7.882,1.92,1.92,0,0,1-.772-.726,2.593,2.593,0,0,1-.454-1.364s.26,3.507-2.6,3.572c0,0,1.317,2.987-2.361,4.221,0,0,.136,1.948-2.94,2.207a37.379,37.379,0,0,1-5.867,0s-5.623,4.039-9.584,4.3-12.83-1.472-12.83-1.472l-1.07-16.335Z" fill="#ffc09d"/>
        <path id="Trazado_705597" data-name="Trazado 705597" d="M336.2,192.06a8.5,8.5,0,0,0,1.309.548c.821.307,1.963.716,3.259,1.061.642.183,1.289.285,1.827.434a1.988,1.988,0,0,1,1.114.913,9.055,9.055,0,0,0,.589.856c.161.191.275.27.283.262a2.444,2.444,0,0,0-.215-.314c-.139-.2-.3-.507-.527-.889a3.074,3.074,0,0,0-.445-.583,1.805,1.805,0,0,0-.737-.438c-.575-.168-1.189-.268-1.833-.453-1.286-.341-2.431-.725-3.264-.995a9.616,9.616,0,0,0-1.36-.4" fill="#ff9b6c"/>
        <path id="Trazado_705598" data-name="Trazado 705598" d="M335.147,197.068a4.289,4.289,0,0,0,.91.42c.573.231,1.373.528,2.266.827s1.712.543,2.309.7a4.392,4.392,0,0,0,.979.212,4.71,4.71,0,0,0-.934-.36l-2.284-.764-2.283-.764a4.761,4.761,0,0,0-.963-.275" fill="#ff9b6c"/>
        <path id="Trazado_705599" data-name="Trazado 705599" d="M333.127,201.725c-.007.067,1.423.213,3.124.676s3.013,1.047,3.04.986a3.417,3.417,0,0,0-.833-.443,15.425,15.425,0,0,0-4.387-1.183,3.418,3.418,0,0,0-.944-.036" fill="#ff9b6c"/>
        <path id="Trazado_705600" data-name="Trazado 705600" d="M314.2,209.7l-36.254-5.787s4.357-18.184,10.713-18.184c.931,0,33.134,10.462,33.134,10.462Z" fill="#ff725e"/>
        <path id="Trazado_705601" data-name="Trazado 705601" d="M320.542,201.778a6.661,6.661,0,0,0,.85-.778l1.981-1.946c.769-.765,1.456-1.469,1.938-1.994a5.471,5.471,0,0,0,.739-.886,6.665,6.665,0,0,0-.85.778l-1.981,1.947c-.77.765-1.456,1.468-1.938,1.993a5.407,5.407,0,0,0-.739.886" fill="#ff9b6c"/>
        <path id="Trazado_705602" data-name="Trazado 705602" d="M321.792,196.186a1.615,1.615,0,0,1-.461-.086l-1.292-.344-4.724-1.359c-3.982-1.169-9.473-2.819-15.527-4.671l-9.349-2.887-.073-.023-.055-.073a8.289,8.289,0,0,0-4.226-2.856,10.611,10.611,0,0,0-4.041-.411,12.1,12.1,0,0,0-2.611.522c-.591.189-.9.325-.909.3a2.935,2.935,0,0,1,.858-.442,10.782,10.782,0,0,1,6.815-.345,8.566,8.566,0,0,1,4.508,2.973l-.128-.1,9.363,2.839c6.055,1.852,11.528,3.557,15.483,4.817l4.675,1.517,1.264.437a1.619,1.619,0,0,1,.43.187" fill="#263238"/>
        <path id="Trazado_705603" data-name="Trazado 705603" d="M352.156,137.663,336.793,150.81l-16.507,17.7L314.5,144.144l-16.208,3.331s1.143,30.167,6.131,43.84c.95,2.6,3.758,4.537,5.011,5.132,7.835,3.721,15.486-2.037,15.486-2.037s32.692-21.941,36.235-36.63c1.674-6.936-.986-14.932-3.837-18.327-2.507-2.985-5.16-1.79-5.16-1.79" fill="#ff725e"/>
        <path id="Trazado_705604" data-name="Trazado 705604" d="M313.253,137.415c.3-1.008,2.006-10.324,2.7-12.491.977-3.056,8.918-8.521,8.918-8.521s-1.245-2.869-4.626-1.377c-4,1.765-5.982,4.737-6.99,4.132s-7.3-7-9.01-6.8a1.773,1.773,0,0,0-1.486,2.667,15.6,15.6,0,0,1,1.284,1.871s-3.63-1.092-2.924,2.882c0,0-4.135-2.579-3.732,2.866,0,0-2.722-1.109-3.327.807s1.189,4.134,2.1,5.647,3.852,10.286,3.852,10.286l.035,7.735,14.456-2.972Z" fill="#ffc09d"/>
        <path id="Trazado_705605" data-name="Trazado 705605" d="M313.253,137.415a2.642,2.642,0,0,1,.114.444c.068.323.158.752.272,1.3.231,1.172.559,2.839.978,4.965l.023.116-.117.025-14.441,3.049-.239.051,0-.246c-.018-2.382-.037-4.988-.058-7.735l.011.07c-1.031-2.975-2.1-6.175-3.45-9.409-.658-1.557-2.031-2.914-2.526-4.8a3.6,3.6,0,0,1-.1-1.477,1.933,1.933,0,0,1,.782-1.347,2.409,2.409,0,0,1,1.513-.34,5.174,5.174,0,0,1,1.465.328l-.354.257a9.3,9.3,0,0,1,.035-1.63,2.81,2.81,0,0,1,.691-1.609,1.954,1.954,0,0,1,1.747-.479,4.775,4.775,0,0,1,1.652.613l-.394.266a3.536,3.536,0,0,1,.271-2.422,1.975,1.975,0,0,1,1.411-.866,3.914,3.914,0,0,1,1.574.111l-.3.38a15.094,15.094,0,0,0-1.183-1.746,1.608,1.608,0,0,1-.4-1.156,2.136,2.136,0,0,1,.394-1.13,2.086,2.086,0,0,1,.936-.729,2.778,2.778,0,0,1,.566-.148,1.715,1.715,0,0,1,.625.054,7.035,7.035,0,0,1,1.886,1.056c2.255,1.647,4.188,3.538,6.138,5.244a3.114,3.114,0,0,0,.689.507,1.1,1.1,0,0,0,.715-.227,18.247,18.247,0,0,0,1.5-1.117,23.689,23.689,0,0,1,3.075-2.117,6.923,6.923,0,0,1,3.447-1.13,3.33,3.33,0,0,1,2.861,1.934l.074.156-.148.105a42.7,42.7,0,0,0-7.843,6.694,5.781,5.781,0,0,0-1.09,1.862c-.2.679-.359,1.355-.51,2q-.428,1.941-.783,3.56c-.453,2.123-.81,3.8-1.062,4.981-.128.572-.231,1.009-.308,1.3a3.079,3.079,0,0,1-.141.437,2.936,2.936,0,0,1,.077-.452c.062-.327.143-.762.246-1.312.226-1.187.545-2.87.95-5,.221-1.081.465-2.276.732-3.577.143-.651.291-1.327.492-2.028a6.082,6.082,0,0,1,1.127-1.984,42.351,42.351,0,0,1,7.871-6.83l-.074.26a2.9,2.9,0,0,0-2.488-1.659,6.528,6.528,0,0,0-3.2,1.089,23.3,23.3,0,0,0-3.007,2.09,18.57,18.57,0,0,1-1.549,1.156,1.486,1.486,0,0,1-1.087.284,3,3,0,0,1-.888-.607c-1.971-1.716-3.9-3.593-6.113-5.2a6.755,6.755,0,0,0-1.73-.978,1.216,1.216,0,0,0-.408-.039,2.282,2.282,0,0,0-.451.117,1.565,1.565,0,0,0-.708.552,1.325,1.325,0,0,0-.01,1.655,15.442,15.442,0,0,1,1.233,1.814l.328.548-.628-.168c-.842-.225-1.951-.2-2.4.537a3.066,3.066,0,0,0-.2,2.051l.079.544-.473-.278a4.272,4.272,0,0,0-1.453-.54,1.439,1.439,0,0,0-1.307.334,3.967,3.967,0,0,0-.577,2.832l.018.393-.372-.136a3,3,0,0,0-2.495-.043,1.422,1.422,0,0,0-.569,1.009,3.107,3.107,0,0,0,.084,1.269,8.893,8.893,0,0,0,1.132,2.39,15.821,15.821,0,0,1,1.353,2.343c1.355,3.282,2.407,6.47,3.427,9.462l.012.034v.037c0,2.747.007,5.353.011,7.735l-.241-.2,14.472-2.893-.1.14c-.371-2.145-.662-3.826-.867-5.008-.088-.546-.157-.976-.209-1.3a2.277,2.277,0,0,1-.05-.441" fill="#ff9b6c"/>
        <path id="Trazado_705606" data-name="Trazado 705606" d="M304.053,116.993a20.459,20.459,0,0,0,1.755,1.637,20.324,20.324,0,0,0,1.8,1.592,15.386,15.386,0,0,0-3.551-3.229" fill="#ff9b6c"/>
        <path id="Trazado_705607" data-name="Trazado 705607" d="M300.821,119.557a5.953,5.953,0,0,0,2.234,2.88c.042-.049-.559-.606-1.17-1.4s-1.006-1.51-1.064-1.481" fill="#ff9b6c"/>
        <path id="Trazado_705608" data-name="Trazado 705608" d="M297.441,122.441a9.681,9.681,0,0,0,1.7,2.352,9.683,9.683,0,0,0-1.7-2.352" fill="#ff9b6c"/>
        <path id="Trazado_705609" data-name="Trazado 705609" d="M357.315,166.746a1.356,1.356,0,0,1-.182.2l-.567.554-2.233,2.116c-1.962,1.839-4.844,4.513-8.533,7.841s-8.174,7.322-13.451,11.677c-1.327,1.08-2.7,2.184-4.148,3.278-.715.557-1.481,1.071-2.235,1.62-.381.268-.792.5-1.191.761a11.583,11.583,0,0,1-1.24.713,23.908,23.908,0,0,1-5.481,2.143,12.231,12.231,0,0,1-6.169.094l.055.014a10.075,10.075,0,0,1-4.128-1.562,10.236,10.236,0,0,1-2.95-3.421,27.624,27.624,0,0,1-2.611-8.858c-.238-1.557-.518-3.082-.756-4.679-.218-1.582-.408-3.177-.6-4.785q-.535-4.827-1.086-9.791c-.608-5.865-1.2-11.6-1.779-17.157l-.024-.23.228-.047,16.211-3.318.231-.048.054.229c2.214,9.376,4.238,17.944,6,25.4l-.34-.09,16.979-17.936,4.664-4.884,1.226-1.263c.279-.282.433-.417.433-.417s-.125.162-.39.458l-1.184,1.3-4.586,4.957-16.851,18.056-.253.271-.087-.361c-1.786-7.456-3.838-16.017-6.083-25.385l.285.181-16.206,3.345.2-.277c.578,5.554,1.176,11.29,1.787,17.153q.549,4.959,1.083,9.787c.187,1.606.375,3.2.591,4.773q.378,2.355.749,4.668a27.2,27.2,0,0,0,2.542,8.7,9.742,9.742,0,0,0,2.8,3.264,9.6,9.6,0,0,0,3.91,1.487l.015,0,.04.012a11.889,11.889,0,0,0,5.889-.1,23.586,23.586,0,0,0,5.382-2.085,11.342,11.342,0,0,0,1.221-.7c.393-.25.8-.478,1.173-.743.75-.542,1.51-1.048,2.225-1.6,1.444-1.083,2.82-2.179,4.148-3.251,5.288-4.321,9.791-8.294,13.512-11.582,3.682-3.306,6.6-5.927,8.621-7.738l2.284-2.062.592-.525a1.439,1.439,0,0,1,.21-.168" fill="#263238"/>
        <path id="Trazado_705610" data-name="Trazado 705610" d="M290.57,186.239a4.252,4.252,0,0,1-.476-1.091,22.753,22.753,0,0,1-.881-3.123,56.752,56.752,0,0,1-.872-10.639,37.589,37.589,0,0,1,.971-10.63c.3-1.335.6-2.4.834-3.129a4.516,4.516,0,0,1,.424-1.112,6.2,6.2,0,0,1-.228,1.165c-.169.742-.413,1.816-.669,3.151a41.869,41.869,0,0,0-.811,10.541,68.126,68.126,0,0,0,.712,10.583c.478,2.67,1.083,4.255,1,4.284" fill="#263238"/>
        <path id="Trazado_705611" data-name="Trazado 705611" d="M326.333,239.5a3.756,3.756,0,0,1,.5-.123l1.377-.29,5.063-1.021c4.3-.858,10.261-2.037,17.108-3.333l-.184.355c-.948-2.073-1.948-4.257-2.974-6.5-.261-.57-.519-1.136-.771-1.689l.281.148-20.365,3.489.151-.18c-.043,2.756-.078,5.005-.1,6.634-.018.754-.033,1.364-.045,1.84a5.819,5.819,0,0,1-.035.671,3.807,3.807,0,0,1-.035-.6c-.012-.463-.027-1.058-.045-1.794-.025-1.659-.06-3.949-.1-6.756l0-.153.154-.027,20.338-3.641.2-.035.084.183.771,1.689,2.963,6.506.134.3-.318.059c-6.967,1.294-13.048,2.374-17.345,3.127l-5.024.87-1.33.218a2.287,2.287,0,0,1-.44.053" fill="#263238"/>
        <path id="Trazado_705612" data-name="Trazado 705612" d="M287.286,229.772l-7.715-1.939-4.61,9.441,9.625,1.658Z" fill="#ff725e"/>
        <path id="Trazado_705613" data-name="Trazado 705613" d="M287.286,229.772a2.844,2.844,0,0,1-.132.628c-.132.5-.292,1.117-.485,1.853-.43,1.608-1.064,3.942-1.866,6.742l-.056.193-.2-.034-9.208-1.551-.421-.072-.344-.059.154-.312,4.653-9.42.077-.156.165.043c2.381.623,4.324,1.162,5.651,1.536a19.351,19.351,0,0,1,2.012.609,3.705,3.705,0,0,1-.6-.1l-1.592-.345c-1.36-.3-3.275-.731-5.573-1.285l.242-.113c-1.3,2.7-2.87,5.948-4.567,9.462l-.189-.37.421.072,9.2,1.619-.255.159c.816-2.69,1.532-4.936,2.047-6.535.244-.743.447-1.362.613-1.87a4.9,4.9,0,0,1,.257-.691" fill="#263238"/>
        <path id="Trazado_705614" data-name="Trazado 705614" d="M339.591,130.165a1.59,1.59,0,0,1-.042.443c-.045.288-.111.713-.216,1.259-.2,1.092-.532,2.672-1.027,4.622a49.289,49.289,0,0,1-6.109,14.716l-.068.1-.111.009a19.924,19.924,0,0,1-3.465-.261,7.3,7.3,0,0,0-1.493-.049l.061-.5a6.13,6.13,0,0,1,1.129.836l.978.864a15.282,15.282,0,0,0,1.873,1.536l.257.152-.137.214c-2.983,4.669-6.044,8.346-8.035,11.092-1.011,1.362-1.8,2.463-2.325,3.225a9.681,9.681,0,0,1-.847,1.16,1.252,1.252,0,0,1,.161-.334c.12-.211.3-.525.542-.92.486-.794,1.233-1.927,2.211-3.318,1.923-2.8,4.936-6.529,7.866-11.17l.119.365a5.839,5.839,0,0,1-1.066-.776q-.474-.417-.961-.842l-.973-.856a6.464,6.464,0,0,0-.987-.746l-.774-.406.835-.093a7.561,7.561,0,0,1,1.62.047,20.935,20.935,0,0,0,3.338.267l-.178.112a51.945,51.945,0,0,0,6.207-14.519c.536-1.93.916-3.494,1.176-4.573a12.455,12.455,0,0,1,.441-1.662" fill="#263238"/>
        <path id="Trazado_705615" data-name="Trazado 705615" d="M128.037,405.132l-.911,22.785s22.854,8.578,23.1,12.8l-44.242-.179-.038-35.56Z" fill="#263238"/>
        <path id="Trazado_705616" data-name="Trazado 705616" d="M113.454,425.944A1.808,1.808,0,0,0,112.2,428a1.737,1.737,0,0,0,2.028,1.264,1.9,1.9,0,0,0,1.32-2.185A1.8,1.8,0,0,0,113.289,426" fill="#e0e0e0"/>
        <path id="Trazado_705617" data-name="Trazado 705617" d="M105.98,440.543l.137-3.585,42.367,1.513s1.967.865,1.738,2.251Z" fill="#455a64"/>
        <path id="Trazado_705618" data-name="Trazado 705618" d="M127.845,427.7c-.008.216-1.089.31-2.154,1-1.084.663-1.636,1.6-1.835,1.51-.2-.043.129-1.333,1.434-2.147s2.6-.561,2.555-.363" fill="#fff"/>
        <path id="Trazado_705619" data-name="Trazado 705619" d="M132.477,429.633c.048.209-.889.573-1.626,1.484-.764.889-.953,1.876-1.169,1.866-.2.033-.347-1.233.591-2.348s2.2-1.208,2.2-1" fill="#fff"/>
        <path id="Trazado_705620" data-name="Trazado 705620" d="M135.09,435.2c-.2.045-.493-1.035.067-2.216s1.572-1.648,1.662-1.468c.122.179-.537.811-.981,1.787-.468.966-.533,1.877-.748,1.9" fill="#fff"/>
        <path id="Trazado_705621" data-name="Trazado 705621" d="M127.476,422.479c-.091.2-1.081-.106-2.3-.027-1.223.053-2.175.459-2.286.273-.125-.157.806-.953,2.246-1.024s2.45.609,2.343.778" fill="#fff"/>
        <path id="Trazado_705622" data-name="Trazado 705622" d="M76.209,404.215,73.9,430.7l4.216,21.476a2.725,2.725,0,0,1-4.676,2.373c-3.8-4.143-17.7-19.454-17.424-21.383.321-2.234.58-28.1.58-28.1Z" fill="#263238"/>
        <path id="Trazado_705623" data-name="Trazado 705623" d="M75.783,455.407,56.13,431.379l-.073,1.124a4.1,4.1,0,0,0,.8,2.716c1.558,2.088,5.986,7.759,16.5,19.329a2.722,2.722,0,0,0,2.423.859" fill="#455a64"/>
        <g id="Grupo_1000237" data-name="Grupo 1000237" opacity="0.6">
          <g id="Grupo_1000236" data-name="Grupo 1000236">
            <g id="Grupo_1000235" data-name="Grupo 1000235" clip-path="url(#clip-path-7)">
              <path id="Trazado_705624" data-name="Trazado 705624" d="M62.124,423.169a1.651,1.651,0,0,1,.313,2.177,1.585,1.585,0,0,1-2.157.328,1.738,1.738,0,0,1-.319-2.306,1.644,1.644,0,0,1,2.28-.094" fill="#fff"/>
            </g>
          </g>
        </g>
        <path id="Trazado_705625" data-name="Trazado 705625" d="M70.462,443.424a8.3,8.3,0,0,1,2.459-1.914,8.314,8.314,0,0,1,3.092-.389c.027-.064-.295-.291-.91-.419a4.344,4.344,0,0,0-4.294,1.781c-.345.526-.411.915-.347.941" fill="#fff"/>
        <path id="Trazado_705626" data-name="Trazado 705626" d="M72.124,447.1a22.29,22.29,0,0,1,2.424-.99,22.413,22.413,0,0,1,2.612-.168,3.025,3.025,0,0,0-2.744-.4c-1.591.357-2.425,1.479-2.292,1.559" fill="#fff"/>
        <path id="Trazado_705627" data-name="Trazado 705627" d="M67.236,438.644a27.127,27.127,0,0,1,3.637-1.78,27.025,27.025,0,0,1,3.994-.665,6.038,6.038,0,0,0-4.172.108,6.046,6.046,0,0,0-3.459,2.337" fill="#fff"/>
        <path id="Trazado_705628" data-name="Trazado 705628" d="M67.265,430.534c.061.164,1.566-.355,3.478-.3,1.912.027,3.394.608,3.461.447a5.268,5.268,0,0,0-3.449-1.031,5.264,5.264,0,0,0-3.49.885" fill="#fff"/>
        <path id="Trazado_705629" data-name="Trazado 705629" d="M67.746,422.741a13.384,13.384,0,0,1,3.612-.41,13.41,13.41,0,0,1,3.461,1.109c.047-.051-.221-.4-.81-.8a5.938,5.938,0,0,0-5.312-.525c-.655.271-.987.563-.951.623" fill="#fff"/>
        <path id="Trazado_705630" data-name="Trazado 705630" d="M71.406,420.846a2.281,2.281,0,0,0,.1-1,7.008,7.008,0,0,0-.629-2.68,3.1,3.1,0,0,0-1.232-1.562,1.1,1.1,0,0,0-1.247.165,1.783,1.783,0,0,0-.5,1.171,3.849,3.849,0,0,0,3.139,3.771,4.467,4.467,0,0,0,4.528-2.05,1.552,1.552,0,0,0,.156-1.282,1.074,1.074,0,0,0-1.085-.639,3.813,3.813,0,0,0-1.807.8,7.8,7.8,0,0,0-1.943,1.945,2.371,2.371,0,0,0-.466.891,12.376,12.376,0,0,1,2.639-2.493,3.552,3.552,0,0,1,1.591-.655.571.571,0,0,1,.593.344,1.064,1.064,0,0,1-.151.837,3.988,3.988,0,0,1-3.946,1.733,3.343,3.343,0,0,1-2.711-3.164,1.292,1.292,0,0,1,.312-.832.594.594,0,0,1,.687-.1,2.792,2.792,0,0,1,1.066,1.3,10.321,10.321,0,0,1,.9,3.5" fill="#fff"/>
        <path id="Trazado_705631" data-name="Trazado 705631" d="M147.031,218.2a87.239,87.239,0,0,1,3.306,29.352c-.454,5.9-19.7,171.436-19.7,171.436H103.751l7.557-153.422-2.2.477s-14.676,65.435-15.874,76.029c-1.076,9.523-13.453,78.7-13.453,78.7l-24.581.283,7.851-91.508,9.136-87.8,3.436-25.559Z" fill="#263238"/>
        <path id="Trazado_705632" data-name="Trazado 705632" d="M105.66,37.375l1.074-.062A20.77,20.77,0,0,1,128.5,55.195c1.383,9.968,2.783,21,3.026,26.371C132.025,92.7,121,95.07,121,95.07l.4,4.526a13.537,13.537,0,0,1-26.96,2.471L90.479,60.759c-1.66-11.495,3.645-22.042,15.181-23.384" fill="#ffc09d"/>
        <path id="Trazado_705633" data-name="Trazado 705633" d="M121.088,95.049a27.032,27.032,0,0,1-14.823-3.428s3.889,7.809,14.933,6.169Z" fill="#ff9b6c"/>
        <path id="Trazado_705634" data-name="Trazado 705634" d="M125.382,65.532a1.593,1.593,0,0,1-1.441,1.691,1.522,1.522,0,0,1-1.72-1.338,1.592,1.592,0,0,1,1.439-1.692,1.524,1.524,0,0,1,1.722,1.339" fill="#263238"/>
        <path id="Trazado_705635" data-name="Trazado 705635" d="M126.417,60.769c-.185.219-1.439-.6-3.15-.5-1.709.078-2.912,1.03-3.11.831-.1-.087.083-.473.606-.9a4.368,4.368,0,0,1,2.476-.922,4.2,4.2,0,0,1,2.522.657c.548.373.748.737.656.836" fill="#263238"/>
        <path id="Trazado_705636" data-name="Trazado 705636" d="M110.6,66.581a1.592,1.592,0,0,1-1.44,1.691,1.522,1.522,0,0,1-1.72-1.339,1.592,1.592,0,0,1,1.438-1.691,1.523,1.523,0,0,1,1.722,1.339" fill="#263238"/>
        <path id="Trazado_705637" data-name="Trazado 705637" d="M109.63,62.055c-.186.219-1.442-.6-3.151-.5-1.708.079-2.913,1.03-3.11.831-.1-.087.081-.473.606-.9a4.371,4.371,0,0,1,2.476-.922,4.194,4.194,0,0,1,2.521.657c.548.373.748.738.658.836" fill="#263238"/>
        <path id="Trazado_705638" data-name="Trazado 705638" d="M116.564,74.378a11.278,11.278,0,0,1,2.748-.661c.434-.07.842-.181.9-.483a2.227,2.227,0,0,0-.365-1.277q-.708-1.549-1.483-3.251c-2.065-4.63-3.586-8.447-3.4-8.528s2.014,3.6,4.079,8.235q.747,1.713,1.429,3.273a2.536,2.536,0,0,1,.325,1.7,1.1,1.1,0,0,1-.681.68,2.935,2.935,0,0,1-.736.146,11.191,11.191,0,0,1-2.814.166" fill="#263238"/>
        <path id="Trazado_705639" data-name="Trazado 705639" d="M109.686,55.329c-.142.474-1.862.352-3.853.709-2,.317-3.584,1-3.874.6-.13-.193.127-.646.755-1.134a6.815,6.815,0,0,1,5.887-.994c.753.254,1.145.6,1.085.823" fill="#263238"/>
        <path id="Trazado_705640" data-name="Trazado 705640" d="M125.5,55.857c-.278.406-1.479.07-2.9.133-1.419.013-2.6.411-2.9.021-.132-.19.034-.59.537-.988a4.2,4.2,0,0,1,4.671-.124c.523.371.711.761.589.958" fill="#263238"/>
        <path id="Trazado_705641" data-name="Trazado 705641" d="M127.132,50.147s-3.335-6.8-6.788-8.231c-4.181-1.734-5.675,2.831-9.613,1.97s-7.93-2.526-11.719.7c-4.147,3.529-1.983,5.713-1.967,10.665C97.11,75.326,93.781,81.2,92.2,71.828c-.173-1.026-3.087-1.682-3.763-6.022-.876-5.626-1.489-12.484-.457-16.572.87-3.446,2.665-5.9,5.977-8.673,5.229-4.383,12.727-4.9,17.852-4.683S127.1,41.4,127.132,50.147" fill="#263238"/>
        <path id="Trazado_705642" data-name="Trazado 705642" d="M92.89,71.485a3.025,3.025,0,0,0-3.428-2.723c-2.063.317-4.305,1.628-3.921,5.908.68,7.592,8.162,5.343,8.156,5.124,0-.149-.494-5.134-.807-8.309" fill="#ffc09d"/>
        <path id="Trazado_705643" data-name="Trazado 705643" d="M91.789,77.086c-.036-.021-.124.105-.338.227a1.328,1.328,0,0,1-.987.109c-.829-.222-1.618-1.435-1.778-2.8a4.386,4.386,0,0,1,.2-1.926,1.534,1.534,0,0,1,.9-1.1.677.677,0,0,1,.814.292c.12.2.086.359.127.369.023.017.152-.143.063-.451a.845.845,0,0,0-.342-.448,1,1,0,0,0-.748-.128,1.865,1.865,0,0,0-1.276,1.3,4.5,4.5,0,0,0-.27,2.157c.186,1.526,1.1,2.887,2.224,3.106a1.429,1.429,0,0,0,1.192-.309c.218-.209.242-.383.215-.394" fill="#ff9b6c"/>
        <path id="Trazado_705644" data-name="Trazado 705644" d="M128.745,41.915c-1.169-.879-2.777-1.005-3.938-1.894-2.112-1.619-2.2-5.3-4.683-6.264-1.471-.571-3.125.132-4.694-.031-2.538-.263-3.519-2.181-7.376-2.191a7,7,0,0,0-6.617,3.72,5.773,5.773,0,0,0-5.767.543,6.419,6.419,0,0,0-2.416,4.6s-.793-.4-3.2,1.5c-1.53,1.208-2.779,3.814-3.334,5.682-.828,2.784.381,5.722,1.567,8.373.642,1.435,1.436,3.014,2.926,3.516,1.817.612,3.815-.808,4.524-2.589s1.832-3.571,2.694-5.283c1.5-2.971,3.027-5.743,1.769-7.645a8.673,8.673,0,0,1,5.351-.032c1.744.578,3.265,1.7,5,2.309s3.927.576,5.1-.833a3.73,3.73,0,0,0,5.709,1.238,5.205,5.205,0,0,0,6.813,1.922c2.244-1.354,2.662-5.07.568-6.646" fill="#263238"/>
        <path id="Trazado_705645" data-name="Trazado 705645" d="M87.528,54.172a9.3,9.3,0,0,1,.881,1.74,3.73,3.73,0,0,0,1.252,1.537,3.317,3.317,0,0,0,2.356.272,5.7,5.7,0,0,0,2.279-.962,9.1,9.1,0,0,0,1.486-1.433,11.833,11.833,0,0,1,1.27-1.479,6.562,6.562,0,0,1-1.019,1.679,8.144,8.144,0,0,1-1.488,1.568A5.785,5.785,0,0,1,92.1,58.167a3.625,3.625,0,0,1-2.664-.366,3.841,3.841,0,0,1-1.318-1.754,7.713,7.713,0,0,1-.59-1.875" fill="#455a64"/>
        <path id="Trazado_705646" data-name="Trazado 705646" d="M87.815,60.04a6.257,6.257,0,0,0,1.5.833,4.26,4.26,0,0,0,1.816.156,5.182,5.182,0,0,0,2.089-.8,10.428,10.428,0,0,0,2.86-3.012,8.313,8.313,0,0,1,1.036-1.44,5.989,5.989,0,0,1-.765,1.611,9.235,9.235,0,0,1-2.887,3.224,5.277,5.277,0,0,1-2.286.828,4.234,4.234,0,0,1-1.971-.27c-1.076-.441-1.438-1.123-1.395-1.134" fill="#455a64"/>
        <path id="Trazado_705647" data-name="Trazado 705647" d="M111.709,77.175a9.643,9.643,0,0,0-.431,2.557,2.916,2.916,0,0,0,.83,2.244,3.2,3.2,0,0,0,2.463,1.137h.029a3.552,3.552,0,0,0,3.5-3.022l.3-1.886c-1.786-.483-6.562-.907-6.694-1.03" fill="#ff9b6c"/>
        <path id="Trazado_705648" data-name="Trazado 705648" d="M116.387,82.568c-.011-.036-.224.01-.608.063a5.218,5.218,0,0,1-1.607.012,3.129,3.129,0,0,1-1.956-1.142,3.923,3.923,0,0,1-.769-2.671,3.879,3.879,0,0,1,.408-1.543l-.235.117c1.71.258,3.2.463,4.274.591a7.308,7.308,0,0,0,1.722.123,7.329,7.329,0,0,0-1.677-.412c-1.057-.207-2.543-.47-4.249-.75l-.159-.026-.076.144a4.425,4.425,0,0,0,.432,4.7,3.376,3.376,0,0,0,2.24,1.194,4.427,4.427,0,0,0,1.69-.161c.383-.11.578-.215.57-.24" fill="#263238"/>
        <path id="Trazado_705649" data-name="Trazado 705649" d="M66.386,114.03c-.661,0-10.077,3.765-12.555,13.02s-9.251,43.139-9.251,43.139L37.4,180.13s2.324,18.167,15.54,14.716c0,0,8.819,1.54,11.627-7.4s8.26-35.61,8.26-35.61Z" fill="#455a64"/>
        <path id="Trazado_705650" data-name="Trazado 705650" d="M93.882,98.516l-4.99,7.551-22.506,7.962,6.443,65.258-2.409,34.2a7.719,7.719,0,0,0,7.912,8.258l70.729-2.09c1.771-.049,2.6-2.288,2.892-4.705a16.4,16.4,0,0,0-.566-6.469L147.659,195.4c.553,8.142-1.884-48.558-1.979-50.623l5.451-29.178-25.6-10.353-3.965-6.118L110.04,107.89Z" fill="#455a64"/>
        <path id="Trazado_705651" data-name="Trazado 705651" d="M151.131,115.6s5.152,4.523,6.016,7.969,19.374,43.573,19.374,43.573l9.2,2.483,2.453,5.094a14.184,14.184,0,0,1-4.009,17.447,10.456,10.456,0,0,1-.985.671c-4.971,2.954-13.906,2.838-19.114-3.305-4.932-5.816-19.362-26.743-19.362-26.743v-25.6Z" fill="#455a64"/>
        <path id="Trazado_705652" data-name="Trazado 705652" d="M181.3,171.189l13.23-7.81,6.375,7.81-1.319,3.78-17.055,12.66a11.34,11.34,0,0,1-3.956-6.857c-.8-4.744,2.725-9.583,2.725-9.583" fill="#ffc09d"/>
        <path id="Trazado_705653" data-name="Trazado 705653" d="M177.1,167.155c0,.124-1.122.028-2.782.56a12.347,12.347,0,0,0-5.5,3.808,25.168,25.168,0,0,0-3.5,5.872,14.911,14.911,0,0,1-1.254,2.6,10.3,10.3,0,0,1,.808-2.781,20.809,20.809,0,0,1,3.422-6.128,11.613,11.613,0,0,1,5.885-3.831,5.171,5.171,0,0,1,2.914-.1" fill="#263238"/>
        <path id="Trazado_705654" data-name="Trazado 705654" d="M194.306,167.714a10.307,10.307,0,0,1,3.177-9.531A35.962,35.962,0,0,1,207.93,152.2c2.322-1.038,7.149-5.071,8-4.093a3.2,3.2,0,0,1,0,4.216c-1.222,1.771-8.22,4.434-7.244,6.679.4.92,2.6,1.08,2.6,1.08s8.431.55,11.975.244,6.72.367,6.537,1.589-.855,1.894-3.788,2.138-7.7.061-7.942.733.733,1.1,2.443.978,9.776-.122,10.326.794a1.818,1.818,0,0,1-.978,2.627l-1.894.672s1.1,1.528.184,2.383-2.994.55-2.994.55l-10.692-.305s-.611.644-.306,1.086,8.676-.17,8.737.746.794,1.345-1.711,1.956a33.629,33.629,0,0,1-11.058,0c-2.261-.611-11.731-1.039-11.731-1.039Z" fill="#ffc09d"/>
        <path id="Trazado_705655" data-name="Trazado 705655" d="M49.019,172.586,36.651,162.318l-7.1,7.983.869,3.908L45.88,188.77a10.744,10.744,0,0,0,4.858-5.931c1.537-4.383-1.719-10.253-1.719-10.253" fill="#ffc09d"/>
        <path id="Trazado_705656" data-name="Trazado 705656" d="M36.507,167.619a10.306,10.306,0,0,0-2.044-9.836,35.937,35.937,0,0,0-9.679-7.165c-2.185-1.3-6.508-5.869-7.472-5a3.2,3.2,0,0,0-.491,4.187c1.007,1.9,5.816,4.128,5.645,6.571a1.806,1.806,0,0,1-1.938,1.676s-8.438-.436-11.922-1.153-6.717-.419-6.678.816.629,1.981,3.513,2.565,7.639.958,7.8,1.654-.856,1.007-2.541.686-9.694-1.261-10.347-.414a1.818,1.818,0,0,0,.664,2.723l1.8.888s-1.27,1.389-.46,2.345,2.909.9,2.909.9L15.927,170s.532.711.177,1.114-8.6-1.179-8.764-.276-.946,1.242,1.471,2.141a33.581,33.581,0,0,0,10.983,1.289c2.316-.343,11.772.336,11.772.336Z" fill="#ffc09d"/>
        <path id="Trazado_705657" data-name="Trazado 705657" d="M124.889,107.109a17.417,17.417,0,0,1-2.222,2.312c-1.408,1.384-3.339,3.306-5.383,5.513l-1.258,1.374-.271.3-.244-.313c-1.583-2.031-2.952-3.836-3.909-5.147a10.966,10.966,0,0,1-1.435-2.178,11.084,11.084,0,0,1,1.782,1.9c1.05,1.236,2.485,2.99,4.091,5l-.515-.015,1.259-1.39a72.909,72.909,0,0,1,5.556-5.4,13.155,13.155,0,0,1,2.549-1.958" fill="#263238"/>
        <path id="Trazado_705658" data-name="Trazado 705658" d="M67.851,131.333a5.725,5.725,0,0,1,.365,1.383c.195.9.431,2.2.691,3.825.524,3.24,1.077,7.743,1.537,12.725s.8,9.5,1.051,12.764q.165,2.275.279,3.871a5.781,5.781,0,0,1,.02,1.429,5.737,5.737,0,0,1-.284-1.4c-.14-.907-.308-2.224-.5-3.853-.377-3.258-.791-7.769-1.251-12.747s-.935-9.472-1.335-12.721q-.279-2.262-.475-3.849a5.83,5.83,0,0,1-.1-1.426" fill="#263238"/>
        <path id="Trazado_705659" data-name="Trazado 705659" d="M146.093,129.058a8.619,8.619,0,0,1,.242,1.738c.114,1.123.233,2.751.339,4.764.223,4.027.34,9.6.354,15.745,0,6.078,0,11.574,0,15.739,0,1.909,0,3.508.005,4.769a8.681,8.681,0,0,1-.077,1.753,8.675,8.675,0,0,1-.189-1.745c-.08-1.125-.155-2.754-.221-4.769-.136-4.029-.186-9.6-.2-15.745s-.054-11.705-.153-15.729c-.049-1.908-.09-3.506-.122-4.766a8.637,8.637,0,0,1,.023-1.754" fill="#263238"/>
        <path id="Trazado_705660" data-name="Trazado 705660" d="M57.695,186.761a27.009,27.009,0,0,1-.69-3.464,27.064,27.064,0,0,0-2.671-7.951,14.779,14.779,0,0,0-5.781-5.866,25.4,25.4,0,0,0-3.25-1.263,2.275,2.275,0,0,1,.962.042,9.427,9.427,0,0,1,2.5.789,14.112,14.112,0,0,1,6.162,5.967,23.67,23.67,0,0,1,2.55,8.2,13.8,13.8,0,0,1,.214,3.543" fill="#263238"/>
        <path id="Trazado_705661" data-name="Trazado 705661" d="M60.911,173.251c-.141.161-2.135-1.889-5.369-2.966-3.217-1.129-6.048-.729-6.061-.942-.074-.154,2.872-.892,6.282.3,3.422,1.148,5.3,3.535,5.148,3.612" fill="#263238"/>
        <path id="Trazado_705662" data-name="Trazado 705662" d="M111.656,219.722a6.818,6.818,0,0,1-.073-1.118q-.028-1.191-.076-3.206c-.057-2.85-.136-6.86-.234-11.788-.234-10.011-.556-23.733-.912-38.891-.347-15.193-.554-28.951-.536-38.911,0-4.979.05-9.009.115-11.793q.06-2.016.1-3.206a6.882,6.882,0,0,1,.08-1.117,6.954,6.954,0,0,1,.058,1.119q.012,1.191.033,3.206c.024,2.85.059,6.86.1,11.789.106,9.954.389,23.705.737,38.9s.633,28.94.712,38.9c.047,4.979.044,9.009.017,11.794q-.033,2.016-.053,3.207a6.79,6.79,0,0,1-.064,1.118" fill="#263238"/>
        <path id="Trazado_705663" data-name="Trazado 705663" d="M48.416,172.157a5.24,5.24,0,0,1,1.806,2.329,11.753,11.753,0,0,1,1.054,3.053,12.841,12.841,0,0,1,.053,3.961,10.758,10.758,0,0,1-1.159,3.8,7.507,7.507,0,0,1-2.165,2.436,4.244,4.244,0,0,1-2.778,1,11.785,11.785,0,0,0,2.485-1.386,7.633,7.633,0,0,0,1.9-2.352,11,11,0,0,0,1.035-3.591,13.45,13.45,0,0,0,.005-3.761,13.089,13.089,0,0,0-.872-2.958,28.459,28.459,0,0,0-1.369-2.534" fill="#263238"/>
        <path id="Trazado_705664" data-name="Trazado 705664" d="M185.009,189.05c-.016.039-.316-.032-.827-.247a9.216,9.216,0,0,1-2.012-1.211,10.844,10.844,0,0,1-2.722-14.1,9.256,9.256,0,0,1,1.417-1.873c.395-.39.646-.567.676-.536.091.083-.8.928-1.669,2.64a11.015,11.015,0,0,0,2.606,13.5c1.441,1.265,2.585,1.718,2.531,1.829" fill="#263238"/>
        <path id="Trazado_705665" data-name="Trazado 705665" d="M134.476,159.08a11.007,11.007,0,0,1-1.711,1c-1.12.607-2.76,1.451-4.8,2.466-4.08,2.03-9.784,4.7-16.188,7.417s-12.3,4.945-16.6,6.461c-2.149.759-3.9,1.349-5.112,1.73a11.076,11.076,0,0,1-1.91.531,10.928,10.928,0,0,1,1.821-.781l5.034-1.933c4.249-1.63,10.1-3.931,16.5-6.636s12.117-5.307,16.245-7.224l4.891-2.269a11.043,11.043,0,0,1,1.829-.764" fill="#263238"/>
        <path id="Trazado_705666" data-name="Trazado 705666" d="M210.4,156.063c.08.079-.5.632-1.23,1.6a4.59,4.59,0,0,0-.844,1.876c-.16.77-.149,1.674-.281,2.658a6.471,6.471,0,0,1-2.55,4.3,3.241,3.241,0,0,1-1.908.816c-.043-.106.7-.386,1.6-1.191a6.656,6.656,0,0,0,2.177-4.022,26.635,26.635,0,0,1,.343-2.7,4.635,4.635,0,0,1,1.081-2.041c.884-.952,1.555-1.353,1.607-1.3" fill="#ff9b6c"/>
        <path id="Trazado_705667" data-name="Trazado 705667" d="M17.561,166.578c0,.184-3.333.359-7.441.161s-7.411-.682-7.392-.865,3.336-.008,7.425.183,7.407.328,7.408.521" fill="#ff9b6c"/>
        <path id="Trazado_705668" data-name="Trazado 705668" d="M25.132,166.016c-.016.07-.794-.06-1.734-.857a5.461,5.461,0,0,1-1.882-4.269,13.5,13.5,0,0,1,.462-2.52,7.213,7.213,0,0,0,.253-1.947,6.457,6.457,0,0,0-.416-1.758c.04-.077.732.46.9,1.717a6.433,6.433,0,0,1-.117,2.118,16.916,16.916,0,0,0-.4,2.416,5.492,5.492,0,0,0,1.533,3.893c.771.815,1.449,1.1,1.4,1.207" fill="#ff9b6c"/>
        <path id="Trazado_705669" data-name="Trazado 705669" d="M212.3,168.379c.016-.188,3.566-.046,7.93.318s7.889.81,7.873,1-3.565.045-7.93-.318-7.889-.81-7.873-1" fill="#ff9b6c"/>
        <path id="Trazado_705670" data-name="Trazado 705670" d="M109.354,108.316a24.966,24.966,0,0,1-1.509,3.873l-.835,1.924a21.775,21.775,0,0,1-1.051,2.227,1.432,1.432,0,0,1-1.409.683,3.511,3.511,0,0,1-1.325-.679l-2.354-1.615c-3.222-2.221-6.116-4.263-8.192-5.769a25.194,25.194,0,0,1-3.279-2.554,24.959,24.959,0,0,1,3.554,2.156c2.145,1.405,5.083,3.384,8.3,5.605l2.346,1.627a3.128,3.128,0,0,0,1.052.586.789.789,0,0,0,.791-.4c.757-1.38,1.389-2.869,1.96-3.987a24.974,24.974,0,0,1,1.947-3.672" fill="#263238"/>
      </g>
    </g>
  </g>
</svg>
