<svg id="Grupo_999225" data-name="Grupo 999225" xmlns="http://www.w3.org/2000/svg" xmlns:xlink="http://www.w3.org/1999/xlink" width="453" height="289.349" viewBox="0 0 453 289.349">
  <defs>
    <clipPath id="clip-path">
      <rect id="Rectángulo_345093" data-name="Rectángulo 345093" width="453" height="289.349" fill="none"/>
    </clipPath>
    <clipPath id="clip-path-3">
      <rect id="Rectángulo_345084" data-name="Rectángulo 345084" width="46.934" height="58.65" fill="none"/>
    </clipPath>
    <clipPath id="clip-path-4">
      <rect id="Rectángulo_345082" data-name="Rectángulo 345082" width="24.574" height="49.934" fill="none"/>
    </clipPath>
    <clipPath id="clip-path-5">
      <rect id="Rectángulo_345083" data-name="Rectángulo 345083" width="46.934" height="55.855" fill="none"/>
    </clipPath>
    <clipPath id="clip-path-6">
      <rect id="Rectángulo_345085" data-name="Rectángulo 345085" width="94.051" height="139.962" fill="none"/>
    </clipPath>
    <clipPath id="clip-path-7">
      <rect id="Rectángulo_345086" data-name="Rectángulo 345086" width="113.752" height="100.645" fill="none"/>
    </clipPath>
    <clipPath id="clip-path-8">
      <rect id="Rectángulo_345087" data-name="Rectángulo 345087" width="29.577" height="29.24" fill="none"/>
    </clipPath>
    <clipPath id="clip-path-9">
      <rect id="Rectángulo_345090" data-name="Rectángulo 345090" width="80.9" height="80.899" fill="none"/>
    </clipPath>
  </defs>
  <g id="Grupo_999248" data-name="Grupo 999248" clip-path="url(#clip-path)">
    <g id="Grupo_999247" data-name="Grupo 999247" transform="translate(0 0)">
      <g id="Grupo_999246" data-name="Grupo 999246" clip-path="url(#clip-path)">
        <path id="Trazado_702553" data-name="Trazado 702553" d="M434.747,288.41c-26.684,0-415.4.095-415.621-.594l-.038-.087a.465.465,0,0,1-.038-.128c-.149-.345-59.892-97.134,32.986-164.512,36.34-26.364-2.274-43.767,26.624-73.117,33.211-33.727,69.455,3.583,106.385-11.71a59.354,59.354,0,0,0,19.627-13.713C219.9,9.07,240.858,1.944,262.263.35c41.264-3.054,87.7,14.126,111.666,39.238,4.825,5.057,26.764,31.221,9.47,67.183-10.92,22.706,34.825,44.391,51.079,70.319,41.327,65.921.644,110.462.269,111.321" transform="translate(0 0.001)" fill="#ebf3fa"/>
        <path id="Trazado_702554" data-name="Trazado 702554" d="M826.418,810.437s-.622,9.669-3.97,11.1a2.17,2.17,0,0,1-.8.176c-2.559.065-5.282-2.556-6.558-4.006-.272-.309-.478-.562-.6-.728-1.633-2.149-2.4-4.475,3.566-8.783,3.432-2.48,3.078-15.137,8.367-19.333,3.509-2.785,0,21.57,0,21.57" transform="translate(-669.435 -649.128)" fill="#8c9df4"/>
        <path id="Trazado_702555" data-name="Trazado 702555" d="M725.82,751.389s-.237-5.132-1.591-6.111-2.587-2.863-3.01-2.437,2.135,3.294.945,3.515c-.565.1-4.272-6.256-5.384-5.967s-.86,4.909.218,6.772a45.278,45.278,0,0,0,4.372,5.387Z" transform="translate(-589.38 -609.4)" fill="#ffb27d"/>
        <path id="Trazado_702556" data-name="Trazado 702556" d="M846.036,1581.008h19.3c1.383-.938-.373-10.106-.373-10.106s-5.268-2-6.177,2.066-6.71,5.353-9.777,5.849c-2.1.342-2.763,1.495-2.973,2.192" transform="translate(-696.365 -1292.591)" fill="#1c4b8e"/>
        <path id="Trazado_702557" data-name="Trazado 702557" d="M899.63,1062.324s-.609,11.26-1.37,24.306c-.548,9.354-1.172,19.63-1.707,27.325-.071,1.021-.142,2-.209,2.919-.019.286-.041.57-.062.854a171.584,171.584,0,0,1-6,32.371c-5.427,1.144-7.878-.948-7.878-.948s-3.739-43.82-5.124-61.493c-1.019-13.01-1.888-31.952-1.888-31.952Z" transform="translate(-720.526 -868.943)" fill="#afafaf"/>
        <path id="Trazado_702558" data-name="Trazado 702558" d="M946.5,1166.957c-.548,9.355-1.172,19.63-1.707,27.325-3.548-8.368-10.8-40.984-10.8-40.984Z" transform="translate(-768.763 -949.27)" fill="#636363"/>
        <path id="Trazado_702559" data-name="Trazado 702559" d="M1007.843,1581.008h19.3c1.383-.938-.373-10.106-.373-10.106s-5.268-2-6.177,2.066-6.71,5.353-9.778,5.849c-2.1.342-2.763,1.495-2.973,2.192" transform="translate(-829.547 -1292.591)" fill="#1c4b8e"/>
        <path id="Trazado_702560" data-name="Trazado 702560" d="M905.026,1049.611s13.783,34.309,18.189,47.313c3.139,9.264,11.99,41.761,11.99,41.761a8.9,8.9,0,0,0,7.084-1.093s3.293-33.2-3.359-42.563c-3.529-4.967-.877-51.631-15.186-52.031s-18.718,6.613-18.718,6.613" transform="translate(-744.919 -858.47)" fill="#afafaf"/>
        <path id="Trazado_702561" data-name="Trazado 702561" d="M899.439,800.457c-.022,3.468-.059,6.768-.093,9.624-.022,1.933-.045,3.663-.062,5.1-.027,2.194-.045,3.716-.036,4.263.038,2.952-1.849,3.62-3.8,4.068,0,0-1.8.388-4.065.773a44.559,44.559,0,0,1-6.793.726,61.283,61.283,0,0,1-17.777-2.926c-1.821,0-2.65-2.816-2.949-6.748-.2-2.662.619-29.207.723-35.836.071-4.753,2.68-9.145,3.409-9.788,6.758-5.975,26.7-5.223,30.288-1.1.888,1.019,1.145,10.847,1.176,21.613.009,3.4,0,6.893-.026,10.231" transform="translate(-711.017 -629.976)" fill="#8c9df4"/>
        <path id="Trazado_702562" data-name="Trazado 702562" d="M946.4,727.555c-2.546,2.759-11.1,2.35-10.843-.058.035-.3.09-2.06.118-2.333.022-.219.043-.434.06-.636q.087-.89.144-1.572c.114-1.32.15-2.036.15-2.036h.009c.245-.069,5.743-1.63,8.478-2.277a4.4,4.4,0,0,1,1.516-.252c-.839,6.143,1.2,8.258.368,9.164" transform="translate(-770.047 -591.281)" fill="#ffb27d"/>
        <path id="Trazado_702563" data-name="Trazado 702563" d="M946.336,721.743s-2.3,2.333-8.927,2.5c.114-1.32.151-2.036.151-2.036h.009c.245-.069,5.743-1.63,8.478-2.277.481.2-.157,1.481.29,1.812" transform="translate(-771.574 -592.569)" fill="#ed975d"/>
        <path id="Trazado_702564" data-name="Trazado 702564" d="M923.494,652.96a20.77,20.77,0,0,0,3.819.89c3.13.422,7.246.173,8.539-3.614,2.178-6.374,4.96-10.2-1.449-12.8-3.431-1.394-5.626-1.468-7.116-.936a5.155,5.155,0,0,0-2.637,2.283c-1.245,1.951-3.748,13.059-1.156,14.175" transform="translate(-759.189 -523.648)" fill="#ffb27d"/>
        <path id="Trazado_702565" data-name="Trazado 702565" d="M931.694,613.69a3.024,3.024,0,0,0,1.156,5.5,22.181,22.181,0,0,1,3.757.69c1.594.708,2.964,1.459,2.587,3.932-.128.841-.538,1.865,1.627,1.357a1.053,1.053,0,0,1,.786.047c.9.533-.25,3.115-.6,3.674,0,0-.5,1.85.607,2.75.134.108,2.3,1.057,7.537-6.951a7.437,7.437,0,0,0,.337-6.815c-1.269-2.726-4.807-6.174-11.472-6.174a12.71,12.71,0,0,0-6.327,1.989" transform="translate(-765.751 -503.486)" fill="#233862"/>
        <path id="Trazado_702566" data-name="Trazado 702566" d="M928.474,707.691s-.134.825,1.784,1.484c0,0,1.611.553,1.9-.293a5.47,5.47,0,0,0-3.689-1.191" transform="translate(-764.218 -582.494)" fill="#fff"/>
        <path id="Trazado_702567" data-name="Trazado 702567" d="M1033.582,783.675s9.809,14.656,10.914,31.662c0,0,.743,4.628-5.457,4.092s-10.62-10.711-10.824-19.334,5.367-16.42,5.367-16.42" transform="translate(-846.31 -645.036)" fill="#8c9df4"/>
        <path id="Trazado_702568" data-name="Trazado 702568" d="M1002.466,928.468c-.022,3.468-.059,6.769-.093,9.624-.022,1.933-.045,3.663-.062,5.1-2.99-.541-5.254-6-4.325-9.629.948-3.708-4.742-6.553-7.156-8.967s-1.733-3.7-1.733-3.7Z" transform="translate(-814.044 -757.986)" fill="#6980e2"/>
        <path id="Trazado_702569" data-name="Trazado 702569" d="M1017.643,871.094s-2.129-8.252-2.991-8.252,1.15,3.621.345,4.656-4.929-1.159-5.31.225,8.427,5.108,7.956,3.371" transform="translate(-831.055 -710.198)" fill="#6980e2"/>
        <path id="Trazado_702570" data-name="Trazado 702570" d="M931.135,842.362s-4.236-1.18-4.52-2.664-.3-3.589-1.7-4.41-4.688-1.849-5.282-1.131.641,2.573,1.867,3.809.675,3.89,1.944,4.859a44.667,44.667,0,0,0,5.756,2.879Z" transform="translate(-756.819 -686.388)" fill="#ffb27d"/>
        <path id="Trazado_702571" data-name="Trazado 702571" d="M956.327,851.056s.3-2.171.481-2.894-.361-.419-.6-.146a2.227,2.227,0,0,0-.6,1.754,2.516,2.516,0,0,0,.719,1.286" transform="translate(-786.531 -697.746)" fill="#ffb27d"/>
        <path id="Trazado_702572" data-name="Trazado 702572" d="M951.937,870.5s19.314,7.5,22.073,9.567a6.674,6.674,0,0,1,1.954,7.767c-1.184,2.218-5.474,1.684-11.925-3.082-5.105-3.772-13.8-11.008-13.8-11.008Z" transform="translate(-782.135 -716.5)" fill="#ffb27d"/>
        <path id="Trazado_702573" data-name="Trazado 702573" d="M830.689,951.346v0a2.171,2.171,0,0,1-.8.176c-2.559.065-5.282-2.556-6.558-4.006,1.481-.842,3.947-1.319,5.006-.648,1.725,1.092,1.552-.517,2.354-.517s0,4.994,0,4.994" transform="translate(-677.675 -778.934)" fill="#6980e2"/>
        <path id="Trazado_702574" data-name="Trazado 702574" d="M746.086,803.771s12.012,27.241,16.332,27.6,2.656-7.435,1.736-10.015c-1.035-2.9-5.779-6.972-8.783-10.764a52.384,52.384,0,0,1-4.834-7.979Z" transform="translate(-614.097 -660.624)" fill="#ffb27d"/>
        <g id="Grupo_999233" data-name="Grupo 999233" transform="translate(263.737 24.965)" opacity="0.5">
          <g id="Grupo_999232" data-name="Grupo 999232">
            <g id="Grupo_999231" data-name="Grupo 999231" clip-path="url(#clip-path-3)">
              <g id="Grupo_999227" data-name="Grupo 999227" transform="translate(1.783)" opacity="0.5">
                <g id="Grupo_999226" data-name="Grupo 999226">
                  <g id="Grupo_999225-2" data-name="Grupo 999225" clip-path="url(#clip-path-4)">
                    <path id="Trazado_702575" data-name="Trazado 702575" d="M1500.892,191.054s3.251-30.41,18.587-48.723a3.4,3.4,0,0,1,5.987,2.225c0,.053,0,.106,0,.161-.135,5.419-17.274,28.483-24.571,46.337" transform="translate(-1500.891 -141.12)" fill="#aec3ff"/>
                  </g>
                </g>
              </g>
              <g id="Grupo_999230" data-name="Grupo 999230" transform="translate(0 2.795)" opacity="0.5">
                <g id="Grupo_999229" data-name="Grupo 999229">
                  <g id="Grupo_999228" data-name="Grupo 999228" clip-path="url(#clip-path-5)">
                    <path id="Trazado_702576" data-name="Trazado 702576" d="M1490.809,212.778s15.037-38.145,41.313-55.257a3.6,3.6,0,0,1,4.9.863c.718,1.018,1.054,2.617.294,5.13-2.028,6.7-31.287,29.537-46.5,49.264" transform="translate(-1490.809 -156.923)" fill="#aec3ff"/>
                  </g>
                </g>
              </g>
            </g>
          </g>
        </g>
        <g id="Grupo_999236" data-name="Grupo 999236" transform="translate(186.78 42.568)" opacity="0.5">
          <g id="Grupo_999235" data-name="Grupo 999235">
            <g id="Grupo_999234" data-name="Grupo 999234" clip-path="url(#clip-path-6)">
              <path id="Trazado_702577" data-name="Trazado 702577" d="M1136.124,276.934s-3.7,27.348-8.75,26.345S1133.7,273.1,1133.7,273.1s-20.1-19.452-29.789-21.662c0,0,3.558,16.018-1.085,13.8s-9.918-19.14-9.918-19.14-23.019-12.689-31.783.539-4.819,22.607-1.487,24.722,26.749,9.557,25.137,12.384-18.967,2.442-26.843-3.2c0,0,1.745,27.14,14.865,30.153s19.672-3.553,27.746-1.544,13.124,6.04,8.483,6.852-17.491-5.038-25.646-1.744-14.409,4.915-3.4,11.26,32.7,11.871,39.961,4.195l.907-.96a5.051,5.051,0,0,1-.907.96c1.757,1.995,3.011,9.14,3.734,14.543.06.9.208,2.163.474,3.9h0c.085.774.148,1.406.191,1.846.7,11.8-7.476,29.053-7.476,29.053l2.3,1.516c11.611-16.271,6.751-34.42,6.751-34.42-2.437-13.922,1.286-24.117,1.286-24.117s26.935-5.175,22.069-25.955c0,0-4.959-13.414-13.138-19.157" transform="translate(-1055.798 -240.621)" fill="#aec3ff"/>
            </g>
          </g>
        </g>
        <path id="Trazado_702578" data-name="Trazado 702578" d="M1679.261,288.54s-6.073,18.891-2.488,19.8,5.25-21.538,5.25-21.538,19.07-6.39,26.041-4.821c0,0-13.528,17.491-9.829,17.494s18.621-17.545,18.621-17.545,18.867-1.1,20.453,10.2-3.88,16.16-6.7,16.5-20.316-2.09-20.147.243,11.548,7.463,18.407,6.244c0,0-9.544,17.067-18.99,14.955s-11.661-8.4-17.523-9.6-10.386-.149-7.627,1.816,12.909,2.153,17.178,6.817,7.825,7.655-1.281,8.36-24.9-2.435-27.226-9.664l-.291-.9a3.635,3.635,0,0,0,.291.9c-1.758.75-4.786,5-6.93,8.278-.318.564-.805,1.339-1.517,2.385h0c-.295.476-.532.866-.7,1.139-4.113,7.437-4.154,21.166-4.154,21.166l-1.961.271c-2.49-14.155,6.288-24.423,6.288-24.423a36.6,36.6,0,0,0,6.64-16.045S1655.2,308.87,1664.8,296.9c0,0,7.375-7.166,14.461-8.357" transform="translate(-1364.44 -231.895)" fill="#aec3ff"/>
        <g id="Grupo_999239" data-name="Grupo 999239" transform="translate(249.658 128.863)" opacity="0.5">
          <g id="Grupo_999238" data-name="Grupo 999238">
            <g id="Grupo_999237" data-name="Grupo 999237" clip-path="url(#clip-path-7)">
              <path id="Trazado_702579" data-name="Trazado 702579" d="M1492.36,744.626s-28.614,1.625-27.982,6.931,31.753-4.11,31.753-4.11,18.516,22.382,20.02,32.591c0,0-30.6-9.148-28.681-4.161s33.316,15.985,33.316,15.985,11.278,24.857-3.125,32.862-23.794,3.163-25.716-.458-7.733-28.466-10.79-27.026-4.06,19.439,1.145,28.05c0,0-27.958-4-30.017-17.826s5.267-20.08,3.839-28.6-5.193-14.075-6.409-9.336,3.8,18.516-.266,26.692-6.253,14.521-11.933,2.614-9.649-34.819-1.115-41.712l1.067-.862a5.242,5.242,0,0,0-1.067.862c-1.923-1.98-9.22-3.855-14.755-5.04-.925-.135-2.223-.39-4-.806-.795-.15-1.444-.267-1.9-.347-12.158-1.681,4.115-1.318,4.115-1.318,14.217,3.647,25.073.617,25.073.617s7.533-27.468,28.655-20.752c0,0,13.488,6.218,18.773,15.149" transform="translate(-1411.234 -728.419)" fill="#aec3ff"/>
            </g>
          </g>
        </g>
        <path id="Trazado_702580" data-name="Trazado 702580" d="M1299.716,522.939c-53.594,28.527-64.743,4.251-64.617-9.356.083-7.752,4.23-27.006,6.23-48.239,1.479-15.67,1.813-32.444-1.521-46.447-.146-.6-.229-.959-.229-.959s-9.794-38.4,18.42-57.033,62.076-9.71,76.974,21.859,18.337,111.648-35.257,140.175" transform="translate(-1016.598 -289.118)" fill="#ffb27d"/>
        <path id="Trazado_702581" data-name="Trazado 702581" d="M1490.573,714.5a.329.329,0,0,1-.378-.045c-5.166-4.634-12.966-7.351-23.283-8.1a.3.3,0,0,1-.275-.317.305.305,0,0,1,.317-.273c10.528.763,18.484,3.566,23.749,8.351a.208.208,0,0,1-.042.337Z" transform="translate(-1207.176 -580.912)" fill="#d3784a"/>
        <path id="Trazado_702582" data-name="Trazado 702582" d="M1536.932,875.8a.278.278,0,0,1,.29.309,37.877,37.877,0,0,1-2.756,10.476c-4.124,9.34-9.937,16.337-17.771,21.387q-.892.576-1.8,1.1a.378.378,0,0,1-.393.006.264.264,0,0,1-.126-.229.274.274,0,0,1,.136-.238c.624-.363,1.244-.74,1.86-1.138,7.734-4.987,13.474-11.9,17.552-21.131a37.205,37.205,0,0,0,2.7-10.266.315.315,0,0,1,.3-.279Z" transform="translate(-1246.473 -720.864)" fill="#d3784a"/>
        <g id="Grupo_999242" data-name="Grupo 999242" transform="translate(240.811 86.264)" opacity="0.5">
          <g id="Grupo_999241" data-name="Grupo 999241">
            <g id="Grupo_999240" data-name="Grupo 999240" clip-path="url(#clip-path-8)">
              <path id="Trazado_702583" data-name="Trazado 702583" d="M1370.96,487.618s24.621,14.66,19.005,23.812-27.73,3.963-27.73,3.963-1.836-2.216-.567-6.048c1.5-4.526-.223-6.958,1.542-10.474a66.458,66.458,0,0,1,7.749-11.254" transform="translate(-1361.221 -487.618)" fill="#ed905d"/>
            </g>
          </g>
        </g>
        <path id="Trazado_702584" data-name="Trazado 702584" d="M1309.944,914.589c-3.723,1.728-2.646,7.059-5.795,10.642s-11.772,2.483-14.287-2.237c-2.145-4.03,1.578-6.019,6.414-7.611.659-.216,1.337-.423,2.025-.63l.545-.162a6.526,6.526,0,0,0,3.073-1.794,4.65,4.65,0,0,0,.6-.825,4.979,4.979,0,0,0,.54-1.381c.036-.155.064-.313.088-.474.317-2.187-.543-4.771-1.958-7.063-.106-.172-.216-.342-.327-.511-.245-.368-.486-.76-.711-1.172a16.692,16.692,0,0,1-.943-2.011,11.825,11.825,0,0,1-.894-4.889c.174-2.829,1.811-5.323,6.164-6.2a18.09,18.09,0,0,1,7.4.05,22.142,22.142,0,0,1,5.082,1.759c.3.145.595.295.882.448a28.275,28.275,0,0,1,4.419,2.934c.494.4.936.784,1.322,1.138q.47.432.912.85.66.622,1.256,1.214c19.5,19.3-8.617,14.591-15.806,17.929" transform="translate(-1061.164 -730.831)" fill="#ed905d"/>
        <path id="Trazado_702585" data-name="Trazado 702585" d="M1408.675,584.713c20.467-23.182,19.336-66.006,10.771-88.656s-26.423-31.885-43.96-30.448-19.782,21.442-18.654,33.636,10.058,16.811,14.109,24.129a20.086,20.086,0,0,0,11.646,9.2s10.157,3.794,12.147-.243,2.677-9.3-3.884-12.444-29.2-11.063-31.176-18.419-1.465-25.381,9.823-31.737,22.277,12.428,32.465,15.632,15,7.3,15.433,15.908,4.033,13.24,4.715,17.123,1.087,35.276-8.725,49.157-15.154,10.442-19.588,15.928.865,9.713,5.06,8.752,9.82-7.519,9.82-7.519" transform="translate(-1116.597 -383.12)" fill="#ed905d"/>
        <path id="Trazado_702586" data-name="Trazado 702586" d="M1233.739,1169.541a.3.3,0,0,1-.28-.3,22.3,22.3,0,0,1,7.283-16.718,24.133,24.133,0,0,1,7.239-4.673.3.3,0,0,1,.2.555,24.009,24.009,0,0,0-7.059,4.568,21.721,21.721,0,0,0-7.075,16.271.3.3,0,0,1-.3.295h-.015" transform="translate(-1015.25 -944.774)" fill="#d3784a"/>
        <path id="Trazado_702587" data-name="Trazado 702587" d="M1268.87,768.536c.25,6.981-5.626,11.5-5.626,11.5,1.479-15.67,1.813-32.444-1.521-46.447.75,3.021,3.418,12.544,8.314,16.774,5.855,5.084-1.438,11.19-1.167,18.17" transform="translate(-1038.514 -603.813)" fill="#ed905d"/>
        <path id="Trazado_702588" data-name="Trazado 702588" d="M375.83,674.964c-.655-1.262,14.28-5.808,14.517,6.65,0,0,27.976-.688,14.618-16.281-4.625-5.4-4.149-9.862-4.01-14.016s-2.88-16.232-13.236-15.016a7.711,7.711,0,0,0-6.1.652c-7.7,3.993-24.938,42.606-5.793,38.011" transform="translate(-302.168 -523.452)" fill="#163560"/>
        <path id="Trazado_702589" data-name="Trazado 702589" d="M674.93,905.762s1.821-2.772,3.289-2.827,4.186-.815,3.968-.272-1.9.6-2.066.924,2.5.815,3.261.87,2.555,0,2.5.381-3.233,1.957-5.476,1.74a15.209,15.209,0,0,0-5.015.652Z" transform="translate(-555.529 -742.814)" fill="#ffb27d"/>
        <path id="Trazado_702590" data-name="Trazado 702590" d="M526.058,823.156a27.291,27.291,0,0,0,2.785,4.212c2.164,2.71,5.5,5.841,9.69,6.46a10.4,10.4,0,0,0,5.757-.935l.006,0c5.088-2.258,8.914-7.453,8.914-7.453a4.183,4.183,0,0,0-.571-4.1s-10.274,2.311-11.252,1.822-6.994-13.835-8.078-16.058a12.186,12.186,0,0,0-5.958-6.08Z" transform="translate(-432.994 -659.312)" fill="#ffa561"/>
        <path id="Trazado_702591" data-name="Trazado 702591" d="M540.3,924.633c2.164,2.71,5.5,5.842,9.69,6.459a10.4,10.4,0,0,0,5.757-.935c-.2.026-5.28.654-7.306-2.969-2.066-3.7-4.3-9.568-7.37-7.61-1.324.845-1.265,2.943-.771,5.055" transform="translate(-444.449 -756.576)" fill="#f4904d"/>
        <path id="Trazado_702592" data-name="Trazado 702592" d="M297.288,1546.723s-3.135,2.861-2.523,4.894,3.441,3.388,3.823,5.873,1.911,3.84,3.288,3.84h6.562s1.013-1.748-1.434-2.275-3.369-3.447-3.216-6.157a47.773,47.773,0,0,0-.229-6.324l-5.2-1.2Z" transform="translate(-242.553 -1271.979)" fill="#1c4b8e"/>
        <path id="Trazado_702593" data-name="Trazado 702593" d="M457.357,1559.894s-1.128,12.12.249,12.8l17.613-.036s0-2.032-2.829-2.484-7.8-2.108-8.64-5.8-6.393-4.479-6.393-4.479" transform="translate(-376.089 -1283.936)" fill="#1c4b8e"/>
        <path id="Trazado_702594" data-name="Trazado 702594" d="M382.793,808.214s2.444-2.909,2.707,1.531c.174,2.943.445,13.5.867,14.471,1.06,2.446,2.255,2.844,2.255,2.844l9.248,2.267,3.252.8,10.254-3.063s4.671-13.036,2.8-20.375a56.4,56.4,0,0,0-4.741-12.434s-6.952-2.744-19.262-.695Z" transform="translate(-315.074 -652.545)" fill="#ffa561"/>
        <path id="Trazado_702595" data-name="Trazado 702595" d="M398.094,918.9a28.78,28.78,0,0,0,.867,6.66c1.06,2.446,2.255,2.844,2.255,2.844l9.248,2.267,4.017-1.181s-13.408-2.032-11.922-13.568Z" transform="translate(-327.668 -753.888)" fill="#f4904d"/>
        <path id="Trazado_702596" data-name="Trazado 702596" d="M461.521,997.662s5.078,15.806,5.4,21.188-9.707,76.448-10.111,78.928c-.38,2.338-3.283,3.827-3.283,3.827a4.392,4.392,0,0,1-3.24.249,8.01,8.01,0,0,1-3.479-1.64s-3.953-50.685-1.507-68.79a286.767,286.767,0,0,0,2.475-33.763Z" transform="translate(-365.87 -821.167)" fill="#12263f"/>
        <path id="Trazado_702597" data-name="Trazado 702597" d="M333.778,995s-7.746,10.393-8.468,17.419-1.133,31.7-2.671,38.554-7.191,20.03-7.191,41.393a4.262,4.262,0,0,0,2.4,1.877,19.794,19.794,0,0,0,2.112.584,3.321,3.321,0,0,0,3.714-1.763c3.821-7.694,15.994-32.51,16.619-37.662.442-3.646,4.285-27.773,12.669-41.93,2.013-3.4-1.235-16.916-1.235-16.916Z" transform="translate(-259.642 -818.974)" fill="#12263f"/>
        <path id="Trazado_702598" data-name="Trazado 702598" d="M436.281,983.869a10.645,10.645,0,0,1-6.088,1.694c-4.837.1-16.824-1.233-16.824-1.233a9.911,9.911,0,0,0-.511,3.059s14.64,3.693,23.122.539a5.361,5.361,0,0,0,.3-4.059" transform="translate(-339.819 -809.814)" fill="#233862"/>
        <path id="Trazado_702599" data-name="Trazado 702599" d="M504.932,991.264a2.224,2.224,0,1,1,2.207,2.5,2.369,2.369,0,0,1-2.207-2.5m.732,0a1.5,1.5,0,1,0,1.476-1.767,1.643,1.643,0,0,0-1.476,1.767" transform="translate(-415.605 -813.845)" fill="#fff"/>
        <path id="Trazado_702600" data-name="Trazado 702600" d="M451.855,758.51a20.452,20.452,0,0,0,1.1-7.476l.464.091,7.807,1.546s-.178,2.457-.183,4.771c0,.019,0,.038,0,.058-.01,2.01,1.358,4.027-1.866,4.824-1,.246-8.786-.253-7.318-3.815" transform="translate(-371.767 -618.17)" fill="#ffb27d"/>
        <path id="Trazado_702601" data-name="Trazado 702601" d="M469.336,753.1s-.178,2.457-.183,4.771c-4.369-.123-6.678-4.108-7.624-6.317Z" transform="translate(-379.881 -618.595)" fill="#e8945b"/>
        <path id="Trazado_702602" data-name="Trazado 702602" d="M465.243,691.532s-10.336.171-10.343-6.268-1.346-10.752,5.253-11.133,7.884,2.074,8.409,4.223-.63,12.968-3.319,13.178" transform="translate(-374.329 -554.839)" fill="#ffb27d"/>
        <path id="Trazado_702603" data-name="Trazado 702603" d="M449.4,667.334s-2.83,7.554-7.173,8.67-6.227-.047-6.227-.047a12.3,12.3,0,0,0,4.023-7.266s7.243-4.952,9.377-1.357" transform="translate(-358.866 -548.2)" fill="#163560"/>
        <path id="Trazado_702604" data-name="Trazado 702604" d="M507.778,671.158a6.412,6.412,0,0,1,2.962,2.315,10.406,10.406,0,0,1,1.4,5.911s2.132-5.134-.264-8.038c-2.541-3.08-4.1-.187-4.1-.187" transform="translate(-417.948 -551.411)" fill="#163560"/>
        <path id="Trazado_702605" data-name="Trazado 702605" d="M380.405,797.092s-4.709,1.036-6.778,3.967-4.558,26.729-.6,28.022,8.444-.6,8.617-10a207.06,207.06,0,0,0-1.241-21.988" transform="translate(-305.31 -656.08)" fill="#ffa561"/>
        <path id="Trazado_702606" data-name="Trazado 702606" d="M405.427,870.318a46.777,46.777,0,0,1-6.059,4.507c-3.841,2.36-8.42,4.438-9.45,5.936-1.924,2.8-2.454,7.173-.32,7.746s4.929-.134,9.272-4.939a115.565,115.565,0,0,0,8.1-10.244Z" transform="translate(-319.54 -716.351)" fill="#ffb27d"/>
        <path id="Trazado_702607" data-name="Trazado 702607" d="M484.46,834.3s-.423-4.055-.1-4.988,5.26-3.419,5.339-2.586-1.605,2.04-1.393,3.408c.239,1.536.521,3.4-.284,4.186A18.062,18.062,0,0,0,486,837.3Z" transform="translate(-398.573 -680.33)" fill="#ffb27d"/>
        <path id="Trazado_702608" data-name="Trazado 702608" d="M479.641,853.61a16.045,16.045,0,0,0-1.145-3.192c-.517-.758.9-.362,1.344.553a4.391,4.391,0,0,1-.2,2.638" transform="translate(-393.754 -699.643)" fill="#ffb27d"/>
        <path id="Trazado_702609" data-name="Trazado 702609" d="M736.231,420.834l-4.83-31.817,37.2-14.543.126.321-36.942,14.442,4.789,31.544Z" transform="translate(-602.01 -308.227)" fill="#aec3ff"/>
        <rect id="Rectángulo_345088" data-name="Rectángulo 345088" width="30.584" height="0.345" transform="matrix(0.523, -0.853, 0.853, 0.523, 113.45, 106.885)" fill="#aec3ff"/>
        <path id="Trazado_702610" data-name="Trazado 702610" d="M931.508,361.24a2.591,2.591,0,1,1-3.623.55,2.591,2.591,0,0,1,3.623-.55" transform="translate(-763.319 -296.918)" fill="#163560"/>
        <path id="Trazado_702611" data-name="Trazado 702611" d="M749.148,622.24a2.591,2.591,0,1,1-3.623.55,2.591,2.591,0,0,1,3.623-.55" transform="translate(-613.22 -511.745)" fill="#163560"/>
        <path id="Trazado_702612" data-name="Trazado 702612" d="M633.244,588.338a2.591,2.591,0,1,1-3.623.55,2.591,2.591,0,0,1,3.623-.55" transform="translate(-517.821 -483.84)" fill="#163560"/>
        <path id="Trazado_702613" data-name="Trazado 702613" d="M721.961,443.16a2.591,2.591,0,1,1-3.623.55,2.591,2.591,0,0,1,3.623-.55" transform="translate(-590.843 -364.346)" fill="#8c9df4"/>
        <path id="Trazado_702614" data-name="Trazado 702614" d="M2326.8,1181.167l-.273-.21,11.646-15.1-13.372-17.873.276-.207,13.529,18.083Z" transform="translate(-1913.521 -944.722)" fill="#aec3ff"/>
        <path id="Trazado_702615" data-name="Trazado 702615" d="M2310.931,1136.3a2.591,2.591,0,1,1,2.591,2.591,2.592,2.592,0,0,1-2.591-2.591" transform="translate(-1902.108 -933.147)" fill="#163560"/>
        <path id="Trazado_702616" data-name="Trazado 702616" d="M2392.724,1243.627a1.476,1.476,0,1,1,1.476,1.476,1.476,1.476,0,0,1-1.476-1.476" transform="translate(-1969.431 -1022.404)" fill="#ccdbfd"/>
        <path id="Trazado_702617" data-name="Trazado 702617" d="M2327.414,1329.08a1.476,1.476,0,1,1,1.476,1.476,1.475,1.475,0,0,1-1.476-1.476" transform="translate(-1915.675 -1092.74)" fill="#ccdbfd"/>
        <path id="Trazado_702618" data-name="Trazado 702618" d="M1550.323,1313.927l-.146-.312,39.134-18.3h50.221l29.711-13.091.139.315-29.777,13.121h-50.217Z" transform="translate(-1275.938 -1055.391)" fill="#aec3ff"/>
        <rect id="Rectángulo_345089" data-name="Rectángulo 345089" width="0.345" height="42.365" transform="translate(363.563 240.259) rotate(-66.998)" fill="#aec3ff"/>
        <path id="Trazado_702619" data-name="Trazado 702619" d="M1535.943,1448.473a2.591,2.591,0,1,1,2.591,2.591,2.591,2.591,0,0,1-2.591-2.591" transform="translate(-1264.222 -1190.093)" fill="#8c9df4"/>
        <path id="Trazado_702620" data-name="Trazado 702620" d="M1765.495,1350.21a1.5,1.5,0,1,1,1.5,1.5,1.5,1.5,0,0,1-1.5-1.5" transform="translate(-1453.165 -1110.113)" fill="#ccdbfd"/>
        <path id="Trazado_702621" data-name="Trazado 702621" d="M2045.247,1345.122a2.591,2.591,0,1,1,2.591,2.591,2.591,2.591,0,0,1-2.591-2.591" transform="translate(-1683.426 -1105.026)" fill="#8c9df4"/>
        <path id="Trazado_702622" data-name="Trazado 702622" d="M2208.958,1271.064a2.591,2.591,0,1,1,2.591,2.591,2.591,2.591,0,0,1-2.591-2.591" transform="translate(-1818.175 -1044.069)" fill="#ccdbfd"/>
        <path id="Trazado_702623" data-name="Trazado 702623" d="M2261.259,1438.725a2.591,2.591,0,1,1,2.591,2.591,2.591,2.591,0,0,1-2.591-2.591" transform="translate(-1861.224 -1182.07)" fill="#ccdbfd"/>
        <path id="Trazado_702624" data-name="Trazado 702624" d="M1837.071,1432.252H1817.6l-19.043-9.329.152-.31,18.971,9.294h19.393Z" transform="translate(-1480.376 -1170.941)" fill="#aec3ff"/>
        <path id="Trazado_702625" data-name="Trazado 702625" d="M1997.981,1464.07a2.591,2.591,0,1,1,2.591,2.591,2.591,2.591,0,0,1-2.591-2.591" transform="translate(-1644.522 -1202.931)" fill="#ccdbfd"/>
        <path id="Trazado_702626" data-name="Trazado 702626" d="M1785.01,1411.432a2.591,2.591,0,1,1,2.591,2.591,2.591,2.591,0,0,1-2.591-2.591" transform="translate(-1469.227 -1159.605)" fill="#ccdbfd"/>
        <path id="Trazado_702627" data-name="Trazado 702627" d="M1898.6,1470.1a1.3,1.3,0,1,1,1.3,1.3,1.3,1.3,0,0,1-1.3-1.3" transform="translate(-1562.723 -1208.959)" fill="#163560"/>
        <path id="Trazado_702628" data-name="Trazado 702628" d="M676.7,1561.713h13.285c.712-.6-.493-1.975-1.751-2.067a7.747,7.747,0,0,0-2.028.24c-.183-2.428-1.227-13.344-5.161-12.9-4.424.491,0,4.807,1.251,7.362a60.707,60.707,0,0,1,2.35,5.887c-.359.078-.731.154-1.111.224-.586-1.8-2.768-7.856-5.543-7.5-3.258.413-1.948,2.841.361,4.283,1.694,1.06,3.774,2.566,4.762,3.294a14.145,14.145,0,0,1-2.6.208,5.6,5.6,0,0,0-3.817.977" transform="translate(-556.445 -1273.297)" fill="#a8d29f"/>
        <path id="Trazado_702629" data-name="Trazado 702629" d="M2036.313,1560.866h-13.448c-.721-.611.5-2,1.773-2.093a7.845,7.845,0,0,1,2.052.243c.185-2.458,1.242-13.508,5.225-13.064,4.478.5,0,4.866-1.266,7.453a61.475,61.475,0,0,0-2.379,5.96c.364.079.74.156,1.124.227.594-1.823,2.8-7.953,5.611-7.6,3.3.419,1.972,2.876-.365,4.335-1.715,1.073-3.821,2.6-4.821,3.335a14.341,14.341,0,0,0,2.63.21,5.67,5.67,0,0,1,3.864.99" transform="translate(-1664.826 -1272.45)" fill="#a8d29f"/>
        <path id="Trazado_702630" data-name="Trazado 702630" d="M1235.55,1520.548c1.108.449,5.069.086,5.2-.231s-2.462-3.334-3.57-3.783a2.165,2.165,0,1,0-1.626,4.014" transform="translate(-1015.858 -1248.116)" fill="#a8d29f"/>
        <path id="Trazado_702631" data-name="Trazado 702631" d="M1294.932,1545.814c-.622,1.021-.9,4.988-.612,5.166s3.688-1.891,4.31-2.912a2.165,2.165,0,0,0-3.7-2.253" transform="translate(-1065.249 -1271.492)" fill="#a8d29f"/>
        <path id="Trazado_702632" data-name="Trazado 702632" d="M1261.13,1574.854c1.139.363,5.06-.3,5.164-.625s-2.708-3.137-3.848-3.5a2.165,2.165,0,0,0-1.316,4.126" transform="translate(-1036.785 -1292.769)" fill="#a8d29f"/>
        <path id="Trazado_702633" data-name="Trazado 702633" d="M1275.82,1551.957c0-.09-.442-9.068-5.358-13.7l.1-.111c4.961,4.678,5.4,13.717,5.406,13.808Z" transform="translate(-1045.707 -1266.033)" fill="#a8d29f"/>
        <path id="Trazado_702634" data-name="Trazado 702634" d="M1376.9,1528.26a1.982,1.982,0,1,1-1.66-2.5,1.5,1.5,0,0,1,1.66,2.5" transform="translate(-1130.375 -1255.633)" fill="#a8d29f"/>
        <path id="Trazado_702635" data-name="Trazado 702635" d="M1344.544,1553.9a1.982,1.982,0,1,1-2.2,2.042,1.5,1.5,0,1,1,2.2-2.042" transform="translate(-1104.543 -1278.604)" fill="#a8d29f"/>
        <path id="Trazado_702636" data-name="Trazado 702636" d="M1366.452,1568.67a1.982,1.982,0,1,1-1.465-2.619,1.5,1.5,0,1,1,1.465,2.619" transform="translate(-1121.753 -1288.846)" fill="#a8d29f"/>
        <path id="Trazado_702637" data-name="Trazado 702637" d="M1362.793,1553.969c-.01-.062-.955-6.218,1.741-10.046l-.086-.061c-2.721,3.863-1.769,10.061-1.76,10.123Z" transform="translate(-1121.478 -1270.741)" fill="#a8d29f"/>
        <path id="Trazado_702638" data-name="Trazado 702638" d="M1306.4,1484.379l-.313-.05a95.394,95.394,0,0,0-6.167-27.531l.285-.123a95.725,95.725,0,0,1,6.195,27.7" transform="translate(-1069.958 -1198.977)" fill="#a8d29f"/>
        <path id="Trazado_702639" data-name="Trazado 702639" d="M1279.348,1435.607a2.169,2.169,0,1,0,2.462-2.173,1.642,1.642,0,1,0-2.462,2.173" transform="translate(-1052.682 -1179.39)" fill="#fff"/>
        <path id="Trazado_702640" data-name="Trazado 702640" d="M1301.533,1431.829a2.169,2.169,0,1,0,2.633,1.963,1.642,1.642,0,0,0-2.633-1.963" transform="translate(-1070.561 -1177.982)" fill="#fff"/>
        <path id="Trazado_702641" data-name="Trazado 702641" d="M1305.762,1452.541a2.169,2.169,0,1,0-.864,3.168,1.642,1.642,0,1,0,.864-3.168" transform="translate(-1071.557 -1195.531)" fill="#fff"/>
        <path id="Trazado_702642" data-name="Trazado 702642" d="M1297.384,1459.207a8.421,8.421,0,0,0-1.98-3.412,8.429,8.429,0,0,0-1.289,3.728,1.642,1.642,0,0,0,3.269-.316" transform="translate(-1065.171 -1198.253)" fill="#fff"/>
        <path id="Trazado_702643" data-name="Trazado 702643" d="M1276.135,1458.788a2.169,2.169,0,1,0-1.526-2.908,1.642,1.642,0,1,0,1.526,2.908" transform="translate(-1048.396 -1198.028)" fill="#fff"/>
        <path id="Trazado_702644" data-name="Trazado 702644" d="M1297.915,1453.741a.541.541,0,1,1,.449.619.541.541,0,0,1-.449-.619" transform="translate(-1068.298 -1196.187)" fill="#f77d48"/>
        <path id="Trazado_702645" data-name="Trazado 702645" d="M1328.591,1516.762c-.893,1.1-1.855,5.7-1.542,5.956s4.624-1.627,5.516-2.724a2.561,2.561,0,1,0-3.974-3.231" transform="translate(-1092.233 -1247.656)" fill="#a8d29f"/>
        <path id="Trazado_702646" data-name="Trazado 702646" d="M1193.236,1538.333a74.089,74.089,0,0,1,5.6,12.674c-.11-.031-.2-.047-.315-.079a73.644,73.644,0,0,0-5.5-12.454Z" transform="translate(-981.961 -1266.189)" fill="#a8d29f"/>
        <path id="Trazado_702647" data-name="Trazado 702647" d="M1173.382,1521.587a1.9,1.9,0,1,0,1.893-2.176,1.442,1.442,0,0,0-1.893,2.176" transform="translate(-965.393 -1250.323)" fill="#fff"/>
        <path id="Trazado_702648" data-name="Trazado 702648" d="M1193.576,1515.449a1.9,1.9,0,1,0,2.519,1.405,1.442,1.442,0,1,0-2.519-1.405" transform="translate(-982.111 -1246.744)" fill="#fff"/>
        <path id="Trazado_702649" data-name="Trazado 702649" d="M1197.883,1532.312a1.9,1.9,0,1,0-.387,2.858,1.442,1.442,0,1,0,.387-2.858" transform="translate(-983.239 -1261.226)" fill="#fff"/>
        <path id="Trazado_702650" data-name="Trazado 702650" d="M1192.852,1540.3a1.9,1.9,0,1,0-2.809.652,1.442,1.442,0,1,0,2.809-.652" transform="translate(-979.489 -1265.547)" fill="#fff"/>
        <path id="Trazado_702651" data-name="Trazado 702651" d="M1173.347,1540.853a1.9,1.9,0,1,0-1.664-2.356,1.442,1.442,0,0,0,1.664,2.356" transform="translate(-963.901 -1265.758)" fill="#fff"/>
        <path id="Trazado_702652" data-name="Trazado 702652" d="M1191.083,1535.866a.475.475,0,1,1,.462.487.475.475,0,0,1-.462-.487" transform="translate(-980.371 -1263.778)" fill="#f77d48"/>
        <path id="Trazado_702653" data-name="Trazado 702653" d="M1218.494,1563.879a2.287,2.287,0,1,0,2.949,1.813,1.731,1.731,0,1,0-2.949-1.813" transform="translate(-1002.443 -1286.537)" fill="#a8d29f"/>
        <path id="Trazado_702654" data-name="Trazado 702654" d="M1433.37,1473.79l.342-.054a104.278,104.278,0,0,1,6.74-30.09l-.311-.134a104.594,104.594,0,0,0-6.771,30.279" transform="translate(-1179.795 -1188.142)" fill="#a8d29f"/>
        <path id="Trazado_702655" data-name="Trazado 702655" d="M1475.312,1420.483a2.371,2.371,0,1,1-2.691-2.376,1.795,1.795,0,0,1,2.691,2.376" transform="translate(-1211.046 -1166.733)" fill="#fff"/>
        <path id="Trazado_702656" data-name="Trazado 702656" d="M1452.148,1416.355a2.371,2.371,0,1,1-2.878,2.145,1.795,1.795,0,0,1,2.878-2.145" transform="translate(-1192.589 -1165.196)" fill="#fff"/>
        <path id="Trazado_702657" data-name="Trazado 702657" d="M1441.065,1438.992a2.371,2.371,0,1,1,.944,3.463,1.795,1.795,0,1,1-.944-3.463" transform="translate(-1185.039 -1184.375)" fill="#fff"/>
        <path id="Trazado_702658" data-name="Trazado 702658" d="M1459.493,1446.279a2.371,2.371,0,1,1,3.573.345,1.795,1.795,0,1,1-3.573-.345" transform="translate(-1201.29 -1187.35)" fill="#fff"/>
        <path id="Trazado_702659" data-name="Trazado 702659" d="M1474.872,1445.821a2.371,2.371,0,1,1,1.669-3.178,1.795,1.795,0,0,1-1.669,3.178" transform="translate(-1211.78 -1187.105)" fill="#fff"/>
        <path id="Trazado_702660" data-name="Trazado 702660" d="M1470.1,1440.305a.591.591,0,1,0-.491.677.592.592,0,0,0,.491-.677" transform="translate(-1209.059 -1185.093)" fill="#f77d48"/>
        <path id="Trazado_702661" data-name="Trazado 702661" d="M1405.756,1535.551c.975,1.2,2.028,6.231,1.686,6.51s-5.054-1.778-6.029-2.977a2.8,2.8,0,1,1,4.343-3.532" transform="translate(-1152.975 -1263.049)" fill="#a8d29f"/>
        <path id="Trazado_702662" data-name="Trazado 702662" d="M1441.618,1545.362c-1.375.707-4.358,4.894-4.156,5.286s5.342.4,6.717-.308a2.8,2.8,0,1,0-2.561-4.978" transform="translate(-1183.155 -1271.719)" fill="#a8d29f"/>
        <path id="Trazado_702663" data-name="Trazado 702663" d="M1172.8,1599.109s1.574-4.139,7.291-4.4,9.653,3.118,14.377,1.559,12.541-5.08,19.936-2.735,8.642,5.575,8.642,5.575Z" transform="translate(-965.322 -1310.98)" fill="#a8d29f"/>
        <g id="Grupo_999245" data-name="Grupo 999245" transform="translate(292.757 120.015)" opacity="0.8">
          <g id="Grupo_999244" data-name="Grupo 999244">
            <g id="Grupo_999243" data-name="Grupo 999243" clip-path="url(#clip-path-9)">
              <path id="Trazado_702664" data-name="Trazado 702664" d="M1724.415,759.3H1666.19a11.37,11.37,0,0,1-11.337-11.337V689.74A11.37,11.37,0,0,1,1666.19,678.4h58.225a11.37,11.37,0,0,1,11.337,11.337v58.225a11.37,11.37,0,0,1-11.337,11.337" transform="translate(-1654.852 -678.403)" fill="#fff"/>
            </g>
          </g>
        </g>
        <rect id="Rectángulo_345091" data-name="Rectángulo 345091" width="27.558" height="27.558" transform="translate(305.045 146.144)" fill="#163560"/>
        <path id="Trazado_702665" data-name="Trazado 702665" d="M1896.842,719.675,1880.091,738.5v27.558l16.751,15.756Z" transform="translate(-1547.488 -592.359)" fill="#163560"/>
        <path id="Trazado_702666" data-name="Trazado 702666" d="M1686.694,837.329a2.038,2.038,0,0,1-1.2-3.687l56.9-41.341a2.038,2.038,0,1,1,2.4,3.3l-56.9,41.342a2.03,2.03,0,0,1-1.2.389" transform="translate(-1386.625 -651.815)" fill="#f77d48"/>
        <path id="Trazado_702667" data-name="Trazado 702667" d="M2001.937,891.427a.481.481,0,0,1-.386-.767,8.284,8.284,0,0,0,1.457-7.209,10.189,10.189,0,0,0-1.457-3.288.481.481,0,1,1,.773-.572,11.052,11.052,0,0,1,1.617,3.63,9.331,9.331,0,0,1-1.617,8.011.481.481,0,0,1-.387.195" transform="translate(-1647.382 -723.824)" fill="#163560"/>
        <path id="Trazado_702668" data-name="Trazado 702668" d="M2027.765,879.136a.481.481,0,0,1-.386-.767,13.6,13.6,0,0,0,2.4-11.8,16.8,16.8,0,0,0-2.4-5.426.481.481,0,0,1,.773-.572,17.442,17.442,0,0,1,2.552,5.733,14.72,14.72,0,0,1-2.552,12.639.48.48,0,0,1-.387.195" transform="translate(-1668.641 -708.167)" fill="#163560"/>
        <path id="Trazado_702669" data-name="Trazado 702669" d="M2054.181,869.153a.481.481,0,0,1-.386-.767,18.481,18.481,0,0,0,3.542-8.306,18.729,18.729,0,0,0-.383-7.254,22.1,22.1,0,0,0-3.159-7.134.481.481,0,0,1,.773-.572,22.659,22.659,0,0,1,3.311,7.442,19.71,19.71,0,0,1,.413,7.638,19.423,19.423,0,0,1-3.723,8.759.481.481,0,0,1-.387.195" transform="translate(-1690.385 -695.451)" fill="#163560"/>
        <path id="Trazado_702670" data-name="Trazado 702670" d="M477.22,1629.1H40.457a.539.539,0,0,1-.537-.537v-.287a.539.539,0,0,1,.537-.537H477.22a.539.539,0,0,1,.537.537v.287a.539.539,0,0,1-.537.537" transform="translate(-32.858 -1339.782)" fill="#233862"/>
      </g>
    </g>
  </g>
</svg>
