<svg xmlns="http://www.w3.org/2000/svg" xmlns:xlink="http://www.w3.org/1999/xlink" width="352.329" height="362.484" viewBox="0 0 352.329 362.484">
  <defs>
    <clipPath id="clip-path">
      <rect id="Rectángulo_344285" data-name="Rectángulo 344285" width="352.329" height="325.789" fill="none"/>
    </clipPath>
    <clipPath id="clip-path-2">
      <path id="Trazado_693562" data-name="Trazado 693562" d="M992.1,513.819l-7.705,29.6-13.155,5.168.727,6.7.121,1.1s15.221-1.034,17.194-1.879,10.147-13.813,10.147-13.813l-.49-9.493-1.115-21.548Z" transform="translate(-971.239 -509.652)" fill="none"/>
    </clipPath>
    <linearGradient id="linear-gradient" x1="-8.221" y1="5.154" x2="-8.212" y2="5.154" gradientUnits="objectBoundingBox">
      <stop offset="0" stop-color="#7c58ef"/>
      <stop offset="1" stop-color="#da7de4"/>
    </linearGradient>
    <clipPath id="clip-path-3">
      <rect id="Rectángulo_344287" data-name="Rectángulo 344287" width="352.329" height="362.484" fill="none"/>
    </clipPath>
    <clipPath id="clip-path-4">
      <path id="Trazado_693564" data-name="Trazado 693564" d="M1047.5,503.5s-4.348,18.527-3.807,21.867a70.955,70.955,0,0,0,3.347,9.851c1.033,2.633,1.9,4.7,1.9,4.7l-.828,9.466.674.867,2.4,3.073a43.1,43.1,0,0,0,11.472,2.663c.425.032.85.057,1.277.069,2.038.071,3.9.106,5.291.084,5.884-.1,7.063.01,7.063.01l.205-.338-1.638-4.375-.146-.393s4.34-13.779,4.2-20.565a62.367,62.367,0,0,1,.326-6.818c.106-1.139.23-2.268.36-3.342.176-1.445.363-2.789.531-3.923.306-2.087.551-3.468.551-3.468l-4.093-11.778-.109-.262-10.333-3.888Z" transform="translate(-1043.647 -497.007)" fill="none"/>
    </clipPath>
    <linearGradient id="linear-gradient-2" x1="-6.621" y1="4.122" x2="-6.615" y2="4.122" xlink:href="#linear-gradient"/>
    <clipPath id="clip-path-5">
      <rect id="Rectángulo_344289" data-name="Rectángulo 344289" width="352.329" height="326.072" fill="none"/>
    </clipPath>
    <clipPath id="clip-path-6">
      <path id="Trazado_693589" data-name="Trazado 693589" d="M1095.922,520.21l-4.326,24.831-13.508,1.226.556,5.219.2,1.878.153,1.449,6.287.915s13.959,1.1,15.137.688,4.019-9.567,4.019-9.567l4.449-11.717a41.65,41.65,0,0,0-.648-13.35s0-.013,0-.018c-.049-.171-.1-.333-.149-.495a21.783,21.783,0,0,0-5.377-8.1,1.979,1.979,0,0,0-.416-.044c-3.109,0-6.371,7.089-6.371,7.089" transform="translate(-1078.088 -513.121)" fill="none"/>
    </clipPath>
    <linearGradient id="linear-gradient-3" x1="-8.185" y1="5.492" x2="-8.177" y2="5.492" xlink:href="#linear-gradient"/>
    <clipPath id="clip-path-7">
      <rect id="Rectángulo_344294" data-name="Rectángulo 344294" width="352.329" height="327.484" fill="none"/>
    </clipPath>
  </defs>
  <g id="Grupo_896118" data-name="Grupo 896118" transform="translate(0 -0.002)">
    <g id="Grupo_896118-2" data-name="Grupo 896118" transform="translate(0 0.002)">
      <g id="Grupo_896117" data-name="Grupo 896117" clip-path="url(#clip-path)">
        <path id="Trazado_693432" data-name="Trazado 693432" d="M554.156,1241.02s20.8-7.1,35.784-6.912,83.424,4.419,89.624-2.729,39.452-1.786,44.957-8.664,19.237-31.945-70.075-31.945-114.068-6.553-114.068-6.553Z" transform="translate(-422.819 -944.354)" fill="#ed9aa9"/>
        <path id="Trazado_693433" data-name="Trazado 693433" d="M158.072,1244.674c0,15.734-35.386,28.489-79.036,28.489S0,1260.408,0,1244.674s35.385-28.489,79.036-28.489,79.036,12.755,79.036,28.489" transform="translate(0 -969.367)" fill="#ed9aa9"/>
        <path id="Trazado_693434" data-name="Trazado 693434" d="M737.59,1453.36c0,4.438-15.966,8.036-35.66,8.036s-35.661-3.6-35.661-8.036,15.966-8.036,35.661-8.036,35.66,3.6,35.66,8.036" transform="translate(-521.324 -1148.657)" fill="#ed9aa9"/>
        <path id="Trazado_693435" data-name="Trazado 693435" d="M353.673,338.3c0,.565-.016,1.134-.045,1.7-.01.161-.018.322-.027.483-.006.118-.014.238-.026.355-.01.145-.022.292-.033.44s-.026.292-.039.439c0,.051-.01.1-.014.151-.016.159-.033.32-.051.479v.006c-.022.192-.043.385-.069.577s-.047.373-.073.559c0,.023-.008.047-.012.073q-.035.259-.077.518l-.006.035c-.027.177-.055.353-.084.528l-.012.063c-.031.185-.065.367-.1.55s-.073.389-.112.581-.073.363-.112.544l-.018.082c-.039.179-.078.357-.12.534s-.08.343-.122.516c-.012.045-.022.088-.034.132-.041.171-.084.339-.129.508s-.086.334-.131.5c-.018.061-.034.122-.051.181-.031.114-.063.226-.1.34s-.059.208-.09.312c-.039.134-.079.265-.12.4-.11.363-.228.724-.347,1.085-.014.043-.027.084-.043.126l-.071.212h0c-.033.1-.067.194-.1.29-.067.19-.134.379-.2.567s-.13.349-.2.524c-.079.206-.159.412-.243.616-.069.175-.141.351-.214.526-.008.018-.014.035-.022.053-.059.137-.118.277-.179.414-.1.238-.2.473-.31.709q-.229.506-.471,1.007c-.018.033-.033.069-.051.1-.08.167-.163.332-.247.5-.067.132-.133.263-.2.392q-.182.356-.373.707c-.059.112-.12.22-.179.33-.1.18-.2.361-.3.54v0l-.124.218c-.078.134-.155.267-.235.4l-.018.029c-.1.167-.2.334-.3.5-.086.141-.173.283-.263.424-.075.122-.151.241-.23.363-.1.153-.2.3-.3.455-.018.027-.037.055-.055.084-.1.157-.21.312-.316.467q-.138.2-.283.406c-.149.214-.3.428-.457.64-.106.149-.216.3-.328.443s-.224.3-.34.446c-.016.023-.031.045-.047.065-.12.153-.241.308-.363.459-.1.122-.192.243-.292.363-.3.371-.607.734-.92,1.093-.126.141-.249.281-.375.42s-.255.281-.385.42q-1.089,1.181-2.281,2.277c-.149.137-.3.273-.451.408q-1.366,1.222-2.855,2.318c-.1.071-.192.139-.292.208s-.194.135-.294.2q-.312.209-.648.408c-.1.059-.2.116-.3.173l-.061.035c-.108.061-.216.122-.328.181s-.23.124-.347.186c0,0-.006,0-.01,0-.122.063-.245.126-.369.186-.553.275-1.144.538-1.766.793l-.269.108-.3.118c-.082.031-.169.063-.253.1s-.186.069-.283.1-.188.069-.285.1q-.568.2-1.169.4l-.734.23c-.175.053-.349.106-.528.157l-.467.135-.359.1-.151.041c-.222.059-.446.12-.671.177l-.342.088q-.341.088-.695.171c-.132.033-.265.065-.4.1q-.509.118-1.034.234c-.249.055-.5.11-.756.163-.345.072-.7.143-1.052.212-.587.116-1.185.226-1.8.333-.347.061-.7.12-1.05.179l-.241.039v0l-.169.025q-.621.1-1.254.194-.827.127-1.68.241-1.11.153-2.265.29c-.149.02-.3.037-.453.055s-.314.037-.473.055q-1.095.127-2.225.241c-.349.035-.7.07-1.056.1-.231.023-.465.045-.7.067q-2.09.194-4.288.355l-1.009.071c-.206.016-.412.029-.62.043l-.243.016-1.138.072q-2.161.133-4.412.24l-.834.039-.571.024c-.336.016-.671.029-1.009.043l-.938.035q-4.707.18-9.75.257-.665.012-1.336.02-1.342.018-2.706.03-.683.006-1.368.01t-1.38.008c-.408,0-.818,0-1.228,0-51.855.12-123.888-5.785-171.036-4.961q-1.654.029-3.244.01c-.206,0-.41-.006-.614-.01-.161,0-.32-.006-.479-.01q-.447-.009-.889-.023c-.316-.01-.632-.022-.944-.034-.247-.01-.493-.022-.738-.033l-.559-.029-.218-.012c-.218-.012-.434-.026-.65-.039-.375-.023-.746-.051-1.115-.079l-.587-.047-.4-.036q-.789-.068-1.558-.151c-.147-.016-.294-.032-.439-.049-.2-.022-.394-.045-.591-.069-.432-.051-.861-.106-1.283-.165-.269-.035-.536-.075-.8-.114-.214-.032-.426-.063-.638-.1-.184-.027-.369-.057-.551-.088-.208-.034-.414-.069-.62-.1-.222-.039-.442-.078-.661-.12q-1.013-.185-1.984-.394c-.271-.059-.538-.118-.8-.179-.245-.057-.491-.114-.732-.173l-.18-.045c-.206-.049-.408-.1-.61-.153l-.2-.051c-.241-.063-.479-.128-.716-.192l-.073-.02c-.239-.067-.479-.133-.714-.2-.259-.075-.518-.151-.773-.23s-.51-.157-.762-.24l-.027-.008c-.239-.077-.475-.155-.71-.235a.1.1,0,0,1-.024-.008c-.241-.082-.481-.165-.718-.249s-.477-.171-.711-.257l-.01,0c-.228-.086-.453-.171-.675-.257l-.067-.027c-.222-.086-.444-.175-.661-.265-.451-.183-.893-.373-1.327-.567a.121.121,0,0,1-.023-.01c-.147-.065-.292-.131-.438-.2-.2-.092-.4-.184-.593-.279q-1.057-.507-2.045-1.05-.209-.112-.412-.23c-.147-.08-.29-.165-.434-.247q-.648-.377-1.266-.771l-.357-.229q-1.257-.818-2.385-1.7c-.108-.082-.214-.167-.318-.251-.238-.188-.473-.381-.7-.577-.116-.1-.23-.194-.341-.292-.212-.184-.422-.371-.626-.557-.122-.112-.241-.224-.361-.338s-.263-.251-.392-.379c-.149-.145-.294-.29-.438-.437s-.279-.286-.416-.432l-.21-.226c-.234-.253-.459-.508-.681-.766-.059-.067-.116-.135-.173-.2q-.4-.471-.771-.954c-.108-.135-.212-.273-.314-.41q-.38-.509-.734-1.03c-.063-.092-.126-.186-.186-.281l-.059-.088c-.1-.155-.2-.312-.3-.469-.053-.082-.106-.167-.155-.251s-.09-.143-.134-.218c-.088-.143-.173-.288-.255-.434-.074-.127-.147-.255-.218-.385-.045-.082-.092-.165-.135-.247-.065-.116-.128-.234-.186-.349-.047-.088-.092-.177-.137-.265s-.1-.2-.149-.3c-.018-.033-.034-.069-.051-.1-.006-.014-.014-.028-.02-.041-.057-.118-.114-.235-.169-.355q-.25-.53-.477-1.069l-.147-.359c-.049-.122-.1-.243-.145-.365s-.09-.237-.134-.357-.09-.241-.131-.363-.082-.23-.122-.345c0-.01-.008-.022-.012-.033s0,0,0-.006c-.037-.114-.077-.228-.112-.343s-.078-.243-.116-.365-.075-.243-.112-.367c-.071-.243-.139-.489-.2-.734-.063-.229-.12-.461-.175-.693-.02-.079-.037-.159-.055-.238-.014-.059-.027-.118-.041-.178q-.083-.371-.153-.742-.147-.754-.253-1.513c-.016-.116-.032-.232-.045-.347s-.029-.236-.043-.351c-.026-.222-.049-.444-.069-.667-.01-.108-.02-.216-.027-.326-.016-.173-.028-.347-.037-.522-.008-.126-.016-.249-.022-.375s-.012-.247-.016-.373c-.01-.239-.016-.481-.02-.72-.012-.993.023-1.984.106-2.967.012-.12.022-.24.033-.359.02-.206.041-.414.067-.62a.291.291,0,0,1,0-.041c.022-.179.043-.359.069-.538.008-.059.016-.116.023-.173.023-.167.049-.332.075-.5.065-.412.137-.824.22-1.232l.006-.031c.039-.194.079-.387.122-.581s.09-.406.139-.608.1-.4.151-.6c.157-.6.33-1.2.522-1.79.045-.139.092-.279.139-.416.012-.037.024-.075.037-.112.023-.071.047-.141.075-.212q.194-.559.412-1.113.091-.229.183-.453c.088-.214.179-.426.271-.638.075-.169.149-.338.226-.5,0-.006.006-.012.008-.018q.124-.271.253-.536c.088-.184.179-.367.271-.549.08-.161.163-.32.247-.479a.94.94,0,0,1,.047-.088c.09-.171.183-.34.277-.508s.2-.361.306-.54.2-.335.3-.5a.037.037,0,0,1,.008-.012c.09-.149.183-.3.277-.446.228-.361.463-.714.706-1.064.108-.157.22-.312.332-.467q.483-.665,1-1.3l.171-.206c.342-.414.7-.815,1.062-1.2.045-.049.09-.1.136-.145.157-.167.316-.33.479-.491.059-.061.118-.118.179-.177.025-.027.053-.053.08-.079.069-.068.139-.135.21-.2.141-.135.285-.267.428-.4.216-.2.434-.389.655-.575.072-.063.147-.126.222-.186q.8-.665,1.646-1.252c.065-.043.132-.088.2-.134l.237-.159c.08-.053.159-.106.241-.157.239-.155.483-.306.73-.449.231-.139.469-.273.706-.4q.141-.077.288-.153c.157-.082.314-.163.473-.241.269-.132.538-.259.813-.379.084-.037.169-.075.255-.11s.173-.074.261-.11c.167-.069.334-.133.5-.2.1-.037.2-.075.294-.11.171-.061.339-.12.512-.179l.025-.008q.268-.088.542-.171.68-.206,1.378-.361.28-.065.559-.118c.186-.037.375-.071.565-.1.163-.025.328-.051.491-.073.6-.084,1.215-.141,1.835-.167.184-.01.373-.014.559-.018a21.012,21.012,0,0,1,6.676,1.009c13.176,4.17,44.546,9.212,7-27.035a51.437,51.437,0,0,1-6.767-8.031c-21.04-30.791-9.435-83.023,20.274-104.166a48.354,48.354,0,0,1,29.3-9.29,58.089,58.089,0,0,1,32.031,9.93c9.689,4.818,25.836,11.518,35.5,8.348,7.241-2.377,15.464-13.047,23.326-23.206s15.362-19.805,21.163-20.135c5.984-3.654,13.716-6.3,23.622-7.54,44.085-5.526,65.855,29.29,72.655,63.1a114.538,114.538,0,0,1,1.837,34.51,55.661,55.661,0,0,1-1.128,6.441,83.651,83.651,0,0,1-5.752,16.028c-.757,1.625-1.552,3.232-2.373,4.822-5.258,10.193-11.567,19.6-15.853,27.487-.9,1.65-1.705,3.232-2.4,4.741-2.771,6.048-3.672,10.919-.893,14.179a8.1,8.1,0,0,0,1.55,1.389c1.864,1.3,4.608,2.226,8.423,2.734q1.657.221,3.2.561c.516.114,1.021.238,1.517.369.249.067.495.136.738.206.487.141.965.292,1.432.451s.928.328,1.378.506c.381.151.756.306,1.123.471.135.057.269.118.4.181q.751.345,1.466.724c.143.075.285.151.426.232.33.18.652.367.969.559l0,0q.577.35,1.128.724c.449.3.883.618,1.3.946.139.1.277.212.412.326.053.039.106.082.159.127q.486.392.946.813c.243.216.483.44.716.667.153.149.306.3.453.453q.444.453.863.928c.328.371.644.748.946,1.134q.521.66.993,1.346.286.418.552.844.132.2.253.406c.179.289.347.581.51.875a28.023,28.023,0,0,1,2.029,4.581,33.114,33.114,0,0,1,1.717,10.905" transform="translate(-43.972 -121.79)" fill="#fbe6e9"/>
        <path id="Trazado_693436" data-name="Trazado 693436" d="M353.673,772.272q0,.851-.045,1.7c-.01.161-.018.322-.027.483-.006.118-.014.238-.026.355-.01.145-.022.292-.033.44s-.026.292-.039.439c0,.051-.01.1-.014.151-.016.159-.033.32-.051.479v.006c-.022.192-.043.385-.069.577s-.047.373-.073.559c0,.023-.008.047-.012.073q-.035.259-.077.518l-.006.035c-.027.177-.055.353-.084.528l-.012.063c-.031.184-.065.367-.1.55s-.073.388-.112.581-.073.363-.112.544l-.018.082c-.039.179-.078.357-.12.534s-.08.343-.122.516c-.012.045-.022.088-.034.132-.041.171-.084.339-.129.508s-.086.334-.131.5c-.018.061-.034.122-.051.181-.031.114-.063.226-.1.34s-.059.208-.09.312c-.039.134-.079.265-.12.4-.11.363-.228.724-.347,1.085-.014.043-.027.084-.043.126-.024.071-.047.141-.073.212-.033.1-.067.194-.1.29-.067.19-.134.379-.2.567s-.13.349-.2.524c-.079.206-.159.412-.243.616-.069.175-.141.351-.214.526-.008.018-.014.035-.022.053-.059.137-.118.277-.179.414-.1.238-.2.473-.31.709q-.229.506-.471,1.007c-.018.033-.033.069-.051.1-.08.167-.163.332-.247.5-.067.132-.133.263-.2.392q-.182.356-.373.707c-.059.112-.12.22-.179.33-.1.181-.2.361-.3.54v0l-.124.218c-.078.134-.155.267-.235.4l-.018.029c-.1.167-.2.334-.3.5-.086.141-.173.283-.263.424-.075.122-.151.241-.23.363-.1.153-.2.3-.3.455-.018.027-.037.055-.055.084-.1.157-.21.312-.316.467q-.138.2-.283.406c-.149.214-.3.428-.457.64-.106.149-.216.3-.328.443s-.224.3-.34.445c-.016.024-.031.045-.047.065-.12.153-.241.308-.363.459-.1.122-.192.243-.292.363-.3.371-.607.734-.92,1.093-.126.141-.249.281-.375.42s-.255.281-.385.42q-1.089,1.181-2.281,2.277c-.149.137-.3.273-.451.408q-1.366,1.222-2.855,2.318c-.1.071-.192.14-.292.208s-.194.135-.294.2q-.312.209-.648.408c-.1.059-.2.116-.3.173l-.061.035c-.108.061-.216.122-.328.181s-.23.124-.347.186c0,0-.006,0-.01,0-.122.063-.245.125-.369.186-.553.275-1.144.538-1.766.793l-.269.108-.3.118c-.082.031-.169.063-.253.1s-.186.069-.283.1-.188.069-.285.1c-.379.136-.769.267-1.169.4l-.734.23c-.175.053-.349.106-.528.157l-.467.135-.359.1-.151.041c-.222.059-.446.12-.671.177l-.342.088c-.23.057-.459.116-.695.171-.132.033-.265.065-.4.1-.34.078-.685.157-1.034.234-.249.055-.5.11-.756.163-.345.07-.7.143-1.052.212-.587.116-1.185.226-1.8.334-.347.061-.7.12-1.05.179l-.241.039-.169.027q-.621.1-1.254.194c-.552.084-1.111.163-1.68.241q-1.11.153-2.265.29c-.151.02-.3.037-.453.055s-.314.037-.473.055q-1.095.127-2.225.241c-.349.035-.7.07-1.056.1-.231.024-.465.045-.7.067q-2.09.194-4.288.355l-1.009.071c-.206.014-.412.029-.62.041l-.243.018-1.138.072q-2.161.133-4.412.24l-.834.039-.571.024c-.336.016-.671.029-1.009.043l-.938.035q-4.707.18-9.75.257-.665.012-1.336.02-1.342.018-2.706.03-.683.006-1.368.01c-.459,0-.919.006-1.38.008-.408,0-.818,0-1.228,0-51.855.12-123.888-5.785-171.036-4.961q-1.654.029-3.244.01c-.206,0-.41-.006-.614-.01-.161,0-.32-.006-.479-.01q-.447-.009-.889-.023c-.316-.01-.632-.022-.944-.033-.247-.01-.493-.022-.738-.033l-.559-.029-.218-.012c-.218-.012-.434-.026-.65-.039-.375-.024-.746-.051-1.115-.079l-.587-.047-.4-.035q-.789-.068-1.558-.151c-.147-.016-.294-.031-.439-.049-.2-.021-.394-.045-.591-.068-.432-.051-.861-.106-1.283-.165-.269-.036-.536-.075-.8-.114-.214-.031-.426-.063-.638-.1-.184-.027-.369-.057-.551-.088-.208-.033-.414-.069-.62-.1-.222-.039-.442-.078-.661-.12q-1.013-.185-1.984-.394c-.271-.059-.538-.118-.8-.179-.245-.057-.491-.114-.732-.173-.061-.016-.122-.029-.18-.045-.206-.049-.408-.1-.61-.153-.069-.018-.137-.035-.2-.051-.241-.063-.479-.128-.716-.192l-.073-.02c-.239-.067-.479-.133-.714-.2-.259-.075-.518-.151-.773-.23s-.51-.157-.762-.24l-.027-.008c-.239-.077-.475-.155-.71-.235a.1.1,0,0,1-.024-.008q-.362-.123-.718-.249c-.24-.084-.477-.171-.711-.257l-.01,0c-.228-.086-.453-.171-.675-.257l-.067-.027c-.222-.086-.444-.175-.661-.265q-.677-.277-1.327-.567a.12.12,0,0,1-.023-.01c-.147-.065-.292-.131-.438-.2-.2-.092-.4-.185-.593-.279q-1.057-.506-2.045-1.05-.209-.112-.412-.23c-.147-.081-.29-.165-.434-.247q-.648-.377-1.266-.771l-.357-.229q-1.257-.819-2.385-1.7c-.108-.082-.214-.167-.318-.251-.238-.188-.473-.381-.7-.577-.116-.1-.23-.194-.341-.292-.212-.184-.422-.371-.626-.557-.122-.112-.241-.224-.361-.338s-.263-.251-.392-.379c-.149-.145-.294-.29-.438-.437s-.279-.286-.416-.432l-.21-.226c-.234-.253-.459-.508-.681-.766-.059-.067-.116-.135-.173-.2q-.4-.471-.771-.954c-.108-.135-.212-.273-.314-.41q-.38-.509-.734-1.03c-.063-.092-.126-.187-.186-.281l-.059-.088c-.1-.155-.2-.312-.3-.469-.053-.082-.106-.167-.155-.251s-.09-.143-.134-.218c-.088-.143-.173-.288-.255-.434-.074-.127-.147-.255-.218-.385-.045-.083-.092-.165-.135-.247-.065-.116-.128-.234-.186-.349-.047-.088-.092-.177-.137-.265s-.1-.2-.149-.3c-.018-.033-.034-.069-.051-.1-.006-.014-.014-.028-.02-.041-.057-.118-.114-.235-.169-.355-.169-.355-.328-.71-.477-1.069l-.147-.359c-.049-.122-.1-.243-.145-.365s-.09-.237-.134-.357-.09-.242-.131-.363-.082-.23-.122-.345c0-.01-.008-.022-.012-.033s0,0,0-.006c-.037-.114-.077-.228-.112-.344s-.078-.243-.116-.365-.075-.244-.112-.367c-.071-.243-.139-.489-.2-.734-.063-.229-.12-.461-.175-.693-.02-.078-.037-.159-.055-.238-.014-.059-.027-.118-.041-.178q-.083-.371-.153-.742-.147-.754-.253-1.513c-.016-.116-.032-.232-.045-.347s-.029-.236-.043-.351c-.026-.222-.049-.444-.069-.667-.01-.108-.02-.216-.027-.326-.016-.173-.028-.347-.037-.522-.008-.125-.016-.249-.022-.375s-.012-.247-.016-.373c-.01-.24-.016-.481-.02-.72-.012-.993.023-1.984.106-2.967.012-.12.022-.24.033-.359.02-.206.041-.414.067-.62a.293.293,0,0,1,0-.041c.022-.179.043-.359.069-.538.008-.059.016-.116.023-.173.023-.167.049-.332.075-.5.065-.412.137-.824.22-1.232l.006-.032c.039-.194.079-.386.122-.581s.09-.406.139-.608.1-.4.151-.6q.236-.9.522-1.79c.045-.139.092-.279.139-.416.012-.037.024-.075.037-.112.023-.071.047-.141.075-.212q.194-.559.412-1.113.091-.229.183-.453c.088-.214.179-.426.271-.638.075-.169.149-.338.226-.5,0-.006.006-.012.008-.018q.124-.271.253-.536c.088-.184.179-.367.271-.55.08-.161.163-.32.247-.479a.937.937,0,0,1,.047-.088c.09-.171.183-.34.277-.508s.2-.361.306-.54.2-.335.3-.5a.037.037,0,0,1,.008-.012c.09-.149.183-.3.277-.446.228-.361.463-.714.706-1.064.108-.157.22-.312.332-.467q.483-.665,1-1.3l.171-.206c.342-.414.7-.814,1.062-1.2.045-.049.09-.1.136-.145.157-.167.316-.33.479-.491.059-.061.118-.118.179-.177.025-.027.053-.053.08-.078.069-.068.139-.135.21-.2.141-.135.285-.267.428-.4.216-.2.434-.389.655-.575.072-.063.147-.125.222-.187q.8-.665,1.646-1.252c.065-.043.132-.088.2-.134l.237-.159c.08-.053.159-.106.241-.157.239-.155.483-.3.73-.449.231-.139.469-.273.706-.4q.141-.077.288-.153c.157-.083.314-.163.473-.241.269-.132.538-.259.813-.379.084-.037.169-.075.255-.11s.173-.074.261-.11c.167-.069.334-.133.5-.2.1-.037.2-.075.294-.11.171-.061.339-.12.512-.179l.025-.008q.268-.089.542-.171.68-.206,1.378-.361.28-.065.559-.118c.186-.038.375-.071.565-.1.163-.026.328-.051.491-.073.6-.084,1.215-.141,1.835-.167.184-.01.371-.014.559-.018a21.014,21.014,0,0,1,6.676,1.009c13.176,4.17,44.546,9.212,7-27.035a51.436,51.436,0,0,1-6.767-8.031c9.453,7.944,23.8,18.329,41.086,25.5,31.627,13.119,74.005-41.363,121.354-31.235a133.848,133.848,0,0,0,19.1,2.677,118.175,118.175,0,0,0,25.809-1.018q2.146-.333,4.26-.75a88.779,88.779,0,0,0,20.969-6.814q.6-.28,1.187-.577a70.4,70.4,0,0,0,15.4-10.281q1.89-1.666,3.654-3.485c-.757,1.625-1.552,3.232-2.373,4.822-5.258,10.193-11.567,19.6-15.853,27.487-.9,1.65-1.705,3.232-2.4,4.741-2.771,6.048-3.672,10.919-.893,14.179a8.106,8.106,0,0,0,1.55,1.389c1.864,1.3,4.608,2.226,8.423,2.734q1.657.221,3.2.561c.516.114,1.021.238,1.517.369.249.067.495.135.738.206.487.141.965.292,1.432.451s.928.328,1.378.506q.571.224,1.123.471c.135.057.269.118.4.181.5.228.989.471,1.466.724.143.075.285.151.426.232q.495.27.969.559l0,0q.577.35,1.128.724c.449.3.883.618,1.3.946.139.106.279.214.414.324.053.043.106.084.157.129q.486.392.946.813c.243.216.483.44.716.667.153.149.306.3.453.453q.444.453.863.928c.328.371.644.748.946,1.134q.521.66.993,1.346.286.418.552.844.132.2.253.406.265.433.51.875a28.021,28.021,0,0,1,2.029,4.58,33.217,33.217,0,0,1,1.717,10.905" transform="translate(-43.972 -555.761)" fill="#efcacf"/>
        <path id="Trazado_693437" data-name="Trazado 693437" d="M356.818,1037.245c-.033.1-.067.194-.1.29-.067.19-.134.379-.2.567s-.13.349-.2.524c-.079.206-.159.412-.243.616-.069.175-.141.351-.214.526-.008.018-.014.035-.022.053-.059.138-.118.277-.179.414-.1.238-.2.473-.31.708q-.229.506-.471,1.007c-.018.033-.033.069-.051.1-.081.167-.163.332-.247.5-.067.131-.133.263-.2.392q-.182.356-.373.707c-.059.112-.12.22-.179.33-.1.181-.2.361-.3.54v0l-.124.218c-.078.133-.155.267-.235.4l-.018.03c-.1.167-.2.333-.3.5-.086.141-.173.283-.263.424-.075.122-.151.241-.23.363-.1.153-.2.3-.3.455-.018.027-.037.055-.055.084-.1.157-.21.312-.316.467q-.138.2-.283.406c-.149.214-.3.428-.457.64-.106.149-.216.3-.328.443s-.224.3-.34.446c-.016.023-.031.045-.047.065-.12.153-.241.308-.363.459-.1.122-.192.244-.292.363-.3.371-.607.734-.92,1.093-.126.141-.249.281-.375.42s-.255.281-.385.42q-1.089,1.18-2.28,2.276c-.149.137-.3.273-.451.408q-1.366,1.222-2.856,2.318c-.1.071-.192.139-.292.208s-.194.135-.294.2c-.208.139-.424.275-.648.408-.1.059-.2.116-.3.173l-.061.035c-.108.061-.216.122-.328.181s-.23.124-.347.187c0,0-.006,0-.01,0-.122.063-.245.125-.369.186-.553.275-1.144.538-1.766.793l-.269.108-.3.118c-.082.031-.169.063-.253.1s-.187.069-.283.1l-.285.1c-.379.135-.769.267-1.17.4l-.734.23c-.175.053-.349.106-.528.157l-.467.135-.359.1-.151.041c-.222.059-.446.12-.671.177l-.342.088c-.229.057-.459.116-.695.171-.132.033-.265.065-.4.1q-.509.118-1.034.234c-.249.055-.5.11-.756.163-.345.071-.7.143-1.052.212-.587.116-1.185.226-1.8.334-.347.061-.7.12-1.05.179l-.241.039-.169.027q-.621.1-1.254.194c-.551.085-1.111.163-1.68.241q-1.11.153-2.265.29c-.151.02-.3.037-.453.055s-.314.037-.473.055q-1.095.127-2.225.241c-.349.036-.7.071-1.056.1-.231.024-.465.045-.7.067q-2.09.194-4.288.355l-1.009.07c-.206.014-.412.03-.62.041l-.243.018-1.138.073q-2.161.133-4.412.239l-.834.039-.571.024c-.336.016-.671.029-1.009.043l-.938.036q-4.707.179-9.75.257-.665.012-1.336.02-1.342.018-2.706.029-.683.006-1.368.01t-1.38.008c-.408,0-.818,0-1.229,0-51.855.12-123.887-5.785-171.036-4.961q-1.654.03-3.244.01c-.206,0-.41-.006-.614-.01-.161,0-.32-.006-.479-.01q-.447-.009-.889-.024c-.316-.01-.632-.021-.944-.033-.247-.01-.493-.022-.738-.034l-.559-.029-.218-.012c-.218-.011-.434-.025-.649-.039-.375-.024-.746-.051-1.115-.078l-.587-.047-.4-.035q-.789-.068-1.558-.151c-.147-.016-.295-.031-.44-.049-.2-.021-.394-.045-.591-.069-.432-.051-.861-.106-1.283-.165-.269-.035-.536-.075-.8-.114-.214-.031-.426-.063-.638-.1-.184-.027-.369-.057-.551-.088-.208-.033-.414-.069-.62-.1-.222-.039-.442-.078-.661-.12q-1.013-.185-1.984-.395c-.271-.059-.538-.118-.8-.178-.245-.057-.491-.114-.732-.173l-.18-.045c-.206-.049-.408-.1-.61-.153-.069-.018-.137-.036-.2-.051-.241-.063-.479-.128-.716-.193l-.073-.02c-.239-.067-.479-.133-.714-.2-.259-.075-.518-.151-.773-.23s-.51-.157-.762-.239l-.027-.008c-.239-.076-.475-.155-.71-.235a.1.1,0,0,1-.024-.008c-.241-.083-.481-.165-.718-.249s-.477-.171-.711-.257l-.01,0c-.228-.086-.453-.171-.675-.257-.022-.01-.045-.018-.067-.028-.222-.086-.444-.175-.661-.265-.451-.182-.893-.373-1.327-.567a.1.1,0,0,1-.023-.01c-.147-.065-.292-.132-.438-.2-.2-.093-.4-.185-.593-.279q-1.057-.506-2.045-1.05-.209-.112-.412-.229c-.147-.081-.29-.165-.434-.247q-.648-.377-1.266-.771l-.357-.229q-1.257-.818-2.385-1.7c-.108-.083-.214-.167-.318-.251-.238-.188-.473-.381-.7-.577-.116-.1-.23-.194-.341-.292-.212-.184-.422-.37-.626-.557-.122-.112-.241-.224-.361-.338s-.263-.251-.392-.379c-.149-.146-.294-.291-.438-.438s-.279-.287-.416-.432l-.21-.226c-.234-.253-.459-.508-.681-.765-.059-.067-.116-.135-.173-.2q-.4-.471-.771-.954c-.108-.135-.212-.273-.314-.41q-.38-.509-.734-1.03c-.063-.092-.126-.186-.186-.281l-.059-.088c-.1-.155-.2-.312-.3-.469-.053-.082-.106-.167-.155-.251s-.09-.143-.134-.218c-.088-.143-.173-.288-.255-.434-.075-.128-.147-.255-.218-.385-.045-.083-.092-.165-.135-.247-.065-.116-.128-.234-.186-.349-.047-.088-.092-.177-.137-.265s-.1-.2-.149-.3c-.018-.033-.034-.068-.051-.1-.006-.014-.014-.027-.02-.041-.057-.118-.114-.236-.169-.355-.169-.355-.328-.71-.477-1.069l-.147-.359c-.049-.122-.1-.243-.145-.365s-.09-.237-.134-.357-.09-.241-.131-.363-.082-.229-.122-.345c0-.01-.008-.022-.012-.034H253.054s-7.312-9.194-5.84-15.651,9.714,4.73,9.714,4.73-3.533-11.688,0-16,6.77,14.727,6.77,14.727,5.032-12.11,7.815-7.921-1.338,20.841-1.338,20.841l10.191-.075,21.12-.157,1.26-.01,11.337-.084,7.506-.055,11.324-.084,1.258-.01,9.026-.067,10.58-.078Z" transform="translate(-49.38 -807.728)" fill="#edacb5"/>
        <rect id="Rectángulo_344268" data-name="Rectángulo 344268" width="193.555" height="4.367" transform="translate(34.883 216.433)" fill="#f8be87"/>
        <rect id="Rectángulo_344269" data-name="Rectángulo 344269" width="193.555" height="2.185" transform="translate(34.883 218.615)" fill="#f87582"/>
        <path id="Trazado_693438" data-name="Trazado 693438" d="M354.631,1248.781c-.022,3.466,2.036,11.254,3.266,14.536s6.371,5.836,10.453,6.487c3.553.567,10.359-.893,11.73-3.633a2.147,2.147,0,0,0,.229-1.3c-.5-3.565-5.056-3.854-8.206-4.772s-3.166-1.641-4.119-3.142a53.456,53.456,0,0,1-2.653-7.187c-.461-1.442-.787-2.518-.787-2.518s-9.889-1.935-9.913,1.531" transform="translate(-270.015 -949.244)" fill="#232047"/>
        <path id="Trazado_693439" data-name="Trazado 693439" d="M354.631,1248.781c-.022,3.466,2.036,11.254,3.266,14.536s6.371,5.836,10.453,6.487c3.553.567,10.359-.893,11.73-3.633-.266.084-.532.161-.772.245-1.336.465-2.878-1.83-3.286-1.39s1.1.576.69,1.77-7.281,1.693-10.352-.413-8.394-12.712-7.373-14.167c.768-1.093,4.521-2.042,6.344-2.448-.461-1.442-.787-2.518-.787-2.518s-9.889-1.935-9.913,1.531" transform="translate(-270.015 -949.244)" fill="#232047"/>
        <path id="Trazado_693440" data-name="Trazado 693440" d="M178.634,1261.537s-.393,8.743.4,11.776,5.051,7.839,9.657,7.848c3.1.005,8.656-.039,12-1.288,1.626-.607,2.729-1.5,2.769-2.8.125-4-4.386-4.845-7.356-5.541s-6.781-3.505-7.308-5.456c-.116-.43-.23-.893-.337-1.354-.378-1.635-.665-3.248-.665-3.248Z" transform="translate(-135.938 -960.479)" fill="#232047"/>
        <path id="Trazado_693441" data-name="Trazado 693441" d="M178.634,1261.537s-.393,8.743.4,11.776,5.051,7.839,9.657,7.848c3.1.005,8.656-.039,12-1.288-3.42.264-11.533.622-14.865-1.578-4.275-2.821-5.775-11.726-5.375-12.045.3-.245,5.314-.615,8.006-1.534-.378-1.635-.665-3.248-.665-3.248Z" transform="translate(-135.938 -960.479)" fill="#232047"/>
        <path id="Trazado_693442" data-name="Trazado 693442" d="M147.645,953.286l-3,2.214-12.362,9.128s8.3,24.236,8.875,26.609-1.437,33.859-.823,35.762c.215.67,1.766,1.193,3.751,1.52,3.647.6,8.773.549,9.863-.447,1.685-1.537,6.192-31.5,6.872-33.9s-13.179-40.882-13.179-40.882" transform="translate(-100.723 -725.83)" fill="#3a4266"/>
        <path id="Trazado_693443" data-name="Trazado 693443" d="M144.648,956.6l-12.362,9.128s8.3,24.236,8.875,26.609-1.437,33.86-.823,35.762c.215.67,1.766,1.193,3.751,1.519,2.243-7.5,10.031-26.337,11.521-35.811,1.657-10.539-7.276-34.234-6.941-38.816.084-1.17-3.1,2.022-4.02,1.61" transform="translate(-100.722 -726.933)" fill="#2b3249"/>
        <path id="Trazado_693444" data-name="Trazado 693444" d="M46.6,987.575c1.089,3.471,2.53,7.618,4.174,8.509s20.313,3.641,32.065,2.031,18.488-2.626,20.75-1.174,7.569,18.933,8.908,24.645,5.2,21.137,5.579,21.424a35.456,35.456,0,0,0,8.433-.3,9.84,9.84,0,0,0,3.829-1.145c2.332-1.685-4.873-47.029-7.2-53.589s-33.164-11.525-33.164-11.525l-9.506-.142-31.432-.47S45.509,984.1,46.6,987.575" transform="translate(-35.32 -743.001)" fill="#3a4266"/>
        <path id="Trazado_693445" data-name="Trazado 693445" d="M46.6,987.575c1.089,3.471,2.53,7.618,4.174,8.509s20.313,3.641,32.065,2.031,18.488-2.626,20.75-1.174,7.569,18.933,8.908,24.645,5.2,21.137,5.579,21.424a35.456,35.456,0,0,0,8.433-.3c-2.038-.268-4.015-.712-4.783-1.452-1.832-1.762-3.921-10.034-6.158-22.666s-1.241-25.728-4.859-26.512-31.24,2.289-38.289.491-9.091-9.139-6.131-11.863,19.441-3.444,19.441-3.444l-5.265-.954-31.432-.47S45.509,984.1,46.6,987.575" transform="translate(-35.32 -743.001)" fill="#2b3249"/>
        <path id="Trazado_693446" data-name="Trazado 693446" d="M52.431,742.728c-.062.971-.133,3.616-.208,6.956-.071,3.041-.143,6.656-.214,10.094-.116,5.518-.232,10.581-.328,12.086-.22,3.474.385,19.05.917,20.081s16.1,3.708,25.707,3.021S89.722,794,89.722,794s-2.878-10.156-2.063-20.057c.074-.894.176-1.784.316-2.666.166-1.068.346-2.142.535-3.214,1.689-9.6,4.047-18.807,4.047-18.807l0,0A16.017,16.017,0,0,0,88.2,742.6c-3.03-2.483-13.19-7.209-13.19-7.209a17.215,17.215,0,0,1-7.528.918,47.742,47.742,0,0,1-7.386-1.161l-.01,0s-7.444,4.307-7.651,7.583" transform="translate(-39.315 -559.738)" fill="#11afde"/>
        <path id="Trazado_693447" data-name="Trazado 693447" d="M88.691,633.157a69.013,69.013,0,0,0,3.176,8.251l-1.1,4.7a14.358,14.358,0,0,0,4.586,1.485c2.716.41,6.791-1.433,6.791-1.433l-1.01-6.071c1.415,1.2,4.8,1.656,4.833,1.179a19.14,19.14,0,0,0,1.37-5.318,18.911,18.911,0,0,0-.914-6.915c-.21-1-.467-2.933-.668-4.685-.1-.9-.193-1.756-.252-2.408a3.492,3.492,0,0,0-2.121-3.235c-.157-.086-.33-.19-.523-.3-1.293-.733-3.443-1.717-7.044.235-4.136,2.241-7.834,11.667-7.121,14.514" transform="translate(-67.462 -470.164)" fill="#fbaea8"/>
        <path id="Trazado_693448" data-name="Trazado 693448" d="M133.54,624.63s.785,5.034.855,3.287,1.47-4.025,2.787-4.195,2.787,3.523,2.787,3.523c-.1-.9-.193-1.756-.252-2.408a3.492,3.492,0,0,0-2.121-3.235c-.157-.086-.33-.19-.523-.3Z" transform="translate(-101.677 -473.061)" fill="#e26889"/>
        <path id="Trazado_693449" data-name="Trazado 693449" d="M56.987,592.4a34.577,34.577,0,0,0,1.681,5.478,54.354,54.354,0,0,0,4.977,9.909A30.352,30.352,0,0,0,67.7,610.61a10.2,10.2,0,0,0,3.175-2.571,9.109,9.109,0,0,0,1.18-2.639s-2.821-2.981-1.925-4.891,3.205-1.047,3.838.185a12.4,12.4,0,0,1,.8,2.05c.123.415.187.693.187.693a4.786,4.786,0,0,0,1.153-3.144c.006-1.969-.457-6.767.067-8.524s1.767-3.761,4.2-3.042c0,0,.939.723,1.019,3.049.169,1.568.244,2.223.244,2.223a6.806,6.806,0,0,0,1.522-.893,5.435,5.435,0,0,0,2.161-5.625c-.932-4.75-6.262-5.285-6.262-5.285s-2.193-4.948-6.99-5.133-5.614,2.345-6.6,2.82-9.754,6.239-8.483,12.521" transform="translate(-43.294 -439.368)" fill="#53285a"/>
        <path id="Trazado_693450" data-name="Trazado 693450" d="M64.43,664.348a54.38,54.38,0,0,0,4.977,9.909,30.371,30.371,0,0,0,4.054,2.818,10.2,10.2,0,0,0,3.175-2.57,9.108,9.108,0,0,0,1.18-2.639s-2.821-2.981-1.925-4.891,3.205-1.047,3.838.185a12.422,12.422,0,0,1,.8,2.05c-.176-1.7-.774-4.248-2.8-4.25-3.037,0-5.721,3.278-8.686,3.247-1.47-.015-3.222-1.931-4.613-3.859" transform="translate(-49.057 -505.833)" fill="#2f295a"/>
        <path id="Trazado_693451" data-name="Trazado 693451" d="M126.729,700.908s-3.023-2.159-3.494-2.566-1.013-.958-1.013-.958a27.121,27.121,0,0,0,1.719,3.607,15.444,15.444,0,0,0,3.182,3.428Z" transform="translate(-93.06 -530.986)" fill="#e26889"/>
        <path id="Trazado_693452" data-name="Trazado 693452" d="M160.734,641.931c.388-.005,1.13.519,1.856,4.112s.34,4.523.213,4.634-.967.207-1.077-.173-.065-2.27-.371-4.257a8.808,8.808,0,0,0-1.231-3.335l-.113-1.029Z" transform="translate(-121.833 -488.73)" fill="#333642"/>
        <path id="Trazado_693453" data-name="Trazado 693453" d="M132.584,656.289s-8.739.678-8.946.8a30.523,30.523,0,0,0-1.662,2.716l.919.464,1.511-2.118,8.433-.42Z" transform="translate(-92.872 -499.698)" fill="#333642"/>
        <path id="Trazado_693454" data-name="Trazado 693454" d="M178.5,804.159c.558,2.577,2.994,8,5.448,13.09,2.383,4.933,4.785,9.54,5.505,10.912,1.469,2.781,2.2,5.442,7.37,3.978,2.92-.827,8.35-4.83,12.525-8.16,3.223-2.565,5.7-4.732,5.7-4.732l-4.875-7.156s-11.785,5.23-13.332,6.028c0,0-3.791-13.238-5.055-16.9s-2.937-8.653-2.937-8.653l0,0c-.043-.046-1.314-1.318-5.814.232a7.22,7.22,0,0,0-2.261,1.241c-2.645,2.161-3.156,6.027-2.269,10.126" transform="translate(-135.601 -603.047)" fill="#11afde"/>
        <path id="Trazado_693455" data-name="Trazado 693455" d="M312.509,876.121a11.66,11.66,0,0,0,.225,1.873,10.542,10.542,0,0,0,2.161,4l0,0a5.208,5.208,0,0,0,.849.64,4.735,4.735,0,0,0,1.637.642l-.858-1.261-1.042-1.53-1.907-2.8Z" transform="translate(-237.944 -667.077)" fill="#1f73ff"/>
        <path id="Trazado_693456" data-name="Trazado 693456" d="M332.832,855.027a12.4,12.4,0,0,0-3.448-.4,2.287,2.287,0,0,1-.638,0h-.005a.212.212,0,0,1-.121-.048c-.066-.078.267-.214,1.425-.36,1.986-.256,3.589.01,3.89-.184a.091.091,0,0,0,.046-.053c.094-.293-1.327-.869-2.321-1.081a7.11,7.11,0,0,0-2.963.185c-.165.048-.223.044-.19.011h0a6.287,6.287,0,0,1,2.134-.635c1.515-.225,2.436-.732,2.5-1.135a.114.114,0,0,0,.006-.05c-.012-.411-2.489-.234-3.648-.231a13.039,13.039,0,0,0-2.741.236c-.541.135-2.949,1.214-3.967,1.416a36.838,36.838,0,0,1-5.158,2.908,15.241,15.241,0,0,1-2.856,2.959c-.409.351-.692.581-.692.581a7.876,7.876,0,0,0,.43,1.247,8.613,8.613,0,0,0,1.582,2.477l0,0a5.066,5.066,0,0,0,.85.641c.13-.1.416-.331.776-.619,1.178-.935,3.17-2.533,3.393-2.782.321-.352,3.261-.166,4.167-.333s2.682-1.622,3.138-1.743a13.776,13.776,0,0,1,4,.479c.753.23,1.135.032,1.1-.295a.912.912,0,0,0-.412-.578,4.267,4.267,0,0,0-2.277-.891,15.511,15.511,0,0,1-2.684-.4,12.792,12.792,0,0,1,3.543-.5c.819.052,2.465.6,2.668.354a.12.12,0,0,0,.023-.049c.084-.278-.692-.9-1.556-1.131" transform="translate(-239.141 -647.953)" fill="#fbaea8"/>
        <path id="Trazado_693457" data-name="Trazado 693457" d="M137.78,625.145c.526-1.754,1.767-3.761,4.2-3.042,0,0,.939.723,1.019,3.049.169,1.568.244,2.223.244,2.223a6.813,6.813,0,0,0,1.522-.893,4.917,4.917,0,0,0,.266-3.758c-1.009-2.975-4.212-1.439-4.212-1.439s-2.4.392-3.044,3.86" transform="translate(-104.905 -472.743)" fill="#1b1d23"/>
        <path id="Trazado_693458" data-name="Trazado 693458" d="M52.224,783.69c-.071,3.041-.143,6.656-.214,10.094-.117,5.518-.232,10.581-.328,12.086-.22,3.474.386,19.05.918,20.081s16.1,3.708,25.706,3.021S89.723,828,89.723,828s-2.878-10.156-2.063-20.057c2.383,4.933,4.785,9.54,5.505,10.912,1.469,2.781,2.2,5.442,7.37,3.978,2.92-.828,8.35-4.83,12.525-8.16-4.533,2.91-9.849,6.062-11.865,6.243-3.785.337-6.06-2.915-10.049-11.433a53.883,53.883,0,0,1-2.636-7.419c-1.7-5.854-3.152-12.783-4.03-17.336-.574-2.965-.906-4.923-.906-4.923s.121,5.68-1.4,5.394c-1.219-.226-17.568-1.275-26.862-1.479-1.153-.025-2.195-.038-3.086-.033" transform="translate(-39.315 -593.745)" fill="#1f73ff"/>
        <path id="Trazado_693459" data-name="Trazado 693459" d="M118.065,677.414s-1.249-.767-1.366.076a4.334,4.334,0,0,0,1.794,3.147c.831.369-.429-3.223-.429-3.223" transform="translate(-88.848 -515.539)" fill="#e26889"/>
        <path id="Trazado_693460" data-name="Trazado 693460" d="M315.884,880.627a8.6,8.6,0,0,0,1.582,2.477l0,0a5.079,5.079,0,0,0,.85.641c.13-.1.416-.331.776-.619,1.178-.935,3.17-2.533,3.394-2.782.321-.352,3.261-.166,4.167-.333s2.682-1.622,3.138-1.743a13.771,13.771,0,0,1,4,.479c.753.23,1.135.031,1.1-.295a2.328,2.328,0,0,1-1.182-.042,19.024,19.024,0,0,0-4.252-.806,20.531,20.531,0,0,1-4.2,1.918c-1.055.153-2.654-.581-3.025-.192a42.094,42.094,0,0,1-3.966,2.66c-.327.172-1.451-.623-2.387-1.366" transform="translate(-240.513 -668.187)" fill="#e26889"/>
        <path id="Trazado_693461" data-name="Trazado 693461" d="M372.521,870.793a12.79,12.79,0,0,1,3.543-.5c.819.052,2.465.6,2.668.354a.125.125,0,0,0,.023-.049,13.286,13.286,0,0,0-2.593-.62,19.022,19.022,0,0,0-3.415.29c-.724.124-.226.527-.226.527" transform="translate(-283.51 -662.39)" fill="#e26889"/>
        <path id="Trazado_693462" data-name="Trazado 693462" d="M373.933,863.317c-.066-.078.267-.214,1.425-.36,1.985-.257,3.589.01,3.89-.184a10.583,10.583,0,0,0-1.755-.263,11.212,11.212,0,0,0-3.64.276c-.515.218-.136.437.08.532" transform="translate(-284.454 -656.692)" fill="#e26889"/>
        <path id="Trazado_693463" data-name="Trazado 693463" d="M371.356,854.073c-.01.154.708.055.759.048h0a6.286,6.286,0,0,1,2.134-.634c1.515-.225,2.436-.732,2.5-1.135a8.073,8.073,0,0,1-1.445.628c-.953.3-2.019.378-2.693.556s-1.244.379-1.254.538" transform="translate(-282.749 -648.979)" fill="#e26889"/>
        <path id="Trazado_693464" data-name="Trazado 693464" d="M303.053,881.566a25.558,25.558,0,0,0,1.156,4.4,36.616,36.616,0,0,0,3.993,2.869s-3.417-1.651-4.2-2.608-.979-4.184-.949-4.663" transform="translate(-230.741 -671.223)" fill="#1f73ff"/>
        <rect id="Rectángulo_344270" data-name="Rectángulo 344270" width="6.612" height="15.774" transform="translate(27.902 254.2)" fill="#fff"/>
        <path id="Trazado_693465" data-name="Trazado 693465" d="M144.651,1065.371v15.774h12.093v-5.509h-9.077v-10.266Z" transform="translate(-110.137 -811.172)" fill="#fff"/>
        <path id="Trazado_693466" data-name="Trazado 693466" d="M144.651,1131.483v28.652H146.6l-.686-2.145v-9.135h6.22v9.4l.073.212v-26.98Z" transform="translate(-110.137 -861.509)" fill="#fff"/>
        <path id="Trazado_693467" data-name="Trazado 693467" d="M45.031,1313.905a6.526,6.526,0,1,0,2.824-12.409v3.252a6.529,6.529,0,0,1-2.824,9.157" transform="translate(-34.287 -990.957)" fill="#fff"/>
        <path id="Trazado_693468" data-name="Trazado 693468" d="M5.857,1308.02a6.525,6.525,0,1,0,9.347-5.885,6.557,6.557,0,0,0-2.822-.64,6.525,6.525,0,0,0-6.525,6.525" transform="translate(-4.46 -990.956)" fill="#fff"/>
        <path id="Trazado_693469" data-name="Trazado 693469" d="M37.636,1223.225v4.346a6.422,6.422,0,0,1,1.75.552,6.553,6.553,0,0,1,2.824,2.612v-6.582l20.946-10.671v-9.192s-21.228,14.76-23.547,16.095-1.973,2.841-1.973,2.841" transform="translate(-28.642 -916.943)" fill="#fff"/>
        <path id="Trazado_693470" data-name="Trazado 693470" d="M275.927,1309.048a6.526,6.526,0,1,0,2.824-12.41,6.414,6.414,0,0,0-1.073.089v1.78a6.528,6.528,0,0,1-1.75,10.541" transform="translate(-210.09 -987.258)" fill="#fff"/>
        <path id="Trazado_693471" data-name="Trazado 693471" d="M176.314,1204.289v9.192l20.945,10.671v2.171a6.5,6.5,0,0,1,2.822.64,6.584,6.584,0,0,1,1.75,1.228v-4.967s.348-1.509-1.972-2.841-23.547-16.095-23.547-16.095" transform="translate(-134.245 -916.943)" fill="#fff"/>
        <path id="Trazado_693472" data-name="Trazado 693472" d="M236.752,1303.164a6.527,6.527,0,1,0,6.525-6.525,6.524,6.524,0,0,0-6.525,6.525" transform="translate(-180.262 -987.259)" fill="#fff"/>
        <path id="Trazado_693473" data-name="Trazado 693473" d="M158.871,1204.289v9.135l.685,2.146,3.614,11.306.679-.028c1.375.193,2.533,3.188,2.612,6.722h3.372l-2.055-5.945-4.745-13.727-.073-.212v-9.4Z" transform="translate(-120.964 -916.943)" fill="#fff"/>
        <path id="Trazado_693474" data-name="Trazado 693474" d="M149.938,1204.29v9.135l.686,2.145,3.64,11.393,2.105-.087-3.614-11.306-.686-2.145v-9.135Z" transform="translate(-114.162 -916.944)" fill="#fff"/>
        <path id="Trazado_693475" data-name="Trazado 693475" d="M155.332,1312.095a.785.785,0,0,1-.089.01l5.914-.243c1.307-.054,2.3-2.725,2.253-6.161,0-.049,0-.1,0-.146-.078-3.534-1.237-6.528-2.612-6.721l-.679.028-2.105.087-3.151.129c1.394.2,2.563,3.273,2.613,6.868,0,.186,0,.371,0,.552,0,.052,0,.1,0,.155-.005.211-.016.418-.03.62-.005.094-.012.186-.021.278,0,.028-.005.058-.007.085-.007.055-.01.111-.017.167-.01.106-.023.212-.036.317-.01.087-.023.171-.035.254-.005.045-.012.089-.019.132-.03.186-.063.367-.1.541-.016.075-.031.148-.049.221,0,.018-.009.035-.012.052-.007.033-.014.065-.022.1-.012.052-.026.1-.04.156-.021.082-.044.162-.066.24s-.045.155-.071.23c-.017.054-.035.108-.054.16-.031.092-.066.183-.1.27-.026.064-.052.127-.08.19-.017.042-.036.083-.056.124-.028.059-.058.116-.087.172a.1.1,0,0,1-.016.03c-.017.035-.036.068-.056.1s-.03.052-.045.078-.03.05-.045.075l-.047.071a2.543,2.543,0,0,1-.336.409c-.019.021-.04.038-.059.056a1.468,1.468,0,0,1-.31.216.8.8,0,0,1-.115.05l-.022.009a.622.622,0,0,1-.094.028c-.028.007-.058.012-.089.017" transform="translate(-117.91 -988.929)" fill="#fff"/>
        <path id="Trazado_693476" data-name="Trazado 693476" d="M144.653,1305.974c.049,3.6,1.22,6.673,2.615,6.87a.97.97,0,0,0,.2.009.733.733,0,0,0,.089-.01c.031-.005.061-.01.089-.017s.063-.017.094-.028l.022-.009a.891.891,0,0,0,.115-.05,1.468,1.468,0,0,0,.31-.216c.021-.017.04-.037.059-.056a2.523,2.523,0,0,0,.336-.409l.047-.071c.016-.025.031-.051.045-.075s.031-.052.045-.078.038-.066.056-.1a.09.09,0,0,0,.016-.03c.03-.056.059-.113.087-.172.019-.04.038-.081.056-.123.028-.063.054-.125.08-.189.035-.087.07-.178.1-.27.019-.052.036-.106.054-.16.024-.075.049-.151.071-.229s.045-.158.066-.24c.014-.052.028-.1.04-.157.009-.031.016-.062.022-.1,0-.017.009-.035.012-.052.017-.073.033-.146.049-.221.036-.174.069-.355.1-.541.007-.043.014-.087.019-.132.012-.084.024-.167.035-.254.014-.1.026-.21.037-.317.007-.056.01-.111.017-.167,0-.028.005-.057.007-.085.009-.092.016-.184.021-.278.014-.2.024-.409.03-.619,0-.05,0-.1,0-.155,0-.181.005-.365,0-.552-.051-3.595-1.22-6.669-2.613-6.868s-2.485,2.556-2.434,6.151" transform="translate(-110.137 -989.676)" fill="#fff"/>
        <path id="Trazado_693477" data-name="Trazado 693477" d="M201.272,1312.105l5.936-.245c1.306-.054,2.3-2.724,2.252-6.162-.05-3.6-1.22-6.67-2.614-6.867l-5.936.245c1.394.2,2.564,3.272,2.614,6.867.048,3.438-.946,6.108-2.252,6.162" transform="translate(-152.972 -988.928)" fill="#fff"/>
        <path id="Trazado_693478" data-name="Trazado 693478" d="M190.745,1306.3c.113,3.454,1.255,6.351,2.607,6.542a.969.969,0,0,0,.2.009l.059-.005c.021,0,.04-.005.059-.011s.04-.007.059-.012.063-.017.094-.028l.023-.009a.887.887,0,0,0,.115-.05c.03-.016.061-.033.091-.051a.8.8,0,0,0,.082-.056l.009-.005a.085.085,0,0,0,.016-.012.38.38,0,0,0,.054-.042l.054-.045q.055-.047.1-.1c.035-.035.068-.073.1-.112.017-.019.033-.04.051-.061s.047-.059.069-.09.051-.071.075-.108l.047-.071c.016-.025.031-.051.045-.075s.032-.052.045-.078a4.274,4.274,0,0,0,.214-.426c.028-.063.054-.125.08-.189s.052-.134.078-.2v0c.019-.054.038-.11.058-.165.038-.113.075-.23.108-.349.012-.042.024-.085.037-.129.021-.078.042-.16.061-.242.009-.036.017-.075.026-.113.021-.085.04-.172.057-.261l.042-.216c.017-.094.033-.19.049-.285.007-.043.014-.087.019-.132l.026-.183c0-.007,0-.012,0-.019.007-.057.016-.113.022-.172,0-.007,0-.012,0-.019.007-.057.014-.115.019-.174l.021-.214v0c.005-.064.012-.13.016-.2.019-.242.033-.491.038-.745,0-.05,0-.1,0-.151,0-.181.005-.365,0-.552-.049-3.595-1.219-6.669-2.613-6.868a1.247,1.247,0,0,0-1.124.532l2.055,5.946Z" transform="translate(-145.233 -989.676)" fill="#fff"/>
        <path id="Trazado_693479" data-name="Trazado 693479" d="M42.563,1065.786c2.244,1.16,16.376,1.651,16.376,1.651s10.925.076,20.912-.36c6.48-.28,12.564-.776,15.008-1.641,6.208-2.2,4.36-11.02,1.454-13.371s-7.66-.316-19.744.96-31.231-.464-33.081-.841a5.913,5.913,0,0,0-3.03.177,4.743,4.743,0,0,0-3.066,4.144c-.681,4.408,2.928,8.121,5.172,9.281" transform="translate(-28.405 -800.218)" fill="#6c7ad3"/>
        <path id="Trazado_693480" data-name="Trazado 693480" d="M50.51,1052.361c2.011,1.354,5.948,3.229,12.372,3.285,10.091.09,22.105-.44,25.835-1.228s8.1,4.158,6,9.223c-.71,1.709-2.342,2.767-4.81,3.436,6.48-.28,12.564-.776,15.008-1.641,6.208-2.2,4.36-11.02,1.454-13.371s-7.66-.316-19.744.96-31.231-.464-33.081-.841a5.907,5.907,0,0,0-3.03.177" transform="translate(-38.458 -800.218)" fill="#5763a0"/>
        <path id="Trazado_693481" data-name="Trazado 693481" d="M15.847,846.053H48.724a3.973,3.973,0,0,0,4.021-4.7L49.884,821.56a5.622,5.622,0,0,0-5.381-4.7H11.627a3.973,3.973,0,0,0-4.021,4.7l2.861,19.792a5.621,5.621,0,0,0,5.38,4.7" transform="translate(-5.753 -621.955)" fill="#5763a0"/>
        <path id="Trazado_693482" data-name="Trazado 693482" d="M15.847,846.053H44.2a3.973,3.973,0,0,0,4.021-4.7L45.364,821.56a5.622,5.622,0,0,0-5.381-4.7H11.627a3.973,3.973,0,0,0-4.021,4.7l2.861,19.792a5.621,5.621,0,0,0,5.38,4.7" transform="translate(-5.753 -621.955)" fill="#6c7ad3"/>
        <path id="Trazado_693483" data-name="Trazado 693483" d="M103.772,853.9l-.424,12.293,3.1,8.062h-3.1l-2.938-8.062V853.9Z" transform="translate(-76.451 -650.16)" fill="#5763a0"/>
        <rect id="Rectángulo_344271" data-name="Rectángulo 344271" width="6.612" height="12.293" transform="translate(14.331 203.742)" fill="#899191"/>
        <rect id="Rectángulo_344272" data-name="Rectángulo 344272" width="3.015" height="12.293" transform="translate(20.942 203.742)" fill="#707777"/>
        <path id="Trazado_693484" data-name="Trazado 693484" d="M60.061,905.423l13.572,38.164h6.612L66.673,905.423Z" transform="translate(-45.73 -689.387)" fill="#899191"/>
        <path id="Trazado_693485" data-name="Trazado 693485" d="M87.771,905.423l13.572,38.164h3.015L90.787,905.423Z" transform="translate(-66.829 -689.387)" fill="#707777"/>
        <rect id="Rectángulo_344273" data-name="Rectángulo 344273" width="6.612" height="15.774" transform="translate(27.902 254.2)" fill="#899191"/>
        <path id="Trazado_693486" data-name="Trazado 693486" d="M144.651,1065.371v15.774h12.093v-5.509h-9.077v-10.266Z" transform="translate(-110.137 -811.172)" fill="#707777"/>
        <path id="Trazado_693487" data-name="Trazado 693487" d="M144.651,1131.483v28.652H146.6l-.686-2.145v-9.135h6.22v9.4l.073.212v-26.98Z" transform="translate(-110.137 -861.509)" fill="#707777"/>
        <path id="Trazado_693488" data-name="Trazado 693488" d="M45.031,1313.905a6.526,6.526,0,1,0,2.824-12.409v3.252a6.529,6.529,0,0,1-2.824,9.157" transform="translate(-34.287 -990.957)" fill="#707777"/>
        <path id="Trazado_693489" data-name="Trazado 693489" d="M5.857,1308.02a6.525,6.525,0,1,0,9.347-5.885,6.557,6.557,0,0,0-2.822-.64,6.525,6.525,0,0,0-6.525,6.525" transform="translate(-4.46 -990.956)" fill="#899191"/>
        <path id="Trazado_693490" data-name="Trazado 693490" d="M37.636,1223.225v4.346a6.422,6.422,0,0,1,1.75.552,6.553,6.553,0,0,1,2.824,2.612v-6.582l20.946-10.671v-9.192s-21.228,14.76-23.547,16.095-1.973,2.841-1.973,2.841" transform="translate(-28.642 -916.943)" fill="#707777"/>
        <path id="Trazado_693491" data-name="Trazado 693491" d="M275.927,1309.048a6.526,6.526,0,1,0,2.824-12.41,6.414,6.414,0,0,0-1.073.089v1.78a6.528,6.528,0,0,1-1.75,10.541" transform="translate(-210.09 -987.258)" fill="#707777"/>
        <path id="Trazado_693492" data-name="Trazado 693492" d="M176.314,1204.289v9.192l20.945,10.671v2.171a6.5,6.5,0,0,1,2.822.64,6.584,6.584,0,0,1,1.75,1.228v-4.967s.348-1.509-1.972-2.841-23.547-16.095-23.547-16.095" transform="translate(-134.245 -916.943)" fill="#707777"/>
        <path id="Trazado_693493" data-name="Trazado 693493" d="M236.752,1303.164a6.527,6.527,0,1,0,6.525-6.525,6.524,6.524,0,0,0-6.525,6.525" transform="translate(-180.262 -987.259)" fill="#899191"/>
        <path id="Trazado_693494" data-name="Trazado 693494" d="M158.871,1204.289v9.135l.685,2.146,3.614,11.306.679-.028c1.375.193,2.533,3.188,2.612,6.722h3.372l-2.055-5.945-4.745-13.727-.073-.212v-9.4Z" transform="translate(-120.964 -916.943)" fill="#899191"/>
        <path id="Trazado_693495" data-name="Trazado 693495" d="M149.938,1204.29v9.135l.686,2.145,3.64,11.393,2.105-.087-3.614-11.306-.686-2.145v-9.135Z" transform="translate(-114.162 -916.944)" fill="#707777"/>
        <path id="Trazado_693496" data-name="Trazado 693496" d="M155.332,1312.095a.785.785,0,0,1-.089.01l5.914-.243c1.307-.054,2.3-2.725,2.253-6.161,0-.049,0-.1,0-.146-.078-3.534-1.237-6.528-2.612-6.721l-.679.028-2.105.087-3.151.129c1.394.2,2.563,3.273,2.613,6.868,0,.186,0,.371,0,.552,0,.052,0,.1,0,.155-.005.211-.016.418-.03.62-.005.094-.012.186-.021.278,0,.028-.005.058-.007.085-.007.055-.01.111-.017.167-.01.106-.023.212-.036.317-.01.087-.023.171-.035.254-.005.045-.012.089-.019.132-.03.186-.063.367-.1.541-.016.075-.031.148-.049.221,0,.018-.009.035-.012.052-.007.033-.014.065-.022.1-.012.052-.026.1-.04.156-.021.082-.044.162-.066.24s-.045.155-.071.23c-.017.054-.035.108-.054.16-.031.092-.066.183-.1.27-.026.064-.052.127-.08.19-.017.042-.036.083-.056.124-.028.059-.058.116-.087.172a.1.1,0,0,1-.016.03c-.017.035-.036.068-.056.1s-.03.052-.045.078-.03.05-.045.075l-.047.071a2.543,2.543,0,0,1-.336.409c-.019.021-.04.038-.059.056a1.468,1.468,0,0,1-.31.216.8.8,0,0,1-.115.05l-.022.009a.622.622,0,0,1-.094.028c-.028.007-.058.012-.089.017" transform="translate(-117.91 -988.929)" fill="#899191"/>
        <path id="Trazado_693497" data-name="Trazado 693497" d="M144.653,1305.974c.049,3.6,1.22,6.673,2.615,6.87a.97.97,0,0,0,.2.009.733.733,0,0,0,.089-.01c.031-.005.061-.01.089-.017s.063-.017.094-.028l.022-.009a.891.891,0,0,0,.115-.05,1.468,1.468,0,0,0,.31-.216c.021-.017.04-.037.059-.056a2.523,2.523,0,0,0,.336-.409l.047-.071c.016-.025.031-.051.045-.075s.031-.052.045-.078.038-.066.056-.1a.09.09,0,0,0,.016-.03c.03-.056.059-.113.087-.172.019-.04.038-.081.056-.123.028-.063.054-.125.08-.189.035-.087.07-.178.1-.27.019-.052.036-.106.054-.16.024-.075.049-.151.071-.229s.045-.158.066-.24c.014-.052.028-.1.04-.157.009-.031.016-.062.022-.1,0-.017.009-.035.012-.052.017-.073.033-.146.049-.221.036-.174.069-.355.1-.541.007-.043.014-.087.019-.132.012-.084.024-.167.035-.254.014-.1.026-.21.037-.317.007-.056.01-.111.017-.167,0-.028.005-.057.007-.085.009-.092.016-.184.021-.278.014-.2.024-.409.03-.619,0-.05,0-.1,0-.155,0-.181.005-.365,0-.552-.051-3.595-1.22-6.669-2.613-6.868s-2.485,2.556-2.434,6.151" transform="translate(-110.137 -989.676)" fill="#707777"/>
        <path id="Trazado_693498" data-name="Trazado 693498" d="M201.272,1312.105l5.936-.245c1.306-.054,2.3-2.724,2.252-6.162-.05-3.6-1.22-6.67-2.614-6.867l-5.936.245c1.394.2,2.564,3.272,2.614,6.867.048,3.438-.946,6.108-2.252,6.162" transform="translate(-152.972 -988.928)" fill="#899191"/>
        <path id="Trazado_693499" data-name="Trazado 693499" d="M190.745,1306.3c.113,3.454,1.255,6.351,2.607,6.542a.969.969,0,0,0,.2.009l.059-.005c.021,0,.04-.005.059-.011s.04-.007.059-.012.063-.017.094-.028l.023-.009a.887.887,0,0,0,.115-.05c.03-.016.061-.033.091-.051a.8.8,0,0,0,.082-.056l.009-.005a.085.085,0,0,0,.016-.012.38.38,0,0,0,.054-.042l.054-.045q.055-.047.1-.1c.035-.035.068-.073.1-.112.017-.019.033-.04.051-.061s.047-.059.069-.09.051-.071.075-.108l.047-.071c.016-.025.031-.051.045-.075s.032-.052.045-.078a4.274,4.274,0,0,0,.214-.426c.028-.063.054-.125.08-.189s.052-.134.078-.2v0c.019-.054.038-.11.058-.165.038-.113.075-.23.108-.349.012-.042.024-.085.037-.129.021-.078.042-.16.061-.242.009-.036.017-.075.026-.113.021-.085.04-.172.057-.261l.042-.216c.017-.094.033-.19.049-.285.007-.043.014-.087.019-.132l.026-.183c0-.007,0-.012,0-.019.007-.057.016-.113.022-.172,0-.007,0-.012,0-.019.007-.057.014-.115.019-.174l.021-.214v0c.005-.064.012-.13.016-.2.019-.242.033-.491.038-.745,0-.05,0-.1,0-.151,0-.181.005-.365,0-.552-.049-3.595-1.219-6.669-2.613-6.868a1.247,1.247,0,0,0-1.124.532l2.055,5.946Z" transform="translate(-145.233 -989.676)" fill="#707777"/>
        <path id="Trazado_693500" data-name="Trazado 693500" d="M693.8,1134.049c-.47.327-.945.678-1.422,1.038-.663.5-1.329,1.012-1.988,1.5-1.88-2.723-3.77-5.517-5.641-8.2-.377-1.754-.518-2.412-.919-4.273-.021-.1-.041-.184-.055-.255a.05.05,0,0,0,0-.014c0,.009,0,.007,0-.019v0l0-.007c0-.007,0-.019-.007-.031v-.005l-.01-.043a.042.042,0,0,1,0-.017l0-.024-.007-.036c0-.029-.012-.06-.021-.1v0s0,0,0,0a.032.032,0,0,0,0-.015c-.057-.267-.157-.735-.327-1.517-.821-3.782-2.837-13.8-3.462-18.936s-.866-9.8.224-14.6c-.415-1.565-.7-2.572-1.145-4.319-.153-.6-.408-1.434-.632-2.45-.248-1.126-.415-1.673-.573-2.229-.131-.465-.26-.935-.427-1.761a7,7,0,0,1,6.908-3.81,8.314,8.314,0,0,1,2.925.8,14.445,14.445,0,0,1,1.842,1.062c0,.32.007.639.01.957v.041c0,.31,0,.637.01.964a.021.021,0,0,0,0,.017c0,.384,0,.768.01,1.121.017,1.926.024,3.512.038,5.352.019,3.057,0,.427.022,4.98s-.1,15.235-.019,20.579a84.047,84.047,0,0,0,.931,14.063c.792,4.276,2.431,6.435,3.76,10.2" transform="translate(-515.741 -817.66)" fill="#fbaea8"/>
        <path id="Trazado_693501" data-name="Trazado 693501" d="M677.314,1029.276a.02.02,0,0,0,0,.017c0,.024,0,.036,0,.036l-4.612.7-6.645,1.012-.007-.019-4.106-11.238,3.679-9.544a15.455,15.455,0,0,1,8.117,2.6,9.809,9.809,0,0,1,3.615,4.908c.489,1.453,0,10.737-.038,11.529" transform="translate(-504 -769.197)" fill="#fbaea8"/>
        <path id="Trazado_693502" data-name="Trazado 693502" d="M680.633,1086.624c-.663.5-1.329,1.012-1.988,1.5-1.88-2.723-3.77-5.516-5.641-8.2-.377-1.754-.518-2.412-.919-4.273-.021-.1-.041-.184-.055-.255a.051.051,0,0,0,0-.014c0,.01,0,.007,0-.019v0l0-.007c0-.012,0-.021-.007-.031v0l-.01-.043a.042.042,0,0,1,0-.017l0-.024-.007-.036c0-.029-.012-.06-.021-.1v0s0,0,0,0a.009.009,0,0,0,0-.007v-.007c-.057-.267-.157-.735-.327-1.518-.821-3.782-2.837-13.8-3.462-18.936s-.866-9.8.224-14.6c-.415-1.565-.7-2.572-1.145-4.319-.153-.6-.408-1.434-.632-2.45-.248-1.126-.415-1.673-.573-2.229l-4.106-11.238,3.679-9.544a15.455,15.455,0,0,1,8.117,2.6,49.947,49.947,0,0,1-1.055,7.8,22.725,22.725,0,0,0-.155,4.81c.034,1.41.1,2.995.172,4.579.227,4.751.561,9.494.561,9.494a75.687,75.687,0,0,0-.093,22.269c1.25,9.141,5.29,19.639,7.466,24.829" transform="translate(-504 -769.197)" fill="#e26889"/>
        <path id="Trazado_693503" data-name="Trazado 693503" d="M559.061,1077.583c-.076-5.343.04-16.028.019-20.58s0-1.923-.022-4.979c-.012-1.839-.022-3.426-.038-5.351-.006-.658-.014-1.417-.019-2.1v-.041c0-.318-.006-.637-.009-.956a14.217,14.217,0,0,0-1.843-1.062,7.235,7.235,0,0,0-9.832,3.009c.366,1.811.544,1.924,1,3.991.223,1.016.48,1.847.632,2.449.441,1.747.732,2.755,1.146,4.321-1.092,4.8-.85,9.467-.225,14.6s2.643,15.154,3.461,18.934.05.231.451,2.091.542,2.519.92,4.273c1.87,2.685,3.761,5.477,5.64,8.2,1.135-.832,2.286-1.754,3.409-2.533-1.329-3.763-2.966-5.923-3.76-10.2a83.968,83.968,0,0,1-.93-14.062" transform="translate(-416.727 -793.141)" fill="#e26889"/>
        <path id="Trazado_693504" data-name="Trazado 693504" d="M552.171,1067.953c.415,1.585.739,2.8,1.138,4.272-1.082,4.845-.858,9.431-.222,14.611s2.619,15.046,3.468,18.968-.054-.249.481,2.23c.007-.234.148.187.2.121-.968-5.611-2.027-12.125-2.914-17.656a68.4,68.4,0,0,1-.022-18.051c.7-4.12,1.332-1.569,3.122-3.031,1.162-.949,3.514-.417,4.833-1.413.038-1.725-.015-3.586-.016-5.365-3.565.959-7.136,1.893-10.695,2.874.164.657.487,1.893.629,2.439" transform="translate(-419.943 -809.092)" fill="#e26889"/>
        <path id="Trazado_693505" data-name="Trazado 693505" d="M561.35,1264.765c-.432-.352-.68-3.427-.556-4.759s1.374-10.141,3.515-9.942,2.714,5.217,3.676,6.888a54.063,54.063,0,0,0,3.075,5.182c.98-.561,1.894-1.182,2.92-1.735,1.153,1,3.62,2.595,4.532,3.442s3.318,1.525,2.908,2.514-4.109.544-5.626.262-5.755-.03-7.217-1.2-1.653-5.7-2.432-6.806-.861-.869-1.636-.237-1.67,4.43-2.065,5.178-.2,1.943-1.094,1.213" transform="translate(-426.963 -951.794)" fill="#232047"/>
        <path id="Trazado_693506" data-name="Trazado 693506" d="M482.187,1006.158a3.782,3.782,0,0,1,.967,1.223,25.367,25.367,0,0,0,4.173-5.28,10.668,10.668,0,0,0,1.187-7.614c-.324-1.6-.824-3.159-1.291-4.724a189.581,189.581,0,0,0-18.655-4.1l-9.506-.141-31.432-.47s-3.521,8.264-2.432,11.738,2.53,7.617,4.174,8.509,20.313,3.641,32.065,2.031,18.488-2.626,20.75-1.174" transform="translate(-323.585 -750.018)" fill="#3a4266"/>
        <path id="Trazado_693507" data-name="Trazado 693507" d="M482.187,1006.158a3.782,3.782,0,0,1,.967,1.223,25.367,25.367,0,0,0,4.173-5.28,10.454,10.454,0,0,0,.482-.93c-6.852-.152-30.367,2.252-36.792.613-7.047-1.8-9.091-9.139-6.131-11.863s19.441-3.444,19.441-3.444l-5.265-.954-31.432-.47s-3.521,8.264-2.432,11.738,2.53,7.617,4.174,8.509,20.313,3.641,32.065,2.031,18.488-2.626,20.75-1.174" transform="translate(-323.585 -750.018)" fill="#2b3249"/>
        <path id="Trazado_693508" data-name="Trazado 693508" d="M430.159,751.628c-.062.971-.154,3.615-.258,6.952-.1,3.039-.2,6.652-.307,10.088-.167,5.515-.328,10.575-.423,12.08-.22,3.474.038,19.028.44,20.051s12.537,3.482,20.054,2.663,8.939-1.125,8.939-1.125a81.357,81.357,0,0,1-1.336-20.011c.071-.894.162-1.784.284-2.668.145-1.069.3-2.145.463-3.218,1.453-9.618,3.423-18.846,3.423-18.846l0,0a16.576,16.576,0,0,0-3.315-6.584c-2.334-2.439-10.211-7.021-10.211-7.021a11.04,11.04,0,0,1-5.9,1.021,29.415,29.415,0,0,1-5.758-1.058l-.008,0s-5.879,4.407-6.086,7.682" transform="translate(-326.708 -566.439)" fill="#11afde"/>
        <path id="Trazado_693509" data-name="Trazado 693509" d="M467.29,642.374a69.008,69.008,0,0,0,3.176,8.251l-1.1,4.7a14.35,14.35,0,0,0,4.586,1.485c2.716.41,6.791-1.433,6.791-1.433l-1.01-6.071c1.415,1.2,4.8,1.656,4.833,1.179a19.138,19.138,0,0,0,1.37-5.318,18.913,18.913,0,0,0-.914-6.915c-.21-1-.467-2.933-.668-4.685-.1-.9-.193-1.756-.252-2.408a3.492,3.492,0,0,0-2.121-3.235c-.157-.086-.33-.19-.523-.3-1.292-.733-3.443-1.716-7.044.235-4.136,2.241-7.834,11.667-7.121,14.514" transform="translate(-355.726 -477.182)" fill="#fbaea8"/>
        <path id="Trazado_693510" data-name="Trazado 693510" d="M512.14,633.847s.785,5.034.855,3.287,1.47-4.025,2.787-4.195,2.787,3.523,2.787,3.523c-.1-.9-.193-1.756-.253-2.408a3.491,3.491,0,0,0-2.121-3.235c-.156-.086-.33-.19-.523-.3Z" transform="translate(-389.942 -480.079)" fill="#e26889"/>
        <path id="Trazado_693511" data-name="Trazado 693511" d="M435.586,601.62a34.613,34.613,0,0,0,1.68,5.478,54.368,54.368,0,0,0,4.977,9.909,30.363,30.363,0,0,0,4.054,2.819,10.2,10.2,0,0,0,3.175-2.571,9.113,9.113,0,0,0,1.18-2.639s-2.821-2.981-1.925-4.891,3.205-1.048,3.838.185a12.4,12.4,0,0,1,.8,2.05c.123.415.187.693.187.693a4.786,4.786,0,0,0,1.153-3.144c.006-1.969-.457-6.767.067-8.524s1.767-3.761,4.2-3.042c0,0,.939.723,1.019,3.049.169,1.568.244,2.223.244,2.223a6.8,6.8,0,0,0,1.522-.893,5.435,5.435,0,0,0,2.161-5.624c-.932-4.75-6.262-5.285-6.262-5.285s-2.193-4.948-6.99-5.133-5.614,2.345-6.6,2.82-9.754,6.239-8.483,12.522" transform="translate(-331.558 -446.385)" fill="#53285a"/>
        <path id="Trazado_693512" data-name="Trazado 693512" d="M443.03,673.565a54.385,54.385,0,0,0,4.977,9.909,30.381,30.381,0,0,0,4.054,2.818,10.2,10.2,0,0,0,3.175-2.57,9.108,9.108,0,0,0,1.18-2.639s-2.821-2.981-1.925-4.891,3.205-1.047,3.838.185a12.392,12.392,0,0,1,.8,2.05c-.176-1.7-.774-4.248-2.8-4.25-3.037,0-5.721,3.278-8.686,3.247-1.47-.015-3.222-1.93-4.613-3.859" transform="translate(-337.322 -512.851)" fill="#2f295a"/>
        <path id="Trazado_693513" data-name="Trazado 693513" d="M505.329,710.125s-3.023-2.159-3.494-2.566-1.013-.958-1.013-.958a27.114,27.114,0,0,0,1.719,3.607,15.444,15.444,0,0,0,3.182,3.428Z" transform="translate(-381.325 -538.004)" fill="#e26889"/>
        <path id="Trazado_693514" data-name="Trazado 693514" d="M516.379,634.362c.526-1.754,1.767-3.761,4.2-3.042,0,0,.939.723,1.019,3.049.169,1.567.244,2.223.244,2.223a6.81,6.81,0,0,0,1.522-.893,4.916,4.916,0,0,0,.266-3.757c-1.009-2.975-4.212-1.439-4.212-1.439s-2.4.392-3.044,3.86" transform="translate(-393.17 -479.761)" fill="#1b1d23"/>
        <path id="Trazado_693515" data-name="Trazado 693515" d="M496.664,686.631s-1.249-.767-1.366.076a4.334,4.334,0,0,0,1.794,3.147c.831.369-.429-3.223-.429-3.223" transform="translate(-377.113 -522.557)" fill="#e26889"/>
        <path id="Trazado_693516" data-name="Trazado 693516" d="M466.218,830.105c-.217-1.412-.392-2.809-.576-4.144a104.314,104.314,0,0,0-1.978-11.058c-.7-2.785-2.048-5.366-2.454-8.2a.545.545,0,0,1-.438.1c-1.218-.226-17.568-1.275-26.862-1.479-1.153-.025-2.195-.038-3.086-.033-.071,3.041-.143,6.656-.214,10.094-.117,5.519-.232,10.582-.328,12.087-.22,3.474.385,19.05.917,20.081s16.1,3.708,25.707,3.021,11.417-.968,11.417-.968a65.5,65.5,0,0,1-2.1-19.5" transform="translate(-327.58 -613.146)" fill="#1f73ff"/>
        <path id="Trazado_693517" data-name="Trazado 693517" d="M532.944,781.744s6.246,18.71,11.295,31.087,8.417,17,4.824,18.746-10.7,0-10.7,0l-8.947-21.52s-10.9-28.591,3.531-28.313" transform="translate(-400.088 -595.217)" fill="#11afde"/>
        <path id="Trazado_693518" data-name="Trazado 693518" d="M430.143,676.122c-9.5,0-13.806-5.633-15.287-13.261-3.114-16.017,6.24-40.842,6.24-40.842a169.3,169.3,0,0,1-6.471-18.742c-2.484-8.668,8.938-14,8.938-14s9.41-5.488,18.79-.835a11.092,11.092,0,0,1,3.629,2.727c3.975,4.732.129,10.8.129,10.8s-5.263,6.278-5.311,11.723,4.6,14.633,4.6,14.633,14.173,47.8-15.261,47.8" transform="translate(-315.387 -446.613)" fill="#53285a"/>
        <path id="Trazado_693519" data-name="Trazado 693519" d="M691.4,1296.973c-.433-.352-.68-3.427-.556-4.759s1.374-10.141,3.515-9.942,2.714,5.216,3.676,6.888a54.052,54.052,0,0,0,3.075,5.182c.979-.561,1.894-1.183,2.92-1.735,1.153,1,3.62,2.595,4.532,3.442s3.318,1.525,2.908,2.514-4.109.544-5.626.262-5.755-.03-7.217-1.2-1.653-5.7-2.432-6.806-.861-.87-1.636-.237-1.67,4.43-2.065,5.178-.2,1.943-1.094,1.212" transform="translate(-525.979 -976.317)" fill="#232047"/>
        <path id="Trazado_693520" data-name="Trazado 693520" d="M432.168,690.8c-9.5,0-13.806-5.633-15.287-13.261,6.046,7.134,14.571,13.383,22.073,4.9,13.388-15.144,2.124-38.782,0-45.74s.692-17.141,5.872-23.848a14.75,14.75,0,0,0,3.181-7c3.975,4.732.129,10.8.129,10.8s-5.264,6.278-5.311,11.723S447.429,643,447.429,643s14.173,47.8-15.261,47.8" transform="translate(-317.412 -461.288)" fill="#2f295a"/>
        <rect id="Rectángulo_344274" data-name="Rectángulo 344274" width="6.612" height="15.774" transform="translate(118.237 256.399)" fill="#fff"/>
        <path id="Trazado_693521" data-name="Trazado 693521" d="M523.25,1074.588v15.775h12.093v-5.509h-9.077v-10.266Z" transform="translate(-398.402 -818.189)" fill="#fff"/>
        <path id="Trazado_693522" data-name="Trazado 693522" d="M523.25,1140.7v28.652H525.2l-.685-2.146v-9.135h6.22v9.4l.073.212V1140.7Z" transform="translate(-398.402 -868.527)" fill="#fff"/>
        <path id="Trazado_693523" data-name="Trazado 693523" d="M423.631,1323.122a6.526,6.526,0,1,0,2.824-12.409v3.252a6.529,6.529,0,0,1-2.824,9.157" transform="translate(-322.552 -997.974)" fill="#fff"/>
        <path id="Trazado_693524" data-name="Trazado 693524" d="M384.457,1317.237a6.525,6.525,0,1,0,9.347-5.885,6.556,6.556,0,0,0-2.822-.64,6.525,6.525,0,0,0-6.525,6.525" transform="translate(-292.725 -997.974)" fill="#fff"/>
        <path id="Trazado_693525" data-name="Trazado 693525" d="M416.236,1232.442v4.346a6.418,6.418,0,0,1,1.75.552,6.554,6.554,0,0,1,2.824,2.612v-6.582l20.946-10.671v-9.192s-21.227,14.76-23.547,16.095-1.973,2.841-1.973,2.841" transform="translate(-316.907 -923.961)" fill="#fff"/>
        <path id="Trazado_693526" data-name="Trazado 693526" d="M654.526,1318.265a6.526,6.526,0,1,0,2.824-12.41,6.439,6.439,0,0,0-1.073.089v1.78a6.528,6.528,0,0,1-1.75,10.541" transform="translate(-498.355 -994.275)" fill="#fff"/>
        <path id="Trazado_693527" data-name="Trazado 693527" d="M554.914,1213.506v9.192l20.945,10.671v2.171a6.5,6.5,0,0,1,2.822.64,6.576,6.576,0,0,1,1.75,1.228v-4.967s.348-1.509-1.972-2.842-23.547-16.094-23.547-16.094" transform="translate(-422.51 -923.961)" fill="#fff"/>
        <path id="Trazado_693528" data-name="Trazado 693528" d="M615.352,1312.38a6.527,6.527,0,1,0,6.525-6.525,6.524,6.524,0,0,0-6.525,6.525" transform="translate(-468.528 -994.275)" fill="#fff"/>
        <path id="Trazado_693529" data-name="Trazado 693529" d="M537.471,1213.506v9.135l.686,2.145,3.614,11.306.678-.028c1.375.193,2.533,3.188,2.612,6.721h3.372l-2.055-5.946-4.745-13.726-.073-.212v-9.4Z" transform="translate(-409.229 -923.961)" fill="#fff"/>
        <path id="Trazado_693530" data-name="Trazado 693530" d="M528.537,1213.506v9.135l.686,2.145,3.64,11.394,2.105-.087-3.614-11.306-.685-2.145v-9.135Z" transform="translate(-402.427 -923.961)" fill="#fff"/>
        <path id="Trazado_693531" data-name="Trazado 693531" d="M533.932,1321.312a.817.817,0,0,1-.089.01l5.914-.244c1.307-.054,2.3-2.725,2.253-6.161,0-.049,0-.1,0-.146-.078-3.534-1.237-6.528-2.612-6.722l-.679.028-2.105.087-3.151.128c1.394.2,2.563,3.273,2.613,6.868,0,.186,0,.371,0,.551,0,.052,0,.1,0,.155-.005.211-.016.418-.03.62-.005.094-.012.186-.021.278,0,.028-.005.058-.007.086-.007.055-.01.111-.017.167-.01.106-.023.212-.037.317-.01.087-.023.171-.035.254-.005.045-.012.089-.019.132-.03.186-.062.367-.1.541-.015.075-.031.148-.049.221,0,.018-.009.035-.012.052-.007.033-.014.065-.023.1-.012.052-.026.1-.04.156-.021.082-.044.162-.066.24s-.045.155-.071.23c-.017.054-.035.108-.054.16-.031.092-.066.182-.1.27-.026.065-.052.127-.08.19-.017.042-.036.084-.056.124-.028.059-.057.117-.087.172a.1.1,0,0,1-.016.03c-.017.035-.037.068-.056.1s-.03.052-.045.078-.03.05-.045.075l-.047.071a2.537,2.537,0,0,1-.336.409c-.019.021-.04.038-.059.056a1.469,1.469,0,0,1-.31.216.858.858,0,0,1-.115.05l-.022.009a.64.64,0,0,1-.094.028c-.028.007-.057.012-.089.017" transform="translate(-406.175 -995.947)" fill="#fff"/>
        <path id="Trazado_693532" data-name="Trazado 693532" d="M523.253,1315.191c.049,3.6,1.22,6.673,2.615,6.869a.986.986,0,0,0,.2.009.735.735,0,0,0,.089-.01c.031-.005.061-.011.089-.018s.063-.017.094-.028l.022-.009a.877.877,0,0,0,.115-.051,1.465,1.465,0,0,0,.31-.216c.021-.017.04-.037.059-.056a2.54,2.54,0,0,0,.336-.409c.016-.024.031-.047.047-.071s.031-.05.045-.075.031-.052.045-.078.038-.066.056-.1a.1.1,0,0,0,.016-.03c.03-.056.059-.113.087-.172.019-.04.038-.082.056-.124.028-.062.054-.125.08-.189.035-.087.069-.177.1-.27.019-.052.037-.106.054-.16.024-.075.049-.151.071-.23s.045-.158.066-.24c.014-.052.028-.1.04-.156.009-.031.015-.063.022-.1,0-.018.009-.035.012-.052.017-.073.033-.146.049-.221.036-.174.069-.355.1-.541.007-.043.014-.087.019-.132.012-.084.024-.167.035-.254.014-.1.026-.211.036-.317.007-.056.01-.111.017-.167,0-.028.005-.057.007-.085.009-.092.016-.184.021-.279.014-.2.024-.409.03-.619,0-.05,0-.1,0-.155,0-.181,0-.365,0-.552-.051-3.594-1.22-6.669-2.613-6.867s-2.485,2.556-2.434,6.151" transform="translate(-398.402 -996.693)" fill="#fff"/>
        <path id="Trazado_693533" data-name="Trazado 693533" d="M579.871,1321.322l5.936-.245c1.306-.054,2.3-2.724,2.252-6.162-.05-3.6-1.22-6.67-2.614-6.867l-5.936.245c1.394.2,2.564,3.272,2.614,6.867.048,3.438-.946,6.108-2.252,6.162" transform="translate(-441.237 -995.945)" fill="#fff"/>
        <path id="Trazado_693534" data-name="Trazado 693534" d="M569.345,1315.518c.113,3.454,1.255,6.351,2.607,6.542a.987.987,0,0,0,.2.009l.059,0c.021,0,.04-.005.059-.011a.6.6,0,0,0,.059-.012c.033-.009.063-.017.094-.028l.023-.009a.879.879,0,0,0,.115-.051l.091-.05a.85.85,0,0,0,.082-.056l.009-.005a.078.078,0,0,0,.016-.012.373.373,0,0,0,.054-.042c.017-.014.037-.03.054-.045a1.357,1.357,0,0,0,.1-.1c.035-.035.068-.073.1-.111.017-.019.033-.04.051-.061s.047-.059.069-.09.051-.071.075-.108.031-.047.047-.071.031-.05.045-.075.031-.052.045-.078a4.229,4.229,0,0,0,.214-.426c.028-.062.054-.125.08-.189s.052-.134.078-.2v0c.019-.054.038-.109.058-.165.038-.113.075-.229.108-.349l.036-.129c.021-.078.042-.16.061-.242.009-.037.017-.075.026-.113q.031-.128.057-.261l.042-.216c.017-.094.033-.19.049-.285.007-.043.014-.087.019-.132.009-.061.018-.122.026-.183,0-.007,0-.012,0-.019.007-.057.016-.113.022-.172,0-.007,0-.012,0-.019.007-.057.014-.115.019-.174s.014-.143.021-.214v0c0-.065.012-.131.016-.2.019-.242.033-.491.038-.745,0-.05,0-.1,0-.151,0-.181.005-.365,0-.552-.049-3.594-1.22-6.669-2.614-6.867a1.248,1.248,0,0,0-1.124.532l2.055,5.945Z" transform="translate(-433.498 -996.693)" fill="#fff"/>
        <path id="Trazado_693535" data-name="Trazado 693535" d="M421.162,1075c2.244,1.16,16.376,1.651,16.376,1.651s10.925.076,20.912-.36c6.48-.28,12.564-.776,15.007-1.641,6.208-2.2,4.36-11.02,1.454-13.371s-7.659-.316-19.744.96-31.231-.464-33.081-.841a5.915,5.915,0,0,0-3.03.177,4.743,4.743,0,0,0-3.066,4.144c-.681,4.408,2.928,8.121,5.172,9.281" transform="translate(-316.67 -807.235)" fill="#6c7ad3"/>
        <path id="Trazado_693536" data-name="Trazado 693536" d="M429.109,1061.578c2.011,1.354,5.948,3.229,12.372,3.285,10.091.09,22.105-.44,25.835-1.228s8.1,4.158,6,9.223c-.71,1.709-2.342,2.767-4.81,3.436,6.48-.28,12.564-.776,15.008-1.641,6.208-2.2,4.36-11.02,1.454-13.371s-7.66-.316-19.744.96-31.231-.464-33.081-.841a5.909,5.909,0,0,0-3.03.177" transform="translate(-326.723 -807.236)" fill="#5763a0"/>
        <path id="Trazado_693537" data-name="Trazado 693537" d="M394.447,855.27h32.877a3.973,3.973,0,0,0,4.021-4.7l-2.861-19.792a5.621,5.621,0,0,0-5.38-4.7H390.227a3.973,3.973,0,0,0-4.021,4.7l2.861,19.792a5.622,5.622,0,0,0,5.381,4.7" transform="translate(-294.018 -628.973)" fill="#5763a0"/>
        <path id="Trazado_693538" data-name="Trazado 693538" d="M394.447,855.27H422.8a3.973,3.973,0,0,0,4.021-4.7l-2.861-19.792a5.622,5.622,0,0,0-5.381-4.7H390.227a3.973,3.973,0,0,0-4.021,4.7l2.861,19.792a5.622,5.622,0,0,0,5.381,4.7" transform="translate(-294.018 -628.973)" fill="#6c7ad3"/>
        <path id="Trazado_693539" data-name="Trazado 693539" d="M482.371,863.119l-.424,12.293,3.1,8.062h-3.1l-2.938-8.062V863.119Z" transform="translate(-364.716 -657.178)" fill="#5763a0"/>
        <rect id="Rectángulo_344275" data-name="Rectángulo 344275" width="6.612" height="12.293" transform="translate(104.665 205.942)" fill="#899191"/>
        <rect id="Rectángulo_344276" data-name="Rectángulo 344276" width="3.015" height="12.293" transform="translate(111.277 205.942)" fill="#707777"/>
        <path id="Trazado_693540" data-name="Trazado 693540" d="M438.66,914.639,452.232,952.8h6.612l-13.571-38.164Z" transform="translate(-333.995 -696.405)" fill="#899191"/>
        <path id="Trazado_693541" data-name="Trazado 693541" d="M466.371,914.639,479.943,952.8h3.015l-13.572-38.164Z" transform="translate(-355.094 -696.405)" fill="#707777"/>
        <rect id="Rectángulo_344277" data-name="Rectángulo 344277" width="6.612" height="15.774" transform="translate(118.237 256.399)" fill="#899191"/>
        <path id="Trazado_693542" data-name="Trazado 693542" d="M523.25,1074.588v15.775h12.093v-5.509h-9.077v-10.266Z" transform="translate(-398.402 -818.189)" fill="#707777"/>
        <path id="Trazado_693543" data-name="Trazado 693543" d="M523.25,1140.7v28.652H525.2l-.685-2.146v-9.135h6.22v9.4l.073.212V1140.7Z" transform="translate(-398.402 -868.527)" fill="#707777"/>
        <path id="Trazado_693544" data-name="Trazado 693544" d="M423.631,1323.122a6.526,6.526,0,1,0,2.824-12.409v3.252a6.529,6.529,0,0,1-2.824,9.157" transform="translate(-322.552 -997.974)" fill="#707777"/>
        <path id="Trazado_693545" data-name="Trazado 693545" d="M384.457,1317.237a6.525,6.525,0,1,0,9.347-5.885,6.556,6.556,0,0,0-2.822-.64,6.525,6.525,0,0,0-6.525,6.525" transform="translate(-292.725 -997.974)" fill="#899191"/>
        <path id="Trazado_693546" data-name="Trazado 693546" d="M416.236,1232.442v4.346a6.418,6.418,0,0,1,1.75.552,6.554,6.554,0,0,1,2.824,2.612v-6.582l20.946-10.671v-9.192s-21.227,14.76-23.547,16.095-1.973,2.841-1.973,2.841" transform="translate(-316.907 -923.961)" fill="#707777"/>
        <path id="Trazado_693547" data-name="Trazado 693547" d="M654.526,1318.265a6.526,6.526,0,1,0,2.824-12.41,6.439,6.439,0,0,0-1.073.089v1.78a6.528,6.528,0,0,1-1.75,10.541" transform="translate(-498.355 -994.275)" fill="#707777"/>
        <path id="Trazado_693548" data-name="Trazado 693548" d="M554.914,1213.506v9.192l20.945,10.671v2.171a6.5,6.5,0,0,1,2.822.64,6.576,6.576,0,0,1,1.75,1.228v-4.967s.348-1.509-1.972-2.842-23.547-16.094-23.547-16.094" transform="translate(-422.51 -923.961)" fill="#707777"/>
        <path id="Trazado_693549" data-name="Trazado 693549" d="M615.352,1312.38a6.527,6.527,0,1,0,6.525-6.525,6.524,6.524,0,0,0-6.525,6.525" transform="translate(-468.528 -994.275)" fill="#899191"/>
        <path id="Trazado_693550" data-name="Trazado 693550" d="M537.471,1213.506v9.135l.686,2.145,3.614,11.306.678-.028c1.375.193,2.533,3.188,2.612,6.721h3.372l-2.055-5.946-4.745-13.726-.073-.212v-9.4Z" transform="translate(-409.229 -923.961)" fill="#899191"/>
        <path id="Trazado_693551" data-name="Trazado 693551" d="M528.537,1213.506v9.135l.686,2.145,3.64,11.394,2.105-.087-3.614-11.306-.685-2.145v-9.135Z" transform="translate(-402.427 -923.961)" fill="#707777"/>
        <path id="Trazado_693552" data-name="Trazado 693552" d="M533.932,1321.312a.817.817,0,0,1-.089.01l5.914-.244c1.307-.054,2.3-2.725,2.253-6.161,0-.049,0-.1,0-.146-.078-3.534-1.237-6.528-2.612-6.722l-.679.028-2.105.087-3.151.128c1.394.2,2.563,3.273,2.613,6.868,0,.186,0,.371,0,.551,0,.052,0,.1,0,.155-.005.211-.016.418-.03.62-.005.094-.012.186-.021.278,0,.028-.005.058-.007.086-.007.055-.01.111-.017.167-.01.106-.023.212-.037.317-.01.087-.023.171-.035.254-.005.045-.012.089-.019.132-.03.186-.062.367-.1.541-.015.075-.031.148-.049.221,0,.018-.009.035-.012.052-.007.033-.014.065-.023.1-.012.052-.026.1-.04.156-.021.082-.044.162-.066.24s-.045.155-.071.23c-.017.054-.035.108-.054.16-.031.092-.066.182-.1.27-.026.065-.052.127-.08.19-.017.042-.036.084-.056.124-.028.059-.057.117-.087.172a.1.1,0,0,1-.016.03c-.017.035-.037.068-.056.1s-.03.052-.045.078-.03.05-.045.075l-.047.071a2.537,2.537,0,0,1-.336.409c-.019.021-.04.038-.059.056a1.469,1.469,0,0,1-.31.216.858.858,0,0,1-.115.05l-.022.009a.64.64,0,0,1-.094.028c-.028.007-.057.012-.089.017" transform="translate(-406.175 -995.947)" fill="#899191"/>
        <path id="Trazado_693553" data-name="Trazado 693553" d="M523.253,1315.191c.049,3.6,1.22,6.673,2.615,6.869a.986.986,0,0,0,.2.009.735.735,0,0,0,.089-.01c.031-.005.061-.011.089-.018s.063-.017.094-.028l.022-.009a.877.877,0,0,0,.115-.051,1.465,1.465,0,0,0,.31-.216c.021-.017.04-.037.059-.056a2.54,2.54,0,0,0,.336-.409c.016-.024.031-.047.047-.071s.031-.05.045-.075.031-.052.045-.078.038-.066.056-.1a.1.1,0,0,0,.016-.03c.03-.056.059-.113.087-.172.019-.04.038-.082.056-.124.028-.062.054-.125.08-.189.035-.087.069-.177.1-.27.019-.052.037-.106.054-.16.024-.075.049-.151.071-.23s.045-.158.066-.24c.014-.052.028-.1.04-.156.009-.031.015-.063.022-.1,0-.018.009-.035.012-.052.017-.073.033-.146.049-.221.036-.174.069-.355.1-.541.007-.043.014-.087.019-.132.012-.084.024-.167.035-.254.014-.1.026-.211.036-.317.007-.056.01-.111.017-.167,0-.028.005-.057.007-.085.009-.092.016-.184.021-.279.014-.2.024-.409.03-.619,0-.05,0-.1,0-.155,0-.181,0-.365,0-.552-.051-3.594-1.22-6.669-2.613-6.867s-2.485,2.556-2.434,6.151" transform="translate(-398.402 -996.693)" fill="#707777"/>
        <path id="Trazado_693554" data-name="Trazado 693554" d="M579.871,1321.322l5.936-.245c1.306-.054,2.3-2.724,2.252-6.162-.05-3.6-1.22-6.67-2.614-6.867l-5.936.245c1.394.2,2.564,3.272,2.614,6.867.048,3.438-.946,6.108-2.252,6.162" transform="translate(-441.237 -995.945)" fill="#899191"/>
        <path id="Trazado_693555" data-name="Trazado 693555" d="M569.345,1315.518c.113,3.454,1.255,6.351,2.607,6.542a.987.987,0,0,0,.2.009l.059,0c.021,0,.04-.005.059-.011a.6.6,0,0,0,.059-.012c.033-.009.063-.017.094-.028l.023-.009a.879.879,0,0,0,.115-.051l.091-.05a.85.85,0,0,0,.082-.056l.009-.005a.078.078,0,0,0,.016-.012.373.373,0,0,0,.054-.042c.017-.014.037-.03.054-.045a1.357,1.357,0,0,0,.1-.1c.035-.035.068-.073.1-.111.017-.019.033-.04.051-.061s.047-.059.069-.09.051-.071.075-.108.031-.047.047-.071.031-.05.045-.075.031-.052.045-.078a4.229,4.229,0,0,0,.214-.426c.028-.062.054-.125.08-.189s.052-.134.078-.2v0c.019-.054.038-.109.058-.165.038-.113.075-.229.108-.349l.036-.129c.021-.078.042-.16.061-.242.009-.037.017-.075.026-.113q.031-.128.057-.261l.042-.216c.017-.094.033-.19.049-.285.007-.043.014-.087.019-.132.009-.061.018-.122.026-.183,0-.007,0-.012,0-.019.007-.057.016-.113.022-.172,0-.007,0-.012,0-.019.007-.057.014-.115.019-.174s.014-.143.021-.214v0c0-.065.012-.131.016-.2.019-.242.033-.491.038-.745,0-.05,0-.1,0-.151,0-.181.005-.365,0-.552-.049-3.594-1.22-6.669-2.614-6.867a1.248,1.248,0,0,0-1.124.532l2.055,5.945Z" transform="translate(-433.498 -996.693)" fill="#707777"/>
        <rect id="Rectángulo_344278" data-name="Rectángulo 344278" width="3.579" height="102.056" transform="translate(214.003 220.8)" fill="#f87582"/>
        <rect id="Rectángulo_344279" data-name="Rectángulo 344279" width="3.579" height="102.056" transform="translate(174.496 221.145)" fill="#f87582"/>
        <rect id="Rectángulo_344280" data-name="Rectángulo 344280" width="3.59" height="258.898" transform="translate(257.578 44.39)" fill="#c59bd2"/>
        <rect id="Rectángulo_344281" data-name="Rectángulo 344281" width="194.087" height="130.186" transform="translate(158.242 59.085)" fill="#c59bd2"/>
        <rect id="Rectángulo_344282" data-name="Rectángulo 344282" width="187.467" height="119.299" transform="translate(161.593 62.701)" fill="#fff"/>
        <rect id="Rectángulo_344283" data-name="Rectángulo 344283" width="53.693" height="1.058" transform="translate(208.103 61.074) rotate(-17.856)" fill="#c59bd2"/>
        <rect id="Rectángulo_344284" data-name="Rectángulo 344284" width="1.058" height="53.693" transform="translate(259.49 45.62) rotate(-72.149)" fill="#c59bd2"/>
        <path id="Trazado_693556" data-name="Trazado 693556" d="M976.809,1145.824H883.118a1.19,1.19,0,0,1-.74-2.123l47.752-37.849a1.19,1.19,0,0,1,1.5.015l45.939,37.849a1.19,1.19,0,0,1-.757,2.109m-90.273-2.381h86.956l-42.637-35.128Z" transform="translate(-671.498 -841.798)" fill="#c59bd2"/>
        <path id="Trazado_693557" data-name="Trazado 693557" d="M1171.5,403.644c-.193,2.491-1.353,6.388-2.623,10.3-1.371,4.212-2.863,8.433-3.415,10.894-.109.481-.223.963-.346,1.445-1.077,4.274-2.557,8.6-1.887,13.035,0,0-2.846-2.715-4.155-8.56a19.853,19.853,0,0,1-.315-5.421c.289-4.948,1.734-10.263,2.124-12.991.267-1.852-.569-4.751-1.489-7.238-.477-1.292-.981-2.47-1.366-3.328s-.657-1.414-.657-1.414l-.079-9.869s.35-.28.928-.648c1.528-.963,4.672-2.522,7.2-1,3.485,2.1,6.485,9.624,6.077,14.8" transform="translate(-881.159 -295.583)" fill="#53285a"/>
        <path id="Trazado_693558" data-name="Trazado 693558" d="M1086.652,396.1a9.567,9.567,0,0,1-.28,1.327,41.3,41.3,0,0,1-1.454,4.374,11.677,11.677,0,0,1-5.565,6.493,40.716,40.716,0,0,1-7.413,2.719,20.533,20.533,0,0,0-2.382.911c-3.266-2.032-8.24-4.816-9.2-9.024a22.388,22.388,0,0,1-.438-10.478c.832-3.9,3.678-6.629,5.8-7.041,1.081-.21,3.306.644,4.339-.779s10.995-.679,13.162,1.393c.175.166.35.35.521.547a12.445,12.445,0,0,1,2.907,9.558" transform="translate(-806.685 -292.275)" fill="#53285a"/>
        <path id="Trazado_693559" data-name="Trazado 693559" d="M1131.989,444.664c-1.371,4.212-2.864,8.433-3.415,10.894-.109.482-.223.963-.346,1.445-1.9-.2-5.153-.771-6.358-.946.289-4.948,1.734-10.263,2.124-12.991.267-1.852-.569-4.751-1.489-7.238a11.678,11.678,0,0,1-5.565,6.493,40.708,40.708,0,0,1-7.413,2.719l-.683-10.889s5.421,3.358,9.825.4a14.658,14.658,0,0,0,2.47-2.053,7.573,7.573,0,0,0,2.264-3.941s.346.617.836,1.568c1.086,2.1,2.885,5.85,3.288,8.258.582,3.5-1.944,8.245.911,8.319,1.081.026,2.369-.889,3.551-2.04" transform="translate(-844.271 -326.305)" fill="#2f295a"/>
        <path id="Trazado_693560" data-name="Trazado 693560" d="M921.285,671.364a7.81,7.81,0,0,0,1.442.126s0,0-.008.007c-.142.09-1.853,1.191-3.2,2.131.132.193.265.385.407.571l.25.324,0,0c.218.146.436.292.664.423l.108.063c.359.118.744.207.926.271.1.037.5.165.88.288.341.072,1,.23,1.182.256,1.193.169,3.031.583,4.2.267l-1.053.035q.554-.048,1.1-.127c.606-.081,1.209-.182,1.809-.3.419-.079.836-.17,1.254-.258a10.452,10.452,0,0,1,2.5-.716c1.173-.074,2.821-.286,2.821-.286l-.09-2.338-.1-2.772a27.548,27.548,0,0,1-3.631.285c-1.517-.026-3.685-.321-3.685-.321a15.889,15.889,0,0,0-4.724-.57c-1.738.237-5.613,1.084-5.7,1.679a.247.247,0,0,0,.017.137c.192.486,1.79.677,2.622.816" transform="translate(-699.452 -509.138)" fill="#fbaea8"/>
        <path id="Trazado_693561" data-name="Trazado 693561" d="M962.155,680.715c.419-.079.836-.17,1.254-.258a10.429,10.429,0,0,1,2.5-.716c1.173-.074,2.821-.286,2.821-.286l-.09-2.338-.7-1.852s-.543,3.115-1.307,3.464-4,.612-5.69,2.138l-.071.064c.43-.065.858-.136,1.285-.217" transform="translate(-731.604 -514.146)" fill="#e26889"/>
      </g>
    </g>
    <g id="Grupo_896120" data-name="Grupo 896120" transform="translate(231.74 121.606)">
      <g id="Grupo_896119" data-name="Grupo 896119" clip-path="url(#clip-path-2)">
        <rect id="Rectángulo_344286" data-name="Rectángulo 344286" width="28.189" height="46.732" transform="translate(0 0)" fill="url(#linear-gradient)"/>
      </g>
    </g>
    <g id="Grupo_896122" data-name="Grupo 896122" transform="translate(0 0.002)">
      <g id="Grupo_896121" data-name="Grupo 896121" clip-path="url(#clip-path-3)">
        <path id="Trazado_693563" data-name="Trazado 693563" d="M1001.749,609.453s-8.173,12.969-10.147,13.813-17.194,1.879-17.194,1.879l-.121-1.1c5.011-.6,15.03-1.9,16.317-2.815,1.729-1.217,4.73-7.552,4.73-7.552l5.925-13.718Z" transform="translate(-741.82 -456.809)" fill="#7c58ef"/>
      </g>
    </g>
    <g id="Grupo_896124" data-name="Grupo 896124" transform="translate(249.016 118.588)">
      <g id="Grupo_896123" data-name="Grupo 896123" clip-path="url(#clip-path-4)">
        <rect id="Rectángulo_344288" data-name="Rectángulo 344288" width="37.536" height="59.163" transform="translate(-0.495 0)" fill="url(#linear-gradient-2)"/>
      </g>
    </g>
    <g id="Grupo_896126" data-name="Grupo 896126" transform="translate(0 0.002)">
      <g id="Grupo_896125" data-name="Grupo 896125" clip-path="url(#clip-path-5)">
        <path id="Trazado_693565" data-name="Trazado 693565" d="M1085.538,633.336l-5.394,3.836s-3.424,1.2-6.655,2.294a43.079,43.079,0,0,1-11.472-2.662l-2.4-3.074-.675-.867.828-9.466s-.871-2.071-1.9-4.7c2.01,1.252,4.628,2.478,6.743,2.1,4.028-.727,7.286-14.156,7.286-14.156Z" transform="translate(-805.457 -461.892)" fill="#7c58ef"/>
        <path id="Trazado_693566" data-name="Trazado 693566" d="M1129.7,579.5l.146.393-2.05,1.411-7.947-16.534-3.987-12.408,9.886-17.991h5.012l3.471,17.747a62.366,62.366,0,0,0-.326,6.818c.136,6.786-4.2,20.565-4.2,20.565" transform="translate(-849.612 -406.869)" fill="#7c58ef"/>
        <path id="Trazado_693567" data-name="Trazado 693567" d="M1099.686,478.352l-.263.318-6.55,7.921-3.491-4.408.45-3.118v-.281l.018-2.983,8.226-2.85Z" transform="translate(-829.453 -360.104)" fill="#fbaea8"/>
        <path id="Trazado_693568" data-name="Trazado 693568" d="M1101.121,478.352l-.263.318-1.086-1.517s-3.2,4.807-5.464,3.937a8.963,8.963,0,0,1-3.041-2.306l.018-2.983,8.226-2.85Z" transform="translate(-830.888 -360.104)" fill="#e26889"/>
        <path id="Trazado_693569" data-name="Trazado 693569" d="M1210.062,1312.593c.592,0,1.184-.006,1.775-.007q1.217-.13,2.431-.28c3.108-.385,6.225-.938,9.349-1.225a6.626,6.626,0,0,0,.078-.85c-.016-1.7-2.866-8.356-3.722-10.718a10.672,10.672,0,0,0-2.458-3.843l-8.678,1.453a7.078,7.078,0,0,0-.762,2.769c.088.975,1.153,10.094,1.985,12.7" transform="translate(-919.822 -986.52)" fill="#232047"/>
        <path id="Trazado_693570" data-name="Trazado 693570" d="M1125.544,927.651l-6.159.983-.68.11s-.409-.768-1.254-2.639-2.573-11.667-3.078-15.5-5.8-19.121-8.115-25.8-1.963-13.846-2.025-14.9c-.036-.556-1.565-6.159-3.323-12.249-.589-2.029-1.2-4.112-1.787-6.082-.987-3.279-1.912-6.236-2.559-8.1-.8-2.3-2.4-8.8-4.116-16.138-2.993-12.823-6.331-28.208-6.331-28.208l10.417-.3,13.426-.384,4.006,14.38-.958,23.075s1.389,5.329,2.621,13.609c.015.1.029.187.044.281.3,2.018.519,4.024.687,5.94.036.406.069.808.1,1.2.438,5.585.449,10.249.556,12.007.15,2.467.643,3.125,1.7,8.506s2.833,24.15,3.308,28.233a66.865,66.865,0,0,0,2.317,10.443c.694,2.482,1.2,11.521,1.2,11.521" transform="translate(-826.968 -607.941)" fill="#fbaea8"/>
        <path id="Trazado_693571" data-name="Trazado 693571" d="M1160.886,1091.582l-.68.11s-.409-.767-1.254-2.639-2.573-11.667-3.078-15.5-5.8-19.121-8.115-25.8-1.963-13.846-2.025-14.9c-.036-.556-1.564-6.159-3.323-12.249-.589-2.029-1.2-4.112-1.787-6.082l16.507-2.058c.014.1.029.186.044.282.3,2.018.519,4.024.687,5.94.036.406.069.808.1,1.2-1.564.851-5.666,2.953-8.14,3.026-3.107.091-2.7,7.493-2.493,9.047s-.98,8.955,2.493,18.276,6.81,23.657,7.4,29.059c.358,3.282,2.241,8.612,3.659,12.285" transform="translate(-868.469 -770.888)" fill="#e26889"/>
        <path id="Trazado_693572" data-name="Trazado 693572" d="M1055.7,783.057s-.2,1.4-.534,3.747c-.848,5.933-2.559,17.911-4.086,28.5-1.422,9.847-2.687,18.5-2.95,19.983s-.958,4.342-1.707,7.263c-.285,1.137-.585,2.281-.866,3.356-.815,3.121-1.506,5.647-1.506,5.647s2.007,7.592.358,19.318-4.924,26.643-4.924,26.643l-.38,1.773-1.214,5.636-7.555,11.013-4.573-3.44s4.236-9.533,5.1-13.364,1.228-18.641,1.228-18.641l-.062-28.928s.007-2.211.03-5.618c.011-2.05.029-4.532.051-7.226.007-.921.015-1.868.026-2.833v-.055c.018-1.941.04-3.944.062-5.94,0-.059,0-.117,0-.176.091-7.486.23-14.789.435-18.009.135-2.175.533-5.286,1.042-8.641,1.316-8.74,3.355-19.157,3.355-19.157Z" transform="translate(-781.011 -596.218)" fill="#fbaea8"/>
        <path id="Trazado_693573" data-name="Trazado 693573" d="M1065.628,1023.541c-.815,3.122-1.506,5.647-1.506,5.647s2.007,7.592.359,19.318-4.924,26.643-4.924,26.643l-.38,1.773-.31.4s2.193-12.885,3.929-23.759,0-24.947,0-24.947a5.134,5.134,0,0,0-4.021-3.29,47.222,47.222,0,0,1-6.649-1.747c.011-2.051.029-4.532.051-7.226l14.318,3.831c-.285,1.137-.585,2.281-.866,3.355" transform="translate(-801.086 -773.851)" fill="#e26889"/>
        <path id="Trazado_693574" data-name="Trazado 693574" d="M1088.138,795.326a12.538,12.538,0,0,1-1.773,1.846,12.878,12.878,0,0,1-3.962,2.3c-.647.238-1.305.453-1.974.64a27.587,27.587,0,0,1-3.367.731,28.351,28.351,0,0,1-6.368.23c-1.009-.135-2-.34-2.95-.552-1.612-.362-3.092-.749-4.3-.881a5.985,5.985,0,0,0-1.181-.036,30.84,30.84,0,0,1-9.584.6,19.629,19.629,0,0,1-4.152-.961,23.853,23.853,0,0,1-2.763-1.162c-.238-6.346-.311-12.61-.212-19.026-.011-2.274,0-4,.037-5.146.026-.826.081-1.817.172-2.939l0-.15.011-.029c.384-10.362,1.875-19,2.423-25.013.292-3.169.61-6.44.866-9.047a6.7,6.7,0,0,1,.515-1.809c.5-1.232,1.29-2.716,2.076-4.269a10.721,10.721,0,0,0,.848-3.151c.08-.585.113-1.049.124-1.243l-.015-1.06.925.2a9.528,9.528,0,0,0,2.434.176,53.478,53.478,0,0,0,6.331-.877c3.144-.541,7.449-1.283,13.316-1.934l.285-.033.234.186a36.455,36.455,0,0,1,8.849,16.935,74.249,74.249,0,0,1,1.181,26.19,210.128,210.128,0,0,1,1.758,23.613c.066,1.868.132,3.765.216,5.673" transform="translate(-796.05 -550.285)" fill="#2f295a" fill-rule="evenodd"/>
        <path id="Trazado_693575" data-name="Trazado 693575" d="M1050.212,774.517s-1.681,40.376-1.681,47.138V838.14a23.869,23.869,0,0,1-2.763-1.163c-.238-6.345-.311-12.61-.212-19.025-.011-2.274,0-4,.036-5.146.026-.826.08-1.817.172-2.939l0-.15.011-.029c.384-10.362,1.875-19,2.423-25.013.292-3.169.61-6.44.866-9.047a6.7,6.7,0,0,1,.515-1.809,1.287,1.287,0,0,1,.636.7" transform="translate(-796.051 -589.185)" fill="#3f5ea2"/>
        <path id="Trazado_693576" data-name="Trazado 693576" d="M1009.714,1285.942c.224-.123.8-3.166.842-6.512s-2.967-14.258-4.751-13.871-3.061,5.88-4.907,9.6a61.321,61.321,0,0,1-4.106,6.953l-3.871-2.349s-4.648,3.527-6.278,4.717-4.131,2.88-4.088,3.326,4.2.721,7.7.369a95.4,95.4,0,0,0,10.054-1.455c.344-.24,2.812-8.943,3.159-9.635a1.367,1.367,0,0,1,2.044-.234,60.356,60.356,0,0,1,2.87,7.389c.466,1.5.862,1.956,1.327,1.7" transform="translate(-748.115 -963.587)" fill="#232047"/>
        <path id="Trazado_693577" data-name="Trazado 693577" d="M1078.693,498.58l-3.941,5.124,2.928-.957,4.054,3.359-2.476-4.423Z" transform="translate(-818.313 -379.618)" fill="#1a2d63"/>
        <path id="Trazado_693578" data-name="Trazado 693578" d="M1104.012,516.166l5.973-2.669,5.007.267-5.331-1.971Z" transform="translate(-840.592 -389.679)" fill="#a387af"/>
        <path id="Trazado_693579" data-name="Trazado 693579" d="M915.737,694.955c-.04.044-.091.095-.153.157.058-.066.113-.12.153-.157" transform="translate(-697.124 -529.138)" fill="#e26889"/>
        <path id="Trazado_693580" data-name="Trazado 693580" d="M924.84,676.539l-2.048.885a7.806,7.806,0,0,1-1.442-.126c-.832-.139-2.43-.329-2.622-.816a1.818,1.818,0,0,0,1.121.193c1.613-.065,4.991-.137,4.991-.137" transform="translate(-699.518 -515.073)" fill="#e26889"/>
        <path id="Trazado_693581" data-name="Trazado 693581" d="M1110.436,795.326a12.539,12.539,0,0,1-1.773,1.846c-.581-6.053-3.1-25.323-3.6-33.12-.549-8.648-5.359-35.119-7.369-37.082s-10.6.958-17.728,1.053a18.018,18.018,0,0,1-5.169-.523c.08-.585.113-1.049.124-1.243l-.015-1.06.925.2a9.528,9.528,0,0,0,2.434.176,53.476,53.476,0,0,0,6.331-.877c3.144-.541,7.449-1.283,13.316-1.934l.285-.033.234.186a36.454,36.454,0,0,1,8.849,16.935,74.251,74.251,0,0,1,1.181,26.19,210.155,210.155,0,0,1,1.758,23.613c.066,1.868.132,3.765.216,5.673" transform="translate(-818.348 -550.285)" fill="#232047"/>
        <path id="Trazado_693582" data-name="Trazado 693582" d="M1164.128,884.929a27.518,27.518,0,0,1-3.366.731l-5.322-51.528Z" transform="translate(-879.749 -635.107)" fill="#232047"/>
        <path id="Trazado_693583" data-name="Trazado 693583" d="M1124.978,915.664c-1.612-.362-3.092-.749-4.3-.881l1.166-40.822Z" transform="translate(-853.283 -665.432)" fill="#232047"/>
        <path id="Trazado_693584" data-name="Trazado 693584" d="M1004.518,637.631h.011s-.076-.03-.2-.087l-.034-.016c-.491-.235-1.557-.846-1.176-1.577a.585.585,0,0,1,.243-.251c.64-.366,2.018.149,2.49.343l.031.015c.081.033.126.054.126.054s-1.569-1.055-1.3-1.629a.347.347,0,0,1,.031-.051c.394-.459,2.628.417,2.628.417a1.4,1.4,0,0,1-.156-.59.156.156,0,0,1,.031-.094,29.806,29.806,0,0,1,6.621,2.239,43.985,43.985,0,0,1,4.412,3.494,14.247,14.247,0,0,0,3.6-.091c.631-.274,2.006,3.162,2.362,4.09.056.144.086.227.086.227s-3.864,1.134-5.791,1.506-8.73-.547-11.205-1.485-2.853-1-2.73-1.45,3.563.167,4.085-.366-2.7-1.9-4.575-2.674c-1.763-.724-3.274-1.23-3.255-1.869a.408.408,0,0,1,.023-.13c.231-.671,3.359-.08,3.63-.027,0,0,0,0,.006,0Z" transform="translate(-762.049 -482.841)" fill="#fbaea8"/>
        <path id="Trazado_693585" data-name="Trazado 693585" d="M1000.879,647.818c.231-.671,3.359-.08,3.63-.026,0,0,0,0,.006,0h0c.812.382,3.581,1.691,3.6,1.807.022.137-3.092-1.14-4.714-1.608a4.641,4.641,0,0,0-2.548-.046.418.418,0,0,1,.023-.13" transform="translate(-762.049 -493.006)" fill="#e26889"/>
        <path id="Trazado_693586" data-name="Trazado 693586" d="M1011.373,640.232c.64-.366,2.019.149,2.491.343l.031.015,3.57,2.015s-1.426-.7-2.729-1.293a23.947,23.947,0,0,0-3.362-1.08" transform="translate(-770.057 -487.374)" fill="#e26889"/>
        <path id="Trazado_693587" data-name="Trazado 693587" d="M1044.045,647.22l-.2-.127c.094.057.16.1.2.127" transform="translate(-794.782 -492.696)" fill="#e26889"/>
        <path id="Trazado_693588" data-name="Trazado 693588" d="M1017.168,634.9c.394-.459,2.628.417,2.628.417l3.545,2.271a30.118,30.118,0,0,0-2.72-1.442,17.977,17.977,0,0,0-3.453-1.246" transform="translate(-774.469 -483.31)" fill="#e26889"/>
      </g>
    </g>
    <g id="Grupo_896128" data-name="Grupo 896128" transform="translate(257.234 122.433)">
      <g id="Grupo_896127" data-name="Grupo 896127" clip-path="url(#clip-path-6)">
        <rect id="Rectángulo_344290" data-name="Rectángulo 344290" width="31.429" height="43.706" transform="translate(0 0)" fill="url(#linear-gradient-3)"/>
      </g>
    </g>
    <g id="Grupo_896130" data-name="Grupo 896130" transform="translate(0 0.002)">
      <g id="Grupo_896129" data-name="Grupo 896129" clip-path="url(#clip-path-7)">
        <path id="Trazado_693590" data-name="Trazado 693590" d="M1104.012,500l6.813-9.44,5.132,2.454-.966,4.584-5.331-1.971Z" transform="translate(-840.592 -373.509)" fill="#1a2d63"/>
        <path id="Trazado_693591" data-name="Trazado 693591" d="M1110.662,562.768l-4.449,11.717s-2.846,9.156-4.02,9.567-15.136-.687-15.136-.687l-6.288-.915-.153-1.449-.2-1.878c3.026.6,17.427,3.38,19.48,2.146,2.3-1.384,11.472-24.984,10.115-31.849a41.665,41.665,0,0,1,.648,13.35" transform="translate(-822.628 -418.326)" fill="#7c58ef"/>
        <path id="Trazado_693592" data-name="Trazado 693592" d="M1076.022,418.854s1.609-2.032,3.374-1.725,1,4.03.376,4.765a3.228,3.228,0,0,1-3.942.5,33.207,33.207,0,0,1-3.912,4.03,11.5,11.5,0,0,1-5.4,1.15,35.024,35.024,0,0,1-3.628-6.278c-.278-1.182.056-7.113.391-9.239s3.633-6.943,6.059-6.646,4.539,4.6,5.069,6.182,1.616,7.258,1.616,7.258" transform="translate(-809.2 -308.672)" fill="#fbaea8"/>
        <path id="Trazado_693593" data-name="Trazado 693593" d="M405.007,319.02a21.683,21.683,0,1,1-21.683-21.683,21.683,21.683,0,0,1,21.683,21.683" transform="translate(-275.353 -226.392)" fill="#72c2ed"/>
        <path id="Trazado_693594" data-name="Trazado 693594" d="M337.932,21.686A21.683,21.683,0,1,1,316.249,0a21.683,21.683,0,0,1,21.683,21.683" transform="translate(-224.282 -0.003)" fill="#72c2ed"/>
        <path id="Trazado_693595" data-name="Trazado 693595" d="M96.143,236.614A21.683,21.683,0,1,1,74.46,214.931a21.683,21.683,0,0,1,21.683,21.683" transform="translate(-40.184 -163.648)" fill="#72c2ed"/>
        <path id="Trazado_693596" data-name="Trazado 693596" d="M332.646,75.255a2.166,2.166,0,0,1-1.973-1.171,1.972,1.972,0,0,1-.322-1.547,2.884,2.884,0,0,1-1.437-1.254,2.236,2.236,0,0,1-.208-1.369,3.509,3.509,0,0,1-1.82-.894c-.338-.375-.423-1.472-.252-3.26l.016-.172.581-.667a12.975,12.975,0,0,0-2.269-.193c-.23,0-.465.006-.7.017-.747.036-1.554.069-2.394.069-2.722,0-4.287-.358-4.927-1.125a1.393,1.393,0,0,1-.3-1.178c.165-.9,1.161-2.093,7.878-2.093,1,0,1.858.029,2.4.052.041,0,.083,0,.126,0a15.245,15.245,0,0,0,3.01-.541,15.851,15.851,0,0,1,3.284-.575,3.567,3.567,0,0,1,.415.023,9.674,9.674,0,0,0,1.136.073,4.991,4.991,0,0,0,2.132-.419,2.657,2.657,0,0,1,1.1-.215,6.122,6.122,0,0,1,2.6.692c1.047.524,3.673,3.633,4.25,4.327,2.177,2.037.339,8.018.121,8.7l-.091.284-.255.063a5.359,5.359,0,0,0-1.362,1.015c-1.174,1.087-6.141,1.142-7.126,1.142h0c-.4,0-.725-.009-.9-.025-.086-.008-.178-.012-.272-.012a8.03,8.03,0,0,0-1.183.124,10.182,10.182,0,0,1-1.048.124c-.074,0-.144.005-.211.005" transform="translate(-241.072 -44.785)" fill="#72c2ed"/>
        <path id="Trazado_693597" data-name="Trazado 693597" d="M346.3,65.921s-3.085-3.71-4.1-4.218a4.272,4.272,0,0,0-3.241-.469,6.371,6.371,0,0,1-3.554.39c-1.64-.2-5.038,1.172-6.8,1.094s-9.373-.312-9.724,1.6,4.647,1.718,7.069,1.6a12.178,12.178,0,0,1,3.983.391l-1.055,1.211s-.234,2.46.117,2.851a2.935,2.935,0,0,0,2.148.742,1.806,1.806,0,0,0-.039,1.64,2.815,2.815,0,0,0,1.64,1.172,1.493,1.493,0,0,0,.078,1.562,1.656,1.656,0,0,0,1.718.937,18.6,18.6,0,0,1,2.577-.234c.859.078,6.561,0,7.615-.976a5.069,5.069,0,0,1,1.562-1.133s2.031-6.326,0-8.162" transform="translate(-242.783 -46.498)" fill="#fff"/>
        <path id="Trazado_693598" data-name="Trazado 693598" d="M390.909,94.125A8.519,8.519,0,0,1,388,95.833a16.29,16.29,0,0,0,2.967-.811Z" transform="translate(-295.422 -71.667)" fill="#72c2ed"/>
        <path id="Trazado_693599" data-name="Trazado 693599" d="M382.558,106.311l-2.128,1.187a3.17,3.17,0,0,1-1.864.423,3.317,3.317,0,0,0-1.609.366s-.4.369-.4.613,1.1-.3,1.746-.457a13.543,13.543,0,0,0,2.828-.709c.4-.3,1.647-1.159,1.647-1.159Z" transform="translate(-286.707 -80.945)" fill="#72c2ed"/>
        <path id="Trazado_693600" data-name="Trazado 693600" d="M379.149,114.483a3.446,3.446,0,0,0,3.824-.576c1.227-.956,2.2-1.764,2.2-1.764s-1.677,2.622-3.293,2.9-2.867.172-2.727-.556" transform="translate(-288.675 -85.386)" fill="#72c2ed"/>
        <path id="Trazado_693601" data-name="Trazado 693601" d="M384.477,79.781s1.647-1.921,1.692-3.537c0,0-.076-.583.4-.516s3.019-1.02,3.19-1.843c0,0,.011,1.273,0,1.843s1.086,2.216,2.252,3.291,1.692,1.511,2.7,1.579a4.124,4.124,0,0,0,2.241-.939l-.627,3.938-1.82,1.527s-5.077,1.418-8.164.686a16.664,16.664,0,0,0,2.333-1.831,1.39,1.39,0,0,0-.076-2.26s.9-1.324.442-1.768-.759-.342-.759-.342.187-2.619-.362-2.68-.627.584-1.148,1.519-2.3,1.332-2.3,1.332" transform="translate(-292.74 -56.256)" fill="#72c2ed"/>
        <path id="Trazado_693602" data-name="Trazado 693602" d="M318.984,76.042a18.443,18.443,0,0,0,5.077.5c2.973-.092,4.482.065,5.168.01s4.4.012,4.4.012l-.057,2.47a2.573,2.573,0,0,1-.066.87c-.114.274-2.285,0-2.285,0s-.688-.407-.6-.512a1.033,1.033,0,0,0-.526-1.643,30.08,30.08,0,0,0-5.217-.382,34.337,34.337,0,0,1-3.976-.139,4.333,4.333,0,0,1-1.921-1.189" transform="translate(-242.874 -57.899)" fill="#72c2ed"/>
        <path id="Trazado_693603" data-name="Trazado 693603" d="M103.969,259.5a2.368,2.368,0,0,1,1.28-2.156A2.154,2.154,0,0,1,106.94,257a3.152,3.152,0,0,1,1.371-1.571,2.443,2.443,0,0,1,1.5-.227,3.837,3.837,0,0,1,.977-1.989c.41-.369,1.609-.462,3.564-.276l.188.018.729.635a14.175,14.175,0,0,0,.211-2.48c0-.252-.006-.508-.018-.762-.04-.816-.076-1.7-.076-2.617,0-2.975.391-4.687,1.23-5.386a1.522,1.522,0,0,1,1.288-.329c.982.18,2.288,1.269,2.288,8.611,0,1.1-.031,2.031-.058,2.621,0,.045,0,.091,0,.138a16.661,16.661,0,0,0,.592,3.29,17.344,17.344,0,0,1,.628,3.59,3.888,3.888,0,0,1-.025.453,10.575,10.575,0,0,0-.08,1.242,5.454,5.454,0,0,0,.458,2.331,2.9,2.9,0,0,1,.235,1.206,6.693,6.693,0,0,1-.757,2.842c-.573,1.145-3.972,4.015-4.73,4.646-2.227,2.38-8.765.371-9.506.133l-.311-.1-.069-.279a5.853,5.853,0,0,0-1.11-1.489c-1.188-1.283-1.248-6.713-1.248-7.79h0c0-.442.01-.792.027-.985.009-.094.013-.194.013-.3a8.794,8.794,0,0,0-.135-1.293,11.083,11.083,0,0,1-.136-1.145c0-.08-.006-.157-.006-.231" transform="translate(-79.162 -184.246)" fill="#72c2ed"/>
        <path id="Trazado_693604" data-name="Trazado 693604" d="M117.916,274.428s4.055-3.373,4.611-4.483a4.668,4.668,0,0,0,.512-3.543,6.966,6.966,0,0,1-.427-3.885c.213-1.793-1.28-5.507-1.2-7.428s.341-10.245-1.75-10.629-1.878,5.08-1.75,7.727a13.309,13.309,0,0,1-.427,4.354l-1.324-1.153s-2.689-.256-3.116.128a3.209,3.209,0,0,0-.811,2.348,1.976,1.976,0,0,0-1.793-.043,3.078,3.078,0,0,0-1.281,1.793,1.632,1.632,0,0,0-1.707.085,1.811,1.811,0,0,0-1.025,1.879,20.283,20.283,0,0,1,.256,2.817c-.085.939,0,7.171,1.067,8.324a5.538,5.538,0,0,1,1.238,1.708s6.915,2.22,8.922,0" transform="translate(-81.034 -186.117)" fill="#fff"/>
        <path id="Trazado_693605" data-name="Trazado 693605" d="M134.716,323.194a9.316,9.316,0,0,1-1.868-3.181,17.809,17.809,0,0,0,.887,3.243Z" transform="translate(-101.15 -243.658)" fill="#72c2ed"/>
        <path id="Trazado_693606" data-name="Trazado 693606" d="M118.11,314.065s-1.019-1.828-1.3-2.326a3.466,3.466,0,0,1-.462-2.038,3.626,3.626,0,0,0-.4-1.759s-.4-.441-.67-.441.333,1.2.5,1.908a14.8,14.8,0,0,0,.775,3.092c.333.433,1.267,1.8,1.267,1.8Z" transform="translate(-87.723 -234.131)" fill="#72c2ed"/>
        <path id="Trazado_693607" data-name="Trazado 693607" d="M107.829,310.338a3.767,3.767,0,0,0,.63,4.18c1.045,1.341,1.929,2.4,1.929,2.4s-2.866-1.833-3.166-3.6-.188-3.134.608-2.98" transform="translate(-81.522 -236.282)" fill="#72c2ed"/>
        <path id="Trazado_693608" data-name="Trazado 693608" d="M114.021,316.162s2.1,1.8,3.866,1.85c0,0,.637-.083.564.442s1.115,3.3,2.015,3.487c0,0-1.392.012-2.015,0s-2.422,1.188-3.6,2.462-1.652,1.85-1.726,2.95a4.507,4.507,0,0,0,1.026,2.45l-4.305-.685-1.67-1.989s-1.55-5.55-.75-8.924a18.239,18.239,0,0,0,2,2.55,1.52,1.52,0,0,0,2.47-.083s1.447.988,1.932.483.373-.829.373-.829,2.863.2,2.93-.4-.638-.685-1.66-1.255-1.455-2.512-1.455-2.512" transform="translate(-81.622 -240.725)" fill="#72c2ed"/>
        <path id="Trazado_693609" data-name="Trazado 693609" d="M146.534,244.57a20.159,20.159,0,0,0-.55,5.55c.1,3.25-.071,4.9-.01,5.649s-.013,4.809-.013,4.809l-2.7-.062a2.815,2.815,0,0,1-.951-.072c-.3-.125,0-2.5,0-2.5s.445-.753.56-.653a1.13,1.13,0,0,0,1.8-.575,32.9,32.9,0,0,0,.417-5.7,37.555,37.555,0,0,1,.152-4.347,4.735,4.735,0,0,1,1.3-2.1" transform="translate(-108.253 -186.216)" fill="#72c2ed"/>
        <path id="Trazado_693610" data-name="Trazado 693610" d="M708.455,294.769H769.5a6.51,6.51,0,0,1,6.51,6.51v19.259a6.51,6.51,0,0,1-6.51,6.51H757.991c.22,1.529,1,6.471,2.187,8.317,0,0-6.48-2.892-10.112-8.317H708.455a6.51,6.51,0,0,1-6.51-6.51V301.279a6.51,6.51,0,0,1,6.51-6.51" transform="translate(-534.459 -224.437)" fill="#f6ae57"/>
        <rect id="Rectángulo_344291" data-name="Rectángulo 344291" width="60.191" height="2.532" transform="translate(174.157 80.099)" fill="#fff"/>
        <rect id="Rectángulo_344292" data-name="Rectángulo 344292" width="60.191" height="2.532" transform="translate(174.157 85.206)" fill="#fff"/>
        <rect id="Rectángulo_344293" data-name="Rectángulo 344293" width="32.824" height="2.532" transform="translate(201.526 90.313)" fill="#fff"/>
        <path id="Trazado_693611" data-name="Trazado 693611" d="M416.1,349.277l-2.495,7.556h-3.208l8.161-24.021H422.3l8.2,24.021H427.18l-2.566-7.556Zm7.876-2.423-2.352-6.914c-.535-1.568-.891-2.994-1.247-4.384H420.3c-.356,1.426-.749,2.887-1.212,4.348l-2.352,6.95Z" transform="translate(-312.473 -253.403)" fill="#fff"/>
        <path id="Trazado_693612" data-name="Trazado 693612" d="M1316.4,338.862a20.852,20.852,0,1,1-20.852-20.852,20.852,20.852,0,0,1,20.852,20.852" transform="translate(-970.548 -242.133)" fill="#f6ae57"/>
        <path id="Trazado_693613" data-name="Trazado 693613" d="M1330.582,414.4a16.007,16.007,0,0,1-28.753,0Z" transform="translate(-991.21 -315.522)" fill="#fff"/>
        <path id="Trazado_693614" data-name="Trazado 693614" d="M1314.611,367.2a3.5,3.5,0,1,1-3.5-3.5,3.5,3.5,0,0,1,3.5,3.5" transform="translate(-995.615 -276.925)" fill="#fff"/>
        <path id="Trazado_693615" data-name="Trazado 693615" d="M1394.232,367.2a3.5,3.5,0,1,1-3.5-3.5,3.5,3.5,0,0,1,3.5,3.5" transform="translate(-1056.238 -276.925)" fill="#fff"/>
      </g>
    </g>
  </g>
</svg>
