<svg id="Grupo_999389" data-name="Grupo 999389" xmlns="http://www.w3.org/2000/svg" xmlns:xlink="http://www.w3.org/1999/xlink" width="465.716" height="386.56" viewBox="0 0 465.716 386.56">
  <defs>
    <clipPath id="clip-path">
      <rect id="Rectángulo_345193" data-name="Rectángulo 345193" width="465.716" height="386.56" fill="none"/>
    </clipPath>
    <clipPath id="clip-path-4">
      <rect id="Rectángulo_345090" data-name="Rectángulo 345090" width="42.46" height="42.459" fill="none"/>
    </clipPath>
    <clipPath id="clip-path-7">
      <rect id="Rectángulo_345188" data-name="Rectángulo 345188" width="53.168" height="38.508" transform="translate(352.741 291.028)" fill="none"/>
    </clipPath>
  </defs>
  <g id="Grupo_999406" data-name="Grupo 999406" clip-path="url(#clip-path)">
    <rect id="Rectángulo_345171" data-name="Rectángulo 345171" width="68.906" height="71.83" transform="translate(396.81 28.48)" fill="#e0e0e0"/>
    <rect id="Rectángulo_345172" data-name="Rectángulo 345172" width="68.906" height="71.829" transform="translate(392.144 28.481)" fill="#fafafa"/>
    <path id="Trazado_703444" data-name="Trazado 703444" d="M461.071,100.331H392.122V28.459h68.949Zm-68.906-.042h68.864V28.5H392.165Z" fill="#e0e0e0"/>
    <rect id="Rectángulo_345173" data-name="Rectángulo 345173" width="50.381" height="52.517" transform="translate(401.406 38.137)" fill="#fff"/>
    <g id="Grupo_999390" data-name="Grupo 999390">
      <g id="Grupo_999389-2" data-name="Grupo 999389" clip-path="url(#clip-path)">
        <path id="Trazado_703445" data-name="Trazado 703445" d="M401.406,91a8.244,8.244,0,0,1-1.243,1.445c-.8.849-1.935,2-3.2,3.247s-2.432,2.361-3.291,3.15a8.007,8.007,0,0,1-1.456,1.213,8,8,0,0,1,1.236-1.439c.8-.849,1.939-2,3.21-3.253s2.438-2.367,3.3-3.156A7.863,7.863,0,0,1,401.406,91" fill="#e0e0e0"/>
        <path id="Trazado_703446" data-name="Trazado 703446" d="M451.787,90.874a8.268,8.268,0,0,1,1.446,1.243c.849.805,2,1.935,3.246,3.2s2.361,2.432,3.151,3.291a8.115,8.115,0,0,1,1.213,1.456,7.981,7.981,0,0,1-1.44-1.236c-.849-.805-2-1.939-3.253-3.21s-2.367-2.438-3.156-3.3a7.864,7.864,0,0,1-1.207-1.449" fill="#e0e0e0"/>
        <path id="Trazado_703447" data-name="Trazado 703447" d="M451.649,38.277a8.248,8.248,0,0,1,1.243-1.445c.8-.85,1.935-2,3.2-3.247s2.432-2.361,3.291-3.151a8.022,8.022,0,0,1,1.456-1.212,8.04,8.04,0,0,1-1.236,1.439c-.8.849-1.939,2-3.21,3.253s-2.438,2.367-3.3,3.156a7.861,7.861,0,0,1-1.449,1.207" fill="#e0e0e0"/>
        <path id="Trazado_703448" data-name="Trazado 703448" d="M401.268,38.406a8.245,8.245,0,0,1-1.445-1.243c-.849-.8-2-1.935-3.247-3.2s-2.361-2.432-3.15-3.291a8.005,8.005,0,0,1-1.213-1.456,8.039,8.039,0,0,1,1.439,1.236c.849.805,2,1.939,3.253,3.21s2.367,2.439,3.156,3.3a7.863,7.863,0,0,1,1.207,1.449" fill="#e0e0e0"/>
        <path id="Trazado_703449" data-name="Trazado 703449" d="M451.649,90.654a2.412,2.412,0,0,1-.011-.255c0-.179-.006-.421-.011-.733-.005-.658-.013-1.605-.023-2.835-.011-2.488-.029-6.107-.051-10.7-.024-9.2-.057-22.3-.1-37.991l.194.194-50.238.029h-.005l.223-.223c-.011,19.276-.022,37.309-.031,52.517l-.192-.191,36.379.1L448,90.61l2.7.023.7.01c.157,0,.239.008.243.011a1.562,1.562,0,0,1-.222.011l-.678.011-2.667.022-10.175.05-36.5.1h-.191v-.192c-.01-15.208-.02-33.241-.032-52.517v-.223h.228l50.238.028h.2v.195c-.04,15.741-.074,28.887-.1,38.115-.023,4.577-.04,8.182-.051,10.659q-.015,1.821-.023,2.8c-.005.3-.009.538-.011.712a1.724,1.724,0,0,1-.011.233" fill="#e0e0e0"/>
        <path id="Trazado_703450" data-name="Trazado 703450" d="M426.492,67.883l-7.031.091-1.3,3.142-3.591.046,6.56-14.666,3.461-.045,6.962,14.491-3.677.048Zm-1.137-2.547-2.473-5.551-2.33,5.613Z" fill="#e0e0e0"/>
        <path id="Trazado_703451" data-name="Trazado 703451" d="M439.751,65.908l.067,5.141-1.52.02-.014-1.125A3.335,3.335,0,0,1,435.4,71.2c-2,.026-3.284-.986-3.3-2.464-.017-1.366.886-2.5,3.523-2.536l2.537-.033,0-.305c-.017-1.3-.812-2.047-2.4-2.026a4.581,4.581,0,0,0-2.792.952l-.682-1.148a6.037,6.037,0,0,1,3.64-1.14c2.42-.032,3.8,1.075,3.834,3.4m-1.569,2.559-.016-1.189-2.47.032c-1.586.021-2.029.621-2.02,1.344.012.852.753,1.372,1.972,1.357a2.577,2.577,0,0,0,2.534-1.544" fill="#e0e0e0"/>
        <rect id="Rectángulo_345174" data-name="Rectángulo 345174" width="56.571" height="58.97" transform="translate(399.493 115.439)" fill="#e0e0e0"/>
        <rect id="Rectángulo_345175" data-name="Rectángulo 345175" width="56.571" height="58.97" transform="translate(395.662 115.439)" fill="#fafafa"/>
        <path id="Trazado_703452" data-name="Trazado 703452" d="M452.25,174.427H395.644V115.422H452.25Zm-56.571-.035h56.536V115.457H395.679Z" fill="#e0e0e0"/>
        <rect id="Rectángulo_345176" data-name="Rectángulo 345176" width="41.361" height="43.116" transform="translate(403.267 123.366)" fill="#fff"/>
        <path id="Trazado_703453" data-name="Trazado 703453" d="M403.267,166.769a6.7,6.7,0,0,1-1.021,1.187c-.66.7-1.588,1.64-2.629,2.665s-2,1.938-2.7,2.586a6.573,6.573,0,0,1-1.2,1,6.567,6.567,0,0,1,1.015-1.182c.66-.7,1.591-1.642,2.635-2.67s2-1.943,2.707-2.591a6.393,6.393,0,0,1,1.19-.991" fill="#e0e0e0"/>
        <path id="Trazado_703454" data-name="Trazado 703454" d="M444.628,166.663a6.7,6.7,0,0,1,1.187,1.021c.7.66,1.64,1.588,2.665,2.629s1.938,2,2.587,2.7a6.589,6.589,0,0,1,1,1.2,6.545,6.545,0,0,1-1.181-1.015c-.7-.66-1.643-1.591-2.671-2.635s-1.943-2-2.591-2.707a6.445,6.445,0,0,1-.991-1.19" fill="#e0e0e0"/>
        <path id="Trazado_703455" data-name="Trazado 703455" d="M444.515,123.481a6.7,6.7,0,0,1,1.021-1.187c.66-.7,1.588-1.64,2.629-2.665s2-1.938,2.7-2.587a6.587,6.587,0,0,1,1.2-1,6.546,6.546,0,0,1-1.015,1.181c-.66.7-1.591,1.643-2.635,2.671s-2,1.943-2.707,2.591a6.393,6.393,0,0,1-1.19.991" fill="#e0e0e0"/>
        <path id="Trazado_703456" data-name="Trazado 703456" d="M403.153,123.587a6.7,6.7,0,0,1-1.187-1.021c-.7-.66-1.64-1.588-2.665-2.629s-1.938-2-2.586-2.7a6.574,6.574,0,0,1-1-1.195,6.544,6.544,0,0,1,1.181,1.015c.7.66,1.643,1.591,2.671,2.635s1.943,2,2.591,2.707a6.394,6.394,0,0,1,.991,1.19" fill="#e0e0e0"/>
        <path id="Trazado_703457" data-name="Trazado 703457" d="M444.515,166.482a2,2,0,0,1-.009-.21c0-.146-.005-.345-.009-.6q-.008-.812-.019-2.328c-.009-2.042-.024-5.014-.041-8.787-.02-7.551-.048-18.309-.082-31.19l.16.16-41.244.024h0l.183-.184c-.01,15.826-.018,30.63-.026,43.116l-.157-.157,29.866.08,8.389.041,2.22.018.573.009a1.816,1.816,0,0,1,.2.009,1.283,1.283,0,0,1-.182.009l-.557.009-2.189.018-8.354.041-29.966.08h-.157v-.158c-.007-12.486-.016-27.29-.026-43.116v-.183h.188l41.244.024h.16v.159c-.034,12.923-.062,23.716-.081,31.292-.019,3.758-.033,6.717-.042,8.751-.008,1-.015,1.764-.019,2.3,0,.249-.007.442-.009.585a1.424,1.424,0,0,1-.009.191" fill="#e0e0e0"/>
        <path id="Trazado_703458" data-name="Trazado 703458" d="M427.066,147.046c.027,2.07-1.662,3.289-4.93,3.331l-6.429.084-.156-11.973,6.074-.079c3.108-.04,4.723,1.188,4.747,3.052a2.865,2.865,0,0,1-1.617,2.655,2.973,2.973,0,0,1,2.311,2.93m-8.628-6.508.037,2.821,2.859-.037c1.4-.018,2.16-.507,2.148-1.447s-.782-1.393-2.185-1.374Zm5.729,6.255c-.013-1.01-.817-1.478-2.31-1.459l-3.356.044.038,2.959,3.357-.044c1.492-.019,2.285-.474,2.271-1.5" fill="#e0e0e0"/>
        <path id="Trazado_703459" data-name="Trazado 703459" d="M436.523,146.872a3.47,3.47,0,0,1-3.625,3.62,3.114,3.114,0,0,1-2.605-1.153l.014,1.108-1.26.016-.127-9.781,1.314-.018.051,3.849a3.136,3.136,0,0,1,2.52-1.154,3.459,3.459,0,0,1,3.718,3.513m-1.329.017a2.446,2.446,0,1,0-2.421,2.5,2.347,2.347,0,0,0,2.421-2.5" fill="#e0e0e0"/>
        <rect id="Rectángulo_345177" data-name="Rectángulo 345177" width="291.707" height="208.341" transform="translate(85.26 5.189)" fill="#e0e0e0"/>
        <rect id="Rectángulo_345178" data-name="Rectángulo 345178" width="275.76" height="192.011" transform="translate(92.191 13.516)" fill="#f5f5f5"/>
        <rect id="Rectángulo_345179" data-name="Rectángulo 345179" width="317.236" height="8.29" transform="translate(75.763 213.53)" fill="#ebebeb"/>
        <path id="Trazado_703460" data-name="Trazado 703460" d="M85.364,5.382q4.131,3.678,7.9,7.739" fill="#ebebeb"/>
        <path id="Trazado_703461" data-name="Trazado 703461" d="M93.264,13.121a39.268,39.268,0,0,1-4.04-3.777,39.6,39.6,0,0,1-3.861-3.961,23.69,23.69,0,0,1,4.225,3.589,23.761,23.761,0,0,1,3.676,4.149" fill="#ebebeb"/>
        <path id="Trazado_703462" data-name="Trazado 703462" d="M368.167,14.125l8.819-8.556" fill="#ebebeb"/>
        <path id="Trazado_703463" data-name="Trazado 703463" d="M376.986,5.569a36.538,36.538,0,0,1-4.228,4.465,36.51,36.51,0,0,1-4.591,4.091A36.41,36.41,0,0,1,372.4,9.66a36.323,36.323,0,0,1,4.59-4.091" fill="#ebebeb"/>
        <path id="Trazado_703464" data-name="Trazado 703464" d="M368.663,205.479c3.014,2.715,8.928,8.051,8.3,8.051" fill="#ebebeb"/>
        <path id="Trazado_703465" data-name="Trazado 703465" d="M376.967,213.53a56.253,56.253,0,0,0-4.168-3.938,35.258,35.258,0,0,1-4.136-4.113,30.729,30.729,0,0,1,4.49,3.731c1.183,1.094,2.224,2.119,2.937,2.9a9.087,9.087,0,0,1,.8.981,1.062,1.062,0,0,1,.159.328c.037.128-.1.134-.08.106" fill="#ebebeb"/>
        <rect id="Rectángulo_345180" data-name="Rectángulo 345180" width="30.241" height="3.294" transform="translate(198.965 210.406)" fill="#fafafa"/>
        <path id="Trazado_703466" data-name="Trazado 703466" d="M106.25,175.408v38.251H172Zm10.086,15.4,27.33,16.185h-27.33Z" fill="#ebebeb"/>
        <path id="Trazado_703467" data-name="Trazado 703467" d="M112.564,179.081a6.782,6.782,0,0,1-1.155,2.357c-.761,1.226-1.476,2.159-1.6,2.083a6.774,6.774,0,0,1,1.156-2.357c.76-1.226,1.476-2.159,1.6-2.083" fill="#e0e0e0"/>
        <path id="Trazado_703468" data-name="Trazado 703468" d="M122.318,184.693a6.452,6.452,0,0,1-1.143,2.294c-.753,1.19-1.461,2.093-1.583,2.016a6.452,6.452,0,0,1,1.143-2.294c.753-1.19,1.461-2.093,1.583-2.016" fill="#e0e0e0"/>
        <path id="Trazado_703469" data-name="Trazado 703469" d="M132.072,190.3a6.434,6.434,0,0,1-1.376,2.161c-.872,1.1-1.672,1.928-1.785,1.839a6.452,6.452,0,0,1,1.376-2.162c.873-1.1,1.672-1.927,1.785-1.838" fill="#e0e0e0"/>
        <path id="Trazado_703470" data-name="Trazado 703470" d="M141.654,196.136a6.453,6.453,0,0,1-1.376,2.161c-.873,1.1-1.672,1.928-1.785,1.839a6.462,6.462,0,0,1,1.376-2.162c.873-1.1,1.672-1.927,1.785-1.838" fill="#e0e0e0"/>
        <path id="Trazado_703471" data-name="Trazado 703471" d="M151.668,201.87a6.8,6.8,0,0,1-1.263,2.305c-.817,1.192-1.575,2.092-1.693,2.011a6.8,6.8,0,0,1,1.263-2.305c.816-1.192,1.574-2.092,1.693-2.011" fill="#e0e0e0"/>
        <path id="Trazado_703472" data-name="Trazado 703472" d="M162.071,207.907a6.014,6.014,0,0,1-1.128,2.2c-.744,1.134-1.444,1.989-1.564,1.91a6,6,0,0,1,1.128-2.195c.744-1.134,1.444-1.989,1.564-1.91" fill="#e0e0e0"/>
        <path id="Trazado_703473" data-name="Trazado 703473" d="M115.606,180.852c.122.076-.086.632-.464,1.242s-.785,1.043-.907.968.085-.632.464-1.243.785-1.043.907-.967" fill="#e0e0e0"/>
        <path id="Trazado_703474" data-name="Trazado 703474" d="M118.8,182.635c.122.076-.086.632-.464,1.242s-.785,1.043-.907.967.086-.631.464-1.242.785-1.043.907-.967" fill="#e0e0e0"/>
        <path id="Trazado_703475" data-name="Trazado 703475" d="M125.917,186.816c.122.077-.086.633-.464,1.243s-.785,1.043-.907.968.086-.632.464-1.244.785-1.043.907-.967" fill="#e0e0e0"/>
        <path id="Trazado_703476" data-name="Trazado 703476" d="M129.115,188.6c.122.076-.086.632-.464,1.242s-.785,1.043-.907.967.086-.631.464-1.243.785-1.043.907-.966" fill="#e0e0e0"/>
        <path id="Trazado_703477" data-name="Trazado 703477" d="M135.542,192.583c.122.076-.086.632-.464,1.242s-.785,1.043-.907.967.086-.631.464-1.242.785-1.043.907-.967" fill="#e0e0e0"/>
        <path id="Trazado_703478" data-name="Trazado 703478" d="M138.593,194.367c.122.076-.086.632-.464,1.242s-.785,1.043-.907.968.086-.632.464-1.243.785-1.043.907-.967" fill="#e0e0e0"/>
        <path id="Trazado_703479" data-name="Trazado 703479" d="M145.176,198.167c.122.076-.086.632-.464,1.242s-.785,1.043-.907.967.086-.631.464-1.242.785-1.043.907-.967" fill="#e0e0e0"/>
        <path id="Trazado_703480" data-name="Trazado 703480" d="M148.712,200.252c.122.076-.086.632-.464,1.242s-.785,1.043-.907.967.086-.631.464-1.242.785-1.043.907-.967" fill="#e0e0e0"/>
        <path id="Trazado_703481" data-name="Trazado 703481" d="M155.07,203.975c.122.076-.086.632-.464,1.242s-.785,1.043-.907.967.086-.631.464-1.242.785-1.043.907-.967" fill="#e0e0e0"/>
        <path id="Trazado_703482" data-name="Trazado 703482" d="M158.742,206.078c.122.076-.086.632-.464,1.242s-.785,1.043-.907.968.086-.632.464-1.243.785-1.043.907-.967" fill="#e0e0e0"/>
        <path id="Trazado_703483" data-name="Trazado 703483" d="M423.817,288.206c5.143-2.654,11.2-3,16.909-2.055,3.067.507,6.265,1.425,8.353,3.729s2.482,6.359.086,8.339c-1.427,1.178-3.417,1.357-5.267,1.336-4.47-.052-9.429-.839-13,1.85-2.037,1.535-3.394,4.086-5.83,4.84-2.383.738-5.072-.668-6.336-2.819a9.845,9.845,0,0,1-.716-7.263,11.088,11.088,0,0,1,5.8-7.957" fill="#ebebeb"/>
        <path id="Trazado_703484" data-name="Trazado 703484" d="M412.034,265.46c3.145,4.492,9.257,3,12.091.263s4.032-6.715,5.122-10.5c2.492-8.658,5-17.741,3.151-26.557a14.757,14.757,0,0,0-3.391-7.22,7.709,7.709,0,0,0-7.3-2.431c-3.082.814-5,3.833-6.382,6.7a63.3,63.3,0,0,0-6.255,27.167c-.015,4.376.5,8.965,2.969,12.578" fill="#ebebeb"/>
        <path id="Trazado_703485" data-name="Trazado 703485" d="M403.4,271.9c3.414-4.053,4.062-9.963,2.543-15.04s-4.952-9.4-8.908-12.922a47.957,47.957,0,0,0-15.951-9.412,17.013,17.013,0,0,0-7.174-1.218,7.532,7.532,0,0,0-6.021,3.642c-1.678,3.2-.069,7.085,1.672,10.254a121.669,121.669,0,0,0,10.477,15.954c3.14,4.049,6.737,8.042,11.524,9.872s9.757,1.614,12.294-1.705" fill="#ebebeb"/>
        <path id="Trazado_703486" data-name="Trazado 703486" d="M411.821,333.215a9.835,9.835,0,0,0,.285-2.041c.144-1.485.326-3.351.542-5.57a80.041,80.041,0,0,1,1.253-8.17,63.129,63.129,0,0,1,2.969-9.643,35.579,35.579,0,0,1,4.924-8.725,18.391,18.391,0,0,1,6.225-5.175,17.432,17.432,0,0,1,5.243-1.633,9.75,9.75,0,0,0,2.032-.294,9.627,9.627,0,0,0-2.068-.032,15.88,15.88,0,0,0-5.466,1.423,18.34,18.34,0,0,0-6.567,5.221,34.72,34.72,0,0,0-5.1,8.9,58.949,58.949,0,0,0-2.949,9.8,69.056,69.056,0,0,0-1.086,8.274c-.177,2.365-.244,4.28-.276,5.6a9.635,9.635,0,0,0,.043,2.061" fill="#e0e0e0"/>
        <path id="Trazado_703487" data-name="Trazado 703487" d="M412.2,328.93a4.044,4.044,0,0,0,.055-.947c0-.712,0-1.608-.007-2.709-.007-2.35-.006-5.751.12-9.951.208-8.4.931-17.44,2.328-30.185,1.323-11.984,3.1-25.931,4.972-35,.4-2.063.807-3.919,1.188-5.543.363-1.629.673-3.033.972-4.169.258-1.07.467-1.941.634-2.633a4.044,4.044,0,0,0,.165-.934,3.936,3.936,0,0,0-.329.888c-.207.681-.467,1.54-.786,2.6-.349,1.125-.707,2.521-1.115,4.143-.425,1.618-.871,3.47-1.311,5.529a307.179,307.179,0,0,0-5.227,32.476c-1.4,12.771-2.031,24.4-2.086,32.821-.05,4.21.039,7.619.147,9.971.067,1.1.122,2,.165,2.706a4,4,0,0,0,.115.941" fill="#e0e0e0"/>
        <path id="Trazado_703488" data-name="Trazado 703488" d="M412.261,306.5a17.96,17.96,0,0,0-.02-2.829c-.1-1.818-.354-4.446-.866-7.664a101.066,101.066,0,0,0-2.493-11.168,91.5,91.5,0,0,0-4.669-13.213A70.4,70.4,0,0,0,390.5,250.273a34.921,34.921,0,0,0-3.226-3c-.495-.418-.933-.835-1.378-1.166l-1.252-.863a18.044,18.044,0,0,0-2.382-1.525c-.135.184,3.375,2.25,7.807,6.965a74.151,74.151,0,0,1,13.371,21.276,104.389,104.389,0,0,1,4.7,13.093,113.632,113.632,0,0,1,2.652,11.056c.584,3.186.922,5.787,1.126,7.589a18.176,18.176,0,0,0,.347,2.8" fill="#e0e0e0"/>
        <path id="Trazado_703489" data-name="Trazado 703489" d="M390.582,346.065l2.248,30.79h39.555l2.247-30.79Z" fill="#e0e0e0"/>
        <rect id="Rectángulo_345181" data-name="Rectángulo 345181" width="52.591" height="12.136" transform="translate(386.762 333.929)" fill="#e0e0e0"/>
        <path id="Trazado_703490" data-name="Trazado 703490" d="M386.762,375.677v3.364h51.721v-3.364Z" fill="#ebebeb"/>
        <path id="Trazado_703491" data-name="Trazado 703491" d="M391.655,384.962l-2.422-5.921H436.6l-2.826,5.921Z" fill="#e0e0e0"/>
        <path id="Trazado_703492" data-name="Trazado 703492" d="M433.9,356.128a1.277,1.277,0,0,1-.184.283l-.591.784-2.3,2.949-.1.131-.1-.137-5.661-7.83h.325l-5.573,7.892-.175.247-.195-.232-6.611-7.865.382-.005-.364.457-5.911,7.41-.2.247-.182-.257c-2.006-2.84-3.881-5.492-5.576-7.89l.324.015-6.867,7.825-.122.139-.093-.157-2.15-3.612-.552-.962a1.622,1.622,0,0,1-.169-.343,1.466,1.466,0,0,1,.231.3l.61.925c.55.863,1.307,2.054,2.257,3.547l-.214-.017,6.757-7.92.171-.2.154.215,5.626,7.855-.379-.011,5.9-7.42c.124-.157.249-.313.364-.457l.187-.236.194.231,6.591,7.88-.37.014c2.034-2.837,3.929-5.479,5.629-7.852l.165-.23.161.23,5.542,7.915-.2-.006,2.4-2.874.642-.743a1.321,1.321,0,0,1,.237-.24" fill="#f5f5f5"/>
        <path id="Trazado_703493" data-name="Trazado 703493" d="M435.183,345.862c0,.136-9.911.246-22.134.246s-22.137-.11-22.137-.246,9.909-.246,22.137-.246,22.134.11,22.134.246" fill="#f5f5f5"/>
        <path id="Trazado_703494" data-name="Trazado 703494" d="M437.181,379.373c0,.136-10.771.246-24.056.246s-24.058-.11-24.058-.246,10.769-.246,24.058-.246,24.056.11,24.056.246" fill="#f5f5f5"/>
        <rect id="Rectángulo_345182" data-name="Rectángulo 345182" width="56.571" height="58.97" transform="translate(5.05 164.475)" fill="#e0e0e0"/>
        <rect id="Rectángulo_345183" data-name="Rectángulo 345183" width="56.571" height="58.97" transform="translate(1.219 164.475)" fill="#fafafa"/>
        <path id="Trazado_703495" data-name="Trazado 703495" d="M57.807,223.463H1.2V164.458H57.807Zm-56.571-.035H57.771V164.493H1.236Z" fill="#e0e0e0"/>
        <rect id="Rectángulo_345184" data-name="Rectángulo 345184" width="41.361" height="43.116" transform="translate(8.824 172.402)" fill="#fff"/>
        <path id="Trazado_703496" data-name="Trazado 703496" d="M8.823,215.8A6.74,6.74,0,0,1,7.8,216.992c-.66.7-1.588,1.64-2.629,2.665s-2,1.938-2.7,2.586a6.573,6.573,0,0,1-1.195,1,6.527,6.527,0,0,1,1.015-1.182c.66-.7,1.591-1.642,2.635-2.67s2-1.943,2.707-2.591a6.394,6.394,0,0,1,1.19-.991" fill="#e0e0e0"/>
        <path id="Trazado_703497" data-name="Trazado 703497" d="M50.185,215.7a6.714,6.714,0,0,1,1.187,1.02c.7.661,1.64,1.589,2.665,2.63s1.939,2,2.587,2.7a6.588,6.588,0,0,1,.995,1.2,6.545,6.545,0,0,1-1.181-1.015c-.7-.66-1.643-1.591-2.671-2.635s-1.943-2-2.591-2.707a6.537,6.537,0,0,1-.991-1.19" fill="#e0e0e0"/>
        <path id="Trazado_703498" data-name="Trazado 703498" d="M50.072,172.518a6.657,6.657,0,0,1,1.021-1.187c.66-.7,1.588-1.64,2.629-2.666s2-1.937,2.7-2.586a6.569,6.569,0,0,1,1.2-1,6.554,6.554,0,0,1-1.016,1.181c-.66.7-1.591,1.644-2.635,2.672s-2,1.942-2.707,2.591a6.393,6.393,0,0,1-1.19.991" fill="#e0e0e0"/>
        <path id="Trazado_703499" data-name="Trazado 703499" d="M8.71,172.623A6.7,6.7,0,0,1,7.523,171.6c-.7-.66-1.64-1.588-2.665-2.629s-1.938-2-2.586-2.7a6.573,6.573,0,0,1-1-1.195,6.566,6.566,0,0,1,1.182,1.015c.7.66,1.642,1.591,2.67,2.635s1.943,2,2.591,2.707a6.392,6.392,0,0,1,.991,1.19" fill="#e0e0e0"/>
        <path id="Trazado_703500" data-name="Trazado 703500" d="M50.072,215.518a2.008,2.008,0,0,1-.009-.21c0-.147-.005-.345-.009-.6q-.008-.812-.019-2.328c-.009-2.042-.024-5.014-.041-8.787-.02-7.551-.048-18.309-.082-31.19l.16.16-41.244.024h0l.183-.184c-.01,15.826-.018,30.63-.026,43.116l-.157-.157,29.866.08,8.389.041,2.22.018.573.009a1.808,1.808,0,0,1,.2.009,1.287,1.287,0,0,1-.182.009l-.557.009-2.189.018-8.354.041-29.966.08H8.667v-.158c-.008-12.486-.017-27.29-.026-43.116v-.183h.188l41.244.024h.16v.159c-.034,12.923-.062,23.716-.081,31.292-.019,3.758-.033,6.717-.042,8.751-.008,1-.015,1.764-.019,2.3,0,.249-.007.442-.009.585a1.42,1.42,0,0,1-.009.191" fill="#e0e0e0"/>
        <path id="Trazado_703501" data-name="Trazado 703501" d="M37.07,194.039a6.646,6.646,0,1,1-6.647-6.647,6.647,6.647,0,0,1,6.647,6.647" fill="#e0e0e0"/>
      </g>
    </g>
    <g id="Grupo_999392" data-name="Grupo 999392">
      <g id="Grupo_999391" data-name="Grupo 999391" clip-path="url(#clip-path)">
        <path id="Trazado_703502" data-name="Trazado 703502" d="M356.709.711A34.353,34.353,0,0,0,328,53.933l-4.941,12.584,12.96-4.022A34.358,34.358,0,1,0,356.709.711" fill="#fafafa"/>
        <path id="Trazado_703503" data-name="Trazado 703503" d="M391.34,35.067a3.428,3.428,0,0,0,.01-.6c-.012-.436-.029-1.021-.05-1.767-.018-.389-.018-.825-.058-1.3q-.1-.717-.219-1.559t-.261-1.82q-.238-.957-.5-2.033a32.945,32.945,0,0,0-4.3-9.855,35.378,35.378,0,0,0-9.926-10.192A35.678,35.678,0,0,0,359.821.153a36.257,36.257,0,0,0-4.765-.1c-.8.057-1.625.04-2.437.158l-2.455.37a34.947,34.947,0,0,0-9.7,3.312,37.293,37.293,0,0,0-8.715,6.333,36.611,36.611,0,0,0-6.556,9.126,33.13,33.13,0,0,0-3.414,11.123,22.028,22.028,0,0,0-.252,2.967,26.525,26.525,0,0,0-.055,3,35.532,35.532,0,0,0,.759,6.007,35.113,35.113,0,0,0,5.032,11.959l-.037-.363q-2.494,6.218-4.889,12.181l-.289.722.749-.206,13.023-3.581L335.5,63.1a34.959,34.959,0,0,0,14.881,6.5,31.681,31.681,0,0,0,7.624.474,24.532,24.532,0,0,0,3.662-.346l1.782-.277c.586-.109,1.153-.287,1.725-.426a34.834,34.834,0,0,0,19.812-13.591,33.307,33.307,0,0,0,4.267-8.087q.338-.945.652-1.822.229-.9.439-1.73l.393-1.582c.1-.508.149-1,.22-1.456.117-.922.276-1.731.311-2.44s.043-1.293.06-1.79c.01-.453.018-.813.024-1.093a1.679,1.679,0,0,0-.013-.37,1.642,1.642,0,0,0-.051.369c-.022.279-.05.638-.086,1.089q-.049.74-.12,1.778c-.054.7-.232,1.5-.367,2.417a34.644,34.644,0,0,1-25.7,27.7c-.562.133-1.119.306-1.7.41l-1.751.262a23.927,23.927,0,0,1-3.6.323,31.073,31.073,0,0,1-7.475-.494,34.325,34.325,0,0,1-14.557-6.411l-.145-.11-.177.048L322.6,66l.459.515,4.9-12.176.076-.191-.113-.172a34.375,34.375,0,0,1-4.915-11.692,34.845,34.845,0,0,1-.743-5.872,25.817,25.817,0,0,1,.053-2.932,21.222,21.222,0,0,1,.245-2.9A32.427,32.427,0,0,1,325.888,19.7a35.941,35.941,0,0,1,6.4-8.939A36.678,36.678,0,0,1,340.8,4.543a34.341,34.341,0,0,1,9.489-3.275L352.7.9c.8-.118,1.6-.1,2.39-.163A33.868,33.868,0,0,1,375.724,6.4a35.153,35.153,0,0,1,9.866,9.967,33.138,33.138,0,0,1,4.37,9.695q.283,1.062.535,2.008.158.96.3,1.8t.255,1.545c.052.474.064.907.1,1.293.054.742.1,1.325.128,1.759a3.326,3.326,0,0,0,.071.6" fill="#263238"/>
        <g id="Grupo_999407" data-name="Grupo 999407" transform="translate(337.03 14.943)" opacity="0.8">
          <g id="Grupo_999244" data-name="Grupo 999244" transform="translate(0 0)">
            <g id="Grupo_999243" data-name="Grupo 999243" clip-path="url(#clip-path-4)">
              <path id="Trazado_702664" data-name="Trazado 702664" d="M1691.362,720.862H1660.8a5.967,5.967,0,0,1-5.95-5.95V684.353a5.968,5.968,0,0,1,5.95-5.95h30.559a5.968,5.968,0,0,1,5.95,5.95v30.559a5.967,5.967,0,0,1-5.95,5.95" transform="translate(-1654.853 -678.403)" fill="#fff"/>
            </g>
          </g>
        </g>
        <rect id="Rectángulo_345194" data-name="Rectángulo 345194" width="14.464" height="14.464" transform="translate(343.48 28.658)" fill="#163560"/>
        <path id="Trazado_703623" data-name="Trazado 703623" d="M1888.883,719.675l-8.792,9.881V744.02l8.792,8.269Z" transform="translate(-1522.148 -700.898)" fill="#163560"/>
        <path id="Trazado_703624" data-name="Trazado 703624" d="M1685.724,815.748a1.07,1.07,0,0,1-.63-1.935l29.865-21.7a1.07,1.07,0,1,1,1.257,1.731l-29.865,21.7a1.066,1.066,0,0,1-.628.2" transform="translate(-1344.856 -766.428)" fill="#f77d48"/>
        <path id="Trazado_703625" data-name="Trazado 703625" d="M2001.708,885.711a.252.252,0,0,1-.2-.4,4.348,4.348,0,0,0,.764-3.784,5.352,5.352,0,0,0-.764-1.726.252.252,0,1,1,.406-.3,5.8,5.8,0,0,1,.849,1.905,4.9,4.9,0,0,1-.849,4.2.252.252,0,0,1-.2.1" transform="translate(-1632.245 -845.79)" fill="#163560"/>
        <path id="Trazado_703626" data-name="Trazado 703626" d="M2027.536,870.221a.252.252,0,0,1-.2-.4,7.137,7.137,0,0,0,1.259-6.194,8.814,8.814,0,0,0-1.26-2.848.252.252,0,0,1,.406-.3,9.155,9.155,0,0,1,1.339,3.009,7.725,7.725,0,0,1-1.339,6.633.252.252,0,0,1-.2.1" transform="translate(-1655.674 -828.533)" fill="#163560"/>
        <path id="Trazado_703627" data-name="Trazado 703627" d="M2053.953,857.64a.252.252,0,0,1-.2-.4,9.7,9.7,0,0,0,1.859-4.359,9.835,9.835,0,0,0-.2-3.807,11.6,11.6,0,0,0-1.658-3.744.252.252,0,0,1,.406-.3,11.888,11.888,0,0,1,1.738,3.906,10.339,10.339,0,0,1,.217,4.009,10.193,10.193,0,0,1-1.954,4.6.253.253,0,0,1-.2.1" transform="translate(-1679.638 -814.52)" fill="#163560"/>
      </g>
    </g>
    <g id="Grupo_999394" data-name="Grupo 999394">
      <g id="Grupo_999393" data-name="Grupo 999393" clip-path="url(#clip-path)">
        <path id="Trazado_703504" data-name="Trazado 703504" d="M218.628,228.413c-.592,1.945-3.234,89.04,12.895,157.7l80.269.182c1.066-46.933,19-119.932-6.954-160.294Z" fill="#263238"/>
        <path id="Trazado_703505" data-name="Trazado 703505" d="M299.665,62.339c2.648,9.638,6.656,17.368,10.563,21.243S318.32,92,318.179,97.5c-.055,2.16-.775,4.453.168,6.4,1.226,2.526,4.5,3.073,6.942,4.448a11.64,11.64,0,0,1,5.491,10.494,16.862,16.862,0,0,1-5.161,11.018c-3.042,3.061-7.858,5.2-11.636,3.117-2.282-1.259-3.58-3.724-4.73-6.062q-8.932-18.165-16.165-37.1" fill="#263238"/>
        <path id="Trazado_703506" data-name="Trazado 703506" d="M275.3,21.067a24.833,24.833,0,0,0-43.282,16.881c.067,6.454,2.592,13.219.042,19.148-1.805,4.195-5.978,7.363-6.552,11.893-.666,5.255,3.828,10.022,3.593,15.314-.153,3.455-2.32,6.507-4.812,8.9s-5.39,4.373-7.675,6.968c-6.352,7.215-6.758,18.612-1.957,26.94s14.07,13.552,23.617,14.683,19.275-1.5,27.724-6.086c5.5-2.988,10.674-6.926,13.946-12.266s4.393-12.256,1.807-17.96" fill="#263238"/>
        <path id="Trazado_703507" data-name="Trazado 703507" d="M245.017,17.183a31.984,31.984,0,0,1,4.272.2,56.508,56.508,0,0,1,9.954,2.777,28.13,28.13,0,0,0,10.246,1.813,12.692,12.692,0,0,0,3.125-.546,4.29,4.29,0,0,0,1.075-.439,20.853,20.853,0,0,1-4.214.645A30.237,30.237,0,0,1,259.393,19.7a48.741,48.741,0,0,0-10.063-2.659,16.072,16.072,0,0,0-3.167-.051,4.479,4.479,0,0,0-1.146.189" fill="#455a64"/>
        <path id="Trazado_703508" data-name="Trazado 703508" d="M325.8,136.3a27.738,27.738,0,0,0-.495-3.683,31.131,31.131,0,0,0-18.591-22.306l-24.144-10.194-27.6.709s-20.511,9.37-24.639,14.25c-.31.366-3.064,3.077-3.247,4.141l-20.765,61.644L179.766,197.41l7.281,9.286,39.14-3.714,4.748-7.714c-2.6,5.817-12.924,29.384-12.924,36.6,0,0,60.41,12.928,84.455,10.51,10.586-1.065,13.093-2.055,13.093-2.055L308.5,213.865c5.857-.4,11.833-3.989,14.239-9.02,4.129-8.633,3.818-56.9,3.067-68.541" fill="#ffa031"/>
        <path id="Trazado_703509" data-name="Trazado 703509" d="M137.236,145.5H133.08l5.7,53.8,49.2-3.382-5.551-46.325Z" fill="#e0e0e0"/>
        <path id="Trazado_703510" data-name="Trazado 703510" d="M137.236,142.836l4.354,54.575,97.137-3.124-11.965-51.451-43.673,4.211Z" fill="#fafafa"/>
        <path id="Trazado_703511" data-name="Trazado 703511" d="M137.236,142.836s.26.012.788.054l2.351.2,9.094.789,33.637,2.983h-.035l43.668-4.262.209-.02.047.205c3.682,15.8,7.733,33.193,11.985,51.446l.072.309-.317.01-4.585.148L141.6,197.612l-.193.006-.015-.192c-1.29-16.761-2.342-30.425-3.073-39.918-.354-4.709-.63-8.38-.819-10.892q-.133-1.847-.2-2.829c-.044-.636-.056-.951-.056-.951s.041.344.1.993.141,1.619.25,2.866c.212,2.522.523,6.208.922,10.935.781,9.457,1.906,23.068,3.285,39.764l-.208-.185,92.549-3.035,4.585-.147-.244.319c-4.238-18.256-8.276-35.649-11.946-51.456l.257.185-43.678,4.16-.018,0-.017,0-33.493-3.182-9.132-.885-2.385-.238c-.54-.056-.826-.094-.826-.094" fill="#263238"/>
        <path id="Trazado_703512" data-name="Trazado 703512" d="M191.007,195.159a1.754,1.754,0,0,1-.155-.467c-.093-.371-.207-.82-.344-1.363-.291-1.185-.682-2.906-1.142-5.039-.92-4.264-2.086-10.179-3.181-16.745s-1.91-12.543-2.422-16.876c-.256-2.166-.445-3.921-.554-5.136-.046-.558-.085-1.02-.116-1.4a1.742,1.742,0,0,1-.005-.493,1.762,1.762,0,0,1,.109.481l.213,1.388.719,5.113c.6,4.317,1.477,10.275,2.569,16.837s2.2,12.478,3.029,16.758c.4,2.08.732,3.793.979,5.07.1.55.181,1.007.249,1.382a1.753,1.753,0,0,1,.052.49" fill="#263238"/>
        <path id="Trazado_703513" data-name="Trazado 703513" d="M165.509,161.429l.944,19.031-4.4.219-.768-15.5-3.807.188-.175-3.533Z" fill="#ed9aa9"/>
        <path id="Trazado_703514" data-name="Trazado 703514" d="M218.15,174.709l.359,3.575-14.329,1.44-.285-2.845,6.619-7.641c1.52-1.767,1.719-2.771,1.627-3.692-.15-1.489-1.266-2.254-3.27-2.053a4.668,4.668,0,0,0-3.738,2.29l-3.4-1.736a8.852,8.852,0,0,1,7.176-4.278c4.225-.424,7.26,1.46,7.6,4.9.185,1.843-.16,3.572-2.568,6.3L210,175.528Z" fill="#4db1f0"/>
        <path id="Trazado_703515" data-name="Trazado 703515" d="M177.556,208.179l-8.962-6.6.486-15.038a5.036,5.036,0,0,1,3.9,4.241c.364,3.517.674,6.855.674,6.855l2.833.849-.39-1.951,6.884-9.8s2.606,1.929,1.515,4.475c1.254-1.22,3.235-.211,3.029.921l.485-2.668s3.132-.932,2.993,2.239a19.212,19.212,0,0,1-.37,3.771l10.931-.032s-3.153,5.336-4.972,6.792-18.434,5.942-18.434,5.942" fill="#ffbe9d"/>
        <path id="Trazado_703516" data-name="Trazado 703516" d="M178.393,205.3a16.985,16.985,0,0,1-2.309-8.615c.152-.016.442,1.961,1.082,4.327s1.366,4.226,1.227,4.288" fill="#eb996e"/>
        <path id="Trazado_703517" data-name="Trazado 703517" d="M182.031,202.982a36.157,36.157,0,0,1-1.089-5.921l-.013-.087.044-.078.164-.29a39.074,39.074,0,0,1,3.362-5.392,38.9,38.9,0,0,1-2.909,5.649c-.056.1-.112.2-.165.29l.032-.164a36.208,36.208,0,0,1,.574,5.993" fill="#eb996e"/>
        <path id="Trazado_703518" data-name="Trazado 703518" d="M186.488,201.248a15.762,15.762,0,0,1-.429-3.552l0-.03.008-.036c.123-.569.249-1.156.381-1.767a27.931,27.931,0,0,1,1.433-5.19,28.037,28.037,0,0,1-.925,5.3l-.41,1.76.005-.066a15.8,15.8,0,0,1-.06,3.577" fill="#eb996e"/>
        <path id="Trazado_703519" data-name="Trazado 703519" d="M287.542,29.326l.038,4.906,1.04,73.439c.121,8.526-7.113,15.419-16.243,15.479-9.221.06-16.9-6.867-17.166-15.477-.277-9.037-.735-18.547-.735-18.547s-11.7-1.612-14.528-16.737c-1.408-7.521-1.37-19.919-1.011-30.062a16.047,16.047,0,0,1,17.281-15.443Z" fill="#ffbe9d"/>
        <path id="Trazado_703520" data-name="Trazado 703520" d="M244.626,53.295a1.949,1.949,0,0,0,1.933,1.914,1.864,1.864,0,0,0,1.96-1.812,1.951,1.951,0,0,0-1.931-1.915,1.866,1.866,0,0,0-1.962,1.813" fill="#263238"/>
        <path id="Trazado_703521" data-name="Trazado 703521" d="M241.8,48.7c.248.247,1.695-.886,3.791-.938,2.094-.082,3.662.954,3.882.691.109-.117-.15-.569-.833-1.038a5.342,5.342,0,0,0-3.117-.867,5.128,5.128,0,0,0-3.008,1.064c-.631.512-.837.977-.715,1.088" fill="#263238"/>
        <path id="Trazado_703522" data-name="Trazado 703522" d="M265.3,53.295a1.949,1.949,0,0,0,1.933,1.914,1.864,1.864,0,0,0,1.96-1.812,1.95,1.95,0,0,0-1.931-1.915,1.866,1.866,0,0,0-1.962,1.813" fill="#263238"/>
        <path id="Trazado_703523" data-name="Trazado 703523" d="M262.42,48.52c.249.247,1.7-.885,3.792-.938,2.093-.082,3.662.954,3.882.691.108-.117-.148-.568-.834-1.038a5.339,5.339,0,0,0-3.116-.867,5.138,5.138,0,0,0-3.009,1.063c-.629.513-.836.979-.715,1.089" fill="#263238"/>
        <path id="Trazado_703524" data-name="Trazado 703524" d="M255.241,64.277a13.932,13.932,0,0,0-3.422-.52c-.537-.041-1.047-.133-1.147-.5a2.721,2.721,0,0,1,.314-1.6l1.471-4.12c2.038-5.865,3.5-10.681,3.261-10.761s-2.082,4.609-4.12,10.473q-.735,2.169-1.4,4.143a3.1,3.1,0,0,0-.22,2.109,1.343,1.343,0,0,0,.9.758,3.614,3.614,0,0,0,.912.1,13.612,13.612,0,0,0,3.452-.09" fill="#263238"/>
        <path id="Trazado_703525" data-name="Trazado 703525" d="M254.477,89.126a38.662,38.662,0,0,0,20.195-5.988s-4.648,10.571-19.891,9.569Z" fill="#eb996e"/>
        <path id="Trazado_703526" data-name="Trazado 703526" d="M256.267,69.305a3.775,3.775,0,0,1,3.348-1.5,3.451,3.451,0,0,1,2.417,1.211,2.188,2.188,0,0,1,.235,2.5,2.538,2.538,0,0,1-2.729.771,7.937,7.937,0,0,1-2.724-1.526,2.312,2.312,0,0,1-.616-.6.7.7,0,0,1-.018-.781" fill="#eb996e"/>
        <path id="Trazado_703527" data-name="Trazado 703527" d="M261.451,65.557c-.343-.011-.283,2.265-2.187,3.934s-4.332,1.485-4.341,1.8c-.028.144.552.427,1.577.427a5.67,5.67,0,0,0,3.628-1.377,4.938,4.938,0,0,0,1.687-3.295c.06-.954-.21-1.511-.364-1.493" fill="#263238"/>
        <path id="Trazado_703528" data-name="Trazado 703528" d="M261.652,40.319c.223.564,2.308.236,4.776.465,2.473.179,4.476.844,4.788.324.139-.249-.222-.775-1.039-1.305a8.335,8.335,0,0,0-7.286-.6c-.893.388-1.335.849-1.239,1.117" fill="#263238"/>
        <path id="Trazado_703529" data-name="Trazado 703529" d="M242.4,42.608c.382.466,1.813-.068,3.549-.139,1.733-.132,3.216.231,3.541-.276.141-.246-.1-.717-.759-1.149a5.141,5.141,0,0,0-5.712.334c-.6.506-.788,1-.619,1.23" fill="#263238"/>
        <path id="Trazado_703530" data-name="Trazado 703530" d="M268.439,24.516c-4.059,5.4.166,13.039,4.842,17.912s10.377,10.529,9.1,17.16c-1.48,7.688-12,12.614-10.434,20.286.57,2.8,2.779,5.188,2.789,8.046.018,5.159-6.656,7.665-8.577,12.453-2.633,6.56,4.607,13.1,4.716,20.172.063,4.013-2.211,7.757-2.332,11.77-.25,8.22,9.473,14.237,17.444,12.215s13.434-9.8,15.17-17.841-.9-19.338-2.183-27.461l13.811,3.2c2.573-2.452-.945-5.061-1.526-8.568-1.453-8.79-7.23-16.234-9.98-24.709-2.4-7.408-2.421-15.343-3.471-23.06s-3.443-15.759-9.336-20.85-16.1-5.718-20.864.44" fill="#263238"/>
        <path id="Trazado_703531" data-name="Trazado 703531" d="M277.389,165.316l-4.2-5.71,5.711-12.763,2.009-29.788s-4.139-1.1-4.561,3.587c-.249,2.746-.47,5.208-.47,5.208l-4.7-1.511-6.684,1.971s.3,3.4,2.99,2.731a16.9,16.9,0,0,1,4.87-.5l2.557,3.769v1.343l-3.4-2.425h-6.718l-4.159,3.653s1.4,3.325,3.588,2.318c0,0-3.628,9.816-3.964,11.663,0,0-3.694,9.573,0,15.114a62.809,62.809,0,0,0,8.655,10.077Z" fill="#ffbe9d"/>
        <path id="Trazado_703532" data-name="Trazado 703532" d="M279.069,136.207a2.715,2.715,0,0,0,.285-1.481,19.1,19.1,0,0,0-1.459-3.526,29.409,29.409,0,0,1-2.034-5.132,29.457,29.457,0,0,1,2.509,4.917c.3.68.585,1.329.865,1.964a4.934,4.934,0,0,1,.486,1.748,2.061,2.061,0,0,1-.308,1.209c-.172.247-.323.324-.344.3" fill="#eb996e"/>
        <path id="Trazado_703533" data-name="Trazado 703533" d="M277.319,135.438a12.246,12.246,0,0,1-3.083-1.857c-1.614-1.145-2.849-2.215-2.724-2.357a18.39,18.39,0,0,1,3.026,1.933,12.961,12.961,0,0,1,2.781,2.281" fill="#eb996e"/>
        <path id="Trazado_703534" data-name="Trazado 703534" d="M274.308,141.06a5.23,5.23,0,0,1-1.411-1.589,11.884,11.884,0,0,1-1.1-2.04c-.17-.4-.325-.852-.462-1.28a.644.644,0,0,0-.289-.407,2.53,2.53,0,0,0-.636-.127c-1.369-.18-2.669-.413-3.709-.517l.067-.009a4.039,4.039,0,0,0-.983.814c-.291.294-.546.555-.768.76-.434.422-.774.575-.793.53s.235-.242.607-.707l.688-.828a3.609,3.609,0,0,1,1.126-.994l.023-.011.045,0c1.129.062,2.387.263,3.769.444a2.707,2.707,0,0,1,.8.179,1.139,1.139,0,0,1,.541.7c.141.465.268.868.424,1.267a14.62,14.62,0,0,0,.968,2.025c.645,1.11,1.161,1.731,1.1,1.784" fill="#eb996e"/>
        <path id="Trazado_703535" data-name="Trazado 703535" d="M268.059,141.926a10.784,10.784,0,0,1,.4-3.3,10.78,10.78,0,0,1,.914-3.192,10.73,10.73,0,0,1-.4,3.3,10.7,10.7,0,0,1-.913,3.192" fill="#eb996e"/>
        <path id="Trazado_703536" data-name="Trazado 703536" d="M273.117,147.5a1.552,1.552,0,0,0-.13-.948,1.728,1.728,0,0,0-.813-.74,2.069,2.069,0,0,0-1.444-.01,6.426,6.426,0,0,0-1.649.874,6.747,6.747,0,0,1-2.03,1.045,2.329,2.329,0,0,1-2.469-.788,1.673,1.673,0,0,1-.179-1.462,3.7,3.7,0,0,1,.727-1.227,22.8,22.8,0,0,1,3.77-3.488,4.57,4.57,0,0,1,2.138-.866,3.38,3.38,0,0,1,1.967.458,6.171,6.171,0,0,1,2.016,2,3.5,3.5,0,0,1,.51.9,4.539,4.539,0,0,1-.673-.777,6.62,6.62,0,0,0-2.027-1.8,3.052,3.052,0,0,0-1.749-.352,4.2,4.2,0,0,0-1.908.83,24.213,24.213,0,0,0-3.644,3.428c-.564.638-.943,1.474-.525,2.071a1.865,1.865,0,0,0,1.933.606c1.409-.371,2.456-1.527,3.691-1.807a2.341,2.341,0,0,1,1.671.1,1.887,1.887,0,0,1,.87.915c.274.687-.054,1.069-.053,1.036" fill="#eb996e"/>
        <path id="Trazado_703537" data-name="Trazado 703537" d="M316.937,209.745a7.361,7.361,0,0,1-.906.966,11.042,11.042,0,0,1-3.194,2.054,14.974,14.974,0,0,1-5.883,1.206,18.858,18.858,0,0,1-7.774-1.673A36.983,36.983,0,0,1,291,207.184c-2.7-2.179-5.521-4.568-8.421-7.176a77.488,77.488,0,0,1-8.485-8.815,84.435,84.435,0,0,1-7.338-10.895l-1.4-2.47-.1-.167.135-.14,15.341-15.82.135-.139.165.1c10.045,6.2,18.441,11.725,24.423,15.541l6.981,4.456,1.853,1.189.472.315a.7.7,0,0,1,.153.118.74.74,0,0,1-.174-.084l-.493-.281-1.893-1.125c-1.647-.994-4.046-2.46-7.056-4.341-6.029-3.747-14.46-9.212-24.519-15.378l.3-.037L265.77,177.883l.041-.307,1.392,2.461a84.664,84.664,0,0,0,7.284,10.835,77.861,77.861,0,0,0,8.411,8.781c5.812,5.117,11.026,9.965,16.43,12.308a18.682,18.682,0,0,0,7.624,1.719,14.983,14.983,0,0,0,5.8-1.1,11.494,11.494,0,0,0,3.2-1.947c.655-.561.953-.909.976-.887" fill="#263238"/>
        <path id="Trazado_703538" data-name="Trazado 703538" d="M300.441,146.345a6.561,6.561,0,0,1,0,1.068q-.033,1.2-.081,2.9c-.09,2.581-.2,5.9-.333,9.581-.145,3.743-.3,7.13-.431,9.581q-.108,1.7-.185,2.9a4.2,4.2,0,0,1-.138,1.062,4.3,4.3,0,0,1-.064-1.069c-.007-.687,0-1.68.019-2.908.04-2.454.134-5.844.279-9.587s.317-7.129.485-9.579a19.027,19.027,0,0,1,.452-3.953" fill="#263238"/>
        <path id="Trazado_703539" data-name="Trazado 703539" d="M313.1,120.022c.033.093-1.08.464-2.69,1.409a18.577,18.577,0,0,0-2.655,1.9,18.786,18.786,0,0,0-4.8,6.328,18.639,18.639,0,0,0-1.113,3.071c-.474,1.805-.53,2.977-.628,2.97a2.508,2.508,0,0,1-.027-.825,12.227,12.227,0,0,1,.3-2.231,16.469,16.469,0,0,1,1.034-3.184,17.683,17.683,0,0,1,4.923-6.5,16.474,16.474,0,0,1,2.784-1.858,12.216,12.216,0,0,1,2.068-.889,2.542,2.542,0,0,1,.8-.2" fill="#263238"/>
        <path id="Trazado_703540" data-name="Trazado 703540" d="M235.053,175.744a11.155,11.155,0,0,1-.725-1.579c-.427-1.033-1.044-2.529-1.729-4.409-1.334-3.742-3.165-9.093-3.19-15.278a27.218,27.218,0,0,1,.371-4.471,39.742,39.742,0,0,1,.97-4.053c.736-2.542,1.443-4.806,1.824-6.755a18.392,18.392,0,0,0,.368-4.663c-.059-1.108-.214-1.711-.155-1.723a1.464,1.464,0,0,1,.132.431,8.1,8.1,0,0,1,.225,1.274,16.764,16.764,0,0,1-.208,4.748c-.34,1.985-1.017,4.28-1.723,6.817-.346,1.27-.694,2.607-.93,4.01a27.54,27.54,0,0,0-.353,4.387c.022,6.069,1.774,11.392,3.016,15.154.638,1.889,1.2,3.4,1.571,4.457a11.143,11.143,0,0,1,.536,1.653" fill="#263238"/>
        <path id="Trazado_703541" data-name="Trazado 703541" d="M284.007,216.373a1.73,1.73,0,0,1-.443.2l-1.3.476c-1.133.414-2.8.934-4.88,1.5s-4.588,1.141-7.4,1.648c-2.813.479-5.927.885-9.214,1.113-3.289.209-6.43.219-9.282.115-2.851-.13-5.412-.358-7.549-.655s-3.858-.582-5.036-.842l-1.355-.3a1.725,1.725,0,0,1-.465-.14,1.8,1.8,0,0,1,.486.036l1.37.2c1.186.2,2.91.437,5.044.677s4.686.437,7.523.541c2.837.076,5.96.052,9.23-.156,3.267-.227,6.365-.615,9.167-1.067,2.8-.478,5.3-1,7.384-1.531s3.762-.984,4.911-1.338l1.332-.383a1.726,1.726,0,0,1,.476-.1" fill="#263238"/>
        <path id="Trazado_703542" data-name="Trazado 703542" d="M231.523,193.96a6.461,6.461,0,0,1-.423,1.53c-.333.965-.845,2.349-1.494,4.051-1.295,3.406-3.121,8.1-5.054,13.3s-3.589,9.96-4.717,13.421l-1.3,4.11a9.172,9.172,0,0,1-.524,1.5,9.173,9.173,0,0,1,.329-1.551c.233-.994.635-2.413,1.145-4.165,1.04-3.5,2.635-8.278,4.58-13.492s3.817-9.886,5.2-13.257l1.646-3.987c.393-.94.575-1.466.613-1.459" fill="#263238"/>
        <path id="Trazado_703543" data-name="Trazado 703543" d="M301.491,385.929a1.962,1.962,0,0,1-.031-.367c-.009-.269-.022-.625-.038-1.077-.023-.978-.056-2.368-.1-4.143-.061-3.6-.1-8.805-.094-15.239,0-12.868.177-30.642.024-50.269-.2-19.631-.8-37.4-2-50.209-.316-3.2-.538-6.1-.906-8.628q-.243-1.9-.451-3.53-.1-.813-.2-1.557-.126-.736-.241-1.4c-.3-1.749-.527-3.119-.689-4.083-.07-.447-.125-.8-.167-1.065a1.965,1.965,0,0,1-.039-.366,1.816,1.816,0,0,1,.091.355c.055.264.126.613.218,1.056.185.961.449,2.326.785,4.07q.126.664.265,1.4.105.742.22,1.556l.494,3.529c.4,2.528.644,5.43.984,8.631,1.3,12.813,1.961,30.6,2.158,50.238.153,19.635-.086,37.41-.177,50.276-.03,6.409-.054,11.607-.071,15.236,0,1.775,0,3.165,0,4.143-.005.452-.009.808-.013,1.077a1.966,1.966,0,0,1-.022.368" fill="#455a64"/>
        <path id="Trazado_703544" data-name="Trazado 703544" d="M290.3,27.92a6.246,6.246,0,0,1,3.6-6.417,8.509,8.509,0,0,1,7.6.484,10.319,10.319,0,0,1,1.826,16.764,7.349,7.349,0,0,1-5.1,2.005,15.668,15.668,0,0,1-4.7-1.474,6.157,6.157,0,0,0-4.807-.262" fill="#263238"/>
        <path id="Trazado_703545" data-name="Trazado 703545" d="M297.116,40.706a42.125,42.125,0,0,0-2.757-7.442,42.219,42.219,0,0,0-4.558-6.5,7.767,7.767,0,0,1,1.75,1.584,22.46,22.46,0,0,1,5.256,10.016,7.737,7.737,0,0,1,.309,2.34" fill="#e8505b"/>
        <path id="Trazado_703546" data-name="Trazado 703546" d="M294.655,34.483a6.375,6.375,0,0,1-1.105.739,20.708,20.708,0,0,1-3.3,1.5,23.641,23.641,0,0,1-11.842,1,22.234,22.234,0,0,1-6.273-2.058,10.335,10.335,0,0,1-4.094-3.515,6.564,6.564,0,0,1-1.073-3.476,4.525,4.525,0,0,1,.1-.989c.057-.22.1-.332.113-.329.05.009-.072.474-.011,1.311a6.743,6.743,0,0,0,1.178,3.282c1.641,2.543,5.652,4.464,10.148,5.261a24.609,24.609,0,0,0,11.635-.837,43.349,43.349,0,0,0,4.525-1.888" fill="#455a64"/>
        <path id="Trazado_703547" data-name="Trazado 703547" d="M295.7,39.846c.027.024-.138.251-.462.643a13.544,13.544,0,0,1-1.511,1.536,19.532,19.532,0,0,1-13.1,4.842,13.714,13.714,0,0,1-2.147-.184,2.318,2.318,0,0,1-.769-.189c.012-.091,1.123.058,2.913,0a21.614,21.614,0,0,0,12.863-4.754c1.394-1.123,2.141-1.96,2.21-1.9" fill="#455a64"/>
        <path id="Trazado_703548" data-name="Trazado 703548" d="M305.155,28.925a3.516,3.516,0,0,1-.2,1.92,6.647,6.647,0,0,1-7.411,4.6,3.506,3.506,0,0,1-1.811-.668c.032-.083.709.209,1.855.3a6.8,6.8,0,0,0,7.02-4.36c.425-1.068.463-1.805.552-1.8" fill="#455a64"/>
      </g>
    </g>
    <path id="Trazado_703549" data-name="Trazado 703549" d="M35.35,349.268l-.979,11.984H107.3V386.3h7.041V361.252h267.61v25.164h7.042V361.252h22.44V349.268Z" fill="#455a64"/>
    <g id="Grupo_999399" data-name="Grupo 999399">
      <g id="Grupo_999398" data-name="Grupo 999398" clip-path="url(#clip-path)">
        <path id="Trazado_703550" data-name="Trazado 703550" d="M333.274,257.236c0-.539-7.708-34.811-8.291-37.4l6.505-9.608s2.378-2.27,1.646-3.276-1.992-1.136-3.411-.215c-.9.58-5.561,3.052-5.561,3.052s-1.771-13.9-2.137-14.906-1.342-1.481-1.983-.749-.483,10.163-.483,10.163-3.753-11.629-4.552-12.086a1.492,1.492,0,0,0-2.2.824c0,.458,2.575,12.918,2.575,12.918s-5.962-11.361-6.969-10.995a1.817,1.817,0,0,0-1.374,1.74c-.091.823,4.028,12.815,4.028,12.815s-4.577-8.788-5.4-8.513a2.186,2.186,0,0,0-1.076,2.346c.121.8,5.821,18.123,6.873,21.317l2.425,40.993,16.466,35.553,14.858-20.773s-11.941-22.637-11.941-23.2" fill="#ffbe9d"/>
        <path id="Trazado_703551" data-name="Trazado 703551" d="M354.5,267.668s-1.951,29.056,1.883,33.541,11.8,3.362,11.8,3.362l5.146-24.713Z" fill="#ffbe9d"/>
        <path id="Trazado_703552" data-name="Trazado 703552" d="M345.716,280.555l7.526,10.592,17,8.921L408.9,320.337a9.669,9.669,0,0,1,4.772,11.341l-1.339,4.469-14.5,35.863.743,14.4L321.4,386.3s17.35-56.4,17.908-60.029-2.788-8.362-2.788-8.362-10.035-6.969-10.035-7.8,1.394-28.154,19.234-29.548" fill="#ed9aa9"/>
        <path id="Trazado_703553" data-name="Trazado 703553" d="M343.9,340.475c-.1-.007.029-1.381-.158-3.578a28.829,28.829,0,0,0-.6-3.819,36.825,36.825,0,0,0-1.388-4.526,47.346,47.346,0,0,0-3.855-7.706c-1.159-1.885-1.953-3.008-1.885-3.058a3.523,3.523,0,0,1,.647.723c.393.484.925,1.212,1.548,2.136a39.267,39.267,0,0,1,4.032,7.719,32.778,32.778,0,0,1,1.37,4.61,24.777,24.777,0,0,1,.5,3.9,14.577,14.577,0,0,1,.015,1.508,8.952,8.952,0,0,1-.068,1.136,3.442,3.442,0,0,1-.156.958" fill="#263238"/>
        <path id="Trazado_703554" data-name="Trazado 703554" d="M387.843,368.015a9.424,9.424,0,0,1-1.491.558c-.969.328-2.379.779-4.126,1.321-3.494,1.083-8.344,2.509-13.73,3.974s-10.293,2.689-13.855,3.524c-1.781.417-3.226.741-4.227.949a9.26,9.26,0,0,1-1.568.274,9.288,9.288,0,0,1,1.52-.471l4.186-1.11,13.807-3.668c5.331-1.482,10.154-2.823,13.763-3.825l4.172-1.162a9.351,9.351,0,0,1,1.549-.364" fill="#263238"/>
        <path id="Trazado_703555" data-name="Trazado 703555" d="M413.058,332.4s-.216-.063-.626-.209-1.025-.351-1.847-.564a22.054,22.054,0,0,0-7.351-.643,21.16,21.16,0,0,0-10.847,3.985,21.837,21.837,0,0,0-5.092,5.182,18.94,18.94,0,0,0-3.218,7.434,10.446,10.446,0,0,0,.111,4.322,6.529,6.529,0,0,0,2.414,3.69,7.976,7.976,0,0,0,8.994.02,9.215,9.215,0,0,0,3.27-9.179,11.448,11.448,0,0,0-6.747-8.077,16.517,16.517,0,0,0-11.306-.677,24.121,24.121,0,0,0-5.544,2.254,27.332,27.332,0,0,0-5.008,3.5,28.2,28.2,0,0,0-7.3,10.092,24.62,24.62,0,0,0-1.716,6.165,19.86,19.86,0,0,0-.2,3.216,5.716,5.716,0,0,0,.872,2.984,3.813,3.813,0,0,0,2.583,1.541,7.577,7.577,0,0,0,3.137-.171,9.055,9.055,0,0,0,5.086-3.5,8.859,8.859,0,0,0-1.072-11.29,12.008,12.008,0,0,0-5.237-2.9,18.168,18.168,0,0,0-5.919-.623,25.751,25.751,0,0,0-11.049,3.27,26.166,26.166,0,0,0-8.255,7.24c-2.115,2.86-3.635,6.206-3.509,9.564a7.914,7.914,0,0,0,5.224,7.318,5.622,5.622,0,0,0,4.338-.477,7.891,7.891,0,0,0,3.04-3.006,11.509,11.509,0,0,0,.919-7.892,22,22,0,0,0-2.552-6.8c-2.271-3.953-5.911-6.339-9.136-6.488a10.226,10.226,0,0,0-4.187.559,8,8,0,0,0-2.661,1.594,8.226,8.226,0,0,0-1.568,2.036s.091-.2.295-.592a6.81,6.81,0,0,1,1.2-1.52,9.157,9.157,0,0,1,6.934-2.279c3.3.119,7.045,2.54,9.372,6.542a22.227,22.227,0,0,1,2.626,6.886,11.843,11.843,0,0,1-.924,8.139,8.276,8.276,0,0,1-3.178,3.163,6.019,6.019,0,0,1-4.634.522,8.321,8.321,0,0,1-5.541-7.685c-.138-3.506,1.427-6.937,3.571-9.853a26.593,26.593,0,0,1,8.389-7.387,26.2,26.2,0,0,1,11.257-3.348,18.649,18.649,0,0,1,6.082.633,12.525,12.525,0,0,1,5.46,3.021,9.374,9.374,0,0,1,1.137,11.952,9.576,9.576,0,0,1-5.38,3.708,8.1,8.1,0,0,1-3.358.18,4.342,4.342,0,0,1-2.919-1.755,6.217,6.217,0,0,1-.964-3.257,20.149,20.149,0,0,1,.2-3.314,25.09,25.09,0,0,1,1.754-6.294,28.664,28.664,0,0,1,7.442-10.275,27.831,27.831,0,0,1,5.1-3.558,24.558,24.558,0,0,1,5.657-2.291,16.99,16.99,0,0,1,11.636.722,11.906,11.906,0,0,1,6.995,8.428,9.648,9.648,0,0,1-3.472,9.616,8.382,8.382,0,0,1-9.482-.05A6.92,6.92,0,0,1,383.815,352a10.807,10.807,0,0,1-.1-4.481,19.235,19.235,0,0,1,3.31-7.562,22.1,22.1,0,0,1,5.192-5.229,21.291,21.291,0,0,1,11-3.95,21.6,21.6,0,0,1,7.394.744,15.867,15.867,0,0,1,2.445.874" fill="#fafafa"/>
        <path id="Trazado_703556" data-name="Trazado 703556" d="M361.417,300.91a10.022,10.022,0,0,1-1.952,2.542,14.772,14.772,0,0,1-7.679,4.048,13.757,13.757,0,0,1-6.058-.2,15.156,15.156,0,0,1-6.134-3.281,14.535,14.535,0,0,1-2.5-2.855,11.126,11.126,0,0,1-1.638-3.616,5.4,5.4,0,0,1,.479-4.1,4.445,4.445,0,0,1,3.738-1.982,7.657,7.657,0,0,1,4.109,1.1,10.206,10.206,0,0,1,2.964,2.868,12.45,12.45,0,0,1,2.005,7.4,13.513,13.513,0,0,1-.669,3.551,12.365,12.365,0,0,1-1.586,3.022,12.7,12.7,0,0,1-4.711,3.813,14.7,14.7,0,0,1-8.59,1.245,10.95,10.95,0,0,1-3.073-.908,25.086,25.086,0,0,0,3.1.708,14.817,14.817,0,0,0,8.4-1.377,12.388,12.388,0,0,0,4.524-3.737,11.952,11.952,0,0,0,1.5-2.914,13.147,13.147,0,0,0,.624-3.423,12.009,12.009,0,0,0-1.948-7.1,9.731,9.731,0,0,0-2.806-2.709,7.158,7.158,0,0,0-3.827-1.022,3.927,3.927,0,0,0-3.317,1.735,4.9,4.9,0,0,0-.421,3.716,10.732,10.732,0,0,0,1.556,3.456,14.1,14.1,0,0,0,2.4,2.77,14.814,14.814,0,0,0,5.926,3.223,13.487,13.487,0,0,0,5.881.251,14.867,14.867,0,0,0,7.6-3.832,21.424,21.424,0,0,0,2.094-2.4" fill="#fafafa"/>
        <path id="Trazado_703557" data-name="Trazado 703557" d="M396.868,383.3c-.053.077-.87-.559-2.385-1.159a11.274,11.274,0,0,0-11.811,2.092c-1.218,1.083-1.766,1.961-1.843,1.907-.027-.017.08-.254.331-.648a9.26,9.26,0,0,1,1.26-1.528,10.874,10.874,0,0,1,12.207-2.162,9.282,9.282,0,0,1,1.708,1c.371.284.553.469.533.495" fill="#fafafa"/>
        <g id="Grupo_999397" data-name="Grupo 999397" opacity="0.3">
          <g id="Grupo_999396" data-name="Grupo 999396">
            <g id="Grupo_999395" data-name="Grupo 999395" clip-path="url(#clip-path-7)">
              <path id="Trazado_703558" data-name="Trazado 703558" d="M385.883,303.217c-7.517-3.293-15.94-3.665-23.871-7.326l-9.27-4.863c.9,1.419,3.443,2.6,4.053,4.757a20.522,20.522,0,0,1,.261,6.684,64.632,64.632,0,0,0,1.533,17.81c.831,3.633,2.414,7.671,5.937,8.89,2.358.817,4.942.115,7.335-.591,10.661-3.139,23.388-6.527,34.049-9.666-3.157-7.574-12.51-12.4-20.027-15.695"/>
            </g>
          </g>
        </g>
        <path id="Trazado_703559" data-name="Trazado 703559" d="M410.193,268.851c-1.166-5.59-2.847-11.3-6.6-15.6-4.376-5.02-11.126-7.505-17.772-7.925-5.7-.359-6.83-3.164-12.653-2.213a17.463,17.463,0,0,0-6.307,2.419c-8.154,5.013-12.715,13.224-15.093,22.89-.891,3.622-.93,8.127,2.092,10.313,2.187,1.582,5.291,1.369,7.5,2.922,2.454,1.725,3.085,5.169,2.575,8.126s-1.916,5.677-2.746,8.56c-2.012,6.986-.548,14.444.924,21.563l42.477-1.237c1.638-.047,3.434-.158,4.625-1.283a6.635,6.635,0,0,0,1.575-3.773,117.5,117.5,0,0,0-.6-44.761" fill="#263238"/>
        <path id="Trazado_703560" data-name="Trazado 703560" d="M354.951,269.764a5.017,5.017,0,0,1,.1-1.17,12.315,12.315,0,0,1,.232-1.357c.114-.524.219-1.129.418-1.776a30.319,30.319,0,0,1,1.6-4.478,31.826,31.826,0,0,1,6.589-9.547,30.25,30.25,0,0,1,3.62-3.082c.534-.416,1.063-.729,1.512-1.022a12.84,12.84,0,0,1,1.187-.7,5.077,5.077,0,0,1,1.058-.508c.05.088-1.418.885-3.536,2.521a34.619,34.619,0,0,0-3.5,3.125,33.889,33.889,0,0,0-6.494,9.411,34.471,34.471,0,0,0-1.68,4.38c-.778,2.561-1,4.217-1.1,4.2" fill="#455a64"/>
        <path id="Trazado_703561" data-name="Trazado 703561" d="M360.012,275.775a12.181,12.181,0,0,1,.085-2.842,44.57,44.57,0,0,1,3.416-13.255,12.153,12.153,0,0,1,1.3-2.529,20.939,20.939,0,0,1-.958,2.667,62.143,62.143,0,0,0-3.392,13.161,20.789,20.789,0,0,1-.451,2.8" fill="#455a64"/>
        <path id="Trazado_703562" data-name="Trazado 703562" d="M401.549,311.084a3.663,3.663,0,0,1-.191-.684c-.118-.452-.251-1.125-.4-2a48.162,48.162,0,0,1-.591-7.468c-.03-3.166.2-6.929.546-11.089a128.673,128.673,0,0,0,.623-13.529,38.633,38.633,0,0,0-2.4-13.207,25.329,25.329,0,0,0-6.075-9.058,19.031,19.031,0,0,0-6.228-3.941,17.427,17.427,0,0,0-1.931-.6,3.667,3.667,0,0,1-.68-.205,3.573,3.573,0,0,1,.7.1,13.617,13.617,0,0,1,1.976.51,18.452,18.452,0,0,1,6.409,3.861,25.276,25.276,0,0,1,6.272,9.15,38.486,38.486,0,0,1,2.474,13.372,121.778,121.778,0,0,1-.666,13.583c-.369,4.156-.638,7.9-.655,11.049a54.353,54.353,0,0,0,.423,7.439c.12.872.221,1.549.3,2.006a3.537,3.537,0,0,1,.089.705" fill="#455a64"/>
        <path id="Trazado_703563" data-name="Trazado 703563" d="M397.585,310.455a17.537,17.537,0,0,1-.343-3.2c-.125-1.983-.207-4.728-.147-7.76s.253-5.773.456-7.749a17.37,17.37,0,0,1,.469-3.183,22.539,22.539,0,0,1-.1,3.211c-.109,1.978-.241,4.71-.3,7.731s-.035,5.755-.005,7.736a22.8,22.8,0,0,1-.026,3.213" fill="#455a64"/>
      </g>
    </g>
    <g id="Grupo_999401" data-name="Grupo 999401">
      <g id="Grupo_999400" data-name="Grupo 999400" clip-path="url(#clip-path)">
        <path id="Trazado_703564" data-name="Trazado 703564" d="M206.205,282.516q.606,8.229,1.213,16.459c-4.14.756-8.438,1.23-12.531.248s-7.982-3.656-9.444-7.6a4.145,4.145,0,0,1-.283-2.375,1.948,1.948,0,0,1,1.65-1.55" fill="#ffbe9d"/>
        <path id="Trazado_703565" data-name="Trazado 703565" d="M217.288,264.962c.648-2.027,3.392-3.236,3.415-5.351.025-2.2-2.876-3.4-3.726-5.452-1.275-3.082,2.51-6.37,1.638-9.572-1.044-3.836-7.64-4.249-8.873-8.036-.51-1.568-.006-3.541-1.279-4.669-1.665-1.476-4.566.014-6.649-.888-1.935-.838-2.434-3.408-4.358-4.267-2.052-.916-4.317.576-6.256,1.687-.583.334-1.307.766-2.058,1.156-3.3-1.074-8.535-.927-10.783.827-2.644,2.063-4.673,4.822-7.613,6.5-2.6,1.479-5.829,2.073-7.894,4.156-3.685,3.718-1.7,9.818-3.582,14.57-.642,1.621-1.733,3.058-2.417,4.665s-.9,3.554.153,4.973,3.284,2.249,3.327,3.975c.043,1.694-2.194,2.939-1.982,4.622.23,1.824,2.933,2.258,4.1,3.733,1.532,1.929-.03,4.923,1.315,6.97,1.453,2.213,4.944,1.745,7.636,2.384,4.682,1.111,8.164,6.215,12.924,5.446,1.826-.3,3.39-1.457,5.217-1.746,2.455-.389,4.845.85,7.313,1.154,4.461.55,8.629-1.948,12.334-4.334,1.894-1.22,3.935-2.635,4.431-4.735.449-1.9-.473-4.055.549-5.751.953-1.583,3.276-2.143,4.115-3.781,1.307-2.552-1.867-5.522-1-8.233" fill="#263238"/>
        <path id="Trazado_703566" data-name="Trazado 703566" d="M169.722,245.279a1.01,1.01,0,0,1-.138-.378,4,4,0,0,1-.106-1.149,5.8,5.8,0,0,1,1.77-3.8,10.318,10.318,0,0,1,5.628-2.7,4.94,4.94,0,0,1,3.668.821,3.9,3.9,0,0,1,1.212,1.654,2.947,2.947,0,0,1,.037,2.135,2.254,2.254,0,0,1-1.637,1.408,1.646,1.646,0,0,1-1.125-.15,1.52,1.52,0,0,1-.7-.883,2.482,2.482,0,0,1,.358-1.995,3.465,3.465,0,0,1,1.479-1.206,4.694,4.694,0,0,1,5.718,1.786,6.2,6.2,0,0,1,.871,4.107,6.031,6.031,0,0,1-.244,1.122c-.088.248-.143.374-.16.368-.049-.013.14-.535.2-1.509a6.211,6.211,0,0,0-.975-3.884,4.159,4.159,0,0,0-2.151-1.644,4.222,4.222,0,0,0-3.064.091,3.015,3.015,0,0,0-1.257,1.037,2,2,0,0,0-.29,1.575,1.012,1.012,0,0,0,1.236.678,1.737,1.737,0,0,0,1.257-1.092,2.96,2.96,0,0,0-1.082-3.2,4.5,4.5,0,0,0-3.294-.744,10.167,10.167,0,0,0-5.427,2.486,5.779,5.779,0,0,0-1.826,3.551,9.031,9.031,0,0,0,.042,1.512" fill="#455a64"/>
        <path id="Trazado_703567" data-name="Trazado 703567" d="M164.906,264.607a2.774,2.774,0,0,1-.411-.992,6.528,6.528,0,0,1,2.243-6.749,6.822,6.822,0,0,1,5.343-1.352l-.3.294a7.34,7.34,0,0,1-.009-2.2,7.9,7.9,0,0,1,3.273-5.327,7.622,7.622,0,0,1,8.247-.08,5.208,5.208,0,0,1,.745.576c.157.148.232.232.22.245-.031.037-.371-.258-1.069-.647a7.844,7.844,0,0,0-3.2-.938,7.2,7.2,0,0,0-4.671,1.238,7.525,7.525,0,0,0-3.031,5.007,6.942,6.942,0,0,0,0,2.041l.055.36-.357-.066a6.439,6.439,0,0,0-4.97,1.208,6.136,6.136,0,0,0-2.264,3.5,6.825,6.825,0,0,0-.076,2.844c.127.666.268,1.019.229,1.034" fill="#455a64"/>
        <path id="Trazado_703568" data-name="Trazado 703568" d="M199.589,237.2c-.025.082-.7-.128-1.8-.182a8.2,8.2,0,0,0-7.325,3.651c-.622.915-.859,1.578-.94,1.549a3.662,3.662,0,0,1,.627-1.744,7.707,7.707,0,0,1,7.67-3.823,3.639,3.639,0,0,1,1.77.549" fill="#455a64"/>
        <path id="Trazado_703569" data-name="Trazado 703569" d="M214.082,263.648c-.041-.027.189-.365.456-1.037a6.8,6.8,0,0,0,.416-2.982,6.167,6.167,0,0,0-1.826-3.95,6.378,6.378,0,0,0-4.993-1.645,6.125,6.125,0,0,0-2.41.782l-.535.313.155-.6a4.717,4.717,0,0,0-1-4.169,4.435,4.435,0,0,0-3.138-1.528,5.053,5.053,0,0,0-2.36.423c-.521.236-.777.431-.8.4a2.076,2.076,0,0,1,.721-.56,4.812,4.812,0,0,1,2.455-.6,4.716,4.716,0,0,1,3.462,1.567,5.126,5.126,0,0,1,1.156,4.594l-.38-.284a6.535,6.535,0,0,1,2.621-.861,6.766,6.766,0,0,1,5.38,1.818,6.591,6.591,0,0,1,1.262,7.358,4.606,4.606,0,0,1-.441.734c-.118.156-.186.232-.2.222" fill="#455a64"/>
        <path id="Trazado_703570" data-name="Trazado 703570" d="M160.486,356.359s-12.348,2.49-14.194,1.171-8.7-5.8-7.648-11.867,13.713-49.315,16.35-52.479,5.275-6.329,10.549-6.066,39.821,7.648,39.821,7.648,14.241-.791,17.142,1.319S232,302.15,232,309.534s-1.461,58-1.461,58l3.843,18.583H158.369Z" fill="#4db1f0"/>
        <path id="Trazado_703571" data-name="Trazado 703571" d="M160.486,356.359c-.143.011-1.053-10.042-2.031-22.451s-1.655-22.482-1.511-22.494,1.052,10.04,2.031,22.453,1.654,22.481,1.511,22.492" fill="#263238"/>
        <path id="Trazado_703572" data-name="Trazado 703572" d="M231.934,308.256a4.6,4.6,0,0,1-.794-.1l-2.256-.4-8.291-1.492c-7-1.242-16.7-2.854-27.44-4.359s-20.514-2.606-27.589-3.331l-8.382-.838L154.9,297.5a4.609,4.609,0,0,1-.792-.118,4.58,4.58,0,0,1,.8.013l2.287.14c1.986.129,4.856.356,8.4.673,7.088.632,16.867,1.682,27.626,3.183s20.445,3.176,27.435,4.512c3.495.667,6.318,1.234,8.263,1.655l2.238.493a4.548,4.548,0,0,1,.773.206" fill="#fafafa"/>
        <path id="Trazado_703573" data-name="Trazado 703573" d="M230.538,326.685a4.034,4.034,0,0,1-.746.017l-2.136-.052c-1.855-.053-4.537-.165-7.85-.333-6.626-.333-15.775-.933-25.856-1.853s-19.191-1.994-25.768-2.868c-3.289-.437-5.947-.813-7.78-1.1l-2.11-.336a4.144,4.144,0,0,1-.73-.152,3.968,3.968,0,0,1,.745.048l2.122.239,7.8.932c6.586.78,15.692,1.792,25.77,2.715s19.212,1.577,25.83,2l7.839.5,2.13.15a3.945,3.945,0,0,1,.742.087" fill="#fafafa"/>
        <path id="Trazado_703574" data-name="Trazado 703574" d="M231.7,343.853a3.763,3.763,0,0,1-.711.141l-2.054.3c-1.785.261-4.376.573-7.584.9-6.415.657-15.317,1.25-25.161,1.259s-18.752-.589-25.167-1.242c-3.208-.324-5.8-.634-7.584-.894l-2.054-.3a3.72,3.72,0,0,1-.711-.141,3.945,3.945,0,0,1,.725.037l2.064.2c1.791.2,4.386.452,7.594.728,6.415.558,15.3,1.086,25.132,1.088s18.712-.542,25.128-1.105c3.208-.279,5.8-.535,7.593-.733l2.065-.207a3.73,3.73,0,0,1,.725-.037" fill="#fafafa"/>
        <path id="Trazado_703575" data-name="Trazado 703575" d="M230.353,369.325a3.769,3.769,0,0,1-.718.072l-2.061.1-7.584.252c-6.4.177-15.254.354-25.031.407s-18.634-.039-25.04-.25c-3.2-.117-5.793-.217-7.582-.348l-2.058-.147a3.764,3.764,0,0,1-.715-.087,3.7,3.7,0,0,1,.721-.018l2.062.049c1.789.069,4.381.113,7.582.183,6.4.117,15.251.153,25.027.1l25.027-.254,7.586-.087,2.064,0a3.725,3.725,0,0,1,.72.033" fill="#fafafa"/>
        <path id="Trazado_703576" data-name="Trazado 703576" d="M158.715,334.34a65.5,65.5,0,0,1-7.977-2.139,65.585,65.585,0,0,1-7.828-2.638,65.721,65.721,0,0,1,7.978,2.14,65.64,65.64,0,0,1,7.827,2.637" fill="#fafafa"/>
      </g>
    </g>
    <g id="Grupo_999403" data-name="Grupo 999403">
      <g id="Grupo_999402" data-name="Grupo 999402" clip-path="url(#clip-path)">
        <path id="Trazado_703577" data-name="Trazado 703577" d="M48.346,299.384c-.242-5.887-5.341-16.5-7.43-26.935-1.068-5.329-1.7-10.071,1.733-14.284,2.915-3.578,6.988-5.989,11-8.268,6.389-3.626,13.136-7.191,20.471-7.591,4.777-.261,9.937,1.073,12.988,4.759,2.508,3.028,3.222,7.121,3.716,11.022a177.294,177.294,0,0,1,1.384,19.551,33.378,33.378,0,0,1-.973,10.1,12.865,12.865,0,0,1-6,7.9c-2.6,1.346-5.7,1.466-8.3,2.813s-4.518,4.962-2.586,7.163l-17.2,4.7Z" fill="#a36957"/>
        <path id="Trazado_703578" data-name="Trazado 703578" d="M44.757,290.793a15.228,15.228,0,0,0,8.947,7.871,11.519,11.519,0,0,0,11.354-2.651c1.694-1.731,2.7-4,3.845-6.133s2.573-4.265,4.733-5.36,5.218-.745,6.468,1.329c.4.665.647,1.507,1.34,1.856a1.85,1.85,0,0,0,2.337-1.129,5.261,5.261,0,0,0,.069-2.873,54.536,54.536,0,0,1-1.164-10.8c.13-3.625,1.184-7.354,3.673-9.993,1.912-2.028,4.5-3.256,6.782-4.853s4.419-3.855,4.61-6.635c.17-2.486-1.281-4.834-3.124-6.51-4.024-3.659-19.79-6.477-24.828-4.431,0,0-21.177,9.209-22.22,9.949s-8.714,3.433-8.493,12.779,5.671,27.583,5.671,27.583" fill="#263238"/>
        <path id="Trazado_703579" data-name="Trazado 703579" d="M48.346,299.384c-.242-5.887-5.341-16.5-7.43-26.935-1.068-5.329-1.7-10.071,1.733-14.284,2.915-3.578,6.988-5.989,11-8.268,6.389-3.626,13.136-7.191,20.471-7.591,4.777-.261,9.937,1.073,12.988,4.759,2.508,3.028,3.222,7.121,3.716,11.022a177.294,177.294,0,0,1,1.384,19.551,33.378,33.378,0,0,1-.973,10.1,12.865,12.865,0,0,1-6,7.9c-2.6,1.346-5.7,1.466-8.3,2.813s-4.518,4.962-2.586,7.163l-17.2,4.7Z" fill="#a36957"/>
        <path id="Trazado_703580" data-name="Trazado 703580" d="M98.1,244.351a2.562,2.562,0,0,0-3.765.135,4.294,4.294,0,0,0-6.866-5.153,4.372,4.372,0,0,0-1.457-5.394,6.927,6.927,0,0,0-5.846-.81,17.759,17.759,0,0,0-5.383,2.814,3.757,3.757,0,0,0-2.071-3.243,7.525,7.525,0,0,0-3.935-.721,15.78,15.78,0,0,0-12.831,7.886,7.391,7.391,0,0,0-9.707,9.409,6.165,6.165,0,0,0-4.923,6.108,12.608,12.608,0,0,0-2.232,7.828c.22,9.347,5.672,27.583,5.672,27.583a15.226,15.226,0,0,0,8.947,7.871,11.518,11.518,0,0,0,11.353-2.651c1.695-1.731,2.7-4,3.846-6.133s2.572-4.265,4.733-5.36,4.654-.339,6.979.338c2.119.617,2.118-.758,2.245-2.366l-.175-9.588c.131-3.625,1.185-7.354,3.673-9.993,1.912-2.028,4.5-3.256,6.782-4.853s4.42-3.855,4.61-6.635a5.857,5.857,0,0,0-.057-1.215,6.413,6.413,0,0,0,1.077-1.841,3.886,3.886,0,0,0-.669-4.016" fill="#263238"/>
        <path id="Trazado_703581" data-name="Trazado 703581" d="M69.749,260.127a2.633,2.633,0,0,1-.246,1.014,6.2,6.2,0,0,1-5.693,3.9,6.489,6.489,0,0,1-4.884-2.223l.411-.023a7.156,7.156,0,0,1-1.569,1.671,7.725,7.725,0,0,1-5.956,1.5,7.431,7.431,0,0,1-5.8-5.655,4.976,4.976,0,0,1-.113-.918c-.005-.211,0-.322.019-.323.048,0,.078.438.291,1.192a7.676,7.676,0,0,0,1.57,2.869,7.042,7.042,0,0,0,4.11,2.362,7.345,7.345,0,0,0,5.556-1.442,6.74,6.74,0,0,0,1.46-1.546l.191-.282.22.26a6.1,6.1,0,0,0,4.494,2.1,5.8,5.8,0,0,0,3.808-1.354,6.48,6.48,0,0,0,1.711-2.168c.285-.593.375-.951.416-.94" fill="#455a64"/>
        <path id="Trazado_703582" data-name="Trazado 703582" d="M83.5,253.8a1.955,1.955,0,0,1,.192,1.7,3.584,3.584,0,0,1-.925,1.666,4.309,4.309,0,0,1-2.043,1.121,6.791,6.791,0,0,1-4.093-.417,4.239,4.239,0,0,1-1.487-.81,7.842,7.842,0,0,1,1.608.462,7.384,7.384,0,0,0,3.847.259,4.1,4.1,0,0,0,1.831-.957,3.5,3.5,0,0,0,.907-1.423,5.594,5.594,0,0,0,.163-1.6" fill="#455a64"/>
        <path id="Trazado_703583" data-name="Trazado 703583" d="M93.3,250.387a2.807,2.807,0,0,1-.274,1.68,5.461,5.461,0,0,1-6.921,3.163,2.807,2.807,0,0,1-1.449-.892c.047-.074.583.291,1.555.539a5.532,5.532,0,0,0,6.479-2.961c.448-.9.523-1.542.61-1.529" fill="#455a64"/>
        <path id="Trazado_703584" data-name="Trazado 703584" d="M81.4,243.661a8.362,8.362,0,0,0-2.965-1.242,5.87,5.87,0,0,0-6.364,3.218,5.935,5.935,0,0,0-.628,2.27l-.507-.04a2.251,2.251,0,0,0-1.9-2.169,3.471,3.471,0,0,0-2.505.538,22.031,22.031,0,0,0-1.915,1.56c-.022-.018.1-.222.373-.56a6.727,6.727,0,0,1,1.365-1.276,3.722,3.722,0,0,1,2.774-.694,3.229,3.229,0,0,1,1.58.819,2.282,2.282,0,0,1,.733,1.834l-.506-.04a6.29,6.29,0,0,1,.67-2.477,6.428,6.428,0,0,1,3.259-3.053,6.289,6.289,0,0,1,3.639-.291,5.971,5.971,0,0,1,2.248.982c.466.348.667.6.648.621" fill="#455a64"/>
        <path id="Trazado_703585" data-name="Trazado 703585" d="M72.014,236.412c0,.083-.477.1-1.177.327a4.6,4.6,0,0,0-3.24,4.217,9.034,9.034,0,0,1-.013,1.222c-.056.021-.3-.421-.355-1.221a4.4,4.4,0,0,1,3.514-4.574c.787-.154,1.277-.031,1.271.029" fill="#455a64"/>
        <path id="Trazado_703586" data-name="Trazado 703586" d="M52.552,248.094c-.053,0,.109-.753,1.027-1.452a4.163,4.163,0,0,1,1.822-.757,5.16,5.16,0,0,1,2.4.231,9.036,9.036,0,0,1,3.546,2.387,5.261,5.261,0,0,1,1.108,1.364,6.764,6.764,0,0,1-1.36-1.1,10.458,10.458,0,0,0-3.456-2.16,5.091,5.091,0,0,0-2.17-.249,4.145,4.145,0,0,0-1.679.585,7.073,7.073,0,0,0-1.236,1.148" fill="#455a64"/>
        <path id="Trazado_703587" data-name="Trazado 703587" d="M62.673,256.117a4.176,4.176,0,0,1,1.359-5.15,18.711,18.711,0,0,0-1.1,2.463,18.653,18.653,0,0,0-.255,2.687" fill="#455a64"/>
        <path id="Trazado_703588" data-name="Trazado 703588" d="M118.767,294.731l-14.5,4.714,2.781,26.654-1.024,2.026L95.251,345.8c-.19.306,10.93,2.918,15.124,3.815,5.224,1.117,19.013,0,16.963-17.316-1.45-12.249-8.571-37.563-8.571-37.563" fill="#a36957"/>
        <path id="Trazado_703589" data-name="Trazado 703589" d="M103.137,275.6a7.19,7.19,0,0,0-3.964,6.086,1.793,1.793,0,0,0,.2,1.027,1.407,1.407,0,0,0,1.765.36,4.108,4.108,0,0,0,1.411-1.347" fill="#a36957"/>
        <path id="Trazado_703590" data-name="Trazado 703590" d="M102.546,281.729c.028.021-.048.184-.225.455a3.222,3.222,0,0,1-.986,1,1.859,1.859,0,0,1-1,.263,1.423,1.423,0,0,1-1.115-.52,1.94,1.94,0,0,1-.3-1.288,6.87,6.87,0,0,1,.177-1.3,7.1,7.1,0,0,1,2.387-3.842,3.455,3.455,0,0,1,1.652-.887c.038.078-.6.394-1.409,1.163a7.6,7.6,0,0,0-2.125,3.685,7.161,7.161,0,0,0-.172,1.207,1.515,1.515,0,0,0,.177.98,1.282,1.282,0,0,0,1.549.221,3.925,3.925,0,0,0,1.005-.8c.221-.227.354-.351.383-.328" fill="#7c3b29"/>
        <path id="Trazado_703591" data-name="Trazado 703591" d="M111.643,275.663s-7.139,2.853-8.016,5.152-2.473,10.874-2.473,10.874l3.166,8.3,14.2-2.834s2.181-16.925,2.333-17.427c0,0,4.947-14.165,4.937-15.467-.013-1.753-1.394-2.328-3.11-.283s-5.544,9.864-5.544,9.864Z" fill="#a36957"/>
        <path id="Trazado_703592" data-name="Trazado 703592" d="M110.314,272.265a8.127,8.127,0,0,0-4.254.555,5.8,5.8,0,0,0-2.6,3.154,17.233,17.233,0,0,0-.844,4.079c-.129,1.04-.174,2.29.668,2.915a1.489,1.489,0,0,0,2.362-.982" fill="#a36957"/>
        <path id="Trazado_703593" data-name="Trazado 703593" d="M105.651,281.986c.025,0,.071.3-.205.738a1.551,1.551,0,0,1-.722.588,1.672,1.672,0,0,1-1.25-.023,1.829,1.829,0,0,1-1-1.148,4.393,4.393,0,0,1-.142-1.676,22.562,22.562,0,0,1,.588-3.674,7.183,7.183,0,0,1,1.823-3.295,4.835,4.835,0,0,1,2.774-1.342,8.747,8.747,0,0,1,2.054-.026,1.961,1.961,0,0,1,.738.137c0,.106-1.082-.027-2.729.252a4.625,4.625,0,0,0-2.5,1.319,7,7,0,0,0-1.66,3.093,25.769,25.769,0,0,0-.612,3.576,4.149,4.149,0,0,0,.076,1.507,1.452,1.452,0,0,0,.735.941,1.375,1.375,0,0,0,1.658-.351c.291-.347.323-.627.367-.616" fill="#7c3b29"/>
        <path id="Trazado_703594" data-name="Trazado 703594" d="M116.923,273.643a6.843,6.843,0,0,0-3.175-2.159,4.5,4.5,0,0,0-3.858,1.247,11.288,11.288,0,0,0-2.346,3.469q-.774,1.579-1.434,3.21a6.442,6.442,0,0,0-.521,1.808,2.378,2.378,0,0,0,.488,1.772,2.224,2.224,0,0,0,2.624.386,3.786,3.786,0,0,0,1.737-2.179" fill="#a36957"/>
        <path id="Trazado_703595" data-name="Trazado 703595" d="M110.438,281.2a2.139,2.139,0,0,1-.334.951,3.03,3.03,0,0,1-2.195,1.65,2.285,2.285,0,0,1-1.9-.569,2.578,2.578,0,0,1-.641-2.183,8.423,8.423,0,0,1,.764-2.309q.506-1.137,1.041-2.342a10.861,10.861,0,0,1,2.855-4.094,4.463,4.463,0,0,1,3.953-.948,5.594,5.594,0,0,1,2.3,1.521,3.222,3.222,0,0,1,.643.769,4.3,4.3,0,0,1-.781-.62,5.933,5.933,0,0,0-2.259-1.315,4.142,4.142,0,0,0-3.557.968,10.817,10.817,0,0,0-2.685,3.945l-1.04,2.314a8.253,8.253,0,0,0-.758,2.173,2.156,2.156,0,0,0,.47,1.815,1.915,1.915,0,0,0,1.554.509,2.906,2.906,0,0,0,2.063-1.389c.346-.523.467-.862.508-.846" fill="#7c3b29"/>
        <path id="Trazado_703596" data-name="Trazado 703596" d="M111.925,286.6l-.936-4.873a10.976,10.976,0,0,1-4.943-2.119c-.48-1.287.194-2.1,1.964-2.6s7.457.325,8.08.661c2.173,1.174,2.431,4.209,2.742,6.659" fill="#a36957"/>
        <path id="Trazado_703597" data-name="Trazado 703597" d="M118.832,284.33a5.249,5.249,0,0,1-.248-1.15,16.044,16.044,0,0,0-.759-3.063,4.856,4.856,0,0,0-1.146-1.757,2.5,2.5,0,0,0-.955-.572c-.389-.1-.817-.178-1.253-.246a27.989,27.989,0,0,0-5.716-.388,4.4,4.4,0,0,0-2.038.707,1.3,1.3,0,0,0-.539.74,1.692,1.692,0,0,0,.1.921l-.082-.11a11.041,11.041,0,0,0,4.822,2.124l.138.024.021.131.6,3.58a6.13,6.13,0,0,1,.146,1.329,6.151,6.151,0,0,1-.357-1.289c-.206-.95-.464-2.137-.769-3.547l.159.154a11.038,11.038,0,0,1-5.063-2.112l-.055-.042-.026-.069a2.165,2.165,0,0,1-.13-1.206,1.8,1.8,0,0,1,.727-1.042,4.817,4.817,0,0,1,2.3-.812,26.472,26.472,0,0,1,5.843.434,12.869,12.869,0,0,1,1.3.279,2.883,2.883,0,0,1,1.124.7,5.129,5.129,0,0,1,1.195,1.942,13.374,13.374,0,0,1,.616,3.168,4.96,4.96,0,0,1,.047,1.176" fill="#7c3b29"/>
        <path id="Trazado_703598" data-name="Trazado 703598" d="M110.435,284.9a8.009,8.009,0,0,1-1.331.167,6.7,6.7,0,0,0-4.987,3.439c-.4.709-.551,1.205-.63,1.184a2.383,2.383,0,0,1,.3-1.346,6.048,6.048,0,0,1,5.284-3.644,2.372,2.372,0,0,1,1.365.2" fill="#7c3b29"/>
        <path id="Trazado_703599" data-name="Trazado 703599" d="M115.767,330.517a37.672,37.672,0,0,1-4.508-1.842,37.427,37.427,0,0,1-4.466-1.944,16.675,16.675,0,0,1,4.668,1.464,16.668,16.668,0,0,1,4.306,2.322" fill="#7c3b29"/>
        <path id="Trazado_703600" data-name="Trazado 703600" d="M66.893,302.27c.915-.3,15.285,2.28,19.464,4.137,2.362,1.05,22.371,17.284,22.371,17.284L94.031,347.8l-9.639-3.505L84.28,386.46,24.3,386.3l1.3-67.345s4.307-17.658,11.628-19.793,29.665,3.108,29.665,3.108" fill="#12263f"/>
        <path id="Trazado_703601" data-name="Trazado 703601" d="M83.083,344.921a1.762,1.762,0,0,1-.492-.07,11.58,11.58,0,0,1-1.388-.333,17.652,17.652,0,0,1-4.747-2.234,19.836,19.836,0,0,1-5.534-5.47,18.13,18.13,0,0,1-1.512-18.3,19.865,19.865,0,0,1,4.561-6.3,17.6,17.6,0,0,1,4.317-2.982,11.467,11.467,0,0,1,1.313-.557,1.8,1.8,0,0,1,.475-.15,22.732,22.732,0,0,0-5.851,3.956,20.046,20.046,0,0,0-4.379,6.236,17.916,17.916,0,0,0,1.474,17.834,20.05,20.05,0,0,0,5.342,5.432,22.7,22.7,0,0,0,6.421,2.942" fill="#263238"/>
        <path id="Trazado_703602" data-name="Trazado 703602" d="M72.876,383.451c-.144-.008.214-8.423.8-18.792s1.175-18.772,1.319-18.764-.214,8.421-.8,18.794-1.174,18.77-1.318,18.762" fill="#263238"/>
        <path id="Trazado_703603" data-name="Trazado 703603" d="M57.66,358.476a5.484,5.484,0,0,1-.845.879c-.566.542-1.4,1.3-2.459,2.227-2.106,1.847-5.094,4.313-8.519,6.873s-6.642,4.721-9.012,6.216c-1.184.748-2.153,1.336-2.834,1.724a5.439,5.439,0,0,1-1.083.56,5.55,5.55,0,0,1,.975-.732l2.74-1.86c2.313-1.571,5.484-3.775,8.9-6.326s6.43-4.964,8.593-6.736l2.563-2.1a5.423,5.423,0,0,1,.979-.727" fill="#263238"/>
        <path id="Trazado_703604" data-name="Trazado 703604" d="M33.978,317.895c-.124-.091,1.049-1.815,2.231-4.081s1.948-4.2,2.093-4.155a12.961,12.961,0,0,1-1.631,4.4,12.949,12.949,0,0,1-2.693,3.839" fill="#fafafa"/>
        <path id="Trazado_703605" data-name="Trazado 703605" d="M38.115,340.321a14.543,14.543,0,0,1-2.942-3.721,14.533,14.533,0,0,1-2.057-4.275,42.841,42.841,0,0,1,2.5,4,42.875,42.875,0,0,1,2.5,4" fill="#fafafa"/>
        <path id="Trazado_703606" data-name="Trazado 703606" d="M54.126,320.135a26.737,26.737,0,0,1-3.305,4.086,26.615,26.615,0,0,1-3.695,3.738,26.708,26.708,0,0,1,3.306-4.086,26.707,26.707,0,0,1,3.694-3.738" fill="#fafafa"/>
        <path id="Trazado_703607" data-name="Trazado 703607" d="M59.056,346.494c-.136-.067.982-2.522,2.128-5.635s1.906-5.7,2.053-5.663a22.463,22.463,0,0,1-1.564,5.844,22.544,22.544,0,0,1-2.617,5.454" fill="#fafafa"/>
        <path id="Trazado_703608" data-name="Trazado 703608" d="M48.736,358.252a36.185,36.185,0,0,1-.409-8.647,36.048,36.048,0,0,1,.409,8.647" fill="#fafafa"/>
        <path id="Trazado_703609" data-name="Trazado 703609" d="M39.054,371.274a27.7,27.7,0,0,1-3.491-4.068,27.668,27.668,0,0,1-3.079-4.388,27.819,27.819,0,0,1,3.491,4.069,27.772,27.772,0,0,1,3.079,4.387" fill="#fafafa"/>
        <path id="Trazado_703610" data-name="Trazado 703610" d="M52.127,379.658a22.454,22.454,0,0,1-.619-6.794,22.454,22.454,0,0,1,.619,6.794" fill="#fafafa"/>
        <path id="Trazado_703611" data-name="Trazado 703611" d="M66.775,373.442a20.5,20.5,0,0,1-2.8-3.655,20.475,20.475,0,0,1-2.369-3.948,20.6,20.6,0,0,1,2.8,3.656,20.516,20.516,0,0,1,2.369,3.947" fill="#fafafa"/>
        <path id="Trazado_703612" data-name="Trazado 703612" d="M71.861,353.512a4.82,4.82,0,0,1-2.2-.051,4.815,4.815,0,0,1-2.125-.567,4.8,4.8,0,0,1,2.2.051,4.815,4.815,0,0,1,2.125.567" fill="#fafafa"/>
        <path id="Trazado_703613" data-name="Trazado 703613" d="M82.129,364.647a21.04,21.04,0,0,1-2.592-3.882,21.1,21.1,0,0,1-2.144-4.147,21.1,21.1,0,0,1,2.592,3.882,21.07,21.07,0,0,1,2.144,4.147" fill="#fafafa"/>
        <path id="Trazado_703614" data-name="Trazado 703614" d="M81.9,374.081a13.3,13.3,0,0,1-1.2,3.5,13.3,13.3,0,0,1-1.676,3.3,26.231,26.231,0,0,1,2.873-6.8" fill="#fafafa"/>
        <path id="Trazado_703615" data-name="Trazado 703615" d="M75.567,331.072a14.429,14.429,0,0,1-1.441-8.235c.153,0,.222,1.873.624,4.134s.96,4.048.817,4.1" fill="#fafafa"/>
        <path id="Trazado_703616" data-name="Trazado 703616" d="M81.32,316.221a9.075,9.075,0,0,1,2.673-1.474,9.083,9.083,0,0,1,2.885-1,9.111,9.111,0,0,1-2.673,1.474,9.136,9.136,0,0,1-2.885,1" fill="#fafafa"/>
        <path id="Trazado_703617" data-name="Trazado 703617" d="M88.567,329.409a28.25,28.25,0,0,1-3.549-6.769,14.2,14.2,0,0,1,2.005,3.264,14.264,14.264,0,0,1,1.544,3.505" fill="#fafafa"/>
        <path id="Trazado_703618" data-name="Trazado 703618" d="M98.387,325.122a29.149,29.149,0,0,1-4.086-6.608,14.724,14.724,0,0,1,2.265,3.167,14.726,14.726,0,0,1,1.821,3.441" fill="#fafafa"/>
        <path id="Trazado_703619" data-name="Trazado 703619" d="M95.358,337.138a16.938,16.938,0,0,1-3.945,1.381,16.9,16.9,0,0,1-4.086.879,16.963,16.963,0,0,1,3.945-1.38,16.93,16.93,0,0,1,4.086-.88" fill="#fafafa"/>
        <path id="Trazado_703620" data-name="Trazado 703620" d="M64.447,310.9a10.116,10.116,0,0,1-3.779-1.947,10.1,10.1,0,0,1-3.02-2.992c.112-.1,1.454,1.219,3.326,2.57s3.538,2.23,3.473,2.369" fill="#fafafa"/>
        <path id="Trazado_703621" data-name="Trazado 703621" d="M42.832,303.256a5.219,5.219,0,0,1-2.952-.227,5.227,5.227,0,0,1-2.623-1.373,23.513,23.513,0,0,1,2.767.873,23.451,23.451,0,0,1,2.808.727" fill="#fafafa"/>
      </g>
    </g>
    <g id="Grupo_999405" data-name="Grupo 999405">
      <g id="Grupo_999404" data-name="Grupo 999404" clip-path="url(#clip-path)">
        <path id="Trazado_703622" data-name="Trazado 703622" d="M460.376,386.3c0,.144-103.067.26-230.177.26-127.154,0-230.2-.116-230.2-.26s103.045-.26,230.2-.26c127.11,0,230.177.116,230.177.26" fill="#263238"/>
      </g>
    </g>
  </g>
</svg>
