<?xml version="1.0" encoding="utf-8"?>
<!-- Generator: Adobe Illustrator 27.5.0, SVG Export Plug-In . SVG Version: 6.00 Build 0)  -->
<svg version="1.1" id="Layer_1" xmlns="http://www.w3.org/2000/svg" xmlns:xlink="http://www.w3.org/1999/xlink" x="0px" y="0px"
	 viewBox="0 0 493.6 421.8" style="enable-background:new 0 0 493.6 421.8;" xml:space="preserve">
<style type="text/css">
	.st0{fill:#D1F5FF;}
	.st1{opacity:0.3;fill:#1691B5;}
	.st2{fill:#5E3930;}
	.st3{fill:#F4C099;}
	.st4{fill:#855044;}
	.st5{fill:#CC8B7C;}
	.st6{fill:#A61539;}
	.st7{fill:#E6454A;}
	.st8{fill:#094559;}
	.st9{fill:#1390BA;}
	.st10{fill:#FFFFFF;}
	.st11{fill:#FBB03B;}
	.st12{opacity:0.3;fill:#227FBC;}
	.st13{fill:#2E3192;}
	.st14{enable-background:new    ;}
	.st15{opacity:0.3;fill:#0098C7;}
	.st16{fill:#182E38;}
	.st17{fill:#4D4D4D;}
	.st18{fill:#B3B3B3;}
	.st19{opacity:0.3;fill:#FFFFFF;}
	.st20{fill:#33485B;}
	.st21{fill:#D4EEFF;}
	.st22{fill:#FFC8B3;}
	.st23{fill:#FFB294;}
	.st24{opacity:0.4;fill:#FFB294;}
	.st25{fill:#0B151A;}
	.st26{fill:#1E3A47;}
	.st27{fill:#1E354A;}
	.st28{opacity:0.5;fill:#162B35;}
	.st29{fill:#FFAE8F;}
	.st30{fill:#1D7899;}
	.st31{fill:#FF2040;}
</style>
<g>
	
		<ellipse transform="matrix(2.835170e-03 -1 1 2.835170e-03 -32.6961 524.8625)" class="st0" cx="246.8" cy="278.8" rx="143" ry="246.8"/>
	<polygon class="st1" points="105.9,198.4 40.6,236.1 83.9,261.1 149.2,223.4 	"/>
	<polygon class="st1" points="431.5,281.2 370.4,316.6 413.7,341.6 474.8,306.2 	"/>
	<g>
		<path class="st2" d="M413.7,338.7l-39.6-22.9l9.6-5.6l30,18.5C415,333.2,415,336.5,413.7,338.7z"/>
		<path class="st3" d="M414.9,337.7L376,315.2l0-10l39.6,22.9C416.9,332.6,416.1,335.5,414.9,337.7z"/>
		<path class="st4" d="M470.4,305.9l-56.7,32.7c1.3-2.8,1.3-6.1,0-10l56.7-32.7C471.6,300.1,471.6,303.4,470.4,305.9z"/>
		<polygon class="st5" points="470.4,296 413.7,328.7 374.1,305.8 430.8,273.1 		"/>
	</g>
	<g>
		<path class="st6" d="M83.3,257.5L45,235.4l9.3-5.4l29,17.9C84.6,252.3,84.6,255.5,83.3,257.5z"/>
		<path class="st3" d="M84.5,256.5l-37.6-21.7l0-9.6l38.3,22.1C86.4,251.7,85.7,254.5,84.5,256.5z"/>
		<path class="st7" d="M143.4,222.8l-60.1,34.7c1.2-2.7,1.2-5.9,0-9.6l60.1-34.7C144.5,217.2,144.5,220.4,143.4,222.8z"/>
		<polygon class="st6" points="143.4,213.2 83.3,247.9 45,225.8 105.1,191.1 		"/>
	</g>
	<g>
		<path class="st8" d="M83,244.7l-38.3-22.1l9.3-5.4l29,17.9C84.3,239.4,84.3,242.7,83,244.7z"/>
		<path class="st3" d="M84.2,243.7L46.6,222l0-9.6l38.3,22.1C86.1,238.9,85.4,241.7,84.2,243.7z"/>
		<path class="st9" d="M143.1,210L83,244.7c1.2-2.7,1.2-5.9,0-9.6l60.1-34.7C144.2,204.4,144.2,207.6,143.1,210z"/>
		<polygon class="st8" points="143.1,200.4 83,235.1 44.7,213 104.8,178.3 		"/>
	</g>
	<g>
		<g>
			<polygon class="st10" points="279.4,181.1 276.1,183.1 276,235.2 349,277.3 352.2,275.4 352.4,223.3 			"/>
			<g>
				<g>
					<polygon class="st11" points="349,259.9 349,277.3 276,235.2 276,217.8 					"/>
				</g>
				<g>
					<polygon class="st7" points="349.1,242.6 349,259.9 276,217.8 276.1,200.4 					"/>
				</g>
				<g>
					<polygon points="349.1,225.2 349.1,242.6 276.1,200.4 276.1,183.1 					"/>
				</g>
			</g>
		</g>
		<polygon class="st12" points="349,277.3 352.2,275.4 352.4,223.3 349.1,225.2 		"/>
	</g>
	<g>
		<g>
			<polygon class="st0" points="328.2,121.5 325,123.4 324.8,175.5 397.8,217.6 401.1,215.7 401.2,163.6 			"/>
			<g>
				<g>
					<polygon class="st13" points="349.3,137.4 349.1,189.5 324.8,175.5 325,123.4 					"/>
				</g>
				<g>
					<polygon class="st10" points="373.6,151.5 373.5,203.6 349.1,189.5 349.3,137.4 					"/>
				</g>
				<g>
					<polygon class="st7" points="398,165.5 397.8,217.6 373.5,203.6 373.6,151.5 					"/>
				</g>
			</g>
		</g>
		<polygon class="st12" points="397.8,217.6 401.1,215.7 401.2,163.6 398,165.5 		"/>
	</g>
	<g>
		<g>
			<polygon class="st0" points="297.8,20.8 294.5,22.7 294.4,74.8 367.4,117 370.6,115.1 370.8,62.9 			"/>
			<g>
				<g>
					<polygon class="st13" points="294.5,28.1 310.5,48.8 294.5,39.6 					"/>
				</g>
				<g class="st14">
					<g>
						<polygon class="st10" points="310.4,67.2 315.9,70.4 294.4,73.4 294.4,69.4 						"/>
					</g>
					<g>
						<polygon class="st10" points="298.4,77.2 322,73.9 322.9,74.4 322.9,76.4 301.9,79.2 						"/>
					</g>
					<g>
						<polygon class="st7" points="323.6,73.7 322.9,73.8 322,73.9 298.4,77.2 294.4,74.9 294.4,73.4 315.9,70.4 317.5,70.2 						
							"/>
					</g>
					<g>
						<polygon class="st10" points="322.9,74.4 326.1,76.3 326.1,93.1 322.8,91.3 322.9,76.4 						"/>
					</g>
					<g>
						<polygon class="st10" points="294.4,58 294.4,54.3 326.1,72.6 326.1,76.3 322.9,74.4 322,73.9 322.9,73.8 323.6,73.7 
							317.5,70.2 315.9,70.4 310.4,67.2 						"/>
					</g>
					<g>
						<polygon class="st10" points="294.5,28.1 294.5,26 313.4,50.5 310.5,48.8 						"/>
					</g>
					<g>
						<polygon class="st10" points="319.5,54 322.9,56 326.2,57.9 326.1,61.6 294.5,43.3 294.5,39.6 310.5,48.8 313.4,50.5 
							314.1,51.4 320.2,54.9 						"/>
					</g>
					<g>
						<polygon class="st7" points="296,23.5 319.5,54 320.2,54.9 314.1,51.4 313.4,50.5 294.5,26 294.5,22.7 						"/>
					</g>
					<g>
						<polygon class="st10" points="335.7,98.7 335.7,81.8 338.9,83.7 338.9,85.6 338.9,100.5 						"/>
					</g>
					<g>
						<polygon class="st7" points="326.1,76.3 326.1,72.6 335.7,78.2 335.7,81.8 335.7,98.7 326.1,93.1 						"/>
					</g>
					<g>
						<polygon class="st10" points="302.1,27.1 322.9,54.1 322.9,56 319.5,54 296,23.5 						"/>
					</g>
					<g>
						<polygon class="st13" points="338.9,100.5 338.9,85.6 359.8,112.6 						"/>
					</g>
					<g>
						<polygon class="st10" points="338.9,83.7 342.4,85.7 365.9,116.2 359.8,112.6 338.9,85.6 						"/>
					</g>
					<g>
						<polygon class="st13" points="323,39.2 322.9,54.1 302.1,27.1 						"/>
					</g>
					<g>
						<polygon class="st7" points="346.9,87.2 348.5,89.2 367.4,113.7 367.4,117 365.9,116.2 342.4,85.7 340.8,83.7 						"/>
					</g>
					<g>
						<polygon class="st10" points="326.2,41 326.2,57.9 322.9,56 322.9,54.1 323,39.2 						"/>
					</g>
					<g>
						<polygon class="st10" points="351.4,90.9 367.4,111.6 367.4,113.7 348.5,89.2 						"/>
					</g>
					<g>
						<polygon class="st7" points="326.2,41 335.8,46.6 335.8,63.4 335.8,67.1 326.1,61.6 326.2,57.9 						"/>
					</g>
					<g>
						<polygon class="st13" points="367.4,111.6 351.4,90.9 367.4,100.1 						"/>
					</g>
					<g>
						<polygon class="st10" points="335.8,46.6 339,48.4 339,63.3 339,65.3 335.8,63.4 						"/>
					</g>
					<g>
						<polygon class="st10" points="335.7,81.8 335.7,78.2 367.4,96.4 367.4,100.1 351.4,90.9 348.5,89.2 346.9,87.2 340.8,83.7 
							342.4,85.7 338.9,83.7 						"/>
					</g>
					<g>
						<polygon class="st7" points="367.5,85.4 367.4,96.4 335.7,78.2 326.1,72.6 294.4,54.3 294.5,43.3 326.1,61.6 335.8,67.1 
													"/>
					</g>
					<g>
						<polygon class="st7" points="367.5,64.9 367.5,65.9 345.3,68.9 344.6,69 338.5,65.5 339,65.4 339.2,65.4 362.9,62.2 						"/>
					</g>
					<g>
						<polygon class="st10" points="351.5,72.5 367.5,81.7 367.5,85.4 335.8,67.1 335.8,63.4 339,65.3 339.2,65.4 339,65.4 
							338.5,65.5 344.6,69 345.3,68.9 						"/>
					</g>
					<g>
						<polygon class="st13" points="339,48.4 359.9,60.5 339,63.3 						"/>
					</g>
					<g>
						<polygon class="st13" points="351.5,72.5 367.5,70.3 367.5,81.7 						"/>
					</g>
					<g>
						<polygon class="st10" points="359.9,60.5 362.9,62.2 339.2,65.4 339,65.3 339,63.3 						"/>
					</g>
					<g>
						<polygon class="st10" points="345.3,68.9 367.5,65.9 367.5,70.3 351.5,72.5 						"/>
					</g>
				</g>
				<g>
					<polygon class="st13" points="294.4,58 310.4,67.2 294.4,69.4 					"/>
				</g>
				<g>
					<polygon class="st13" points="301.9,79.2 322.9,76.4 322.8,91.3 					"/>
				</g>
			</g>
		</g>
		<polygon class="st12" points="367.4,117 370.6,115.1 370.8,62.9 367.5,64.9 		"/>
	</g>
	<g>
		<path class="st15" d="M348.5,373.8l-15.5-8.1c-1.4-0.7-2.2-2.1-2.3-3.6c0-1.5,0.7-2.9,2.1-3.7l10.3-6.2c2.8-1.6,4.4-4.5,4.4-7.7
			c0-3.2-1.7-6.1-4.4-7.7l-65.5-38.5l1.8-1l-9.8-5.7c4.1-4.9,3.4-10.8-2.2-15.4l5.7-3.3l-17.2-9.9l-5.7,3.3
			c-7.9-3.2-18.2-3.6-26.7-1.2l-9.8-5.7l-12.9,7.5l65.6,37.9l7.9-4.6l67.1,39.4c1.8,1,2.8,2.9,2.8,5c0,2.1-1,3.9-2.8,5l-10.3,6.2
			c-2.3,1.4-3.7,3.9-3.6,6.6c0.1,2.7,1.6,5.1,4,6.4l15.5,8.1c1.5,0.8,2.4,2.3,2.5,4c0,1.7-0.8,3.2-2.3,4.1l-35.9,20.8
			c-7.3,4.2-16.3,4.3-23.6,0.1l-20.9-11.8c0.2-0.6,0.3-1.2,0.3-1.7c0-1.1-0.4-1.8-1.1-2c0.1,0,0.2,0,0.2,0.1l-9.2-5.3l58.3-33.7
			c2.9-1.7,4.6-4.2,4.6-7c0-2.8-1.7-5.3-4.6-7l-150.6-87c-2.4-1.4-5.5-2.1-8.7-2.1c-3.2,0-6.3,0.8-8.7,2.1l-70,40.4
			c-2.9,1.7-4.6,4.2-4.6,7c0,2.8,1.7,5.3,4.6,7l28.6,16.5l-12.6,7.3l9.8,5.7c-4.1,4.9-3.4,10.8,2.2,15.4l-5.7,3.3l17.2,9.9l5.7-3.3
			c7.9,3.2,18.2,3.6,26.7,1.2l9.8,5.7l12.6-7.3l56.4,32.6c2.4,1.4,5.5,2.1,8.7,2.1c3.2,0,6.3-0.8,8.7-2.1l3.2-1.8l13.5,7.8
			c0.5,0.3,1.3,0.3,2.1-0.2c0.3-0.2,0.6-0.4,0.9-0.7l21,11.9c4.1,2.3,8.7,3.5,13.3,3.5c4.7,0,9.4-1.2,13.5-3.6l35.9-20.8
			c2.5-1.5,4-4.1,3.9-7C352.6,377.7,351.1,375.1,348.5,373.8z"/>
		<path class="st16" d="M300.8,409.1c-4.6,0-9.2-1.2-13.3-3.5l-30.3-17.1l1.6-2.8l30.3,17.1c7.3,4.1,16.4,4.1,23.6-0.1l35.9-20.8
			c1.5-0.9,2.3-2.4,2.3-4.1c0-1.7-1-3.2-2.5-4l-15.5-8.1c-2.4-1.3-3.9-3.6-4-6.4c-0.1-2.7,1.3-5.2,3.6-6.6l10.3-6.2
			c1.8-1.1,2.8-2.9,2.8-5c0-2.1-1.1-3.9-2.8-5l-79.2-46.6c-16.7-9.8-27-27.9-27-47.3V103.3h3.2v139.5c0,18.2,9.8,35.3,25.5,44.5
			l79.2,46.6c2.8,1.6,4.4,4.5,4.4,7.7c0,3.2-1.6,6.1-4.4,7.7l-10.3,6.2c-1.3,0.8-2.1,2.2-2.1,3.7c0,1.5,0.9,2.9,2.3,3.6l15.5,8.1
			c2.6,1.3,4.2,3.9,4.2,6.8c0.1,2.9-1.4,5.5-3.9,7l-35.9,20.8C310.2,407.9,305.5,409.1,300.8,409.1z"/>
		<g>
			<path d="M304.1,333.4l-141.2-81.5c-3.9-2.2-10.2-2.2-14,0l-66.6,38.5l-6.3-1.2v7.2c0,1.5,1,2.9,2.9,4.1l150.6,87
				c3.9,2.2,10.2,2.2,14,0l70-40.4c1.9-1.1,2.9-2.5,2.9-4c0,0,0-7.2,0-7.2L304.1,333.4z"/>
			<path class="st17" d="M78.9,285.3l70-40.4c3.9-2.2,10.2-2.2,14,0l150.6,87c3.9,2.2,3.9,5.9,0,8.1l-70,40.4
				c-3.9,2.2-10.2,2.2-14,0l-150.6-87C75,291.2,75,287.6,78.9,285.3z"/>
			<path class="st10" d="M301.8,328.4l-141-81.4c-2.2-1.3-5.8-1.3-8.1,0l-70,40.4c-1.3,0.7-1.9,1.8-1.6,2.8c0.1,0.7,0.7,1.4,1.6,1.9
				l141,81.4c2.2,1.3,5.8,1.3,8.1,0l70-40.4c0.7-0.4,1.2-0.9,1.4-1.4C303.8,330.5,303.3,329.2,301.8,328.4z"/>
			<path class="st9" d="M301.6,329.7l-141-81.4c-2.2-1.3-5.8-1.3-8.1,0l-70,40.4c-0.7,0.4-1.2,0.9-1.4,1.4c0.1,0.7,0.7,1.4,1.6,1.9
				l141,81.4c2.2,1.3,5.8,1.3,8.1,0l70-40.4c0.7-0.4,1.2-0.9,1.4-1.4C303.1,330.9,302.5,330.2,301.6,329.7z"/>
			<path class="st18" d="M262.7,359.3l17-9.8c1.8-1,4.7-1,6.5,0c1.8,1,1.8,2.7,0,3.7l-17,9.8c-1.8,1-4.7,1-6.5,0
				C260.9,362,260.9,360.3,262.7,359.3z"/>
			<g>
				<polygon class="st19" points="276.5,345.8 255.1,358.2 193.1,353.9 167.8,339.4 				"/>
				<polygon class="st19" points="132.4,318.9 117.9,310.5 279.1,318.5 293.3,326.7 				"/>
				<path class="st19" d="M112.1,307.2l-28.5-16.5c-0.2-0.1-0.4-0.3-0.5-0.4c0.1-0.1,0.2-0.2,0.4-0.3l18.4-10.6l125.1,8.9l47.6,27.5
					L112.1,307.2z"/>
			</g>
			<path class="st15" d="M233.5,300.6c-4.4-2.5-10.2-3.8-16-3.8l13.7-7.9L205.6,274l-76.4,44.1l25.6,14.9l6.4-3.7
				c-0.1,3.3,2.1,6.7,6.5,9.2c8.7,5,22.8,5,31.6,0l34.3-19.8C242.2,313.8,242.2,305.6,233.5,300.6z"/>
		</g>
		<g>
			<g class="st14">
				<g>
					<path class="st20" d="M267.6,387.3l-17.1-9.8c-0.5-0.3-1.3-0.3-2.1,0.2c-1.7,0.9-3,3.3-3,5.2c0,1,0.3,1.6,0.9,2l17.1,9.8
						c-0.5-0.3-0.9-1-0.9-2c0-1.9,1.3-4.2,3-5.2C266.3,387,267.1,387,267.6,387.3z"/>
				</g>
				<g>
					<path d="M268.5,389.2c0-1.9-1.3-2.7-3-1.8c-1.7,0.9-3,3.3-3,5.2c0,1.9,1.3,2.7,3,1.7C267.2,393.5,268.5,391.2,268.5,389.2z"/>
				</g>
			</g>
		</g>
		<path class="st21" d="M263,163.9c1.8-0.1,2.3-3.4,2-8.4l-6.6,0.9C257.1,160.2,259.6,162.2,263,163.9z"/>
		<g>
			<g>
				<path class="st22" d="M277.5,157.3l-2.6,4.5l-1.8,3.2c-2.6,0.3-5.2,0.3-7.8-0.8l-3.9,0.3c-0.1,0-0.7,0.1-0.7,0.1l-5.1,0.1
					l1.2-7.1l6.2-2.6c0,0,0.6-2.5,1.6-4.1c0.9-1.5,1.8-2.7,1.8-5.6c0-3.3-0.3-4.5,0.5-4.5c4,0,2.3,9.8,2.3,9.8
					c3-0.2,7.2-0.7,7.6,0.9L277.5,157.3z"/>
				<path class="st22" d="M275.4,152.3l-0.5,9.5l-1.8,3.2c-2.6,0.3-5.2,0.3-7.8-0.8l-3.9,0.3c0,0,0.1-0.1,0.2-0.1
					c2.9-1.4,4.8-4.3,4.8-7.5C266.5,150.3,272.8,153.1,275.4,152.3z"/>
				<path class="st22" d="M276.9,151.4c-1.4,1-3.6,1.8-6.2,1.9c-3.6,0-3.1,2.9-1.8,3.2c-1.2,0.4-2.1,0.7-2,2
					c0.2,1.2,1.3,1.6,2.6,1.5c-1.4,0.4-1.3,3.1,1.9,2.8c0,0-1.7,0.7-0.5,2c0.5,0.5,2,0.6,4-0.2l1.2-0.4
					C279.2,161.1,276.9,151.4,276.9,151.4z"/>
			</g>
			<g>
				<path class="st23" d="M277.5,157.3l-2.6,4.5l-1.8,3.2c-2.6,0.3-5.2,0.3-7.8-0.8l-3.9,0.3c-0.1,0-0.7,0.1-0.7,0.1l-5.1,0.1
					l1.2-7.1l6.2-2.6c0,0,0.6-2.5,1.6-4.1c0.9-1.5,1.8-2.7,1.8-5.6c0-3.3-0.3-4.5,0.5-4.5c4,0,2.3,9.8,2.3,9.8
					c3-0.2,7.2-0.7,7.6,0.9L277.5,157.3z"/>
				<path class="st24" d="M275.4,152.3l-0.5,9.5l-1.8,3.2c-2.6,0.3-5.2,0.3-7.8-0.8l-3.9,0.3c0,0,0.1-0.1,0.2-0.1
					c2.9-1.4,4.8-4.3,4.8-7.5C266.5,150.3,272.8,153.1,275.4,152.3z"/>
				<path class="st23" d="M276.9,151.4c-1.4,1-3.6,1.8-6.2,1.9c-3.6,0-3.1,2.9-1.8,3.2c-1.2,0.4-2.1,0.7-2,2
					c0.2,1.2,1.3,1.6,2.6,1.5c-1.4,0.4-1.3,3.1,1.9,2.8c0,0-1.7,0.7-0.5,2c0.5,0.5,2,0.6,4-0.2l1.2-0.4
					C279.2,161.1,276.9,151.4,276.9,151.4z"/>
			</g>
		</g>
		<path class="st10" d="M263,155l-30.5-3.7c-2.5-8.9-3.6-16.7-9.5-30.7L208.2,139c4.5,9.5,9.3,21.5,16.8,27.2
			c4.6,2.8,35.6-0.6,38.8-2C262.6,163.6,259.7,158.8,263,155z"/>
		<path d="M168.7,314.9c-1.3,4.3-1.6,5.5-1,8.6c0.6,1.7,1.3,2.4,2,4.7c0.8,2.8,0.7,7.6,4.9,10.4c5,4,14.8,4.2,17.9-0.1
			c0-2.1-1.4-6.7-3.9-10.4l-5-9.2l0.3-8.6l-14.2-3.1L168.7,314.9z"/>
		<path d="M195.8,294.1c-1.3,1.8-1.2,5.9-0.9,10.6c1.3,4.7,5.8,4.3,9.6,4.8c7.4,1,11.2,6.5,21,6.3c5.8-0.1,9.7-1.4,10.9-5.1
			c0.2-1.7-0.9-3.4-3-5.1c-13.5-5.8-13.5-5.8-13.8-6c-0.3-0.2-6.4-4.5-6.5-5c-0.1-0.5-2.5-10.7-2.5-10.7l-14.4,0.3L195.8,294.1z"/>
		<path class="st25" d="M190.8,184.6l10.4,56.8c-1.6,17.3-7.5,34.4-5.9,51.1c1.3,6.9,15.6,5.9,18.3,0.8c-0.9-13,6.7-32.3,9.6-53.6
			c0.6-21.1,0.4-42.8-3.9-59.5L190.8,184.6z"/>
		<path class="st26" d="M221.4,191.6c-0.5,2.2-1.1,4-1.8,5.7c-0.1,0.2-0.1,0.3-0.2,0.5c-2.2,5.6-5.1,8.6-9.3,10.8
			c-1,0.5-2.1,1.1-3.3,1.6c-6.9,2.9-14.7,3.3-22,2.7c-0.1,0-0.2,0-0.3,0c-1-0.1-2-0.2-3-0.3c-2.4-0.3-4.6-0.6-6.7-1
			c-0.2-0.8-0.4-1.6-0.6-2.4c-1.5-7-0.7-11.6,0.3-18c0.1-0.7,0.2-1.4,0.3-2.2l-0.1-0.5c15.4,5.5,36.4,1.1,46.1-12.7
			C220.8,183,221,189,221.4,191.6z"/>
		<path class="st27" d="M219.5,197.8c-3.9,16.6-14.7,17.2-14.9,21.3c-0.4,12.5-2.7,28.3-4.8,42.5c-6.6,20.5-12.7,40.1-14.1,53
			c-2.4,3.1-9.8,4.2-14.3,2.4c-0.7-0.3-1.2-0.6-1.7-0.9c-1.2-0.9-1.9-2.1-1.9-3.7c0.1-16.5,3.1-33.1,7.8-49.8l-1.2-53.4
			c0,0-0.2-7.5-0.2-7.5l15.4-3l29-5.6C218.7,195.2,220.1,195,219.5,197.8z"/>
		<path class="st28" d="M190.8,196c-0.4,0.9-1.1,1.7-1.3,2.6c-0.8,4.6,3.3,14.4-1.1,19c-10.2,10.7-6.8,26.4-5.1,44.4
			c-10.2,14.3-13.4,32.9-12,54.9c-0.7-0.3-1.2-0.6-1.7-0.9c-1.2-0.9-1.9-2.1-1.9-3.7c0.1-16.5,3.1-33.1,7.8-49.8l-1.2-53.4
			c-1.5-7-0.7-11.6,0.3-18L190.8,196z"/>
		<path class="st10" d="M221.7,133.7c0,0-0.9,24.6-0.9,42.1c-0.8,14.2-16.7,21.1-30,20.2c-6.8-0.5-12.9-2.9-16-7.5l-2.6-11.1
			l-2.5-10.9l-0.3-2.8l-0.2-2l-0.1-1l-2.8-26.1c1.2-1.4,2.4-2.7,3.7-4c1.3-1.4,2.7-2.8,4.1-4.1c5.2-5,11-9.6,17.2-13.7h21.4
			C217.6,117.3,220.3,124.7,221.7,133.7z"/>
		<path class="st10" d="M209.8,111.3l9.8,30.7c0,0,7.2-11.5,3.4-21.4C220,112.7,209.8,111.3,209.8,111.3z"/>
		<path class="st12" d="M190.8,196c-6.8-0.5-13-2.9-16.1-7.5l-2.6-11.1l-2.5-10.9l-0.3-2.8l0.9-5.1l11.7-6.3
			C180.7,170.6,182.7,186,190.8,196z"/>
		<path class="st29" d="M185.1,200.6l-13.5-20.3c-5.3,2-8.8,5.8-10.5,11.2c6.6,5.7,12.7,10.5,18.9,16.1
			C184.4,204.9,185.5,202.4,185.1,200.6z"/>
		<path class="st25" d="M185.2,197.4c-0.2,1.3-6.1,11.4-8.5,13.3l2.7,3.4c0,0,8.4-11.9,9.1-14.3L185.2,197.4z"/>
		<path class="st0" d="M191.5,111.6l-8.6,6.9c-4.3,13.2,6.5,18.6,13.5,25.9l4.6-12.7l9.7,3.1l-3.8-18.7L191.5,111.6z"/>
		<path class="st10" d="M184.3,199.3l-18.1-27.1l15.8-19.9l-15.8-17.8c0,0-18.2,30.8-18.2,37.6c0,6.3,4.5,14.9,31.6,34.9
			C182.2,204.4,182.6,202.5,184.3,199.3z"/>
		<g>
			<g class="st14">
				<g>
					<path class="st16" d="M246.6,58.4l5-2.9c1.6-0.9,3.9-0.8,6.3,0.6c5,2.8,9,9.8,9,15.5c0,2.9-1,4.9-2.7,5.9l-5,2.9
						c1.6-0.9,2.7-3,2.7-5.9c0-5.7-4-12.7-9-15.5C250.4,57.6,248.2,57.5,246.6,58.4z"/>
				</g>
				<g>
					<path class="st9" d="M243.9,64.3c0-5.7,4-8.1,9-5.2c5,2.8,9,9.8,9,15.5c0,5.7-4,8.1-9,5.2C247.9,77,243.9,70,243.9,64.3z"/>
				</g>
			</g>
		</g>
		<path class="st21" d="M234.1,112.7c-11.6-3.1-21.7,0.3-21.7-31.7V67.1c0-13.9-2.2-23.1,11.7-23.1l9.8-3.8
			c13.9,0,29.4,13.6,31.3,33.1C269,111,251.2,112.7,234.1,112.7z"/>
		<path class="st20" d="M148.7,90.7c-7.2-4.1-13.7-4.5-18.4-1.8l-9.9,5.8c-4.6,2.7-7.5,8.4-7.5,16.6l0,16.4
			c0,16.4,11.5,36.4,25.8,44.6c7.6,4.4,14.5,4.5,19.2,1.2c-0.3,0.2-0.6,0.4-0.9,0.6l9.9-5.8c4.6-2.7,7.5-8.4,7.5-16.6l0-16.4
			C174.5,119,163,99,148.7,90.7z"/>
		<path class="st9" d="M138.8,96.5c14.3,8.2,25.8,28.2,25.8,44.6l0,16.4c0,16.4-11.6,23-25.9,14.8c-14.3-8.2-25.8-28.2-25.8-44.6
			l0-16.4C112.9,94.9,124.5,88.3,138.8,96.5z"/>
		<path class="st21" d="M126.2,107.4c0.2-0.1,0.4-0.2,0.7-0.4c3.1-1.5,7.3-1.1,11.9,1.6c9.7,5.6,17.6,19.2,17.5,30.4l0,11.2
			c0,5.2-1.7,9-4.5,10.9c-0.8,0.5-1.7,0.9-2.5,1.2c-11.4,4.5-25.7-1.6-33.3-14.7C108.7,135.1,111.6,117,126.2,107.4z"/>
		<path class="st21" d="M126.2,107.4c0.2-0.1,0.4-0.2,0.7-0.4c3.1-1.5,7.3-1.1,11.9,1.6c9.7,5.6,17.6,19.2,17.5,30.4l0,11.2
			c0,5.2-1.7,9-4.5,10.9c-0.8,0.5-1.6,0.9-2.5,1.2c-3,0.9-6.7,0.2-10.6-2c-9.7-5.6-17.6-19.2-17.5-30.4l0-11.2
			C121.1,113.1,123,109.2,126.2,107.4z"/>
		<g>
			<g class="st14">
				<g>
					<path class="st16" d="M112.7,134.7l5-2.9c1.6-0.9,3.9-0.8,6.3,0.6c5,2.8,9,9.8,9,15.5c0,2.9-1,4.9-2.7,5.9l-5,2.9
						c1.6-0.9,2.7-3,2.7-5.9c0-5.7-4-12.7-9-15.5C116.6,133.9,114.3,133.8,112.7,134.7z"/>
				</g>
				<g>
					<path class="st9" d="M110.1,140.6c0-5.7,4-8.1,9-5.2c5,2.8,9,9.8,9,15.5c0,5.7-4,8.1-9,5.2
						C114.1,153.3,110.1,146.3,110.1,140.6z"/>
				</g>
			</g>
		</g>
		<g>
			<g class="st14">
				<g>
					<path d="M212,10.2l21.1,12.3c9,5.2,14.6,16.4,14.7,32.2l-21.1-12.3C226.7,26.6,221.1,15.5,212,10.2z"/>
				</g>
				<g>
					<path class="st20" d="M215.8,3.8L236.9,16c-10.1-5.9-24.1-5.1-39.5,3.8L176.3,7.6C191.7-1.3,205.7-2.1,215.8,3.8z"/>
				</g>
				<g>
					<path class="st20" d="M142.1,120c-5.4-9.4-14.5-12.9-19.3-10.1c-0.1-35.2,22.9-84.6,53.5-102.3l21.1,12.3
						C166.8,37.5,142,84.9,142.1,120z"/>
				</g>
				<g>
					<path class="st16" d="M197.4,19.8C228,2.2,253,16.4,253.1,51.6l-5.3,3.1C247.7,22.8,225.1,10,197.4,26
						c-27.7,16-50.1,58.5-50,90.3l-5.3,3.7C142,84.9,166.8,37.5,197.4,19.8z"/>
				</g>
			</g>
		</g>
		<path class="st20" d="M237.1,39.7c-7.2-4.1-13.7-4.5-18.4-1.8l-9.9,5.8c-4.6,2.7-7.5,8.4-7.5,16.6l0,16.4
			c0,16.4,11.5,36.4,25.8,44.6c7.6,4.4,14.5,4.5,19.2,1.2c-0.3,0.2-0.6,0.4-0.9,0.6l9.9-5.8c4.6-2.7,7.5-8.4,7.5-16.6l0-16.4
			C262.9,67.9,251.3,48,237.1,39.7z"/>
		<g>
			<path class="st9" d="M227.1,45.5c14.3,8.2,25.8,28.2,25.8,44.6l0,16.4c0,16.4-11.6,23-25.9,14.8c-14.3-8.2-25.8-28.2-25.8-44.6
				l0-16.4C201.2,43.9,212.9,37.2,227.1,45.5z"/>
			<path class="st30" d="M238.5,124.9c-3.6,0-7.5-1.2-11.6-3.6c-14.3-8.2-25.8-28.3-25.8-44.7l0-16.4c0-7.9,2.7-13.8,7.6-16.7
				c4.9-2.8,11.5-2.2,18.4,1.8c14.3,8.2,25.8,28.3,25.8,44.7l0,16.4c0,7.9-2.7,13.9-7.6,16.7C243.3,124.3,241,124.9,238.5,124.9z
				 M215.5,42c-2.5,0-4.7,0.6-6.7,1.7c-4.9,2.8-7.5,8.7-7.6,16.6l0,16.4c0,16.4,11.5,36.4,25.7,44.6c6.9,4,13.4,4.6,18.3,1.8
				c4.9-2.8,7.5-8.7,7.6-16.6l0-16.4c0-16.4-11.5-36.4-25.7-44.6C223,43.2,219.1,42,215.5,42z"/>
		</g>
		<path d="M238.5,115.4c-1.9,0-4.3-0.8-6.9-2.3c-11.3-6.5-21.1-23.5-21.1-36.5l0-16.4c0-3.3,0.7-9,5-9c1.9,0,4.4,0.8,6.9,2.3
			c11.5,6.6,21.1,23.3,21.1,36.5l0,16.4C243.4,109.8,242.8,115.4,238.5,115.4z"/>
		<path class="st31" d="M198.9,130.8l-0.5,6l3.8,5.6c1.3,8.6,3.8,26.2,3.7,32.9l4.9,7.4l2-11.2c-2-10.5-5.7-24.6-7.8-31.5l-0.2-7.3
			l-4.1-2.6L198.9,130.8z"/>
		<g>
			<path class="st29" d="M201.1,131.7c-8.8,2.6-15.8-8.6-14.8-14.5c0.8-6.1,1.3-9.3,1.3-9.3l16.9,4.2c0,0,0.2,1.6,0.3,3.8
				C205.2,124.4,203.2,131.1,201.1,131.7z"/>
			<path class="st22" d="M204.2,137.5c-7.9,1-14.1-23.2-14.1-23.2l17,1.8C207.4,125.8,209.3,136.8,204.2,137.5z"/>
			<path class="st29" d="M188.9,110.8c0,0,1.8,7.3,5.1,10.5c3.3,3.2,8.5,4.7,10.5,4.9c2,0.1,3.6-0.1,4.9-1.6
				c1.3-1.5,2.1-15.5,2.1-15.5c0-5.4-0.1-7-0.8-10c-0.9-4.4-4.1-14.2-17-12.4c-6.2,0.9-10.1,5.4-10.9,10.8
				c-0.6,4.3,2.8,12.1,2.8,12.1L188.9,110.8z"/>
			<path d="M185.5,110.5l6.1,3.3l0.5-3.7c0-1.7,1.1-2.3,2.8-2.2c2.9,0.2,11.5-1.4,13.7-10.9c1.8,0.7,2.1,2.7,2.3,3.1
				c4.3-8.6-7.5-13.9-15.3-13.6c-9.6,0.3-13.4,6.7-13.5,12.4C182.1,104,185.5,110.5,185.5,110.5z"/>
		</g>
		<path class="st29" d="M186.9,105.5c-0.8-0.4-2-0.4-2.6,0.4c-0.3,0.4-0.4,1-0.3,1.5c0.1,0.5,0.3,1,0.5,1.5c0.4,0.8,0.9,1.6,1.3,2.4
			c0.4,0.6,0.9,1.3,1.6,1.5c0.7,0.2,1.6,0.7,2,0c0.4-0.7,0.4-2.4,0.2-3.2C189.4,108.1,188.4,106.3,186.9,105.5z"/>
	</g>
</g>
</svg>
