<svg xmlns="http://www.w3.org/2000/svg" xmlns:xlink="http://www.w3.org/1999/xlink" width="464" height="367" viewBox="0 0 464 367">
  <defs>
    <clipPath id="clip-path">
      <rect id="Rectángulo_345146" data-name="Rectángulo 345146" width="407.531" height="291.313" fill="none"/>
    </clipPath>
    <clipPath id="clip-path-4">
      <rect id="Rectángulo_345114" data-name="Rectángulo 345114" width="97.445" height="126.836" fill="none"/>
    </clipPath>
    <clipPath id="clip-path-5">
      <rect id="Rectángulo_345115" data-name="Rectángulo 345115" width="21.256" height="22.669" fill="none"/>
    </clipPath>
    <clipPath id="clip-path-6">
      <rect id="Rectángulo_345116" data-name="Rectángulo 345116" width="52.478" height="40.48" fill="none"/>
    </clipPath>
    <clipPath id="clip-path-7">
      <rect id="Rectángulo_345117" data-name="Rectángulo 345117" width="27.061" height="17.219" fill="none"/>
    </clipPath>
    <clipPath id="clip-path-8">
      <rect id="Rectángulo_345118" data-name="Rectángulo 345118" width="67.627" height="84.637" fill="none"/>
    </clipPath>
    <clipPath id="clip-path-9">
      <rect id="Rectángulo_345119" data-name="Rectángulo 345119" width="9.808" height="43.42" fill="none"/>
    </clipPath>
    <clipPath id="clip-path-10">
      <rect id="Rectángulo_345120" data-name="Rectángulo 345120" width="19.639" height="68.831" fill="none"/>
    </clipPath>
    <clipPath id="clip-path-11">
      <rect id="Rectángulo_345121" data-name="Rectángulo 345121" width="16.935" height="67.086" fill="none"/>
    </clipPath>
    <clipPath id="clip-path-12">
      <rect id="Rectángulo_345122" data-name="Rectángulo 345122" width="81.588" height="79.216" fill="none"/>
    </clipPath>
    <clipPath id="clip-path-16">
      <rect id="Rectángulo_345126" data-name="Rectángulo 345126" width="11.554" height="12.969" fill="none"/>
    </clipPath>
    <clipPath id="clip-path-17">
      <rect id="Rectángulo_345129" data-name="Rectángulo 345129" width="8.304" height="9.332" fill="none"/>
    </clipPath>
    <clipPath id="clip-path-18">
      <rect id="Rectángulo_345130" data-name="Rectángulo 345130" width="49.421" height="11.134" fill="none"/>
    </clipPath>
    <clipPath id="clip-path-19">
      <rect id="Rectángulo_345131" data-name="Rectángulo 345131" width="51.238" height="13.134" fill="none"/>
    </clipPath>
    <clipPath id="clip-path-20">
      <rect id="Rectángulo_345132" data-name="Rectángulo 345132" width="10.7" height="12.011" fill="none"/>
    </clipPath>
    <clipPath id="clip-path-21">
      <rect id="Rectángulo_345135" data-name="Rectángulo 345135" width="7.69" height="8.642" fill="none"/>
    </clipPath>
    <clipPath id="clip-path-22">
      <rect id="Rectángulo_345136" data-name="Rectángulo 345136" width="45.77" height="10.312" fill="none"/>
    </clipPath>
    <clipPath id="clip-path-23">
      <rect id="Rectángulo_345137" data-name="Rectángulo 345137" width="12.734" height="14.294" fill="none"/>
    </clipPath>
    <clipPath id="clip-path-24">
      <rect id="Rectángulo_345140" data-name="Rectángulo 345140" width="9.152" height="10.285" fill="none"/>
    </clipPath>
    <clipPath id="clip-path-25">
      <rect id="Rectángulo_345141" data-name="Rectángulo 345141" width="54.468" height="12.271" fill="none"/>
    </clipPath>
    <clipPath id="clip-path-26">
      <rect id="Rectángulo_345142" data-name="Rectángulo 345142" width="56.471" height="14.475" fill="none"/>
    </clipPath>
    <clipPath id="clip-path-28">
      <rect id="Rectángulo_345144" data-name="Rectángulo 345144" width="41.017" height="41.017" fill="none"/>
    </clipPath>
  </defs>
  <g id="Grupo_1000162" data-name="Grupo 1000162" transform="translate(-1296 12682)">
    <g id="Grupo_1000156" data-name="Grupo 1000156" transform="translate(1324 -12644)">
      <g id="Grupo_999329" data-name="Grupo 999329" clip-path="url(#clip-path)">
        <g id="Grupo_999255" data-name="Grupo 999255">
          <g id="Grupo_999254" data-name="Grupo 999254" clip-path="url(#clip-path)">
            <path id="Trazado_702993" data-name="Trazado 702993" d="M201.634,230.538H44.246a4.658,4.658,0,0,1-4.652-4.652V4.652A4.658,4.658,0,0,1,44.246,0H201.634a4.658,4.658,0,0,1,4.652,4.652V225.886a4.657,4.657,0,0,1-4.652,4.652M44.246.2A4.453,4.453,0,0,0,39.8,4.652V225.886a4.453,4.453,0,0,0,4.449,4.449H201.634a4.454,4.454,0,0,0,4.448-4.449V4.652A4.454,4.454,0,0,0,201.634.2Z" transform="translate(-7.322)" fill="#ebebeb"/>
            <path id="Trazado_702994" data-name="Trazado 702994" d="M417.931,230.538H260.544a4.657,4.657,0,0,1-4.652-4.652V4.652A4.658,4.658,0,0,1,260.544,0H417.931a4.658,4.658,0,0,1,4.652,4.652V225.886a4.658,4.658,0,0,1-4.652,4.652M260.544.2A4.453,4.453,0,0,0,256.1,4.652V225.886a4.453,4.453,0,0,0,4.448,4.449H417.931a4.454,4.454,0,0,0,4.449-4.449V4.652A4.454,4.454,0,0,0,417.931.2Z" transform="translate(-47.324)" fill="#ebebeb"/>
            <rect id="Rectángulo_345101" data-name="Rectángulo 345101" width="26.997" height="0.204" transform="translate(339.701 280.008)" fill="#ebebeb"/>
            <rect id="Rectángulo_345102" data-name="Rectángulo 345102" width="7.085" height="0.204" transform="translate(262.88 282.219)" fill="#ebebeb"/>
            <rect id="Rectángulo_345103" data-name="Rectángulo 345103" width="15.643" height="0.204" transform="translate(323.242 272.439)" fill="#ebebeb"/>
            <rect id="Rectángulo_345104" data-name="Rectángulo 345104" width="35.205" height="0.204" transform="translate(42.757 273.809)" fill="#ebebeb"/>
            <rect id="Rectángulo_345105" data-name="Rectángulo 345105" width="5.162" height="0.204" transform="translate(85.22 273.809)" fill="#ebebeb"/>
            <rect id="Rectángulo_345106" data-name="Rectángulo 345106" width="76.352" height="0.204" transform="translate(107.157 277.25)" fill="#ebebeb"/>
            <rect id="Rectángulo_345107" data-name="Rectángulo 345107" width="407.531" height="0.204" transform="translate(0 266.888)" fill="#ebebeb"/>
            <path id="Trazado_702995" data-name="Trazado 702995" d="M435.78,327.3h1.891v-.016c-.619.008-1.247.008-1.891.016" transform="translate(-80.592 -60.528)" fill="#f5f5f5"/>
            <path id="Trazado_702996" data-name="Trazado 702996" d="M423.69,327.331l9.854-.024c-3.26.041-6.7.13-9.854.147Z" transform="translate(-78.356 -60.531)" fill="#f5f5f5"/>
            <path id="Trazado_702997" data-name="Trazado 702997" d="M371.406,266.1H56.829A2.426,2.426,0,0,1,54.4,263.67v-4.086a2.426,2.426,0,0,1,2.426-2.426H371.406a2.426,2.426,0,0,1,2.426,2.426v4.086a2.426,2.426,0,0,1-2.426,2.426" transform="translate(-10.061 -47.558)" fill="#e0e0e0"/>
            <rect id="Rectángulo_345108" data-name="Rectángulo 345108" width="1.97" height="188.076" transform="translate(352.559 21.449)" fill="#e0e0e0"/>
            <rect id="Rectángulo_345109" data-name="Rectángulo 345109" width="1.624" height="169.236" transform="translate(61.562 29.694)" fill="#e0e0e0"/>
            <rect id="Rectángulo_345110" data-name="Rectángulo 345110" width="298.948" height="188.076" transform="translate(53.583 21.524)" fill="#fafafa"/>
            <rect id="Rectángulo_345111" data-name="Rectángulo 345111" width="282.209" height="169.236" transform="translate(62.952 31.487)" fill="#e0e0e0"/>
            <path id="Trazado_702998" data-name="Trazado 702998" d="M244.467,157.53c-4.216,0-8.343-2.576-12.395-6.615h12.395a.557.557,0,1,0,0-1.113H230.991c-.136-.144-.272-.287-.408-.434V148.36a.554.554,0,0,0-1.075-.192c-4.808-5.515-9.514-12.792-14.142-19.95-9.478-14.661-19.278-29.822-30.035-29.822-.136,0-.271.013-.408.018V74.466l3.507,5.4a.557.557,0,1,0,.933-.607l-4.529-6.97a.578.578,0,0,0-.934,0l-4.53,6.97a.557.557,0,1,0,.933.607l3.506-5.4V98.506c-10.162,1.334-19.485,15.744-28.514,29.711-5.1,7.892-10.3,15.926-15.626,21.584h-9.964V148.36a.557.557,0,1,0-1.113,0V149.8h-4.325a.557.557,0,1,0,0,1.113h4.325v2.291a.557.557,0,0,0,1.113,0v-2.291h8.884c-4.052,4.039-8.179,6.615-12.395,6.615a.557.557,0,1,0,0,1.113c4.819,0,9.447-3.049,13.94-7.728H141.2v2.291a.557.557,0,0,0,1.113,0v-2.291h11.5v2.291a.557.557,0,0,0,1.113,0v-2.291h11.5v2.291a.557.557,0,0,0,1.113,0v-2.291h11.5v2.291a.557.557,0,0,0,1.113,0v-2.291h3.666v13.476a.557.557,0,1,0,1.113,0V150.915h6.718v2.291a.557.557,0,0,0,1.113,0v-2.291h11.5v2.291a.557.557,0,0,0,1.113,0v-2.291h11.5v2.291a.557.557,0,0,0,1.113,0v-2.291h11.5v2.291a.557.557,0,0,0,1.113,0v-2.231c4.475,4.645,9.084,7.668,13.883,7.668a.557.557,0,1,0,0-1.113M141.176,149.8l.028-.03v.03Zm38.969,0V148.36a.557.557,0,1,0-1.113,0V149.8h-11.5V148.36a.557.557,0,0,0-1.113,0V149.8h-11.5V148.36a.557.557,0,1,0-1.113,0V149.8h-11.5v-1.29c4.758-5.532,9.373-12.666,13.915-19.69,8.849-13.689,17.986-27.812,27.579-29.193V149.8Zm37.829,0V148.36a.557.557,0,1,0-1.113,0V149.8h-11.5V148.36a.548.548,0,0,0-.247-.451.532.532,0,0,0,.3-.144l9.991-9.991a.556.556,0,1,0-.787-.787l-9.992,9.991a.558.558,0,0,0,0,.787.356.356,0,1,1-.379.6V149.8h-11.5V148.36a.557.557,0,0,0-1.113,0V149.8h-6.718V99.527c.136-.006.271-.019.408-.019,10.151,0,19.784,14.9,29.1,29.313,4.9,7.576,9.881,15.28,15.039,20.962v.019Z" transform="translate(-22.879 -13.324)" fill="#fff"/>
            <path id="Trazado_702999" data-name="Trazado 702999" d="M173.677,105.486h4.005a.557.557,0,1,0,0-1.113h-4.005a.557.557,0,1,0,0,1.113" transform="translate(-32.016 -19.302)" fill="#fff"/>
            <path id="Trazado_703000" data-name="Trazado 703000" d="M184.232,105.486h4.006a.557.557,0,1,0,0-1.113h-4.006a.557.557,0,0,0,0,1.113" transform="translate(-33.968 -19.302)" fill="#fff"/>
            <path id="Trazado_703001" data-name="Trazado 703001" d="M162.85,105.486h4.493a.557.557,0,1,0,0-1.113H162.85a.557.557,0,0,0,0,1.113" transform="translate(-30.014 -19.302)" fill="#fff"/>
            <path id="Trazado_703002" data-name="Trazado 703002" d="M150.4,105.486h5.286a.557.557,0,0,0,0-1.113H150.4a.557.557,0,0,0,0,1.113" transform="translate(-27.711 -19.302)" fill="#fff"/>
            <path id="Trazado_703003" data-name="Trazado 703003" d="M140.739,105.486h3.4a.557.557,0,1,0,0-1.113h-3.4a.557.557,0,0,0,0,1.113" transform="translate(-25.925 -19.302)" fill="#fff"/>
            <path id="Trazado_703004" data-name="Trazado 703004" d="M140.739,114.685a.556.556,0,0,0,.557-.557v-4.458a.557.557,0,1,0-1.113,0v4.458a.556.556,0,0,0,.557.557" transform="translate(-25.925 -20.179)" fill="#fff"/>
            <path id="Trazado_703005" data-name="Trazado 703005" d="M140.739,130.288a.556.556,0,0,0,.557-.557v-6.8a.557.557,0,1,0-1.113,0v6.8a.556.556,0,0,0,.557.557" transform="translate(-25.925 -22.632)" fill="#fff"/>
            <path id="Trazado_703006" data-name="Trazado 703006" d="M140.739,146.937a.556.556,0,0,0,.557-.557V139.91a.557.557,0,1,0-1.113,0v6.471a.556.556,0,0,0,.557.557" transform="translate(-25.925 -25.772)" fill="#fff"/>
            <path id="Trazado_703007" data-name="Trazado 703007" d="M140.739,161.7a.556.556,0,0,0,.557-.557V155.12a.557.557,0,0,0-1.113,0v6.024a.556.556,0,0,0,.557.557" transform="translate(-25.925 -28.585)" fill="#fff"/>
            <path id="Trazado_703008" data-name="Trazado 703008" d="M223.168,136.167a.556.556,0,0,0-.787,0l-21.152,21.151a.557.557,0,0,0,.787.787l21.152-21.151a.556.556,0,0,0,0-.787" transform="translate(-37.185 -25.152)" fill="#fff"/>
            <path id="Trazado_703009" data-name="Trazado 703009" d="M218.556,130.8a.557.557,0,0,0-.787-.787l-17.662,17.662a.557.557,0,0,0,.787.787Z" transform="translate(-36.977 -24.014)" fill="#fff"/>
            <path id="Trazado_703010" data-name="Trazado 703010" d="M201.229,137.109a.557.557,0,0,0,.787,0l14.076-14.076a.557.557,0,0,0-.787-.787l-14.076,14.076a.556.556,0,0,0,0,.787" transform="translate(-37.185 -22.578)" fill="#fff"/>
            <path id="Trazado_703011" data-name="Trazado 703011" d="M201.229,127.2a.557.557,0,0,0,.787,0l10.016-10.016a.557.557,0,0,0-.787-.787l-10.016,10.016a.556.556,0,0,0,0,.787" transform="translate(-37.185 -21.495)" fill="#fff"/>
            <path id="Trazado_703012" data-name="Trazado 703012" d="M200.5,118.227a.555.555,0,0,0,.394-.163l6.547-6.547a.557.557,0,0,0-.787-.787l-6.547,6.547a.557.557,0,0,0,.394.95" transform="translate(-36.977 -20.448)" fill="#fff"/>
            <path id="Trazado_703013" data-name="Trazado 703013" d="M227.511,144.152l-17.237,17.237a.557.557,0,0,0,.787.787L228.3,144.939a.557.557,0,0,0-.787-.787" transform="translate(-38.857 -26.629)" fill="#fff"/>
            <path id="Trazado_703014" data-name="Trazado 703014" d="M239.7,157.856a.556.556,0,0,0-.787,0l-5.949,5.949a.557.557,0,0,0,.787.787l5.949-5.949a.556.556,0,0,0,0-.787" transform="translate(-43.053 -29.163)" fill="#fff"/>
            <path id="Trazado_703015" data-name="Trazado 703015" d="M372.427,180.674a.555.555,0,0,0,.279-.482l-.006-24.976c0-.009-.007-.017-.007-.026a.539.539,0,0,0-.068-.252.551.551,0,0,0-.185-.185c-.007,0-.011-.015-.019-.019l-21.633-12.483a.557.557,0,0,0-.557,0l-21.626,12.492a.557.557,0,0,0-.279.483l.007,24.974a.553.553,0,0,0,.278.482l21.628,12.481,0,0a.54.54,0,0,0,.252.068c.009,0,.017.007.026.007a.452.452,0,0,0,.068-.013.518.518,0,0,0,.112-.023.574.574,0,0,0,.073-.032c.008,0,.018,0,.026-.007ZM330,180.2l19.956-11.528v2.952a.557.557,0,1,0,1.113,0v-2.952l13.29,7.669,6.671,3.85-19.956,11.528v-3.2a.557.557,0,1,0-1.113,0v3.2l-6.283-3.626Zm-.562-19.786v-4.225l.964.557a.552.552,0,0,0,.336.257l.2.055,8.023,4.63-8.175-2.188a.557.557,0,1,0-.288,1.076l12.188,3.263,6.709,3.871-19.956,11.528Zm38.235-2.62a.558.558,0,0,0,.761.2l3.148-1.819.006,23.048L351.63,167.71l2.052-1.186a.557.557,0,1,0-.557-.964l-2.051,1.186-.006-23.047,19.963,11.518-3.149,1.819a.557.557,0,0,0-.2.76m-17.722-6.93,0,15.879-3.109-1.794,1.245.333a.557.557,0,0,0,.288-1.076l-5.259-1.408-8.023-4.63,13.23,3.541a.557.557,0,1,0,.289-1.075l-17.244-4.616-1.377-.8L349.954,143.7Z" transform="translate(-60.72 -26.294)" fill="#fff"/>
            <path id="Trazado_703016" data-name="Trazado 703016" d="M365.811,166.948a.557.557,0,0,0-.761-.2l-3.271,1.89a.557.557,0,1,0,.557.964l3.272-1.89a.556.556,0,0,0,.2-.76" transform="translate(-66.855 -30.823)" fill="#fff"/>
            <path id="Trazado_703017" data-name="Trazado 703017" d="M369.777,164.054a.557.557,0,0,0,.557.964l2.965-1.713a.557.557,0,1,0-.557-.964Z" transform="translate(-68.334 -30.009)" fill="#fff"/>
            <path id="Trazado_703018" data-name="Trazado 703018" d="M355.986,193.561v-3.187a.557.557,0,0,0-1.113,0v3.187a.557.557,0,1,0,1.113,0" transform="translate(-65.629 -35.104)" fill="#fff"/>
            <path id="Trazado_703019" data-name="Trazado 703019" d="M355.984,185.535v-3.36a.557.557,0,1,0-1.113,0v3.361a.557.557,0,0,0,1.113,0" transform="translate(-65.629 -33.588)" fill="#fff"/>
            <path id="Trazado_703020" data-name="Trazado 703020" d="M349.919,147.981a.556.556,0,0,0,.338.259l2.228.6a.557.557,0,0,0,.289-1.076l-2.228-.6a.557.557,0,0,0-.626.816" transform="translate(-64.699 -27.213)" fill="#fff"/>
            <path id="Trazado_703021" data-name="Trazado 703021" d="M333.82,182.732l-1.518-.407a.557.557,0,1,0-.288,1.076l1.518.406a.556.556,0,0,0,.288-1.075" transform="translate(-61.325 -33.715)" fill="#fff"/>
            <path id="Trazado_703022" data-name="Trazado 703022" d="M345.22,150.416a.556.556,0,0,0,.394.681l5.083,1.36a.556.556,0,0,0,.288-1.075l-5.083-1.36a.556.556,0,0,0-.681.394" transform="translate(-63.841 -27.741)" fill="#fff"/>
            <path id="Trazado_703023" data-name="Trazado 703023" d="M337.728,180.282a.556.556,0,0,0-.394-.681l-5.082-1.36a.557.557,0,0,0-.289,1.075l5.083,1.36a.557.557,0,0,0,.681-.394" transform="translate(-61.316 -32.96)" fill="#fff"/>
            <path id="Trazado_703024" data-name="Trazado 703024" d="M340.5,153.142a.556.556,0,0,0,.394.681l9.464,2.534a.557.557,0,1,0,.289-1.075l-9.465-2.534a.557.557,0,0,0-.681.394" transform="translate(-62.968 -28.245)" fill="#fff"/>
            <path id="Trazado_703025" data-name="Trazado 703025" d="M335.226,156.189a.556.556,0,0,0,.394.681l14.019,3.753a.556.556,0,0,0,.288-1.075L335.907,155.8a.556.556,0,0,0-.681.394" transform="translate(-61.992 -28.809)" fill="#fff"/>
            <path id="Trazado_703026" data-name="Trazado 703026" d="M342.4,176.644a.555.555,0,0,0-.394-.681l-9.977-2.671a.557.557,0,1,0-.288,1.076l9.977,2.67a.556.556,0,0,0,.681-.394" transform="translate(-61.275 -32.045)" fill="#fff"/>
            <path id="Trazado_703027" data-name="Trazado 703027" d="M346.829,173.08a.556.556,0,0,0-.394-.681l-15.221-4.075a.556.556,0,1,0-.288,1.075l15.221,4.074a.556.556,0,0,0,.681-.394" transform="translate(-61.124 -31.126)" fill="#fff"/>
            <path id="Trazado_703028" data-name="Trazado 703028" d="M373.988,89.949A23.291,23.291,0,1,1,350.7,66.658a23.291,23.291,0,0,1,23.291,23.291" transform="translate(-60.55 -12.328)" fill="#e0e0e0"/>
            <path id="Trazado_703029" data-name="Trazado 703029" d="M324.463,88.782a23.911,23.911,0,1,0,23.912-23.909,23.911,23.911,0,0,0-23.912,23.909m19.914-17.71a3.352,3.352,0,0,1-2.43-.051c.372,1.665-1.267,3.145-2.814,3.992-2.005,1.1-4.264,1.543-4.7-.244-.26-1.078.549-2.6,2.6-4,1.107-.751,2.884-1.312,3.982-.886-.167-.988.731-2.1,2.121-2.56,1.486-.495,2.968-.051,3.312.981s-.584,2.272-2.069,2.766M356,79.294a3.327,3.327,0,1,1-1.047-4.589A3.323,3.323,0,0,1,356,79.294M344.81,106.566a2.551,2.551,0,1,1,2.551,2.551,2.552,2.552,0,0,1-2.551-2.551m-.674-8.767a2.928,2.928,0,0,1,2.927-2.926c.042,0,.083,0,.125,0a10.8,10.8,0,0,1,13.972-12.21,4.338,4.338,0,1,1,6.274,5.372,10.8,10.8,0,0,1-6.648,15.274,2.212,2.212,0,1,1-3.992.372,10.81,10.81,0,0,1-7.451-4.05,2.926,2.926,0,0,1-5.2-1.836m-6.424-17.042a2.189,2.189,0,0,1,3.4-2.009A3.325,3.325,0,1,1,342,81.174a2.191,2.191,0,0,1-4.287-.417m-3.164,20.078a1.659,1.659,0,1,1,1.659,1.659,1.658,1.658,0,0,1-1.659-1.659m-3.228-18.7a2.19,2.19,0,1,1,2.371,1.993,2.193,2.193,0,0,1-2.371-1.993" transform="translate(-60.005 -11.997)" fill="#f5f5f5"/>
            <path id="Trazado_703030" data-name="Trazado 703030" d="M336.836,108.618a1.659,1.659,0,1,0,1.659-1.659,1.659,1.659,0,0,0-1.659,1.659" transform="translate(-62.294 -19.781)" fill="#e6e6e6"/>
            <path id="Trazado_703031" data-name="Trazado 703031" d="M336.541,108.564a1.9,1.9,0,1,1,1.9,1.9,1.9,1.9,0,0,1-1.9-1.9m.482,0a1.418,1.418,0,1,0,1.418-1.418,1.42,1.42,0,0,0-1.418,1.418" transform="translate(-62.239 -19.726)" fill="#fff"/>
            <path id="Trazado_703032" data-name="Trazado 703032" d="M349.427,115.447a2.551,2.551,0,1,0,2.551-2.551,2.551,2.551,0,0,0-2.551,2.551" transform="translate(-64.622 -20.879)" fill="#e6e6e6"/>
            <path id="Trazado_703033" data-name="Trazado 703033" d="M349.132,115.393a2.792,2.792,0,1,1,2.792,2.792,2.794,2.794,0,0,1-2.792-2.792m.481,0a2.31,2.31,0,1,0,2.311-2.311,2.314,2.314,0,0,0-2.311,2.311" transform="translate(-64.568 -20.824)" fill="#fff"/>
            <path id="Trazado_703034" data-name="Trazado 703034" d="M357.171,82.455a3.327,3.327,0,1,0-1.049-4.586,3.323,3.323,0,0,0,1.049,4.586" transform="translate(-65.766 -14.113)" fill="#e6e6e6"/>
            <path id="Trazado_703035" data-name="Trazado 703035" d="M356.989,82.6a3.564,3.564,0,0,1-1.126-4.918,3.568,3.568,0,1,1,6.043,3.8,3.536,3.536,0,0,1-2.224,1.58,3.616,3.616,0,0,1-.8.09,3.548,3.548,0,0,1-1.892-.549m-.718-4.661a3.082,3.082,0,0,0,.974,4.253h0a3.084,3.084,0,1,0-.974-4.254" transform="translate(-65.711 -14.059)" fill="#fff"/>
            <path id="Trazado_703036" data-name="Trazado 703036" d="M340.716,83.186A2.191,2.191,0,0,0,345,83.6a3.328,3.328,0,1,0-.889-2.426,2.188,2.188,0,0,0-3.4,2.009" transform="translate(-63.01 -14.426)" fill="#e6e6e6"/>
            <path id="Trazado_703037" data-name="Trazado 703037" d="M341.278,84.8a2.432,2.432,0,0,1,1.356-4.284,2.484,2.484,0,0,1,1.222.214,3.569,3.569,0,1,1,3.834,4.1,3.532,3.532,0,0,1-2.647-.86,2.453,2.453,0,0,1-1.993,1.39c-.073.006-.145.009-.217.009a2.406,2.406,0,0,1-1.556-.569m3.846-1.42a3.087,3.087,0,1,0-.825-2.251.238.238,0,0,1-.131.2.24.24,0,0,1-.243-.015,1.945,1.945,0,0,0-2.576.367,1.948,1.948,0,0,0,1.659,3.2,1.963,1.963,0,0,0,1.708-1.4.242.242,0,0,1,.175-.168.265.265,0,0,1,.056-.007.24.24,0,0,1,.176.077" transform="translate(-62.955 -14.372)" fill="#fff"/>
            <path id="Trazado_703038" data-name="Trazado 703038" d="M332.874,85.514a2.19,2.19,0,1,0,1.993-2.372,2.195,2.195,0,0,0-1.993,2.372" transform="translate(-61.559 -15.375)" fill="#e6e6e6"/>
            <path id="Trazado_703039" data-name="Trazado 703039" d="M332.58,85.481h0a2.431,2.431,0,1,1,2.631,2.212c-.069.006-.139.009-.208.009a2.439,2.439,0,0,1-2.423-2.22m2.254-2.153a1.958,1.958,0,1,0,.167-.007c-.055,0-.112,0-.167.007m-2.017,2.132h0Z" transform="translate(-61.505 -15.32)" fill="#fff"/>
            <path id="Trazado_703040" data-name="Trazado 703040" d="M337.792,101.964a.234.234,0,0,0,.077-.013.239.239,0,0,0,.15-.3c-1.331-3.91-.289-11.756-.278-11.835a.241.241,0,0,0-.477-.065c-.045.327-1.069,8.037.3,12.055a.241.241,0,0,0,.228.163" transform="translate(-62.297 -16.559)" fill="#e6e6e6"/>
            <path id="Trazado_703041" data-name="Trazado 703041" d="M333.761,106a.24.24,0,0,0,.148-.43,11.174,11.174,0,0,1-3.783-5.748.241.241,0,0,0-.461.143,11.641,11.641,0,0,0,3.948,5.985.238.238,0,0,0,.148.051" transform="translate(-60.966 -18.43)" fill="#e6e6e6"/>
            <path id="Trazado_703042" data-name="Trazado 703042" d="M346.439,111.339a.24.24,0,0,0,.007-.481,13.694,13.694,0,0,1-3.422-.572.241.241,0,0,0-.138.461,14.219,14.219,0,0,0,3.544.592Z" transform="translate(-63.381 -20.394)" fill="#e6e6e6"/>
            <path id="Trazado_703043" data-name="Trazado 703043" d="M336.674,115.9a.242.242,0,0,0,.232-.178l.817-3a.241.241,0,1,0-.465-.126l-.817,3a.24.24,0,0,0,.232.3" transform="translate(-62.219 -20.79)" fill="#e6e6e6"/>
            <path id="Trazado_703044" data-name="Trazado 703044" d="M330.376,111.3h.02a9.143,9.143,0,0,0,3.527-.936.241.241,0,0,0-.223-.427,8.638,8.638,0,0,1-3.342.883.241.241,0,0,0,.019.481" transform="translate(-61.055 -20.326)" fill="#e6e6e6"/>
            <path id="Trazado_703045" data-name="Trazado 703045" d="M341.591,103.849a.241.241,0,0,0,.218-.139c.941-2.027,4.437-8.922,4.472-8.993a.24.24,0,1,0-.429-.218c-.036.07-3.535,6.974-4.48,9.007a.241.241,0,0,0,.117.32.234.234,0,0,0,.1.023" transform="translate(-63.129 -17.452)" fill="#e6e6e6"/>
            <path id="Trazado_703046" data-name="Trazado 703046" d="M345.96,118.042a.241.241,0,0,0,.117-.451,14.526,14.526,0,0,1-5.227-5.291.243.243,0,0,0-.329-.089.24.24,0,0,0-.088.328,15.015,15.015,0,0,0,5.41,5.472.244.244,0,0,0,.117.03" transform="translate(-62.953 -20.746)" fill="#e6e6e6"/>
            <path id="Trazado_703047" data-name="Trazado 703047" d="M348.6,101.233a2.926,2.926,0,0,0,5.2,1.836,10.814,10.814,0,0,0,7.451,4.05,2.211,2.211,0,1,0,3.992-.372A10.8,10.8,0,0,0,371.9,91.471a4.338,4.338,0,1,0-6.274-5.372,10.8,10.8,0,0,0-13.972,12.21l-.125,0a2.927,2.927,0,0,0-2.927,2.926m0,0a2.926,2.926,0,0,0,5.2,1.836,10.814,10.814,0,0,0,7.451,4.05,2.211,2.211,0,1,0,3.992-.372A10.8,10.8,0,0,0,371.9,91.471a4.338,4.338,0,1,0-6.274-5.372,10.8,10.8,0,0,0-13.972,12.21l-.125,0a2.927,2.927,0,0,0-2.927,2.926" transform="translate(-64.469 -15.431)" fill="#e6e6e6"/>
            <path id="Trazado_703048" data-name="Trazado 703048" d="M336.687,75.279c.434,1.787,2.692,1.342,4.7.245,1.546-.847,3.186-2.326,2.814-3.993a3.345,3.345,0,0,0,2.429.051c1.486-.494,2.413-1.729,2.07-2.765s-1.827-1.476-3.312-.983c-1.39.459-2.289,1.573-2.122,2.561-1.1-.426-2.876.135-3.982.885-2.047,1.4-2.856,2.92-2.6,4" transform="translate(-62.257 -12.508)" fill="#e6e6e6"/>
            <path id="Trazado_703049" data-name="Trazado 703049" d="M337.36,76.492a1.671,1.671,0,0,1-.961-1.21v0c-.308-1.28.725-2.91,2.7-4.253a5.7,5.7,0,0,1,3.859-1.013,3.088,3.088,0,0,1,2.3-2.463,3.761,3.761,0,0,1,2.228-.085,1.963,1.963,0,0,1,1.387,1.219c.384,1.158-.613,2.536-2.222,3.07a3.768,3.768,0,0,1-2.213.087c.1,1.976-2.232,3.421-2.991,3.837a7.388,7.388,0,0,1-3.145.991,2.331,2.331,0,0,1-.942-.179m6.888-5.234a3.124,3.124,0,0,0,2.25.041c1.357-.451,2.218-1.556,1.918-2.461a1.5,1.5,0,0,0-1.068-.908,3.28,3.28,0,0,0-1.94.079c-1.246.411-2.107,1.418-1.959,2.293a.241.241,0,0,1-.325.263c-.99-.386-2.69.134-3.759.861-2.153,1.468-2.7,2.9-2.5,3.743a1.2,1.2,0,0,0,.687.884c.765.338,2.134.042,3.661-.794.738-.4,3.111-1.867,2.695-3.729a.242.242,0,0,1,.085-.24.237.237,0,0,1,.15-.053.251.251,0,0,1,.1.023m-7.618,3.966h0Z" transform="translate(-62.203 -12.453)" fill="#fff"/>
            <path id="Trazado_703050" data-name="Trazado 703050" d="M360.832,107.809a2.486,2.486,0,0,1,.058-.536,11.138,11.138,0,0,1-4.543-1.612,10.973,10.973,0,0,1-2.6-2.274,3.167,3.167,0,1,1-2.43-5.37,11.039,11.039,0,0,1,14.125-12.264,4.579,4.579,0,1,1,6.715,5.751,11.039,11.039,0,0,1-6.615,15.337,2.453,2.453,0,1,1-4.705.969m4.154-1-.157-.268.3-.085a10.58,10.58,0,0,0,6.5-14.934l-.1-.2.189-.116a4.1,4.1,0,1,0-5.926-5.074l-.086.2-.211-.068a10.55,10.55,0,0,0-13.66,11.937l.052.284-.414,0a2.686,2.686,0,1,0,2.091,4.37l.19-.235.187.237a10.479,10.479,0,0,0,2.664,2.387,10.628,10.628,0,0,0,4.621,1.572l.309.029-.105.292a1.97,1.97,0,1,0,3.558-.332" transform="translate(-64.415 -15.377)" fill="#fff"/>
            <path id="Trazado_703051" data-name="Trazado 703051" d="M364.246,99.34a1.381,1.381,0,0,1-.6-.884,1.4,1.4,0,1,1,2.737-.57,1.395,1.395,0,0,1-1.085,1.652,1.467,1.467,0,0,1-.29.03,1.385,1.385,0,0,1-.762-.229" transform="translate(-67.246 -17.897)" fill="#f0f0f0"/>
            <path id="Trazado_703052" data-name="Trazado 703052" d="M274.616,161.722a.54.54,0,0,1-.251.352,1,1,0,0,1-.408.15.485.485,0,0,1-.34-.1,1.248,1.248,0,0,1-.254-.258,1.8,1.8,0,0,1-.225-.326,2.5,2.5,0,0,1-.16-.365q-.235-.575-.492-1.139T272,158.9a5.922,5.922,0,0,0-.652.868q-.28.456-.541.932a3.76,3.76,0,0,1-.215.447,2.949,2.949,0,0,0-.209.447,1.429,1.429,0,0,0-.112.173c-.034.063-.072.124-.111.183a.911.911,0,0,1-.13.156.38.38,0,0,1-.17.095.7.7,0,0,1-.323-.114.814.814,0,0,1-.231-.235.951.951,0,0,1-.13-.31,1.112,1.112,0,0,1-.026-.339,1.144,1.144,0,0,1,.075-.329,2.515,2.515,0,0,1,.143-.307c.055-.1.114-.194.179-.29s.128-.191.189-.287q.248-.313.486-.632t.487-.64l.333-.528c.108-.174.213-.355.313-.541q-.209-.457-.434-.91t-.414-.923q-.086-.2-.17-.4c-.057-.132-.107-.267-.151-.4a3.2,3.2,0,0,1-.1-.417,1.962,1.962,0,0,1-.023-.434.371.371,0,0,1,.068-.173.483.483,0,0,1,.134-.124.682.682,0,0,1,.17-.076,1.3,1.3,0,0,1,.183-.038,1.284,1.284,0,0,1,.339.019.378.378,0,0,1,.261.183,1.492,1.492,0,0,1,.143.284c.039.1.076.2.111.3q.176.469.333.946t.327.945a4.037,4.037,0,0,0,.574-.7q.241-.379.463-.783a3.309,3.309,0,0,1,.17-.352q.1-.176.176-.352a.74.74,0,0,0,.095-.134c.029-.051.059-.1.091-.15a.943.943,0,0,1,.1-.134.371.371,0,0,1,.141-.091.872.872,0,0,1,.29.1.926.926,0,0,1,.238.192.9.9,0,0,1,.163.264.828.828,0,0,1,.059.31,3.133,3.133,0,0,1-.316.841,6.186,6.186,0,0,1-.5.764q-.276.366-.584.717t-.58.705q.248.4.456.815t.417.842c.122.261.245.516.369.766s.249.5.375.747a4.678,4.678,0,0,1,.2.443,1.346,1.346,0,0,1,.085.483" transform="translate(-49.775 -28.431)" fill="#fff"/>
            <path id="Trazado_703053" data-name="Trazado 703053" d="M208.024,63.188a1.222,1.222,0,0,1-.183.437q-.137.209-.254.417-.17.216-.333.441c-.109.15-.215.3-.32.453q-.391.567-.75,1.168t-.655,1.219A12.677,12.677,0,0,0,205,68.592a10.069,10.069,0,0,0-.365,1.315c-.021.113-.044.225-.068.336a1.212,1.212,0,0,1-.121.323.516.516,0,0,1-.228.235.523.523,0,0,1-.32.065.4.4,0,0,1-.222-.059.446.446,0,0,1-.148-.156.8.8,0,0,1-.081-.215.735.735,0,0,1-.013-.235c.018-.213.044-.425.078-.636s.077-.423.125-.637.1-.425.17-.636a4.249,4.249,0,0,1,.248-.623,2.321,2.321,0,0,1-.4-.493,3.784,3.784,0,0,1-.281-.571,5.854,5.854,0,0,1-.2-.619q-.084-.32-.163-.633a10.167,10.167,0,0,1-.189-1.213,5.252,5.252,0,0,1,.033-1.253,1.337,1.337,0,0,1,.052-.163.841.841,0,0,1,.082-.16.487.487,0,0,1,.117-.127.256.256,0,0,1,.16-.052.478.478,0,0,1,.254-.01.507.507,0,0,1,.209.1.571.571,0,0,1,.147.186.682.682,0,0,1,.068.228c.013.192.033.379.059.564s.043.373.052.564c.03.209.068.412.111.61s.094.4.15.6a3.854,3.854,0,0,0,.179.607,5.278,5.278,0,0,0,.264.574q.346-.712.741-1.38t.818-1.341c.1-.2.217-.386.336-.571s.238-.373.355-.564a.412.412,0,0,1,.2-.186.55.55,0,0,1,.261-.049.517.517,0,0,1,.264.1.709.709,0,0,1,.176.2.852.852,0,0,1,.1.264,1,1,0,0,1,.016.29" transform="translate(-37.506 -11.526)" fill="#fff"/>
            <path id="Trazado_703054" data-name="Trazado 703054" d="M130.226,246v6.182a2.541,2.541,0,0,1-2.429,2.64H84.31a1.716,1.716,0,0,1-1.64-1.783v-5.256A1.716,1.716,0,0,1,84.31,246Z" transform="translate(-15.289 -45.494)" fill="#e6e6e6"/>
            <path id="Trazado_703055" data-name="Trazado 703055" d="M82.67,242.943v-6.712a1.015,1.015,0,0,1,.971-1.055h42.352a4.428,4.428,0,0,1,4.233,4.6v3.167a1.015,1.015,0,0,1-.97,1.055H83.641a1.015,1.015,0,0,1-.971-1.055" transform="translate(-15.289 -43.493)" fill="#e0e0e0"/>
            <path id="Trazado_703056" data-name="Trazado 703056" d="M96.35,246v5.276a3.413,3.413,0,0,1-3.263,3.546h-9.71a3.413,3.413,0,0,1-3.263-3.546V246Z" transform="translate(-14.816 -45.494)" fill="#f0f0f0"/>
            <path id="Trazado_703057" data-name="Trazado 703057" d="M80.115,244v-5.276a3.413,3.413,0,0,1,3.263-3.546h9.71a3.413,3.413,0,0,1,3.263,3.546V244Z" transform="translate(-14.816 -43.493)" fill="#e6e6e6"/>
            <rect id="Rectángulo_345112" data-name="Rectángulo 345112" width="33.102" height="0.747" transform="translate(81.836 201.94)" fill="#e0e0e0"/>
          </g>
        </g>
        <g id="Grupo_999284" data-name="Grupo 999284">
          <g id="Grupo_999283" data-name="Grupo 999283" clip-path="url(#clip-path)">
            <path id="Trazado_703058" data-name="Trazado 703058" d="M201.17,205.746c2.035,26.686,4.863,59.829,3.467,84.092l-.207,15.491h77.9s-.774-25.578,1.855-32.387c2.8-7.268,5.134-13.789,7.071-19.688,1.792-7.988,4.286-16.41,6.808-26.073,2.387-13.3-4.665-33.486-8.943-38.628a25.193,25.193,0,0,0-7.278-3.144c-2.585-.666-5.3-1.324-8.024-1.945-2.008-.46-4.053-.892-6.034-1.207q-4.108-.7-8.241-1.288a253.531,253.531,0,0,0-27.136-2.288c-1.747-.1-3.5-.153-5.233-.189l-.433.064A25.25,25.25,0,0,0,201.1,203.414c-.008.784.01,1.558.073,2.333" transform="translate(-37.19 -33.01)" fill="#407bff"/>
            <g id="Grupo_999258" data-name="Grupo 999258" transform="translate(163.906 145.483)" opacity="0.6">
              <g id="Grupo_999257" data-name="Grupo 999257">
                <g id="Grupo_999256" data-name="Grupo 999256" clip-path="url(#clip-path-4)">
                  <path id="Trazado_703059" data-name="Trazado 703059" d="M201.17,205.746c2.035,26.686,4.863,59.829,3.467,84.092l-.207,15.491h77.9s-.774-25.578,1.855-32.387c2.8-7.268,5.134-13.789,7.071-19.688,1.792-7.988,4.286-16.41,6.808-26.073,2.387-13.3-4.665-33.486-8.943-38.628a25.193,25.193,0,0,0-7.278-3.144c-2.585-.666-5.3-1.324-8.024-1.945-2.008-.46-4.053-.892-6.034-1.207q-4.108-.7-8.241-1.288a253.531,253.531,0,0,0-27.136-2.288c-1.747-.1-3.5-.153-5.233-.189l-.433.064A25.25,25.25,0,0,0,201.1,203.414c-.008.784.01,1.558.073,2.333" transform="translate(-201.096 -178.493)"/>
                </g>
              </g>
            </g>
            <path id="Trazado_703060" data-name="Trazado 703060" d="M261.624,210.785c-3.234,0-6.232-1.465-8.515-2.768-4.335-2.475-7.842-6.429-11.232-10.254l-.809-.91.913-.813.811.913c3.325,3.75,6.764,7.628,10.924,10,2.27,1.3,5.275,2.755,8.407,2.594a12.123,12.123,0,0,0,7.246-3.3,33.544,33.544,0,0,0,4.966-6.673l.082-.131-.074-.058.624-.809,1,.7-.6.946a34.336,34.336,0,0,1-5.186,6.935,13.335,13.335,0,0,1-8,3.612c-.188.011-.377.015-.563.015" transform="translate(-44.582 -36.255)" fill="#fff"/>
            <path id="Trazado_703061" data-name="Trazado 703061" d="M285.884,336.086c.412,2.846,1.254,8.627,2.409,16.617h-69.5a41.76,41.76,0,0,1,4.374-16.617c.348-.679.72-1.334,1.116-1.981H285.6s.1.688.283,1.981" transform="translate(-40.463 -61.789)" fill="#263238"/>
            <path id="Trazado_703062" data-name="Trazado 703062" d="M267.816,334.106a.908.908,0,0,0-.016.105c-.04.235-.145.874-.3,1.876-.461,2.838-1.374,8.611-2.587,16.617H195.341a57,57,0,0,1,9.015-16.617c.55-.688,1.117-1.342,1.7-1.981Z" transform="translate(-36.126 -61.789)" fill="#263238"/>
            <path id="Trazado_703063" data-name="Trazado 703063" d="M236.65,163.622c13.115-9.173,32.651,4.567,39.252,2.054,1.319-8.007,2.733-16.3-1.755-23.065a26.637,26.637,0,0,0-20.187-11.986c-8.1-.456-16.454,3.684-20.474,10.734S231,157.8,236.65,163.622" transform="translate(-42.763 -24.151)" fill="#263238"/>
            <path id="Trazado_703064" data-name="Trazado 703064" d="M254.07,67.25c3.915-4.279,10.346-5.6,16.032-4.457s10.725,4.42,15.151,8.168a60.14,60.14,0,0,1,17.7,24.348,45.1,45.1,0,0,1,1,29.826c-1.537,4.62-5.833,22.127-9.692,25.095-6.058,4.661-17.084,4.2-24.15,1.282s-8.537-20.921-12.915-27.186c-5.716-8.181-15.874-28.826-9.419-45.76,3.074-8.064,6.291-11.316,6.291-11.316" transform="translate(-45.44 -11.54)" fill="#263238"/>
            <path id="Trazado_703065" data-name="Trazado 703065" d="M264.486,194.085c-3.612,2.536-6.15.976-9.839-1.436-22.233-13.173-12.963-23.338-12.963-23.338,5.549-4.431,6.973-10.75,7.179-20.768a6.121,6.121,0,0,1,.112-.845,6.508,6.508,0,0,1,11.013-3.343l10.2,5.061.02.01c-.029.159-.056.31-.095.469-1,5.313-1.924,9.4-2.507,12.637-.075.4-.14.8-.205,1.183a.107.107,0,0,0-.011.056c-.065.413-.121.817-.178,1.211-.6,4.479-.1,7.032,2.647,9.154,1.747,1.343,6.82,11.391-5.37,19.948" transform="translate(-44.342 -26.341)" fill="#ffb573"/>
            <g id="Grupo_999261" data-name="Grupo 999261" transform="translate(204.597 116.021)" opacity="0.2" style="isolation: isolate">
              <g id="Grupo_999260" data-name="Grupo 999260">
                <g id="Grupo_999259" data-name="Grupo 999259" clip-path="url(#clip-path-5)">
                  <path id="Trazado_703066" data-name="Trazado 703066" d="M272.276,149.363c0,.009-.01.029-.01.038a1.121,1.121,0,0,0-.075.478c-.994,5.314-1.924,9.4-2.506,12.638a10.519,10.519,0,0,0-.207,1.183.124.124,0,0,0-.009.056,9.562,9.562,0,0,0-.085,1.258c-.028-.02-.065-.029-.094-.047a41.944,41.944,0,0,1-18.233-17.285c-.01-.019-.029-.047-.037-.066a6.518,6.518,0,0,1,11.013-3.361Z" transform="translate(-251.02 -142.346)"/>
                </g>
              </g>
            </g>
            <path id="Trazado_703067" data-name="Trazado 703067" d="M238.9,102.292c2.091,18.484,2.566,26.348,12.284,35.61,14.615,13.913,36.45,7.861,39.915-10.782,3.071-16.756-.839-44.164-19.094-51.078s-35.183,7.74-33.1,26.25" transform="translate(-44.149 -13.74)" fill="#ffb573"/>
            <path id="Trazado_703068" data-name="Trazado 703068" d="M244.906,108.32c3.916,1.545,4.892,19.021-4.089,19.124s-8.751-24.183,4.089-19.124" transform="translate(-43.386 -19.904)" fill="#263238"/>
            <path id="Trazado_703069" data-name="Trazado 703069" d="M233.156,127.108a15.218,15.218,0,0,0,7.08,8.926c4.553,2.523,7.892-1.236,7.513-6.174-.353-4.507-3.093-11.072-8.091-11.576s-7.847,4.181-6.5,8.824" transform="translate(-43.058 -21.868)" fill="#ffb573"/>
            <path id="Trazado_703070" data-name="Trazado 703070" d="M289.581,117.106a46.1,46.1,0,0,0,7.386,9.867,6.955,6.955,0,0,1-5.681,1.794Z" transform="translate(-53.554 -21.657)" fill="#ed893e"/>
            <path id="Trazado_703071" data-name="Trazado 703071" d="M271.322,113.883c.071,1.5.893,2.711,1.9,2.676s1.7-1.278,1.624-2.778-.9-2.73-1.9-2.677-1.7,1.259-1.624,2.779" transform="translate(-50.176 -20.547)" fill="#263238"/>
            <path id="Trazado_703072" data-name="Trazado 703072" d="M294.6,113.292c.071,1.5.893,2.711,1.9,2.676s1.7-1.258,1.624-2.778-.893-2.711-1.9-2.677-1.7,1.259-1.624,2.779" transform="translate(-54.482 -20.438)" fill="#263238"/>
            <path id="Trazado_703073" data-name="Trazado 703073" d="M296.067,110.374l3.513-1.157s-1.695,2.886-3.513,1.157" transform="translate(-54.754 -20.198)" fill="#263238"/>
            <path id="Trazado_703074" data-name="Trazado 703074" d="M269.551,105.962a.679.679,0,0,0,.35-.285,6.775,6.775,0,0,1,5.331-3.09.864.864,0,0,0,.9-.822c0-.009,0-.018,0-.027a.9.9,0,0,0-.874-.918,8.382,8.382,0,0,0-6.916,3.866.9.9,0,0,0,.237,1.234.864.864,0,0,0,.966.042" transform="translate(-49.6 -18.646)" fill="#263238"/>
            <path id="Trazado_703075" data-name="Trazado 703075" d="M303.144,103.292l.077-.152a.884.884,0,0,0-.39-1.183,8.522,8.522,0,0,0-7.977,0,.925.925,0,0,0-.271,1.232.9.9,0,0,0,1.2.3,6.8,6.8,0,0,1,6.356.022.863.863,0,0,0,1-.225" transform="translate(-54.456 -18.673)" fill="#263238"/>
            <path id="Trazado_703076" data-name="Trazado 703076" d="M272.8,110.934l3.512-1.157s-1.688,2.9-3.512,1.157" transform="translate(-50.451 -20.302)" fill="#263238"/>
            <path id="Trazado_703077" data-name="Trazado 703077" d="M288.231,136.338s-5.176-1.448-19.778-1.706c1.537,5.01,4.607,9.109,12.1,9.18s7.677-7.474,7.677-7.474" transform="translate(-49.647 -24.899)" fill="#263238"/>
            <path id="Trazado_703078" data-name="Trazado 703078" d="M278.125,141.022a12.207,12.207,0,0,1,8.081,2.542,7.318,7.318,0,0,1-4.731,1.4,12.116,12.116,0,0,1-8.063-2.539,7.274,7.274,0,0,1,4.713-1.407" transform="translate(-50.564 -26.077)" fill="#ff5652"/>
            <path id="Trazado_703079" data-name="Trazado 703079" d="M287.709,136.186a3.25,3.25,0,0,1-2.358,2.431,67.759,67.759,0,0,1-12.882-1.476,3.991,3.991,0,0,1-3.215-2.495,107.249,107.249,0,0,1,18.455,1.54" transform="translate(-49.795 -24.901)" fill="#fff"/>
            <g id="Grupo_999264" data-name="Grupo 999264" transform="translate(196.38 92.204)" opacity="0.9">
              <g id="Grupo_999263" data-name="Grupo 999263">
                <g id="Grupo_999262" data-name="Grupo 999262" clip-path="url(#clip-path-6)">
                  <path id="Trazado_703080" data-name="Trazado 703080" d="M292.453,121.153c-1.989-.17-3,.077-4.609-1.112a23.926,23.926,0,0,1-3.29-2.854,5.845,5.845,0,0,0-5.216-1.609,20.854,20.854,0,0,0-4.594,2.208c-8.887,4.843-26.679,5.586-33.806-4.662,1.263,2.032,4.4,5.406,6.455,9.108,0,0,1.549,13.616-1.5,13.661a11.74,11.74,0,0,1-2.667-.188c4.4,5.3,8.646,10.268,14.5,13.883s13.3,5.321,19.73,2.854c5.555-2.126,10.625-7.536,12.881-13.043s2.846-11.531,3.073-17.474Zm-4.593,15.368a13.992,13.992,0,0,1-1.528,4.383,8.856,8.856,0,0,1-3.768,2.879c-3.857,1.86-8.531,1.77-12.72.857a8.656,8.656,0,0,1-5.361-4.22c-1.188-2.021-2.854-12.1-1.722-12.372a74.57,74.57,0,0,0,26.684.655c-.59,2.6-1,5.223-1.585,7.819m4.593-15.368c-1.989-.17-3,.077-4.609-1.112a23.926,23.926,0,0,1-3.29-2.854,5.845,5.845,0,0,0-5.216-1.609,20.854,20.854,0,0,0-4.594,2.208c-8.887,4.843-26.679,5.586-33.806-4.662,1.263,2.032,4.4,5.406,6.455,9.108,0,0,1.549,13.616-1.5,13.661a11.74,11.74,0,0,1-2.667-.188c4.4,5.3,8.646,10.268,14.5,13.883s13.3,5.321,19.73,2.854c5.555-2.126,10.625-7.536,12.881-13.043s2.846-11.531,3.073-17.474Zm-4.593,15.368a13.992,13.992,0,0,1-1.528,4.383,8.856,8.856,0,0,1-3.768,2.879c-3.857,1.86-8.531,1.77-12.72.857a8.656,8.656,0,0,1-5.361-4.22c-1.188-2.021-2.854-12.1-1.722-12.372a74.57,74.57,0,0,0,26.684.655c-.59,2.6-1,5.223-1.585,7.819" transform="translate(-240.938 -113.125)" fill="#fff"/>
                </g>
              </g>
            </g>
            <g id="Grupo_999267" data-name="Grupo 999267" transform="translate(217.989 107.13)" opacity="0.5">
              <g id="Grupo_999266" data-name="Grupo 999266">
                <g id="Grupo_999265" data-name="Grupo 999265" clip-path="url(#clip-path-7)">
                  <path id="Trazado_703081" data-name="Trazado 703081" d="M294.512,132.088a74.619,74.619,0,0,1-26.684-.65c-1.13.273.529,10.348,1.718,12.365a8.65,8.65,0,0,0,5.364,4.221c4.185.914,8.858,1.007,12.718-.85a8.9,8.9,0,0,0,3.767-2.884,13.819,13.819,0,0,0,1.528-4.379c.592-2.6,1-5.225,1.588-7.822" transform="translate(-267.451 -131.438)" fill="#fff"/>
                </g>
              </g>
            </g>
            <path id="Trazado_703082" data-name="Trazado 703082" d="M350.8,166.158l-13.061-8.141L348.338,143.7s11.067,10.644,11.583,19.212Z" transform="translate(-62.461 -26.576)" fill="#ffb573"/>
            <path id="Trazado_703083" data-name="Trazado 703083" d="M325.267,144.1l4.921-4.924a3.132,3.132,0,0,1,3.233-.747l12.478,4.3L335.267,157.01l-9.809-8.31a3.13,3.13,0,0,1-.191-4.6" transform="translate(-59.985 -25.569)" fill="#ffb573"/>
            <path id="Trazado_703084" data-name="Trazado 703084" d="M309.682,226.672l35.959,18.5a28.46,28.46,0,0,0,9.867,3.947c10.813,2.032,23.114-5.692,19.206-21.65-2.718-11.1-10.071-38.04-20.325-62.667l-14.537,2.066,10.474,51.783-42.5-35.38Z" transform="translate(-56.929 -30.477)" fill="#407bff"/>
            <g id="Grupo_999270" data-name="Grupo 999270" transform="translate(250.9 134.321)" opacity="0.1">
              <g id="Grupo_999269" data-name="Grupo 999269">
                <g id="Grupo_999268" data-name="Grupo 999268" clip-path="url(#clip-path-8)">
                  <path id="Trazado_703085" data-name="Trazado 703085" d="M309.682,226.672l35.959,18.5a28.46,28.46,0,0,0,9.867,3.947c10.813,2.032,23.114-5.692,19.206-21.65-2.718-11.1-10.071-38.04-20.325-62.667l-14.537,2.066,10.474,51.783-42.5-35.38Z" transform="translate(-307.829 -164.799)"/>
                </g>
              </g>
            </g>
            <path id="Trazado_703086" data-name="Trazado 703086" d="M240,304.69c-.008.655-.008,1.318-.016,1.981q-.035,8.127-.209,16.617H190.287c.962-5.555,8.81-31.022,9.585-42.751.712-12.671-1.415-32.959-3.4-51.541-1.584-14.951-3.081-28.8-2.919-36.7a14.106,14.106,0,0,1,10.811-13.367c.623-.145,1.31-.306,2.062-.469,3.364-.736,7.908-1.625,12.63-2.3.453-.065.889-.121,1.318-.187.518-.064,1.019-.129,1.5-.193.833-.1,1.609-.187,2.337-.267a72.017,72.017,0,0,1,8.676-.453h.2a.29.29,0,0,1,.008.082c.008.04.016.089.024.145.057.412.178,1.383.364,2.879.315,2.572.792,6.688,1.351,12.194,1.2,11.886,2.765,30.242,3.857,53.465.841,17.693,1.39,38.223,1.3,60.872" transform="translate(-35.191 -32.372)" fill="#407bff"/>
            <g id="Grupo_999273" data-name="Grupo 999273" transform="translate(160.179 168.038)" opacity="0.2">
              <g id="Grupo_999272" data-name="Grupo 999272">
                <g id="Grupo_999271" data-name="Grupo 999271" clip-path="url(#clip-path-9)">
                  <path id="Trazado_703087" data-name="Trazado 703087" d="M196.524,224.223l2.643,25.362,7.164-43.42Z" transform="translate(-196.524 -206.166)"/>
                </g>
              </g>
            </g>
            <path id="Trazado_703088" data-name="Trazado 703088" d="M311.667,227.182c-.6,2.289-1.188,4.5-1.779,6.663-1.884,6.962-3.663,13.31-5.029,19.407-2.588,11.45-3.736,21.994-1.488,33.994,1.2,6.445,2.272,13.22,3.2,20.061.76,5.539,1.431,11.119,2.03,16.617H282.008q.279-8.612.42-16.617c.016-.63.024-1.253.041-1.875v-.105c.412-24.364-.121-45.476-1.068-63.112-1.124-21.081-2.846-37.188-4.269-47.935-.6-4.544-1.148-8.126-1.576-10.722-.016-.105-.033-.194-.049-.291-.04-.251-.081-.485-.113-.7-.024-.17-.056-.332-.081-.485-.049-.284-.1-.558-.146-.809-.137-.825-.258-1.472-.347-1.933-.041-.243-.081-.429-.105-.566a.03.03,0,0,0-.008-.024c-.008-.056-.016-.105-.024-.145-.016-.073-.024-.113-.024-.113.5.016,1,.033,1.488.056.105.008.226.016.34.016l.339.024c9.841.566,18.833,3.242,24.872,7.212.316.21.655,2.313,1.027,2.757,4.278,5.143,11.329,25.326,8.944,38.627" transform="translate(-50.794 -33.009)" fill="#407bff"/>
            <g id="Grupo_999276" data-name="Grupo 999276" transform="translate(183.868 142.627)" opacity="0.7" style="isolation: isolate">
              <g id="Grupo_999275" data-name="Grupo 999275">
                <g id="Grupo_999274" data-name="Grupo 999274" clip-path="url(#clip-path-10)">
                  <path id="Trazado_703089" data-name="Trazado 703089" d="M239.616,175.042s3.667,21.809,5.61,68.777c-8.829-22.373-15.18-42.114-15.18-42.114s5.463-3.787,7.1-5.26L227.46,192.1c-.4-2.7-1.873-15.956-1.873-15.956,10.81-1.521,14.029-1.1,14.029-1.1" transform="translate(-225.587 -174.989)" fill="#fff"/>
                </g>
              </g>
            </g>
            <g id="Grupo_999279" data-name="Grupo 999279" transform="translate(223.867 145.466)" opacity="0.7" style="isolation: isolate">
              <g id="Grupo_999278" data-name="Grupo 999278">
                <g id="Grupo_999277" data-name="Grupo 999277" clip-path="url(#clip-path-11)">
                  <path id="Trazado_703090" data-name="Trazado 703090" d="M274.662,178.487s3.379,14.994,6.976,67.072c4.2-17.479,9.959-38.967,9.959-38.967a68.159,68.159,0,0,0-7.672-7.893l7.672-.881s-4.069-13.344-5.16-17.966a48.825,48.825,0,0,0-11.775-1.364" transform="translate(-274.662 -178.472)" fill="#fff"/>
                </g>
              </g>
            </g>
            <path id="Trazado_703091" data-name="Trazado 703091" d="M275.22,78.5a38.919,38.919,0,0,1,3.009,10.8,15.166,15.166,0,0,1-2.7,10.653c4.4-1.112,7.44-5.71,7.2-10.242,2.112,3.473,1.823,8.443.351,12.232,4.8-1.875,7.934-7.613,6.445-12.544,3.656,2.99,6.138,7.511,7.715,11.963,1.581-10.25-4.353-21.192-13.643-25.8a8.021,8.021,0,0,0-4.692-1.064c-1.611.25-4.29,2.489-3.689,4" transform="translate(-50.883 -13.766)" fill="#263238"/>
            <path id="Trazado_703092" data-name="Trazado 703092" d="M248.384,65.527c25.632,2.262,25.2,19.206,4.321,31.738-11.6,6.913-23.432,26.45-11.386,47.349,3.836,6.653-52.29,30.586-32.344-36.364,10.516-35.3,19.4-47.581,39.41-42.723" transform="translate(-37.852 -11.931)" fill="#263238"/>
            <path id="Trazado_703093" data-name="Trazado 703093" d="M123.108,157.754c3.214-6.365,3.656-10.752,4.021-17.144l-21.322-.621,4.736,16.874Z" transform="translate(-19.568 -25.889)" fill="#ffb573"/>
            <path id="Trazado_703094" data-name="Trazado 703094" d="M105.685,136.805l21.321.621-4.671-11.29a5.355,5.355,0,0,0-4.906-3.308l-6.888-.055a5.355,5.355,0,0,0-5.386,5.7Z" transform="translate(-19.445 -22.705)" fill="#ffb573"/>
            <path id="Trazado_703095" data-name="Trazado 703095" d="M145.806,201.578a77.822,77.822,0,0,1-7.577,3.258c-1.164.435-4.512,1.263-4.189,1.344l3.757.954c-2.3-.778-10.35-45.322-11.9-49.562l-15.3.43c-.066,5.344-2.406,34.352,6.825,67.546,6.351,28.652,56.366-6.089,62.183-9.655,13.873-8.505,14.77-43.761,8.681-39.782,0,0-37.208,22.876-42.488,25.469" transform="translate(-20.397 -29.141)" fill="#407bff"/>
            <g id="Grupo_999282" data-name="Grupo 999282" transform="translate(89.895 128.43)" opacity="0.1" style="isolation: isolate">
              <g id="Grupo_999281" data-name="Grupo 999281">
                <g id="Grupo_999280" data-name="Grupo 999280" clip-path="url(#clip-path-12)">
                  <path id="Trazado_703096" data-name="Trazado 703096" d="M145.806,201.578a77.822,77.822,0,0,1-7.577,3.258c-1.164.435-4.512,1.263-4.189,1.344l3.757.954c-2.3-.778-10.35-45.322-11.9-49.562l-15.3.43c-.066,5.344-2.406,34.352,6.825,67.546,6.351,28.652,56.366-6.089,62.183-9.655,13.873-8.505,14.77-43.761,8.681-39.782,0,0-37.208,22.876-42.488,25.469" transform="translate(-110.292 -157.571)" fill="#fff"/>
                </g>
              </g>
            </g>
          </g>
        </g>
        <g id="Grupo_999286" data-name="Grupo 999286">
          <g id="Grupo_999285" data-name="Grupo 999285" clip-path="url(#clip-path)">
            <path id="Trazado_703097" data-name="Trazado 703097" d="M132.551,18.622c-27.512,1.2-49.311,15.522-49.391,33.061-.085,18.4,23.792,33.48,53.224,33.616a3.179,3.179,0,0,1,3.014,2.9c1.031,6.04,4.619,7.585,7.784,8.947l.445.193a32.331,32.331,0,0,0,4.652,1.574,17.592,17.592,0,0,1-2.148-1.166c-2.546-1.677-4.5-4.824-3.314-7.593,2.034-4.749,10.152-7.274,14.515-8.631,1.108-.343,1.984-.617,2.424-.818,16.093-5.958,26.093-16.883,26.146-28.53.085-18.409-23.786-33.495-53.211-33.629q-2.088-.01-4.14.081" transform="translate(-15.379 -3.429)" fill="#fff"/>
            <path id="Trazado_703098" data-name="Trazado 703098" d="M152.095,99.54a.833.833,0,0,1-.209-.027,33,33,0,0,1-4.768-1.615l-.445-.192c-3.188-1.373-7.157-3.081-8.263-9.558a2.368,2.368,0,0,0-2.214-2.219c-29.883-.138-54.123-15.585-54.036-34.434.082-17.771,22.118-32.649,50.171-33.872,1.386-.06,2.792-.087,4.178-.082,14.383.066,27.914,3.649,38.1,10.088,10.308,6.514,15.961,15.166,15.919,24.36-.055,12-10.277,23.219-26.679,29.292-.411.19-1.208.442-2.466.831-4.235,1.317-12.121,3.769-14.007,8.173-1.01,2.36.751,5.1,3.013,6.592a16.716,16.716,0,0,0,2.045,1.108.815.815,0,0,1-.344,1.554M132.4,19.252C105.22,20.437,83.868,34.6,83.79,51.5c-.082,17.951,23.43,32.664,52.413,32.8a3.974,3.974,0,0,1,3.814,3.574c.945,5.541,4.11,6.961,7.2,8.291-1.517-1.884-2.284-4.292-1.33-6.52,2.182-5.1,10.535-7.693,15.022-9.088.989-.306,1.922-.6,2.328-.781,15.8-5.853,25.618-16.494,25.67-27.793.04-8.612-5.344-16.771-15.16-22.974-9.934-6.278-23.159-9.772-37.239-9.836-1.363-.007-2.74.02-4.1.08m-.036-.814h0Z" transform="translate(-15.194 -3.244)" fill="#407bff"/>
            <path id="Trazado_703099" data-name="Trazado 703099" d="M162.3,41.808a29.052,29.052,0,0,1-1.834,8.68,36.523,36.523,0,0,0-1.663,6.578,35.12,35.12,0,0,0-.106,5.078,25.788,25.788,0,0,1-.571,7.564,13.282,13.282,0,0,1-3.285,5.665l-.807-1.532a11.435,11.435,0,0,0,2.519-4.564,24.291,24.291,0,0,0,.513-7.1,36.052,36.052,0,0,1,.122-5.3,36.727,36.727,0,0,1,1.728-6.887,27.8,27.8,0,0,0,1.752-8.191,13.444,13.444,0,0,0-26.041-4.866l-.97-1.834a15.191,15.191,0,0,1,5.5-6.211A15.112,15.112,0,0,1,162.3,41.808" transform="translate(-24.718 -4.928)" fill="#407bff"/>
            <path id="Trazado_703100" data-name="Trazado 703100" d="M133.363,45.391a.812.812,0,0,1-.766.856.824.824,0,0,1-.864-.766,14.211,14.211,0,0,1,.171-3.114l1.451,2.747c0,.1,0,.187.008.277" transform="translate(-24.358 -7.835)" fill="#407bff"/>
            <path id="Trazado_703101" data-name="Trazado 703101" d="M155.79,36.559a.812.812,0,0,1-1.141.179A10.08,10.08,0,0,0,140.915,38.6a11.917,11.917,0,0,0-2.144,6.072l-1.263-2.388v-.008a12.676,12.676,0,0,1,2.095-4.638,11.6,11.6,0,0,1,16.008-2.209.81.81,0,0,1,.179,1.133" transform="translate(-25.43 -6.135)" fill="#407bff"/>
            <path id="Trazado_703102" data-name="Trazado 703102" d="M140.458,64.477a6.287,6.287,0,0,1-3.285,4.858.787.787,0,0,1-.35.082.814.814,0,0,1-.35-1.549c1.777-.84,2.527-3.122,2.478-5.013a19.346,19.346,0,0,0-.864-4.589c-.179-.644-.35-1.3-.505-1.94a32.385,32.385,0,0,1-.685-4.189l2.519,4.8.008.008c.073.3.155.6.236.888.114.432.236.856.342,1.3v.008a4.169,4.169,0,0,0,.456,5.339" transform="translate(-25.153 -9.642)" fill="#407bff"/>
            <path id="Trazado_703103" data-name="Trazado 703103" d="M141.315,64.4a8.421,8.421,0,0,1-.122,1.663,4.169,4.169,0,0,1-.456-5.339,16.708,16.708,0,0,1,.579,3.676" transform="translate(-25.887 -11.231)" fill="#407bff"/>
            <path id="Trazado_703104" data-name="Trazado 703104" d="M152.374,86.746a13.2,13.2,0,0,1-4.646,1.8,12.758,12.758,0,0,1-2.225.2,13.624,13.624,0,0,1-10.938-5.551.8.8,0,0,1-.122-.253v-.008a.8.8,0,0,1-.033-.9c.228-.375,2.323-3.709,4.116-4.711,1.875-1.035,3.888-.261,5.828.489a9.711,9.711,0,0,0,3.823.945l.8,1.532a9.766,9.766,0,0,1-5.208-.954c-1.736-.676-3.244-1.255-4.45-.587a14.042,14.042,0,0,0-3.244,3.717,11.863,11.863,0,0,0,11.37,4.475,11.282,11.282,0,0,0,4.165-1.655Z" transform="translate(-24.835 -14.207)" fill="#407bff"/>
            <path id="Trazado_703105" data-name="Trazado 703105" d="M157.945,72.794a11.577,11.577,0,0,1-2.307,3.529l-.791-1.508a11.378,11.378,0,0,0,1.606-2.69c.831-1.842.815-5.958.742-7.393a.816.816,0,0,1,1.63-.09c.008.228.277,5.583-.88,8.151" transform="translate(-28.637 -11.813)" fill="#407bff"/>
            <path id="Trazado_703106" data-name="Trazado 703106" d="M144.738,67.151a3.421,3.421,0,0,1-.587.049,4.174,4.174,0,0,1-4.173-4.173,4.109,4.109,0,0,1,.758-2.4v-.008a3.378,3.378,0,0,1,.35-.416Z" transform="translate(-25.887 -11.135)" fill="#407bff"/>
            <path id="Trazado_703107" data-name="Trazado 703107" d="M149.259,62.72a4.128,4.128,0,0,1-.791,2.437l-3.48-6.6a.334.334,0,0,1,.09-.008,4.178,4.178,0,0,1,4.181,4.173" transform="translate(-26.814 -10.828)" fill="#407bff"/>
            <path id="Trazado_703108" data-name="Trazado 703108" d="M153.711,79.617a.77.77,0,0,1-.375.09.817.817,0,0,1-.725-.432l-1.06-2.013-.766-1.459-2.5-4.76-.766-1.451L143,61l-3.847-7.311-2.193-4.173v-.008l-1.989-3.774-2.592-4.923-1.239-2.356-4.866-9.251a.822.822,0,0,1,.725-1.2.822.822,0,0,1,.717.44l4.132,7.857,1.027,1.956,2.29,4.336V42.6l1.426,2.722,4.043,7.686,3.766,7.148,4.54,8.632.766,1.459,2.347,4.458.791,1.508,1.206,2.3a.812.812,0,0,1-.342,1.1" transform="translate(-23.336 -5.18)" fill="#407bff"/>
            <path id="Trazado_703109" data-name="Trazado 703109" d="M153.711,79.617a.77.77,0,0,1-.375.09.817.817,0,0,1-.725-.432l-1.06-2.013-.766-1.459-2.5-4.76-.766-1.451L143,61l-3.847-7.311-2.193-4.173v-.008l-1.989-3.774-2.592-4.923-1.239-2.356-4.866-9.251a.822.822,0,0,1,.725-1.2.822.822,0,0,1,.717.44l4.132,7.857,1.027,1.956,2.29,4.336V42.6l1.426,2.722,4.043,7.686,3.766,7.148,4.54,8.632.766,1.459,2.347,4.458.791,1.508,1.206,2.3a.812.812,0,0,1-.342,1.1" transform="translate(-23.336 -5.18)" fill="#fff"/>
            <path id="Trazado_703110" data-name="Trazado 703110" d="M153.711,79.617a.77.77,0,0,1-.375.09.817.817,0,0,1-.725-.432l-1.06-2.013-.766-1.459-2.5-4.76-.766-1.451L143,61l-3.847-7.311-2.193-4.173v-.008l-1.989-3.774-2.592-4.923-1.239-2.356-4.866-9.251a.822.822,0,0,1,.725-1.2.822.822,0,0,1,.717.44l4.132,7.857,1.027,1.956,2.29,4.336V42.6l1.426,2.722,4.043,7.686,3.766,7.148,4.54,8.632.766,1.459,2.347,4.458.791,1.508,1.206,2.3a.812.812,0,0,1-.342,1.1" transform="translate(-23.336 -5.18)" fill="#407bff"/>
          </g>
        </g>
        <g id="Grupo_999288" data-name="Grupo 999288">
          <g id="Grupo_999287" data-name="Grupo 999287" clip-path="url(#clip-path)">
            <path id="Trazado_703111" data-name="Trazado 703111" d="M87.263,336.862H349.982a6.929,6.929,0,0,1,6.928,6.928v2.893a6.928,6.928,0,0,1-6.928,6.928H87.263a6.928,6.928,0,0,1-6.928-6.928V343.79a6.928,6.928,0,0,1,6.928-6.928" transform="translate(-14.857 -62.298)" fill="#263238"/>
          </g>
        </g>
        <g id="Grupo_999323" data-name="Grupo 999323">
          <g id="Grupo_999322" data-name="Grupo 999322" clip-path="url(#clip-path)">
            <path id="Trazado_703112" data-name="Trazado 703112" d="M336.291,290.517v9.345a.9.9,0,0,0,0,1.79c3.562,0,7.125.024,10.69.045V288.728h-10.69a.9.9,0,0,0,0,1.789" transform="translate(-62.033 -53.397)" fill="#407bff"/>
            <g id="Grupo_999291" data-name="Grupo 999291" transform="translate(273.394 235.331)" opacity="0.3">
              <g id="Grupo_999290" data-name="Grupo 999290">
                <g id="Grupo_999289" data-name="Grupo 999289" clip-path="url(#clip-path-16)">
                  <path id="Trazado_703113" data-name="Trazado 703113" d="M336.291,290.517v9.345a.9.9,0,0,0,0,1.79c3.562,0,7.125.024,10.69.045V288.728h-10.69a.9.9,0,0,0,0,1.789" transform="translate(-335.427 -288.728)" fill="#fff"/>
                </g>
              </g>
            </g>
            <rect id="Rectángulo_345127" data-name="Rectángulo 345127" width="8.304" height="9.332" transform="translate(274.258 237.134)" fill="#407bff"/>
            <g id="Grupo_999294" data-name="Grupo 999294" transform="translate(274.258 237.134)" opacity="0.6">
              <g id="Grupo_999293" data-name="Grupo 999293">
                <g id="Grupo_999292" data-name="Grupo 999292" clip-path="url(#clip-path-17)">
                  <rect id="Rectángulo_345128" data-name="Rectángulo 345128" width="8.304" height="9.332" transform="translate(0 0)" fill="#fff"/>
                </g>
              </g>
            </g>
            <path id="Trazado_703114" data-name="Trazado 703114" d="M344.537,289.826h45.838c1.979,0,3.583,2.492,3.583,5.568s-1.6,5.567-3.583,5.567H344.537Z" transform="translate(-63.718 -53.6)" fill="#407bff"/>
            <g id="Grupo_999297" data-name="Grupo 999297" transform="translate(280.819 236.226)" opacity="0.9">
              <g id="Grupo_999296" data-name="Grupo 999296">
                <g id="Grupo_999295" data-name="Grupo 999295" clip-path="url(#clip-path-18)">
                  <path id="Trazado_703115" data-name="Trazado 703115" d="M344.537,289.826h45.838c1.979,0,3.583,2.492,3.583,5.568s-1.6,5.567-3.583,5.567H344.537Z" transform="translate(-344.537 -289.826)" fill="#fff"/>
                </g>
              </g>
            </g>
            <path id="Trazado_703116" data-name="Trazado 703116" d="M344.341,301.621c9.425,0,35.916.17,45.339,0,6.455-.117,6.8-12.489.471-12.924-4.414-.3-8.953,0-13.375,0H344.341a.9.9,0,0,0,0,1.789H388.19c2.068,0,3.546.024,4.346,2.462.691,2.11.474,6.417-2.356,6.883a6.313,6.313,0,0,1-.97,0H344.341a.9.9,0,0,0,0,1.789" transform="translate(-63.522 -53.366)" fill="#407bff"/>
            <g id="Grupo_999300" data-name="Grupo 999300" transform="translate(279.955 235.197)" opacity="0.2">
              <g id="Grupo_999299" data-name="Grupo 999299">
                <g id="Grupo_999298" data-name="Grupo 999298" clip-path="url(#clip-path-19)">
                  <path id="Trazado_703117" data-name="Trazado 703117" d="M344.341,301.621c9.425,0,35.916.17,45.339,0,6.455-.117,6.8-12.489.471-12.924-4.414-.3-8.953,0-13.375,0H344.341a.9.9,0,0,0,0,1.789H388.19c2.068,0,3.546.024,4.346,2.462.691,2.11.474,6.417-2.356,6.883a6.313,6.313,0,0,1-.97,0H344.341a.9.9,0,0,0,0,1.789" transform="translate(-343.477 -288.563)" fill="#fff"/>
                </g>
              </g>
            </g>
            <path id="Trazado_703118" data-name="Trazado 703118" d="M338.261,306.021v8.654a.829.829,0,0,0,0,1.657c3.3,0,6.6.023,9.9.042V304.364h-9.9a.829.829,0,0,0,0,1.657" transform="translate(-62.409 -56.288)" fill="#407bff"/>
            <g id="Grupo_999303" data-name="Grupo 999303" transform="translate(275.052 248.076)" opacity="0.3">
              <g id="Grupo_999302" data-name="Grupo 999302">
                <g id="Grupo_999301" data-name="Grupo 999301" clip-path="url(#clip-path-20)">
                  <path id="Trazado_703119" data-name="Trazado 703119" d="M338.261,306.021v8.654a.829.829,0,0,0,0,1.657c3.3,0,6.6.023,9.9.042V304.364h-9.9a.829.829,0,0,0,0,1.657" transform="translate(-337.461 -304.364)" fill="#fff"/>
                </g>
              </g>
            </g>
            <rect id="Rectángulo_345133" data-name="Rectángulo 345133" width="7.69" height="8.642" transform="translate(275.852 249.745)" fill="#407bff"/>
            <g id="Grupo_999306" data-name="Grupo 999306" transform="translate(275.852 249.745)" opacity="0.6">
              <g id="Grupo_999305" data-name="Grupo 999305">
                <g id="Grupo_999304" data-name="Grupo 999304" clip-path="url(#clip-path-21)">
                  <rect id="Rectángulo_345134" data-name="Rectángulo 345134" width="7.69" height="8.642" fill="#fff"/>
                </g>
              </g>
            </g>
            <path id="Trazado_703120" data-name="Trazado 703120" d="M345.9,305.38H388.35c1.832,0,3.318,2.308,3.318,5.156s-1.486,5.155-3.318,5.155H345.9Z" transform="translate(-63.97 -56.476)" fill="#407bff"/>
            <g id="Grupo_999309" data-name="Grupo 999309" transform="translate(281.928 248.904)" opacity="0.9">
              <g id="Grupo_999308" data-name="Grupo 999308">
                <g id="Grupo_999307" data-name="Grupo 999307" clip-path="url(#clip-path-22)">
                  <path id="Trazado_703121" data-name="Trazado 703121" d="M345.9,305.38H388.35c1.832,0,3.318,2.308,3.318,5.156s-1.486,5.155-3.318,5.155H345.9Z" transform="translate(-345.898 -305.38)" fill="#fff"/>
                </g>
              </g>
            </g>
            <path id="Trazado_703122" data-name="Trazado 703122" d="M345.716,316.3c8.728,0,33.263.157,41.99,0,5.978-.108,6.3-11.567.435-11.969-4.088-.28-8.292,0-12.387,0H345.716a.829.829,0,0,0,0,1.658h40.61c1.915,0,3.284.021,4.024,2.28.641,1.954.439,5.943-2.182,6.375a5.8,5.8,0,0,1-.9,0H345.716a.829.829,0,0,0,0,1.657" transform="translate(-63.788 -56.26)" fill="#407bff"/>
            <path id="Trazado_703123" data-name="Trazado 703123" d="M332.173,320.835v10.3a.987.987,0,0,0,0,1.972c3.925,0,7.853.027,11.781.05V318.863H332.173a.986.986,0,0,0,0,1.972" transform="translate(-61.255 -58.97)" fill="#407bff"/>
            <g id="Grupo_999312" data-name="Grupo 999312" transform="translate(269.965 259.893)" opacity="0.3">
              <g id="Grupo_999311" data-name="Grupo 999311">
                <g id="Grupo_999310" data-name="Grupo 999310" clip-path="url(#clip-path-23)">
                  <path id="Trazado_703124" data-name="Trazado 703124" d="M332.173,320.835v10.3a.987.987,0,0,0,0,1.972c3.925,0,7.853.027,11.781.05V318.863H332.173a.986.986,0,0,0,0,1.972" transform="translate(-331.22 -318.863)" fill="#fff"/>
                </g>
              </g>
            </g>
            <rect id="Rectángulo_345138" data-name="Rectángulo 345138" width="9.152" height="10.284" transform="translate(270.918 261.88)" fill="#407bff"/>
            <g id="Grupo_999315" data-name="Grupo 999315" transform="translate(270.918 261.88)" opacity="0.6">
              <g id="Grupo_999314" data-name="Grupo 999314">
                <g id="Grupo_999313" data-name="Grupo 999313" clip-path="url(#clip-path-24)">
                  <rect id="Rectángulo_345139" data-name="Rectángulo 345139" width="9.152" height="10.284" fill="#fff"/>
                </g>
              </g>
            </g>
            <path id="Trazado_703125" data-name="Trazado 703125" d="M341.261,320.072H391.78c2.181,0,3.949,2.747,3.949,6.136s-1.768,6.136-3.949,6.136H341.261Z" transform="translate(-63.112 -59.193)" fill="#407bff"/>
            <g id="Grupo_999318" data-name="Grupo 999318" transform="translate(278.149 260.879)" opacity="0.9">
              <g id="Grupo_999317" data-name="Grupo 999317">
                <g id="Grupo_999316" data-name="Grupo 999316" clip-path="url(#clip-path-25)">
                  <path id="Trazado_703126" data-name="Trazado 703126" d="M341.261,320.072H391.78c2.181,0,3.949,2.747,3.949,6.136s-1.768,6.136-3.949,6.136H341.261Z" transform="translate(-341.261 -320.072)" fill="#fff"/>
                </g>
              </g>
            </g>
            <path id="Trazado_703127" data-name="Trazado 703127" d="M341.045,333.073c10.387,0,39.583.187,49.969,0,7.114-.129,7.5-13.765.518-14.243-4.864-.334-9.867,0-14.741,0H341.045a.986.986,0,0,0,0,1.972h48.327c2.278,0,3.908.025,4.789,2.713.762,2.326.522,7.072-2.6,7.586a6.878,6.878,0,0,1-1.069,0H341.045a.987.987,0,0,0,0,1.972" transform="translate(-62.896 -58.936)" fill="#407bff"/>
            <g id="Grupo_999321" data-name="Grupo 999321" transform="translate(277.196 259.744)" opacity="0.2">
              <g id="Grupo_999320" data-name="Grupo 999320">
                <g id="Grupo_999319" data-name="Grupo 999319" clip-path="url(#clip-path-26)">
                  <path id="Trazado_703128" data-name="Trazado 703128" d="M341.045,333.073c10.387,0,39.583.187,49.969,0,7.114-.129,7.5-13.765.518-14.243-4.864-.334-9.867,0-14.741,0H341.045a.986.986,0,0,0,0,1.972h48.327c2.278,0,3.908.025,4.789,2.713.762,2.326.522,7.072-2.6,7.586a6.878,6.878,0,0,1-1.069,0H341.045a.987.987,0,0,0,0,1.972" transform="translate(-340.092 -318.68)"/>
                </g>
              </g>
            </g>
          </g>
        </g>
        <path id="Trazado_703129" data-name="Trazado 703129" d="M122.019,322.353h4.57l-.154-10.865h-4.571Z" transform="translate(-22.537 -57.606)" fill="#407bff"/>
        <g id="Grupo_999328" data-name="Grupo 999328">
          <g id="Grupo_999327" data-name="Grupo 999327" clip-path="url(#clip-path)">
            <path id="Trazado_703130" data-name="Trazado 703130" d="M106.715,334.334c0-5.989,6.551-10.844,14.633-10.844s14.633,4.855,14.633,10.844Z" transform="translate(-19.736 -59.825)" fill="#407bff"/>
            <path id="Trazado_703131" data-name="Trazado 703131" d="M120.157,304.723a23.9,23.9,0,0,0,17.013-7.046l-.669-.669a23.113,23.113,0,0,1-32.687-32.687l-.668-.669a24.059,24.059,0,0,0,17.012,41.072" transform="translate(-17.772 -48.759)" fill="#263238"/>
            <path id="Trazado_703132" data-name="Trazado 703132" d="M120.069,304.986a24.446,24.446,0,0,1-17.286-41.731l.273-.273,1.215,1.214-.273.274a22.727,22.727,0,0,0,32.141,32.141l.273-.273,1.215,1.214-.273.273a24.286,24.286,0,0,1-17.286,7.16m-17.01-40.909a23.672,23.672,0,0,0,33.474,33.473l-.122-.121a23.5,23.5,0,0,1-33.23-33.23Z" transform="translate(-17.684 -48.635)" fill="#263238"/>
            <path id="Trazado_703133" data-name="Trazado 703133" d="M142.044,279.489a20.509,20.509,0,1,1-20.509-20.509,20.509,20.509,0,0,1,20.509,20.509" transform="translate(-18.684 -47.895)" fill="#407bff"/>
            <path id="Trazado_703134" data-name="Trazado 703134" d="M142.044,279.489a20.509,20.509,0,1,1-20.509-20.509,20.509,20.509,0,0,1,20.509,20.509" transform="translate(-18.684 -47.895)" fill="#407bff"/>
            <g id="Grupo_999326" data-name="Grupo 999326" transform="translate(82.343 211.085)" opacity="0.1">
              <g id="Grupo_999325" data-name="Grupo 999325">
                <g id="Grupo_999324" data-name="Grupo 999324" clip-path="url(#clip-path-28)">
                  <path id="Trazado_703135" data-name="Trazado 703135" d="M142.044,279.489a20.509,20.509,0,1,1-20.509-20.509,20.509,20.509,0,0,1,20.509,20.509" transform="translate(-101.027 -258.98)"/>
                </g>
              </g>
            </g>
            <path id="Trazado_703136" data-name="Trazado 703136" d="M129.124,260.77l2.586,1.551v2.469s-1.962-.268-2.586-1.338c0,0,.535-.225-.981-1.131s-1.159-2,.981-1.551" transform="translate(-23.527 -48.207)" fill="#fff"/>
            <path id="Trazado_703137" data-name="Trazado 703137" d="M127.038,284.87l-1.486.713s-.446.862-.357.832-.327,1.783-.238,1.814-.862.8-.862.8l-.446,1.1v1.278l2.148,2.912,1.567.892L126,302.7l.565.208,7.133-5.231.475-1.278,2.11-.832,1.13-2.942,1.278-1.486s.119-1.487,0-1.457-.684.237-.684.237l-1.07-.8a14.416,14.416,0,0,0-2.378-.3c-.119.119-.474-1.382-.474-1.382l-2.082-.58-2.17-1.426-1.576.3Z" transform="translate(-22.868 -52.683)" fill="#fff"/>
            <path id="Trazado_703138" data-name="Trazado 703138" d="M122.749,280.357H123.9l1.634.857,3.051.765.144.244-3.024-.048.56-.35-.448-.285-1.219-.03.148-.148-1.261-.645s-.79-.187-.82-.1l-.327.041Z" transform="translate(-22.625 -51.849)" fill="#fff"/>
            <path id="Trazado_703139" data-name="Trazado 703139" d="M125.575,282.584l-.279-.271-.457.023.19.249Z" transform="translate(-23.087 -52.21)" fill="#fff"/>
            <path id="Trazado_703140" data-name="Trazado 703140" d="M135.035,263.195h-.446v.547l.446.267h.4V263.6Z" transform="translate(-24.891 -48.675)" fill="#fff"/>
            <path id="Trazado_703141" data-name="Trazado 703141" d="M128.85,268.534a36.743,36.743,0,0,0-4.28,1.872,2.432,2.432,0,0,0-.973,2.237l-1.88,1.062.446,2.051-.446.267L121,274.33a17.323,17.323,0,0,0-3.54-.178c-1.043.178-1.275,2.229-1.275,2.229l.624,1.694,1.426.09.178-.981,1.516.089-.981,1.872,1.783.268.174,1.315,1.787,1.359s.357.447,0,.624-8.827-4.9-9.63-6.152-1.828-4.682-1.025-7.089c.652-1.955,1.862-3.763,2.247-4.947v0c0-.014.008-.027.013-.04h0a.668.668,0,0,0,.029-.1.72.72,0,0,0-.549-.841c-.312-.09-.892.267-.892.267h-1.138l1.183-.675.49-.518.312-.279,1.16-.491-.045-.356a6.438,6.438,0,0,1,2.185-.826l-.848.647h.892l.179,1.01h1.783s-.446-.118.624-.708,4.547-.843,4.547-.843l-1.07,1.551,2.319,1.309-.268.981-1.6-.447v-.535l-.989-.6-.09,1.047-.356.446-.446-.357-1.257,1.249,2.237,2.18.357-2.8,3.21.713Z" transform="translate(-20.667 -48.207)" fill="#fff"/>
          </g>
        </g>
      </g>
    </g>
    <rect id="Rectángulo_345535" data-name="Rectángulo 345535" width="464" height="367" transform="translate(1296 -12682)" fill="none"/>
  </g>
</svg>
