<svg id="Grupo_999461" data-name="Grupo 999461" xmlns="http://www.w3.org/2000/svg" xmlns:xlink="http://www.w3.org/1999/xlink" width="400" height="387.904" viewBox="0 0 400 387.904">
  <defs>
    <clipPath id="clip-path">
      <rect id="Rectángulo_345227" data-name="Rectángulo 345227" width="400" height="387.904" fill="none"/>
    </clipPath>
    <clipPath id="clip-path-7">
      <rect id="Rectángulo_345222" data-name="Rectángulo 345222" width="55.014" height="22.198" fill="none"/>
    </clipPath>
    <clipPath id="clip-path-8">
      <rect id="Rectángulo_345223" data-name="Rectángulo 345223" width="62.855" height="14.094" fill="none"/>
    </clipPath>
    <clipPath id="clip-path-9">
      <rect id="Rectángulo_345224" data-name="Rectángulo 345224" width="37.037" height="26.328" fill="none"/>
    </clipPath>
    <clipPath id="clip-path-10">
      <rect id="Rectángulo_345225" data-name="Rectángulo 345225" width="201.5" height="15.372" fill="none"/>
    </clipPath>
  </defs>
  <g id="Grupo_999460" data-name="Grupo 999460" clip-path="url(#clip-path)">
    <path id="Trazado_703805" data-name="Trazado 703805" d="M134.509,11.822h-3.49l-.564,1.428h-2.165l3.467-8.075h2.165l3.386,8.075h-2.246Zm-.622-1.613-1.105-2.879-1.129,2.879Z" transform="translate(-16.72 -0.674)" fill="#e0e0e0"/>
    <g id="Grupo_999439" data-name="Grupo 999439">
      <g id="Grupo_999438" data-name="Grupo 999438" clip-path="url(#clip-path)">
        <path id="Trazado_703806" data-name="Trazado 703806" d="M26.486,370.5a8.854,8.854,0,0,1-6.962-3.224l2.4-3.567a6.4,6.4,0,0,0,4.194,2.254c1.285,0,2.083-.8,2.083-2.311v-9.073H21.35v-4.307h12.1v13.5c0,4.28-2.682,6.733-6.962,6.733" transform="translate(-2.545 -45.653)" fill="#e0e0e0"/>
        <path id="Trazado_703807" data-name="Trazado 703807" d="M136.234,283.5l-3.634-5.413-1.8,2V283.5h-3.655v-14H130.8v5.871l5.252-5.871h4.234L135.1,275.3l5.512,8.208Z" transform="translate(-16.572 -35.126)" fill="#e0e0e0"/>
        <path id="Trazado_703808" data-name="Trazado 703808" d="M27.429,277.887l6.591,8.748v-8.748h3.524v14.53H34.228l-6.592-8.706v8.706H24.092v-14.53Z" transform="translate(-3.14 -36.218)" fill="#e0e0e0"/>
        <path id="Trazado_703809" data-name="Trazado 703809" d="M378.4,243.357l2.142,4.711,2.143-4.711h2.3v8.074h-1.865l-.011-5.115-1.878,4.308h-1.382l-1.878-4.308v5.115H376.1v-8.074Z" transform="translate(-49.019 -31.718)" fill="#e0e0e0"/>
        <path id="Trazado_703810" data-name="Trazado 703810" d="M303.392,3.2l2.142,4.711L307.676,3.2h2.3v8.075h-1.866L308.1,6.164l-1.878,4.307h-1.382l-1.878-4.307v5.115h-1.878V3.2Z" transform="translate(-39.242 -0.418)" fill="#e0e0e0"/>
        <path id="Trazado_703811" data-name="Trazado 703811" d="M452.138,286.363V297.9h6.287v3.3H448.265V286.363Z" transform="translate(-58.424 -37.323)" fill="#e0e0e0"/>
        <path id="Trazado_703812" data-name="Trazado 703812" d="M386.419,5.175v6.277h3.421v1.8h-5.529V5.175Z" transform="translate(-50.089 -0.675)" fill="#e0e0e0"/>
        <path id="Trazado_703813" data-name="Trazado 703813" d="M213.422,48.478v6.277h3.421v1.8h-5.529V48.478Z" transform="translate(-27.542 -6.318)" fill="#e0e0e0"/>
        <path id="Trazado_703814" data-name="Trazado 703814" d="M435.647,135.667c-1.809,0-3,.657-3,1.974,0,4.77,15.175,2.056,15.175,12.419,0,5.881-5.181,8.883-11.6,8.883a21.654,21.654,0,0,1-13.282-4.606l2.919-5.881c2.96,2.55,7.443,4.359,10.446,4.359,2.221,0,3.619-.823,3.619-2.344,0-4.894-15.175-1.932-15.175-12.132,0-5.387,4.565-8.8,11.514-8.8a22.116,22.116,0,0,1,11.515,3.248l-2.839,5.963c-3.043-1.727-6.908-3.084-9.293-3.084" transform="translate(-55.124 -16.883)" fill="#e0e0e0"/>
        <path id="Trazado_703815" data-name="Trazado 703815" d="M336.619,298.549c-1.809,0-3,.658-3,1.974,0,4.77,15.175,2.056,15.175,12.419,0,5.881-5.181,8.884-11.6,8.884a21.66,21.66,0,0,1-13.282-4.607l2.919-5.881c2.96,2.55,7.443,4.36,10.446,4.36,2.22,0,3.619-.823,3.619-2.345,0-4.894-15.175-1.932-15.175-12.132,0-5.387,4.565-8.8,11.514-8.8a22.116,22.116,0,0,1,11.515,3.248l-2.839,5.963c-3.043-1.726-6.908-3.084-9.293-3.084" transform="translate(-42.217 -38.113)" fill="#e0e0e0"/>
        <path id="Trazado_703816" data-name="Trazado 703816" d="M238.8,95.272c0,7.344-5.376,12.334-13.353,12.334H215.08V82.973h10.612c7.8,0,13.108,4.99,13.108,12.3m-6.571.07c0-4.252-2.776-7.133-6.676-7.133H221.51v14.2h4.358c3.725,0,6.36-2.846,6.36-7.063" transform="translate(-28.032 -10.814)" fill="#e0e0e0"/>
        <path id="Trazado_703817" data-name="Trazado 703817" d="M387.506,193.789l-2.18-4.147h-2.908v4.147h-3.911V178.8h6.733c3.976,0,6.242,1.924,6.242,5.259a5.068,5.068,0,0,1-2.672,4.832l3.121,4.9Zm-5.088-7.269h2.844a2.189,2.189,0,0,0,2.5-2.33c0-1.476-.919-2.266-2.5-2.266h-2.844Z" transform="translate(-49.333 -23.304)" fill="#e0e0e0"/>
        <path id="Trazado_703818" data-name="Trazado 703818" d="M402.949,287.159V292.2h-7.012v18.363h-6.109V292.2h-6.944v-5.041Z" transform="translate(-49.903 -37.427)" fill="#e0e0e0"/>
        <path id="Trazado_703819" data-name="Trazado 703819" d="M338.792,231.126a4.242,4.242,0,0,1-3.3,4.148,4.721,4.721,0,0,1,3.929,4.829c0,3.273-2.865,5.32-7.366,5.32h-9.44V226.3H331.7c4.338,0,7.094,1.883,7.094,4.828m-5.129.873c0-1.145-.846-1.827-2.238-1.8h-3.82v3.711h3.82c1.391,0,2.238-.71,2.238-1.911m.6,7.477c0-1.2-1.091-1.965-2.838-1.937h-3.82v4.01h3.82c1.746,0,2.838-.764,2.838-2.073" transform="translate(-42.048 -29.494)" fill="#e0e0e0"/>
        <path id="Trazado_703820" data-name="Trazado 703820" d="M434.454,27.884a4.241,4.241,0,0,1-3.3,4.147,4.721,4.721,0,0,1,3.929,4.829c0,3.273-2.865,5.32-7.366,5.32h-9.44V23.056h9.085c4.339,0,7.095,1.882,7.095,4.828m-5.13.873c0-1.145-.845-1.828-2.237-1.8h-3.82v3.711h3.82c1.391,0,2.237-.71,2.237-1.911m.6,7.476c0-1.2-1.092-1.965-2.838-1.937h-3.82v4.011h3.82c1.745,0,2.838-.764,2.838-2.074" transform="translate(-54.516 -3.005)" fill="#e0e0e0"/>
        <path id="Trazado_703821" data-name="Trazado 703821" d="M176.867,238.327a5.407,5.407,0,0,0,0,10.8,7.091,7.091,0,0,0,4.747-2.238l2.919,3.138a11.429,11.429,0,0,1-7.939,3.546,9.683,9.683,0,0,1-10.04-9.822c0-5.511,4.392-9.658,10.231-9.658a10.973,10.973,0,0,1,7.721,3.273l-2.892,3.466a6.509,6.509,0,0,0-4.747-2.511" transform="translate(-21.708 -30.511)" fill="#e0e0e0"/>
        <path id="Trazado_703822" data-name="Trazado 703822" d="M422.755,353.641a5.407,5.407,0,0,0,0,10.8,7.092,7.092,0,0,0,4.748-2.238l2.919,3.138a11.423,11.423,0,0,1-7.939,3.547,9.683,9.683,0,0,1-10.039-9.823c0-5.511,4.392-9.658,10.231-9.658a10.973,10.973,0,0,1,7.721,3.273l-2.892,3.466a6.509,6.509,0,0,0-4.748-2.511" transform="translate(-53.756 -45.541)" fill="#e0e0e0"/>
        <path id="Trazado_703823" data-name="Trazado 703823" d="M356.858,55.955H344.4l-2.017,5.1h-7.73L347.03,32.227h7.731l12.09,28.828h-8.019Zm-2.22-5.757-3.949-10.281L346.659,50.2Z" transform="translate(-43.617 -4.2)" fill="#e0e0e0"/>
        <path id="Trazado_703824" data-name="Trazado 703824" d="M282.781,42.346v6.075h-4.964v-5.94l-7-13.074h4.964l4.5,8.164,4.394-8.164h4.964Z" transform="translate(-35.297 -3.833)" fill="#e0e0e0"/>
        <path id="Trazado_703825" data-name="Trazado 703825" d="M167.748,77.719c2.46,0,4.161-1.671,4.161-4.434V60.922h5.559V73.284c0,5.619-3.767,9.173-9.751,9.173-6.015,0-9.872-3.554-9.872-9.173V60.922H163.4V73.284a4.154,4.154,0,0,0,4.344,4.434" transform="translate(-20.573 -7.94)" fill="#e0e0e0"/>
        <path id="Trazado_703826" data-name="Trazado 703826" d="M87.938,295.994l-.034,4.837H76.638V306h10.4v4.837h-10.4v8.384H70.575V295.994Z" transform="translate(-9.198 -38.578)" fill="#e0e0e0"/>
        <path id="Trazado_703827" data-name="Trazado 703827" d="M6.461,210.092v7.074h7v-7.074h4.527v17.339H13.461v-6.654h-7v6.654H1.935V210.092Z" transform="translate(-0.252 -27.382)" fill="#e0e0e0"/>
        <rect id="Rectángulo_345214" data-name="Rectángulo 345214" width="4.502" height="17.246" transform="translate(321.591 89.8)" fill="#e0e0e0"/>
        <path id="Trazado_703828" data-name="Trazado 703828" d="M219.551,10.415c0,6.015-4.753,10.533-11.12,10.533s-11.12-4.519-11.12-10.533C197.311,4.43,202.065,0,208.431,0s11.12,4.46,11.12,10.415m-16.724.03a5.8,5.8,0,0,0,5.662,5.927,5.689,5.689,0,0,0,5.546-5.927,5.638,5.638,0,0,0-5.546-5.869,5.733,5.733,0,0,0-5.662,5.869" transform="translate(-25.716)" fill="#e0e0e0"/>
        <path id="Trazado_703829" data-name="Trazado 703829" d="M427.9,216.094l5.134,14.876,5.165-14.876h5.515l-8.039,20.568H430.1l-7.98-20.568Z" transform="translate(-55.016 -28.165)" fill="#e0e0e0"/>
        <path id="Trazado_703830" data-name="Trazado 703830" d="M310.757,98.237l2.836,8.215,2.852-8.215h3.046L315.05,109.6h-3.079l-4.407-11.359Z" transform="translate(-40.086 -12.804)" fill="#e0e0e0"/>
        <path id="Trazado_703831" data-name="Trazado 703831" d="M20.769,45.56c0,3.594-2.245,5.687-6.145,5.687H11.9v4.227H7.913V40.2h6.711c3.9,0,6.145,1.961,6.145,5.361m-3.792.13c0-1.5-.937-2.31-2.549-2.31H11.9v4.685h2.528a2.231,2.231,0,0,0,2.549-2.375" transform="translate(-1.031 -5.239)" fill="#e0e0e0"/>
        <path id="Trazado_703832" data-name="Trazado 703832" d="M438.072,77.507l3.162,6.953,3.161-6.953h3.4V89.423h-2.753l-.017-7.548-2.771,6.358h-2.04l-2.771-6.358v7.548h-2.771V77.507Z" transform="translate(-56.653 -10.102)" fill="#e0e0e0"/>
        <path id="Trazado_703833" data-name="Trazado 703833" d="M48.428,129.918v6H33.212v5.387H46.948v5.963l-13.735.041v5.428H48.839v6H25.686V129.918Z" transform="translate(-3.348 -16.933)" fill="#e0e0e0"/>
        <path id="Trazado_703834" data-name="Trazado 703834" d="M91.672,18.123v4.934L76.455,40.906H91.919v6.045H66.38V42.057L81.6,24.168H66.915V18.123Z" transform="translate(-8.652 -2.362)" fill="#e0e0e0"/>
      </g>
    </g>
    <g id="Grupo_999441" data-name="Grupo 999441">
      <g id="Grupo_999440" data-name="Grupo 999440" clip-path="url(#clip-path)">
        <path id="Trazado_703835" data-name="Trazado 703835" d="M397.274,420.6c0,.125-88.94.226-198.627.226C88.921,420.822,0,420.721,0,420.6s88.921-.226,198.646-.226c109.687,0,198.627.1,198.627.226" transform="translate(0 -54.789)" fill="#263238"/>
      </g>
    </g>
    <g id="Grupo_999443" data-name="Grupo 999443">
      <g id="Grupo_999442" data-name="Grupo 999442" clip-path="url(#clip-path)">
        <path id="Trazado_703836" data-name="Trazado 703836" d="M147.874,49.6a1.678,1.678,0,0,0-2.112-1.116l-7.622,2.4L33.656,78.578,70.863,223.573l12.949,6.814,106.344-29.561a3.2,3.2,0,0,0,2.21-4.014Z" transform="translate(-4.387 -6.309)" fill="#ffa031"/>
        <path id="Trazado_703837" data-name="Trazado 703837" d="M141.72,43.176l10.407,6.1,44.567,148.507L89.3,228.446,77.1,221.826Z" transform="translate(-10.049 -5.627)" fill="#f5f5f5"/>
        <path id="Trazado_703838" data-name="Trazado 703838" d="M175.589,191.358,70.019,222.641,27.338,78.6a3.617,3.617,0,0,1,2.385-4.478L134.155,41.34a2.011,2.011,0,0,1,2.536,1.365l41.265,144.344a3.494,3.494,0,0,1-2.366,4.309" transform="translate(-3.543 -5.376)" fill="#ffa031"/>
        <path id="Trazado_703839" data-name="Trazado 703839" d="M85.462,221.209c-.12.036-9.944-32.216-21.939-72.027S41.9,77.055,42.016,77.018s9.941,32.208,21.941,72.034,21.625,72.12,21.505,72.157" transform="translate(-5.476 -10.038)" fill="#263238"/>
        <path id="Trazado_703840" data-name="Trazado 703840" d="M81.181,225.49c-.12.037-9.944-32.215-21.939-72.027S37.615,81.336,37.735,81.3s9.941,32.209,21.941,72.034S81.3,225.454,81.181,225.49" transform="translate(-4.918 -10.596)" fill="#263238"/>
        <path id="Trazado_703841" data-name="Trazado 703841" d="M81.123,121.816c.7,2.23-.451,4.26-2.874,5.023l-3.147.992-2.357-7.479,3.222-1.016a3.848,3.848,0,0,1,5.156,2.479m-1.988.651a2.1,2.1,0,0,0-2.71-1.527l-1.226.386,1.358,4.311,1.323-.417a2.045,2.045,0,0,0,1.255-2.752" transform="translate(-9.481 -15.522)" fill="#fff"/>
        <rect id="Rectángulo_345217" data-name="Rectángulo 345217" width="2.047" height="7.842" transform="matrix(0.954, -0.301, 0.301, 0.954, 71.441, 102.254)" fill="#fff"/>
        <path id="Trazado_703842" data-name="Trazado 703842" d="M90.2,116.62a2.216,2.216,0,0,0,1.331,4.224,2.905,2.905,0,0,0,1.581-1.459l1.528.867a4.681,4.681,0,0,1-2.667,2.365,4,4,0,1,1-2.326-7.641,4.5,4.5,0,0,1,3.423.329l-.7,1.711a2.671,2.671,0,0,0-2.166-.4" transform="translate(-11.293 -14.96)" fill="#fff"/>
        <path id="Trazado_703843" data-name="Trazado 703843" d="M100.22,111.578l.507,1.611-2.24.706,1.85,5.868-1.952.616-1.85-5.869-2.219.7-.508-1.611Z" transform="translate(-12.226 -14.543)" fill="#fff"/>
        <rect id="Rectángulo_345218" data-name="Rectángulo 345218" width="2.047" height="7.842" transform="matrix(0.954, -0.301, 0.301, 0.954, 88.786, 96.786)" fill="#fff"/>
        <path id="Trazado_703844" data-name="Trazado 703844" d="M114.868,111.184a4.249,4.249,0,1,1-5.238-2.513,4.032,4.032,0,0,1,5.238,2.513m-6.078,1.926a2.212,2.212,0,0,0,2.739,1.506,2.251,2.251,0,1,0-2.739-1.506" transform="translate(-13.892 -14.134)" fill="#fff"/>
        <path id="Trazado_703845" data-name="Trazado 703845" d="M117.593,106.078l4.812,3.433-1.419-4.5,1.813-.572,2.358,7.479-1.707.538-4.8-3.412,1.412,4.481-1.825.576-2.358-7.479Z" transform="translate(-15.102 -13.612)" fill="#fff"/>
        <path id="Trazado_703846" data-name="Trazado 703846" d="M132.682,108.281,129.45,109.3l-.106,1.488-2.005.633.854-8.491,2.005-.632,5.494,6.489-2.08.656Zm-1.047-1.311-1.865-2.345-.2,3Z" transform="translate(-16.597 -13.333)" fill="#fff"/>
        <path id="Trazado_703847" data-name="Trazado 703847" d="M141.859,106.784l-1.74-1.727-.042.014-1.41.444.652,2.07-1.952.616-2.357-7.479,3.361-1.059c1.985-.625,3.418-.023,3.942,1.642a2.651,2.651,0,0,1-.573,2.832l2.327,1.952Zm-3.682-2.827,1.419-.447a1.146,1.146,0,0,0,.881-1.558,1.132,1.132,0,0,0-1.6-.737l-1.419.447Z" transform="translate(-17.596 -12.958)" fill="#fff"/>
        <path id="Trazado_703848" data-name="Trazado 703848" d="M149.237,101.676l.753,2.391-1.952.616-.737-2.337-4.374-4.274,1.952-.616,2.783,2.653.717-3.756,1.952-.616Z" transform="translate(-18.628 -12.478)" fill="#fff"/>
        <path id="Trazado_703849" data-name="Trazado 703849" d="M108.863,146.285l-8.5,2.679-.278,3.911-5.273,1.662,2.245-22.322,5.273-1.662,14.443,17.062-5.469,1.725Zm-2.752-3.448-4.9-6.163-.538,7.878Z" transform="translate(-12.358 -17.016)" fill="#fff"/>
        <rect id="Rectángulo_345219" data-name="Rectángulo 345219" width="7.792" height="3.352" transform="matrix(0.954, -0.3, 0.3, 0.954, 102.598, 119.95)" fill="#fff"/>
        <path id="Trazado_703850" data-name="Trazado 703850" d="M143.04,117.28l1.061,3.366-6.541,15.443,10.546-3.324,1.3,4.123-17.417,5.489-1.051-3.337,6.531-15.471-10.012,3.156-1.3-4.123Z" transform="translate(-16.442 -15.286)" fill="#fff"/>
        <path id="Trazado_703851" data-name="Trazado 703851" d="M189.525,218.192a1.119,1.119,0,0,1-.246.1l-.734.248-2.837.911-10.457,3.266L140.7,233.329l-34.593,10.488-10.5,3.129-2.861.829-.747.2a1.145,1.145,0,0,1-.259.055,1.179,1.179,0,0,1,.245-.1l.734-.247,2.836-.911,10.457-3.266L140.57,232.9l34.588-10.487,10.5-3.129,2.861-.829.747-.2a1.126,1.126,0,0,1,.259-.055" transform="translate(-11.957 -28.438)" fill="#263238"/>
        <path id="Trazado_703852" data-name="Trazado 703852" d="M133.714,235.94,117.7,240.851a76.42,76.42,0,0,1,7.925,22.047,22.364,22.364,0,0,0,3.6-11.779,82.758,82.758,0,0,0,8.825,9.075,60.9,60.9,0,0,0-4.334-24.254" transform="translate(-15.341 -30.751)" fill="#455a64"/>
        <path id="Trazado_703853" data-name="Trazado 703853" d="M187.28,215.948a1.093,1.093,0,0,1-.246.1l-.734.248-2.836.911-10.458,3.266-34.549,10.613-34.593,10.488-10.5,3.129-2.861.829-.747.2a1.145,1.145,0,0,1-.259.055,1.181,1.181,0,0,1,.245-.1l.734-.248,2.836-.91,10.457-3.266,34.555-10.615,34.588-10.487,10.5-3.129,2.861-.829.747-.2a1.135,1.135,0,0,1,.259-.055" transform="translate(-11.665 -28.145)" fill="#263238"/>
        <path id="Trazado_703854" data-name="Trazado 703854" d="M199.43,189.962a2.377,2.377,0,0,1-.124-.362l-.321-1.074-1.191-4.14c-1.028-3.621-2.505-8.824-4.327-15.243-3.654-12.871-8.738-30.642-14.472-50.234s-11.038-37.307-14.9-50.117c-1.926-6.389-3.487-11.567-4.574-15.17-.529-1.776-.942-3.163-1.23-4.128-.13-.458-.233-.815-.309-1.078a2.52,2.52,0,0,1-.09-.371,2.329,2.329,0,0,1,.135.357c.086.259.2.612.352,1.064.306.96.747,2.339,1.311,4.1L164.4,68.7c3.941,12.787,9.292,30.483,15.03,50.083s10.77,37.38,14.345,50.275c1.765,6.436,3.194,11.652,4.189,15.283.477,1.791.85,3.189,1.109,4.163.118.462.21.822.277,1.086a2.274,2.274,0,0,1,.08.374" transform="translate(-20.578 -6.262)" fill="#263238"/>
        <path id="Trazado_703855" data-name="Trazado 703855" d="M140.07,77.4s-.042-.105-.108-.3l-.287-.877c-.253-.784-.617-1.919-1.09-3.388-.941-2.96-2.307-7.263-4.034-12.7l.162.084L55.346,85.074h0l.149-.284c1.846,5.928,3.655,11.73,5.392,17.3l-.279-.147L117.2,84.4l16.747-5.155,4.526-1.38,1.181-.352c.267-.079.413-.114.413-.114s-.122.048-.377.133l-1.145.372-4.461,1.423-16.659,5.261L60.735,102.374l-.212.066-.067-.213-5.4-17.3-.068-.216.217-.068,0,0,79.426-24.665.123-.038.038.123,3.92,12.811,1.021,3.379.256.864a2.393,2.393,0,0,1,.076.287" transform="translate(-7.167 -7.812)" fill="#fff"/>
      </g>
    </g>
    <g id="Grupo_999445" data-name="Grupo 999445">
      <g id="Grupo_999444" data-name="Grupo 999444" clip-path="url(#clip-path)">
        <path id="Trazado_703856" data-name="Trazado 703856" d="M370.764,133.948A36.124,36.124,0,1,1,410,101.227a36.123,36.123,0,0,1-39.232,32.721" transform="translate(-44.039 -8.061)" fill="#fff"/>
        <path id="Trazado_703857" data-name="Trazado 703857" d="M344.112,143.768c-.037,0-.024-.4-.23-1.06a4.789,4.789,0,0,0-1.67-2.345,4.546,4.546,0,0,0-1.8-.839,3.957,3.957,0,0,0-2.239.193,4.328,4.328,0,0,0-.252,8.114,3.949,3.949,0,0,0,2.224.331,4.542,4.542,0,0,0,1.848-.726,4.791,4.791,0,0,0,1.812-2.237c.245-.651.257-1.049.294-1.044a.921.921,0,0,1,0,.286,1.742,1.742,0,0,1-.049.343,2.768,2.768,0,0,1-.119.459,4.857,4.857,0,0,1-3.741,3.2,4.211,4.211,0,0,1-2.394-.324,4.93,4.93,0,0,1-2.051-1.705,4.36,4.36,0,0,1,.168-5.408,4.927,4.927,0,0,1,2.153-1.574,4.2,4.2,0,0,1,2.408-.176,4.853,4.853,0,0,1,3.536,3.421,2.638,2.638,0,0,1,.09.466,1.752,1.752,0,0,1,.028.345.914.914,0,0,1-.015.285" transform="translate(-43.647 -18.136)" fill="#263238"/>
        <path id="Trazado_703858" data-name="Trazado 703858" d="M367.861,133.85s.2.012.589.052l1.721.187,1.266.141c.468.031.983.018,1.538.03l1.794.023a6.372,6.372,0,0,0,.989-.043l1.048-.091a34.67,34.67,0,0,0,10.2-2.349,36.19,36.19,0,0,0,11.693-7.367l1.414-1.351c.449-.482.872-1,1.317-1.505l.664-.769a7.077,7.077,0,0,0,.64-.8q.6-.844,1.206-1.7c.2-.288.411-.572.608-.867l.53-.931,1.075-1.886c.342-.645.609-1.335.921-2.01l.457-1.024c.074-.172.157-.341.223-.517l.177-.538a33.767,33.767,0,0,0,1.291-4.429c.157-.765.364-1.53.485-2.313q.138-1.184.28-2.385c.039-.4.11-.8.125-1.206s.013-.814.019-1.223c0-.817.048-1.642.018-2.47a38.262,38.262,0,0,0-.589-5q-.116-.627-.233-1.258c-.041-.21-.073-.423-.122-.631l-.179-.619q-.359-1.242-.722-2.5c-.281-.824-.634-1.628-.951-2.45-.172-.405-.305-.829-.51-1.222l-.609-1.185A40.947,40.947,0,0,0,403.483,77l-1.691-2.155-.425-.542c-.152-.171-.316-.335-.473-.5l-.955-1-.96-1.008-1.052-.919-1.061-.918-.532-.461c-.186-.143-.382-.274-.572-.411l-2.313-1.64-2.479-1.418A35.881,35.881,0,0,0,368.431,62.2l-2.81.52L362.9,63.5l-.677.2-.655.259-1.3.517-1.3.52-1.238.635-1.233.632-.612.317-.58.372-2.308,1.477a40.7,40.7,0,0,0-4.132,3.467l-.966.918c-.323.3-.589.66-.884.985-.57.672-1.169,1.315-1.706,2l-1.5,2.119-.374.526c-.115.181-.216.37-.324.556l-.636,1.111a38.288,38.288,0,0,0-2.2,4.527c-.3.771-.531,1.565-.8,2.338q-.193.583-.384,1.16c-.12.389-.185.79-.28,1.181q-.263,1.181-.523,2.344c-.144.781-.2,1.57-.305,2.345a33.7,33.7,0,0,0-.242,4.607l-.01.567c0,.188.028.375.041.563q.047.561.093,1.117c.072.74.1,1.48.207,2.2q.2,1.078.392,2.136.1.528.193,1.053.145.511.288,1.019l.577,2.006a7.134,7.134,0,0,0,.339.969q.188.475.374.945c.252.625.482,1.252.746,1.856l.89,1.741a36.185,36.185,0,0,0,8.608,10.811c.389.334.762.672,1.143.986l1.185.845,1.14.813c.189.13.367.271.557.388l.577.331,2.183,1.255c.7.38,1.418.656,2.069.964l.959.432a6.227,6.227,0,0,0,.92.365l1.7.571c.529.171,1.01.353,1.461.478l1.243.284,1.685.391c.38.09.573.145.573.145s-.2-.032-.579-.111l-1.695-.359-1.249-.269c-.454-.12-.938-.3-1.47-.464l-1.711-.557a6.342,6.342,0,0,1-.925-.36l-.965-.427c-.657-.3-1.375-.577-2.085-.953l-2.2-1.248-.581-.33c-.193-.116-.372-.257-.562-.386l-1.15-.811-1.195-.844c-.384-.314-.762-.652-1.153-.986a36.263,36.263,0,0,1-8.7-10.844l-.9-1.75c-.269-.606-.5-1.238-.757-1.866q-.189-.472-.379-.951a7.161,7.161,0,0,1-.344-.975q-.29-1-.585-2.019c-.1-.341-.2-.681-.292-1.027q-.1-.527-.2-1.059l-.4-2.152c-.113-.726-.139-1.471-.214-2.217q-.047-.561-.1-1.126c-.013-.188-.037-.377-.042-.566l.009-.571a33.933,33.933,0,0,1,.235-4.644c.1-.782.16-1.577.3-2.364q.26-1.173.523-2.364c.1-.395.161-.8.281-1.191l.386-1.171c.267-.779.5-1.579.8-2.358a38.609,38.609,0,0,1,2.218-4.569l.64-1.122c.109-.186.21-.377.325-.56l.377-.531,1.516-2.139c.541-.691,1.145-1.341,1.718-2.019.3-.329.566-.689.892-.995l.973-.927a41.009,41.009,0,0,1,4.166-3.5l2.328-1.491.585-.376.617-.321,1.244-.639,1.249-.641,1.31-.525,1.317-.523.66-.263.683-.2,2.75-.794,2.836-.525a36.19,36.19,0,0,1,22.745,3.862l2.5,1.432,2.333,1.656c.193.139.39.271.577.416l.537.465,1.07.928,1.062.928.968,1.017.964,1.013c.158.17.323.335.477.508l.429.547,1.7,2.175a40.97,40.97,0,0,1,2.776,4.681l.613,1.2c.206.4.341.824.513,1.233.319.83.674,1.641.957,2.472q.364,1.267.725,2.519l.179.625c.049.21.082.425.123.637q.117.637.234,1.27a38.453,38.453,0,0,1,.586,5.044c.029.835-.017,1.666-.021,2.491q-.012.618-.022,1.232c-.016.409-.088.812-.129,1.217q-.144,1.211-.286,2.4c-.123.79-.333,1.559-.493,2.331a33.929,33.929,0,0,1-1.31,4.461l-.18.542c-.067.177-.151.347-.227.521l-.461,1.031c-.317.678-.587,1.373-.933,2.022l-1.087,1.9-.536.936c-.2.3-.411.583-.615.872l-1.218,1.713a7.172,7.172,0,0,1-.646.807l-.671.773c-.45.509-.877,1.027-1.33,1.511l-1.428,1.355a36.259,36.259,0,0,1-11.787,7.369,34.527,34.527,0,0,1-10.259,2.3l-1.052.084a6.289,6.289,0,0,1-.992.035l-1.8-.038c-.557-.017-1.072-.01-1.541-.046l-1.268-.158-1.718-.22c-.387-.051-.584-.086-.584-.086" transform="translate(-43.98 -8.01)" fill="#263238"/>
      </g>
    </g>
    <g id="Grupo_999459" data-name="Grupo 999459">
      <g id="Grupo_999458" data-name="Grupo 999458" clip-path="url(#clip-path)">
        <path id="Trazado_703859" data-name="Trazado 703859" d="M227.692,110.483c-5.081-3.892-5.682-11.932-2.265-17.344s9.91-8.308,16.293-8.769a29.453,29.453,0,0,1,24.541,10.606c3.159,3.883,5.562,8.8,10.126,10.853,4.013,1.805,8.708.909,13.005,1.855,5.762,1.27,10.391,5.852,12.933,11.175s3.253,11.333,3.43,17.229c.161,5.411.061,11.326,3.432,15.562,3.287,4.131,8.94,5.443,13.207,8.552,8.028,5.848,9.661,18.728,3.348,26.4-2.013,2.445-4.784,4.6-5.268,7.735-.443,2.858,1.189,5.581,1.818,8.4,1.616,7.267-4.912,15.155-12.352,14.927-3.757-.114-7.633-1.925-11.13-.549-3.474,1.366-5.067,5.27-7.464,8.132a16.067,16.067,0,0,1-19.958,3.319c-2.63-1.591-5.03-4.045-8.1-4.108s-5.7,2.328-8.747,2.644c-3.994.413-7.468-2.808-9.518-6.262s-3.338-7.423-6.092-10.346c-3.607-3.826-9.029-5.171-13.831-7.312a40.674,40.674,0,0,1-17.875-58.775" transform="translate(-26.202 -10.987)" fill="#263238"/>
        <path id="Trazado_703860" data-name="Trazado 703860" d="M289.63,200.708a11.037,11.037,0,0,1,4.622-2.489l-.332-.05a6.564,6.564,0,0,1,.95-.077,4.359,4.359,0,0,1,3.376.724l-.032-.005a8.115,8.115,0,0,1,4.08,4.237,9.6,9.6,0,0,1-2,9.755c-2.049,2.246-5.346,3.546-8.226,2.572a8.119,8.119,0,0,1-4.965-6.266,9.109,9.109,0,0,1,2.523-8.4" transform="translate(-37.397 -25.81)" fill="#455a64"/>
        <path id="Trazado_703861" data-name="Trazado 703861" d="M286.553,153.89c-.051-15.291-9.031-34.585-24.305-33.884l-48.113,9.154a8.95,8.95,0,0,0-8.531,8.583l-6.636,128.964,54.457-.29c.659-9.221,3.1-35.2,3.1-35.118,0,0,21.186-2.014,26.732-27.167,2.759-12.509,3.359-33.253,3.3-50.241" transform="translate(-25.932 -15.639)" fill="#ffc09d"/>
        <path id="Trazado_703862" data-name="Trazado 703862" d="M285.576,182.445a3.261,3.261,0,0,1-3.336,3.1,3.12,3.12,0,0,1-3.182-3.136,3.264,3.264,0,0,1,3.333-3.1,3.122,3.122,0,0,1,3.186,3.139" transform="translate(-36.371 -23.37)" fill="#263238"/>
        <path id="Trazado_703863" data-name="Trazado 703863" d="M291.883,168.493c-.429.4-2.787-1.572-6.293-1.772-3.5-.25-6.177,1.4-6.532.949-.175-.2.283-.943,1.451-1.692a8.957,8.957,0,0,1,5.261-1.284,8.6,8.6,0,0,1,4.976,1.94c1.029.891,1.348,1.681,1.138,1.859" transform="translate(-36.366 -21.463)" fill="#263238"/>
        <path id="Trazado_703864" data-name="Trazado 703864" d="M249.328,179.953a3.262,3.262,0,0,1-3.336,3.1,3.121,3.121,0,0,1-3.181-3.137,3.264,3.264,0,0,1,3.333-3.1,3.121,3.121,0,0,1,3.184,3.139" transform="translate(-31.647 -23.045)" fill="#263238"/>
        <path id="Trazado_703865" data-name="Trazado 703865" d="M252.229,166.884c-.43.4-2.792-1.572-6.295-1.771-3.5-.25-6.177,1.4-6.531.947-.176-.2.277-.943,1.451-1.691a8.949,8.949,0,0,1,5.26-1.285,8.6,8.6,0,0,1,4.977,1.941c1.025.891,1.347,1.681,1.138,1.859" transform="translate(-31.198 -21.253)" fill="#263238"/>
        <path id="Trazado_703866" data-name="Trazado 703866" d="M267,193.822c-.005-.2,2.2-.447,5.752-.688.9-.039,1.758-.166,1.945-.768a4.556,4.556,0,0,0-.438-2.688q-1.07-3.324-2.24-6.971c-3.1-9.921-5.281-18.058-4.881-18.178s3.236,7.821,6.332,17.742q1.113,3.667,2.126,7.006c.278,1.037.791,2.225.255,3.54a2.254,2.254,0,0,1-1.549,1.221,6.032,6.032,0,0,1-1.532.12c-3.565-.02-5.769-.136-5.77-.336" transform="translate(-34.799 -21.444)" fill="#263238"/>
        <path id="Trazado_703867" data-name="Trazado 703867" d="M260.608,245.937s-15.619.14-31.938-11.043c0,0,5.672,19.487,31.229,18.627Z" transform="translate(-29.804 -30.615)" fill="#ff9b6c"/>
        <path id="Trazado_703868" data-name="Trazado 703868" d="M263.946,207.13a8.636,8.636,0,0,0-6.875-4.188,5.621,5.621,0,0,0-4.761,2.233,5.154,5.154,0,0,0,5.311,8.053,12.809,12.809,0,0,0,5.351-2.884,4,4,0,0,0,1.187-1.245,1.789,1.789,0,0,0-.032-1.785" transform="translate(-32.763 -26.45)" fill="#ff9b6c"/>
        <path id="Trazado_703869" data-name="Trazado 703869" d="M254.869,200.292c.571,0,.352,3.8,3.448,6.7s7.168,2.718,7.166,3.251c.039.242-.947.685-2.661.63a9.489,9.489,0,0,1-6-2.5,8.259,8.259,0,0,1-2.646-5.6c-.05-1.6.43-2.516.689-2.479" transform="translate(-33.128 -26.105)" fill="#263238"/>
        <path id="Trazado_703870" data-name="Trazado 703870" d="M254.514,150.515c-.4.931-3.874.271-8.015.523-4.147.167-7.534,1.172-8.029.284-.218-.424.413-1.285,1.809-2.128a13.968,13.968,0,0,1,12.222-.616c1.473.7,2.188,1.492,2.012,1.937" transform="translate(-31.075 -19.219)" fill="#263238"/>
        <path id="Trazado_703871" data-name="Trazado 703871" d="M291.436,154.512c-.664.759-3.029-.21-5.929-.423-2.893-.314-5.394.215-5.91-.651-.224-.419.211-1.193,1.331-1.883a8.606,8.606,0,0,1,9.538.865c.977.879,1.266,1.719.971,2.092" transform="translate(-36.434 -19.616)" fill="#263238"/>
        <path id="Trazado_703872" data-name="Trazado 703872" d="M308.572,145.908a17.461,17.461,0,0,0-5.836-10.175c-1.718-1.35-3.775-2.261-5.349-3.779-3.4-3.278-3.794-8.5-5.691-12.821a19.2,19.2,0,0,0-13.721-10.953c-4.974-.957-10.279.094-15.063-1.571-3.537-1.231-6.489-3.857-10.092-4.876-7.016-1.985-14.1,2.551-19.723,7.193-.469,5.106,3.3,8.88,6.926,12.5a17.784,17.784,0,0,0,14.01,5.049c3.96-.369,8.406-1.962,11.6.412,3.355,2.5,3.03,7.86,5.937,10.87,4.154,4.3,11.628,1.268,17.189,3.465,4.294,1.7,6.678,6.155,9.294,9.959s6.708,7.563,11.233,6.642a51.9,51.9,0,0,0-.712-11.919" transform="translate(-30.375 -13.197)" fill="#263238"/>
        <path id="Trazado_703873" data-name="Trazado 703873" d="M246.674,119.639c-3.117-1.2-9.481-3.846-10.952-6.772-3.194-6.354-9.4-11.048-16.145-11.273a16.2,16.2,0,0,0-15.654,11.474c-8.126-.656-16.5,3.747-21.076,11.08a24.544,24.544,0,0,0-1.529,2.865,17.729,17.729,0,0,0-2.489,14.717c.853,2.986,2.454,6.366.73,8.948-1.755,2.628-5.586,2.379-8.654,3.142a11.769,11.769,0,0,0-8.539,12.441c.245,1.959.995,3.96.425,5.848-.594,1.967-2.435,3.232-3.889,4.681a14.646,14.646,0,0,0,6.461,24.5c2.239.614,4.715.736,6.577,2.122,2.136,1.59,2.886,4.394,4.292,6.655a12.636,12.636,0,0,0,13.261,5.472,11.635,11.635,0,0,0,2.861-1.137c1.337,2.248,3.6,3.89,7.693,4.251l3.771-53.494a4.438,4.438,0,0,0,3.013,2.823c8.4,2.7,11.212-14.86,9.722-19.816a50.006,50.006,0,0,0,9.4-8.287c2.673-3.288,5.6-12.644,5.473-16.982,3.073.454,16.62-2.732,15.25-3.258" transform="translate(-20.152 -13.24)" fill="#263238"/>
        <path id="Trazado_703874" data-name="Trazado 703874" d="M210.988,179.039c.208-5.453-6.333-7.2-11.279-4.894-2.715,1.265-4.955,4.094-5.227,9.878-.722,15.426,14.913,12.968,14.961,12.528.03-.274,1.3-11.127,1.545-17.512" transform="translate(-25.345 -22.568)" fill="#ffc09d"/>
        <path id="Trazado_703875" data-name="Trazado 703875" d="M205.593,191.233c-.065-.052-.278.176-.742.363a2.688,2.688,0,0,1-2.011-.052c-1.6-.675-2.853-3.326-2.8-6.11a8.9,8.9,0,0,1,.932-3.812,3.105,3.105,0,0,1,2.118-1.968,1.37,1.37,0,0,1,1.551.811c.187.441.074.744.155.775.041.041.343-.243.249-.886a1.717,1.717,0,0,0-.562-.995,2.027,2.027,0,0,0-1.467-.462,3.781,3.781,0,0,0-2.919,2.259,9.131,9.131,0,0,0-1.133,4.256c-.047,3.113,1.408,6.1,3.608,6.845a2.883,2.883,0,0,0,2.477-.293c.5-.359.593-.7.541-.731" transform="translate(-25.932 -23.316)" fill="#ff9b6c"/>
        <path id="Trazado_703876" data-name="Trazado 703876" d="M230.233,115.425c.1.173-1.588.3-3.293,2.3-1.706,1.959-2.632,5.922-2.068,10.528l.049.4-.387.061a14.917,14.917,0,0,0-10.671,7.85,11.611,11.611,0,0,0-1.126,3.679,22.719,22.719,0,0,0,.123,4.1,30.745,30.745,0,0,1,.2,4.425,7.262,7.262,0,0,1-1.618,4.428c-2.169,2.739-5.368,3.9-8.13,5.056a25.931,25.931,0,0,0-7.548,4.045,19.275,19.275,0,0,0-6.876,12.372,20.127,20.127,0,0,0,1.188,9.677c.836,2.188,1.6,3.265,1.512,3.32-.031.022-.235-.236-.6-.749a16.335,16.335,0,0,1-1.309-2.41,19.585,19.585,0,0,1-1.56-9.926,19.843,19.843,0,0,1,7-13.055,26.56,26.56,0,0,1,7.79-4.262c2.762-1.156,5.782-2.319,7.673-4.738,1.908-2.183,1.415-5.3,1.21-8.09a23.413,23.413,0,0,1-.1-4.307,12.5,12.5,0,0,1,1.26-4.022,15.638,15.638,0,0,1,11.456-8.194l-.338.456c-.492-4.819.595-8.911,2.526-10.937a6.5,6.5,0,0,1,2.578-1.748,3.748,3.748,0,0,1,1.054-.256" transform="translate(-24.506 -15.043)" fill="#455a64"/>
        <path id="Trazado_703877" data-name="Trazado 703877" d="M199,198.715a11.017,11.017,0,0,1,4.622-2.489l-.332-.05a6.325,6.325,0,0,1,.95-.077,4.359,4.359,0,0,1,3.376.723l-.032,0a8.109,8.109,0,0,1,4.08,4.236,9.6,9.6,0,0,1-2,9.756c-2.049,2.246-5.346,3.546-8.226,2.572a8.12,8.12,0,0,1-4.965-6.267,9.106,9.106,0,0,1,2.523-8.4" transform="translate(-25.584 -25.55)" fill="#455a64"/>
        <path id="Trazado_703878" data-name="Trazado 703878" d="M125.931,279.558s-66.4,64.458-65.826,85.269a5.21,5.21,0,0,1-.2,1.018c-2.424,13.669,7.51,26.478,21.284,28.192l25.678,3.2L161.7,326.5l-14.845-39.515Z" transform="translate(-7.76 -36.436)" fill="#0098e8"/>
        <path id="Trazado_703879" data-name="Trazado 703879" d="M109.492,308.784s10.71-18.127,22.95-31.741c11.58-12.881,27-16.552,30.419-16.714,12.7-.6,66.234,3.013,100.578,4.382,12.758.508,25.359,7.92,33.7,17.59,18.677,21.66,51.414,60.251,58,72.14,9.32,16.838,2.777,55.172-3.763,60.288s-207.207-3.6-207.207-3.6Z" transform="translate(-14.271 -33.921)" fill="#0098e8"/>
        <path id="Trazado_703880" data-name="Trazado 703880" d="M363.882,368.518a1.5,1.5,0,0,1-.421.015l-1.2-.044-.862-.044c-.316-.006-.658.015-1.026.022a24.117,24.117,0,0,0-2.5.13l-1.445.147c-.5.055-1.016.173-1.552.261a34.089,34.089,0,0,0-3.383.777,35.367,35.367,0,0,0-13.818,7.617,33.963,33.963,0,0,0-2.463,2.445c-.361.407-.735.778-1.05,1.173l-.9,1.144a24.149,24.149,0,0,0-1.443,2.04c-.2.308-.4.587-.566.857l-.424.751-.6,1.036a1.525,1.525,0,0,1-.238.348,1.474,1.474,0,0,1,.156-.389c.144-.294.318-.651.528-1.079l.392-.777c.154-.277.345-.565.538-.882a22.121,22.121,0,0,1,1.4-2.1l.882-1.174c.311-.405.683-.786,1.042-1.2a32.463,32.463,0,0,1,2.462-2.5,34.458,34.458,0,0,1,13.984-7.708,32.69,32.69,0,0,1,3.432-.744c.544-.082,1.064-.191,1.573-.238l1.464-.119a22,22,0,0,1,2.52-.064c.371.005.717,0,1.033.016l.866.083,1.194.13a1.463,1.463,0,0,1,.412.076" transform="translate(-43.011 -47.99)" fill="#263238"/>
        <path id="Trazado_703881" data-name="Trazado 703881" d="M161.586,356.942a3.28,3.28,0,0,1-.159-.607c-.093-.444-.215-1.026-.368-1.751-.341-1.516-.881-3.7-1.659-6.366a203.982,203.982,0,0,0-7.4-20.4c-3.268-7.831-6.629-14.746-9.248-19.648-.642-1.233-1.25-2.333-1.8-3.293s-1-1.8-1.4-2.459l-.9-1.547a3.342,3.342,0,0,1-.289-.556,3.181,3.181,0,0,1,.366.507c.248.382.572.881.976,1.5.43.65.914,1.47,1.473,2.425s1.2,2.04,1.859,3.266a205.379,205.379,0,0,1,9.384,19.627,180.559,180.559,0,0,1,7.294,20.492c.741,2.686,1.235,4.888,1.525,6.419.118.733.213,1.322.285,1.771a3.207,3.207,0,0,1,.069.622" transform="translate(-18.032 -39.141)" fill="#263238"/>
        <path id="Trazado_703882" data-name="Trazado 703882" d="M316.2,300.931a.8.8,0,0,1,.017.218c0,.17,0,.38,0,.638q-.013.9-.035,2.455c-.034,2.132-.13,5.215-.292,9.025-.319,7.617-.979,18.135-2.143,29.711s-2.626,22.018-3.834,29.547c-.6,3.764-1.124,6.805-1.516,8.9q-.29,1.529-.457,2.412c-.053.253-.1.458-.13.625a.76.76,0,0,1-.059.21.8.8,0,0,1,.014-.218c.023-.169.051-.377.086-.633q.136-.886.372-2.426c.33-2.145.8-5.181,1.373-8.919,1.126-7.537,2.53-17.973,3.7-29.543s1.872-22.072,2.273-29.682c.184-3.777.331-6.847.437-9.015q.076-1.554.119-2.452c.017-.257.031-.467.043-.637a.765.765,0,0,1,.03-.217" transform="translate(-40.111 -39.222)" fill="#263238"/>
        <path id="Trazado_703883" data-name="Trazado 703883" d="M264.538,256.948a5.14,5.14,0,0,0-2.452-.7L202.4,249.71c-2.039-.224-4.34-.372-5.895.967-1.972,1.7-1.667,4.841-.776,7.286s2.22,4.943,1.74,7.5l64.055,4.016c-.4-2.311,1.44-4.316,2.8-6.229s2.138-4.953.221-6.3" transform="translate(-25.42 -32.527)" fill="#0098e8"/>
        <path id="Trazado_703884" data-name="Trazado 703884" d="M267.731,270.172a4.324,4.324,0,0,1-.7.185l-2.034.445c-.883.2-1.967.418-3.237.616s-2.706.482-4.314.66l-2.519.317c-.877.107-1.794.166-2.741.255-1.893.2-3.926.27-6.062.375a118.2,118.2,0,0,1-27.69-2.3c-2.091-.457-4.083-.866-5.918-1.372-.92-.244-1.815-.454-2.662-.7l-2.432-.73c-1.557-.443-2.93-.952-4.147-1.365s-2.252-.8-3.091-1.143l-1.932-.775a4.229,4.229,0,0,1-.662-.3,4.439,4.439,0,0,1,.695.214l1.96.695c.846.314,1.886.687,3.111,1.068s2.6.877,4.156,1.3l2.434.7c.847.24,1.741.441,2.659.677,1.833.49,3.822.883,5.909,1.327a123.059,123.059,0,0,0,27.6,2.3c2.13-.093,4.156-.152,6.045-.331.944-.081,1.86-.131,2.735-.228l2.516-.288c1.606-.158,3.045-.411,4.314-.592s2.358-.37,3.245-.539l2.049-.362a4.343,4.343,0,0,1,.721-.1" transform="translate(-25.752 -34.451)" fill="#263238"/>
        <g id="Grupo_999448" data-name="Grupo 999448" transform="translate(71.326 298.557)" opacity="0.3">
          <g id="Grupo_999447" data-name="Grupo 999447">
            <g id="Grupo_999446" data-name="Grupo 999446" clip-path="url(#clip-path-7)">
              <path id="Trazado_703885" data-name="Trazado 703885" d="M106.724,343.743A31.618,31.618,0,0,0,82.016,365.5c2.987-.987,5.833-3.549,8-5.827,5.66-5.94,12.648-9.913,20.806-10.789,5.613-.6,10.987.874,16.239,2.936,2.383.936,5.035,1.461,7.155,2.9l2.811.639c-6.609-9.5-18.88-13.46-30.305-11.613" transform="translate(-82.015 -343.301)"/>
            </g>
          </g>
        </g>
        <g id="Grupo_999451" data-name="Grupo 999451" transform="translate(176.265 231.549)" opacity="0.3">
          <g id="Grupo_999450" data-name="Grupo 999450">
            <g id="Grupo_999449" data-name="Grupo 999449" clip-path="url(#clip-path-8)">
              <path id="Trazado_703886" data-name="Trazado 703886" d="M202.681,266.251c8.48,7.695,19.581,13.155,31,13.979s22.357-2.826,31.853-9.224c-23.193,3.607-44.295,2.369-62.855-4.755" transform="translate(-202.681 -266.251)"/>
            </g>
          </g>
        </g>
        <g id="Grupo_999454" data-name="Grupo 999454" transform="translate(286.993 312.873)" opacity="0.3">
          <g id="Grupo_999453" data-name="Grupo 999453">
            <g id="Grupo_999452" data-name="Grupo 999452" clip-path="url(#clip-path-9)">
              <path id="Trazado_703887" data-name="Trazado 703887" d="M364.95,360.81c-1.866-1.187-4.243-1.162-6.439-.9-13.791,1.636-27.147,11.033-28.507,26.183,5.8-11.234,17.759-19.474,30.357-18.386,2.123.184,4.641.43,6-1.207,1.416-1.7.451-4.5-1.415-5.688" transform="translate(-330.004 -359.763)"/>
            </g>
          </g>
        </g>
        <path id="Trazado_703888" data-name="Trazado 703888" d="M66.108,440.532l113.111-.57s-.747,2.183,3.941,2.183l37.4-.262s2.76.262,2.81-1.921c0,0,87.687,1.477,109.346,2.081,1.623.045,4.49-.937,3.138-2.994l-7.557-9.055-125.108-12.15-88.748,9.321L84.005,416.174H83a2.588,2.588,0,0,0-2.1,1.077L65.271,438.984a1,1,0,0,0,.837,1.549" transform="translate(-8.485 -54.242)" fill="#455a64"/>
        <g id="Grupo_999457" data-name="Grupo 999457" transform="translate(105.45 369.895)" opacity="0.2">
          <g id="Grupo_999456" data-name="Grupo 999456">
            <g id="Grupo_999455" data-name="Grupo 999455" clip-path="url(#clip-path-10)">
              <path id="Trazado_703889" data-name="Trazado 703889" d="M121.254,439.14l201.5,1.561-47.39-14.677-59.076,1.655-59.108-2.35Z" transform="translate(-121.254 -425.33)"/>
            </g>
          </g>
        </g>
        <path id="Trazado_703890" data-name="Trazado 703890" d="M206.771,429.939l1.125-24.8s.224-13.637-16.2-18.183-36.9,1.239-56.023,2.272-18.9-.413-18.9-.413l-15.524,23.969,60.972,8.885s35.323,2.066,36,2.273,8.55,5.992,8.55,5.992" transform="translate(-13.197 -50.21)" fill="#fff"/>
        <path id="Trazado_703891" data-name="Trazado 703891" d="M222.358,431.175l1.323-23.3s-.225-13.637,16.2-18.183,36.9,1.239,56.022,2.272c13.378.723,17.527.6,18.812.464a.989.989,0,0,1,.932.428l14.679,22.664-60.972,8.884s-35.323,2.066-36,2.273-11,4.5-11,4.5" transform="translate(-28.981 -50.566)" fill="#fff"/>
        <path id="Trazado_703892" data-name="Trazado 703892" d="M70.724,437.815l26.549-21.9s54.986-9.3,73.661-5.992,29.293,9.712,31.859,23.349l-17.91,4.546a55.555,55.555,0,0,0-23.848-5.992c-13.5-.207-47.248,5.992-47.248,5.992Z" transform="translate(-9.218 -53.334)" fill="#e0e0e0"/>
        <path id="Trazado_703893" data-name="Trazado 703893" d="M241.6,437.5l-18.9-4.753s1.347-21.669,32.049-25.285c0,0,8.674-2.816,39.5,2.969s33.973,5.579,33.973,5.579l25.648,22.73s-15.3,1.239-27.9-1.24-34.648-10.951-58.5-8.471S241.6,437.5,241.6,437.5" transform="translate(-29.026 -53.017)" fill="#e0e0e0"/>
        <path id="Trazado_703894" data-name="Trazado 703894" d="M96.985,413.441l15.023-23.195L85.355,411.514l-16.834,23.83h1.915Z" transform="translate(-8.931 -50.863)" fill="#e0e0e0"/>
        <path id="Trazado_703895" data-name="Trazado 703895" d="M342.084,414.309l-12.241-20.575s24.388,21.208,24.6,21.8,13.286,21.5,13.286,21.5Z" transform="translate(-42.99 -51.317)" fill="#e0e0e0"/>
        <path id="Trazado_703896" data-name="Trazado 703896" d="M200.854,441.39h37.8l-18.9-4.753-.991.207" transform="translate(-26.178 -56.909)" fill="#263238"/>
        <path id="Trazado_703897" data-name="Trazado 703897" d="M222.578,433.019c-.125-.005,0-5.415.285-12.083s.613-12.07.738-12.065,0,5.414-.286,12.084-.612,12.069-.737,12.064" transform="translate(-29.003 -53.29)" fill="#263238"/>
        <path id="Trazado_703898" data-name="Trazado 703898" d="M123.476,412.513a2.562,2.562,0,0,1-.517.117l-1.5.257-5.58.876-18.86,2.8.105-.044L93.5,419.311c-6.86,5.245-13.066,9.991-17.605,13.463l-5.368,4.038-1.473,1.08a3.264,3.264,0,0,1-.532.352A3.422,3.422,0,0,1,69,437.82c.358-.29.831-.671,1.421-1.147l5.278-4.153,17.525-13.569,3.627-2.787.047-.036.058-.009,18.88-2.653,5.6-.741,1.512-.178a2.567,2.567,0,0,1,.529-.035" transform="translate(-8.931 -53.764)" fill="#263238"/>
        <path id="Trazado_703899" data-name="Trazado 703899" d="M206.234,419.446a.993.993,0,0,1-.169-.179l-.458-.55c-.4-.484-1.011-1.185-1.852-2.032a32.9,32.9,0,0,0-8.142-5.909,46.6,46.6,0,0,0-14.2-4.547,116.177,116.177,0,0,0-18.319-1.217,210.785,210.785,0,0,0-33.3,2.519c-4.227.66-7.627,1.315-9.974,1.781l-2.7.55-.7.134a.964.964,0,0,1-.244.03,1.037,1.037,0,0,1,.233-.076l.695-.177c.613-.148,1.515-.375,2.685-.633,2.338-.519,5.733-1.223,9.96-1.925a199.7,199.7,0,0,1,33.347-2.656,113.7,113.7,0,0,1,18.386,1.258,46.223,46.223,0,0,1,14.284,4.675,31.943,31.943,0,0,1,8.119,6.069,24.583,24.583,0,0,1,1.8,2.1l.424.579a.988.988,0,0,1,.132.207" transform="translate(-15.141 -52.728)" fill="#263238"/>
        <path id="Trazado_703900" data-name="Trazado 703900" d="M207.247,415.967a.869.869,0,0,1-.157-.164l-.426-.51c-.18-.23-.417-.5-.7-.817s-.612-.684-1-1.075a32.4,32.4,0,0,0-7.444-5.622,44.278,44.278,0,0,0-13.02-4.648,95.383,95.383,0,0,0-16.935-1.557,211.615,211.615,0,0,0-30.911,1.626c-3.934.5-7.105,1-9.293,1.361l-2.519.423-.657.1a.813.813,0,0,1-.227.019.917.917,0,0,1,.217-.064l.65-.145c.571-.118,1.414-.3,2.506-.506,2.18-.419,5.348-.966,9.282-1.505a198.8,198.8,0,0,1,30.963-1.762,93.644,93.644,0,0,1,17.009,1.6,43.825,43.825,0,0,1,13.094,4.779,31.2,31.2,0,0,1,7.414,5.779c.384.4.71.774.978,1.108s.5.609.674.848l.391.539a.867.867,0,0,1,.121.192" transform="translate(-16.155 -52.274)" fill="#263238"/>
        <path id="Trazado_703901" data-name="Trazado 703901" d="M207.368,412.487a.862.862,0,0,1-.157-.163l-.422-.505c-.179-.227-.413-.5-.7-.809s-.605-.678-.994-1.065a32.306,32.306,0,0,0-7.363-5.586,43.986,43.986,0,0,0-12.879-4.658,93.137,93.137,0,0,0-16.77-1.6,211.917,211.917,0,0,0-30.627,1.528c-3.9.481-7.043.961-9.211,1.315l-2.5.409-.651.1a.113.113,0,1,1-.009-.046l.644-.141c.567-.116,1.4-.3,2.484-.492,2.162-.408,5.3-.937,9.2-1.459A198.744,198.744,0,0,1,168.1,397.65a91.4,91.4,0,0,1,16.845,1.643,43.548,43.548,0,0,1,12.952,4.788,31.158,31.158,0,0,1,7.332,5.742c.381.4.7.769.968,1.1s.5.6.667.84l.388.534a.821.821,0,0,1,.119.19" transform="translate(-16.276 -51.82)" fill="#263238"/>
        <path id="Trazado_703902" data-name="Trazado 703902" d="M207.683,409.014a.829.829,0,0,1-.153-.159l-.414-.494c-.354-.44-.9-1.071-1.644-1.845a38.31,38.31,0,0,0-19.4-10.793c-4.955-1.1-10.569-1.155-16.429-1.083-11.74.077-22.359.576-30.007,1.383-3.824.39-6.909.8-9.036,1.115l-2.45.365-.638.087a.111.111,0,1,1-.009-.045l.631-.131c.557-.105,1.375-.277,2.438-.45,2.12-.371,5.2-.829,9.03-1.26a293.413,293.413,0,0,1,30.036-1.517c5.86-.071,11.518-.008,16.521,1.129a37.063,37.063,0,0,1,12.46,5.212A35.674,35.674,0,0,1,205.6,406.4a23.059,23.059,0,0,1,1.587,1.909l.378.523a.805.805,0,0,1,.117.187" transform="translate(-16.59 -51.374)" fill="#263238"/>
        <path id="Trazado_703903" data-name="Trazado 703903" d="M207.8,405.527a.814.814,0,0,1-.15-.159l-.406-.495c-.35-.439-.877-1.08-1.585-1.877a36.233,36.233,0,0,0-6.709-5.985,28.884,28.884,0,0,0-5.46-2.934,35.608,35.608,0,0,0-6.854-1.924,79.24,79.24,0,0,0-16.324-1.024c-11.646.347-22.151,1.47-29.768,2.059-3.808.311-6.893.532-9.027.654l-2.457.124-.64.02a.778.778,0,0,1-.219-.01.857.857,0,0,1,.216-.037l.637-.064,2.451-.209,9.011-.8c7.607-.671,18.11-1.846,29.784-2.193a78,78,0,0,1,16.413,1.066,35.6,35.6,0,0,1,6.919,1.986,28.783,28.783,0,0,1,5.5,3.019,34.638,34.638,0,0,1,6.662,6.134c.691.818,1.2,1.478,1.524,1.936l.37.523a.8.8,0,0,1,.114.187" transform="translate(-16.709 -50.914)" fill="#263238"/>
        <path id="Trazado_703904" data-name="Trazado 703904" d="M226.01,418.609a1.014,1.014,0,0,1,.136-.2l.434-.572a24.674,24.674,0,0,1,1.835-2.065,31.9,31.9,0,0,1,8.229-5.919,46.182,46.182,0,0,1,14.369-4.413,113.722,113.722,0,0,1,18.406-.92,199.749,199.749,0,0,1,33.293,3.269c4.214.779,7.595,1.545,9.923,2.107,1.164.28,2.063.524,2.672.683l.691.19a.963.963,0,0,1,.232.08.978.978,0,0,1-.243-.035l-.7-.147-2.69-.6c-2.339-.509-5.727-1.225-9.94-1.964a210.707,210.707,0,0,0-33.243-3.131,116.271,116.271,0,0,0-18.338.879,46.644,46.644,0,0,0-14.286,4.286,32.926,32.926,0,0,0-8.25,5.759c-.856.831-1.478,1.521-1.888,2l-.468.543a.984.984,0,0,1-.172.176" transform="translate(-29.457 -52.719)" fill="#263238"/>
        <path id="Trazado_703905" data-name="Trazado 703905" d="M226.074,415.13a.862.862,0,0,1,.124-.19l.4-.531c.174-.236.406-.514.69-.835s.607-.695,1-1.091a31.258,31.258,0,0,1,7.519-5.642,43.885,43.885,0,0,1,13.179-4.538,93.64,93.64,0,0,1,17.036-1.287,198.887,198.887,0,0,1,30.925,2.33c3.924.612,7.081,1.218,9.252,1.676,1.088.223,1.926.424,2.5.553l.646.157a.869.869,0,0,1,.217.069.826.826,0,0,1-.227-.023l-.655-.113-2.512-.469c-2.18-.405-5.342-.962-9.266-1.532a211.643,211.643,0,0,0-30.877-2.193,95.42,95.42,0,0,0-16.961,1.244,44.289,44.289,0,0,0-13.1,4.409,32.359,32.359,0,0,0-7.546,5.484c-.4.384-.739.737-1.024,1.056s-.535.577-.719.8l-.435.5c-.1.111-.155.167-.161.162" transform="translate(-29.465 -52.266)" fill="#263238"/>
        <path id="Trazado_703906" data-name="Trazado 703906" d="M226.138,411.65a.856.856,0,0,1,.123-.189l.4-.526c.172-.234.4-.51.683-.828s.6-.69.988-1.082a31.174,31.174,0,0,1,7.436-5.606,43.553,43.553,0,0,1,13.038-4.549,91.383,91.383,0,0,1,16.872-1.334,198.686,198.686,0,0,1,30.643,2.227c3.889.593,7.019,1.18,9.172,1.628,1.078.215,1.91.411,2.474.537l.641.154a.815.815,0,0,1,.215.067.838.838,0,0,1-.224-.022l-.65-.11-2.49-.454c-2.162-.394-5.3-.932-9.185-1.485a211.949,211.949,0,0,0-30.595-2.091,93.153,93.153,0,0,0-16.8,1.291,43.992,43.992,0,0,0-12.961,4.421,32.36,32.36,0,0,0-7.464,5.449c-.4.38-.731.732-1.013,1.047s-.529.572-.712.8l-.431.5a.866.866,0,0,1-.159.16" transform="translate(-29.474 -51.812)" fill="#263238"/>
        <path id="Trazado_703907" data-name="Trazado 703907" d="M226.2,405.957a14.644,14.644,0,0,1,2.178-2.479,26.058,26.058,0,0,1,7.6-4.793,60.477,60.477,0,0,1,5.838-2.152,52.625,52.625,0,0,1,6.909-1.818c4.973-.929,10.546-.85,16.324-.67,11.6.369,22.014,1.8,29.547,2.684l8.923,1.075,2.426.291.63.085a.825.825,0,0,1,.213.044.751.751,0,0,1-.217,0l-.635-.041-2.435-.206c-2.114-.192-5.17-.513-8.942-.932-7.543-.8-17.954-2.182-29.523-2.549-5.78-.181-11.313-.27-16.238.627a53.3,53.3,0,0,0-6.869,1.766c-2.126.662-4.084,1.348-5.824,2.088a26.857,26.857,0,0,0-7.608,4.628c-.4.344-.733.677-1.016.97a9.611,9.611,0,0,0-.7.753l-.422.475a.819.819,0,0,1-.157.152" transform="translate(-29.482 -51.343)" fill="#263238"/>
        <path id="Trazado_703908" data-name="Trazado 703908" d="M269.644,416.817v14.715l4.873-4.409,4.774,4.178.278-14.327s-7.843-.424-9.925-.157" transform="translate(-35.144 -54.314)" fill="#ff725e"/>
        <path id="Trazado_703909" data-name="Trazado 703909" d="M319.491,425.327a1.058,1.058,0,0,1-.25-.042l-.719-.165-2.76-.664c-2.4-.572-5.875-1.363-10.2-2.212s-9.492-1.754-15.243-2.7l-9.024-1.486a70.433,70.433,0,0,0-9.725-1.048,87.668,87.668,0,0,0-9.788.143,52.586,52.586,0,0,0-9,1.339A37.354,37.354,0,0,0,239,425.129a45.589,45.589,0,0,0-4.454,3.909c-1.247,1.224-2.264,2.338-3.091,3.25l-1.871,2.132-.489.553a1.025,1.025,0,0,1-.179.178,1.1,1.1,0,0,1,.143-.208l.455-.582c.4-.513,1.011-1.25,1.809-2.191s1.808-2.065,3.044-3.312a44.449,44.449,0,0,1,4.437-3.983,37.249,37.249,0,0,1,13.881-6.783,52.428,52.428,0,0,1,9.069-1.378,86.686,86.686,0,0,1,9.84-.153,69.872,69.872,0,0,1,9.78,1.063l9.018,1.511c5.749.965,10.919,1.9,15.237,2.794s7.792,1.729,10.178,2.354c1.195.305,2.116.57,2.74.747l.709.209a1.035,1.035,0,0,1,.237.086" transform="translate(-29.835 -54.283)" fill="#263238"/>
        <path id="Trazado_703910" data-name="Trazado 703910" d="M198.3,435.668a1.508,1.508,0,0,1-.218-.215l-.6-.66c-.268-.287-.578-.662-.979-1.072l-1.41-1.392a43.961,43.961,0,0,0-10.325-7.171,57.4,57.4,0,0,0-17.814-5.411,88.8,88.8,0,0,0-22.854.164c-8.081,1-15.683,2.612-22.6,4.039-6.914,1.443-13.164,2.666-18.458,3.426a116.072,116.072,0,0,1-12.6,1.186c-1.495.043-2.655.058-3.442.036l-.895-.016a1.557,1.557,0,0,1-.305-.022,1.612,1.612,0,0,1,.305-.025l.894-.027c.786-.009,1.945-.053,3.435-.122,2.98-.145,7.286-.527,12.563-1.328s11.51-2.052,18.42-3.517,14.521-3.075,22.629-4.08a88.169,88.169,0,0,1,22.967-.128,57.04,57.04,0,0,1,17.9,5.54,42.761,42.761,0,0,1,10.3,7.33l1.386,1.427c.391.422.692.807.95,1.1l.57.691a1.469,1.469,0,0,1,.183.244" transform="translate(-11.183 -54.563)" fill="#263238"/>
        <path id="Trazado_703911" data-name="Trazado 703911" d="M198.3,439.181a1.5,1.5,0,0,1-.218-.215l-.6-.66c-.268-.287-.578-.662-.979-1.072l-1.41-1.392a43.963,43.963,0,0,0-10.325-7.171,57.4,57.4,0,0,0-17.814-5.411,88.8,88.8,0,0,0-22.854.164c-8.081,1-15.683,2.612-22.6,4.039-6.914,1.443-13.164,2.666-18.458,3.426a116.063,116.063,0,0,1-12.6,1.186c-1.495.043-2.655.058-3.442.037l-.895-.017a1.559,1.559,0,0,1-.305-.022,1.609,1.609,0,0,1,.305-.025L87,432.02c.786-.009,1.945-.053,3.435-.123,2.98-.144,7.286-.526,12.563-1.327s11.51-2.052,18.42-3.517,14.521-3.075,22.629-4.08a88.208,88.208,0,0,1,22.967-.128,57.018,57.018,0,0,1,17.9,5.54,42.76,42.76,0,0,1,10.3,7.33l1.386,1.427c.391.422.692.807.95,1.1l.57.691a1.471,1.471,0,0,1,.183.244" transform="translate(-11.183 -55.021)" fill="#263238"/>
        <path id="Trazado_703912" data-name="Trazado 703912" d="M196.454,437.144a3.029,3.029,0,0,1-.484-.355c-.315-.234-.738-.628-1.344-1.06a37.835,37.835,0,0,0-5.3-3.371,43.888,43.888,0,0,0-8.645-3.422,56.454,56.454,0,0,0-11.227-1.921,104.506,104.506,0,0,0-20.71,1.031l-6.244.878-1.7.234a2.946,2.946,0,0,1-.6.051,2.988,2.988,0,0,1,.583-.142l1.686-.317c1.466-.264,3.591-.63,6.228-1.022a97.8,97.8,0,0,1,20.786-1.165,55.175,55.175,0,0,1,11.31,1.972,42.5,42.5,0,0,1,8.682,3.541,34.035,34.035,0,0,1,5.255,3.514c.591.456,1,.872,1.295,1.13a3.011,3.011,0,0,1,.424.424" transform="translate(-18.274 -55.575)" fill="#263238"/>
        <path id="Trazado_703913" data-name="Trazado 703913" d="M164.337,366.776l30.715-6.639s11.511-2.325,13.742-1.095,15.051,11.491,16.154,12.448,13.368,15.641,13.368,15.641-.28,4.654-7.01,2.787c-3.467-.962-18.19-13.831-18.19-13.831l-3.426-2.7s5.369,8.312,5.26,11.045-3.521,8.184-4.692,8.936-7.059-.284-7.059-.284-4.172,4.509-7.451.957c0,0-5.593,5.82-10.133,2.445l-2.432-4.773-2.323-1.8s-.36,3.293-2.655,3.657-27.514-5.081-27.514-5.081l8.715-23.768Z" transform="translate(-19.64 -46.749)" fill="#ffc09d"/>
        <path id="Trazado_703914" data-name="Trazado 703914" d="M203.929,377.65a2.948,2.948,0,0,1,.71.478c.435.335,1.049.84,1.774,1.5a33.617,33.617,0,0,1,5.053,5.783,9.923,9.923,0,0,1,1,1.987,3.81,3.81,0,0,1,.252,2.088,13.9,13.9,0,0,1-.923,3.353,10.826,10.826,0,0,1-1.071,2.078c-.319.457-.572.648-.587.629s.174-.251.437-.723a14.06,14.06,0,0,0,.922-2.1,14.985,14.985,0,0,0,.807-3.285,4.5,4.5,0,0,0,.009-.943,4.6,4.6,0,0,0-.263-.948,9.817,9.817,0,0,0-.965-1.9,40.305,40.305,0,0,0-4.892-5.8c-1.385-1.373-2.307-2.159-2.263-2.213" transform="translate(-26.579 -49.221)" fill="#ff9b6c"/>
        <path id="Trazado_703915" data-name="Trazado 703915" d="M185.7,380.721a3.147,3.147,0,0,1,.947-.306,8.079,8.079,0,0,1,2.717-.11,11.569,11.569,0,0,1,7.576,4.5,14.851,14.851,0,0,1,2.132,4.454,28.477,28.477,0,0,1,.888,3.915c.177,1.127.275,2.045.323,2.679a4.023,4.023,0,0,1,.025.991c-.073.009-.236-1.391-.664-3.615a32.766,32.766,0,0,0-.97-3.845,15.125,15.125,0,0,0-2.1-4.311,11.84,11.84,0,0,0-3.584-3.136,10.99,10.99,0,0,0-3.672-1.318,12.15,12.15,0,0,0-3.62.1" transform="translate(-24.203 -49.559)" fill="#ff9b6c"/>
        <path id="Trazado_703916" data-name="Trazado 703916" d="M206.617,367.246c-.009-.03.177-.087.529-.164a2.407,2.407,0,0,1,.651-.046,3.574,3.574,0,0,1,.86.093,10.264,10.264,0,0,1,4.33,2.35,21.393,21.393,0,0,1,3.36,3.588,6.489,6.489,0,0,1,1.057,1.739,15.365,15.365,0,0,1-1.308-1.541,28.965,28.965,0,0,0-3.4-3.44,11.331,11.331,0,0,0-4.113-2.385,9.178,9.178,0,0,0-1.966-.195" transform="translate(-26.929 -47.837)" fill="#ff9b6c"/>
        <path id="Trazado_703917" data-name="Trazado 703917" d="M150.668,361.019l-15.363-5.991L107,356.48,92.89,375.506l-5.661,27.4s51.84-11.385,53.484-11.536S145,388.554,145,388.554l5.535,1.157,7.085-23.746Z" transform="translate(-11.369 -46.272)" fill="#0098e8"/>
        <path id="Trazado_703918" data-name="Trazado 703918" d="M159.511,363.753a.776.776,0,0,1-.21-.057l-.6-.212-2.282-.856-8.359-3.225-12.377-4.837-7.3-2.877a59.683,59.683,0,0,0-7.929-2.726,23.959,23.959,0,0,0-8.284-.637,29.209,29.209,0,0,0-7.547,1.832A45.074,45.074,0,0,0,93.239,356.8c-2.986,2.311-5.245,4.38-6.824,5.784L84.6,364.208l-.478.415a.774.774,0,0,1-.174.13.807.807,0,0,1,.142-.164l.448-.448,1.757-1.687c1.545-1.445,3.774-3.553,6.748-5.908a44.547,44.547,0,0,1,11.435-6.778,29.363,29.363,0,0,1,7.653-1.883,24.239,24.239,0,0,1,8.435.638,58.918,58.918,0,0,1,7.987,2.754l7.29,2.9,12.34,4.928,8.305,3.358,2.249.935.582.253a.768.768,0,0,1,.192.1" transform="translate(-10.941 -45.325)" fill="#263238"/>
        <path id="Trazado_703919" data-name="Trazado 703919" d="M315.867,410.206c-.617-1.035-.858-2.51.638-4.271l4.14-1.85a11.992,11.992,0,0,1,2.025-3.523c1.057-.969,2.642-2.2,2.642-2.2a19.873,19.873,0,0,1,4.491-4.492c2.2-1.321,7.574-2.73,9.424-4.315s7.662-6.693,11.713-4.755,6.957,8.749,10.128,10.186,4.315,6.194,5.548,8.131,2.554,3.346,2.73,4.844,3.611,4.491,4.227,8.543.264,5.46-1.585,6.957-5.46,4.491-9.071,5.02c-2.026.3-4.8.482-6.846.588a4.091,4.091,0,0,1-3.914-2.349l-.25-.529s-9.247,4.667-13.65,4.051-2.642-4.4-2.642-4.4-4.492,4.315-7.31,3.522-4.315-.7-4.58-3.17,1.844-5.293,1.844-5.293-4.221.1-4.574-2.721a11.822,11.822,0,0,1,1.144-5.813l-3.392-.384a3.83,3.83,0,0,1-2.883-1.774" transform="translate(-41.106 -50.096)" fill="#ffc09d"/>
        <path id="Trazado_703920" data-name="Trazado 703920" d="M340.542,392.371a4.937,4.937,0,0,1-.42,1,8.292,8.292,0,0,1-.6,1.123,15.378,15.378,0,0,1-.918,1.419,28.928,28.928,0,0,1-2.823,3.366c-1.151,1.185-2.474,2.427-3.877,3.706s-2.718,2.514-3.862,3.686a29.679,29.679,0,0,0-2.8,3.317c-1.437,2.013-2,3.461-2.09,3.419a4.887,4.887,0,0,1,.384-1.015,7.913,7.913,0,0,1,.564-1.142,14.629,14.629,0,0,1,.877-1.445,26.858,26.858,0,0,1,2.759-3.422c1.137-1.2,2.454-2.451,3.857-3.732s2.728-2.5,3.885-3.663a32.478,32.478,0,0,0,2.863-3.264c1.491-1.976,2.11-3.4,2.2-3.353" transform="translate(-42.118 -51.139)" fill="#ff9b6c"/>
        <path id="Trazado_703921" data-name="Trazado 703921" d="M352.524,396.766a1.19,1.19,0,0,1-.11.359c-.084.23-.219.566-.409.991a32.477,32.477,0,0,1-1.818,3.5,33.823,33.823,0,0,1-3.428,4.749,34.371,34.371,0,0,1-5.263,4.874c-2.025,1.541-4.039,2.88-5.841,4.129s-3.4,2.411-4.672,3.463a35.545,35.545,0,0,0-2.885,2.646,9.125,9.125,0,0,1-1,1.036,8.553,8.553,0,0,1,.873-1.154,27.862,27.862,0,0,1,2.808-2.772c1.26-1.093,2.844-2.292,4.64-3.56s3.8-2.619,5.805-4.147a35.781,35.781,0,0,0,5.224-4.788,36.305,36.305,0,0,0,3.469-4.641c.884-1.4,1.507-2.586,1.932-3.409a11.1,11.1,0,0,1,.677-1.275" transform="translate(-42.632 -51.712)" fill="#ff9b6c"/>
        <path id="Trazado_703922" data-name="Trazado 703922" d="M357.476,398.027c.083.094-.586.819-1.495,1.62s-1.712,1.374-1.794,1.28.586-.819,1.495-1.62,1.711-1.374,1.794-1.28" transform="translate(-46.162 -51.875)" fill="#ff9b6c"/>
        <path id="Trazado_703923" data-name="Trazado 703923" d="M360.928,410.242a4.732,4.732,0,0,1-.35,1.124,14.605,14.605,0,0,1-1.513,2.835,26.366,26.366,0,0,1-7.749,7.154c-3.475,2.23-6.722,4.054-8.995,5.5-1.14.716-2.052,1.312-2.678,1.732a6.293,6.293,0,0,1-.995.622,5.521,5.521,0,0,1,.892-.765c.6-.465,1.484-1.105,2.606-1.858,2.236-1.52,5.467-3.394,8.922-5.612a27.969,27.969,0,0,0,7.733-6.956,25.8,25.8,0,0,0,2.126-3.777" transform="translate(-44.137 -53.469)" fill="#ff9b6c"/>
        <path id="Trazado_703924" data-name="Trazado 703924" d="M372.37,416.819a2.813,2.813,0,0,1-.349.735c-.25.46-.644,1.106-1.173,1.877a34.059,34.059,0,0,1-4.767,5.53,34.576,34.576,0,0,1-3.112,2.559,25.345,25.345,0,0,1-2.8,1.737c-.409.23-.793.406-1.132.558a8.386,8.386,0,0,1-.881.368,2.76,2.76,0,0,1-.777.237c-.03-.074,1.04-.5,2.635-1.442a30.668,30.668,0,0,0,2.7-1.795,39.686,39.686,0,0,0,3.049-2.553,41.687,41.687,0,0,0,4.815-5.385c1.112-1.484,1.719-2.464,1.783-2.425" transform="translate(-46.579 -54.326)" fill="#ff9b6c"/>
        <path id="Trazado_703925" data-name="Trazado 703925" d="M324.441,405.36a26.751,26.751,0,0,1-3.832,1.779,32.763,32.763,0,0,1-3.937,1.529,14.313,14.313,0,0,1,3.76-1.946,15.813,15.813,0,0,1,4.008-1.362" transform="translate(-41.273 -52.83)" fill="#ff9b6c"/>
        <path id="Trazado_703926" data-name="Trazado 703926" d="M327.817,386.794a35.588,35.588,0,0,1,4.529.144,71.1,71.1,0,0,1-9.058,0,35.591,35.591,0,0,1,4.528-.144" transform="translate(-42.136 -50.413)" fill="#ff725e"/>
      </g>
    </g>
    <path id="Trazado_703927" data-name="Trazado 703927" d="M1402.365,254.793c-2.348-1.745-5.569-1.074-6.442-.939s-4.965,1.61-4.965,1.61l6.106-4.227s3.691-.671,5.234-2.147-.872-1.946-3.623-1.677-9.931,5.838-9.931,5.838l1.141-1.677s4.16-4.63,3.489-6.173-6.106,4.965-7.783,7.784-5.435,6.173-5.334,10.1c.074,2.9-2.373,5.245-3.66,6.277a2.151,2.151,0,0,0-.806,1.637,36.159,36.159,0,0,0,.692,8.089c.956,4.227,4.529,1.912,5.485.6s5.485-.151,6.794.7,8.807-2.818,10.166-2.969a4.34,4.34,0,0,0,3.422-2.868c.6-1.661,1.46-3.825.755-4.731s-2.567.654-3.523,1.946-3.389.268-6.005,0-2.684-3.087-2.348-4.361,5.234-3.825,5.77-3.422a29.011,29.011,0,0,0,3.422,1.476s1.275,2.952,2.617,3.422,1.275-3.221.537-5.1-4.026-4.026-5.7-4.294-6.509,1.275-6.509,1.275,2.751-2.55,4.16-3.623,4.9.3,4.9.3a15.154,15.154,0,0,0,3.834,1.308c1.083,0,.46-2.416-1.888-4.16" transform="translate(-1074.391 -180.894)" fill="#12263f"/>
    <path id="Trazado_703928" data-name="Trazado 703928" d="M1750.023,452.976c2.349,1.745,5.569,1.074,6.441.939s4.965-1.61,4.965-1.61l-6.106,4.227s-3.691.671-5.234,2.147.872,1.946,3.624,1.678,9.931-5.838,9.931-5.838L1762.5,456.2s-4.16,4.63-3.489,6.173,6.106-4.965,7.783-7.784,5.435-6.173,5.334-10.1c-.074-2.9,2.372-5.245,3.66-6.277a2.151,2.151,0,0,0,.806-1.637,36.153,36.153,0,0,0-.692-8.089c-.956-4.227-4.529-1.912-5.485-.6s-5.485.151-6.794-.7-8.807,2.818-10.166,2.969a4.341,4.341,0,0,0-3.422,2.868c-.6,1.661-1.459,3.825-.755,4.731s2.567-.654,3.523-1.946,3.389-.268,6.005,0,2.684,3.087,2.349,4.362-5.234,3.825-5.771,3.422a29.01,29.01,0,0,0-3.422-1.476s-1.275-2.952-2.617-3.422-1.275,3.221-.537,5.1,4.026,4.026,5.7,4.294,6.509-1.275,6.509-1.275-2.751,2.55-4.16,3.623-4.9-.3-4.9-.3a15.155,15.155,0,0,0-3.834-1.308c-1.083,0-.46,2.416,1.888,4.16" transform="translate(-1416.437 -347.295)" fill="#12263f"/>
  </g>
</svg>
