<svg xmlns="http://www.w3.org/2000/svg" xmlns:xlink="http://www.w3.org/1999/xlink" width="464" height="367" viewBox="0 0 464 367">
  <defs>
    <clipPath id="clip-path">
      <rect id="Rectángulo_345367" data-name="Rectángulo 345367" width="377.534" height="236.354" fill="none"/>
    </clipPath>
    <clipPath id="clip-path-3">
      <rect id="Rectángulo_345362" data-name="Rectángulo 345362" width="75.064" height="76.892" fill="none"/>
    </clipPath>
    <clipPath id="clip-path-4">
      <rect id="Rectángulo_345363" data-name="Rectángulo 345363" width="91.902" height="67.928" fill="none"/>
    </clipPath>
    <clipPath id="clip-path-5">
      <rect id="Rectángulo_345364" data-name="Rectángulo 345364" width="18.984" height="18.982" fill="none"/>
    </clipPath>
    <clipPath id="clip-path-6">
      <rect id="Rectángulo_345365" data-name="Rectángulo 345365" width="15.17" height="13.424" fill="none"/>
    </clipPath>
  </defs>
  <g id="Grupo_1000173" data-name="Grupo 1000173" transform="translate(-5390 10194)">
    <g id="Grupo_1000166" data-name="Grupo 1000166" transform="translate(5433.344 -10128.306)">
      <g id="Grupo_999824" data-name="Grupo 999824" clip-path="url(#clip-path)">
        <g id="Grupo_999823" data-name="Grupo 999823">
          <g id="Grupo_999822" data-name="Grupo 999822" clip-path="url(#clip-path)">
            <path id="Trazado_704310" data-name="Trazado 704310" d="M14.979,171.07s2.1-1.931,6.114,1.564l1.864-2.9s-4.5-3.562-7.978,1.335" transform="translate(-3.691 -41.517)" fill="#3c67af"/>
            <path id="Trazado_704311" data-name="Trazado 704311" d="M23.6,160.685s-2.488,3.092,1.095,6.613l-2.418,2.442s-5.543-6.794,1.323-9.054" transform="translate(-4.969 -39.595)" fill="#3c67af"/>
            <path id="Trazado_704312" data-name="Trazado 704312" d="M11.177,266.435a21.26,21.26,0,0,1,11.216-8.577l16.424-6.086H54.495l16.42,6.086a21.266,21.266,0,0,1,11.216,8.577Z" transform="translate(-2.754 -62.04)" fill="#91d7f4"/>
            <path id="Trazado_704313" data-name="Trazado 704313" d="M85.3,300.26h25.373c0-4.334-.283-10.51-.283-10.51-1.492-25.946-20.4-30.027-20.4-30.027-14.745-3.569-6.708,19.236-6.708,19.236-.385,5.5.433,12.889,2.019,21.3" transform="translate(-19.983 -63.906)" fill="#2fbce1"/>
            <rect id="Rectángulo_345357" data-name="Rectángulo 345357" width="21.524" height="20.986" transform="translate(33.141 174.333)" fill="#91d7f4"/>
            <path id="Trazado_704314" data-name="Trazado 704314" d="M65.5,241.093v-9.754H43.977v4.831c6.139,5.109,13.534,5.757,21.523,4.922" transform="translate(-10.837 -57.005)" fill="#56c6f1"/>
            <path id="Trazado_704315" data-name="Trazado 704315" d="M78.217,298.748c.412-11.316.286-14.424.185-18.284-.225-8.6-2.063-15.863-7.73-22.244l-.026-.008-15.345-5s3.227,5.647-10.875,5.647c0,0-9.291-.361-10.647-5.647l-15.583,5s-13.321,3.277-15.605,17.3l7.831,14.4-.279,8.84Z" transform="translate(-0.638 -62.394)" fill="#3c67af"/>
            <path id="Trazado_704316" data-name="Trazado 704316" d="M90.639,189.126c.611-4.827-.416-9.449-.365-14.207.035-3.192-.589-8.009-4.558-8.414-5.5-.562-7.2,8.935-7.522,13.051-.448,5.673.959,11.8,2.054,17.356.393,2.005.353,6.013,2.61,6.981,1.93.827,3.9-1.124,4.89-2.572,2.378-3.5,2.383-8.155,2.891-12.2" transform="translate(-19.247 -41.023)" fill="#3c67af"/>
            <path id="Trazado_704317" data-name="Trazado 704317" d="M74.443,210.269c-2.176,8.512-6.007,10.858-6.007,10.858l-5.139,1c-2.956-.375-8.056-1.579-8.056-1.579-11.739-3.99-15.14-5.069-16.959-9.53-.077-.189-9.253-32.04-9.253-32.04-1.5-16.394,15.66-19.805,18.25-20.232,2.562-.592,18.9-5.133,23.728,10.605a85.485,85.485,0,0,1,3.436,40.916" transform="translate(-7.13 -38.857)" fill="#91d7f4"/>
            <path id="Trazado_704318" data-name="Trazado 704318" d="M77.447,150.731c.929,5.09.059,12.136-3.884,15.385-4.283,3.526-7.959,2.568-13.112,3.713-5.358,1.189-10.84,1.66-16.225,2.7-3.771.729-8.124,1.147-9.86,5.149a27.048,27.048,0,0,0-1.2,17.336c1.284,4.29,1.679,8.464,3.09,14.05a49.729,49.729,0,0,1-8.649-9.9c-2.427-4.271-2.427-4.271-5.164-11.7-1.605-4.353-2.992-8.181-3.2-12.669-.267-5.788,2.541-8.312,5.631-13.626a20.919,20.919,0,0,1,12.293-10.042s26.938,1.515,26.433-4.64c0,0,6.469,1.651,5.238,5.953,0,0,6.769-1.236,5.332-5.953a6.318,6.318,0,0,1,3.277,4.238" transform="translate(-4.737 -36.098)" fill="#3c67af"/>
            <path id="Trazado_704319" data-name="Trazado 704319" d="M36.456,208.186s-2.9-6.323-7.461-2.577c0,0-2.077,1.62.48,5.852,0,0,3.714,6.081,8.164,2.711Z" transform="translate(-6.949 -50.373)" fill="#91d7f4"/>
            <path id="Trazado_704320" data-name="Trazado 704320" d="M36.833,189.854s.019,11.317,2.1,17.319l-2.205.437s-1.161-7.76-5.155-7.852Z" transform="translate(-7.779 -46.782)" fill="#3c67af"/>
            <path id="Trazado_704321" data-name="Trazado 704321" d="M23.719,300.724H0c.008,0,.084-5.63.1-6.029a112.39,112.39,0,0,1,1.526-16.569c1.426-7.8,5.213-14.717,13.549-16.7,3.816-.908,7.208,1.4,9.274,4.543,0,0,3.775,4.652-.726,34.754" transform="translate(0 -64.37)" fill="#2fbce1"/>
            <path id="Trazado_704322" data-name="Trazado 704322" d="M310.254,226.931c-3.909-1.419-6.372-4.685-11.012-4.277-8.253.729-14.108,10.005-22.05,3.712-9.614-7.623-7.087-53.47-2.921-63.855,3.534-8.808,10.05-.2,19.348-3.157,10.8-3.437,20.116,5.086,25.7,13.938a53.389,53.389,0,0,1,7.948,31.764c-.792,9.99-2.6,27.11-17.015,21.875" transform="translate(-66.67 -39.036)" fill="#3c67af"/>
            <path id="Trazado_704323" data-name="Trazado 704323" d="M364.283,301.5H344.027l-3.622-14.625s-2.944-22.2,12.279-22.51c0,0,7.9,5.539,10.054,18.568a123.888,123.888,0,0,1,1.544,18.567" transform="translate(-83.824 -65.142)" fill="#2fbce1"/>
            <path id="Trazado_704324" data-name="Trazado 704324" d="M272.946,302.671l2.733-11.033s2.944-22.2-12.279-22.51c0,0-9.129,6.649-8.329,33.542Z" transform="translate(-62.84 -66.317)" fill="#2fbce1"/>
            <rect id="Rectángulo_345358" data-name="Rectángulo 345358" width="18.482" height="27.058" transform="translate(225.405 167.124)" fill="#91d7f4"/>
            <path id="Trazado_704325" data-name="Trazado 704325" d="M317.593,232.814V221.771H299.111v15.907c6.1-.185,13.33-1.289,18.482-4.864" transform="translate(-73.705 -54.647)" fill="#56c6f1"/>
            <path id="Trazado_704326" data-name="Trazado 704326" d="M266.6,264.568a20.226,20.226,0,0,1,10.665-8.157l15.62-5.785h14.907l19.1,5.785a20.228,20.228,0,0,1,10.668,8.157Z" transform="translate(-65.694 -61.757)" fill="#91d7f4"/>
            <path id="Trazado_704327" data-name="Trazado 704327" d="M269.5,298.561h61.537L330.648,287l9.049-13.692a20.088,20.088,0,0,0-13.729-16.448l-15.04-4.281s.9,4.9-11.513,4.9c0,0-9.969,0-11.161-5.028l-11.912,4.413a25.277,25.277,0,0,0-13.494,11.491L269.5,287Z" transform="translate(-64.769 -62.206)" fill="#2fbce1"/>
            <path id="Trazado_704328" data-name="Trazado 704328" d="M313.952,207.362a12.21,12.21,0,0,1-2.745,4,33.849,33.849,0,0,1-10.595,6.964c-4.833,1.983-12.128,2.237-15.969-1.745-3.112-3.226-4.82-8.113-6.17-12.3-2.627-8.149-2.594-17.051-1.927-25.512.153-1.931.348-3.863.67-5.772,3.007-18.458,18.8-18.417,18.8-18.417,11.926-.518,22.81,5.115,24.642,17.683.7,4.812-.224,9.981-.466,14.794a38.714,38.714,0,0,1-1.744,10.437c-1.152,3.442-3.058,6.549-4.5,9.87" transform="translate(-68.051 -38.082)" fill="#91d7f4"/>
            <path id="Trazado_704329" data-name="Trazado 704329" d="M274.32,187.044c-4.457-13.8-.862-30.026,4.466-35.1,15.088-14.4,42.957-8.916,51.471,13.586,2.631,6.95,1.4,32.868.2,40.835-1.6,10.673-5.521,17.985-13.626,17.985.216-8.8-.458-18.551.321-29.31.775-10.675-.645-10.938-9.528-15.9a26.44,26.44,0,0,1-9.732-9.06c-3.4-4.965-.841-6.7-7.565-6.476,0,0-15.629-.533-16.011,23.447" transform="translate(-67.1 -35.478)" fill="#3c67af"/>
            <path id="Trazado_704330" data-name="Trazado 704330" d="M328.351,204.483s1.577-6.567,6.627-3.853c0,0,2.28,1.154.638,5.663,0,0-2.4,6.488-7.27,4.115Z" transform="translate(-80.909 -49.276)" fill="#91d7f4"/>
            <path id="Trazado_704331" data-name="Trazado 704331" d="M391.815,266.435a21.263,21.263,0,0,1,11.216-8.577l16.424-6.086h15.678l16.419,6.086a21.263,21.263,0,0,1,11.216,8.577Z" transform="translate(-96.548 -62.04)" fill="#91d7f4"/>
            <path id="Trazado_704332" data-name="Trazado 704332" d="M465.94,300.26h25.373c0-4.334-.283-10.51-.283-10.51-1.492-25.946-20.4-30.027-20.4-30.027-14.745-3.569-6.708,19.236-6.708,19.236-.386,5.5.433,12.889,2.019,21.3" transform="translate(-113.777 -63.906)" fill="#2fbce1"/>
            <rect id="Rectángulo_345359" data-name="Rectángulo 345359" width="21.524" height="20.986" transform="translate(319.984 174.333)" fill="#91d7f4"/>
            <path id="Trazado_704333" data-name="Trazado 704333" d="M446.139,241.093v-9.754H424.615v4.831c6.139,5.109,13.535,5.757,21.524,4.922" transform="translate(-104.631 -57.005)" fill="#56c6f1"/>
            <path id="Trazado_704334" data-name="Trazado 704334" d="M458.855,298.748c.412-11.316.286-14.424.185-18.284-.224-8.6-2.062-15.863-7.73-22.244l-.026-.008-15.345-5s3.226,5.647-10.876,5.647c0,0-9.29-.361-10.647-5.647l-15.583,5s-13.32,3.277-15.605,17.3l7.831,14.4-.279,8.84Z" transform="translate(-94.432 -62.394)" fill="#2fbce1"/>
            <path id="Trazado_704335" data-name="Trazado 704335" d="M469.4,184.073c0-4.987-.212-9.965-.094-14.947.075-3.185.368-2.363-3.32-2.713-5.112-.485-6.82,9.01-7.179,13.119-.494,5.663.732,11.76,1.675,17.28.338,1.995.247,5.991,2.334,6.927,1.786.8,3.65-1.173,4.589-2.632,2.154-3.358,1.773-8.489,1.916-12.3.058-1.579.079-3.158.079-4.735" transform="translate(-113.027 -41.002)" fill="#3c67af"/>
            <path id="Trazado_704336" data-name="Trazado 704336" d="M455.082,210.269c-2.176,8.512-6.007,10.858-6.007,10.858l-5.139,1c-2.958-.375-8.057-1.579-8.057-1.579-11.739-3.99-15.139-5.069-16.959-9.53-.077-.189-9.253-32.04-9.253-32.04-1.5-16.394,15.66-19.805,18.25-20.232,2.563-.592,18.9-5.133,23.729,10.605a85.485,85.485,0,0,1,3.436,40.916" transform="translate(-100.924 -38.857)" fill="#91d7f4"/>
            <path id="Trazado_704337" data-name="Trazado 704337" d="M405.494,165.974c-5.7,2.748-5.9,7.838-5.631,13.626.208,4.488,1.595,8.316,3.2,12.669,2.738,7.427,2.738,7.427,5.164,11.7a49.723,49.723,0,0,0,8.649,9.9c-1.411-5.586-1.806-9.76-3.09-14.051a27.053,27.053,0,0,1,1.2-17.336s1.3-3.52,6.635-4.525h0Z" transform="translate(-98.514 -40.898)" fill="#335794"/>
            <path id="Trazado_704338" data-name="Trazado 704338" d="M417.1,208.186s-2.9-6.323-7.462-2.577c0,0-2.076,1.62.481,5.852,0,0,3.714,6.081,8.164,2.711Z" transform="translate(-100.743 -50.373)" fill="#91d7f4"/>
            <path id="Trazado_704339" data-name="Trazado 704339" d="M417.47,189.854s.019,11.317,2.1,17.319l-2.205.437s-1.161-7.76-5.155-7.852Z" transform="translate(-101.573 -46.782)" fill="#335794"/>
            <path id="Trazado_704340" data-name="Trazado 704340" d="M459.549,154.655c18.344,18.682-37.167,18.493-37.167,18.493s-5.823,2.692-15.043-12.252c0,0-2.486-11.688,23.762-15.368,0,0,17.351-2.128,28.448,9.127" transform="translate(-100.358 -35.821)" fill="#3c67af"/>
            <path id="Trazado_704341" data-name="Trazado 704341" d="M404.357,300.724H380.638c.008,0,.084-5.63.1-6.029a112.184,112.184,0,0,1,1.526-16.569c1.425-7.8,5.213-14.717,13.549-16.7,3.815-.908,7.208,1.4,9.274,4.543,0,0,3.775,4.652-.726,34.754" transform="translate(-93.794 -64.37)" fill="#2fbce1"/>
            <path id="Trazado_704342" data-name="Trazado 704342" d="M162.691,152.128s-19.805,5.954-17.938,37.308v67.575H167.28Z" transform="translate(-35.638 -37.486)" fill="#3c67af"/>
            <path id="Trazado_704343" data-name="Trazado 704343" d="M165.609,172.39v97.077h43.075V187.693s2.83-31.372-17.753-35.225c0,0-25.322-4.586-25.322,19.923" transform="translate(-40.808 -37.486)" fill="#3c67af"/>
            <rect id="Rectángulo_345360" data-name="Rectángulo 345360" width="29.953" height="14.829" transform="translate(123.719 197.064)" fill="#91d7f4"/>
            <path id="Trazado_704344" data-name="Trazado 704344" d="M239.859,301.5H219.6l-3.62-14.625s-2.945-22.2,12.277-22.51c0,0,7.9,5.539,10.054,18.568a123.95,123.95,0,0,1,1.545,18.567" transform="translate(-53.164 -65.142)" fill="#91d7f4"/>
            <path id="Trazado_704345" data-name="Trazado 704345" d="M148.524,301.874l2.732-11.033s4.843-24.639-10.381-24.949c0,0-11.026,9.088-10.228,35.982Z" transform="translate(-32.183 -65.519)" fill="#91d7f4"/>
            <rect id="Rectángulo_345361" data-name="Rectángulo 345361" width="18.482" height="27.058" transform="translate(131.641 167.124)" fill="#91d7f4"/>
            <path id="Trazado_704346" data-name="Trazado 704346" d="M193.168,232.814V221.771H174.686v15.907c6.1-.185,13.33-1.289,18.482-4.864" transform="translate(-43.045 -54.647)" fill="#56c6f1"/>
            <path id="Trazado_704347" data-name="Trazado 704347" d="M142.179,264.568a20.226,20.226,0,0,1,10.664-8.157l15.62-5.785h14.907l19.1,5.785a20.222,20.222,0,0,1,10.666,8.157Z" transform="translate(-35.035 -61.757)" fill="#91d7f4"/>
            <path id="Trazado_704348" data-name="Trazado 704348" d="M146.51,287V298.56h59.983l-.7-13.426c-.744-25.865,2.147-25.873,2.147-25.873a18.588,18.588,0,0,0-4.961-2.4l-15.04-4.281s-3.26,14.023-15.669,14.023c0,0-9.61-5.177-7-14.155l-11.913,4.414a25.129,25.129,0,0,0-9.116,5.719s2.124,1.3,2.277,24.421" transform="translate(-35.541 -62.206)" fill="#2fbce1"/>
            <path id="Trazado_704349" data-name="Trazado 704349" d="M189.527,207.362a12.21,12.21,0,0,1-2.745,4,33.837,33.837,0,0,1-10.594,6.964c-4.834,1.983-12.129,2.237-15.97-1.745-3.112-3.226-4.819-8.113-6.17-12.3-2.627-8.149-2.594-17.051-1.926-25.512.153-1.931.348-3.863.67-5.772,3.007-18.458,18.8-18.417,18.8-18.417,11.925-.518,22.81,5.115,24.642,17.683.705,4.812-.222,9.981-.465,14.794a38.716,38.716,0,0,1-1.744,10.437c-1.152,3.442-3.058,6.549-4.5,9.87" transform="translate(-37.391 -38.082)" fill="#91d7f4"/>
            <path id="Trazado_704350" data-name="Trazado 704350" d="M203.926,204.483s1.577-6.567,6.628-3.853c0,0,2.279,1.154.637,5.663,0,0-2.4,6.488-7.27,4.115Z" transform="translate(-50.249 -49.276)" fill="#91d7f4"/>
            <path id="Trazado_704351" data-name="Trazado 704351" d="M150.644,173.935c-.849-25.333,23.2-24.131,23.2-24.131,23.636.97,24.812,11.676,24.812,11.676,2.86,13.587-1.232,26.786-1.232,26.786-5.024-1.1-5.874,5.625-5.874,5.625.527-10.77-.356-11.421-.356-11.421a106.563,106.563,0,0,1-13.192-.9l-.339-7.51-1.848,7.115a120.127,120.127,0,0,1-22.16-2.922s-3.007.213-3.007,9.357Z" transform="translate(-37.115 -36.911)" fill="#3c67af"/>
            <path id="Trazado_704352" data-name="Trazado 704352" d="M473.941,41.521A33.6,33.6,0,0,0,467.062,25.8c-11.779-14.793-37.1-19.046-52.233-7.139C398.6,31.429,387.1,61.1,406.281,74.822a37.419,37.419,0,0,0,7.272,3.995c-.693,3.229-2.271,8.634-5.332,10.681,0,0,11.507.884,15.834-7.591,17.072,3.171,37.339-1.09,45.208-15.176a39.352,39.352,0,0,0,4.677-25.211" transform="translate(-97.648 -2.9)" fill="#524c96"/>
            <g id="Grupo_999812" data-name="Grupo 999812" transform="translate(298.629 9.733)" style="mix-blend-mode: multiply;isolation: isolate">
              <g id="Grupo_999811" data-name="Grupo 999811">
                <g id="Grupo_999810" data-name="Grupo 999810" clip-path="url(#clip-path-3)">
                  <path id="Trazado_704353" data-name="Trazado 704353" d="M437.811,71.276c-7.546-.957-14.787-4.078-19.256-10.456-4.562-6.511-6.33-14.788-5.819-22.654.484-7.47,2.609-15.077,8.231-20.327a33.54,33.54,0,0,1,6.951-4.922,31.99,31.99,0,0,0-13.09,6.028C398.6,31.713,387.1,61.385,406.281,75.106a37.457,37.457,0,0,0,7.272,3.995c-.693,3.229-2.271,8.634-5.332,10.681,0,0,11.506.883,15.834-7.592,17.073,3.171,37.339-1.089,45.208-15.176a40.853,40.853,0,0,0,2.077-4.3c-9.14,7.461-22.009,10.018-33.53,8.556" transform="translate(-396.277 -12.916)" fill="#82ccee"/>
                </g>
              </g>
            </g>
            <path id="Trazado_704354" data-name="Trazado 704354" d="M434.6,60.418a4.452,4.452,0,1,1-4.452-4.452,4.453,4.453,0,0,1,4.452,4.452" transform="translate(-104.896 -13.791)" fill="#fff"/>
            <path id="Trazado_704355" data-name="Trazado 704355" d="M453.274,59.6a4.452,4.452,0,1,1-4.453-4.454,4.453,4.453,0,0,1,4.453,4.454" transform="translate(-109.498 -13.589)" fill="#fff"/>
            <path id="Trazado_704356" data-name="Trazado 704356" d="M471.952,58.784a4.452,4.452,0,1,1-4.452-4.452,4.452,4.452,0,0,1,4.452,4.452" transform="translate(-114.101 -13.388)" fill="#fff"/>
            <path id="Trazado_704357" data-name="Trazado 704357" d="M214.562,24.905,145.1,30.314a8.526,8.526,0,0,0-8.525,8.527l5.408,34.037a8.525,8.525,0,0,0,8.525,8.527l3.279.2h0s1.946,7.341-1.87,11.157c0,0,11.369-2.749,13.2-10.46l44.034,2.708a8.527,8.527,0,0,0,8.526-8.527l5.408-43.052a8.526,8.526,0,0,0-8.525-8.527" transform="translate(-33.654 -6.137)" fill="#60c4e9"/>
            <path id="Trazado_704358" data-name="Trazado 704358" d="M222.928,33.133q-.15,3.471-.544,6.941c-.537,4.766-1.252,9.524-2.1,14.244-.761,4.252-1.661,8.641-3.6,12.536-3.255,6.543-10.29,8.962-17.123,9.986-7.146,1.072-14.324.709-21.507,1.148a112.913,112.913,0,0,1-11.895.355c-3.408-.151-7.26-.442-10.277-2.2-5.83-3.405-6.771-11.867-7.568-17.88-.907-6.854-2.644-15.8,2.1-21.68,2.2-2.723,5.037-3.932,8.254-5.069,1.06-.375,2.411-.742,3.751-1.218L145.1,31.641a8.527,8.527,0,0,0-8.526,8.528l5.408,34.037a8.526,8.526,0,0,0,8.526,8.526l3.279.2h0s1.946,7.34-1.871,11.157c0,0,11.37-2.749,13.2-10.46l44.035,2.707a8.526,8.526,0,0,0,8.525-8.526l5.409-43.052a8.554,8.554,0,0,0-.16-1.625" transform="translate(-33.653 -7.464)" fill="#609fd0"/>
            <path id="Trazado_704359" data-name="Trazado 704359" d="M211.705,54.424a1.749,1.749,0,0,1-1.749,1.748H160.767a1.749,1.749,0,1,1,0-3.5h49.189a1.75,1.75,0,0,1,1.749,1.75" transform="translate(-39.184 -12.98)" fill="#fff"/>
            <path id="Trazado_704360" data-name="Trazado 704360" d="M211.705,64.213a1.749,1.749,0,0,1-1.749,1.748H160.767a1.749,1.749,0,0,1,0-3.5h49.189a1.751,1.751,0,0,1,1.749,1.751" transform="translate(-39.184 -15.391)" fill="#fff"/>
            <path id="Trazado_704361" data-name="Trazado 704361" d="M211.705,74a1.749,1.749,0,0,1-1.749,1.749H160.767a1.749,1.749,0,1,1,0-3.5h49.189A1.749,1.749,0,0,1,211.705,74" transform="translate(-39.184 -17.804)" fill="#fff"/>
            <path id="Trazado_704362" data-name="Trazado 704362" d="M10.208,22.459c6.193-7.31,17.381-6.476,26-5.693C49.745,18,63.388,18.328,76.836,20.456,95.465,23.4,99.951,34.739,99.94,52.114,99.934,62.276,97.19,73.34,87.64,78.5a37.4,37.4,0,0,1-3.577,1.678A12.188,12.188,0,0,0,90.355,90.55s-13.088,1.433-16.312-7.54c-12.655,2.264-27,.832-38.69.326C20.005,82.667,4.76,77.622,1.734,60.669c-2.393-13.4,1.649-30.155,8.473-38.209" transform="translate(-0.257 -4.009)" fill="#512e73"/>
            <path id="Trazado_704363" data-name="Trazado 704363" d="M9.764,24.518a31.69,31.69,0,0,0-3.158,9.7A64.9,64.9,0,0,0,6.4,48.259C7,55.876,9.053,63.5,15.5,68.234c5.97,4.378,13.443,5.876,20.559,7.3A93.891,93.891,0,0,0,55.117,77.4c6.271-.052,12.869-.766,18.563-3.581A20.719,20.719,0,0,0,84.841,60.524a57.278,57.278,0,0,0,1.694-18.473c-.427-5.944-1.748-12.228-5.28-17.158a19.691,19.691,0,0,0-2.116-2.5c16.692,3.5,20.813,14.6,20.8,31.227-.007,10.162-2.75,21.226-12.3,26.388a37.392,37.392,0,0,1-3.577,1.677,12.187,12.187,0,0,0,6.291,10.371s-13.088,1.433-16.311-7.54c-12.655,2.264-27,.833-38.69.326C20.005,84.177,4.76,79.132,1.734,62.179-.606,49.069,3.211,32.764,9.764,24.518" transform="translate(-0.257 -5.519)" fill="#3f2e73"/>
            <path id="Trazado_704364" data-name="Trazado 704364" d="M60.637,48.695a2.12,2.12,0,0,0,2.12,2.121H91.593a2.12,2.12,0,1,0,0-4.24H62.757a2.119,2.119,0,0,0-2.12,2.12" transform="translate(-14.942 -11.477)" fill="#fff"/>
            <path id="Trazado_704365" data-name="Trazado 704365" d="M28.792,48.695a2.12,2.12,0,0,0,2.121,2.121H46.535a2.12,2.12,0,0,0,0-4.24H30.913a2.12,2.12,0,0,0-2.121,2.12" transform="translate(-7.095 -11.477)" fill="#fff"/>
            <path id="Trazado_704366" data-name="Trazado 704366" d="M74.422,62.1a2.119,2.119,0,0,0,2.12,2.12H94.989a2.12,2.12,0,1,0,0-4.24H76.542a2.119,2.119,0,0,0-2.12,2.12" transform="translate(-18.339 -14.78)" fill="#fff"/>
            <path id="Trazado_704367" data-name="Trazado 704367" d="M28.792,62.1a2.12,2.12,0,0,0,2.121,2.12H57.469a2.12,2.12,0,1,0,0-4.24H30.913a2.12,2.12,0,0,0-2.121,2.12" transform="translate(-7.095 -14.78)" fill="#fff"/>
            <path id="Trazado_704368" data-name="Trazado 704368" d="M60.637,74.719a2.12,2.12,0,0,0,2.12,2.121H76.115a2.121,2.121,0,0,0,0-4.241H62.757a2.119,2.119,0,0,0-2.12,2.12" transform="translate(-14.942 -17.889)" fill="#fff"/>
            <path id="Trazado_704369" data-name="Trazado 704369" d="M86.194,74.719a2.12,2.12,0,0,0,2.12,2.121H97.89a2.121,2.121,0,1,0,0-4.241H88.314a2.12,2.12,0,0,0-2.12,2.12" transform="translate(-21.239 -17.889)" fill="#fff"/>
            <path id="Trazado_704370" data-name="Trazado 704370" d="M28.792,74.719a2.12,2.12,0,0,0,2.121,2.121H46.535a2.121,2.121,0,0,0,0-4.241H30.913a2.12,2.12,0,0,0-2.121,2.12" transform="translate(-7.095 -17.889)" fill="#fff"/>
            <path id="Trazado_704371" data-name="Trazado 704371" d="M362.151,31.8a16.354,16.354,0,0,0-22.263-15.281,20.207,20.207,0,0,0-38.81-3.353,8.625,8.625,0,0,0-13.622,7.038,8.744,8.744,0,0,0,.144,1.537,11.59,11.59,0,1,0-9.381,21.068,16.443,16.443,0,0,0,19.052,25.895,16.37,16.37,0,0,0,32.052,3.281,16.37,16.37,0,1,0,21.568-24.629A16.382,16.382,0,0,0,362.151,31.8" transform="translate(-66.593)" fill="#49c0df"/>
            <g id="Grupo_999815" data-name="Grupo 999815" transform="translate(203.656 15.893)" style="mix-blend-mode: multiply;isolation: isolate">
              <g id="Grupo_999814" data-name="Grupo 999814">
                <g id="Grupo_999813" data-name="Grupo 999813" clip-path="url(#clip-path-4)">
                  <path id="Trazado_704372" data-name="Trazado 704372" d="M362.151,37A16.389,16.389,0,0,0,349.689,21.09a19.507,19.507,0,0,1,6.239,13.051c.133,4.8-1.413,10.544-5.412,13.559-1.732,1.305-5.24,2.956-7.478,2.733,3.145,4.048,4.281,9.115-.3,13.206-5.115,4.57-11.313,4.075-15.394-.8.105,4.128-1.265,9.483-4.931,11.8a17.46,17.46,0,0,1-10.771,2.536c-7.157-.873-11.333-6.076-11.946-13,.035.386-2.255,1.842-2.607,2.086a12.562,12.562,0,0,1-2.862,1.536c-6.836,2.485-15.58-3.235-14.835-10.684a21.458,21.458,0,0,1,2.356-7.831c.56-.978,2.167-3.427,3.562-3.336-9.045-.589-11.182-15.8-1.034-20.273a11.425,11.425,0,0,0-2.436-.264,11.592,11.592,0,0,0-3.626,22.6A16.443,16.443,0,0,0,297.272,73.9a16.37,16.37,0,0,0,32.052,3.281,16.37,16.37,0,1,0,21.568-24.629A16.382,16.382,0,0,0,362.151,37" transform="translate(-270.249 -21.09)" fill="#bbe5f3"/>
                </g>
              </g>
            </g>
            <path id="Trazado_704373" data-name="Trazado 704373" d="M292.913,103.182c-1.564,1.878-4.828,1.742-7.288-.309S282.439,97.639,284,95.76s4.828-1.74,7.289.31,3.185,5.234,1.62,7.112" transform="translate(-69.779 -23.271)" fill="#49c0df"/>
            <path id="Trazado_704374" data-name="Trazado 704374" d="M282.391,109.364c-1.187,1.426-3.663,1.32-5.531-.235s-2.417-3.971-1.23-5.4,3.663-1.32,5.531.235,2.417,3.971,1.23,5.4" transform="translate(-67.765 -25.314)" fill="#49c0df"/>
            <path id="Trazado_704375" data-name="Trazado 704375" d="M273.112,112.48c-.836,1.005-2.585.931-3.9-.167s-1.705-2.8-.867-3.807,2.585-.933,3.9.166,1.706,2.8.868,3.808" transform="translate(-66.014 -26.563)" fill="#49c0df"/>
            <g id="Grupo_999818" data-name="Grupo 999818" transform="translate(245.073 12.587)" style="mix-blend-mode: multiply;isolation: isolate">
              <g id="Grupo_999817" data-name="Grupo 999817">
                <g id="Grupo_999816" data-name="Grupo 999816" clip-path="url(#clip-path-5)">
                  <path id="Trazado_704376" data-name="Trazado 704376" d="M327.54,29.531a10.483,10.483,0,0,1,16.651-8.489,10.487,10.487,0,1,0-14.643,14.644,10.427,10.427,0,0,1-2.008-6.155" transform="translate(-325.208 -16.703)" fill="#bbe5f3"/>
                </g>
              </g>
            </g>
            <g id="Grupo_999821" data-name="Grupo 999821" transform="translate(225.319 48.177)" style="mix-blend-mode: multiply;isolation: isolate">
              <g id="Grupo_999820" data-name="Grupo 999820">
                <g id="Grupo_999819" data-name="Grupo 999819" clip-path="url(#clip-path-6)">
                  <path id="Trazado_704377" data-name="Trazado 704377" d="M303.3,66.142a7.955,7.955,0,0,1,8.69,11.213,7.96,7.96,0,1,0-13-8.843,7.918,7.918,0,0,1,4.307-2.37" transform="translate(-298.995 -63.93)" fill="#bbe5f3"/>
                </g>
              </g>
            </g>
            <path id="Trazado_704378" data-name="Trazado 704378" d="M315.543,56.3a4.453,4.453,0,1,1-4.452-4.452,4.453,4.453,0,0,1,4.452,4.452" transform="translate(-75.56 -12.776)" fill="#fff"/>
            <path id="Trazado_704379" data-name="Trazado 704379" d="M334.221,55.484a4.453,4.453,0,1,1-4.453-4.453,4.453,4.453,0,0,1,4.453,4.453" transform="translate(-80.162 -12.575)" fill="#fff"/>
            <path id="Trazado_704380" data-name="Trazado 704380" d="M352.9,54.666a4.453,4.453,0,1,1-4.453-4.452,4.452,4.452,0,0,1,4.453,4.452" transform="translate(-84.765 -12.373)" fill="#fff"/>
          </g>
        </g>
      </g>
    </g>
    <rect id="Rectángulo_345538" data-name="Rectángulo 345538" width="464" height="367" transform="translate(5390 -10194)" fill="none"/>
  </g>
</svg>
