<svg xmlns="http://www.w3.org/2000/svg" xmlns:xlink="http://www.w3.org/1999/xlink" width="464" height="367" viewBox="0 0 464 367">
  <defs>
    <clipPath id="clip-path">
      <rect id="Rectángulo_345356" data-name="Rectángulo 345356" width="430.187" height="320.583" fill="none"/>
    </clipPath>
    <clipPath id="clip-path-5">
      <rect id="Rectángulo_345300" data-name="Rectángulo 345300" width="39.137" height="33.989" fill="none"/>
    </clipPath>
    <clipPath id="clip-path-7">
      <rect id="Rectángulo_345302" data-name="Rectángulo 345302" width="6.625" height="9.593" fill="none"/>
    </clipPath>
    <clipPath id="clip-path-8">
      <rect id="Rectángulo_345303" data-name="Rectángulo 345303" width="8.879" height="13" fill="none"/>
    </clipPath>
    <clipPath id="clip-path-9">
      <rect id="Rectángulo_345304" data-name="Rectángulo 345304" width="29.284" height="10.224" fill="none"/>
    </clipPath>
    <clipPath id="clip-path-10">
      <rect id="Rectángulo_345305" data-name="Rectángulo 345305" width="7.25" height="31.221" fill="none"/>
    </clipPath>
    <clipPath id="clip-path-11">
      <rect id="Rectángulo_345306" data-name="Rectángulo 345306" width="12.234" height="39.609" fill="none"/>
    </clipPath>
    <clipPath id="clip-path-12">
      <rect id="Rectángulo_345307" data-name="Rectángulo 345307" width="31.01" height="125.45" fill="none"/>
    </clipPath>
    <clipPath id="clip-path-13">
      <rect id="Rectángulo_345308" data-name="Rectángulo 345308" width="14.698" height="16.542" fill="none"/>
    </clipPath>
    <clipPath id="clip-path-15">
      <rect id="Rectángulo_345310" data-name="Rectángulo 345310" width="18.056" height="8.955" fill="none"/>
    </clipPath>
    <clipPath id="clip-path-16">
      <rect id="Rectángulo_345311" data-name="Rectángulo 345311" width="24.383" height="134.264" fill="none"/>
    </clipPath>
    <clipPath id="clip-path-17">
      <rect id="Rectángulo_345312" data-name="Rectángulo 345312" width="3.808" height="8.931" fill="none"/>
    </clipPath>
    <clipPath id="clip-path-20">
      <rect id="Rectángulo_345315" data-name="Rectángulo 345315" width="15.433" height="12.65" fill="none"/>
    </clipPath>
    <clipPath id="clip-path-21">
      <rect id="Rectángulo_345316" data-name="Rectángulo 345316" width="15.433" height="11.848" fill="none"/>
    </clipPath>
    <clipPath id="clip-path-22">
      <rect id="Rectángulo_345317" data-name="Rectángulo 345317" width="104.879" height="58.913" fill="none"/>
    </clipPath>
    <clipPath id="clip-path-23">
      <rect id="Rectángulo_345318" data-name="Rectángulo 345318" width="96.783" height="58.913" fill="none"/>
    </clipPath>
    <clipPath id="clip-path-24">
      <rect id="Rectángulo_345319" data-name="Rectángulo 345319" width="7.962" height="7.962" fill="none"/>
    </clipPath>
    <clipPath id="clip-path-28">
      <rect id="Rectángulo_345323" data-name="Rectángulo 345323" width="27.498" height="31.395" fill="none"/>
    </clipPath>
    <clipPath id="clip-path-29">
      <rect id="Rectángulo_345324" data-name="Rectángulo 345324" width="4.542" height="13.525" fill="none"/>
    </clipPath>
    <clipPath id="clip-path-30">
      <rect id="Rectángulo_345325" data-name="Rectángulo 345325" width="21.454" height="85.281" fill="none"/>
    </clipPath>
    <clipPath id="clip-path-31">
      <rect id="Rectángulo_345326" data-name="Rectángulo 345326" width="4.526" height="6.805" fill="none"/>
    </clipPath>
    <clipPath id="clip-path-32">
      <rect id="Rectángulo_345327" data-name="Rectángulo 345327" width="37.498" height="49.414" fill="none"/>
    </clipPath>
    <clipPath id="clip-path-33">
      <rect id="Rectángulo_345328" data-name="Rectángulo 345328" width="23.7" height="27.323" fill="none"/>
    </clipPath>
    <clipPath id="clip-path-34">
      <rect id="Rectángulo_345329" data-name="Rectángulo 345329" width="26.444" height="32.465" fill="none"/>
    </clipPath>
    <clipPath id="clip-path-44">
      <rect id="Rectángulo_345339" data-name="Rectángulo 345339" width="7.963" height="7.962" fill="none"/>
    </clipPath>
    <clipPath id="clip-path-45">
      <rect id="Rectángulo_345340" data-name="Rectángulo 345340" width="20.286" height="20.089" fill="none"/>
    </clipPath>
    <clipPath id="clip-path-46">
      <rect id="Rectángulo_345341" data-name="Rectángulo 345341" width="16.219" height="28.425" fill="none"/>
    </clipPath>
    <clipPath id="clip-path-47">
      <rect id="Rectángulo_345342" data-name="Rectángulo 345342" width="7.179" height="9.913" fill="none"/>
    </clipPath>
    <clipPath id="clip-path-48">
      <rect id="Rectángulo_345343" data-name="Rectángulo 345343" width="5.124" height="13.862" fill="none"/>
    </clipPath>
    <clipPath id="clip-path-49">
      <rect id="Rectángulo_345344" data-name="Rectángulo 345344" width="18.501" height="13.097" fill="none"/>
    </clipPath>
    <clipPath id="clip-path-50">
      <rect id="Rectángulo_345345" data-name="Rectángulo 345345" width="34.853" height="40.769" fill="none"/>
    </clipPath>
    <clipPath id="clip-path-51">
      <rect id="Rectángulo_345346" data-name="Rectángulo 345346" width="0.836" height="0.837" fill="none"/>
    </clipPath>
    <clipPath id="clip-path-52">
      <rect id="Rectángulo_345347" data-name="Rectángulo 345347" width="0.837" height="0.837" fill="none"/>
    </clipPath>
    <clipPath id="clip-path-55">
      <rect id="Rectángulo_345350" data-name="Rectángulo 345350" width="23.207" height="13.165" fill="none"/>
    </clipPath>
    <clipPath id="clip-path-56">
      <rect id="Rectángulo_345351" data-name="Rectángulo 345351" width="5.182" height="6.726" fill="none"/>
    </clipPath>
    <clipPath id="clip-path-57">
      <rect id="Rectángulo_345352" data-name="Rectángulo 345352" width="3.13" height="10.21" fill="none"/>
    </clipPath>
    <clipPath id="clip-path-58">
      <rect id="Rectángulo_345353" data-name="Rectángulo 345353" width="15.303" height="29.625" fill="none"/>
    </clipPath>
    <clipPath id="clip-path-59">
      <rect id="Rectángulo_345354" data-name="Rectángulo 345354" width="10.515" height="9.437" fill="none"/>
    </clipPath>
  </defs>
  <g id="Grupo_1000172" data-name="Grupo 1000172" transform="translate(-4867 10194)">
    <rect id="Rectángulo_345532" data-name="Rectángulo 345532" width="464" height="367" transform="translate(4867 -10194)" fill="none"/>
    <g id="Grupo_1000165" data-name="Grupo 1000165" transform="translate(4883.998 -10170.453)">
      <g id="Grupo_999808" data-name="Grupo 999808" clip-path="url(#clip-path)">
        <rect id="Rectángulo_345282" data-name="Rectángulo 345282" width="430.187" height="0.215" transform="translate(0 281.726)" fill="#ebebeb"/>
        <rect id="Rectángulo_345283" data-name="Rectángulo 345283" width="28.497" height="0.215" transform="translate(358.586 295.575)" fill="#ebebeb"/>
        <rect id="Rectángulo_345284" data-name="Rectángulo 345284" width="7.479" height="0.215" transform="translate(277.494 297.909)" fill="#ebebeb"/>
        <rect id="Rectángulo_345285" data-name="Rectángulo 345285" width="16.513" height="0.215" transform="translate(341.212 287.585)" fill="#ebebeb"/>
        <rect id="Rectángulo_345286" data-name="Rectángulo 345286" width="37.162" height="0.215" transform="translate(45.134 289.031)" fill="#ebebeb"/>
        <rect id="Rectángulo_345287" data-name="Rectángulo 345287" width="5.449" height="0.215" transform="translate(89.957 289.031)" fill="#ebebeb"/>
        <rect id="Rectángulo_345288" data-name="Rectángulo 345288" width="80.596" height="0.214" transform="translate(113.114 292.664)" fill="#ebebeb"/>
        <g id="Grupo_999643" data-name="Grupo 999643">
          <g id="Grupo_999642" data-name="Grupo 999642" clip-path="url(#clip-path)">
            <path id="Trazado_704103" data-name="Trazado 704103" d="M209.255,243.354H43.118a4.916,4.916,0,0,1-4.911-4.911V4.911A4.917,4.917,0,0,1,43.118,0H209.255a4.917,4.917,0,0,1,4.91,4.911V238.443a4.916,4.916,0,0,1-4.91,4.911M43.118.215a4.7,4.7,0,0,0-4.7,4.7V238.443a4.7,4.7,0,0,0,4.7,4.7H209.255a4.7,4.7,0,0,0,4.7-4.7V4.911a4.7,4.7,0,0,0-4.7-4.7Z" transform="translate(-5.335)" fill="#ebebeb"/>
            <path id="Trazado_704104" data-name="Trazado 704104" d="M425.553,243.354H259.415a4.916,4.916,0,0,1-4.91-4.911V4.911A4.916,4.916,0,0,1,259.415,0H425.553a4.917,4.917,0,0,1,4.911,4.911V238.443a4.916,4.916,0,0,1-4.911,4.911M259.415.215a4.7,4.7,0,0,0-4.7,4.7V238.443a4.7,4.7,0,0,0,4.7,4.7H425.553a4.7,4.7,0,0,0,4.7-4.7V4.911a4.7,4.7,0,0,0-4.7-4.7Z" transform="translate(-35.535)" fill="#ebebeb"/>
            <rect id="Rectángulo_345289" data-name="Rectángulo 345289" width="100.401" height="111.1" transform="translate(261.71 61.655)" fill="#e9e9e9"/>
            <rect id="Rectángulo_345290" data-name="Rectángulo 345290" width="91.829" height="102.527" transform="translate(266.128 66.056)" fill="#f5f5f5"/>
            <path id="Trazado_704105" data-name="Trazado 704105" d="M335.269,76.776l-25.952,97.2V121.353l11.875-44.577Z" transform="translate(-43.189 -10.72)" fill="#fff"/>
            <path id="Trazado_704106" data-name="Trazado 704106" d="M347.683,76.776,320.313,179.3h-5.162l27.37-102.527Z" transform="translate(-44.003 -10.72)" fill="#fff"/>
            <path id="Trazado_704107" data-name="Trazado 704107" d="M412.82,109.272V161.9l-5.813,21.94H392.93Z" transform="translate(-54.863 -15.257)" fill="#fff"/>
            <rect id="Rectángulo_345291" data-name="Rectángulo 345291" width="3.566" height="111.1" transform="translate(310.128 61.655)" fill="#e9e9e9"/>
            <rect id="Rectángulo_345292" data-name="Rectángulo 345292" width="96.733" height="3.566" transform="translate(263.454 84.199)" fill="#e9e9e9"/>
            <rect id="Rectángulo_345293" data-name="Rectángulo 345293" width="100.401" height="111.1" transform="translate(68.075 61.655)" fill="#e9e9e9"/>
            <rect id="Rectángulo_345294" data-name="Rectángulo 345294" width="91.829" height="102.527" transform="translate(72.493 66.056)" fill="#f5f5f5"/>
            <path id="Trazado_704108" data-name="Trazado 704108" d="M110.21,76.776l-25.953,97.2V121.353L96.133,76.776Z" transform="translate(-11.764 -10.72)" fill="#fff"/>
            <path id="Trazado_704109" data-name="Trazado 704109" d="M122.624,76.776,95.254,179.3H90.091l27.37-102.527Z" transform="translate(-12.579 -10.72)" fill="#fff"/>
            <path id="Trazado_704110" data-name="Trazado 704110" d="M187.761,109.272V161.9l-5.813,21.94H167.871Z" transform="translate(-23.439 -15.257)" fill="#fff"/>
            <rect id="Rectángulo_345295" data-name="Rectángulo 345295" width="3.566" height="111.1" transform="translate(116.493 61.655)" fill="#e9e9e9"/>
            <rect id="Rectángulo_345296" data-name="Rectángulo 345296" width="96.733" height="3.566" transform="translate(69.818 84.199)" fill="#e9e9e9"/>
            <path id="Trazado_704111" data-name="Trazado 704111" d="M230.71,39.946a16.6,16.6,0,1,0,16.6-16.6,16.6,16.6,0,0,0-16.6,16.6" transform="translate(-32.213 -3.26)" fill="#e0e0e0"/>
            <path id="Trazado_704112" data-name="Trazado 704112" d="M233.6,40.349A14.111,14.111,0,1,0,247.71,26.238,14.111,14.111,0,0,0,233.6,40.349" transform="translate(-32.616 -3.663)" fill="#f0f0f0"/>
            <path id="Trazado_704113" data-name="Trazado 704113" d="M250.774,31.387v9.865l6.537-3.7" transform="translate(-35.014 -4.382)" fill="#f0f0f0"/>
            <path id="Trazado_704114" data-name="Trazado 704114" d="M250.774,31.387v9.865l6.537-3.7" transform="translate(-35.014 -4.382)" fill="none" stroke="#e0e0e0" stroke-linecap="round" stroke-linejoin="round" stroke-width="1.638"/>
            <path id="Trazado_704115" data-name="Trazado 704115" d="M244.843,284.852c-.01-.335-1.137-33.553-6.54-38.807-5.255-5.109-11.286-.19-11.54.022l-.542-.649c.068-.058,6.875-5.615,12.672.021,5.646,5.49,6.751,38,6.794,39.386Z" transform="translate(-31.586 -33.917)" fill="#e0e0e0"/>
            <path id="Trazado_704116" data-name="Trazado 704116" d="M248.332,290.089c-.039-.4-3.693-39.879,10.726-56.427l.638.555c-14.18,16.274-10.56,55.4-10.522,55.789Z" transform="translate(-34.612 -32.625)" fill="#e0e0e0"/>
            <path id="Trazado_704117" data-name="Trazado 704117" d="M246.389,285.419l-.845-.056c.031-.447,2.822-44.886-7.755-54.613l.573-.623c10.873,10,8.148,53.447,8.026,55.292" transform="translate(-33.202 -32.132)" fill="#e0e0e0"/>
            <path id="Trazado_704118" data-name="Trazado 704118" d="M249.248,288.578l-.846-.007c.01-1.223.349-30.016,8.527-34.7a5.785,5.785,0,0,1,5.292-.516c4.945,2.046,7.4,10.847,7.5,11.22l-.816.223c-.024-.087-2.443-8.775-7.006-10.662a4.985,4.985,0,0,0-4.547.468c-7.761,4.447-8.1,33.681-8.1,33.976" transform="translate(-34.683 -35.316)" fill="#e0e0e0"/>
            <path id="Trazado_704119" data-name="Trazado 704119" d="M242.674,288.818l-.844-.048c.013-.227,1.234-22.752-4.846-30.689-1.472-1.922-3.072-2.839-4.76-2.721-3.984.279-7.324,6.108-7.357,6.166l-.736-.416c.145-.256,3.6-6.282,8.033-6.593,1.985-.141,3.835.887,5.493,3.051,6.27,8.185,5.072,30.313,5.018,31.251" transform="translate(-31.294 -35.535)" fill="#e0e0e0"/>
            <path id="Trazado_704120" data-name="Trazado 704120" d="M247.033,287.776c-.165-2.185-3.974-53.618,2.727-62.681l.681.5c-6.516,8.812-2.6,61.582-2.564,62.114Z" transform="translate(-34.321 -31.429)" fill="#e0e0e0"/>
            <path id="Trazado_704121" data-name="Trazado 704121" d="M266.088,258.951s-4.02,1.482-2.825,4.981,13.906,9.257,13.906,9.257,5.324-4.879.434-12.815-11.408-3.926-11.516-1.422" transform="translate(-36.727 -35.701)" fill="#ebebeb"/>
            <path id="Trazado_704122" data-name="Trazado 704122" d="M244.6,251.477s4.28-.179,4.524,3.51-9.274,13.9-9.274,13.9-6.791-2.456-5.333-11.662,9.018-8.014,10.083-5.744" transform="translate(-32.716 -34.888)" fill="#ebebeb"/>
            <path id="Trazado_704123" data-name="Trazado 704123" d="M239.642,230.4s2.854-.306,2.624-2.045-11.095-6.212-17.5,1.023c0,0,4.1,7.05,10.037,7.142s4.843-6.12,4.843-6.12" transform="translate(-31.383 -31.47)" fill="#ebebeb"/>
            <path id="Trazado_704124" data-name="Trazado 704124" d="M247.693,224.808s-2.585,1.249-3.308-.348,6.13-11.14,15.4-8.39c0,0,.245,8.155-4.742,11.371s-7.347-2.633-7.347-2.633" transform="translate(-34.115 -30.1)" fill="#ebebeb"/>
            <path id="Trazado_704125" data-name="Trazado 704125" d="M230.452,257.417s1.969-1.59-.156-2.367-12.556-.556-12.665,9.776c0,0,12.148,2.018,13.652-1.917s-.831-5.493-.831-5.493" transform="translate(-30.387 -35.573)" fill="#ebebeb"/>
            <path id="Trazado_704126" data-name="Trazado 704126" d="M261.108,230.483s-1.969-1.59.156-2.367,12.556-.556,12.665,9.776c0,0-12.148,2.018-13.652-1.917s.831-5.493.831-5.493" transform="translate(-36.271 -31.813)" fill="#ebebeb"/>
            <path id="Trazado_704127" data-name="Trazado 704127" d="M253.271,240.366s-.174-1.933,1.388-1.175,7,6.623,1.361,12.19c0,0-7.587-5.619-6.22-8.545s3.471-2.469,3.471-2.469" transform="translate(-34.855 -33.372)" fill="#ebebeb"/>
            <path id="Trazado_704128" data-name="Trazado 704128" d="M229.112,243.5s1.178-1.543-.547-1.735-9.452,1.872-7.652,9.586c0,0,9.414-.707,9.818-3.912s-1.618-3.94-1.618-3.94" transform="translate(-30.807 -33.755)" fill="#ebebeb"/>
            <path id="Trazado_704129" data-name="Trazado 704129" d="M261.647,321.907h-32.3l-3.485-35.367h39.273Z" transform="translate(-31.536 -40.008)" fill="#f0f0f0"/>
            <rect id="Rectángulo_345297" data-name="Rectángulo 345297" width="42.723" height="7.804" transform="translate(192.598 242.629)" fill="#e6e6e6"/>
          </g>
        </g>
        <g id="Grupo_999645" data-name="Grupo 999645">
          <g id="Grupo_999644" data-name="Grupo 999644" clip-path="url(#clip-path)">
            <path id="Trazado_704130" data-name="Trazado 704130" d="M389.745,359.705c0,5.381-74.687,9.742-166.817,9.742s-166.817-4.361-166.817-9.742,74.687-9.742,166.817-9.742,166.817,4.362,166.817,9.742" transform="translate(-7.835 -48.864)" fill="#f5f5f5"/>
          </g>
        </g>
        <g id="Grupo_999650" data-name="Grupo 999650">
          <g id="Grupo_999649" data-name="Grupo 999649" clip-path="url(#clip-path)">
            <path id="Trazado_704131" data-name="Trazado 704131" d="M232.55,67.708H209.36a7.974,7.974,0,0,0-7.974,7.975V85.3a7.974,7.974,0,0,0,7.974,7.974h9.93l2.672,8.42,2.69-8.42h7.9a7.974,7.974,0,0,0,7.974-7.974V75.683a7.974,7.974,0,0,0-7.974-7.975" transform="translate(-28.119 -9.454)" fill="#263238"/>
            <path id="Trazado_704132" data-name="Trazado 704132" d="M213.105,81.668a1.611,1.611,0,1,1-1.611-1.611,1.61,1.61,0,0,1,1.611,1.611" transform="translate(-29.305 -11.178)" fill="#fff"/>
            <path id="Trazado_704133" data-name="Trazado 704133" d="M221.354,81.668a1.611,1.611,0,1,1-1.611-1.611,1.61,1.61,0,0,1,1.611,1.611" transform="translate(-30.457 -11.178)" fill="#fff"/>
            <path id="Trazado_704134" data-name="Trazado 704134" d="M229.6,81.668a1.611,1.611,0,1,1-1.611-1.611,1.611,1.611,0,0,1,1.611,1.611" transform="translate(-31.609 -11.178)" fill="#fff"/>
            <path id="Trazado_704135" data-name="Trazado 704135" d="M237.853,81.668a1.611,1.611,0,1,1-1.61-1.611,1.61,1.61,0,0,1,1.61,1.611" transform="translate(-32.761 -11.178)" fill="#fff"/>
            <g id="Grupo_999648" data-name="Grupo 999648" transform="translate(173.267 58.254)" opacity="0.3">
              <g id="Grupo_999647" data-name="Grupo 999647">
                <g id="Grupo_999646" data-name="Grupo 999646" clip-path="url(#clip-path-5)">
                  <path id="Trazado_704136" data-name="Trazado 704136" d="M232.55,67.708H209.36a7.974,7.974,0,0,0-7.974,7.975V85.3a7.974,7.974,0,0,0,7.974,7.974h9.93l2.672,8.42,2.69-8.42h7.9a7.974,7.974,0,0,0,7.974-7.974V75.683a7.974,7.974,0,0,0-7.974-7.975" transform="translate(-201.386 -67.708)" fill="#fff"/>
                </g>
              </g>
            </g>
          </g>
        </g>
        <g id="Grupo_999685" data-name="Grupo 999685">
          <g id="Grupo_999684" data-name="Grupo 999684" clip-path="url(#clip-path)">
            <path id="Trazado_704137" data-name="Trazado 704137" d="M254.152,152.4c1.4,1.44,2.894,2.916,4.374,4.335s2.973,2.845,4.491,4.193a56.982,56.982,0,0,0,4.575,3.731c.374.266.746.515,1.093.725a8.307,8.307,0,0,0,.849.462c.07.036.131.051-.029.043a.965.965,0,0,0-.17,0,1.554,1.554,0,0,0-.286.039,1.95,1.95,0,0,0-.433.129,2.525,2.525,0,0,0-.533.289,1.965,1.965,0,0,0-.256.212l-.114.111c-.067.075-.117.147-.143.181a.672.672,0,0,0-.095.18c-.009.047.034-.04.073-.137a11.135,11.135,0,0,0,.379-2.355c.07-.934.093-1.922.089-2.923-.009-2-.119-4.06-.27-6.12s-.353-4.132-.582-6.2-.455-4.16-.729-6.205l0-.019a2.129,2.129,0,0,1,4.178-.791c1.024,4.167,1.9,8.314,2.592,12.562.349,2.123.659,4.261.869,6.466.1,1.1.182,2.222.2,3.394a16.037,16.037,0,0,1-.338,3.911,7.535,7.535,0,0,1-.464,1.346,5.5,5.5,0,0,1-.5.857,4.04,4.04,0,0,1-.395.484c-.083.088-.139.152-.25.254a5.011,5.011,0,0,1-.415.33,4.2,4.2,0,0,1-.879.475,4.931,4.931,0,0,1-.814.233,5.6,5.6,0,0,1-.679.077c-.188.005-.391.005-.565-.006a6.964,6.964,0,0,1-1.568-.3,13.094,13.094,0,0,1-2.032-.825c-.581-.288-1.112-.585-1.624-.886a63.373,63.373,0,0,1-5.566-3.8c-3.506-2.633-6.756-5.365-10-8.285a4.3,4.3,0,0,1,5.744-6.392q.1.094.2.194Z" transform="translate(-34.453 -19.64)" fill="#e9c0bb"/>
            <path id="Trazado_704138" data-name="Trazado 704138" d="M260.96,159.529l-5.911,9.017-.086-.069-6.625-5.162-2.211-1.721a11.179,11.179,0,0,1-.525-5.128,12.835,12.835,0,0,1,2.048-4.758c5.05.069,7.812,2.125,13.31,7.821" transform="translate(-34.276 -21.182)" fill="#407bff"/>
            <g id="Grupo_999653" data-name="Grupo 999653" transform="translate(214.062 137.701)" opacity="0.2">
              <g id="Grupo_999652" data-name="Grupo 999652">
                <g id="Grupo_999651" data-name="Grupo 999651" clip-path="url(#clip-path-7)">
                  <path id="Trazado_704139" data-name="Trazado 704139" d="M255.426,169.641l-6.625-5.162c.232-1.05,1.971-3.373,2.651-4.431,0,0,3.974,2.636,3.974,9.593" transform="translate(-248.801 -160.048)"/>
                </g>
              </g>
            </g>
            <path id="Trazado_704140" data-name="Trazado 704140" d="M230.3,116.114s-11.454-2.723-15.231,2.293c-8.256,10.964,2.351,48.6,0,56.355,0,0,13.487,2.732,26.364-.1a103.486,103.486,0,0,0,1.7-33.98c-2.151-19.086-5.8-26.087-12.833-24.564" transform="translate(-29.582 -16.109)" fill="#263238"/>
            <path id="Trazado_704141" data-name="Trazado 704141" d="M250.19,189.6l-27.351,2.547a135.112,135.112,0,0,0-4.6-20.021c-.688-2.314-1.445-4.706-2.28-7.132-.353-1.05-.731-2.1-1.11-3.158-1.445-3.975.568-8.6.568-8.6s5.386-.344,5.928-.422c.594-.095,1.2-.172,1.815-.25a87.518,87.518,0,0,1,12.527-.9c1.041.017,2.108.069,3.158.112.336.026,4.13-.086,4.457-.069,0,0,5.481,5.808,5.988,10.651a86.434,86.434,0,0,1,.86,11.245c.146,4.414.043,16,.043,16" transform="translate(-29.925 -21.174)" fill="#407bff"/>
            <path id="Trazado_704142" data-name="Trazado 704142" d="M237.772,157.257c-8.664,1.127-14.291-6.6-14.291-6.6a4.356,4.356,0,0,0,2.426-1.42c1.248-1.48,1.325-3.743,1.084-5.618-.017-.095-.026-.189-.052-.284a35.687,35.687,0,0,0-1-4.637c-.258-.895-.533-1.729-.783-2.461l3.476,2.409,5.179,3.571a4.146,4.146,0,0,0-.026.662,10.043,10.043,0,0,0,.25,1.781c.043.215.095.43.138.645a5.748,5.748,0,0,0,1.067,2.4,5.3,5.3,0,0,0,4.3,1.85c3.312,3.381,1.213,7.3-1.772,7.7" transform="translate(-31.204 -19.022)" fill="#ebc0bb"/>
            <g id="Grupo_999656" data-name="Grupo 999656" transform="translate(193.955 117.216)" opacity="0.2">
              <g id="Grupo_999655" data-name="Grupo 999655">
                <g id="Grupo_999654" data-name="Grupo 999654" clip-path="url(#clip-path-8)">
                  <path id="Trazado_704143" data-name="Trazado 704143" d="M234.31,144.661a10.054,10.054,0,0,1-8.131,4.577c1.248-1.48,1.325-3.743,1.084-5.618-.017-.095-.026-.189-.052-.284a35.687,35.687,0,0,0-1-4.637c-.258-.895-.533-1.729-.783-2.461l3.476,2.409,5.179,3.571a4.145,4.145,0,0,0-.026.662,10.042,10.042,0,0,0,.25,1.781" transform="translate(-225.431 -136.238)"/>
                </g>
              </g>
            </g>
            <path id="Trazado_704144" data-name="Trazado 704144" d="M232.732,126.137c1.5,6.235,2.27,8.836.228,13.068-3.072,6.367-10.838,7.219-14.12,1.648-2.955-5.014-4.917-14.368.154-18.93a8.216,8.216,0,0,1,13.738,4.213" transform="translate(-30.141 -16.703)" fill="#ebc0bb"/>
            <path id="Trazado_704145" data-name="Trazado 704145" d="M219.738,134.548c.149.518.009,1.032-.313,1.149s-.7-.207-.853-.725-.009-1.033.313-1.15.7.208.853.726" transform="translate(-30.51 -18.682)" fill="#263238"/>
            <path id="Trazado_704146" data-name="Trazado 704146" d="M218.912,133.8l-1.285.071s.885.751,1.285-.071" transform="translate(-30.386 -18.682)" fill="#263238"/>
            <path id="Trazado_704147" data-name="Trazado 704147" d="M222.542,135.081a15.8,15.8,0,0,1-.805,3.943,2.144,2.144,0,0,0,1.855-.292Z" transform="translate(-30.96 -18.861)" fill="#d4827d"/>
            <path id="Trazado_704148" data-name="Trazado 704148" d="M215.932,131.745a.287.287,0,0,1-.222-.043.309.309,0,0,1-.064-.435,3.292,3.292,0,0,1,2.5-1.5.286.286,0,0,1,.289.311.341.341,0,0,1-.326.319,2.629,2.629,0,0,0-1.97,1.212.337.337,0,0,1-.21.139" transform="translate(-30.101 -18.118)" fill="#263238"/>
            <path id="Trazado_704149" data-name="Trazado 704149" d="M224.078,128.932a.288.288,0,0,1-.182-.134.31.31,0,0,1,.127-.421,3.292,3.292,0,0,1,2.905-.292.286.286,0,0,1,.129.405.34.34,0,0,1-.431.15,2.627,2.627,0,0,0-2.3.255.336.336,0,0,1-.25.037" transform="translate(-31.256 -17.855)" fill="#263238"/>
            <path id="Trazado_704150" data-name="Trazado 704150" d="M227.1,132.123c.149.518.009,1.032-.313,1.149s-.7-.208-.853-.726-.009-1.032.313-1.149.7.208.853.726" transform="translate(-31.538 -18.343)" fill="#263238"/>
            <path id="Trazado_704151" data-name="Trazado 704151" d="M226.277,131.375l-1.285.071s.886.751,1.285-.071" transform="translate(-31.415 -18.343)" fill="#263238"/>
            <path id="Trazado_704152" data-name="Trazado 704152" d="M231.419,130.445s-4.738-2.668-5.557-9.659c0,0-7.734.04-10.2,6.987,0,0,.608-9.882,11.618-10.7s8.412,11.413,7.636,12.706-3.5.664-3.5.664" transform="translate(-30.112 -16.341)" fill="#263238"/>
            <path id="Trazado_704153" data-name="Trazado 704153" d="M238.758,131.681a5.142,5.142,0,0,1-2.161,3.286c-1.464.946-2.681-.4-2.68-2.193,0-1.611.763-4.044,2.428-4.26,1.64-.212,2.748,1.471,2.413,3.167" transform="translate(-32.661 -17.941)" fill="#ebc0bb"/>
            <path id="Trazado_704154" data-name="Trazado 704154" d="M224,140.312a18.783,18.783,0,0,1,2.056,1.792c.133-.091.265-.183.391-.281,1.759-1.285,2.151-2.462,2.051-3.377a2.8,2.8,0,0,0-.478-1.241,2.729,2.729,0,0,0-.5-.575,10.253,10.253,0,0,1-2.93,3.234c-.355.286-.593.447-.593.447" transform="translate(-31.276 -19.077)" fill="#263238"/>
            <path id="Trazado_704155" data-name="Trazado 704155" d="M224.691,139.864l.62.512c1.654-1.213,2.655-2.289,2.807-3.171a2.7,2.7,0,0,0-.5-.575,10.282,10.282,0,0,1-2.93,3.234" transform="translate(-31.373 -19.077)" fill="#fff"/>
            <path id="Trazado_704156" data-name="Trazado 704156" d="M226.845,142.117c1.759-1.285,2.151-2.462,2.051-3.377a7.007,7.007,0,0,0-1.67,1.814,2.626,2.626,0,0,0-.381,1.563" transform="translate(-31.673 -19.372)" fill="#de5753"/>
            <path id="Trazado_704157" data-name="Trazado 704157" d="M224.06,198.248l27.3-2.891s1.137,8.188.941,8.078-29.26,2.145-29.26,2.145Z" transform="translate(-31.142 -27.277)" fill="#407bff"/>
            <g id="Grupo_999659" data-name="Grupo 999659" transform="translate(191.901 168.079)" opacity="0.6">
              <g id="Grupo_999658" data-name="Grupo 999658">
                <g id="Grupo_999657" data-name="Grupo 999657" clip-path="url(#clip-path-9)">
                  <path id="Trazado_704158" data-name="Trazado 704158" d="M224.06,198.248l27.3-2.891s1.137,8.188.941,8.078-29.26,2.145-29.26,2.145Z" transform="translate(-223.043 -195.356)" fill="#fff"/>
                </g>
              </g>
            </g>
            <path id="Trazado_704159" data-name="Trazado 704159" d="M262.963,274.421c-2.307,5.068-4.617,10.522-6.818,15.968-2.9,7.188-5.606,14.378-7.9,20.806-1.639,4.588-3.779,10.382-4.888,13.878a12.478,12.478,0,0,1-7.346-2.791c.687-6.245,2.554-22.456,6.7-36.818a96.54,96.54,0,0,1,8.524-21.174c-19.438-44.955-16.677-62.512-16.677-62.512l18.716-2.155s4.041,16.97,7.549,34.418v.008c1.831,9.148,3.513,18.424,4.392,25.458l.005.071a27.576,27.576,0,0,1-2.258,14.844" transform="translate(-32.732 -27.872)" fill="#407bff"/>
            <g id="Grupo_999662" data-name="Grupo 999662" transform="translate(206.299 191.803)" opacity="0.2">
              <g id="Grupo_999661" data-name="Grupo 999661">
                <g id="Grupo_999660" data-name="Grupo 999660" clip-path="url(#clip-path-10)">
                  <path id="Trazado_704160" data-name="Trazado 704160" d="M246.51,254.151c-2.925-7.668-5.114-14.332-6.732-20.066.882-4.635,2.313-8.65,4.466-11.156,0,0,4.223,12.444,2.265,31.221" transform="translate(-239.778 -222.93)"/>
                </g>
              </g>
            </g>
            <g id="Grupo_999665" data-name="Grupo 999665" transform="translate(203.284 257.592)" opacity="0.2">
              <g id="Grupo_999664" data-name="Grupo 999664">
                <g id="Grupo_999663" data-name="Grupo 999663" clip-path="url(#clip-path-11)">
                  <path id="Trazado_704161" data-name="Trazado 704161" d="M248.508,325.126c-1.639,4.588-3.779,10.381-4.888,13.877a12.478,12.478,0,0,1-7.346-2.79c.687-6.245,2.554-22.456,6.7-36.818,1.907,7.536,4.119,17.074,5.537,25.731" transform="translate(-236.274 -299.395)"/>
                </g>
              </g>
            </g>
            <g id="Grupo_999668" data-name="Grupo 999668" transform="translate(201.692 171.751)" opacity="0.6">
              <g id="Grupo_999667" data-name="Grupo 999667">
                <g id="Grupo_999666" data-name="Grupo 999666" clip-path="url(#clip-path-12)">
                  <path id="Trazado_704162" data-name="Trazado 704162" d="M262.963,274.421c-2.307,5.068-4.617,10.522-6.818,15.968-2.9,7.188-5.606,14.378-7.9,20.806-1.639,4.588-3.779,10.382-4.888,13.878a12.478,12.478,0,0,1-7.346-2.791c.687-6.245,2.554-22.456,6.7-36.818a96.54,96.54,0,0,1,8.524-21.174c-19.438-44.955-16.677-62.512-16.677-62.512l18.716-2.155s4.041,16.97,7.549,34.418v.008c1.831,9.148,3.513,18.424,4.392,25.458l.005.071a27.576,27.576,0,0,1-2.258,14.844" transform="translate(-234.424 -199.623)" fill="#fff"/>
                </g>
              </g>
            </g>
            <path id="Trazado_704163" data-name="Trazado 704163" d="M245.63,348.46A8.467,8.467,0,0,1,244,345.952l0-.007h0a.166.166,0,0,1-.013-.053.171.171,0,0,1,.01-.075h0a.189.189,0,0,1,.017-.035h0a.166.166,0,0,1,.061-.059,3.964,3.964,0,0,1,2.493-.582,1.055,1.055,0,0,1,.662.59.627.627,0,0,1-.028.731c-.249.262-.854.222-1.471.09a2.807,2.807,0,0,1,1.064,1.118.731.731,0,0,1-.019.59.658.658,0,0,1-.6.451.921.921,0,0,1-.551-.25m-1.073-2.192c.5.977,1.212,2.076,1.629,2.081.036,0,.147,0,.268-.248a.377.377,0,0,0,0-.309c-.194-.536-1.2-1.161-1.9-1.525m2.147-.656a.726.726,0,0,0-.243-.13,2.985,2.985,0,0,0-1.846.367c1.023.36,2.115.585,2.327.361.066-.07,0-.238-.04-.333a.719.719,0,0,0-.2-.266" transform="translate(-34.067 -48.181)" fill="#407bff"/>
            <path id="Trazado_704164" data-name="Trazado 704164" d="M236.906,339.689c.37-.417,5.321,4.336,5.321,4.336s.453,5.993,2.96,9.371-.827,3.777-4.323.825l-8.646-7.3c-2.484-2.1.856-2.9,4.688-7.23" transform="translate(-32.304 -47.426)" fill="#407bff"/>
            <g id="Grupo_999671" data-name="Grupo 999671" transform="translate(199.059 292.237)" opacity="0.3">
              <g id="Grupo_999670" data-name="Grupo 999670">
                <g id="Grupo_999669" data-name="Grupo 999669" clip-path="url(#clip-path-13)">
                  <path id="Trazado_704165" data-name="Trazado 704165" d="M236.906,339.689c.37-.417,5.321,4.336,5.321,4.336s.453,5.993,2.96,9.371-.827,3.777-4.323.825l-8.646-7.3c-2.484-2.1.856-2.9,4.688-7.23" transform="translate(-231.363 -339.663)" fill="#fff"/>
                </g>
              </g>
            </g>
            <g id="Grupo_999674" data-name="Grupo 999674" transform="translate(199.059 292.237)" opacity="0.2">
              <g id="Grupo_999673" data-name="Grupo 999673">
                <g id="Grupo_999672" data-name="Grupo 999672" clip-path="url(#clip-path-13)">
                  <path id="Trazado_704166" data-name="Trazado 704166" d="M236.906,339.689c.37-.417,5.321,4.336,5.321,4.336s.453,5.993,2.96,9.371-.827,3.777-4.323.825l-8.646-7.3c-2.484-2.1.856-2.9,4.688-7.23" transform="translate(-231.363 -339.663)"/>
                </g>
              </g>
            </g>
            <path id="Trazado_704167" data-name="Trazado 704167" d="M243.464,353.85a8.481,8.481,0,0,1-2.85-.9l-.007,0h0a.167.167,0,0,1-.044-.033.181.181,0,0,1-.04-.064h0a.209.209,0,0,1-.009-.039h0a.175.175,0,0,1,.01-.084c.027-.072.62-1.66,1.553-2.035a1.058,1.058,0,0,1,.886.034c.31.152.459.348.443.582-.025.36-.517.716-1.077,1.006a2.812,2.812,0,0,1,1.533.187.736.736,0,0,1,.361.467.658.658,0,0,1-.175.729.926.926,0,0,1-.583.157m-2.223-1.01c1,.44,2.256.831,2.58.57.028-.023.115-.092.05-.361a.383.383,0,0,0-.194-.242,4.47,4.47,0,0,0-2.437.033m1.241-1.871a.712.712,0,0,0-.27.055,2.977,2.977,0,0,0-1.192,1.457c1.019-.373,2-.894,2.026-1.2.006-.1-.149-.186-.242-.231a.734.734,0,0,0-.323-.079" transform="translate(-33.582 -48.954)" fill="#407bff"/>
            <path id="Trazado_704168" data-name="Trazado 704168" d="M231.64,352.29c.02-.557,6.864-.038,6.864-.038s4.162,4.336,8.244,5.349,1.764,3.441-2.811,3.386l-11.316-.136c-3.25-.039-1.186-2.783-.981-8.561" transform="translate(-32.226 -49.153)" fill="#407bff"/>
            <g id="Grupo_999677" data-name="Grupo 999677" transform="translate(198.579 302.88)" opacity="0.3">
              <g id="Grupo_999676" data-name="Grupo 999676">
                <g id="Grupo_999675" data-name="Grupo 999675" clip-path="url(#clip-path-15)">
                  <path id="Trazado_704169" data-name="Trazado 704169" d="M231.64,352.29c.02-.557,6.864-.038,6.864-.038s4.162,4.336,8.244,5.349,1.764,3.441-2.811,3.386l-11.316-.136c-3.25-.039-1.186-2.783-.981-8.561" transform="translate(-230.805 -352.032)" fill="#fff"/>
                </g>
              </g>
            </g>
            <path id="Trazado_704170" data-name="Trazado 704170" d="M243.5,197.829s-3.856,42.57-6.215,63.077c-2.477,21.536-1.583,55.906-.225,69.875-1.173.742-5.512,1.752-7.9,1.1,0,0-12.819-42.875-6.363-68.309-8.645-49.281.664-61.785.664-61.785Z" transform="translate(-30.594 -27.622)" fill="#407bff"/>
            <g id="Grupo_999680" data-name="Grupo 999680" transform="translate(188.524 170.207)" opacity="0.6">
              <g id="Grupo_999679" data-name="Grupo 999679">
                <g id="Grupo_999678" data-name="Grupo 999678" clip-path="url(#clip-path-16)">
                  <path id="Trazado_704171" data-name="Trazado 704171" d="M243.5,197.829s-3.856,42.57-6.215,63.077c-2.477,21.536-1.583,55.906-.225,69.875-1.173.742-5.512,1.752-7.9,1.1,0,0-12.819-42.875-6.363-68.309-8.645-49.281.664-61.785.664-61.785Z" transform="translate(-219.118 -197.829)" fill="#fff"/>
                </g>
              </g>
            </g>
            <path id="Trazado_704172" data-name="Trazado 704172" d="M224.509,198.82l27.029-2.53.1,2.566-27.279,2.5Z" transform="translate(-31.326 -27.407)"/>
            <path id="Trazado_704173" data-name="Trazado 704173" d="M241.687,199.838l-.176-1.5a.521.521,0,0,1,.457-.577l2.958-.345a.521.521,0,0,1,.581.5l.06,1.585a.52.52,0,0,1-.472.539l-2.844.26A.52.52,0,0,1,241.687,199.838Z" transform="translate(-33.721 -27.564)" fill="none" stroke="#fff" stroke-miterlimit="10" stroke-width="0.617"/>
            <path id="Trazado_704174" data-name="Trazado 704174" d="M273.861,144.312l4.881-5.6-5.758-1.846s-4.566,5.013-2.484,6.735Z" transform="translate(-37.693 -19.11)" fill="#ebc0bb"/>
            <path id="Trazado_704175" data-name="Trazado 704175" d="M277.867,132.093l-5.019,1.678.3,5.338,5.993-1.061Z" transform="translate(-38.097 -18.444)" fill="#ebc0bb"/>
            <path id="Trazado_704176" data-name="Trazado 704176" d="M226.343,119.115a8.207,8.207,0,0,0-.436,5.994,5.832,5.832,0,0,1-1.211-3.754,7.689,7.689,0,0,0-1.219,4s-5.009.311-8.131,2.373c0,0,.065-10.466,11-8.612" transform="translate(-30.068 -16.601)" fill="#263238"/>
            <g id="Grupo_999683" data-name="Grupo 999683" transform="translate(186.031 142.02)" opacity="0.2">
              <g id="Grupo_999682" data-name="Grupo 999682">
                <g id="Grupo_999681" data-name="Grupo 999681" clip-path="url(#clip-path-17)">
                  <path id="Trazado_704177" data-name="Trazado 704177" d="M218.5,174c-.688-2.314-1.445-4.706-2.28-7.132a8.279,8.279,0,0,1,3.674-1.8S220.669,171,218.5,174" transform="translate(-216.221 -165.068)"/>
                </g>
              </g>
            </g>
            <path id="Trazado_704178" data-name="Trazado 704178" d="M214.37,162.415a97.268,97.268,0,0,1-5.4,11.707,47.263,47.263,0,0,1-3.6,5.677,19.767,19.767,0,0,1-2.535,2.811,10.245,10.245,0,0,1-1.893,1.362,7.68,7.68,0,0,1-1.275.558,8.779,8.779,0,0,1-1.209.3,13.683,13.683,0,0,1-3.984.029,29.192,29.192,0,0,1-3.391-.635,59.057,59.057,0,0,1-6.207-1.932A103.813,103.813,0,0,1,173.3,177.2a2.129,2.129,0,0,1,1.72-3.888l.034.014c1.856.7,3.8,1.368,5.714,1.985s3.846,1.216,5.771,1.723a53.313,53.313,0,0,0,5.728,1.216,23,23,0,0,0,2.717.25,8.238,8.238,0,0,0,2.167-.182,1.682,1.682,0,0,0,.28-.1.83.83,0,0,0,.121-.093,4.776,4.776,0,0,0,.548-.517,13.5,13.5,0,0,0,1.421-1.916,40.447,40.447,0,0,0,2.594-4.994c.793-1.775,1.516-3.616,2.206-5.476.689-1.842,1.363-3.776,1.925-5.587l.014-.046a4.3,4.3,0,0,1,8.209,2.544c-.029.094-.065.2-.1.287" transform="translate(-24.035 -21.859)" fill="#e9c0bb"/>
            <path id="Trazado_704179" data-name="Trazado 704179" d="M175.556,175.993l-4.518-5.9-2.952,5.277s4.006,5.47,6.108,3.771Z" transform="translate(-23.469 -23.75)" fill="#ebc0bb"/>
            <path id="Trazado_704180" data-name="Trazado 704180" d="M164.439,170.169l.648,5.252,5.291.762.151-6.085Z" transform="translate(-22.96 -23.75)" fill="#ebc0bb"/>
            <path id="Trazado_704181" data-name="Trazado 704181" d="M214.327,153.493c-4.477.807-7.773,10.692-7.773,10.692l9.507,6.765,4.68-6.838a6.236,6.236,0,0,0-.488-5.711c-1.837-2.856-5.926-4.908-5.926-4.908" transform="translate(-28.84 -21.432)" fill="#407bff"/>
          </g>
        </g>
        <g id="Grupo_999687" data-name="Grupo 999687">
          <g id="Grupo_999686" data-name="Grupo 999686" clip-path="url(#clip-path)">
            <path id="Trazado_704182" data-name="Trazado 704182" d="M324.711,121.232H347.9a7.974,7.974,0,0,1,7.974,7.974v9.622A7.974,7.974,0,0,1,347.9,146.8h-3.906l-.092,8.419-5.272-8.419h-13.92a7.974,7.974,0,0,1-7.974-7.974v-9.622a7.974,7.974,0,0,1,7.974-7.974" transform="translate(-44.225 -16.927)" fill="#407bff"/>
            <path id="Trazado_704183" data-name="Trazado 704183" d="M349.983,135.191a1.611,1.611,0,1,0,1.611-1.611,1.611,1.611,0,0,0-1.611,1.611" transform="translate(-48.867 -18.651)" fill="#fff"/>
            <path id="Trazado_704184" data-name="Trazado 704184" d="M341.734,135.191a1.611,1.611,0,1,0,1.611-1.611,1.61,1.61,0,0,0-1.611,1.611" transform="translate(-47.715 -18.651)" fill="#fff"/>
            <path id="Trazado_704185" data-name="Trazado 704185" d="M333.484,135.191a1.611,1.611,0,1,0,1.611-1.611,1.61,1.61,0,0,0-1.611,1.611" transform="translate(-46.563 -18.651)" fill="#fff"/>
            <path id="Trazado_704186" data-name="Trazado 704186" d="M325.235,135.191a1.611,1.611,0,1,0,1.611-1.611,1.61,1.61,0,0,0-1.611,1.611" transform="translate(-45.411 -18.651)" fill="#fff"/>
          </g>
        </g>
        <path id="Trazado_704187" data-name="Trazado 704187" d="M399.5,347.739l1.014,12.65-15.433-10.56Z" transform="translate(-53.767 -48.553)" fill="#263238"/>
        <g id="Grupo_999734" data-name="Grupo 999734">
          <g id="Grupo_999733" data-name="Grupo 999733" clip-path="url(#clip-path)">
            <g id="Grupo_999690" data-name="Grupo 999690" transform="translate(331.316 299.185)" opacity="0.7">
              <g id="Grupo_999689" data-name="Grupo 999689">
                <g id="Grupo_999688" data-name="Grupo 999688" clip-path="url(#clip-path-20)">
                  <path id="Trazado_704188" data-name="Trazado 704188" d="M399.5,347.739l1.014,12.65-15.433-10.56Z" transform="translate(-385.084 -347.739)" fill="#fff"/>
                </g>
              </g>
            </g>
            <g id="Grupo_999693" data-name="Grupo 999693" transform="translate(331.316 299.987)" opacity="0.5">
              <g id="Grupo_999692" data-name="Grupo 999692">
                <g id="Grupo_999691" data-name="Grupo 999691" clip-path="url(#clip-path-21)">
                  <path id="Trazado_704189" data-name="Trazado 704189" d="M393.969,348.671l6.548,11.847-15.433-10.559Z" transform="translate(-385.084 -348.671)" fill="#fff"/>
                </g>
              </g>
            </g>
            <path id="Trazado_704190" data-name="Trazado 704190" d="M313.52,342.063h75.434a14.722,14.722,0,0,0,14.723-14.723V297.873a14.722,14.722,0,0,0-14.723-14.723H313.52A14.722,14.722,0,0,0,298.8,297.873v29.468a14.722,14.722,0,0,0,14.722,14.723" transform="translate(-41.72 -39.535)" fill="#263238"/>
            <g id="Grupo_999696" data-name="Grupo 999696" transform="translate(257.078 243.615)" opacity="0.7">
              <g id="Grupo_999695" data-name="Grupo 999695">
                <g id="Grupo_999694" data-name="Grupo 999694" clip-path="url(#clip-path-22)">
                  <path id="Trazado_704191" data-name="Trazado 704191" d="M313.52,342.063h75.434a14.722,14.722,0,0,0,14.723-14.723V297.873a14.722,14.722,0,0,0-14.723-14.723H313.52A14.722,14.722,0,0,0,298.8,297.873v29.468a14.722,14.722,0,0,0,14.722,14.723" transform="translate(-298.798 -283.15)" fill="#fff"/>
                </g>
              </g>
            </g>
            <g id="Grupo_999699" data-name="Grupo 999699" transform="translate(257.078 243.615)" opacity="0.5">
              <g id="Grupo_999698" data-name="Grupo 999698">
                <g id="Grupo_999697" data-name="Grupo 999697" clip-path="url(#clip-path-23)">
                  <path id="Trazado_704192" data-name="Trazado 704192" d="M313.52,342.063h67.339a14.722,14.722,0,0,0,14.722-14.723V297.873a14.722,14.722,0,0,0-14.722-14.723H313.52A14.722,14.722,0,0,0,298.8,297.873v29.468a14.722,14.722,0,0,0,14.722,14.723" transform="translate(-298.798 -283.15)" fill="#fff"/>
                </g>
              </g>
            </g>
            <g id="Grupo_999702" data-name="Grupo 999702" transform="translate(327.841 269.091)" opacity="0.2" style="isolation: isolate">
              <g id="Grupo_999701" data-name="Grupo 999701">
                <g id="Grupo_999700" data-name="Grupo 999700" clip-path="url(#clip-path-24)">
                  <path id="Trazado_704193" data-name="Trazado 704193" d="M381.045,316.741a3.981,3.981,0,1,0,3.981-3.981,3.981,3.981,0,0,0-3.981,3.981" transform="translate(-381.045 -312.76)"/>
                </g>
              </g>
            </g>
            <g id="Grupo_999705" data-name="Grupo 999705" transform="translate(310.722 269.091)" opacity="0.2" style="isolation: isolate">
              <g id="Grupo_999704" data-name="Grupo 999704">
                <g id="Grupo_999703" data-name="Grupo 999703" clip-path="url(#clip-path-24)">
                  <path id="Trazado_704194" data-name="Trazado 704194" d="M361.147,316.741a3.981,3.981,0,1,0,3.981-3.981,3.981,3.981,0,0,0-3.981,3.981" transform="translate(-361.147 -312.76)"/>
                </g>
              </g>
            </g>
            <g id="Grupo_999708" data-name="Grupo 999708" transform="translate(293.602 269.091)" opacity="0.2" style="isolation: isolate">
              <g id="Grupo_999707" data-name="Grupo 999707">
                <g id="Grupo_999706" data-name="Grupo 999706" clip-path="url(#clip-path-24)">
                  <path id="Trazado_704195" data-name="Trazado 704195" d="M341.249,316.741a3.981,3.981,0,1,0,3.981-3.981,3.981,3.981,0,0,0-3.981,3.981" transform="translate(-341.249 -312.76)"/>
                </g>
              </g>
            </g>
            <g id="Grupo_999711" data-name="Grupo 999711" transform="translate(276.482 269.091)" opacity="0.2" style="isolation: isolate">
              <g id="Grupo_999710" data-name="Grupo 999710">
                <g id="Grupo_999709" data-name="Grupo 999709" clip-path="url(#clip-path-24)">
                  <path id="Trazado_704196" data-name="Trazado 704196" d="M321.351,316.741a3.981,3.981,0,1,0,3.981-3.981,3.981,3.981,0,0,0-3.981,3.981" transform="translate(-321.351 -312.76)"/>
                </g>
              </g>
            </g>
            <path id="Trazado_704197" data-name="Trazado 704197" d="M305.61,240.861l-6.252-1.438,1.552,6.944s6.154-.215,6.519-3.149Z" transform="translate(-41.798 -33.43)" fill="#ffb573"/>
            <path id="Trazado_704198" data-name="Trazado 704198" d="M292.349,241.428l3.362,5.518,4.22-.579-1.552-6.945Z" transform="translate(-40.819 -33.429)" fill="#ffb573"/>
            <path id="Trazado_704199" data-name="Trazado 704199" d="M347.322,214.88c-2.051,3.718-4.211,7.256-6.618,10.763-1.2,1.755-2.456,3.479-3.853,5.2a33.234,33.234,0,0,1-2.31,2.595,17.976,17.976,0,0,1-1.5,1.359,10.534,10.534,0,0,1-2.066,1.261,22.388,22.388,0,0,1-3.425,1.212c-1.08.3-2.137.553-3.188.787-2.1.448-4.18.811-6.257,1.119-4.156.626-8.288,1.023-12.478,1.25a2.107,2.107,0,0,1-.677-4.133l.03-.008,11.805-3.263c1.948-.556,3.883-1.121,5.758-1.736.936-.3,1.858-.619,2.736-.954a19.543,19.543,0,0,0,2.32-1.039c.547-.21,1.807-1.834,2.885-3.33,1.1-1.55,2.172-3.226,3.238-4.909,2.1-3.382,4.2-6.9,6.232-10.329l.026-.044a4.231,4.231,0,0,1,7.346,4.2" transform="translate(-42.363 -29.127)" fill="#e9b376"/>
            <path id="Trazado_704200" data-name="Trazado 704200" d="M347.2,207.308c-8.383,1.434-15.192,19.528-15.192,19.528l-5.472,2.589,3.6,9.276s6.626-.188,10.8-2.659,13.091-19.556,13.091-19.556Z" transform="translate(-45.592 -28.945)" fill="#407bff"/>
            <g id="Grupo_999714" data-name="Grupo 999714" transform="translate(280.938 178.363)" opacity="0.2">
              <g id="Grupo_999713" data-name="Grupo 999713">
                <g id="Grupo_999712" data-name="Grupo 999712" clip-path="url(#clip-path-28)">
                  <path id="Trazado_704201" data-name="Trazado 704201" d="M354.028,216.488a156.5,156.5,0,0,1-8.939,14.979,17.973,17.973,0,0,1-4.156,4.577c-.043.026-.077.043-.12.069-4.173,2.4-10.677,2.59-10.677,2.59l-3.6-9.275,5.472-2.59s6.814-18.094,15.194-19.531Z" transform="translate(-326.53 -207.308)"/>
                </g>
              </g>
            </g>
            <path id="Trazado_704202" data-name="Trazado 704202" d="M328.405,242.649l-4.412-9.259,2.759-1.162,5.025,10.276Z" transform="translate(-45.238 -32.425)" fill="#407bff"/>
            <g id="Grupo_999717" data-name="Grupo 999717" transform="translate(294.954 193.643)" opacity="0.2">
              <g id="Grupo_999716" data-name="Grupo 999716">
                <g id="Grupo_999715" data-name="Grupo 999715" clip-path="url(#clip-path-29)">
                  <path id="Trazado_704203" data-name="Trazado 704203" d="M347.363,233.947a17.973,17.973,0,0,1-4.156,4.577c-.043.026-.077.043-.12.069a28.465,28.465,0,0,1,1.5-13.525,30.8,30.8,0,0,1,2.779,8.879" transform="translate(-342.821 -225.068)"/>
                </g>
              </g>
            </g>
            <path id="Trazado_704204" data-name="Trazado 704204" d="M350.944,257.4c6.986-.7,16.075-1.255,27.9-1.522,0,0,8.819,20.771-1.639,26.977-3.16,1.875-8.376,2.616-14.115,2.739a11.876,11.876,0,0,1-12.149-11.858Z" transform="translate(-49.001 -35.727)" fill="#263238"/>
            <path id="Trazado_704205" data-name="Trazado 704205" d="M370.025,274.684v9.759c-8.7,2.509-26.751,1.554-37.482.678a9.308,9.308,0,0,1-8.549-9.28v-8.008a6.367,6.367,0,0,1,4.126-5.963c5.2-1.956,14.669-4.873,24.573-4.72a17.562,17.562,0,0,1,17.332,17.534" transform="translate(-45.238 -35.904)" fill="#263238"/>
            <path id="Trazado_704206" data-name="Trazado 704206" d="M323.564,303.77c3.164,8.549,6.818,19.251,10.719,32.76.077.246.145.492.212.738.077.262.153.517.229.78l4.029-.983,1.518-.373s-.059-.594-.187-1.654q-.037-.33-.077-.712v-.009c-1.085-9.422-5.266-44.006-9.413-51.189a28.562,28.562,0,0,0,8.26.272c2.57-.433,5.682-18.2,5.682-18.2a54.826,54.826,0,0,0-13.264-1.883h-.094s-13.072,3.081-15.591,6.779c-3.095,4.537-.233,11.488,7.976,33.673" transform="translate(-43.894 -36.766)" fill="#ffb573"/>
            <path id="Trazado_704207" data-name="Trazado 704207" d="M331.022,360.112l9.439-4.164,2.985-3.333.924,1.255,1.129-.491a7.212,7.212,0,0,0-2.579-7.04c-.077-.067-.187-.144-.314-.245a1.119,1.119,0,0,0-.127-.094c-.016-.009-.034-.025-.051-.034-.042-.034-.093-.068-.144-.11-.009-.009-.017-.009-.034-.017v-.009a.719.719,0,0,0-.084-.051l-5.182,2.289s-.084.272-.246.712a26.554,26.554,0,0,1-3.213,6.556c-.059.076-.119.152-.178.22a3.985,3.985,0,0,1-.526.526c-3.969,3.189-1.8,4.028-1.8,4.028" transform="translate(-46.136 -48.28)" fill="#407bff"/>
            <path id="Trazado_704208" data-name="Trazado 704208" d="M333.819,355.425c1.476.576,3.562-.882,5.148-2.79a28.643,28.643,0,0,0,2.5-4.189,9.252,9.252,0,0,1,1.331-2.027c.221-.2.424-.28.6-.2a.03.03,0,0,1-.009-.016c-.076-.068-.187-.145-.313-.246-.034-.026-.077-.059-.127-.094-.017-.008-.034-.025-.051-.034-.042-.034-.094-.068-.145-.11-.009-.009-.017-.009-.034-.017V345.7a.741.741,0,0,0-.085-.051c-.542-.407-1.145-.823-1.145-.823l-4.163,1.84s-.119.491-.331,1.247c-.542,1.925-1.687,5.588-3,7.293-.059.076-.119.152-.178.22" transform="translate(-46.61 -48.146)" fill="#ffb573"/>
            <g id="Grupo_999720" data-name="Grupo 999720" transform="translate(279.188 226.551)" opacity="0.1" style="isolation: isolate">
              <g id="Grupo_999719" data-name="Grupo 999719">
                <g id="Grupo_999718" data-name="Grupo 999718" clip-path="url(#clip-path-30)">
                  <path id="Trazado_704209" data-name="Trazado 704209" d="M324.978,303.77c3.164,8.549,6.818,19.251,10.719,32.76-.543,1.925-1.687,5.589-3,7.293-.059.077-.119.152-.178.22a3.836,3.836,0,0,1-.526.526c-3.969,3.189-1.8,4.028-1.8,4.028l9.439-4.163,2.985-3.333.925,1.255,1.128-.492a7.212,7.212,0,0,0-2.579-7.039c-.077-.068-.187-.145-.314-.246a1.2,1.2,0,0,0-.126-.094c-.017-.008-.034-.025-.051-.034-.043-.034-.094-.068-.145-.11-.009-.009-.017-.009-.034-.017v-.009c-1.085-9.422-5.266-44.006-9.413-51.189a28.562,28.562,0,0,0,8.26.272c2.57-.433,5.682-18.2,5.682-18.2a54.826,54.826,0,0,0-13.264-1.883h-.094s1.587.152,3.74,2.858c0,0-8.785,1.636-11.168,6.284-.958,1.883-.763,15.612-.187,31.31" transform="translate(-324.496 -263.317)"/>
                </g>
              </g>
            </g>
            <path id="Trazado_704210" data-name="Trazado 704210" d="M346.391,265.509s-15.039,2.357-17.557,6.049c-4.332,6.353,3.473,18.846,17.709,68.683l5.55-1.365s-3.2-45.22-8-53.556c0,0,6.416.866,9.977.269,4.575-.767,7.468-16.033-7.675-20.081" transform="translate(-45.747 -37.072)" fill="#ffb573"/>
            <path id="Trazado_704211" data-name="Trazado 704211" d="M354.479,360.726l-1.23,0-.342-1.519-4.072,1.839h-10.32s-1.642-1.65,3.274-2.965a3.683,3.683,0,0,0,.7-.267c2.621-1.229,6.35-5.378,6.35-5.378H354.5a7.54,7.54,0,0,1-.017,8.291" transform="translate(-47.228 -49.209)" fill="#407bff"/>
            <path id="Trazado_704212" data-name="Trazado 704212" d="M355.647,353.053v.017c-.748-.834-4.15,2.827-6.642,4.073-2.226,1.108-4.726,1.6-5.834.472,2.621-1.229,6.742-6.594,6.742-6.594h4.553s.915,1.5,1.181,2.031" transform="translate(-47.915 -49.012)" fill="#ffb573"/>
            <path id="Trazado_704213" data-name="Trazado 704213" d="M366.533,171.02c4.664,8.579,4.434,19.579,2.828,21.878s-25,1.041-25,1.041,2.276-2.49,2.51-16.378,19.663-6.541,19.663-6.541" transform="translate(-48.081 -23.608)" fill="#263238"/>
            <path id="Trazado_704214" data-name="Trazado 704214" d="M347.645,184.234c-2.308-3.6-4.889-13.454,3.869-16.938,10.935-4.349,16.24,2.507,17.521,9.485s-2.432,12.469-9.8,12.278-9.994-2.337-11.59-4.824" transform="translate(-48.229 -23.169)" fill="#263238"/>
            <path id="Trazado_704215" data-name="Trazado 704215" d="M362.635,189.318c-.49,4.2-.728,11.792,2.3,14.094,0,0-3.908,0-11.274,6.226-2.853-3.02-1.267-4.354-1.267-4.354,4.42-1.758,4.054-5.117,3.036-8.17Z" transform="translate(-49.141 -26.434)" fill="#ebb376"/>
            <g id="Grupo_999723" data-name="Grupo 999723" transform="translate(306.288 166.064)" opacity="0.2">
              <g id="Grupo_999722" data-name="Grupo 999722">
                <g id="Grupo_999721" data-name="Grupo 999721" clip-path="url(#clip-path-31)">
                  <path id="Trazado_704216" data-name="Trazado 704216" d="M360.261,193.014l-4.267,4.611a12.675,12.675,0,0,1,.552,2.193c1.7-.508,3.922-2.768,3.97-4.615a6.094,6.094,0,0,0-.255-2.189" transform="translate(-355.994 -193.014)"/>
                </g>
              </g>
            </g>
            <path id="Trazado_704217" data-name="Trazado 704217" d="M364.58,178.591c-.495,6.685-.562,9.525-3.984,12.917-5.148,5.1-13.252,3.032-14.764-3.667-1.361-6.029-.323-15.949,6.259-18.529a9.143,9.143,0,0,1,12.488,9.279" transform="translate(-48.214 -23.548)" fill="#ffb573"/>
            <path id="Trazado_704218" data-name="Trazado 704218" d="M361.664,172.125c-2.055,2.158,1.524,9.836,4.735,11.372,6.645-1.563,1.4-17.811-4.735-11.372" transform="translate(-50.413 -23.823)" fill="#263238"/>
            <path id="Trazado_704219" data-name="Trazado 704219" d="M351.963,167.942c-2.55.865-5.259,5.278-5.71,6.977,3.626.594,13.4-2.8,13.4-2.8s6.523,1.8,3.219-1.506-10.91-2.667-10.91-2.667" transform="translate(-48.346 -23.442)" fill="#263238"/>
            <path id="Trazado_704220" data-name="Trazado 704220" d="M347.986,183.1c-.007.545-.3.983-.657.978s-.639-.45-.632-.995.3-.983.657-.978.639.45.632.995" transform="translate(-48.408 -25.427)" fill="#263238"/>
            <path id="Trazado_704221" data-name="Trazado 704221" d="M347.431,182.081l-1.3-.394s.658,1.031,1.3.394" transform="translate(-48.328 -25.368)" fill="#263238"/>
            <path id="Trazado_704222" data-name="Trazado 704222" d="M368.918,186.853a4.9,4.9,0,0,1-2.587,2.7c-1.578.681-2.6-.675-2.351-2.283.221-1.449,1.309-3.548,2.985-3.548a2.2,2.2,0,0,1,1.953,3.128" transform="translate(-50.816 -25.653)" fill="#ffb573"/>
            <path id="Trazado_704223" data-name="Trazado 704223" d="M357.66,180.292a.32.32,0,0,1-.332-.176,3.782,3.782,0,0,0-2.549-1.648.32.32,0,1,1,.1-.632,4.374,4.374,0,0,1,3.023,2,.321.321,0,0,1-.147.428.3.3,0,0,1-.1.029" transform="translate(-49.498 -24.83)" fill="#263238"/>
            <path id="Trazado_704224" data-name="Trazado 704224" d="M345.955,178.477a.32.32,0,0,1-.245-.566,3.177,3.177,0,0,1,2.848-.646.32.32,0,0,1-.2.609,2.534,2.534,0,0,0-2.25.536.316.316,0,0,1-.155.067" transform="translate(-48.253 -24.736)" fill="#263238"/>
            <path id="Trazado_704225" data-name="Trazado 704225" d="M355.143,183.192c-.007.545-.3.983-.657.978s-.639-.45-.632-.995.3-.983.657-.978.639.45.632.995" transform="translate(-49.407 -25.439)" fill="#263238"/>
            <path id="Trazado_704226" data-name="Trazado 704226" d="M354.588,182.171l-1.3-.394s.658,1.031,1.3.394" transform="translate(-49.328 -25.381)" fill="#263238"/>
            <path id="Trazado_704227" data-name="Trazado 704227" d="M351.677,190.575a18.886,18.886,0,0,1,1.552,2.243c.151-.056.3-.112.448-.176,2.021-.812,2.69-1.857,2.819-2.769a2.8,2.8,0,0,0-.158-1.32,2.731,2.731,0,0,0-.341-.681,10.271,10.271,0,0,1-3.636,2.414c-.415.188-.685.287-.685.287" transform="translate(-49.103 -26.232)" fill="#263238"/>
            <path id="Trazado_704228" data-name="Trazado 704228" d="M352.473,190.287l.475.65c1.9-.769,3.138-1.567,3.5-2.383a2.714,2.714,0,0,0-.341-.68,10.262,10.262,0,0,1-3.636,2.413" transform="translate(-49.214 -26.232)" fill="#fff"/>
            <path id="Trazado_704229" data-name="Trazado 704229" d="M354,192.967c2.021-.812,2.69-1.857,2.819-2.768a7.007,7.007,0,0,0-2.066,1.346,2.626,2.626,0,0,0-.754,1.421" transform="translate(-49.428 -26.557)" fill="#de5753"/>
            <path id="Trazado_704230" data-name="Trazado 704230" d="M351.271,183.28a2.28,2.28,0,1,0,2.259-2.585A2.439,2.439,0,0,0,351.271,183.28Z" transform="translate(-49.046 -25.23)" fill="none" stroke="#263238" stroke-miterlimit="10" stroke-width="0.492"/>
            <path id="Trazado_704231" data-name="Trazado 704231" d="M344.259,183.28a2.28,2.28,0,1,0,2.259-2.585A2.439,2.439,0,0,0,344.259,183.28Z" transform="translate(-48.067 -25.23)" fill="none" stroke="#263238" stroke-miterlimit="10" stroke-width="0.492"/>
            <path id="Trazado_704232" data-name="Trazado 704232" d="M349.993,183.191a14.574,14.574,0,0,1-1.986,3.453,2.346,2.346,0,0,0,1.938.389Z" transform="translate(-48.591 -25.578)" fill="#ed893e"/>
            <path id="Trazado_704233" data-name="Trazado 704233" d="M351.025,183.654s-1-.63-1.514,0" transform="translate(-48.801 -25.604)" fill="none" stroke="#263238" stroke-miterlimit="10" stroke-width="0.492"/>
            <line id="Línea_2447" data-name="Línea 2447" x2="8.116" transform="translate(306.744 158.05)" fill="none" stroke="#263238" stroke-miterlimit="10" stroke-width="0.492"/>
            <path id="Trazado_704234" data-name="Trazado 704234" d="M379.226,248.589c-1.352-1.784-4.482-6.049-4.878-10.538l0-.039c-.024-.287-.039-.576-.039-.866-.072-1.909-.059-4.169.065-6.881.017-.423.042-.872.068-1.322.076-1.423.186-2.956.323-4.625.253-2.991.618-6.4,1.109-10.284.111-.9.23-1.813.356-2.762a6.516,6.516,0,0,0-6.718-7.589c-1.11.042-2.287.118-3.482.237a88.46,88.46,0,0,0-12.554,1.8c-1.347.314-2.736.7-4.066,1.076-4.778,1.372-6.98,7.488-7.04,12.41-.059,4.587,3.158,13.948,5.363,22.171.324,4.717-2.253,7.287-1.477,8.931s23.576-2.823,32.971,2.779c0,0,1.442-2.6,0-4.5" transform="translate(-47.803 -28.439)" fill="#407bff"/>
            <g id="Grupo_999726" data-name="Grupo 999726" transform="translate(294.566 175.239)" opacity="0.2">
              <g id="Grupo_999725" data-name="Grupo 999725">
                <g id="Grupo_999724" data-name="Grupo 999724" clip-path="url(#clip-path-32)">
                  <path id="Trazado_704235" data-name="Trazado 704235" d="M379.226,248.589c-1.352-1.784-4.482-6.049-4.878-10.538l0-.039c-.024-.287-.039-.576-.039-.866-.072-1.909-.059-4.169.065-6.881.017-.423.042-.872.068-1.322.076-1.423.186-2.956.323-4.625.253-2.991.618-6.4,1.109-10.284.111-.9.23-1.813.356-2.762a6.516,6.516,0,0,0-6.718-7.589c-1.11.042-2.287.118-3.482.237a88.46,88.46,0,0,0-12.554,1.8c-1.347.314-2.736.7-4.066,1.076-4.778,1.372-6.98,7.488-7.04,12.41-.059,4.587,3.158,13.948,5.363,22.171.324,4.717-2.253,7.287-1.477,8.931s23.576-2.823,32.971,2.779c0,0,1.442-2.6,0-4.5" transform="translate(-342.369 -203.678)"/>
                </g>
              </g>
            </g>
            <path id="Trazado_704236" data-name="Trazado 704236" d="M366.881,203.649l-1.276-2.726-12.435,1.9-.709,4.084s4.2,3.607,14.42-3.255" transform="translate(-49.213 -28.054)" fill="#407bff"/>
            <g id="Grupo_999729" data-name="Grupo 999729" transform="translate(303.259 182.111)" opacity="0.2">
              <g id="Grupo_999728" data-name="Grupo 999728">
                <g id="Grupo_999727" data-name="Grupo 999727" clip-path="url(#clip-path-33)">
                  <path id="Trazado_704237" data-name="Trazado 704237" d="M352.473,231.38s3.485,17.115,23.311,0c.016-.423.042-.872.067-1.322.077-1.423.187-2.956.323-4.625l-10.287-13.769a28.3,28.3,0,0,0-6.215,11.423l-1.657-.33Z" transform="translate(-352.473 -211.665)"/>
                </g>
              </g>
            </g>
            <path id="Trazado_704238" data-name="Trazado 704238" d="M342.042,208.751l-2.536-6.731,6.163-1.248s2.434,4.456-.263,7.66Z" transform="translate(-47.404 -28.033)" fill="#ffb573"/>
            <path id="Trazado_704239" data-name="Trazado 704239" d="M340.161,196.321l4.816.169.692,3.66-6.164,1.248Z" transform="translate(-47.404 -27.411)" fill="#ffb573"/>
            <path id="Trazado_704240" data-name="Trazado 704240" d="M375.432,210.4a74.041,74.041,0,0,1-5.212,12.645,32.765,32.765,0,0,1-4.113,6.161,11.96,11.96,0,0,1-3.8,3,7.774,7.774,0,0,1-1.6.544,6.892,6.892,0,0,1-1.883.133,7.662,7.662,0,0,1-3-.87,12.543,12.543,0,0,1-3.506-2.841,26.136,26.136,0,0,1-2.278-2.979,49.733,49.733,0,0,1-3.338-6.078,82.161,82.161,0,0,1-4.634-12.551,2.1,2.1,0,0,1,3.891-1.539l.027.054c1.933,3.752,4.018,7.527,6.207,11.055a50.9,50.9,0,0,0,3.486,4.972,18.782,18.782,0,0,0,1.852,2.033,5.671,5.671,0,0,0,1.6,1.128c.163.059.223.037.1,0a.918.918,0,0,0-.268,0c-.067,0-.094.009-.074-.015a7.759,7.759,0,0,0,1.1-1.192,29.042,29.042,0,0,0,2.8-4.814c.861-1.8,1.669-3.694,2.425-5.618.778-1.9,1.488-3.925,2.152-5.791l.048-.135a4.229,4.229,0,0,1,8.017,2.695" transform="translate(-47.75 -28.608)" fill="#e9b376"/>
            <path id="Trazado_704241" data-name="Trazado 704241" d="M372.864,203.677c-6.747-.388-12.836,18.966-12.836,18.966l-2.377-1.165-5.178,8.786s3.041,6.268,8.73,5.852,13.753-7.251,16.5-17.714.684-14.407-4.841-14.725" transform="translate(-49.214 -28.438)" fill="#407bff"/>
            <g id="Grupo_999732" data-name="Grupo 999732" transform="translate(303.259 175.233)" opacity="0.2">
              <g id="Grupo_999731" data-name="Grupo 999731">
                <g id="Grupo_999730" data-name="Grupo 999730" clip-path="url(#clip-path-34)">
                  <path id="Trazado_704242" data-name="Trazado 704242" d="M372.864,203.677c-6.747-.388-12.836,18.966-12.836,18.966l-2.377-1.165-5.178,8.786s3.041,6.268,8.73,5.852,13.753-7.251,16.5-17.714.684-14.407-4.841-14.725" transform="translate(-352.473 -203.671)"/>
                </g>
              </g>
            </g>
            <path id="Trazado_704243" data-name="Trazado 704243" d="M350.752,231.607l5.486-8.666,2.454,1.716-6.021,9.727Z" transform="translate(-48.974 -31.128)" fill="#407bff"/>
          </g>
        </g>
        <g id="Grupo_999736" data-name="Grupo 999736">
          <g id="Grupo_999735" data-name="Grupo 999735" clip-path="url(#clip-path)">
            <path id="Trazado_704244" data-name="Trazado 704244" d="M138.4,125.643h-23.19a7.974,7.974,0,0,0-7.974,7.974v9.622a7.974,7.974,0,0,0,7.974,7.975h3.906l.092,8.419,5.272-8.419H138.4a7.974,7.974,0,0,0,7.974-7.975v-9.622a7.974,7.974,0,0,0-7.974-7.974" transform="translate(-14.973 -17.543)" fill="#407bff"/>
            <path id="Trazado_704245" data-name="Trazado 704245" d="M118.959,139.6a1.611,1.611,0,1,1-1.611-1.611,1.61,1.61,0,0,1,1.611,1.611" transform="translate(-16.16 -19.267)" fill="#fff"/>
            <path id="Trazado_704246" data-name="Trazado 704246" d="M127.209,139.6a1.611,1.611,0,1,1-1.611-1.611,1.61,1.61,0,0,1,1.611,1.611" transform="translate(-17.312 -19.267)" fill="#fff"/>
            <path id="Trazado_704247" data-name="Trazado 704247" d="M135.458,139.6a1.611,1.611,0,1,1-1.611-1.611,1.61,1.61,0,0,1,1.611,1.611" transform="translate(-18.464 -19.267)" fill="#fff"/>
            <path id="Trazado_704248" data-name="Trazado 704248" d="M143.708,139.6a1.611,1.611,0,1,1-1.611-1.611,1.61,1.61,0,0,1,1.611,1.611" transform="translate(-19.616 -19.267)" fill="#fff"/>
          </g>
        </g>
        <path id="Trazado_704249" data-name="Trazado 704249" d="M98.474,347.739l-1.014,12.65,15.433-10.56Z" transform="translate(-13.608 -48.553)" fill="#263238"/>
        <g id="Grupo_999807" data-name="Grupo 999807">
          <g id="Grupo_999806" data-name="Grupo 999806" clip-path="url(#clip-path)">
            <g id="Grupo_999739" data-name="Grupo 999739" transform="translate(83.852 299.185)" opacity="0.7">
              <g id="Grupo_999738" data-name="Grupo 999738">
                <g id="Grupo_999737" data-name="Grupo 999737" clip-path="url(#clip-path-20)">
                  <path id="Trazado_704250" data-name="Trazado 704250" d="M98.474,347.739l-1.014,12.65,15.433-10.56Z" transform="translate(-97.46 -347.739)" fill="#fff"/>
                </g>
              </g>
            </g>
            <g id="Grupo_999742" data-name="Grupo 999742" transform="translate(83.852 299.987)" opacity="0.5">
              <g id="Grupo_999741" data-name="Grupo 999741">
                <g id="Grupo_999740" data-name="Grupo 999740" clip-path="url(#clip-path-21)">
                  <path id="Trazado_704251" data-name="Trazado 704251" d="M104.008,348.671,97.46,360.518l15.433-10.559Z" transform="translate(-97.46 -348.671)" fill="#fff"/>
                </g>
              </g>
            </g>
            <path id="Trazado_704252" data-name="Trazado 704252" d="M169.941,342.063H94.507a14.722,14.722,0,0,1-14.723-14.723V297.873A14.722,14.722,0,0,1,94.507,283.15h75.434a14.722,14.722,0,0,1,14.722,14.723v29.468a14.722,14.722,0,0,1-14.722,14.723" transform="translate(-11.14 -39.535)" fill="#263238"/>
            <g id="Grupo_999745" data-name="Grupo 999745" transform="translate(68.644 243.615)" opacity="0.7">
              <g id="Grupo_999744" data-name="Grupo 999744">
                <g id="Grupo_999743" data-name="Grupo 999743" clip-path="url(#clip-path-22)">
                  <path id="Trazado_704253" data-name="Trazado 704253" d="M169.941,342.063H94.507a14.722,14.722,0,0,1-14.723-14.723V297.873A14.722,14.722,0,0,1,94.507,283.15h75.434a14.722,14.722,0,0,1,14.722,14.723v29.468a14.722,14.722,0,0,1-14.722,14.723" transform="translate(-79.784 -283.15)" fill="#fff"/>
                </g>
              </g>
            </g>
            <g id="Grupo_999748" data-name="Grupo 999748" transform="translate(76.74 243.615)" opacity="0.5">
              <g id="Grupo_999747" data-name="Grupo 999747">
                <g id="Grupo_999746" data-name="Grupo 999746" clip-path="url(#clip-path-23)">
                  <path id="Trazado_704254" data-name="Trazado 704254" d="M171.255,342.063H103.916a14.722,14.722,0,0,1-14.722-14.723V297.873a14.722,14.722,0,0,1,14.722-14.723h67.339a14.722,14.722,0,0,1,14.722,14.723v29.468a14.722,14.722,0,0,1-14.722,14.723" transform="translate(-89.194 -283.15)" fill="#fff"/>
                </g>
              </g>
            </g>
            <g id="Grupo_999751" data-name="Grupo 999751" transform="translate(94.798 269.091)" opacity="0.2" style="isolation: isolate">
              <g id="Grupo_999750" data-name="Grupo 999750">
                <g id="Grupo_999749" data-name="Grupo 999749" clip-path="url(#clip-path-24)">
                  <path id="Trazado_704255" data-name="Trazado 704255" d="M118.144,316.741a3.981,3.981,0,1,1-3.981-3.981,3.981,3.981,0,0,1,3.981,3.981" transform="translate(-110.182 -312.76)"/>
                </g>
              </g>
            </g>
            <g id="Grupo_999754" data-name="Grupo 999754" transform="translate(111.918 269.091)" opacity="0.2" style="isolation: isolate">
              <g id="Grupo_999753" data-name="Grupo 999753">
                <g id="Grupo_999752" data-name="Grupo 999752" clip-path="url(#clip-path-24)">
                  <path id="Trazado_704256" data-name="Trazado 704256" d="M138.042,316.741a3.981,3.981,0,1,1-3.981-3.981,3.981,3.981,0,0,1,3.981,3.981" transform="translate(-130.08 -312.76)"/>
                </g>
              </g>
            </g>
            <g id="Grupo_999757" data-name="Grupo 999757" transform="translate(129.037 269.091)" opacity="0.2" style="isolation: isolate">
              <g id="Grupo_999756" data-name="Grupo 999756">
                <g id="Grupo_999755" data-name="Grupo 999755" clip-path="url(#clip-path-24)">
                  <path id="Trazado_704257" data-name="Trazado 704257" d="M157.94,316.741a3.981,3.981,0,1,1-3.981-3.981,3.981,3.981,0,0,1,3.981,3.981" transform="translate(-149.978 -312.76)"/>
                </g>
              </g>
            </g>
            <g id="Grupo_999760" data-name="Grupo 999760" transform="translate(146.157 269.091)" opacity="0.2" style="isolation: isolate">
              <g id="Grupo_999759" data-name="Grupo 999759">
                <g id="Grupo_999758" data-name="Grupo 999758" clip-path="url(#clip-path-44)">
                  <path id="Trazado_704258" data-name="Trazado 704258" d="M177.839,316.741a3.981,3.981,0,1,1-3.981-3.981,3.981,3.981,0,0,1,3.981,3.981" transform="translate(-169.876 -312.76)"/>
                </g>
              </g>
            </g>
            <path id="Trazado_704259" data-name="Trazado 704259" d="M203.461,353.85a8.481,8.481,0,0,1-2.85-.9l-.006,0h0a.167.167,0,0,1-.044-.033.18.18,0,0,1-.04-.064h0a.211.211,0,0,1-.009-.039h0a.175.175,0,0,1,.01-.084c.027-.072.62-1.66,1.553-2.035a1.058,1.058,0,0,1,.886.034c.31.152.459.348.443.582-.025.36-.517.716-1.077,1.006a2.812,2.812,0,0,1,1.533.187.736.736,0,0,1,.361.467.658.658,0,0,1-.175.729.926.926,0,0,1-.583.157m-2.223-1.01c1,.44,2.256.831,2.58.57.028-.023.115-.092.05-.361a.38.38,0,0,0-.194-.242,4.471,4.471,0,0,0-2.437.033m1.241-1.871a.712.712,0,0,0-.27.055,2.977,2.977,0,0,0-1.192,1.457c1.019-.373,2-.894,2.026-1.2.006-.1-.149-.186-.242-.231a.734.734,0,0,0-.323-.079" transform="translate(-27.996 -48.954)" fill="#407bff"/>
            <path id="Trazado_704260" data-name="Trazado 704260" d="M191.637,352.29c.02-.557,6.864-.038,6.864-.038s4.162,4.336,8.244,5.349,1.765,3.441-2.811,3.386l-11.317-.136c-3.25-.039-1.186-2.783-.981-8.561" transform="translate(-26.641 -49.153)" fill="#263238"/>
            <path id="Trazado_704261" data-name="Trazado 704261" d="M135.094,254.359l.45,4.774s27.945,4.248,32.418,8.62,20.508,71.289,20.508,71.289-4.661,1.98-8.313.951c0,0-21.9-42.371-21.655-56.266,0,0-19.561.73-32.914.73s-14.947-30.1-14.947-30.1Z" transform="translate(-15.448 -35.515)" fill="#407bff"/>
            <g id="Grupo_999763" data-name="Grupo 999763" transform="translate(121.734 228.72)" opacity="0.2" style="isolation: isolate">
              <g id="Grupo_999762" data-name="Grupo 999762">
                <g id="Grupo_999761" data-name="Grupo 999761" clip-path="url(#clip-path-45)">
                  <path id="Trazado_704262" data-name="Trazado 704262" d="M161.425,285.377c-3.192.112-11.452.387-19.935.551l1.738-20.09s10.049,1.222,16.364,5.98c2.392,1.8,2.5,7.537,1.833,13.56" transform="translate(-141.49 -265.838)"/>
                </g>
              </g>
            </g>
            <path id="Trazado_704263" data-name="Trazado 704263" d="M132.457,353.85a8.481,8.481,0,0,1-2.85-.9l-.006,0h0a.167.167,0,0,1-.044-.033.18.18,0,0,1-.04-.064h0a.211.211,0,0,1-.009-.039h0a.175.175,0,0,1,.01-.084c.027-.072.62-1.66,1.553-2.035a1.058,1.058,0,0,1,.886.034c.31.152.459.348.443.582-.025.36-.517.716-1.077,1.006a2.812,2.812,0,0,1,1.533.187.736.736,0,0,1,.361.467.658.658,0,0,1-.175.729.926.926,0,0,1-.583.157m-2.223-1.01c1,.44,2.256.831,2.58.57.028-.023.115-.092.05-.361a.38.38,0,0,0-.194-.242,4.471,4.471,0,0,0-2.437.033m1.241-1.871a.712.712,0,0,0-.27.055,2.977,2.977,0,0,0-1.192,1.457c1.019-.373,2-.894,2.026-1.2.006-.1-.149-.186-.242-.231a.734.734,0,0,0-.323-.079" transform="translate(-18.082 -48.954)" fill="#407bff"/>
            <path id="Trazado_704264" data-name="Trazado 704264" d="M120.633,352.29c.02-.557,6.863-.038,6.863-.038s4.162,4.336,8.244,5.349,1.765,3.441-2.81,3.386l-11.316-.136c-3.25-.039-1.186-2.783-.981-8.561" transform="translate(-16.727 -49.153)" fill="#263238"/>
            <path id="Trazado_704265" data-name="Trazado 704265" d="M109.775,254.359s-8.639,12.793-3.938,23.3,28.242,5.769,28.242,5.769c-3.544,5.478-7.566,10.311-15.977,55.2a11.9,11.9,0,0,0,7.915.656S152.331,285.168,153,275.505s-27.781-15.865-27.781-15.865Z" transform="translate(-14.582 -35.515)" fill="#407bff"/>
            <path id="Trazado_704266" data-name="Trazado 704266" d="M139.186,214.011c1.264,3.207,2.648,6.52,4.074,9.662.73,1.564,1.483,3.1,2.272,4.537l.61,1.026c.2.346.415.617.614.937a9.538,9.538,0,0,0,.587.786l.14.183.1.095a1.948,1.948,0,0,1,.192.216c.027.034.013.02-.011,0a.364.364,0,0,0-.062-.034c-.037-.023-.109-.015-.124-.035-.051-.03-.14-.006-.12-.013,0,0-.014.015,0,.022a.228.228,0,0,1,.071.006c.029.025.146.005.234.009a6.153,6.153,0,0,0,1.739-.444,27.256,27.256,0,0,0,4.295-2.209c2.9-1.783,5.831-3.891,8.631-6.011l.056-.043a1.979,1.979,0,0,1,2.729,2.827,57.378,57.378,0,0,1-7.927,8.093,28.98,28.98,0,0,1-5.012,3.4,13.087,13.087,0,0,1-3.416,1.245,7.253,7.253,0,0,1-1.118.143l-.608.017c-.217-.007-.453-.034-.679-.059a6.327,6.327,0,0,1-1.438-.336,4.593,4.593,0,0,1-.734-.331l-.36-.2a2.2,2.2,0,0,1-.293-.188c-.285-.215-.568-.436-.846-.664l-.414-.345-.316-.323a16.6,16.6,0,0,1-1.167-1.291c-.328-.418-.691-.851-.975-1.271l-.862-1.263c-1.078-1.673-2.011-3.355-2.879-5.049a90.856,90.856,0,0,1-4.452-10.361,3.976,3.976,0,0,1,7.439-2.806Z" transform="translate(-18.359 -29.521)" fill="#b97863"/>
            <path id="Trazado_704267" data-name="Trazado 704267" d="M135.831,210.161c7.233,2.552,7.233,11.73,12.429,21l-4.33,7.429a31.538,31.538,0,0,1-11.184-16.653c-2.672-10.665,3.085-11.774,3.085-11.774" transform="translate(-18.436 -29.344)" fill="#407bff"/>
            <g id="Grupo_999766" data-name="Grupo 999766" transform="translate(113.601 180.821)" opacity="0.7">
              <g id="Grupo_999765" data-name="Grupo 999765">
                <g id="Grupo_999764" data-name="Grupo 999764" clip-path="url(#clip-path-46)">
                  <path id="Trazado_704268" data-name="Trazado 704268" d="M148.256,231.163l-4.319,7.428a24.164,24.164,0,0,1-2.566-2.193,33.448,33.448,0,0,1-5.066-6.23,28.875,28.875,0,0,1-3.562-8.231c-2.668-10.663,3.087-11.771,3.087-11.771,7.237,2.544,7.237,11.725,12.426,21" transform="translate(-132.037 -210.166)" fill="#fff"/>
                </g>
              </g>
            </g>
            <path id="Trazado_704269" data-name="Trazado 704269" d="M149.965,233.368l1.453.675-2.656,9.238h-4.523s1.828-7.8,5.726-9.913" transform="translate(-20.139 -32.584)" fill="#407bff"/>
            <g id="Grupo_999769" data-name="Grupo 999769" transform="translate(124.1 200.784)" opacity="0.6">
              <g id="Grupo_999768" data-name="Grupo 999768">
                <g id="Grupo_999767" data-name="Grupo 999767" clip-path="url(#clip-path-47)">
                  <path id="Trazado_704270" data-name="Trazado 704270" d="M149.965,233.368l1.453.675-2.656,9.238h-4.523s1.828-7.8,5.726-9.913" transform="translate(-144.239 -233.368)" fill="#fff"/>
                </g>
              </g>
            </g>
            <g id="Grupo_999772" data-name="Grupo 999772" transform="translate(117.809 193.191)" opacity="0.1">
              <g id="Grupo_999771" data-name="Grupo 999771">
                <g id="Grupo_999770" data-name="Grupo 999770" clip-path="url(#clip-path-48)">
                  <path id="Trazado_704271" data-name="Trazado 704271" d="M142.052,238.405a33.415,33.415,0,0,1-5.065-6.23,34.217,34.217,0,0,1,.361-7.632,29.857,29.857,0,0,1,4.7,13.862" transform="translate(-136.928 -224.543)"/>
                </g>
              </g>
            </g>
            <path id="Trazado_704272" data-name="Trazado 704272" d="M100.22,177.172c-.229-2.019,6.308-6.446,9.862-6.191s2.07,2.17,4.407,1.63,5.279-.476,6.334,1.47-1.46,5.262.764,5.81,5.313,2.811,3.4,5.625-8.4,8.1-15.9,9.277-10.763-8.214-10.4-11.613a2.088,2.088,0,0,0-2.4,2.4c.078,2.754,3.725,4.329,2.446,6.841s-2.426,3.759.07,5.342.211,5.041-1.607,4.99c0,0,.89-.319.32-1.706s-3.343.231-5.376-3.221.681-4.4-.53-5.851-3.406-.437-4.1-3.713c-.5-2.388,2.616-5.042,3.233-6.88s-1.313-2.269-.235-5.574c.718-2.2,4.262-2.707,6.159-2.226a4.436,4.436,0,0,1,3.564,3.586" transform="translate(-12.209 -23.872)" fill="#263238"/>
            <g id="Grupo_999775" data-name="Grupo 999775" transform="translate(93.779 179.495)" opacity="0.7">
              <g id="Grupo_999774" data-name="Grupo 999774">
                <g id="Grupo_999773" data-name="Grupo 999773" clip-path="url(#clip-path-49)">
                  <path id="Trazado_704273" data-name="Trazado 704273" d="M126.811,221.721A87.04,87.04,0,0,0,109,209.3c.585-.068,1.188-.127,1.79-.178a86.283,86.283,0,0,1,12.3-.416c1.019.059,2.062.145,3.089.229v.009c2.544,5.827.635,12.775.635,12.775" transform="translate(-108.998 -208.624)" fill="#fff"/>
                </g>
              </g>
            </g>
            <path id="Trazado_704274" data-name="Trazado 704274" d="M108.792,254.954l26.844-1.81s.807,8.062.619,7.946-28.733,1.007-28.733,1.007Z" transform="translate(-15.013 -35.345)" fill="#407bff"/>
            <path id="Trazado_704275" data-name="Trazado 704275" d="M109.242,255.525l26.562-1.467v2.517L109,258Z" transform="translate(-15.219 -35.473)" fill="#263238"/>
            <path id="Trazado_704276" data-name="Trazado 704276" d="M126.051,257.019l-.115-1.476a.51.51,0,0,1,.469-.548l2.909-.227a.511.511,0,0,1,.551.509v1.554a.511.511,0,0,1-.484.509l-2.794.149A.51.51,0,0,1,126.051,257.019Z" transform="translate(-17.584 -35.572)" fill="none" stroke="#fff" stroke-miterlimit="10" stroke-width="0.604"/>
            <path id="Trazado_704277" data-name="Trazado 704277" d="M107.233,248.738A152.071,152.071,0,0,0,101.1,217.9a11.723,11.723,0,0,1-.4-6.639s6.566-1.9,7.1-1.956c.585-.067,1.187-.126,1.79-.178a86.537,86.537,0,0,1,12.3-.416c1.018.059,2.061.145,3.088.231.33.033,6.116.975,6.439,1.008,0,0,3.078,4.98,3.392,9.747a83.944,83.944,0,0,1,.424,11.045c-.026,4.326-.361,16.565-.361,16.565-.783,1.758-10.536.32-10.536.32-10.916,3.171-17.1,1.115-17.1,1.115" transform="translate(-14.02 -29.129)" fill="#407bff"/>
            <g id="Grupo_999778" data-name="Grupo 999778" transform="translate(86.39 179.495)" opacity="0.7">
              <g id="Grupo_999777" data-name="Grupo 999777">
                <g id="Grupo_999776" data-name="Grupo 999776" clip-path="url(#clip-path-50)">
                  <path id="Trazado_704278" data-name="Trazado 704278" d="M107.233,248.738A152.071,152.071,0,0,0,101.1,217.9a11.723,11.723,0,0,1-.4-6.639s6.566-1.9,7.1-1.956c.585-.067,1.187-.126,1.79-.178a86.537,86.537,0,0,1,12.3-.416c1.018.059,2.061.145,3.088.231.33.033,6.116.975,6.439,1.008,0,0,3.078,4.98,3.392,9.747a83.944,83.944,0,0,1,.424,11.045c-.026,4.326-.361,16.565-.361,16.565-.783,1.758-10.536.32-10.536.32-10.916,3.171-17.1,1.115-17.1,1.115" transform="translate(-100.41 -208.624)" fill="#fff"/>
                </g>
              </g>
            </g>
            <g id="Grupo_999781" data-name="Grupo 999781" transform="translate(107.97 191.094)" opacity="0.2">
              <g id="Grupo_999780" data-name="Grupo 999780">
                <g id="Grupo_999779" data-name="Grupo 999779" clip-path="url(#clip-path-51)">
                  <path id="Trazado_704279" data-name="Trazado 704279" d="M126.328,222.524a.419.419,0,1,1-.418-.418.418.418,0,0,1,.418.418" transform="translate(-125.492 -222.106)"/>
                </g>
              </g>
            </g>
            <g id="Grupo_999784" data-name="Grupo 999784" transform="translate(109.498 199.947)" opacity="0.2">
              <g id="Grupo_999783" data-name="Grupo 999783">
                <g id="Grupo_999782" data-name="Grupo 999782" clip-path="url(#clip-path-52)">
                  <path id="Trazado_704280" data-name="Trazado 704280" d="M128.105,232.814a.419.419,0,1,1-.418-.418.418.418,0,0,1,.418.418" transform="translate(-127.268 -232.395)"/>
                </g>
              </g>
            </g>
            <g id="Grupo_999787" data-name="Grupo 999787" transform="translate(109.917 208.392)" opacity="0.2">
              <g id="Grupo_999786" data-name="Grupo 999786">
                <g id="Grupo_999785" data-name="Grupo 999785" clip-path="url(#clip-path-51)">
                  <path id="Trazado_704281" data-name="Trazado 704281" d="M128.591,242.63a.419.419,0,1,1-.418-.418.418.418,0,0,1,.418.418" transform="translate(-127.755 -242.211)"/>
                </g>
              </g>
            </g>
            <g id="Grupo_999790" data-name="Grupo 999790" transform="translate(110.335 216.519)" opacity="0.2">
              <g id="Grupo_999789" data-name="Grupo 999789">
                <g id="Grupo_999788" data-name="Grupo 999788" clip-path="url(#clip-path-52)">
                  <path id="Trazado_704282" data-name="Trazado 704282" d="M129.078,252.076a.419.419,0,1,1-.418-.418.418.418,0,0,1,.418.418" transform="translate(-128.241 -251.657)"/>
                </g>
              </g>
            </g>
            <path id="Trazado_704283" data-name="Trazado 704283" d="M116.948,205.789c10.941-.031,14.478,8.282,14.478,8.282l-5.144-1.048s-1.539,4.656-3.209,5.931c0,0-6.584-1.543-9.859-5.081l-4.748,1.31s-2.509-9.364,8.482-9.4" transform="translate(-15.11 -28.733)" fill="#407bff"/>
            <g id="Grupo_999793" data-name="Grupo 999793" transform="translate(93.11 177.056)" opacity="0.6">
              <g id="Grupo_999792" data-name="Grupo 999792">
                <g id="Grupo_999791" data-name="Grupo 999791" clip-path="url(#clip-path-55)">
                  <path id="Trazado_704284" data-name="Trazado 704284" d="M116.948,205.789c10.941-.031,14.478,8.282,14.478,8.282l-5.144-1.048s-1.539,4.656-3.209,5.931c0,0-6.584-1.543-9.859-5.081l-4.748,1.31s-2.509-9.364,8.482-9.4" transform="translate(-108.22 -205.789)" fill="#fff"/>
                </g>
              </g>
            </g>
            <path id="Trazado_704285" data-name="Trazado 704285" d="M125.029,208.272a11.892,11.892,0,0,1-1.493,8.907,20.606,20.606,0,0,1-11.715-10.247c2.477-2.731.916-9.933-.288-13.861l3.317,2.486,4.937,3.69a9.035,9.035,0,0,0,.237,3.037c.373,1.568,1.044,3.045,1.781,3.358Z" transform="translate(-15.573 -26.958)" fill="#b97964"/>
            <g id="Grupo_999796" data-name="Grupo 999796" transform="translate(99.269 168.599)" opacity="0.2">
              <g id="Grupo_999795" data-name="Grupo 999795">
                <g id="Grupo_999794" data-name="Grupo 999794" clip-path="url(#clip-path-56)">
                  <path id="Trazado_704286" data-name="Trazado 704286" d="M120.561,202.686c-1.968-.441-4.547-2.477-4.963-4.488a9.523,9.523,0,0,1-.212-2.24l4.937,3.69a9.032,9.032,0,0,0,.237,3.037" transform="translate(-115.379 -195.96)"/>
                </g>
              </g>
            </g>
            <path id="Trazado_704287" data-name="Trazado 704287" d="M106.172,186.728c2.7,5.92,3.713,8.476,7.989,10.58,6.434,3.164,13.17-1.012,12.309-7.513-.776-5.852-5.057-14.551-11.96-15.022a8.333,8.333,0,0,0-8.338,11.955" transform="translate(-14.709 -24.4)" fill="#b97964"/>
            <path id="Trazado_704288" data-name="Trazado 704288" d="M115.8,187.417c.2.507.638.83.969.722s.432-.606.227-1.112-.638-.829-.969-.722-.432.606-.227,1.112" transform="translate(-16.154 -26.01)" fill="#263238"/>
            <path id="Trazado_704289" data-name="Trazado 704289" d="M123.2,184.748c.2.507.639.83.969.723s.432-.607.227-1.113-.639-.829-.969-.722-.432.606-.227,1.112" transform="translate(-17.187 -25.637)" fill="#263238"/>
            <path id="Trazado_704290" data-name="Trazado 704290" d="M123.323,183.606l1.071-.747s-.237,1.154-1.071.747" transform="translate(-17.219 -25.532)" fill="#263238"/>
            <path id="Trazado_704291" data-name="Trazado 704291" d="M121.458,186.971a16.043,16.043,0,0,0,3.109,2.646c-.414.842-1.663.927-1.663.927Z" transform="translate(-16.959 -26.106)" fill="#a24e3f"/>
            <path id="Trazado_704292" data-name="Trazado 704292" d="M113.154,183.939a.288.288,0,0,0,.193-.146,2.339,2.339,0,0,1,1.819-1.266.293.293,0,0,0,.281-.327.346.346,0,0,0-.355-.3,2.915,2.915,0,0,0-2.318,1.574.324.324,0,0,0,.144.428.336.336,0,0,0,.237.035" transform="translate(-15.741 -25.398)" fill="#263238"/>
            <path id="Trazado_704293" data-name="Trazado 704293" d="M124.234,179.837a.294.294,0,0,0,.2-.108.314.314,0,0,0-.067-.441,3.341,3.341,0,0,0-2.872-.722.291.291,0,0,0-.189.388.346.346,0,0,0,.411.213,2.665,2.665,0,0,1,2.268.6.342.342,0,0,0,.246.074" transform="translate(-16.935 -24.921)" fill="#263238"/>
            <path id="Trazado_704294" data-name="Trazado 704294" d="M115.925,186.274l1.071-.747s-.237,1.154-1.071.747" transform="translate(-16.186 -25.904)" fill="#263238"/>
            <path id="Trazado_704295" data-name="Trazado 704295" d="M109.426,189.519s2.116-5.093-1.6-11.188c0,0,6.2-4.805,12.512-.795,0,0-6.665-7.513-15.968-1.281s.417,14.376,1.846,14.922,3.211-1.658,3.211-1.658" transform="translate(-14.016 -24.264)" fill="#263238"/>
            <path id="Trazado_704296" data-name="Trazado 704296" d="M106.007,194.519a5.214,5.214,0,0,0,3.78,1.273c1.761-.16,1.889-2,.769-3.428-1.007-1.286-3.138-2.753-4.6-1.884-1.443.856-1.275,2.893.052,4.039" transform="translate(-14.652 -26.559)" fill="#b97964"/>
            <path id="Trazado_704297" data-name="Trazado 704297" d="M123.105,192.656a18.515,18.515,0,0,0-.31,2.634c-.155.021-.31.041-.465.053-2.106.225-3.158-.367-3.684-1.09a2.734,2.734,0,0,1-.466-1.206,2.637,2.637,0,0,1-.018-.74,9.98,9.98,0,0,0,4.224.414c.442-.027.718-.065.718-.065" transform="translate(-16.496 -26.851)" fill="#263238"/>
            <path id="Trazado_704298" data-name="Trazado 704298" d="M122.387,192.722l-.112.774c-1.984.207-3.41.086-4.095-.449a2.609,2.609,0,0,1-.017-.739,9.976,9.976,0,0,0,4.224.414" transform="translate(-16.496 -26.851)" fill="#fff"/>
            <path id="Trazado_704299" data-name="Trazado 704299" d="M122.412,195.658c-2.106.225-3.158-.367-3.685-1.091a6.814,6.814,0,0,1,2.388.214,2.556,2.556,0,0,1,1.3.877" transform="translate(-16.577 -27.163)" fill="#e52c2c"/>
            <path id="Trazado_704300" data-name="Trazado 704300" d="M120.123,233.32l5.666-2.671-.037,6.948s-5.2,2.079-6.159-.645Z" transform="translate(-16.698 -32.204)" fill="#b97964"/>
            <path id="Trazado_704301" data-name="Trazado 704301" d="M132.959,231.309l-2.061,5.963-4.147.325.037-6.948Z" transform="translate(-17.698 -32.204)" fill="#b97964"/>
            <path id="Trazado_704302" data-name="Trazado 704302" d="M169.587,227.4l6.1-1.408-4.329-5.435s-5.37,1.586-4.438,4.318Z" transform="translate(-23.292 -30.796)" fill="#b97964"/>
            <path id="Trazado_704303" data-name="Trazado 704303" d="M180.593,221.374l-5.033-3.5-3.459,2.311,4.329,5.435Z" transform="translate(-24.03 -30.421)" fill="#b97964"/>
            <g id="Grupo_999799" data-name="Grupo 999799" transform="translate(87.917 188.951)" opacity="0.1">
              <g id="Grupo_999798" data-name="Grupo 999798">
                <g id="Grupo_999797" data-name="Grupo 999797" clip-path="url(#clip-path-57)">
                  <path id="Trazado_704304" data-name="Trazado 704304" d="M104.333,229.825c-.633-2.476-1.346-5.043-2.148-7.666a8.493,8.493,0,0,1,2.487-2.544s1.651,6.434-.339,10.21" transform="translate(-102.185 -219.615)"/>
                </g>
              </g>
            </g>
            <path id="Trazado_704305" data-name="Trazado 704305" d="M102.486,219.8c-.806,1.446-1.707,3.022-2.476,4.562-.8,1.541-1.558,3.095-2.215,4.622a21.543,21.543,0,0,0-1.421,4.279c-.131.569-.047,1.054-.167.786a1.335,1.335,0,0,0-.221-.283.5.5,0,0,0-.148-.108c-.061-.02,0,.052.175.116a5.726,5.726,0,0,0,1.718.3,18.337,18.337,0,0,0,2.332-.044,46.527,46.527,0,0,0,5.081-.688c3.444-.652,6.992-1.5,10.437-2.42l.056-.015a1.978,1.978,0,0,1,1.418,3.668A69.9,69.9,0,0,1,106.6,239a43.671,43.671,0,0,1-5.693,1.484,23.623,23.623,0,0,1-3.149.362,12.517,12.517,0,0,1-3.725-.334,7.529,7.529,0,0,1-2.308-1.037,6.357,6.357,0,0,1-1.17-1.02,6.138,6.138,0,0,1-.951-1.443,7.654,7.654,0,0,1-.67-2.59,11.409,11.409,0,0,1,.012-2.037,25.543,25.543,0,0,1,1.569-6.276A59.321,59.321,0,0,1,95.7,215.66a3.975,3.975,0,0,1,6.866,4Z" transform="translate(-12.412 -29.846)" fill="#b97863"/>
            <path id="Trazado_704306" data-name="Trazado 704306" d="M98.982,211.684s7.992,1.435,2.518,13.755c0,0-3.546,6.416-3.7,7.9l-5.309,7.971s-5.6-.849-4.125-8.366c3.439-17.527,10.62-21.259,10.62-21.259" transform="translate(-12.303 -29.556)" fill="#407bff"/>
            <g id="Grupo_999802" data-name="Grupo 999802" transform="translate(75.811 182.128)" opacity="0.7">
              <g id="Grupo_999801" data-name="Grupo 999801">
                <g id="Grupo_999800" data-name="Grupo 999800" clip-path="url(#clip-path-58)">
                  <path id="Trazado_704307" data-name="Trazado 704307" d="M98.982,211.684s7.992,1.435,2.518,13.755c0,0-3.546,6.416-3.7,7.9l-5.309,7.971s-5.6-.849-4.125-8.366c3.439-17.527,10.62-21.259,10.62-21.259" transform="translate(-88.114 -211.684)" fill="#fff"/>
                </g>
              </g>
            </g>
            <path id="Trazado_704308" data-name="Trazado 704308" d="M99.6,237.283l-1.965-1.556s-6.978,3.351-8.55,8.939l5.258.5s2.389-5.622,5.258-7.882" transform="translate(-12.439 -32.913)" fill="#407bff"/>
            <g id="Grupo_999805" data-name="Grupo 999805" transform="translate(76.648 202.814)" opacity="0.6">
              <g id="Grupo_999804" data-name="Grupo 999804">
                <g id="Grupo_999803" data-name="Grupo 999803" clip-path="url(#clip-path-59)">
                  <path id="Trazado_704309" data-name="Trazado 704309" d="M99.6,237.283l-1.965-1.556s-6.978,3.351-8.55,8.939l5.258.5s2.389-5.622,5.258-7.882" transform="translate(-89.087 -235.727)" fill="#fff"/>
                </g>
              </g>
            </g>
          </g>
        </g>
      </g>
    </g>
  </g>
</svg>
