<svg xmlns="http://www.w3.org/2000/svg" width="87.525" height="89.49" viewBox="0 0 87.525 89.49">
  <g id="unido" transform="translate(-5.5)">
    <path id="Trazado_689583" data-name="Trazado 689583" d="M85.617,79.133A43.851,43.851,0,0,1,61.574,96.77a44.067,44.067,0,0,0-23.449.326A43.833,43.833,0,0,1,12.851,79.048,43.537,43.537,0,0,0,5.517,55.991Q5.5,55.379,5.5,54.763a43.763,43.763,0,1,1,87.525,0q0,.783-.028,1.56a43.534,43.534,0,0,0-7.381,22.811Z" transform="translate(0 -9.035)" fill="#0098e8"/>
    <path id="Trazado_689584" data-name="Trazado 689584" d="M178.553,1.786v8.931a1.786,1.786,0,0,1-3.572,0V1.786a1.786,1.786,0,0,1,3.572,0ZM163.782,9.081a1.786,1.786,0,0,0-2.526,2.526l3.116,3.116A1.786,1.786,0,0,0,166.9,12.2Zm29.211-.714a1.786,1.786,0,0,0-2.526,0L186.636,12.2a1.786,1.786,0,0,0,2.526,2.526l3.831-3.831a1.786,1.786,0,0,0,0-2.526Z" transform="translate(-127.504 0)" fill="#fcb30b"/>
    <path id="Trazado_689585" data-name="Trazado 689585" d="M63.985,109.116,59.855,111.5a3.23,3.23,0,0,1,4.47,1.286,3.281,3.281,0,0,1-1.307,4.349l-8.326,4.807a3.23,3.23,0,0,1,4.47,1.286,3.281,3.281,0,0,1-1.307,4.349l-12.522,7.23a3.25,3.25,0,0,1-.585.265,29.967,29.967,0,0,1-9.719,2.887,29.963,29.963,0,0,0-11.434,3.8l-10.652,6.15a43.544,43.544,0,0,1-7.414-23.7l6.8-3.926a14.742,14.742,0,0,0,6.36-7.4,14.742,14.742,0,0,1,6.36-7.4l17.9-10.336a3.23,3.23,0,0,1,4.47,1.286,3.281,3.281,0,0,1-1.307,4.349L36.392,106.4c-.773.446.843,3.244,1.615,2.8l16.719-9.653a3.281,3.281,0,0,1,4.419,1.043,3.23,3.23,0,0,1-1.122,4.514l2.8-1.615a3.23,3.23,0,0,1,4.47,1.286,3.281,3.281,0,0,1-1.306,4.348Z" transform="translate(-0.025 -77.796)" fill="#e1a595"/>
    <path id="Trazado_689586" data-name="Trazado 689586" d="M47.424,96.432a3.155,3.155,0,0,1,.193.441,3.216,3.216,0,0,0-1.917.419L27.8,107.628a14.741,14.741,0,0,0-6.36,7.4,14.742,14.742,0,0,1-6.36,7.4l-9.342,5.394q-.174-1.786-.2-3.613l6.8-3.926a14.742,14.742,0,0,0,6.36-7.4,14.742,14.742,0,0,1,6.36-7.4l17.9-10.336a3.231,3.231,0,0,1,4.47,1.285Z" transform="translate(-0.025 -77.796)" fill="#dd9683"/>
    <path id="Trazado_689587" data-name="Trazado 689587" d="M215.289,106.772l-1.119.646a.323.323,0,0,1-.441-.118l-1.292-2.238a.323.323,0,0,1,.118-.441l1.119-.646a1.615,1.615,0,1,1,1.615,2.8Z" transform="translate(-169.937 -85.224)" fill="#eac0b5"/>
    <path id="Trazado_689588" data-name="Trazado 689588" d="M213.006,164.926l-11.22-6.478a14.742,14.742,0,0,0-9.591-1.807,14.742,14.742,0,0,1-9.591-1.807L164.7,144.5a3.231,3.231,0,0,1-1.122-4.514A3.281,3.281,0,0,1,168,138.941l9.725,5.615a1.615,1.615,0,1,0,1.615-2.8l-16.719-9.653a3.281,3.281,0,0,1-1.307-4.349,3.231,3.231,0,0,1,4.47-1.286l-2.8-1.615a3.231,3.231,0,0,1-1.122-4.514,3.281,3.281,0,0,1,4.419-1.043l1.339.773s1.535.5,1.308-.269a3.222,3.222,0,0,1,.36-2.634,3.281,3.281,0,0,1,4.419-1.043l8.326,4.807a3.231,3.231,0,0,1-1.122-4.514,3.281,3.281,0,0,1,4.419-1.043l12.522,7.23a3.244,3.244,0,0,1,.522.374,29.963,29.963,0,0,1,7.359,6.974,29.964,29.964,0,0,0,9.011,8l5.939,3.429A43.537,43.537,0,0,1,213.006,164.926Z" transform="translate(-127.681 -94.399)" fill="#d89c56"/>
    <path id="Trazado_689589" data-name="Trazado 689589" d="M214.674,164.117q-.818,1.4-1.735,2.728l-11.22-6.478a14.742,14.742,0,0,0-9.591-1.807,14.743,14.743,0,0,1-9.591-1.807l-17.9-10.336a3.231,3.231,0,0,1-1.122-4.514,3.129,3.129,0,0,1,.285-.387,3.216,3.216,0,0,0,1.321,1.451l17.9,10.336a14.742,14.742,0,0,0,9.591,1.807,14.742,14.742,0,0,1,9.591,1.807Zm-33.2-21.03a1.615,1.615,0,0,0-.591-2.207L164.1,131.188a3.229,3.229,0,0,1-1.616-2.8,3.236,3.236,0,0,0,.073,5.643l16.713,9.644A1.615,1.615,0,0,0,181.479,143.086Zm-11.061-19.442,15.316,8.843a1.615,1.615,0,0,0,1.615-2.8l-15.387-8.884a3.211,3.211,0,0,1-1.61-2.79,2.976,2.976,0,0,0-1.178,1.144,3.242,3.242,0,0,0,1.245,4.484Zm11.5-.822,7.042,4.069a1.615,1.615,0,0,0,1.615-2.8l-6.994-4.038a3.211,3.211,0,0,1-1.609-2.791,3,3,0,0,0-1.18,1.156A3.094,3.094,0,0,0,181.922,122.823Zm-18.931,3.994L182.5,138.082a1.615,1.615,0,0,0,1.615-2.8l-19.584-11.307a3.211,3.211,0,0,1-1.609-2.791,3.1,3.1,0,0,0-1.181,1.157A3.02,3.02,0,0,0,162.991,126.817Z" transform="translate(-127.614 -96.319)" fill="#c78a51"/>
    <path id="Trazado_689590" data-name="Trazado 689590" d="M175.747,148.713l-1.292,2.238a.323.323,0,0,1-.441.118l-1.119-.646a1.615,1.615,0,1,1,1.615-2.8l1.119.646A.323.323,0,0,1,175.747,148.713Zm17.217-24.005-1.119-.646a1.615,1.615,0,1,0-1.615,2.8l1.119.646a.323.323,0,0,0,.441-.118l1.292-2.238A.323.323,0,0,0,192.963,124.708ZM172.306,138.52l1.292-2.238a.323.323,0,0,0-.118-.441l-1.119-.646a1.615,1.615,0,0,0-1.615,2.8l1.119.646a.323.323,0,0,0,.441-.118Zm9.034-13.063-1.119-.646a1.615,1.615,0,0,0-1.615,2.8l1.119.646a.323.323,0,0,0,.441-.118l1.292-2.238A.323.323,0,0,0,181.34,125.457Zm-10.161,5.324,1.119.646a.323.323,0,0,0,.441-.118l1.292-2.238a.323.323,0,0,0-.118-.441l-1.119-.646a1.615,1.615,0,1,0-1.615,2.8Z" transform="translate(-135.065 -101.723)" fill="#eabe8d"/>
    <path id="Trazado_689591" data-name="Trazado 689591" d="M184.665,174.753s-.022,14.892-.063,15.1a29.965,29.965,0,0,1-2.36,9.86,29.967,29.967,0,0,0-2.423,11.8v5.019a44.054,44.054,0,0,1-24.229.269v-6.268a14.742,14.742,0,0,0-3.23-9.209,14.742,14.742,0,0,1-3.23-9.209V171.445a3.231,3.231,0,0,1,3.348-3.228,3.281,3.281,0,0,1,3.113,3.306v11.229a1.615,1.615,0,0,0,3.231,0V163.447a3.281,3.281,0,0,1,3.113-3.306,3.23,3.23,0,0,1,3.348,3.228v-3.23a3.231,3.231,0,0,1,3.348-3.228,3.281,3.281,0,0,1,3.113,3.306v4.768a3.231,3.231,0,0,1,3.348-3.228,3.281,3.281,0,0,1,3.113,3.306v9.614a3.231,3.231,0,0,1,3.348-3.228A3.281,3.281,0,0,1,184.665,174.753Z" transform="translate(-117.974 -128.881)" fill="#a95947"/>
    <path id="Trazado_689592" data-name="Trazado 689592" d="M155.591,199.972a14.742,14.742,0,0,1,3.23,9.209v8.331q-1.638-.319-3.23-.758v-6.268a14.742,14.742,0,0,0-3.23-9.209,14.742,14.742,0,0,1-3.23-9.209V171.395a3.231,3.231,0,0,1,3.348-3.228,3.135,3.135,0,0,1,.478.054,3.215,3.215,0,0,0-.6,1.87v20.672a14.742,14.742,0,0,0,3.23,9.21Zm3.231-36.571v19.3a1.615,1.615,0,1,0,3.231,0V163.319a3.229,3.229,0,0,1,1.615-2.8,3.177,3.177,0,0,0-1.594-.432A3.252,3.252,0,0,0,158.821,163.4Zm12.922,1.615V182.7a1.615,1.615,0,0,0,3.231,0V164.934a3.212,3.212,0,0,1,1.606-2.793,2.912,2.912,0,0,0-1.585-.438A3.056,3.056,0,0,0,171.743,165.016Zm9.713,6.373a3.2,3.2,0,0,0-3.252,3.191V182.7a1.615,1.615,0,1,0,3.231,0v-8.076a3.212,3.212,0,0,1,1.609-2.791,2.905,2.905,0,0,0-1.587-.445ZM165.282,160.17V182.7a1.615,1.615,0,0,0,3.231,0V160.088a3.211,3.211,0,0,1,1.61-2.79,3.054,3.054,0,0,0-1.6-.451A3.155,3.155,0,0,0,165.282,160.17Z" transform="translate(-117.974 -128.83)" fill="#7d402d"/>
    <path id="Trazado_689593" data-name="Trazado 689593" d="M161.4,178.873v1.292a.323.323,0,0,1-.323.323H158.5a.323.323,0,0,1-.323-.323v-1.292a1.615,1.615,0,0,1,3.231,0Zm27.459,1.615a1.615,1.615,0,0,0-1.615,1.615V183.4a.323.323,0,0,0,.323.323h2.584a.323.323,0,0,0,.323-.323V182.1A1.615,1.615,0,0,0,188.861,180.488Zm-19.383-11.307a1.615,1.615,0,0,0-1.615,1.615v1.292a.323.323,0,0,0,.323.323h2.584a.323.323,0,0,0,.323-.323V170.8A1.615,1.615,0,0,0,169.479,169.181ZM182.4,170.8a1.615,1.615,0,0,0-1.615,1.615V173.7a.323.323,0,0,0,.323.323h2.584a.323.323,0,0,0,.323-.323v-1.292A1.615,1.615,0,0,0,182.4,170.8Zm-6.461-4.846a1.615,1.615,0,0,0-1.615,1.615v1.292a.323.323,0,0,0,.323.323h2.584a.323.323,0,0,0,.323-.323v-1.292A1.615,1.615,0,0,0,175.94,165.951Z" transform="translate(-125.401 -136.308)" fill="#c68978"/>
  </g>
</svg>
