<svg xmlns="http://www.w3.org/2000/svg" xmlns:xlink="http://www.w3.org/1999/xlink" width="464" height="367" viewBox="0 0 464 367">
  <defs>
    <clipPath id="clip-path">
      <rect id="Rectángulo_345509" data-name="Rectángulo 345509" width="328.657" height="328.657" fill="none"/>
    </clipPath>
    <clipPath id="clip-path-2">
      <rect id="Rectángulo_345493" data-name="Rectángulo 345493" width="328.657" height="420.884" fill="none"/>
    </clipPath>
    <clipPath id="clip-path-3">
      <rect id="Rectángulo_345492" data-name="Rectángulo 345492" width="226.831" height="224.307" fill="none"/>
    </clipPath>
    <clipPath id="clip-path-4">
      <path id="Trazado_705096" data-name="Trazado 705096" d="M144.409,64.523a11.79,11.79,0,1,0,11.79-11.79,11.79,11.79,0,0,0-11.79,11.79" transform="translate(-144.409 -52.733)" fill="none"/>
    </clipPath>
    <clipPath id="clip-path-6">
      <rect id="Rectángulo_345494" data-name="Rectángulo 345494" width="97.231" height="4.823" fill="none"/>
    </clipPath>
    <clipPath id="clip-path-7">
      <rect id="Rectángulo_345495" data-name="Rectángulo 345495" width="198.492" height="4.823" fill="none"/>
    </clipPath>
    <clipPath id="clip-path-8">
      <rect id="Rectángulo_345497" data-name="Rectángulo 345497" width="81.692" height="4.823" fill="none"/>
    </clipPath>
    <clipPath id="clip-path-9">
      <rect id="Rectángulo_345498" data-name="Rectángulo 345498" width="11.13" height="12.516" fill="none"/>
    </clipPath>
    <clipPath id="clip-path-10">
      <rect id="Rectángulo_345499" data-name="Rectángulo 345499" width="13.308" height="11.584" fill="none"/>
    </clipPath>
    <clipPath id="clip-path-11">
      <rect id="Rectángulo_345505" data-name="Rectángulo 345505" width="207.728" height="181.295" fill="none"/>
    </clipPath>
    <clipPath id="clip-path-12">
      <rect id="Rectángulo_345502" data-name="Rectángulo 345502" width="246.994" height="350.592" fill="none"/>
    </clipPath>
    <clipPath id="clip-path-14">
      <rect id="Rectángulo_345506" data-name="Rectángulo 345506" width="328.202" height="328.202" fill="none"/>
    </clipPath>
    <clipPath id="clip-path-15">
      <path id="Trazado_705133" data-name="Trazado 705133" d="M63.267,392.585c-1.687,6.329-2.952,12.657-4.43,18.986-2.953,13.5-6.118,27.214-9.071,40.715-.665,2.657-1.067,5.445-1.517,8.157h26.98c2.624-11.3,5.273-22.587,8.5-33.683.633-2.32.422-3.164,2.743-3.586,1.054-.212,4.43,0,5.063.632.843,1.055-1.265,11.6-1.688,14.134-1.046,7.5-2.237,15-3.214,22.5h27.424c1.41-19.244,4.07-38.488,6.38-57.733.211-1.687,1.687-11.6.844-11.813l-56.537-6.329c.211,2.742-.845,5.274-1.478,8.016" transform="translate(-48.249 -384.569)" fill="none"/>
    </clipPath>
  </defs>
  <g id="Grupo_1000178" data-name="Grupo 1000178" transform="translate(-7064 9706)">
    <g id="Grupo_1000171" data-name="Grupo 1000171" transform="translate(7132 -9687)">
      <g id="Grupo_1000112" data-name="Grupo 1000112" clip-path="url(#clip-path)">
        <g id="Grupo_1000078" data-name="Grupo 1000078">
          <g id="Grupo_1000077" data-name="Grupo 1000077" clip-path="url(#clip-path-2)">
            <g id="Grupo_1000076" data-name="Grupo 1000076" transform="translate(90.692 59.697)" opacity="0.2" style="mix-blend-mode: multiply;isolation: isolate">
              <g id="Grupo_1000075" data-name="Grupo 1000075">
                <g id="Grupo_1000074" data-name="Grupo 1000074" clip-path="url(#clip-path-3)">
                  <path id="Trazado_705092" data-name="Trazado 705092" d="M364.805,313.921a1.237,1.237,0,0,1-1.266,1.206H139.24a1.237,1.237,0,0,1-1.266-1.206V92.026a1.237,1.237,0,0,1,1.266-1.206h224.3a1.237,1.237,0,0,1,1.266,1.206Z" transform="translate(-137.974 -90.82)" fill="#00a2c5"/>
                </g>
              </g>
            </g>
            <path id="Trazado_705093" data-name="Trazado 705093" d="M356.14,292.467a1.236,1.236,0,0,1-1.266,1.206h-224.3a1.236,1.236,0,0,1-1.266-1.206V45.257a1.237,1.237,0,0,1,1.266-1.206h224.3a1.236,1.236,0,0,1,1.266,1.206Z" transform="translate(-44.312 -15.096)" fill="#fff"/>
            <path id="Trazado_705094" data-name="Trazado 705094" d="M144.408,64.523a11.79,11.79,0,1,1,11.79,11.79,11.789,11.789,0,0,1-11.79-11.79" transform="translate(-49.487 -18.071)" fill="#d3d6d5"/>
          </g>
        </g>
        <g id="Grupo_1000080" data-name="Grupo 1000080" transform="translate(94.922 34.662)">
          <g id="Grupo_1000079" data-name="Grupo 1000079" clip-path="url(#clip-path-4)">
            <path id="Trazado_705095" data-name="Trazado 705095" d="M158.809,67.757a4.13,4.13,0,1,0-2.257,0,8.945,8.945,0,1,0,2.257,0" transform="translate(-145.892 -55.106)" fill="#fff"/>
          </g>
        </g>
        <g id="Grupo_1000097" data-name="Grupo 1000097">
          <g id="Grupo_1000096" data-name="Grupo 1000096" clip-path="url(#clip-path-2)">
            <g id="Grupo_1000083" data-name="Grupo 1000083" transform="translate(127.234 39.766)" opacity="0.5">
              <g id="Grupo_1000082" data-name="Grupo 1000082">
                <g id="Grupo_1000081" data-name="Grupo 1000081" clip-path="url(#clip-path-6)">
                  <path id="Trazado_705097" data-name="Trazado 705097" d="M290.8,64.056a1.4,1.4,0,0,1-1.507,1.266H195.073a1.4,1.4,0,0,1-1.507-1.266V61.764a1.4,1.4,0,0,1,1.507-1.265h94.218a1.4,1.4,0,0,1,1.507,1.265Z" transform="translate(-193.567 -60.498)" fill="#d3d6d5"/>
                </g>
              </g>
            </g>
            <g id="Grupo_1000086" data-name="Grupo 1000086" transform="translate(101.919 253.045)" opacity="0.5">
              <g id="Grupo_1000085" data-name="Grupo 1000085">
                <g id="Grupo_1000084" data-name="Grupo 1000084" clip-path="url(#clip-path-7)">
                  <path id="Trazado_705098" data-name="Trazado 705098" d="M353.546,388.525a1.4,1.4,0,0,1-1.507,1.266H156.561a1.4,1.4,0,0,1-1.507-1.266v-2.291a1.4,1.4,0,0,1,1.507-1.266H352.039a1.4,1.4,0,0,1,1.507,1.266Z" transform="translate(-155.054 -384.968)" fill="#d3d6d5"/>
                </g>
              </g>
            </g>
            <g id="Grupo_1000089" data-name="Grupo 1000089" transform="translate(127.234 46.728)" opacity="0.5">
              <g id="Grupo_1000088" data-name="Grupo 1000088">
                <g id="Grupo_1000087" data-name="Grupo 1000087" clip-path="url(#clip-path-8)">
                  <rect id="Rectángulo_345496" data-name="Rectángulo 345496" width="81.692" height="4.823" rx="1.926" transform="translate(0 0)" fill="#d3d6d5"/>
                </g>
              </g>
            </g>
            <g id="Grupo_1000092" data-name="Grupo 1000092" transform="translate(134.793 261.25)" opacity="0.5">
              <g id="Grupo_1000091" data-name="Grupo 1000091">
                <g id="Grupo_1000090" data-name="Grupo 1000090" clip-path="url(#clip-path-9)">
                  <path id="Trazado_705099" data-name="Trazado 705099" d="M210.631,397.451a5.56,5.56,0,0,0-3.348,10l-.233,2.513,1.714-1.714a5.563,5.563,0,1,0,1.866-10.8" transform="translate(-205.066 -397.451)" fill="#d3d6d5"/>
                </g>
              </g>
            </g>
            <g id="Grupo_1000095" data-name="Grupo 1000095" transform="translate(115.232 261.716)" opacity="0.5">
              <g id="Grupo_1000094" data-name="Grupo 1000094">
                <g id="Grupo_1000093" data-name="Grupo 1000093" clip-path="url(#clip-path-10)">
                  <path id="Trazado_705100" data-name="Trazado 705100" d="M185.367,398.16a3.541,3.541,0,0,0-3.407,1.991,3.539,3.539,0,0,0-3.406-1.991c-3.494,0-3.244,3.454-3.244,3.454,0,3.9,6.65,8.13,6.65,8.13s6.651-4.23,6.651-8.13c0,0,.227-3.454-3.245-3.454" transform="translate(-175.307 -398.16)" fill="#c44e4e"/>
                </g>
              </g>
            </g>
            <rect id="Rectángulo_345500" data-name="Rectángulo 345500" width="207.728" height="181.295" transform="translate(94.607 62.712)" fill="#95e2f4"/>
          </g>
        </g>
        <g id="Grupo_1000105" data-name="Grupo 1000105" transform="translate(94.607 62.712)">
          <g id="Grupo_1000104" data-name="Grupo 1000104" clip-path="url(#clip-path-11)">
            <g id="Grupo_1000100" data-name="Grupo 1000100" transform="translate(-46.429 7.581)" opacity="0.5">
              <g id="Grupo_1000099" data-name="Grupo 1000099">
                <g id="Grupo_1000098" data-name="Grupo 1000098" clip-path="url(#clip-path-12)">
                  <path id="Trazado_705101" data-name="Trazado 705101" d="M295.267,192.875c1.783-4.674,6.911-7.647,5.351-13.171-3.122-10.834-15.831-11.046-24.08-16.782-4.46-2.974-9.143-8.285-14.27-9.985a11.375,11.375,0,0,0-13.155,6.585c-1.338,2.55-.668,4.037-3.568,4.886a26.475,26.475,0,0,1-5.8.212c-1.312-.1-2.785-.258-4.261-.314-1.056,1.747-2.045,3.5-2.985,5.2-2.723,5.341-5.9,11.558-8.518,17.988-5.063-2.829-12.935-3.285-15.45,2.193a13.417,13.417,0,0,0,2.228,14.02,17.7,17.7,0,0,0,7.136,3.824,4.544,4.544,0,0,0,.922.166c-.011.228-.024.457-.03.684-.253,8.68,1.7,18.134,6.794,24.551-3.73,5.824-6.863,12.921-12.214,17-7.221,6.116-12.839-.764-19.657-2.674L188.5,260.636c-1.605,8.408-4.414,14.141-2.006,22.932,1.6,7.263,6.82,12.994,12.837,18.346,6.82,5.733,12.436,6.5,20.861,3.44a41.232,41.232,0,0,0,18.454-13c2-2.675,10.029-12.613,8.826-16.053-.8-2.293-9.227-4.2-10.832-7.261s-.8-8.79-.4-11.849c.885-4.85,3.723-9.467,6.224-14.043,9.253,2.17,16.645-1.658,23.639-6.924a16.106,16.106,0,0,0,9.547,4.02c4.683,0,10.48-2.974,12.933-6.8,3.536-4.813.2-9.987-4.808-11.958,2.418-2.266,4.69-4.6,7.595-7.692a75.386,75.386,0,0,0,6.616-8.659c-.888-3.526-3.685-10.232-2.713-12.266" transform="translate(-111.765 -122.576)" fill="#ffcdbb"/>
                  <path id="Trazado_705102" data-name="Trazado 705102" d="M289.253,208.394c-3.122,4.461-6.243,8.073-12.04,9.559-3.791,1.062-9.81,1.7-8.919,6.8.892,4.461,5.574,5.31,8.919,7.223" transform="translate(-140.089 -141.706)" fill="#ffcdbb"/>
                  <path id="Trazado_705103" data-name="Trazado 705103" d="M289.113,208.394a38.987,38.987,0,0,1-2.968,4.088,19.466,19.466,0,0,1-3.76,3.416,15.9,15.9,0,0,1-4.618,2.167c-1.626.5-3.282.816-4.856,1.328a11.341,11.341,0,0,0-2.267.924,4.848,4.848,0,0,0-1.76,1.545,4.744,4.744,0,0,0,.137,4.534,8.15,8.15,0,0,0,3.589,3.242c1.455.817,3.034,1.443,4.463,2.336-1.5-.762-3.083-1.319-4.611-2.05a8.518,8.518,0,0,1-3.885-3.285,3.26,3.26,0,0,1-.292-.587,4.134,4.134,0,0,1-.234-.615l-.173-.636-.069-.66a4.349,4.349,0,0,1,.567-2.594,5.448,5.448,0,0,1,1.959-1.776,11.826,11.826,0,0,1,2.378-1c1.631-.507,3.29-.8,4.883-1.274a16.915,16.915,0,0,0,4.511-2.015,28.066,28.066,0,0,0,7.005-7.083" transform="translate(-139.948 -141.706)" fill="#e08282"/>
                  <path id="Trazado_705104" data-name="Trazado 705104" d="M283.259,180.757c-.224-2.124,2.453-3.611,4.459-3.4,6.912.425-1.338,7.648-4.459,3.612Z" transform="translate(-145.243 -131.064)"/>
                  <path id="Trazado_705105" data-name="Trazado 705105" d="M333.381,202.485c-2.007,0-4.236-3.824-3.121-5.736,2.9-4.461,8.473,4.249,3.79,5.736Z" transform="translate(-161.252 -137.284)"/>
                  <path id="Trazado_705106" data-name="Trazado 705106" d="M278.426,201.772c-.973,1.833-2.518,2.952-3.453,2.5s-.9-2.3.072-4.132,2.518-2.951,3.452-2.5.9,2.3-.07,4.132" transform="translate(-142.175 -137.987)"/>
                  <path id="Trazado_705107" data-name="Trazado 705107" d="M315.908,223.911c-.974,1.832-2.519,2.952-3.452,2.5s-.9-2.3.072-4.132,2.518-2.952,3.452-2.5.9,2.3-.071,4.133" transform="translate(-155.02 -145.573)"/>
                  <path id="Trazado_705108" data-name="Trazado 705108" d="M283.144,254.859c-8.052-.786-18.96-6.131-23.542-13.159-4.689,7.389,13.422,13.654,21.082,15.618a22.356,22.356,0,0,0,2.46-2.459" transform="translate(-136.879 -153.12)" fill="#fff"/>
                  <path id="Trazado_705109" data-name="Trazado 705109" d="M258.079,240.475a15.491,15.491,0,0,1-.985-1.711l-.669-.637c-2.377,2.264-2.46,6.4-1.323,10.217a18.667,18.667,0,0,1,4.349-1.271c-2.047-2.019-2.861-4.251-1.372-6.6" transform="translate(-135.355 -151.895)" fill="#af4658"/>
                  <path id="Trazado_705110" data-name="Trazado 705110" d="M273.882,259.064c-5.053-1.717-10.967-4.274-14.061-7.328a18.727,18.727,0,0,0-4.349,1.271c1,3.346,2.927,6.451,5.113,7.84,3.761,2.479,8.441,4.393,13.346,3.012a25.451,25.451,0,0,0-.05-4.8" transform="translate(-135.725 -156.559)" fill="#f2aac1"/>
                  <path id="Trazado_705111" data-name="Trazado 705111" d="M283.48,262.884a25.45,25.45,0,0,1,.05,4.8,14.674,14.674,0,0,0,5.6-3.1c-1.547-.4-3.523-.973-5.649-1.693" transform="translate(-145.323 -160.379)" fill="#af4658"/>
                  <path id="Trazado_705112" data-name="Trazado 705112" d="M331.443,168.81c-5.736-18.92-29.373-32.819-49.2-27.275-9.671,2.7-15.908,10.6-20.722,18.568,1.476.056,2.949.211,4.261.315a26.512,26.512,0,0,0,5.8-.212c2.9-.85,2.23-2.337,3.568-4.886a11.374,11.374,0,0,1,13.156-6.585c5.128,1.7,9.81,7.01,14.27,9.985,8.25,5.736,20.958,5.947,24.08,16.782,1.561,5.523-3.568,8.5-5.35,13.171-.971,2.034,1.825,8.74,2.713,12.266,6.24-9.544,10.693-21.374,7.432-32.128" transform="translate(-137.797 -118.373)" fill="#b5a6a8"/>
                  <path id="Trazado_705113" data-name="Trazado 705113" d="M330.057,159.919c4.208-1.476,9.3-2.953,11.959-6.752-4.872.211-7.973-2.742-13.065-1.265a11.033,11.033,0,0,0,1.992-5.274c-2.215,1.265-4.208,2.531-6.421,3.586-.221-2.32.222-4.852-.442-7.173-.443-2.533-2.437-4.854-2.437-7.174-1.771,1.688-1.551,4.008-1.551,6.119a17.372,17.372,0,0,0-10.409-9.073c-5.314-1.477-10.186-1.9-14.172-5.908-1.108,3.588.442,10.971,4.207,12.659-3.322-1.477-6.866-2.109-9.744-4.219,0,5.2,6.947,6.423,7.866,10.483a48.7,48.7,0,0,0,3.332,3.575c2.452,2.337,5.128,2.337,8.026,3.612,2.229,1.062,4.014,4.248,6.465,5.523a12.315,12.315,0,0,0,8.251,1.488,8.9,8.9,0,0,0,4.236,5.1,3.789,3.789,0,0,0,.772.3,25.358,25.358,0,0,0,8.443-4.128c-2.437-1.055-5.094-.422-7.309-1.477" transform="translate(-147.549 -113.815)"/>
                  <path id="Trazado_705114" data-name="Trazado 705114" d="M344.634,148.788c1.337-3.186,3.344-5.949,1.783-9.772-1.783-3.824-5.573-4.885-9.587-5.523-1.338-.213-5.574,0-6.244-.638a31.658,31.658,0,0,1-.891-3.186q-.67-1.593-1.338-3.187c-2.007-2.974-4.9-3.824-8.473-4.037-2.451-.212-6.465,1.062-8.026,0-2.452-1.275-4.014-4.461-6.688-5.948-3.345-1.911-6.69-2.124-10.48-2.761-4.9-.637-15.607.425-15.829-6.8-3.568.637-2.677,6.8-2.23,9.134.223,1.488,2.23,4.037,2.23,5.1s-1.338,2.125-2.007,2.975c-1.115,1.911-1.783,5.523-.669,7.647,1.561,2.974,3.568,1.487,6.243,1.487-.445,4.461,4.683,6.586,8.473,4.674l.446-.213a8.909,8.909,0,0,1,1.574,1.311c-.919-4.062-7.866-5.286-7.866-10.484,2.878,2.11,6.422,2.742,9.744,4.219-3.765-1.688-5.315-9.072-4.207-12.659,3.986,4.009,8.858,4.431,14.172,5.908a17.375,17.375,0,0,1,10.409,9.073c0-2.111-.221-4.431,1.551-6.119,0,2.32,1.994,4.641,2.437,7.174.665,2.321.221,4.852.442,7.173,2.214-1.054,4.207-2.32,6.421-3.586a11.032,11.032,0,0,1-1.992,5.274c5.093-1.477,8.193,1.477,13.065,1.265-2.657,3.8-7.751,5.276-11.959,6.752,2.215,1.056,4.873.422,7.309,1.477A25.349,25.349,0,0,1,324,158.648c1.513.438,3.444.221,4.579.761,1.562,1.063,2.9,3.4,4.906,4.462a11.36,11.36,0,0,0,6.02,1.274c8.249-.424,16.5-15.719,5.128-16.357" transform="translate(-142.626 -106.939)" fill="#333131"/>
                  <path id="Trazado_705115" data-name="Trazado 705115" d="M393.836,273.047c.208-5.288-.3-10.756-.417-15.763-.167-5.1-.335-10.038-.669-15.136-.335-3.824,1-10.037-4.349-10.515-2.508-.159-4.012-.159-4.681,2.23-.668,2.231-.168,4.62-.168,6.851.168,4.621.837,9.081,1,13.7.167,4.461.669,8.763.836,13.064,0,1.275.836,3.983-.167,4.939-2.174,2.55-3.177-2.389-3.511-3.664-1.694-6.456-2.679-13.031-3.977-19.562-.853-4.286-.2-18.33-8.231-13.737-4.18,2.709-2.173,7.647-1.17,11.631,2.006,7.807,3.678,15.772,5.183,23.579a36.843,36.843,0,0,1,1.172,8.6c0,.267-.017.635-.034,1.06-7.324,9.078-3.714,23.823,10.345,26.291l-7.579,61.607s-17.993-17-25.127-25.919L335.5,362.278c8.919,6.8,46.823,45.886,58.864,42.486,6.242-11.471,2.23-80.3,1.783-89.645,0-1.7-.891-5.523,0-7.224.893-2.548,1.338-1.7,4.014-3.4,4.9-2.975,6.69-4.249,7.58-10.2,1.872-11.289-4.545-19.866-13.908-21.254" transform="translate(-163.151 -149.65)" fill="#ffcdbb"/>
                  <path id="Trazado_705116" data-name="Trazado 705116" d="M431.241,305.609c-.167,2.389,2.508,3.664,4.682,3.664,4.18,0,6.354-4.3,6.689-7.807.334-3.346-2.509-7.329-6.689-6.372-2.508.8-4.013,4.141-4.013,6.531Z" transform="translate(-195.956 -171.367)" fill="#ffcdbb"/>
                  <path id="Trazado_705117" data-name="Trazado 705117" d="M431.24,305.487a2.744,2.744,0,0,0,.446,1.7A3.669,3.669,0,0,0,433,308.368a5.716,5.716,0,0,0,3.434.659,5.367,5.367,0,0,0,3.116-1.454,8.184,8.184,0,0,0,1.922-2.883,11.84,11.84,0,0,0,.824-3.381,6.084,6.084,0,0,0-.7-3.279,5.725,5.725,0,0,0-2.318-2.408,5.09,5.09,0,0,0-3.314-.444l.017,0a5.321,5.321,0,0,0-2.906,2.513,8.054,8.054,0,0,0-1.141,3.816v.005c-.248,1.323-.467,2.652-.7,3.979m0,0,.639-3.989v.005a8.642,8.642,0,0,1,1-3.928,6.961,6.961,0,0,1,1.213-1.67,4.679,4.679,0,0,1,1.764-1.136h0l.013,0a5.438,5.438,0,0,1,3.67.341,6.047,6.047,0,0,1,2.629,2.623,6.464,6.464,0,0,1,.753,3.642,11.514,11.514,0,0,1-.974,3.53,8.624,8.624,0,0,1-2.168,2.937,5.64,5.64,0,0,1-3.333,1.37,6.119,6.119,0,0,1-3.475-.8,3.91,3.91,0,0,1-1.305-1.213,2.751,2.751,0,0,1-.431-1.71" transform="translate(-195.955 -171.246)" fill="#e08282"/>
                  <path id="Trazado_705118" data-name="Trazado 705118" d="M419.322,300.389c2.007.8,3.847,2.868,6.188,1.913,2.843-.956,4.014-5.418,5.017-7.807,1.171-3.028,3.01-7.329.836-10.357a6.2,6.2,0,0,0-5.351-2.071c-2.341.16-3.344,1.753-4.181,3.665-1.5,3.346-4.347,9.4-3.846,13.065.5,0,.335,0,.669.159Z" transform="translate(-191.396 -166.945)" fill="#ffcdbb"/>
                  <path id="Trazado_705119" data-name="Trazado 705119" d="M419.281,300.23c1.037.382,1.95,1.029,2.932,1.5a3.7,3.7,0,0,0,3.085.307,4.814,4.814,0,0,0,2.4-2.008,14.893,14.893,0,0,0,1.445-2.9c.4-1.01.74-2.066,1.16-3.085.391-1.023.791-2.045,1.1-3.083a13.6,13.6,0,0,0,.609-3.157,6.04,6.04,0,0,0-.59-3.037,4.386,4.386,0,0,0-2.235-2.019,6.775,6.775,0,0,0-3.076-.538,3.7,3.7,0,0,0-2.717,1.225,10.317,10.317,0,0,0-1.585,2.773c-.933,1.99-1.842,3.985-2.582,6.045a27.279,27.279,0,0,0-.938,3.139,10.292,10.292,0,0,0-.282,3.242l-.062-.054a3.6,3.6,0,0,1,.36.018,1.643,1.643,0,0,1,.328.162l.015.006.007.016Zm0,0-.71-1.414.022.022a2.042,2.042,0,0,0-.306-.136,3.293,3.293,0,0,0-.343,0h-.054l-.008-.054a10.509,10.509,0,0,1,.144-3.312,22.7,22.7,0,0,1,.843-3.208c.692-2.1,1.557-4.134,2.437-6.149a10.676,10.676,0,0,1,1.656-2.937,4.182,4.182,0,0,1,1.409-1.052,4.894,4.894,0,0,1,1.7-.392,7.392,7.392,0,0,1,3.367.561,5.676,5.676,0,0,1,1.483.915,4.125,4.125,0,0,1,.609.647,8.48,8.48,0,0,1,.463.747,6.673,6.673,0,0,1,.632,3.366,14.178,14.178,0,0,1-.662,3.3c-.331,1.065-.741,2.09-1.144,3.117-.419,1.014-.8,2.039-1.229,3.062a15.275,15.275,0,0,1-1.567,2.949,5.088,5.088,0,0,1-2.627,2.07,3.3,3.3,0,0,1-1.689.134,5.369,5.369,0,0,1-1.57-.584c-.981-.518-1.846-1.206-2.857-1.649" transform="translate(-191.355 -166.786)" fill="#e08282"/>
                  <path id="Trazado_705120" data-name="Trazado 705120" d="M402.143,322.762c2.341-.32,3.01-5.1,2.842-6.852-.668-3.984-5.518-6.691-8.528-8.763,0,0,3.344,1.434,5.017,2.072,2.007.8,4.347,1.275,6.521,1.911,1.673.478,4.014,1.274,5.686.319a3.944,3.944,0,0,0,1.506-5.1c-1.672-3.665-7.359-5.9-11.037-7.169s-8.529-2.709-12.375-1.752c-7.524,1.752-8.193,12.905-5.351,18.321,3.177,5.577,5.72,11.7,15.5,13.33" transform="translate(-180.069 -172.111)" fill="#ffcdbb"/>
                  <path id="Trazado_705121" data-name="Trazado 705121" d="M402.015,322.607a2.345,2.345,0,0,0,1.548-1.133,6.714,6.714,0,0,0,.781-1.808,12.323,12.323,0,0,0,.375-1.938,9.778,9.778,0,0,0,.047-1.964v.006a6.721,6.721,0,0,0-1.27-2.788,13.161,13.161,0,0,0-2.159-2.224,57.879,57.879,0,0,0-5.124-3.6.2.2,0,0,1,.193-.358l0,0c1.787.744,3.578,1.5,5.382,2.172,1.8.651,3.7,1.054,5.577,1.568.941.258,1.861.557,2.788.743a5.447,5.447,0,0,0,2.728-.016,3.411,3.411,0,0,0,1.915-1.763,3.7,3.7,0,0,0,.2-2.623,6.222,6.222,0,0,0-1.437-2.336,12.161,12.161,0,0,0-2.18-1.8,27.536,27.536,0,0,0-5.136-2.557c-1.794-.693-3.626-1.331-5.472-1.866a25.38,25.38,0,0,0-5.637-1.034,9.939,9.939,0,0,0-5.462,1.074,8.584,8.584,0,0,0-3.548,4.236A15.58,15.58,0,0,0,385,308.17a17.19,17.19,0,0,0,.78,5.656,13.031,13.031,0,0,0,1.2,2.6c.467.851.927,1.7,1.409,2.541a26.461,26.461,0,0,0,3.3,4.729,15.645,15.645,0,0,0,4.581,3.472,20.474,20.474,0,0,0,5.512,1.76,20.555,20.555,0,0,1-5.567-1.647,15.824,15.824,0,0,1-4.71-3.414,25.217,25.217,0,0,1-3.429-4.721c-.494-.837-.966-1.686-1.442-2.529a13.52,13.52,0,0,1-1.268-2.652,17.655,17.655,0,0,1-.876-5.8,15.664,15.664,0,0,1,1.106-5.776,9.161,9.161,0,0,1,3.773-4.528,10.524,10.524,0,0,1,5.784-1.177,25.977,25.977,0,0,1,5.782,1.033c1.879.539,3.719,1.16,5.538,1.87a28.153,28.153,0,0,1,5.245,2.641,12.765,12.765,0,0,1,2.284,1.906,6.8,6.8,0,0,1,1.565,2.587,4.3,4.3,0,0,1-.244,3.047,3.986,3.986,0,0,1-2.266,2.058,5.99,5.99,0,0,1-3.022.022c-.974-.2-1.9-.507-2.826-.765-1.854-.53-3.756-.96-5.6-1.651-1.818-.707-3.592-1.479-5.375-2.249l.2-.356a57.963,57.963,0,0,1,5.1,3.686,13.471,13.471,0,0,1,2.154,2.323,6.942,6.942,0,0,1,1.244,2.908v.007a9.9,9.9,0,0,1-.093,2,12.389,12.389,0,0,1-.424,1.948,6.778,6.778,0,0,1-.831,1.807,2.367,2.367,0,0,1-1.586,1.107" transform="translate(-179.941 -171.955)" fill="#e08282"/>
                  <path id="Trazado_705122" data-name="Trazado 705122" d="M156.157,284.764c-5.387-3.862-13.069-8.853-17.364-9.321-17.055-1.856-15.512,1.829-28.44,3.009-13.712,1.251-15.049-1.9-30.769-4.129a253.323,253.323,0,0,0-.669,50.346s23.746,3.824,36.455,4.463c0,0-.665,10.309-1.488,21.194,16.907-8.855,34.176-17.559,51.729-25.088Z" transform="translate(-74.902 -164.299)" fill="#993f3f"/>
                  <path id="Trazado_705123" data-name="Trazado 705123" d="M192.186,359.306,170.621,380.1l-6.615-28.32c-17.552,7.529-34.822,16.233-51.729,25.088-.722,9.549-1.566,19.545-2.191,23.417-1.338,7.009-2.007,14.02-4.682,20.393-2.676,7.647-10.034,12.745-12.041,21.03-1.337,6.373,2.007,13.383.67,19.756-1.338,8.286-9.365,11.472-12.041,19.119-2.006,5.737-3.344,12.746-4.683,19.12-1.337,4.461-4.013,19.756-4.013,19.756s15.385,5.1,21.4,7.01c14.047,3.825,27.424,7.648,41.472,10.2,24.079,4.461,52.842,6.373,77.593,3.187.668-5.736,3.344-12.11,2.675-17.845-.668-6.372-5.351-11.471-4.681-17.844,1.337-8.285,5.351-10.2,2.675-18.482s-2.006-12.109,0-21.031c4.978-20.025,4.936-40.919,8.552-60.884-8.09-11.968-15.794-24.2-24.27-35.985-1.773-2.533-4.2-5.441-6.528-8.476" transform="translate(-73.296 -190.843)" fill="#c44e4e"/>
                  <path id="Trazado_705124" data-name="Trazado 705124" d="M333.273,375.212c-6.689-7.647-27.425-39.194-36.79-43.655-5.964-3.059-13.186-1.324-20.156-1.163l-22.158,21.365c2.329,3.035,4.755,5.943,6.528,8.476,8.476,11.788,16.18,24.018,24.27,35.985.756-4.181,1.662-8.322,2.82-12.4,4.681,6.373,13.377,21.668,13.377,21.668,13.919-3.059,20.067-10.834,26.087-20.393,8.7-13.383,6.021-9.878,6.021-9.878" transform="translate(-135.279 -183.296)" fill="#993f3f"/>
                  <path id="Trazado_705125" data-name="Trazado 705125" d="M256.706,316.841a22.845,22.845,0,0,1-9.275-1.386c-4.014,7.648-26.087,31.866-32.777,32.5-3.533-13.05-11.7-53.206-11.7-53.206s-2.535-2.034-6.037-4.544L212.982,359Z" transform="translate(-115.657 -169.742)" fill="#772f2f"/>
                </g>
              </g>
            </g>
            <g id="Grupo_1000103" data-name="Grupo 1000103" opacity="0.5" style="mix-blend-mode: color;isolation: isolate">
              <g id="Grupo_1000102" data-name="Grupo 1000102">
                <g id="Grupo_1000101" data-name="Grupo 1000101" clip-path="url(#clip-path-11)">
                  <rect id="Rectángulo_345503" data-name="Rectángulo 345503" width="207.728" height="181.295" fill="#1fa4c7"/>
                </g>
              </g>
            </g>
          </g>
        </g>
        <g id="Grupo_1000107" data-name="Grupo 1000107" transform="translate(0.153 0.445)">
          <g id="Grupo_1000106" data-name="Grupo 1000106" transform="translate(0 0)" clip-path="url(#clip-path-14)">
            <path id="Trazado_705126" data-name="Trazado 705126" d="M64.546,384.569c.211,2.742-.844,5.274-1.477,8.016-1.687,6.329-2.953,12.657-4.43,18.987-2.953,13.5-6.118,27.214-9.071,40.715-.843,3.375-1.266,6.962-1.9,10.336,4.852,1.9,11.391,1.266,16.455,1.9,2.109.21,4.219.843,6.329.843,3.375.212,3.586,0,4.219-3.375,2.742-11.814,5.485-23.627,8.861-35.231.632-2.32.421-3.164,2.742-3.586,1.054-.212,4.43,0,5.063.633.844,1.054-1.266,11.6-1.688,14.134-1.265,9.072-2.742,18.143-3.8,27.214,2.11.843,5.063.632,7.384,1.055a36.1,36.1,0,0,0,6.539.633,50.984,50.984,0,0,0,8.017,0c1.9-.212,3.587-1.056,5.7-.845,1.265-21.1,4.219-42.191,6.751-63.288.211-1.687,1.687-11.6.844-11.813Z" transform="translate(-16.488 -132.231)" fill="#1e385e"/>
          </g>
        </g>
        <g id="Grupo_1000109" data-name="Grupo 1000109" transform="translate(31.715 252.783)">
          <g id="Grupo_1000108" data-name="Grupo 1000108" clip-path="url(#clip-path-15)">
            <path id="Trazado_705127" data-name="Trazado 705127" d="M90.112,445.729a21.34,21.34,0,0,1,5.984-2.191,23.518,23.518,0,0,1,6.381-.751,24.738,24.738,0,0,1,6.287,1.283c1.012.345,2,.736,2.98,1.164.966.448,1.924.909,2.851,1.429-.991-.385-1.971-.785-2.972-1.131-.992-.364-1.994-.7-3.008-.979a29.8,29.8,0,0,0-6.178-1.11,16.628,16.628,0,0,0-3.114.122c-1.044.108-2.084.287-3.122.465s-2.069.413-3.087.686a17.622,17.622,0,0,0-3,1.012" transform="translate(-62.595 -404.513)" fill="#4f7ca8"/>
            <path id="Trazado_705128" data-name="Trazado 705128" d="M106.973,411.05a5.39,5.39,0,0,1,.037,2.765c-.17.917-.414,1.814-.6,2.719-.369,1.81-.652,3.646-1,5.468-.309,1.823-.6,3.656-.856,5.485a50.348,50.348,0,0,0-.484,5.507l-.471-.273a7.058,7.058,0,0,1,1.716-.7,10.553,10.553,0,0,1,1.794-.34,6.8,6.8,0,0,1,1.853.052,2.8,2.8,0,0,1,1.731.916l-.551.114c.992-3.651,2.142-7.239,2.982-10.9.433-1.831.757-3.689,1.183-5.532a27.248,27.248,0,0,1,1.74-5.389l.009.014-.333-.01.333-.011h.014l-.005.014a29.5,29.5,0,0,0-1.47,5.442c-.348,1.849-.64,3.715-1.019,5.568-.712,3.724-1.89,7.326-2.827,10.967l-.155.6-.4-.49a2.188,2.188,0,0,0-1.351-.67,6.749,6.749,0,0,0-1.679-.037,9.889,9.889,0,0,0-1.685.3,6.487,6.487,0,0,0-1.562.616l-.491.289.02-.563a50.971,50.971,0,0,1,.54-5.568c.262-1.844.628-3.663.981-5.49.41-1.808.711-3.639,1.175-5.445.225-.9.508-1.788.717-2.687a5.559,5.559,0,0,0,.11-2.734" transform="translate(-67.159 -393.602)" fill="#4f7ca8"/>
            <path id="Trazado_705129" data-name="Trazado 705129" d="M81.25,404.372a3.241,3.241,0,0,1-.164,1.8,5.365,5.365,0,0,1-.959,1.568,14.831,14.831,0,0,1-2.729,2.382,7.638,7.638,0,0,1-3.411,1.313,15.806,15.806,0,0,1-3.594-.082c1.185-.134,2.378-.2,3.511-.425a8.423,8.423,0,0,0,3.127-1.352,21.038,21.038,0,0,0,2.718-2.182,4.421,4.421,0,0,0,1.5-3.02" transform="translate(-55.838 -391.355)" fill="#4f7ca8"/>
            <path id="Trazado_705130" data-name="Trazado 705130" d="M143.264,412.461a19.369,19.369,0,0,0,.387,3.235,10.352,10.352,0,0,0,1.1,2.972,6.885,6.885,0,0,0,2.09,2.3,8.791,8.791,0,0,0,2.959,1.24,6.458,6.458,0,0,1-3.23-.8,6.369,6.369,0,0,1-2.39-2.412,9.679,9.679,0,0,1-.916-6.532" transform="translate(-80.741 -394.127)" fill="#4f7ca8"/>
            <path id="Trazado_705131" data-name="Trazado 705131" d="M86.991,450.033c.988-.147,1.927-.476,2.908-.7a13.5,13.5,0,0,1,1.5-.27,4.878,4.878,0,0,1,.8-.015,1.6,1.6,0,0,1,.874.3l.246.191-.212.25a10.039,10.039,0,0,1-3.835,2.609,22.449,22.449,0,0,1-4.383,1.287c1.4-.588,2.807-1.145,4.148-1.8a11.623,11.623,0,0,0,3.587-2.5l.034.44a2.086,2.086,0,0,0-1.215-.2c-.479.022-.97.079-1.46.148s-.984.141-1.484.191a7.949,7.949,0,0,1-1.5.066" transform="translate(-60.804 -406.663)" fill="#4f7ca8"/>
            <path id="Trazado_705132" data-name="Trazado 705132" d="M117.182,447.179a7.821,7.821,0,0,0,2.078,1.845,22.3,22.3,0,0,0,2.446,1.348c.84.417,1.684.845,2.5,1.349a8.228,8.228,0,0,1,2.207,1.907l.277.367-.434.139a4.285,4.285,0,0,1-2.667-.141c-.832-.277-1.566-.62-2.364-.874-.791-.273-1.6-.527-2.379-.876a7.242,7.242,0,0,1-2.108-1.407,8.175,8.175,0,0,0,2.222,1.124c.784.271,1.592.479,2.407.695.4.114.823.214,1.223.365s.787.283,1.177.394a3.856,3.856,0,0,0,2.284.1l-.156.505a8.118,8.118,0,0,0-2.029-1.769c-.767-.508-1.593-.948-2.408-1.42a22.8,22.8,0,0,1-2.391-1.537,7.063,7.063,0,0,1-1.885-2.117" transform="translate(-71.72 -406.024)" fill="#4f7ca8"/>
          </g>
        </g>
        <g id="Grupo_1000111" data-name="Grupo 1000111" transform="translate(0.153 0.445)">
          <g id="Grupo_1000110" data-name="Grupo 1000110" transform="translate(0 0)" clip-path="url(#clip-path-14)">
            <path id="Trazado_705134" data-name="Trazado 705134" d="M167.921,194.73c.843-2.321,3.27-3.8,2.531-6.54-1.476-5.379-7.489-5.485-11.391-8.333-2.11-1.477-4.324-4.114-6.751-4.957a5.319,5.319,0,0,0-6.223,3.269c-.633,1.266-.317,2-1.688,2.426a11.948,11.948,0,0,1-2.742.105c-.62-.051-1.318-.128-2.016-.156-.5.868-.968,1.737-1.413,2.582-1.288,2.652-2.791,5.742-4.028,8.934-2.395-1.406-6.12-1.635-7.311,1.087a6.921,6.921,0,0,0,1.055,6.962,8.246,8.246,0,0,0,3.375,1.9,2.069,2.069,0,0,0,.442.08c-.005.114-.017.229-.02.342-.12,4.31.8,9,3.214,12.191-1.765,2.892-3.246,6.415-5.778,8.441-3.415,3.037-6.072-.379-9.3-1.328l-2.467,6.643c-.759,4.175-2.088,7.021-.948,11.386.759,3.607,3.226,6.453,6.073,9.11,3.226,2.846,5.883,3.226,9.868,1.708a19.543,19.543,0,0,0,8.73-6.453c.948-1.328,4.744-6.262,4.175-7.971-.38-1.138-4.365-2.088-5.124-3.606s-.379-4.365-.189-5.883c.418-2.408,1.761-4.7,2.944-6.973,4.377,1.078,7.874-.823,11.183-3.438a7.438,7.438,0,0,0,4.516,2,7.9,7.9,0,0,0,6.118-3.376c1.673-2.389.1-4.957-2.276-5.936,1.144-1.125,2.219-2.284,3.594-3.82a37.231,37.231,0,0,0,3.13-4.3c-.42-1.75-1.743-5.08-1.284-6.09" transform="translate(-39.911 -60.318)" fill="#ffcdbb"/>
            <path id="Trazado_705135" data-name="Trazado 705135" d="M165.076,202.435c-1.476,2.215-2.953,4.008-5.7,4.746-1.793.528-4.641.844-4.219,3.375.421,2.215,2.637,2.637,4.219,3.586" transform="translate(-53.31 -69.817)" fill="#ffcdbb"/>
            <path id="Trazado_705136" data-name="Trazado 705136" d="M164.928,202.435a17.641,17.641,0,0,1-1.321,2.059,9.448,9.448,0,0,1-1.757,1.75,7.39,7.39,0,0,1-2.23,1.144c-.791.262-1.59.416-2.328.674a3.125,3.125,0,0,0-1.8,1.172,2.337,2.337,0,0,0,.043,2.067,3.773,3.773,0,0,0,1.608,1.6c.672.431,1.429.763,2.09,1.242-.736-.349-1.5-.611-2.245-.959a4.148,4.148,0,0,1-1.9-1.652,2.955,2.955,0,0,1-.387-1.257,2.324,2.324,0,0,1,.25-1.345,3.667,3.667,0,0,1,2.134-1.491c.8-.262,1.6-.414,2.352-.643a7.842,7.842,0,0,0,2.128-.965,14.768,14.768,0,0,0,3.365-3.4" transform="translate(-53.162 -69.817)" fill="#e08282"/>
            <path id="Trazado_705137" data-name="Trazado 705137" d="M162.241,188.713c-.106-1.055,1.16-1.793,2.109-1.688,3.27.211-.633,3.8-2.109,1.793Z" transform="translate(-55.748 -64.532)"/>
            <path id="Trazado_705138" data-name="Trazado 705138" d="M185.953,199.5c-.949,0-2-1.9-1.476-2.848,1.37-2.215,4.008,2.11,1.792,2.848Z" transform="translate(-63.322 -67.621)"/>
            <path id="Trazado_705139" data-name="Trazado 705139" d="M159.955,199.147c-.461.91-1.192,1.466-1.633,1.242s-.427-1.142.034-2.051,1.191-1.466,1.633-1.242.427,1.142-.034,2.052" transform="translate(-54.297 -67.97)"/>
            <path id="Trazado_705140" data-name="Trazado 705140" d="M177.686,210.139c-.459.91-1.192,1.466-1.633,1.242s-.427-1.142.034-2.052,1.191-1.466,1.633-1.242.427,1.142-.034,2.052" transform="translate(-60.374 -71.737)"/>
            <path id="Trazado_705141" data-name="Trazado 705141" d="M162.187,225.506c-3.81-.39-8.97-3.045-11.137-6.534-2.218,3.668,6.35,6.78,9.973,7.755a10.89,10.89,0,0,0,1.163-1.221" transform="translate(-51.792 -75.484)" fill="#fff"/>
            <path id="Trazado_705142" data-name="Trazado 705142" d="M150.329,218.364a7.848,7.848,0,0,1-.466-.849l-.316-.317c-1.125,1.125-1.164,3.177-.626,5.073a8.52,8.52,0,0,1,2.057-.631c-.968-1-1.353-2.111-.649-3.276" transform="translate(-51.071 -74.876)" fill="#af4658"/>
            <path id="Trazado_705143" data-name="Trazado 705143" d="M157.806,227.594c-2.391-.853-5.188-2.122-6.652-3.638a8.523,8.523,0,0,0-2.057.632,7.186,7.186,0,0,0,2.419,3.891c1.779,1.232,3.993,2.183,6.314,1.5a13.268,13.268,0,0,0-.024-2.381" transform="translate(-51.246 -77.192)" fill="#f2aac1"/>
            <path id="Trazado_705144" data-name="Trazado 705144" d="M162.346,229.491a13.264,13.264,0,0,1,.024,2.381,6.865,6.865,0,0,0,2.649-1.539c-.732-.2-1.667-.483-2.673-.841" transform="translate(-55.787 -79.088)" fill="#af4658"/>
            <path id="Trazado_705145" data-name="Trazado 705145" d="M185.035,182.78c-2.714-9.394-13.895-16.3-23.277-13.543-4.575,1.342-7.525,5.262-9.8,9.22.7.028,1.4.1,2.016.156a11.949,11.949,0,0,0,2.742-.105c1.371-.422,1.055-1.16,1.688-2.426a5.32,5.32,0,0,1,6.223-3.269c2.427.844,4.641,3.48,6.751,4.957,3.9,2.848,9.916,2.953,11.392,8.333.739,2.742-1.688,4.219-2.531,6.54-.459,1.01.864,4.34,1.284,6.09,2.952-4.739,5.058-10.612,3.515-15.952" transform="translate(-52.226 -58.231)" fill="#b5a6a8"/>
            <path id="Trazado_705146" data-name="Trazado 705146" d="M184.38,178.365c1.99-.734,4.4-1.466,5.657-3.352-2.3.1-3.771-1.362-6.181-.629a5.632,5.632,0,0,0,.943-2.619c-1.047.628-1.99,1.257-3.038,1.781a20.305,20.305,0,0,0-.209-3.561c-.21-1.257-1.153-2.41-1.153-3.562-.838.837-.733,1.99-.733,3.038a8.359,8.359,0,0,0-4.924-4.505c-2.514-.733-4.819-.943-6.705-2.934-.523,1.781.21,5.448,1.991,6.286-1.572-.733-3.248-1.048-4.61-2.095,0,2.581,3.287,3.189,3.721,5.205.54.577.981,1.254,1.576,1.775,1.16,1.16,2.426,1.16,3.8,1.793,1.054.527,1.9,2.109,3.058,2.742a5.6,5.6,0,0,0,3.9.739,4.375,4.375,0,0,0,2,2.531,1.739,1.739,0,0,0,.365.149,11.791,11.791,0,0,0,3.994-2.049c-1.153-.524-2.41-.21-3.457-.734" transform="translate(-56.839 -55.968)"/>
            <path id="Trazado_705147" data-name="Trazado 705147" d="M191.276,172.839c.633-1.582,1.582-2.953.844-4.852-.844-1.9-2.637-2.425-4.535-2.742-.633-.106-2.637,0-2.954-.316,0,0-.421-1.372-.421-1.582l-.633-1.582a4.592,4.592,0,0,0-4.008-2c-1.16-.105-3.059.528-3.8,0-1.16-.632-1.9-2.215-3.164-2.953a13.373,13.373,0,0,0-4.957-1.371c-2.321-.316-7.384.211-7.489-3.375-1.688.317-1.266,3.375-1.055,4.535.106.739,1.055,2,1.055,2.532s-.633,1.055-.949,1.476a4.762,4.762,0,0,0-.317,3.8c.738,1.477,1.687.738,2.953.738-.211,2.215,2.215,3.27,4.008,2.321l.211-.106a4.254,4.254,0,0,1,.745.651c-.435-2.017-3.721-2.625-3.721-5.206,1.361,1.048,3.037,1.362,4.609,2.095-1.781-.837-2.514-4.5-1.99-6.285,1.886,1.99,4.191,2.2,6.7,2.934a8.352,8.352,0,0,1,4.924,4.5c0-1.048-.1-2.2.734-3.038,0,1.152.943,2.3,1.152,3.562a20.247,20.247,0,0,1,.21,3.562c1.048-.524,1.991-1.153,3.038-1.781a5.635,5.635,0,0,1-.943,2.619c2.41-.734,3.877.733,6.181.628-1.257,1.886-3.667,2.619-5.657,3.352,1.047.524,2.3.21,3.457.734a11.781,11.781,0,0,1-3.994,2.049,19.915,19.915,0,0,1,2.166.378c.739.528,1.372,1.688,2.321,2.215a5.162,5.162,0,0,0,2.847.633c3.9-.211,7.806-7.806,2.426-8.122" transform="translate(-54.511 -52.553)" fill="#333131"/>
            <path id="Trazado_705148" data-name="Trazado 705148" d="M214.552,234.537c.1-2.626-.142-5.341-.2-7.827-.079-2.531-.158-4.984-.316-7.515-.158-1.9.475-4.984-2.057-5.222-1.187-.079-1.9-.079-2.215,1.108a12.247,12.247,0,0,0-.08,3.4c.08,2.294.4,4.509.475,6.8.08,2.215.317,4.351.4,6.487,0,.633.4,1.977-.079,2.452-1.029,1.265-1.5-1.187-1.662-1.819-.8-3.206-1.267-6.471-1.881-9.714-.4-2.128-.092-9.1-3.893-6.82-1.978,1.345-1.029,3.8-.554,5.775.949,3.876,1.741,7.832,2.452,11.708a19.124,19.124,0,0,1,.554,4.272c0,.131-.008.314-.016.525-3.465,4.508-1.757,11.83,4.894,13.055L206.787,281.8s-8.512-8.439-11.887-12.869l-7.943,9.915c4.219,3.375,22.15,22.784,27.846,21.1,2.953-5.7,1.054-39.871.843-44.512,0-.843-.422-2.742,0-3.586.422-1.266.633-.844,1.9-1.687,2.32-1.477,3.164-2.11,3.586-5.063.885-5.6-2.151-9.864-6.58-10.553" transform="translate(-64.22 -73.761)" fill="#ffcdbb"/>
            <path id="Trazado_705149" data-name="Trazado 705149" d="M232.247,250.7c-.079,1.186,1.186,1.819,2.215,1.819,1.978,0,3.006-2.136,3.164-3.876.158-1.662-1.186-3.639-3.164-3.164-1.186.4-1.9,2.057-1.9,3.243Z" transform="translate(-79.739 -84.544)" fill="#ffcdbb"/>
            <path id="Trazado_705150" data-name="Trazado 705150" d="M232.245,250.579a1.518,1.518,0,0,0,.827,1.413,2.517,2.517,0,0,0,1.647.3,2.449,2.449,0,0,0,1.428-.768,4.12,4.12,0,0,0,.826-1.417,6.4,6.4,0,0,0,.339-1.613,3.082,3.082,0,0,0-.3-1.515,2.7,2.7,0,0,0-1-1.15,2.177,2.177,0,0,0-1.494-.261l.018-.005a2.493,2.493,0,0,0-1.366,1.191,3.978,3.978,0,0,0-.569,1.849v0h0c-.131.655-.233,1.315-.348,1.973m0,0c.1-.661.205-1.319.285-1.982v0a4.6,4.6,0,0,1,.426-1.958,2.814,2.814,0,0,1,1.437-1.489l.018-.005a2.547,2.547,0,0,1,1.875.169,3.032,3.032,0,0,1,1.3,1.376,3.421,3.421,0,0,1,.348,1.858,5.884,5.884,0,0,1-.484,1.752,4.546,4.546,0,0,1-1.065,1.472,2.713,2.713,0,0,1-1.652.694,2.877,2.877,0,0,1-1.69-.438,1.581,1.581,0,0,1-.8-1.453" transform="translate(-79.738 -84.419)" fill="#e08282"/>
            <path id="Trazado_705151" data-name="Trazado 705151" d="M226.609,248.114c.949.4,1.819,1.424,2.927.949,1.345-.475,1.9-2.69,2.374-3.876.553-1.5,1.424-3.639.4-5.142a2.862,2.862,0,0,0-2.531-1.029c-1.108.08-1.582.87-1.978,1.82-.712,1.661-2.057,4.667-1.819,6.486.237,0,.158,0,.317.08Z" transform="translate(-77.582 -82.348)" fill="#ffcdbb"/>
            <path id="Trazado_705152" data-name="Trazado 705152" d="M226.566,247.949a15.593,15.593,0,0,1,1.436.723,1.577,1.577,0,0,0,1.448.077,2.35,2.35,0,0,0,1.056-1.029,8.168,8.168,0,0,0,.633-1.431c.319-1.012.736-2.032,1.014-3.03a4.2,4.2,0,0,0,0-2.918,2.418,2.418,0,0,0-2.4-1.175,1.566,1.566,0,0,0-1.171.6,5.958,5.958,0,0,0-.721,1.346c-.451.972-.887,1.946-1.244,2.947a8.326,8.326,0,0,0-.624,3.09l-.062-.054a1.48,1.48,0,0,1,.177.013.714.714,0,0,1,.16.087l.016.007.006.015Zm0,0-.358-.693.021.022a1.142,1.142,0,0,0-.137-.061c-.043,0-.1,0-.158,0l-.054,0-.008-.056a7.728,7.728,0,0,1,.389-3.222c.308-1.041.7-2.051,1.1-3.049a6.316,6.316,0,0,1,.76-1.5,2.156,2.156,0,0,1,1.587-.858,3.557,3.557,0,0,1,1.729.284,2.537,2.537,0,0,1,1.3,1.234,4.678,4.678,0,0,1,0,3.375c-.331,1.062-.751,2.023-1.144,3.035a8.607,8.607,0,0,1-.749,1.471,2.626,2.626,0,0,1-1.282,1.1,1.628,1.628,0,0,1-.859.089,2.334,2.334,0,0,1-.78-.3c-.476-.272-.876-.63-1.359-.871" transform="translate(-77.54 -82.184)" fill="#e08282"/>
            <path id="Trazado_705153" data-name="Trazado 705153" d="M218.482,259.223c1.108-.158,1.424-2.531,1.345-3.4-.317-1.978-2.611-3.323-4.035-4.351,0,0,1.582.713,2.374,1.029.949.4,2.057.633,3.085.949.791.237,1.9.633,2.69.158a2.011,2.011,0,0,0,.712-2.531c-.791-1.819-3.48-2.927-5.221-3.56s-4.035-1.345-5.854-.87c-3.56.87-3.876,6.408-2.531,9.1,1.5,2.769,2.706,5.807,7.331,6.619" transform="translate(-72.224 -84.914)" fill="#ffcdbb"/>
            <path id="Trazado_705154" data-name="Trazado 705154" d="M218.351,259.064a1.282,1.282,0,0,0,.852-.828,4.946,4.946,0,0,0,.331-1.188,6.077,6.077,0,0,0,.076-1.228,2.957,2.957,0,0,0-.38-1.13,6.569,6.569,0,0,0-1.656-1.777c-.643-.513-1.343-.956-2.032-1.437a.2.2,0,0,1,.195-.356l.009,0,2.579,1.071c.856.315,1.767.509,2.677.768.456.132.893.28,1.326.36a2.075,2.075,0,0,0,1.209-.061,1.69,1.69,0,0,0,.78-2.034,4.163,4.163,0,0,0-1.683-1.929,12.936,12.936,0,0,0-2.43-1.247,16.885,16.885,0,0,0-5.285-1.413,4.159,4.159,0,0,0-2.5.621,4.313,4.313,0,0,0-1.516,2.1,8.786,8.786,0,0,0-.114,5.355,6.615,6.615,0,0,0,.548,1.25l.646,1.241a13.932,13.932,0,0,0,1.507,2.322,7.41,7.41,0,0,0,2.131,1.742,9.769,9.769,0,0,0,2.622.934,9.249,9.249,0,0,1-2.688-.809,7.6,7.6,0,0,1-2.258-1.7,12.816,12.816,0,0,1-1.626-2.32l-.68-1.23a7.118,7.118,0,0,1-.609-1.3,9.16,9.16,0,0,1-.454-2.832,8.268,8.268,0,0,1,.446-2.848,4.888,4.888,0,0,1,1.71-2.385,4.751,4.751,0,0,1,2.847-.751,17.139,17.139,0,0,1,5.517,1.418,13.59,13.59,0,0,1,2.54,1.334,4.739,4.739,0,0,1,1.9,2.262,2.276,2.276,0,0,1-1.121,2.75,2.625,2.625,0,0,1-1.551.089c-.487-.1-.936-.254-1.377-.386-.882-.273-1.8-.495-2.694-.849l-2.573-1.149.2-.352c.664.49,1.363.959,2.009,1.5a6.565,6.565,0,0,1,1.654,1.927,3.148,3.148,0,0,1,.355,1.238,6.241,6.241,0,0,1-.133,1.259,4.621,4.621,0,0,1-.4,1.2,1.315,1.315,0,0,1-.917.8" transform="translate(-72.094 -84.755)" fill="#e08282"/>
            <path id="Trazado_705155" data-name="Trazado 705155" d="M52.537,210.689c-5.7-1.055-21.729-3.164-23.838-3.375-2.953-.633-3.375-1.266-4.43-4.219-1.266-3.8-5.063-40.926-4.852-43.036,0-1.9-.633-3.375-.633-5.7,0-5.274,5.274-8.017,7.173-12.657a21.906,21.906,0,0,0,1.055-9.7c-.211-1.9-2.109-7.384,2.109-5.7-.844-2.953,3.164-3.375,4.43-1.267-.632-3.375,3.587-2.531,4.43-.21-.21-2.953,3.164-2.109,4.219-.633,1.266,1.476,1.266,3.587,1.476,5.485A28.084,28.084,0,0,1,42.2,141.5c-2.32,6.962-7.595,18.353-15.822,19.619,0,0,2.742,17.3,4.852,25.737,1.265,4.641,1.687,9.2,4.323,9.42,4.538.376,17.616,2.394,18.249,3.027Z" transform="translate(-6.59 -42.524)" fill="#ffcdbb"/>
            <path id="Trazado_705156" data-name="Trazado 705156" d="M33.975,124.484a1.723,1.723,0,0,0-.873,1.047,2.963,2.963,0,0,0,.074,1.372l.35,1.4c.1.486.17.96.231,1.443a29.83,29.83,0,0,1,.1,5.8,37.248,37.248,0,0,1-.874,5.742,15.613,15.613,0,0,1-2.924,5.005c.47-.84,1-1.646,1.406-2.509a10.84,10.84,0,0,0,1.027-2.623c.329-1.85.568-3.77.711-5.663a40.931,40.931,0,0,0,.06-5.706c-.03-.473-.069-.955-.137-1.413s-.189-.933-.259-1.418a3.176,3.176,0,0,1,.074-1.48,1.707,1.707,0,0,1,1.036-1" transform="translate(-10.453 -43.104)" fill="#e08282"/>
            <path id="Trazado_705157" data-name="Trazado 705157" d="M39.738,123.437a2.146,2.146,0,0,0-.383,1.323,8.343,8.343,0,0,0,.123,1.4l.349,2.828a27.471,27.471,0,0,1,.214,5.736,24.717,24.717,0,0,1-1.129,5.638,25.407,25.407,0,0,1-2.377,5.211l0,.007,0,0a4.427,4.427,0,0,0-.353.558c-.115.192-.21.4-.344.58.107-.2.175-.413.264-.62a3.875,3.875,0,0,1,.306-.615l-.006.01a33.054,33.054,0,0,0,1.979-5.3,29.633,29.633,0,0,0,1.02-5.529c.08-.934.1-1.871.09-2.808-.026-.941-.08-1.886-.13-2.832s-.129-1.9-.163-2.845a8.927,8.927,0,0,1,.008-1.44,2.083,2.083,0,0,1,.538-1.312" transform="translate(-12.432 -42.745)" fill="#e08282"/>
            <path id="Trazado_705158" data-name="Trazado 705158" d="M74.234,144.59a1.267,1.267,0,0,1-1.266,1.266H39.794a2.824,2.824,0,0,1-3.164-3.164l1.9-13.423A1.266,1.266,0,0,1,39.794,128l31.276-1.9a2.824,2.824,0,0,1,3.164,3.165Z" transform="translate(-12.706 -43.659)" fill="#606060"/>
            <rect id="Rectángulo_345507" data-name="Rectángulo 345507" width="35.705" height="17.853" rx="1.926" transform="translate(23.925 82.445)"/>
            <path id="Trazado_705159" data-name="Trazado 705159" d="M80.335,138.457a1.555,1.555,0,1,1-1.555-1.52,1.538,1.538,0,0,1,1.555,1.52" transform="translate(-26.618 -47.371)" fill="#606060"/>
            <path id="Trazado_705160" data-name="Trazado 705160" d="M26.965,166.63a7.781,7.781,0,0,1-.158-1.661,5.6,5.6,0,0,1,1.266-3.877,11.949,11.949,0,0,1,6.012-3.322c0-1.9-.158-3.877-.08-5.775.158-1.5.633-5.063,2.532-5.538,2.61-.553,2.452,7.753,2.294,9.335-.237,1.9-.475,4.984-1.741,6.487" transform="translate(-9.339 -50.625)" fill="#ffcdbb"/>
            <path id="Trazado_705161" data-name="Trazado 705161" d="M26.932,166.473a8.285,8.285,0,0,1-.12-3.2,5.476,5.476,0,0,1,.5-1.558A5.3,5.3,0,0,1,28.3,160.4a10.008,10.008,0,0,1,2.646-1.9,15.193,15.193,0,0,1,3.039-1.16l-.211.273c-.008-1.214-.077-2.434-.11-3.663-.016-.616-.025-1.229-.009-1.854a14.334,14.334,0,0,1,.222-1.865,10.691,10.691,0,0,1,.469-1.826,5.092,5.092,0,0,1,.956-1.7,3.8,3.8,0,0,1,.383-.348,2.365,2.365,0,0,1,.469-.256,1.378,1.378,0,0,1,1.129-.018,1.836,1.836,0,0,1,.782.743,4.319,4.319,0,0,1,.41.893,14.229,14.229,0,0,1,.6,3.688,33.026,33.026,0,0,1-.032,3.7,32.711,32.711,0,0,1-.55,3.65,7.59,7.59,0,0,1-1.426,3.367,7.916,7.916,0,0,0,1.2-3.41c.1-.6.162-1.206.223-1.814s.145-1.218.16-1.815a32.5,32.5,0,0,0-.094-3.641,15.309,15.309,0,0,0-.628-3.53,2.171,2.171,0,0,0-.885-1.275.765.765,0,0,0-.651.035,1.806,1.806,0,0,0-.332.185,3.318,3.318,0,0,0-.29.272,7.119,7.119,0,0,0-1.253,3.217,13.841,13.841,0,0,0-.231,1.773c-.022.6-.021,1.209-.012,1.817.019,1.217.075,2.443.069,3.676a.283.283,0,0,1-.211.272,12.415,12.415,0,0,0-5.571,2.771,5.542,5.542,0,0,0-.985,1.2,5.239,5.239,0,0,0-.553,1.458,8.851,8.851,0,0,0-.081,3.161" transform="translate(-9.306 -50.467)" fill="#e08282"/>
            <path id="Trazado_705162" data-name="Trazado 705162" d="M16.938,192.628a26.025,26.025,0,0,0,.633,5.063c3.955.158,8.069-.316,11.866-.475,0,0,0-5.063-.791-5.854Z" transform="translate(-5.957 -66.022)" fill="#5b3e38"/>
            <path id="Trazado_705163" data-name="Trazado 705163" d="M102.113,240.355c-2.549-1.917-6.183-4.4-8.214-4.628-8.068-.922-7.338.908-13.454,1.493-6.487.621-7.12-.942-14.556-2.049a132.041,132.041,0,0,0-.317,25s11.233,1.9,17.246,2.215c0,0-.314,5.119-.7,10.524,8-4.4,16.168-8.719,24.472-12.457Z" transform="translate(-22.472 -81.035)" fill="#4db1f0"/>
            <path id="Trazado_705164" data-name="Trazado 705164" d="M119.157,277.368l-10.2,10.325-3.129-14.061c-8.3,3.738-16.474,8.06-24.472,12.457-.342,4.742-.741,9.7-1.037,11.627-.633,3.48-.95,6.962-2.215,10.126-1.266,3.8-4.746,6.329-5.7,10.443-.632,3.164.95,6.645.317,9.809-.633,4.114-4.43,5.7-5.7,9.494a83.281,83.281,0,0,0-2.214,9.493c-.633,2.215-1.9,9.81-1.9,9.81s7.278,2.531,10.126,3.48c6.645,1.9,12.974,3.8,19.62,5.063,11.391,2.215,25,3.164,36.706,1.582.317-2.848,1.582-6.012,1.266-8.861-.317-3.164-2.532-5.7-2.215-8.86.633-4.113,2.531-5.063,1.266-9.177s-.95-6.012,0-10.443c2.355-9.943,2.335-20.317,4.044-30.23-3.826-5.943-7.47-12.015-11.481-17.868-.838-1.258-1.986-2.7-3.088-4.209" transform="translate(-21.712 -94.215)" fill="#0098e8"/>
            <path id="Trazado_705165" data-name="Trazado 705165" d="M185.9,285.266c-3.164-3.8-12.974-19.461-17.4-21.676-2.821-1.519-6.237-.657-9.535-.578l-10.482,10.609c1.1,1.507,2.249,2.95,3.088,4.209,4.01,5.853,7.654,11.925,11.481,17.867.358-2.076.787-4.132,1.334-6.159,2.215,3.164,6.329,10.759,6.329,10.759,6.586-1.519,9.494-5.379,12.341-10.126,4.114-6.645,2.848-4.9,2.848-4.9" transform="translate(-51.035 -90.467)" fill="#4db1f0"/>
            <path id="Trazado_705166" data-name="Trazado 705166" d="M149.679,256.282a10.348,10.348,0,0,1-4.388-.688c-1.9,3.8-12.341,15.822-15.505,16.138-1.672-6.479-5.537-26.419-5.537-26.419s-1.2-1.01-2.855-2.255l7.6,34.157Z" transform="translate(-41.753 -83.738)" fill="#0098e8"/>
          </g>
        </g>
      </g>
    </g>
    <rect id="Rectángulo_345543" data-name="Rectángulo 345543" width="464" height="367" transform="translate(7064 -9706)" fill="none"/>
  </g>
</svg>
