<svg xmlns="http://www.w3.org/2000/svg" xmlns:xlink="http://www.w3.org/1999/xlink" width="289.597" height="319.965" viewBox="0 0 289.597 319.965">
  <defs>
    <filter id="Trazado_705340" x="0" y="225.868" width="53.093" height="57.87" filterUnits="userSpaceOnUse">
      <feOffset dy="3" input="SourceAlpha"/>
      <feGaussianBlur stdDeviation="3" result="blur"/>
      <feFlood flood-opacity="0.161"/>
      <feComposite operator="in" in2="blur"/>
      <feComposite in="SourceGraphic"/>
    </filter>
    <filter id="Rectángulo_345539" x="15.626" y="268.267" width="28.278" height="27.725" filterUnits="userSpaceOnUse">
      <feOffset dy="3" input="SourceAlpha"/>
      <feGaussianBlur stdDeviation="3" result="blur-2"/>
      <feFlood flood-opacity="0.161"/>
      <feComposite operator="in" in2="blur-2"/>
      <feComposite in="SourceGraphic"/>
    </filter>
    <filter id="Trazado_705341" x="154.264" y="0" width="43.535" height="46.842" filterUnits="userSpaceOnUse">
      <feOffset dy="3" input="SourceAlpha"/>
      <feGaussianBlur stdDeviation="3" result="blur-3"/>
      <feFlood flood-opacity="0.161"/>
      <feComposite operator="in" in2="blur-3"/>
      <feComposite in="SourceGraphic"/>
    </filter>
    <filter id="Rectángulo_345540" x="169.076" y="29.427" width="26.283" height="25.977" filterUnits="userSpaceOnUse">
      <feOffset dy="3" input="SourceAlpha"/>
      <feGaussianBlur stdDeviation="3" result="blur-4"/>
      <feFlood flood-opacity="0.161"/>
      <feComposite operator="in" in2="blur-4"/>
      <feComposite in="SourceGraphic"/>
    </filter>
    <filter id="Trazado_705339" x="228.915" y="190.231" width="51.345" height="55.97" filterUnits="userSpaceOnUse">
      <feOffset dy="3" input="SourceAlpha"/>
      <feGaussianBlur stdDeviation="3" result="blur-5"/>
      <feFlood flood-opacity="0.161"/>
      <feComposite operator="in" in2="blur-5"/>
      <feComposite in="SourceGraphic"/>
    </filter>
    <filter id="Rectángulo_345538" x="237.522" y="230.613" width="27.774" height="27.252" filterUnits="userSpaceOnUse">
      <feOffset dy="3" input="SourceAlpha"/>
      <feGaussianBlur stdDeviation="3" result="blur-6"/>
      <feFlood flood-opacity="0.161"/>
      <feComposite operator="in" in2="blur-6"/>
      <feComposite in="SourceGraphic"/>
    </filter>
    <filter id="Trazado_705342" x="245.575" y="150.946" width="44.022" height="47.39" filterUnits="userSpaceOnUse">
      <feOffset dy="3" input="SourceAlpha"/>
      <feGaussianBlur stdDeviation="3" result="blur-7"/>
      <feFlood flood-opacity="0.161"/>
      <feComposite operator="in" in2="blur-7"/>
      <feComposite in="SourceGraphic"/>
    </filter>
    <filter id="Rectángulo_345541" x="260.661" y="180.939" width="26.442" height="26.129" filterUnits="userSpaceOnUse">
      <feOffset dy="3" input="SourceAlpha"/>
      <feGaussianBlur stdDeviation="3" result="blur-8"/>
      <feFlood flood-opacity="0.161"/>
      <feComposite operator="in" in2="blur-8"/>
      <feComposite in="SourceGraphic"/>
    </filter>
  </defs>
  <g id="Grupo_1006162" data-name="Grupo 1006162" transform="translate(-2355.085 6039.965)">
    <g id="_7718866" data-name="7718866" transform="translate(2351.857 -6042.862)">
      <g id="Background_Complete" data-name="Background Complete" transform="translate(12.229 8.96)">
        <g id="Grupo_1000140" data-name="Grupo 1000140" transform="translate(0.119 190.081)">
          <path id="Trazado_705332" data-name="Trazado 705332" d="M19.66,282.365l4.261,2.02a4.01,4.01,0,0,1,5.444-1.879,3.817,3.817,0,0,1,2.3,3.786,4.224,4.224,0,0,1-1.942,3.3c-1.29.851-3.381,1.177-6.011-.688l-2.963,6.253,4.211,2,1.078-2.276a9.1,9.1,0,0,0,9.719-5.232c2.956-6.231-1.942-10.322-4.331-11.456-1.829-.865-8.266-3.381-11.754,4.168Z" transform="translate(-18.071 -277.094)" fill="#e0e0e0"/>
          <rect id="Rectángulo_345533" data-name="Rectángulo 345533" width="4.728" height="4.416" transform="matrix(0.903, 0.429, -0.429, 0.903, 1.893, 19.691)" fill="#e0e0e0"/>
        </g>
        <g id="Grupo_1000141" data-name="Grupo 1000141" transform="translate(43.066 257.538)">
          <path id="Trazado_705333" data-name="Trazado 705333" d="M78,379.169l4.813,1.361a4.25,4.25,0,0,1,5.359-2.928,4.058,4.058,0,0,1,3.07,3.552,4.474,4.474,0,0,1-1.446,3.8c-1.2,1.113-3.332,1.829-6.408.34l-2,7.061,4.757,1.347.723-2.566a9.649,9.649,0,0,0,9.237-7.188c1.992-7.032-3.856-10.456-6.557-11.215-2.063-.581-9.244-2.077-11.548,6.437Z" transform="translate(-78 -372.251)" fill="#e0e0e0"/>
          <rect id="Rectángulo_345534" data-name="Rectángulo 345534" width="5.019" height="4.686" transform="translate(2.865 21.943) rotate(15.79)" fill="#e0e0e0"/>
        </g>
        <g id="Grupo_1000144" data-name="Grupo 1000144" transform="translate(173.675 48.404)">
          <g id="Grupo_1000142" data-name="Grupo 1000142">
            <path id="Trazado_705334" data-name="Trazado 705334" d="M362.59,156.788l4.608.085a16.338,16.338,0,1,0-3.055-5h0Z" transform="translate(-362.59 -129.498)" fill="#fff"/>
            <path id="Trazado_705335" data-name="Trazado 705335" d="M362.59,156.724s.021-.1.085-.3q.1-.34.276-.936c.262-.858.631-2.1,1.12-3.708a.077.077,0,0,1,.1-.05c.014,0,.028.014.042.028h0l-.135.078a16.478,16.478,0,0,1,3.913-17.8,16.493,16.493,0,0,1,27.867,10.648,16.828,16.828,0,0,1-1.191,7.543,16.489,16.489,0,0,1-20.941,9.145,16.28,16.28,0,0,1-6.571-4.516l.057.028c-1.489-.05-2.644-.085-3.452-.106-.369-.014-.659-.028-.872-.035a1.325,1.325,0,0,1-.284-.021h1.205c.794,0,1.935.007,3.4.021a.064.064,0,0,1,.057.028,16.249,16.249,0,0,0,23.039,1.092,16.17,16.17,0,0,0,4.034-5.756,16.513,16.513,0,0,0,1.156-7.38,15.979,15.979,0,0,0-2.467-7.422,16.22,16.22,0,0,0-29.717,6.628,16.373,16.373,0,0,0,.922,7.862.073.073,0,0,1-.042.1.078.078,0,0,1-.092-.028h0l.142-.028q-.776,2.361-1.191,3.63c-.135.4-.241.716-.319.95-.071.213-.121.333-.121.333Z" transform="translate(-362.59 -129.433)" fill="#e0e0e0"/>
          </g>
          <g id="Grupo_1000143" data-name="Grupo 1000143" transform="translate(11.377 8.859)">
            <path id="Trazado_705336" data-name="Trazado 705336" d="M378.647,147.325h2.885a2.452,2.452,0,0,1,2.517-2.467,2.338,2.338,0,0,1,2.261,1.489,2.6,2.6,0,0,1-.206,2.339c-.489.808-1.567,1.538-3.509,1.2v4.239h2.857v-1.538a5.577,5.577,0,0,0,4.005-5.451c0-4.416-3.786-5.2-5.409-5.2-1.241,0-5.466.3-5.409,5.395Z" transform="translate(-378.639 -141.93)" fill="#e0e0e0"/>
            <rect id="Rectángulo_345535" data-name="Rectángulo 345535" width="2.899" height="2.708" transform="translate(3.956 13.299)" fill="#e0e0e0"/>
          </g>
        </g>
        <g id="Grupo_1000145" data-name="Grupo 1000145" transform="translate(64.978 10.714)">
          <path id="Trazado_705337" data-name="Trazado 705337" d="M108.91,30.641h11.606s0-9.747,10.13-9.917a9.4,9.4,0,0,1,9.1,5.992,10.39,10.39,0,0,1-.826,9.4c-1.969,3.245-6.283,6.2-14.1,4.819V57.968h11.479V51.776s16.1-4.162,16.1-21.9c0-16.972-15.222-20.916-21.736-20.916-4.983,0-21.955,1.2-21.736,21.681Z" transform="translate(-108.91 -8.96)" fill="#e0e0e0"/>
          <rect id="Rectángulo_345536" data-name="Rectángulo 345536" width="11.649" height="10.877" transform="translate(15.866 53.425)" fill="#e0e0e0"/>
        </g>
        <g id="Grupo_1000146" data-name="Grupo 1000146" transform="translate(12.06 13.646)">
          <path id="Trazado_705338" data-name="Trazado 705338" d="M75.143,98.13,64.5,95.287s-2.389,8.939-11.725,6.621a8.914,8.914,0,0,1-6.876-7.727,9.874,9.874,0,0,1,3.062-8.422c2.6-2.5,7.28-4.147,14.121-.964l4.175-15.631L56.719,66.35,55.2,72.028S39.414,71.9,35.069,88.177c-4.161,15.575,8.84,22.919,14.816,24.514,4.572,1.219,20.438,4.275,25.258-14.568Z" transform="translate(-34.262 -52.276)" fill="#ebebeb"/>
          <rect id="Rectángulo_345537" data-name="Rectángulo 345537" width="11.059" height="10.329" transform="translate(34.098 12.832) rotate(-165.05)" fill="#ebebeb"/>
        </g>
        <g id="Grupo_1000148" data-name="Grupo 1000148" transform="translate(0 225.805)">
          <g transform="matrix(1, 0, 0, 1, -9, -231.87)" filter="url(#Trazado_705340)">
            <path id="Trazado_705340-2" data-name="Trazado 705340" d="M17.434,346.821l9.3-1s-.844-7.812,7.259-8.826a7.565,7.565,0,0,1,7.805,4.02,8.387,8.387,0,0,1,.149,7.607c-1.3,2.772-4.5,5.508-10.889,5.083l1.475,13.653,9.2-.992L41.2,361.4s12.54-4.728,11.009-18.942c-1.467-13.6-14.008-15.447-19.225-14.887-3.991.432-17.5,2.864-15.546,19.254Z" transform="translate(-8.25 -95.62)" fill="#fff"/>
          </g>
          <g transform="matrix(1, 0, 0, 1, -9, -231.87)" filter="url(#Rectángulo_345539)">
            <rect id="Rectángulo_345539-2" data-name="Rectángulo 345539" width="9.393" height="8.769" transform="translate(24.63 275.27) rotate(-6.15)" fill="#fff"/>
          </g>
        </g>
        <g id="Grupo_1000149" data-name="Grupo 1000149" transform="translate(128.576 15.141)">
          <g transform="matrix(1, 0, 0, 1, -137.58, -21.2)" filter="url(#Trazado_705341)">
            <path id="Trazado_705341-2" data-name="Trazado 705341" d="M199.4,46.487l6.483-1.893s-1.59-5.444,4.039-7.2a5.46,5.46,0,0,1,6.056,1.865,6.05,6.05,0,0,1,1.073,5.387c-.573,2.135-2.5,4.489-7.1,4.994l2.775,9.516,6.41-1.871-1.011-3.46s8.314-4.949,5.421-14.859c-2.77-9.483-11.915-9.2-15.555-8.14-2.781.815-12.067,4.253-8.606,15.656Z" transform="translate(-35.36 -24.32)" fill="#f5f5f5"/>
          </g>
          <g transform="matrix(1, 0, 0, 1, -137.58, -21.2)" filter="url(#Rectángulo_345540)">
            <rect id="Rectángulo_345540-2" data-name="Rectángulo 345540" width="6.78" height="6.331" transform="translate(178.08 37.33) rotate(-16.27)" fill="#f5f5f5"/>
          </g>
        </g>
      </g>
      <g id="Floor" transform="translate(18.399 322.494)">
        <path id="Trazado_705343" data-name="Trazado 705343" d="M264.435,451.424c0,.1-59.2.184-132.211.184S0,451.524,0,451.424s59.189-.184,132.224-.184S264.435,451.325,264.435,451.424Z" transform="translate(0 -451.24)" fill="#263238"/>
      </g>
      <g id="Speech_Bubble" data-name="Speech Bubble" transform="translate(197.669 8.96)">
        <g id="Grupo_1000155" data-name="Grupo 1000155" transform="translate(0 0)">
          <g id="Grupo_1000153" data-name="Grupo 1000153">
            <g id="Grupo_1000151" data-name="Grupo 1000151">
              <circle id="Elipse_8300" data-name="Elipse 8300" cx="27.739" cy="27.739" r="27.739" transform="translate(0 54.796) rotate(-81)" fill="#fff"/>
              <path id="Trazado_705344" data-name="Trazado 705344" d="M358.053,75.447s-.021-.149-.043-.447-.05-.744-.085-1.319c-.014-.291-.035-.617-.057-.971s-.113-.737-.177-1.156-.135-.872-.213-1.347c-.057-.482-.241-.978-.362-1.51a26.523,26.523,0,0,0-3.07-7.358,27.528,27.528,0,0,0-7.025-7.833c-.39-.291-.794-.588-1.191-.886-.418-.276-.858-.525-1.3-.794s-.865-.56-1.347-.78-.95-.454-1.432-.688c-.241-.113-.482-.227-.73-.347l-.766-.276c-.51-.184-1.028-.376-1.552-.567s-1.078-.284-1.623-.432a13.017,13.017,0,0,0-1.673-.376,25.481,25.481,0,0,0-3.488-.4c-.6-.021-1.191-.078-1.8-.071-.6.028-1.212.064-1.822.092-.3.021-.617.021-.922.057l-.922.142c-.617.1-1.241.17-1.857.3a30.193,30.193,0,0,0-3.679,1.078,28.689,28.689,0,0,0-3.594,1.581c-.581.319-1.141.681-1.716,1.028-.284.177-.581.333-.851.539l-.808.61a31.486,31.486,0,0,0-3.126,2.658,30.945,30.945,0,0,0-2.7,3.2l-.631.851-.553.907-.553.914a6.348,6.348,0,0,0-.51.943c-.312.645-.624,1.29-.936,1.942L304.2,66.77a27.3,27.3,0,0,0-.007,17.389l.744,2.042c.312.652.624,1.3.936,1.942l.234.482.276.461.553.914.553.907.631.851a25.2,25.2,0,0,0,5.827,5.856l.808.61c.269.206.567.354.851.539.574.34,1.134.709,1.716,1.028a29.15,29.15,0,0,0,3.594,1.581,27.862,27.862,0,0,0,3.679,1.078c.617.128,1.241.2,1.857.3l.922.142c.3.043.617.035.922.057.61.028,1.219.064,1.822.092.6.007,1.205-.05,1.8-.071a24.418,24.418,0,0,0,3.488-.4,14.653,14.653,0,0,0,1.673-.376c.546-.149,1.1-.262,1.623-.432.525-.191,1.042-.376,1.552-.567l.766-.276c.241-.113.489-.234.73-.347.482-.234.957-.461,1.432-.688s.9-.525,1.347-.78.879-.517,1.3-.794c.4-.3.8-.6,1.191-.886a27.528,27.528,0,0,0,7.025-7.833,26.521,26.521,0,0,0,3.07-7.358,14.02,14.02,0,0,0,.362-1.51c.078-.482.149-.929.213-1.347s.142-.8.177-1.156.043-.681.057-.971q.053-.851.085-1.319c.021-.3.043-.447.043-.447v.447c-.014.312-.028.751-.05,1.319-.014.291-.028.617-.042.971s-.1.744-.156,1.163-.128.872-.2,1.361a14,14,0,0,1-.347,1.524,26.3,26.3,0,0,1-3.034,7.429,27.576,27.576,0,0,1-7.046,7.933c-.4.3-.794.6-1.205.9-.425.276-.865.539-1.3.808s-.872.567-1.354.794-.957.461-1.446.7c-.241.113-.489.234-.737.354-.255.092-.51.191-.773.284-.518.191-1.042.383-1.567.574s-1.092.291-1.645.447a14.941,14.941,0,0,1-1.687.39,26.142,26.142,0,0,1-3.523.418c-.6.021-1.205.085-1.822.071s-1.226-.064-1.843-.092c-.312-.021-.624-.021-.936-.057l-.929-.142c-.624-.1-1.255-.17-1.879-.3a29.628,29.628,0,0,1-3.722-1.085,28.4,28.4,0,0,1-3.644-1.6c-.588-.319-1.156-.688-1.737-1.035-.284-.184-.588-.34-.865-.546l-.822-.617a32.268,32.268,0,0,1-3.169-2.687,30.8,30.8,0,0,1-2.736-3.233l-.645-.858-.56-.922-.56-.922-.284-.461-.241-.489c-.312-.652-.631-1.311-.95-1.971-.255-.688-.5-1.375-.759-2.07a27.632,27.632,0,0,1,.007-17.623c.255-.695.51-1.382.759-2.07.319-.659.631-1.319.95-1.971a7.676,7.676,0,0,1,.517-.95l.56-.922.56-.922.645-.858a31.668,31.668,0,0,1,2.736-3.233,32.26,32.26,0,0,1,3.169-2.687l.822-.617c.269-.206.574-.362.865-.546.581-.347,1.148-.716,1.737-1.035a28.4,28.4,0,0,1,3.644-1.6,29.624,29.624,0,0,1,3.722-1.085c.624-.128,1.255-.2,1.879-.3l.929-.142c.312-.043.624-.035.936-.057.617-.028,1.233-.064,1.843-.092.61-.007,1.219.05,1.815.071a24.92,24.92,0,0,1,3.523.418,13.547,13.547,0,0,1,1.687.39c.553.149,1.106.269,1.645.447s1.049.383,1.567.574c.255.092.518.191.773.284.248.121.489.234.737.354q.734.351,1.446.7a15.053,15.053,0,0,1,1.354.794c.44.276.886.532,1.3.808.4.3.808.6,1.205.9a27.576,27.576,0,0,1,7.046,7.933,26.3,26.3,0,0,1,3.034,7.429,14,14,0,0,1,.347,1.524c.071.482.135.936.2,1.361s.128.808.156,1.163.028.681.042.971c.021.574.035,1.007.05,1.319s0,.447,0,.447Z" transform="translate(-298.566 -43.702)" fill="#263238"/>
            </g>
            <g id="Grupo_1000152" data-name="Grupo 1000152" transform="translate(21.88 17.148)">
              <path id="Trazado_705345" data-name="Trazado 705345" d="M327.86,76.147h5.267a4.477,4.477,0,0,1,4.6-4.5,4.267,4.267,0,0,1,4.133,2.722,4.739,4.739,0,0,1-.376,4.268c-.893,1.475-2.85,2.814-6.4,2.191V88.56h5.21V85.745A10.182,10.182,0,0,0,347.6,75.8c0-8.053-6.912-9.5-9.868-9.5-2.261,0-9.967.546-9.868,9.847Z" transform="translate(-327.86 -66.3)" fill="#ff725e"/>
              <rect id="Rectángulo_345542" data-name="Rectángulo 345542" width="5.288" height="4.941" transform="translate(7.202 24.259)" fill="#ff725e"/>
            </g>
          </g>
          <g id="Grupo_1000154" data-name="Grupo 1000154" transform="translate(14.153 59.926)">
            <circle id="Elipse_8301" data-name="Elipse 8301" cx="4.338" cy="4.338" r="4.338" transform="translate(0.191 0.153)" fill="#fff"/>
            <path id="Trazado_705346" data-name="Trazado 705346" d="M325.828,131.136c-.035,0-.028-.39-.206-1.042a4.32,4.32,0,0,0-1.588-2.3,4.212,4.212,0,0,0-3.97-.567,4.18,4.18,0,0,0,0,7.84,4.231,4.231,0,0,0,3.97-.567,4.32,4.32,0,0,0,1.588-2.3c.177-.652.163-1.042.206-1.042q.021,0,.021.276a3.6,3.6,0,0,1-.092.8,4.331,4.331,0,0,1-1.567,2.474,4.47,4.47,0,0,1-6.345-.886,4.473,4.473,0,0,1,0-5.345,4.47,4.47,0,0,1,6.345-.886,4.293,4.293,0,0,1,1.567,2.474,3.56,3.56,0,0,1,.092.8Q325.85,131.136,325.828,131.136Z" transform="translate(-316.96 -126.644)" fill="#263238"/>
          </g>
        </g>
      </g>
      <g id="Character" transform="translate(35.414 88.105)">
        <g id="Grupo_1000172" data-name="Grupo 1000172">
          <path id="Trazado_705347" data-name="Trazado 705347" d="M331.14,266.367a167.08,167.08,0,0,1,4.558,75.562c-.539,3.112.829,6.3,4.083,7.2,2.814.773,6.657-.957,7.2-4.083a180.524,180.524,0,0,0-4.558-81.786c-2.127-7.2-13.412-4.14-11.279,3.112Z" transform="translate(-131.73 -160.934)" fill="#263238"/>
          <path id="Trazado_705348" data-name="Trazado 705348" d="M308.448,196.277c-3.325-11.413-12.491-20.707-23.4-23.72,2.2-8.167-1.283-17.6-5.6-24.741a29.8,29.8,0,0,0-20.026-13.6c-8.223-1.361-13.327-.624-21.288,1.928-4.757-9.109-13.895-14.043-23.656-15.213s-20.275,4.324-24.23,13.852c-1.418-10.017-12.7-15.957-22.019-13.7s-16.4,10.527-20.757,19.537L272.648,275.277c11.094,4.424,24.783-.177,31.44-10.577s5.636-25.57-2.346-34.857a37.582,37.582,0,0,0,6.72-33.567Z" transform="translate(-78.342 -120.604)" fill="#ff725e"/>
          <rect id="Rectángulo_345543" data-name="Rectángulo 345543" width="9.166" height="64.227" transform="translate(117.313 169.524) rotate(6.15)" fill="#263238"/>
          <rect id="Rectángulo_345544" data-name="Rectángulo 345544" width="9.166" height="64.227" transform="translate(149.984 233.381) rotate(173.85)" fill="#263238"/>
          <path id="Trazado_705349" data-name="Trazado 705349" d="M75.516,162.032c3.736-10.449,10.57-18.375,21.026-22.7,10.541-4.36,22.437-4.424,33.666-2.439,4.6.815,9.336,2.049,12.881,5.09s5.544,8.351,3.495,12.555a32.435,32.435,0,0,1,48.376,27.7c10.144-.808,20.792,1.432,28.838,7.656s13.03,16.773,11.208,26.782c6.635-.581,12.994,3.693,16.525,9.336s4.686,12.448,5.154,19.091c.291,4.1.333,8.323-1.035,12.2a49.587,49.587,0,0,0-2.091,5.615c-.525,2.361-.2,4.821-.128,7.238A34.171,34.171,0,0,1,207.068,303.1c-11.619,11.995-32.439,13.49-45.653,3.275-8.6,2.885-17.7,4.962-26.69,3.807A32.24,32.24,0,0,1,121.68,305.6c-3.594-2.268-5.65-6.657-9.031-8.734-3.452-2.12-7.366-.255-11.257-.3a29.264,29.264,0,0,1-13.122-3.289,31.221,31.221,0,0,1-15.5-19.963c-.425-1.708-.737-3.516-1.815-4.906a12.769,12.769,0,0,0-3.864-2.836,34.433,34.433,0,0,1-8.883-52.041s-6.557-16.815-.39-31.879,17.687-19.622,17.687-19.622Z" transform="translate(-49.979 -124.981)" fill="#ff725e"/>
          <g id="Grupo_1000156" data-name="Grupo 1000156" transform="translate(0 104.737)" opacity="0.3">
            <path id="Trazado_705350" data-name="Trazado 705350" d="M275.617,295.721a27.058,27.058,0,0,1-24.011,12.207,34.028,34.028,0,0,1-44.625,21.352c-11.619,11.995-32.439,13.49-45.653,3.275-8.6,2.885-17.7,4.962-26.69,3.807a32.239,32.239,0,0,1-13.044-4.587c-3.594-2.268-5.65-6.657-9.031-8.734-3.452-2.12-7.366-.255-11.257-.3a29.264,29.264,0,0,1-13.122-3.289,31.221,31.221,0,0,1-15.5-19.963c-.425-1.708-.737-3.516-1.815-4.906a12.77,12.77,0,0,0-3.864-2.836A34.918,34.918,0,0,1,50.533,268.35a34.259,34.259,0,0,0-.113,11.874,34.936,34.936,0,0,0,16.588,23.947,12.537,12.537,0,0,1,3.864,2.836c1.078,1.39,1.389,3.2,1.815,4.906a31.279,31.279,0,0,0,15.5,19.963,29.172,29.172,0,0,0,13.122,3.289c3.9.05,7.805-1.815,11.257.3,3.381,2.077,5.444,6.465,9.031,8.734a32.239,32.239,0,0,0,13.044,4.587c8.989,1.155,18.1-.922,26.69-3.807,13.214,10.215,34.034,8.72,45.653-3.275a34.028,34.028,0,0,0,44.625-21.352,27.066,27.066,0,0,0,24.011-12.207,30.25,30.25,0,0,0,3.771-21.919,27.805,27.805,0,0,1-3.771,9.485Z" transform="translate(-49.956 -268.35)"/>
          </g>
          <path id="Trazado_705351" data-name="Trazado 705351" d="M138.758,272.86s-.106-.128-.276-.376-.4-.645-.759-1.106a24.355,24.355,0,0,0-3.247-3.693,25.143,25.143,0,0,0-5.962-4.147,23.549,23.549,0,0,0-17.326-1.616,25.212,25.212,0,0,0-10.492,6c-.432.39-.723.737-.95.95a2.033,2.033,0,0,1-.347.319,2.663,2.663,0,0,1,.291-.369c.206-.227.482-.6.9-1a22.467,22.467,0,0,1,3.828-3.14,24.755,24.755,0,0,1,6.671-3.084,24.188,24.188,0,0,1,23.557,5.9,22.786,22.786,0,0,1,3.183,3.8c.34.475.539.886.7,1.148a2.542,2.542,0,0,1,.22.418Z" transform="translate(-64.349 -161.359)" fill="#263238"/>
          <path id="Trazado_705352" data-name="Trazado 705352" d="M168.83,325.875v-.248c.014-.184.028-.425.05-.737.028-.333.057-.73.092-1.2.078-.475.163-1.014.262-1.616a28.851,28.851,0,0,1,1.177-4.338,30.167,30.167,0,0,1,13.668-15.993,26.484,26.484,0,0,1,8.663-2.914,30.048,30.048,0,0,1,9.811.135,29.378,29.378,0,0,1,16.425,8.968,25.039,25.039,0,0,1,6.494,13.859,20.376,20.376,0,0,1-1.446,10.258,14.335,14.335,0,0,1-1.886,3.325,2.477,2.477,0,0,1,.121-.22c.1-.156.22-.369.383-.631a20.049,20.049,0,0,0,2.566-12.7,24.922,24.922,0,0,0-6.486-13.661,29.18,29.18,0,0,0-16.234-8.833,29.519,29.519,0,0,0-9.691-.142,26.2,26.2,0,0,0-8.556,2.857A30.208,30.208,0,0,0,170.6,317.808a30.706,30.706,0,0,0-1.226,4.3c-.106.6-.206,1.134-.291,1.6q-.074.691-.128,1.191c-.035.3-.064.546-.085.73A1.191,1.191,0,0,1,168.83,325.875Z" transform="translate(-84.56 -172.387)" fill="#263238"/>
          <path id="Trazado_705353" data-name="Trazado 705353" d="M289.183,341.584a2.284,2.284,0,0,1-.3.17c-.213.092-.51.262-.922.411a14.721,14.721,0,0,1-3.6.907,16.27,16.27,0,0,1-5.5-.248,15.232,15.232,0,0,1-10.478-7.933,16.1,16.1,0,0,1-1.73-5.225,14.738,14.738,0,0,1-.106-3.708,8.671,8.671,0,0,1,.149-1,1.061,1.061,0,0,1,.085-.34,20.12,20.12,0,0,0,.135,5,16.682,16.682,0,0,0,1.772,5.111,15.208,15.208,0,0,0,10.258,7.763,16.372,16.372,0,0,0,5.395.319,19.667,19.667,0,0,0,4.856-1.233Z" transform="translate(-112.982 -179.992)" fill="#263238"/>
          <path id="Trazado_705354" data-name="Trazado 705354" d="M146.64,147.077a9.167,9.167,0,0,1,.106-.914,21.853,21.853,0,0,1,.539-2.446,30.129,30.129,0,0,1,1.2-3.523,33.161,33.161,0,0,1,2.049-4.069,33.532,33.532,0,0,1,2.637-3.722,29.781,29.781,0,0,1,2.545-2.715,22.026,22.026,0,0,1,1.907-1.623,5.327,5.327,0,0,1,.759-.525c.043.057-.992.851-2.481,2.332a33.084,33.084,0,0,0-5.047,6.43,37.9,37.9,0,0,0-2.056,4.012,33.567,33.567,0,0,0-1.262,3.459c-.61,2.013-.829,3.3-.893,3.289Z" transform="translate(-78.1 -122.623)" fill="#263238"/>
          <path id="Trazado_705355" data-name="Trazado 705355" d="M98.653,170.023c-.021.071-1.276-.291-3.353-.51a23.966,23.966,0,0,0-3.665-.1,24.456,24.456,0,0,0-8.691,2.049,24.338,24.338,0,0,0-3.233,1.73c-1.765,1.127-2.722,2.013-2.772,1.957a4.174,4.174,0,0,1,.652-.645,8.515,8.515,0,0,1,.822-.688c.333-.255.7-.56,1.148-.844a22.472,22.472,0,0,1,3.24-1.822,23.28,23.28,0,0,1,8.812-2.084,22.813,22.813,0,0,1,3.708.177c.525.05.992.163,1.4.241a8.927,8.927,0,0,1,1.049.248,5.046,5.046,0,0,1,.872.284Z" transform="translate(-57.811 -134.709)" fill="#263238"/>
          <path id="Trazado_705356" data-name="Trazado 705356" d="M94.464,250.762a2.357,2.357,0,0,1-.276.255c-.191.149-.468.4-.851.666a19.549,19.549,0,0,1-3.452,1.985,21.182,21.182,0,0,1-24.223-4.821,19.271,19.271,0,0,1-2.424-3.155c-.255-.39-.411-.723-.532-.943a1.3,1.3,0,0,1-.156-.34c.028-.014.291.432.815,1.205a22.64,22.64,0,0,0,2.5,3.055,22.108,22.108,0,0,0,4.58,3.6A20.765,20.765,0,0,0,84.185,255a22.348,22.348,0,0,0,9.081-3.438c.78-.518,1.191-.829,1.212-.8Z" transform="translate(-53.621 -156.644)" fill="#263238"/>
          <path id="Trazado_705357" data-name="Trazado 705357" d="M82.02,300.22c.064.028-.489,1.262-1.07,3.353a30.184,30.184,0,0,0-.773,3.729,31.927,31.927,0,0,0-.269,4.643,31.512,31.512,0,0,0,.475,4.629,28.6,28.6,0,0,0,.936,3.686c.673,2.063,1.283,3.268,1.219,3.3a4.7,4.7,0,0,1-.461-.829,11.086,11.086,0,0,1-.468-1.014c-.163-.4-.369-.851-.539-1.375a26.483,26.483,0,0,1-1.021-3.708,29.353,29.353,0,0,1-.51-4.686,29.7,29.7,0,0,1,.3-4.7,25.794,25.794,0,0,1,.858-3.75c.142-.532.333-.985.475-1.4s.291-.751.418-1.035a4.591,4.591,0,0,1,.425-.851Z" transform="translate(-58.566 -172.89)" fill="#263238"/>
          <path id="Trazado_705358" data-name="Trazado 705358" d="M144.6,354.237s-.113-.121-.3-.369-.468-.617-.808-1.113a45.763,45.763,0,0,1-2.651-4.3,37.326,37.326,0,0,1-2.914-6.912,34.968,34.968,0,0,1-.985-4.331,31.451,31.451,0,0,1-.333-4.757,38.51,38.51,0,0,1,3.708-16.17,36.5,36.5,0,0,1,2.474-4.409c.319-.5.61-.872.787-1.127a2.421,2.421,0,0,1,.3-.376,2.622,2.622,0,0,1-.241.418c-.163.269-.425.645-.73,1.163a41.763,41.763,0,0,0-2.361,4.438,39.508,39.508,0,0,0-3.58,16.064,32.686,32.686,0,0,0,.326,4.7,35.634,35.634,0,0,0,.95,4.289,38.367,38.367,0,0,0,2.821,6.891c.985,1.879,1.893,3.346,2.538,4.346q.457.713.744,1.148a1.923,1.923,0,0,1,.241.411Z" transform="translate(-75.177 -175.844)" fill="#263238"/>
          <path id="Trazado_705359" data-name="Trazado 705359" d="M131.615,324.814a2.549,2.549,0,0,1-.794.291,5.442,5.442,0,0,1-2.3-.057,12.406,12.406,0,0,1-3.176-1.255,17.645,17.645,0,0,1-3.417-2.4,18.1,18.1,0,0,1-4.466-6.082,15.968,15.968,0,0,1-.78-2.162,3.79,3.79,0,0,1-.17-.822c.071-.021.354,1.148,1.184,2.871a19.366,19.366,0,0,0,4.48,5.912,18.268,18.268,0,0,0,3.339,2.375,13.08,13.08,0,0,0,3.077,1.3,5.951,5.951,0,0,0,3.041.014Z" transform="translate(-69.328 -176.415)" fill="#263238"/>
          <path id="Trazado_705360" data-name="Trazado 705360" d="M205.513,372.339a6.46,6.46,0,0,1-.652-.333c-.411-.234-.978-.6-1.666-1.092a25.421,25.421,0,0,1-4.778-4.509,25.824,25.824,0,0,1-3.452-5.593c-.34-.766-.588-1.4-.737-1.85a3.1,3.1,0,0,1-.2-.7c.057-.021.425.95,1.17,2.446a29.553,29.553,0,0,0,3.5,5.466,29.211,29.211,0,0,0,4.65,4.53c1.311,1.028,2.19,1.581,2.155,1.638Z" transform="translate(-91.894 -189.785)" fill="#263238"/>
          <path id="Trazado_705361" data-name="Trazado 705361" d="M275.336,346.95a6.077,6.077,0,0,1,.071.751c.021.482.043,1.184.035,2.049a30.958,30.958,0,0,1-.688,6.735,20.319,20.319,0,0,1-2.6,6.253,17.947,17.947,0,0,1-1.191,1.673c-.3.376-.482.581-.5.56-.057-.042.6-.893,1.467-2.368a22.39,22.39,0,0,0,2.46-6.2,37.581,37.581,0,0,0,.787-6.657,26.512,26.512,0,0,1,.149-2.793Z" transform="translate(-114.142 -186.493)" fill="#263238"/>
          <path id="Trazado_705362" data-name="Trazado 705362" d="M319.67,295.25a2.729,2.729,0,0,1,.333.156c.213.121.532.284.914.525a16.818,16.818,0,0,1,3.013,2.46,19.177,19.177,0,0,1,3.318,4.721,26.175,26.175,0,0,1,1.312,3.155,34.855,34.855,0,0,1,.95,3.537,54.3,54.3,0,0,1,.865,12.767c-.057,1.638-.135,2.956-.2,3.871-.028.418-.057.766-.078,1.049a1.937,1.937,0,0,1-.05.369,1.246,1.246,0,0,1-.021-.369c0-.284,0-.631.007-1.056.021-.971.05-2.276.078-3.871a58.94,58.94,0,0,0-.971-12.682,35.9,35.9,0,0,0-.936-3.495,28.607,28.607,0,0,0-1.269-3.119,19.624,19.624,0,0,0-3.2-4.693,18.854,18.854,0,0,0-2.9-2.517,11.564,11.564,0,0,1-1.17-.8Z" transform="translate(-128.469 -171.443)" fill="#263238"/>
          <path id="Trazado_705363" data-name="Trazado 705363" d="M307.98,298.616s.248-.241.73-.624,1.17-.943,2.006-1.659a45.936,45.936,0,0,0,10.619-13.327c.518-.971.915-1.765,1.17-2.325a5.1,5.1,0,0,1,.447-.851,5.425,5.425,0,0,1-.312.907c-.22.574-.581,1.4-1.07,2.382a40.814,40.814,0,0,1-10.683,13.412c-.858.695-1.574,1.233-2.084,1.574a4.842,4.842,0,0,1-.815.51Z" transform="translate(-125.066 -166.954)" fill="#263238"/>
          <path id="Trazado_705364" data-name="Trazado 705364" d="M299.066,169.76a1.941,1.941,0,0,1,.156.269c.085.184.227.447.369.8a19.4,19.4,0,0,1,1.014,3.091,21.778,21.778,0,0,1-5.2,20.027,19.248,19.248,0,0,1-2.4,2.2c-.3.241-.553.4-.716.517s-.255.17-.269.156a8.646,8.646,0,0,1,.893-.787,23.783,23.783,0,0,0,2.29-2.268,22.322,22.322,0,0,0,5.14-19.793,24.022,24.022,0,0,0-.893-3.1c-.262-.716-.418-1.113-.4-1.12Z" transform="translate(-120.419 -134.913)" fill="#263238"/>
          <path id="Trazado_705365" data-name="Trazado 705365" d="M315.276,179.583c0,.064-.709.05-1.815.213a13.4,13.4,0,0,0-7.649,3.927c-.78.808-1.177,1.389-1.233,1.354a5.376,5.376,0,0,1,1.042-1.531,11.942,11.942,0,0,1,7.805-4.012,5.611,5.611,0,0,1,1.85.043Z" transform="translate(-124.075 -137.746)" fill="#263238"/>
          <path id="Trazado_705366" data-name="Trazado 705366" d="M343.932,271.533s.035-.177.135-.5.276-.794.44-1.418a32.6,32.6,0,0,0,1.078-5.338,33.233,33.233,0,0,0-.014-8.06,31.023,31.023,0,0,0-5.175-13.923,34.865,34.865,0,0,0-2.984-3.715,31.417,31.417,0,0,0-6.231-5.1,29.665,29.665,0,0,0-4.87-2.432c-.6-.255-1.077-.383-1.4-.51a3.152,3.152,0,0,1-.482-.191,2.456,2.456,0,0,1,.5.121c.326.106.815.213,1.425.447a26.921,26.921,0,0,1,4.955,2.339,30.493,30.493,0,0,1,6.345,5.09,33.331,33.331,0,0,1,3.034,3.743,30.918,30.918,0,0,1,5.218,14.086,32.412,32.412,0,0,1-.064,8.131,30.58,30.58,0,0,1-1.2,5.352c-.184.624-.39,1.085-.5,1.4a2.123,2.123,0,0,1-.206.475Z" transform="translate(-129.854 -152.547)" fill="#263238"/>
          <path id="Trazado_705367" data-name="Trazado 705367" d="M348.98,224.44a5.866,5.866,0,0,1-.432,1.758,15.623,15.623,0,0,1-2.035,3.878,14.926,14.926,0,0,1-3.048,3.148,6.042,6.042,0,0,1-1.545.95,23.239,23.239,0,0,0,4.3-4.3,25.649,25.649,0,0,0,2.765-5.423Z" transform="translate(-134.945 -150.83)" fill="#263238"/>
          <path id="Trazado_705368" data-name="Trazado 705368" d="M245.442,142.507a5.832,5.832,0,0,1,.284.737,7.514,7.514,0,0,1,.255.893c.085.354.2.751.262,1.2a18.968,18.968,0,0,1,.319,3.183,20.509,20.509,0,0,1-1.333,7.685,19.85,19.85,0,0,1-1.375,2.892c-.213.4-.454.737-.652,1.042a7.229,7.229,0,0,1-.546.751,3.2,3.2,0,0,1-.518.6c-.057-.043.631-.929,1.482-2.517a21.666,21.666,0,0,0,1.283-2.878,23.537,23.537,0,0,0,.992-3.729,24.223,24.223,0,0,0,.326-3.842,23.346,23.346,0,0,0-.234-3.148c-.269-1.779-.617-2.85-.553-2.871Z" transform="translate(-105.899 -126.978)" fill="#263238"/>
          <g id="Grupo_1000157" data-name="Grupo 1000157" transform="translate(40.542 113.626)" opacity="0.3">
            <path id="Trazado_705369" data-name="Trazado 705369" d="M207.062,309.281c.631-1.581.829-3.864-.737-4.544-1.07-.468-2.268.184-3.24.829-3.077,2.035-3.984,3.382-7.025,5.359-2.169,1.411-5.381,2.942-7.734,1.864-2.609-1.191-2.651-4.863-4.175-7.295a2.528,2.528,0,0,0-2.12-1.389,2.642,2.642,0,0,0-2.276,1.857,16.05,16.05,0,0,0,.156,3.077,39.893,39.893,0,0,1-.142,6.834,15.929,15.929,0,0,0-.269,1.864c-2.538-.177-5.132-.206-7.415-.347a1.866,1.866,0,0,0-1.609.432,2.518,2.518,0,0,0-.454,1.326c-.113.822-.191,1.652-.241,2.481-11.824.064-22.99-.61-33.446-6.352-11.25-6.182-16.638-16.17-16.638-30.121,0,0,.057-4.183-5.934-4.268-6.614-.092-6.515,7.259-6.515,7.259-1.226,15.107,8.762,29.526,21.863,37.154,12.789,7.443,28.023,9.421,42.839,9.478a3.636,3.636,0,0,0,1.106.95,5.223,5.223,0,0,0,3,.369,26.025,26.025,0,0,0,7.869-2.056,6.565,6.565,0,0,0,3.36,1.46,27.128,27.128,0,0,0,9.138.333c2.056-.3,5.324-1.531,5.934-3.516a10.15,10.15,0,0,1,.489-1.864c.007-.014.021-.021.028-.035.234-.255.461-.51.673-.78.135-.12.269-.241.4-.369,1.411-1.375,1.751-5.707.248-7.011.22-.3.432-.6.624-.914l-.468.489c1.68-2.531,1.418-4.735-.829-6.947.028-.043.064-.085.092-.135l-.106.113h0c1.744-2.488,2.481-2.871,3.559-5.558Z" transform="translate(-107.146 -280.889)"/>
          </g>
          <g id="Grupo_1000160" data-name="Grupo 1000160" transform="translate(40.557 110.167)">
            <path id="Trazado_705370" data-name="Trazado 705370" d="M119.709,280.277c0,13.951,5.388,23.94,16.638,30.121s23.33,6.486,36.168,6.323q.266,6.593.539,13.178c-15.156.043-30.823-1.85-43.924-9.478s-23.089-22.04-21.863-37.154c0,0-.1-7.351,6.515-7.259,5.99.085,5.934,4.268,5.934,4.268Z" transform="translate(-107.166 -276.009)" fill="#263238"/>
            <g id="Grupo_1000159" data-name="Grupo 1000159" transform="translate(62.555 23.22)">
              <g id="Grupo_1000158" data-name="Grupo 1000158">
                <path id="Trazado_705371" data-name="Trazado 705371" d="M236.026,309.4c-1.07-.468-2.268.184-3.24.829-3.077,2.035-3.984,3.382-7.025,5.359-2.169,1.411-5.381,2.942-7.734,1.864-2.609-1.191-2.651-4.863-4.175-7.295a2.528,2.528,0,0,0-2.12-1.389,2.642,2.642,0,0,0-2.276,1.857,16.055,16.055,0,0,0,.156,3.077,39.89,39.89,0,0,1-.142,6.834c-.262,2.311-.759,6.579.546,8.507a32.505,32.505,0,0,0,2.85,8.209c.369.78-.794.177-.1.695a7.177,7.177,0,0,0,4.225,2.219,27.123,27.123,0,0,0,9.138.333c2.056-.3,5.324-1.531,5.934-3.516a10.148,10.148,0,0,1,.489-1.864,5.417,5.417,0,0,1,1.092-1.191c1.439-1.4,1.772-5.877.163-7.089,1.957-2.687,1.765-5-.61-7.323,1.744-2.488,2.481-2.871,3.559-5.558.631-1.581.829-3.863-.737-4.544Z" transform="translate(-199.41 -308.764)" fill="#fff"/>
                <path id="Trazado_705372" data-name="Trazado 705372" d="M211.714,329.828c-.51.44-.865-1.212-1.489-1.354-3.842-.836-8.585-.766-12.434-1a1.866,1.866,0,0,0-1.609.432,2.518,2.518,0,0,0-.454,1.326,35.661,35.661,0,0,0,.354,11.676c.39,1.95,1.092,4.055,2.68,4.906a5.223,5.223,0,0,0,3,.369,27.336,27.336,0,0,0,15.61-7.061l-5.65-9.308Z" transform="translate(-195.408 -314.207)" fill="#fff"/>
              </g>
              <path id="Trazado_705373" data-name="Trazado 705373" d="M212.7,343.094a6.716,6.716,0,0,1-.454-.574,8.4,8.4,0,0,1-.454-.723,9.889,9.889,0,0,1-.525-1,24.889,24.889,0,0,1-1.942-6.245,26.8,26.8,0,0,1-.4-6.529c.028-.418.064-.794.12-1.127s.085-.617.142-.844a2.608,2.608,0,0,1,.2-.7c.064.014-.142,1.028-.2,2.68a30.72,30.72,0,0,0,.5,6.451,28.587,28.587,0,0,0,1.815,6.2c.652,1.524,1.248,2.375,1.191,2.41Z" transform="translate(-199.326 -313.592)" fill="#263238"/>
              <path id="Trazado_705374" data-name="Trazado 705374" d="M240.039,336.667c-.057-.092.858-.744,1.808-1.737s1.574-1.928,1.666-1.872a5,5,0,0,1-1.4,2.127,5.1,5.1,0,0,1-2.07,1.482Z" transform="translate(-208.399 -315.836)" fill="#263238"/>
              <path id="Trazado_705375" data-name="Trazado 705375" d="M239.259,346.887c-.057-.092.858-.744,1.808-1.737s1.574-1.928,1.666-1.871a5.005,5.005,0,0,1-1.4,2.127,5.1,5.1,0,0,1-2.07,1.482Z" transform="translate(-208.172 -318.811)" fill="#263238"/>
              <path id="Trazado_705376" data-name="Trazado 705376" d="M238.339,327.367c-.057-.092.858-.744,1.808-1.737s1.574-1.928,1.666-1.872a5.006,5.006,0,0,1-1.4,2.127,5.1,5.1,0,0,1-2.07,1.482Z" transform="translate(-207.904 -313.128)" fill="#263238"/>
            </g>
          </g>
          <g id="Grupo_1000161" data-name="Grupo 1000161" transform="translate(78.981 45.302)">
            <path id="Trazado_705377" data-name="Trazado 705377" d="M186.323,229.519c-.22,1.638-5.948,2.141-12.321,4.36-6.423,2.091-11.279,5.168-12.448,4-.532-.567.078-2.2,1.893-4.133a22.726,22.726,0,0,1,18.871-6.366C184.934,227.817,186.408,228.746,186.323,229.519Z" transform="translate(-161.369 -196.923)" fill="#263238"/>
            <path id="Trazado_705378" data-name="Trazado 705378" d="M273.381,190.684c-1.241,1.269-5.962-.177-11.669-.362-5.7-.347-10.563.652-11.647-.73-.475-.666.312-1.949,2.453-3.133a18.77,18.77,0,0,1,9.535-1.928,18.418,18.418,0,0,1,9.258,2.8c1.992,1.375,2.623,2.729,2.077,3.346Z" transform="translate(-187.149 -184.509)" fill="#263238"/>
          </g>
          <g id="Grupo_1000162" data-name="Grupo 1000162" transform="translate(141.348 73.95)">
            <path id="Trazado_705379" data-name="Trazado 705379" d="M274.543,227.545c9.3,3.637,13.724,14.568,9.882,24.415s-14.511,14.887-23.812,11.25-13.724-14.568-9.882-24.415S265.242,223.908,274.543,227.545Z" transform="translate(-249.346 -225.34)" fill="#fff"/>
            <path id="Trazado_705380" data-name="Trazado 705380" d="M275.547,226.274c9.3,3.637,14.157,13.469,10.839,21.962s-13.554,12.434-22.855,8.8-14.157-13.469-10.839-21.962S266.246,222.637,275.547,226.274Z" transform="translate(-250.016 -224.92)" fill="#263238"/>
          </g>
          <g id="Grupo_1000163" data-name="Grupo 1000163" transform="translate(79.346 83.369)">
            <path id="Trazado_705381" data-name="Trazado 705381" d="M192.931,244.086c7.564,6.522,8.1,18.3,1.2,26.314s-18.637,9.209-26.2,2.687-8.1-18.3-1.2-26.307,18.637-9.216,26.2-2.687Z" transform="translate(-161.884 -238.696)" fill="#fff"/>
            <path id="Trazado_705382" data-name="Trazado 705382" d="M194.944,242.9c7.564,6.522,8.868,17.411,2.914,24.315s-16.914,7.217-24.478.695-8.868-17.411-2.914-24.315S187.38,236.38,194.944,242.9Z" transform="translate(-163.295 -238.208)" fill="#263238"/>
          </g>
          <g id="Grupo_1000165" data-name="Grupo 1000165" transform="translate(127.408 114.957)">
            <g id="Grupo_1000164" data-name="Grupo 1000164" transform="translate(0.149 0.148)" opacity="0.3">
              <path id="Trazado_705383" data-name="Trazado 705383" d="M231.734,284.723c-2.035,1.418-1.857,3.4-1.822,5.877a4.754,4.754,0,0,0,1.056,2.97,3.657,3.657,0,0,0,2.992,1.531c1.949-.078,3.715-1.794,4.565-3.544a22.644,22.644,0,0,0,1.794-8.5c-2.467-.3-6.543.248-8.578,1.666Z" transform="translate(-229.893 -282.975)"/>
            </g>
            <path id="Trazado_705384" data-name="Trazado 705384" d="M238.457,291.5a1.365,1.365,0,0,1-.12.262,7.279,7.279,0,0,1-.454.688,10.77,10.77,0,0,1-2.183,2.113,4.414,4.414,0,0,1-2,.73,3.265,3.265,0,0,1-2.346-.695,4.259,4.259,0,0,1-1.446-2.283,9.632,9.632,0,0,1-.206-2.864,8.477,8.477,0,0,1,.517-2.836,5.149,5.149,0,0,1,1.666-2.12,8.69,8.69,0,0,1,4.2-1.588,19.5,19.5,0,0,1,3.02-.128,6.973,6.973,0,0,1,1.106.071,6.958,6.958,0,0,1-1.106.071,24.632,24.632,0,0,0-2.984.241,8.765,8.765,0,0,0-4.034,1.6,4.853,4.853,0,0,0-1.545,1.985,8.206,8.206,0,0,0-.489,2.715,9.537,9.537,0,0,0,.184,2.758,3.931,3.931,0,0,0,1.3,2.113,2.935,2.935,0,0,0,2.105.659,4.148,4.148,0,0,0,1.886-.645,11.988,11.988,0,0,0,2.212-1.978c.461-.539.659-.879.688-.858Z" transform="translate(-229.682 -282.767)" fill="#263238"/>
          </g>
          <path id="Trazado_705385" data-name="Trazado 705385" d="M184.789,435.868a45.785,45.785,0,0,0-18.212.262,23,23,0,0,0-8.684,3.58c-2.517,1.9-4.572,3.871-4.331,7.011l46.142.05C199.7,441.163,190.772,436.9,184.789,435.868Z" transform="translate(-80.11 -212.148)" fill="#263238"/>
          <path id="Trazado_705386" data-name="Trazado 705386" d="M263.375,435.578a45.788,45.788,0,0,1,18.212.262,23,23,0,0,1,8.684,3.58c2.517,1.9,4.4,4.069,4.154,7.217l-45.965-.156C248.46,440.873,257.392,436.613,263.375,435.578Z" transform="translate(-107.74 -212.064)" fill="#263238"/>
          <path id="Trazado_705387" data-name="Trazado 705387" d="M160.746,154.9s-.553-.227-1.538-.617a21.625,21.625,0,0,0-4.339-1.184,22.092,22.092,0,0,0-6.65-.092,20.6,20.6,0,0,0-13.774,7.94,22.039,22.039,0,0,0-3.254,5.8,21.679,21.679,0,0,0-1.156,4.346c-.163,1.056-.206,1.645-.241,1.645a1.674,1.674,0,0,1,0-.432,11.411,11.411,0,0,1,.1-1.233,19.749,19.749,0,0,1,1.056-4.416,21.793,21.793,0,0,1,3.225-5.912,20.576,20.576,0,0,1,13.994-8.067,21.742,21.742,0,0,1,6.735.17,19.68,19.68,0,0,1,4.353,1.3c.5.2.858.411,1.113.532a2.763,2.763,0,0,1,.376.213Z" transform="translate(-73.194 -129.887)" fill="#263238"/>
          <g id="Grupo_1000166" data-name="Grupo 1000166" transform="translate(112.598 13.452)" opacity="0.3">
            <path id="Trazado_705388" data-name="Trazado 705388" d="M227.626,173.458a16.76,16.76,0,0,0-18.8-18.921q-.011-7.475-.035-14.958s3.842.773,3.913,11.569a15.413,15.413,0,0,1,14.1,7.791c5.026,8.663.822,14.525.822,14.525Z" transform="translate(-208.79 -139.58)"/>
          </g>
          <path id="Trazado_705389" data-name="Trazado 705389" d="M200.916,207.809s0-.213.035-.61c.021-.206.043-.454.064-.737a6.184,6.184,0,0,0,.05-1,20.11,20.11,0,0,0-.851-6.309,18.179,18.179,0,0,0-.695-2c-.269-.688-.617-1.368-.964-2.077a23.617,23.617,0,0,0-1.276-2.091c-.241-.347-.475-.7-.737-1.049s-.553-.673-.836-1.014a21.2,21.2,0,0,0-4.147-3.708,18.365,18.365,0,0,0-11.3-3.261,21,21,0,0,0-5.487.922c-.425.142-.837.276-1.255.411s-.794.333-1.184.5a22.656,22.656,0,0,0-2.2,1.092c-.666.418-1.333.808-1.921,1.248-.574.461-1.17.844-1.652,1.319a20.363,20.363,0,0,0-4.083,4.877,5.922,5.922,0,0,0-.489.872c-.128.255-.241.468-.333.659a3.346,3.346,0,0,1-.3.532,4.436,4.436,0,0,1,.227-.567c.085-.191.191-.418.3-.673a6.15,6.15,0,0,1,.468-.9,20.677,20.677,0,0,1,5.693-6.359c.6-.447,1.262-.851,1.935-1.283a23.153,23.153,0,0,1,2.219-1.12c.4-.163.787-.347,1.2-.51.418-.142.844-.284,1.269-.425a21.023,21.023,0,0,1,5.572-.957,18.576,18.576,0,0,1,11.513,3.325,21.259,21.259,0,0,1,4.2,3.786c.284.347.567.695.844,1.035s.5.716.744,1.07a24.2,24.2,0,0,1,1.276,2.134c.34.723.688,1.418.957,2.12a20.642,20.642,0,0,1,.681,2.027,19.58,19.58,0,0,1,.744,6.387,6.763,6.763,0,0,1-.085,1.007c-.043.284-.071.525-.1.737a3.522,3.522,0,0,1-.106.6Z" transform="translate(-82.385 -138.935)" fill="#263238"/>
          <path id="Trazado_705390" data-name="Trazado 705390" d="M117.931,236.029a3.628,3.628,0,0,1-.383-.071,10.007,10.007,0,0,1-1.07-.291,16.549,16.549,0,0,1-3.708-1.7,18.363,18.363,0,0,1-4.58-3.97,17.236,17.236,0,0,1-3.849-13.951,18.252,18.252,0,0,1,1.893-5.749,16.737,16.737,0,0,1,2.311-3.367,9.5,9.5,0,0,1,.773-.794,1.751,1.751,0,0,1,.291-.255c.028.021-.347.4-.957,1.141a18.692,18.692,0,0,0-3.984,9.074,17.208,17.208,0,0,0,3.778,13.689,18.568,18.568,0,0,0,4.452,3.963,18.3,18.3,0,0,0,3.622,1.786c.9.319,1.418.461,1.4.489Z" transform="translate(-65.724 -145.428)" fill="#263238"/>
          <path id="Trazado_705391" data-name="Trazado 705391" d="M86.89,211.623a7.411,7.411,0,0,1,2.02.234,19.552,19.552,0,0,1,8.769,4.3,7.8,7.8,0,0,1,1.425,1.46,20.012,20.012,0,0,1-1.588-1.255,24.382,24.382,0,0,0-4.1-2.58,23.73,23.73,0,0,0-4.551-1.673c-1.205-.312-1.971-.432-1.964-.489Z" transform="translate(-60.707 -147.095)" fill="#263238"/>
          <path id="Trazado_705392" data-name="Trazado 705392" d="M227.221,196.163c-.021.064-.787-.184-2.049-.4a17.172,17.172,0,0,0-4.977-.135,16.355,16.355,0,0,0-4.785,1.368c-1.163.539-1.836.985-1.871.929-.014-.021.142-.149.432-.362a10.457,10.457,0,0,1,1.319-.8,14.494,14.494,0,0,1,4.856-1.5,15.16,15.16,0,0,1,5.076.248,12.592,12.592,0,0,1,1.482.425C227.044,196.057,227.229,196.135,227.221,196.163Z" transform="translate(-97.574 -142.304)" fill="#263238"/>
          <g id="Grupo_1000167" data-name="Grupo 1000167" transform="translate(79.769 41.341)" opacity="0.3">
            <path id="Trazado_705393" data-name="Trazado 705393" d="M206.73,187.718a12.128,12.128,0,0,0-7.982,1.347,20.971,20.971,0,0,0-19.913-10.031c-7.812.851-13.951,6.869-16.354,14.348,4-7.458,10.917-10.407,18.212-10.619s14.731,3.807,17.964,10.35a18.574,18.574,0,0,1,15.1-1.375,12.123,12.123,0,0,0-7.025-4.019Z" transform="translate(-162.48 -178.921)"/>
          </g>
          <g id="Grupo_1000168" data-name="Grupo 1000168" transform="translate(26.296 58.843)" opacity="0.3">
            <path id="Trazado_705394" data-name="Trazado 705394" d="M106.765,203.61a13.486,13.486,0,0,0-10.492,6.338,13.329,13.329,0,0,0-9.223-.652,19.1,19.1,0,0,1,12.5,6.479A13.1,13.1,0,0,1,106.765,203.61Z" transform="translate(-87.05 -203.61)"/>
          </g>
          <g id="Grupo_1000169" data-name="Grupo 1000169" transform="translate(195.32 78.019)" opacity="0.3">
            <path id="Trazado_705395" data-name="Trazado 705395" d="M346.719,242.477c-4.1-6.912-13.016-12.087-21.04-11.8l-.2-.014c6.366,2.41,13.561,7.451,17.368,15.241a35.015,35.015,0,0,1,3.006,20.672C349.944,259.661,350.816,249.389,346.719,242.477Z" transform="translate(-325.48 -230.66)"/>
          </g>
          <g id="Grupo_1000171" data-name="Grupo 1000171" transform="translate(190.617 169.931)">
            <g id="Grupo_1000170" data-name="Grupo 1000170">
              <path id="Trazado_705396" data-name="Trazado 705396" d="M347.144,383.441a15.8,15.8,0,0,0,.156-1.737,17.814,17.814,0,0,0-.276-5.076,9.173,9.173,0,0,0-1.446-3.254,23.339,23.339,0,0,0,1.935-7.039,4.66,4.66,0,0,0-.3-2.694c-.744-1.432-2.63-2.091-4.374-2.467a31.905,31.905,0,0,0-10.478-.461,2.253,2.253,0,0,0-1.2.39,1.691,1.691,0,0,0-.411,1.439,61.889,61.889,0,0,1,.135,7.635,13.117,13.117,0,0,0-4.771,3.077l-.05.05a49.844,49.844,0,0,1-5.246,4.076,3.342,3.342,0,0,0-1.765,2.29,2.069,2.069,0,0,0,1,1.928c2.169,1.4,7.018-2.12,7.018-2.12a21.433,21.433,0,0,1-2.134,4.579c-2.176,3.261-.468.532-3.793,5.494-.34.51-1.411,1.829-.985,3.211.447,1.446,1.482,1.623,2.906,1.077,2.41-.929,5.558-4.275,7.656-5.969-.574.709-3.4,4.778-3.871,5.522-.659,1.042-1.319,1.9-1.014,2.772s1.56,1.17,2.481,1.106a3.474,3.474,0,0,0,1.935-1.078,64.017,64.017,0,0,0,5.026-5.607,56.74,56.74,0,0,0-2.573,5.834c-.156.567-.574,1.794-.312,2.318.44.893,1.723.95,2.644.581,1.2-.475,2.828-2.375,3.53-3.452a18.833,18.833,0,0,0,1.645-3.481,8.638,8.638,0,0,1-.411,1.375,10.532,10.532,0,0,0-.829,2.524c-.007.553-.631,2.616.248,3.183,1.184.759,2.183-.5,2.5-.879,2.056-2.581,3.24-6.1,4.069-8.535a33.784,33.784,0,0,0,1.34-6.614Z" transform="translate(-318.906 -360.362)" fill="#fff"/>
              <path id="Trazado_705397" data-name="Trazado 705397" d="M347.085,383.393s-.007.156-.042.468-.1.773-.177,1.368a26.447,26.447,0,0,1-1.177,5.168c-.369,1.092-.78,2.3-1.326,3.594a21.18,21.18,0,0,1-2.162,4.027,3.922,3.922,0,0,1-1.907,1.708,1.448,1.448,0,0,1-1.347-.354,1.96,1.96,0,0,1-.347-1.382,10.512,10.512,0,0,1,.177-1.411,1.912,1.912,0,0,0,.035-.34,1.664,1.664,0,0,1,.057-.383c.057-.241.128-.482.206-.716.156-.468.34-.936.539-1.4a6.837,6.837,0,0,0,.432-1.432l.255.078a16.031,16.031,0,0,1-2.134,4.19,14.557,14.557,0,0,1-1.673,1.843,6.621,6.621,0,0,1-1.021.787,2.954,2.954,0,0,1-1.269.418,2.388,2.388,0,0,1-1.354-.22,1.467,1.467,0,0,1-.539-.482,1.176,1.176,0,0,1-.191-.716,5.961,5.961,0,0,1,.248-1.347c.121-.425.241-.872.4-1.3.652-1.716,1.538-3.36,2.318-5.083l.276.17c-1.1,1.326-2.226,2.694-3.452,4.027a22.143,22.143,0,0,1-1.971,1.935,2.865,2.865,0,0,1-2.736.716,2.374,2.374,0,0,1-1.326-.709,1.588,1.588,0,0,1-.248-1.517,5.676,5.676,0,0,1,.688-1.319c.255-.411.532-.808.815-1.205q1.68-2.393,3.4-4.863l.255.255c-1.907,1.574-3.679,3.431-5.813,4.941a9.3,9.3,0,0,1-1.716.985,3.256,3.256,0,0,1-2.02.312,1.585,1.585,0,0,1-.893-.61,2.6,2.6,0,0,1-.432-.957,2.989,2.989,0,0,1,.3-2.042c2.276-3.885,5.473-7.061,6.643-11.208l.284.206a19.079,19.079,0,0,1-2.942,1.7,6.83,6.83,0,0,1-3.289.766,2.414,2.414,0,0,1-1.531-.808,2.188,2.188,0,0,1-.532-1.638,2.551,2.551,0,0,1,.759-1.517,7.425,7.425,0,0,1,1.269-1.021,45.9,45.9,0,0,0,4.906-3.793A13.415,13.415,0,0,1,330.8,370l-.106.142a45.8,45.8,0,0,0-.021-5.671c-.028-.461-.05-.922-.078-1.375a5.765,5.765,0,0,1,.014-1.4,1.32,1.32,0,0,1,.347-.666,1.544,1.544,0,0,1,.645-.362,8.3,8.3,0,0,1,1.333-.2,32,32,0,0,1,9.847.539,7.659,7.659,0,0,1,4.012,1.857,3.185,3.185,0,0,1,.837,1.928,9.231,9.231,0,0,1-.1,1.992,23.561,23.561,0,0,1-1.914,6.6l-.014-.092a8.153,8.153,0,0,1,1.106,2.148,10.92,10.92,0,0,1,.518,2.042,16.659,16.659,0,0,1,.106,3.275c-.021.879-.092,1.545-.142,1.992s-.085.673-.085.673,0-.227.035-.673.092-1.113.1-1.992a16.768,16.768,0,0,0-.149-3.247,10.551,10.551,0,0,0-.532-2.006,8.217,8.217,0,0,0-1.092-2.091.108.108,0,0,1-.014-.092,23.439,23.439,0,0,0,1.85-6.557,8.8,8.8,0,0,0,.092-1.935,2.908,2.908,0,0,0-.78-1.786,7.428,7.428,0,0,0-3.885-1.765,31.715,31.715,0,0,0-9.762-.5,9.05,9.05,0,0,0-1.276.191,1,1,0,0,0-.773.8,5.132,5.132,0,0,0,0,1.319c.028.454.057.914.078,1.375a46.445,46.445,0,0,1,.035,5.714.161.161,0,0,1-.106.142,13.216,13.216,0,0,0-4.891,3.218,46.827,46.827,0,0,1-4.941,3.842,7.065,7.065,0,0,0-1.212.971,2.163,2.163,0,0,0-.659,1.3,1.829,1.829,0,0,0,.454,1.368,2.046,2.046,0,0,0,1.3.681,6.509,6.509,0,0,0,3.1-.737,18.285,18.285,0,0,0,2.878-1.666h0a.176.176,0,0,1,.255.042.168.168,0,0,1,.021.163,23.777,23.777,0,0,1-1.226,3,21.007,21.007,0,0,1-1.716,2.8c-.3.461-.652.9-.964,1.333-.312.454-.624.9-.936,1.354l-.929,1.375a12.278,12.278,0,0,0-.879,1.39,2.629,2.629,0,0,0-.276,1.793,1.625,1.625,0,0,0,1.063,1.3,2.937,2.937,0,0,0,1.779-.291,9.142,9.142,0,0,0,1.652-.95c2.091-1.482,3.863-3.325,5.8-4.92a.187.187,0,0,1,.255.021.181.181,0,0,1,.007.22v.014q-1.723,2.446-3.4,4.828c-.284.39-.56.794-.808,1.205a5.67,5.67,0,0,0-.645,1.226,1.209,1.209,0,0,0,.177,1.184,2.008,2.008,0,0,0,1.127.6,3.037,3.037,0,0,0,1.312.014,3.215,3.215,0,0,0,1.134-.652,21.282,21.282,0,0,0,1.935-1.9c1.219-1.326,2.346-2.687,3.445-4.005a.167.167,0,0,1,.234-.021.176.176,0,0,1,.05.2c-.787,1.744-1.68,3.381-2.325,5.062a13.292,13.292,0,0,0-.4,1.276,5.477,5.477,0,0,0-.241,1.269.967.967,0,0,0,.567.922,2.077,2.077,0,0,0,1.177.191,3.7,3.7,0,0,0,2.127-1.12,14.571,14.571,0,0,0,1.645-1.8,15.823,15.823,0,0,0,2.112-4.112.128.128,0,0,1,.17-.078.135.135,0,0,1,.085.156,7.617,7.617,0,0,1-.454,1.482c-.2.454-.383.914-.539,1.375a6.257,6.257,0,0,0-.2.688,1.887,1.887,0,0,0-.05.333,2.108,2.108,0,0,1-.042.376,10.668,10.668,0,0,0-.177,1.382,1.764,1.764,0,0,0,.276,1.212,1.246,1.246,0,0,0,1.12.291,3.744,3.744,0,0,0,1.786-1.609,21.23,21.23,0,0,0,2.169-3.97c.553-1.283.978-2.488,1.354-3.573a27,27,0,0,0,1.241-5.132q.138-.883.213-1.361c.05-.3.085-.461.085-.461Z" transform="translate(-318.846 -360.313)" fill="#263238"/>
            </g>
            <path id="Trazado_705398" data-name="Trazado 705398" d="M350.4,377.059c-.042.05-.723-.553-1.928-1.361a14.593,14.593,0,0,0-5.175-2.155,16.729,16.729,0,0,0-5.622-.021c-1.432.227-2.311.468-2.325.4a2.455,2.455,0,0,1,.6-.234,15.941,15.941,0,0,1,1.687-.432,15.339,15.339,0,0,1,5.735-.085,13.721,13.721,0,0,1,6.6,3.41c.3.284.454.447.44.468Z" transform="translate(-323.651 -363.989)" fill="#263238"/>
          </g>
        </g>
      </g>
      <g id="Grupo_1000173" data-name="Grupo 1000173" transform="translate(241.143 199.128)">
        <g transform="matrix(1, 0, 0, 1, -237.91, -196.23)" filter="url(#Trazado_705339)">
          <path id="Trazado_705339-2" data-name="Trazado 705339" d="M381.52,273.759l8.854.957s.8-7.429,8.542-6.735a7.21,7.21,0,0,1,6.444,5.317,7.987,7.987,0,0,1-1.4,7.1c-1.765,2.311-5.3,4.211-11.151,2.517l-1.4,12.987,8.755.943.51-4.721s12.618-1.85,14.079-15.376c1.4-12.945-9.889-17.205-14.859-17.737-3.8-.411-16.844-.886-18.361,14.745Z" transform="translate(-143.61 -62.65)" fill="#ebebeb"/>
        </g>
        <g transform="matrix(1, 0, 0, 1, -237.91, -196.23)" filter="url(#Rectángulo_345538)">
          <rect id="Rectángulo_345538-2" data-name="Rectángulo 345538" width="8.932" height="8.344" transform="translate(247.42 236.61) rotate(6.15)" fill="#ebebeb"/>
        </g>
      </g>
      <g id="Grupo_1000174" data-name="Grupo 1000174" transform="translate(257.804 159.843)">
        <g transform="matrix(1, 0, 0, 1, -254.58, -156.95)" filter="url(#Trazado_705342)">
          <path id="Trazado_705342-2" data-name="Trazado 705342" d="M405.8,219.935l6.607-1.928s-1.616-5.551,4.119-7.33a5.567,5.567,0,0,1,6.175,1.9,6.166,6.166,0,0,1,1.092,5.487c-.581,2.176-2.545,4.572-7.231,5.09l2.828,9.7,6.536-1.907-1.028-3.523s8.471-5.047,5.522-15.142c-2.821-9.662-12.143-9.379-15.851-8.294-2.836.829-12.3,4.331-8.769,15.957Z" transform="translate(-150.45 -46.52)" fill="#f5f5f5"/>
        </g>
        <g transform="matrix(1, 0, 0, 1, -254.58, -156.95)" filter="url(#Rectángulo_345541)">
          <rect id="Rectángulo_345541-2" data-name="Rectángulo 345541" width="6.912" height="6.451" transform="translate(269.66 188.88) rotate(-16.27)" fill="#f5f5f5"/>
        </g>
      </g>
    </g>
    <path id="Trazado_741558" data-name="Trazado 741558" d="M15.407,0,0,16.226H9.395L5.82,48.733H25.258L21.684,16.226h9.132Z" transform="translate(2627.366 -5956.131) rotate(90)" fill="#221b6b"/>
    <path id="Trazado_741560" data-name="Trazado 741560" d="M15.407,48.733,0,32.507H9.395L5.821,0H25.258L21.684,32.507h9.132Z" transform="translate(2414.366 -5956.131) rotate(90)" fill="#221b6b"/>
    <path id="Trazado_741559" data-name="Trazado 741559" d="M15.407,0,0,16.226H9.395L5.82,48.733H25.258L21.684,16.226h9.132Z" transform="translate(2483 -6028)" fill="#221b6b"/>
  </g>
</svg>
