<svg xmlns="http://www.w3.org/2000/svg" xmlns:xlink="http://www.w3.org/1999/xlink" width="446" height="367" viewBox="0 0 446 367">
  <defs>
    <clipPath id="clip-path">
      <rect id="Rect치ngulo_345514" data-name="Rect치ngulo 345514" width="234.2" height="307.778" fill="none"/>
    </clipPath>
  </defs>
  <g id="Grupo_1000185" data-name="Grupo 1000185" transform="translate(-953.963 7648)">
    <rect id="Rect치ngulo_345532" data-name="Rect치ngulo 345532" width="446" height="367" transform="translate(953.963 -7648)" fill="none"/>
    <g id="Grupo_1000184" data-name="Grupo 1000184" transform="translate(1059.943 -7618)">
      <g id="Grupo_1000119" data-name="Grupo 1000119" clip-path="url(#clip-path)">
        <path id="Trazado_705185" data-name="Trazado 705185" d="M39.738,319.546S15.2,328.6,11.719,358.168L1.91,412.727,30.172,425.21s28.7-58.267,9.566-105.664" transform="translate(-1.097 -183.589)" fill="#f0953a"/>
        <path id="Trazado_705186" data-name="Trazado 705186" d="M288.459,319.546s21.742,7.827,25.22,37.4S325.7,472.058,325.7,472.058l-27.585,7.815s-28.791-112.931-9.659-160.327" transform="translate(-161.958 -183.589)" fill="#f0953a"/>
        <path id="Trazado_705187" data-name="Trazado 705187" d="M106.314,476.262c23.662,0,45.358-2.76,62.286-7.352q-7.007-82.577-18.26-164.712h0A92.069,92.069,0,0,0,68.9,301.422L62.753,304.2l-2.411,18.573c-8.152,46.536-14.381,97.86-18.662,145.482,17.246,4.985,39.863,8.009,64.634,8.009" transform="translate(-23.946 -168.484)" fill="#fcbe59"/>
        <path id="Trazado_705188" data-name="Trazado 705188" d="M91.935,380.28c2.367-3.609,2.082-7.922-.231-10.524,1.1-1.079,2.413-1.907,3.57-2.883,2-1.691,3.848-4.593,2.664-7.509a8.562,8.562,0,0,0-.564-1.036c-.027-.044-.056-.086-.083-.129l2.041-3.366.007,0,2.467-4.07c.5.109.99.2,1.483.277,3.922.588,7.333-1.1,10.138-3.736a64.315,64.315,0,0,0,6.291-7.111h0l0,0q.486-.615.968-1.231a3.6,3.6,0,0,0,.225.333l.011.014a3.393,3.393,0,0,0,2.016,1.3c2.614.552,4.595-2.151,5.663-4.138,1.24-2.306,2.222-5.613,1.161-8.166a5.872,5.872,0,0,0-2.114-2.442c.007-.015.011-.031.018-.047.046-.112.088-.225.126-.339.026-.074.049-.148.071-.222.01-.034.019-.068.028-.1q.072-.257.12-.516h0A7.7,7.7,0,0,0,126,318.262c-.121-.134-.249-.261-.377-.388.027-.042.047-.085.072-.127l0,0a4.533,4.533,0,0,0,.268-.522l.029-.068a4.363,4.363,0,0,0,.185-.536h0a6.2,6.2,0,0,0-2.193-6.019,19.792,19.792,0,0,0-8.21-3.831h0l0-.006q3.983-6.324,7.373-12.992a92.142,92.142,0,0,0-15.44-.333q-3.135,4.238-6.142,8.568c.327.066.657.124.986.186q-1.719,2.486-3.393,5L86.641,328.383a11.6,11.6,0,0,0-1.3,4.3l-7.72,13.41c-3.07-.392-6.253.531-7.851,3.168-1.019,1.682-1.219,3.712-1.948,5.55a7.9,7.9,0,0,1-1.313,2.112,11.6,11.6,0,0,0-5.176.856c-3.041,20.414-5.738,41.307-8.09,62.045a27.676,27.676,0,0,0,3.406-1c9.322-3.4,27.74-27.028,35.289-38.539" transform="translate(-30.587 -168.485)" fill="#f0953a"/>
        <path id="Trazado_705189" data-name="Trazado 705189" d="M185.656,290.562c0,5.078-11.459,9.2-25.594,9.2s-25.594-4.117-25.594-9.2,11.459-9.2,25.594-9.2,25.594,4.117,25.594,9.2" transform="translate(-77.256 -161.654)" fill="#ffca7b"/>
        <path id="Trazado_705190" data-name="Trazado 705190" d="M181.663,212.855q-11.874.646-24.118.519a187.732,187.732,0,0,1-4.518,34.534q-.2.832-.411,1.644a77.636,77.636,0,0,0,36.836.152c-2.189-9.867-4.264-21.885-6.2-36.785-.53-.018-1.061-.041-1.593-.064" transform="translate(-87.683 -122.292)" fill="#9e4c36"/>
        <path id="Trazado_705191" data-name="Trazado 705191" d="M179.558,266.387q4.114-7.089,7.532-14.552c1.313-2.88,3.573-6.536,3.093-9.842-.3-2.084-2.151-4.139-4.4-3.743a5.086,5.086,0,0,0-2.722,1.724c-1.28,1.359-2.437,2.853-3.625,4.291q-3.675,4.451-7.194,9.027-4.474,5.815-8.683,11.827a79.892,79.892,0,0,0,16,1.267" transform="translate(-93.97 -136.853)" fill="#7a2f28"/>
        <path id="Trazado_705192" data-name="Trazado 705192" d="M185.352,212.855q-11.874.646-24.118.519a221.988,221.988,0,0,1-2.2,22.58c9.368,1.051,19.369.027,27.624-3.64a23.116,23.116,0,0,0,2.886-1.533c-.887-5.421-1.759-11.351-2.6-17.862-.53-.018-1.061-.041-1.593-.064" transform="translate(-91.372 -122.292)" fill="#7a2f28"/>
        <path id="Trazado_705193" data-name="Trazado 705193" d="M99.926,163.121c-.086-.126-.174-.25-.255-.379-1.006-1.593-9.043-13.8-16.032-8.721-6.338,4.6-4.785,16.887,6.664,20.2a8.257,8.257,0,0,0,10.581-7.444,5.891,5.891,0,0,0-.957-3.653" transform="translate(-45.929 -87.785)" fill="#9e4c36"/>
        <path id="Trazado_705194" data-name="Trazado 705194" d="M100.966,184.237A2.975,2.975,0,0,0,103.757,180c-1.638-3.5-4.909-8.1-9.98-4.91-6.13,3.853,1.21,8.97,7.189,9.146" transform="translate(-52.55 -99.979)" fill="#7a2f28"/>
        <path id="Trazado_705195" data-name="Trazado 705195" d="M94,178.577l1.3-.5a6.662,6.662,0,0,1,9.039,5.442c.024.217.028.344.028.344a11.316,11.316,0,0,0-1.224-1.7c-2.307-1.557-5.6.574-5.6.574.513-2.2,1.691-2.807,2.62-2.923A11.489,11.489,0,0,0,94,178.577" transform="translate(-54.005 -102.046)" fill="#4e1c0f"/>
        <path id="Trazado_705196" data-name="Trazado 705196" d="M271.677,158.615c.081-.129.165-.256.242-.388.948-1.628,8.543-14.111,15.709-9.289,6.5,4.373,5.386,16.706-5.937,20.423a8.257,8.257,0,0,1-10.84-7.061,5.89,5.89,0,0,1,.826-3.685" transform="translate(-155.598 -84.937)" fill="#9e4c36"/>
        <path id="Trazado_705197" data-name="Trazado 705197" d="M282.384,179.675a2.974,2.974,0,0,1-2.94-4.133c1.511-3.554,4.615-8.268,9.8-5.264,6.264,3.631-.888,9.008-6.857,9.4" transform="translate(-160.41 -97.28)" fill="#7a2f28"/>
        <path id="Trazado_705198" data-name="Trazado 705198" d="M292.08,173.676l-1.318-.458a6.662,6.662,0,0,0-8.838,5.762c-.017.219-.015.345-.015.345a11.338,11.338,0,0,1,1.162-1.74c2.249-1.638,5.614.373,5.614.373-.592-2.175-1.791-2.744-2.723-2.828a11.49,11.49,0,0,1,6.118-1.454" transform="translate(-161.965 -99.304)" fill="#4e1c0f"/>
        <path id="Trazado_705199" data-name="Trazado 705199" d="M185.775,93.364c.552,7.658,1.364,35.5-14.945,44.935-18.983,10.981-46.589,4.145-50.53-12.715-1.749-7.481-3.97-19.4-3.8-29.993,1.655-28.393,28.3-36.4,41.034-34.977,20.9,2.34,30.991,20.053,28.238,32.751" transform="translate(-66.93 -34.734)" fill="#9e4c36"/>
        <path id="Trazado_705200" data-name="Trazado 705200" d="M191.662,204.481a4.655,4.655,0,0,0-4.655,4.655v3.693a4.655,4.655,0,1,0,9.31,0v-3.693a4.655,4.655,0,0,0-4.655-4.655" transform="translate(-107.441 -117.481)" fill="#4e1c0f"/>
        <path id="Trazado_705201" data-name="Trazado 705201" d="M191.662,226.264a4.655,4.655,0,0,0,4.655-4.655v-.455a8.481,8.481,0,0,0-9.31,0v.455a4.655,4.655,0,0,0,4.655,4.655" transform="translate(-107.441 -126.26)" fill="#c16250"/>
        <path id="Trazado_705202" data-name="Trazado 705202" d="M130.139,81.044c-2.643-6.149-10.8-4.285-15.219-1.43a19.881,19.881,0,0,0-2.824,2.222c-.014,10.776-.714,21.608.891,32.2a11.332,11.332,0,0,1,.309,1.607.916.916,0,0,0,.388.662q.327,1.331.652,2.662a.9.9,0,0,0,1.729,0,58.894,58.894,0,0,0,2.423-12.408c.082-.991.042-2.012.169-2.994a3.789,3.789,0,0,1,1.984-3.3,25.9,25.9,0,0,0,3.8-2.907c3.962-3.771,8.109-10.7,5.7-16.315" transform="translate(-64.308 -44.211)" fill="#682619"/>
        <path id="Trazado_705203" data-name="Trazado 705203" d="M245.2,81.044c2.643-6.149,10.8-4.285,15.219-1.43a19.854,19.854,0,0,1,2.824,2.222c.014,10.776.715,21.608-.891,32.2a11.32,11.32,0,0,0-.308,1.607.916.916,0,0,1-.389.662q-.326,1.331-.651,2.662a.9.9,0,0,1-1.729,0,58.9,58.9,0,0,1-2.423-12.408c-.082-.991-.042-2.012-.169-2.994a3.79,3.79,0,0,0-1.984-3.3,25.826,25.826,0,0,1-3.8-2.907c-3.963-3.771-8.109-10.7-5.7-16.315" transform="translate(-140.465 -44.211)" fill="#682619"/>
        <path id="Trazado_705204" data-name="Trazado 705204" d="M248.292,200.779a16.424,16.424,0,0,0-18.23,20.706,37.934,37.934,0,0,0,5.662-2.669c6.629-3.834,10.43-10.711,12.568-18.037" transform="translate(-131.823 -115.251)" fill="#c16250"/>
        <path id="Trazado_705205" data-name="Trazado 705205" d="M124.3,207.764c-.05,0-.1.008-.148.011.186.851.369,1.664.548,2.429,1.772,7.58,8.328,13.132,16.732,15.951A16.416,16.416,0,0,0,124.3,207.764" transform="translate(-71.329 -119.355)" fill="#c16250"/>
        <path id="Trazado_705206" data-name="Trazado 705206" d="M196.349,166.084l-1.969-.063.355-11.2a1.352,1.352,0,0,0-2.7-.086l-.4,12.491a1.255,1.255,0,0,0,1.131,1.327,1.376,1.376,0,0,0,.568.135l2.926.093a1.352,1.352,0,0,0,.086-2.7" transform="translate(-110.101 -88.177)" fill="#4e1c0f"/>
        <path id="Trazado_705207" data-name="Trazado 705207" d="M399.287,194.032c0-24.237-25.06-43.885-55.972-43.885s-55.972,19.648-55.972,43.885,25.059,43.885,55.972,43.885a71.244,71.244,0,0,0,11.179-.876c-5.5,9.949-17.1,12.411-30.113,7.44-1.291-.494-.84,1.829.294,2.645,12.578,9.046,23.844,7.4,32.576,3.073,6.888-3.412,13.181-9.166,15.172-18.676,16.109-7.705,26.864-21.612,26.864-37.489" transform="translate(-165.087 -86.264)" fill="#12263f"/>
        <path id="Trazado_705208" data-name="Trazado 705208" d="M232.977,109.34c-4.026-3.037-10.546-4.981-14.389-.509-2.79,3.246-1.729,8.405,2.318,9.594,3.974,2.22,9.412,3.183,13.515,1.51a4.965,4.965,0,0,0,3.246-4.207c.088-2.674-2.781-4.949-4.69-6.388" transform="translate(-124.689 -61.014)" fill="#4e1c0f"/>
        <path id="Trazado_705209" data-name="Trazado 705209" d="M141.024,112.9a4.964,4.964,0,0,0,2.973,4.4c3.989,1.93,9.477,1.314,13.584-.65,4.113-.93,5.5-6.011,2.921-9.428-3.552-4.706-10.182-3.179-14.392-.4-2,1.316-5,3.4-5.085,6.078" transform="translate(-81.022 -59.869)" fill="#4e1c0f"/>
        <path id="Trazado_705210" data-name="Trazado 705210" d="M157.224,152.665a7.29,7.29,0,0,0-12.97.706c-.7,1.567,1.618,2.936,2.322,1.357,1.6-3.6,6.176-4.2,8.327-.705.9,1.471,3.231.122,2.321-1.357" transform="translate(-82.804 -85.627)" fill="#4e1c0f"/>
        <path id="Trazado_705211" data-name="Trazado 705211" d="M220.683,152.665a7.29,7.29,0,0,1,12.97.706c.7,1.567-1.618,2.936-2.322,1.357-1.6-3.6-6.176-4.2-8.327-.705-.905,1.471-3.232.122-2.322-1.357" transform="translate(-126.67 -85.627)" fill="#4e1c0f"/>
        <path id="Trazado_705212" data-name="Trazado 705212" d="M345.762,217.616a4.276,4.276,0,0,1-1.061,2.817,11.71,11.71,0,0,1-2.592,2.266,22.021,22.021,0,0,1-3.205,1.735q-1.675.735-2.9,1.225,0,.857-.041,1.755t-.123,1.8a25.338,25.338,0,0,1,2.94-1.225,9.4,9.4,0,0,1,3.1-.571,3.507,3.507,0,0,1,1.939.49,1.887,1.887,0,0,1,.755,1.715,3.5,3.5,0,0,1-.959,2.409,10.2,10.2,0,0,1-2.306,1.878,17.98,17.98,0,0,1-2.817,1.388q-1.47.572-2.49.9,0,1.347-.041,2.674t-.123,2.633q-.041.654-.143,1.633a8.92,8.92,0,0,1-.408,1.9,4.763,4.763,0,0,1-.878,1.592,1.842,1.842,0,0,1-1.47.674,1.786,1.786,0,0,1-1.47-.837,7.64,7.64,0,0,1-1.041-2.144,19.564,19.564,0,0,1-.694-2.919q-.266-1.613-.408-3.164t-.163-2.858q-.021-1.306-.02-2,0-.53.02-1.572t.041-2.306q.02-1.266.082-2.654t.143-2.633q.081-1.245.225-2.2A5.631,5.631,0,0,1,330,220.6a4.749,4.749,0,0,1,2.143-1.776,24.819,24.819,0,0,1,3.776-1.552q2.083-.674,4.062-1.1a15.542,15.542,0,0,1,3.042-.428,7.5,7.5,0,0,1,.959.061,2.755,2.755,0,0,1,.878.266,1.662,1.662,0,0,1,.653.571,1.74,1.74,0,0,1,.245.98" transform="translate(-189.104 -123.948)" fill="#fff"/>
        <path id="Trazado_705213" data-name="Trazado 705213" d="M388.117,242.373a16.22,16.22,0,0,1-.143,1.96,9.085,9.085,0,0,1-.551,2.184,5.218,5.218,0,0,1-1.1,1.755,2.449,2.449,0,0,1-1.837.714,2.563,2.563,0,0,1-2.266-1.1,7.284,7.284,0,0,1-1.082-2.634,18.249,18.249,0,0,1-.388-3.123q-.061-1.592-.1-2.531-2.939.489-5.8.857-.082.939-.347,2.327a12.971,12.971,0,0,1-.816,2.674,7.626,7.626,0,0,1-1.429,2.226,2.822,2.822,0,0,1-2.143.939,1.824,1.824,0,0,1-1.531-.715,5.041,5.041,0,0,1-.837-1.694,9.1,9.1,0,0,1-.347-2.021q-.061-1.041-.061-1.735a28.682,28.682,0,0,1,.367-4.593q.368-2.266.858-4.511.244-1.184.653-2.776t1-3.287a32.06,32.06,0,0,1,1.388-3.348,16.178,16.178,0,0,1,1.817-2.96,9.01,9.01,0,0,1,2.327-2.123,5.362,5.362,0,0,1,2.9-.817,5.1,5.1,0,0,1,2.695.694,7.123,7.123,0,0,1,2,1.837,11.077,11.077,0,0,1,1.429,2.592,25.763,25.763,0,0,1,.959,2.94q.388,1.491.653,2.919t.47,2.532q.53,2.654.9,5.369a40.6,40.6,0,0,1,.368,5.451m-7.88-9.921q0-.49-.061-1.613a18.033,18.033,0,0,0-.266-2.245,7.685,7.685,0,0,0-.633-2,1.3,1.3,0,0,0-1.164-.878,1,1,0,0,0-.776.551,6,6,0,0,0-.654,1.388,17.162,17.162,0,0,0-.51,1.858q-.225,1.02-.388,1.96t-.245,1.694q-.082.756-.122,1.082,2.449-.2,4.818-.612Z" transform="translate(-211.046 -125.271)" fill="#fff"/>
        <path id="Trazado_705214" data-name="Trazado 705214" d="M439.083,226.642a7.791,7.791,0,0,1-.184,1.633,5.754,5.754,0,0,1-.592,1.593,3.853,3.853,0,0,1-1.062,1.225,2.581,2.581,0,0,1-1.593.49,3.585,3.585,0,0,1-2.123-.51,2.745,2.745,0,0,1-.98-1.286,5.064,5.064,0,0,1-.306-1.653q-.021-.877-.061-1.654a3.718,3.718,0,0,0-.265-1.286.935.935,0,0,0-.959-.51,2,2,0,0,0-1.429.592,5.262,5.262,0,0,0-1.061,1.531,11.7,11.7,0,0,0-.756,2.123q-.306,1.185-.49,2.347t-.265,2.2q-.082,1.041-.082,1.694,0,.858.061,2.041a9.483,9.483,0,0,0,.388,2.266,4.944,4.944,0,0,0,.98,1.837,2.345,2.345,0,0,0,1.878.755,6.23,6.23,0,0,0,1.592-.2q.775-.2,1.552-.47t1.572-.469a6.466,6.466,0,0,1,1.613-.2,1.915,1.915,0,0,1,1.551.756,2.621,2.621,0,0,1,.612,1.694,4.048,4.048,0,0,1-.816,2.429,8.75,8.75,0,0,1-2.021,1.98,10.352,10.352,0,0,1-2.613,1.347,7.85,7.85,0,0,1-2.552.49,8.95,8.95,0,0,1-4.981-1.327,10.469,10.469,0,0,1-3.307-3.429,15.113,15.113,0,0,1-1.817-4.7,24.768,24.768,0,0,1-.551-5.165,23.857,23.857,0,0,1,.327-3.756,28.415,28.415,0,0,1,.98-4.1,24.747,24.747,0,0,1,1.654-3.981,15.759,15.759,0,0,1,2.347-3.389,11.274,11.274,0,0,1,3.042-2.368,7.855,7.855,0,0,1,3.736-.9,5.465,5.465,0,0,1,3.348,1,7.513,7.513,0,0,1,2.163,2.532,11.345,11.345,0,0,1,1.143,3.348,19.518,19.518,0,0,1,.327,3.45" transform="translate(-241.313 -124.278)" fill="#fff"/>
        <path id="Trazado_705215" data-name="Trazado 705215" d="M486.249,240.683a3.075,3.075,0,0,1-.408,1.51,5.846,5.846,0,0,1-1.919,1.633,29.474,29.474,0,0,1-3.348,1.776q-1.837.837-3.552,1.429a8.809,8.809,0,0,1-2.531.592,4.266,4.266,0,0,1-1.347-.265,10.925,10.925,0,0,1-1.551-.674,7.891,7.891,0,0,1-1.409-.939,4.053,4.053,0,0,1-.919-1.021,3.972,3.972,0,0,1-.306-1.143q-.143-.857-.245-2t-.184-2.429q-.082-1.286-.143-2.449t-.082-2.062q-.021-.9-.021-1.306,0-1.511.1-3.471t.388-3.94a25.612,25.612,0,0,1,.837-3.8,9.993,9.993,0,0,1,1.49-3.083,3.254,3.254,0,0,1,1.143-.776,15.822,15.822,0,0,1,2.021-.776q1.164-.368,2.511-.694t2.593-.551q1.245-.224,2.266-.368a12.2,12.2,0,0,1,1.551-.143,2.654,2.654,0,0,1,1.164.265,2.891,2.891,0,0,1,.939.714,3.616,3.616,0,0,1,.612,1,3.063,3.063,0,0,1,.225,1.164,2.486,2.486,0,0,1-.143.9,4.874,4.874,0,0,1-.428.817,5.965,5.965,0,0,1-1.715,1.265q-1.307.735-2.837,1.45t-2.94,1.286q-1.408.572-1.98.816-.163.94-.347,1.9a18.306,18.306,0,0,0-.265,1.939,23.736,23.736,0,0,1,2.858-1.225,8.953,8.953,0,0,1,3.021-.571q2.9,0,2.9,2.857a2.706,2.706,0,0,1-.265,1.225,3.371,3.371,0,0,1-.694.939,4.767,4.767,0,0,1-.98.715q-.552.306-1.082.592a20.525,20.525,0,0,1-2.736,1.2q-1.429.511-2.857,1-.082.327-.163.714a3.634,3.634,0,0,0-.082.755,7.994,7.994,0,0,0,.082,1.143q.081.572.163,1.143.489-.163,1.572-.531t2.266-.735q1.183-.367,2.286-.633a7.794,7.794,0,0,1,1.633-.265,2.523,2.523,0,0,1,1.143.265,2.841,2.841,0,0,1,.9.694,3.478,3.478,0,0,1,.592,1,3.117,3.117,0,0,1,.225,1.143" transform="translate(-269.044 -123.948)" fill="#fff"/>
        <path id="Trazado_705216" data-name="Trazado 705216" d="M170.734,30.41c5.022-3.865,4.307-10.924-1.746-13.741a7.881,7.881,0,0,0-3.206-9.79,8.8,8.8,0,0,0-9.3.457c-1.247-3.951-5.529-6.825-10.4-6.531-2.086.126-4.875.833-6.211,2.342a2.555,2.555,0,0,0-.255.347A15.228,15.228,0,0,0,128.4.076,14.209,14.209,0,0,0,117.789,6.4a13.049,13.049,0,0,0-9.546-3.171c-3.049.353-5.78,2.107-6.749,4.627a4.442,4.442,0,0,0-4.287,1.455,3.9,3.9,0,0,0-.463.664c-3.612-1.9-8.812-3.474-12-.157-2.883,3-.564,7.033,1.736,9.863-3.526.3-6.759,2.418-7.826,5.409-1.155,3.239.682,6.872,3.925,8.658a22.34,22.34,0,0,0,2.787.973c1.593.63,1.236,1.735,1.472,2.987a6.325,6.325,0,0,0,2.738,3.97,8,8,0,0,0,9.575-.746,7.89,7.89,0,0,0,7.738,2.461,7.1,7.1,0,0,0,2.258-.915c.394-.245.945-.861,1.371-.94a2.569,2.569,0,0,1,2.209.975,7.133,7.133,0,0,0,4.942,1.761,13.677,13.677,0,0,0,6.163-1.793c1.329-.686,2.767-1.911,4.37-1.219,1.113.481,1.993,1.31,3.124,1.8,2.652,1.137,6.745.713,7.575-1.881a10.978,10.978,0,0,0,6.36,2.418,5.619,5.619,0,0,0,4.513-2.073c1.41,1.216,3.155,2.349,5.226,2.1a3.812,3.812,0,0,0,3.1-2.015c1.526,1.01,3.374,1.861,5.261,1.191a2.932,2.932,0,0,0,2.169-2.657c2.773.251,5.626-.956,6.817-3.234a5.259,5.259,0,0,0-1.608-6.5" transform="translate(-44.987 0)" fill="#4e1c0f"/>
        <path id="Trazado_705217" data-name="Trazado 705217" d="M37.535,431.379a66.826,66.826,0,0,0,7.793,4.665c2.617,1.291,6.705,3.247,10.65,4.953,4.33,1.873,5.634,7.633,2.61,12.243C51.039,464.752,32.622,488.379,23.3,491.78,6.774,497.809-4.436,485.757,1.7,466.5c2.658-8.34,14.858-25.869,21.8-32.788,4.089-4.075,10.121-5.041,14.033-2.332" transform="translate(0 -246.963)" fill="#fcbe59"/>
        <path id="Trazado_705218" data-name="Trazado 705218" d="M99.658,429.369a12.22,12.22,0,0,0-1.264,2.6c-10.1.352-21.414-2.794-24.422-14.569a1.511,1.511,0,0,0-.1-.267c1.118-1.309,2.4-2.453,3.041-4.067.728-1.839.929-3.868,1.948-5.55,1.877-3.1,5.94-3.837,9.437-2.85l3.691,1.014a24.646,24.646,0,0,1,14.478,10.9,8.561,8.561,0,0,1,.564,1.036c1.184,2.916-.66,5.819-2.664,7.51-1.6,1.346-3.487,2.406-4.712,4.24" transform="translate(-42.443 -232.258)" fill="#ffca7b"/>
        <path id="Trazado_705219" data-name="Trazado 705219" d="M111.36,360.867,98.182,383.758s7.183,12.528,19.649,11.928l10.815-17.84Z" transform="translate(-56.409 -207.329)" fill="#9e4c36"/>
        <path id="Trazado_705220" data-name="Trazado 705220" d="M133.151,377.5l-.16.271a12.394,12.394,0,0,0-1.171,8.013,15.751,15.751,0,0,0,6.125,9.582,25.379,25.379,0,0,0,3.663,2.354l4.527-7.467Z" transform="translate(-75.616 -216.885)" fill="#7a2f28"/>
        <path id="Trazado_705221" data-name="Trazado 705221" d="M176.375,263.714a168,168,0,0,0,8.716-16.561c1.313-2.88,3.573-6.536,3.093-9.842-.3-2.084-2.151-4.139-4.4-3.743a5.085,5.085,0,0,0-2.722,1.724c-1.28,1.358-2.436,2.852-3.624,4.291q-3.675,4.451-7.194,9.028-5.117,6.652-9.9,13.555a79.54,79.54,0,0,0,16.028,1.549" transform="translate(-92.124 -134.163)" fill="#7a2f28"/>
        <path id="Trazado_705222" data-name="Trazado 705222" d="M166.526,290.719a5.872,5.872,0,0,0-2.113-2.442,7.33,7.33,0,0,0-1.654-7.6c-.121-.135-.249-.262-.377-.388,1.548-2.4.428-5.47-1.636-7.276a19.8,19.8,0,0,0-8.21-3.831A159.872,159.872,0,0,0,162.754,250.3c1.238-2.716,3.369-6.164,2.916-9.281-.285-1.966-2.028-3.9-4.15-3.53a4.8,4.8,0,0,0-2.567,1.626c-1.207,1.281-2.3,2.69-3.418,4.047q-3.465,4.2-6.784,8.513-6.723,8.74-12.827,17.931L123.4,290.8a12.394,12.394,0,0,0-1.171,8.013,15.75,15.75,0,0,0,6.125,9.582,26.064,26.064,0,0,0,11.693,5.066c3.922.588,7.334-1.1,10.138-3.736a72.952,72.952,0,0,0,7.261-8.344,3.437,3.437,0,0,0,2.253,1.642c2.614.552,4.595-2.151,5.663-4.138,1.24-2.305,2.223-5.612,1.161-8.166" transform="translate(-70.108 -136.419)" fill="#9e4c36"/>
        <path id="Trazado_705223" data-name="Trazado 705223" d="M202.453,376.159c-.22.832-.451,1.661-.686,2.488l-1.61-2.045a.613.613,0,0,0-.969.751l1.952,2.48a.606.606,0,0,0,.231.182q-.308,1.038-.636,2.071.487-.616.97-1.233a3.669,3.669,0,0,0,.492.647q.744-2.427,1.395-4.883c.2-.753-.936-1.22-1.137-.458" transform="translate(-114.363 -215.891)" fill="#7a2f28"/>
        <path id="Trazado_705224" data-name="Trazado 705224" d="M192.051,328.523c-.778.091-.729,1.318.057,1.225,3.712-.437,7.059,1.006,10.257,2.7a4.47,4.47,0,0,0,.484-1.13c-3.364-1.764-6.908-3.249-10.8-2.791" transform="translate(-110.018 -188.698)" fill="#7a2f28"/>
        <path id="Trazado_705225" data-name="Trazado 705225" d="M202.439,350.307c-.778.091-.729,1.318.057,1.225a14.755,14.755,0,0,1,7.812,1.5,5.864,5.864,0,0,0,.348-1.182,15.7,15.7,0,0,0-8.216-1.538" transform="translate(-115.987 -201.214)" fill="#7a2f28"/>
        <path id="Trazado_705226" data-name="Trazado 705226" d="M190.887,306.015a46.4,46.4,0,0,1-4.859,1.819l4.239,1q-.48-.135-.96-.256.8-1.275,1.58-2.566" transform="translate(-106.879 -175.815)" fill="#7a2f28"/>
        <path id="Trazado_705227" data-name="Trazado 705227" d="M185.629,340.3c.417-2.159-.606-3.545-2.189-4.824a2.1,2.1,0,0,1-.959-2.013,3.259,3.259,0,0,0-.058-1.2,3.485,3.485,0,0,0-1.616-1.9c-1.1-.694-2.461-.829-2.374-2.425.052-.965.509-1.782.252-2.773-.6-2.3-4.271-2.937-4.3-5.324-.01-.777-1.228-.928-1.219-.139.026,2.11,1.7,3.013,3.151,4.232,1.371,1.149,1.213,2.114.935,3.683a2.721,2.721,0,0,0,.342,2.26c.594.759,1.681.975,2.469,1.461a2.147,2.147,0,0,1,1.224,1.78c.016.456-.169.907-.114,1.37.114.974.77,1.437,1.521,1.961a3.433,3.433,0,0,1,1.715,3.71c-.149.774,1.069.911,1.219.139" transform="translate(-99.49 -183.378)" fill="#7a2f28"/>
        <path id="Trazado_705228" data-name="Trazado 705228" d="M137.778,47.952A46.6,46.6,0,0,0,92.926,82.133a1.376,1.376,0,1,0,2.653.727,43.755,43.755,0,1,1,55.441,53.289l-1.007.2q-.17-1.292-.342-2.584c-.119-.9-.4-1.638-1.13-1.676-.361-.231-1.329.114-1.8.463a21.053,21.053,0,0,0-5.232,5.031c-1.52,2.345,1.056,3.557,2.868,4.314,1.748.731,4.922,2.385,5.942-.192a5.006,5.006,0,0,0,.075-2.627l1.054-.184a46.5,46.5,0,0,0-13.672-90.943" transform="translate(-53.361 -27.55)" fill="#fff"/>
      </g>
    </g>
  </g>
</svg>
