<svg xmlns="http://www.w3.org/2000/svg" xmlns:xlink="http://www.w3.org/1999/xlink" width="77.465" height="77.465" viewBox="0 0 77.465 77.465">
  <defs>
    <clipPath id="clip-path">
      <path id="path1968" d="M0-682.665H77.465V-605.2H0Z" transform="translate(0 682.665)"/>
    </clipPath>
  </defs>
  <g id="g1962" transform="translate(0 682.665)">
    <g id="g1964" transform="translate(0 -682.665)">
      <g id="g1966" clip-path="url(#clip-path)">
        <g id="g1972" transform="translate(5.48 6.62)">
          <path id="path1974" d="M-382.19-521.377h-48.078a.842.842,0,0,1-.842-.842v-65.051a.843.843,0,0,1,.842-.843h48.078a.843.843,0,0,1,.843.843v65.051a.842.842,0,0,1-.843.842" transform="translate(431.11 588.113)" fill="#fe9738"/>
        </g>
        <g id="g1976" transform="translate(5.48 6.62)">
          <path id="path1978" d="M-62.389-514.8v-65.051a.843.843,0,0,1,.842-.843h-7.986a.843.843,0,0,0-.842.843V-514.8a.842.842,0,0,0,.842.842h7.986a.842.842,0,0,1-.842-.842" transform="translate(70.374 580.689)" fill="#fe860a"/>
        </g>
        <g id="g1980" transform="translate(5.48 6.62)">
          <path id="path1982" d="M-129.764-521.377h32.31a.842.842,0,0,0,.842-.842v-65.051a.842.842,0,0,0-.842-.843h-48.078a.842.842,0,0,0-.842.843v65.051a.842.842,0,0,0,.842.842h10.472" transform="translate(146.374 588.113)" fill="none" stroke="#000" stroke-linecap="round" stroke-linejoin="round" stroke-miterlimit="10" stroke-width="2"/>
        </g>
        <g id="g1984" transform="translate(1.135 2.275)">
          <path id="path1986" d="M-382.191-521.377h-48.078a.842.842,0,0,1-.842-.843v-65.051a.842.842,0,0,1,.842-.842h48.078a.842.842,0,0,1,.842.842v65.051a.842.842,0,0,1-.842.843" transform="translate(431.111 588.113)" fill="#fff3de"/>
        </g>
        <g id="g1988" transform="translate(1.135 2.275)">
          <path id="path1990" d="M-62.057-514.8v-65.051a.843.843,0,0,1,.842-.843h-7.943a.843.843,0,0,0-.842.843V-514.8a.842.842,0,0,0,.842.843h7.943a.842.842,0,0,1-.842-.843" transform="translate(70 580.689)" fill="#ffe5c2"/>
        </g>
        <g id="g1992" transform="translate(1.135 2.275)">
          <path id="path1994" d="M-388.772-89.791v-10.651a.843.843,0,0,0-.842-.843h-48.078a.842.842,0,0,0-.842.843V-35.39a.843.843,0,0,0,.842.843h48.078a.843.843,0,0,0,.842-.843V-84.5" transform="translate(438.535 101.284)" fill="none" stroke="#000" stroke-linecap="round" stroke-linejoin="round" stroke-miterlimit="10" stroke-width="2"/>
        </g>
        <g id="g1996" transform="translate(15.88 11.803)">
          <path id="path1998" d="M0,0H20.272" fill="none" stroke="#000" stroke-linecap="round" stroke-linejoin="round" stroke-miterlimit="10" stroke-width="2"/>
        </g>
        <g id="g2000" transform="translate(22.545 20.504)">
          <path id="path2002" d="M0,0H20.221" fill="none" stroke="#000" stroke-linecap="round" stroke-linejoin="round" stroke-miterlimit="10" stroke-width="2"/>
        </g>
        <g id="g2004" transform="translate(9.266 20.504)">
          <path id="path2006" d="M0,0H9.4" fill="none" stroke="#000" stroke-linecap="round" stroke-linejoin="round" stroke-miterlimit="10" stroke-width="2"/>
        </g>
        <g id="g2008" transform="translate(34.678 26.015)">
          <path id="path2010" d="M0,0H8.088" fill="none" stroke="#000" stroke-linecap="round" stroke-linejoin="round" stroke-miterlimit="10" stroke-width="2"/>
        </g>
        <g id="g2012" transform="translate(9.266 26.015)">
          <path id="path2014" d="M0,0H21.368" fill="none" stroke="#000" stroke-linecap="round" stroke-linejoin="round" stroke-miterlimit="10" stroke-width="2"/>
        </g>
        <g id="g2016" transform="translate(9.266 31.527)">
          <path id="path2018" d="M0,0H33.5" fill="none" stroke="#000" stroke-linecap="round" stroke-linejoin="round" stroke-miterlimit="10" stroke-width="2"/>
        </g>
        <g id="g2020" transform="translate(9.266 38.849)">
          <path id="path2022" d="M0,0H33.5" fill="none" stroke="#000" stroke-linecap="round" stroke-linejoin="round" stroke-miterlimit="10" stroke-width="2"/>
        </g>
        <g id="g2024" transform="translate(32.993 44.361)">
          <path id="path2026" d="M0,0H9.774" fill="none" stroke="#000" stroke-linecap="round" stroke-linejoin="round" stroke-miterlimit="10" stroke-width="2"/>
        </g>
        <g id="g2028" transform="translate(9.266 44.361)">
          <path id="path2030" d="M0,0H19.852" fill="none" stroke="#000" stroke-linecap="round" stroke-linejoin="round" stroke-miterlimit="10" stroke-width="2"/>
        </g>
        <g id="g2032" transform="translate(9.266 49.873)">
          <path id="path2034" d="M0,0H33.5" fill="none" stroke="#000" stroke-linecap="round" stroke-linejoin="round" stroke-miterlimit="10" stroke-width="2"/>
        </g>
        <g id="g2036" transform="translate(26.758 55.385)">
          <path id="path2038" d="M0,0H16.009" fill="none" stroke="#000" stroke-linecap="round" stroke-linejoin="round" stroke-miterlimit="10" stroke-width="2"/>
        </g>
        <g id="g2040" transform="translate(9.266 55.385)">
          <path id="path2042" d="M0,0H13.617" fill="none" stroke="#000" stroke-linecap="round" stroke-linejoin="round" stroke-miterlimit="10" stroke-width="2"/>
        </g>
        <g id="g2044" transform="translate(9.266 60.897)">
          <path id="path2046" d="M0,0H33.5" fill="none" stroke="#000" stroke-linecap="round" stroke-linejoin="round" stroke-miterlimit="10" stroke-width="2"/>
        </g>
        <g id="g2048" transform="translate(56.157 55.015)">
          <path id="path2050" d="M-26.195,0a17.725,17.725,0,0,1-1.564,1.79,17.881,17.881,0,0,1-1.789,1.565l4.758,4.758,3.354-3.354Z" transform="translate(29.548)" fill="#e5e1e5"/>
        </g>
        <g id="g2052" transform="translate(56.157 55.015)">
          <path id="path2054" d="M-26.195,0a17.725,17.725,0,0,1-1.564,1.79,17.881,17.881,0,0,1-1.789,1.565l4.758,4.758,3.354-3.354Z" transform="translate(29.548)" fill="none" stroke="#000" stroke-linecap="round" stroke-linejoin="round" stroke-miterlimit="10" stroke-width="2"/>
        </g>
        <g id="g2056" transform="translate(60.258 59.118)">
          <path id="path2058" d="M-92.706-123.638l3.959-3.959a.842.842,0,0,0,0-1.191l-10.428-10.428a.842.842,0,0,0-1.191,0l-3.959,3.959a.843.843,0,0,0,0,1.192L-93.9-123.638a.843.843,0,0,0,1.192,0" transform="translate(104.572 139.464)" fill="#baaeb9"/>
        </g>
        <g id="g2060" transform="translate(60.258 59.118)">
          <path id="path2062" d="M-39.162-42.169a.842.842,0,0,1,0-1.191l2.172-2.172-1.787-1.787a.842.842,0,0,0-1.191,0l-3.959,3.959a.842.842,0,0,0,0,1.191L-33.5-31.741a.843.843,0,0,0,1.192,0l1.787-1.787Z" transform="translate(44.175 47.567)" fill="#aa9ea9"/>
        </g>
        <g id="g2064" transform="translate(60.258 59.118)">
          <path id="path2066" d="M-71.831-31.59l-3.8-3.8a.842.842,0,0,0-1.191,0l-3.959,3.959a.843.843,0,0,0,0,1.191l10.428,10.428a.843.843,0,0,0,1.192,0l3.959-3.959a.843.843,0,0,0,0-1.192l-2.887-2.887" transform="translate(81.026 35.634)" fill="none" stroke="#000" stroke-linecap="round" stroke-linejoin="round" stroke-miterlimit="10" stroke-width="2"/>
        </g>
        <g id="g2068" transform="translate(27.687 26.547)">
          <path id="path2070" d="M-40.7-237.231a17.788,17.788,0,0,0,25.156,0,17.788,17.788,0,0,0,0-25.156,17.788,17.788,0,0,0-25.156,0,17.788,17.788,0,0,0,0,25.156" transform="translate(45.912 267.596)" fill="#aa9ea9"/>
        </g>
        <g id="g2072" transform="translate(27.687 26.547)">
          <path id="path2074" d="M-40.7-237.231a17.788,17.788,0,0,0,25.156,0,17.788,17.788,0,0,0,0-25.156,17.788,17.788,0,0,0-25.156,0A17.788,17.788,0,0,0-40.7-237.231Z" transform="translate(45.912 267.596)" fill="none" stroke="#000" stroke-linecap="round" stroke-linejoin="round" stroke-miterlimit="10" stroke-width="2"/>
        </g>
        <g id="g2076" transform="translate(32.088 30.948)">
          <path id="path2078" d="M-30.632-178.537a13.387,13.387,0,0,0,18.932,0,13.387,13.387,0,0,0,0-18.932,13.387,13.387,0,0,0-18.932,0,13.387,13.387,0,0,0,0,18.932" transform="translate(34.553 201.389)" fill="#b3dafe"/>
        </g>
        <g id="g2080" transform="translate(32.088 30.948)">
          <path id="path2082" d="M-80.231-178.534a13.387,13.387,0,0,1,0-18.932,13.325,13.325,0,0,1,6.291-3.541,13.379,13.379,0,0,0-12.64,3.541,13.387,13.387,0,0,0,0,18.932,13.379,13.379,0,0,0,12.64,3.541,13.325,13.325,0,0,1-6.291-3.541" transform="translate(90.501 201.387)" fill="#8ac9fe"/>
        </g>
        <g id="g2084" transform="translate(32.088 30.948)">
          <path id="path2086" d="M-30.632-178.537a13.387,13.387,0,0,0,18.932,0,13.387,13.387,0,0,0,0-18.932,13.387,13.387,0,0,0-18.932,0A13.387,13.387,0,0,0-30.632-178.537Z" transform="translate(34.553 201.389)" fill="none" stroke="#000" stroke-linecap="round" stroke-linejoin="round" stroke-miterlimit="10" stroke-width="2"/>
        </g>
        <g id="g2088" transform="translate(40.087 38.465)">
          <path id="path2090" d="M0,0H10.753" fill="none" stroke="#000" stroke-linecap="round" stroke-linejoin="round" stroke-miterlimit="10" stroke-width="2"/>
        </g>
        <g id="g2092" transform="translate(38.643 42.691)">
          <path id="path2094" d="M0,0H13.642" fill="none" stroke="#000" stroke-linecap="round" stroke-linejoin="round" stroke-miterlimit="10" stroke-width="2"/>
        </g>
        <g id="g2096" transform="translate(38.643 46.918)">
          <path id="path2098" d="M0,0H13.642" fill="none" stroke="#000" stroke-linecap="round" stroke-linejoin="round" stroke-miterlimit="10" stroke-width="2"/>
        </g>
        <g id="g2100" transform="translate(42.013 51.144)">
          <path id="path2102" d="M0,0H6.9" fill="none" stroke="#000" stroke-linecap="round" stroke-linejoin="round" stroke-miterlimit="10" stroke-width="2"/>
        </g>
        <g id="g2104" transform="translate(49.867 26.82)">
          <path id="path2106" d="M-46.56-2.394C-47.649.977-48.841,2.17-52.213,3.259a.445.445,0,0,0,0,.845c3.372,1.089,4.564,2.282,5.653,5.653a.445.445,0,0,0,.845,0c1.089-3.372,2.282-4.565,5.653-5.653a.445.445,0,0,0,0-.845C-43.433,2.17-44.626.977-45.714-2.394a.445.445,0,0,0-.845,0" transform="translate(52.52 2.701)" fill="#fed402"/>
        </g>
        <g id="g2108" transform="translate(49.867 31.228)">
          <path id="path2110" d="M-27.484,0A9.974,9.974,0,0,1-30.7,1.552a.445.445,0,0,0,0,.845c3.372,1.089,4.564,2.282,5.653,5.653a.445.445,0,0,0,.845,0,10.029,10.029,0,0,1,1.536-3.193A6.783,6.783,0,0,0-27.484,0" transform="translate(31.002)" fill="#fac600"/>
        </g>
        <g id="g2112" transform="translate(49.867 26.82)">
          <path id="path2114" d="M-46.56-2.394C-47.649.977-48.841,2.17-52.213,3.259a.445.445,0,0,0,0,.845c3.372,1.089,4.564,2.282,5.653,5.653a.445.445,0,0,0,.845,0c1.089-3.372,2.282-4.565,5.653-5.653a.445.445,0,0,0,0-.845C-43.433,2.17-44.626.977-45.714-2.394A.445.445,0,0,0-46.56-2.394Z" transform="translate(52.52 2.701)" fill="none" stroke="#000" stroke-linecap="round" stroke-linejoin="round" stroke-miterlimit="10" stroke-width="2"/>
        </g>
        <g id="g2116" transform="translate(63.917 23.345)">
          <path id="path2118" d="M0,0V4.381" fill="none" stroke="#000" stroke-linecap="round" stroke-linejoin="round" stroke-miterlimit="10" stroke-width="2"/>
        </g>
        <g id="g2120" transform="translate(61.726 25.536)">
          <path id="path2122" d="M0,0H4.381" fill="none" stroke="#000" stroke-linecap="round" stroke-linejoin="round" stroke-miterlimit="10" stroke-width="2"/>
        </g>
      </g>
    </g>
  </g>
</svg>
