<svg xmlns="http://www.w3.org/2000/svg" width="91.531" height="94.264" viewBox="0 0 91.531 94.264">
  <g id="Fill_out_line" data-name="Fill out line" transform="translate(-16 -17.096)">
    <g id="Grupo_1000138" data-name="Grupo 1000138" transform="translate(-0.165 17.096)">
      <path id="Trazado_705309" data-name="Trazado 705309" d="M276.466,44.229l1.294,7.763L270,46.817l-2.588,7.763-2.588-7.763-7.763,5.176,1.294-7.763-9.057,1.294,6.47-6.47L248,36.466l6.47-5.176L248,26.115l7.763-1.294-6.47-6.47,9.057,1.294-1.294-7.763,7.763,3.882L267.409,8,270,15.763l7.763-3.882-1.294,7.763,9.057-1.294-6.47,6.47,7.763,1.294-6.47,5.176,6.47,5.176-7.763,2.588,6.47,6.47Z" transform="translate(-180.415 -6.706)" fill="#eebe33"/>
      <ellipse id="Elipse_8297" data-name="Elipse 8297" cx="2.882" cy="2.521" rx="2.882" ry="2.521" transform="translate(84.091 31.236)" fill="#e44b4d"/>
      <path id="Trazado_705310" data-name="Trazado 705310" d="M346.588,94.233h2.588L351.763,80H344Z" transform="translate(-260.888 -67.061)" fill="#e44b4d"/>
      <path id="Trazado_705329" data-name="Trazado 705329" d="M280.919,28.75l-5.207-4.165,5.207-4.165a1.294,1.294,0,0,0-.6-2.287l-5.283-.881,4.692-4.692a1.294,1.294,0,0,0-1.1-2.2l-7.307,1.044,1-6.02a1.294,1.294,0,0,0-1.855-1.37l-6.429,3.215L261.93.885a1.294,1.294,0,0,0-2.455,0l-2.116,6.348L250.93,4.018a1.294,1.294,0,0,0-1.855,1.37l1,6.02-7.307-1.044a1.294,1.294,0,0,0-1.1,2.2l4.692,4.692-5.283.881a1.294,1.294,0,0,0-.6,2.287l5.207,4.165-.354.284,1.617,2.021,1.617-1.294a1.294,1.294,0,0,0,0-2.021l-4.207-3.365,4.9-.817a1.294,1.294,0,0,0,.7-2.191l-3.725-3.725,5.215.745a1.294,1.294,0,0,0,1.459-1.494l-.876-5.257,5.491,2.745a1.294,1.294,0,0,0,1.806-.748l1.36-4.081,1.36,4.081a1.294,1.294,0,0,0,1.806.748l5.491-2.745-.876,5.257a1.294,1.294,0,0,0,1.459,1.494l5.215-.745L271.433,17.2a1.294,1.294,0,0,0,.7,2.191l4.905.817-4.207,3.365a1.294,1.294,0,0,0,0,2.021l4.612,3.69-5.507,1.836a1.294,1.294,0,0,0-.506,2.143l3.725,3.725-5.215-.745a1.294,1.294,0,0,0-1.459,1.494l.8,4.817-5.278-3.519a1.294,1.294,0,0,0-1.945.667l-1.36,4.081-1.36-4.081a1.294,1.294,0,0,0-1.945-.667l-6.47,4.313,1.435,2.153,5.06-3.373,2.052,6.156a1.294,1.294,0,0,0,2.455,0l2.052-6.156,6.354,4.236a1.294,1.294,0,0,0,1.994-1.289l-1-6.02,7.307,1.044a1.294,1.294,0,0,0,1.1-2.2l-4.989-4.989,5.777-1.926a1.294,1.294,0,0,0,.4-2.238Z" transform="translate(-173.708 0)"/>
      <path id="Trazado_705330" data-name="Trazado 705330" d="M344,187.882A3.882,3.882,0,1,0,347.882,184,3.882,3.882,0,0,0,344,187.882Zm5.176,0a1.294,1.294,0,1,1-1.294-1.294,1.294,1.294,0,0,1,1.294,1.294Z" transform="translate(-260.888 -154.24)"/>
      <path id="Trazado_705331" data-name="Trazado 705331" d="M346.051,72.465a1.294,1.294,0,0,0-.993-.465h-7.763a1.294,1.294,0,0,0-1.273,1.525l2.588,14.233a1.294,1.294,0,0,0,1.273,1.063h2.588a1.294,1.294,0,0,0,1.273-1.063l2.588-14.233A1.294,1.294,0,0,0,346.051,72.465ZM341.39,86.233h-.428l-2.117-11.645h4.663Z" transform="translate(-254.182 -60.355)"/>
    </g>
    <g id="Grupo_1000139" data-name="Grupo 1000139">
      <path id="Trazado_705311" data-name="Trazado 705311" d="M85.388,232h6.6v10.777h-6.6A5.388,5.388,0,0,1,80,237.388h0A5.388,5.388,0,0,1,85.388,232Z" transform="translate(-49.631 -179.912)" fill="#f2c194"/>
      <path id="Trazado_705312" data-name="Trazado 705312" d="M5.388,0h6.6V10.777h-6.6A5.388,5.388,0,0,1,0,5.388H0A5.388,5.388,0,0,1,5.388,0Z" transform="translate(77.068 62.864) rotate(180)" fill="#f2c194"/>
      <path id="Trazado_705313" data-name="Trazado 705313" d="M95.845,371.44v.483H24v-.483a39.651,39.651,0,0,1,.3-4.87,40.13,40.13,0,0,1,.891-4.8,24.536,24.536,0,0,1,18.693-18.049A24.483,24.483,0,0,1,49,343.184h.146a5.393,5.393,0,0,0,5.388-5.386V336H65.311v1.8a5.393,5.393,0,0,0,5.388,5.386h.146q1.222,0,2.431.121a24.108,24.108,0,0,1,2.685.42q.832.175,1.65.411a24.543,24.543,0,0,1,17.043,17.638A39.854,39.854,0,0,1,95.845,371.44Z" transform="translate(-6.204 -260.563)" fill="#f4ceaf"/>
      <path id="Trazado_705314" data-name="Trazado 705314" d="M95.845,396.674v.483H24v-.483a39.651,39.651,0,0,1,.3-4.87,40.13,40.13,0,0,1,.891-4.8A24.536,24.536,0,0,1,43.883,368.96a24.109,24.109,0,0,1,2.685-.42,15.9,15.9,0,0,0,1.628,2.012,16.147,16.147,0,0,0,25.081-2.012c.5.049.988.115,1.48.193q.606.1,1.206.227.832.175,1.65.411a24.543,24.543,0,0,1,17.043,17.638A39.854,39.854,0,0,1,95.845,396.674Z" transform="translate(-6.204 -285.797)" fill="#c4d4e0"/>
      <path id="Trazado_705315" data-name="Trazado 705315" d="M151.228,364.073a16.147,16.147,0,0,1-25.081,2.012,15.9,15.9,0,0,1-1.628-2.012c.454-.045.907-.079,1.363-.1.355-.018.712-.025,1.069-.025h.146a5.357,5.357,0,0,0,3.352-1.172,10.771,10.771,0,0,0,14.849,0,5.357,5.357,0,0,0,3.352,1.172h.146Q150.019,363.952,151.228,364.073Z" transform="translate(-84.156 -281.33)" fill="#a6b2bc"/>
      <path id="Trazado_705316" data-name="Trazado 705316" d="M257.146,398.124v.483H232a47.277,47.277,0,0,1,1.213-10.642l1.6-6.915,2.454-10.64q.832.175,1.65.411a24.543,24.543,0,0,1,17.043,17.638A39.855,39.855,0,0,1,257.146,398.124Z" transform="translate(-167.505 -287.247)" fill="#396795"/>
      <path id="Trazado_705317" data-name="Trazado 705317" d="M49.146,398.607H24v-.483a39.651,39.651,0,0,1,.3-4.87,40.129,40.129,0,0,1,.891-4.8A24.535,24.535,0,0,1,43.883,370.41l1.37,5.941,1.084,4.7,1.6,6.917A47.272,47.272,0,0,1,49.146,398.607Z" transform="translate(-6.204 -287.247)" fill="#396795"/>
      <path id="Trazado_705318" data-name="Trazado 705318" d="M144.33,192.981v10.777a16.165,16.165,0,1,1-32.33,0V192.981L133.553,184Z" transform="translate(-74.447 -142.689)" fill="#f4ceaf"/>
      <path id="Trazado_705319" data-name="Trazado 705319" d="M123.107,151.112v6.441H118.9a7.183,7.183,0,0,1-5.078-2.1l-5.081-5.081a24.529,24.529,0,0,1-17.344,7.184H89.2a9.2,9.2,0,0,1-9.2-9.2v-1.578a2.23,2.23,0,0,1,2.247-2.236,2.186,2.186,0,0,1,1.563.658,2.233,2.233,0,0,0,3.157,0l4.753-4.753a15.177,15.177,0,0,1,21.464,0l1.152,1.152a2.247,2.247,0,0,1,0,3.175l-.209.209h2.849a6.132,6.132,0,0,1,6.132,6.131Z" transform="translate(-49.631 -105.466)" fill="#ad7d4d"/>
      <path id="Trazado_705320" data-name="Trazado 705320" d="M252.478,372.291v11.946l-7.968-3.188,2.454-10.64q.832.175,1.65.411A24.437,24.437,0,0,1,252.478,372.291Z" transform="translate(-177.206 -287.247)" fill="#26507a"/>
      <path id="Trazado_705321" data-name="Trazado 705321" d="M95.968,381.05l-6.075,2.431L88,384.238V372.291a24.459,24.459,0,0,1,5.514-1.881l1.37,5.941Z" transform="translate(-55.835 -287.247)" fill="#26507a"/>
      <path id="Trazado_705322" data-name="Trazado 705322" d="M138.228,339.853h0a3.3,3.3,0,0,0,.179,2.516l1.186,2.371L136,350.129l12.573,7.184,8.729-11.639a3.592,3.592,0,0,0-.574-4.915l-5.084-4.237a3.592,3.592,0,0,0-5.289.767l-1.375,2.062-1.8-1.2a3.3,3.3,0,0,0-4.954,1.7Z" transform="translate(-93.058 -260.323)" fill="#f4ceaf"/>
      <path id="Trazado_705323" data-name="Trazado 705323" d="M91.072,421.553l6.5-9.2a3.592,3.592,0,0,0-1.151-5.193L83.887,400,68.8,421.553Z" transform="translate(-40.946 -310.194)" fill="#396795"/>
      <path id="Trazado_705324" data-name="Trazado 705324" d="M133.388,240H129.8a1.8,1.8,0,0,0,0,3.592h3.592a1.8,1.8,0,0,0,0-3.592Z" transform="translate(-86.854 -186.116)"/>
      <path id="Trazado_705325" data-name="Trazado 705325" d="M209.8,243.592h3.592a1.8,1.8,0,0,0,0-3.592H209.8a1.8,1.8,0,0,0,0,3.592Z" transform="translate(-148.893 -186.116)"/>
      <path id="Trazado_705326" data-name="Trazado 705326" d="M177.887,255.751a1.8,1.8,0,0,0,3.408-1.136l-1.8-5.388a1.8,1.8,0,0,0-3.408,1.136Z" transform="translate(-124.076 -192.318)"/>
      <circle id="Elipse_8298" data-name="Elipse 8298" cx="2" cy="2" r="2" transform="translate(43 57.36)"/>
      <ellipse id="Elipse_8299" data-name="Elipse 8299" cx="1.5" cy="2" rx="1.5" ry="2" transform="translate(61 57.36)"/>
      <path id="Trazado_705327" data-name="Trazado 705327" d="M169.8,307.592h3.592a1.8,1.8,0,0,0,0-3.592H169.8a1.8,1.8,0,1,0,0,3.592Z" transform="translate(-117.874 -235.747)"/>
      <path id="Trazado_705328" data-name="Trazado 705328" d="M78.6,184.091a26.328,26.328,0,0,0-12.372-3.952,5.365,5.365,0,0,0-1.409-1.82l-2.6-2.165a18.017,18.017,0,0,0,9.093-12.232h.365a7.182,7.182,0,0,0,3.592-13.4v-5.611a7.928,7.928,0,0,0-7.928-7.928h-.188a4.029,4.029,0,0,0-1.182-2.858l-1.152-1.152a16.973,16.973,0,0,0-24,0l-4.753,4.753a.436.436,0,0,1-.616,0,4.028,4.028,0,0,0-6.876,2.848v1.578a10.923,10.923,0,0,0,3.22,7.774c.174.174.354.339.537.5a7.184,7.184,0,0,0,3.427,13.5h.365A18.017,18.017,0,0,0,44.941,176a5.092,5.092,0,0,0-1.729,4.071c-.09.007-.179.015-.27.015H42.8a26.339,26.339,0,0,0-25.553,19.951A41.684,41.684,0,0,0,16,210.139v.483h3.592v-.483a38.078,38.078,0,0,1,1.135-9.225,22.628,22.628,0,0,1,9.642-13.532v8.871a1.8,1.8,0,0,0,2.463,1.668l2.39-.956L28.9,206l2.943,2.06,11.633-16.619,11.113,6.35a1.8,1.8,0,0,1,.576,2.6l-5.232,7.4,2.933,2.074,5.232-7.4a5.379,5.379,0,0,0-.164-6.436l7.75-10.333a5.371,5.371,0,0,0,.916-1.926c.329.028.658.065.985.108l-3.624,15.705A49.184,49.184,0,0,0,62.7,210.622h3.592a45.57,45.57,0,0,1,1.164-10.228l1.127-4.883L74.6,197.92a1.8,1.8,0,0,0,2.463-1.668v-8.871a22.628,22.628,0,0,1,9.641,13.528,38.087,38.087,0,0,1,1.136,9.229v.483h3.592v-.483a41.674,41.674,0,0,0-1.242-10.1A26.213,26.213,0,0,0,78.6,184.091ZM71.68,160.33v-7.184a3.592,3.592,0,1,1,0,7.184ZM32.165,140.573a.436.436,0,0,1,.744-.308,4.033,4.033,0,0,0,5.7,0l4.753-4.753a13.381,13.381,0,0,1,18.923,0l1.152,1.152a.449.449,0,0,1,0,.635l-2,2a1.8,1.8,0,0,0,2.54,2.54l1.27-1.27h2.1a4.336,4.336,0,0,1,4.336,4.336v4.645H69.267a5.352,5.352,0,0,1-3.81-1.578l-5.08-5.08a1.8,1.8,0,0,0-2.54,0,22.584,22.584,0,0,1-16.075,6.658H39.568a7.4,7.4,0,0,1-7.4-7.4Zm0,16.165a3.6,3.6,0,0,1,3.592-3.592v7.184A3.6,3.6,0,0,1,32.165,156.738Zm7.184,3.592v-7.19c.073,0,.145.005.218.005h2.195a26.132,26.132,0,0,0,17.3-6.483l3.852,3.852a8.91,8.91,0,0,0,5.171,2.552v7.263a14.4,14.4,0,0,1-8.961,13.315,5.384,5.384,0,0,0-7.324,1.587l-.378.568-.3-.2a5.15,5.15,0,0,0-1.075-.547,1.8,1.8,0,0,0-1.118-1.169A14.394,14.394,0,0,1,39.35,160.33Zm3.592,23.35a7.206,7.206,0,0,0,1.5-.16l.015.031-3,4.5-.481.687-1.123-4.867a22.781,22.781,0,0,1,2.941-.193Zm-8.98,1.789a22.7,22.7,0,0,1,2.38-.852l1.7,7.353-4.076,1.63Zm28.846-1.932-7.778,10.37L45.5,188.463l2.525-3.787a1.8,1.8,0,0,0,.112-1.8l-1.186-2.371a1.5,1.5,0,0,1,2.173-1.918l1.8,1.2a1.8,1.8,0,0,0,2.491-.5l1.375-2.062a1.8,1.8,0,0,1,2.644-.383l5.084,4.236a1.8,1.8,0,0,1,.287,2.457Zm6.593,8.433,1.7-7.353a22.752,22.752,0,0,1,2.379.853V193.6Z" transform="translate(0 -99.262)"/>
    </g>
  </g>
</svg>
